<?xml version="1.0" encoding="UTF-8" standalone="no"?>
<!DOCTYPE svg PUBLIC "-//W3C//DTD SVG 1.1//EN"
 "http://www.w3.org/Graphics/SVG/1.1/DTD/svg11.dtd">
<!-- Generated by graphviz version 2.43.0 (0)
 -->
<!-- Title: src/handlers/data_channel/a_data_channel_handler.cpp Pages: 1 -->
<svg width="757pt" height="500pt"
 viewBox="0.00 0.00 757.00 500.00" xmlns="http://www.w3.org/2000/svg" xmlns:xlink="http://www.w3.org/1999/xlink">
<g id="graph0" class="graph" transform="scale(1 1) rotate(0) translate(4 496)">
<title>src/handlers/data_channel/a_data_channel_handler.cpp</title>
<!-- Node1 -->
<g id="Node000001" class="node">
<title>Node1</title>
<g id="a_Node000001"><a xlink:title=" ">
<polygon fill="#999999" stroke="#666666" points="429,-492 271,-492 271,-462 429,-462 429,-492"/>
<text text-anchor="start" x="279" y="-480" font-family="Helvetica,sans-Serif" font-size="10.00">src/handlers/data_channel</text>
<text text-anchor="middle" x="350" y="-469" font-family="Helvetica,sans-Serif" font-size="10.00">/a_data_channel_handler.cpp</text>
</a>
</g>
</g>
<!-- Node2 -->
<g id="Node000002" class="node">
<title>Node2</title>
<g id="a_Node000002"><a xlink:title=" ">
<polygon fill="#e0e0e0" stroke="#999999" points="48,-415 0,-415 0,-396 48,-396 48,-415"/>
<text text-anchor="middle" x="24" y="-403" font-family="Helvetica,sans-Serif" font-size="10.00">mutex</text>
</a>
</g>
</g>
<!-- Node1&#45;&gt;Node2 -->
<g id="edge1_Node000001_Node000002" class="edge">
<title>Node1&#45;&gt;Node2</title>
<g id="a_edge1_Node000001_Node000002"><a xlink:title=" ">
<path fill="none" stroke="#63b8ff" d="M270.89,-470.35C210.75,-464.2 126.77,-451.58 57,-426 52.85,-424.48 48.64,-422.44 44.67,-420.24"/>
<polygon fill="#63b8ff" stroke="#63b8ff" points="46.38,-417.19 36,-415.03 42.77,-423.19 46.38,-417.19"/>
</a>
</g>
</g>
<!-- Node3 -->
<g id="Node000003" class="node">
<title>Node3</title>
<g id="a_Node000003"><a xlink:title=" ">
<polygon fill="#e0e0e0" stroke="#999999" points="113.5,-415 66.5,-415 66.5,-396 113.5,-396 113.5,-415"/>
<text text-anchor="middle" x="90" y="-403" font-family="Helvetica,sans-Serif" font-size="10.00">queue</text>
</a>
</g>
</g>
<!-- Node1&#45;&gt;Node3 -->
<g id="edge2_Node000001_Node000003" class="edge">
<title>Node1&#45;&gt;Node3</title>
<g id="a_edge2_Node000001_Node000003"><a xlink:title=" ">
<path fill="none" stroke="#63b8ff" d="M270.78,-465.26C226.03,-457.57 169.67,-445.13 122,-426 118.17,-424.46 114.27,-422.49 110.58,-420.39"/>
<polygon fill="#63b8ff" stroke="#63b8ff" points="112.31,-417.35 101.96,-415.1 108.65,-423.31 112.31,-417.35"/>
</a>
</g>
</g>
<!-- Node4 -->
<g id="Node000004" class="node">
<title>Node4</title>
<g id="a_Node000004"><a xlink:title=" ">
<polygon fill="#e0e0e0" stroke="#999999" points="176.5,-415 131.5,-415 131.5,-396 176.5,-396 176.5,-415"/>
<text text-anchor="middle" x="154" y="-403" font-family="Helvetica,sans-Serif" font-size="10.00">utility</text>
</a>
</g>
</g>
<!-- Node1&#45;&gt;Node4 -->
<g id="edge3_Node000001_Node000004" class="edge">
<title>Node1&#45;&gt;Node4</title>
<g id="a_edge3_Node000001_Node000004"><a xlink:title=" ">
<path fill="none" stroke="#63b8ff" d="M289.79,-461.91C257.9,-453.42 218.5,-441.28 185,-426 181.5,-424.4 177.92,-422.47 174.49,-420.45"/>
<polygon fill="#63b8ff" stroke="#63b8ff" points="176.27,-417.43 165.95,-415.07 172.54,-423.36 176.27,-417.43"/>
</a>
</g>
</g>
<!-- Node5 -->
<g id="Node000005" class="node">
<title>Node5</title>
<g id="a_Node000005"><a xlink:title=" ">
<polygon fill="#e0e0e0" stroke="#999999" points="352,-415 194,-415 194,-396 352,-396 352,-415"/>
<text text-anchor="middle" x="273" y="-403" font-family="Helvetica,sans-Serif" font-size="10.00">api/data_channel_interface.h</text>
</a>
</g>
</g>
<!-- Node1&#45;&gt;Node5 -->
<g id="edge4_Node000001_Node000005" class="edge">
<title>Node1&#45;&gt;Node5</title>
<g id="a_edge4_Node000001_Node000005"><a xlink:title=" ">
<path fill="none" stroke="#63b8ff" d="M334.42,-461.94C321.61,-450.37 303.48,-434.01 290.23,-422.06"/>
<polygon fill="#63b8ff" stroke="#63b8ff" points="292.48,-419.37 282.71,-415.27 287.79,-424.57 292.48,-419.37"/>
</a>
</g>
</g>
<!-- Node6 -->
<g id="Node000006" class="node">
<title>Node6</title>
<g id="a_Node000006"><a xlink:title=" ">
<polygon fill="#e0e0e0" stroke="#999999" points="484.5,-420.5 369.5,-420.5 369.5,-390.5 484.5,-390.5 484.5,-420.5"/>
<text text-anchor="start" x="377.5" y="-408.5" font-family="Helvetica,sans-Serif" font-size="10.00">api/peer_connection</text>
<text text-anchor="middle" x="427" y="-397.5" font-family="Helvetica,sans-Serif" font-size="10.00">_interface.h</text>
</a>
</g>
</g>
<!-- Node1&#45;&gt;Node6 -->
<g id="edge5_Node000001_Node000006" class="edge">
<title>Node1&#45;&gt;Node6</title>
<g id="a_edge5_Node000001_Node000006"><a xlink:title=" ">
<path fill="none" stroke="#63b8ff" d="M365.58,-461.94C376.54,-452.04 391.39,-438.64 403.75,-427.49"/>
<polygon fill="#63b8ff" stroke="#63b8ff" points="406.36,-429.84 411.44,-420.54 401.67,-424.65 406.36,-429.84"/>
</a>
</g>
</g>
<!-- Node7 -->
<g id="Node000007" class="node">
<title>Node7</title>
<g id="a_Node000007"><a xlink:href="a__data__channel__handler_8h.html" target="_top" xlink:title=" ">
<polygon fill="white" stroke="#666666" points="474,-349 334,-349 334,-308 474,-308 474,-349"/>
<text text-anchor="start" x="342" y="-337" font-family="Helvetica,sans-Serif" font-size="10.00">mosaic/handlers/data</text>
<text text-anchor="start" x="342" y="-326" font-family="Helvetica,sans-Serif" font-size="10.00">_channel/a_data_channel</text>
<text text-anchor="middle" x="404" y="-315" font-family="Helvetica,sans-Serif" font-size="10.00">_handler.h</text>
</a>
</g>
</g>
<!-- Node1&#45;&gt;Node7 -->
<g id="edge6_Node000001_Node000007" class="edge">
<title>Node1&#45;&gt;Node7</title>
<g id="a_edge6_Node000001_Node000007"><a xlink:title=" ">
<path fill="none" stroke="#63b8ff" d="M429.13,-466.39C453.63,-459.27 478.08,-447.02 493,-426 503.55,-411.14 501.84,-400.93 493,-385 486.1,-372.57 475.14,-362.56 463.23,-354.65"/>
<polygon fill="#63b8ff" stroke="#63b8ff" points="464.79,-351.5 454.43,-349.26 461.13,-357.47 464.79,-351.5"/>
</a>
</g>
</g>
<!-- Node10 -->
<g id="Node000010" class="node">
<title>Node10</title>
<g id="a_Node000010"><a xlink:href="log_8h.html" target="_top" xlink:title=" ">
<polygon fill="white" stroke="#666666" points="714.5,-189.5 601.5,-189.5 601.5,-170.5 714.5,-170.5 714.5,-189.5"/>
<text text-anchor="middle" x="658" y="-177.5" font-family="Helvetica,sans-Serif" font-size="10.00">mosaic/logger/log.h</text>
</a>
</g>
</g>
<!-- Node1&#45;&gt;Node10 -->
<g id="edge26_Node000001_Node000010" class="edge">
<title>Node1&#45;&gt;Node10</title>
<g id="a_edge26_Node000001_Node000010"><a xlink:title=" ">
<path fill="none" stroke="#63b8ff" d="M429.15,-470.34C512.26,-463.28 636.54,-449.22 678,-426 730.24,-396.74 760.4,-365.29 743,-308 729.33,-263.01 693.85,-219.44 673.31,-196.89"/>
<polygon fill="#63b8ff" stroke="#63b8ff" points="675.86,-194.5 666.48,-189.57 670.74,-199.27 675.86,-194.5"/>
</a>
</g>
</g>
<!-- Node18 -->
<g id="Node000018" class="node">
<title>Node18</title>
<g id="a_Node000018"><a xlink:href="data__channel__receivable_8h.html" target="_top" xlink:title=" ">
<polygon fill="white" stroke="#666666" points="669,-426 541,-426 541,-385 669,-385 669,-426"/>
<text text-anchor="start" x="549" y="-414" font-family="Helvetica,sans-Serif" font-size="10.00">mosaic/handlers/data</text>
<text text-anchor="start" x="549" y="-403" font-family="Helvetica,sans-Serif" font-size="10.00">_channel/data_channel</text>
<text text-anchor="middle" x="605" y="-392" font-family="Helvetica,sans-Serif" font-size="10.00">_receivable.h</text>
</a>
</g>
</g>
<!-- Node1&#45;&gt;Node18 -->
<g id="edge20_Node000001_Node000018" class="edge">
<title>Node1&#45;&gt;Node18</title>
<g id="a_edge20_Node000001_Node000018"><a xlink:title=" ">
<path fill="none" stroke="#63b8ff" d="M401.6,-461.94C438.79,-451.8 489.52,-437.98 531.01,-426.67"/>
<polygon fill="#63b8ff" stroke="#63b8ff" points="532.07,-430 540.8,-424 530.23,-423.25 532.07,-430"/>
</a>
</g>
</g>
<!-- Node8 -->
<g id="Node000008" class="node">
<title>Node8</title>
<g id="a_Node000008"><a xlink:href="i__data__channel__handler_8h.html" target="_top" xlink:title=" ">
<polygon fill="white" stroke="#666666" points="527.5,-272 390.5,-272 390.5,-231 527.5,-231 527.5,-272"/>
<text text-anchor="start" x="398.5" y="-260" font-family="Helvetica,sans-Serif" font-size="10.00">mosaic/handlers/data</text>
<text text-anchor="start" x="398.5" y="-249" font-family="Helvetica,sans-Serif" font-size="10.00">_channel/i_data_channel</text>
<text text-anchor="middle" x="459" y="-238" font-family="Helvetica,sans-Serif" font-size="10.00">_handler.h</text>
</a>
</g>
</g>
<!-- Node7&#45;&gt;Node8 -->
<g id="edge7_Node000007_Node000008" class="edge">
<title>Node7&#45;&gt;Node8</title>
<g id="a_edge7_Node000007_Node000008"><a xlink:title=" ">
<path fill="none" stroke="#63b8ff" d="M418.45,-307.79C424.64,-299.35 431.98,-289.35 438.7,-280.18"/>
<polygon fill="#63b8ff" stroke="#63b8ff" points="441.55,-282.21 444.65,-272.07 435.91,-278.07 441.55,-282.21"/>
</a>
</g>
</g>
<!-- Node9 -->
<g id="Node000009" class="node">
<title>Node9</title>
<g id="a_Node000009"><a xlink:title=" ">
<polygon fill="#e0e0e0" stroke="#999999" points="448,-74 404,-74 404,-55 448,-55 448,-74"/>
<text text-anchor="middle" x="426" y="-62" font-family="Helvetica,sans-Serif" font-size="10.00">string</text>
</a>
</g>
</g>
<!-- Node8&#45;&gt;Node9 -->
<g id="edge8_Node000008_Node000009" class="edge">
<title>Node8&#45;&gt;Node9</title>
<g id="a_edge8_Node000008_Node000009"><a xlink:title=" ">
<path fill="none" stroke="#63b8ff" d="M444.96,-230.98C438.46,-220.78 431.44,-207.79 428,-195 417.73,-156.77 420.64,-109.88 423.46,-84.32"/>
<polygon fill="#63b8ff" stroke="#63b8ff" points="426.96,-84.54 424.7,-74.19 420.01,-83.69 426.96,-84.54"/>
</a>
</g>
</g>
<!-- Node8&#45;&gt;Node10 -->
<g id="edge9_Node000008_Node000010" class="edge">
<title>Node8&#45;&gt;Node10</title>
<g id="a_edge9_Node000008_Node000010"><a xlink:title=" ">
<path fill="none" stroke="#63b8ff" d="M514.96,-230.96C550.08,-218.69 594.21,-203.28 624.1,-192.84"/>
<polygon fill="#63b8ff" stroke="#63b8ff" points="625.36,-196.11 633.65,-189.5 623.06,-189.5 625.36,-196.11"/>
</a>
</g>
</g>
<!-- Node17 -->
<g id="Node000017" class="node">
<title>Node17</title>
<g id="a_Node000017"><a xlink:title=" ">
<polygon fill="#e0e0e0" stroke="#999999" points="583,-195 437,-195 437,-165 583,-165 583,-195"/>
<text text-anchor="start" x="445" y="-183" font-family="Helvetica,sans-Serif" font-size="10.00">mosaic/rtc/webrtc_forward</text>
<text text-anchor="middle" x="510" y="-172" font-family="Helvetica,sans-Serif" font-size="10.00">_decl.h</text>
</a>
</g>
</g>
<!-- Node8&#45;&gt;Node17 -->
<g id="edge19_Node000008_Node000017" class="edge">
<title>Node8&#45;&gt;Node17</title>
<g id="a_edge19_Node000008_Node000017"><a xlink:title=" ">
<path fill="none" stroke="#63b8ff" d="M473.48,-230.77C479.75,-222.22 487.13,-212.17 493.6,-203.35"/>
<polygon fill="#63b8ff" stroke="#63b8ff" points="496.6,-205.17 499.7,-195.04 490.96,-201.03 496.6,-205.17"/>
</a>
</g>
</g>
<!-- Node11 -->
<g id="Node000011" class="node">
<title>Node11</title>
<g id="a_Node000011"><a xlink:href="i__logger_8h.html" target="_top" xlink:title=" ">
<polygon fill="white" stroke="#666666" points="592,-129 528,-129 528,-110 592,-110 592,-129"/>
<text text-anchor="middle" x="560" y="-117" font-family="Helvetica,sans-Serif" font-size="10.00">i_logger.h</text>
</a>
</g>
</g>
<!-- Node10&#45;&gt;Node11 -->
<g id="edge10_Node000010_Node000011" class="edge">
<title>Node10&#45;&gt;Node11</title>
<g id="a_edge10_Node000010_Node000011"><a xlink:title=" ">
<path fill="none" stroke="#63b8ff" d="M643.54,-170.37C627.69,-160.91 602.03,-145.59 583.32,-134.42"/>
<polygon fill="#63b8ff" stroke="#63b8ff" points="584.9,-131.29 574.52,-129.17 581.31,-137.3 584.9,-131.29"/>
</a>
</g>
</g>
<!-- Node14 -->
<g id="Node000014" class="node">
<title>Node14</title>
<g id="a_Node000014"><a xlink:href="log__service_8h.html" target="_top" xlink:title=" ">
<polygon fill="white" stroke="#666666" points="698.5,-74 617.5,-74 617.5,-55 698.5,-55 698.5,-74"/>
<text text-anchor="middle" x="658" y="-62" font-family="Helvetica,sans-Serif" font-size="10.00">log_service.h</text>
</a>
</g>
</g>
<!-- Node10&#45;&gt;Node14 -->
<g id="edge18_Node000010_Node000014" class="edge">
<title>Node10&#45;&gt;Node14</title>
<g id="a_edge18_Node000010_Node000014"><a xlink:title=" ">
<path fill="none" stroke="#63b8ff" d="M658,-170.47C658,-152.23 658,-109.07 658,-84.14"/>
<polygon fill="#63b8ff" stroke="#63b8ff" points="661.5,-84.13 658,-74.13 654.5,-84.13 661.5,-84.13"/>
</a>
</g>
</g>
<!-- Node11&#45;&gt;Node9 -->
<g id="edge11_Node000011_Node000009" class="edge">
<title>Node11&#45;&gt;Node9</title>
<g id="a_edge11_Node000011_Node000009"><a xlink:title=" ">
<path fill="none" stroke="#63b8ff" d="M538.47,-109.98C516.53,-101.3 482.26,-87.75 457.31,-77.88"/>
<polygon fill="#63b8ff" stroke="#63b8ff" points="458.51,-74.59 447.92,-74.17 455.93,-81.1 458.51,-74.59"/>
</a>
</g>
</g>
<!-- Node12 -->
<g id="Node000012" class="node">
<title>Node12</title>
<g id="a_Node000012"><a xlink:title=" ">
<polygon fill="#e0e0e0" stroke="#999999" points="599.5,-74 520.5,-74 520.5,-55 599.5,-55 599.5,-74"/>
<text text-anchor="middle" x="560" y="-62" font-family="Helvetica,sans-Serif" font-size="10.00">fmt/format.h</text>
</a>
</g>
</g>
<!-- Node11&#45;&gt;Node12 -->
<g id="edge12_Node000011_Node000012" class="edge">
<title>Node11&#45;&gt;Node12</title>
<g id="a_edge12_Node000011_Node000012"><a xlink:title=" ">
<path fill="none" stroke="#63b8ff" d="M560,-109.75C560,-102.8 560,-92.85 560,-84.13"/>
<polygon fill="#63b8ff" stroke="#63b8ff" points="563.5,-84.09 560,-74.09 556.5,-84.09 563.5,-84.09"/>
</a>
</g>
</g>
<!-- Node13 -->
<g id="Node000013" class="node">
<title>Node13</title>
<g id="a_Node000013"><a xlink:href="log__level_8h.html" target="_top" xlink:title=" ">
<polygon fill="white" stroke="#666666" points="566,-19 496,-19 496,0 566,0 566,-19"/>
<text text-anchor="middle" x="531" y="-7" font-family="Helvetica,sans-Serif" font-size="10.00">log_level.h</text>
</a>
</g>
</g>
<!-- Node11&#45;&gt;Node13 -->
<g id="edge13_Node000011_Node000013" class="edge">
<title>Node11&#45;&gt;Node13</title>
<g id="a_edge13_Node000011_Node000013"><a xlink:title=" ">
<path fill="none" stroke="#63b8ff" d="M545.63,-109.96C534.13,-102.21 518.82,-89.62 512,-74 505.47,-59.04 512.01,-41.16 519.14,-28.2"/>
<polygon fill="#63b8ff" stroke="#63b8ff" points="522.3,-29.73 524.5,-19.36 516.32,-26.1 522.3,-29.73"/>
</a>
</g>
</g>
<!-- Node11&#45;&gt;Node14 -->
<g id="edge14_Node000011_Node000014" class="edge">
<title>Node11&#45;&gt;Node14</title>
<g id="a_edge14_Node000011_Node000014"><a xlink:title=" ">
<path fill="none" stroke="#63b8ff" d="M575.75,-109.98C591.23,-101.61 615.09,-88.7 633.14,-78.95"/>
<polygon fill="#63b8ff" stroke="#63b8ff" points="634.84,-82.01 641.97,-74.17 631.51,-75.85 634.84,-82.01"/>
</a>
</g>
</g>
<!-- Node14&#45;&gt;Node13 -->
<g id="edge17_Node000014_Node000013" class="edge">
<title>Node14&#45;&gt;Node13</title>
<g id="a_edge17_Node000014_Node000013"><a xlink:title=" ">
<path fill="none" stroke="#63b8ff" d="M637.6,-54.98C616.98,-46.38 584.89,-32.99 561.31,-23.15"/>
<polygon fill="#63b8ff" stroke="#63b8ff" points="562.35,-19.79 551.78,-19.17 559.66,-26.25 562.35,-19.79"/>
</a>
</g>
</g>
<!-- Node15 -->
<g id="Node000015" class="node">
<title>Node15</title>
<g id="a_Node000015"><a xlink:title=" ">
<polygon fill="#e0e0e0" stroke="#999999" points="749,-19 691,-19 691,0 749,0 749,-19"/>
<text text-anchor="middle" x="720" y="-7" font-family="Helvetica,sans-Serif" font-size="10.00">memory</text>
</a>
</g>
</g>
<!-- Node14&#45;&gt;Node15 -->
<g id="edge15_Node000014_Node000015" class="edge">
<title>Node14&#45;&gt;Node15</title>
<g id="a_edge15_Node000014_Node000015"><a xlink:title=" ">
<path fill="none" stroke="#63b8ff" d="M667.96,-54.98C677.13,-47.15 690.94,-35.34 702.03,-25.86"/>
<polygon fill="#63b8ff" stroke="#63b8ff" points="704.53,-28.33 709.86,-19.17 699.98,-23.01 704.53,-28.33"/>
</a>
</g>
</g>
<!-- Node16 -->
<g id="Node000016" class="node">
<title>Node16</title>
<g id="a_Node000016"><a xlink:title=" ">
<polygon fill="#e0e0e0" stroke="#999999" points="672.5,-19 603.5,-19 603.5,0 672.5,0 672.5,-19"/>
<text text-anchor="middle" x="638" y="-7" font-family="Helvetica,sans-Serif" font-size="10.00">type_traits</text>
</a>
</g>
</g>
<!-- Node14&#45;&gt;Node16 -->
<g id="edge16_Node000014_Node000016" class="edge">
<title>Node14&#45;&gt;Node16</title>
<g id="a_edge16_Node000014_Node000016"><a xlink:title=" ">
<path fill="none" stroke="#63b8ff" d="M654.7,-54.75C652.02,-47.65 648.15,-37.4 644.81,-28.56"/>
<polygon fill="#63b8ff" stroke="#63b8ff" points="648.05,-27.21 641.24,-19.09 641.5,-29.68 648.05,-27.21"/>
</a>
</g>
</g>
<!-- Node18&#45;&gt;Node7 -->
<g id="edge24_Node000018_Node000007" class="edge">
<title>Node18&#45;&gt;Node7</title>
<g id="a_edge24_Node000018_Node000007"><a xlink:title=" ">
<path fill="none" stroke="#63b8ff" d="M552.71,-384.99C526.18,-375.09 493.77,-363 465.99,-352.63"/>
<polygon fill="#63b8ff" stroke="#63b8ff" points="466.97,-349.26 456.37,-349.04 464.52,-355.82 466.97,-349.26"/>
</a>
</g>
</g>
<!-- Node18&#45;&gt;Node10 -->
<g id="edge25_Node000018_Node000010" class="edge">
<title>Node18&#45;&gt;Node10</title>
<g id="a_edge25_Node000018_Node000010"><a xlink:title=" ">
<path fill="none" stroke="#63b8ff" d="M620.03,-384.75C626.97,-374.6 634.63,-361.72 639,-349 656.85,-297.08 658.76,-231.35 658.49,-199.71"/>
<polygon fill="#63b8ff" stroke="#63b8ff" points="661.99,-199.62 658.32,-189.68 654.99,-199.74 661.99,-199.62"/>
</a>
</g>
</g>
<!-- Node19 -->
<g id="Node000019" class="node">
<title>Node19</title>
<g id="a_Node000019"><a xlink:title=" ">
<polygon fill="#e0e0e0" stroke="#999999" points="630,-338 580,-338 580,-319 630,-319 630,-338"/>
<text text-anchor="middle" x="605" y="-326" font-family="Helvetica,sans-Serif" font-size="10.00">cstdint</text>
</a>
</g>
</g>
<!-- Node18&#45;&gt;Node19 -->
<g id="edge21_Node000018_Node000019" class="edge">
<title>Node18&#45;&gt;Node19</title>
<g id="a_edge21_Node000018_Node000019"><a xlink:title=" ">
<path fill="none" stroke="#63b8ff" d="M605,-384.79C605,-373.59 605,-359.61 605,-348.52"/>
<polygon fill="#63b8ff" stroke="#63b8ff" points="608.5,-348.24 605,-338.24 601.5,-348.24 608.5,-348.24"/>
</a>
</g>
</g>
<!-- Node20 -->
<g id="Node000020" class="node">
<title>Node20</title>
<g id="a_Node000020"><a xlink:title=" ">
<polygon fill="#e0e0e0" stroke="#999999" points="733.5,-338 686.5,-338 686.5,-319 733.5,-319 733.5,-338"/>
<text text-anchor="middle" x="710" y="-326" font-family="Helvetica,sans-Serif" font-size="10.00">vector</text>
</a>
</g>
</g>
<!-- Node18&#45;&gt;Node20 -->
<g id="edge22_Node000018_Node000020" class="edge">
<title>Node18&#45;&gt;Node20</title>
<g id="a_edge22_Node000018_Node000020"><a xlink:title=" ">
<path fill="none" stroke="#63b8ff" d="M632.31,-384.99C650.26,-372.17 673.35,-355.68 689.68,-344.02"/>
<polygon fill="#63b8ff" stroke="#63b8ff" points="691.87,-346.75 697.98,-338.09 687.81,-341.05 691.87,-346.75"/>
</a>
</g>
</g>
<!-- Node21 -->
<g id="Node000021" class="node">
<title>Node21</title>
<g id="a_Node000021"><a xlink:title=" ">
<polygon fill="#e0e0e0" stroke="#999999" points="561.5,-338 492.5,-338 492.5,-319 561.5,-319 561.5,-338"/>
<text text-anchor="middle" x="527" y="-326" font-family="Helvetica,sans-Serif" font-size="10.00">json/json.h</text>
</a>
</g>
</g>
<!-- Node18&#45;&gt;Node21 -->
<g id="edge23_Node000018_Node000021" class="edge">
<title>Node18&#45;&gt;Node21</title>
<g id="a_edge23_Node000018_Node000021"><a xlink:title=" ">
<path fill="none" stroke="#63b8ff" d="M584.51,-384.79C571.74,-372.52 555.54,-356.94 543.59,-345.45"/>
<polygon fill="#63b8ff" stroke="#63b8ff" points="545.72,-342.64 536.09,-338.24 540.87,-347.69 545.72,-342.64"/>
</a>
</g>
</g>
</g>
</svg>
