<?xml version="1.0" encoding="UTF-8" standalone="no"?>
<!DOCTYPE svg PUBLIC "-//W3C//DTD SVG 1.1//EN"
 "http://www.w3.org/Graphics/SVG/1.1/DTD/svg11.dtd">
<!-- Generated by graphviz version 2.43.0 (0)
 -->
<!-- Title: include/mosaic/handlers/data_channel/a_data_channel_handler.h Pages: 1 -->
<svg width="519pt" height="192pt"
 viewBox="0.00 0.00 518.50 192.00" xmlns="http://www.w3.org/2000/svg" xmlns:xlink="http://www.w3.org/1999/xlink">
<g id="graph0" class="graph" transform="scale(1 1) rotate(0) translate(4 188)">
<title>include/mosaic/handlers/data_channel/a_data_channel_handler.h</title>
<!-- Node1 -->
<g id="Node000001" class="node">
<title>Node1</title>
<g id="a_Node000001"><a xlink:title=" ">
<polygon fill="#999999" stroke="#666666" points="320,-184 156,-184 156,-143 320,-143 320,-184"/>
<text text-anchor="start" x="164" y="-172" font-family="Helvetica,sans-Serif" font-size="10.00">include/mosaic/handlers</text>
<text text-anchor="start" x="164" y="-161" font-family="Helvetica,sans-Serif" font-size="10.00">/data_channel/a_data_channel</text>
<text text-anchor="middle" x="238" y="-150" font-family="Helvetica,sans-Serif" font-size="10.00">_handler.h</text>
</a>
</g>
</g>
<!-- Node2 -->
<g id="Node000002" class="node">
<title>Node2</title>
<g id="a_Node000002"><a xlink:href="data__channel__receivable_8h.html" target="_top" xlink:title=" ">
<polygon fill="white" stroke="#666666" points="314.5,-107 161.5,-107 161.5,-66 314.5,-66 314.5,-107"/>
<text text-anchor="start" x="169.5" y="-95" font-family="Helvetica,sans-Serif" font-size="10.00">include/mosaic/handlers</text>
<text text-anchor="start" x="169.5" y="-84" font-family="Helvetica,sans-Serif" font-size="10.00">/data_channel/data_channel</text>
<text text-anchor="middle" x="238" y="-73" font-family="Helvetica,sans-Serif" font-size="10.00">_receivable.h</text>
</a>
</g>
</g>
<!-- Node1&#45;&gt;Node2 -->
<g id="edge1_Node000001_Node000002" class="edge">
<title>Node1&#45;&gt;Node2</title>
<g id="a_edge1_Node000001_Node000002"><a xlink:title=" ">
<path fill="none" stroke="#63b8ff" d="M238,-132.69C238,-124.08 238,-114.9 238,-107.07"/>
<polygon fill="#63b8ff" stroke="#63b8ff" points="234.5,-132.79 238,-142.79 241.5,-132.79 234.5,-132.79"/>
</a>
</g>
</g>
<!-- Node3 -->
<g id="Node000003" class="node">
<title>Node3</title>
<g id="a_Node000003"><a xlink:href="a__data__channel__handler_8cpp.html" target="_top" xlink:title=" ">
<polygon fill="white" stroke="#666666" points="158,-30 0,-30 0,0 158,0 158,-30"/>
<text text-anchor="start" x="8" y="-18" font-family="Helvetica,sans-Serif" font-size="10.00">src/handlers/data_channel</text>
<text text-anchor="middle" x="79" y="-7" font-family="Helvetica,sans-Serif" font-size="10.00">/a_data_channel_handler.cpp</text>
</a>
</g>
</g>
<!-- Node1&#45;&gt;Node3 -->
<g id="edge6_Node000001_Node000003" class="edge">
<title>Node1&#45;&gt;Node3</title>
<g id="a_edge6_Node000001_Node000003"><a xlink:title=" ">
<path fill="none" stroke="#63b8ff" d="M193.9,-137.37C180.14,-128.59 165.35,-118.13 153,-107 126.37,-83.01 101.38,-49 88.36,-30.08"/>
<polygon fill="#63b8ff" stroke="#63b8ff" points="192.41,-140.57 202.75,-142.88 196.11,-134.62 192.41,-140.57"/>
</a>
</g>
</g>
<!-- Node5 -->
<g id="Node000005" class="node">
<title>Node5</title>
<g id="a_Node000005"><a xlink:href="data__channel__sendable_8h.html" target="_top" xlink:title=" ">
<polygon fill="white" stroke="#666666" points="497.5,-107 344.5,-107 344.5,-66 497.5,-66 497.5,-107"/>
<text text-anchor="start" x="352.5" y="-95" font-family="Helvetica,sans-Serif" font-size="10.00">include/mosaic/handlers</text>
<text text-anchor="start" x="352.5" y="-84" font-family="Helvetica,sans-Serif" font-size="10.00">/data_channel/data_channel</text>
<text text-anchor="middle" x="421" y="-73" font-family="Helvetica,sans-Serif" font-size="10.00">_sendable.h</text>
</a>
</g>
</g>
<!-- Node1&#45;&gt;Node5 -->
<g id="edge4_Node000001_Node000005" class="edge">
<title>Node1&#45;&gt;Node5</title>
<g id="a_edge4_Node000001_Node000005"><a xlink:title=" ">
<path fill="none" stroke="#63b8ff" d="M295.02,-139.13C320.16,-128.83 349.36,-116.86 373.32,-107.04"/>
<polygon fill="#63b8ff" stroke="#63b8ff" points="293.53,-135.96 285.6,-142.99 296.18,-142.44 293.53,-135.96"/>
</a>
</g>
</g>
<!-- Node2&#45;&gt;Node3 -->
<g id="edge2_Node000002_Node000003" class="edge">
<title>Node2&#45;&gt;Node3</title>
<g id="a_edge2_Node000002_Node000003"><a xlink:title=" ">
<path fill="none" stroke="#63b8ff" d="M183.88,-61.85C159.75,-51.3 132.12,-39.22 111.29,-30.11"/>
<polygon fill="#63b8ff" stroke="#63b8ff" points="182.72,-65.16 193.29,-65.96 185.53,-58.74 182.72,-65.16"/>
</a>
</g>
</g>
<!-- Node4 -->
<g id="Node000004" class="node">
<title>Node4</title>
<g id="a_Node000004"><a xlink:href="data__channel__receivable_8cpp.html" target="_top" xlink:title=" ">
<polygon fill="white" stroke="#666666" points="337.5,-30 176.5,-30 176.5,0 337.5,0 337.5,-30"/>
<text text-anchor="start" x="184.5" y="-18" font-family="Helvetica,sans-Serif" font-size="10.00">src/handlers/data_channel</text>
<text text-anchor="middle" x="257" y="-7" font-family="Helvetica,sans-Serif" font-size="10.00">/data_channel_receivable.cpp</text>
</a>
</g>
</g>
<!-- Node2&#45;&gt;Node4 -->
<g id="edge3_Node000002_Node000004" class="edge">
<title>Node2&#45;&gt;Node4</title>
<g id="a_edge3_Node000002_Node000004"><a xlink:title=" ">
<path fill="none" stroke="#63b8ff" d="M246.08,-55.95C248.54,-46.96 251.12,-37.5 253.16,-30.04"/>
<polygon fill="#63b8ff" stroke="#63b8ff" points="242.65,-55.2 243.39,-65.77 249.41,-57.05 242.65,-55.2"/>
</a>
</g>
</g>
<!-- Node6 -->
<g id="Node000006" class="node">
<title>Node6</title>
<g id="a_Node000006"><a xlink:href="data__channel__sendable_8cpp.html" target="_top" xlink:title=" ">
<polygon fill="white" stroke="#666666" points="510.5,-30 355.5,-30 355.5,0 510.5,0 510.5,-30"/>
<text text-anchor="start" x="363.5" y="-18" font-family="Helvetica,sans-Serif" font-size="10.00">src/handlers/data_channel</text>
<text text-anchor="middle" x="433" y="-7" font-family="Helvetica,sans-Serif" font-size="10.00">/data_channel_sendable.cpp</text>
</a>
</g>
</g>
<!-- Node5&#45;&gt;Node6 -->
<g id="edge5_Node000005_Node000006" class="edge">
<title>Node5&#45;&gt;Node6</title>
<g id="a_edge5_Node000005_Node000006"><a xlink:title=" ">
<path fill="none" stroke="#63b8ff" d="M426.15,-55.66C427.69,-46.76 429.3,-37.42 430.58,-30.04"/>
<polygon fill="#63b8ff" stroke="#63b8ff" points="422.66,-55.32 424.41,-65.77 429.56,-56.51 422.66,-55.32"/>
</a>
</g>
</g>
</g>
</svg>
