<?xml version="1.0" encoding="UTF-8" standalone="no"?>
<!DOCTYPE svg PUBLIC "-//W3C//DTD SVG 1.1//EN"
 "http://www.w3.org/Graphics/SVG/1.1/DTD/svg11.dtd">
<!-- Generated by graphviz version 2.43.0 (0)
 -->
<!-- Title: src/handlers/media_track/a_media_track_handler.cpp Pages: 1 -->
<svg width="1114pt" height="324pt"
 viewBox="0.00 0.00 1113.50 324.00" xmlns="http://www.w3.org/2000/svg" xmlns:xlink="http://www.w3.org/1999/xlink">
<g id="graph0" class="graph" transform="scale(1 1) rotate(0) translate(4 320)">
<title>src/handlers/media_track/a_media_track_handler.cpp</title>
<!-- Node1 -->
<g id="Node000001" class="node">
<title>Node1</title>
<g id="a_Node000001"><a xlink:title=" ">
<polygon fill="#999999" stroke="#666666" points="536,-316 414,-316 414,-275 536,-275 536,-316"/>
<text text-anchor="start" x="422" y="-304" font-family="Helvetica,sans-Serif" font-size="10.00">src/handlers/media</text>
<text text-anchor="start" x="422" y="-293" font-family="Helvetica,sans-Serif" font-size="10.00">_track/a_media_track</text>
<text text-anchor="middle" x="475" y="-282" font-family="Helvetica,sans-Serif" font-size="10.00">_handler.cpp</text>
</a>
</g>
</g>
<!-- Node2 -->
<g id="Node000002" class="node">
<title>Node2</title>
<g id="a_Node000002"><a xlink:title=" ">
<polygon fill="#e0e0e0" stroke="#999999" points="128,-228 0,-228 0,-209 128,-209 128,-228"/>
<text text-anchor="middle" x="64" y="-216" font-family="Helvetica,sans-Serif" font-size="10.00">api/video/i420_buffer.h</text>
</a>
</g>
</g>
<!-- Node1&#45;&gt;Node2 -->
<g id="edge1_Node000001_Node000002" class="edge">
<title>Node1&#45;&gt;Node2</title>
<g id="a_edge1_Node000001_Node000002"><a xlink:title=" ">
<path fill="none" stroke="#63b8ff" d="M413.91,-286.31C345.95,-276.78 233.07,-259.67 137,-239 125.9,-236.61 113.97,-233.61 103.03,-230.69"/>
<polygon fill="#63b8ff" stroke="#63b8ff" points="103.89,-227.29 93.32,-228.04 102.05,-234.04 103.89,-227.29"/>
</a>
</g>
</g>
<!-- Node3 -->
<g id="Node000003" class="node">
<title>Node3</title>
<g id="a_Node000003"><a xlink:title=" ">
<polygon fill="#e0e0e0" stroke="#999999" points="281.5,-228 146.5,-228 146.5,-209 281.5,-209 281.5,-228"/>
<text text-anchor="middle" x="214" y="-216" font-family="Helvetica,sans-Serif" font-size="10.00">api/video/video_frame.h</text>
</a>
</g>
</g>
<!-- Node1&#45;&gt;Node3 -->
<g id="edge2_Node000001_Node000003" class="edge">
<title>Node1&#45;&gt;Node3</title>
<g id="a_edge2_Node000001_Node000003"><a xlink:title=" ">
<path fill="none" stroke="#63b8ff" d="M413.81,-276.92C364.29,-262.69 296.01,-243.07 253.47,-230.84"/>
<polygon fill="#63b8ff" stroke="#63b8ff" points="254.33,-227.45 243.75,-228.05 252.4,-234.18 254.33,-227.45"/>
</a>
</g>
</g>
<!-- Node4 -->
<g id="Node000004" class="node">
<title>Node4</title>
<g id="a_Node000004"><a xlink:title=" ">
<polygon fill="#e0e0e0" stroke="#999999" points="394.5,-228 299.5,-228 299.5,-209 394.5,-209 394.5,-228"/>
<text text-anchor="middle" x="347" y="-216" font-family="Helvetica,sans-Serif" font-size="10.00">libyuv/convert.h</text>
</a>
</g>
</g>
<!-- Node1&#45;&gt;Node4 -->
<g id="edge3_Node000001_Node000004" class="edge">
<title>Node1&#45;&gt;Node4</title>
<g id="a_edge3_Node000001_Node000004"><a xlink:title=" ">
<path fill="none" stroke="#63b8ff" d="M441.7,-274.99C419.32,-261.88 390.38,-244.92 370.41,-233.22"/>
<polygon fill="#63b8ff" stroke="#63b8ff" points="372.05,-230.12 361.66,-228.09 368.52,-236.16 372.05,-230.12"/>
</a>
</g>
</g>
<!-- Node5 -->
<g id="Node000005" class="node">
<title>Node5</title>
<g id="a_Node000005"><a xlink:title=" ">
<polygon fill="#e0e0e0" stroke="#999999" points="537.5,-233.5 412.5,-233.5 412.5,-203.5 537.5,-203.5 537.5,-233.5"/>
<text text-anchor="start" x="420.5" y="-221.5" font-family="Helvetica,sans-Serif" font-size="10.00">media/base/adapted</text>
<text text-anchor="middle" x="475" y="-210.5" font-family="Helvetica,sans-Serif" font-size="10.00">_video_track_source.h</text>
</a>
</g>
</g>
<!-- Node1&#45;&gt;Node5 -->
<g id="edge4_Node000001_Node000005" class="edge">
<title>Node1&#45;&gt;Node5</title>
<g id="a_edge4_Node000001_Node000005"><a xlink:title=" ">
<path fill="none" stroke="#63b8ff" d="M475,-274.79C475,-265.36 475,-253.97 475,-243.99"/>
<polygon fill="#63b8ff" stroke="#63b8ff" points="478.5,-243.86 475,-233.86 471.5,-243.86 478.5,-243.86"/>
</a>
</g>
</g>
<!-- Node6 -->
<g id="Node000006" class="node">
<title>Node6</title>
<g id="a_Node000006"><a xlink:href="a__media__track__handler_8h.html" target="_top" xlink:title=" ">
<polygon fill="white" stroke="#666666" points="686.5,-239 555.5,-239 555.5,-198 686.5,-198 686.5,-239"/>
<text text-anchor="start" x="563.5" y="-227" font-family="Helvetica,sans-Serif" font-size="10.00">mosaic/handlers/media</text>
<text text-anchor="start" x="563.5" y="-216" font-family="Helvetica,sans-Serif" font-size="10.00">_track/a_media_track</text>
<text text-anchor="middle" x="621" y="-205" font-family="Helvetica,sans-Serif" font-size="10.00">_handler.h</text>
</a>
</g>
</g>
<!-- Node1&#45;&gt;Node6 -->
<g id="edge5_Node000001_Node000006" class="edge">
<title>Node1&#45;&gt;Node6</title>
<g id="a_edge5_Node000001_Node000006"><a xlink:title=" ">
<path fill="none" stroke="#63b8ff" d="M512.98,-274.99C531.58,-265.44 554.15,-253.84 573.85,-243.72"/>
<polygon fill="#63b8ff" stroke="#63b8ff" points="575.66,-246.72 582.96,-239.04 572.46,-240.5 575.66,-246.72"/>
</a>
</g>
</g>
<!-- Node15 -->
<g id="Node000015" class="node">
<title>Node15</title>
<g id="a_Node000015"><a xlink:href="log_8h.html" target="_top" xlink:title=" ">
<polygon fill="white" stroke="#666666" points="888.5,-228 775.5,-228 775.5,-209 888.5,-209 888.5,-228"/>
<text text-anchor="middle" x="832" y="-216" font-family="Helvetica,sans-Serif" font-size="10.00">mosaic/logger/log.h</text>
</a>
</g>
</g>
<!-- Node1&#45;&gt;Node15 -->
<g id="edge18_Node000001_Node000015" class="edge">
<title>Node1&#45;&gt;Node15</title>
<g id="a_edge18_Node000001_Node000015"><a xlink:title=" ">
<path fill="none" stroke="#63b8ff" d="M536.37,-281.61C605.63,-267.06 717.01,-243.66 781.46,-230.12"/>
<polygon fill="#63b8ff" stroke="#63b8ff" points="782.33,-233.51 791.39,-228.03 780.89,-226.66 782.33,-233.51"/>
</a>
</g>
</g>
<!-- Node21 -->
<g id="Node000021" class="node">
<title>Node21</title>
<g id="a_Node000021"><a xlink:title=" ">
<polygon fill="#e0e0e0" stroke="#999999" points="1031.5,-228 906.5,-228 906.5,-209 1031.5,-209 1031.5,-228"/>
<text text-anchor="middle" x="969" y="-216" font-family="Helvetica,sans-Serif" font-size="10.00">opencv2/core/mat.hpp</text>
</a>
</g>
</g>
<!-- Node1&#45;&gt;Node21 -->
<g id="edge28_Node000001_Node000021" class="edge">
<title>Node1&#45;&gt;Node21</title>
<g id="a_edge28_Node000001_Node000021"><a xlink:title=" ">
<path fill="none" stroke="#63b8ff" d="M536.02,-289.15C618.64,-281.31 770.4,-264.77 898,-239 908.92,-236.8 920.63,-233.83 931.33,-230.88"/>
<polygon fill="#63b8ff" stroke="#63b8ff" points="932.56,-234.17 941.22,-228.08 930.65,-227.44 932.56,-234.17"/>
</a>
</g>
</g>
<!-- Node7 -->
<g id="Node000007" class="node">
<title>Node7</title>
<g id="a_Node000007"><a xlink:title=" ">
<polygon fill="#e0e0e0" stroke="#999999" points="501,-151 451,-151 451,-132 501,-132 501,-151"/>
<text text-anchor="middle" x="476" y="-139" font-family="Helvetica,sans-Serif" font-size="10.00">chrono</text>
</a>
</g>
</g>
<!-- Node6&#45;&gt;Node7 -->
<g id="edge6_Node000006_Node000007" class="edge">
<title>Node6&#45;&gt;Node7</title>
<g id="a_edge6_Node000006_Node000007"><a xlink:title=" ">
<path fill="none" stroke="#63b8ff" d="M580.38,-197.88C559.25,-187.5 533.07,-174.37 510,-162 506.56,-160.16 502.95,-158.16 499.43,-156.17"/>
<polygon fill="#63b8ff" stroke="#63b8ff" points="500.88,-152.96 490.46,-151.03 497.4,-159.04 500.88,-152.96"/>
</a>
</g>
</g>
<!-- Node8 -->
<g id="Node000008" class="node">
<title>Node8</title>
<g id="a_Node000008"><a xlink:title=" ">
<polygon fill="#e0e0e0" stroke="#999999" points="600,-19 542,-19 542,0 600,0 600,-19"/>
<text text-anchor="middle" x="571" y="-7" font-family="Helvetica,sans-Serif" font-size="10.00">memory</text>
</a>
</g>
</g>
<!-- Node6&#45;&gt;Node8 -->
<g id="edge7_Node000006_Node000008" class="edge">
<title>Node6&#45;&gt;Node8</title>
<g id="a_edge7_Node000006_Node000008"><a xlink:title=" ">
<path fill="none" stroke="#63b8ff" d="M555.37,-199.74C502.7,-185.24 436.75,-166.45 432,-162 405.45,-137.08 410.32,-120.86 404,-85 401.69,-71.87 395.88,-65.57 404,-55 419.44,-34.9 487.24,-21.95 531.56,-15.46"/>
<polygon fill="#63b8ff" stroke="#63b8ff" points="532.32,-18.89 541.73,-14.03 531.34,-11.96 532.32,-18.89"/>
</a>
</g>
</g>
<!-- Node9 -->
<g id="Node000009" class="node">
<title>Node9</title>
<g id="a_Node000009"><a xlink:title=" ">
<polygon fill="#e0e0e0" stroke="#999999" points="643,-79.5 599,-79.5 599,-60.5 643,-60.5 643,-79.5"/>
<text text-anchor="middle" x="621" y="-67.5" font-family="Helvetica,sans-Serif" font-size="10.00">string</text>
</a>
</g>
</g>
<!-- Node6&#45;&gt;Node9 -->
<g id="edge8_Node000006_Node000009" class="edge">
<title>Node6&#45;&gt;Node9</title>
<g id="a_edge8_Node000006_Node000009"><a xlink:title=" ">
<path fill="none" stroke="#63b8ff" d="M639.33,-197.8C647.34,-187.86 655.85,-175.14 660,-162 665.49,-144.63 665.93,-138.23 660,-121 655.61,-108.25 646.5,-96.25 638.18,-87.21"/>
<polygon fill="#63b8ff" stroke="#63b8ff" points="640.42,-84.49 630.92,-79.79 635.42,-89.39 640.42,-84.49"/>
</a>
</g>
</g>
<!-- Node10 -->
<g id="Node000010" class="node">
<title>Node10</title>
<g id="a_Node000010"><a xlink:href="i__media__track__handler_8h.html" target="_top" xlink:title=" ">
<polygon fill="white" stroke="#666666" points="838.5,-162 707.5,-162 707.5,-121 838.5,-121 838.5,-162"/>
<text text-anchor="start" x="715.5" y="-150" font-family="Helvetica,sans-Serif" font-size="10.00">mosaic/handlers/media</text>
<text text-anchor="start" x="715.5" y="-139" font-family="Helvetica,sans-Serif" font-size="10.00">_track/i_media_track</text>
<text text-anchor="middle" x="773" y="-128" font-family="Helvetica,sans-Serif" font-size="10.00">_handler.h</text>
</a>
</g>
</g>
<!-- Node6&#45;&gt;Node10 -->
<g id="edge9_Node000006_Node000010" class="edge">
<title>Node6&#45;&gt;Node10</title>
<g id="a_edge9_Node000006_Node000010"><a xlink:title=" ">
<path fill="none" stroke="#63b8ff" d="M660.54,-197.99C679.99,-188.39 703.62,-176.73 724.19,-166.59"/>
<polygon fill="#63b8ff" stroke="#63b8ff" points="725.98,-169.61 733.39,-162.04 722.88,-163.33 725.98,-169.61"/>
</a>
</g>
</g>
<!-- Node13 -->
<g id="Node000013" class="node">
<title>Node13</title>
<g id="a_Node000013"><a xlink:href="recordable_8h.html" target="_top" xlink:title=" ">
<polygon fill="white" stroke="#666666" points="650.5,-156.5 519.5,-156.5 519.5,-126.5 650.5,-126.5 650.5,-156.5"/>
<text text-anchor="start" x="527.5" y="-144.5" font-family="Helvetica,sans-Serif" font-size="10.00">mosaic/handlers/media</text>
<text text-anchor="middle" x="585" y="-133.5" font-family="Helvetica,sans-Serif" font-size="10.00">_track/recordable.h</text>
</a>
</g>
</g>
<!-- Node6&#45;&gt;Node13 -->
<g id="edge13_Node000006_Node000013" class="edge">
<title>Node6&#45;&gt;Node13</title>
<g id="a_edge13_Node000006_Node000013"><a xlink:title=" ">
<path fill="none" stroke="#63b8ff" d="M611.54,-197.79C606.87,-188.06 601.2,-176.24 596.3,-166.03"/>
<polygon fill="#63b8ff" stroke="#63b8ff" points="599.38,-164.36 591.89,-156.86 593.07,-167.39 599.38,-164.36"/>
</a>
</g>
</g>
<!-- Node14 -->
<g id="Node000014" class="node">
<title>Node14</title>
<g id="a_Node000014"><a xlink:title=" ">
<polygon fill="#e0e0e0" stroke="#999999" points="542.5,-79.5 413.5,-79.5 413.5,-60.5 542.5,-60.5 542.5,-79.5"/>
<text text-anchor="middle" x="478" y="-67.5" font-family="Helvetica,sans-Serif" font-size="10.00">opencv_forward_decl.h</text>
</a>
</g>
</g>
<!-- Node6&#45;&gt;Node14 -->
<g id="edge17_Node000006_Node000014" class="edge">
<title>Node6&#45;&gt;Node14</title>
<g id="a_edge17_Node000006_Node000014"><a xlink:title=" ">
<path fill="none" stroke="#63b8ff" d="M555.21,-199.07C505.64,-184.88 445.59,-166.88 442,-162 424.97,-138.89 446.11,-106.63 462.45,-87.38"/>
<polygon fill="#63b8ff" stroke="#63b8ff" points="465.2,-89.55 469.25,-79.76 459.98,-84.89 465.2,-89.55"/>
</a>
</g>
</g>
<!-- Node10&#45;&gt;Node9 -->
<g id="edge10_Node000010_Node000009" class="edge">
<title>Node10&#45;&gt;Node9</title>
<g id="a_edge10_Node000010_Node000009"><a xlink:title=" ">
<path fill="none" stroke="#63b8ff" d="M730.26,-120.96C704.13,-109.01 671.48,-94.08 648.71,-83.67"/>
<polygon fill="#63b8ff" stroke="#63b8ff" points="650.15,-80.48 639.6,-79.5 647.24,-86.84 650.15,-80.48"/>
</a>
</g>
</g>
<!-- Node11 -->
<g id="Node000011" class="node">
<title>Node11</title>
<g id="a_Node000011"><a xlink:title=" ">
<polygon fill="#e0e0e0" stroke="#999999" points="870.5,-79.5 825.5,-79.5 825.5,-60.5 870.5,-60.5 870.5,-79.5"/>
<text text-anchor="middle" x="848" y="-67.5" font-family="Helvetica,sans-Serif" font-size="10.00">utility</text>
</a>
</g>
</g>
<!-- Node10&#45;&gt;Node11 -->
<g id="edge11_Node000010_Node000011" class="edge">
<title>Node10&#45;&gt;Node11</title>
<g id="a_edge11_Node000010_Node000011"><a xlink:title=" ">
<path fill="none" stroke="#63b8ff" d="M794.29,-120.77C805.89,-110.02 820.04,-96.91 830.91,-86.84"/>
<polygon fill="#63b8ff" stroke="#63b8ff" points="833.53,-89.18 838.48,-79.82 828.77,-84.05 833.53,-89.18"/>
</a>
</g>
</g>
<!-- Node12 -->
<g id="Node000012" class="node">
<title>Node12</title>
<g id="a_Node000012"><a xlink:title=" ">
<polygon fill="#e0e0e0" stroke="#999999" points="807,-85 661,-85 661,-55 807,-55 807,-85"/>
<text text-anchor="start" x="669" y="-73" font-family="Helvetica,sans-Serif" font-size="10.00">mosaic/rtc/webrtc_forward</text>
<text text-anchor="middle" x="734" y="-62" font-family="Helvetica,sans-Serif" font-size="10.00">_decl.h</text>
</a>
</g>
</g>
<!-- Node10&#45;&gt;Node12 -->
<g id="edge12_Node000010_Node000012" class="edge">
<title>Node10&#45;&gt;Node12</title>
<g id="a_edge12_Node000010_Node000012"><a xlink:title=" ">
<path fill="none" stroke="#63b8ff" d="M761.93,-120.77C757.23,-112.4 751.73,-102.59 746.85,-93.9"/>
<polygon fill="#63b8ff" stroke="#63b8ff" points="749.82,-92.05 741.88,-85.04 743.72,-95.47 749.82,-92.05"/>
</a>
</g>
</g>
<!-- Node13&#45;&gt;Node8 -->
<g id="edge14_Node000013_Node000008" class="edge">
<title>Node13&#45;&gt;Node8</title>
<g id="a_edge14_Node000013_Node000008"><a xlink:title=" ">
<path fill="none" stroke="#63b8ff" d="M583.48,-126.34C580.94,-102.84 575.87,-55.76 573.04,-29.43"/>
<polygon fill="#63b8ff" stroke="#63b8ff" points="576.49,-28.82 571.94,-19.25 569.53,-29.57 576.49,-28.82"/>
</a>
</g>
</g>
<!-- Node13&#45;&gt;Node9 -->
<g id="edge15_Node000013_Node000009" class="edge">
<title>Node13&#45;&gt;Node9</title>
<g id="a_edge15_Node000013_Node000009"><a xlink:title=" ">
<path fill="none" stroke="#63b8ff" d="M592.29,-126.44C597.88,-115.64 605.64,-100.65 611.69,-88.98"/>
<polygon fill="#63b8ff" stroke="#63b8ff" points="614.97,-90.26 616.46,-79.77 608.75,-87.04 614.97,-90.26"/>
</a>
</g>
</g>
<!-- Node13&#45;&gt;Node14 -->
<g id="edge16_Node000013_Node000014" class="edge">
<title>Node13&#45;&gt;Node14</title>
<g id="a_edge16_Node000013_Node000014"><a xlink:title=" ">
<path fill="none" stroke="#63b8ff" d="M563.35,-126.44C544.77,-114.37 518.14,-97.07 499.58,-85.02"/>
<polygon fill="#63b8ff" stroke="#63b8ff" points="501.48,-82.08 491.19,-79.57 497.67,-87.95 501.48,-82.08"/>
</a>
</g>
</g>
<!-- Node16 -->
<g id="Node000016" class="node">
<title>Node16</title>
<g id="a_Node000016"><a xlink:href="i__logger_8h.html" target="_top" xlink:title=" ">
<polygon fill="white" stroke="#666666" points="961,-151 897,-151 897,-132 961,-132 961,-151"/>
<text text-anchor="middle" x="929" y="-139" font-family="Helvetica,sans-Serif" font-size="10.00">i_logger.h</text>
</a>
</g>
</g>
<!-- Node15&#45;&gt;Node16 -->
<g id="edge19_Node000015_Node000016" class="edge">
<title>Node15&#45;&gt;Node16</title>
<g id="a_edge19_Node000015_Node000016"><a xlink:title=" ">
<path fill="none" stroke="#63b8ff" d="M843.13,-208.9C859.43,-196.29 890.01,-172.64 909.94,-157.24"/>
<polygon fill="#63b8ff" stroke="#63b8ff" points="912.23,-159.89 918,-151 907.95,-154.35 912.23,-159.89"/>
</a>
</g>
</g>
<!-- Node19 -->
<g id="Node000019" class="node">
<title>Node19</title>
<g id="a_Node000019"><a xlink:href="log__service_8h.html" target="_top" xlink:title=" ">
<polygon fill="white" stroke="#666666" points="969.5,-79.5 888.5,-79.5 888.5,-60.5 969.5,-60.5 969.5,-79.5"/>
<text text-anchor="middle" x="929" y="-67.5" font-family="Helvetica,sans-Serif" font-size="10.00">log_service.h</text>
</a>
</g>
</g>
<!-- Node15&#45;&gt;Node19 -->
<g id="edge27_Node000015_Node000019" class="edge">
<title>Node15&#45;&gt;Node19</title>
<g id="a_edge27_Node000015_Node000019"><a xlink:title=" ">
<path fill="none" stroke="#63b8ff" d="M836.36,-208.96C845.25,-191.78 866.48,-152.04 888,-121 896.21,-109.16 906.5,-96.62 914.72,-87.06"/>
<polygon fill="#63b8ff" stroke="#63b8ff" points="917.36,-89.35 921.3,-79.52 912.09,-84.75 917.36,-89.35"/>
</a>
</g>
</g>
<!-- Node16&#45;&gt;Node9 -->
<g id="edge20_Node000016_Node000009" class="edge">
<title>Node16&#45;&gt;Node9</title>
<g id="a_edge20_Node000016_Node000009"><a xlink:title=" ">
<path fill="none" stroke="#63b8ff" d="M896.77,-132.31C881.96,-128.66 864.13,-124.42 848,-121 761.36,-102.63 736.54,-111.42 652,-85 650.56,-84.55 649.09,-84.05 647.62,-83.51"/>
<polygon fill="#63b8ff" stroke="#63b8ff" points="648.67,-80.16 638.09,-79.61 646.02,-86.64 648.67,-80.16"/>
</a>
</g>
</g>
<!-- Node17 -->
<g id="Node000017" class="node">
<title>Node17</title>
<g id="a_Node000017"><a xlink:title=" ">
<polygon fill="#e0e0e0" stroke="#999999" points="1105.5,-79.5 1026.5,-79.5 1026.5,-60.5 1105.5,-60.5 1105.5,-79.5"/>
<text text-anchor="middle" x="1066" y="-67.5" font-family="Helvetica,sans-Serif" font-size="10.00">fmt/format.h</text>
</a>
</g>
</g>
<!-- Node16&#45;&gt;Node17 -->
<g id="edge21_Node000016_Node000017" class="edge">
<title>Node16&#45;&gt;Node17</title>
<g id="a_edge21_Node000016_Node000017"><a xlink:title=" ">
<path fill="none" stroke="#63b8ff" d="M945.8,-131.98C969.32,-120.05 1012.28,-98.25 1039.97,-84.21"/>
<polygon fill="#63b8ff" stroke="#63b8ff" points="1041.73,-87.24 1049.06,-79.59 1038.56,-80.99 1041.73,-87.24"/>
</a>
</g>
</g>
<!-- Node18 -->
<g id="Node000018" class="node">
<title>Node18</title>
<g id="a_Node000018"><a xlink:href="log__level_8h.html" target="_top" xlink:title=" ">
<polygon fill="white" stroke="#666666" points="1033,-19 963,-19 963,0 1033,0 1033,-19"/>
<text text-anchor="middle" x="998" y="-7" font-family="Helvetica,sans-Serif" font-size="10.00">log_level.h</text>
</a>
</g>
</g>
<!-- Node16&#45;&gt;Node18 -->
<g id="edge22_Node000016_Node000018" class="edge">
<title>Node16&#45;&gt;Node18</title>
<g id="a_edge22_Node000016_Node000018"><a xlink:title=" ">
<path fill="none" stroke="#63b8ff" d="M939.43,-131.78C950.83,-121.68 968.84,-103.98 979,-85 988.43,-67.39 993.33,-44.9 995.77,-29.26"/>
<polygon fill="#63b8ff" stroke="#63b8ff" points="999.25,-29.64 997.14,-19.25 992.32,-28.69 999.25,-29.64"/>
</a>
</g>
</g>
<!-- Node16&#45;&gt;Node19 -->
<g id="edge23_Node000016_Node000019" class="edge">
<title>Node16&#45;&gt;Node19</title>
<g id="a_edge23_Node000016_Node000019"><a xlink:title=" ">
<path fill="none" stroke="#63b8ff" d="M929,-131.98C929,-121.56 929,-103.61 929,-89.88"/>
<polygon fill="#63b8ff" stroke="#63b8ff" points="932.5,-89.59 929,-79.59 925.5,-89.59 932.5,-89.59"/>
</a>
</g>
</g>
<!-- Node19&#45;&gt;Node8 -->
<g id="edge24_Node000019_Node000008" class="edge">
<title>Node19&#45;&gt;Node8</title>
<g id="a_edge24_Node000019_Node000008"><a xlink:title=" ">
<path fill="none" stroke="#63b8ff" d="M901.69,-60.49C894.67,-58.5 887.09,-56.52 880,-55 784,-34.47 669.16,-20.72 610.2,-14.43"/>
<polygon fill="#63b8ff" stroke="#63b8ff" points="610.51,-10.94 600.2,-13.37 609.78,-17.9 610.51,-10.94"/>
</a>
</g>
</g>
<!-- Node19&#45;&gt;Node18 -->
<g id="edge26_Node000019_Node000018" class="edge">
<title>Node19&#45;&gt;Node18</title>
<g id="a_edge26_Node000019_Node000018"><a xlink:title=" ">
<path fill="none" stroke="#63b8ff" d="M939.18,-60.37C949.88,-51.3 966.94,-36.84 979.93,-25.82"/>
<polygon fill="#63b8ff" stroke="#63b8ff" points="982.41,-28.3 987.78,-19.17 977.89,-22.96 982.41,-28.3"/>
</a>
</g>
</g>
<!-- Node20 -->
<g id="Node000020" class="node">
<title>Node20</title>
<g id="a_Node000020"><a xlink:title=" ">
<polygon fill="#e0e0e0" stroke="#999999" points="944.5,-19 875.5,-19 875.5,0 944.5,0 944.5,-19"/>
<text text-anchor="middle" x="910" y="-7" font-family="Helvetica,sans-Serif" font-size="10.00">type_traits</text>
</a>
</g>
</g>
<!-- Node19&#45;&gt;Node20 -->
<g id="edge25_Node000019_Node000020" class="edge">
<title>Node19&#45;&gt;Node20</title>
<g id="a_edge25_Node000019_Node000020"><a xlink:title=" ">
<path fill="none" stroke="#63b8ff" d="M926.2,-60.37C923.5,-52.07 919.35,-39.28 915.92,-28.72"/>
<polygon fill="#63b8ff" stroke="#63b8ff" points="919.23,-27.6 912.82,-19.17 912.58,-29.76 919.23,-27.6"/>
</a>
</g>
</g>
</g>
</svg>
