<?xml version="1.0" encoding="UTF-8" standalone="no"?>
<!DOCTYPE svg PUBLIC "-//W3C//DTD SVG 1.1//EN"
 "http://www.w3.org/Graphics/SVG/1.1/DTD/svg11.dtd">
<!-- Generated by graphviz version 2.43.0 (0)
 -->
<!-- Title: include/mosaic/handlers/media_track/a_media_track_handler.h Pages: 1 -->
<svg width="553pt" height="192pt"
 viewBox="0.00 0.00 552.50 192.00" xmlns="http://www.w3.org/2000/svg" xmlns:xlink="http://www.w3.org/1999/xlink">
<g id="graph0" class="graph" transform="scale(1 1) rotate(0) translate(4 188)">
<title>include/mosaic/handlers/media_track/a_media_track_handler.h</title>
<!-- Node1 -->
<g id="Node000001" class="node">
<title>Node1</title>
<g id="a_Node000001"><a xlink:title=" ">
<polygon fill="#999999" stroke="#666666" points="296.5,-184 141.5,-184 141.5,-143 296.5,-143 296.5,-184"/>
<text text-anchor="start" x="149.5" y="-172" font-family="Helvetica,sans-Serif" font-size="10.00">include/mosaic/handlers</text>
<text text-anchor="start" x="149.5" y="-161" font-family="Helvetica,sans-Serif" font-size="10.00">/media_track/a_media_track</text>
<text text-anchor="middle" x="219" y="-150" font-family="Helvetica,sans-Serif" font-size="10.00">_handler.h</text>
</a>
</g>
</g>
<!-- Node2 -->
<g id="Node000002" class="node">
<title>Node2</title>
<g id="a_Node000002"><a xlink:title=" ">
<polygon fill="#e0e0e0" stroke="#999999" points="50,-96 0,-96 0,-77 50,-77 50,-96"/>
<text text-anchor="middle" x="25" y="-84" font-family="Helvetica,sans-Serif" font-size="10.00">chrono</text>
</a>
</g>
</g>
<!-- Node1&#45;&gt;Node2 -->
<g id="edge1_Node000001_Node000002" class="edge">
<title>Node1&#45;&gt;Node2</title>
<g id="a_edge1_Node000001_Node000002"><a xlink:title=" ">
<path fill="none" stroke="#63b8ff" d="M159.1,-142.93C130.07,-132.97 94.88,-120.19 64,-107 59.45,-105.06 54.69,-102.84 50.11,-100.61"/>
<polygon fill="#63b8ff" stroke="#63b8ff" points="51.62,-97.45 41.11,-96.1 48.49,-103.71 51.62,-97.45"/>
</a>
</g>
</g>
<!-- Node3 -->
<g id="Node000003" class="node">
<title>Node3</title>
<g id="a_Node000003"><a xlink:title=" ">
<polygon fill="#e0e0e0" stroke="#999999" points="107,-24.5 49,-24.5 49,-5.5 107,-5.5 107,-24.5"/>
<text text-anchor="middle" x="78" y="-12.5" font-family="Helvetica,sans-Serif" font-size="10.00">memory</text>
</a>
</g>
</g>
<!-- Node1&#45;&gt;Node3 -->
<g id="edge2_Node000001_Node000003" class="edge">
<title>Node1&#45;&gt;Node3</title>
<g id="a_edge2_Node000001_Node000003"><a xlink:title=" ">
<path fill="none" stroke="#63b8ff" d="M147.18,-142.96C128.42,-134.67 109.87,-123.08 97,-107 80.4,-86.26 77.29,-54.56 77.19,-34.58"/>
<polygon fill="#63b8ff" stroke="#63b8ff" points="80.69,-34.65 77.38,-24.58 73.69,-34.51 80.69,-34.65"/>
</a>
</g>
</g>
<!-- Node4 -->
<g id="Node000004" class="node">
<title>Node4</title>
<g id="a_Node000004"><a xlink:title=" ">
<polygon fill="#e0e0e0" stroke="#999999" points="317,-24.5 273,-24.5 273,-5.5 317,-5.5 317,-24.5"/>
<text text-anchor="middle" x="295" y="-12.5" font-family="Helvetica,sans-Serif" font-size="10.00">string</text>
</a>
</g>
</g>
<!-- Node1&#45;&gt;Node4 -->
<g id="edge3_Node000001_Node000004" class="edge">
<title>Node1&#45;&gt;Node4</title>
<g id="a_edge3_Node000001_Node000004"><a xlink:title=" ">
<path fill="none" stroke="#63b8ff" d="M237.24,-142.84C245.93,-132.7 255.93,-119.81 263,-107 276.05,-83.34 285.36,-53.36 290.46,-34.42"/>
<polygon fill="#63b8ff" stroke="#63b8ff" points="293.87,-35.24 292.98,-24.68 287.09,-33.49 293.87,-35.24"/>
</a>
</g>
</g>
<!-- Node5 -->
<g id="Node000005" class="node">
<title>Node5</title>
<g id="a_Node000005"><a xlink:href="i__media__track__handler_8h.html" target="_top" xlink:title=" ">
<polygon fill="white" stroke="#666666" points="468.5,-107 337.5,-107 337.5,-66 468.5,-66 468.5,-107"/>
<text text-anchor="start" x="345.5" y="-95" font-family="Helvetica,sans-Serif" font-size="10.00">mosaic/handlers/media</text>
<text text-anchor="start" x="345.5" y="-84" font-family="Helvetica,sans-Serif" font-size="10.00">_track/i_media_track</text>
<text text-anchor="middle" x="403" y="-73" font-family="Helvetica,sans-Serif" font-size="10.00">_handler.h</text>
</a>
</g>
</g>
<!-- Node1&#45;&gt;Node5 -->
<g id="edge4_Node000001_Node000005" class="edge">
<title>Node1&#45;&gt;Node5</title>
<g id="a_edge4_Node000001_Node000005"><a xlink:title=" ">
<path fill="none" stroke="#63b8ff" d="M266.86,-142.99C290.94,-133.18 320.3,-121.21 345.59,-110.9"/>
<polygon fill="#63b8ff" stroke="#63b8ff" points="347.12,-114.06 355.06,-107.04 344.48,-107.58 347.12,-114.06"/>
</a>
</g>
</g>
<!-- Node8 -->
<g id="Node000008" class="node">
<title>Node8</title>
<g id="a_Node000008"><a xlink:href="recordable_8h.html" target="_top" xlink:title=" ">
<polygon fill="white" stroke="#666666" points="237.5,-101.5 106.5,-101.5 106.5,-71.5 237.5,-71.5 237.5,-101.5"/>
<text text-anchor="start" x="114.5" y="-89.5" font-family="Helvetica,sans-Serif" font-size="10.00">mosaic/handlers/media</text>
<text text-anchor="middle" x="172" y="-78.5" font-family="Helvetica,sans-Serif" font-size="10.00">_track/recordable.h</text>
</a>
</g>
</g>
<!-- Node1&#45;&gt;Node8 -->
<g id="edge8_Node000001_Node000008" class="edge">
<title>Node1&#45;&gt;Node8</title>
<g id="a_edge8_Node000001_Node000008"><a xlink:title=" ">
<path fill="none" stroke="#63b8ff" d="M206.65,-142.79C200.42,-132.86 192.84,-120.75 186.35,-110.4"/>
<polygon fill="#63b8ff" stroke="#63b8ff" points="189.28,-108.48 181,-101.86 183.34,-112.19 189.28,-108.48"/>
</a>
</g>
</g>
<!-- Node9 -->
<g id="Node000009" class="node">
<title>Node9</title>
<g id="a_Node000009"><a xlink:title=" ">
<polygon fill="#e0e0e0" stroke="#999999" points="254.5,-24.5 125.5,-24.5 125.5,-5.5 254.5,-5.5 254.5,-24.5"/>
<text text-anchor="middle" x="190" y="-12.5" font-family="Helvetica,sans-Serif" font-size="10.00">opencv_forward_decl.h</text>
</a>
</g>
</g>
<!-- Node1&#45;&gt;Node9 -->
<g id="edge12_Node000001_Node000009" class="edge">
<title>Node1&#45;&gt;Node9</title>
<g id="a_edge12_Node000001_Node000009"><a xlink:title=" ">
<path fill="none" stroke="#63b8ff" d="M232.34,-142.68C243.98,-122.75 257.37,-91.4 246,-66 239.36,-51.16 225.89,-38.91 213.83,-30.25"/>
<polygon fill="#63b8ff" stroke="#63b8ff" points="215.67,-27.27 205.42,-24.6 211.76,-33.08 215.67,-27.27"/>
</a>
</g>
</g>
<!-- Node5&#45;&gt;Node4 -->
<g id="edge5_Node000005_Node000004" class="edge">
<title>Node5&#45;&gt;Node4</title>
<g id="a_edge5_Node000005_Node000004"><a xlink:title=" ">
<path fill="none" stroke="#63b8ff" d="M372.63,-65.96C354.9,-54.54 332.93,-40.41 316.89,-30.09"/>
<polygon fill="#63b8ff" stroke="#63b8ff" points="318.52,-26.97 308.21,-24.5 314.73,-32.86 318.52,-26.97"/>
</a>
</g>
</g>
<!-- Node6 -->
<g id="Node000006" class="node">
<title>Node6</title>
<g id="a_Node000006"><a xlink:title=" ">
<polygon fill="#e0e0e0" stroke="#999999" points="544.5,-24.5 499.5,-24.5 499.5,-5.5 544.5,-5.5 544.5,-24.5"/>
<text text-anchor="middle" x="522" y="-12.5" font-family="Helvetica,sans-Serif" font-size="10.00">utility</text>
</a>
</g>
</g>
<!-- Node5&#45;&gt;Node6 -->
<g id="edge6_Node000005_Node000006" class="edge">
<title>Node5&#45;&gt;Node6</title>
<g id="a_edge6_Node000005_Node000006"><a xlink:title=" ">
<path fill="none" stroke="#63b8ff" d="M436.46,-65.96C456.19,-54.44 480.66,-40.14 498.37,-29.8"/>
<polygon fill="#63b8ff" stroke="#63b8ff" points="500.57,-32.57 507.44,-24.5 497.04,-26.52 500.57,-32.57"/>
</a>
</g>
</g>
<!-- Node7 -->
<g id="Node000007" class="node">
<title>Node7</title>
<g id="a_Node000007"><a xlink:title=" ">
<polygon fill="#e0e0e0" stroke="#999999" points="481,-30 335,-30 335,0 481,0 481,-30"/>
<text text-anchor="start" x="343" y="-18" font-family="Helvetica,sans-Serif" font-size="10.00">mosaic/rtc/webrtc_forward</text>
<text text-anchor="middle" x="408" y="-7" font-family="Helvetica,sans-Serif" font-size="10.00">_decl.h</text>
</a>
</g>
</g>
<!-- Node5&#45;&gt;Node7 -->
<g id="edge7_Node000005_Node000007" class="edge">
<title>Node5&#45;&gt;Node7</title>
<g id="a_edge7_Node000005_Node000007"><a xlink:title=" ">
<path fill="none" stroke="#63b8ff" d="M404.42,-65.77C405,-57.76 405.67,-48.42 406.27,-40.02"/>
<polygon fill="#63b8ff" stroke="#63b8ff" points="409.76,-40.26 406.99,-30.04 402.78,-39.76 409.76,-40.26"/>
</a>
</g>
</g>
<!-- Node8&#45;&gt;Node3 -->
<g id="edge9_Node000008_Node000003" class="edge">
<title>Node8&#45;&gt;Node3</title>
<g id="a_edge9_Node000008_Node000003"><a xlink:title=" ">
<path fill="none" stroke="#63b8ff" d="M152.98,-71.44C136.95,-59.59 114.11,-42.7 97.85,-30.68"/>
<polygon fill="#63b8ff" stroke="#63b8ff" points="99.71,-27.7 89.59,-24.57 95.55,-33.33 99.71,-27.7"/>
</a>
</g>
</g>
<!-- Node8&#45;&gt;Node4 -->
<g id="edge10_Node000008_Node000004" class="edge">
<title>Node8&#45;&gt;Node4</title>
<g id="a_edge10_Node000008_Node000004"><a xlink:title=" ">
<path fill="none" stroke="#63b8ff" d="M196.89,-71.44C218.54,-59.2 249.7,-41.6 271.06,-29.53"/>
<polygon fill="#63b8ff" stroke="#63b8ff" points="272.85,-32.53 279.84,-24.57 269.41,-26.44 272.85,-32.53"/>
</a>
</g>
</g>
<!-- Node8&#45;&gt;Node9 -->
<g id="edge11_Node000008_Node000009" class="edge">
<title>Node8&#45;&gt;Node9</title>
<g id="a_edge11_Node000008_Node000009"><a xlink:title=" ">
<path fill="none" stroke="#63b8ff" d="M175.64,-71.44C178.38,-60.86 182.16,-46.25 185.16,-34.69"/>
<polygon fill="#63b8ff" stroke="#63b8ff" points="188.61,-35.33 187.73,-24.77 181.83,-33.57 188.61,-35.33"/>
</a>
</g>
</g>
</g>
</svg>
