<?xml version="1.0" encoding="UTF-8" standalone="no"?>
<!DOCTYPE svg PUBLIC "-//W3C//DTD SVG 1.1//EN"
 "http://www.w3.org/Graphics/SVG/1.1/DTD/svg11.dtd">
<!-- Generated by graphviz version 2.43.0 (0)
 -->
<!-- Title: include/mosaic/auto_configurer/connector/a_mt_handler_configurer.h Pages: 1 -->
<!--zoomable 511 -->

<svg id="main" version="1.1" xmlns="http://www.w3.org/2000/svg" xmlns:xlink="http://www.w3.org/1999/xlink" xml:space="preserve" onload="init(evt)">
<style type="text/css"><![CDATA[
.node, .edge {opacity: 0.7;}
.node.selected, .edge.selected {opacity: 1;}
.edge:hover path { stroke: red; }
.edge:hover polygon { stroke: red; fill: red; }
]]></style>

<defs>
  <circle id="rim" cx="0" cy="0" r="7"/>
  <circle id="rim2" cx="0" cy="0" r="3.5"/>
  <g id="zoomPlus">
    <use xlink:href="#rim" fill="#404040"><set attributeName="fill" to="#808080" begin="zoomplus.mouseover" end="zoomplus.mouseout"/></use>
    <path d="M-4,0h8M0,-4v8" fill="none" stroke="white" stroke-width="1.5" pointer-events="none"/>
  </g>
  <g id="zoomMin">
    <use xlink:href="#rim" fill="#404040"><set attributeName="fill" to="#808080" begin="zoomminus.mouseover" end="zoomminus.mouseout"/></use>
    <path d="M-4,0h8" fill="none" stroke="white" stroke-width="1.5" pointer-events="none"/>
  </g>
  <g id="arrowUp" transform="translate(30 24)">
    <use xlink:href="#rim"/>
    <path pointer-events="none" fill="none" stroke="white" stroke-width="1.5" d="M0,-3.0v7 M-2.5,-0.5L0,-3.0L2.5,-0.5"/>
  </g>
  <g id="arrowRight" transform="rotate(90) translate(36 -43)">
    <use xlink:href="#rim"/>
    <path pointer-events="none" fill="none" stroke="white" stroke-width="1.5" d="M0,-3.0v7 M-2.5,-0.5L0,-3.0L2.5,-0.5"/>
  </g>
  <g id="arrowDown" transform="rotate(180) translate(-30 -48)">
    <use xlink:href="#rim"/>
    <path pointer-events="none" fill="none" stroke="white" stroke-width="1.5" d="M0,-3.0v7 M-2.5,-0.5L0,-3.0L2.5,-0.5"/>
  </g>
  <g id="arrowLeft" transform="rotate(270) translate(-36 17)">
    <use xlink:href="#rim"/>
    <path pointer-events="none" fill="none" stroke="white" stroke-width="1.5" d="M0,-3.0v7 M-2.5,-0.5L0,-3.0L2.5,-0.5"/>
  </g>
  <g id="resetDef">
    <use xlink:href="#rim2" fill="#404040"><set attributeName="fill" to="#808080" begin="reset.mouseover" end="reset.mouseout"/></use>
  </g>
</defs>
<script type="application/ecmascript">
var viewWidth = 1030;
var viewHeight = 511;
var sectionId = 'dynsection-0';
</script>
<script type="application/ecmascript" xlink:href="svg.min.js"/>
<svg id="graph" class="graph">
<g id="viewport">
<title>include/mosaic/auto_configurer/connector/a_mt_handler_configurer.h</title>
<!-- Node1 -->
<g id="Node000001" class="node">
<title>Node1</title>
<g id="a_Node000001"><a xlink:title=" ">
<polygon fill="#999999" stroke="#666666" points="314,-503 165,-503 165,-462 314,-462 314,-503"/>
<text text-anchor="start" x="173" y="-491" font-family="Helvetica,sans-Serif" font-size="10.00">include/mosaic/auto</text>
<text text-anchor="start" x="173" y="-480" font-family="Helvetica,sans-Serif" font-size="10.00">_configurer/connector</text>
<text text-anchor="middle" x="239.5" y="-469" font-family="Helvetica,sans-Serif" font-size="10.00">/a_mt_handler_configurer.h</text>
</a>
</g>
</g>
<!-- Node2 -->
<g id="Node000002" class="node">
<title>Node2</title>
<g id="a_Node000002"><a xlink:href="i__configurable__connector_8h.html" target="_top" xlink:title=" ">
<polygon fill="white" stroke="#666666" points="312.5,-426 166.5,-426 166.5,-407 312.5,-407 312.5,-426"/>
<text text-anchor="middle" x="239.5" y="-414" font-family="Helvetica,sans-Serif" font-size="10.00">i_configurable_connector.h</text>
</a>
</g>
</g>
<!-- Node1&#45;&gt;Node2 -->
<g id="edge1_Node000001_Node000002" class="edge">
<title>Node1&#45;&gt;Node2</title>
<g id="a_edge1_Node000001_Node000002"><a xlink:title=" ">
<path fill="none" stroke="#63b8ff" d="M239.5,-461.95C239.5,-453.85 239.5,-444.5 239.5,-436.47"/>
<polygon fill="#63b8ff" stroke="#63b8ff" points="243,-436.26 239.5,-426.26 236,-436.26 243,-436.26"/>
</a>
</g>
</g>
<!-- Node3 -->
<g id="Node000003" class="node">
<title>Node3</title>
<g id="a_Node000003"><a xlink:href="configs__decl_8h.html" target="_top" xlink:title=" ">
<polygon fill="white" stroke="#666666" points="174.5,-79.5 50.5,-79.5 50.5,-60.5 174.5,-60.5 174.5,-79.5"/>
<text text-anchor="middle" x="112.5" y="-67.5" font-family="Helvetica,sans-Serif" font-size="10.00">mosaic/configs_decl.h</text>
</a>
</g>
</g>
<!-- Node2&#45;&gt;Node3 -->
<g id="edge2_Node000002_Node000003" class="edge">
<title>Node2&#45;&gt;Node3</title>
<g id="a_edge2_Node000002_Node000003"><a xlink:title=" ">
<path fill="none" stroke="#63b8ff" d="M204.14,-406.96C151.97,-392.01 60.5,-355.79 60.5,-285.5 60.5,-285.5 60.5,-285.5 60.5,-206.5 60.5,-161.57 85.73,-113.48 101.04,-88.44"/>
<polygon fill="#63b8ff" stroke="#63b8ff" points="104.15,-90.07 106.53,-79.75 98.24,-86.33 104.15,-90.07"/>
</a>
</g>
</g>
<!-- Node7 -->
<g id="Node000007" class="node">
<title>Node7</title>
<g id="a_Node000007"><a xlink:href="mosaic__connector_8h.html" target="_top" xlink:title=" ">
<polygon fill="white" stroke="#666666" points="521.5,-371 407.5,-371 407.5,-341 521.5,-341 521.5,-371"/>
<text text-anchor="start" x="415.5" y="-359" font-family="Helvetica,sans-Serif" font-size="10.00">mosaic/core/mosaic</text>
<text text-anchor="middle" x="464.5" y="-348" font-family="Helvetica,sans-Serif" font-size="10.00">_connector.h</text>
</a>
</g>
</g>
<!-- Node2&#45;&gt;Node7 -->
<g id="edge6_Node000002_Node000007" class="edge">
<title>Node2&#45;&gt;Node7</title>
<g id="a_edge6_Node000002_Node000007"><a xlink:title=" ">
<path fill="none" stroke="#63b8ff" d="M272.22,-406.99C305.73,-398.28 358.7,-384.51 400.57,-373.62"/>
<polygon fill="#63b8ff" stroke="#63b8ff" points="401.61,-376.97 410.41,-371.06 399.85,-370.19 401.61,-376.97"/>
</a>
</g>
</g>
<!-- Node4 -->
<g id="Node000004" class="node">
<title>Node4</title>
<g id="a_Node000004"><a xlink:title=" ">
<polygon fill="#e0e0e0" stroke="#999999" points="490.5,-19 446.5,-19 446.5,0 490.5,0 490.5,-19"/>
<text text-anchor="middle" x="468.5" y="-7" font-family="Helvetica,sans-Serif" font-size="10.00">string</text>
</a>
</g>
</g>
<!-- Node3&#45;&gt;Node4 -->
<g id="edge3_Node000003_Node000004" class="edge">
<title>Node3&#45;&gt;Node4</title>
<g id="a_edge3_Node000003_Node000004"><a xlink:title=" ">
<path fill="none" stroke="#63b8ff" d="M154.5,-60.43C164.02,-58.57 174.1,-56.66 183.5,-55 274.85,-38.87 383.22,-22.78 436.15,-15.12"/>
<polygon fill="#63b8ff" stroke="#63b8ff" points="436.88,-18.55 446.28,-13.66 435.88,-11.63 436.88,-18.55"/>
</a>
</g>
</g>
<!-- Node5 -->
<g id="Node000005" class="node">
<title>Node5</title>
<g id="a_Node000005"><a xlink:title=" ">
<polygon fill="#e0e0e0" stroke="#999999" points="159,-19 66,-19 66,0 159,0 159,-19"/>
<text text-anchor="middle" x="112.5" y="-7" font-family="Helvetica,sans-Serif" font-size="10.00">unordered_map</text>
</a>
</g>
</g>
<!-- Node3&#45;&gt;Node5 -->
<g id="edge4_Node000003_Node000005" class="edge">
<title>Node3&#45;&gt;Node5</title>
<g id="a_edge4_Node000003_Node000005"><a xlink:title=" ">
<path fill="none" stroke="#63b8ff" d="M112.5,-60.37C112.5,-52.25 112.5,-39.81 112.5,-29.39"/>
<polygon fill="#63b8ff" stroke="#63b8ff" points="116,-29.17 112.5,-19.17 109,-29.17 116,-29.17"/>
</a>
</g>
</g>
<!-- Node6 -->
<g id="Node000006" class="node">
<title>Node6</title>
<g id="a_Node000006"><a xlink:title=" ">
<polygon fill="#e0e0e0" stroke="#999999" points="47,-19 0,-19 0,0 47,0 47,-19"/>
<text text-anchor="middle" x="23.5" y="-7" font-family="Helvetica,sans-Serif" font-size="10.00">vector</text>
</a>
</g>
</g>
<!-- Node3&#45;&gt;Node6 -->
<g id="edge5_Node000003_Node000006" class="edge">
<title>Node3&#45;&gt;Node6</title>
<g id="a_edge5_Node000003_Node000006"><a xlink:title=" ">
<path fill="none" stroke="#63b8ff" d="M99.37,-60.37C85.17,-51.04 62.3,-36.01 45.38,-24.88"/>
<polygon fill="#63b8ff" stroke="#63b8ff" points="46.97,-21.74 36.69,-19.17 43.12,-27.58 46.97,-21.74"/>
</a>
</g>
</g>
<!-- Node7&#45;&gt;Node4 -->
<g id="edge9_Node000007_Node000004" class="edge">
<title>Node7&#45;&gt;Node4</title>
<g id="a_edge9_Node000007_Node000004"><a xlink:title=" ">
<path fill="none" stroke="#63b8ff" d="M407.38,-344.88C384.5,-337.73 360.33,-325.59 346.5,-305 317.26,-261.46 318.73,-232.1 345.5,-187 362.56,-158.27 389.26,-175.93 411.5,-151 443.68,-114.93 459.02,-58.32 465.12,-29.19"/>
<polygon fill="#63b8ff" stroke="#63b8ff" points="468.6,-29.64 467.08,-19.16 461.73,-28.3 468.6,-29.64"/>
</a>
</g>
</g>
<!-- Node8 -->
<g id="Node000008" class="node">
<title>Node8</title>
<g id="a_Node000008"><a xlink:title=" ">
<polygon fill="#e0e0e0" stroke="#999999" points="576.5,-294 538.5,-294 538.5,-275 576.5,-275 576.5,-294"/>
<text text-anchor="middle" x="557.5" y="-282" font-family="Helvetica,sans-Serif" font-size="10.00">map</text>
</a>
</g>
</g>
<!-- Node7&#45;&gt;Node8 -->
<g id="edge7_Node000007_Node000008" class="edge">
<title>Node7&#45;&gt;Node8</title>
<g id="a_edge7_Node000007_Node000008"><a xlink:title=" ">
<path fill="none" stroke="#63b8ff" d="M483.32,-340.94C499.17,-329.09 521.77,-312.2 537.86,-300.18"/>
<polygon fill="#63b8ff" stroke="#63b8ff" points="540.12,-302.86 546.04,-294.07 535.93,-297.25 540.12,-302.86"/>
</a>
</g>
</g>
<!-- Node9 -->
<g id="Node000009" class="node">
<title>Node9</title>
<g id="a_Node000009"><a xlink:title=" ">
<polygon fill="#e0e0e0" stroke="#999999" points="668.5,-19 610.5,-19 610.5,0 668.5,0 668.5,-19"/>
<text text-anchor="middle" x="639.5" y="-7" font-family="Helvetica,sans-Serif" font-size="10.00">memory</text>
</a>
</g>
</g>
<!-- Node7&#45;&gt;Node9 -->
<g id="edge8_Node000007_Node000009" class="edge">
<title>Node7&#45;&gt;Node9</title>
<g id="a_edge8_Node000007_Node000009"><a xlink:title=" ">
<path fill="none" stroke="#63b8ff" d="M472.4,-340.84C494.51,-301.01 558.54,-184.47 606.5,-85 615.69,-65.95 625.4,-43.74 631.89,-28.56"/>
<polygon fill="#63b8ff" stroke="#63b8ff" points="635.13,-29.87 635.82,-19.3 628.69,-27.14 635.13,-29.87"/>
</a>
</g>
</g>
<!-- Node10 -->
<g id="Node000010" class="node">
<title>Node10</title>
<g id="a_Node000010"><a xlink:href="connector__state__manager_8h.html" target="_top" xlink:title=" ">
<polygon fill="white" stroke="#666666" points="482,-299.5 355,-299.5 355,-269.5 482,-269.5 482,-299.5"/>
<text text-anchor="start" x="363" y="-287.5" font-family="Helvetica,sans-Serif" font-size="10.00">mosaic/core/connector</text>
<text text-anchor="middle" x="418.5" y="-276.5" font-family="Helvetica,sans-Serif" font-size="10.00">_state_manager.h</text>
</a>
</g>
</g>
<!-- Node7&#45;&gt;Node10 -->
<g id="edge10_Node000007_Node000010" class="edge">
<title>Node7&#45;&gt;Node10</title>
<g id="a_edge10_Node000007_Node000010"><a xlink:title=" ">
<path fill="none" stroke="#63b8ff" d="M455.19,-340.94C448.96,-331.52 440.61,-318.91 433.45,-308.09"/>
<polygon fill="#63b8ff" stroke="#63b8ff" points="436.23,-305.95 427.79,-299.54 430.4,-309.81 436.23,-305.95"/>
</a>
</g>
</g>
<!-- Node14 -->
<g id="Node000014" class="node">
<title>Node14</title>
<g id="a_Node000014"><a xlink:title=" ">
<polygon fill="#e0e0e0" stroke="#999999" points="756.5,-151 610.5,-151 610.5,-121 756.5,-121 756.5,-151"/>
<text text-anchor="start" x="618.5" y="-139" font-family="Helvetica,sans-Serif" font-size="10.00">mosaic/rtc/webrtc_forward</text>
<text text-anchor="middle" x="683.5" y="-128" font-family="Helvetica,sans-Serif" font-size="10.00">_decl.h</text>
</a>
</g>
</g>
<!-- Node7&#45;&gt;Node14 -->
<g id="edge45_Node000007_Node000014" class="edge">
<title>Node7&#45;&gt;Node14</title>
<g id="a_edge45_Node000007_Node000014"><a xlink:title=" ">
<path fill="none" stroke="#63b8ff" d="M521.6,-353.02C594.37,-349.16 714.04,-337.86 741.5,-305 760.32,-282.48 719.14,-200.65 696.74,-160.1"/>
<polygon fill="#63b8ff" stroke="#63b8ff" points="699.69,-158.21 691.75,-151.19 693.58,-161.63 699.69,-158.21"/>
</a>
</g>
</g>
<!-- Node17 -->
<g id="Node000017" class="node">
<title>Node17</title>
<g id="a_Node000017"><a xlink:href="peer__connection__manager_8h.html" target="_top" xlink:title=" ">
<polygon fill="white" stroke="#666666" points="299,-299.5 140,-299.5 140,-269.5 299,-269.5 299,-299.5"/>
<text text-anchor="start" x="148" y="-287.5" font-family="Helvetica,sans-Serif" font-size="10.00">mosaic/core/peer_connection</text>
<text text-anchor="middle" x="219.5" y="-276.5" font-family="Helvetica,sans-Serif" font-size="10.00">_manager.h</text>
</a>
</g>
</g>
<!-- Node7&#45;&gt;Node17 -->
<g id="edge23_Node000007_Node000017" class="edge">
<title>Node7&#45;&gt;Node17</title>
<g id="a_edge23_Node000007_Node000017"><a xlink:title=" ">
<path fill="none" stroke="#63b8ff" d="M409.37,-340.94C368.62,-329.8 313.52,-314.2 273.13,-302.38"/>
<polygon fill="#63b8ff" stroke="#63b8ff" points="274.04,-299 263.46,-299.54 272.07,-305.72 274.04,-299"/>
</a>
</g>
</g>
<!-- Node18 -->
<g id="Node000018" class="node">
<title>Node18</title>
<g id="a_Node000018"><a xlink:href="i__data__channel__handler_8h.html" target="_top" xlink:title=" ">
<polygon fill="white" stroke="#666666" points="732,-305 595,-305 595,-264 732,-264 732,-305"/>
<text text-anchor="start" x="603" y="-293" font-family="Helvetica,sans-Serif" font-size="10.00">mosaic/handlers/data</text>
<text text-anchor="start" x="603" y="-282" font-family="Helvetica,sans-Serif" font-size="10.00">_channel/i_data_channel</text>
<text text-anchor="middle" x="663.5" y="-271" font-family="Helvetica,sans-Serif" font-size="10.00">_handler.h</text>
</a>
</g>
</g>
<!-- Node7&#45;&gt;Node18 -->
<g id="edge28_Node000007_Node000018" class="edge">
<title>Node7&#45;&gt;Node18</title>
<g id="a_edge28_Node000007_Node000018"><a xlink:title=" ">
<path fill="none" stroke="#63b8ff" d="M504.77,-340.94C531.42,-331.63 566.97,-319.21 597.67,-308.49"/>
<polygon fill="#63b8ff" stroke="#63b8ff" points="599.17,-311.68 607.45,-305.07 596.86,-305.07 599.17,-311.68"/>
</a>
</g>
</g>
<!-- Node25 -->
<g id="Node000025" class="node">
<title>Node25</title>
<g id="a_Node000025"><a xlink:href="i__media__track__handler_8h.html" target="_top" xlink:title=" ">
<polygon fill="white" stroke="#666666" points="877,-228 746,-228 746,-187 877,-187 877,-228"/>
<text text-anchor="start" x="754" y="-216" font-family="Helvetica,sans-Serif" font-size="10.00">mosaic/handlers/media</text>
<text text-anchor="start" x="754" y="-205" font-family="Helvetica,sans-Serif" font-size="10.00">_track/i_media_track</text>
<text text-anchor="middle" x="811.5" y="-194" font-family="Helvetica,sans-Serif" font-size="10.00">_handler.h</text>
</a>
</g>
</g>
<!-- Node7&#45;&gt;Node25 -->
<g id="edge41_Node000007_Node000025" class="edge">
<title>Node7&#45;&gt;Node25</title>
<g id="a_edge41_Node000007_Node000025"><a xlink:title=" ">
<path fill="none" stroke="#63b8ff" d="M521.82,-352.48C600.54,-347.92 736.68,-335.72 774.5,-305 794.61,-288.67 803.8,-260.06 808,-238.22"/>
<polygon fill="#63b8ff" stroke="#63b8ff" points="811.49,-238.57 809.68,-228.13 804.58,-237.42 811.49,-238.57"/>
</a>
</g>
</g>
<!-- Node10&#45;&gt;Node4 -->
<g id="edge13_Node000010_Node000004" class="edge">
<title>Node10&#45;&gt;Node4</title>
<g id="a_edge13_Node000010_Node000004"><a xlink:title=" ">
<path fill="none" stroke="#63b8ff" d="M428.73,-269.2C435.86,-258.42 444.89,-242.98 449.5,-228 471.3,-157.08 470.87,-67.45 469.46,-29.19"/>
<polygon fill="#63b8ff" stroke="#63b8ff" points="472.95,-28.88 469.02,-19.04 465.96,-29.18 472.95,-28.88"/>
</a>
</g>
</g>
<!-- Node10&#45;&gt;Node9 -->
<g id="edge11_Node000010_Node000009" class="edge">
<title>Node10&#45;&gt;Node9</title>
<g id="a_edge11_Node000010_Node000009"><a xlink:title=" ">
<path fill="none" stroke="#63b8ff" d="M431.61,-269.08C441.61,-257.99 455.63,-242.2 467.5,-228 528.69,-154.79 598.23,-64.57 626.51,-27.56"/>
<polygon fill="#63b8ff" stroke="#63b8ff" points="629.5,-29.41 632.79,-19.34 623.94,-25.17 629.5,-29.41"/>
</a>
</g>
</g>
<!-- Node11 -->
<g id="Node000011" class="node">
<title>Node11</title>
<g id="a_Node000011"><a xlink:title=" ">
<polygon fill="#e0e0e0" stroke="#999999" points="440.5,-217 354.5,-217 354.5,-198 440.5,-198 440.5,-217"/>
<text text-anchor="middle" x="397.5" y="-205" font-family="Helvetica,sans-Serif" font-size="10.00">shared_mutex</text>
</a>
</g>
</g>
<!-- Node10&#45;&gt;Node11 -->
<g id="edge12_Node000010_Node000011" class="edge">
<title>Node10&#45;&gt;Node11</title>
<g id="a_edge12_Node000010_Node000011"><a xlink:title=" ">
<path fill="none" stroke="#63b8ff" d="M414.55,-269.39C411.21,-257.46 406.39,-240.26 402.73,-227.18"/>
<polygon fill="#63b8ff" stroke="#63b8ff" points="406.05,-226.06 399.98,-217.37 399.31,-227.95 406.05,-226.06"/>
</a>
</g>
</g>
<!-- Node12 -->
<g id="Node000012" class="node">
<title>Node12</title>
<g id="a_Node000012"><a xlink:href="i__signaling__client_8h.html" target="_top" xlink:title=" ">
<polygon fill="white" stroke="#666666" points="298,-222.5 191,-222.5 191,-192.5 298,-192.5 298,-222.5"/>
<text text-anchor="start" x="199" y="-210.5" font-family="Helvetica,sans-Serif" font-size="10.00">mosaic/signaling/i</text>
<text text-anchor="middle" x="244.5" y="-199.5" font-family="Helvetica,sans-Serif" font-size="10.00">_signaling_client.h</text>
</a>
</g>
</g>
<!-- Node10&#45;&gt;Node12 -->
<g id="edge14_Node000010_Node000012" class="edge">
<title>Node10&#45;&gt;Node12</title>
<g id="a_edge14_Node000010_Node000012"><a xlink:title=" ">
<path fill="none" stroke="#63b8ff" d="M385.77,-269.39C357.7,-257.29 317.08,-239.78 286.59,-226.64"/>
<polygon fill="#63b8ff" stroke="#63b8ff" points="287.65,-223.29 277.08,-222.54 284.88,-229.72 287.65,-223.29"/>
</a>
</g>
</g>
<!-- Node13 -->
<g id="Node000013" class="node">
<title>Node13</title>
<g id="a_Node000013"><a xlink:title=" ">
<polygon fill="#e0e0e0" stroke="#999999" points="310.5,-85 192.5,-85 192.5,-55 310.5,-55 310.5,-85"/>
<text text-anchor="start" x="200.5" y="-73" font-family="Helvetica,sans-Serif" font-size="10.00">mosaic/json_forward</text>
<text text-anchor="middle" x="251.5" y="-62" font-family="Helvetica,sans-Serif" font-size="10.00">_decl.h</text>
</a>
</g>
</g>
<!-- Node12&#45;&gt;Node13 -->
<g id="edge15_Node000012_Node000013" class="edge">
<title>Node12&#45;&gt;Node13</title>
<g id="a_edge15_Node000012_Node000013"><a xlink:title=" ">
<path fill="none" stroke="#63b8ff" d="M245.24,-192.26C246.43,-169.22 248.79,-123.53 250.25,-95.29"/>
<polygon fill="#63b8ff" stroke="#63b8ff" points="253.75,-95.22 250.77,-85.05 246.76,-94.86 253.75,-95.22"/>
</a>
</g>
</g>
<!-- Node12&#45;&gt;Node14 -->
<g id="edge16_Node000012_Node000014" class="edge">
<title>Node12&#45;&gt;Node14</title>
<g id="a_edge16_Node000012_Node000014"><a xlink:title=" ">
<path fill="none" stroke="#63b8ff" d="M298.15,-195.69C313.42,-192.73 330.1,-189.63 345.5,-187 432.13,-172.24 531.69,-157.82 600.2,-148.29"/>
<polygon fill="#63b8ff" stroke="#63b8ff" points="601.07,-151.7 610.5,-146.86 600.11,-144.76 601.07,-151.7"/>
</a>
</g>
</g>
<!-- Node15 -->
<g id="Node000015" class="node">
<title>Node15</title>
<g id="a_Node000015"><a xlink:href="i__mosaic__authenticator_8h.html" target="_top" xlink:title=" ">
<polygon fill="white" stroke="#666666" points="402.5,-151 262.5,-151 262.5,-121 402.5,-121 402.5,-151"/>
<text text-anchor="start" x="270.5" y="-139" font-family="Helvetica,sans-Serif" font-size="10.00">mosaic/security/i_mosaic</text>
<text text-anchor="middle" x="332.5" y="-128" font-family="Helvetica,sans-Serif" font-size="10.00">_authenticator.h</text>
</a>
</g>
</g>
<!-- Node12&#45;&gt;Node15 -->
<g id="edge17_Node000012_Node000015" class="edge">
<title>Node12&#45;&gt;Node15</title>
<g id="a_edge17_Node000012_Node000015"><a xlink:title=" ">
<path fill="none" stroke="#63b8ff" d="M262.31,-192.44C275.07,-182.36 292.46,-168.63 306.73,-157.35"/>
<polygon fill="#63b8ff" stroke="#63b8ff" points="309.04,-159.99 314.72,-151.04 304.7,-154.49 309.04,-159.99"/>
</a>
</g>
</g>
<!-- Node15&#45;&gt;Node3 -->
<g id="edge21_Node000015_Node000003" class="edge">
<title>Node15&#45;&gt;Node3</title>
<g id="a_edge21_Node000015_Node000003"><a xlink:title=" ">
<path fill="none" stroke="#63b8ff" d="M284.22,-120.95C244.45,-109.38 188.76,-93.18 151.71,-82.41"/>
<polygon fill="#63b8ff" stroke="#63b8ff" points="152.36,-78.95 141.78,-79.52 150.4,-85.67 152.36,-78.95"/>
</a>
</g>
</g>
<!-- Node15&#45;&gt;Node9 -->
<g id="edge18_Node000015_Node000009" class="edge">
<title>Node15&#45;&gt;Node9</title>
<g id="a_edge18_Node000015_Node000009"><a xlink:title=" ">
<path fill="none" stroke="#63b8ff" d="M367.12,-120.96C427.6,-96.43 551.53,-46.18 608.99,-22.87"/>
<polygon fill="#63b8ff" stroke="#63b8ff" points="610.32,-26.11 618.27,-19.11 607.69,-19.62 610.32,-26.11"/>
</a>
</g>
</g>
<!-- Node15&#45;&gt;Node13 -->
<g id="edge22_Node000015_Node000013" class="edge">
<title>Node15&#45;&gt;Node13</title>
<g id="a_edge22_Node000015_Node000013"><a xlink:title=" ">
<path fill="none" stroke="#63b8ff" d="M314.52,-120.8C303.62,-112.18 289.52,-101.04 277.42,-91.48"/>
<polygon fill="#63b8ff" stroke="#63b8ff" points="279.44,-88.62 269.43,-85.16 275.1,-94.11 279.44,-88.62"/>
</a>
</g>
</g>
<!-- Node16 -->
<g id="Node000016" class="node">
<title>Node16</title>
<g id="a_Node000016"><a xlink:href="auth__type_8h.html" target="_top" xlink:title=" ">
<polygon fill="white" stroke="#666666" points="402.5,-79.5 328.5,-79.5 328.5,-60.5 402.5,-60.5 402.5,-79.5"/>
<text text-anchor="middle" x="365.5" y="-67.5" font-family="Helvetica,sans-Serif" font-size="10.00">auth_type.h</text>
</a>
</g>
</g>
<!-- Node15&#45;&gt;Node16 -->
<g id="edge19_Node000015_Node000016" class="edge">
<title>Node15&#45;&gt;Node16</title>
<g id="a_edge19_Node000015_Node000016"><a xlink:title=" ">
<path fill="none" stroke="#63b8ff" d="M339.82,-120.8C344.67,-111.41 351.05,-99.02 356.25,-88.95"/>
<polygon fill="#63b8ff" stroke="#63b8ff" points="359.47,-90.34 360.94,-79.84 353.25,-87.13 359.47,-90.34"/>
</a>
</g>
</g>
<!-- Node16&#45;&gt;Node4 -->
<g id="edge20_Node000016_Node000004" class="edge">
<title>Node16&#45;&gt;Node4</title>
<g id="a_edge20_Node000016_Node000004"><a xlink:title=" ">
<path fill="none" stroke="#63b8ff" d="M380.7,-60.37C397.51,-50.82 424.82,-35.31 444.52,-24.12"/>
<polygon fill="#63b8ff" stroke="#63b8ff" points="446.27,-27.15 453.24,-19.17 442.82,-21.06 446.27,-27.15"/>
</a>
</g>
</g>
<!-- Node17&#45;&gt;Node3 -->
<g id="edge25_Node000017_Node000003" class="edge">
<title>Node17&#45;&gt;Node3</title>
<g id="a_edge25_Node000017_Node000003"><a xlink:title=" ">
<path fill="none" stroke="#63b8ff" d="M209.07,-269.31C201.25,-258.34 190.55,-242.6 182.5,-228 155.82,-179.58 131.1,-119.03 119.47,-89.25"/>
<polygon fill="#63b8ff" stroke="#63b8ff" points="122.67,-87.82 115.8,-79.75 116.14,-90.34 122.67,-87.82"/>
</a>
</g>
</g>
<!-- Node17&#45;&gt;Node6 -->
<g id="edge24_Node000017_Node000006" class="edge">
<title>Node17&#45;&gt;Node6</title>
<g id="a_edge24_Node000017_Node000006"><a xlink:title=" ">
<path fill="none" stroke="#63b8ff" d="M201.41,-269.29C164.77,-239.44 81.89,-166.24 41.5,-85 32.63,-67.17 27.98,-44.72 25.65,-29.15"/>
<polygon fill="#63b8ff" stroke="#63b8ff" points="29.11,-28.65 24.33,-19.19 22.17,-29.57 29.11,-28.65"/>
</a>
</g>
</g>
<!-- Node17&#45;&gt;Node7 -->
<g id="edge26_Node000017_Node000007" class="edge">
<title>Node17&#45;&gt;Node7</title>
<g id="a_edge26_Node000017_Node000007"><a xlink:title=" ">
<path fill="none" stroke="#63b8ff" d="M274.55,-299.54C315.28,-310.68 370.38,-326.28 410.79,-338.09"/>
<polygon fill="#63b8ff" stroke="#63b8ff" points="409.89,-341.48 420.47,-340.94 411.86,-334.76 409.89,-341.48"/>
</a>
</g>
</g>
<!-- Node17&#45;&gt;Node12 -->
<g id="edge27_Node000017_Node000012" class="edge">
<title>Node17&#45;&gt;Node12</title>
<g id="a_edge27_Node000017_Node000012"><a xlink:title=" ">
<path fill="none" stroke="#63b8ff" d="M224.2,-269.39C227.69,-258.92 232.54,-244.39 236.62,-232.15"/>
<polygon fill="#63b8ff" stroke="#63b8ff" points="239.98,-233.14 239.82,-222.54 233.34,-230.92 239.98,-233.14"/>
</a>
</g>
</g>
<!-- Node18&#45;&gt;Node4 -->
<g id="edge29_Node000018_Node000004" class="edge">
<title>Node18&#45;&gt;Node4</title>
<g id="a_edge29_Node000018_Node000004"><a xlink:title=" ">
<path fill="none" stroke="#63b8ff" d="M649.48,-263.87C612.88,-212.63 514.95,-75.53 480.61,-27.45"/>
<polygon fill="#63b8ff" stroke="#63b8ff" points="483.28,-25.17 474.62,-19.07 477.59,-29.24 483.28,-25.17"/>
</a>
</g>
</g>
<!-- Node18&#45;&gt;Node14 -->
<g id="edge40_Node000018_Node000014" class="edge">
<title>Node18&#45;&gt;Node14</title>
<g id="a_edge40_Node000018_Node000014"><a xlink:title=" ">
<path fill="none" stroke="#63b8ff" d="M666.2,-263.74C669.83,-237.15 676.28,-189.87 680.2,-161.18"/>
<polygon fill="#63b8ff" stroke="#63b8ff" points="683.68,-161.56 681.56,-151.18 676.74,-160.61 683.68,-161.56"/>
</a>
</g>
</g>
<!-- Node19 -->
<g id="Node000019" class="node">
<title>Node19</title>
<g id="a_Node000019"><a xlink:href="log_8h.html" target="_top" xlink:title=" ">
<polygon fill="white" stroke="#666666" points="1008,-217 895,-217 895,-198 1008,-198 1008,-217"/>
<text text-anchor="middle" x="951.5" y="-205" font-family="Helvetica,sans-Serif" font-size="10.00">mosaic/logger/log.h</text>
</a>
</g>
</g>
<!-- Node18&#45;&gt;Node19 -->
<g id="edge30_Node000018_Node000019" class="edge">
<title>Node18&#45;&gt;Node19</title>
<g id="a_edge30_Node000018_Node000019"><a xlink:title=" ">
<path fill="none" stroke="#63b8ff" d="M732.04,-267.33C776.26,-256.68 834.94,-242.14 886.5,-228 895.59,-225.51 905.36,-222.66 914.48,-219.94"/>
<polygon fill="#63b8ff" stroke="#63b8ff" points="915.5,-223.28 924.07,-217.04 913.48,-216.58 915.5,-223.28"/>
</a>
</g>
</g>
<!-- Node20 -->
<g id="Node000020" class="node">
<title>Node20</title>
<g id="a_Node000020"><a xlink:href="i__logger_8h.html" target="_top" xlink:title=" ">
<polygon fill="white" stroke="#666666" points="940.5,-145.5 876.5,-145.5 876.5,-126.5 940.5,-126.5 940.5,-145.5"/>
<text text-anchor="middle" x="908.5" y="-133.5" font-family="Helvetica,sans-Serif" font-size="10.00">i_logger.h</text>
</a>
</g>
</g>
<!-- Node19&#45;&gt;Node20 -->
<g id="edge31_Node000019_Node000020" class="edge">
<title>Node19&#45;&gt;Node20</title>
<g id="a_edge31_Node000019_Node000020"><a xlink:title=" ">
<path fill="none" stroke="#63b8ff" d="M946.23,-197.98C939.52,-187.14 927.78,-168.16 919.17,-154.25"/>
<polygon fill="#63b8ff" stroke="#63b8ff" points="922.05,-152.25 913.82,-145.59 916.1,-155.94 922.05,-152.25"/>
</a>
</g>
</g>
<!-- Node23 -->
<g id="Node000023" class="node">
<title>Node23</title>
<g id="a_Node000023"><a xlink:href="log__service_8h.html" target="_top" xlink:title=" ">
<polygon fill="white" stroke="#666666" points="1009,-79.5 928,-79.5 928,-60.5 1009,-60.5 1009,-79.5"/>
<text text-anchor="middle" x="968.5" y="-67.5" font-family="Helvetica,sans-Serif" font-size="10.00">log_service.h</text>
</a>
</g>
</g>
<!-- Node19&#45;&gt;Node23 -->
<g id="edge39_Node000019_Node000023" class="edge">
<title>Node19&#45;&gt;Node23</title>
<g id="a_edge39_Node000019_Node000023"><a xlink:title=" ">
<path fill="none" stroke="#63b8ff" d="M952.62,-197.61C955.34,-175.88 962.39,-119.71 966.11,-90.02"/>
<polygon fill="#63b8ff" stroke="#63b8ff" points="969.63,-90.11 967.4,-79.75 962.68,-89.23 969.63,-90.11"/>
</a>
</g>
</g>
<!-- Node20&#45;&gt;Node4 -->
<g id="edge32_Node000020_Node000004" class="edge">
<title>Node20&#45;&gt;Node4</title>
<g id="a_edge32_Node000020_Node000004"><a xlink:title=" ">
<path fill="none" stroke="#63b8ff" d="M884.3,-126.47C878.79,-124.61 872.96,-122.69 867.5,-121 732.23,-79.21 568.92,-36.32 500.79,-18.75"/>
<polygon fill="#63b8ff" stroke="#63b8ff" points="501.25,-15.26 490.69,-16.16 499.51,-22.04 501.25,-15.26"/>
</a>
</g>
</g>
<!-- Node21 -->
<g id="Node000021" class="node">
<title>Node21</title>
<g id="a_Node000021"><a xlink:title=" ">
<polygon fill="#e0e0e0" stroke="#999999" points="871,-79.5 792,-79.5 792,-60.5 871,-60.5 871,-79.5"/>
<text text-anchor="middle" x="831.5" y="-67.5" font-family="Helvetica,sans-Serif" font-size="10.00">fmt/format.h</text>
</a>
</g>
</g>
<!-- Node20&#45;&gt;Node21 -->
<g id="edge33_Node000020_Node000021" class="edge">
<title>Node20&#45;&gt;Node21</title>
<g id="a_edge33_Node000020_Node000021"><a xlink:title=" ">
<path fill="none" stroke="#63b8ff" d="M898.12,-126.37C885.78,-116.12 864.99,-98.84 849.91,-86.31"/>
<polygon fill="#63b8ff" stroke="#63b8ff" points="852.14,-83.61 842.21,-79.91 847.67,-88.99 852.14,-83.61"/>
</a>
</g>
</g>
<!-- Node22 -->
<g id="Node000022" class="node">
<title>Node22</title>
<g id="a_Node000022"><a xlink:href="log__level_8h.html" target="_top" xlink:title=" ">
<polygon fill="white" stroke="#666666" points="934.5,-19 864.5,-19 864.5,0 934.5,0 934.5,-19"/>
<text text-anchor="middle" x="899.5" y="-7" font-family="Helvetica,sans-Serif" font-size="10.00">log_level.h</text>
</a>
</g>
</g>
<!-- Node20&#45;&gt;Node22 -->
<g id="edge34_Node000020_Node000022" class="edge">
<title>Node20&#45;&gt;Node22</title>
<g id="a_edge34_Node000020_Node000022"><a xlink:title=" ">
<path fill="none" stroke="#63b8ff" d="M907.88,-126.44C906.44,-106.54 902.84,-56.76 900.86,-29.35"/>
<polygon fill="#63b8ff" stroke="#63b8ff" points="904.33,-28.84 900.12,-19.12 897.35,-29.34 904.33,-28.84"/>
</a>
</g>
</g>
<!-- Node20&#45;&gt;Node23 -->
<g id="edge35_Node000020_Node000023" class="edge">
<title>Node20&#45;&gt;Node23</title>
<g id="a_edge35_Node000020_Node000023"><a xlink:title=" ">
<path fill="none" stroke="#63b8ff" d="M916.59,-126.37C925.93,-116.4 941.51,-99.79 953.16,-87.36"/>
<polygon fill="#63b8ff" stroke="#63b8ff" points="955.87,-89.59 960.15,-79.91 950.76,-84.81 955.87,-89.59"/>
</a>
</g>
</g>
<!-- Node23&#45;&gt;Node9 -->
<g id="edge36_Node000023_Node000009" class="edge">
<title>Node23&#45;&gt;Node9</title>
<g id="a_edge36_Node000023_Node000009"><a xlink:title=" ">
<path fill="none" stroke="#63b8ff" d="M927.83,-61.77C864.15,-50.45 741.72,-28.68 678.86,-17.5"/>
<polygon fill="#63b8ff" stroke="#63b8ff" points="679.39,-14.04 668.94,-15.73 678.17,-20.93 679.39,-14.04"/>
</a>
</g>
</g>
<!-- Node23&#45;&gt;Node22 -->
<g id="edge38_Node000023_Node000022" class="edge">
<title>Node23&#45;&gt;Node22</title>
<g id="a_edge38_Node000023_Node000022"><a xlink:title=" ">
<path fill="none" stroke="#63b8ff" d="M958.32,-60.37C947.62,-51.3 930.56,-36.84 917.57,-25.82"/>
<polygon fill="#63b8ff" stroke="#63b8ff" points="919.61,-22.96 909.72,-19.17 915.09,-28.3 919.61,-22.96"/>
</a>
</g>
</g>
<!-- Node24 -->
<g id="Node000024" class="node">
<title>Node24</title>
<g id="a_Node000024"><a xlink:title=" ">
<polygon fill="#e0e0e0" stroke="#999999" points="1022,-19 953,-19 953,0 1022,0 1022,-19"/>
<text text-anchor="middle" x="987.5" y="-7" font-family="Helvetica,sans-Serif" font-size="10.00">type_traits</text>
</a>
</g>
</g>
<!-- Node23&#45;&gt;Node24 -->
<g id="edge37_Node000023_Node000024" class="edge">
<title>Node23&#45;&gt;Node24</title>
<g id="a_edge37_Node000023_Node000024"><a xlink:title=" ">
<path fill="none" stroke="#63b8ff" d="M971.3,-60.37C974,-52.07 978.15,-39.28 981.58,-28.72"/>
<polygon fill="#63b8ff" stroke="#63b8ff" points="984.92,-29.76 984.68,-19.17 978.27,-27.6 984.92,-29.76"/>
</a>
</g>
</g>
<!-- Node25&#45;&gt;Node4 -->
<g id="edge42_Node000025_Node000004" class="edge">
<title>Node25&#45;&gt;Node4</title>
<g id="a_edge42_Node000025_Node000004"><a xlink:title=" ">
<path fill="none" stroke="#63b8ff" d="M805.95,-186.92C799.42,-167.4 786.69,-137.95 765.5,-121 719.02,-83.82 692.52,-105.12 636.5,-85 585.34,-66.63 527.86,-39.71 495.14,-23.76"/>
<polygon fill="#63b8ff" stroke="#63b8ff" points="496.33,-20.45 485.81,-19.19 493.25,-26.73 496.33,-20.45"/>
</a>
</g>
</g>
<!-- Node25&#45;&gt;Node14 -->
<g id="edge44_Node000025_Node000014" class="edge">
<title>Node25&#45;&gt;Node14</title>
<g id="a_edge44_Node000025_Node000014"><a xlink:title=" ">
<path fill="none" stroke="#63b8ff" d="M775.5,-186.96C757.62,-177.25 736.1,-165.56 718.38,-155.94"/>
<polygon fill="#63b8ff" stroke="#63b8ff" points="719.95,-152.81 709.49,-151.11 716.61,-158.96 719.95,-152.81"/>
</a>
</g>
</g>
<!-- Node26 -->
<g id="Node000026" class="node">
<title>Node26</title>
<g id="a_Node000026"><a xlink:title=" ">
<polygon fill="#e0e0e0" stroke="#999999" points="858,-145.5 813,-145.5 813,-126.5 858,-126.5 858,-145.5"/>
<text text-anchor="middle" x="835.5" y="-133.5" font-family="Helvetica,sans-Serif" font-size="10.00">utility</text>
</a>
</g>
</g>
<!-- Node25&#45;&gt;Node26 -->
<g id="edge43_Node000025_Node000026" class="edge">
<title>Node25&#45;&gt;Node26</title>
<g id="a_edge43_Node000025_Node000026"><a xlink:title=" ">
<path fill="none" stroke="#63b8ff" d="M818.31,-186.77C821.7,-176.97 825.76,-165.2 829.09,-155.57"/>
<polygon fill="#63b8ff" stroke="#63b8ff" points="832.5,-156.41 832.45,-145.82 825.88,-154.13 832.5,-156.41"/>
</a>
</g>
</g>
</g>
</svg>

<g id="navigator" transform="translate(0 0)" fill="#404254">
  <rect fill="#f2f5e9" fill-opacity="0.5" stroke="#606060" stroke-width=".5" x="0" y="0" width="60" height="60"/>
  <use id="zoomplus" xlink:href="#zoomPlus" x="17" y="9" onmousedown="handleZoom(evt,'in')"/>
  <use id="zoomminus" xlink:href="#zoomMin" x="42" y="9" onmousedown="handleZoom(evt,'out')"/>
  <use id="reset" xlink:href="#resetDef" x="30" y="36" onmousedown="handleReset()"/>
   <use id="arrowup" xlink:href="#arrowUp" x="0" y="0" onmousedown="handlePan(0,-1)"/>
  <use id="arrowright" xlink:href="#arrowRight" x="0" y="0" onmousedown="handlePan(1,0)"/>
  <use id="arrowdown" xlink:href="#arrowDown" x="0" y="0" onmousedown="handlePan(0,1)"/>
  <use id="arrowleft" xlink:href="#arrowLeft" x="0" y="0" onmousedown="handlePan(-1,0)"/>
</g>
<svg viewBox="0 0 15 15" width="100%" height="30px" preserveAspectRatio="xMaxYMin meet">
 <g id="arrow_out" transform="scale(0.3 0.3)">
  <a xlink:href="a__mt__handler__configurer_8h__incl_org.svg" target="_base">
   <rect id="button" ry="5" rx="5" y="6" x="6" height="38" width="38"
        fill="#f2f5e9" fill-opacity="0.5" stroke="#606060" stroke-width="1.0"/>
   <path id="arrow"
     d="M 11.500037,31.436501 C 11.940474,20.09759 22.043105,11.32322 32.158766,21.979434 L 37.068811,17.246167 C 37.068811,17.246167 37.088388,32 37.088388,32 L 22.160133,31.978069 C 22.160133,31.978069 26.997745,27.140456 26.997745,27.140456 C 18.528582,18.264221 13.291696,25.230495 11.500037,31.436501 z"
     style="fill:#404040;"/>
  </a>
 </g>
</svg>

<style type='text/css'>
<![CDATA[
[data-mouse-over-selected='false'] { opacity: 0.7; }
[data-mouse-over-selected='true']  { opacity: 1.0; }
]]>
</style>
<script type="application/ecmascript"><![CDATA[
document.addEventListener('DOMContentLoaded', (event) => {
  highlightEdges();
  highlightAdjacentNodes();
});
]]></script>
</svg>
