<?xml version="1.0" encoding="UTF-8" standalone="no"?>
<!DOCTYPE svg PUBLIC "-//W3C//DTD SVG 1.1//EN"
 "http://www.w3.org/Graphics/SVG/1.1/DTD/svg11.dtd">
<!-- Generated by graphviz version 2.43.0 (0)
 -->
<!-- Title: include/mosaic/security/authenticator_factory.h Pages: 1 -->
<svg width="442pt" height="214pt"
 viewBox="0.00 0.00 441.50 214.00" xmlns="http://www.w3.org/2000/svg" xmlns:xlink="http://www.w3.org/1999/xlink">
<g id="graph0" class="graph" transform="scale(1 1) rotate(0) translate(4 210)">
<title>include/mosaic/security/authenticator_factory.h</title>
<!-- Node1 -->
<g id="Node000001" class="node">
<title>Node1</title>
<g id="a_Node000001"><a xlink:title=" ">
<polygon fill="#999999" stroke="#666666" points="268,-206 136,-206 136,-176 268,-176 268,-206"/>
<text text-anchor="start" x="144" y="-194" font-family="Helvetica,sans-Serif" font-size="10.00">include/mosaic/security</text>
<text text-anchor="middle" x="202" y="-183" font-family="Helvetica,sans-Serif" font-size="10.00">/authenticator_factory.h</text>
</a>
</g>
</g>
<!-- Node2 -->
<g id="Node000002" class="node">
<title>Node2</title>
<g id="a_Node000002"><a xlink:title=" ">
<polygon fill="#e0e0e0" stroke="#999999" points="58,-79.5 0,-79.5 0,-60.5 58,-60.5 58,-79.5"/>
<text text-anchor="middle" x="29" y="-67.5" font-family="Helvetica,sans-Serif" font-size="10.00">memory</text>
</a>
</g>
</g>
<!-- Node1&#45;&gt;Node2 -->
<g id="edge1_Node000001_Node000002" class="edge">
<title>Node1&#45;&gt;Node2</title>
<g id="a_edge1_Node000001_Node000002"><a xlink:title=" ">
<path fill="none" stroke="#63b8ff" d="M178.91,-175.97C163.01,-166.17 141.5,-152.62 123,-140 96.58,-121.98 66.97,-99.92 48.17,-85.67"/>
<polygon fill="#63b8ff" stroke="#63b8ff" points="50.18,-82.81 40.11,-79.54 45.95,-88.38 50.18,-82.81"/>
</a>
</g>
</g>
<!-- Node3 -->
<g id="Node000003" class="node">
<title>Node3</title>
<g id="a_Node000003"><a xlink:href="i__mosaic__authenticator_8h.html" target="_top" xlink:title=" ">
<polygon fill="white" stroke="#666666" points="271.5,-140 132.5,-140 132.5,-121 271.5,-121 271.5,-140"/>
<text text-anchor="middle" x="202" y="-128" font-family="Helvetica,sans-Serif" font-size="10.00">i_mosaic_authenticator.h</text>
</a>
</g>
</g>
<!-- Node1&#45;&gt;Node3 -->
<g id="edge2_Node000001_Node000003" class="edge">
<title>Node1&#45;&gt;Node3</title>
<g id="a_edge2_Node000001_Node000003"><a xlink:title=" ">
<path fill="none" stroke="#63b8ff" d="M202,-175.84C202,-168.21 202,-158.7 202,-150.45"/>
<polygon fill="#63b8ff" stroke="#63b8ff" points="205.5,-150.27 202,-140.27 198.5,-150.27 205.5,-150.27"/>
</a>
</g>
</g>
<!-- Node6 -->
<g id="Node000006" class="node">
<title>Node6</title>
<g id="a_Node000006"><a xlink:href="configs__decl_8h.html" target="_top" xlink:title=" ">
<polygon fill="white" stroke="#666666" points="428,-79.5 304,-79.5 304,-60.5 428,-60.5 428,-79.5"/>
<text text-anchor="middle" x="366" y="-67.5" font-family="Helvetica,sans-Serif" font-size="10.00">mosaic/configs_decl.h</text>
</a>
</g>
</g>
<!-- Node1&#45;&gt;Node6 -->
<g id="edge11_Node000001_Node000006" class="edge">
<title>Node1&#45;&gt;Node6</title>
<g id="a_edge11_Node000001_Node000006"><a xlink:title=" ">
<path fill="none" stroke="#63b8ff" d="M225.29,-175.97C241.02,-166.27 262.1,-152.86 280,-140 304.22,-122.59 330.82,-100.81 347.93,-86.43"/>
<polygon fill="#63b8ff" stroke="#63b8ff" points="350.57,-88.78 355.95,-79.65 346.05,-83.43 350.57,-88.78"/>
</a>
</g>
</g>
<!-- Node3&#45;&gt;Node2 -->
<g id="edge3_Node000003_Node000002" class="edge">
<title>Node3&#45;&gt;Node2</title>
<g id="a_edge3_Node000003_Node000002"><a xlink:title=" ">
<path fill="none" stroke="#63b8ff" d="M175.27,-120.99C147.97,-112.23 104.4,-98.05 67,-85 65.16,-84.36 63.27,-83.69 61.36,-83.01"/>
<polygon fill="#63b8ff" stroke="#63b8ff" points="62.46,-79.68 51.86,-79.57 60.07,-86.26 62.46,-79.68"/>
</a>
</g>
</g>
<!-- Node4 -->
<g id="Node000004" class="node">
<title>Node4</title>
<g id="a_Node000004"><a xlink:href="auth__type_8h.html" target="_top" xlink:title=" ">
<polygon fill="white" stroke="#666666" points="150,-79.5 76,-79.5 76,-60.5 150,-60.5 150,-79.5"/>
<text text-anchor="middle" x="113" y="-67.5" font-family="Helvetica,sans-Serif" font-size="10.00">auth_type.h</text>
</a>
</g>
</g>
<!-- Node3&#45;&gt;Node4 -->
<g id="edge4_Node000003_Node000004" class="edge">
<title>Node3&#45;&gt;Node4</title>
<g id="a_edge4_Node000003_Node000004"><a xlink:title=" ">
<path fill="none" stroke="#63b8ff" d="M188.87,-120.87C174.67,-111.54 151.8,-96.51 134.88,-85.38"/>
<polygon fill="#63b8ff" stroke="#63b8ff" points="136.47,-82.24 126.19,-79.67 132.62,-88.08 136.47,-82.24"/>
</a>
</g>
</g>
<!-- Node3&#45;&gt;Node6 -->
<g id="edge6_Node000003_Node000006" class="edge">
<title>Node3&#45;&gt;Node6</title>
<g id="a_edge6_Node000003_Node000006"><a xlink:title=" ">
<path fill="none" stroke="#63b8ff" d="M225.85,-120.99C253.9,-110.99 300.67,-94.3 332.4,-82.99"/>
<polygon fill="#63b8ff" stroke="#63b8ff" points="333.88,-86.17 342.12,-79.52 331.53,-79.58 333.88,-86.17"/>
</a>
</g>
</g>
<!-- Node9 -->
<g id="Node000009" class="node">
<title>Node9</title>
<g id="a_Node000009"><a xlink:title=" ">
<polygon fill="#e0e0e0" stroke="#999999" points="286,-85 168,-85 168,-55 286,-55 286,-85"/>
<text text-anchor="start" x="176" y="-73" font-family="Helvetica,sans-Serif" font-size="10.00">mosaic/json_forward</text>
<text text-anchor="middle" x="227" y="-62" font-family="Helvetica,sans-Serif" font-size="10.00">_decl.h</text>
</a>
</g>
</g>
<!-- Node3&#45;&gt;Node9 -->
<g id="edge10_Node000003_Node000009" class="edge">
<title>Node3&#45;&gt;Node9</title>
<g id="a_edge10_Node000003_Node000009"><a xlink:title=" ">
<path fill="none" stroke="#63b8ff" d="M205.69,-120.87C208.67,-113.89 213.02,-103.71 217.01,-94.38"/>
<polygon fill="#63b8ff" stroke="#63b8ff" points="220.26,-95.69 220.97,-85.11 213.82,-92.93 220.26,-95.69"/>
</a>
</g>
</g>
<!-- Node5 -->
<g id="Node000005" class="node">
<title>Node5</title>
<g id="a_Node000005"><a xlink:title=" ">
<polygon fill="#e0e0e0" stroke="#999999" points="218,-19 174,-19 174,0 218,0 218,-19"/>
<text text-anchor="middle" x="196" y="-7" font-family="Helvetica,sans-Serif" font-size="10.00">string</text>
</a>
</g>
</g>
<!-- Node4&#45;&gt;Node5 -->
<g id="edge5_Node000004_Node000005" class="edge">
<title>Node4&#45;&gt;Node5</title>
<g id="a_edge5_Node000004_Node000005"><a xlink:title=" ">
<path fill="none" stroke="#63b8ff" d="M125.25,-60.37C138.36,-51.12 159.42,-36.28 175.15,-25.19"/>
<polygon fill="#63b8ff" stroke="#63b8ff" points="177.55,-27.79 183.7,-19.17 173.51,-22.07 177.55,-27.79"/>
</a>
</g>
</g>
<!-- Node6&#45;&gt;Node5 -->
<g id="edge7_Node000006_Node000005" class="edge">
<title>Node6&#45;&gt;Node5</title>
<g id="a_edge7_Node000006_Node000005"><a xlink:title=" ">
<path fill="none" stroke="#63b8ff" d="M341.28,-60.49C311.24,-50.16 260.49,-32.69 227.63,-21.38"/>
<polygon fill="#63b8ff" stroke="#63b8ff" points="228.64,-18.03 218.04,-18.09 226.36,-24.65 228.64,-18.03"/>
</a>
</g>
</g>
<!-- Node7 -->
<g id="Node000007" class="node">
<title>Node7</title>
<g id="a_Node000007"><a xlink:title=" ">
<polygon fill="#e0e0e0" stroke="#999999" points="368.5,-19 275.5,-19 275.5,0 368.5,0 368.5,-19"/>
<text text-anchor="middle" x="322" y="-7" font-family="Helvetica,sans-Serif" font-size="10.00">unordered_map</text>
</a>
</g>
</g>
<!-- Node6&#45;&gt;Node7 -->
<g id="edge8_Node000006_Node000007" class="edge">
<title>Node6&#45;&gt;Node7</title>
<g id="a_edge8_Node000006_Node000007"><a xlink:title=" ">
<path fill="none" stroke="#63b8ff" d="M359.51,-60.37C353.01,-51.73 342.84,-38.2 334.72,-27.42"/>
<polygon fill="#63b8ff" stroke="#63b8ff" points="337.33,-25.06 328.52,-19.17 331.73,-29.26 337.33,-25.06"/>
</a>
</g>
</g>
<!-- Node8 -->
<g id="Node000008" class="node">
<title>Node8</title>
<g id="a_Node000008"><a xlink:title=" ">
<polygon fill="#e0e0e0" stroke="#999999" points="433.5,-19 386.5,-19 386.5,0 433.5,0 433.5,-19"/>
<text text-anchor="middle" x="410" y="-7" font-family="Helvetica,sans-Serif" font-size="10.00">vector</text>
</a>
</g>
</g>
<!-- Node6&#45;&gt;Node8 -->
<g id="edge9_Node000006_Node000008" class="edge">
<title>Node6&#45;&gt;Node8</title>
<g id="a_edge9_Node000006_Node000008"><a xlink:title=" ">
<path fill="none" stroke="#63b8ff" d="M372.49,-60.37C378.99,-51.73 389.16,-38.2 397.28,-27.42"/>
<polygon fill="#63b8ff" stroke="#63b8ff" points="400.27,-29.26 403.48,-19.17 394.67,-25.06 400.27,-29.26"/>
</a>
</g>
</g>
</g>
</svg>
