<?xml version="1.0" encoding="UTF-8" standalone="no"?>
<!DOCTYPE svg PUBLIC "-//W3C//DTD SVG 1.1//EN"
 "http://www.w3.org/Graphics/SVG/1.1/DTD/svg11.dtd">
<!-- Generated by graphviz version 2.43.0 (0)
 -->
<!-- Title: include/mosaic/security/auth_type.hpp Pages: 1 -->
<!--zoomable 610 -->

<svg id="main" version="1.1" xmlns="http://www.w3.org/2000/svg" xmlns:xlink="http://www.w3.org/1999/xlink" xml:space="preserve" onload="init(evt)">
<style type="text/css"><![CDATA[
.node, .edge {opacity: 0.7;}
.node.selected, .edge.selected {opacity: 1;}
.edge:hover path { stroke: red; }
.edge:hover polygon { stroke: red; fill: red; }
]]></style>

<defs>
  <circle id="rim" cx="0" cy="0" r="7"/>
  <circle id="rim2" cx="0" cy="0" r="3.5"/>
  <g id="zoomPlus">
    <use xlink:href="#rim" fill="#404040"><set attributeName="fill" to="#808080" begin="zoomplus.mouseover" end="zoomplus.mouseout"/></use>
    <path d="M-4,0h8M0,-4v8" fill="none" stroke="white" stroke-width="1.5" pointer-events="none"/>
  </g>
  <g id="zoomMin">
    <use xlink:href="#rim" fill="#404040"><set attributeName="fill" to="#808080" begin="zoomminus.mouseover" end="zoomminus.mouseout"/></use>
    <path d="M-4,0h8" fill="none" stroke="white" stroke-width="1.5" pointer-events="none"/>
  </g>
  <g id="arrowUp" transform="translate(30 24)">
    <use xlink:href="#rim"/>
    <path pointer-events="none" fill="none" stroke="white" stroke-width="1.5" d="M0,-3.0v7 M-2.5,-0.5L0,-3.0L2.5,-0.5"/>
  </g>
  <g id="arrowRight" transform="rotate(90) translate(36 -43)">
    <use xlink:href="#rim"/>
    <path pointer-events="none" fill="none" stroke="white" stroke-width="1.5" d="M0,-3.0v7 M-2.5,-0.5L0,-3.0L2.5,-0.5"/>
  </g>
  <g id="arrowDown" transform="rotate(180) translate(-30 -48)">
    <use xlink:href="#rim"/>
    <path pointer-events="none" fill="none" stroke="white" stroke-width="1.5" d="M0,-3.0v7 M-2.5,-0.5L0,-3.0L2.5,-0.5"/>
  </g>
  <g id="arrowLeft" transform="rotate(270) translate(-36 17)">
    <use xlink:href="#rim"/>
    <path pointer-events="none" fill="none" stroke="white" stroke-width="1.5" d="M0,-3.0v7 M-2.5,-0.5L0,-3.0L2.5,-0.5"/>
  </g>
  <g id="resetDef">
    <use xlink:href="#rim2" fill="#404040"><set attributeName="fill" to="#808080" begin="reset.mouseover" end="reset.mouseout"/></use>
  </g>
</defs>
<script type="application/ecmascript">
var viewWidth = 1501;
var viewHeight = 610;
var sectionId = 'dynsection-1';
</script>
<script type="application/ecmascript" xlink:href="svg.min.js"/>
<svg id="graph" class="graph">
<g id="viewport">
<title>include/mosaic/security/auth_type.hpp</title>
<!-- Node1 -->
<g id="Node000001" class="node">
<title>Node1</title>
<g id="a_Node000001"><a xlink:title=" ">
<polygon fill="#999999" stroke="#666666" points="370.5,-602 238.5,-602 238.5,-572 370.5,-572 370.5,-602"/>
<text text-anchor="start" x="246.5" y="-590" font-family="Helvetica,sans-Serif" font-size="10.00">include/mosaic/security</text>
<text text-anchor="middle" x="304.5" y="-579" font-family="Helvetica,sans-Serif" font-size="10.00">/auth_type.hpp</text>
</a>
</g>
</g>
<!-- Node2 -->
<g id="Node000002" class="node">
<title>Node2</title>
<g id="a_Node000002"><a xlink:href="authenticator__resolver_8hpp.html" target="_top" xlink:title=" ">
<polygon fill="white" stroke="#666666" points="337.5,-404 187.5,-404 187.5,-374 337.5,-374 337.5,-404"/>
<text text-anchor="start" x="195.5" y="-392" font-family="Helvetica,sans-Serif" font-size="10.00">include/mosaic/security</text>
<text text-anchor="middle" x="262.5" y="-381" font-family="Helvetica,sans-Serif" font-size="10.00">/authenticator_resolver.hpp</text>
</a>
</g>
</g>
<!-- Node1&#45;&gt;Node2 -->
<g id="edge1_Node000001_Node000002" class="edge">
<title>Node1&#45;&gt;Node2</title>
<g id="a_edge1_Node000001_Node000002"><a xlink:title=" ">
<path fill="none" stroke="#63b8ff" d="M271.73,-566.36C241.88,-546.36 199.76,-512.31 181.5,-470 176.22,-457.76 175,-451.64 181.5,-440 190.6,-423.69 207.45,-412.04 223.43,-404.11"/>
<polygon fill="#63b8ff" stroke="#63b8ff" points="269.89,-569.34 280.18,-571.87 273.72,-563.47 269.89,-569.34"/>
</a>
</g>
</g>
<!-- Node5 -->
<g id="Node000005" class="node">
<title>Node5</title>
<g id="a_Node000005"><a xlink:href="mosaic__authenticator_8hpp.html" target="_top" xlink:title=" ">
<polygon fill="white" stroke="#666666" points="519.5,-536 373.5,-536 373.5,-506 519.5,-506 519.5,-536"/>
<text text-anchor="start" x="381.5" y="-524" font-family="Helvetica,sans-Serif" font-size="10.00">include/mosaic/security</text>
<text text-anchor="middle" x="446.5" y="-513" font-family="Helvetica,sans-Serif" font-size="10.00">/mosaic_authenticator.hpp</text>
</a>
</g>
</g>
<!-- Node1&#45;&gt;Node5 -->
<g id="edge4_Node000001_Node000005" class="edge">
<title>Node1&#45;&gt;Node5</title>
<g id="a_edge4_Node000001_Node000005"><a xlink:title=" ">
<path fill="none" stroke="#63b8ff" d="M344.92,-567.78C367.3,-557.69 394.71,-545.34 415.41,-536.01"/>
<polygon fill="#63b8ff" stroke="#63b8ff" points="343.34,-564.65 335.66,-571.95 346.22,-571.04 343.34,-564.65"/>
</a>
</g>
</g>
<!-- Node3 -->
<g id="Node000003" class="node">
<title>Node3</title>
<g id="a_Node000003"><a xlink:href="mosaic__connector__factory_8cpp.html" target="_top" xlink:title=" ">
<polygon fill="white" stroke="#666666" points="289.5,-184 143.5,-184 143.5,-154 289.5,-154 289.5,-184"/>
<text text-anchor="start" x="151.5" y="-172" font-family="Helvetica,sans-Serif" font-size="10.00">src/core/mosaic_connector</text>
<text text-anchor="middle" x="216.5" y="-161" font-family="Helvetica,sans-Serif" font-size="10.00">_factory.cpp</text>
</a>
</g>
</g>
<!-- Node2&#45;&gt;Node3 -->
<g id="edge2_Node000002_Node000003" class="edge">
<title>Node2&#45;&gt;Node3</title>
<g id="a_edge2_Node000002_Node000003"><a xlink:title=" ">
<path fill="none" stroke="#63b8ff" d="M257.39,-363.76C247.74,-318.06 227.15,-220.47 219.47,-184.07"/>
<polygon fill="#63b8ff" stroke="#63b8ff" points="253.99,-364.63 259.48,-373.7 260.84,-363.19 253.99,-364.63"/>
</a>
</g>
</g>
<!-- Node4 -->
<g id="Node000004" class="node">
<title>Node4</title>
<g id="a_Node000004"><a xlink:href="authenticator__resolver_8cpp.html" target="_top" xlink:title=" ">
<polygon fill="white" stroke="#666666" points="607,-338 466,-338 466,-308 607,-308 607,-338"/>
<text text-anchor="start" x="474" y="-326" font-family="Helvetica,sans-Serif" font-size="10.00">src/security/authenticator</text>
<text text-anchor="middle" x="536.5" y="-315" font-family="Helvetica,sans-Serif" font-size="10.00">_resolver.cpp</text>
</a>
</g>
</g>
<!-- Node2&#45;&gt;Node4 -->
<g id="edge3_Node000002_Node000004" class="edge">
<title>Node2&#45;&gt;Node4</title>
<g id="a_edge3_Node000002_Node000004"><a xlink:title=" ">
<path fill="none" stroke="#63b8ff" d="M332.51,-371.65C377.03,-361.25 434.07,-347.93 476.51,-338.01"/>
<polygon fill="#63b8ff" stroke="#63b8ff" points="331.57,-368.27 322.63,-373.95 333.16,-375.09 331.57,-368.27"/>
</a>
</g>
</g>
<!-- Node5&#45;&gt;Node2 -->
<g id="edge7_Node000005_Node000002" class="edge">
<title>Node5&#45;&gt;Node2</title>
<g id="a_edge7_Node000005_Node000002"><a xlink:title=" ">
<path fill="none" stroke="#63b8ff" d="M419.83,-499.6C408.05,-490.57 394.06,-479.79 381.5,-470 364.53,-456.77 361.13,-452.34 343.5,-440 325.09,-427.11 303.38,-413.81 287.07,-404.16"/>
<polygon fill="#63b8ff" stroke="#63b8ff" points="417.89,-502.53 427.96,-505.84 422.15,-496.98 417.89,-502.53"/>
</a>
</g>
</g>
<!-- Node6 -->
<g id="Node000006" class="node">
<title>Node6</title>
<g id="a_Node000006"><a xlink:href="authenticator__factory_8hpp.html" target="_top" xlink:title=" ">
<polygon fill="white" stroke="#666666" points="334.5,-470 190.5,-470 190.5,-440 334.5,-440 334.5,-470"/>
<text text-anchor="start" x="198.5" y="-458" font-family="Helvetica,sans-Serif" font-size="10.00">include/mosaic/security</text>
<text text-anchor="middle" x="262.5" y="-447" font-family="Helvetica,sans-Serif" font-size="10.00">/authenticator_factory.hpp</text>
</a>
</g>
</g>
<!-- Node5&#45;&gt;Node6 -->
<g id="edge5_Node000005_Node000006" class="edge">
<title>Node5&#45;&gt;Node6</title>
<g id="a_edge5_Node000005_Node000006"><a xlink:title=" ">
<path fill="none" stroke="#63b8ff" d="M396.45,-502.59C367.03,-492.36 330.33,-479.59 302.79,-470.01"/>
<polygon fill="#63b8ff" stroke="#63b8ff" points="395.53,-505.98 406.12,-505.95 397.83,-499.36 395.53,-505.98"/>
</a>
</g>
</g>
<!-- Node7 -->
<g id="Node000007" class="node">
<title>Node7</title>
<g id="a_Node000007"><a xlink:href="no__auth__authenticator_8hpp.html" target="_top" xlink:title=" ">
<polygon fill="white" stroke="#666666" points="694.5,-470 520.5,-470 520.5,-440 694.5,-440 694.5,-470"/>
<text text-anchor="start" x="528.5" y="-458" font-family="Helvetica,sans-Serif" font-size="10.00">include/mosaic/security</text>
<text text-anchor="middle" x="607.5" y="-447" font-family="Helvetica,sans-Serif" font-size="10.00">/impl/no_auth_authenticator.hpp</text>
</a>
</g>
</g>
<!-- Node5&#45;&gt;Node7 -->
<g id="edge8_Node000005_Node000007" class="edge">
<title>Node5&#45;&gt;Node7</title>
<g id="a_edge8_Node000005_Node000007"><a xlink:title=" ">
<path fill="none" stroke="#63b8ff" d="M491.31,-502.19C516.87,-492.02 548.47,-479.47 572.25,-470.01"/>
<polygon fill="#63b8ff" stroke="#63b8ff" points="489.83,-499.01 481.83,-505.95 492.42,-505.51 489.83,-499.01"/>
</a>
</g>
</g>
<!-- Node9 -->
<g id="Node000009" class="node">
<title>Node9</title>
<g id="a_Node000009"><a xlink:href="simple__token__authenticator_8hpp.html" target="_top" xlink:title=" ">
<polygon fill="white" stroke="#666666" points="912.5,-470 712.5,-470 712.5,-440 912.5,-440 912.5,-470"/>
<text text-anchor="start" x="720.5" y="-458" font-family="Helvetica,sans-Serif" font-size="10.00">include/mosaic/security</text>
<text text-anchor="middle" x="812.5" y="-447" font-family="Helvetica,sans-Serif" font-size="10.00">/impl/simple_token_authenticator.hpp</text>
</a>
</g>
</g>
<!-- Node5&#45;&gt;Node9 -->
<g id="edge11_Node000005_Node000009" class="edge">
<title>Node5&#45;&gt;Node9</title>
<g id="a_edge11_Node000005_Node000009"><a xlink:title=" ">
<path fill="none" stroke="#63b8ff" d="M529.62,-505.47C590.3,-494.86 672.1,-480.55 732.13,-470.05"/>
<polygon fill="#63b8ff" stroke="#63b8ff" points="528.93,-502.03 519.69,-507.2 530.14,-508.93 528.93,-502.03"/>
</a>
</g>
</g>
<!-- Node11 -->
<g id="Node000011" class="node">
<title>Node11</title>
<g id="a_Node000011"><a xlink:href="i__signaling__client_8hpp.html" target="_top" xlink:title=" ">
<polygon fill="white" stroke="#666666" points="1068,-470 931,-470 931,-440 1068,-440 1068,-470"/>
<text text-anchor="start" x="939" y="-458" font-family="Helvetica,sans-Serif" font-size="10.00">include/mosaic/signaling</text>
<text text-anchor="middle" x="999.5" y="-447" font-family="Helvetica,sans-Serif" font-size="10.00">/i_signaling_client.hpp</text>
</a>
</g>
</g>
<!-- Node5&#45;&gt;Node11 -->
<g id="edge14_Node000005_Node000011" class="edge">
<title>Node5&#45;&gt;Node11</title>
<g id="a_edge14_Node000005_Node000011"><a xlink:title=" ">
<path fill="none" stroke="#63b8ff" d="M529.65,-513.09C624.66,-504.77 784.67,-489.46 921.5,-470 924.5,-469.57 927.55,-469.12 930.64,-468.64"/>
<polygon fill="#63b8ff" stroke="#63b8ff" points="529.19,-509.62 519.53,-513.97 529.8,-516.59 529.19,-509.62"/>
</a>
</g>
</g>
<!-- Node32 -->
<g id="Node000032" class="node">
<title>Node32</title>
<g id="a_Node000032"><a xlink:href="mosaic__authenticator_8cpp.html" target="_top" xlink:title=" ">
<polygon fill="white" stroke="#666666" points="502,-470 391,-470 391,-440 502,-440 502,-470"/>
<text text-anchor="start" x="399" y="-458" font-family="Helvetica,sans-Serif" font-size="10.00">src/security/mosaic</text>
<text text-anchor="middle" x="446.5" y="-447" font-family="Helvetica,sans-Serif" font-size="10.00">_authenticator.cpp</text>
</a>
</g>
</g>
<!-- Node5&#45;&gt;Node32 -->
<g id="edge52_Node000005_Node000032" class="edge">
<title>Node5&#45;&gt;Node32</title>
<g id="a_edge52_Node000005_Node000032"><a xlink:title=" ">
<path fill="none" stroke="#63b8ff" d="M446.5,-495.54C446.5,-486.96 446.5,-477.61 446.5,-470.16"/>
<polygon fill="#63b8ff" stroke="#63b8ff" points="443,-495.8 446.5,-505.8 450,-495.8 443,-495.8"/>
</a>
</g>
</g>
<!-- Node6&#45;&gt;Node2 -->
<g id="edge6_Node000006_Node000002" class="edge">
<title>Node6&#45;&gt;Node2</title>
<g id="a_edge6_Node000006_Node000002"><a xlink:title=" ">
<path fill="none" stroke="#63b8ff" d="M262.5,-429.54C262.5,-420.96 262.5,-411.61 262.5,-404.16"/>
<polygon fill="#63b8ff" stroke="#63b8ff" points="259,-429.8 262.5,-439.8 266,-429.8 259,-429.8"/>
</a>
</g>
</g>
<!-- Node7&#45;&gt;Node4 -->
<g id="edge9_Node000007_Node000004" class="edge">
<title>Node7&#45;&gt;Node4</title>
<g id="a_edge9_Node000007_Node000004"><a xlink:title=" ">
<path fill="none" stroke="#63b8ff" d="M583.3,-432.69C575.1,-424.42 566.51,-414.43 560.5,-404 548.26,-382.77 541.72,-354.71 538.69,-338.08"/>
<polygon fill="#63b8ff" stroke="#63b8ff" points="581,-435.34 590.63,-439.76 585.86,-430.3 581,-435.34"/>
</a>
</g>
</g>
<!-- Node8 -->
<g id="Node000008" class="node">
<title>Node8</title>
<g id="a_Node000008"><a xlink:href="no__auth__authenticator_8cpp.html" target="_top" xlink:title=" ">
<polygon fill="white" stroke="#666666" points="736.5,-404 602.5,-404 602.5,-374 736.5,-374 736.5,-404"/>
<text text-anchor="start" x="610.5" y="-392" font-family="Helvetica,sans-Serif" font-size="10.00">src/security/impl/no</text>
<text text-anchor="middle" x="669.5" y="-381" font-family="Helvetica,sans-Serif" font-size="10.00">_auth_authenticator.cpp</text>
</a>
</g>
</g>
<!-- Node7&#45;&gt;Node8 -->
<g id="edge10_Node000007_Node000008" class="edge">
<title>Node7&#45;&gt;Node8</title>
<g id="a_edge10_Node000007_Node000008"><a xlink:title=" ">
<path fill="none" stroke="#63b8ff" d="M628.46,-432.37C637.47,-423.06 647.76,-412.44 655.78,-404.16"/>
<polygon fill="#63b8ff" stroke="#63b8ff" points="625.7,-430.18 621.26,-439.8 630.73,-435.05 625.7,-430.18"/>
</a>
</g>
</g>
<!-- Node9&#45;&gt;Node4 -->
<g id="edge12_Node000009_Node000004" class="edge">
<title>Node9&#45;&gt;Node4</title>
<g id="a_edge12_Node000009_Node000004"><a xlink:title=" ">
<path fill="none" stroke="#63b8ff" d="M711.65,-438.11C664.01,-429.19 613.3,-417.21 593.5,-404 568.81,-387.54 551.35,-356.5 542.7,-338.3"/>
<polygon fill="#63b8ff" stroke="#63b8ff" points="711.29,-441.6 721.76,-439.96 712.56,-434.71 711.29,-441.6"/>
</a>
</g>
</g>
<!-- Node10 -->
<g id="Node000010" class="node">
<title>Node10</title>
<g id="a_Node000010"><a xlink:href="simple__token__authenticator_8cpp.html" target="_top" xlink:title=" ">
<polygon fill="white" stroke="#666666" points="894,-404 755,-404 755,-374 894,-374 894,-404"/>
<text text-anchor="start" x="763" y="-392" font-family="Helvetica,sans-Serif" font-size="10.00">src/security/impl/simple</text>
<text text-anchor="middle" x="824.5" y="-381" font-family="Helvetica,sans-Serif" font-size="10.00">_token_authenticator.cpp</text>
</a>
</g>
</g>
<!-- Node9&#45;&gt;Node10 -->
<g id="edge13_Node000009_Node000010" class="edge">
<title>Node9&#45;&gt;Node10</title>
<g id="a_edge13_Node000009_Node000010"><a xlink:title=" ">
<path fill="none" stroke="#63b8ff" d="M817.03,-429.83C818.66,-421.17 820.43,-411.7 821.84,-404.16"/>
<polygon fill="#63b8ff" stroke="#63b8ff" points="813.57,-429.32 815.16,-439.8 820.45,-430.61 813.57,-429.32"/>
</a>
</g>
</g>
<!-- Node11&#45;&gt;Node8 -->
<g id="edge49_Node000011_Node000008" class="edge">
<title>Node11&#45;&gt;Node8</title>
<g id="a_edge49_Node000011_Node000008"><a xlink:title=" ">
<path fill="none" stroke="#63b8ff" d="M920.83,-438.74C864.73,-427.86 790.11,-413.39 736.78,-403.05"/>
<polygon fill="#63b8ff" stroke="#63b8ff" points="920.24,-442.19 930.72,-440.66 921.57,-435.32 920.24,-442.19"/>
</a>
</g>
</g>
<!-- Node11&#45;&gt;Node10 -->
<g id="edge50_Node000011_Node000010" class="edge">
<title>Node11&#45;&gt;Node10</title>
<g id="a_edge50_Node000011_Node000010"><a xlink:title=" ">
<path fill="none" stroke="#63b8ff" d="M951.53,-436.46C923.61,-426.25 888.9,-413.55 862.81,-404.01"/>
<polygon fill="#63b8ff" stroke="#63b8ff" points="950.5,-439.81 961.1,-439.95 952.91,-433.23 950.5,-439.81"/>
</a>
</g>
</g>
<!-- Node12 -->
<g id="Node000012" class="node">
<title>Node12</title>
<g id="a_Node000012"><a xlink:href="connector__state__manager_8hpp.html" target="_top" xlink:title=" ">
<polygon fill="white" stroke="#666666" points="1353,-404 1186,-404 1186,-374 1353,-374 1353,-404"/>
<text text-anchor="start" x="1194" y="-392" font-family="Helvetica,sans-Serif" font-size="10.00">include/mosaic/core</text>
<text text-anchor="middle" x="1269.5" y="-381" font-family="Helvetica,sans-Serif" font-size="10.00">/connector_state_manager.hpp</text>
</a>
</g>
</g>
<!-- Node11&#45;&gt;Node12 -->
<g id="edge15_Node000011_Node000012" class="edge">
<title>Node11&#45;&gt;Node12</title>
<g id="a_edge15_Node000011_Node000012"><a xlink:title=" ">
<path fill="none" stroke="#63b8ff" d="M1068.48,-437.65C1112.35,-427.25 1168.57,-413.93 1210.39,-404.01"/>
<polygon fill="#63b8ff" stroke="#63b8ff" points="1067.68,-434.24 1058.75,-439.95 1069.29,-441.05 1067.68,-434.24"/>
</a>
</g>
</g>
<!-- Node26 -->
<g id="Node000026" class="node">
<title>Node26</title>
<g id="a_Node000026"><a xlink:href="peer__connection__manager_8cpp.html" target="_top" xlink:title=" ">
<polygon fill="white" stroke="#666666" points="1492.5,-184 1354.5,-184 1354.5,-154 1492.5,-154 1492.5,-184"/>
<text text-anchor="start" x="1362.5" y="-172" font-family="Helvetica,sans-Serif" font-size="10.00">src/core/peer_connection</text>
<text text-anchor="middle" x="1423.5" y="-161" font-family="Helvetica,sans-Serif" font-size="10.00">_manager.cpp</text>
</a>
</g>
</g>
<!-- Node11&#45;&gt;Node26 -->
<g id="edge48_Node000011_Node000026" class="edge">
<title>Node11&#45;&gt;Node26</title>
<g id="a_edge48_Node000011_Node000026"><a xlink:title=" ">
<path fill="none" stroke="#63b8ff" d="M1078.45,-450.44C1170.35,-445.03 1315.42,-432.23 1361.5,-404 1431.81,-360.92 1431.87,-313.38 1428.5,-231 1427.84,-214.86 1426.2,-196.38 1424.98,-184.03"/>
<polygon fill="#63b8ff" stroke="#63b8ff" points="1078.14,-446.95 1068.35,-451.01 1078.53,-453.94 1078.14,-446.95"/>
</a>
</g>
</g>
<!-- Node28 -->
<g id="Node000028" class="node">
<title>Node28</title>
<g id="a_Node000028"><a xlink:href="signaling__client_8hpp.html" target="_top" xlink:title=" ">
<polygon fill="white" stroke="#666666" points="469,-266.5 344,-266.5 344,-236.5 469,-236.5 469,-266.5"/>
<text text-anchor="start" x="352" y="-254.5" font-family="Helvetica,sans-Serif" font-size="10.00">src/signaling/signaling</text>
<text text-anchor="middle" x="406.5" y="-243.5" font-family="Helvetica,sans-Serif" font-size="10.00">_client.hpp</text>
</a>
</g>
</g>
<!-- Node11&#45;&gt;Node28 -->
<g id="edge51_Node000011_Node000028" class="edge">
<title>Node11&#45;&gt;Node28</title>
<g id="a_edge51_Node000011_Node000028"><a xlink:title=" ">
<path fill="none" stroke="#63b8ff" d="M975.07,-433.4C947.71,-410.39 906.63,-376.07 902.5,-374 892.58,-369.02 594.69,-297.49 465.41,-266.57"/>
<polygon fill="#63b8ff" stroke="#63b8ff" points="972.82,-436.07 982.73,-439.84 977.33,-430.72 972.82,-436.07"/>
</a>
</g>
</g>
<!-- Node31 -->
<g id="Node000031" class="node">
<title>Node31</title>
<g id="a_Node000031"><a xlink:href="peer__connection__manager_8hpp.html" target="_top" xlink:title=" ">
<polygon fill="white" stroke="#666666" points="1119,-404 950,-404 950,-374 1119,-374 1119,-404"/>
<text text-anchor="start" x="958" y="-392" font-family="Helvetica,sans-Serif" font-size="10.00">include/mosaic/core</text>
<text text-anchor="middle" x="1034.5" y="-381" font-family="Helvetica,sans-Serif" font-size="10.00">/peer_connection_manager.hpp</text>
</a>
</g>
</g>
<!-- Node11&#45;&gt;Node31 -->
<g id="edge45_Node000011_Node000031" class="edge">
<title>Node11&#45;&gt;Node31</title>
<g id="a_edge45_Node000011_Node000031"><a xlink:title=" ">
<path fill="none" stroke="#63b8ff" d="M1012.1,-430.96C1017,-422 1022.45,-412.03 1026.75,-404.16"/>
<polygon fill="#63b8ff" stroke="#63b8ff" points="1009,-429.34 1007.27,-439.8 1015.14,-432.7 1009,-429.34"/>
</a>
</g>
</g>
<!-- Node13 -->
<g id="Node000013" class="node">
<title>Node13</title>
<g id="a_Node000013"><a xlink:href="mosaic__connector_8hpp.html" target="_top" xlink:title=" ">
<polygon fill="white" stroke="#666666" points="1088.5,-338 960.5,-338 960.5,-308 1088.5,-308 1088.5,-338"/>
<text text-anchor="start" x="968.5" y="-326" font-family="Helvetica,sans-Serif" font-size="10.00">include/mosaic/core</text>
<text text-anchor="middle" x="1024.5" y="-315" font-family="Helvetica,sans-Serif" font-size="10.00">/mosaic_connector.hpp</text>
</a>
</g>
</g>
<!-- Node12&#45;&gt;Node13 -->
<g id="edge16_Node000012_Node000013" class="edge">
<title>Node12&#45;&gt;Node13</title>
<g id="a_edge16_Node000012_Node000013"><a xlink:title=" ">
<path fill="none" stroke="#63b8ff" d="M1205.9,-371.39C1166.24,-361.03 1115.77,-347.84 1078.14,-338.01"/>
<polygon fill="#63b8ff" stroke="#63b8ff" points="1205.17,-374.81 1215.73,-373.95 1206.94,-368.04 1205.17,-374.81"/>
</a>
</g>
</g>
<!-- Node12&#45;&gt;Node26 -->
<g id="edge44_Node000012_Node000026" class="edge">
<title>Node12&#45;&gt;Node26</title>
<g id="a_edge44_Node000012_Node000026"><a xlink:title=" ">
<path fill="none" stroke="#63b8ff" d="M1339.55,-370.13C1356.71,-362.72 1373.56,-352.38 1385.5,-338 1423.52,-292.22 1425.39,-216.1 1424.34,-184.47"/>
<polygon fill="#63b8ff" stroke="#63b8ff" points="1338,-366.98 1330.01,-373.95 1340.6,-373.48 1338,-366.98"/>
</a>
</g>
</g>
<!-- Node30 -->
<g id="Node000030" class="node">
<title>Node30</title>
<g id="a_Node000030"><a xlink:href="connector__state__manager_8cpp.html" target="_top" xlink:title=" ">
<polygon fill="white" stroke="#666666" points="1376,-338 1261,-338 1261,-308 1376,-308 1376,-338"/>
<text text-anchor="start" x="1269" y="-326" font-family="Helvetica,sans-Serif" font-size="10.00">src/core/connector</text>
<text text-anchor="middle" x="1318.5" y="-315" font-family="Helvetica,sans-Serif" font-size="10.00">_state_manager.cpp</text>
</a>
</g>
</g>
<!-- Node12&#45;&gt;Node30 -->
<g id="edge43_Node000012_Node000030" class="edge">
<title>Node12&#45;&gt;Node30</title>
<g id="a_edge43_Node000012_Node000030"><a xlink:title=" ">
<path fill="none" stroke="#63b8ff" d="M1286.49,-365.81C1293.51,-356.64 1301.44,-346.28 1307.66,-338.16"/>
<polygon fill="#63b8ff" stroke="#63b8ff" points="1283.67,-363.73 1280.37,-373.8 1289.23,-367.98 1283.67,-363.73"/>
</a>
</g>
</g>
<!-- Node13&#45;&gt;Node3 -->
<g id="edge38_Node000013_Node000003" class="edge">
<title>Node13&#45;&gt;Node3</title>
<g id="a_edge38_Node000013_Node000003"><a xlink:title=" ">
<path fill="none" stroke="#63b8ff" d="M950.04,-310.15C945.46,-309.42 940.92,-308.7 936.5,-308 835.18,-291.94 809.59,-289.47 708.5,-272 662.83,-264.11 343.51,-206.05 298.5,-195 285.64,-191.84 271.81,-187.86 259.24,-184"/>
<polygon fill="#63b8ff" stroke="#63b8ff" points="949.67,-313.63 960.1,-311.75 950.77,-306.72 949.67,-313.63"/>
</a>
</g>
</g>
<!-- Node14 -->
<g id="Node000014" class="node">
<title>Node14</title>
<g id="a_Node000014"><a xlink:href="configurable__connectors_8hpp.html" target="_top" xlink:title=" ">
<polygon fill="white" stroke="#666666" points="877,-272 718,-272 718,-231 877,-231 877,-272"/>
<text text-anchor="start" x="726" y="-260" font-family="Helvetica,sans-Serif" font-size="10.00">include/mosaic/auto</text>
<text text-anchor="start" x="726" y="-249" font-family="Helvetica,sans-Serif" font-size="10.00">_configurer/connector</text>
<text text-anchor="middle" x="797.5" y="-238" font-family="Helvetica,sans-Serif" font-size="10.00">/configurable_connectors.hpp</text>
</a>
</g>
</g>
<!-- Node13&#45;&gt;Node14 -->
<g id="edge17_Node000013_Node000014" class="edge">
<title>Node13&#45;&gt;Node14</title>
<g id="a_edge17_Node000013_Node000014"><a xlink:title=" ">
<path fill="none" stroke="#63b8ff" d="M968.78,-304.94C936.3,-295 895.22,-282.42 861.43,-272.07"/>
<polygon fill="#63b8ff" stroke="#63b8ff" points="967.98,-308.35 978.56,-307.94 970.03,-301.66 967.98,-308.35"/>
</a>
</g>
</g>
<!-- Node16 -->
<g id="Node000016" class="node">
<title>Node16</title>
<g id="a_Node000016"><a xlink:href="auto__configurer_8cpp.html" target="_top" xlink:title=" ">
<polygon fill="white" stroke="#666666" points="949,-30 834,-30 834,0 949,0 949,-30"/>
<text text-anchor="start" x="842" y="-18" font-family="Helvetica,sans-Serif" font-size="10.00">src/auto_configurer</text>
<text text-anchor="middle" x="891.5" y="-7" font-family="Helvetica,sans-Serif" font-size="10.00">/auto_configurer.cpp</text>
</a>
</g>
</g>
<!-- Node13&#45;&gt;Node16 -->
<g id="edge36_Node000013_Node000016" class="edge">
<title>Node13&#45;&gt;Node16</title>
<g id="a_edge36_Node000013_Node000016"><a xlink:title=" ">
<path fill="none" stroke="#63b8ff" d="M1021.51,-297.89C1014.72,-250.31 994.8,-142.3 946.5,-66 937.53,-51.83 923.48,-39.15 911.83,-30.11"/>
<polygon fill="#63b8ff" stroke="#63b8ff" points="1018.05,-298.43 1022.87,-307.87 1024.99,-297.49 1018.05,-298.43"/>
</a>
</g>
</g>
<!-- Node24 -->
<g id="Node000024" class="node">
<title>Node24</title>
<g id="a_Node000024"><a xlink:href="peer__connection__observer_8hpp.html" target="_top" xlink:title=" ">
<polygon fill="white" stroke="#666666" points="1258.5,-266.5 1090.5,-266.5 1090.5,-236.5 1258.5,-236.5 1258.5,-266.5"/>
<text text-anchor="start" x="1098.5" y="-254.5" font-family="Helvetica,sans-Serif" font-size="10.00">include/mosaic/core</text>
<text text-anchor="middle" x="1174.5" y="-243.5" font-family="Helvetica,sans-Serif" font-size="10.00">/peer_connection_observer.hpp</text>
</a>
</g>
</g>
<!-- Node13&#45;&gt;Node24 -->
<g id="edge32_Node000013_Node000024" class="edge">
<title>Node13&#45;&gt;Node24</title>
<g id="a_edge32_Node000013_Node000024"><a xlink:title=" ">
<path fill="none" stroke="#63b8ff" d="M1064.1,-303.65C1089.18,-292.03 1121.13,-277.23 1144.19,-266.54"/>
<polygon fill="#63b8ff" stroke="#63b8ff" points="1062.46,-300.56 1054.85,-307.94 1065.4,-306.91 1062.46,-300.56"/>
</a>
</g>
</g>
<!-- Node25 -->
<g id="Node000025" class="node">
<title>Node25</title>
<g id="a_Node000025"><a xlink:href="mosaic__connector_8cpp.html" target="_top" xlink:title=" ">
<polygon fill="white" stroke="#666666" points="1180.5,-178.5 1014.5,-178.5 1014.5,-159.5 1180.5,-159.5 1180.5,-178.5"/>
<text text-anchor="middle" x="1097.5" y="-166.5" font-family="Helvetica,sans-Serif" font-size="10.00">src/core/mosaic_connector.cpp</text>
</a>
</g>
</g>
<!-- Node13&#45;&gt;Node25 -->
<g id="edge37_Node000013_Node000025" class="edge">
<title>Node13&#45;&gt;Node25</title>
<g id="a_edge37_Node000013_Node000025"><a xlink:title=" ">
<path fill="none" stroke="#63b8ff" d="M1028.02,-297.88C1031.45,-278.95 1037.74,-252.32 1048.5,-231 1059.03,-210.14 1077.53,-189.77 1088.53,-178.66"/>
<polygon fill="#63b8ff" stroke="#63b8ff" points="1024.57,-297.34 1026.37,-307.78 1031.47,-298.5 1024.57,-297.34"/>
</a>
</g>
</g>
<!-- Node27 -->
<g id="Node000027" class="node">
<title>Node27</title>
<g id="a_Node000027"><a xlink:href="peer__connection__observer_8cpp.html" target="_top" xlink:title=" ">
<polygon fill="white" stroke="#666666" points="1336.5,-184 1198.5,-184 1198.5,-154 1336.5,-154 1336.5,-184"/>
<text text-anchor="start" x="1206.5" y="-172" font-family="Helvetica,sans-Serif" font-size="10.00">src/core/peer_connection</text>
<text text-anchor="middle" x="1267.5" y="-161" font-family="Helvetica,sans-Serif" font-size="10.00">_observer.cpp</text>
</a>
</g>
</g>
<!-- Node13&#45;&gt;Node27 -->
<g id="edge39_Node000013_Node000027" class="edge">
<title>Node13&#45;&gt;Node27</title>
<g id="a_edge39_Node000013_Node000027"><a xlink:title=" ">
<path fill="none" stroke="#63b8ff" d="M1036.75,-298.61C1049.58,-274.9 1069.5,-240.39 1081.5,-231 1082.96,-229.85 1169.34,-201.77 1223.86,-184.11"/>
<polygon fill="#63b8ff" stroke="#63b8ff" points="1033.52,-297.24 1031.89,-307.71 1039.69,-300.54 1033.52,-297.24"/>
</a>
</g>
</g>
<!-- Node13&#45;&gt;Node28 -->
<g id="edge40_Node000013_Node000028" class="edge">
<title>Node13&#45;&gt;Node28</title>
<g id="a_edge40_Node000013_Node000028"><a xlink:title=" ">
<path fill="none" stroke="#63b8ff" d="M950.08,-309.87C945.49,-309.22 940.93,-308.58 936.5,-308 847.53,-296.27 589.04,-270.45 469.05,-258.63"/>
<polygon fill="#63b8ff" stroke="#63b8ff" points="949.75,-313.36 960.16,-311.36 950.77,-306.44 949.75,-313.36"/>
</a>
</g>
</g>
<!-- Node15 -->
<g id="Node000015" class="node">
<title>Node15</title>
<g id="a_Node000015"><a xlink:href="auto__configurer_8hpp.html" target="_top" xlink:title=" ">
<polygon fill="white" stroke="#666666" points="920.5,-101.5 750.5,-101.5 750.5,-71.5 920.5,-71.5 920.5,-101.5"/>
<text text-anchor="start" x="758.5" y="-89.5" font-family="Helvetica,sans-Serif" font-size="10.00">include/mosaic/auto</text>
<text text-anchor="middle" x="835.5" y="-78.5" font-family="Helvetica,sans-Serif" font-size="10.00">_configurer/auto_configurer.hpp</text>
</a>
</g>
</g>
<!-- Node14&#45;&gt;Node15 -->
<g id="edge18_Node000014_Node000015" class="edge">
<title>Node14&#45;&gt;Node15</title>
<g id="a_edge18_Node000014_Node000015"><a xlink:title=" ">
<path fill="none" stroke="#63b8ff" d="M805.1,-221C807.22,-212.61 809.49,-203.45 811.5,-195 819.42,-161.7 828,-122.41 832.44,-101.79"/>
<polygon fill="#63b8ff" stroke="#63b8ff" points="801.69,-220.2 802.62,-230.75 808.48,-221.92 801.69,-220.2"/>
</a>
</g>
</g>
<!-- Node14&#45;&gt;Node16 -->
<g id="edge31_Node000014_Node000016" class="edge">
<title>Node14&#45;&gt;Node16</title>
<g id="a_edge31_Node000014_Node000016"><a xlink:title=" ">
<path fill="none" stroke="#63b8ff" d="M833.37,-224.47C865.46,-198.75 910.31,-156.21 929.5,-107 936.12,-90.02 935.32,-83.27 929.5,-66 924.91,-52.36 914.95,-39.49 906.38,-30.23"/>
<polygon fill="#63b8ff" stroke="#63b8ff" points="830.81,-222.02 825.1,-230.95 835.13,-227.53 830.81,-222.02"/>
</a>
</g>
</g>
<!-- Node17 -->
<g id="Node000017" class="node">
<title>Node17</title>
<g id="a_Node000017"><a xlink:href="configurable__connector__factory_8hpp.html" target="_top" xlink:title=" ">
<polygon fill="white" stroke="#666666" points="769,-195 636,-195 636,-143 769,-143 769,-195"/>
<text text-anchor="start" x="644" y="-183" font-family="Helvetica,sans-Serif" font-size="10.00">include/mosaic/auto</text>
<text text-anchor="start" x="644" y="-172" font-family="Helvetica,sans-Serif" font-size="10.00">_configurer/connector</text>
<text text-anchor="start" x="644" y="-161" font-family="Helvetica,sans-Serif" font-size="10.00">/configurable_connector</text>
<text text-anchor="middle" x="702.5" y="-150" font-family="Helvetica,sans-Serif" font-size="10.00">_factory.hpp</text>
</a>
</g>
</g>
<!-- Node14&#45;&gt;Node17 -->
<g id="edge20_Node000014_Node000017" class="edge">
<title>Node14&#45;&gt;Node17</title>
<g id="a_edge20_Node000014_Node000017"><a xlink:title=" ">
<path fill="none" stroke="#63b8ff" d="M766.3,-224.06C755.33,-214.76 743.03,-204.35 732.19,-195.16"/>
<polygon fill="#63b8ff" stroke="#63b8ff" points="764.12,-226.81 774.02,-230.6 768.65,-221.47 764.12,-226.81"/>
</a>
</g>
</g>
<!-- Node18 -->
<g id="Node000018" class="node">
<title>Node18</title>
<g id="a_Node000018"><a xlink:href="connector__resolver_8hpp.html" target="_top" xlink:title=" ">
<polygon fill="white" stroke="#666666" points="732,-107 599,-107 599,-66 732,-66 732,-107"/>
<text text-anchor="start" x="607" y="-95" font-family="Helvetica,sans-Serif" font-size="10.00">include/mosaic/auto</text>
<text text-anchor="start" x="607" y="-84" font-family="Helvetica,sans-Serif" font-size="10.00">_configurer/connector</text>
<text text-anchor="middle" x="665.5" y="-73" font-family="Helvetica,sans-Serif" font-size="10.00">/connector_resolver.hpp</text>
</a>
</g>
</g>
<!-- Node14&#45;&gt;Node18 -->
<g id="edge24_Node000014_Node000018" class="edge">
<title>Node14&#45;&gt;Node18</title>
<g id="a_edge24_Node000014_Node000018"><a xlink:title=" ">
<path fill="none" stroke="#63b8ff" d="M798.87,-220.94C798.45,-197.59 794.38,-165.32 777.5,-143 765.46,-127.07 747.61,-115.43 729.68,-107.04"/>
<polygon fill="#63b8ff" stroke="#63b8ff" points="795.37,-220.96 798.83,-230.97 802.37,-220.98 795.37,-220.96"/>
</a>
</g>
</g>
<!-- Node20 -->
<g id="Node000020" class="node">
<title>Node20</title>
<g id="a_Node000020"><a xlink:href="connection__check__dc__handler_8hpp.html" target="_top" xlink:title=" ">
<polygon fill="white" stroke="#666666" points="617.5,-189.5 465.5,-189.5 465.5,-148.5 617.5,-148.5 617.5,-189.5"/>
<text text-anchor="start" x="473.5" y="-177.5" font-family="Helvetica,sans-Serif" font-size="10.00">include/mosaic/auto</text>
<text text-anchor="start" x="473.5" y="-166.5" font-family="Helvetica,sans-Serif" font-size="10.00">_configurer/impl/connection</text>
<text text-anchor="middle" x="541.5" y="-155.5" font-family="Helvetica,sans-Serif" font-size="10.00">_check_dc_handler.hpp</text>
</a>
</g>
</g>
<!-- Node14&#45;&gt;Node20 -->
<g id="edge25_Node000014_Node000020" class="edge">
<title>Node14&#45;&gt;Node20</title>
<g id="a_edge25_Node000014_Node000020"><a xlink:title=" ">
<path fill="none" stroke="#63b8ff" d="M725.63,-227.9C687.24,-215.83 640.44,-201.11 603.63,-189.54"/>
<polygon fill="#63b8ff" stroke="#63b8ff" points="724.61,-231.25 735.2,-230.91 726.71,-224.57 724.61,-231.25"/>
</a>
</g>
</g>
<!-- Node22 -->
<g id="Node000022" class="node">
<title>Node22</title>
<g id="a_Node000022"><a xlink:href="opencv__camera__mt__handler_8hpp.html" target="_top" xlink:title=" ">
<polygon fill="white" stroke="#666666" points="447.5,-189.5 307.5,-189.5 307.5,-148.5 447.5,-148.5 447.5,-189.5"/>
<text text-anchor="start" x="315.5" y="-177.5" font-family="Helvetica,sans-Serif" font-size="10.00">include/mosaic/auto</text>
<text text-anchor="start" x="315.5" y="-166.5" font-family="Helvetica,sans-Serif" font-size="10.00">_configurer/impl/opencv</text>
<text text-anchor="middle" x="377.5" y="-155.5" font-family="Helvetica,sans-Serif" font-size="10.00">_camera_mt_handler.hpp</text>
</a>
</g>
</g>
<!-- Node14&#45;&gt;Node22 -->
<g id="edge28_Node000014_Node000022" class="edge">
<title>Node14&#45;&gt;Node22</title>
<g id="a_edge28_Node000014_Node000022"><a xlink:title=" ">
<path fill="none" stroke="#63b8ff" d="M707.96,-239.55C638.77,-230.21 540.89,-215.11 456.5,-195 449.78,-193.4 442.81,-191.52 435.91,-189.52"/>
<polygon fill="#63b8ff" stroke="#63b8ff" points="707.58,-243.03 717.96,-240.88 708.51,-236.09 707.58,-243.03"/>
</a>
</g>
</g>
<!-- Node15&#45;&gt;Node16 -->
<g id="edge19_Node000015_Node000016" class="edge">
<title>Node15&#45;&gt;Node16</title>
<g id="a_edge19_Node000015_Node000016"><a xlink:title=" ">
<path fill="none" stroke="#63b8ff" d="M853.2,-63.53C862.03,-52.57 872.45,-39.65 880.18,-30.04"/>
<polygon fill="#63b8ff" stroke="#63b8ff" points="850.38,-61.45 846.83,-71.44 855.83,-65.84 850.38,-61.45"/>
</a>
</g>
</g>
<!-- Node17&#45;&gt;Node18 -->
<g id="edge21_Node000017_Node000018" class="edge">
<title>Node17&#45;&gt;Node18</title>
<g id="a_edge21_Node000017_Node000018"><a xlink:title=" ">
<path fill="none" stroke="#63b8ff" d="M686.75,-133.74C682.58,-124.65 678.21,-115.15 674.53,-107.15"/>
<polygon fill="#63b8ff" stroke="#63b8ff" points="683.64,-135.35 691,-142.97 690,-132.42 683.64,-135.35"/>
</a>
</g>
</g>
<!-- Node18&#45;&gt;Node16 -->
<g id="edge22_Node000018_Node000016" class="edge">
<title>Node18&#45;&gt;Node16</title>
<g id="a_edge22_Node000018_Node000016"><a xlink:title=" ">
<path fill="none" stroke="#63b8ff" d="M738.83,-62.95C774.1,-52.1 815.27,-39.44 845.96,-30"/>
<polygon fill="#63b8ff" stroke="#63b8ff" points="737.58,-59.67 729.06,-65.96 739.64,-66.36 737.58,-59.67"/>
</a>
</g>
</g>
<!-- Node19 -->
<g id="Node000019" class="node">
<title>Node19</title>
<g id="a_Node000019"><a xlink:href="connector__resolver_8cpp.html" target="_top" xlink:title=" ">
<polygon fill="white" stroke="#666666" points="487.5,-30 355.5,-30 355.5,0 487.5,0 487.5,-30"/>
<text text-anchor="start" x="363.5" y="-18" font-family="Helvetica,sans-Serif" font-size="10.00">src/auto_configurer</text>
<text text-anchor="middle" x="421.5" y="-7" font-family="Helvetica,sans-Serif" font-size="10.00">/connector_resolver.cpp</text>
</a>
</g>
</g>
<!-- Node18&#45;&gt;Node19 -->
<g id="edge23_Node000018_Node000019" class="edge">
<title>Node18&#45;&gt;Node19</title>
<g id="a_edge23_Node000018_Node000019"><a xlink:title=" ">
<path fill="none" stroke="#63b8ff" d="M589.16,-63.75C550.48,-52.74 504.64,-39.68 470.68,-30.01"/>
<polygon fill="#63b8ff" stroke="#63b8ff" points="588.25,-67.14 598.83,-66.51 590.17,-60.4 588.25,-67.14"/>
</a>
</g>
</g>
<!-- Node20&#45;&gt;Node19 -->
<g id="edge26_Node000020_Node000019" class="edge">
<title>Node20&#45;&gt;Node19</title>
<g id="a_edge26_Node000020_Node000019"><a xlink:title=" ">
<path fill="none" stroke="#63b8ff" d="M482.99,-143.51C467.06,-134.23 451.25,-122.16 440.5,-107 424.07,-83.83 421.25,-49.5 421.09,-30.32"/>
<polygon fill="#63b8ff" stroke="#63b8ff" points="481.38,-146.61 491.83,-148.37 484.76,-140.48 481.38,-146.61"/>
</a>
</g>
</g>
<!-- Node21 -->
<g id="Node000021" class="node">
<title>Node21</title>
<g id="a_Node000021"><a xlink:href="connection__check__dc__handler_8cpp.html" target="_top" xlink:title=" ">
<polygon fill="white" stroke="#666666" points="581,-107 450,-107 450,-66 581,-66 581,-107"/>
<text text-anchor="start" x="458" y="-95" font-family="Helvetica,sans-Serif" font-size="10.00">src/auto_configurer</text>
<text text-anchor="start" x="458" y="-84" font-family="Helvetica,sans-Serif" font-size="10.00">/impl/connection_check</text>
<text text-anchor="middle" x="515.5" y="-73" font-family="Helvetica,sans-Serif" font-size="10.00">_dc_handler.cpp</text>
</a>
</g>
</g>
<!-- Node20&#45;&gt;Node21 -->
<g id="edge27_Node000020_Node000021" class="edge">
<title>Node20&#45;&gt;Node21</title>
<g id="a_edge27_Node000020_Node000021"><a xlink:title=" ">
<path fill="none" stroke="#63b8ff" d="M531.98,-138.51C528.6,-128.07 524.9,-116.59 521.85,-107.17"/>
<polygon fill="#63b8ff" stroke="#63b8ff" points="528.67,-139.66 535.07,-148.1 535.33,-137.51 528.67,-139.66"/>
</a>
</g>
</g>
<!-- Node22&#45;&gt;Node19 -->
<g id="edge29_Node000022_Node000019" class="edge">
<title>Node22&#45;&gt;Node19</title>
<g id="a_edge29_Node000022_Node000019"><a xlink:title=" ">
<path fill="none" stroke="#63b8ff" d="M303.48,-143.72C287.23,-134.8 272.03,-122.85 262.5,-107 253.11,-91.39 251.72,-80.69 262.5,-66 283.73,-37.07 321.7,-24.44 355.21,-19.1"/>
<polygon fill="#63b8ff" stroke="#63b8ff" points="302.1,-146.95 312.6,-148.38 305.28,-140.71 302.1,-146.95"/>
</a>
</g>
</g>
<!-- Node23 -->
<g id="Node000023" class="node">
<title>Node23</title>
<g id="a_Node000023"><a xlink:href="opencv__camera__mt__handler_8cpp.html" target="_top" xlink:title=" ">
<polygon fill="white" stroke="#666666" points="393.5,-107 271.5,-107 271.5,-66 393.5,-66 393.5,-107"/>
<text text-anchor="start" x="279.5" y="-95" font-family="Helvetica,sans-Serif" font-size="10.00">src/auto_configurer</text>
<text text-anchor="start" x="279.5" y="-84" font-family="Helvetica,sans-Serif" font-size="10.00">/impl/opencv_camera</text>
<text text-anchor="middle" x="332.5" y="-73" font-family="Helvetica,sans-Serif" font-size="10.00">_mt_handler.cpp</text>
</a>
</g>
</g>
<!-- Node22&#45;&gt;Node23 -->
<g id="edge30_Node000022_Node000023" class="edge">
<title>Node22&#45;&gt;Node23</title>
<g id="a_edge30_Node000022_Node000023"><a xlink:title=" ">
<path fill="none" stroke="#63b8ff" d="M361.38,-139.16C355.45,-128.55 348.87,-116.79 343.5,-107.17"/>
<polygon fill="#63b8ff" stroke="#63b8ff" points="358.44,-141.08 366.38,-148.1 364.55,-137.66 358.44,-141.08"/>
</a>
</g>
</g>
<!-- Node24&#45;&gt;Node25 -->
<g id="edge33_Node000024_Node000025" class="edge">
<title>Node24&#45;&gt;Node25</title>
<g id="a_edge33_Node000024_Node000025"><a xlink:title=" ">
<path fill="none" stroke="#63b8ff" d="M1153.86,-228.93C1138.19,-212.54 1117.45,-190.85 1106,-178.88"/>
<polygon fill="#63b8ff" stroke="#63b8ff" points="1151.65,-231.67 1161.09,-236.48 1156.7,-226.83 1151.65,-231.67"/>
</a>
</g>
</g>
<!-- Node24&#45;&gt;Node26 -->
<g id="edge34_Node000024_Node000026" class="edge">
<title>Node24&#45;&gt;Node26</title>
<g id="a_edge34_Node000024_Node000026"><a xlink:title=" ">
<path fill="none" stroke="#63b8ff" d="M1227.53,-233.36C1272.88,-218.7 1337.35,-197.85 1379.79,-184.13"/>
<polygon fill="#63b8ff" stroke="#63b8ff" points="1226.31,-230.07 1217.87,-236.48 1228.46,-236.73 1226.31,-230.07"/>
</a>
</g>
</g>
<!-- Node24&#45;&gt;Node27 -->
<g id="edge35_Node000024_Node000027" class="edge">
<title>Node24&#45;&gt;Node27</title>
<g id="a_edge35_Node000024_Node000027"><a xlink:title=" ">
<path fill="none" stroke="#63b8ff" d="M1198.37,-229.84C1214.93,-215.5 1236.55,-196.79 1251.17,-184.13"/>
<polygon fill="#63b8ff" stroke="#63b8ff" points="1195.97,-227.29 1190.7,-236.48 1200.55,-232.58 1195.97,-227.29"/>
</a>
</g>
</g>
<!-- Node28&#45;&gt;Node3 -->
<g id="edge41_Node000028_Node000003" class="edge">
<title>Node28&#45;&gt;Node3</title>
<g id="a_edge41_Node000028_Node000003"><a xlink:title=" ">
<path fill="none" stroke="#63b8ff" d="M364.06,-232.52C329.58,-217.91 281.62,-197.59 249.85,-184.13"/>
<polygon fill="#63b8ff" stroke="#63b8ff" points="362.83,-235.8 373.4,-236.48 365.56,-229.35 362.83,-235.8"/>
</a>
</g>
</g>
<!-- Node29 -->
<g id="Node000029" class="node">
<title>Node29</title>
<g id="a_Node000029"><a xlink:href="signaling__client_8cpp.html" target="_top" xlink:title=" ">
<polygon fill="white" stroke="#666666" points="125,-184 0,-184 0,-154 125,-154 125,-184"/>
<text text-anchor="start" x="8" y="-172" font-family="Helvetica,sans-Serif" font-size="10.00">src/signaling/signaling</text>
<text text-anchor="middle" x="62.5" y="-161" font-family="Helvetica,sans-Serif" font-size="10.00">_client.cpp</text>
</a>
</g>
</g>
<!-- Node28&#45;&gt;Node29 -->
<g id="edge42_Node000028_Node000029" class="edge">
<title>Node28&#45;&gt;Node29</title>
<g id="a_edge42_Node000028_Node000029"><a xlink:title=" ">
<path fill="none" stroke="#63b8ff" d="M333.8,-238.38C278.65,-228.53 201.23,-213.3 134.5,-195 123.14,-191.88 110.98,-187.91 99.95,-184.06"/>
<polygon fill="#63b8ff" stroke="#63b8ff" points="333.37,-241.86 343.83,-240.15 334.59,-234.97 333.37,-241.86"/>
</a>
</g>
</g>
<!-- Node31&#45;&gt;Node13 -->
<g id="edge46_Node000031_Node000013" class="edge">
<title>Node31&#45;&gt;Node13</title>
<g id="a_edge46_Node000031_Node000013"><a xlink:title=" ">
<path fill="none" stroke="#63b8ff" d="M1030.72,-363.83C1029.37,-355.17 1027.89,-345.7 1026.71,-338.16"/>
<polygon fill="#63b8ff" stroke="#63b8ff" points="1027.28,-364.46 1032.28,-373.8 1034.19,-363.38 1027.28,-364.46"/>
</a>
</g>
</g>
<!-- Node31&#45;&gt;Node26 -->
<g id="edge47_Node000031_Node000026" class="edge">
<title>Node31&#45;&gt;Node26</title>
<g id="a_edge47_Node000031_Node000026"><a xlink:title=" ">
<path fill="none" stroke="#63b8ff" d="M1074.88,-369.66C1121.94,-347.88 1201.67,-309.74 1267.5,-272 1317.75,-243.19 1374,-204.8 1403.29,-184.31"/>
<polygon fill="#63b8ff" stroke="#63b8ff" points="1073.25,-366.56 1065.63,-373.92 1076.18,-372.91 1073.25,-366.56"/>
</a>
</g>
</g>
</g>
</svg>

<g id="navigator" transform="translate(0 0)" fill="#404254">
  <rect fill="#f2f5e9" fill-opacity="0.5" stroke="#606060" stroke-width=".5" x="0" y="0" width="60" height="60"/>
  <use id="zoomplus" xlink:href="#zoomPlus" x="17" y="9" onmousedown="handleZoom(evt,'in')"/>
  <use id="zoomminus" xlink:href="#zoomMin" x="42" y="9" onmousedown="handleZoom(evt,'out')"/>
  <use id="reset" xlink:href="#resetDef" x="30" y="36" onmousedown="handleReset()"/>
   <use id="arrowup" xlink:href="#arrowUp" x="0" y="0" onmousedown="handlePan(0,-1)"/>
  <use id="arrowright" xlink:href="#arrowRight" x="0" y="0" onmousedown="handlePan(1,0)"/>
  <use id="arrowdown" xlink:href="#arrowDown" x="0" y="0" onmousedown="handlePan(0,1)"/>
  <use id="arrowleft" xlink:href="#arrowLeft" x="0" y="0" onmousedown="handlePan(-1,0)"/>
</g>
<svg viewBox="0 0 15 15" width="100%" height="30px" preserveAspectRatio="xMaxYMin meet">
 <g id="arrow_out" transform="scale(0.3 0.3)">
  <a xlink:href="auth__type_8hpp__dep__incl_org.svg" target="_base">
   <rect id="button" ry="5" rx="5" y="6" x="6" height="38" width="38"
        fill="#f2f5e9" fill-opacity="0.5" stroke="#606060" stroke-width="1.0"/>
   <path id="arrow"
     d="M 11.500037,31.436501 C 11.940474,20.09759 22.043105,11.32322 32.158766,21.979434 L 37.068811,17.246167 C 37.068811,17.246167 37.088388,32 37.088388,32 L 22.160133,31.978069 C 22.160133,31.978069 26.997745,27.140456 26.997745,27.140456 C 18.528582,18.264221 13.291696,25.230495 11.500037,31.436501 z"
     style="fill:#404040;"/>
  </a>
 </g>
</svg>

<style type='text/css'>
<![CDATA[
[data-mouse-over-selected='false'] { opacity: 0.7; }
[data-mouse-over-selected='true']  { opacity: 1.0; }
]]>
</style>
<script type="application/ecmascript"><![CDATA[
document.addEventListener('DOMContentLoaded', (event) => {
  highlightEdges();
  highlightAdjacentNodes();
});
]]></script>
</svg>
