<?xml version="1.0" encoding="UTF-8" standalone="no"?>
<!DOCTYPE svg PUBLIC "-//W3C//DTD SVG 1.1//EN"
 "http://www.w3.org/Graphics/SVG/1.1/DTD/svg11.dtd">
<!-- Generated by graphviz version 2.43.0 (0)
 -->
<!-- Title: include/mosaic/security/authenticator_factory.h Pages: 1 -->
<svg width="314pt" height="170pt"
 viewBox="0.00 0.00 313.50 170.00" xmlns="http://www.w3.org/2000/svg" xmlns:xlink="http://www.w3.org/1999/xlink">
<g id="graph0" class="graph" transform="scale(1 1) rotate(0) translate(4 166)">
<title>include/mosaic/security/authenticator_factory.h</title>
<!-- Node1 -->
<g id="Node000001" class="node">
<title>Node1</title>
<g id="a_Node000001"><a xlink:title=" ">
<polygon fill="#999999" stroke="#666666" points="220,-162 88,-162 88,-132 220,-132 220,-162"/>
<text text-anchor="start" x="96" y="-150" font-family="Helvetica,sans-Serif" font-size="10.00">include/mosaic/security</text>
<text text-anchor="middle" x="154" y="-139" font-family="Helvetica,sans-Serif" font-size="10.00">/authenticator_factory.h</text>
</a>
</g>
</g>
<!-- Node2 -->
<g id="Node000002" class="node">
<title>Node2</title>
<g id="a_Node000002"><a xlink:href="authenticator__resolver_8h.html" target="_top" xlink:title=" ">
<polygon fill="white" stroke="#666666" points="223,-96 85,-96 85,-66 223,-66 223,-96"/>
<text text-anchor="start" x="93" y="-84" font-family="Helvetica,sans-Serif" font-size="10.00">include/mosaic/security</text>
<text text-anchor="middle" x="154" y="-73" font-family="Helvetica,sans-Serif" font-size="10.00">/authenticator_resolver.h</text>
</a>
</g>
</g>
<!-- Node1&#45;&gt;Node2 -->
<g id="edge1_Node000001_Node000002" class="edge">
<title>Node1&#45;&gt;Node2</title>
<g id="a_edge1_Node000001_Node000002"><a xlink:title=" ">
<path fill="none" stroke="#63b8ff" d="M154,-121.54C154,-112.96 154,-103.61 154,-96.16"/>
<polygon fill="#63b8ff" stroke="#63b8ff" points="150.5,-121.8 154,-131.8 157.5,-121.8 150.5,-121.8"/>
</a>
</g>
</g>
<!-- Node3 -->
<g id="Node000003" class="node">
<title>Node3</title>
<g id="a_Node000003"><a xlink:href="mosaic__connector__factory_8cpp.html" target="_top" xlink:title=" ">
<polygon fill="white" stroke="#666666" points="146,-30 0,-30 0,0 146,0 146,-30"/>
<text text-anchor="start" x="8" y="-18" font-family="Helvetica,sans-Serif" font-size="10.00">src/core/mosaic_connector</text>
<text text-anchor="middle" x="73" y="-7" font-family="Helvetica,sans-Serif" font-size="10.00">_factory.cpp</text>
</a>
</g>
</g>
<!-- Node2&#45;&gt;Node3 -->
<g id="edge2_Node000002_Node000003" class="edge">
<title>Node2&#45;&gt;Node3</title>
<g id="a_edge2_Node000002_Node000003"><a xlink:title=" ">
<path fill="none" stroke="#63b8ff" d="M128.03,-59.48C115.92,-49.91 101.82,-38.77 90.93,-30.16"/>
<polygon fill="#63b8ff" stroke="#63b8ff" points="126.01,-62.34 136.02,-65.8 130.35,-56.85 126.01,-62.34"/>
</a>
</g>
</g>
<!-- Node4 -->
<g id="Node000004" class="node">
<title>Node4</title>
<g id="a_Node000004"><a xlink:href="authenticator__resolver_8cpp.html" target="_top" xlink:title=" ">
<polygon fill="white" stroke="#666666" points="305.5,-30 164.5,-30 164.5,0 305.5,0 305.5,-30"/>
<text text-anchor="start" x="172.5" y="-18" font-family="Helvetica,sans-Serif" font-size="10.00">src/security/authenticator</text>
<text text-anchor="middle" x="235" y="-7" font-family="Helvetica,sans-Serif" font-size="10.00">_resolver.cpp</text>
</a>
</g>
</g>
<!-- Node2&#45;&gt;Node4 -->
<g id="edge3_Node000002_Node000004" class="edge">
<title>Node2&#45;&gt;Node4</title>
<g id="a_edge3_Node000002_Node000004"><a xlink:title=" ">
<path fill="none" stroke="#63b8ff" d="M179.97,-59.48C192.08,-49.91 206.18,-38.77 217.07,-30.16"/>
<polygon fill="#63b8ff" stroke="#63b8ff" points="177.65,-56.85 171.98,-65.8 181.99,-62.34 177.65,-56.85"/>
</a>
</g>
</g>
</g>
</svg>
