<?xml version="1.0" encoding="UTF-8" standalone="no"?>
<!DOCTYPE svg PUBLIC "-//W3C//DTD SVG 1.1//EN"
 "http://www.w3.org/Graphics/SVG/1.1/DTD/svg11.dtd">
<!-- Generated by graphviz version 2.43.0 (0)
 -->
<!-- Title: src/security/authenticator_resolver.cpp Pages: 1 -->
<svg width="616pt" height="335pt"
 viewBox="0.00 0.00 616.10 335.00" xmlns="http://www.w3.org/2000/svg" xmlns:xlink="http://www.w3.org/1999/xlink">
<g id="graph0" class="graph" transform="scale(1 1) rotate(0) translate(4 331)">
<title>src/security/authenticator_resolver.cpp</title>
<!-- Node1 -->
<g id="Node000001" class="node">
<title>Node1</title>
<g id="a_Node000001"><a xlink:title=" ">
<polygon fill="#999999" stroke="#666666" points="366.6,-327 225.6,-327 225.6,-297 366.6,-297 366.6,-327"/>
<text text-anchor="start" x="233.6" y="-315" font-family="Helvetica,sans-Serif" font-size="10.00">src/security/authenticator</text>
<text text-anchor="middle" x="296.1" y="-304" font-family="Helvetica,sans-Serif" font-size="10.00">_resolver.cpp</text>
</a>
</g>
</g>
<!-- Node2 -->
<g id="Node000002" class="node">
<title>Node2</title>
<g id="a_Node000002"><a xlink:href="authenticator__resolver_8hpp.html" target="_top" xlink:title=" ">
<polygon fill="white" stroke="#666666" points="377.1,-261 215.1,-261 215.1,-231 377.1,-231 377.1,-261"/>
<text text-anchor="start" x="223.1" y="-249" font-family="Helvetica,sans-Serif" font-size="10.00">mosaic/security/authenticator</text>
<text text-anchor="middle" x="296.1" y="-238" font-family="Helvetica,sans-Serif" font-size="10.00">_resolver.hpp</text>
</a>
</g>
</g>
<!-- Node1&#45;&gt;Node2 -->
<g id="edge1_Node000001_Node000002" class="edge">
<title>Node1&#45;&gt;Node2</title>
<g id="a_edge1_Node000001_Node000002"><a xlink:title=" ">
<path fill="none" stroke="#63b8ff" d="M296.1,-296.8C296.1,-289.34 296.1,-279.99 296.1,-271.41"/>
<polygon fill="#63b8ff" stroke="#63b8ff" points="299.6,-271.16 296.1,-261.16 292.6,-271.16 299.6,-271.16"/>
</a>
</g>
</g>
<!-- Node13 -->
<g id="Node000013" class="node">
<title>Node13</title>
<g id="a_Node000013"><a xlink:href="no__auth__authenticator_8hpp.html" target="_top" xlink:title=" ">
<polygon fill="white" stroke="#666666" points="172.6,-195 23.6,-195 23.6,-165 172.6,-165 172.6,-195"/>
<text text-anchor="start" x="31.6" y="-183" font-family="Helvetica,sans-Serif" font-size="10.00">mosaic/security/impl</text>
<text text-anchor="middle" x="98.1" y="-172" font-family="Helvetica,sans-Serif" font-size="10.00">/no_auth_authenticator.hpp</text>
</a>
</g>
</g>
<!-- Node1&#45;&gt;Node13 -->
<g id="edge20_Node000001_Node000013" class="edge">
<title>Node1&#45;&gt;Node13</title>
<g id="a_edge20_Node000001_Node000013"><a xlink:title=" ">
<path fill="none" stroke="#63b8ff" d="M268.39,-296.81C250.31,-287.26 226.39,-274.07 206.1,-261 176.84,-242.15 145,-218.1 123.53,-201.31"/>
<polygon fill="#63b8ff" stroke="#63b8ff" points="125.58,-198.47 115.56,-195.04 121.26,-203.97 125.58,-198.47"/>
</a>
</g>
</g>
<!-- Node14 -->
<g id="Node000014" class="node">
<title>Node14</title>
<g id="a_Node000014"><a xlink:href="simple__token__authenticator_8hpp.html" target="_top" xlink:title=" ">
<polygon fill="white" stroke="#666666" points="571.1,-261 395.1,-261 395.1,-231 571.1,-231 571.1,-261"/>
<text text-anchor="start" x="403.1" y="-249" font-family="Helvetica,sans-Serif" font-size="10.00">mosaic/security/impl</text>
<text text-anchor="middle" x="483.1" y="-238" font-family="Helvetica,sans-Serif" font-size="10.00">/simple_token_authenticator.hpp</text>
</a>
</g>
</g>
<!-- Node1&#45;&gt;Node14 -->
<g id="edge23_Node000001_Node000014" class="edge">
<title>Node1&#45;&gt;Node14</title>
<g id="a_edge23_Node000001_Node000014"><a xlink:title=" ">
<path fill="none" stroke="#63b8ff" d="M337.14,-296.95C365.15,-287.37 402.46,-274.6 432.34,-264.37"/>
<polygon fill="#63b8ff" stroke="#63b8ff" points="433.83,-267.56 442.16,-261.01 431.57,-260.94 433.83,-267.56"/>
</a>
</g>
</g>
<!-- Node3 -->
<g id="Node000003" class="node">
<title>Node3</title>
<g id="a_Node000003"><a xlink:title=" ">
<polygon fill="#e0e0e0" stroke="#999999" points="228.1,-74 170.1,-74 170.1,-55 228.1,-55 228.1,-74"/>
<text text-anchor="middle" x="199.1" y="-62" font-family="Helvetica,sans-Serif" font-size="10.00">memory</text>
</a>
</g>
</g>
<!-- Node2&#45;&gt;Node3 -->
<g id="edge2_Node000002_Node000003" class="edge">
<title>Node2&#45;&gt;Node3</title>
<g id="a_edge2_Node000002_Node000003"><a xlink:title=" ">
<path fill="none" stroke="#63b8ff" d="M262.01,-230.84C246.48,-222.65 229.32,-210.79 219.1,-195 197.04,-160.89 196.03,-111.35 197.43,-84.51"/>
<polygon fill="#63b8ff" stroke="#63b8ff" points="200.95,-84.43 198.15,-74.21 193.96,-83.94 200.95,-84.43"/>
</a>
</g>
</g>
<!-- Node4 -->
<g id="Node000004" class="node">
<title>Node4</title>
<g id="a_Node000004"><a xlink:title=" ">
<polygon fill="#e0e0e0" stroke="#999999" points="151.6,-19 58.6,-19 58.6,0 151.6,0 151.6,-19"/>
<text text-anchor="middle" x="105.1" y="-7" font-family="Helvetica,sans-Serif" font-size="10.00">unordered_map</text>
</a>
</g>
</g>
<!-- Node2&#45;&gt;Node4 -->
<g id="edge3_Node000002_Node000004" class="edge">
<title>Node2&#45;&gt;Node4</title>
<g id="a_edge3_Node000002_Node000004"><a xlink:title=" ">
<path fill="none" stroke="#63b8ff" d="M214.86,-241.86C140.84,-237.09 39.34,-225.1 14.1,-195 -31.54,-140.55 48.72,-59.3 86.76,-25.79"/>
<polygon fill="#63b8ff" stroke="#63b8ff" points="89.31,-28.22 94.6,-19.04 84.74,-22.92 89.31,-28.22"/>
</a>
</g>
</g>
<!-- Node5 -->
<g id="Node000005" class="node">
<title>Node5</title>
<g id="a_Node000005"><a xlink:href="configs__decl_8hpp.html" target="_top" xlink:title=" ">
<polygon fill="white" stroke="#666666" points="353.6,-74 246.6,-74 246.6,-55 353.6,-55 353.6,-74"/>
<text text-anchor="middle" x="300.1" y="-62" font-family="Helvetica,sans-Serif" font-size="10.00">../configs_decl.hpp</text>
</a>
</g>
</g>
<!-- Node2&#45;&gt;Node5 -->
<g id="edge4_Node000002_Node000005" class="edge">
<title>Node2&#45;&gt;Node5</title>
<g id="a_edge4_Node000002_Node000005"><a xlink:title=" ">
<path fill="none" stroke="#63b8ff" d="M336.55,-230.91C352.79,-223.02 369.84,-211.4 379.1,-195 385.66,-183.39 383.49,-177.59 379.1,-165 372.57,-146.27 336.21,-104.72 315.16,-81.68"/>
<polygon fill="#63b8ff" stroke="#63b8ff" points="317.54,-79.09 308.19,-74.11 312.39,-83.83 317.54,-79.09"/>
</a>
</g>
</g>
<!-- Node8 -->
<g id="Node000008" class="node">
<title>Node8</title>
<g id="a_Node000008"><a xlink:href="auth__type_8hpp.html" target="_top" xlink:title=" ">
<polygon fill="white" stroke="#666666" points="608.1,-74 522.1,-74 522.1,-55 608.1,-55 608.1,-74"/>
<text text-anchor="middle" x="565.1" y="-62" font-family="Helvetica,sans-Serif" font-size="10.00">auth_type.hpp</text>
</a>
</g>
</g>
<!-- Node2&#45;&gt;Node8 -->
<g id="edge8_Node000002_Node000008" class="edge">
<title>Node2&#45;&gt;Node8</title>
<g id="a_edge8_Node000002_Node000008"><a xlink:title=" ">
<path fill="none" stroke="#63b8ff" d="M345.87,-230.98C372.84,-222.4 406.24,-210.16 434.1,-195 476.74,-171.8 487.53,-164.05 521.1,-129 534.54,-114.97 546.86,-96.49 555.02,-83.08"/>
<polygon fill="#63b8ff" stroke="#63b8ff" points="558.11,-84.75 560.19,-74.36 552.08,-81.18 558.11,-84.75"/>
</a>
</g>
</g>
<!-- Node9 -->
<g id="Node000009" class="node">
<title>Node9</title>
<g id="a_Node000009"><a xlink:href="authenticator__factory_8hpp.html" target="_top" xlink:title=" ">
<polygon fill="white" stroke="#666666" points="369.6,-189.5 228.6,-189.5 228.6,-170.5 369.6,-170.5 369.6,-189.5"/>
<text text-anchor="middle" x="299.1" y="-177.5" font-family="Helvetica,sans-Serif" font-size="10.00">authenticator_factory.hpp</text>
</a>
</g>
</g>
<!-- Node2&#45;&gt;Node9 -->
<g id="edge10_Node000002_Node000009" class="edge">
<title>Node2&#45;&gt;Node9</title>
<g id="a_edge10_Node000002_Node000009"><a xlink:title=" ">
<path fill="none" stroke="#63b8ff" d="M296.77,-230.8C297.2,-221.7 297.76,-209.79 298.22,-199.9"/>
<polygon fill="#63b8ff" stroke="#63b8ff" points="301.72,-200 298.69,-189.84 294.73,-199.67 301.72,-200"/>
</a>
</g>
</g>
<!-- Node10 -->
<g id="Node000010" class="node">
<title>Node10</title>
<g id="a_Node000010"><a xlink:href="mosaic__authenticator_8hpp.html" target="_top" xlink:title=" ">
<polygon fill="white" stroke="#666666" points="511.6,-129 368.6,-129 368.6,-110 511.6,-110 511.6,-129"/>
<text text-anchor="middle" x="440.1" y="-117" font-family="Helvetica,sans-Serif" font-size="10.00">mosaic_authenticator.hpp</text>
</a>
</g>
</g>
<!-- Node2&#45;&gt;Node10 -->
<g id="edge19_Node000002_Node000010" class="edge">
<title>Node2&#45;&gt;Node10</title>
<g id="a_edge19_Node000002_Node000010"><a xlink:title=" ">
<path fill="none" stroke="#63b8ff" d="M352.39,-230.95C373.42,-223.29 396.06,-211.82 412.1,-195 426.83,-179.56 433.97,-155.65 437.33,-139.1"/>
<polygon fill="#63b8ff" stroke="#63b8ff" points="440.82,-139.47 439.09,-129.01 433.92,-138.26 440.82,-139.47"/>
</a>
</g>
</g>
<!-- Node5&#45;&gt;Node4 -->
<g id="edge6_Node000005_Node000004" class="edge">
<title>Node5&#45;&gt;Node4</title>
<g id="a_edge6_Node000005_Node000004"><a xlink:title=" ">
<path fill="none" stroke="#63b8ff" d="M268.77,-54.98C235.61,-45.97 183.11,-31.7 146.54,-21.76"/>
<polygon fill="#63b8ff" stroke="#63b8ff" points="147.25,-18.33 136.68,-19.08 145.41,-25.08 147.25,-18.33"/>
</a>
</g>
</g>
<!-- Node6 -->
<g id="Node000006" class="node">
<title>Node6</title>
<g id="a_Node000006"><a xlink:title=" ">
<polygon fill="#e0e0e0" stroke="#999999" points="486.1,-19 442.1,-19 442.1,0 486.1,0 486.1,-19"/>
<text text-anchor="middle" x="464.1" y="-7" font-family="Helvetica,sans-Serif" font-size="10.00">string</text>
</a>
</g>
</g>
<!-- Node5&#45;&gt;Node6 -->
<g id="edge5_Node000005_Node000006" class="edge">
<title>Node5&#45;&gt;Node6</title>
<g id="a_edge5_Node000005_Node000006"><a xlink:title=" ">
<path fill="none" stroke="#63b8ff" d="M326.45,-54.98C355.25,-45.68 401.39,-30.77 432.21,-20.81"/>
<polygon fill="#63b8ff" stroke="#63b8ff" points="433.59,-24.04 442.03,-17.63 431.44,-17.38 433.59,-24.04"/>
</a>
</g>
</g>
<!-- Node7 -->
<g id="Node000007" class="node">
<title>Node7</title>
<g id="a_Node000007"><a xlink:title=" ">
<polygon fill="#e0e0e0" stroke="#999999" points="323.6,-19 276.6,-19 276.6,0 323.6,0 323.6,-19"/>
<text text-anchor="middle" x="300.1" y="-7" font-family="Helvetica,sans-Serif" font-size="10.00">vector</text>
</a>
</g>
</g>
<!-- Node5&#45;&gt;Node7 -->
<g id="edge7_Node000005_Node000007" class="edge">
<title>Node5&#45;&gt;Node7</title>
<g id="a_edge7_Node000005_Node000007"><a xlink:title=" ">
<path fill="none" stroke="#63b8ff" d="M300.1,-54.75C300.1,-47.8 300.1,-37.85 300.1,-29.13"/>
<polygon fill="#63b8ff" stroke="#63b8ff" points="303.6,-29.09 300.1,-19.09 296.6,-29.09 303.6,-29.09"/>
</a>
</g>
</g>
<!-- Node8&#45;&gt;Node6 -->
<g id="edge9_Node000008_Node000006" class="edge">
<title>Node8&#45;&gt;Node6</title>
<g id="a_edge9_Node000008_Node000006"><a xlink:title=" ">
<path fill="none" stroke="#63b8ff" d="M548.88,-54.98C532.92,-46.61 508.33,-33.7 489.73,-23.95"/>
<polygon fill="#63b8ff" stroke="#63b8ff" points="491.11,-20.72 480.63,-19.17 487.86,-26.92 491.11,-20.72"/>
</a>
</g>
</g>
<!-- Node9&#45;&gt;Node3 -->
<g id="edge11_Node000009_Node000003" class="edge">
<title>Node9&#45;&gt;Node3</title>
<g id="a_edge11_Node000009_Node000003"><a xlink:title=" ">
<path fill="none" stroke="#63b8ff" d="M291.59,-170.47C275.01,-151.65 235.07,-106.32 213.5,-81.84"/>
<polygon fill="#63b8ff" stroke="#63b8ff" points="215.95,-79.32 206.71,-74.13 210.69,-83.95 215.95,-79.32"/>
</a>
</g>
</g>
<!-- Node9&#45;&gt;Node5 -->
<g id="edge12_Node000009_Node000005" class="edge">
<title>Node9&#45;&gt;Node5</title>
<g id="a_edge12_Node000009_Node000005"><a xlink:title=" ">
<path fill="none" stroke="#63b8ff" d="M299.18,-170.47C299.34,-152.23 299.72,-109.07 299.94,-84.14"/>
<polygon fill="#63b8ff" stroke="#63b8ff" points="303.44,-84.16 300.03,-74.13 296.44,-84.1 303.44,-84.16"/>
</a>
</g>
</g>
<!-- Node9&#45;&gt;Node10 -->
<g id="edge13_Node000009_Node000010" class="edge">
<title>Node9&#45;&gt;Node10</title>
<g id="a_edge13_Node000009_Node000010"><a xlink:title=" ">
<path fill="none" stroke="#63b8ff" d="M319.61,-170.49C343.42,-160.62 382.9,-144.23 410.14,-132.93"/>
<polygon fill="#63b8ff" stroke="#63b8ff" points="411.68,-136.08 419.58,-129.02 409,-129.62 411.68,-136.08"/>
</a>
</g>
</g>
<!-- Node10&#45;&gt;Node3 -->
<g id="edge14_Node000010_Node000003" class="edge">
<title>Node10&#45;&gt;Node3</title>
<g id="a_edge14_Node000010_Node000003"><a xlink:title=" ">
<path fill="none" stroke="#63b8ff" d="M400.8,-109.94C361.97,-101.46 300.62,-88.05 238.18,-74.23"/>
<polygon fill="#63b8ff" stroke="#63b8ff" points="238.67,-70.75 228.15,-72.01 237.15,-77.59 238.67,-70.75"/>
</a>
</g>
</g>
<!-- Node10&#45;&gt;Node5 -->
<g id="edge17_Node000010_Node000005" class="edge">
<title>Node10&#45;&gt;Node5</title>
<g id="a_edge17_Node000010_Node000005"><a xlink:title=" ">
<path fill="none" stroke="#63b8ff" d="M417.61,-109.98C394.58,-101.27 358.57,-87.63 332.47,-77.75"/>
<polygon fill="#63b8ff" stroke="#63b8ff" points="333.6,-74.44 323.01,-74.17 331.12,-80.98 333.6,-74.44"/>
</a>
</g>
</g>
<!-- Node10&#45;&gt;Node8 -->
<g id="edge18_Node000010_Node000008" class="edge">
<title>Node10&#45;&gt;Node8</title>
<g id="a_edge18_Node000010_Node000008"><a xlink:title=" ">
<path fill="none" stroke="#63b8ff" d="M460.19,-109.98C480.48,-101.38 512.06,-87.99 535.28,-78.15"/>
<polygon fill="#63b8ff" stroke="#63b8ff" points="536.82,-81.3 544.66,-74.17 534.08,-74.85 536.82,-81.3"/>
</a>
</g>
</g>
<!-- Node11 -->
<g id="Node000011" class="node">
<title>Node11</title>
<g id="a_Node000011"><a xlink:title=" ">
<polygon fill="#e0e0e0" stroke="#999999" points="416.6,-74 371.6,-74 371.6,-55 416.6,-55 416.6,-74"/>
<text text-anchor="middle" x="394.1" y="-62" font-family="Helvetica,sans-Serif" font-size="10.00">utility</text>
</a>
</g>
</g>
<!-- Node10&#45;&gt;Node11 -->
<g id="edge15_Node000010_Node000011" class="edge">
<title>Node10&#45;&gt;Node11</title>
<g id="a_edge15_Node000010_Node000011"><a xlink:title=" ">
<path fill="none" stroke="#63b8ff" d="M432.51,-109.75C425.94,-102.18 416.28,-91.05 408.29,-81.84"/>
<polygon fill="#63b8ff" stroke="#63b8ff" points="410.76,-79.35 401.56,-74.09 405.47,-83.94 410.76,-79.35"/>
</a>
</g>
</g>
<!-- Node12 -->
<g id="Node000012" class="node">
<title>Node12</title>
<g id="a_Node000012"><a xlink:title=" ">
<polygon fill="#e0e0e0" stroke="#999999" points="503.6,-74 434.6,-74 434.6,-55 503.6,-55 503.6,-74"/>
<text text-anchor="middle" x="469.1" y="-62" font-family="Helvetica,sans-Serif" font-size="10.00">json/json.h</text>
</a>
</g>
</g>
<!-- Node10&#45;&gt;Node12 -->
<g id="edge16_Node000010_Node000012" class="edge">
<title>Node10&#45;&gt;Node12</title>
<g id="a_edge16_Node000010_Node000012"><a xlink:title=" ">
<path fill="none" stroke="#63b8ff" d="M444.89,-109.75C448.86,-102.49 454.63,-91.95 459.54,-82.98"/>
<polygon fill="#63b8ff" stroke="#63b8ff" points="462.68,-84.54 464.41,-74.09 456.53,-81.18 462.68,-84.54"/>
</a>
</g>
</g>
<!-- Node13&#45;&gt;Node3 -->
<g id="edge21_Node000013_Node000003" class="edge">
<title>Node13&#45;&gt;Node3</title>
<g id="a_edge21_Node000013_Node000003"><a xlink:title=" ">
<path fill="none" stroke="#63b8ff" d="M110.9,-164.63C129.72,-143.47 164.8,-104.05 184.57,-81.83"/>
<polygon fill="#63b8ff" stroke="#63b8ff" points="187.3,-84.03 191.34,-74.23 182.07,-79.37 187.3,-84.03"/>
</a>
</g>
</g>
<!-- Node13&#45;&gt;Node10 -->
<g id="edge22_Node000013_Node000010" class="edge">
<title>Node13&#45;&gt;Node10</title>
<g id="a_edge22_Node000013_Node000010"><a xlink:title=" ">
<path fill="none" stroke="#63b8ff" d="M172.74,-166.23C234.94,-155.59 322.41,-140.63 380.13,-130.76"/>
<polygon fill="#63b8ff" stroke="#63b8ff" points="380.93,-134.17 390.2,-129.04 379.75,-127.27 380.93,-134.17"/>
</a>
</g>
</g>
<!-- Node14&#45;&gt;Node10 -->
<g id="edge24_Node000014_Node000010" class="edge">
<title>Node14&#45;&gt;Node10</title>
<g id="a_edge24_Node000014_Node000010"><a xlink:title=" ">
<path fill="none" stroke="#63b8ff" d="M478.17,-230.72C470.33,-208.02 455.03,-163.72 446.41,-138.75"/>
<polygon fill="#63b8ff" stroke="#63b8ff" points="449.64,-137.38 443.06,-129.07 443.02,-139.66 449.64,-137.38"/>
</a>
</g>
</g>
</g>
</svg>
