<?xml version="1.0" encoding="UTF-8" standalone="no"?>
<!DOCTYPE svg PUBLIC "-//W3C//DTD SVG 1.1//EN"
 "http://www.w3.org/Graphics/SVG/1.1/DTD/svg11.dtd">
<!-- Generated by graphviz version 2.43.0 (0)
 -->
<!-- Title: include/mosaic/security/auth_type.h Pages: 1 -->
<!--zoomable 632 -->

<svg id="main" version="1.1" xmlns="http://www.w3.org/2000/svg" xmlns:xlink="http://www.w3.org/1999/xlink" xml:space="preserve" onload="init(evt)">
<style type="text/css"><![CDATA[
.node, .edge {opacity: 0.7;}
.node.selected, .edge.selected {opacity: 1;}
.edge:hover path { stroke: red; }
.edge:hover polygon { stroke: red; fill: red; }
]]></style>

<defs>
  <circle id="rim" cx="0" cy="0" r="7"/>
  <circle id="rim2" cx="0" cy="0" r="3.5"/>
  <g id="zoomPlus">
    <use xlink:href="#rim" fill="#404040"><set attributeName="fill" to="#808080" begin="zoomplus.mouseover" end="zoomplus.mouseout"/></use>
    <path d="M-4,0h8M0,-4v8" fill="none" stroke="white" stroke-width="1.5" pointer-events="none"/>
  </g>
  <g id="zoomMin">
    <use xlink:href="#rim" fill="#404040"><set attributeName="fill" to="#808080" begin="zoomminus.mouseover" end="zoomminus.mouseout"/></use>
    <path d="M-4,0h8" fill="none" stroke="white" stroke-width="1.5" pointer-events="none"/>
  </g>
  <g id="arrowUp" transform="translate(30 24)">
    <use xlink:href="#rim"/>
    <path pointer-events="none" fill="none" stroke="white" stroke-width="1.5" d="M0,-3.0v7 M-2.5,-0.5L0,-3.0L2.5,-0.5"/>
  </g>
  <g id="arrowRight" transform="rotate(90) translate(36 -43)">
    <use xlink:href="#rim"/>
    <path pointer-events="none" fill="none" stroke="white" stroke-width="1.5" d="M0,-3.0v7 M-2.5,-0.5L0,-3.0L2.5,-0.5"/>
  </g>
  <g id="arrowDown" transform="rotate(180) translate(-30 -48)">
    <use xlink:href="#rim"/>
    <path pointer-events="none" fill="none" stroke="white" stroke-width="1.5" d="M0,-3.0v7 M-2.5,-0.5L0,-3.0L2.5,-0.5"/>
  </g>
  <g id="arrowLeft" transform="rotate(270) translate(-36 17)">
    <use xlink:href="#rim"/>
    <path pointer-events="none" fill="none" stroke="white" stroke-width="1.5" d="M0,-3.0v7 M-2.5,-0.5L0,-3.0L2.5,-0.5"/>
  </g>
  <g id="resetDef">
    <use xlink:href="#rim2" fill="#404040"><set attributeName="fill" to="#808080" begin="reset.mouseover" end="reset.mouseout"/></use>
  </g>
</defs>
<script type="application/ecmascript">
var viewWidth = 1564;
var viewHeight = 632;
var sectionId = 'dynsection-1';
</script>
<script type="application/ecmascript" xlink:href="svg.min.js"/>
<svg id="graph" class="graph">
<g id="viewport">
<title>include/mosaic/security/auth_type.h</title>
<!-- Node1 -->
<g id="Node000001" class="node">
<title>Node1</title>
<g id="a_Node000001"><a xlink:title=" ">
<polygon fill="#999999" stroke="#666666" points="201,-624 69,-624 69,-594 201,-594 201,-624"/>
<text text-anchor="start" x="77" y="-612" font-family="Helvetica,sans-Serif" font-size="10.00">include/mosaic/security</text>
<text text-anchor="middle" x="135" y="-601" font-family="Helvetica,sans-Serif" font-size="10.00">/auth_type.h</text>
</a>
</g>
</g>
<!-- Node2 -->
<g id="Node000002" class="node">
<title>Node2</title>
<g id="a_Node000002"><a xlink:href="authenticator__resolver_8h.html" target="_top" xlink:title=" ">
<polygon fill="white" stroke="#666666" points="138,-426 0,-426 0,-396 138,-396 138,-426"/>
<text text-anchor="start" x="8" y="-414" font-family="Helvetica,sans-Serif" font-size="10.00">include/mosaic/security</text>
<text text-anchor="middle" x="69" y="-403" font-family="Helvetica,sans-Serif" font-size="10.00">/authenticator_resolver.h</text>
</a>
</g>
</g>
<!-- Node1&#45;&gt;Node2 -->
<g id="edge1_Node000001_Node000002" class="edge">
<title>Node1&#45;&gt;Node2</title>
<g id="a_edge1_Node000001_Node000002"><a xlink:title=" ">
<path fill="none" stroke="#63b8ff" d="M127.06,-584.42C113.21,-543.29 85.04,-459.63 73.79,-426.23"/>
<polygon fill="#63b8ff" stroke="#63b8ff" points="123.75,-585.54 130.25,-593.9 130.38,-583.31 123.75,-585.54"/>
</a>
</g>
</g>
<!-- Node5 -->
<g id="Node000005" class="node">
<title>Node5</title>
<g id="a_Node000005"><a xlink:href="i__mosaic__authenticator_8h.html" target="_top" xlink:title=" ">
<polygon fill="white" stroke="#666666" points="272,-558 130,-558 130,-528 272,-528 272,-558"/>
<text text-anchor="start" x="138" y="-546" font-family="Helvetica,sans-Serif" font-size="10.00">include/mosaic/security</text>
<text text-anchor="middle" x="201" y="-535" font-family="Helvetica,sans-Serif" font-size="10.00">/i_mosaic_authenticator.h</text>
</a>
</g>
</g>
<!-- Node1&#45;&gt;Node5 -->
<g id="edge4_Node000001_Node000005" class="edge">
<title>Node1&#45;&gt;Node5</title>
<g id="a_edge4_Node000001_Node000005"><a xlink:title=" ">
<path fill="none" stroke="#63b8ff" d="M157.02,-586.65C166.69,-577.27 177.77,-566.53 186.39,-558.16"/>
<polygon fill="#63b8ff" stroke="#63b8ff" points="154.39,-584.32 149.65,-593.8 159.26,-589.35 154.39,-584.32"/>
</a>
</g>
</g>
<!-- Node3 -->
<g id="Node000003" class="node">
<title>Node3</title>
<g id="a_Node000003"><a xlink:href="mosaic__connector__factory_8cpp.html" target="_top" xlink:title=" ">
<polygon fill="white" stroke="#666666" points="151,-206 5,-206 5,-176 151,-176 151,-206"/>
<text text-anchor="start" x="13" y="-194" font-family="Helvetica,sans-Serif" font-size="10.00">src/core/mosaic_connector</text>
<text text-anchor="middle" x="78" y="-183" font-family="Helvetica,sans-Serif" font-size="10.00">_factory.cpp</text>
</a>
</g>
</g>
<!-- Node2&#45;&gt;Node3 -->
<g id="edge2_Node000002_Node000003" class="edge">
<title>Node2&#45;&gt;Node3</title>
<g id="a_edge2_Node000002_Node000003"><a xlink:title=" ">
<path fill="none" stroke="#63b8ff" d="M70.01,-385.47C71.9,-339.65 75.92,-242.4 77.42,-206.07"/>
<polygon fill="#63b8ff" stroke="#63b8ff" points="66.51,-385.56 69.59,-395.7 73.5,-385.85 66.51,-385.56"/>
</a>
</g>
</g>
<!-- Node4 -->
<g id="Node000004" class="node">
<title>Node4</title>
<g id="a_Node000004"><a xlink:href="authenticator__resolver_8cpp.html" target="_top" xlink:title=" ">
<polygon fill="white" stroke="#666666" points="320.5,-360 179.5,-360 179.5,-330 320.5,-330 320.5,-360"/>
<text text-anchor="start" x="187.5" y="-348" font-family="Helvetica,sans-Serif" font-size="10.00">src/security/authenticator</text>
<text text-anchor="middle" x="250" y="-337" font-family="Helvetica,sans-Serif" font-size="10.00">_resolver.cpp</text>
</a>
</g>
</g>
<!-- Node2&#45;&gt;Node4 -->
<g id="edge3_Node000002_Node000004" class="edge">
<title>Node2&#45;&gt;Node4</title>
<g id="a_edge3_Node000002_Node000004"><a xlink:title=" ">
<path fill="none" stroke="#63b8ff" d="M118.24,-392.59C147.18,-382.36 183.28,-369.59 210.37,-360.01"/>
<polygon fill="#63b8ff" stroke="#63b8ff" points="116.98,-389.32 108.72,-395.95 119.32,-395.92 116.98,-389.32"/>
</a>
</g>
</g>
<!-- Node5&#45;&gt;Node2 -->
<g id="edge15_Node000005_Node000002" class="edge">
<title>Node5&#45;&gt;Node2</title>
<g id="a_edge15_Node000005_Node000002"><a xlink:title=" ">
<path fill="none" stroke="#63b8ff" d="M166.44,-522.66C153,-514.23 137.98,-503.62 126,-492 105.18,-471.82 86.88,-443.16 76.93,-426.19"/>
<polygon fill="#63b8ff" stroke="#63b8ff" points="164.63,-525.66 174.99,-527.88 168.28,-519.68 164.63,-525.66"/>
</a>
</g>
</g>
<!-- Node6 -->
<g id="Node000006" class="node">
<title>Node6</title>
<g id="a_Node000006"><a xlink:href="a__mosaic__authenticator_8h.html" target="_top" xlink:title=" ">
<polygon fill="white" stroke="#666666" points="463.5,-492 318.5,-492 318.5,-462 463.5,-462 463.5,-492"/>
<text text-anchor="start" x="326.5" y="-480" font-family="Helvetica,sans-Serif" font-size="10.00">include/mosaic/security</text>
<text text-anchor="middle" x="391" y="-469" font-family="Helvetica,sans-Serif" font-size="10.00">/a_mosaic_authenticator.h</text>
</a>
</g>
</g>
<!-- Node5&#45;&gt;Node6 -->
<g id="edge5_Node000005_Node000006" class="edge">
<title>Node5&#45;&gt;Node6</title>
<g id="a_edge5_Node000005_Node000006"><a xlink:title=" ">
<path fill="none" stroke="#63b8ff" d="M252.29,-524.72C282.73,-514.47 320.84,-501.63 349.4,-492.01"/>
<polygon fill="#63b8ff" stroke="#63b8ff" points="251.06,-521.45 242.7,-527.95 253.29,-528.08 251.06,-521.45"/>
</a>
</g>
</g>
<!-- Node12 -->
<g id="Node000012" class="node">
<title>Node12</title>
<g id="a_Node000012"><a xlink:href="authenticator__factory_8h.html" target="_top" xlink:title=" ">
<polygon fill="white" stroke="#666666" points="267,-492 135,-492 135,-462 267,-462 267,-492"/>
<text text-anchor="start" x="143" y="-480" font-family="Helvetica,sans-Serif" font-size="10.00">include/mosaic/security</text>
<text text-anchor="middle" x="201" y="-469" font-family="Helvetica,sans-Serif" font-size="10.00">/authenticator_factory.h</text>
</a>
</g>
</g>
<!-- Node5&#45;&gt;Node12 -->
<g id="edge13_Node000005_Node000012" class="edge">
<title>Node5&#45;&gt;Node12</title>
<g id="a_edge13_Node000005_Node000012"><a xlink:title=" ">
<path fill="none" stroke="#63b8ff" d="M201,-517.54C201,-508.96 201,-499.61 201,-492.16"/>
<polygon fill="#63b8ff" stroke="#63b8ff" points="197.5,-517.8 201,-527.8 204.5,-517.8 197.5,-517.8"/>
</a>
</g>
</g>
<!-- Node13 -->
<g id="Node000013" class="node">
<title>Node13</title>
<g id="a_Node000013"><a xlink:href="i__signaling__client_8h.html" target="_top" xlink:title=" ">
<polygon fill="white" stroke="#666666" points="836.5,-492 699.5,-492 699.5,-462 836.5,-462 836.5,-492"/>
<text text-anchor="start" x="707.5" y="-480" font-family="Helvetica,sans-Serif" font-size="10.00">include/mosaic/signaling</text>
<text text-anchor="middle" x="768" y="-469" font-family="Helvetica,sans-Serif" font-size="10.00">/i_signaling_client.h</text>
</a>
</g>
</g>
<!-- Node5&#45;&gt;Node13 -->
<g id="edge16_Node000005_Node000013" class="edge">
<title>Node5&#45;&gt;Node13</title>
<g id="a_edge16_Node000005_Node000013"><a xlink:title=" ">
<path fill="none" stroke="#63b8ff" d="M282.47,-532.8C394.55,-520.15 594.33,-497.6 699.27,-485.76"/>
<polygon fill="#63b8ff" stroke="#63b8ff" points="281.78,-529.36 272.24,-533.96 282.57,-536.32 281.78,-529.36"/>
</a>
</g>
</g>
<!-- Node7 -->
<g id="Node000007" class="node">
<title>Node7</title>
<g id="a_Node000007"><a xlink:href="no__auth__authenticator_8h.html" target="_top" xlink:title=" ">
<polygon fill="white" stroke="#666666" points="664,-426 502,-426 502,-396 664,-396 664,-426"/>
<text text-anchor="start" x="510" y="-414" font-family="Helvetica,sans-Serif" font-size="10.00">include/mosaic/security</text>
<text text-anchor="middle" x="583" y="-403" font-family="Helvetica,sans-Serif" font-size="10.00">/impl/no_auth_authenticator.h</text>
</a>
</g>
</g>
<!-- Node6&#45;&gt;Node7 -->
<g id="edge6_Node000006_Node000007" class="edge">
<title>Node6&#45;&gt;Node7</title>
<g id="a_edge6_Node000006_Node000007"><a xlink:title=" ">
<path fill="none" stroke="#63b8ff" d="M442.83,-458.72C473.59,-448.47 512.1,-435.63 540.96,-426.01"/>
<polygon fill="#63b8ff" stroke="#63b8ff" points="441.52,-455.47 433.14,-461.95 443.73,-462.11 441.52,-455.47"/>
</a>
</g>
</g>
<!-- Node9 -->
<g id="Node000009" class="node">
<title>Node9</title>
<g id="a_Node000009"><a xlink:href="simple__token__authenticator_8h.html" target="_top" xlink:title=" ">
<polygon fill="white" stroke="#666666" points="344,-426 156,-426 156,-396 344,-396 344,-426"/>
<text text-anchor="start" x="164" y="-414" font-family="Helvetica,sans-Serif" font-size="10.00">include/mosaic/security</text>
<text text-anchor="middle" x="250" y="-403" font-family="Helvetica,sans-Serif" font-size="10.00">/impl/simple_token_authenticator.h</text>
</a>
</g>
</g>
<!-- Node6&#45;&gt;Node9 -->
<g id="edge9_Node000006_Node000009" class="edge">
<title>Node6&#45;&gt;Node9</title>
<g id="a_edge9_Node000006_Node000009"><a xlink:title=" ">
<path fill="none" stroke="#63b8ff" d="M350.87,-457.78C328.64,-447.69 301.43,-435.34 280.87,-426.01"/>
<polygon fill="#63b8ff" stroke="#63b8ff" points="349.5,-461.01 360.06,-461.95 352.4,-454.63 349.5,-461.01"/>
</a>
</g>
</g>
<!-- Node11 -->
<g id="Node000011" class="node">
<title>Node11</title>
<g id="a_Node000011"><a xlink:href="a__mosaic__authenticator_8cpp.html" target="_top" xlink:title=" ">
<polygon fill="white" stroke="#666666" points="484,-426 362,-426 362,-396 484,-396 484,-426"/>
<text text-anchor="start" x="370" y="-414" font-family="Helvetica,sans-Serif" font-size="10.00">src/security/a_mosaic</text>
<text text-anchor="middle" x="423" y="-403" font-family="Helvetica,sans-Serif" font-size="10.00">_authenticator.cpp</text>
</a>
</g>
</g>
<!-- Node6&#45;&gt;Node11 -->
<g id="edge12_Node000006_Node000011" class="edge">
<title>Node6&#45;&gt;Node11</title>
<g id="a_edge12_Node000006_Node000011"><a xlink:title=" ">
<path fill="none" stroke="#63b8ff" d="M402.66,-452.68C407.1,-443.79 412.03,-433.95 415.92,-426.16"/>
<polygon fill="#63b8ff" stroke="#63b8ff" points="399.44,-451.29 398.1,-461.8 405.7,-454.42 399.44,-451.29"/>
</a>
</g>
</g>
<!-- Node7&#45;&gt;Node4 -->
<g id="edge7_Node000007_Node000004" class="edge">
<title>Node7&#45;&gt;Node4</title>
<g id="a_edge7_Node000007_Node000004"><a xlink:title=" ">
<path fill="none" stroke="#63b8ff" d="M499.82,-394.01C444.64,-383.41 373.02,-369.64 320.62,-359.57"/>
<polygon fill="#63b8ff" stroke="#63b8ff" points="499.44,-397.5 509.92,-395.95 500.76,-390.63 499.44,-397.5"/>
</a>
</g>
</g>
<!-- Node8 -->
<g id="Node000008" class="node">
<title>Node8</title>
<g id="a_Node000008"><a xlink:href="no__auth__authenticator_8cpp.html" target="_top" xlink:title=" ">
<polygon fill="white" stroke="#666666" points="693,-360 559,-360 559,-330 693,-330 693,-360"/>
<text text-anchor="start" x="567" y="-348" font-family="Helvetica,sans-Serif" font-size="10.00">src/security/impl/no</text>
<text text-anchor="middle" x="626" y="-337" font-family="Helvetica,sans-Serif" font-size="10.00">_auth_authenticator.cpp</text>
</a>
</g>
</g>
<!-- Node7&#45;&gt;Node8 -->
<g id="edge8_Node000007_Node000008" class="edge">
<title>Node7&#45;&gt;Node8</title>
<g id="a_edge8_Node000007_Node000008"><a xlink:title=" ">
<path fill="none" stroke="#63b8ff" d="M598.29,-387.24C604.36,-378.21 611.14,-368.11 616.48,-360.16"/>
<polygon fill="#63b8ff" stroke="#63b8ff" points="595.21,-385.54 592.54,-395.8 601.03,-389.45 595.21,-385.54"/>
</a>
</g>
</g>
<!-- Node9&#45;&gt;Node4 -->
<g id="edge10_Node000009_Node000004" class="edge">
<title>Node9&#45;&gt;Node4</title>
<g id="a_edge10_Node000009_Node000004"><a xlink:title=" ">
<path fill="none" stroke="#63b8ff" d="M250,-385.54C250,-376.96 250,-367.61 250,-360.16"/>
<polygon fill="#63b8ff" stroke="#63b8ff" points="246.5,-385.8 250,-395.8 253.5,-385.8 246.5,-385.8"/>
</a>
</g>
</g>
<!-- Node10 -->
<g id="Node000010" class="node">
<title>Node10</title>
<g id="a_Node000010"><a xlink:href="simple__token__authenticator_8cpp.html" target="_top" xlink:title=" ">
<polygon fill="white" stroke="#666666" points="530.5,-360 391.5,-360 391.5,-330 530.5,-330 530.5,-360"/>
<text text-anchor="start" x="399.5" y="-348" font-family="Helvetica,sans-Serif" font-size="10.00">src/security/impl/simple</text>
<text text-anchor="middle" x="461" y="-337" font-family="Helvetica,sans-Serif" font-size="10.00">_token_authenticator.cpp</text>
</a>
</g>
</g>
<!-- Node9&#45;&gt;Node10 -->
<g id="edge11_Node000009_Node000010" class="edge">
<title>Node9&#45;&gt;Node10</title>
<g id="a_edge11_Node000009_Node000010"><a xlink:title=" ">
<path fill="none" stroke="#63b8ff" d="M306.08,-392.99C340.03,-382.69 382.81,-369.72 414.8,-360.01"/>
<polygon fill="#63b8ff" stroke="#63b8ff" points="304.86,-389.7 296.3,-395.95 306.89,-396.4 304.86,-389.7"/>
</a>
</g>
</g>
<!-- Node12&#45;&gt;Node2 -->
<g id="edge14_Node000012_Node000002" class="edge">
<title>Node12&#45;&gt;Node2</title>
<g id="a_edge14_Node000012_Node000002"><a xlink:title=" ">
<path fill="none" stroke="#63b8ff" d="M162.87,-457.51C142.16,-447.47 116.97,-435.26 97.9,-426.01"/>
<polygon fill="#63b8ff" stroke="#63b8ff" points="161.51,-460.74 172.03,-461.95 164.56,-454.44 161.51,-460.74"/>
</a>
</g>
</g>
<!-- Node13&#45;&gt;Node8 -->
<g id="edge57_Node000013_Node000008" class="edge">
<title>Node13&#45;&gt;Node8</title>
<g id="a_edge57_Node000013_Node000008"><a xlink:title=" ">
<path fill="none" stroke="#63b8ff" d="M753.43,-453C741.91,-435.98 724.7,-412.9 706,-396 690.21,-381.72 669.82,-369.05 653.58,-360.04"/>
<polygon fill="#63b8ff" stroke="#63b8ff" points="750.78,-455.35 759.21,-461.76 756.62,-451.49 750.78,-455.35"/>
</a>
</g>
</g>
<!-- Node13&#45;&gt;Node10 -->
<g id="edge58_Node000013_Node000010" class="edge">
<title>Node13&#45;&gt;Node10</title>
<g id="a_edge58_Node000013_Node000010"><a xlink:title=" ">
<path fill="none" stroke="#63b8ff" d="M741.77,-455.41C730.62,-446.51 717.55,-435.89 706,-426 690.95,-413.11 690.54,-405.24 673,-396 648.49,-383.09 582.61,-368.58 530.73,-358.53"/>
<polygon fill="#63b8ff" stroke="#63b8ff" points="739.86,-458.36 749.86,-461.84 744.21,-452.88 739.86,-458.36"/>
</a>
</g>
</g>
<!-- Node14 -->
<g id="Node000014" class="node">
<title>Node14</title>
<g id="a_Node000014"><a xlink:href="connector__state__manager_8h.html" target="_top" xlink:title=" ">
<polygon fill="white" stroke="#666666" points="1024.5,-426 869.5,-426 869.5,-396 1024.5,-396 1024.5,-426"/>
<text text-anchor="start" x="877.5" y="-414" font-family="Helvetica,sans-Serif" font-size="10.00">include/mosaic/core</text>
<text text-anchor="middle" x="947" y="-403" font-family="Helvetica,sans-Serif" font-size="10.00">/connector_state_manager.h</text>
</a>
</g>
</g>
<!-- Node13&#45;&gt;Node14 -->
<g id="edge17_Node000013_Node000014" class="edge">
<title>Node13&#45;&gt;Node14</title>
<g id="a_edge17_Node000013_Node000014"><a xlink:title=" ">
<path fill="none" stroke="#63b8ff" d="M817.07,-458.46C845.62,-448.25 881.13,-435.55 907.81,-426.01"/>
<polygon fill="#63b8ff" stroke="#63b8ff" points="815.52,-455.29 807.28,-461.95 817.88,-461.88 815.52,-455.29"/>
</a>
</g>
</g>
<!-- Node29 -->
<g id="Node000029" class="node">
<title>Node29</title>
<g id="a_Node000029"><a xlink:href="peer__connection__manager_8h.html" target="_top" xlink:title=" ">
<polygon fill="white" stroke="#666666" points="1118.5,-288.5 961.5,-288.5 961.5,-258.5 1118.5,-258.5 1118.5,-288.5"/>
<text text-anchor="start" x="969.5" y="-276.5" font-family="Helvetica,sans-Serif" font-size="10.00">include/mosaic/core</text>
<text text-anchor="middle" x="1040" y="-265.5" font-family="Helvetica,sans-Serif" font-size="10.00">/peer_connection_manager.h</text>
</a>
</g>
</g>
<!-- Node13&#45;&gt;Node29 -->
<g id="edge54_Node000013_Node000029" class="edge">
<title>Node13&#45;&gt;Node29</title>
<g id="a_edge54_Node000013_Node000029"><a xlink:title=" ">
<path fill="none" stroke="#63b8ff" d="M776.88,-452.01C790.08,-419.61 817.94,-362.23 860,-330 889.2,-307.62 927.5,-294.2 961.26,-286.17"/>
<polygon fill="#63b8ff" stroke="#63b8ff" points="773.52,-451 773.11,-461.58 780.03,-453.56 773.52,-451"/>
</a>
</g>
</g>
<!-- Node30 -->
<g id="Node000030" class="node">
<title>Node30</title>
<g id="a_Node000030"><a xlink:href="peer__connection__manager_8cpp.html" target="_top" xlink:title=" ">
<polygon fill="white" stroke="#666666" points="1216,-206 1078,-206 1078,-176 1216,-176 1216,-206"/>
<text text-anchor="start" x="1086" y="-194" font-family="Helvetica,sans-Serif" font-size="10.00">src/core/peer_connection</text>
<text text-anchor="middle" x="1147" y="-183" font-family="Helvetica,sans-Serif" font-size="10.00">_manager.cpp</text>
</a>
</g>
</g>
<!-- Node13&#45;&gt;Node30 -->
<g id="edge56_Node000013_Node000030" class="edge">
<title>Node13&#45;&gt;Node30</title>
<g id="a_edge56_Node000013_Node000030"><a xlink:title=" ">
<path fill="none" stroke="#63b8ff" d="M846.91,-469.85C900.96,-463.57 973.37,-450.99 1033,-426 1080.42,-406.13 1101.65,-404.15 1128,-360 1157.79,-310.1 1152.86,-236.89 1149.1,-206.28"/>
<polygon fill="#63b8ff" stroke="#63b8ff" points="846.24,-466.41 836.69,-470.99 847.02,-473.36 846.24,-466.41"/>
</a>
</g>
</g>
<!-- Node34 -->
<g id="Node000034" class="node">
<title>Node34</title>
<g id="a_Node000034"><a xlink:href="signaling__client_8h.html" target="_top" xlink:title=" ">
<polygon fill="white" stroke="#666666" points="300.5,-288.5 163.5,-288.5 163.5,-258.5 300.5,-258.5 300.5,-288.5"/>
<text text-anchor="start" x="171.5" y="-276.5" font-family="Helvetica,sans-Serif" font-size="10.00">include/mosaic/signaling</text>
<text text-anchor="middle" x="232" y="-265.5" font-family="Helvetica,sans-Serif" font-size="10.00">/signaling_client.h</text>
</a>
</g>
</g>
<!-- Node13&#45;&gt;Node34 -->
<g id="edge55_Node000013_Node000034" class="edge">
<title>Node13&#45;&gt;Node34</title>
<g id="a_edge55_Node000013_Node000034"><a xlink:title=" ">
<path fill="none" stroke="#63b8ff" d="M764.76,-451.82C758.84,-418.2 742.87,-358.28 702,-330 629.88,-280.1 395.44,-308.81 309,-294 300.44,-292.53 291.43,-290.61 282.7,-288.54"/>
<polygon fill="#63b8ff" stroke="#63b8ff" points="761.31,-452.42 766.35,-461.74 768.22,-451.31 761.31,-452.42"/>
</a>
</g>
</g>
<!-- Node15 -->
<g id="Node000015" class="node">
<title>Node15</title>
<g id="a_Node000015"><a xlink:href="mosaic__connector_8h.html" target="_top" xlink:title=" ">
<polygon fill="white" stroke="#666666" points="1119,-360 1003,-360 1003,-330 1119,-330 1119,-360"/>
<text text-anchor="start" x="1011" y="-348" font-family="Helvetica,sans-Serif" font-size="10.00">include/mosaic/core</text>
<text text-anchor="middle" x="1061" y="-337" font-family="Helvetica,sans-Serif" font-size="10.00">/mosaic_connector.h</text>
</a>
</g>
</g>
<!-- Node14&#45;&gt;Node15 -->
<g id="edge18_Node000014_Node000015" class="edge">
<title>Node14&#45;&gt;Node15</title>
<g id="a_edge18_Node000014_Node000015"><a xlink:title=" ">
<path fill="none" stroke="#63b8ff" d="M980.9,-390.97C998.6,-381.03 1019.87,-369.09 1036.04,-360.01"/>
<polygon fill="#63b8ff" stroke="#63b8ff" points="979.02,-388.01 972.02,-395.95 982.45,-394.11 979.02,-388.01"/>
</a>
</g>
</g>
<!-- Node14&#45;&gt;Node30 -->
<g id="edge53_Node000014_Node000030" class="edge">
<title>Node14&#45;&gt;Node30</title>
<g id="a_edge53_Node000014_Node000030"><a xlink:title=" ">
<path fill="none" stroke="#63b8ff" d="M894.71,-391.37C881.01,-383.83 867.87,-373.61 860,-360 853.32,-348.46 854.36,-342.08 860,-330 904.52,-234.68 967.61,-248.46 1068,-217 1079.26,-213.47 1091.41,-209.64 1102.72,-206.06"/>
<polygon fill="#63b8ff" stroke="#63b8ff" points="893.25,-394.55 903.75,-395.95 896.41,-388.31 893.25,-394.55"/>
</a>
</g>
</g>
<!-- Node36 -->
<g id="Node000036" class="node">
<title>Node36</title>
<g id="a_Node000036"><a xlink:href="connector__state__manager_8cpp.html" target="_top" xlink:title=" ">
<polygon fill="white" stroke="#666666" points="984.5,-360 869.5,-360 869.5,-330 984.5,-330 984.5,-360"/>
<text text-anchor="start" x="877.5" y="-348" font-family="Helvetica,sans-Serif" font-size="10.00">src/core/connector</text>
<text text-anchor="middle" x="927" y="-337" font-family="Helvetica,sans-Serif" font-size="10.00">_state_manager.cpp</text>
</a>
</g>
</g>
<!-- Node14&#45;&gt;Node36 -->
<g id="edge52_Node000014_Node000036" class="edge">
<title>Node14&#45;&gt;Node36</title>
<g id="a_edge52_Node000014_Node000036"><a xlink:title=" ">
<path fill="none" stroke="#63b8ff" d="M939.53,-386.11C936.81,-377.38 933.81,-367.78 931.43,-360.16"/>
<polygon fill="#63b8ff" stroke="#63b8ff" points="936.24,-387.3 942.56,-395.8 942.92,-385.21 936.24,-387.3"/>
</a>
</g>
</g>
<!-- Node16 -->
<g id="Node000016" class="node">
<title>Node16</title>
<g id="a_Node000016"><a xlink:href="i__configurable__connector_8h.html" target="_top" xlink:title=" ">
<polygon fill="white" stroke="#666666" points="771.5,-294 622.5,-294 622.5,-253 771.5,-253 771.5,-294"/>
<text text-anchor="start" x="630.5" y="-282" font-family="Helvetica,sans-Serif" font-size="10.00">include/mosaic/auto</text>
<text text-anchor="start" x="630.5" y="-271" font-family="Helvetica,sans-Serif" font-size="10.00">_configurer/connector</text>
<text text-anchor="middle" x="697" y="-260" font-family="Helvetica,sans-Serif" font-size="10.00">/i_configurable_connector.h</text>
</a>
</g>
</g>
<!-- Node15&#45;&gt;Node16 -->
<g id="edge19_Node000015_Node000016" class="edge">
<title>Node15&#45;&gt;Node16</title>
<g id="a_edge19_Node000015_Node000016"><a xlink:title=" ">
<path fill="none" stroke="#63b8ff" d="M992.8,-329.98C911.02,-313.95 829.14,-298.69 771.58,-288.11"/>
<polygon fill="#63b8ff" stroke="#63b8ff" points="992.29,-333.45 1002.78,-331.94 993.64,-326.58 992.29,-333.45"/>
</a>
</g>
</g>
<!-- Node28 -->
<g id="Node000028" class="node">
<title>Node28</title>
<g id="a_Node000028"><a xlink:href="mosaic__connector__factory_8h.html" target="_top" xlink:title=" ">
<polygon fill="white" stroke="#666666" points="473.5,-288.5 318.5,-288.5 318.5,-258.5 473.5,-258.5 473.5,-288.5"/>
<text text-anchor="start" x="326.5" y="-276.5" font-family="Helvetica,sans-Serif" font-size="10.00">include/mosaic/core</text>
<text text-anchor="middle" x="396" y="-265.5" font-family="Helvetica,sans-Serif" font-size="10.00">/mosaic_connector_factory.h</text>
</a>
</g>
</g>
<!-- Node15&#45;&gt;Node28 -->
<g id="edge37_Node000015_Node000028" class="edge">
<title>Node15&#45;&gt;Node28</title>
<g id="a_edge37_Node000015_Node000028"><a xlink:title=" ">
<path fill="none" stroke="#63b8ff" d="M992.82,-330.3C926.15,-322.46 619.77,-294.67 473.66,-281.49"/>
<polygon fill="#63b8ff" stroke="#63b8ff" points="992.47,-333.78 1002.84,-331.59 993.37,-326.84 992.47,-333.78"/>
</a>
</g>
</g>
<!-- Node15&#45;&gt;Node29 -->
<g id="edge40_Node000015_Node000029" class="edge">
<title>Node15&#45;&gt;Node29</title>
<g id="a_edge40_Node000015_Node000029"><a xlink:title=" ">
<path fill="none" stroke="#63b8ff" d="M1047.44,-320.4C1043.61,-309.81 1040.24,-297.68 1038.7,-288.54"/>
<polygon fill="#63b8ff" stroke="#63b8ff" points="1044.27,-321.92 1051.2,-329.94 1050.79,-319.35 1044.27,-321.92"/>
</a>
</g>
</g>
<!-- Node31 -->
<g id="Node000031" class="node">
<title>Node31</title>
<g id="a_Node000031"><a xlink:href="peer__connection__observer_8h.html" target="_top" xlink:title=" ">
<polygon fill="white" stroke="#666666" points="1331,-288.5 1175,-288.5 1175,-258.5 1331,-258.5 1331,-288.5"/>
<text text-anchor="start" x="1183" y="-276.5" font-family="Helvetica,sans-Serif" font-size="10.00">include/mosaic/core</text>
<text text-anchor="middle" x="1253" y="-265.5" font-family="Helvetica,sans-Serif" font-size="10.00">/peer_connection_observer.h</text>
</a>
</g>
</g>
<!-- Node15&#45;&gt;Node31 -->
<g id="edge43_Node000015_Node000031" class="edge">
<title>Node15&#45;&gt;Node31</title>
<g id="a_edge43_Node000015_Node000031"><a xlink:title=" ">
<path fill="none" stroke="#63b8ff" d="M1109.58,-326.42C1141.99,-314.68 1184.03,-299.47 1214.2,-288.54"/>
<polygon fill="#63b8ff" stroke="#63b8ff" points="1108.07,-323.24 1099.85,-329.94 1110.45,-329.82 1108.07,-323.24"/>
</a>
</g>
</g>
<!-- Node32 -->
<g id="Node000032" class="node">
<title>Node32</title>
<g id="a_Node000032"><a xlink:href="mosaic__connector_8cpp.html" target="_top" xlink:title=" ">
<polygon fill="white" stroke="#666666" points="1400,-200.5 1234,-200.5 1234,-181.5 1400,-181.5 1400,-200.5"/>
<text text-anchor="middle" x="1317" y="-188.5" font-family="Helvetica,sans-Serif" font-size="10.00">src/core/mosaic_connector.cpp</text>
</a>
</g>
</g>
<!-- Node15&#45;&gt;Node32 -->
<g id="edge50_Node000015_Node000032" class="edge">
<title>Node15&#45;&gt;Node32</title>
<g id="a_edge50_Node000015_Node000032"><a xlink:title=" ">
<path fill="none" stroke="#63b8ff" d="M1129.29,-341.49C1203.07,-337.18 1313.65,-325.49 1340,-294 1363.3,-266.16 1336.15,-219.56 1323.16,-200.51"/>
<polygon fill="#63b8ff" stroke="#63b8ff" points="1128.93,-338.01 1119.13,-342.05 1129.31,-344.99 1128.93,-338.01"/>
</a>
</g>
</g>
<!-- Node33 -->
<g id="Node000033" class="node">
<title>Node33</title>
<g id="a_Node000033"><a xlink:href="peer__connection__observer_8cpp.html" target="_top" xlink:title=" ">
<polygon fill="white" stroke="#666666" points="1556,-206 1418,-206 1418,-176 1556,-176 1556,-206"/>
<text text-anchor="start" x="1426" y="-194" font-family="Helvetica,sans-Serif" font-size="10.00">src/core/peer_connection</text>
<text text-anchor="middle" x="1487" y="-183" font-family="Helvetica,sans-Serif" font-size="10.00">_observer.cpp</text>
</a>
</g>
</g>
<!-- Node15&#45;&gt;Node33 -->
<g id="edge51_Node000015_Node000033" class="edge">
<title>Node15&#45;&gt;Node33</title>
<g id="a_edge51_Node000015_Node000033"><a xlink:title=" ">
<path fill="none" stroke="#63b8ff" d="M1129.31,-342.23C1191.59,-338.41 1284.91,-327.04 1359,-294 1407.01,-272.59 1452.48,-228.85 1474,-206.24"/>
<polygon fill="#63b8ff" stroke="#63b8ff" points="1128.99,-338.75 1119.21,-342.8 1129.39,-345.73 1128.99,-338.75"/>
</a>
</g>
</g>
<!-- Node15&#45;&gt;Node34 -->
<g id="edge47_Node000015_Node000034" class="edge">
<title>Node15&#45;&gt;Node34</title>
<g id="a_edge47_Node000015_Node000034"><a xlink:title=" ">
<path fill="none" stroke="#63b8ff" d="M992.89,-330.16C689.3,-292.23 606.76,-339.09 309,-294 300,-292.64 290.52,-290.68 281.41,-288.53"/>
<polygon fill="#63b8ff" stroke="#63b8ff" points="992.5,-333.64 1002.86,-331.43 993.38,-326.7 992.5,-333.64"/>
</a>
</g>
</g>
<!-- Node17 -->
<g id="Node000017" class="node">
<title>Node17</title>
<g id="a_Node000017"><a xlink:href="auto__configurer_8h.html" target="_top" xlink:title=" ">
<polygon fill="white" stroke="#666666" points="653,-118 495,-118 495,-88 653,-88 653,-118"/>
<text text-anchor="start" x="503" y="-106" font-family="Helvetica,sans-Serif" font-size="10.00">include/mosaic/auto</text>
<text text-anchor="middle" x="574" y="-95" font-family="Helvetica,sans-Serif" font-size="10.00">_configurer/auto_configurer.h</text>
</a>
</g>
</g>
<!-- Node16&#45;&gt;Node17 -->
<g id="edge20_Node000016_Node000017" class="edge">
<title>Node16&#45;&gt;Node17</title>
<g id="a_edge20_Node000016_Node000017"><a xlink:title=" ">
<path fill="none" stroke="#63b8ff" d="M681.45,-243.76C668.93,-221.5 650.28,-190.3 631,-165 618,-147.94 600.98,-130.21 588.93,-118.3"/>
<polygon fill="#63b8ff" stroke="#63b8ff" points="678.51,-245.67 686.43,-252.7 684.63,-242.26 678.51,-245.67"/>
</a>
</g>
</g>
<!-- Node19 -->
<g id="Node000019" class="node">
<title>Node19</title>
<g id="a_Node000019"><a xlink:href="a__dc__handler__configurer_8h.html" target="_top" xlink:title=" ">
<polygon fill="white" stroke="#666666" points="817,-123.5 671,-123.5 671,-82.5 817,-82.5 817,-123.5"/>
<text text-anchor="start" x="679" y="-111.5" font-family="Helvetica,sans-Serif" font-size="10.00">include/mosaic/auto</text>
<text text-anchor="start" x="679" y="-100.5" font-family="Helvetica,sans-Serif" font-size="10.00">_configurer/connector</text>
<text text-anchor="middle" x="744" y="-89.5" font-family="Helvetica,sans-Serif" font-size="10.00">/a_dc_handler_configurer.h</text>
</a>
</g>
</g>
<!-- Node16&#45;&gt;Node19 -->
<g id="edge22_Node000016_Node000019" class="edge">
<title>Node16&#45;&gt;Node19</title>
<g id="a_edge22_Node000016_Node000019"><a xlink:title=" ">
<path fill="none" stroke="#63b8ff" d="M700.64,-242.76C703.76,-220.92 709.04,-190.71 717,-165 721.42,-150.73 728.24,-135.35 733.92,-123.61"/>
<polygon fill="#63b8ff" stroke="#63b8ff" points="697.16,-242.37 699.27,-252.75 704.09,-243.31 697.16,-242.37"/>
</a>
</g>
</g>
<!-- Node20 -->
<g id="Node000020" class="node">
<title>Node20</title>
<g id="a_Node000020"><a xlink:href="a__mt__handler__configurer_8h.html" target="_top" xlink:title=" ">
<polygon fill="white" stroke="#666666" points="1059.5,-211.5 910.5,-211.5 910.5,-170.5 1059.5,-170.5 1059.5,-211.5"/>
<text text-anchor="start" x="918.5" y="-199.5" font-family="Helvetica,sans-Serif" font-size="10.00">include/mosaic/auto</text>
<text text-anchor="start" x="918.5" y="-188.5" font-family="Helvetica,sans-Serif" font-size="10.00">_configurer/connector</text>
<text text-anchor="middle" x="985" y="-177.5" font-family="Helvetica,sans-Serif" font-size="10.00">/a_mt_handler_configurer.h</text>
</a>
</g>
</g>
<!-- Node16&#45;&gt;Node20 -->
<g id="edge24_Node000016_Node000020" class="edge">
<title>Node16&#45;&gt;Node20</title>
<g id="a_edge24_Node000016_Node000020"><a xlink:title=" ">
<path fill="none" stroke="#63b8ff" d="M780.5,-250.26C817.48,-240.29 861.47,-228.26 901,-217 907.15,-215.25 913.54,-213.4 919.93,-211.53"/>
<polygon fill="#63b8ff" stroke="#63b8ff" points="779.51,-246.9 770.77,-252.88 781.33,-253.66 779.51,-246.9"/>
</a>
</g>
</g>
<!-- Node24 -->
<g id="Node000024" class="node">
<title>Node24</title>
<g id="a_Node000024"><a xlink:href="a__parallel__dc__handler__configurer_8h.html" target="_top" xlink:title=" ">
<polygon fill="white" stroke="#666666" points="477,-129 351,-129 351,-77 477,-77 477,-129"/>
<text text-anchor="start" x="359" y="-117" font-family="Helvetica,sans-Serif" font-size="10.00">include/mosaic/auto</text>
<text text-anchor="start" x="359" y="-106" font-family="Helvetica,sans-Serif" font-size="10.00">_configurer/connector</text>
<text text-anchor="start" x="359" y="-95" font-family="Helvetica,sans-Serif" font-size="10.00">/a_parallel_dc_handler</text>
<text text-anchor="middle" x="414" y="-84" font-family="Helvetica,sans-Serif" font-size="10.00">_configurer.h</text>
</a>
</g>
</g>
<!-- Node16&#45;&gt;Node24 -->
<g id="edge29_Node000016_Node000024" class="edge">
<title>Node16&#45;&gt;Node24</title>
<g id="a_edge29_Node000016_Node000024"><a xlink:title=" ">
<path fill="none" stroke="#63b8ff" d="M662.12,-246.39C651.53,-237.64 640.26,-227.44 631,-217 612.68,-196.34 618.94,-181.77 597,-165 555.8,-133.5 535.17,-145.51 486,-129 483.11,-128.03 480.17,-127.03 477.19,-126.02"/>
<polygon fill="#63b8ff" stroke="#63b8ff" points="660.05,-249.22 670.03,-252.77 664.45,-243.77 660.05,-249.22"/>
</a>
</g>
</g>
<!-- Node25 -->
<g id="Node000025" class="node">
<title>Node25</title>
<g id="a_Node000025"><a xlink:href="configurable__connector__factory_8h.html" target="_top" xlink:title=" ">
<polygon fill="white" stroke="#666666" points="892.5,-217 759.5,-217 759.5,-165 892.5,-165 892.5,-217"/>
<text text-anchor="start" x="767.5" y="-205" font-family="Helvetica,sans-Serif" font-size="10.00">include/mosaic/auto</text>
<text text-anchor="start" x="767.5" y="-194" font-family="Helvetica,sans-Serif" font-size="10.00">_configurer/connector</text>
<text text-anchor="start" x="767.5" y="-183" font-family="Helvetica,sans-Serif" font-size="10.00">/configurable_connector</text>
<text text-anchor="middle" x="826" y="-172" font-family="Helvetica,sans-Serif" font-size="10.00">_factory.h</text>
</a>
</g>
</g>
<!-- Node16&#45;&gt;Node25 -->
<g id="edge31_Node000016_Node000025" class="edge">
<title>Node16&#45;&gt;Node25</title>
<g id="a_edge31_Node000016_Node000025"><a xlink:title=" ">
<path fill="none" stroke="#63b8ff" d="M737.31,-247.34C752.66,-237.77 770.13,-226.86 785.49,-217.28"/>
<polygon fill="#63b8ff" stroke="#63b8ff" points="735.19,-244.54 728.56,-252.81 738.89,-250.48 735.19,-244.54"/>
</a>
</g>
</g>
<!-- Node26 -->
<g id="Node000026" class="node">
<title>Node26</title>
<g id="a_Node000026"><a xlink:href="connector__resolver_8h.html" target="_top" xlink:title=" ">
<polygon fill="white" stroke="#666666" points="957,-123.5 835,-123.5 835,-82.5 957,-82.5 957,-123.5"/>
<text text-anchor="start" x="843" y="-111.5" font-family="Helvetica,sans-Serif" font-size="10.00">include/mosaic/auto</text>
<text text-anchor="start" x="843" y="-100.5" font-family="Helvetica,sans-Serif" font-size="10.00">_configurer/connector</text>
<text text-anchor="middle" x="896" y="-89.5" font-family="Helvetica,sans-Serif" font-size="10.00">/connector_resolver.h</text>
</a>
</g>
</g>
<!-- Node16&#45;&gt;Node26 -->
<g id="edge35_Node000016_Node000026" class="edge">
<title>Node16&#45;&gt;Node26</title>
<g id="a_edge35_Node000016_Node000026"><a xlink:title=" ">
<path fill="none" stroke="#63b8ff" d="M708.63,-243.36C720.17,-215.6 737.86,-176.41 750,-165 757.43,-158.02 805.37,-138.61 844.32,-123.54"/>
<polygon fill="#63b8ff" stroke="#63b8ff" points="705.38,-242.06 704.82,-252.64 711.85,-244.71 705.38,-242.06"/>
</a>
</g>
</g>
<!-- Node27 -->
<g id="Node000027" class="node">
<title>Node27</title>
<g id="a_Node000027"><a xlink:href="i__configurable__connector_8cpp.html" target="_top" xlink:title=" ">
<polygon fill="white" stroke="#666666" points="588.5,-206 427.5,-206 427.5,-176 588.5,-176 588.5,-206"/>
<text text-anchor="start" x="435.5" y="-194" font-family="Helvetica,sans-Serif" font-size="10.00">src/auto_configurer</text>
<text text-anchor="middle" x="508" y="-183" font-family="Helvetica,sans-Serif" font-size="10.00">/i_configurable_connector.cpp</text>
</a>
</g>
</g>
<!-- Node16&#45;&gt;Node27 -->
<g id="edge36_Node000016_Node000027" class="edge">
<title>Node16&#45;&gt;Node27</title>
<g id="a_edge36_Node000016_Node000027"><a xlink:title=" ">
<path fill="none" stroke="#63b8ff" d="M641.35,-248.8C608.75,-234.91 568.68,-217.84 541.02,-206.06"/>
<polygon fill="#63b8ff" stroke="#63b8ff" points="640.19,-252.11 650.77,-252.81 642.94,-245.67 640.19,-252.11"/>
</a>
</g>
</g>
<!-- Node18 -->
<g id="Node000018" class="node">
<title>Node18</title>
<g id="a_Node000018"><a xlink:href="auto__configurer_8cpp.html" target="_top" xlink:title=" ">
<polygon fill="white" stroke="#666666" points="716.5,-35.5 601.5,-35.5 601.5,-5.5 716.5,-5.5 716.5,-35.5"/>
<text text-anchor="start" x="609.5" y="-23.5" font-family="Helvetica,sans-Serif" font-size="10.00">src/auto_configurer</text>
<text text-anchor="middle" x="659" y="-12.5" font-family="Helvetica,sans-Serif" font-size="10.00">/auto_configurer.cpp</text>
</a>
</g>
</g>
<!-- Node17&#45;&gt;Node18 -->
<g id="edge21_Node000017_Node000018" class="edge">
<title>Node17&#45;&gt;Node18</title>
<g id="a_edge21_Node000017_Node000018"><a xlink:title=" ">
<path fill="none" stroke="#63b8ff" d="M596.23,-80.95C611.31,-66.66 630.84,-48.17 644.08,-35.63"/>
<polygon fill="#63b8ff" stroke="#63b8ff" points="593.66,-78.56 588.81,-87.98 598.47,-83.64 593.66,-78.56"/>
</a>
</g>
</g>
<!-- Node19&#45;&gt;Node18 -->
<g id="edge23_Node000019_Node000018" class="edge">
<title>Node19&#45;&gt;Node18</title>
<g id="a_edge23_Node000019_Node000018"><a xlink:title=" ">
<path fill="none" stroke="#63b8ff" d="M715.52,-75.03C701.58,-61.83 685.38,-46.48 673.9,-35.62"/>
<polygon fill="#63b8ff" stroke="#63b8ff" points="713.32,-77.77 722.99,-82.1 718.13,-72.68 713.32,-77.77"/>
</a>
</g>
</g>
<!-- Node20&#45;&gt;Node18 -->
<g id="edge28_Node000020_Node000018" class="edge">
<title>Node20&#45;&gt;Node18</title>
<g id="a_edge28_Node000020_Node000018"><a xlink:title=" ">
<path fill="none" stroke="#63b8ff" d="M988.66,-159.98C989.97,-134.43 987.28,-98.55 966,-77 948.68,-59.47 800.82,-38.81 716.78,-28.34"/>
<polygon fill="#63b8ff" stroke="#63b8ff" points="985.14,-159.99 987.89,-170.23 992.13,-160.52 985.14,-159.99"/>
</a>
</g>
</g>
<!-- Node21 -->
<g id="Node000021" class="node">
<title>Node21</title>
<g id="a_Node000021"><a xlink:href="opencv__camera__mt__handler_8h.html" target="_top" xlink:title=" ">
<polygon fill="white" stroke="#666666" points="1147,-123.5 1013,-123.5 1013,-82.5 1147,-82.5 1147,-123.5"/>
<text text-anchor="start" x="1021" y="-111.5" font-family="Helvetica,sans-Serif" font-size="10.00">include/mosaic/auto</text>
<text text-anchor="start" x="1021" y="-100.5" font-family="Helvetica,sans-Serif" font-size="10.00">_configurer/impl/opencv</text>
<text text-anchor="middle" x="1080" y="-89.5" font-family="Helvetica,sans-Serif" font-size="10.00">_camera_mt_handler.h</text>
</a>
</g>
</g>
<!-- Node20&#45;&gt;Node21 -->
<g id="edge25_Node000020_Node000021" class="edge">
<title>Node20&#45;&gt;Node21</title>
<g id="a_edge25_Node000020_Node000021"><a xlink:title=" ">
<path fill="none" stroke="#63b8ff" d="M1014.14,-163.62C1028.34,-150.77 1045.13,-135.57 1058.2,-123.74"/>
<polygon fill="#63b8ff" stroke="#63b8ff" points="1011.62,-161.18 1006.56,-170.49 1016.32,-166.37 1011.62,-161.18"/>
</a>
</g>
</g>
<!-- Node22 -->
<g id="Node000022" class="node">
<title>Node22</title>
<g id="a_Node000022"><a xlink:href="connector__resolver_8cpp.html" target="_top" xlink:title=" ">
<polygon fill="white" stroke="#666666" points="981,-35.5 849,-35.5 849,-5.5 981,-5.5 981,-35.5"/>
<text text-anchor="start" x="857" y="-23.5" font-family="Helvetica,sans-Serif" font-size="10.00">src/auto_configurer</text>
<text text-anchor="middle" x="915" y="-12.5" font-family="Helvetica,sans-Serif" font-size="10.00">/connector_resolver.cpp</text>
</a>
</g>
</g>
<!-- Node21&#45;&gt;Node22 -->
<g id="edge26_Node000021_Node000022" class="edge">
<title>Node21&#45;&gt;Node22</title>
<g id="a_edge26_Node000021_Node000022"><a xlink:title=" ">
<path fill="none" stroke="#63b8ff" d="M1030.31,-77.76C1002.05,-63.97 967.66,-47.19 943.83,-35.56"/>
<polygon fill="#63b8ff" stroke="#63b8ff" points="1029.11,-81.07 1039.64,-82.31 1032.18,-74.78 1029.11,-81.07"/>
</a>
</g>
</g>
<!-- Node23 -->
<g id="Node000023" class="node">
<title>Node23</title>
<g id="a_Node000023"><a xlink:href="opencv__camera__mt__handler_8cpp.html" target="_top" xlink:title=" ">
<polygon fill="white" stroke="#666666" points="1141,-41 1019,-41 1019,0 1141,0 1141,-41"/>
<text text-anchor="start" x="1027" y="-29" font-family="Helvetica,sans-Serif" font-size="10.00">src/auto_configurer</text>
<text text-anchor="start" x="1027" y="-18" font-family="Helvetica,sans-Serif" font-size="10.00">/impl/opencv_camera</text>
<text text-anchor="middle" x="1080" y="-7" font-family="Helvetica,sans-Serif" font-size="10.00">_mt_handler.cpp</text>
</a>
</g>
</g>
<!-- Node21&#45;&gt;Node23 -->
<g id="edge27_Node000021_Node000023" class="edge">
<title>Node21&#45;&gt;Node23</title>
<g id="a_edge27_Node000021_Node000023"><a xlink:title=" ">
<path fill="none" stroke="#63b8ff" d="M1080,-71.87C1080,-61.6 1080,-50.4 1080,-41.17"/>
<polygon fill="#63b8ff" stroke="#63b8ff" points="1076.5,-72.1 1080,-82.1 1083.5,-72.1 1076.5,-72.1"/>
</a>
</g>
</g>
<!-- Node24&#45;&gt;Node18 -->
<g id="edge30_Node000024_Node000018" class="edge">
<title>Node24&#45;&gt;Node18</title>
<g id="a_edge30_Node000024_Node000018"><a xlink:title=" ">
<path fill="none" stroke="#63b8ff" d="M486.94,-76.71C535.54,-60.55 581.31,-45.94 614.1,-35.58"/>
<polygon fill="#63b8ff" stroke="#63b8ff" points="485.57,-73.48 477.19,-79.96 487.78,-80.12 485.57,-73.48"/>
</a>
</g>
</g>
<!-- Node25&#45;&gt;Node26 -->
<g id="edge32_Node000025_Node000026" class="edge">
<title>Node25&#45;&gt;Node26</title>
<g id="a_edge32_Node000025_Node000026"><a xlink:title=" ">
<path fill="none" stroke="#63b8ff" d="M853.07,-156.74C862.16,-145.58 872,-133.49 879.96,-123.7"/>
<polygon fill="#63b8ff" stroke="#63b8ff" points="850.22,-154.7 846.62,-164.66 855.65,-159.12 850.22,-154.7"/>
</a>
</g>
</g>
<!-- Node26&#45;&gt;Node18 -->
<g id="edge33_Node000026_Node000018" class="edge">
<title>Node26&#45;&gt;Node18</title>
<g id="a_edge33_Node000026_Node000018"><a xlink:title=" ">
<path fill="none" stroke="#63b8ff" d="M831.7,-78.97C829.78,-78.31 827.88,-77.65 826,-77 784.12,-62.56 736.1,-46.68 702.34,-35.61"/>
<polygon fill="#63b8ff" stroke="#63b8ff" points="830.8,-82.37 841.4,-82.37 833.11,-75.76 830.8,-82.37"/>
</a>
</g>
</g>
<!-- Node26&#45;&gt;Node22 -->
<g id="edge34_Node000026_Node000022" class="edge">
<title>Node26&#45;&gt;Node22</title>
<g id="a_edge34_Node000026_Node000022"><a xlink:title=" ">
<path fill="none" stroke="#63b8ff" d="M903.05,-72.13C905.98,-59.73 909.23,-45.93 911.61,-35.87"/>
<polygon fill="#63b8ff" stroke="#63b8ff" points="899.59,-71.56 900.7,-82.1 906.4,-73.17 899.59,-71.56"/>
</a>
</g>
</g>
<!-- Node28&#45;&gt;Node3 -->
<g id="edge39_Node000028_Node000003" class="edge">
<title>Node28&#45;&gt;Node3</title>
<g id="a_edge39_Node000028_Node000003"><a xlink:title=" ">
<path fill="none" stroke="#63b8ff" d="M324.42,-256.2C266.81,-242.99 190.59,-225.25 160,-217 147.64,-213.67 134.33,-209.75 122.11,-206.02"/>
<polygon fill="#63b8ff" stroke="#63b8ff" points="323.69,-259.63 334.22,-258.45 325.25,-252.8 323.69,-259.63"/>
</a>
</g>
</g>
<!-- Node28&#45;&gt;Node18 -->
<g id="edge38_Node000028_Node000018" class="edge">
<title>Node28&#45;&gt;Node18</title>
<g id="a_edge38_Node000028_Node000018"><a xlink:title=" ">
<path fill="none" stroke="#63b8ff" d="M378.34,-250.22C349.37,-210.8 299.04,-128.13 342,-77 374.48,-38.34 519.12,-26.6 601.35,-23.05"/>
<polygon fill="#63b8ff" stroke="#63b8ff" points="375.69,-252.51 384.5,-258.39 381.28,-248.29 375.69,-252.51"/>
</a>
</g>
</g>
<!-- Node29&#45;&gt;Node15 -->
<g id="edge41_Node000029_Node000015" class="edge">
<title>Node29&#45;&gt;Node15</title>
<g id="a_edge41_Node000029_Node000015"><a xlink:title=" ">
<path fill="none" stroke="#63b8ff" d="M1053.55,-298.07C1057.38,-308.66 1060.75,-320.8 1062.3,-329.94"/>
<polygon fill="#63b8ff" stroke="#63b8ff" points="1056.72,-296.56 1049.79,-288.54 1050.21,-299.13 1056.72,-296.56"/>
</a>
</g>
</g>
<!-- Node29&#45;&gt;Node30 -->
<g id="edge42_Node000029_Node000030" class="edge">
<title>Node29&#45;&gt;Node30</title>
<g id="a_edge42_Node000029_Node000030"><a xlink:title=" ">
<path fill="none" stroke="#63b8ff" d="M1066.69,-252.42C1085.84,-238.02 1111.17,-218.96 1128.22,-206.13"/>
<polygon fill="#63b8ff" stroke="#63b8ff" points="1064.52,-249.67 1058.64,-258.48 1068.73,-255.26 1064.52,-249.67"/>
</a>
</g>
</g>
<!-- Node31&#45;&gt;Node30 -->
<g id="edge45_Node000031_Node000030" class="edge">
<title>Node31&#45;&gt;Node30</title>
<g id="a_edge45_Node000031_Node000030"><a xlink:title=" ">
<path fill="none" stroke="#63b8ff" d="M1226.56,-252.42C1207.59,-238.02 1182.5,-218.96 1165.61,-206.13"/>
<polygon fill="#63b8ff" stroke="#63b8ff" points="1224.46,-255.22 1234.54,-258.48 1228.69,-249.64 1224.46,-255.22"/>
</a>
</g>
</g>
<!-- Node31&#45;&gt;Node32 -->
<g id="edge44_Node000031_Node000032" class="edge">
<title>Node31&#45;&gt;Node32</title>
<g id="a_edge44_Node000031_Node000032"><a xlink:title=" ">
<path fill="none" stroke="#63b8ff" d="M1270.51,-250.48C1283.49,-234.15 1300.51,-212.74 1309.94,-200.88"/>
<polygon fill="#63b8ff" stroke="#63b8ff" points="1267.63,-248.47 1264.15,-258.48 1273.11,-252.83 1267.63,-248.47"/>
</a>
</g>
</g>
<!-- Node31&#45;&gt;Node33 -->
<g id="edge46_Node000031_Node000033" class="edge">
<title>Node31&#45;&gt;Node33</title>
<g id="a_edge46_Node000031_Node000033"><a xlink:title=" ">
<path fill="none" stroke="#63b8ff" d="M1303.37,-255.17C1345.96,-240.52 1406.21,-219.79 1445.92,-206.13"/>
<polygon fill="#63b8ff" stroke="#63b8ff" points="1302.08,-251.92 1293.76,-258.48 1304.35,-258.53 1302.08,-251.92"/>
</a>
</g>
</g>
<!-- Node34&#45;&gt;Node3 -->
<g id="edge48_Node000034_Node000003" class="edge">
<title>Node34&#45;&gt;Node3</title>
<g id="a_edge48_Node000034_Node000003"><a xlink:title=" ">
<path fill="none" stroke="#63b8ff" d="M196.16,-253.77C168.33,-239.22 130.34,-219.36 105.03,-206.13"/>
<polygon fill="#63b8ff" stroke="#63b8ff" points="194.69,-256.95 205.18,-258.48 197.93,-250.74 194.69,-256.95"/>
</a>
</g>
</g>
<!-- Node35 -->
<g id="Node000035" class="node">
<title>Node35</title>
<g id="a_Node000035"><a xlink:href="signaling__client_8cpp.html" target="_top" xlink:title=" ">
<polygon fill="white" stroke="#666666" points="294.5,-206 169.5,-206 169.5,-176 294.5,-176 294.5,-206"/>
<text text-anchor="start" x="177.5" y="-194" font-family="Helvetica,sans-Serif" font-size="10.00">src/signaling/signaling</text>
<text text-anchor="middle" x="232" y="-183" font-family="Helvetica,sans-Serif" font-size="10.00">_client.cpp</text>
</a>
</g>
</g>
<!-- Node34&#45;&gt;Node35 -->
<g id="edge49_Node000034_Node000035" class="edge">
<title>Node34&#45;&gt;Node35</title>
<g id="a_edge49_Node000034_Node000035"><a xlink:title=" ">
<path fill="none" stroke="#63b8ff" d="M232,-248.24C232,-234.48 232,-217.75 232,-206.13"/>
<polygon fill="#63b8ff" stroke="#63b8ff" points="228.5,-248.48 232,-258.48 235.5,-248.48 228.5,-248.48"/>
</a>
</g>
</g>
</g>
</svg>

<g id="navigator" transform="translate(0 0)" fill="#404254">
  <rect fill="#f2f5e9" fill-opacity="0.5" stroke="#606060" stroke-width=".5" x="0" y="0" width="60" height="60"/>
  <use id="zoomplus" xlink:href="#zoomPlus" x="17" y="9" onmousedown="handleZoom(evt,'in')"/>
  <use id="zoomminus" xlink:href="#zoomMin" x="42" y="9" onmousedown="handleZoom(evt,'out')"/>
  <use id="reset" xlink:href="#resetDef" x="30" y="36" onmousedown="handleReset()"/>
   <use id="arrowup" xlink:href="#arrowUp" x="0" y="0" onmousedown="handlePan(0,-1)"/>
  <use id="arrowright" xlink:href="#arrowRight" x="0" y="0" onmousedown="handlePan(1,0)"/>
  <use id="arrowdown" xlink:href="#arrowDown" x="0" y="0" onmousedown="handlePan(0,1)"/>
  <use id="arrowleft" xlink:href="#arrowLeft" x="0" y="0" onmousedown="handlePan(-1,0)"/>
</g>
<svg viewBox="0 0 15 15" width="100%" height="30px" preserveAspectRatio="xMaxYMin meet">
 <g id="arrow_out" transform="scale(0.3 0.3)">
  <a xlink:href="auth__type_8h__dep__incl_org.svg" target="_base">
   <rect id="button" ry="5" rx="5" y="6" x="6" height="38" width="38"
        fill="#f2f5e9" fill-opacity="0.5" stroke="#606060" stroke-width="1.0"/>
   <path id="arrow"
     d="M 11.500037,31.436501 C 11.940474,20.09759 22.043105,11.32322 32.158766,21.979434 L 37.068811,17.246167 C 37.068811,17.246167 37.088388,32 37.088388,32 L 22.160133,31.978069 C 22.160133,31.978069 26.997745,27.140456 26.997745,27.140456 C 18.528582,18.264221 13.291696,25.230495 11.500037,31.436501 z"
     style="fill:#404040;"/>
  </a>
 </g>
</svg>

<style type='text/css'>
<![CDATA[
[data-mouse-over-selected='false'] { opacity: 0.7; }
[data-mouse-over-selected='true']  { opacity: 1.0; }
]]>
</style>
<script type="application/ecmascript"><![CDATA[
document.addEventListener('DOMContentLoaded', (event) => {
  highlightEdges();
  highlightAdjacentNodes();
});
]]></script>
</svg>
