<?xml version="1.0" encoding="UTF-8" standalone="no"?>
<!DOCTYPE svg PUBLIC "-//W3C//DTD SVG 1.1//EN"
 "http://www.w3.org/Graphics/SVG/1.1/DTD/svg11.dtd">
<!-- Generated by graphviz version 2.43.0 (0)
 -->
<!-- Title: include/mosaic/security/auth_type.h Pages: 1 -->
<svg width="1444pt" height="621pt"
 viewBox="0.00 0.00 1444.00 621.00" xmlns="http://www.w3.org/2000/svg" xmlns:xlink="http://www.w3.org/1999/xlink">
<g id="graph0" class="graph" transform="scale(1 1) rotate(0) translate(4 617)">
<title>include/mosaic/security/auth_type.h</title>
<!-- Node1 -->
<g id="Node000001" class="node">
<title>Node1</title>
<g id="a_Node000001"><a xlink:title=" ">
<polygon fill="#999999" stroke="#666666" points="388,-613 256,-613 256,-583 388,-583 388,-613"/>
<text text-anchor="start" x="264" y="-601" font-family="Helvetica,sans-Serif" font-size="10.00">include/mosaic/security</text>
<text text-anchor="middle" x="322" y="-590" font-family="Helvetica,sans-Serif" font-size="10.00">/auth_type.h</text>
</a>
</g>
</g>
<!-- Node2 -->
<g id="Node000002" class="node">
<title>Node2</title>
<g id="a_Node000002"><a xlink:href="authenticator__resolver_8h.html" target="_top" xlink:title=" ">
<polygon fill="white" stroke="#666666" points="325,-415 187,-415 187,-385 325,-385 325,-415"/>
<text text-anchor="start" x="195" y="-403" font-family="Helvetica,sans-Serif" font-size="10.00">include/mosaic/security</text>
<text text-anchor="middle" x="256" y="-392" font-family="Helvetica,sans-Serif" font-size="10.00">/authenticator_resolver.h</text>
</a>
</g>
</g>
<!-- Node1&#45;&gt;Node2 -->
<g id="edge1_Node000001_Node000002" class="edge">
<title>Node1&#45;&gt;Node2</title>
<g id="a_edge1_Node000001_Node000002"><a xlink:title=" ">
<path fill="none" stroke="#63b8ff" d="M314.06,-573.42C300.21,-532.29 272.04,-448.63 260.79,-415.23"/>
<polygon fill="#63b8ff" stroke="#63b8ff" points="310.75,-574.54 317.25,-582.9 317.38,-572.31 310.75,-574.54"/>
</a>
</g>
</g>
<!-- Node5 -->
<g id="Node000005" class="node">
<title>Node5</title>
<g id="a_Node000005"><a xlink:href="i__mosaic__authenticator_8h.html" target="_top" xlink:title=" ">
<polygon fill="white" stroke="#666666" points="459,-547 317,-547 317,-517 459,-517 459,-547"/>
<text text-anchor="start" x="325" y="-535" font-family="Helvetica,sans-Serif" font-size="10.00">include/mosaic/security</text>
<text text-anchor="middle" x="388" y="-524" font-family="Helvetica,sans-Serif" font-size="10.00">/i_mosaic_authenticator.h</text>
</a>
</g>
</g>
<!-- Node1&#45;&gt;Node5 -->
<g id="edge4_Node000001_Node000005" class="edge">
<title>Node1&#45;&gt;Node5</title>
<g id="a_edge4_Node000001_Node000005"><a xlink:title=" ">
<path fill="none" stroke="#63b8ff" d="M344.02,-575.65C353.69,-566.27 364.77,-555.53 373.39,-547.16"/>
<polygon fill="#63b8ff" stroke="#63b8ff" points="341.39,-573.32 336.65,-582.8 346.26,-578.35 341.39,-573.32"/>
</a>
</g>
</g>
<!-- Node3 -->
<g id="Node000003" class="node">
<title>Node3</title>
<g id="a_Node000003"><a xlink:href="mosaic__connector__factory_8cpp.html" target="_top" xlink:title=" ">
<polygon fill="white" stroke="#666666" points="836,-195 690,-195 690,-165 836,-165 836,-195"/>
<text text-anchor="start" x="698" y="-183" font-family="Helvetica,sans-Serif" font-size="10.00">src/core/mosaic_connector</text>
<text text-anchor="middle" x="763" y="-172" font-family="Helvetica,sans-Serif" font-size="10.00">_factory.cpp</text>
</a>
</g>
</g>
<!-- Node2&#45;&gt;Node3 -->
<g id="edge2_Node000002_Node000003" class="edge">
<title>Node2&#45;&gt;Node3</title>
<g id="a_edge2_Node000002_Node000003"><a xlink:title=" ">
<path fill="none" stroke="#63b8ff" d="M296.9,-380.78C363.4,-351.22 499.22,-291.17 615,-242 653.63,-225.6 698.18,-207.32 728.22,-195.09"/>
<polygon fill="#63b8ff" stroke="#63b8ff" points="295.31,-377.65 287.6,-384.91 298.16,-384.05 295.31,-377.65"/>
</a>
</g>
</g>
<!-- Node4 -->
<g id="Node000004" class="node">
<title>Node4</title>
<g id="a_Node000004"><a xlink:href="authenticator__resolver_8cpp.html" target="_top" xlink:title=" ">
<polygon fill="white" stroke="#666666" points="617.5,-349 476.5,-349 476.5,-319 617.5,-319 617.5,-349"/>
<text text-anchor="start" x="484.5" y="-337" font-family="Helvetica,sans-Serif" font-size="10.00">src/security/authenticator</text>
<text text-anchor="middle" x="547" y="-326" font-family="Helvetica,sans-Serif" font-size="10.00">_resolver.cpp</text>
</a>
</g>
</g>
<!-- Node2&#45;&gt;Node4 -->
<g id="edge3_Node000002_Node000004" class="edge">
<title>Node2&#45;&gt;Node4</title>
<g id="a_edge3_Node000002_Node000004"><a xlink:title=" ">
<path fill="none" stroke="#63b8ff" d="M329.75,-382.78C377.12,-372.36 438.03,-358.97 483.29,-349.01"/>
<polygon fill="#63b8ff" stroke="#63b8ff" points="328.88,-379.39 319.86,-384.95 330.38,-386.23 328.88,-379.39"/>
</a>
</g>
</g>
<!-- Node5&#45;&gt;Node2 -->
<g id="edge15_Node000005_Node000002" class="edge">
<title>Node5&#45;&gt;Node2</title>
<g id="a_edge15_Node000005_Node000002"><a xlink:title=" ">
<path fill="none" stroke="#63b8ff" d="M353.44,-511.66C340,-503.23 324.98,-492.62 313,-481 292.18,-460.82 273.88,-432.16 263.93,-415.19"/>
<polygon fill="#63b8ff" stroke="#63b8ff" points="351.63,-514.66 361.99,-516.88 355.28,-508.68 351.63,-514.66"/>
</a>
</g>
</g>
<!-- Node6 -->
<g id="Node000006" class="node">
<title>Node6</title>
<g id="a_Node000006"><a xlink:href="a__mosaic__authenticator_8h.html" target="_top" xlink:title=" ">
<polygon fill="white" stroke="#666666" points="633.5,-481 488.5,-481 488.5,-451 633.5,-451 633.5,-481"/>
<text text-anchor="start" x="496.5" y="-469" font-family="Helvetica,sans-Serif" font-size="10.00">include/mosaic/security</text>
<text text-anchor="middle" x="561" y="-458" font-family="Helvetica,sans-Serif" font-size="10.00">/a_mosaic_authenticator.h</text>
</a>
</g>
</g>
<!-- Node5&#45;&gt;Node6 -->
<g id="edge5_Node000005_Node000006" class="edge">
<title>Node5&#45;&gt;Node6</title>
<g id="a_edge5_Node000005_Node000006"><a xlink:title=" ">
<path fill="none" stroke="#63b8ff" d="M435.42,-513.46C463.02,-503.25 497.34,-490.55 523.12,-481.01"/>
<polygon fill="#63b8ff" stroke="#63b8ff" points="434.13,-510.2 425.97,-516.95 436.56,-516.77 434.13,-510.2"/>
</a>
</g>
</g>
<!-- Node12 -->
<g id="Node000012" class="node">
<title>Node12</title>
<g id="a_Node000012"><a xlink:href="authenticator__factory_8h.html" target="_top" xlink:title=" ">
<polygon fill="white" stroke="#666666" points="454,-481 322,-481 322,-451 454,-451 454,-481"/>
<text text-anchor="start" x="330" y="-469" font-family="Helvetica,sans-Serif" font-size="10.00">include/mosaic/security</text>
<text text-anchor="middle" x="388" y="-458" font-family="Helvetica,sans-Serif" font-size="10.00">/authenticator_factory.h</text>
</a>
</g>
</g>
<!-- Node5&#45;&gt;Node12 -->
<g id="edge13_Node000005_Node000012" class="edge">
<title>Node5&#45;&gt;Node12</title>
<g id="a_edge13_Node000005_Node000012"><a xlink:title=" ">
<path fill="none" stroke="#63b8ff" d="M388,-506.54C388,-497.96 388,-488.61 388,-481.16"/>
<polygon fill="#63b8ff" stroke="#63b8ff" points="384.5,-506.8 388,-516.8 391.5,-506.8 384.5,-506.8"/>
</a>
</g>
</g>
<!-- Node13 -->
<g id="Node000013" class="node">
<title>Node13</title>
<g id="a_Node000013"><a xlink:href="i__signaling__client_8h.html" target="_top" xlink:title=" ">
<polygon fill="white" stroke="#666666" points="1023.5,-481 886.5,-481 886.5,-451 1023.5,-451 1023.5,-481"/>
<text text-anchor="start" x="894.5" y="-469" font-family="Helvetica,sans-Serif" font-size="10.00">include/mosaic/signaling</text>
<text text-anchor="middle" x="955" y="-458" font-family="Helvetica,sans-Serif" font-size="10.00">/i_signaling_client.h</text>
</a>
</g>
</g>
<!-- Node5&#45;&gt;Node13 -->
<g id="edge16_Node000005_Node000013" class="edge">
<title>Node5&#45;&gt;Node13</title>
<g id="a_edge16_Node000005_Node000013"><a xlink:title=" ">
<path fill="none" stroke="#63b8ff" d="M469.47,-521.8C581.55,-509.15 781.33,-486.6 886.27,-474.76"/>
<polygon fill="#63b8ff" stroke="#63b8ff" points="468.78,-518.36 459.24,-522.96 469.57,-525.32 468.78,-518.36"/>
</a>
</g>
</g>
<!-- Node7 -->
<g id="Node000007" class="node">
<title>Node7</title>
<g id="a_Node000007"><a xlink:href="no__auth__authenticator_8h.html" target="_top" xlink:title=" ">
<polygon fill="white" stroke="#666666" points="851,-415 689,-415 689,-385 851,-385 851,-415"/>
<text text-anchor="start" x="697" y="-403" font-family="Helvetica,sans-Serif" font-size="10.00">include/mosaic/security</text>
<text text-anchor="middle" x="770" y="-392" font-family="Helvetica,sans-Serif" font-size="10.00">/impl/no_auth_authenticator.h</text>
</a>
</g>
</g>
<!-- Node6&#45;&gt;Node7 -->
<g id="edge6_Node000006_Node000007" class="edge">
<title>Node6&#45;&gt;Node7</title>
<g id="a_edge6_Node000006_Node000007"><a xlink:title=" ">
<path fill="none" stroke="#63b8ff" d="M616.55,-447.99C650.18,-437.69 692.55,-424.72 724.24,-415.01"/>
<polygon fill="#63b8ff" stroke="#63b8ff" points="615.4,-444.68 606.87,-450.95 617.45,-451.37 615.4,-444.68"/>
</a>
</g>
</g>
<!-- Node9 -->
<g id="Node000009" class="node">
<title>Node9</title>
<g id="a_Node000009"><a xlink:href="simple__token__authenticator_8h.html" target="_top" xlink:title=" ">
<polygon fill="white" stroke="#666666" points="671,-415 483,-415 483,-385 671,-385 671,-415"/>
<text text-anchor="start" x="491" y="-403" font-family="Helvetica,sans-Serif" font-size="10.00">include/mosaic/security</text>
<text text-anchor="middle" x="577" y="-392" font-family="Helvetica,sans-Serif" font-size="10.00">/impl/simple_token_authenticator.h</text>
</a>
</g>
</g>
<!-- Node6&#45;&gt;Node9 -->
<g id="edge9_Node000006_Node000009" class="edge">
<title>Node6&#45;&gt;Node9</title>
<g id="a_edge9_Node000006_Node000009"><a xlink:title=" ">
<path fill="none" stroke="#63b8ff" d="M567.04,-440.83C569.21,-432.17 571.58,-422.7 573.46,-415.16"/>
<polygon fill="#63b8ff" stroke="#63b8ff" points="563.58,-440.25 564.55,-450.8 570.37,-441.94 563.58,-440.25"/>
</a>
</g>
</g>
<!-- Node11 -->
<g id="Node000011" class="node">
<title>Node11</title>
<g id="a_Node000011"><a xlink:href="a__mosaic__authenticator_8cpp.html" target="_top" xlink:title=" ">
<polygon fill="white" stroke="#666666" points="465,-415 343,-415 343,-385 465,-385 465,-415"/>
<text text-anchor="start" x="351" y="-403" font-family="Helvetica,sans-Serif" font-size="10.00">src/security/a_mosaic</text>
<text text-anchor="middle" x="404" y="-392" font-family="Helvetica,sans-Serif" font-size="10.00">_authenticator.cpp</text>
</a>
</g>
</g>
<!-- Node6&#45;&gt;Node11 -->
<g id="edge12_Node000006_Node000011" class="edge">
<title>Node6&#45;&gt;Node11</title>
<g id="a_edge12_Node000006_Node000011"><a xlink:title=" ">
<path fill="none" stroke="#63b8ff" d="M516.98,-447.05C492.1,-436.91 461.47,-424.43 438.37,-415.01"/>
<polygon fill="#63b8ff" stroke="#63b8ff" points="515.96,-450.42 526.55,-450.95 518.61,-443.94 515.96,-450.42"/>
</a>
</g>
</g>
<!-- Node7&#45;&gt;Node4 -->
<g id="edge7_Node000007_Node000004" class="edge">
<title>Node7&#45;&gt;Node4</title>
<g id="a_edge7_Node000007_Node000004"><a xlink:title=" ">
<path fill="none" stroke="#63b8ff" d="M711.19,-382.12C675.23,-371.8 629.78,-358.76 595.82,-349.01"/>
<polygon fill="#63b8ff" stroke="#63b8ff" points="710.48,-385.56 721.06,-384.95 712.42,-378.83 710.48,-385.56"/>
</a>
</g>
</g>
<!-- Node8 -->
<g id="Node000008" class="node">
<title>Node8</title>
<g id="a_Node000008"><a xlink:href="no__auth__authenticator_8cpp.html" target="_top" xlink:title=" ">
<polygon fill="white" stroke="#666666" points="927,-349 793,-349 793,-319 927,-319 927,-349"/>
<text text-anchor="start" x="801" y="-337" font-family="Helvetica,sans-Serif" font-size="10.00">src/security/impl/no</text>
<text text-anchor="middle" x="860" y="-326" font-family="Helvetica,sans-Serif" font-size="10.00">_auth_authenticator.cpp</text>
</a>
</g>
</g>
<!-- Node7&#45;&gt;Node8 -->
<g id="edge8_Node000007_Node000008" class="edge">
<title>Node7&#45;&gt;Node8</title>
<g id="a_edge8_Node000007_Node000008"><a xlink:title=" ">
<path fill="none" stroke="#63b8ff" d="M798.47,-378.75C812.01,-369.13 827.86,-357.86 840.08,-349.16"/>
<polygon fill="#63b8ff" stroke="#63b8ff" points="796.1,-376.15 789.97,-384.8 800.15,-381.85 796.1,-376.15"/>
</a>
</g>
</g>
<!-- Node9&#45;&gt;Node4 -->
<g id="edge10_Node000009_Node000004" class="edge">
<title>Node9&#45;&gt;Node4</title>
<g id="a_edge10_Node000009_Node000004"><a xlink:title=" ">
<path fill="none" stroke="#63b8ff" d="M566.07,-375.68C561.9,-366.79 557.29,-356.95 553.64,-349.16"/>
<polygon fill="#63b8ff" stroke="#63b8ff" points="562.93,-377.23 570.34,-384.8 569.27,-374.26 562.93,-377.23"/>
</a>
</g>
</g>
<!-- Node10 -->
<g id="Node000010" class="node">
<title>Node10</title>
<g id="a_Node000010"><a xlink:href="simple__token__authenticator_8cpp.html" target="_top" xlink:title=" ">
<polygon fill="white" stroke="#666666" points="774.5,-349 635.5,-349 635.5,-319 774.5,-319 774.5,-349"/>
<text text-anchor="start" x="643.5" y="-337" font-family="Helvetica,sans-Serif" font-size="10.00">src/security/impl/simple</text>
<text text-anchor="middle" x="705" y="-326" font-family="Helvetica,sans-Serif" font-size="10.00">_token_authenticator.cpp</text>
</a>
</g>
</g>
<!-- Node9&#45;&gt;Node10 -->
<g id="edge11_Node000009_Node000010" class="edge">
<title>Node9&#45;&gt;Node10</title>
<g id="a_edge11_Node000009_Node000010"><a xlink:title=" ">
<path fill="none" stroke="#63b8ff" d="M614.24,-380.38C634.27,-370.36 658.57,-358.22 676.98,-349.01"/>
<polygon fill="#63b8ff" stroke="#63b8ff" points="612.47,-377.35 605.09,-384.95 615.6,-383.61 612.47,-377.35"/>
</a>
</g>
</g>
<!-- Node12&#45;&gt;Node2 -->
<g id="edge14_Node000012_Node000002" class="edge">
<title>Node12&#45;&gt;Node2</title>
<g id="a_edge14_Node000012_Node000002"><a xlink:title=" ">
<path fill="none" stroke="#63b8ff" d="M349.87,-446.51C329.16,-436.47 303.97,-424.26 284.9,-415.01"/>
<polygon fill="#63b8ff" stroke="#63b8ff" points="348.51,-449.74 359.03,-450.95 351.56,-443.44 348.51,-449.74"/>
</a>
</g>
</g>
<!-- Node13&#45;&gt;Node8 -->
<g id="edge54_Node000013_Node000008" class="edge">
<title>Node13&#45;&gt;Node8</title>
<g id="a_edge54_Node000013_Node000008"><a xlink:title=" ">
<path fill="none" stroke="#63b8ff" d="M938.52,-442.45C918.91,-415.61 886.74,-371.6 870.33,-349.14"/>
<polygon fill="#63b8ff" stroke="#63b8ff" points="935.93,-444.83 944.65,-450.84 941.58,-440.7 935.93,-444.83"/>
</a>
</g>
</g>
<!-- Node13&#45;&gt;Node10 -->
<g id="edge55_Node000013_Node000010" class="edge">
<title>Node13&#45;&gt;Node10</title>
<g id="a_edge55_Node000013_Node000010"><a xlink:title=" ">
<path fill="none" stroke="#63b8ff" d="M930.05,-444.34C919.25,-435.36 906.47,-424.69 895,-415 879.35,-401.78 877.88,-395.01 860,-385 831.26,-368.91 796.57,-357.11 767.31,-349.03"/>
<polygon fill="#63b8ff" stroke="#63b8ff" points="927.95,-447.14 937.88,-450.84 932.42,-441.76 927.95,-447.14"/>
</a>
</g>
</g>
<!-- Node14 -->
<g id="Node000014" class="node">
<title>Node14</title>
<g id="a_Node000014"><a xlink:href="connector__state__manager_8h.html" target="_top" xlink:title=" ">
<polygon fill="white" stroke="#666666" points="1195.5,-415 1040.5,-415 1040.5,-385 1195.5,-385 1195.5,-415"/>
<text text-anchor="start" x="1048.5" y="-403" font-family="Helvetica,sans-Serif" font-size="10.00">include/mosaic/core</text>
<text text-anchor="middle" x="1118" y="-392" font-family="Helvetica,sans-Serif" font-size="10.00">/connector_state_manager.h</text>
</a>
</g>
</g>
<!-- Node13&#45;&gt;Node14 -->
<g id="edge17_Node000013_Node000014" class="edge">
<title>Node13&#45;&gt;Node14</title>
<g id="a_edge17_Node000013_Node000014"><a xlink:title=" ">
<path fill="none" stroke="#63b8ff" d="M1000.36,-447.19C1026.25,-437.02 1058.23,-424.47 1082.31,-415.01"/>
<polygon fill="#63b8ff" stroke="#63b8ff" points="998.8,-444.04 990.77,-450.95 1001.36,-450.56 998.8,-444.04"/>
</a>
</g>
</g>
<!-- Node27 -->
<g id="Node000027" class="node">
<title>Node27</title>
<g id="a_Node000027"><a xlink:href="peer__connection__manager_8h.html" target="_top" xlink:title=" ">
<polygon fill="white" stroke="#666666" points="1360.5,-277.5 1203.5,-277.5 1203.5,-247.5 1360.5,-247.5 1360.5,-277.5"/>
<text text-anchor="start" x="1211.5" y="-265.5" font-family="Helvetica,sans-Serif" font-size="10.00">include/mosaic/core</text>
<text text-anchor="middle" x="1282" y="-254.5" font-family="Helvetica,sans-Serif" font-size="10.00">/peer_connection_manager.h</text>
</a>
</g>
</g>
<!-- Node13&#45;&gt;Node27 -->
<g id="edge51_Node000013_Node000027" class="edge">
<title>Node13&#45;&gt;Node27</title>
<g id="a_edge51_Node000013_Node000027"><a xlink:title=" ">
<path fill="none" stroke="#63b8ff" d="M1033.81,-456.48C1096.52,-448.4 1178.08,-434.57 1205,-415 1252.49,-380.47 1272.68,-308.08 1279.31,-277.55"/>
<polygon fill="#63b8ff" stroke="#63b8ff" points="1033,-453.06 1023.52,-457.78 1033.88,-460 1033,-453.06"/>
</a>
</g>
</g>
<!-- Node28 -->
<g id="Node000028" class="node">
<title>Node28</title>
<g id="a_Node000028"><a xlink:href="peer__connection__manager_8cpp.html" target="_top" xlink:title=" ">
<polygon fill="white" stroke="#666666" points="1436,-195 1298,-195 1298,-165 1436,-165 1436,-195"/>
<text text-anchor="start" x="1306" y="-183" font-family="Helvetica,sans-Serif" font-size="10.00">src/core/peer_connection</text>
<text text-anchor="middle" x="1367" y="-172" font-family="Helvetica,sans-Serif" font-size="10.00">_manager.cpp</text>
</a>
</g>
</g>
<!-- Node13&#45;&gt;Node28 -->
<g id="edge53_Node000013_Node000028" class="edge">
<title>Node13&#45;&gt;Node28</title>
<g id="a_edge53_Node000013_Node000028"><a xlink:title=" ">
<path fill="none" stroke="#63b8ff" d="M1033.64,-459.13C1090.36,-452.93 1167.91,-440.34 1232,-415 1282.21,-395.15 1293.75,-385 1334,-349 1362.25,-323.73 1375.26,-318.69 1388,-283 1398.82,-252.69 1384.44,-215.22 1374.67,-195.2"/>
<polygon fill="#63b8ff" stroke="#63b8ff" points="1033.24,-455.66 1023.66,-460.18 1033.97,-462.62 1033.24,-455.66"/>
</a>
</g>
</g>
<!-- Node32 -->
<g id="Node000032" class="node">
<title>Node32</title>
<g id="a_Node000032"><a xlink:href="signaling__client_8h.html" target="_top" xlink:title=" ">
<polygon fill="white" stroke="#666666" points="761.5,-277.5 624.5,-277.5 624.5,-247.5 761.5,-247.5 761.5,-277.5"/>
<text text-anchor="start" x="632.5" y="-265.5" font-family="Helvetica,sans-Serif" font-size="10.00">include/mosaic/signaling</text>
<text text-anchor="middle" x="693" y="-254.5" font-family="Helvetica,sans-Serif" font-size="10.00">/signaling_client.h</text>
</a>
</g>
</g>
<!-- Node13&#45;&gt;Node32 -->
<g id="edge52_Node000013_Node000032" class="edge">
<title>Node13&#45;&gt;Node32</title>
<g id="a_edge52_Node000013_Node000032"><a xlink:title=" ">
<path fill="none" stroke="#63b8ff" d="M959.51,-440.89C964.01,-408.77 966.46,-352.14 936,-319 884.91,-263.42 843.49,-300.27 770,-283 762.75,-281.3 755.13,-279.44 747.63,-277.58"/>
<polygon fill="#63b8ff" stroke="#63b8ff" points="956.05,-440.35 957.95,-450.78 962.96,-441.45 956.05,-440.35"/>
</a>
</g>
</g>
<!-- Node15 -->
<g id="Node000015" class="node">
<title>Node15</title>
<g id="a_Node000015"><a xlink:href="mosaic__connector_8h.html" target="_top" xlink:title=" ">
<polygon fill="white" stroke="#666666" points="1233,-349 1117,-349 1117,-319 1233,-319 1233,-349"/>
<text text-anchor="start" x="1125" y="-337" font-family="Helvetica,sans-Serif" font-size="10.00">include/mosaic/core</text>
<text text-anchor="middle" x="1175" y="-326" font-family="Helvetica,sans-Serif" font-size="10.00">/mosaic_connector.h</text>
</a>
</g>
</g>
<!-- Node14&#45;&gt;Node15 -->
<g id="edge18_Node000014_Node000015" class="edge">
<title>Node14&#45;&gt;Node15</title>
<g id="a_edge18_Node000014_Node000015"><a xlink:title=" ">
<path fill="none" stroke="#63b8ff" d="M1137.52,-377.09C1145.74,-367.85 1155.09,-357.36 1162.39,-349.16"/>
<polygon fill="#63b8ff" stroke="#63b8ff" points="1134.69,-375 1130.65,-384.8 1139.91,-379.66 1134.69,-375"/>
</a>
</g>
</g>
<!-- Node14&#45;&gt;Node28 -->
<g id="edge50_Node000014_Node000028" class="edge">
<title>Node14&#45;&gt;Node28</title>
<g id="a_edge50_Node000014_Node000028"><a xlink:title=" ">
<path fill="none" stroke="#63b8ff" d="M1205.42,-384.42C1263.41,-369.63 1335.05,-340.34 1370,-283 1386.69,-255.62 1378.28,-215.97 1371.92,-195.08"/>
<polygon fill="#63b8ff" stroke="#63b8ff" points="1204.39,-381.07 1195.51,-386.84 1206.05,-387.87 1204.39,-381.07"/>
</a>
</g>
</g>
<!-- Node34 -->
<g id="Node000034" class="node">
<title>Node34</title>
<g id="a_Node000034"><a xlink:href="connector__state__manager_8cpp.html" target="_top" xlink:title=" ">
<polygon fill="white" stroke="#666666" points="1098.5,-349 983.5,-349 983.5,-319 1098.5,-319 1098.5,-349"/>
<text text-anchor="start" x="991.5" y="-337" font-family="Helvetica,sans-Serif" font-size="10.00">src/core/connector</text>
<text text-anchor="middle" x="1041" y="-326" font-family="Helvetica,sans-Serif" font-size="10.00">_state_manager.cpp</text>
</a>
</g>
</g>
<!-- Node14&#45;&gt;Node34 -->
<g id="edge49_Node000014_Node000034" class="edge">
<title>Node14&#45;&gt;Node34</title>
<g id="a_edge49_Node000014_Node000034"><a xlink:title=" ">
<path fill="none" stroke="#63b8ff" d="M1092.98,-378.2C1081.55,-368.7 1068.3,-357.69 1058.04,-349.16"/>
<polygon fill="#63b8ff" stroke="#63b8ff" points="1090.98,-381.1 1100.91,-384.8 1095.46,-375.71 1090.98,-381.1"/>
</a>
</g>
</g>
<!-- Node16 -->
<g id="Node000016" class="node">
<title>Node16</title>
<g id="a_Node000016"><a xlink:href="i__configurable__connector_8h.html" target="_top" xlink:title=" ">
<polygon fill="white" stroke="#666666" points="356.5,-283 207.5,-283 207.5,-242 356.5,-242 356.5,-283"/>
<text text-anchor="start" x="215.5" y="-271" font-family="Helvetica,sans-Serif" font-size="10.00">include/mosaic/auto</text>
<text text-anchor="start" x="215.5" y="-260" font-family="Helvetica,sans-Serif" font-size="10.00">_configurer/connector</text>
<text text-anchor="middle" x="282" y="-249" font-family="Helvetica,sans-Serif" font-size="10.00">/i_configurable_connector.h</text>
</a>
</g>
</g>
<!-- Node15&#45;&gt;Node16 -->
<g id="edge19_Node000015_Node000016" class="edge">
<title>Node15&#45;&gt;Node16</title>
<g id="a_edge19_Node000015_Node000016"><a xlink:title=" ">
<path fill="none" stroke="#63b8ff" d="M1106.63,-319.22C999.94,-306.99 539.31,-278.88 356.77,-267.95"/>
<polygon fill="#63b8ff" stroke="#63b8ff" points="1106.5,-322.73 1116.85,-320.49 1107.36,-315.78 1106.5,-322.73"/>
</a>
</g>
</g>
<!-- Node26 -->
<g id="Node000026" class="node">
<title>Node26</title>
<g id="a_Node000026"><a xlink:href="mosaic__connector__factory_8h.html" target="_top" xlink:title=" ">
<polygon fill="white" stroke="#666666" points="934.5,-277.5 779.5,-277.5 779.5,-247.5 934.5,-247.5 934.5,-277.5"/>
<text text-anchor="start" x="787.5" y="-265.5" font-family="Helvetica,sans-Serif" font-size="10.00">include/mosaic/core</text>
<text text-anchor="middle" x="857" y="-254.5" font-family="Helvetica,sans-Serif" font-size="10.00">/mosaic_connector_factory.h</text>
</a>
</g>
</g>
<!-- Node15&#45;&gt;Node26 -->
<g id="edge34_Node000015_Node000026" class="edge">
<title>Node15&#45;&gt;Node26</title>
<g id="a_edge34_Node000015_Node000026"><a xlink:title=" ">
<path fill="none" stroke="#63b8ff" d="M1106.68,-318.07C1051.73,-306.06 975.08,-289.31 921.24,-277.54"/>
<polygon fill="#63b8ff" stroke="#63b8ff" points="1106.16,-321.54 1116.67,-320.25 1107.65,-314.7 1106.16,-321.54"/>
</a>
</g>
</g>
<!-- Node15&#45;&gt;Node27 -->
<g id="edge37_Node000015_Node000027" class="edge">
<title>Node15&#45;&gt;Node27</title>
<g id="a_edge37_Node000015_Node000027"><a xlink:title=" ">
<path fill="none" stroke="#63b8ff" d="M1199.7,-312.94C1216.22,-301.6 1237.82,-287.71 1254.83,-277.54"/>
<polygon fill="#63b8ff" stroke="#63b8ff" points="1197.3,-310.34 1191.1,-318.94 1201.31,-316.09 1197.3,-310.34"/>
</a>
</g>
</g>
<!-- Node29 -->
<g id="Node000029" class="node">
<title>Node29</title>
<g id="a_Node000029"><a xlink:href="peer__connection__observer_8h.html" target="_top" xlink:title=" ">
<polygon fill="white" stroke="#666666" points="1147,-277.5 991,-277.5 991,-247.5 1147,-247.5 1147,-277.5"/>
<text text-anchor="start" x="999" y="-265.5" font-family="Helvetica,sans-Serif" font-size="10.00">include/mosaic/core</text>
<text text-anchor="middle" x="1069" y="-254.5" font-family="Helvetica,sans-Serif" font-size="10.00">/peer_connection_observer.h</text>
</a>
</g>
</g>
<!-- Node15&#45;&gt;Node29 -->
<g id="edge40_Node000015_Node000029" class="edge">
<title>Node15&#45;&gt;Node29</title>
<g id="a_edge40_Node000015_Node000029"><a xlink:title=" ">
<path fill="none" stroke="#63b8ff" d="M1144.89,-313.25C1127.51,-301.86 1106.07,-287.81 1090.42,-277.54"/>
<polygon fill="#63b8ff" stroke="#63b8ff" points="1143.27,-316.38 1153.55,-318.94 1147.11,-310.53 1143.27,-316.38"/>
</a>
</g>
</g>
<!-- Node30 -->
<g id="Node000030" class="node">
<title>Node30</title>
<g id="a_Node000030"><a xlink:href="mosaic__connector_8cpp.html" target="_top" xlink:title=" ">
<polygon fill="white" stroke="#666666" points="1252,-189.5 1086,-189.5 1086,-170.5 1252,-170.5 1252,-189.5"/>
<text text-anchor="middle" x="1169" y="-177.5" font-family="Helvetica,sans-Serif" font-size="10.00">src/core/mosaic_connector.cpp</text>
</a>
</g>
</g>
<!-- Node15&#45;&gt;Node30 -->
<g id="edge47_Node000015_Node000030" class="edge">
<title>Node15&#45;&gt;Node30</title>
<g id="a_edge47_Node000015_Node000030"><a xlink:title=" ">
<path fill="none" stroke="#63b8ff" d="M1174.04,-308.81C1172.68,-274.29 1170.25,-212.57 1169.35,-189.77"/>
<polygon fill="#63b8ff" stroke="#63b8ff" points="1170.55,-309.12 1174.45,-318.97 1177.55,-308.84 1170.55,-309.12"/>
</a>
</g>
</g>
<!-- Node31 -->
<g id="Node000031" class="node">
<title>Node31</title>
<g id="a_Node000031"><a xlink:href="peer__connection__observer_8cpp.html" target="_top" xlink:title=" ">
<polygon fill="white" stroke="#666666" points="1055,-195 917,-195 917,-165 1055,-165 1055,-195"/>
<text text-anchor="start" x="925" y="-183" font-family="Helvetica,sans-Serif" font-size="10.00">src/core/peer_connection</text>
<text text-anchor="middle" x="986" y="-172" font-family="Helvetica,sans-Serif" font-size="10.00">_observer.cpp</text>
</a>
</g>
</g>
<!-- Node15&#45;&gt;Node31 -->
<g id="edge48_Node000015_Node000031" class="edge">
<title>Node15&#45;&gt;Node31</title>
<g id="a_edge48_Node000015_Node000031"><a xlink:title=" ">
<path fill="none" stroke="#63b8ff" d="M1106.85,-317.42C1052.93,-304.76 986.01,-288.19 982,-283 962.26,-257.49 972.61,-216.7 980.24,-195.25"/>
<polygon fill="#63b8ff" stroke="#63b8ff" points="1106.22,-320.86 1116.75,-319.73 1107.81,-314.05 1106.22,-320.86"/>
</a>
</g>
</g>
<!-- Node15&#45;&gt;Node32 -->
<g id="edge44_Node000015_Node000032" class="edge">
<title>Node15&#45;&gt;Node32</title>
<g id="a_edge44_Node000015_Node000032"><a xlink:title=" ">
<path fill="none" stroke="#63b8ff" d="M1106.76,-319.09C956.41,-296.36 915.09,-308.99 770,-283 761.58,-281.49 752.73,-279.57 744.14,-277.53"/>
<polygon fill="#63b8ff" stroke="#63b8ff" points="1106.41,-322.58 1116.83,-320.64 1107.48,-315.66 1106.41,-322.58"/>
</a>
</g>
</g>
<!-- Node17 -->
<g id="Node000017" class="node">
<title>Node17</title>
<g id="a_Node000017"><a xlink:href="auto__configurer_8h.html" target="_top" xlink:title=" ">
<polygon fill="white" stroke="#666666" points="303,-107 145,-107 145,-77 303,-77 303,-107"/>
<text text-anchor="start" x="153" y="-95" font-family="Helvetica,sans-Serif" font-size="10.00">include/mosaic/auto</text>
<text text-anchor="middle" x="224" y="-84" font-family="Helvetica,sans-Serif" font-size="10.00">_configurer/auto_configurer.h</text>
</a>
</g>
</g>
<!-- Node16&#45;&gt;Node17 -->
<g id="edge20_Node000016_Node000017" class="edge">
<title>Node16&#45;&gt;Node17</title>
<g id="a_edge20_Node000016_Node000017"><a xlink:title=" ">
<path fill="none" stroke="#63b8ff" d="M262.24,-233.4C256.98,-224.91 251.73,-215.35 248,-206 234.4,-171.91 227.98,-128.81 225.43,-107.01"/>
<polygon fill="#63b8ff" stroke="#63b8ff" points="259.3,-235.31 267.66,-241.82 265.18,-231.51 259.3,-235.31"/>
</a>
</g>
</g>
<!-- Node19 -->
<g id="Node000019" class="node">
<title>Node19</title>
<g id="a_Node000019"><a xlink:href="a__dc__handler__configurer_8h.html" target="_top" xlink:title=" ">
<polygon fill="white" stroke="#666666" points="467,-112.5 321,-112.5 321,-71.5 467,-71.5 467,-112.5"/>
<text text-anchor="start" x="329" y="-100.5" font-family="Helvetica,sans-Serif" font-size="10.00">include/mosaic/auto</text>
<text text-anchor="start" x="329" y="-89.5" font-family="Helvetica,sans-Serif" font-size="10.00">_configurer/connector</text>
<text text-anchor="middle" x="394" y="-78.5" font-family="Helvetica,sans-Serif" font-size="10.00">/a_dc_handler_configurer.h</text>
</a>
</g>
</g>
<!-- Node16&#45;&gt;Node19 -->
<g id="edge22_Node000016_Node000019" class="edge">
<title>Node16&#45;&gt;Node19</title>
<g id="a_edge22_Node000016_Node000019"><a xlink:title=" ">
<path fill="none" stroke="#63b8ff" d="M273.84,-231.83C269.32,-208.94 267.07,-177.35 281,-154 292.19,-135.24 311.38,-121.9 330.79,-112.58"/>
<polygon fill="#63b8ff" stroke="#63b8ff" points="270.44,-232.67 276.03,-241.67 277.28,-231.15 270.44,-232.67"/>
</a>
</g>
</g>
<!-- Node20 -->
<g id="Node000020" class="node">
<title>Node20</title>
<g id="a_Node000020"><a xlink:href="a__mt__handler__configurer_8h.html" target="_top" xlink:title=" ">
<polygon fill="white" stroke="#666666" points="634.5,-112.5 485.5,-112.5 485.5,-71.5 634.5,-71.5 634.5,-112.5"/>
<text text-anchor="start" x="493.5" y="-100.5" font-family="Helvetica,sans-Serif" font-size="10.00">include/mosaic/auto</text>
<text text-anchor="start" x="493.5" y="-89.5" font-family="Helvetica,sans-Serif" font-size="10.00">_configurer/connector</text>
<text text-anchor="middle" x="560" y="-78.5" font-family="Helvetica,sans-Serif" font-size="10.00">/a_mt_handler_configurer.h</text>
</a>
</g>
</g>
<!-- Node16&#45;&gt;Node20 -->
<g id="edge24_Node000016_Node000020" class="edge">
<title>Node16&#45;&gt;Node20</title>
<g id="a_edge24_Node000016_Node000020"><a xlink:title=" ">
<path fill="none" stroke="#63b8ff" d="M366.68,-245.54C397.76,-237.08 432.12,-224.48 460,-206 485.23,-189.27 483.98,-176.71 504,-154 516.36,-139.98 530.61,-124.47 541.64,-112.6"/>
<polygon fill="#63b8ff" stroke="#63b8ff" points="365.5,-242.23 356.71,-248.15 367.27,-249 365.5,-242.23"/>
</a>
</g>
</g>
<!-- Node21 -->
<g id="Node000021" class="node">
<title>Node21</title>
<g id="a_Node000021"><a xlink:href="a__parallel__dc__handler__configurer_8h.html" target="_top" xlink:title=" ">
<polygon fill="white" stroke="#666666" points="779,-118 653,-118 653,-66 779,-66 779,-118"/>
<text text-anchor="start" x="661" y="-106" font-family="Helvetica,sans-Serif" font-size="10.00">include/mosaic/auto</text>
<text text-anchor="start" x="661" y="-95" font-family="Helvetica,sans-Serif" font-size="10.00">_configurer/connector</text>
<text text-anchor="start" x="661" y="-84" font-family="Helvetica,sans-Serif" font-size="10.00">/a_parallel_dc_handler</text>
<text text-anchor="middle" x="716" y="-73" font-family="Helvetica,sans-Serif" font-size="10.00">_configurer.h</text>
</a>
</g>
</g>
<!-- Node16&#45;&gt;Node21 -->
<g id="edge26_Node000016_Node000021" class="edge">
<title>Node16&#45;&gt;Node21</title>
<g id="a_edge26_Node000016_Node000021"><a xlink:title=" ">
<path fill="none" stroke="#63b8ff" d="M366.48,-245.35C416.59,-234.67 474.42,-220.09 496,-206 520.64,-189.91 512.97,-170.99 537,-154 577.63,-125.28 595.91,-134.06 643,-118 646.17,-116.92 649.42,-115.81 652.7,-114.69"/>
<polygon fill="#63b8ff" stroke="#63b8ff" points="365.64,-241.95 356.57,-247.43 367.08,-248.8 365.64,-241.95"/>
</a>
</g>
</g>
<!-- Node22 -->
<g id="Node000022" class="node">
<title>Node22</title>
<g id="a_Node000022"><a xlink:href="configurable__connector__factory_8h.html" target="_top" xlink:title=" ">
<polygon fill="white" stroke="#666666" points="139.5,-206 6.5,-206 6.5,-154 139.5,-154 139.5,-206"/>
<text text-anchor="start" x="14.5" y="-194" font-family="Helvetica,sans-Serif" font-size="10.00">include/mosaic/auto</text>
<text text-anchor="start" x="14.5" y="-183" font-family="Helvetica,sans-Serif" font-size="10.00">_configurer/connector</text>
<text text-anchor="start" x="14.5" y="-172" font-family="Helvetica,sans-Serif" font-size="10.00">/configurable_connector</text>
<text text-anchor="middle" x="73" y="-161" font-family="Helvetica,sans-Serif" font-size="10.00">_factory.h</text>
</a>
</g>
</g>
<!-- Node16&#45;&gt;Node22 -->
<g id="edge28_Node000016_Node000022" class="edge">
<title>Node16&#45;&gt;Node22</title>
<g id="a_edge28_Node000016_Node000022"><a xlink:title=" ">
<path fill="none" stroke="#63b8ff" d="M221.7,-238.28C195.49,-228.18 164.73,-216.33 138.01,-206.04"/>
<polygon fill="#63b8ff" stroke="#63b8ff" points="220.55,-241.58 231.14,-241.91 223.07,-235.05 220.55,-241.58"/>
</a>
</g>
</g>
<!-- Node23 -->
<g id="Node000023" class="node">
<title>Node23</title>
<g id="a_Node000023"><a xlink:href="connector__resolver_8h.html" target="_top" xlink:title=" ">
<polygon fill="white" stroke="#666666" points="127,-112.5 5,-112.5 5,-71.5 127,-71.5 127,-112.5"/>
<text text-anchor="start" x="13" y="-100.5" font-family="Helvetica,sans-Serif" font-size="10.00">include/mosaic/auto</text>
<text text-anchor="start" x="13" y="-89.5" font-family="Helvetica,sans-Serif" font-size="10.00">_configurer/connector</text>
<text text-anchor="middle" x="66" y="-78.5" font-family="Helvetica,sans-Serif" font-size="10.00">/connector_resolver.h</text>
</a>
</g>
</g>
<!-- Node16&#45;&gt;Node23 -->
<g id="edge32_Node000016_Node000023" class="edge">
<title>Node16&#45;&gt;Node23</title>
<g id="a_edge32_Node000016_Node000023"><a xlink:title=" ">
<path fill="none" stroke="#63b8ff" d="M250.06,-235.33C223.07,-213.36 183.29,-181.27 148,-154 129.75,-139.9 108.89,-124.39 92.77,-112.54"/>
<polygon fill="#63b8ff" stroke="#63b8ff" points="248.04,-238.2 258,-241.81 252.47,-232.78 248.04,-238.2"/>
</a>
</g>
</g>
<!-- Node25 -->
<g id="Node000025" class="node">
<title>Node25</title>
<g id="a_Node000025"><a xlink:href="i__configurable__connector_8cpp.html" target="_top" xlink:title=" ">
<polygon fill="white" stroke="#666666" points="451.5,-195 290.5,-195 290.5,-165 451.5,-165 451.5,-195"/>
<text text-anchor="start" x="298.5" y="-183" font-family="Helvetica,sans-Serif" font-size="10.00">src/auto_configurer</text>
<text text-anchor="middle" x="371" y="-172" font-family="Helvetica,sans-Serif" font-size="10.00">/i_configurable_connector.cpp</text>
</a>
</g>
</g>
<!-- Node16&#45;&gt;Node25 -->
<g id="edge33_Node000016_Node000025" class="edge">
<title>Node16&#45;&gt;Node25</title>
<g id="a_edge33_Node000016_Node000025"><a xlink:title=" ">
<path fill="none" stroke="#63b8ff" d="M311.82,-234.53C326.41,-221.33 343.38,-205.98 355.39,-195.12"/>
<polygon fill="#63b8ff" stroke="#63b8ff" points="309.07,-232.3 304,-241.6 313.76,-237.49 309.07,-232.3"/>
</a>
</g>
</g>
<!-- Node18 -->
<g id="Node000018" class="node">
<title>Node18</title>
<g id="a_Node000018"><a xlink:href="auto__configurer_8cpp.html" target="_top" xlink:title=" ">
<polygon fill="white" stroke="#666666" points="534.5,-30 419.5,-30 419.5,0 534.5,0 534.5,-30"/>
<text text-anchor="start" x="427.5" y="-18" font-family="Helvetica,sans-Serif" font-size="10.00">src/auto_configurer</text>
<text text-anchor="middle" x="477" y="-7" font-family="Helvetica,sans-Serif" font-size="10.00">/auto_configurer.cpp</text>
</a>
</g>
</g>
<!-- Node17&#45;&gt;Node18 -->
<g id="edge21_Node000017_Node000018" class="edge">
<title>Node17&#45;&gt;Node18</title>
<g id="a_edge21_Node000017_Node000018"><a xlink:title=" ">
<path fill="none" stroke="#63b8ff" d="M281.14,-74.06C325.9,-60.79 387.43,-42.55 429.51,-30.08"/>
<polygon fill="#63b8ff" stroke="#63b8ff" points="279.88,-70.78 271.29,-76.98 281.87,-77.49 279.88,-70.78"/>
</a>
</g>
</g>
<!-- Node19&#45;&gt;Node18 -->
<g id="edge23_Node000019_Node000018" class="edge">
<title>Node19&#45;&gt;Node18</title>
<g id="a_edge23_Node000019_Node000018"><a xlink:title=" ">
<path fill="none" stroke="#63b8ff" d="M423.5,-64.34C436.28,-52.8 450.71,-39.75 461.37,-30.13"/>
<polygon fill="#63b8ff" stroke="#63b8ff" points="420.88,-61.99 415.81,-71.29 425.57,-67.19 420.88,-61.99"/>
</a>
</g>
</g>
<!-- Node20&#45;&gt;Node18 -->
<g id="edge25_Node000020_Node000018" class="edge">
<title>Node20&#45;&gt;Node18</title>
<g id="a_edge25_Node000020_Node000018"><a xlink:title=" ">
<path fill="none" stroke="#63b8ff" d="M530.5,-64.34C517.72,-52.8 503.29,-39.75 492.63,-30.13"/>
<polygon fill="#63b8ff" stroke="#63b8ff" points="528.43,-67.19 538.19,-71.29 533.12,-61.99 528.43,-67.19"/>
</a>
</g>
</g>
<!-- Node21&#45;&gt;Node18 -->
<g id="edge27_Node000021_Node000018" class="edge">
<title>Node21&#45;&gt;Node18</title>
<g id="a_edge27_Node000021_Node000018"><a xlink:title=" ">
<path fill="none" stroke="#63b8ff" d="M643.3,-66.1C643.2,-66.06 643.1,-66.03 643,-66 603.6,-53.33 558.64,-39.84 525.45,-30.07"/>
<polygon fill="#63b8ff" stroke="#63b8ff" points="642.15,-69.4 652.74,-69.17 644.32,-62.75 642.15,-69.4"/>
</a>
</g>
</g>
<!-- Node22&#45;&gt;Node23 -->
<g id="edge29_Node000022_Node000023" class="edge">
<title>Node22&#45;&gt;Node23</title>
<g id="a_edge29_Node000022_Node000023"><a xlink:title=" ">
<path fill="none" stroke="#63b8ff" d="M70.11,-143.45C69.25,-132.94 68.35,-121.82 67.6,-112.7"/>
<polygon fill="#63b8ff" stroke="#63b8ff" points="66.64,-143.98 70.94,-153.66 73.61,-143.41 66.64,-143.98"/>
</a>
</g>
</g>
<!-- Node23&#45;&gt;Node18 -->
<g id="edge30_Node000023_Node000018" class="edge">
<title>Node23&#45;&gt;Node18</title>
<g id="a_edge30_Node000023_Node000018"><a xlink:title=" ">
<path fill="none" stroke="#63b8ff" d="M126.97,-68.43C130.01,-67.56 133.03,-66.74 136,-66 233.97,-41.58 350.95,-27.63 419.31,-20.95"/>
<polygon fill="#63b8ff" stroke="#63b8ff" points="125.8,-65.13 117.25,-71.4 127.84,-71.83 125.8,-65.13"/>
</a>
</g>
</g>
<!-- Node24 -->
<g id="Node000024" class="node">
<title>Node24</title>
<g id="a_Node000024"><a xlink:href="connector__resolver_8cpp.html" target="_top" xlink:title=" ">
<polygon fill="white" stroke="#666666" points="132,-30 0,-30 0,0 132,0 132,-30"/>
<text text-anchor="start" x="8" y="-18" font-family="Helvetica,sans-Serif" font-size="10.00">src/auto_configurer</text>
<text text-anchor="middle" x="66" y="-7" font-family="Helvetica,sans-Serif" font-size="10.00">/connector_resolver.cpp</text>
</a>
</g>
</g>
<!-- Node23&#45;&gt;Node24 -->
<g id="edge31_Node000023_Node000024" class="edge">
<title>Node23&#45;&gt;Node24</title>
<g id="a_edge31_Node000023_Node000024"><a xlink:title=" ">
<path fill="none" stroke="#63b8ff" d="M66,-61.11C66,-50.51 66,-39.07 66,-30.36"/>
<polygon fill="#63b8ff" stroke="#63b8ff" points="62.5,-61.29 66,-71.29 69.5,-61.29 62.5,-61.29"/>
</a>
</g>
</g>
<!-- Node26&#45;&gt;Node3 -->
<g id="edge36_Node000026_Node000003" class="edge">
<title>Node26&#45;&gt;Node3</title>
<g id="a_edge36_Node000026_Node000003"><a xlink:title=" ">
<path fill="none" stroke="#63b8ff" d="M832.87,-240.84C816.14,-226.5 794.28,-207.79 779.5,-195.13"/>
<polygon fill="#63b8ff" stroke="#63b8ff" points="830.75,-243.63 840.63,-247.48 835.31,-238.31 830.75,-243.63"/>
</a>
</g>
</g>
<!-- Node26&#45;&gt;Node18 -->
<g id="edge35_Node000026_Node000018" class="edge">
<title>Node26&#45;&gt;Node18</title>
<g id="a_edge35_Node000026_Node000018"><a xlink:title=" ">
<path fill="none" stroke="#63b8ff" d="M857.44,-237.24C857.12,-214.97 854.78,-181.38 845,-154 829.33,-110.12 827.04,-91.45 788,-66 747.23,-39.42 612.8,-25.63 534.67,-19.69"/>
<polygon fill="#63b8ff" stroke="#63b8ff" points="853.94,-237.47 857.46,-247.47 860.94,-237.46 853.94,-237.47"/>
</a>
</g>
</g>
<!-- Node27&#45;&gt;Node15 -->
<g id="edge38_Node000027_Node000015" class="edge">
<title>Node27&#45;&gt;Node15</title>
<g id="a_edge38_Node000027_Node000015"><a xlink:title=" ">
<path fill="none" stroke="#63b8ff" d="M1257.33,-283.54C1240.82,-294.87 1219.22,-308.76 1202.2,-318.94"/>
<polygon fill="#63b8ff" stroke="#63b8ff" points="1259.73,-286.14 1265.93,-277.54 1255.72,-280.39 1259.73,-286.14"/>
</a>
</g>
</g>
<!-- Node27&#45;&gt;Node28 -->
<g id="edge39_Node000027_Node000028" class="edge">
<title>Node27&#45;&gt;Node28</title>
<g id="a_edge39_Node000027_Node000028"><a xlink:title=" ">
<path fill="none" stroke="#63b8ff" d="M1304.23,-240.45C1319.31,-226.16 1338.84,-207.67 1352.08,-195.13"/>
<polygon fill="#63b8ff" stroke="#63b8ff" points="1301.66,-238.06 1296.81,-247.48 1306.47,-243.14 1301.66,-238.06"/>
</a>
</g>
</g>
<!-- Node29&#45;&gt;Node28 -->
<g id="edge42_Node000029_Node000028" class="edge">
<title>Node29&#45;&gt;Node28</title>
<g id="a_edge42_Node000029_Node000028"><a xlink:title=" ">
<path fill="none" stroke="#63b8ff" d="M1130.78,-244.81C1185.22,-230.11 1263.63,-208.92 1314.94,-195.06"/>
<polygon fill="#63b8ff" stroke="#63b8ff" points="1129.65,-241.49 1120.91,-247.48 1131.47,-248.25 1129.65,-241.49"/>
</a>
</g>
</g>
<!-- Node29&#45;&gt;Node30 -->
<g id="edge41_Node000029_Node000030" class="edge">
<title>Node29&#45;&gt;Node30</title>
<g id="a_edge41_Node000029_Node000030"><a xlink:title=" ">
<path fill="none" stroke="#63b8ff" d="M1094.47,-241C1115.09,-224.4 1143.11,-201.84 1158.24,-189.66"/>
<polygon fill="#63b8ff" stroke="#63b8ff" points="1092.01,-238.48 1086.42,-247.48 1096.4,-243.93 1092.01,-238.48"/>
</a>
</g>
</g>
<!-- Node29&#45;&gt;Node31 -->
<g id="edge43_Node000029_Node000031" class="edge">
<title>Node29&#45;&gt;Node31</title>
<g id="a_edge43_Node000029_Node000031"><a xlink:title=" ">
<path fill="none" stroke="#63b8ff" d="M1047.29,-240.45C1032.57,-226.16 1013.5,-207.67 1000.57,-195.13"/>
<polygon fill="#63b8ff" stroke="#63b8ff" points="1044.93,-243.03 1054.54,-247.48 1049.8,-238 1044.93,-243.03"/>
</a>
</g>
</g>
<!-- Node32&#45;&gt;Node3 -->
<g id="edge45_Node000032_Node000003" class="edge">
<title>Node32&#45;&gt;Node3</title>
<g id="a_edge45_Node000032_Node000003"><a xlink:title=" ">
<path fill="none" stroke="#63b8ff" d="M711.99,-239.66C724.31,-225.49 740.01,-207.44 750.71,-195.13"/>
<polygon fill="#63b8ff" stroke="#63b8ff" points="709.11,-237.64 705.19,-247.48 714.4,-242.23 709.11,-237.64"/>
</a>
</g>
</g>
<!-- Node33 -->
<g id="Node000033" class="node">
<title>Node33</title>
<g id="a_Node000033"><a xlink:href="signaling__client_8cpp.html" target="_top" xlink:title=" ">
<polygon fill="white" stroke="#666666" points="671.5,-195 546.5,-195 546.5,-165 671.5,-165 671.5,-195"/>
<text text-anchor="start" x="554.5" y="-183" font-family="Helvetica,sans-Serif" font-size="10.00">src/signaling/signaling</text>
<text text-anchor="middle" x="609" y="-172" font-family="Helvetica,sans-Serif" font-size="10.00">_client.cpp</text>
</a>
</g>
</g>
<!-- Node32&#45;&gt;Node33 -->
<g id="edge46_Node000032_Node000033" class="edge">
<title>Node32&#45;&gt;Node33</title>
<g id="a_edge46_Node000032_Node000033"><a xlink:title=" ">
<path fill="none" stroke="#63b8ff" d="M671.03,-240.45C656.13,-226.16 636.83,-207.67 623.75,-195.13"/>
<polygon fill="#63b8ff" stroke="#63b8ff" points="668.73,-243.09 678.37,-247.48 673.57,-238.03 668.73,-243.09"/>
</a>
</g>
</g>
</g>
</svg>
