<?xml version="1.0" encoding="UTF-8" standalone="no"?>
<!DOCTYPE svg PUBLIC "-//W3C//DTD SVG 1.1//EN"
 "http://www.w3.org/Graphics/SVG/1.1/DTD/svg11.dtd">
<!-- Generated by graphviz version 2.43.0 (0)
 -->
<!-- Title: src/security/authenticator_resolver.cpp Pages: 1 -->
<!--zoomable 346 -->

<svg id="main" version="1.1" xmlns="http://www.w3.org/2000/svg" xmlns:xlink="http://www.w3.org/1999/xlink" xml:space="preserve" onload="init(evt)">
<style type="text/css"><![CDATA[
.node, .edge {opacity: 0.7;}
.node.selected, .edge.selected {opacity: 1;}
.edge:hover path { stroke: red; }
.edge:hover polygon { stroke: red; fill: red; }
]]></style>

<defs>
  <circle id="rim" cx="0" cy="0" r="7"/>
  <circle id="rim2" cx="0" cy="0" r="3.5"/>
  <g id="zoomPlus">
    <use xlink:href="#rim" fill="#404040"><set attributeName="fill" to="#808080" begin="zoomplus.mouseover" end="zoomplus.mouseout"/></use>
    <path d="M-4,0h8M0,-4v8" fill="none" stroke="white" stroke-width="1.5" pointer-events="none"/>
  </g>
  <g id="zoomMin">
    <use xlink:href="#rim" fill="#404040"><set attributeName="fill" to="#808080" begin="zoomminus.mouseover" end="zoomminus.mouseout"/></use>
    <path d="M-4,0h8" fill="none" stroke="white" stroke-width="1.5" pointer-events="none"/>
  </g>
  <g id="arrowUp" transform="translate(30 24)">
    <use xlink:href="#rim"/>
    <path pointer-events="none" fill="none" stroke="white" stroke-width="1.5" d="M0,-3.0v7 M-2.5,-0.5L0,-3.0L2.5,-0.5"/>
  </g>
  <g id="arrowRight" transform="rotate(90) translate(36 -43)">
    <use xlink:href="#rim"/>
    <path pointer-events="none" fill="none" stroke="white" stroke-width="1.5" d="M0,-3.0v7 M-2.5,-0.5L0,-3.0L2.5,-0.5"/>
  </g>
  <g id="arrowDown" transform="rotate(180) translate(-30 -48)">
    <use xlink:href="#rim"/>
    <path pointer-events="none" fill="none" stroke="white" stroke-width="1.5" d="M0,-3.0v7 M-2.5,-0.5L0,-3.0L2.5,-0.5"/>
  </g>
  <g id="arrowLeft" transform="rotate(270) translate(-36 17)">
    <use xlink:href="#rim"/>
    <path pointer-events="none" fill="none" stroke="white" stroke-width="1.5" d="M0,-3.0v7 M-2.5,-0.5L0,-3.0L2.5,-0.5"/>
  </g>
  <g id="resetDef">
    <use xlink:href="#rim2" fill="#404040"><set attributeName="fill" to="#808080" begin="reset.mouseover" end="reset.mouseout"/></use>
  </g>
</defs>
<script type="application/ecmascript">
var viewWidth = 918;
var viewHeight = 346;
var sectionId = 'dynsection-0';
</script>
<script type="application/ecmascript" xlink:href="svg.min.js"/>
<svg id="graph" class="graph">
<g id="viewport">
<title>src/security/authenticator_resolver.cpp</title>
<!-- Node1 -->
<g id="Node000001" class="node">
<title>Node1</title>
<g id="a_Node000001"><a xlink:title=" ">
<polygon fill="#999999" stroke="#666666" points="694,-338 553,-338 553,-308 694,-308 694,-338"/>
<text text-anchor="start" x="561" y="-326" font-family="Helvetica,sans-Serif" font-size="10.00">src/security/authenticator</text>
<text text-anchor="middle" x="623.5" y="-315" font-family="Helvetica,sans-Serif" font-size="10.00">_resolver.cpp</text>
</a>
</g>
</g>
<!-- Node2 -->
<g id="Node000002" class="node">
<title>Node2</title>
<g id="a_Node000002"><a xlink:href="authenticator__resolver_8h.html" target="_top" xlink:title=" ">
<polygon fill="white" stroke="#666666" points="354.5,-272 192.5,-272 192.5,-242 354.5,-242 354.5,-272"/>
<text text-anchor="start" x="200.5" y="-260" font-family="Helvetica,sans-Serif" font-size="10.00">mosaic/security/authenticator</text>
<text text-anchor="middle" x="273.5" y="-249" font-family="Helvetica,sans-Serif" font-size="10.00">_resolver.h</text>
</a>
</g>
</g>
<!-- Node1&#45;&gt;Node2 -->
<g id="edge1_Node000001_Node000002" class="edge">
<title>Node1&#45;&gt;Node2</title>
<g id="a_edge1_Node000001_Node000002"><a xlink:title=" ">
<path fill="none" stroke="#63b8ff" d="M552.67,-309.05C497.16,-298.9 419.65,-284.73 360.39,-273.89"/>
<polygon fill="#63b8ff" stroke="#63b8ff" points="360.76,-270.4 350.3,-272.04 359.5,-277.28 360.76,-270.4"/>
</a>
</g>
</g>
<!-- Node12 -->
<g id="Node000012" class="node">
<title>Node12</title>
<g id="a_Node000012"><a xlink:title=" ">
<polygon fill="#e0e0e0" stroke="#999999" points="901.5,-266.5 841.5,-266.5 841.5,-247.5 901.5,-247.5 901.5,-266.5"/>
<text text-anchor="middle" x="871.5" y="-254.5" font-family="Helvetica,sans-Serif" font-size="10.00">iostream</text>
</a>
</g>
</g>
<!-- Node1&#45;&gt;Node12 -->
<g id="edge19_Node000001_Node000012" class="edge">
<title>Node1&#45;&gt;Node12</title>
<g id="a_edge19_Node000001_Node000012"><a xlink:title=" ">
<path fill="none" stroke="#63b8ff" d="M690.35,-307.97C731.62,-298.83 785.48,-286.02 832.5,-272 834.77,-271.32 837.1,-270.59 839.44,-269.82"/>
<polygon fill="#63b8ff" stroke="#63b8ff" points="840.63,-273.12 848.95,-266.57 838.36,-266.49 840.63,-273.12"/>
</a>
</g>
</g>
<!-- Node13 -->
<g id="Node000013" class="node">
<title>Node13</title>
<g id="a_Node000013"><a xlink:href="log_8h.html" target="_top" xlink:title=" ">
<polygon fill="white" stroke="#666666" points="823,-266.5 710,-266.5 710,-247.5 823,-247.5 823,-266.5"/>
<text text-anchor="middle" x="766.5" y="-254.5" font-family="Helvetica,sans-Serif" font-size="10.00">mosaic/logger/log.h</text>
</a>
</g>
</g>
<!-- Node1&#45;&gt;Node13 -->
<g id="edge20_Node000001_Node000013" class="edge">
<title>Node1&#45;&gt;Node13</title>
<g id="a_edge20_Node000001_Node000013"><a xlink:title=" ">
<path fill="none" stroke="#63b8ff" d="M654.88,-307.95C679.74,-296.83 714.16,-281.42 738.18,-270.67"/>
<polygon fill="#63b8ff" stroke="#63b8ff" points="739.77,-273.8 747.47,-266.52 736.91,-267.41 739.77,-273.8"/>
</a>
</g>
</g>
<!-- Node19 -->
<g id="Node000019" class="node">
<title>Node19</title>
<g id="a_Node000019"><a xlink:href="no__auth__authenticator_8h.html" target="_top" xlink:title=" ">
<polygon fill="white" stroke="#666666" points="692,-272 555,-272 555,-242 692,-242 692,-272"/>
<text text-anchor="start" x="563" y="-260" font-family="Helvetica,sans-Serif" font-size="10.00">mosaic/security/impl</text>
<text text-anchor="middle" x="623.5" y="-249" font-family="Helvetica,sans-Serif" font-size="10.00">/no_auth_authenticator.h</text>
</a>
</g>
</g>
<!-- Node1&#45;&gt;Node19 -->
<g id="edge30_Node000001_Node000019" class="edge">
<title>Node1&#45;&gt;Node19</title>
<g id="a_edge30_Node000001_Node000019"><a xlink:title=" ">
<path fill="none" stroke="#63b8ff" d="M623.5,-307.8C623.5,-300.34 623.5,-290.99 623.5,-282.41"/>
<polygon fill="#63b8ff" stroke="#63b8ff" points="627,-282.16 623.5,-272.16 620,-282.16 627,-282.16"/>
</a>
</g>
</g>
<!-- Node21 -->
<g id="Node000021" class="node">
<title>Node21</title>
<g id="a_Node000021"><a xlink:href="simple__token__authenticator_8h.html" target="_top" xlink:title=" ">
<polygon fill="white" stroke="#666666" points="536.5,-272 372.5,-272 372.5,-242 536.5,-242 536.5,-272"/>
<text text-anchor="start" x="380.5" y="-260" font-family="Helvetica,sans-Serif" font-size="10.00">mosaic/security/impl</text>
<text text-anchor="middle" x="454.5" y="-249" font-family="Helvetica,sans-Serif" font-size="10.00">/simple_token_authenticator.h</text>
</a>
</g>
</g>
<!-- Node1&#45;&gt;Node21 -->
<g id="edge34_Node000001_Node000021" class="edge">
<title>Node1&#45;&gt;Node21</title>
<g id="a_edge34_Node000001_Node000021"><a xlink:title=" ">
<path fill="none" stroke="#63b8ff" d="M586.41,-307.95C561.32,-298.45 527.97,-285.82 501.09,-275.64"/>
<polygon fill="#63b8ff" stroke="#63b8ff" points="502.09,-272.28 491.5,-272.01 499.61,-278.83 502.09,-272.28"/>
</a>
</g>
</g>
<!-- Node3 -->
<g id="Node000003" class="node">
<title>Node3</title>
<g id="a_Node000003"><a xlink:title=" ">
<polygon fill="#e0e0e0" stroke="#999999" points="501.5,-79.5 443.5,-79.5 443.5,-60.5 501.5,-60.5 501.5,-79.5"/>
<text text-anchor="middle" x="472.5" y="-67.5" font-family="Helvetica,sans-Serif" font-size="10.00">memory</text>
</a>
</g>
</g>
<!-- Node2&#45;&gt;Node3 -->
<g id="edge2_Node000002_Node000003" class="edge">
<title>Node2&#45;&gt;Node3</title>
<g id="a_edge2_Node000002_Node000003"><a xlink:title=" ">
<path fill="none" stroke="#63b8ff" d="M295.07,-241.83C309.06,-232.29 327.43,-219.1 342.5,-206 387.92,-166.51 435.58,-113.6 458.52,-87.29"/>
<polygon fill="#63b8ff" stroke="#63b8ff" points="461.17,-89.58 465.07,-79.73 455.88,-85 461.17,-89.58"/>
</a>
</g>
</g>
<!-- Node4 -->
<g id="Node000004" class="node">
<title>Node4</title>
<g id="a_Node000004"><a xlink:title=" ">
<polygon fill="#e0e0e0" stroke="#999999" points="93,-19 0,-19 0,0 93,0 93,-19"/>
<text text-anchor="middle" x="46.5" y="-7" font-family="Helvetica,sans-Serif" font-size="10.00">unordered_map</text>
</a>
</g>
</g>
<!-- Node2&#45;&gt;Node4 -->
<g id="edge3_Node000002_Node000004" class="edge">
<title>Node2&#45;&gt;Node4</title>
<g id="a_edge3_Node000002_Node000004"><a xlink:title=" ">
<path fill="none" stroke="#63b8ff" d="M208.98,-241.99C184.66,-234.36 157.97,-222.9 137.5,-206 80.48,-158.93 57.28,-68.12 49.65,-29.08"/>
<polygon fill="#63b8ff" stroke="#63b8ff" points="53.07,-28.34 47.83,-19.13 46.19,-29.59 53.07,-28.34"/>
</a>
</g>
</g>
<!-- Node5 -->
<g id="Node000005" class="node">
<title>Node5</title>
<g id="a_Node000005"><a xlink:href="auth__type_8h.html" target="_top" xlink:title=" ">
<polygon fill="white" stroke="#666666" points="425.5,-79.5 351.5,-79.5 351.5,-60.5 425.5,-60.5 425.5,-79.5"/>
<text text-anchor="middle" x="388.5" y="-67.5" font-family="Helvetica,sans-Serif" font-size="10.00">auth_type.h</text>
</a>
</g>
</g>
<!-- Node2&#45;&gt;Node5 -->
<g id="edge4_Node000002_Node000005" class="edge">
<title>Node2&#45;&gt;Node5</title>
<g id="a_edge4_Node000002_Node000005"><a xlink:title=" ">
<path fill="none" stroke="#63b8ff" d="M288.73,-241.59C298.29,-232.06 310.47,-218.97 319.5,-206 346.72,-166.9 369.94,-115.62 381.21,-88.91"/>
<polygon fill="#63b8ff" stroke="#63b8ff" points="384.45,-90.24 385.05,-79.67 377.98,-87.56 384.45,-90.24"/>
</a>
</g>
</g>
<!-- Node7 -->
<g id="Node000007" class="node">
<title>Node7</title>
<g id="a_Node000007"><a xlink:href="authenticator__factory_8h.html" target="_top" xlink:title=" ">
<polygon fill="white" stroke="#666666" points="295,-200.5 166,-200.5 166,-181.5 295,-181.5 295,-200.5"/>
<text text-anchor="middle" x="230.5" y="-188.5" font-family="Helvetica,sans-Serif" font-size="10.00">authenticator_factory.h</text>
</a>
</g>
</g>
<!-- Node2&#45;&gt;Node7 -->
<g id="edge6_Node000002_Node000007" class="edge">
<title>Node2&#45;&gt;Node7</title>
<g id="a_edge6_Node000002_Node000007"><a xlink:title=" ">
<path fill="none" stroke="#63b8ff" d="M263.96,-241.8C257.52,-232.21 248.98,-219.5 242.14,-209.32"/>
<polygon fill="#63b8ff" stroke="#63b8ff" points="244.92,-207.19 236.44,-200.84 239.11,-211.1 244.92,-207.19"/>
</a>
</g>
</g>
<!-- Node8 -->
<g id="Node000008" class="node">
<title>Node8</title>
<g id="a_Node000008"><a xlink:href="i__mosaic__authenticator_8h.html" target="_top" xlink:title=" ">
<polygon fill="white" stroke="#666666" points="322,-140 183,-140 183,-121 322,-121 322,-140"/>
<text text-anchor="middle" x="252.5" y="-128" font-family="Helvetica,sans-Serif" font-size="10.00">i_mosaic_authenticator.h</text>
</a>
</g>
</g>
<!-- Node2&#45;&gt;Node8 -->
<g id="edge17_Node000002_Node000008" class="edge">
<title>Node2&#45;&gt;Node8</title>
<g id="a_edge17_Node000002_Node000008"><a xlink:title=" ">
<path fill="none" stroke="#63b8ff" d="M285.57,-241.89C297.86,-225.72 313.75,-198.55 303.5,-176 297.88,-163.63 286.93,-153.36 276.61,-145.81"/>
<polygon fill="#63b8ff" stroke="#63b8ff" points="278.47,-142.84 268.23,-140.12 274.54,-148.63 278.47,-142.84"/>
</a>
</g>
</g>
<!-- Node9 -->
<g id="Node000009" class="node">
<title>Node9</title>
<g id="a_Node000009"><a xlink:href="configs__decl_8h.html" target="_top" xlink:title=" ">
<polygon fill="white" stroke="#666666" points="197.5,-79.5 73.5,-79.5 73.5,-60.5 197.5,-60.5 197.5,-79.5"/>
<text text-anchor="middle" x="135.5" y="-67.5" font-family="Helvetica,sans-Serif" font-size="10.00">mosaic/configs_decl.h</text>
</a>
</g>
</g>
<!-- Node2&#45;&gt;Node9 -->
<g id="edge18_Node000002_Node000009" class="edge">
<title>Node2&#45;&gt;Node9</title>
<g id="a_edge18_Node000002_Node000009"><a xlink:title=" ">
<path fill="none" stroke="#63b8ff" d="M209.99,-241.91C190.04,-234.43 169.78,-223.09 156.5,-206 130.02,-171.93 130.57,-118.1 133.11,-89.81"/>
<polygon fill="#63b8ff" stroke="#63b8ff" points="136.61,-90 134.2,-79.68 129.65,-89.25 136.61,-90"/>
</a>
</g>
</g>
<!-- Node6 -->
<g id="Node000006" class="node">
<title>Node6</title>
<g id="a_Node000006"><a xlink:title=" ">
<polygon fill="#e0e0e0" stroke="#999999" points="410.5,-19 366.5,-19 366.5,0 410.5,0 410.5,-19"/>
<text text-anchor="middle" x="388.5" y="-7" font-family="Helvetica,sans-Serif" font-size="10.00">string</text>
</a>
</g>
</g>
<!-- Node5&#45;&gt;Node6 -->
<g id="edge5_Node000005_Node000006" class="edge">
<title>Node5&#45;&gt;Node6</title>
<g id="a_edge5_Node000005_Node000006"><a xlink:title=" ">
<path fill="none" stroke="#63b8ff" d="M388.5,-60.37C388.5,-52.25 388.5,-39.81 388.5,-29.39"/>
<polygon fill="#63b8ff" stroke="#63b8ff" points="392,-29.17 388.5,-19.17 385,-29.17 392,-29.17"/>
</a>
</g>
</g>
<!-- Node7&#45;&gt;Node3 -->
<g id="edge7_Node000007_Node000003" class="edge">
<title>Node7&#45;&gt;Node3</title>
<g id="a_edge7_Node000007_Node000003"><a xlink:title=" ">
<path fill="none" stroke="#63b8ff" d="M247.9,-181.44C289.66,-160.91 395.77,-108.73 445.72,-84.17"/>
<polygon fill="#63b8ff" stroke="#63b8ff" points="447.5,-87.19 454.93,-79.64 444.41,-80.91 447.5,-87.19"/>
</a>
</g>
</g>
<!-- Node7&#45;&gt;Node8 -->
<g id="edge8_Node000007_Node000008" class="edge">
<title>Node7&#45;&gt;Node8</title>
<g id="a_edge8_Node000007_Node000008"><a xlink:title=" ">
<path fill="none" stroke="#63b8ff" d="M233.75,-181.37C236.87,-173.07 241.68,-160.28 245.65,-149.72"/>
<polygon fill="#63b8ff" stroke="#63b8ff" points="249,-150.76 249.24,-140.17 242.44,-148.3 249,-150.76"/>
</a>
</g>
</g>
<!-- Node7&#45;&gt;Node9 -->
<g id="edge16_Node000007_Node000009" class="edge">
<title>Node7&#45;&gt;Node9</title>
<g id="a_edge16_Node000007_Node000009"><a xlink:title=" ">
<path fill="none" stroke="#63b8ff" d="M218.49,-181.45C206.14,-172.23 186.86,-156.62 173.5,-140 160.81,-124.22 150.09,-103.61 143.3,-89.04"/>
<polygon fill="#63b8ff" stroke="#63b8ff" points="146.38,-87.34 139.09,-79.65 139.99,-90.21 146.38,-87.34"/>
</a>
</g>
</g>
<!-- Node8&#45;&gt;Node3 -->
<g id="edge9_Node000008_Node000003" class="edge">
<title>Node8&#45;&gt;Node3</title>
<g id="a_edge9_Node000008_Node000003"><a xlink:title=" ">
<path fill="none" stroke="#63b8ff" d="M292.98,-120.98C330.1,-112.85 386.44,-99.68 434.5,-85 436.63,-84.35 438.82,-83.65 441.01,-82.91"/>
<polygon fill="#63b8ff" stroke="#63b8ff" points="442.26,-86.18 450.54,-79.57 439.95,-79.58 442.26,-86.18"/>
</a>
</g>
</g>
<!-- Node8&#45;&gt;Node5 -->
<g id="edge10_Node000008_Node000005" class="edge">
<title>Node8&#45;&gt;Node5</title>
<g id="a_edge10_Node000008_Node000005"><a xlink:title=" ">
<path fill="none" stroke="#63b8ff" d="M272.28,-120.99C295.14,-111.16 332.99,-94.88 359.26,-83.58"/>
<polygon fill="#63b8ff" stroke="#63b8ff" points="360.9,-86.68 368.7,-79.52 358.13,-80.25 360.9,-86.68"/>
</a>
</g>
</g>
<!-- Node8&#45;&gt;Node9 -->
<g id="edge11_Node000008_Node000009" class="edge">
<title>Node8&#45;&gt;Node9</title>
<g id="a_edge11_Node000008_Node000009"><a xlink:title=" ">
<path fill="none" stroke="#63b8ff" d="M235.49,-120.99C216.08,-111.29 184.11,-95.31 161.56,-84.03"/>
<polygon fill="#63b8ff" stroke="#63b8ff" points="163.04,-80.86 152.53,-79.52 159.91,-87.12 163.04,-80.86"/>
</a>
</g>
</g>
<!-- Node11 -->
<g id="Node000011" class="node">
<title>Node11</title>
<g id="a_Node000011"><a xlink:title=" ">
<polygon fill="#e0e0e0" stroke="#999999" points="333.5,-85 215.5,-85 215.5,-55 333.5,-55 333.5,-85"/>
<text text-anchor="start" x="223.5" y="-73" font-family="Helvetica,sans-Serif" font-size="10.00">mosaic/json_forward</text>
<text text-anchor="middle" x="274.5" y="-62" font-family="Helvetica,sans-Serif" font-size="10.00">_decl.h</text>
</a>
</g>
</g>
<!-- Node8&#45;&gt;Node11 -->
<g id="edge15_Node000008_Node000011" class="edge">
<title>Node8&#45;&gt;Node11</title>
<g id="a_edge15_Node000008_Node000011"><a xlink:title=" ">
<path fill="none" stroke="#63b8ff" d="M255.75,-120.87C258.34,-113.96 262.12,-103.93 265.6,-94.67"/>
<polygon fill="#63b8ff" stroke="#63b8ff" points="268.95,-95.71 269.19,-85.11 262.4,-93.24 268.95,-95.71"/>
</a>
</g>
</g>
<!-- Node9&#45;&gt;Node4 -->
<g id="edge13_Node000009_Node000004" class="edge">
<title>Node9&#45;&gt;Node4</title>
<g id="a_edge13_Node000009_Node000004"><a xlink:title=" ">
<path fill="none" stroke="#63b8ff" d="M122.37,-60.37C108.17,-51.04 85.3,-36.01 68.38,-24.88"/>
<polygon fill="#63b8ff" stroke="#63b8ff" points="69.97,-21.74 59.69,-19.17 66.12,-27.58 69.97,-21.74"/>
</a>
</g>
</g>
<!-- Node9&#45;&gt;Node6 -->
<g id="edge12_Node000009_Node000006" class="edge">
<title>Node9&#45;&gt;Node6</title>
<g id="a_edge12_Node000009_Node000006"><a xlink:title=" ">
<path fill="none" stroke="#63b8ff" d="M172.29,-60.49C221.85,-49.03 309.27,-28.82 356.34,-17.94"/>
<polygon fill="#63b8ff" stroke="#63b8ff" points="357.34,-21.3 366.29,-15.64 355.76,-14.48 357.34,-21.3"/>
</a>
</g>
</g>
<!-- Node10 -->
<g id="Node000010" class="node">
<title>Node10</title>
<g id="a_Node000010"><a xlink:title=" ">
<polygon fill="#e0e0e0" stroke="#999999" points="159,-19 112,-19 112,0 159,0 159,-19"/>
<text text-anchor="middle" x="135.5" y="-7" font-family="Helvetica,sans-Serif" font-size="10.00">vector</text>
</a>
</g>
</g>
<!-- Node9&#45;&gt;Node10 -->
<g id="edge14_Node000009_Node000010" class="edge">
<title>Node9&#45;&gt;Node10</title>
<g id="a_edge14_Node000009_Node000010"><a xlink:title=" ">
<path fill="none" stroke="#63b8ff" d="M135.5,-60.37C135.5,-52.25 135.5,-39.81 135.5,-29.39"/>
<polygon fill="#63b8ff" stroke="#63b8ff" points="139,-29.17 135.5,-19.17 132,-29.17 139,-29.17"/>
</a>
</g>
</g>
<!-- Node14 -->
<g id="Node000014" class="node">
<title>Node14</title>
<g id="a_Node000014"><a xlink:href="i__logger_8h.html" target="_top" xlink:title=" ">
<polygon fill="white" stroke="#666666" points="798.5,-200.5 734.5,-200.5 734.5,-181.5 798.5,-181.5 798.5,-200.5"/>
<text text-anchor="middle" x="766.5" y="-188.5" font-family="Helvetica,sans-Serif" font-size="10.00">i_logger.h</text>
</a>
</g>
</g>
<!-- Node13&#45;&gt;Node14 -->
<g id="edge21_Node000013_Node000014" class="edge">
<title>Node13&#45;&gt;Node14</title>
<g id="a_edge21_Node000013_Node000014"><a xlink:title=" ">
<path fill="none" stroke="#63b8ff" d="M766.5,-247.37C766.5,-238.16 766.5,-223.29 766.5,-211.27"/>
<polygon fill="#63b8ff" stroke="#63b8ff" points="770,-210.91 766.5,-200.91 763,-210.91 770,-210.91"/>
</a>
</g>
</g>
<!-- Node17 -->
<g id="Node000017" class="node">
<title>Node17</title>
<g id="a_Node000017"><a xlink:href="log__service_8h.html" target="_top" xlink:title=" ">
<polygon fill="white" stroke="#666666" points="736,-140 655,-140 655,-121 736,-121 736,-140"/>
<text text-anchor="middle" x="695.5" y="-128" font-family="Helvetica,sans-Serif" font-size="10.00">log_service.h</text>
</a>
</g>
</g>
<!-- Node13&#45;&gt;Node17 -->
<g id="edge29_Node000013_Node000017" class="edge">
<title>Node13&#45;&gt;Node17</title>
<g id="a_edge29_Node000013_Node000017"><a xlink:title=" ">
<path fill="none" stroke="#63b8ff" d="M758.06,-247.41C749.07,-237.9 734.88,-221.84 725.5,-206 714.86,-188.04 706.41,-165.62 701.22,-150.09"/>
<polygon fill="#63b8ff" stroke="#63b8ff" points="704.42,-148.61 698.04,-140.16 697.76,-150.75 704.42,-148.61"/>
</a>
</g>
</g>
<!-- Node14&#45;&gt;Node6 -->
<g id="edge22_Node000014_Node000006" class="edge">
<title>Node14&#45;&gt;Node6</title>
<g id="a_edge22_Node000014_Node000006"><a xlink:title=" ">
<path fill="none" stroke="#63b8ff" d="M771.52,-181.41C784.56,-157.86 816.24,-91.64 783.5,-55 759.44,-28.08 510.82,-15.44 420.81,-11.72"/>
<polygon fill="#63b8ff" stroke="#63b8ff" points="420.78,-8.21 410.64,-11.31 420.49,-15.21 420.78,-8.21"/>
</a>
</g>
</g>
<!-- Node15 -->
<g id="Node000015" class="node">
<title>Node15</title>
<g id="a_Node000015"><a xlink:title=" ">
<polygon fill="#e0e0e0" stroke="#999999" points="910,-140 831,-140 831,-121 910,-121 910,-140"/>
<text text-anchor="middle" x="870.5" y="-128" font-family="Helvetica,sans-Serif" font-size="10.00">fmt/format.h</text>
</a>
</g>
</g>
<!-- Node14&#45;&gt;Node15 -->
<g id="edge23_Node000014_Node000015" class="edge">
<title>Node14&#45;&gt;Node15</title>
<g id="a_edge23_Node000014_Node000015"><a xlink:title=" ">
<path fill="none" stroke="#63b8ff" d="M781.85,-181.37C798.82,-171.82 826.4,-156.31 846.29,-145.12"/>
<polygon fill="#63b8ff" stroke="#63b8ff" points="848.09,-148.12 855.09,-140.17 844.66,-142.02 848.09,-148.12"/>
</a>
</g>
</g>
<!-- Node16 -->
<g id="Node000016" class="node">
<title>Node16</title>
<g id="a_Node000016"><a xlink:href="log__level_8h.html" target="_top" xlink:title=" ">
<polygon fill="white" stroke="#666666" points="774.5,-79.5 704.5,-79.5 704.5,-60.5 774.5,-60.5 774.5,-79.5"/>
<text text-anchor="middle" x="739.5" y="-67.5" font-family="Helvetica,sans-Serif" font-size="10.00">log_level.h</text>
</a>
</g>
</g>
<!-- Node14&#45;&gt;Node16 -->
<g id="edge24_Node000014_Node000016" class="edge">
<title>Node14&#45;&gt;Node16</title>
<g id="a_edge24_Node000014_Node000016"><a xlink:title=" ">
<path fill="none" stroke="#63b8ff" d="M764.56,-181.44C760.22,-162.32 749.66,-115.77 743.73,-89.62"/>
<polygon fill="#63b8ff" stroke="#63b8ff" points="747.12,-88.78 741.5,-79.8 740.3,-90.33 747.12,-88.78"/>
</a>
</g>
</g>
<!-- Node14&#45;&gt;Node17 -->
<g id="edge25_Node000014_Node000017" class="edge">
<title>Node14&#45;&gt;Node17</title>
<g id="a_edge25_Node000014_Node000017"><a xlink:title=" ">
<path fill="none" stroke="#63b8ff" d="M756.02,-181.37C745.01,-172.3 727.46,-157.84 714.09,-146.82"/>
<polygon fill="#63b8ff" stroke="#63b8ff" points="715.96,-143.83 706.02,-140.17 711.51,-149.23 715.96,-143.83"/>
</a>
</g>
</g>
<!-- Node17&#45;&gt;Node3 -->
<g id="edge26_Node000017_Node000003" class="edge">
<title>Node17&#45;&gt;Node3</title>
<g id="a_edge26_Node000017_Node000003"><a xlink:title=" ">
<path fill="none" stroke="#63b8ff" d="M663.07,-120.99C622.93,-110.46 554.6,-92.54 511.59,-81.26"/>
<polygon fill="#63b8ff" stroke="#63b8ff" points="512.33,-77.83 501.77,-78.68 510.55,-84.6 512.33,-77.83"/>
</a>
</g>
</g>
<!-- Node17&#45;&gt;Node16 -->
<g id="edge28_Node000017_Node000016" class="edge">
<title>Node17&#45;&gt;Node16</title>
<g id="a_edge28_Node000017_Node000016"><a xlink:title=" ">
<path fill="none" stroke="#63b8ff" d="M701.99,-120.87C708.49,-112.23 718.66,-98.7 726.78,-87.92"/>
<polygon fill="#63b8ff" stroke="#63b8ff" points="729.77,-89.76 732.98,-79.67 724.17,-85.56 729.77,-89.76"/>
</a>
</g>
</g>
<!-- Node18 -->
<g id="Node000018" class="node">
<title>Node18</title>
<g id="a_Node000018"><a xlink:title=" ">
<polygon fill="#e0e0e0" stroke="#999999" points="686,-79.5 617,-79.5 617,-60.5 686,-60.5 686,-79.5"/>
<text text-anchor="middle" x="651.5" y="-67.5" font-family="Helvetica,sans-Serif" font-size="10.00">type_traits</text>
</a>
</g>
</g>
<!-- Node17&#45;&gt;Node18 -->
<g id="edge27_Node000017_Node000018" class="edge">
<title>Node17&#45;&gt;Node18</title>
<g id="a_edge27_Node000017_Node000018"><a xlink:title=" ">
<path fill="none" stroke="#63b8ff" d="M689.01,-120.87C682.51,-112.23 672.34,-98.7 664.22,-87.92"/>
<polygon fill="#63b8ff" stroke="#63b8ff" points="666.83,-85.56 658.02,-79.67 661.23,-89.76 666.83,-85.56"/>
</a>
</g>
</g>
<!-- Node19&#45;&gt;Node3 -->
<g id="edge31_Node000019_Node000003" class="edge">
<title>Node19&#45;&gt;Node3</title>
<g id="a_edge31_Node000019_Node000003"><a xlink:title=" ">
<path fill="none" stroke="#63b8ff" d="M623.36,-241.91C622.58,-225.04 619.28,-196.48 606.5,-176 579.99,-133.5 529.86,-101.26 498.99,-84.31"/>
<polygon fill="#63b8ff" stroke="#63b8ff" points="500.55,-81.18 490.08,-79.55 497.25,-87.35 500.55,-81.18"/>
</a>
</g>
</g>
<!-- Node20 -->
<g id="Node000020" class="node">
<title>Node20</title>
<g id="a_Node000020"><a xlink:href="a__mosaic__authenticator_8h.html" target="_top" xlink:title=" ">
<polygon fill="white" stroke="#666666" points="598,-206 455,-206 455,-176 598,-176 598,-206"/>
<text text-anchor="start" x="463" y="-194" font-family="Helvetica,sans-Serif" font-size="10.00">mosaic/security/a_mosaic</text>
<text text-anchor="middle" x="526.5" y="-183" font-family="Helvetica,sans-Serif" font-size="10.00">_authenticator.h</text>
</a>
</g>
</g>
<!-- Node19&#45;&gt;Node20 -->
<g id="edge32_Node000019_Node000020" class="edge">
<title>Node19&#45;&gt;Node20</title>
<g id="a_edge32_Node000019_Node000020"><a xlink:title=" ">
<path fill="none" stroke="#63b8ff" d="M601.97,-241.8C588.66,-233.01 571.37,-221.61 556.7,-211.93"/>
<polygon fill="#63b8ff" stroke="#63b8ff" points="558.24,-208.75 547.97,-206.16 554.39,-214.59 558.24,-208.75"/>
</a>
</g>
</g>
<!-- Node20&#45;&gt;Node8 -->
<g id="edge33_Node000020_Node000008" class="edge">
<title>Node20&#45;&gt;Node8</title>
<g id="a_edge33_Node000020_Node000008"><a xlink:title=" ">
<path fill="none" stroke="#63b8ff" d="M460.87,-175.99C412.25,-165.61 347,-151.68 302.55,-142.19"/>
<polygon fill="#63b8ff" stroke="#63b8ff" points="303.07,-138.72 292.56,-140.05 301.61,-145.56 303.07,-138.72"/>
</a>
</g>
</g>
<!-- Node21&#45;&gt;Node20 -->
<g id="edge35_Node000021_Node000020" class="edge">
<title>Node21&#45;&gt;Node20</title>
<g id="a_edge35_Node000021_Node000020"><a xlink:title=" ">
<path fill="none" stroke="#63b8ff" d="M470.48,-241.8C479.99,-233.34 492.23,-222.46 502.84,-213.03"/>
<polygon fill="#63b8ff" stroke="#63b8ff" points="505.42,-215.42 510.57,-206.16 500.77,-210.19 505.42,-215.42"/>
</a>
</g>
</g>
</g>
</svg>

<g id="navigator" transform="translate(0 0)" fill="#404254">
  <rect fill="#f2f5e9" fill-opacity="0.5" stroke="#606060" stroke-width=".5" x="0" y="0" width="60" height="60"/>
  <use id="zoomplus" xlink:href="#zoomPlus" x="17" y="9" onmousedown="handleZoom(evt,'in')"/>
  <use id="zoomminus" xlink:href="#zoomMin" x="42" y="9" onmousedown="handleZoom(evt,'out')"/>
  <use id="reset" xlink:href="#resetDef" x="30" y="36" onmousedown="handleReset()"/>
   <use id="arrowup" xlink:href="#arrowUp" x="0" y="0" onmousedown="handlePan(0,-1)"/>
  <use id="arrowright" xlink:href="#arrowRight" x="0" y="0" onmousedown="handlePan(1,0)"/>
  <use id="arrowdown" xlink:href="#arrowDown" x="0" y="0" onmousedown="handlePan(0,1)"/>
  <use id="arrowleft" xlink:href="#arrowLeft" x="0" y="0" onmousedown="handlePan(-1,0)"/>
</g>
<svg viewBox="0 0 15 15" width="100%" height="30px" preserveAspectRatio="xMaxYMin meet">
 <g id="arrow_out" transform="scale(0.3 0.3)">
  <a xlink:href="authenticator__resolver_8cpp__incl_org.svg" target="_base">
   <rect id="button" ry="5" rx="5" y="6" x="6" height="38" width="38"
        fill="#f2f5e9" fill-opacity="0.5" stroke="#606060" stroke-width="1.0"/>
   <path id="arrow"
     d="M 11.500037,31.436501 C 11.940474,20.09759 22.043105,11.32322 32.158766,21.979434 L 37.068811,17.246167 C 37.068811,17.246167 37.088388,32 37.088388,32 L 22.160133,31.978069 C 22.160133,31.978069 26.997745,27.140456 26.997745,27.140456 C 18.528582,18.264221 13.291696,25.230495 11.500037,31.436501 z"
     style="fill:#404040;"/>
  </a>
 </g>
</svg>

<style type='text/css'>
<![CDATA[
[data-mouse-over-selected='false'] { opacity: 0.7; }
[data-mouse-over-selected='true']  { opacity: 1.0; }
]]>
</style>
<script type="application/ecmascript"><![CDATA[
document.addEventListener('DOMContentLoaded', (event) => {
  highlightEdges();
  highlightAdjacentNodes();
});
]]></script>
</svg>
