<?xml version="1.0" encoding="UTF-8" standalone="no"?>
<!DOCTYPE svg PUBLIC "-//W3C//DTD SVG 1.1//EN"
 "http://www.w3.org/Graphics/SVG/1.1/DTD/svg11.dtd">
<!-- Generated by graphviz version 2.43.0 (0)
 -->
<!-- Title: include/mosaic/auto_configurer/auto_configurer.h Pages: 1 -->
<!--zoomable 511 -->

<svg id="main" version="1.1" xmlns="http://www.w3.org/2000/svg" xmlns:xlink="http://www.w3.org/1999/xlink" xml:space="preserve" onload="init(evt)">
<style type="text/css"><![CDATA[
.node, .edge {opacity: 0.7;}
.node.selected, .edge.selected {opacity: 1;}
.edge:hover path { stroke: red; }
.edge:hover polygon { stroke: red; fill: red; }
]]></style>

<defs>
  <circle id="rim" cx="0" cy="0" r="7"/>
  <circle id="rim2" cx="0" cy="0" r="3.5"/>
  <g id="zoomPlus">
    <use xlink:href="#rim" fill="#404040"><set attributeName="fill" to="#808080" begin="zoomplus.mouseover" end="zoomplus.mouseout"/></use>
    <path d="M-4,0h8M0,-4v8" fill="none" stroke="white" stroke-width="1.5" pointer-events="none"/>
  </g>
  <g id="zoomMin">
    <use xlink:href="#rim" fill="#404040"><set attributeName="fill" to="#808080" begin="zoomminus.mouseover" end="zoomminus.mouseout"/></use>
    <path d="M-4,0h8" fill="none" stroke="white" stroke-width="1.5" pointer-events="none"/>
  </g>
  <g id="arrowUp" transform="translate(30 24)">
    <use xlink:href="#rim"/>
    <path pointer-events="none" fill="none" stroke="white" stroke-width="1.5" d="M0,-3.0v7 M-2.5,-0.5L0,-3.0L2.5,-0.5"/>
  </g>
  <g id="arrowRight" transform="rotate(90) translate(36 -43)">
    <use xlink:href="#rim"/>
    <path pointer-events="none" fill="none" stroke="white" stroke-width="1.5" d="M0,-3.0v7 M-2.5,-0.5L0,-3.0L2.5,-0.5"/>
  </g>
  <g id="arrowDown" transform="rotate(180) translate(-30 -48)">
    <use xlink:href="#rim"/>
    <path pointer-events="none" fill="none" stroke="white" stroke-width="1.5" d="M0,-3.0v7 M-2.5,-0.5L0,-3.0L2.5,-0.5"/>
  </g>
  <g id="arrowLeft" transform="rotate(270) translate(-36 17)">
    <use xlink:href="#rim"/>
    <path pointer-events="none" fill="none" stroke="white" stroke-width="1.5" d="M0,-3.0v7 M-2.5,-0.5L0,-3.0L2.5,-0.5"/>
  </g>
  <g id="resetDef">
    <use xlink:href="#rim2" fill="#404040"><set attributeName="fill" to="#808080" begin="reset.mouseover" end="reset.mouseout"/></use>
  </g>
</defs>
<script type="application/ecmascript">
var viewWidth = 1199;
var viewHeight = 511;
var sectionId = 'dynsection-0';
</script>
<script type="application/ecmascript" xlink:href="svg.min.js"/>
<svg id="graph" class="graph">
<g id="viewport">
<title>include/mosaic/auto_configurer/auto_configurer.h</title>
<!-- Node1 -->
<g id="Node000001" class="node">
<title>Node1</title>
<g id="a_Node000001"><a xlink:title=" ">
<polygon fill="#999999" stroke="#666666" points="802,-503 644,-503 644,-473 802,-473 802,-503"/>
<text text-anchor="start" x="652" y="-491" font-family="Helvetica,sans-Serif" font-size="10.00">include/mosaic/auto</text>
<text text-anchor="middle" x="723" y="-480" font-family="Helvetica,sans-Serif" font-size="10.00">_configurer/auto_configurer.h</text>
</a>
</g>
</g>
<!-- Node2 -->
<g id="Node000002" class="node">
<title>Node2</title>
<g id="a_Node000002"><a xlink:title=" ">
<polygon fill="#e0e0e0" stroke="#999999" points="825,-19 767,-19 767,0 825,0 825,-19"/>
<text text-anchor="middle" x="796" y="-7" font-family="Helvetica,sans-Serif" font-size="10.00">memory</text>
</a>
</g>
</g>
<!-- Node1&#45;&gt;Node2 -->
<g id="edge1_Node000001_Node000002" class="edge">
<title>Node1&#45;&gt;Node2</title>
<g id="a_edge1_Node000001_Node000002"><a xlink:title=" ">
<path fill="none" stroke="#63b8ff" d="M752.4,-472.98C804.05,-446.48 909.45,-383.53 950,-294 998.07,-187.89 866.4,-67.09 815.31,-25.49"/>
<polygon fill="#63b8ff" stroke="#63b8ff" points="817.29,-22.6 807.3,-19.08 812.92,-28.06 817.29,-22.6"/>
</a>
</g>
</g>
<!-- Node3 -->
<g id="Node000003" class="node">
<title>Node3</title>
<g id="a_Node000003"><a xlink:href="i__config__reader_8h.html" target="_top" xlink:title=" ">
<polygon fill="white" stroke="#666666" points="161.5,-437 30.5,-437 30.5,-396 161.5,-396 161.5,-437"/>
<text text-anchor="start" x="38.5" y="-425" font-family="Helvetica,sans-Serif" font-size="10.00">mosaic/auto_configurer</text>
<text text-anchor="start" x="38.5" y="-414" font-family="Helvetica,sans-Serif" font-size="10.00">/config_reader/i_config</text>
<text text-anchor="middle" x="96" y="-403" font-family="Helvetica,sans-Serif" font-size="10.00">_reader.h</text>
</a>
</g>
</g>
<!-- Node1&#45;&gt;Node3 -->
<g id="edge2_Node000001_Node000003" class="edge">
<title>Node1&#45;&gt;Node3</title>
<g id="a_edge2_Node000001_Node000003"><a xlink:title=" ">
<path fill="none" stroke="#63b8ff" d="M643.91,-478.23C522.35,-464.76 291.16,-439.13 171.69,-425.89"/>
<polygon fill="#63b8ff" stroke="#63b8ff" points="171.85,-422.39 161.53,-424.76 171.08,-429.34 171.85,-422.39"/>
</a>
</g>
</g>
<!-- Node9 -->
<g id="Node000009" class="node">
<title>Node9</title>
<g id="a_Node000009"><a xlink:href="i__configurable__connector_8h.html" target="_top" xlink:title=" ">
<polygon fill="white" stroke="#666666" points="610.5,-437 471.5,-437 471.5,-396 610.5,-396 610.5,-437"/>
<text text-anchor="start" x="479.5" y="-425" font-family="Helvetica,sans-Serif" font-size="10.00">mosaic/auto_configurer</text>
<text text-anchor="start" x="479.5" y="-414" font-family="Helvetica,sans-Serif" font-size="10.00">/connector/i_configurable</text>
<text text-anchor="middle" x="541" y="-403" font-family="Helvetica,sans-Serif" font-size="10.00">_connector.h</text>
</a>
</g>
</g>
<!-- Node1&#45;&gt;Node9 -->
<g id="edge8_Node000001_Node000009" class="edge">
<title>Node1&#45;&gt;Node9</title>
<g id="a_edge8_Node000001_Node000009"><a xlink:title=" ">
<path fill="none" stroke="#63b8ff" d="M686.17,-472.94C662.01,-463.71 629.85,-451.43 601.93,-440.77"/>
<polygon fill="#63b8ff" stroke="#63b8ff" points="602.85,-437.37 592.26,-437.07 600.35,-443.91 602.85,-437.37"/>
</a>
</g>
</g>
<!-- Node20 -->
<g id="Node000020" class="node">
<title>Node20</title>
<g id="a_Node000020"><a xlink:href="i__data__channel__handler_8h.html" target="_top" xlink:title=" ">
<polygon fill="white" stroke="#666666" points="791.5,-294 654.5,-294 654.5,-253 791.5,-253 791.5,-294"/>
<text text-anchor="start" x="662.5" y="-282" font-family="Helvetica,sans-Serif" font-size="10.00">mosaic/handlers/data</text>
<text text-anchor="start" x="662.5" y="-271" font-family="Helvetica,sans-Serif" font-size="10.00">_channel/i_data_channel</text>
<text text-anchor="middle" x="723" y="-260" font-family="Helvetica,sans-Serif" font-size="10.00">_handler.h</text>
</a>
</g>
</g>
<!-- Node1&#45;&gt;Node20 -->
<g id="edge50_Node000001_Node000020" class="edge">
<title>Node1&#45;&gt;Node20</title>
<g id="a_edge50_Node000001_Node000020"><a xlink:title=" ">
<path fill="none" stroke="#63b8ff" d="M723,-472.73C723,-438.37 723,-350.47 723,-304.13"/>
<polygon fill="#63b8ff" stroke="#63b8ff" points="726.5,-304.1 723,-294.1 719.5,-304.1 726.5,-304.1"/>
</a>
</g>
</g>
<!-- Node27 -->
<g id="Node000027" class="node">
<title>Node27</title>
<g id="a_Node000027"><a xlink:href="i__media__track__handler_8h.html" target="_top" xlink:title=" ">
<polygon fill="white" stroke="#666666" points="940.5,-294 809.5,-294 809.5,-253 940.5,-253 940.5,-294"/>
<text text-anchor="start" x="817.5" y="-282" font-family="Helvetica,sans-Serif" font-size="10.00">mosaic/handlers/media</text>
<text text-anchor="start" x="817.5" y="-271" font-family="Helvetica,sans-Serif" font-size="10.00">_track/i_media_track</text>
<text text-anchor="middle" x="875" y="-260" font-family="Helvetica,sans-Serif" font-size="10.00">_handler.h</text>
</a>
</g>
</g>
<!-- Node1&#45;&gt;Node27 -->
<g id="edge51_Node000001_Node000027" class="edge">
<title>Node1&#45;&gt;Node27</title>
<g id="a_edge51_Node000001_Node000027"><a xlink:title=" ">
<path fill="none" stroke="#63b8ff" d="M733.21,-472.73C758.1,-437.93 822.25,-348.24 855.05,-302.39"/>
<polygon fill="#63b8ff" stroke="#63b8ff" points="858.01,-304.27 860.98,-294.1 852.32,-300.19 858.01,-304.27"/>
</a>
</g>
</g>
<!-- Node4 -->
<g id="Node000004" class="node">
<title>Node4</title>
<g id="a_Node000004"><a xlink:title=" ">
<polygon fill="#e0e0e0" stroke="#999999" points="68,-354.5 0,-354.5 0,-335.5 68,-335.5 68,-354.5"/>
<text text-anchor="middle" x="34" y="-342.5" font-family="Helvetica,sans-Serif" font-size="10.00">filesystem</text>
</a>
</g>
</g>
<!-- Node3&#45;&gt;Node4 -->
<g id="edge3_Node000003_Node000004" class="edge">
<title>Node3&#45;&gt;Node4</title>
<g id="a_edge3_Node000003_Node000004"><a xlink:title=" ">
<path fill="none" stroke="#63b8ff" d="M78.4,-395.77C69,-385.24 57.57,-372.42 48.66,-362.43"/>
<polygon fill="#63b8ff" stroke="#63b8ff" points="51.14,-359.95 41.87,-354.82 45.91,-364.61 51.14,-359.95"/>
</a>
</g>
</g>
<!-- Node5 -->
<g id="Node000005" class="node">
<title>Node5</title>
<g id="a_Node000005"><a xlink:href="configs__decl_8h.html" target="_top" xlink:title=" ">
<polygon fill="white" stroke="#666666" points="196,-79.5 72,-79.5 72,-60.5 196,-60.5 196,-79.5"/>
<text text-anchor="middle" x="134" y="-67.5" font-family="Helvetica,sans-Serif" font-size="10.00">mosaic/configs_decl.h</text>
</a>
</g>
</g>
<!-- Node3&#45;&gt;Node5 -->
<g id="edge4_Node000003_Node000005" class="edge">
<title>Node3&#45;&gt;Node5</title>
<g id="a_edge4_Node000003_Node000005"><a xlink:title=" ">
<path fill="none" stroke="#63b8ff" d="M96,-395.88C96,-368.65 96,-317.83 96,-274.5 96,-274.5 96,-274.5 96,-201 96,-159.44 114.11,-113.3 125.33,-88.71"/>
<polygon fill="#63b8ff" stroke="#63b8ff" points="128.54,-90.11 129.64,-79.57 122.21,-87.12 128.54,-90.11"/>
</a>
</g>
</g>
<!-- Node6 -->
<g id="Node000006" class="node">
<title>Node6</title>
<g id="a_Node000006"><a xlink:title=" ">
<polygon fill="#e0e0e0" stroke="#999999" points="588,-19 544,-19 544,0 588,0 588,-19"/>
<text text-anchor="middle" x="566" y="-7" font-family="Helvetica,sans-Serif" font-size="10.00">string</text>
</a>
</g>
</g>
<!-- Node5&#45;&gt;Node6 -->
<g id="edge5_Node000005_Node000006" class="edge">
<title>Node5&#45;&gt;Node6</title>
<g id="a_edge5_Node000005_Node000006"><a xlink:title=" ">
<path fill="none" stroke="#63b8ff" d="M196.36,-60.56C289.7,-47.92 462.42,-24.53 533.82,-14.86"/>
<polygon fill="#63b8ff" stroke="#63b8ff" points="534.55,-18.29 543.99,-13.48 533.61,-11.35 534.55,-18.29"/>
</a>
</g>
</g>
<!-- Node7 -->
<g id="Node000007" class="node">
<title>Node7</title>
<g id="a_Node000007"><a xlink:title=" ">
<polygon fill="#e0e0e0" stroke="#999999" points="180.5,-19 87.5,-19 87.5,0 180.5,0 180.5,-19"/>
<text text-anchor="middle" x="134" y="-7" font-family="Helvetica,sans-Serif" font-size="10.00">unordered_map</text>
</a>
</g>
</g>
<!-- Node5&#45;&gt;Node7 -->
<g id="edge6_Node000005_Node000007" class="edge">
<title>Node5&#45;&gt;Node7</title>
<g id="a_edge6_Node000005_Node000007"><a xlink:title=" ">
<path fill="none" stroke="#63b8ff" d="M134,-60.37C134,-52.25 134,-39.81 134,-29.39"/>
<polygon fill="#63b8ff" stroke="#63b8ff" points="137.5,-29.17 134,-19.17 130.5,-29.17 137.5,-29.17"/>
</a>
</g>
</g>
<!-- Node8 -->
<g id="Node000008" class="node">
<title>Node8</title>
<g id="a_Node000008"><a xlink:title=" ">
<polygon fill="#e0e0e0" stroke="#999999" points="246.5,-19 199.5,-19 199.5,0 246.5,0 246.5,-19"/>
<text text-anchor="middle" x="223" y="-7" font-family="Helvetica,sans-Serif" font-size="10.00">vector</text>
</a>
</g>
</g>
<!-- Node5&#45;&gt;Node8 -->
<g id="edge7_Node000005_Node000008" class="edge">
<title>Node5&#45;&gt;Node8</title>
<g id="a_edge7_Node000005_Node000008"><a xlink:title=" ">
<path fill="none" stroke="#63b8ff" d="M147.13,-60.37C161.33,-51.04 184.2,-36.01 201.12,-24.88"/>
<polygon fill="#63b8ff" stroke="#63b8ff" points="203.38,-27.58 209.81,-19.17 199.53,-21.74 203.38,-27.58"/>
</a>
</g>
</g>
<!-- Node9&#45;&gt;Node5 -->
<g id="edge9_Node000009_Node000005" class="edge">
<title>Node9&#45;&gt;Node5</title>
<g id="a_edge9_Node000009_Node000005"><a xlink:title=" ">
<path fill="none" stroke="#63b8ff" d="M471.5,-406.03C355.25,-388.23 134,-345.07 134,-274.5 134,-274.5 134,-274.5 134,-201 134,-161.45 134,-115.13 134,-89.84"/>
<polygon fill="#63b8ff" stroke="#63b8ff" points="137.5,-89.52 134,-79.52 130.5,-89.52 137.5,-89.52"/>
</a>
</g>
</g>
<!-- Node10 -->
<g id="Node000010" class="node">
<title>Node10</title>
<g id="a_Node000010"><a xlink:href="mosaic__connector_8h.html" target="_top" xlink:title=" ">
<polygon fill="white" stroke="#666666" points="598,-360 484,-360 484,-330 598,-330 598,-360"/>
<text text-anchor="start" x="492" y="-348" font-family="Helvetica,sans-Serif" font-size="10.00">mosaic/core/mosaic</text>
<text text-anchor="middle" x="541" y="-337" font-family="Helvetica,sans-Serif" font-size="10.00">_connector.h</text>
</a>
</g>
</g>
<!-- Node9&#45;&gt;Node10 -->
<g id="edge10_Node000009_Node000010" class="edge">
<title>Node9&#45;&gt;Node10</title>
<g id="a_edge10_Node000009_Node000010"><a xlink:title=" ">
<path fill="none" stroke="#63b8ff" d="M541,-395.77C541,-387.85 541,-378.63 541,-370.3"/>
<polygon fill="#63b8ff" stroke="#63b8ff" points="544.5,-370.04 541,-360.04 537.5,-370.04 544.5,-370.04"/>
</a>
</g>
</g>
<!-- Node10&#45;&gt;Node2 -->
<g id="edge12_Node000010_Node000002" class="edge">
<title>Node10&#45;&gt;Node2</title>
<g id="a_edge12_Node000010_Node000002"><a xlink:title=" ">
<path fill="none" stroke="#63b8ff" d="M557.26,-329.77C599.52,-292.52 711.47,-192.22 739,-151 765.59,-111.19 783.17,-57.04 791.12,-29.01"/>
<polygon fill="#63b8ff" stroke="#63b8ff" points="794.5,-29.89 793.77,-19.32 787.75,-28.04 794.5,-29.89"/>
</a>
</g>
</g>
<!-- Node10&#45;&gt;Node6 -->
<g id="edge13_Node000010_Node000006" class="edge">
<title>Node10&#45;&gt;Node6</title>
<g id="a_edge13_Node000010_Node000006"><a xlink:title=" ">
<path fill="none" stroke="#63b8ff" d="M483.75,-335.64C448.18,-328.55 402.6,-315.91 367,-294 345.84,-280.98 347.46,-269.63 329,-253 309.19,-235.15 292.93,-240.85 281,-217 248.8,-152.6 234.18,-109.7 281,-55 313.23,-17.35 465.96,-11.32 533.62,-10.52"/>
<polygon fill="#63b8ff" stroke="#63b8ff" points="533.74,-14.02 543.71,-10.43 533.68,-7.02 533.74,-14.02"/>
</a>
</g>
</g>
<!-- Node11 -->
<g id="Node000011" class="node">
<title>Node11</title>
<g id="a_Node000011"><a xlink:title=" ">
<polygon fill="#e0e0e0" stroke="#999999" points="560,-283 522,-283 522,-264 560,-264 560,-283"/>
<text text-anchor="middle" x="541" y="-271" font-family="Helvetica,sans-Serif" font-size="10.00">map</text>
</a>
</g>
</g>
<!-- Node10&#45;&gt;Node11 -->
<g id="edge11_Node000010_Node000011" class="edge">
<title>Node10&#45;&gt;Node11</title>
<g id="a_edge11_Node000010_Node000011"><a xlink:title=" ">
<path fill="none" stroke="#63b8ff" d="M541,-329.94C541,-319.46 541,-305.05 541,-293.55"/>
<polygon fill="#63b8ff" stroke="#63b8ff" points="544.5,-293.27 541,-283.27 537.5,-293.27 544.5,-293.27"/>
</a>
</g>
</g>
<!-- Node12 -->
<g id="Node000012" class="node">
<title>Node12</title>
<g id="a_Node000012"><a xlink:href="connector__state__manager_8h.html" target="_top" xlink:title=" ">
<polygon fill="white" stroke="#666666" points="503.5,-288.5 376.5,-288.5 376.5,-258.5 503.5,-258.5 503.5,-288.5"/>
<text text-anchor="start" x="384.5" y="-276.5" font-family="Helvetica,sans-Serif" font-size="10.00">mosaic/core/connector</text>
<text text-anchor="middle" x="440" y="-265.5" font-family="Helvetica,sans-Serif" font-size="10.00">_state_manager.h</text>
</a>
</g>
</g>
<!-- Node10&#45;&gt;Node12 -->
<g id="edge14_Node000010_Node000012" class="edge">
<title>Node10&#45;&gt;Node12</title>
<g id="a_edge14_Node000010_Node000012"><a xlink:title=" ">
<path fill="none" stroke="#63b8ff" d="M520.56,-329.94C505.64,-319.67 485.21,-305.61 468.66,-294.22"/>
<polygon fill="#63b8ff" stroke="#63b8ff" points="470.63,-291.33 460.41,-288.54 466.66,-297.1 470.63,-291.33"/>
</a>
</g>
</g>
<!-- Node16 -->
<g id="Node000016" class="node">
<title>Node16</title>
<g id="a_Node000016"><a xlink:title=" ">
<polygon fill="#e0e0e0" stroke="#999999" points="730,-151 584,-151 584,-121 730,-121 730,-151"/>
<text text-anchor="start" x="592" y="-139" font-family="Helvetica,sans-Serif" font-size="10.00">mosaic/rtc/webrtc_forward</text>
<text text-anchor="middle" x="657" y="-128" font-family="Helvetica,sans-Serif" font-size="10.00">_decl.h</text>
</a>
</g>
</g>
<!-- Node10&#45;&gt;Node16 -->
<g id="edge49_Node000010_Node000016" class="edge">
<title>Node10&#45;&gt;Node16</title>
<g id="a_edge49_Node000010_Node000016"><a xlink:title=" ">
<path fill="none" stroke="#63b8ff" d="M548.97,-329.77C568.72,-294.53 620.05,-202.94 644.15,-159.93"/>
<polygon fill="#63b8ff" stroke="#63b8ff" points="647.29,-161.49 649.12,-151.05 641.18,-158.07 647.29,-161.49"/>
</a>
</g>
</g>
<!-- Node19 -->
<g id="Node000019" class="node">
<title>Node19</title>
<g id="a_Node000019"><a xlink:href="peer__connection__manager_8h.html" target="_top" xlink:title=" ">
<polygon fill="white" stroke="#666666" points="320.5,-288.5 161.5,-288.5 161.5,-258.5 320.5,-258.5 320.5,-288.5"/>
<text text-anchor="start" x="169.5" y="-276.5" font-family="Helvetica,sans-Serif" font-size="10.00">mosaic/core/peer_connection</text>
<text text-anchor="middle" x="241" y="-265.5" font-family="Helvetica,sans-Serif" font-size="10.00">_manager.h</text>
</a>
</g>
</g>
<!-- Node10&#45;&gt;Node19 -->
<g id="edge27_Node000010_Node000019" class="edge">
<title>Node10&#45;&gt;Node19</title>
<g id="a_edge27_Node000010_Node000019"><a xlink:title=" ">
<path fill="none" stroke="#63b8ff" d="M483.83,-331.97C433.06,-320.62 359,-303.51 306,-290.91"/>
<polygon fill="#63b8ff" stroke="#63b8ff" points="306.56,-287.45 296.02,-288.53 304.94,-294.26 306.56,-287.45"/>
</a>
</g>
</g>
<!-- Node10&#45;&gt;Node20 -->
<g id="edge32_Node000010_Node000020" class="edge">
<title>Node10&#45;&gt;Node20</title>
<g id="a_edge32_Node000010_Node000020"><a xlink:title=" ">
<path fill="none" stroke="#63b8ff" d="M577.83,-329.94C601.99,-320.71 634.15,-308.43 662.07,-297.77"/>
<polygon fill="#63b8ff" stroke="#63b8ff" points="663.65,-300.91 671.74,-294.07 661.15,-294.37 663.65,-300.91"/>
</a>
</g>
</g>
<!-- Node10&#45;&gt;Node27 -->
<g id="edge45_Node000010_Node000027" class="edge">
<title>Node10&#45;&gt;Node27</title>
<g id="a_edge45_Node000010_Node000027"><a xlink:title=" ">
<path fill="none" stroke="#63b8ff" d="M598.04,-334.18C648.6,-325.21 724.65,-311.09 799.25,-294.34"/>
<polygon fill="#63b8ff" stroke="#63b8ff" points="800.31,-297.68 809.29,-292.06 798.76,-290.86 800.31,-297.68"/>
</a>
</g>
</g>
<!-- Node12&#45;&gt;Node2 -->
<g id="edge15_Node000012_Node000002" class="edge">
<title>Node12&#45;&gt;Node2</title>
<g id="a_edge15_Node000012_Node000002"><a xlink:title=" ">
<path fill="none" stroke="#63b8ff" d="M487.1,-258.46C508.81,-249.76 533.2,-236.45 549,-217 576.87,-182.69 547.01,-155.21 575,-121 622.27,-63.23 707.39,-32.94 757.06,-19.47"/>
<polygon fill="#63b8ff" stroke="#63b8ff" points="758.01,-22.84 766.8,-16.92 756.24,-16.06 758.01,-22.84"/>
</a>
</g>
</g>
<!-- Node12&#45;&gt;Node6 -->
<g id="edge17_Node000012_Node000006" class="edge">
<title>Node12&#45;&gt;Node6</title>
<g id="a_edge17_Node000012_Node000006"><a xlink:title=" ">
<path fill="none" stroke="#63b8ff" d="M437.88,-258.46C435.87,-240.91 434.53,-210.33 445,-187 471.25,-128.51 515.28,-140.71 547,-85 556.88,-67.64 561.71,-45.11 564.01,-29.39"/>
<polygon fill="#63b8ff" stroke="#63b8ff" points="567.5,-29.68 565.27,-19.32 560.55,-28.81 567.5,-29.68"/>
</a>
</g>
</g>
<!-- Node13 -->
<g id="Node000013" class="node">
<title>Node13</title>
<g id="a_Node000013"><a xlink:title=" ">
<polygon fill="#e0e0e0" stroke="#999999" points="540,-211.5 454,-211.5 454,-192.5 540,-192.5 540,-211.5"/>
<text text-anchor="middle" x="497" y="-199.5" font-family="Helvetica,sans-Serif" font-size="10.00">shared_mutex</text>
</a>
</g>
</g>
<!-- Node12&#45;&gt;Node13 -->
<g id="edge16_Node000012_Node000013" class="edge">
<title>Node12&#45;&gt;Node13</title>
<g id="a_edge16_Node000012_Node000013"><a xlink:title=" ">
<path fill="none" stroke="#63b8ff" d="M451.53,-258.44C460.75,-247.2 473.68,-231.43 483.4,-219.58"/>
<polygon fill="#63b8ff" stroke="#63b8ff" points="486.17,-221.72 489.81,-211.77 480.76,-217.28 486.17,-221.72"/>
</a>
</g>
</g>
<!-- Node14 -->
<g id="Node000014" class="node">
<title>Node14</title>
<g id="a_Node000014"><a xlink:href="i__signaling__client_8h.html" target="_top" xlink:title=" ">
<polygon fill="white" stroke="#666666" points="397.5,-217 290.5,-217 290.5,-187 397.5,-187 397.5,-217"/>
<text text-anchor="start" x="298.5" y="-205" font-family="Helvetica,sans-Serif" font-size="10.00">mosaic/signaling/i</text>
<text text-anchor="middle" x="344" y="-194" font-family="Helvetica,sans-Serif" font-size="10.00">_signaling_client.h</text>
</a>
</g>
</g>
<!-- Node12&#45;&gt;Node14 -->
<g id="edge18_Node000012_Node000014" class="edge">
<title>Node12&#45;&gt;Node14</title>
<g id="a_edge18_Node000012_Node000014"><a xlink:title=" ">
<path fill="none" stroke="#63b8ff" d="M420.57,-258.44C406.52,-248.26 387.33,-234.37 371.68,-223.04"/>
<polygon fill="#63b8ff" stroke="#63b8ff" points="373.55,-220.07 363.4,-217.04 369.45,-225.74 373.55,-220.07"/>
</a>
</g>
</g>
<!-- Node15 -->
<g id="Node000015" class="node">
<title>Node15</title>
<g id="a_Node000015"><a xlink:title=" ">
<polygon fill="#e0e0e0" stroke="#999999" points="538,-85 420,-85 420,-55 538,-55 538,-85"/>
<text text-anchor="start" x="428" y="-73" font-family="Helvetica,sans-Serif" font-size="10.00">mosaic/json_forward</text>
<text text-anchor="middle" x="479" y="-62" font-family="Helvetica,sans-Serif" font-size="10.00">_decl.h</text>
</a>
</g>
</g>
<!-- Node14&#45;&gt;Node15 -->
<g id="edge19_Node000014_Node000015" class="edge">
<title>Node14&#45;&gt;Node15</title>
<g id="a_edge19_Node000014_Node000015"><a xlink:title=" ">
<path fill="none" stroke="#63b8ff" d="M383.17,-186.98C401.86,-178.76 423.48,-166.85 439,-151 454.48,-135.2 465.11,-112.21 471.51,-94.93"/>
<polygon fill="#63b8ff" stroke="#63b8ff" points="474.97,-95.62 474.94,-85.02 468.36,-93.32 474.97,-95.62"/>
</a>
</g>
</g>
<!-- Node14&#45;&gt;Node16 -->
<g id="edge20_Node000014_Node000016" class="edge">
<title>Node14&#45;&gt;Node16</title>
<g id="a_edge20_Node000014_Node000016"><a xlink:title=" ">
<path fill="none" stroke="#63b8ff" d="M397.81,-190C447.52,-179.83 521.99,-164.61 578.36,-153.08"/>
<polygon fill="#63b8ff" stroke="#63b8ff" points="579.22,-156.48 588.31,-151.04 577.81,-149.62 579.22,-156.48"/>
</a>
</g>
</g>
<!-- Node17 -->
<g id="Node000017" class="node">
<title>Node17</title>
<g id="a_Node000017"><a xlink:href="i__mosaic__authenticator_8h.html" target="_top" xlink:title=" ">
<polygon fill="white" stroke="#666666" points="430,-151 290,-151 290,-121 430,-121 430,-151"/>
<text text-anchor="start" x="298" y="-139" font-family="Helvetica,sans-Serif" font-size="10.00">mosaic/security/i_mosaic</text>
<text text-anchor="middle" x="360" y="-128" font-family="Helvetica,sans-Serif" font-size="10.00">_authenticator.h</text>
</a>
</g>
</g>
<!-- Node14&#45;&gt;Node17 -->
<g id="edge21_Node000014_Node000017" class="edge">
<title>Node14&#45;&gt;Node17</title>
<g id="a_edge21_Node000014_Node000017"><a xlink:title=" ">
<path fill="none" stroke="#63b8ff" d="M347.55,-186.8C349.44,-179.26 351.8,-169.78 353.97,-161.13"/>
<polygon fill="#63b8ff" stroke="#63b8ff" points="357.43,-161.71 356.46,-151.16 350.64,-160.02 357.43,-161.71"/>
</a>
</g>
</g>
<!-- Node17&#45;&gt;Node2 -->
<g id="edge22_Node000017_Node000002" class="edge">
<title>Node17&#45;&gt;Node2</title>
<g id="a_edge22_Node000017_Node000002"><a xlink:title=" ">
<path fill="none" stroke="#63b8ff" d="M364.63,-120.95C371.54,-102.42 386.43,-70.38 411,-55 439.94,-36.89 664.92,-19.53 756.95,-13.11"/>
<polygon fill="#63b8ff" stroke="#63b8ff" points="757.25,-16.6 766.98,-12.42 756.77,-9.61 757.25,-16.6"/>
</a>
</g>
</g>
<!-- Node17&#45;&gt;Node5 -->
<g id="edge25_Node000017_Node000005" class="edge">
<title>Node17&#45;&gt;Node5</title>
<g id="a_edge25_Node000017_Node000005"><a xlink:title=" ">
<path fill="none" stroke="#63b8ff" d="M310.4,-120.95C269.37,-109.34 211.85,-93.05 173.79,-82.27"/>
<polygon fill="#63b8ff" stroke="#63b8ff" points="174.65,-78.87 164.08,-79.52 172.74,-85.61 174.65,-78.87"/>
</a>
</g>
</g>
<!-- Node17&#45;&gt;Node15 -->
<g id="edge26_Node000017_Node000015" class="edge">
<title>Node17&#45;&gt;Node15</title>
<g id="a_edge26_Node000017_Node000015"><a xlink:title=" ">
<path fill="none" stroke="#63b8ff" d="M386.12,-120.95C403.09,-111.83 425.42,-99.82 443.93,-89.86"/>
<polygon fill="#63b8ff" stroke="#63b8ff" points="445.8,-92.83 452.95,-85.01 442.48,-86.67 445.8,-92.83"/>
</a>
</g>
</g>
<!-- Node18 -->
<g id="Node000018" class="node">
<title>Node18</title>
<g id="a_Node000018"><a xlink:href="auth__type_8h.html" target="_top" xlink:title=" ">
<polygon fill="white" stroke="#666666" points="364,-79.5 290,-79.5 290,-60.5 364,-60.5 364,-79.5"/>
<text text-anchor="middle" x="327" y="-67.5" font-family="Helvetica,sans-Serif" font-size="10.00">auth_type.h</text>
</a>
</g>
</g>
<!-- Node17&#45;&gt;Node18 -->
<g id="edge23_Node000017_Node000018" class="edge">
<title>Node17&#45;&gt;Node18</title>
<g id="a_edge23_Node000017_Node000018"><a xlink:title=" ">
<path fill="none" stroke="#63b8ff" d="M352.68,-120.8C347.83,-111.41 341.45,-99.02 336.25,-88.95"/>
<polygon fill="#63b8ff" stroke="#63b8ff" points="339.25,-87.13 331.56,-79.84 333.03,-90.34 339.25,-87.13"/>
</a>
</g>
</g>
<!-- Node18&#45;&gt;Node6 -->
<g id="edge24_Node000018_Node000006" class="edge">
<title>Node18&#45;&gt;Node6</title>
<g id="a_edge24_Node000018_Node000006"><a xlink:title=" ">
<path fill="none" stroke="#63b8ff" d="M357.43,-60.46C364.19,-58.61 371.33,-56.7 378,-55 432.66,-41.03 496.64,-26.21 534.11,-17.69"/>
<polygon fill="#63b8ff" stroke="#63b8ff" points="534.96,-21.08 543.94,-15.45 533.41,-14.25 534.96,-21.08"/>
</a>
</g>
</g>
<!-- Node19&#45;&gt;Node5 -->
<g id="edge29_Node000019_Node000005" class="edge">
<title>Node19&#45;&gt;Node5</title>
<g id="a_edge29_Node000019_Node000005"><a xlink:title=" ">
<path fill="none" stroke="#63b8ff" d="M232.99,-258.42C226.66,-247.24 217.65,-231.18 210,-217 185.22,-171.06 157.11,-116.35 143.04,-88.77"/>
<polygon fill="#63b8ff" stroke="#63b8ff" points="146.03,-86.93 138.37,-79.6 139.79,-90.1 146.03,-86.93"/>
</a>
</g>
</g>
<!-- Node19&#45;&gt;Node8 -->
<g id="edge28_Node000019_Node000008" class="edge">
<title>Node19&#45;&gt;Node8</title>
<g id="a_edge28_Node000019_Node000008"><a xlink:title=" ">
<path fill="none" stroke="#63b8ff" d="M240.03,-258.41C237,-214.34 227.71,-79.02 224.28,-29.18"/>
<polygon fill="#63b8ff" stroke="#63b8ff" points="227.77,-28.91 223.6,-19.18 220.79,-29.39 227.77,-28.91"/>
</a>
</g>
</g>
<!-- Node19&#45;&gt;Node10 -->
<g id="edge30_Node000019_Node000010" class="edge">
<title>Node19&#45;&gt;Node10</title>
<g id="a_edge30_Node000019_Node000010"><a xlink:title=" ">
<path fill="none" stroke="#63b8ff" d="M307.17,-288.54C357.44,-299.84 426.15,-315.74 476.11,-327.62"/>
<polygon fill="#63b8ff" stroke="#63b8ff" points="475.3,-331.02 485.84,-329.94 476.92,-324.21 475.3,-331.02"/>
</a>
</g>
</g>
<!-- Node19&#45;&gt;Node14 -->
<g id="edge31_Node000019_Node000014" class="edge">
<title>Node19&#45;&gt;Node14</title>
<g id="a_edge31_Node000019_Node000014"><a xlink:title=" ">
<path fill="none" stroke="#63b8ff" d="M261.84,-258.44C277.06,-248.17 297.89,-234.11 314.77,-222.72"/>
<polygon fill="#63b8ff" stroke="#63b8ff" points="316.86,-225.54 323.19,-217.04 312.94,-219.74 316.86,-225.54"/>
</a>
</g>
</g>
<!-- Node20&#45;&gt;Node6 -->
<g id="edge33_Node000020_Node000006" class="edge">
<title>Node20&#45;&gt;Node6</title>
<g id="a_edge33_Node000020_Node000006"><a xlink:title=" ">
<path fill="none" stroke="#63b8ff" d="M732.23,-252.88C745.17,-222.26 764.4,-162.36 739,-121 720.48,-90.85 698.16,-103.49 668,-85 637.55,-66.33 604.55,-41.25 584.58,-25.49"/>
<polygon fill="#63b8ff" stroke="#63b8ff" points="586.62,-22.64 576.62,-19.15 582.26,-28.11 586.62,-22.64"/>
</a>
</g>
</g>
<!-- Node20&#45;&gt;Node16 -->
<g id="edge44_Node000020_Node000016" class="edge">
<title>Node20&#45;&gt;Node16</title>
<g id="a_edge44_Node000020_Node000016"><a xlink:title=" ">
<path fill="none" stroke="#63b8ff" d="M697.04,-252.76C686.3,-243.17 674.79,-230.74 668,-217 659.48,-199.74 656.93,-177.98 656.4,-161.51"/>
<polygon fill="#63b8ff" stroke="#63b8ff" points="659.9,-161.05 656.31,-151.08 652.9,-161.11 659.9,-161.05"/>
</a>
</g>
</g>
<!-- Node21 -->
<g id="Node000021" class="node">
<title>Node21</title>
<g id="a_Node000021"><a xlink:href="log_8h.html" target="_top" xlink:title=" ">
<polygon fill="white" stroke="#666666" points="1118.5,-211.5 1005.5,-211.5 1005.5,-192.5 1118.5,-192.5 1118.5,-211.5"/>
<text text-anchor="middle" x="1062" y="-199.5" font-family="Helvetica,sans-Serif" font-size="10.00">mosaic/logger/log.h</text>
</a>
</g>
</g>
<!-- Node20&#45;&gt;Node21 -->
<g id="edge34_Node000020_Node000021" class="edge">
<title>Node20&#45;&gt;Node21</title>
<g id="a_edge34_Node000020_Node000021"><a xlink:title=" ">
<path fill="none" stroke="#63b8ff" d="M791.85,-255.07C794.94,-254.35 798,-253.66 801,-253 870.2,-237.73 950.32,-222.79 1003.35,-213.27"/>
<polygon fill="#63b8ff" stroke="#63b8ff" points="1004.02,-216.71 1013.25,-211.5 1002.79,-209.82 1004.02,-216.71"/>
</a>
</g>
</g>
<!-- Node22 -->
<g id="Node000022" class="node">
<title>Node22</title>
<g id="a_Node000022"><a xlink:href="i__logger_8h.html" target="_top" xlink:title=" ">
<polygon fill="white" stroke="#666666" points="1094,-145.5 1030,-145.5 1030,-126.5 1094,-126.5 1094,-145.5"/>
<text text-anchor="middle" x="1062" y="-133.5" font-family="Helvetica,sans-Serif" font-size="10.00">i_logger.h</text>
</a>
</g>
</g>
<!-- Node21&#45;&gt;Node22 -->
<g id="edge35_Node000021_Node000022" class="edge">
<title>Node21&#45;&gt;Node22</title>
<g id="a_edge35_Node000021_Node000022"><a xlink:title=" ">
<path fill="none" stroke="#63b8ff" d="M1062,-192.37C1062,-183.16 1062,-168.29 1062,-156.27"/>
<polygon fill="#63b8ff" stroke="#63b8ff" points="1065.5,-155.91 1062,-145.91 1058.5,-155.91 1065.5,-155.91"/>
</a>
</g>
</g>
<!-- Node25 -->
<g id="Node000025" class="node">
<title>Node25</title>
<g id="a_Node000025"><a xlink:href="log__service_8h.html" target="_top" xlink:title=" ">
<polygon fill="white" stroke="#666666" points="1177.5,-79.5 1096.5,-79.5 1096.5,-60.5 1177.5,-60.5 1177.5,-79.5"/>
<text text-anchor="middle" x="1137" y="-67.5" font-family="Helvetica,sans-Serif" font-size="10.00">log_service.h</text>
</a>
</g>
</g>
<!-- Node21&#45;&gt;Node25 -->
<g id="edge43_Node000021_Node000025" class="edge">
<title>Node21&#45;&gt;Node25</title>
<g id="a_edge43_Node000021_Node000025"><a xlink:title=" ">
<path fill="none" stroke="#63b8ff" d="M1070.39,-192.37C1079.32,-182.84 1093.47,-166.75 1103,-151 1115.05,-131.09 1124.92,-106.14 1130.87,-89.44"/>
<polygon fill="#63b8ff" stroke="#63b8ff" points="1134.24,-90.39 1134.19,-79.8 1127.62,-88.11 1134.24,-90.39"/>
</a>
</g>
</g>
<!-- Node22&#45;&gt;Node6 -->
<g id="edge36_Node000022_Node000006" class="edge">
<title>Node22&#45;&gt;Node6</title>
<g id="a_edge36_Node000022_Node000006"><a xlink:title=" ">
<path fill="none" stroke="#63b8ff" d="M1029.84,-126.93C940.12,-104.41 687.79,-41.07 598.12,-18.56"/>
<polygon fill="#63b8ff" stroke="#63b8ff" points="598.81,-15.13 588.25,-16.09 597.1,-21.92 598.81,-15.13"/>
</a>
</g>
</g>
<!-- Node23 -->
<g id="Node000023" class="node">
<title>Node23</title>
<g id="a_Node000023"><a xlink:title=" ">
<polygon fill="#e0e0e0" stroke="#999999" points="1039.5,-79.5 960.5,-79.5 960.5,-60.5 1039.5,-60.5 1039.5,-79.5"/>
<text text-anchor="middle" x="1000" y="-67.5" font-family="Helvetica,sans-Serif" font-size="10.00">fmt/format.h</text>
</a>
</g>
</g>
<!-- Node22&#45;&gt;Node23 -->
<g id="edge37_Node000022_Node000023" class="edge">
<title>Node22&#45;&gt;Node23</title>
<g id="a_edge37_Node000022_Node000023"><a xlink:title=" ">
<path fill="none" stroke="#63b8ff" d="M1053.64,-126.37C1043.99,-116.4 1027.89,-99.79 1015.85,-87.36"/>
<polygon fill="#63b8ff" stroke="#63b8ff" points="1018.1,-84.65 1008.63,-79.91 1013.07,-89.52 1018.1,-84.65"/>
</a>
</g>
</g>
<!-- Node24 -->
<g id="Node000024" class="node">
<title>Node24</title>
<g id="a_Node000024"><a xlink:href="log__level_8h.html" target="_top" xlink:title=" ">
<polygon fill="white" stroke="#666666" points="1103,-19 1033,-19 1033,0 1103,0 1103,-19"/>
<text text-anchor="middle" x="1068" y="-7" font-family="Helvetica,sans-Serif" font-size="10.00">log_level.h</text>
</a>
</g>
</g>
<!-- Node22&#45;&gt;Node24 -->
<g id="edge38_Node000022_Node000024" class="edge">
<title>Node22&#45;&gt;Node24</title>
<g id="a_edge38_Node000022_Node000024"><a xlink:title=" ">
<path fill="none" stroke="#63b8ff" d="M1062.41,-126.44C1063.37,-106.54 1065.77,-56.76 1067.09,-29.35"/>
<polygon fill="#63b8ff" stroke="#63b8ff" points="1070.6,-29.27 1067.58,-19.12 1063.61,-28.94 1070.6,-29.27"/>
</a>
</g>
</g>
<!-- Node22&#45;&gt;Node25 -->
<g id="edge39_Node000022_Node000025" class="edge">
<title>Node22&#45;&gt;Node25</title>
<g id="a_edge39_Node000022_Node000025"><a xlink:title=" ">
<path fill="none" stroke="#63b8ff" d="M1072.11,-126.37C1084.01,-116.21 1104,-99.16 1118.65,-86.65"/>
<polygon fill="#63b8ff" stroke="#63b8ff" points="1121.23,-89.06 1126.56,-79.91 1116.69,-83.73 1121.23,-89.06"/>
</a>
</g>
</g>
<!-- Node25&#45;&gt;Node2 -->
<g id="edge40_Node000025_Node000002" class="edge">
<title>Node25&#45;&gt;Node2</title>
<g id="a_edge40_Node000025_Node000002"><a xlink:title=" ">
<path fill="none" stroke="#63b8ff" d="M1096.21,-62C1030.09,-50.66 900.39,-28.41 835.27,-17.24"/>
<polygon fill="#63b8ff" stroke="#63b8ff" points="835.84,-13.78 825.39,-15.54 834.65,-20.68 835.84,-13.78"/>
</a>
</g>
</g>
<!-- Node25&#45;&gt;Node24 -->
<g id="edge42_Node000025_Node000024" class="edge">
<title>Node25&#45;&gt;Node24</title>
<g id="a_edge42_Node000025_Node000024"><a xlink:title=" ">
<path fill="none" stroke="#63b8ff" d="M1126.82,-60.37C1116.12,-51.3 1099.06,-36.84 1086.07,-25.82"/>
<polygon fill="#63b8ff" stroke="#63b8ff" points="1088.11,-22.96 1078.22,-19.17 1083.59,-28.3 1088.11,-22.96"/>
</a>
</g>
</g>
<!-- Node26 -->
<g id="Node000026" class="node">
<title>Node26</title>
<g id="a_Node000026"><a xlink:title=" ">
<polygon fill="#e0e0e0" stroke="#999999" points="1190.5,-19 1121.5,-19 1121.5,0 1190.5,0 1190.5,-19"/>
<text text-anchor="middle" x="1156" y="-7" font-family="Helvetica,sans-Serif" font-size="10.00">type_traits</text>
</a>
</g>
</g>
<!-- Node25&#45;&gt;Node26 -->
<g id="edge41_Node000025_Node000026" class="edge">
<title>Node25&#45;&gt;Node26</title>
<g id="a_edge41_Node000025_Node000026"><a xlink:title=" ">
<path fill="none" stroke="#63b8ff" d="M1139.8,-60.37C1142.5,-52.07 1146.65,-39.28 1150.08,-28.72"/>
<polygon fill="#63b8ff" stroke="#63b8ff" points="1153.42,-29.76 1153.18,-19.17 1146.77,-27.6 1153.42,-29.76"/>
</a>
</g>
</g>
<!-- Node27&#45;&gt;Node6 -->
<g id="edge46_Node000027_Node000006" class="edge">
<title>Node27&#45;&gt;Node6</title>
<g id="a_edge46_Node000027_Node000006"><a xlink:title=" ">
<path fill="none" stroke="#63b8ff" d="M862.87,-252.96C843.32,-222.46 802.5,-162.7 758,-121 719.68,-85.09 705.64,-80.97 660,-55 639.02,-43.06 614.32,-31.45 595.5,-23.09"/>
<polygon fill="#63b8ff" stroke="#63b8ff" points="596.81,-19.84 586.25,-19.03 594,-26.25 596.81,-19.84"/>
</a>
</g>
</g>
<!-- Node27&#45;&gt;Node16 -->
<g id="edge48_Node000027_Node000016" class="edge">
<title>Node27&#45;&gt;Node16</title>
<g id="a_edge48_Node000027_Node000016"><a xlink:title=" ">
<path fill="none" stroke="#63b8ff" d="M843.3,-252.8C801.82,-227.02 729.58,-182.11 688.3,-156.46"/>
<polygon fill="#63b8ff" stroke="#63b8ff" points="690.08,-153.44 679.74,-151.13 686.39,-159.39 690.08,-153.44"/>
</a>
</g>
</g>
<!-- Node28 -->
<g id="Node000028" class="node">
<title>Node28</title>
<g id="a_Node000028"><a xlink:title=" ">
<polygon fill="#e0e0e0" stroke="#999999" points="907.5,-211.5 862.5,-211.5 862.5,-192.5 907.5,-192.5 907.5,-211.5"/>
<text text-anchor="middle" x="885" y="-199.5" font-family="Helvetica,sans-Serif" font-size="10.00">utility</text>
</a>
</g>
</g>
<!-- Node27&#45;&gt;Node28 -->
<g id="edge47_Node000027_Node000028" class="edge">
<title>Node27&#45;&gt;Node28</title>
<g id="a_edge47_Node000027_Node000028"><a xlink:title=" ">
<path fill="none" stroke="#63b8ff" d="M877.84,-252.77C879.23,-243.08 880.91,-231.46 882.28,-221.88"/>
<polygon fill="#63b8ff" stroke="#63b8ff" points="885.77,-222.22 883.73,-211.82 878.84,-221.22 885.77,-222.22"/>
</a>
</g>
</g>
</g>
</svg>

<g id="navigator" transform="translate(0 0)" fill="#404254">
  <rect fill="#f2f5e9" fill-opacity="0.5" stroke="#606060" stroke-width=".5" x="0" y="0" width="60" height="60"/>
  <use id="zoomplus" xlink:href="#zoomPlus" x="17" y="9" onmousedown="handleZoom(evt,'in')"/>
  <use id="zoomminus" xlink:href="#zoomMin" x="42" y="9" onmousedown="handleZoom(evt,'out')"/>
  <use id="reset" xlink:href="#resetDef" x="30" y="36" onmousedown="handleReset()"/>
   <use id="arrowup" xlink:href="#arrowUp" x="0" y="0" onmousedown="handlePan(0,-1)"/>
  <use id="arrowright" xlink:href="#arrowRight" x="0" y="0" onmousedown="handlePan(1,0)"/>
  <use id="arrowdown" xlink:href="#arrowDown" x="0" y="0" onmousedown="handlePan(0,1)"/>
  <use id="arrowleft" xlink:href="#arrowLeft" x="0" y="0" onmousedown="handlePan(-1,0)"/>
</g>
<svg viewBox="0 0 15 15" width="100%" height="30px" preserveAspectRatio="xMaxYMin meet">
 <g id="arrow_out" transform="scale(0.3 0.3)">
  <a xlink:href="auto__configurer_8h__incl_org.svg" target="_base">
   <rect id="button" ry="5" rx="5" y="6" x="6" height="38" width="38"
        fill="#f2f5e9" fill-opacity="0.5" stroke="#606060" stroke-width="1.0"/>
   <path id="arrow"
     d="M 11.500037,31.436501 C 11.940474,20.09759 22.043105,11.32322 32.158766,21.979434 L 37.068811,17.246167 C 37.068811,17.246167 37.088388,32 37.088388,32 L 22.160133,31.978069 C 22.160133,31.978069 26.997745,27.140456 26.997745,27.140456 C 18.528582,18.264221 13.291696,25.230495 11.500037,31.436501 z"
     style="fill:#404040;"/>
  </a>
 </g>
</svg>

<style type='text/css'>
<![CDATA[
[data-mouse-over-selected='false'] { opacity: 0.7; }
[data-mouse-over-selected='true']  { opacity: 1.0; }
]]>
</style>
<script type="application/ecmascript"><![CDATA[
document.addEventListener('DOMContentLoaded', (event) => {
  highlightEdges();
  highlightAdjacentNodes();
});
]]></script>
</svg>
