<?xml version="1.0" encoding="UTF-8" standalone="no"?>
<!DOCTYPE svg PUBLIC "-//W3C//DTD SVG 1.1//EN"
 "http://www.w3.org/Graphics/SVG/1.1/DTD/svg11.dtd">
<!-- Generated by graphviz version 2.43.0 (0)
 -->
<!-- Title: mosaic::core_signaling::WebSocketClient Pages: 1 -->
<svg width="405pt" height="203pt"
 viewBox="0.00 0.00 405.00 203.00" xmlns="http://www.w3.org/2000/svg" xmlns:xlink="http://www.w3.org/1999/xlink">
<g id="graph0" class="graph" transform="scale(1 1) rotate(0) translate(4 199)">
<title>mosaic::core_signaling::WebSocketClient</title>
<!-- Node1 -->
<g id="Node000001" class="node">
<title>Node1</title>
<g id="a_Node000001"><a xlink:title=" ">
<polygon fill="#999999" stroke="#666666" points="292,-30 164,-30 164,0 292,0 292,-30"/>
<text text-anchor="start" x="172" y="-18" font-family="Helvetica,sans-Serif" font-size="10.00">mosaic::core_signaling</text>
<text text-anchor="middle" x="228" y="-7" font-family="Helvetica,sans-Serif" font-size="10.00">::WebSocketClient</text>
</a>
</g>
</g>
<!-- Node2 -->
<g id="Node000002" class="node">
<title>Node2</title>
<g id="a_Node000002"><a xlink:title=" ">
<polygon fill="white" stroke="#666666" points="152,-107 0,-107 0,-77 152,-77 152,-107"/>
<text text-anchor="start" x="8" y="-95" font-family="Helvetica,sans-Serif" font-size="10.00">std::shared_ptr&lt; websocket</text>
<text text-anchor="middle" x="76" y="-84" font-family="Helvetica,sans-Serif" font-size="10.00">_callback_client &gt;</text>
</a>
</g>
</g>
<!-- Node2&#45;&gt;Node1 -->
<g id="edge1_Node000001_Node000002" class="edge">
<title>Node2&#45;&gt;Node1</title>
<g id="a_edge1_Node000001_Node000002"><a xlink:title=" ">
<path fill="none" stroke="#9a32cd" stroke-dasharray="5,2" d="M113.61,-72.44C140.19,-59.33 175.27,-42.02 199.54,-30.04"/>
<polygon fill="#9a32cd" stroke="#9a32cd" points="112.01,-69.33 104.59,-76.89 115.11,-75.61 112.01,-69.33"/>
</a>
</g>
<text text-anchor="middle" x="185" y="-51" font-family="Helvetica,sans-Serif" font-size="10.00" fill="grey"> m_client</text>
</g>
<!-- Node3 -->
<g id="Node000003" class="node">
<title>Node3</title>
<g id="a_Node000003"><a xlink:title=" ">
<polygon fill="white" stroke="#666666" points="135,-189.5 17,-189.5 17,-170.5 135,-170.5 135,-189.5"/>
<text text-anchor="middle" x="76" y="-177.5" font-family="Helvetica,sans-Serif" font-size="10.00">std::shared_ptr&lt; T &gt;</text>
</a>
</g>
</g>
<!-- Node3&#45;&gt;Node2 -->
<g id="edge2_Node000002_Node000003" class="edge">
<title>Node3&#45;&gt;Node2</title>
<g id="a_edge2_Node000002_Node000003"><a xlink:title=" ">
<path fill="none" stroke="orange" stroke-dasharray="5,2" d="M76,-160.19C76,-144.23 76,-121.68 76,-107.2"/>
<polygon fill="orange" stroke="orange" points="72.5,-160.44 76,-170.44 79.5,-160.44 72.5,-160.44"/>
</a>
</g>
<text text-anchor="start" x="76" y="-139" font-family="Helvetica,sans-Serif" font-size="10.00" fill="grey"> &lt; websocket_callback</text>
<text text-anchor="middle" x="132" y="-128" font-family="Helvetica,sans-Serif" font-size="10.00" fill="grey">_client &gt;</text>
</g>
<!-- Node4 -->
<g id="Node000004" class="node">
<title>Node4</title>
<g id="a_Node000004"><a xlink:title=" ">
<polygon fill="white" stroke="#666666" points="285.5,-101.5 170.5,-101.5 170.5,-82.5 285.5,-82.5 285.5,-101.5"/>
<text text-anchor="middle" x="228" y="-89.5" font-family="Helvetica,sans-Serif" font-size="10.00">std::atomic&lt; bool &gt;</text>
</a>
</g>
</g>
<!-- Node4&#45;&gt;Node1 -->
<g id="edge3_Node000001_Node000004" class="edge">
<title>Node4&#45;&gt;Node1</title>
<g id="a_edge3_Node000001_Node000004"><a xlink:title=" ">
<path fill="none" stroke="#9a32cd" stroke-dasharray="5,2" d="M228,-72.2C228,-59.14 228,-42.01 228,-30.11"/>
<polygon fill="#9a32cd" stroke="#9a32cd" points="224.5,-72.4 228,-82.4 231.5,-72.4 224.5,-72.4"/>
</a>
</g>
<text text-anchor="middle" x="262.5" y="-51" font-family="Helvetica,sans-Serif" font-size="10.00" fill="grey"> m_connected</text>
</g>
<!-- Node5 -->
<g id="Node000005" class="node">
<title>Node5</title>
<g id="a_Node000005"><a xlink:title=" ">
<polygon fill="white" stroke="#666666" points="275,-189.5 175,-189.5 175,-170.5 275,-170.5 275,-189.5"/>
<text text-anchor="middle" x="225" y="-177.5" font-family="Helvetica,sans-Serif" font-size="10.00">std::atomic&lt; T &gt;</text>
</a>
</g>
</g>
<!-- Node5&#45;&gt;Node4 -->
<g id="edge4_Node000004_Node000005" class="edge">
<title>Node5&#45;&gt;Node4</title>
<g id="a_edge4_Node000004_Node000005"><a xlink:title=" ">
<path fill="none" stroke="orange" stroke-dasharray="5,2" d="M225.65,-160.41C226.28,-142.17 227.23,-115.15 227.7,-101.53"/>
<polygon fill="orange" stroke="orange" points="222.15,-160.32 225.3,-170.44 229.15,-160.57 222.15,-160.32"/>
</a>
</g>
<text text-anchor="middle" x="250.5" y="-133.5" font-family="Helvetica,sans-Serif" font-size="10.00" fill="grey"> &lt; bool &gt;</text>
</g>
<!-- Node6 -->
<g id="Node000006" class="node">
<title>Node6</title>
<g id="a_Node000006"><a xlink:title=" ">
<polygon fill="white" stroke="#666666" points="374.5,-101.5 309.5,-101.5 309.5,-82.5 374.5,-82.5 374.5,-101.5"/>
<text text-anchor="middle" x="342" y="-89.5" font-family="Helvetica,sans-Serif" font-size="10.00">std::string</text>
</a>
</g>
</g>
<!-- Node6&#45;&gt;Node1 -->
<g id="edge5_Node000001_Node000006" class="edge">
<title>Node6&#45;&gt;Node1</title>
<g id="a_edge5_Node000001_Node000006"><a xlink:title=" ">
<path fill="none" stroke="#9a32cd" stroke-dasharray="5,2" d="M328.98,-74.45C321.5,-65.74 311.52,-55.37 301,-48 290.91,-40.93 279.02,-34.91 267.79,-30.06"/>
<polygon fill="#9a32cd" stroke="#9a32cd" points="326.5,-76.94 335.56,-82.44 331.9,-72.49 326.5,-76.94"/>
</a>
</g>
<text text-anchor="middle" x="329.5" y="-51" font-family="Helvetica,sans-Serif" font-size="10.00" fill="grey"> m_uri</text>
</g>
<!-- Node7 -->
<g id="Node000007" class="node">
<title>Node7</title>
<g id="a_Node000007"><a xlink:title=" ">
<polygon fill="white" stroke="#666666" points="397,-195 293,-195 293,-165 397,-165 397,-195"/>
<text text-anchor="start" x="301" y="-183" font-family="Helvetica,sans-Serif" font-size="10.00">std::basic_string&lt;</text>
<text text-anchor="middle" x="345" y="-172" font-family="Helvetica,sans-Serif" font-size="10.00"> Char &gt;</text>
</a>
</g>
</g>
<!-- Node7&#45;&gt;Node6 -->
<g id="edge6_Node000006_Node000007" class="edge">
<title>Node7&#45;&gt;Node6</title>
<g id="a_edge6_Node000006_Node000007"><a xlink:title=" ">
<path fill="none" stroke="#63b8ff" d="M344.15,-154.59C343.53,-136.9 342.73,-114 342.3,-101.71"/>
<polygon fill="#63b8ff" stroke="#63b8ff" points="340.66,-154.93 344.5,-164.8 347.65,-154.68 340.66,-154.93"/>
</a>
</g>
</g>
</g>
</svg>
