<?xml version="1.0" encoding="UTF-8" standalone="no"?>
<!DOCTYPE svg PUBLIC "-//W3C//DTD SVG 1.1//EN"
 "http://www.w3.org/Graphics/SVG/1.1/DTD/svg11.dtd">
<!-- Generated by graphviz version 2.43.0 (0)
 -->
<!-- Title: mosaic::core::PeerConnectionObserver Pages: 1 -->
<svg width="814pt" height="124pt"
 viewBox="0.00 0.00 814.00 123.50" xmlns="http://www.w3.org/2000/svg" xmlns:xlink="http://www.w3.org/1999/xlink">
<g id="graph0" class="graph" transform="scale(1 1) rotate(0) translate(4 119.5)">
<title>mosaic::core::PeerConnectionObserver</title>
<!-- Node1 -->
<g id="Node000001" class="node">
<title>Node1</title>
<g id="a_Node000001"><a xlink:title=" ">
<polygon fill="#999999" stroke="#666666" points="806,-78 645,-78 645,-48 806,-48 806,-78"/>
<text text-anchor="start" x="653" y="-66" font-family="Helvetica,sans-Serif" font-size="10.00">mosaic::core::PeerConnection</text>
<text text-anchor="middle" x="725.5" y="-55" font-family="Helvetica,sans-Serif" font-size="10.00">Observer</text>
</a>
</g>
</g>
<!-- Node2 -->
<g id="Node000002" class="node">
<title>Node2</title>
<g id="a_Node000002"><a xlink:title=" ">
<polygon fill="white" stroke="#666666" points="510,-115.5 334,-115.5 334,-96.5 510,-96.5 510,-115.5"/>
<text text-anchor="middle" x="422" y="-103.5" font-family="Helvetica,sans-Serif" font-size="10.00">webrtc::PeerConnectionObserver</text>
</a>
</g>
</g>
<!-- Node2&#45;&gt;Node1 -->
<g id="edge1_Node000001_Node000002" class="edge">
<title>Node2&#45;&gt;Node1</title>
<g id="a_edge1_Node000001_Node000002"><a xlink:title=" ">
<path fill="none" stroke="#63b8ff" d="M504.64,-95.1C541.96,-90.04 586.74,-83.86 627,-78 632.85,-77.15 638.89,-76.25 644.97,-75.34"/>
<polygon fill="#63b8ff" stroke="#63b8ff" points="503.76,-91.69 494.32,-96.5 504.7,-98.63 503.76,-91.69"/>
</a>
</g>
</g>
<!-- Node3 -->
<g id="Node000003" class="node">
<title>Node3</title>
<g id="a_Node000003"><a xlink:title=" ">
<polygon fill="white" stroke="#666666" points="494.5,-78 349.5,-78 349.5,-48 494.5,-48 494.5,-78"/>
<text text-anchor="start" x="357.5" y="-66" font-family="Helvetica,sans-Serif" font-size="10.00">std::shared_ptr&lt; mosaic</text>
<text text-anchor="middle" x="422" y="-55" font-family="Helvetica,sans-Serif" font-size="10.00">::core::MosaicConnector &gt;</text>
</a>
</g>
</g>
<!-- Node3&#45;&gt;Node1 -->
<g id="edge2_Node000001_Node000003" class="edge">
<title>Node3&#45;&gt;Node1</title>
<g id="a_edge2_Node000001_Node000003"><a xlink:title=" ">
<path fill="none" stroke="#9a32cd" stroke-dasharray="5,2" d="M505.11,-63C548.63,-63 601.87,-63 645,-63"/>
<polygon fill="#9a32cd" stroke="#9a32cd" points="504.83,-59.5 494.83,-63 504.83,-66.5 504.83,-59.5"/>
</a>
</g>
<text text-anchor="middle" x="578.5" y="-66" font-family="Helvetica,sans-Serif" font-size="10.00" fill="grey"> mosaic_connector_</text>
</g>
<!-- Node4 -->
<g id="Node000004" class="node">
<title>Node4</title>
<g id="a_Node000004"><a xlink:title=" ">
<polygon fill="white" stroke="#666666" points="118,-47.5 0,-47.5 0,-28.5 118,-28.5 118,-47.5"/>
<text text-anchor="middle" x="59" y="-35.5" font-family="Helvetica,sans-Serif" font-size="10.00">std::shared_ptr&lt; T &gt;</text>
</a>
</g>
</g>
<!-- Node4&#45;&gt;Node3 -->
<g id="edge3_Node000003_Node000004" class="edge">
<title>Node4&#45;&gt;Node3</title>
<g id="a_edge3_Node000003_Node000004"><a xlink:title=" ">
<path fill="none" stroke="orange" stroke-dasharray="5,2" d="M128.27,-42.73C191.51,-47.11 285.22,-53.6 349.48,-58.05"/>
<polygon fill="orange" stroke="orange" points="128.22,-39.22 118,-42.02 127.74,-46.2 128.22,-39.22"/>
</a>
</g>
<text text-anchor="middle" x="225" y="-58" font-family="Helvetica,sans-Serif" font-size="10.00" fill="grey"> &lt; mosaic::core::MosaicConnector &gt;</text>
</g>
<!-- Node5 -->
<g id="Node000005" class="node">
<title>Node5</title>
<g id="a_Node000005"><a xlink:title=" ">
<polygon fill="white" stroke="#666666" points="512,-30 332,-30 332,0 512,0 512,-30"/>
<text text-anchor="start" x="340" y="-18" font-family="Helvetica,sans-Serif" font-size="10.00">std::shared_ptr&lt; mosaic</text>
<text text-anchor="middle" x="422" y="-7" font-family="Helvetica,sans-Serif" font-size="10.00">::core::PeerConnectionManager &gt;</text>
</a>
</g>
</g>
<!-- Node4&#45;&gt;Node5 -->
<g id="edge5_Node000005_Node000004" class="edge">
<title>Node4&#45;&gt;Node5</title>
<g id="a_edge5_Node000005_Node000004"><a xlink:title=" ">
<path fill="none" stroke="orange" stroke-dasharray="5,2" d="M99.18,-25.72C110.91,-22.58 123.87,-19.63 136,-18 201.1,-9.23 275.32,-8.75 331.7,-10.32"/>
<polygon fill="orange" stroke="orange" points="97.94,-22.43 89.26,-28.49 99.83,-29.17 97.94,-22.43"/>
</a>
</g>
<text text-anchor="start" x="145" y="-32" font-family="Helvetica,sans-Serif" font-size="10.00" fill="grey"> &lt; mosaic::core::PeerConnection</text>
<text text-anchor="middle" x="225" y="-21" font-family="Helvetica,sans-Serif" font-size="10.00" fill="grey">Manager &gt;</text>
</g>
<!-- Node5&#45;&gt;Node1 -->
<g id="edge4_Node000001_Node000005" class="edge">
<title>Node5&#45;&gt;Node1</title>
<g id="a_edge4_Node000001_Node000005"><a xlink:title=" ">
<path fill="none" stroke="#9a32cd" stroke-dasharray="5,2" d="M522.24,-30.8C562.08,-37.14 607.37,-44.35 644.98,-50.34"/>
<polygon fill="#9a32cd" stroke="#9a32cd" points="522.66,-27.32 512.24,-29.21 521.56,-34.24 522.66,-27.32"/>
</a>
</g>
<text text-anchor="middle" x="578.5" y="-51" font-family="Helvetica,sans-Serif" font-size="10.00" fill="grey"> pc_manager_</text>
</g>
</g>
</svg>
