<?xml version="1.0" encoding="UTF-8" standalone="no"?>
<!DOCTYPE svg PUBLIC "-//W3C//DTD SVG 1.1//EN"
 "http://www.w3.org/Graphics/SVG/1.1/DTD/svg11.dtd">
<!-- Generated by graphviz version 2.43.0 (0)
 -->
<!-- Title: mosaic::handlers::IDataChannelReceivable Pages: 1 -->
<svg width="1322pt" height="173pt"
 viewBox="0.00 0.00 1322.00 172.50" xmlns="http://www.w3.org/2000/svg" xmlns:xlink="http://www.w3.org/1999/xlink">
<g id="graph0" class="graph" transform="scale(1 1) rotate(0) translate(4 168.5)">
<title>mosaic::handlers::IDataChannelReceivable</title>
<!-- Node1 -->
<g id="Node000001" class="node">
<title>Node1</title>
<g id="a_Node000001"><a xlink:title=" ">
<polygon fill="#999999" stroke="#666666" points="594,-77 422,-77 422,-47 594,-47 594,-77"/>
<text text-anchor="start" x="430" y="-65" font-family="Helvetica,sans-Serif" font-size="10.00">mosaic::handlers::IDataChannel</text>
<text text-anchor="middle" x="508" y="-54" font-family="Helvetica,sans-Serif" font-size="10.00">Receivable</text>
</a>
</g>
</g>
<!-- Node4 -->
<g id="Node000004" class="node">
<title>Node4</title>
<g id="a_Node000004"><a xlink:title=" ">
<polygon fill="white" stroke="#666666" points="1108,-164.5 939,-164.5 939,-123.5 1108,-123.5 1108,-164.5"/>
<text text-anchor="start" x="947" y="-152.5" font-family="Helvetica,sans-Serif" font-size="10.00">mosaic::handlers::DataChannel</text>
<text text-anchor="start" x="947" y="-141.5" font-family="Helvetica,sans-Serif" font-size="10.00">Receivable&lt; std::vector&lt;</text>
<text text-anchor="middle" x="1023.5" y="-130.5" font-family="Helvetica,sans-Serif" font-size="10.00"> uint8_t &gt; &gt;</text>
</a>
</g>
</g>
<!-- Node1&#45;&gt;Node4 -->
<g id="edge3_Node000001_Node000004" class="edge">
<title>Node1&#45;&gt;Node4</title>
<g id="a_edge3_Node000001_Node000004"><a xlink:title=" ">
<path fill="none" stroke="#63b8ff" d="M553.97,-80.8C576.77,-89.86 605.06,-100.38 631,-108 712.55,-131.95 733.48,-139.06 818,-148 863.52,-152.81 875.23,-148.9 921,-148 926.82,-147.89 932.82,-147.73 938.87,-147.56"/>
<polygon fill="#63b8ff" stroke="#63b8ff" points="555.14,-77.5 544.55,-77.02 552.53,-84 555.14,-77.5"/>
</a>
</g>
</g>
<!-- Node6 -->
<g id="Node000006" class="node">
<title>Node6</title>
<g id="a_Node000006"><a xlink:title=" ">
<polygon fill="white" stroke="#666666" points="1108,-96 939,-96 939,-66 1108,-66 1108,-96"/>
<text text-anchor="start" x="947" y="-84" font-family="Helvetica,sans-Serif" font-size="10.00">mosaic::handlers::DataChannel</text>
<text text-anchor="middle" x="1023.5" y="-73" font-family="Helvetica,sans-Serif" font-size="10.00">Receivable&lt; Json::Value &gt;</text>
</a>
</g>
</g>
<!-- Node1&#45;&gt;Node6 -->
<g id="edge5_Node000001_Node000006" class="edge">
<title>Node1&#45;&gt;Node6</title>
<g id="a_edge5_Node000001_Node000006"><a xlink:title=" ">
<path fill="none" stroke="#63b8ff" d="M604.2,-45.61C688.23,-33.99 813.69,-23.57 921,-43 945.25,-47.39 971.26,-57.24 990.88,-65.81"/>
<polygon fill="#63b8ff" stroke="#63b8ff" points="603.58,-42.16 594.17,-47.03 604.56,-49.1 603.58,-42.16"/>
</a>
</g>
</g>
<!-- Node8 -->
<g id="Node000008" class="node">
<title>Node8</title>
<g id="a_Node000008"><a xlink:title=" ">
<polygon fill="white" stroke="#666666" points="1108,-30 939,-30 939,0 1108,0 1108,-30"/>
<text text-anchor="start" x="947" y="-18" font-family="Helvetica,sans-Serif" font-size="10.00">mosaic::handlers::DataChannel</text>
<text text-anchor="middle" x="1023.5" y="-7" font-family="Helvetica,sans-Serif" font-size="10.00">Receivable&lt; std::string &gt;</text>
</a>
</g>
</g>
<!-- Node1&#45;&gt;Node8 -->
<g id="edge7_Node000001_Node000008" class="edge">
<title>Node1&#45;&gt;Node8</title>
<g id="a_edge7_Node000001_Node000008"><a xlink:title=" ">
<path fill="none" stroke="#63b8ff" d="M564.67,-44.07C585.29,-38.19 609,-32.32 631,-29 736.24,-13.1 859.12,-11.41 938.74,-12.49"/>
<polygon fill="#63b8ff" stroke="#63b8ff" points="563.44,-40.78 554.82,-46.94 565.4,-47.5 563.44,-40.78"/>
</a>
</g>
</g>
<!-- Node10 -->
<g id="Node000010" class="node">
<title>Node10</title>
<g id="a_Node000010"><a xlink:href="classmosaic_1_1handlers_1_1DataChannelReceivable.html" target="_top" xlink:title=" ">
<polygon fill="white" stroke="#666666" points="800,-99 631,-99 631,-69 800,-69 800,-99"/>
<text text-anchor="start" x="639" y="-87" font-family="Helvetica,sans-Serif" font-size="10.00">mosaic::handlers::DataChannel</text>
<text text-anchor="middle" x="715.5" y="-76" font-family="Helvetica,sans-Serif" font-size="10.00">Receivable&lt; ReceiveT &gt;</text>
</a>
</g>
</g>
<!-- Node1&#45;&gt;Node10 -->
<g id="edge9_Node000001_Node000010" class="edge">
<title>Node1&#45;&gt;Node10</title>
<g id="a_edge9_Node000001_Node000010"><a xlink:title=" ">
<path fill="none" stroke="#63b8ff" d="M604.09,-72.18C613.01,-73.14 622.01,-74.1 630.82,-75.04"/>
<polygon fill="#63b8ff" stroke="#63b8ff" points="604.38,-68.69 594.07,-71.11 603.64,-75.65 604.38,-68.69"/>
</a>
</g>
</g>
<!-- Node2 -->
<g id="Node000002" class="node">
<title>Node2</title>
<g id="a_Node000002"><a xlink:href="classmosaic_1_1handlers_1_1ADataChannelHandler.html" target="_top" xlink:title=" ">
<polygon fill="white" stroke="#666666" points="385,-77 209,-77 209,-47 385,-47 385,-77"/>
<text text-anchor="start" x="217" y="-65" font-family="Helvetica,sans-Serif" font-size="10.00">mosaic::handlers::ADataChannel</text>
<text text-anchor="middle" x="297" y="-54" font-family="Helvetica,sans-Serif" font-size="10.00">Handler</text>
</a>
</g>
</g>
<!-- Node2&#45;&gt;Node1 -->
<g id="edge1_Node000001_Node000002" class="edge">
<title>Node2&#45;&gt;Node1</title>
<g id="a_edge1_Node000001_Node000002"><a xlink:title=" ">
<path fill="none" stroke="#63b8ff" d="M395.39,-62C404.17,-62 413.03,-62 421.7,-62"/>
<polygon fill="#63b8ff" stroke="#63b8ff" points="395.12,-58.5 385.12,-62 395.12,-65.5 395.12,-58.5"/>
</a>
</g>
</g>
<!-- Node3 -->
<g id="Node000003" class="node">
<title>Node3</title>
<g id="a_Node000003"><a xlink:href="classmosaic_1_1handlers_1_1IDataChannelHandler.html" target="_top" xlink:title=" ">
<polygon fill="white" stroke="#666666" points="172,-77 0,-77 0,-47 172,-47 172,-77"/>
<text text-anchor="start" x="8" y="-65" font-family="Helvetica,sans-Serif" font-size="10.00">mosaic::handlers::IDataChannel</text>
<text text-anchor="middle" x="86" y="-54" font-family="Helvetica,sans-Serif" font-size="10.00">Handler</text>
</a>
</g>
</g>
<!-- Node3&#45;&gt;Node2 -->
<g id="edge2_Node000002_Node000003" class="edge">
<title>Node3&#45;&gt;Node2</title>
<g id="a_edge2_Node000002_Node000003"><a xlink:title=" ">
<path fill="none" stroke="#63b8ff" d="M182.28,-62C191.08,-62 199.97,-62 208.69,-62"/>
<polygon fill="#63b8ff" stroke="#63b8ff" points="182.01,-58.5 172.01,-62 182.01,-65.5 182.01,-58.5"/>
</a>
</g>
</g>
<!-- Node5 -->
<g id="Node000005" class="node">
<title>Node5</title>
<g id="a_Node000005"><a xlink:href="classmosaic_1_1handlers_1_1DataChannelByteReceivable.html" target="_top" xlink:title=" ">
<polygon fill="white" stroke="#666666" points="1314,-159 1145,-159 1145,-129 1314,-129 1314,-159"/>
<text text-anchor="start" x="1153" y="-147" font-family="Helvetica,sans-Serif" font-size="10.00">mosaic::handlers::DataChannel</text>
<text text-anchor="middle" x="1229.5" y="-136" font-family="Helvetica,sans-Serif" font-size="10.00">ByteReceivable</text>
</a>
</g>
</g>
<!-- Node4&#45;&gt;Node5 -->
<g id="edge4_Node000004_Node000005" class="edge">
<title>Node4&#45;&gt;Node5</title>
<g id="a_edge4_Node000004_Node000005"><a xlink:title=" ">
<path fill="none" stroke="#63b8ff" d="M1118.34,-144C1127.15,-144 1136.03,-144 1144.74,-144"/>
<polygon fill="#63b8ff" stroke="#63b8ff" points="1118.06,-140.5 1108.06,-144 1118.06,-147.5 1118.06,-140.5"/>
</a>
</g>
</g>
<!-- Node7 -->
<g id="Node000007" class="node">
<title>Node7</title>
<g id="a_Node000007"><a xlink:href="classmosaic_1_1handlers_1_1DataChannelJsonReceivable.html" target="_top" xlink:title=" ">
<polygon fill="white" stroke="#666666" points="1314,-96 1145,-96 1145,-66 1314,-66 1314,-96"/>
<text text-anchor="start" x="1153" y="-84" font-family="Helvetica,sans-Serif" font-size="10.00">mosaic::handlers::DataChannel</text>
<text text-anchor="middle" x="1229.5" y="-73" font-family="Helvetica,sans-Serif" font-size="10.00">JsonReceivable</text>
</a>
</g>
</g>
<!-- Node6&#45;&gt;Node7 -->
<g id="edge6_Node000006_Node000007" class="edge">
<title>Node6&#45;&gt;Node7</title>
<g id="a_edge6_Node000006_Node000007"><a xlink:title=" ">
<path fill="none" stroke="#63b8ff" d="M1118.34,-81C1127.15,-81 1136.03,-81 1144.74,-81"/>
<polygon fill="#63b8ff" stroke="#63b8ff" points="1118.06,-77.5 1108.06,-81 1118.06,-84.5 1118.06,-77.5"/>
</a>
</g>
</g>
<!-- Node9 -->
<g id="Node000009" class="node">
<title>Node9</title>
<g id="a_Node000009"><a xlink:href="classmosaic_1_1handlers_1_1DataChannelStringReceivable.html" target="_top" xlink:title=" ">
<polygon fill="white" stroke="#666666" points="1314,-30 1145,-30 1145,0 1314,0 1314,-30"/>
<text text-anchor="start" x="1153" y="-18" font-family="Helvetica,sans-Serif" font-size="10.00">mosaic::handlers::DataChannel</text>
<text text-anchor="middle" x="1229.5" y="-7" font-family="Helvetica,sans-Serif" font-size="10.00">StringReceivable</text>
</a>
</g>
</g>
<!-- Node8&#45;&gt;Node9 -->
<g id="edge8_Node000008_Node000009" class="edge">
<title>Node8&#45;&gt;Node9</title>
<g id="a_edge8_Node000008_Node000009"><a xlink:title=" ">
<path fill="none" stroke="#63b8ff" d="M1118.34,-15C1127.15,-15 1136.03,-15 1144.74,-15"/>
<polygon fill="#63b8ff" stroke="#63b8ff" points="1118.06,-11.5 1108.06,-15 1118.06,-18.5 1118.06,-11.5"/>
</a>
</g>
</g>
<!-- Node10&#45;&gt;Node4 -->
<g id="edge10_Node000010_Node000004" class="edge">
<title>Node10&#45;&gt;Node4</title>
<g id="a_edge10_Node000010_Node000004"><a xlink:title=" ">
<path fill="none" stroke="orange" stroke-dasharray="5,2" d="M803.38,-101.03C845.9,-109.37 896.85,-119.36 938.92,-127.61"/>
<polygon fill="orange" stroke="orange" points="803.81,-97.55 793.32,-99.06 802.46,-104.42 803.81,-97.55"/>
</a>
</g>
<text text-anchor="start" x="818" y="-136" font-family="Helvetica,sans-Serif" font-size="10.00" fill="grey"> &lt; std::vector&lt; uint8</text>
<text text-anchor="middle" x="869.5" y="-125" font-family="Helvetica,sans-Serif" font-size="10.00" fill="grey">_t &gt; &gt;</text>
</g>
<!-- Node10&#45;&gt;Node6 -->
<g id="edge11_Node000010_Node000006" class="edge">
<title>Node10&#45;&gt;Node6</title>
<g id="a_edge11_Node000010_Node000006"><a xlink:title=" ">
<path fill="none" stroke="orange" stroke-dasharray="5,2" d="M810.14,-83.08C851.24,-82.68 899.11,-82.21 938.99,-81.82"/>
<polygon fill="orange" stroke="orange" points="810.08,-79.58 800.12,-83.18 810.15,-86.58 810.08,-79.58"/>
</a>
</g>
<text text-anchor="middle" x="869.5" y="-86" font-family="Helvetica,sans-Serif" font-size="10.00" fill="grey"> &lt; Json::Value &gt;</text>
</g>
<!-- Node10&#45;&gt;Node8 -->
<g id="edge12_Node000010_Node000008" class="edge">
<title>Node10&#45;&gt;Node8</title>
<g id="a_edge12_Node000010_Node000008"><a xlink:title=" ">
<path fill="none" stroke="orange" stroke-dasharray="5,2" d="M793.08,-66.73C843.16,-55.44 907.93,-40.84 955.87,-30.02"/>
<polygon fill="orange" stroke="orange" points="792.26,-63.33 783.27,-68.94 793.8,-70.16 792.26,-63.33"/>
</a>
</g>
<text text-anchor="middle" x="869.5" y="-63" font-family="Helvetica,sans-Serif" font-size="10.00" fill="grey"> &lt; std::string &gt;</text>
</g>
</g>
</svg>
