<?xml version="1.0" encoding="UTF-8" standalone="no"?>
<!DOCTYPE svg PUBLIC "-//W3C//DTD SVG 1.1//EN"
 "http://www.w3.org/Graphics/SVG/1.1/DTD/svg11.dtd">
<!-- Generated by graphviz version 2.43.0 (0)
 -->
<!-- Title: mosaic::core::MosaicConnectorFactory Pages: 1 -->
<svg width="250pt" height="181pt"
 viewBox="0.00 0.00 249.50 181.00" xmlns="http://www.w3.org/2000/svg" xmlns:xlink="http://www.w3.org/1999/xlink">
<g id="graph0" class="graph" transform="scale(1 1) rotate(0) translate(4 177)">
<title>mosaic::core::MosaicConnectorFactory</title>
<!-- Node1 -->
<g id="Node000001" class="node">
<title>Node1</title>
<g id="a_Node000001"><a xlink:title=" ">
<polygon fill="#999999" stroke="#666666" points="169,-30 0,-30 0,0 169,0 169,-30"/>
<text text-anchor="start" x="8" y="-18" font-family="Helvetica,sans-Serif" font-size="10.00">mosaic::core::MosaicConnector</text>
<text text-anchor="middle" x="84.5" y="-7" font-family="Helvetica,sans-Serif" font-size="10.00">Factory</text>
</a>
</g>
</g>
<!-- Node2 -->
<g id="Node000002" class="node">
<title>Node2</title>
<g id="a_Node000002"><a xlink:title=" ">
<polygon fill="white" stroke="#666666" points="152.5,-107 16.5,-107 16.5,-77 152.5,-77 152.5,-107"/>
<text text-anchor="start" x="24.5" y="-95" font-family="Helvetica,sans-Serif" font-size="10.00">std::shared_ptr&lt; mosaic</text>
<text text-anchor="middle" x="84.5" y="-84" font-family="Helvetica,sans-Serif" font-size="10.00">::core::ServerConfig &gt;</text>
</a>
</g>
</g>
<!-- Node2&#45;&gt;Node1 -->
<g id="edge1_Node000001_Node000002" class="edge">
<title>Node2&#45;&gt;Node1</title>
<g id="a_edge1_Node000001_Node000002"><a xlink:title=" ">
<path fill="none" stroke="#9a32cd" stroke-dasharray="5,2" d="M84.5,-66.54C84.5,-54.45 84.5,-40.29 84.5,-30.04"/>
<polygon fill="#9a32cd" stroke="#9a32cd" points="81,-66.89 84.5,-76.89 88,-66.89 81,-66.89"/>
</a>
</g>
<text text-anchor="middle" x="121.5" y="-51" font-family="Helvetica,sans-Serif" font-size="10.00" fill="grey"> server_config_</text>
</g>
<!-- Node3 -->
<g id="Node000003" class="node">
<title>Node3</title>
<g id="a_Node000003"><a xlink:title=" ">
<polygon fill="white" stroke="#666666" points="143.5,-173 25.5,-173 25.5,-154 143.5,-154 143.5,-173"/>
<text text-anchor="middle" x="84.5" y="-161" font-family="Helvetica,sans-Serif" font-size="10.00">std::shared_ptr&lt; T &gt;</text>
</a>
</g>
</g>
<!-- Node3&#45;&gt;Node2 -->
<g id="edge2_Node000002_Node000003" class="edge">
<title>Node3&#45;&gt;Node2</title>
<g id="a_edge2_Node000002_Node000003"><a xlink:title=" ">
<path fill="none" stroke="orange" stroke-dasharray="5,2" d="M84.5,-143.71C84.5,-132.19 84.5,-117.68 84.5,-107.14"/>
<polygon fill="orange" stroke="orange" points="81,-143.98 84.5,-153.98 88,-143.98 81,-143.98"/>
</a>
</g>
<text text-anchor="middle" x="163" y="-128" font-family="Helvetica,sans-Serif" font-size="10.00" fill="grey"> &lt; mosaic::core::ServerConfig &gt;</text>
</g>
</g>
</svg>
