<?xml version="1.0" encoding="UTF-8" standalone="no"?>
<!DOCTYPE svg PUBLIC "-//W3C//DTD SVG 1.1//EN"
 "http://www.w3.org/Graphics/SVG/1.1/DTD/svg11.dtd">
<!-- Generated by graphviz version 2.43.0 (0)
 -->
<!-- Title: mosaic::auto_configurer::IConfigurableConnector Pages: 1 -->
<svg width="212pt" height="192pt"
 viewBox="0.00 0.00 211.50 192.00" xmlns="http://www.w3.org/2000/svg" xmlns:xlink="http://www.w3.org/1999/xlink">
<g id="graph0" class="graph" transform="scale(1 1) rotate(0) translate(4 188)">
<title>mosaic::auto_configurer::IConfigurableConnector</title>
<!-- Node1 -->
<g id="Node000001" class="node">
<title>Node1</title>
<g id="a_Node000001"><a xlink:title=" ">
<polygon fill="#999999" stroke="#666666" points="139,-30 2,-30 2,0 139,0 139,-30"/>
<text text-anchor="start" x="10" y="-18" font-family="Helvetica,sans-Serif" font-size="10.00">mosaic::auto_configurer</text>
<text text-anchor="middle" x="70.5" y="-7" font-family="Helvetica,sans-Serif" font-size="10.00">::IConfigurableConnector</text>
</a>
</g>
</g>
<!-- Node2 -->
<g id="Node000002" class="node">
<title>Node2</title>
<g id="a_Node000002"><a xlink:title=" ">
<polygon fill="white" stroke="#666666" points="141,-107 0,-107 0,-77 141,-77 141,-107"/>
<text text-anchor="start" x="8" y="-95" font-family="Helvetica,sans-Serif" font-size="10.00">std::shared_ptr&lt; mosaic</text>
<text text-anchor="middle" x="70.5" y="-84" font-family="Helvetica,sans-Serif" font-size="10.00">::core::ConnectorConfig &gt;</text>
</a>
</g>
</g>
<!-- Node2&#45;&gt;Node1 -->
<g id="edge1_Node000001_Node000002" class="edge">
<title>Node2&#45;&gt;Node1</title>
<g id="a_edge1_Node000001_Node000002"><a xlink:title=" ">
<path fill="none" stroke="#9a32cd" stroke-dasharray="5,2" d="M70.5,-66.54C70.5,-54.45 70.5,-40.29 70.5,-30.04"/>
<polygon fill="#9a32cd" stroke="#9a32cd" points="67,-66.89 70.5,-76.89 74,-66.89 67,-66.89"/>
</a>
</g>
<text text-anchor="middle" x="116" y="-51" font-family="Helvetica,sans-Serif" font-size="10.00" fill="grey"> connector_config_</text>
</g>
<!-- Node3 -->
<g id="Node000003" class="node">
<title>Node3</title>
<g id="a_Node000003"><a xlink:title=" ">
<polygon fill="white" stroke="#666666" points="129.5,-184 11.5,-184 11.5,-165 129.5,-165 129.5,-184"/>
<text text-anchor="middle" x="70.5" y="-172" font-family="Helvetica,sans-Serif" font-size="10.00">std::shared_ptr&lt; T &gt;</text>
</a>
</g>
</g>
<!-- Node3&#45;&gt;Node2 -->
<g id="edge2_Node000002_Node000003" class="edge">
<title>Node3&#45;&gt;Node2</title>
<g id="a_edge2_Node000002_Node000003"><a xlink:title=" ">
<path fill="none" stroke="orange" stroke-dasharray="5,2" d="M70.5,-154.6C70.5,-140.1 70.5,-120.4 70.5,-107.22"/>
<polygon fill="orange" stroke="orange" points="67,-154.89 70.5,-164.89 74,-154.89 67,-154.89"/>
</a>
</g>
<text text-anchor="start" x="70.5" y="-139" font-family="Helvetica,sans-Serif" font-size="10.00" fill="grey"> &lt; mosaic::core::Connector</text>
<text text-anchor="middle" x="137" y="-128" font-family="Helvetica,sans-Serif" font-size="10.00" fill="grey">Config &gt;</text>
</g>
</g>
</svg>
