<?xml version="1.0" encoding="UTF-8" standalone="no"?>
<!DOCTYPE svg PUBLIC "-//W3C//DTD SVG 1.1//EN"
 "http://www.w3.org/Graphics/SVG/1.1/DTD/svg11.dtd">
<!-- Generated by graphviz version 2.43.0 (0)
 -->
<!-- Title: mosaic::handlers::DataChannelByteReceivable Pages: 1 -->
<svg width="1628pt" height="98pt"
 viewBox="0.00 0.00 1628.00 97.50" xmlns="http://www.w3.org/2000/svg" xmlns:xlink="http://www.w3.org/1999/xlink">
<g id="graph0" class="graph" transform="scale(1 1) rotate(0) translate(4 93.5)">
<title>mosaic::handlers::DataChannelByteReceivable</title>
<!-- Node1 -->
<g id="Node000001" class="node">
<title>Node1</title>
<g id="a_Node000001"><a xlink:title=" ">
<polygon fill="#999999" stroke="#666666" points="1620,-62.5 1451,-62.5 1451,-32.5 1620,-32.5 1620,-62.5"/>
<text text-anchor="start" x="1459" y="-50.5" font-family="Helvetica,sans-Serif" font-size="10.00">mosaic::handlers::DataChannel</text>
<text text-anchor="middle" x="1535.5" y="-39.5" font-family="Helvetica,sans-Serif" font-size="10.00">ByteReceivable</text>
</a>
</g>
</g>
<!-- Node2 -->
<g id="Node000002" class="node">
<title>Node2</title>
<g id="a_Node000002"><a xlink:title=" ">
<polygon fill="white" stroke="#666666" points="1414,-68 1245,-68 1245,-27 1414,-27 1414,-68"/>
<text text-anchor="start" x="1253" y="-56" font-family="Helvetica,sans-Serif" font-size="10.00">mosaic::handlers::DataChannel</text>
<text text-anchor="start" x="1253" y="-45" font-family="Helvetica,sans-Serif" font-size="10.00">Receivable&lt; std::vector&lt;</text>
<text text-anchor="middle" x="1329.5" y="-34" font-family="Helvetica,sans-Serif" font-size="10.00"> uint8_t &gt; &gt;</text>
</a>
</g>
</g>
<!-- Node2&#45;&gt;Node1 -->
<g id="edge1_Node000001_Node000002" class="edge">
<title>Node2&#45;&gt;Node1</title>
<g id="a_edge1_Node000001_Node000002"><a xlink:title=" ">
<path fill="none" stroke="#63b8ff" d="M1424.34,-47.5C1433.15,-47.5 1442.03,-47.5 1450.74,-47.5"/>
<polygon fill="#63b8ff" stroke="#63b8ff" points="1424.06,-44 1414.06,-47.5 1424.06,-51 1424.06,-44"/>
</a>
</g>
</g>
<!-- Node3 -->
<g id="Node000003" class="node">
<title>Node3</title>
<g id="a_Node000003"><a xlink:href="classmosaic_1_1handlers_1_1IDataChannelReceivable.html" target="_top" xlink:title=" ">
<polygon fill="white" stroke="#666666" points="900,-62.5 728,-62.5 728,-32.5 900,-32.5 900,-62.5"/>
<text text-anchor="start" x="736" y="-50.5" font-family="Helvetica,sans-Serif" font-size="10.00">mosaic::handlers::IDataChannel</text>
<text text-anchor="middle" x="814" y="-39.5" font-family="Helvetica,sans-Serif" font-size="10.00">Receivable</text>
</a>
</g>
</g>
<!-- Node3&#45;&gt;Node2 -->
<g id="edge2_Node000002_Node000003" class="edge">
<title>Node3&#45;&gt;Node2</title>
<g id="a_edge2_Node000002_Node000003"><a xlink:title=" ">
<path fill="none" stroke="#63b8ff" d="M910.48,-52.53C994,-56.17 1118.57,-59.77 1227,-55.5 1232.83,-55.27 1238.84,-54.97 1244.89,-54.61"/>
<polygon fill="#63b8ff" stroke="#63b8ff" points="910.39,-49.02 900.25,-52.07 910.08,-56.01 910.39,-49.02"/>
</a>
</g>
</g>
<!-- Node8 -->
<g id="Node000008" class="node">
<title>Node8</title>
<g id="a_Node000008"><a xlink:href="classmosaic_1_1handlers_1_1DataChannelReceivable.html" target="_top" xlink:title=" ">
<polygon fill="white" stroke="#666666" points="1106,-41.5 937,-41.5 937,-11.5 1106,-11.5 1106,-41.5"/>
<text text-anchor="start" x="945" y="-29.5" font-family="Helvetica,sans-Serif" font-size="10.00">mosaic::handlers::DataChannel</text>
<text text-anchor="middle" x="1021.5" y="-18.5" font-family="Helvetica,sans-Serif" font-size="10.00">Receivable&lt; ReceiveT &gt;</text>
</a>
</g>
</g>
<!-- Node3&#45;&gt;Node8 -->
<g id="edge8_Node000008_Node000003" class="edge">
<title>Node3&#45;&gt;Node8</title>
<g id="a_edge8_Node000008_Node000003"><a xlink:title=" ">
<path fill="none" stroke="#63b8ff" d="M910.09,-37.78C919.01,-36.87 928.01,-35.95 936.82,-35.05"/>
<polygon fill="#63b8ff" stroke="#63b8ff" points="909.66,-34.31 900.07,-38.81 910.37,-41.27 909.66,-34.31"/>
</a>
</g>
</g>
<!-- Node4 -->
<g id="Node000004" class="node">
<title>Node4</title>
<g id="a_Node000004"><a xlink:href="classmosaic_1_1handlers_1_1ADataChannelHandler.html" target="_top" xlink:title=" ">
<polygon fill="white" stroke="#666666" points="691,-62.5 515,-62.5 515,-32.5 691,-32.5 691,-62.5"/>
<text text-anchor="start" x="523" y="-50.5" font-family="Helvetica,sans-Serif" font-size="10.00">mosaic::handlers::ADataChannel</text>
<text text-anchor="middle" x="603" y="-39.5" font-family="Helvetica,sans-Serif" font-size="10.00">Handler</text>
</a>
</g>
</g>
<!-- Node4&#45;&gt;Node3 -->
<g id="edge3_Node000003_Node000004" class="edge">
<title>Node4&#45;&gt;Node3</title>
<g id="a_edge3_Node000003_Node000004"><a xlink:title=" ">
<path fill="none" stroke="#63b8ff" d="M701.39,-47.5C710.17,-47.5 719.03,-47.5 727.7,-47.5"/>
<polygon fill="#63b8ff" stroke="#63b8ff" points="701.12,-44 691.12,-47.5 701.12,-51 701.12,-44"/>
</a>
</g>
</g>
<!-- Node5 -->
<g id="Node000005" class="node">
<title>Node5</title>
<g id="a_Node000005"><a xlink:href="classmosaic_1_1handlers_1_1IDataChannelHandler.html" target="_top" xlink:title=" ">
<polygon fill="white" stroke="#666666" points="444.5,-89.5 272.5,-89.5 272.5,-59.5 444.5,-59.5 444.5,-89.5"/>
<text text-anchor="start" x="280.5" y="-77.5" font-family="Helvetica,sans-Serif" font-size="10.00">mosaic::handlers::IDataChannel</text>
<text text-anchor="middle" x="358.5" y="-66.5" font-family="Helvetica,sans-Serif" font-size="10.00">Handler</text>
</a>
</g>
</g>
<!-- Node5&#45;&gt;Node4 -->
<g id="edge4_Node000004_Node000005" class="edge">
<title>Node5&#45;&gt;Node4</title>
<g id="a_edge4_Node000004_Node000005"><a xlink:title=" ">
<path fill="none" stroke="#63b8ff" d="M454.64,-63.91C474.54,-61.69 495.42,-59.37 515,-57.19"/>
<polygon fill="#63b8ff" stroke="#63b8ff" points="454.21,-60.43 444.66,-65.02 454.98,-67.39 454.21,-60.43"/>
</a>
</g>
</g>
<!-- Node6 -->
<g id="Node000006" class="node">
<title>Node6</title>
<g id="a_Node000006"><a xlink:title=" ">
<polygon fill="white" stroke="#666666" points="448,-41 269,-41 269,0 448,0 448,-41"/>
<text text-anchor="start" x="277" y="-29" font-family="Helvetica,sans-Serif" font-size="10.00">std::shared_ptr&lt; mosaic</text>
<text text-anchor="start" x="277" y="-18" font-family="Helvetica,sans-Serif" font-size="10.00">::handlers::ADataChannelHandler</text>
<text text-anchor="middle" x="358.5" y="-7" font-family="Helvetica,sans-Serif" font-size="10.00">::Impl &gt;</text>
</a>
</g>
</g>
<!-- Node6&#45;&gt;Node4 -->
<g id="edge5_Node000004_Node000006" class="edge">
<title>Node6&#45;&gt;Node4</title>
<g id="a_edge5_Node000004_Node000006"><a xlink:title=" ">
<path fill="none" stroke="#9a32cd" stroke-dasharray="5,2" d="M458.13,-31.48C476.92,-33.57 496.47,-35.75 514.88,-37.8"/>
<polygon fill="#9a32cd" stroke="#9a32cd" points="458.4,-27.99 448.08,-30.36 457.63,-34.95 458.4,-27.99"/>
</a>
</g>
<text text-anchor="middle" x="481.5" y="-39.5" font-family="Helvetica,sans-Serif" font-size="10.00" fill="grey"> pImpl</text>
</g>
<!-- Node7 -->
<g id="Node000007" class="node">
<title>Node7</title>
<g id="a_Node000007"><a xlink:title=" ">
<polygon fill="white" stroke="#666666" points="118,-30 0,-30 0,-11 118,-11 118,-30"/>
<text text-anchor="middle" x="59" y="-18" font-family="Helvetica,sans-Serif" font-size="10.00">std::shared_ptr&lt; T &gt;</text>
</a>
</g>
</g>
<!-- Node7&#45;&gt;Node6 -->
<g id="edge6_Node000006_Node000007" class="edge">
<title>Node7&#45;&gt;Node6</title>
<g id="a_edge6_Node000006_Node000007"><a xlink:title=" ">
<path fill="none" stroke="orange" stroke-dasharray="5,2" d="M128.13,-20.5C169.88,-20.5 223.76,-20.5 268.81,-20.5"/>
<polygon fill="orange" stroke="orange" points="128.07,-17 118.07,-20.5 128.07,-24 128.07,-17"/>
</a>
</g>
<text text-anchor="start" x="136" y="-45.5" font-family="Helvetica,sans-Serif" font-size="10.00" fill="grey"> &lt; mosaic::handlers</text>
<text text-anchor="start" x="136" y="-34.5" font-family="Helvetica,sans-Serif" font-size="10.00" fill="grey">::ADataChannelHandler</text>
<text text-anchor="middle" x="193.5" y="-23.5" font-family="Helvetica,sans-Serif" font-size="10.00" fill="grey">::Impl &gt;</text>
</g>
<!-- Node8&#45;&gt;Node2 -->
<g id="edge7_Node000002_Node000008" class="edge">
<title>Node8&#45;&gt;Node2</title>
<g id="a_edge7_Node000002_Node000008"><a xlink:title=" ">
<path fill="none" stroke="orange" stroke-dasharray="5,2" d="M1116.35,-27.69C1151.15,-28.66 1190.92,-30.4 1227,-33.5 1232.85,-34 1238.88,-34.61 1244.94,-35.28"/>
<polygon fill="orange" stroke="orange" points="1116.28,-24.19 1106.19,-27.42 1116.1,-31.18 1116.28,-24.19"/>
</a>
</g>
<text text-anchor="start" x="1124" y="-47.5" font-family="Helvetica,sans-Serif" font-size="10.00" fill="grey"> &lt; std::vector&lt; uint8</text>
<text text-anchor="middle" x="1175.5" y="-36.5" font-family="Helvetica,sans-Serif" font-size="10.00" fill="grey">_t &gt; &gt;</text>
</g>
</g>
</svg>
