<?xml version="1.0" encoding="UTF-8" standalone="no"?>
<!DOCTYPE svg PUBLIC "-//W3C//DTD SVG 1.1//EN"
 "http://www.w3.org/Graphics/SVG/1.1/DTD/svg11.dtd">
<!-- Generated by graphviz version 2.43.0 (0)
 -->
<!-- Title: mosaic::core::MosaicConnector Pages: 1 -->
<!--zoomable 205 -->

<svg id="main" version="1.1" xmlns="http://www.w3.org/2000/svg" xmlns:xlink="http://www.w3.org/1999/xlink" xml:space="preserve" onload="init(evt)">
<style type="text/css"><![CDATA[
.node, .edge {opacity: 0.7;}
.node.selected, .edge.selected {opacity: 1;}
.edge:hover path { stroke: red; }
.edge:hover polygon { stroke: red; fill: red; }
]]></style>

<defs>
  <circle id="rim" cx="0" cy="0" r="7"/>
  <circle id="rim2" cx="0" cy="0" r="3.5"/>
  <g id="zoomPlus">
    <use xlink:href="#rim" fill="#404040"><set attributeName="fill" to="#808080" begin="zoomplus.mouseover" end="zoomplus.mouseout"/></use>
    <path d="M-4,0h8M0,-4v8" fill="none" stroke="white" stroke-width="1.5" pointer-events="none"/>
  </g>
  <g id="zoomMin">
    <use xlink:href="#rim" fill="#404040"><set attributeName="fill" to="#808080" begin="zoomminus.mouseover" end="zoomminus.mouseout"/></use>
    <path d="M-4,0h8" fill="none" stroke="white" stroke-width="1.5" pointer-events="none"/>
  </g>
  <g id="arrowUp" transform="translate(30 24)">
    <use xlink:href="#rim"/>
    <path pointer-events="none" fill="none" stroke="white" stroke-width="1.5" d="M0,-3.0v7 M-2.5,-0.5L0,-3.0L2.5,-0.5"/>
  </g>
  <g id="arrowRight" transform="rotate(90) translate(36 -43)">
    <use xlink:href="#rim"/>
    <path pointer-events="none" fill="none" stroke="white" stroke-width="1.5" d="M0,-3.0v7 M-2.5,-0.5L0,-3.0L2.5,-0.5"/>
  </g>
  <g id="arrowDown" transform="rotate(180) translate(-30 -48)">
    <use xlink:href="#rim"/>
    <path pointer-events="none" fill="none" stroke="white" stroke-width="1.5" d="M0,-3.0v7 M-2.5,-0.5L0,-3.0L2.5,-0.5"/>
  </g>
  <g id="arrowLeft" transform="rotate(270) translate(-36 17)">
    <use xlink:href="#rim"/>
    <path pointer-events="none" fill="none" stroke="white" stroke-width="1.5" d="M0,-3.0v7 M-2.5,-0.5L0,-3.0L2.5,-0.5"/>
  </g>
  <g id="resetDef">
    <use xlink:href="#rim2" fill="#404040"><set attributeName="fill" to="#808080" begin="reset.mouseover" end="reset.mouseout"/></use>
  </g>
</defs>
<script type="application/ecmascript">
var viewWidth = 883;
var viewHeight = 205;
var sectionId = 'dynsection-0';
</script>
<script type="application/ecmascript" xlink:href="svg.min.js"/>
<svg id="graph" class="graph">
<g id="viewport">
<title>mosaic::core::MosaicConnector</title>
<!-- Node1 -->
<g id="Node000001" class="node">
<title>Node1</title>
<g id="a_Node000001"><a xlink:title=" ">
<polygon fill="#999999" stroke="#666666" points="875,-115 706,-115 706,-96 875,-96 875,-115"/>
<text text-anchor="middle" x="790.5" y="-103" font-family="Helvetica,sans-Serif" font-size="10.00">mosaic::core::MosaicConnector</text>
</a>
</g>
</g>
<!-- Node2 -->
<g id="Node000002" class="node">
<title>Node2</title>
<g id="a_Node000002"><a xlink:title=" ">
<polygon fill="white" stroke="#666666" points="523.5,-196.5 343.5,-196.5 343.5,-166.5 523.5,-166.5 523.5,-196.5"/>
<text text-anchor="start" x="351.5" y="-184.5" font-family="Helvetica,sans-Serif" font-size="10.00">std::shared_ptr&lt; mosaic</text>
<text text-anchor="middle" x="433.5" y="-173.5" font-family="Helvetica,sans-Serif" font-size="10.00">::core::PeerConnectionManager &gt;</text>
</a>
</g>
</g>
<!-- Node2&#45;&gt;Node1 -->
<g id="edge1_Node000001_Node000002" class="edge">
<title>Node2&#45;&gt;Node1</title>
<g id="a_edge1_Node000001_Node000002"><a xlink:title=" ">
<path fill="none" stroke="#9a32cd" stroke-dasharray="5,2" d="M533.62,-168.13C580.73,-160.9 637.62,-150.89 688,-138.5 714.09,-132.08 743.19,-122.35 763.52,-115.11"/>
<polygon fill="#9a32cd" stroke="#9a32cd" points="533.09,-164.67 523.73,-169.63 534.14,-171.59 533.09,-164.67"/>
</a>
</g>
<text text-anchor="middle" x="619" y="-167.5" font-family="Helvetica,sans-Serif" font-size="10.00" fill="grey"> peer_connection_manager_</text>
</g>
<!-- Node3 -->
<g id="Node000003" class="node">
<title>Node3</title>
<g id="a_Node000003"><a xlink:title=" ">
<polygon fill="white" stroke="#666666" points="118,-167 0,-167 0,-148 118,-148 118,-167"/>
<text text-anchor="middle" x="59" y="-155" font-family="Helvetica,sans-Serif" font-size="10.00">std::shared_ptr&lt; T &gt;</text>
</a>
</g>
</g>
<!-- Node3&#45;&gt;Node2 -->
<g id="edge2_Node000002_Node000003" class="edge">
<title>Node3&#45;&gt;Node2</title>
<g id="a_edge2_Node000002_Node000003"><a xlink:title=" ">
<path fill="none" stroke="orange" stroke-dasharray="5,2" d="M128.39,-161.91C188.77,-165.8 277.2,-171.49 343.16,-175.74"/>
<polygon fill="orange" stroke="orange" points="128.41,-158.4 118.2,-161.25 127.96,-165.39 128.41,-158.4"/>
</a>
</g>
<text text-anchor="start" x="146.5" y="-187.5" font-family="Helvetica,sans-Serif" font-size="10.00" fill="grey"> &lt; mosaic::core::PeerConnection</text>
<text text-anchor="middle" x="226.5" y="-176.5" font-family="Helvetica,sans-Serif" font-size="10.00" fill="grey">Manager &gt;</text>
</g>
<!-- Node4 -->
<g id="Node000004" class="node">
<title>Node4</title>
<g id="a_Node000004"><a xlink:title=" ">
<polygon fill="white" stroke="#666666" points="523,-148.5 344,-148.5 344,-118.5 523,-118.5 523,-148.5"/>
<text text-anchor="start" x="352" y="-136.5" font-family="Helvetica,sans-Serif" font-size="10.00">std::shared_ptr&lt; mosaic</text>
<text text-anchor="middle" x="433.5" y="-125.5" font-family="Helvetica,sans-Serif" font-size="10.00">::core::ConnectorStateManager &gt;</text>
</a>
</g>
</g>
<!-- Node3&#45;&gt;Node4 -->
<g id="edge4_Node000004_Node000003" class="edge">
<title>Node3&#45;&gt;Node4</title>
<g id="a_edge4_Node000004_Node000003"><a xlink:title=" ">
<path fill="none" stroke="orange" stroke-dasharray="5,2" d="M97.57,-145.04C109.7,-141.58 123.29,-138.29 136,-136.5 205.33,-126.74 284.67,-126.5 343.83,-128.43"/>
<polygon fill="orange" stroke="orange" points="96.37,-141.75 87.79,-147.96 98.37,-148.46 96.37,-141.75"/>
</a>
</g>
<text text-anchor="start" x="160" y="-150.5" font-family="Helvetica,sans-Serif" font-size="10.00" fill="grey"> &lt; mosaic::core::Connector</text>
<text text-anchor="middle" x="226.5" y="-139.5" font-family="Helvetica,sans-Serif" font-size="10.00" fill="grey">StateManager &gt;</text>
</g>
<!-- Node4&#45;&gt;Node1 -->
<g id="edge3_Node000001_Node000004" class="edge">
<title>Node4&#45;&gt;Node1</title>
<g id="a_edge3_Node000001_Node000004"><a xlink:title=" ">
<path fill="none" stroke="#9a32cd" stroke-dasharray="5,2" d="M533.16,-125.72C587.49,-121.43 654.19,-116.17 705.93,-112.09"/>
<polygon fill="#9a32cd" stroke="#9a32cd" points="532.86,-122.23 523.17,-126.51 533.41,-129.21 532.86,-122.23"/>
</a>
</g>
<text text-anchor="middle" x="619" y="-126.5" font-family="Helvetica,sans-Serif" font-size="10.00" fill="grey"> state_manager_</text>
</g>
<!-- Node5 -->
<g id="Node000005" class="node">
<title>Node5</title>
<g id="a_Node000005"><a xlink:title=" ">
<polygon fill="white" stroke="#666666" points="532,-100 335,-100 335,-59 532,-59 532,-100"/>
<text text-anchor="start" x="343" y="-88" font-family="Helvetica,sans-Serif" font-size="10.00">std::map&lt; std::string,</text>
<text text-anchor="start" x="343" y="-77" font-family="Helvetica,sans-Serif" font-size="10.00"> std::shared_ptr&lt; mosaic</text>
<text text-anchor="middle" x="433.5" y="-66" font-family="Helvetica,sans-Serif" font-size="10.00">::handlers::IDataChannelHandler &gt; &gt;</text>
</a>
</g>
</g>
<!-- Node5&#45;&gt;Node1 -->
<g id="edge5_Node000001_Node000005" class="edge">
<title>Node5&#45;&gt;Node1</title>
<g id="a_edge5_Node000001_Node000005"><a xlink:title=" ">
<path fill="none" stroke="#9a32cd" stroke-dasharray="5,2" d="M542.34,-78.74C587.46,-79.39 640.38,-81.42 688,-86.5 707.43,-88.57 728.72,-92.33 746.75,-95.95"/>
<polygon fill="#9a32cd" stroke="#9a32cd" points="542.29,-75.24 532.25,-78.61 542.2,-82.24 542.29,-75.24"/>
</a>
</g>
<text text-anchor="start" x="561" y="-100.5" font-family="Helvetica,sans-Serif" font-size="10.00" fill="grey"> data_channel_handlers</text>
<text text-anchor="middle" x="619" y="-89.5" font-family="Helvetica,sans-Serif" font-size="10.00" fill="grey">_dict_</text>
</g>
<!-- Node6 -->
<g id="Node000006" class="node">
<title>Node6</title>
<g id="a_Node000006"><a xlink:title=" ">
<polygon fill="white" stroke="#666666" points="109.5,-60 8.5,-60 8.5,-41 109.5,-41 109.5,-60"/>
<text text-anchor="middle" x="59" y="-48" font-family="Helvetica,sans-Serif" font-size="10.00">std::map&lt; K, T &gt;</text>
</a>
</g>
</g>
<!-- Node6&#45;&gt;Node5 -->
<g id="edge6_Node000005_Node000006" class="edge">
<title>Node6&#45;&gt;Node5</title>
<g id="a_edge6_Node000005_Node000006"><a xlink:title=" ">
<path fill="none" stroke="orange" stroke-dasharray="5,2" d="M120.15,-55.26C125.51,-55.68 130.85,-56.1 136,-56.5 202.27,-61.69 276.88,-67.47 334.68,-71.95"/>
<polygon fill="orange" stroke="orange" points="120.12,-51.74 109.87,-54.45 119.57,-58.72 120.12,-51.74"/>
</a>
</g>
<text text-anchor="start" x="136" y="-95.5" font-family="Helvetica,sans-Serif" font-size="10.00" fill="grey"> &lt; std::string, std</text>
<text text-anchor="start" x="136" y="-84.5" font-family="Helvetica,sans-Serif" font-size="10.00" fill="grey">::shared_ptr&lt; mosaic</text>
<text text-anchor="middle" x="226.5" y="-73.5" font-family="Helvetica,sans-Serif" font-size="10.00" fill="grey">::handlers::IDataChannelHandler &gt; &gt;</text>
</g>
<!-- Node7 -->
<g id="Node000007" class="node">
<title>Node7</title>
<g id="a_Node000007"><a xlink:title=" ">
<polygon fill="white" stroke="#666666" points="528.5,-41 338.5,-41 338.5,0 528.5,0 528.5,-41"/>
<text text-anchor="start" x="346.5" y="-29" font-family="Helvetica,sans-Serif" font-size="10.00">std::map&lt; std::string,</text>
<text text-anchor="start" x="346.5" y="-18" font-family="Helvetica,sans-Serif" font-size="10.00"> std::shared_ptr&lt; mosaic</text>
<text text-anchor="middle" x="433.5" y="-7" font-family="Helvetica,sans-Serif" font-size="10.00">::handlers::IMediaTrackHandler &gt; &gt;</text>
</a>
</g>
</g>
<!-- Node6&#45;&gt;Node7 -->
<g id="edge8_Node000007_Node000006" class="edge">
<title>Node6&#45;&gt;Node7</title>
<g id="a_edge8_Node000007_Node000006"><a xlink:title=" ">
<path fill="none" stroke="orange" stroke-dasharray="5,2" d="M86.98,-36.51C101.16,-29.93 119.07,-22.82 136,-19.5 202.8,-6.4 279.72,-7.1 338.46,-10.84"/>
<polygon fill="orange" stroke="orange" points="85.3,-33.43 77.81,-40.92 88.34,-39.74 85.3,-33.43"/>
</a>
</g>
<text text-anchor="start" x="139.5" y="-44.5" font-family="Helvetica,sans-Serif" font-size="10.00" fill="grey"> &lt; std::string, std</text>
<text text-anchor="start" x="139.5" y="-33.5" font-family="Helvetica,sans-Serif" font-size="10.00" fill="grey">::shared_ptr&lt; mosaic</text>
<text text-anchor="middle" x="226.5" y="-22.5" font-family="Helvetica,sans-Serif" font-size="10.00" fill="grey">::handlers::IMediaTrackHandler &gt; &gt;</text>
</g>
<!-- Node7&#45;&gt;Node1 -->
<g id="edge7_Node000001_Node000007" class="edge">
<title>Node7&#45;&gt;Node1</title>
<g id="a_edge7_Node000001_Node000007"><a xlink:title=" ">
<path fill="none" stroke="#9a32cd" stroke-dasharray="5,2" d="M538.65,-25.95C585.14,-30.44 640.13,-38.61 688,-53.5 720.71,-63.67 755.56,-83.84 774.72,-95.85"/>
<polygon fill="#9a32cd" stroke="#9a32cd" points="538.83,-22.46 528.56,-25.02 538.19,-29.43 538.83,-22.46"/>
</a>
</g>
<text text-anchor="start" x="563" y="-67.5" font-family="Helvetica,sans-Serif" font-size="10.00" fill="grey"> media_track_handlers</text>
<text text-anchor="middle" x="619" y="-56.5" font-family="Helvetica,sans-Serif" font-size="10.00" fill="grey">_dict_</text>
</g>
</g>
</svg>

<g id="navigator" transform="translate(0 0)" fill="#404254">
  <rect fill="#f2f5e9" fill-opacity="0.5" stroke="#606060" stroke-width=".5" x="0" y="0" width="60" height="60"/>
  <use id="zoomplus" xlink:href="#zoomPlus" x="17" y="9" onmousedown="handleZoom(evt,'in')"/>
  <use id="zoomminus" xlink:href="#zoomMin" x="42" y="9" onmousedown="handleZoom(evt,'out')"/>
  <use id="reset" xlink:href="#resetDef" x="30" y="36" onmousedown="handleReset()"/>
   <use id="arrowup" xlink:href="#arrowUp" x="0" y="0" onmousedown="handlePan(0,-1)"/>
  <use id="arrowright" xlink:href="#arrowRight" x="0" y="0" onmousedown="handlePan(1,0)"/>
  <use id="arrowdown" xlink:href="#arrowDown" x="0" y="0" onmousedown="handlePan(0,1)"/>
  <use id="arrowleft" xlink:href="#arrowLeft" x="0" y="0" onmousedown="handlePan(-1,0)"/>
</g>
<svg viewBox="0 0 15 15" width="100%" height="30px" preserveAspectRatio="xMaxYMin meet">
 <g id="arrow_out" transform="scale(0.3 0.3)">
  <a xlink:href="classmosaic_1_1core_1_1MosaicConnector__coll__graph_org.svg" target="_base">
   <rect id="button" ry="5" rx="5" y="6" x="6" height="38" width="38"
        fill="#f2f5e9" fill-opacity="0.5" stroke="#606060" stroke-width="1.0"/>
   <path id="arrow"
     d="M 11.500037,31.436501 C 11.940474,20.09759 22.043105,11.32322 32.158766,21.979434 L 37.068811,17.246167 C 37.068811,17.246167 37.088388,32 37.088388,32 L 22.160133,31.978069 C 22.160133,31.978069 26.997745,27.140456 26.997745,27.140456 C 18.528582,18.264221 13.291696,25.230495 11.500037,31.436501 z"
     style="fill:#404040;"/>
  </a>
 </g>
</svg>

<style type='text/css'>
<![CDATA[
[data-mouse-over-selected='false'] { opacity: 0.7; }
[data-mouse-over-selected='true']  { opacity: 1.0; }
]]>
</style>
<script type="application/ecmascript"><![CDATA[
document.addEventListener('DOMContentLoaded', (event) => {
  highlightEdges();
  highlightAdjacentNodes();
});
]]></script>
</svg>
