<?xml version="1.0" encoding="UTF-8" standalone="no"?>
<!DOCTYPE svg PUBLIC "-//W3C//DTD SVG 1.1//EN"
 "http://www.w3.org/Graphics/SVG/1.1/DTD/svg11.dtd">
<!-- Generated by graphviz version 2.43.0 (0)
 -->
<!-- Title: mosaic::handlers::ADataChannelHandler::Impl Pages: 1 -->
<svg width="764pt" height="167pt"
 viewBox="0.00 0.00 764.00 166.50" xmlns="http://www.w3.org/2000/svg" xmlns:xlink="http://www.w3.org/1999/xlink">
<g id="graph0" class="graph" transform="scale(1 1) rotate(0) translate(4 162.5)">
<title>mosaic::handlers::ADataChannelHandler::Impl</title>
<!-- Node1 -->
<g id="Node000001" class="node">
<title>Node1</title>
<g id="a_Node000001"><a xlink:title=" ">
<polygon fill="#999999" stroke="#666666" points="756,-87.5 580,-87.5 580,-57.5 756,-57.5 756,-87.5"/>
<text text-anchor="start" x="588" y="-75.5" font-family="Helvetica,sans-Serif" font-size="10.00">mosaic::handlers::ADataChannel</text>
<text text-anchor="middle" x="668" y="-64.5" font-family="Helvetica,sans-Serif" font-size="10.00">Handler::Impl</text>
</a>
</g>
</g>
<!-- Node2 -->
<g id="Node000002" class="node">
<title>Node2</title>
<g id="a_Node000002"><a xlink:title=" ">
<polygon fill="white" stroke="#666666" points="406,-153 341,-153 341,-134 406,-134 406,-153"/>
<text text-anchor="middle" x="373.5" y="-141" font-family="Helvetica,sans-Serif" font-size="10.00">std::string</text>
</a>
</g>
</g>
<!-- Node2&#45;&gt;Node1 -->
<g id="edge1_Node000001_Node000002" class="edge">
<title>Node2&#45;&gt;Node1</title>
<g id="a_edge1_Node000001_Node000002"><a xlink:title=" ">
<path fill="none" stroke="#9a32cd" stroke-dasharray="5,2" d="M416.34,-135.18C432.5,-131.92 451.12,-128.1 468,-124.5 509.87,-115.57 520.56,-114.23 562,-103.5 580.58,-98.69 600.85,-92.85 618.57,-87.54"/>
<polygon fill="#9a32cd" stroke="#9a32cd" points="415.24,-131.83 406.13,-137.23 416.62,-138.69 415.24,-131.83"/>
</a>
</g>
<text text-anchor="middle" x="524" y="-122.5" font-family="Helvetica,sans-Serif" font-size="10.00" fill="grey"> label_</text>
</g>
<!-- Node3 -->
<g id="Node000003" class="node">
<title>Node3</title>
<g id="a_Node000003"><a xlink:title=" ">
<polygon fill="white" stroke="#666666" points="111,-158.5 7,-158.5 7,-128.5 111,-128.5 111,-158.5"/>
<text text-anchor="start" x="15" y="-146.5" font-family="Helvetica,sans-Serif" font-size="10.00">std::basic_string&lt;</text>
<text text-anchor="middle" x="59" y="-135.5" font-family="Helvetica,sans-Serif" font-size="10.00"> Char &gt;</text>
</a>
</g>
</g>
<!-- Node3&#45;&gt;Node2 -->
<g id="edge2_Node000002_Node000003" class="edge">
<title>Node3&#45;&gt;Node2</title>
<g id="a_edge2_Node000002_Node000003"><a xlink:title=" ">
<path fill="none" stroke="#63b8ff" d="M121.51,-143.5C187.42,-143.5 289.48,-143.5 340.78,-143.5"/>
<polygon fill="#63b8ff" stroke="#63b8ff" points="121.25,-140 111.25,-143.5 121.25,-147 121.25,-140"/>
</a>
</g>
</g>
<!-- Node4 -->
<g id="Node000004" class="node">
<title>Node4</title>
<g id="a_Node000004"><a xlink:title=" ">
<polygon fill="white" stroke="#666666" points="468,-115.5 279,-115.5 279,-85.5 468,-85.5 468,-115.5"/>
<text text-anchor="start" x="287" y="-103.5" font-family="Helvetica,sans-Serif" font-size="10.00">std::shared_ptr&lt; mosaic</text>
<text text-anchor="middle" x="373.5" y="-92.5" font-family="Helvetica,sans-Serif" font-size="10.00">::handlers::DataChannelObserver &gt;</text>
</a>
</g>
</g>
<!-- Node4&#45;&gt;Node1 -->
<g id="edge3_Node000001_Node000004" class="edge">
<title>Node4&#45;&gt;Node1</title>
<g id="a_edge3_Node000001_Node000004"><a xlink:title=" ">
<path fill="none" stroke="#9a32cd" stroke-dasharray="5,2" d="M478.43,-90.55C511.58,-87.38 547.9,-83.9 579.73,-80.85"/>
<polygon fill="#9a32cd" stroke="#9a32cd" points="477.88,-87.09 468.26,-91.53 478.54,-94.06 477.88,-87.09"/>
</a>
</g>
<text text-anchor="middle" x="524" y="-91.5" font-family="Helvetica,sans-Serif" font-size="10.00" fill="grey"> observer_</text>
</g>
<!-- Node5 -->
<g id="Node000005" class="node">
<title>Node5</title>
<g id="a_Node000005"><a xlink:title=" ">
<polygon fill="white" stroke="#666666" points="118,-110 0,-110 0,-91 118,-91 118,-110"/>
<text text-anchor="middle" x="59" y="-98" font-family="Helvetica,sans-Serif" font-size="10.00">std::shared_ptr&lt; T &gt;</text>
</a>
</g>
</g>
<!-- Node5&#45;&gt;Node4 -->
<g id="edge4_Node000004_Node000005" class="edge">
<title>Node5&#45;&gt;Node4</title>
<g id="a_edge4_Node000004_Node000005"><a xlink:title=" ">
<path fill="none" stroke="orange" stroke-dasharray="5,2" d="M128.1,-100.5C172.26,-100.5 230.37,-100.5 278.86,-100.5"/>
<polygon fill="orange" stroke="orange" points="128.05,-97 118.05,-100.5 128.05,-104 128.05,-97"/>
</a>
</g>
<text text-anchor="start" x="136" y="-114.5" font-family="Helvetica,sans-Serif" font-size="10.00" fill="grey"> &lt; mosaic::handlers</text>
<text text-anchor="middle" x="198.5" y="-103.5" font-family="Helvetica,sans-Serif" font-size="10.00" fill="grey">::DataChannelObserver &gt;</text>
</g>
<!-- Node6 -->
<g id="Node000006" class="node">
<title>Node6</title>
<g id="a_Node000006"><a xlink:title=" ">
<polygon fill="white" stroke="#666666" points="429.5,-67.5 317.5,-67.5 317.5,-37.5 429.5,-37.5 429.5,-67.5"/>
<text text-anchor="start" x="325.5" y="-55.5" font-family="Helvetica,sans-Serif" font-size="10.00">std::queue&lt; webrtc</text>
<text text-anchor="middle" x="373.5" y="-44.5" font-family="Helvetica,sans-Serif" font-size="10.00">::DataBuffer &gt;</text>
</a>
</g>
</g>
<!-- Node6&#45;&gt;Node1 -->
<g id="edge5_Node000001_Node000006" class="edge">
<title>Node6&#45;&gt;Node1</title>
<g id="a_edge5_Node000001_Node000006"><a xlink:title=" ">
<path fill="none" stroke="#9a32cd" stroke-dasharray="5,2" d="M440.27,-55.92C476.25,-57.91 521.59,-60.58 562,-63.5 567.84,-63.92 573.86,-64.38 579.92,-64.85"/>
<polygon fill="#9a32cd" stroke="#9a32cd" points="440.08,-52.41 429.9,-55.36 439.7,-59.4 440.08,-52.41"/>
</a>
</g>
<text text-anchor="middle" x="524" y="-66.5" font-family="Helvetica,sans-Serif" font-size="10.00" fill="grey"> send_queue_</text>
</g>
<!-- Node7 -->
<g id="Node000007" class="node">
<title>Node7</title>
<g id="a_Node000007"><a xlink:title=" ">
<polygon fill="white" stroke="#666666" points="107,-62 11,-62 11,-43 107,-43 107,-62"/>
<text text-anchor="middle" x="59" y="-50" font-family="Helvetica,sans-Serif" font-size="10.00">std::queue&lt; T &gt;</text>
</a>
</g>
</g>
<!-- Node7&#45;&gt;Node6 -->
<g id="edge6_Node000006_Node000007" class="edge">
<title>Node7&#45;&gt;Node6</title>
<g id="a_edge6_Node000006_Node000007"><a xlink:title=" ">
<path fill="none" stroke="orange" stroke-dasharray="5,2" d="M117.4,-52.5C174.39,-52.5 261.15,-52.5 317.34,-52.5"/>
<polygon fill="orange" stroke="orange" points="117.12,-49 107.12,-52.5 117.12,-56 117.12,-49"/>
</a>
</g>
<text text-anchor="middle" x="198.5" y="-55.5" font-family="Helvetica,sans-Serif" font-size="10.00" fill="grey"> &lt; webrtc::DataBuffer &gt;</text>
</g>
<!-- Node8 -->
<g id="Node000008" class="node">
<title>Node8</title>
<g id="a_Node000008"><a xlink:title=" ">
<polygon fill="white" stroke="#666666" points="408,-19 339,-19 339,0 408,0 408,-19"/>
<text text-anchor="middle" x="373.5" y="-7" font-family="Helvetica,sans-Serif" font-size="10.00">std::mutex</text>
</a>
</g>
</g>
<!-- Node8&#45;&gt;Node1 -->
<g id="edge7_Node000001_Node000008" class="edge">
<title>Node8&#45;&gt;Node1</title>
<g id="a_edge7_Node000001_Node000008"><a xlink:title=" ">
<path fill="none" stroke="#9a32cd" stroke-dasharray="5,2" d="M418.46,-16.32C456.61,-22.51 513.21,-32.36 562,-43.5 579.79,-47.56 599.09,-52.68 616.23,-57.49"/>
<polygon fill="#9a32cd" stroke="#9a32cd" points="418.65,-12.81 408.22,-14.67 417.53,-19.72 418.65,-12.81"/>
</a>
</g>
<text text-anchor="middle" x="524" y="-46.5" font-family="Helvetica,sans-Serif" font-size="10.00" fill="grey"> queue_mutex_</text>
</g>
</g>
</svg>
