<?xml version="1.0" encoding="UTF-8" standalone="no"?>
<!DOCTYPE svg PUBLIC "-//W3C//DTD SVG 1.1//EN"
 "http://www.w3.org/Graphics/SVG/1.1/DTD/svg11.dtd">
<!-- Generated by graphviz version 2.43.0 (0)
 -->
<!-- Title: mosaic::handlers::DataChannelJsonReceivable Pages: 1 -->
<svg width="1298pt" height="60pt"
 viewBox="0.00 0.00 1298.00 60.00" xmlns="http://www.w3.org/2000/svg" xmlns:xlink="http://www.w3.org/1999/xlink">
<g id="graph0" class="graph" transform="scale(1 1) rotate(0) translate(4 56)">
<title>mosaic::handlers::DataChannelJsonReceivable</title>
<!-- Node1 -->
<g id="Node000001" class="node">
<title>Node1</title>
<g id="a_Node000001"><a xlink:title=" ">
<polygon fill="#999999" stroke="#666666" points="1290,-52 1121,-52 1121,-22 1290,-22 1290,-52"/>
<text text-anchor="start" x="1129" y="-40" font-family="Helvetica,sans-Serif" font-size="10.00">mosaic::handlers::DataChannel</text>
<text text-anchor="middle" x="1205.5" y="-29" font-family="Helvetica,sans-Serif" font-size="10.00">JsonReceivable</text>
</a>
</g>
</g>
<!-- Node2 -->
<g id="Node000002" class="node">
<title>Node2</title>
<g id="a_Node000002"><a xlink:title=" ">
<polygon fill="white" stroke="#666666" points="1084,-52 915,-52 915,-22 1084,-22 1084,-52"/>
<text text-anchor="start" x="923" y="-40" font-family="Helvetica,sans-Serif" font-size="10.00">mosaic::handlers::DataChannel</text>
<text text-anchor="middle" x="999.5" y="-29" font-family="Helvetica,sans-Serif" font-size="10.00">Receivable&lt; Json::Value &gt;</text>
</a>
</g>
</g>
<!-- Node2&#45;&gt;Node1 -->
<g id="edge1_Node000001_Node000002" class="edge">
<title>Node2&#45;&gt;Node1</title>
<g id="a_edge1_Node000001_Node000002"><a xlink:title=" ">
<path fill="none" stroke="#63b8ff" d="M1094.34,-37C1103.15,-37 1112.03,-37 1120.74,-37"/>
<polygon fill="#63b8ff" stroke="#63b8ff" points="1094.06,-33.5 1084.06,-37 1094.06,-40.5 1094.06,-33.5"/>
</a>
</g>
</g>
<!-- Node3 -->
<g id="Node000003" class="node">
<title>Node3</title>
<g id="a_Node000003"><a xlink:href="classmosaic_1_1handlers_1_1IDataChannelReceivable.html" target="_top" xlink:title=" ">
<polygon fill="white" stroke="#666666" points="594,-51 422,-51 422,-21 594,-21 594,-51"/>
<text text-anchor="start" x="430" y="-39" font-family="Helvetica,sans-Serif" font-size="10.00">mosaic::handlers::IDataChannel</text>
<text text-anchor="middle" x="508" y="-28" font-family="Helvetica,sans-Serif" font-size="10.00">Receivable</text>
</a>
</g>
</g>
<!-- Node3&#45;&gt;Node2 -->
<g id="edge2_Node000002_Node000003" class="edge">
<title>Node3&#45;&gt;Node2</title>
<g id="a_edge2_Node000002_Node000003"><a xlink:title=" ">
<path fill="none" stroke="#63b8ff" d="M604.53,-40.9C683.08,-44.22 797.28,-47.43 897,-44 902.83,-43.8 908.84,-43.53 914.89,-43.22"/>
<polygon fill="#63b8ff" stroke="#63b8ff" points="604.31,-37.38 594.17,-40.45 604.01,-44.38 604.31,-37.38"/>
</a>
</g>
</g>
<!-- Node6 -->
<g id="Node000006" class="node">
<title>Node6</title>
<g id="a_Node000006"><a xlink:href="classmosaic_1_1handlers_1_1DataChannelReceivable.html" target="_top" xlink:title=" ">
<polygon fill="white" stroke="#666666" points="800,-30 631,-30 631,0 800,0 800,-30"/>
<text text-anchor="start" x="639" y="-18" font-family="Helvetica,sans-Serif" font-size="10.00">mosaic::handlers::DataChannel</text>
<text text-anchor="middle" x="715.5" y="-7" font-family="Helvetica,sans-Serif" font-size="10.00">Receivable&lt; ReceiveT &gt;</text>
</a>
</g>
</g>
<!-- Node3&#45;&gt;Node6 -->
<g id="edge6_Node000006_Node000003" class="edge">
<title>Node3&#45;&gt;Node6</title>
<g id="a_edge6_Node000006_Node000003"><a xlink:title=" ">
<path fill="none" stroke="#63b8ff" d="M604.09,-26.28C613.01,-25.37 622.01,-24.45 630.82,-23.55"/>
<polygon fill="#63b8ff" stroke="#63b8ff" points="603.66,-22.81 594.07,-27.31 604.37,-29.77 603.66,-22.81"/>
</a>
</g>
</g>
<!-- Node4 -->
<g id="Node000004" class="node">
<title>Node4</title>
<g id="a_Node000004"><a xlink:href="classmosaic_1_1handlers_1_1ADataChannelHandler.html" target="_top" xlink:title=" ">
<polygon fill="white" stroke="#666666" points="385,-51 209,-51 209,-21 385,-21 385,-51"/>
<text text-anchor="start" x="217" y="-39" font-family="Helvetica,sans-Serif" font-size="10.00">mosaic::handlers::ADataChannel</text>
<text text-anchor="middle" x="297" y="-28" font-family="Helvetica,sans-Serif" font-size="10.00">Handler</text>
</a>
</g>
</g>
<!-- Node4&#45;&gt;Node3 -->
<g id="edge3_Node000003_Node000004" class="edge">
<title>Node4&#45;&gt;Node3</title>
<g id="a_edge3_Node000003_Node000004"><a xlink:title=" ">
<path fill="none" stroke="#63b8ff" d="M395.39,-36C404.17,-36 413.03,-36 421.7,-36"/>
<polygon fill="#63b8ff" stroke="#63b8ff" points="395.12,-32.5 385.12,-36 395.12,-39.5 395.12,-32.5"/>
</a>
</g>
</g>
<!-- Node5 -->
<g id="Node000005" class="node">
<title>Node5</title>
<g id="a_Node000005"><a xlink:href="classmosaic_1_1handlers_1_1IDataChannelHandler.html" target="_top" xlink:title=" ">
<polygon fill="white" stroke="#666666" points="172,-51 0,-51 0,-21 172,-21 172,-51"/>
<text text-anchor="start" x="8" y="-39" font-family="Helvetica,sans-Serif" font-size="10.00">mosaic::handlers::IDataChannel</text>
<text text-anchor="middle" x="86" y="-28" font-family="Helvetica,sans-Serif" font-size="10.00">Handler</text>
</a>
</g>
</g>
<!-- Node5&#45;&gt;Node4 -->
<g id="edge4_Node000004_Node000005" class="edge">
<title>Node5&#45;&gt;Node4</title>
<g id="a_edge4_Node000004_Node000005"><a xlink:title=" ">
<path fill="none" stroke="#63b8ff" d="M182.28,-36C191.08,-36 199.97,-36 208.69,-36"/>
<polygon fill="#63b8ff" stroke="#63b8ff" points="182.01,-32.5 172.01,-36 182.01,-39.5 182.01,-32.5"/>
</a>
</g>
</g>
<!-- Node6&#45;&gt;Node2 -->
<g id="edge5_Node000002_Node000006" class="edge">
<title>Node6&#45;&gt;Node2</title>
<g id="a_edge5_Node000002_Node000006"><a xlink:title=" ">
<path fill="none" stroke="orange" stroke-dasharray="5,2" d="M810.68,-22.35C844.42,-24.98 882.2,-27.93 914.98,-30.48"/>
<polygon fill="orange" stroke="orange" points="810.59,-18.83 800.35,-21.54 810.04,-25.81 810.59,-18.83"/>
</a>
</g>
<text text-anchor="middle" x="857.5" y="-32" font-family="Helvetica,sans-Serif" font-size="10.00" fill="grey"> &lt; Json::Value &gt;</text>
</g>
</g>
</svg>
