<?xml version="1.0" encoding="UTF-8" standalone="no"?>
<!DOCTYPE svg PUBLIC "-//W3C//DTD SVG 1.1//EN"
 "http://www.w3.org/Graphics/SVG/1.1/DTD/svg11.dtd">
<!-- Generated by graphviz version 2.43.0 (0)
 -->
<!-- Title: mosaic::security::AuthTypeConst Pages: 1 -->
<svg width="188pt" height="182pt"
 viewBox="0.00 0.00 187.50 182.00" xmlns="http://www.w3.org/2000/svg" xmlns:xlink="http://www.w3.org/1999/xlink">
<g id="graph0" class="graph" transform="scale(1 1) rotate(0) translate(4 178)">
<title>mosaic::security::AuthTypeConst</title>
<!-- Node1 -->
<g id="Node000001" class="node">
<title>Node1</title>
<g id="a_Node000001"><a xlink:title=" ">
<polygon fill="#999999" stroke="#666666" points="147,-30 0,-30 0,0 147,0 147,-30"/>
<text text-anchor="start" x="8" y="-18" font-family="Helvetica,sans-Serif" font-size="10.00">mosaic::security::AuthType</text>
<text text-anchor="middle" x="73.5" y="-7" font-family="Helvetica,sans-Serif" font-size="10.00">Const</text>
</a>
</g>
</g>
<!-- Node2 -->
<g id="Node000002" class="node">
<title>Node2</title>
<g id="a_Node000002"><a xlink:title=" ">
<polygon fill="white" stroke="#666666" points="106,-107 41,-107 41,-88 106,-88 106,-107"/>
<text text-anchor="middle" x="73.5" y="-95" font-family="Helvetica,sans-Serif" font-size="10.00">std::string</text>
</a>
</g>
</g>
<!-- Node2&#45;&gt;Node1 -->
<g id="edge1_Node000001_Node000002" class="edge">
<title>Node2&#45;&gt;Node1</title>
<g id="a_edge1_Node000001_Node000002"><a xlink:title=" ">
<path fill="none" stroke="#9a32cd" stroke-dasharray="5,2" d="M73.5,-77.6C73.5,-63.1 73.5,-43.4 73.5,-30.22"/>
<polygon fill="#9a32cd" stroke="#9a32cd" points="70,-77.89 73.5,-87.89 77,-77.89 70,-77.89"/>
</a>
</g>
<text text-anchor="middle" x="126.5" y="-62" font-family="Helvetica,sans-Serif" font-size="10.00" fill="grey"> NO_AUTHORIZATION</text>
<text text-anchor="middle" x="126.5" y="-51" font-family="Helvetica,sans-Serif" font-size="10.00" fill="grey">SIMPLE_TOKEN</text>
</g>
<!-- Node3 -->
<g id="Node000003" class="node">
<title>Node3</title>
<g id="a_Node000003"><a xlink:title=" ">
<polygon fill="white" stroke="#666666" points="125.5,-174 21.5,-174 21.5,-144 125.5,-144 125.5,-174"/>
<text text-anchor="start" x="29.5" y="-162" font-family="Helvetica,sans-Serif" font-size="10.00">std::basic_string&lt;</text>
<text text-anchor="middle" x="73.5" y="-151" font-family="Helvetica,sans-Serif" font-size="10.00"> Char &gt;</text>
</a>
</g>
</g>
<!-- Node3&#45;&gt;Node2 -->
<g id="edge2_Node000002_Node000003" class="edge">
<title>Node3&#45;&gt;Node2</title>
<g id="a_edge2_Node000002_Node000003"><a xlink:title=" ">
<path fill="none" stroke="#63b8ff" d="M73.5,-133.79C73.5,-124.36 73.5,-114.15 73.5,-107.16"/>
<polygon fill="#63b8ff" stroke="#63b8ff" points="70,-133.9 73.5,-143.9 77,-133.9 70,-133.9"/>
</a>
</g>
</g>
</g>
</svg>
