<?xml version="1.0" encoding="UTF-8" standalone="no"?>
<!DOCTYPE svg PUBLIC "-//W3C//DTD SVG 1.1//EN"
 "http://www.w3.org/Graphics/SVG/1.1/DTD/svg11.dtd">
<!-- Generated by graphviz version 2.43.0 (0)
 -->
<!-- Title: mosaic::handlers::IDataChannelHandler Pages: 1 -->
<svg width="1322pt" height="173pt"
 viewBox="0.00 0.00 1322.00 172.50" xmlns="http://www.w3.org/2000/svg" xmlns:xlink="http://www.w3.org/1999/xlink">
<g id="graph0" class="graph" transform="scale(1 1) rotate(0) translate(4 168.5)">
<title>mosaic::handlers::IDataChannelHandler</title>
<!-- Node1 -->
<g id="Node000001" class="node">
<title>Node1</title>
<g id="a_Node000001"><a xlink:title=" ">
<polygon fill="#999999" stroke="#666666" points="172,-101 0,-101 0,-71 172,-71 172,-101"/>
<text text-anchor="start" x="8" y="-89" font-family="Helvetica,sans-Serif" font-size="10.00">mosaic::handlers::IDataChannel</text>
<text text-anchor="middle" x="86" y="-78" font-family="Helvetica,sans-Serif" font-size="10.00">Handler</text>
</a>
</g>
</g>
<!-- Node2 -->
<g id="Node000002" class="node">
<title>Node2</title>
<g id="a_Node000002"><a xlink:href="classmosaic_1_1handlers_1_1ADataChannelHandler.html" target="_top" xlink:title=" ">
<polygon fill="white" stroke="#666666" points="385,-101 209,-101 209,-71 385,-71 385,-101"/>
<text text-anchor="start" x="217" y="-89" font-family="Helvetica,sans-Serif" font-size="10.00">mosaic::handlers::ADataChannel</text>
<text text-anchor="middle" x="297" y="-78" font-family="Helvetica,sans-Serif" font-size="10.00">Handler</text>
</a>
</g>
</g>
<!-- Node1&#45;&gt;Node2 -->
<g id="edge1_Node000001_Node000002" class="edge">
<title>Node1&#45;&gt;Node2</title>
<g id="a_edge1_Node000001_Node000002"><a xlink:title=" ">
<path fill="none" stroke="#63b8ff" d="M182.28,-86C191.08,-86 199.97,-86 208.69,-86"/>
<polygon fill="#63b8ff" stroke="#63b8ff" points="182.01,-82.5 172.01,-86 182.01,-89.5 182.01,-82.5"/>
</a>
</g>
</g>
<!-- Node3 -->
<g id="Node000003" class="node">
<title>Node3</title>
<g id="a_Node000003"><a xlink:href="classmosaic_1_1handlers_1_1DataChannelSendable.html" target="_top" xlink:title=" ">
<polygon fill="white" stroke="#666666" points="592.5,-125 423.5,-125 423.5,-95 592.5,-95 592.5,-125"/>
<text text-anchor="start" x="431.5" y="-113" font-family="Helvetica,sans-Serif" font-size="10.00">mosaic::handlers::DataChannel</text>
<text text-anchor="middle" x="508" y="-102" font-family="Helvetica,sans-Serif" font-size="10.00">Sendable</text>
</a>
</g>
</g>
<!-- Node2&#45;&gt;Node3 -->
<g id="edge2_Node000002_Node000003" class="edge">
<title>Node2&#45;&gt;Node3</title>
<g id="a_edge2_Node000002_Node000003"><a xlink:title=" ">
<path fill="none" stroke="#63b8ff" d="M395.27,-97.17C404.66,-98.25 414.13,-99.34 423.37,-100.4"/>
<polygon fill="#63b8ff" stroke="#63b8ff" points="395.46,-93.67 385.12,-96 394.66,-100.62 395.46,-93.67"/>
</a>
</g>
</g>
<!-- Node4 -->
<g id="Node000004" class="node">
<title>Node4</title>
<g id="a_Node000004"><a xlink:href="classmosaic_1_1handlers_1_1IDataChannelReceivable.html" target="_top" xlink:title=" ">
<polygon fill="white" stroke="#666666" points="594,-77 422,-77 422,-47 594,-47 594,-77"/>
<text text-anchor="start" x="430" y="-65" font-family="Helvetica,sans-Serif" font-size="10.00">mosaic::handlers::IDataChannel</text>
<text text-anchor="middle" x="508" y="-54" font-family="Helvetica,sans-Serif" font-size="10.00">Receivable</text>
</a>
</g>
</g>
<!-- Node2&#45;&gt;Node4 -->
<g id="edge3_Node000002_Node000004" class="edge">
<title>Node2&#45;&gt;Node4</title>
<g id="a_edge3_Node000002_Node000004"><a xlink:title=" ">
<path fill="none" stroke="#63b8ff" d="M395.1,-74.85C403.98,-73.83 412.93,-72.8 421.7,-71.8"/>
<polygon fill="#63b8ff" stroke="#63b8ff" points="394.66,-71.38 385.12,-76 395.46,-78.33 394.66,-71.38"/>
</a>
</g>
</g>
<!-- Node5 -->
<g id="Node000005" class="node">
<title>Node5</title>
<g id="a_Node000005"><a xlink:title=" ">
<polygon fill="white" stroke="#666666" points="1108,-164.5 939,-164.5 939,-123.5 1108,-123.5 1108,-164.5"/>
<text text-anchor="start" x="947" y="-152.5" font-family="Helvetica,sans-Serif" font-size="10.00">mosaic::handlers::DataChannel</text>
<text text-anchor="start" x="947" y="-141.5" font-family="Helvetica,sans-Serif" font-size="10.00">Receivable&lt; std::vector&lt;</text>
<text text-anchor="middle" x="1023.5" y="-130.5" font-family="Helvetica,sans-Serif" font-size="10.00"> uint8_t &gt; &gt;</text>
</a>
</g>
</g>
<!-- Node4&#45;&gt;Node5 -->
<g id="edge4_Node000004_Node000005" class="edge">
<title>Node4&#45;&gt;Node5</title>
<g id="a_edge4_Node000004_Node000005"><a xlink:title=" ">
<path fill="none" stroke="#63b8ff" d="M581.29,-80.56C585.65,-82.25 589.92,-84.06 594,-86 612.15,-94.63 612.54,-104.05 631,-112 730.44,-154.81 857.1,-156.83 938.98,-152.19"/>
<polygon fill="#63b8ff" stroke="#63b8ff" points="582.23,-77.18 571.64,-77.06 579.85,-83.76 582.23,-77.18"/>
</a>
</g>
</g>
<!-- Node7 -->
<g id="Node000007" class="node">
<title>Node7</title>
<g id="a_Node000007"><a xlink:title=" ">
<polygon fill="white" stroke="#666666" points="1108,-96 939,-96 939,-66 1108,-66 1108,-96"/>
<text text-anchor="start" x="947" y="-84" font-family="Helvetica,sans-Serif" font-size="10.00">mosaic::handlers::DataChannel</text>
<text text-anchor="middle" x="1023.5" y="-73" font-family="Helvetica,sans-Serif" font-size="10.00">Receivable&lt; Json::Value &gt;</text>
</a>
</g>
</g>
<!-- Node4&#45;&gt;Node7 -->
<g id="edge6_Node000004_Node000007" class="edge">
<title>Node4&#45;&gt;Node7</title>
<g id="a_edge6_Node000004_Node000007"><a xlink:title=" ">
<path fill="none" stroke="#63b8ff" d="M604.2,-45.61C688.23,-33.99 813.69,-23.57 921,-43 945.25,-47.39 971.26,-57.24 990.88,-65.81"/>
<polygon fill="#63b8ff" stroke="#63b8ff" points="603.58,-42.16 594.17,-47.03 604.56,-49.1 603.58,-42.16"/>
</a>
</g>
</g>
<!-- Node9 -->
<g id="Node000009" class="node">
<title>Node9</title>
<g id="a_Node000009"><a xlink:title=" ">
<polygon fill="white" stroke="#666666" points="1108,-30 939,-30 939,0 1108,0 1108,-30"/>
<text text-anchor="start" x="947" y="-18" font-family="Helvetica,sans-Serif" font-size="10.00">mosaic::handlers::DataChannel</text>
<text text-anchor="middle" x="1023.5" y="-7" font-family="Helvetica,sans-Serif" font-size="10.00">Receivable&lt; std::string &gt;</text>
</a>
</g>
</g>
<!-- Node4&#45;&gt;Node9 -->
<g id="edge8_Node000004_Node000009" class="edge">
<title>Node4&#45;&gt;Node9</title>
<g id="a_edge8_Node000004_Node000009"><a xlink:title=" ">
<path fill="none" stroke="#63b8ff" d="M562.77,-44.03C583.81,-37.79 608.3,-31.49 631,-28 736.19,-11.83 859.08,-10.57 938.72,-12.04"/>
<polygon fill="#63b8ff" stroke="#63b8ff" points="561.61,-40.73 553.06,-46.98 563.65,-47.42 561.61,-40.73"/>
</a>
</g>
</g>
<!-- Node11 -->
<g id="Node000011" class="node">
<title>Node11</title>
<g id="a_Node000011"><a xlink:href="classmosaic_1_1handlers_1_1DataChannelReceivable.html" target="_top" xlink:title=" ">
<polygon fill="white" stroke="#666666" points="800,-103 631,-103 631,-73 800,-73 800,-103"/>
<text text-anchor="start" x="639" y="-91" font-family="Helvetica,sans-Serif" font-size="10.00">mosaic::handlers::DataChannel</text>
<text text-anchor="middle" x="715.5" y="-80" font-family="Helvetica,sans-Serif" font-size="10.00">Receivable&lt; ReceiveT &gt;</text>
</a>
</g>
</g>
<!-- Node4&#45;&gt;Node11 -->
<g id="edge10_Node000004_Node000011" class="edge">
<title>Node4&#45;&gt;Node11</title>
<g id="a_edge10_Node000004_Node000011"><a xlink:title=" ">
<path fill="none" stroke="#63b8ff" d="M604.09,-74.03C613.01,-75.16 622.01,-76.3 630.82,-77.41"/>
<polygon fill="#63b8ff" stroke="#63b8ff" points="604.43,-70.55 594.07,-72.76 603.55,-77.49 604.43,-70.55"/>
</a>
</g>
</g>
<!-- Node6 -->
<g id="Node000006" class="node">
<title>Node6</title>
<g id="a_Node000006"><a xlink:href="classmosaic_1_1handlers_1_1DataChannelByteReceivable.html" target="_top" xlink:title=" ">
<polygon fill="white" stroke="#666666" points="1314,-159 1145,-159 1145,-129 1314,-129 1314,-159"/>
<text text-anchor="start" x="1153" y="-147" font-family="Helvetica,sans-Serif" font-size="10.00">mosaic::handlers::DataChannel</text>
<text text-anchor="middle" x="1229.5" y="-136" font-family="Helvetica,sans-Serif" font-size="10.00">ByteReceivable</text>
</a>
</g>
</g>
<!-- Node5&#45;&gt;Node6 -->
<g id="edge5_Node000005_Node000006" class="edge">
<title>Node5&#45;&gt;Node6</title>
<g id="a_edge5_Node000005_Node000006"><a xlink:title=" ">
<path fill="none" stroke="#63b8ff" d="M1118.34,-144C1127.15,-144 1136.03,-144 1144.74,-144"/>
<polygon fill="#63b8ff" stroke="#63b8ff" points="1118.06,-140.5 1108.06,-144 1118.06,-147.5 1118.06,-140.5"/>
</a>
</g>
</g>
<!-- Node8 -->
<g id="Node000008" class="node">
<title>Node8</title>
<g id="a_Node000008"><a xlink:href="classmosaic_1_1handlers_1_1DataChannelJsonReceivable.html" target="_top" xlink:title=" ">
<polygon fill="white" stroke="#666666" points="1314,-96 1145,-96 1145,-66 1314,-66 1314,-96"/>
<text text-anchor="start" x="1153" y="-84" font-family="Helvetica,sans-Serif" font-size="10.00">mosaic::handlers::DataChannel</text>
<text text-anchor="middle" x="1229.5" y="-73" font-family="Helvetica,sans-Serif" font-size="10.00">JsonReceivable</text>
</a>
</g>
</g>
<!-- Node7&#45;&gt;Node8 -->
<g id="edge7_Node000007_Node000008" class="edge">
<title>Node7&#45;&gt;Node8</title>
<g id="a_edge7_Node000007_Node000008"><a xlink:title=" ">
<path fill="none" stroke="#63b8ff" d="M1118.34,-81C1127.15,-81 1136.03,-81 1144.74,-81"/>
<polygon fill="#63b8ff" stroke="#63b8ff" points="1118.06,-77.5 1108.06,-81 1118.06,-84.5 1118.06,-77.5"/>
</a>
</g>
</g>
<!-- Node10 -->
<g id="Node000010" class="node">
<title>Node10</title>
<g id="a_Node000010"><a xlink:href="classmosaic_1_1handlers_1_1DataChannelStringReceivable.html" target="_top" xlink:title=" ">
<polygon fill="white" stroke="#666666" points="1314,-30 1145,-30 1145,0 1314,0 1314,-30"/>
<text text-anchor="start" x="1153" y="-18" font-family="Helvetica,sans-Serif" font-size="10.00">mosaic::handlers::DataChannel</text>
<text text-anchor="middle" x="1229.5" y="-7" font-family="Helvetica,sans-Serif" font-size="10.00">StringReceivable</text>
</a>
</g>
</g>
<!-- Node9&#45;&gt;Node10 -->
<g id="edge9_Node000009_Node000010" class="edge">
<title>Node9&#45;&gt;Node10</title>
<g id="a_edge9_Node000009_Node000010"><a xlink:title=" ">
<path fill="none" stroke="#63b8ff" d="M1118.34,-15C1127.15,-15 1136.03,-15 1144.74,-15"/>
<polygon fill="#63b8ff" stroke="#63b8ff" points="1118.06,-11.5 1108.06,-15 1118.06,-18.5 1118.06,-11.5"/>
</a>
</g>
</g>
<!-- Node11&#45;&gt;Node5 -->
<g id="edge11_Node000011_Node000005" class="edge">
<title>Node11&#45;&gt;Node5</title>
<g id="a_edge11_Node000011_Node000005"><a xlink:title=" ">
<path fill="none" stroke="orange" stroke-dasharray="5,2" d="M808.6,-104.85C850.03,-112.44 898.57,-121.32 938.94,-128.71"/>
<polygon fill="orange" stroke="orange" points="808.97,-101.36 798.5,-103.01 807.71,-108.25 808.97,-101.36"/>
</a>
</g>
<text text-anchor="start" x="818" y="-138" font-family="Helvetica,sans-Serif" font-size="10.00" fill="grey"> &lt; std::vector&lt; uint8</text>
<text text-anchor="middle" x="869.5" y="-127" font-family="Helvetica,sans-Serif" font-size="10.00" fill="grey">_t &gt; &gt;</text>
</g>
<!-- Node11&#45;&gt;Node7 -->
<g id="edge12_Node000011_Node000007" class="edge">
<title>Node11&#45;&gt;Node7</title>
<g id="a_edge12_Node000011_Node000007"><a xlink:title=" ">
<path fill="none" stroke="orange" stroke-dasharray="5,2" d="M810.14,-85.86C851.24,-84.92 899.11,-83.82 938.99,-82.91"/>
<polygon fill="orange" stroke="orange" points="810.03,-82.36 800.12,-86.09 810.19,-89.36 810.03,-82.36"/>
</a>
</g>
<text text-anchor="middle" x="869.5" y="-88" font-family="Helvetica,sans-Serif" font-size="10.00" fill="grey"> &lt; Json::Value &gt;</text>
</g>
<!-- Node11&#45;&gt;Node9 -->
<g id="edge13_Node000011_Node000009" class="edge">
<title>Node11&#45;&gt;Node9</title>
<g id="a_edge13_Node000011_Node000009"><a xlink:title=" ">
<path fill="none" stroke="orange" stroke-dasharray="5,2" d="M789.33,-70.63C841.16,-58.26 910.1,-41.81 959.55,-30.02"/>
<polygon fill="orange" stroke="orange" points="788.45,-67.24 779.53,-72.96 790.07,-74.05 788.45,-67.24"/>
</a>
</g>
<text text-anchor="middle" x="869.5" y="-65" font-family="Helvetica,sans-Serif" font-size="10.00" fill="grey"> &lt; std::string &gt;</text>
</g>
</g>
</svg>
