<?xml version="1.0" encoding="UTF-8" standalone="no"?>
<!DOCTYPE svg PUBLIC "-//W3C//DTD SVG 1.1//EN"
 "http://www.w3.org/Graphics/SVG/1.1/DTD/svg11.dtd">
<!-- Generated by graphviz version 2.43.0 (0)
 -->
<!-- Title: mosaic::auto_configurer::ConnectorResolver Pages: 1 -->
<svg width="742pt" height="84pt"
 viewBox="0.00 0.00 742.00 83.50" xmlns="http://www.w3.org/2000/svg" xmlns:xlink="http://www.w3.org/1999/xlink">
<g id="graph0" class="graph" transform="scale(1 1) rotate(0) translate(4 79.5)">
<title>mosaic::auto_configurer::ConnectorResolver</title>
<!-- Node1 -->
<g id="Node000001" class="node">
<title>Node1</title>
<g id="a_Node000001"><a xlink:title=" ">
<polygon fill="#999999" stroke="#666666" points="734,-46.5 600,-46.5 600,-16.5 734,-16.5 734,-46.5"/>
<text text-anchor="start" x="608" y="-34.5" font-family="Helvetica,sans-Serif" font-size="10.00">mosaic::auto_configurer</text>
<text text-anchor="middle" x="667" y="-23.5" font-family="Helvetica,sans-Serif" font-size="10.00">::ConnectorResolver</text>
</a>
</g>
</g>
<!-- Node2 -->
<g id="Node000002" class="node">
<title>Node2</title>
<g id="a_Node000002"><a xlink:title=" ">
<polygon fill="white" stroke="#666666" points="494,-63 303,-63 303,0 494,0 494,-63"/>
<text text-anchor="start" x="311" y="-51" font-family="Helvetica,sans-Serif" font-size="10.00">std::unordered_map</text>
<text text-anchor="start" x="311" y="-40" font-family="Helvetica,sans-Serif" font-size="10.00">&lt; std::string, std::</text>
<text text-anchor="start" x="311" y="-29" font-family="Helvetica,sans-Serif" font-size="10.00">shared_ptr&lt; mosaic::auto</text>
<text text-anchor="start" x="311" y="-18" font-family="Helvetica,sans-Serif" font-size="10.00">_configurer::IConfigurableConnector</text>
<text text-anchor="middle" x="398.5" y="-7" font-family="Helvetica,sans-Serif" font-size="10.00">Factory &gt; &gt;</text>
</a>
</g>
</g>
<!-- Node2&#45;&gt;Node1 -->
<g id="edge1_Node000001_Node000002" class="edge">
<title>Node2&#45;&gt;Node1</title>
<g id="a_edge1_Node000001_Node000002"><a xlink:title=" ">
<path fill="none" stroke="#9a32cd" stroke-dasharray="5,2" d="M504.52,-31.5C536.56,-31.5 570.89,-31.5 599.61,-31.5"/>
<polygon fill="#9a32cd" stroke="#9a32cd" points="504.21,-28 494.21,-31.5 504.21,-35 504.21,-28"/>
</a>
</g>
<text text-anchor="middle" x="547" y="-34.5" font-family="Helvetica,sans-Serif" font-size="10.00" fill="grey"> factory_map_</text>
</g>
<!-- Node3 -->
<g id="Node000003" class="node">
<title>Node3</title>
<g id="a_Node000003"><a xlink:title=" ">
<polygon fill="white" stroke="#666666" points="114,-46.5 0,-46.5 0,-16.5 114,-16.5 114,-46.5"/>
<text text-anchor="start" x="8" y="-34.5" font-family="Helvetica,sans-Serif" font-size="10.00">std::unordered_map</text>
<text text-anchor="middle" x="57" y="-23.5" font-family="Helvetica,sans-Serif" font-size="10.00">&lt; K, T &gt;</text>
</a>
</g>
</g>
<!-- Node3&#45;&gt;Node2 -->
<g id="edge2_Node000002_Node000003" class="edge">
<title>Node3&#45;&gt;Node2</title>
<g id="a_edge2_Node000002_Node000003"><a xlink:title=" ">
<path fill="none" stroke="orange" stroke-dasharray="5,2" d="M124.27,-31.5C175.12,-31.5 246,-31.5 302.82,-31.5"/>
<polygon fill="orange" stroke="orange" points="124.06,-28 114.06,-31.5 124.06,-35 124.06,-28"/>
</a>
</g>
<text text-anchor="start" x="132" y="-67.5" font-family="Helvetica,sans-Serif" font-size="10.00" fill="grey"> &lt; std::string, std</text>
<text text-anchor="start" x="132" y="-56.5" font-family="Helvetica,sans-Serif" font-size="10.00" fill="grey">::shared_ptr&lt; mosaic</text>
<text text-anchor="start" x="132" y="-45.5" font-family="Helvetica,sans-Serif" font-size="10.00" fill="grey">::auto_configurer::IConfigurable</text>
<text text-anchor="middle" x="208.5" y="-34.5" font-family="Helvetica,sans-Serif" font-size="10.00" fill="grey">ConnectorFactory &gt; &gt;</text>
</g>
</g>
</svg>
