<?xml version="1.0" encoding="UTF-8" standalone="no"?>
<!DOCTYPE svg PUBLIC "-//W3C//DTD SVG 1.1//EN"
 "http://www.w3.org/Graphics/SVG/1.1/DTD/svg11.dtd">
<!-- Generated by graphviz version 2.43.0 (0)
 -->
<!-- Title: mosaic::handlers::Recordable::Impl Pages: 1 -->
<svg width="187pt" height="192pt"
 viewBox="0.00 0.00 186.50 192.00" xmlns="http://www.w3.org/2000/svg" xmlns:xlink="http://www.w3.org/1999/xlink">
<g id="graph0" class="graph" transform="scale(1 1) rotate(0) translate(4 188)">
<title>mosaic::handlers::Recordable::Impl</title>
<!-- Node1 -->
<g id="Node000001" class="node">
<title>Node1</title>
<g id="a_Node000001"><a xlink:title=" ">
<polygon fill="#999999" stroke="#666666" points="161,-30 0,-30 0,0 161,0 161,-30"/>
<text text-anchor="start" x="8" y="-18" font-family="Helvetica,sans-Serif" font-size="10.00">mosaic::handlers::Recordable</text>
<text text-anchor="middle" x="80.5" y="-7" font-family="Helvetica,sans-Serif" font-size="10.00">::Impl</text>
</a>
</g>
</g>
<!-- Node2 -->
<g id="Node000002" class="node">
<title>Node2</title>
<g id="a_Node000002"><a xlink:title=" ">
<polygon fill="white" stroke="#666666" points="157,-107 4,-107 4,-77 157,-77 157,-107"/>
<text text-anchor="start" x="12" y="-95" font-family="Helvetica,sans-Serif" font-size="10.00">std::shared_ptr&lt; mosaic</text>
<text text-anchor="middle" x="80.5" y="-84" font-family="Helvetica,sans-Serif" font-size="10.00">::handlers::VideoRecorder &gt;</text>
</a>
</g>
</g>
<!-- Node2&#45;&gt;Node1 -->
<g id="edge1_Node000001_Node000002" class="edge">
<title>Node2&#45;&gt;Node1</title>
<g id="a_edge1_Node000001_Node000002"><a xlink:title=" ">
<path fill="none" stroke="#9a32cd" stroke-dasharray="5,2" d="M80.5,-66.54C80.5,-54.45 80.5,-40.29 80.5,-30.04"/>
<polygon fill="#9a32cd" stroke="#9a32cd" points="77,-66.89 80.5,-76.89 84,-66.89 77,-66.89"/>
</a>
</g>
<text text-anchor="middle" x="121.5" y="-51" font-family="Helvetica,sans-Serif" font-size="10.00" fill="grey"> video_recorder_</text>
</g>
<!-- Node3 -->
<g id="Node000003" class="node">
<title>Node3</title>
<g id="a_Node000003"><a xlink:title=" ">
<polygon fill="white" stroke="#666666" points="139.5,-184 21.5,-184 21.5,-165 139.5,-165 139.5,-184"/>
<text text-anchor="middle" x="80.5" y="-172" font-family="Helvetica,sans-Serif" font-size="10.00">std::shared_ptr&lt; T &gt;</text>
</a>
</g>
</g>
<!-- Node3&#45;&gt;Node2 -->
<g id="edge2_Node000002_Node000003" class="edge">
<title>Node3&#45;&gt;Node2</title>
<g id="a_edge2_Node000002_Node000003"><a xlink:title=" ">
<path fill="none" stroke="orange" stroke-dasharray="5,2" d="M80.5,-154.6C80.5,-140.1 80.5,-120.4 80.5,-107.22"/>
<polygon fill="orange" stroke="orange" points="77,-154.89 80.5,-164.89 84,-154.89 77,-154.89"/>
</a>
</g>
<text text-anchor="start" x="80.5" y="-139" font-family="Helvetica,sans-Serif" font-size="10.00" fill="grey"> &lt; mosaic::handlers</text>
<text text-anchor="middle" x="129.5" y="-128" font-family="Helvetica,sans-Serif" font-size="10.00" fill="grey">::VideoRecorder &gt;</text>
</g>
</g>
</svg>
