<?xml version="1.0" encoding="UTF-8" standalone="no"?>
<!DOCTYPE svg PUBLIC "-//W3C//DTD SVG 1.1//EN"
 "http://www.w3.org/Graphics/SVG/1.1/DTD/svg11.dtd">
<!-- Generated by graphviz version 2.43.0 (0)
 -->
<!-- Title: mosaic::auto_configurer::AParallelDCHandlerConfigurer Pages: 1 -->
<svg width="1035pt" height="106pt"
 viewBox="0.00 0.00 1035.00 105.50" xmlns="http://www.w3.org/2000/svg" xmlns:xlink="http://www.w3.org/1999/xlink">
<g id="graph0" class="graph" transform="scale(1 1) rotate(0) translate(4 101.5)">
<title>mosaic::auto_configurer::AParallelDCHandlerConfigurer</title>
<!-- Node1 -->
<g id="Node000001" class="node">
<title>Node1</title>
<g id="a_Node000001"><a xlink:title=" ">
<polygon fill="#999999" stroke="#666666" points="1027,-62.5 859,-62.5 859,-32.5 1027,-32.5 1027,-62.5"/>
<text text-anchor="start" x="867" y="-50.5" font-family="Helvetica,sans-Serif" font-size="10.00">mosaic::auto_configurer</text>
<text text-anchor="middle" x="943" y="-39.5" font-family="Helvetica,sans-Serif" font-size="10.00">::AParallelDCHandlerConfigurer</text>
</a>
</g>
</g>
<!-- Node2 -->
<g id="Node000002" class="node">
<title>Node2</title>
<g id="a_Node000002"><a xlink:href="classmosaic_1_1auto__configurer_1_1IConfigurableConnector.html" target="_top" xlink:title=" ">
<polygon fill="white" stroke="#666666" points="766,-89.5 629,-89.5 629,-59.5 766,-59.5 766,-89.5"/>
<text text-anchor="start" x="637" y="-77.5" font-family="Helvetica,sans-Serif" font-size="10.00">mosaic::auto_configurer</text>
<text text-anchor="middle" x="697.5" y="-66.5" font-family="Helvetica,sans-Serif" font-size="10.00">::IConfigurableConnector</text>
</a>
</g>
</g>
<!-- Node2&#45;&gt;Node1 -->
<g id="edge1_Node000001_Node000002" class="edge">
<title>Node2&#45;&gt;Node1</title>
<g id="a_edge1_Node000001_Node000002"><a xlink:title=" ">
<path fill="none" stroke="#63b8ff" d="M775.94,-65.91C802.32,-62.99 831.92,-59.71 858.73,-56.73"/>
<polygon fill="#63b8ff" stroke="#63b8ff" points="775.56,-62.43 766,-67.01 776.33,-69.39 775.56,-62.43"/>
</a>
</g>
</g>
<!-- Node3 -->
<g id="Node000003" class="node">
<title>Node3</title>
<g id="a_Node000003"><a xlink:title=" ">
<polygon fill="white" stroke="#666666" points="428,-90.5 287,-90.5 287,-60.5 428,-60.5 428,-90.5"/>
<text text-anchor="start" x="295" y="-78.5" font-family="Helvetica,sans-Serif" font-size="10.00">std::shared_ptr&lt; mosaic</text>
<text text-anchor="middle" x="357.5" y="-67.5" font-family="Helvetica,sans-Serif" font-size="10.00">::core::ConnectorConfig &gt;</text>
</a>
</g>
</g>
<!-- Node3&#45;&gt;Node2 -->
<g id="edge2_Node000002_Node000003" class="edge">
<title>Node3&#45;&gt;Node2</title>
<g id="a_edge2_Node000002_Node000003"><a xlink:title=" ">
<path fill="none" stroke="#9a32cd" stroke-dasharray="5,2" d="M438.35,-75.26C496.38,-75.09 574.04,-74.86 628.98,-74.7"/>
<polygon fill="#9a32cd" stroke="#9a32cd" points="438.11,-71.76 428.12,-75.29 438.13,-78.76 438.11,-71.76"/>
</a>
</g>
<text text-anchor="middle" x="525.5" y="-77.5" font-family="Helvetica,sans-Serif" font-size="10.00" fill="grey"> connector_config_</text>
</g>
<!-- Node4 -->
<g id="Node000004" class="node">
<title>Node4</title>
<g id="a_Node000004"><a xlink:title=" ">
<polygon fill="white" stroke="#666666" points="118,-85 0,-85 0,-66 118,-66 118,-85"/>
<text text-anchor="middle" x="59" y="-73" font-family="Helvetica,sans-Serif" font-size="10.00">std::shared_ptr&lt; T &gt;</text>
</a>
</g>
</g>
<!-- Node4&#45;&gt;Node3 -->
<g id="edge3_Node000003_Node000004" class="edge">
<title>Node4&#45;&gt;Node3</title>
<g id="a_edge3_Node000003_Node000004"><a xlink:title=" ">
<path fill="none" stroke="orange" stroke-dasharray="5,2" d="M128.43,-75.5C175.98,-75.5 239.14,-75.5 286.94,-75.5"/>
<polygon fill="orange" stroke="orange" points="128.23,-72 118.23,-75.5 128.23,-79 128.23,-72"/>
</a>
</g>
<text text-anchor="start" x="136" y="-89.5" font-family="Helvetica,sans-Serif" font-size="10.00" fill="grey"> &lt; mosaic::core::Connector</text>
<text text-anchor="middle" x="202.5" y="-78.5" font-family="Helvetica,sans-Serif" font-size="10.00" fill="grey">Config &gt;</text>
</g>
<!-- Node5 -->
<g id="Node000005" class="node">
<title>Node5</title>
<g id="a_Node000005"><a xlink:title=" ">
<polygon fill="white" stroke="#666666" points="772,-41 623,-41 623,0 772,0 772,-41"/>
<text text-anchor="start" x="631" y="-29" font-family="Helvetica,sans-Serif" font-size="10.00">std::vector&lt; std::shared</text>
<text text-anchor="start" x="631" y="-18" font-family="Helvetica,sans-Serif" font-size="10.00">_ptr&lt; mosaic::handlers</text>
<text text-anchor="middle" x="697.5" y="-7" font-family="Helvetica,sans-Serif" font-size="10.00">::IDataChannelHandler &gt; &gt;</text>
</a>
</g>
</g>
<!-- Node5&#45;&gt;Node1 -->
<g id="edge4_Node000001_Node000005" class="edge">
<title>Node5&#45;&gt;Node1</title>
<g id="a_edge4_Node000001_Node000005"><a xlink:title=" ">
<path fill="none" stroke="#9a32cd" stroke-dasharray="5,2" d="M782.29,-29.79C807.01,-32.53 834.05,-35.53 858.73,-38.27"/>
<polygon fill="#9a32cd" stroke="#9a32cd" points="782.54,-26.3 772.22,-28.67 781.77,-33.26 782.54,-26.3"/>
</a>
</g>
<text text-anchor="middle" x="815.5" y="-39.5" font-family="Helvetica,sans-Serif" font-size="10.00" fill="grey"> handlers_</text>
</g>
<!-- Node6 -->
<g id="Node000006" class="node">
<title>Node6</title>
<g id="a_Node000006"><a xlink:title=" ">
<polygon fill="white" stroke="#666666" points="406,-29 309,-29 309,-10 406,-10 406,-29"/>
<text text-anchor="middle" x="357.5" y="-17" font-family="Helvetica,sans-Serif" font-size="10.00">std::vector&lt; T &gt;</text>
</a>
</g>
</g>
<!-- Node6&#45;&gt;Node5 -->
<g id="edge5_Node000005_Node000006" class="edge">
<title>Node6&#45;&gt;Node5</title>
<g id="a_edge5_Node000005_Node000006"><a xlink:title=" ">
<path fill="none" stroke="orange" stroke-dasharray="5,2" d="M416.51,-19.67C473.6,-19.84 561,-20.1 622.94,-20.28"/>
<polygon fill="orange" stroke="orange" points="416.22,-16.17 406.21,-19.64 416.2,-23.17 416.22,-16.17"/>
</a>
</g>
<text text-anchor="start" x="446" y="-45.5" font-family="Helvetica,sans-Serif" font-size="10.00" fill="grey"> &lt; std::shared_ptr&lt;</text>
<text text-anchor="start" x="446" y="-34.5" font-family="Helvetica,sans-Serif" font-size="10.00" fill="grey"> mosaic::handlers::IDataChannel</text>
<text text-anchor="middle" x="525.5" y="-23.5" font-family="Helvetica,sans-Serif" font-size="10.00" fill="grey">Handler &gt; &gt;</text>
</g>
</g>
</svg>
