<?xml version="1.0" encoding="UTF-8" standalone="no"?>
<!DOCTYPE svg PUBLIC "-//W3C//DTD SVG 1.1//EN"
 "http://www.w3.org/Graphics/SVG/1.1/DTD/svg11.dtd">
<!-- Generated by graphviz version 2.43.0 (0)
 -->
<!-- Title: mosaic::security::IMosaicAuthenticator Pages: 1 -->
<svg width="300pt" height="170pt"
 viewBox="0.00 0.00 300.00 170.00" xmlns="http://www.w3.org/2000/svg" xmlns:xlink="http://www.w3.org/1999/xlink">
<g id="graph0" class="graph" transform="scale(1 1) rotate(0) translate(4 166)">
<title>mosaic::security::IMosaicAuthenticator</title>
<!-- Node1 -->
<g id="Node000001" class="node">
<title>Node1</title>
<g id="a_Node000001"><a xlink:title=" ">
<polygon fill="#999999" stroke="#666666" points="216,-162 76,-162 76,-132 216,-132 216,-162"/>
<text text-anchor="start" x="84" y="-150" font-family="Helvetica,sans-Serif" font-size="10.00">mosaic::security::IMosaic</text>
<text text-anchor="middle" x="146" y="-139" font-family="Helvetica,sans-Serif" font-size="10.00">Authenticator</text>
</a>
</g>
</g>
<!-- Node2 -->
<g id="Node000002" class="node">
<title>Node2</title>
<g id="a_Node000002"><a xlink:href="classmosaic_1_1security_1_1AMosaicAuthenticator.html" target="_top" xlink:title=" ">
<polygon fill="white" stroke="#666666" points="217.5,-96 74.5,-96 74.5,-66 217.5,-66 217.5,-96"/>
<text text-anchor="start" x="82.5" y="-84" font-family="Helvetica,sans-Serif" font-size="10.00">mosaic::security::AMosaic</text>
<text text-anchor="middle" x="146" y="-73" font-family="Helvetica,sans-Serif" font-size="10.00">Authenticator</text>
</a>
</g>
</g>
<!-- Node1&#45;&gt;Node2 -->
<g id="edge1_Node000001_Node000002" class="edge">
<title>Node1&#45;&gt;Node2</title>
<g id="a_edge1_Node000001_Node000002"><a xlink:title=" ">
<path fill="none" stroke="#63b8ff" d="M146,-121.54C146,-112.96 146,-103.61 146,-96.16"/>
<polygon fill="#63b8ff" stroke="#63b8ff" points="142.5,-121.8 146,-131.8 149.5,-121.8 142.5,-121.8"/>
</a>
</g>
</g>
<!-- Node3 -->
<g id="Node000003" class="node">
<title>Node3</title>
<g id="a_Node000003"><a xlink:href="classmosaic_1_1security_1_1NoAuthAuthenticator.html" target="_top" xlink:title=" ">
<polygon fill="white" stroke="#666666" points="138,-30 0,-30 0,0 138,0 138,-30"/>
<text text-anchor="start" x="8" y="-18" font-family="Helvetica,sans-Serif" font-size="10.00">mosaic::security::NoAuth</text>
<text text-anchor="middle" x="69" y="-7" font-family="Helvetica,sans-Serif" font-size="10.00">Authenticator</text>
</a>
</g>
</g>
<!-- Node2&#45;&gt;Node3 -->
<g id="edge2_Node000002_Node000003" class="edge">
<title>Node2&#45;&gt;Node3</title>
<g id="a_edge2_Node000002_Node000003"><a xlink:title=" ">
<path fill="none" stroke="#63b8ff" d="M120.98,-59.2C109.55,-49.7 96.3,-38.69 86.04,-30.16"/>
<polygon fill="#63b8ff" stroke="#63b8ff" points="118.98,-62.1 128.91,-65.8 123.46,-56.71 118.98,-62.1"/>
</a>
</g>
</g>
<!-- Node4 -->
<g id="Node000004" class="node">
<title>Node4</title>
<g id="a_Node000004"><a xlink:href="classmosaic_1_1security_1_1SimpleTokenAuthenticator.html" target="_top" xlink:title=" ">
<polygon fill="white" stroke="#666666" points="292,-30 156,-30 156,0 292,0 292,-30"/>
<text text-anchor="start" x="164" y="-18" font-family="Helvetica,sans-Serif" font-size="10.00">mosaic::security::Simple</text>
<text text-anchor="middle" x="224" y="-7" font-family="Helvetica,sans-Serif" font-size="10.00">TokenAuthenticator</text>
</a>
</g>
</g>
<!-- Node2&#45;&gt;Node4 -->
<g id="edge3_Node000002_Node000004" class="edge">
<title>Node2&#45;&gt;Node4</title>
<g id="a_edge3_Node000002_Node000004"><a xlink:title=" ">
<path fill="none" stroke="#63b8ff" d="M171.35,-59.2C182.93,-49.7 196.35,-38.69 206.74,-30.16"/>
<polygon fill="#63b8ff" stroke="#63b8ff" points="168.82,-56.75 163.31,-65.8 173.26,-62.16 168.82,-56.75"/>
</a>
</g>
</g>
</g>
</svg>
