<?xml version="1.0" encoding="UTF-8" standalone="no"?>
<!DOCTYPE svg PUBLIC "-//W3C//DTD SVG 1.1//EN"
 "http://www.w3.org/Graphics/SVG/1.1/DTD/svg11.dtd">
<!-- Generated by graphviz version 2.43.0 (0)
 -->
<!-- Title: mosaic::security::NoAuthAuthenticator Pages: 1 -->
<svg width="1110pt" height="140pt"
 viewBox="0.00 0.00 1110.00 139.50" xmlns="http://www.w3.org/2000/svg" xmlns:xlink="http://www.w3.org/1999/xlink">
<g id="graph0" class="graph" transform="scale(1 1) rotate(0) translate(4 135.5)">
<title>mosaic::security::NoAuthAuthenticator</title>
<!-- Node1 -->
<g id="Node000001" class="node">
<title>Node1</title>
<g id="a_Node000001"><a xlink:title=" ">
<polygon fill="#999999" stroke="#666666" points="1102,-83.5 964,-83.5 964,-53.5 1102,-53.5 1102,-83.5"/>
<text text-anchor="start" x="972" y="-71.5" font-family="Helvetica,sans-Serif" font-size="10.00">mosaic::security::NoAuth</text>
<text text-anchor="middle" x="1033" y="-60.5" font-family="Helvetica,sans-Serif" font-size="10.00">Authenticator</text>
</a>
</g>
</g>
<!-- Node2 -->
<g id="Node000002" class="node">
<title>Node2</title>
<g id="a_Node000002"><a xlink:href="classmosaic_1_1security_1_1AMosaicAuthenticator.html" target="_top" xlink:title=" ">
<polygon fill="white" stroke="#666666" points="927,-83.5 784,-83.5 784,-53.5 927,-53.5 927,-83.5"/>
<text text-anchor="start" x="792" y="-71.5" font-family="Helvetica,sans-Serif" font-size="10.00">mosaic::security::AMosaic</text>
<text text-anchor="middle" x="855.5" y="-60.5" font-family="Helvetica,sans-Serif" font-size="10.00">Authenticator</text>
</a>
</g>
</g>
<!-- Node2&#45;&gt;Node1 -->
<g id="edge1_Node000001_Node000002" class="edge">
<title>Node2&#45;&gt;Node1</title>
<g id="a_edge1_Node000001_Node000002"><a xlink:title=" ">
<path fill="none" stroke="#63b8ff" d="M937.13,-68.5C946.04,-68.5 955.06,-68.5 963.8,-68.5"/>
<polygon fill="#63b8ff" stroke="#63b8ff" points="937.12,-65 927.12,-68.5 937.12,-72 937.12,-65"/>
</a>
</g>
</g>
<!-- Node3 -->
<g id="Node000003" class="node">
<title>Node3</title>
<g id="a_Node000003"><a xlink:href="classmosaic_1_1security_1_1IMosaicAuthenticator.html" target="_top" xlink:title=" ">
<polygon fill="white" stroke="#666666" points="659.5,-126.5 519.5,-126.5 519.5,-96.5 659.5,-96.5 659.5,-126.5"/>
<text text-anchor="start" x="527.5" y="-114.5" font-family="Helvetica,sans-Serif" font-size="10.00">mosaic::security::IMosaic</text>
<text text-anchor="middle" x="589.5" y="-103.5" font-family="Helvetica,sans-Serif" font-size="10.00">Authenticator</text>
</a>
</g>
</g>
<!-- Node3&#45;&gt;Node2 -->
<g id="edge2_Node000002_Node000003" class="edge">
<title>Node3&#45;&gt;Node2</title>
<g id="a_edge2_Node000002_Node000003"><a xlink:title=" ">
<path fill="none" stroke="#63b8ff" d="M669.75,-99.02C699.89,-94.23 734.54,-88.67 766,-83.5 771.84,-82.54 777.9,-81.53 783.98,-80.52"/>
<polygon fill="#63b8ff" stroke="#63b8ff" points="669.04,-95.59 659.71,-100.62 670.13,-102.51 669.04,-95.59"/>
</a>
</g>
</g>
<!-- Node4 -->
<g id="Node000004" class="node">
<title>Node4</title>
<g id="a_Node000004"><a xlink:href="structmosaic_1_1core_1_1AuthConfig.html" target="_top" xlink:title=" ">
<polygon fill="white" stroke="#666666" points="658.5,-78 520.5,-78 520.5,-59 658.5,-59 658.5,-78"/>
<text text-anchor="middle" x="589.5" y="-66" font-family="Helvetica,sans-Serif" font-size="10.00">mosaic::core::AuthConfig</text>
</a>
</g>
</g>
<!-- Node4&#45;&gt;Node2 -->
<g id="edge3_Node000002_Node000004" class="edge">
<title>Node4&#45;&gt;Node2</title>
<g id="a_edge3_Node000002_Node000004"><a xlink:title=" ">
<path fill="none" stroke="#9a32cd" stroke-dasharray="5,2" d="M668.91,-68.5C705.32,-68.5 748.28,-68.5 783.69,-68.5"/>
<polygon fill="#9a32cd" stroke="#9a32cd" points="668.83,-65 658.83,-68.5 668.83,-72 668.83,-65"/>
</a>
</g>
<text text-anchor="middle" x="723.5" y="-71.5" font-family="Helvetica,sans-Serif" font-size="10.00" fill="grey"> auth_config_</text>
</g>
<!-- Node5 -->
<g id="Node000005" class="node">
<title>Node5</title>
<g id="a_Node000005"><a xlink:title=" ">
<polygon fill="white" stroke="#666666" points="326.5,-126 261.5,-126 261.5,-107 326.5,-107 326.5,-126"/>
<text text-anchor="middle" x="294" y="-114" font-family="Helvetica,sans-Serif" font-size="10.00">std::string</text>
</a>
</g>
</g>
<!-- Node5&#45;&gt;Node4 -->
<g id="edge4_Node000004_Node000005" class="edge">
<title>Node5&#45;&gt;Node4</title>
<g id="a_edge4_Node000004_Node000005"><a xlink:title=" ">
<path fill="none" stroke="#9a32cd" stroke-dasharray="5,2" d="M336.56,-109.78C377.59,-103.14 442.13,-92.67 498,-83.5 508.69,-81.75 520.08,-79.87 531.05,-78.05"/>
<polygon fill="#9a32cd" stroke="#9a32cd" points="335.96,-106.33 326.65,-111.39 337.08,-113.24 335.96,-106.33"/>
</a>
</g>
<text text-anchor="middle" x="434.5" y="-117.5" font-family="Helvetica,sans-Serif" font-size="10.00" fill="grey"> robot_id</text>
<text text-anchor="middle" x="434.5" y="-106.5" font-family="Helvetica,sans-Serif" font-size="10.00" fill="grey">type</text>
</g>
<!-- Node6 -->
<g id="Node000006" class="node">
<title>Node6</title>
<g id="a_Node000006"><a xlink:title=" ">
<polygon fill="white" stroke="#666666" points="109,-131.5 5,-131.5 5,-101.5 109,-101.5 109,-131.5"/>
<text text-anchor="start" x="13" y="-119.5" font-family="Helvetica,sans-Serif" font-size="10.00">std::basic_string&lt;</text>
<text text-anchor="middle" x="57" y="-108.5" font-family="Helvetica,sans-Serif" font-size="10.00"> Char &gt;</text>
</a>
</g>
</g>
<!-- Node6&#45;&gt;Node5 -->
<g id="edge5_Node000005_Node000006" class="edge">
<title>Node6&#45;&gt;Node5</title>
<g id="a_edge5_Node000005_Node000006"><a xlink:title=" ">
<path fill="none" stroke="#63b8ff" d="M119.34,-116.5C164.85,-116.5 225.06,-116.5 261.31,-116.5"/>
<polygon fill="#63b8ff" stroke="#63b8ff" points="119.28,-113 109.28,-116.5 119.28,-120 119.28,-113"/>
</a>
</g>
</g>
<!-- Node7 -->
<g id="Node000007" class="node">
<title>Node7</title>
<g id="a_Node000007"><a xlink:title=" ">
<polygon fill="white" stroke="#666666" points="351,-89 237,-89 237,-48 351,-48 351,-89"/>
<text text-anchor="start" x="245" y="-77" font-family="Helvetica,sans-Serif" font-size="10.00">std::unordered_map</text>
<text text-anchor="start" x="245" y="-66" font-family="Helvetica,sans-Serif" font-size="10.00">&lt; std::string, std::</text>
<text text-anchor="middle" x="294" y="-55" font-family="Helvetica,sans-Serif" font-size="10.00">string &gt;</text>
</a>
</g>
</g>
<!-- Node7&#45;&gt;Node4 -->
<g id="edge6_Node000004_Node000007" class="edge">
<title>Node7&#45;&gt;Node4</title>
<g id="a_edge6_Node000004_Node000007"><a xlink:title=" ">
<path fill="none" stroke="#9a32cd" stroke-dasharray="5,2" d="M361.41,-68.5C408.85,-68.5 472.49,-68.5 520.32,-68.5"/>
<polygon fill="#9a32cd" stroke="#9a32cd" points="361.24,-65 351.24,-68.5 361.24,-72 361.24,-65"/>
</a>
</g>
<text text-anchor="middle" x="434.5" y="-71.5" font-family="Helvetica,sans-Serif" font-size="10.00" fill="grey"> params</text>
</g>
<!-- Node8 -->
<g id="Node000008" class="node">
<title>Node8</title>
<g id="a_Node000008"><a xlink:title=" ">
<polygon fill="white" stroke="#666666" points="114,-83.5 0,-83.5 0,-53.5 114,-53.5 114,-83.5"/>
<text text-anchor="start" x="8" y="-71.5" font-family="Helvetica,sans-Serif" font-size="10.00">std::unordered_map</text>
<text text-anchor="middle" x="57" y="-60.5" font-family="Helvetica,sans-Serif" font-size="10.00">&lt; K, T &gt;</text>
</a>
</g>
</g>
<!-- Node8&#45;&gt;Node7 -->
<g id="edge7_Node000007_Node000008" class="edge">
<title>Node8&#45;&gt;Node7</title>
<g id="a_edge7_Node000007_Node000008"><a xlink:title=" ">
<path fill="none" stroke="orange" stroke-dasharray="5,2" d="M124.54,-68.5C159.95,-68.5 203.03,-68.5 236.76,-68.5"/>
<polygon fill="orange" stroke="orange" points="124.29,-65 114.29,-68.5 124.29,-72 124.29,-65"/>
</a>
</g>
<text text-anchor="start" x="132" y="-82.5" font-family="Helvetica,sans-Serif" font-size="10.00" fill="grey"> &lt; std::string, std</text>
<text text-anchor="middle" x="174.5" y="-71.5" font-family="Helvetica,sans-Serif" font-size="10.00" fill="grey">::string &gt;</text>
</g>
<!-- Node9 -->
<g id="Node000009" class="node">
<title>Node9</title>
<g id="a_Node000009"><a xlink:title=" ">
<polygon fill="white" stroke="#666666" points="663,-41 516,-41 516,0 663,0 663,-41"/>
<text text-anchor="start" x="524" y="-29" font-family="Helvetica,sans-Serif" font-size="10.00">std::shared_ptr&lt; mosaic</text>
<text text-anchor="start" x="524" y="-18" font-family="Helvetica,sans-Serif" font-size="10.00">::core_signaling::ISignaling</text>
<text text-anchor="middle" x="589.5" y="-7" font-family="Helvetica,sans-Serif" font-size="10.00">Client &gt;</text>
</a>
</g>
</g>
<!-- Node9&#45;&gt;Node2 -->
<g id="edge8_Node000002_Node000009" class="edge">
<title>Node9&#45;&gt;Node2</title>
<g id="a_edge8_Node000002_Node000009"><a xlink:title=" ">
<path fill="none" stroke="#9a32cd" stroke-dasharray="5,2" d="M673.19,-35.53C708.66,-41.98 749.68,-49.44 783.72,-55.63"/>
<polygon fill="#9a32cd" stroke="#9a32cd" points="673.8,-32.09 663.34,-33.74 672.55,-38.98 673.8,-32.09"/>
</a>
</g>
<text text-anchor="middle" x="723.5" y="-55.5" font-family="Helvetica,sans-Serif" font-size="10.00" fill="grey"> signaling_client_</text>
</g>
<!-- Node10 -->
<g id="Node000010" class="node">
<title>Node10</title>
<g id="a_Node000010"><a xlink:title=" ">
<polygon fill="white" stroke="#666666" points="353,-30 235,-30 235,-11 353,-11 353,-30"/>
<text text-anchor="middle" x="294" y="-18" font-family="Helvetica,sans-Serif" font-size="10.00">std::shared_ptr&lt; T &gt;</text>
</a>
</g>
</g>
<!-- Node10&#45;&gt;Node9 -->
<g id="edge9_Node000009_Node000010" class="edge">
<title>Node10&#45;&gt;Node9</title>
<g id="a_edge9_Node000009_Node000010"><a xlink:title=" ">
<path fill="none" stroke="orange" stroke-dasharray="5,2" d="M363.46,-20.5C409.24,-20.5 469.38,-20.5 515.97,-20.5"/>
<polygon fill="orange" stroke="orange" points="363.34,-17 353.34,-20.5 363.34,-24 363.34,-17"/>
</a>
</g>
<text text-anchor="start" x="371" y="-34.5" font-family="Helvetica,sans-Serif" font-size="10.00" fill="grey"> &lt; mosaic::core_signaling</text>
<text text-anchor="middle" x="434.5" y="-23.5" font-family="Helvetica,sans-Serif" font-size="10.00" fill="grey">::ISignalingClient &gt;</text>
</g>
</g>
</svg>
