<?xml version="1.0" encoding="UTF-8" standalone="no"?>
<!DOCTYPE svg PUBLIC "-//W3C//DTD SVG 1.1//EN"
 "http://www.w3.org/Graphics/SVG/1.1/DTD/svg11.dtd">
<!-- Generated by graphviz version 2.43.0 (0)
 -->
<!-- Title: mosaic::auto_configurer::IConfigurableConnector Pages: 1 -->
<svg width="573pt" height="148pt"
 viewBox="0.00 0.00 573.00 147.50" xmlns="http://www.w3.org/2000/svg" xmlns:xlink="http://www.w3.org/1999/xlink">
<g id="graph0" class="graph" transform="scale(1 1) rotate(0) translate(4 143.5)">
<title>mosaic::auto_configurer::IConfigurableConnector</title>
<!-- Node1 -->
<g id="Node000001" class="node">
<title>Node1</title>
<g id="a_Node000001"><a xlink:title=" ">
<polygon fill="#999999" stroke="#666666" points="137,-78 0,-78 0,-48 137,-48 137,-78"/>
<text text-anchor="start" x="8" y="-66" font-family="Helvetica,sans-Serif" font-size="10.00">mosaic::auto_configurer</text>
<text text-anchor="middle" x="68.5" y="-55" font-family="Helvetica,sans-Serif" font-size="10.00">::IConfigurableConnector</text>
</a>
</g>
</g>
<!-- Node2 -->
<g id="Node000002" class="node">
<title>Node2</title>
<g id="a_Node000002"><a xlink:href="classmosaic_1_1auto__configurer_1_1ADCHandlerConfigurer.html" target="_top" xlink:title=" ">
<polygon fill="white" stroke="#666666" points="324,-129 190,-129 190,-99 324,-99 324,-129"/>
<text text-anchor="start" x="198" y="-117" font-family="Helvetica,sans-Serif" font-size="10.00">mosaic::auto_configurer</text>
<text text-anchor="middle" x="257" y="-106" font-family="Helvetica,sans-Serif" font-size="10.00">::ADCHandlerConfigurer</text>
</a>
</g>
</g>
<!-- Node1&#45;&gt;Node2 -->
<g id="edge1_Node000001_Node000002" class="edge">
<title>Node1&#45;&gt;Node2</title>
<g id="a_edge1_Node000001_Node000002"><a xlink:title=" ">
<path fill="none" stroke="#63b8ff" d="M134.28,-80.71C156.08,-86.67 180.17,-93.26 201.12,-98.99"/>
<polygon fill="#63b8ff" stroke="#63b8ff" points="135.02,-77.29 124.45,-78.03 133.17,-84.04 135.02,-77.29"/>
</a>
</g>
</g>
<!-- Node4 -->
<g id="Node000004" class="node">
<title>Node4</title>
<g id="a_Node000004"><a xlink:href="classmosaic_1_1auto__configurer_1_1AMTHandlerConfigurer.html" target="_top" xlink:title=" ">
<polygon fill="white" stroke="#666666" points="324,-78 190,-78 190,-48 324,-48 324,-78"/>
<text text-anchor="start" x="198" y="-66" font-family="Helvetica,sans-Serif" font-size="10.00">mosaic::auto_configurer</text>
<text text-anchor="middle" x="257" y="-55" font-family="Helvetica,sans-Serif" font-size="10.00">::AMTHandlerConfigurer</text>
</a>
</g>
</g>
<!-- Node1&#45;&gt;Node4 -->
<g id="edge3_Node000001_Node000004" class="edge">
<title>Node1&#45;&gt;Node4</title>
<g id="a_edge3_Node000001_Node000004"><a xlink:title=" ">
<path fill="none" stroke="#63b8ff" d="M147.3,-63C161.46,-63 176.1,-63 189.88,-63"/>
<polygon fill="#63b8ff" stroke="#63b8ff" points="147.09,-59.5 137.09,-63 147.09,-66.5 147.09,-59.5"/>
</a>
</g>
</g>
<!-- Node6 -->
<g id="Node000006" class="node">
<title>Node6</title>
<g id="a_Node000006"><a xlink:href="classmosaic_1_1auto__configurer_1_1AParallelDCHandlerConfigurer.html" target="_top" xlink:title=" ">
<polygon fill="white" stroke="#666666" points="341,-30 173,-30 173,0 341,0 341,-30"/>
<text text-anchor="start" x="181" y="-18" font-family="Helvetica,sans-Serif" font-size="10.00">mosaic::auto_configurer</text>
<text text-anchor="middle" x="257" y="-7" font-family="Helvetica,sans-Serif" font-size="10.00">::AParallelDCHandlerConfigurer</text>
</a>
</g>
</g>
<!-- Node1&#45;&gt;Node6 -->
<g id="edge5_Node000001_Node000006" class="edge">
<title>Node1&#45;&gt;Node6</title>
<g id="a_edge5_Node000001_Node000006"><a xlink:title=" ">
<path fill="none" stroke="#63b8ff" d="M137.81,-45.42C157.46,-40.36 178.72,-34.89 197.71,-30"/>
<polygon fill="#63b8ff" stroke="#63b8ff" points="136.81,-42.06 128,-47.94 138.55,-48.84 136.81,-42.06"/>
</a>
</g>
</g>
<!-- Node3 -->
<g id="Node000003" class="node">
<title>Node3</title>
<g id="a_Node000003"><a xlink:href="classmosaic_1_1auto__configurer_1_1impl_1_1ConnectionCheckDCHandlerConfigurer.html" target="_top" xlink:title=" ">
<polygon fill="white" stroke="#666666" points="565,-139.5 377,-139.5 377,-98.5 565,-98.5 565,-139.5"/>
<text text-anchor="start" x="385" y="-127.5" font-family="Helvetica,sans-Serif" font-size="10.00">mosaic::auto_configurer</text>
<text text-anchor="start" x="385" y="-116.5" font-family="Helvetica,sans-Serif" font-size="10.00">::impl::ConnectionCheckDCHandler</text>
<text text-anchor="middle" x="471" y="-105.5" font-family="Helvetica,sans-Serif" font-size="10.00">Configurer</text>
</a>
</g>
</g>
<!-- Node2&#45;&gt;Node3 -->
<g id="edge2_Node000002_Node000003" class="edge">
<title>Node2&#45;&gt;Node3</title>
<g id="a_edge2_Node000002_Node000003"><a xlink:title=" ">
<path fill="none" stroke="#63b8ff" d="M334.52,-115.8C348.21,-116.13 362.62,-116.47 376.72,-116.8"/>
<polygon fill="#63b8ff" stroke="#63b8ff" points="334.29,-112.3 324.21,-115.56 334.12,-119.3 334.29,-112.3"/>
</a>
</g>
</g>
<!-- Node5 -->
<g id="Node000005" class="node">
<title>Node5</title>
<g id="a_Node000005"><a xlink:href="classmosaic_1_1auto__configurer_1_1impl_1_1OpenCVCameraMediaTrackConfigurer.html" target="_top" xlink:title=" ">
<polygon fill="white" stroke="#666666" points="562.5,-80.5 379.5,-80.5 379.5,-39.5 562.5,-39.5 562.5,-80.5"/>
<text text-anchor="start" x="387.5" y="-68.5" font-family="Helvetica,sans-Serif" font-size="10.00">mosaic::auto_configurer</text>
<text text-anchor="start" x="387.5" y="-57.5" font-family="Helvetica,sans-Serif" font-size="10.00">::impl::OpenCVCameraMediaTrack</text>
<text text-anchor="middle" x="471" y="-46.5" font-family="Helvetica,sans-Serif" font-size="10.00">Configurer</text>
</a>
</g>
</g>
<!-- Node4&#45;&gt;Node5 -->
<g id="edge4_Node000004_Node000005" class="edge">
<title>Node4&#45;&gt;Node5</title>
<g id="a_edge4_Node000004_Node000005"><a xlink:title=" ">
<path fill="none" stroke="#63b8ff" d="M334.21,-61.92C348.87,-61.71 364.36,-61.49 379.43,-61.28"/>
<polygon fill="#63b8ff" stroke="#63b8ff" points="334.16,-58.42 324.21,-62.06 334.25,-65.42 334.16,-58.42"/>
</a>
</g>
</g>
</g>
</svg>
