<?xml version="1.0" encoding="UTF-8" standalone="no"?>
<!DOCTYPE svg PUBLIC "-//W3C//DTD SVG 1.1//EN"
 "http://www.w3.org/Graphics/SVG/1.1/DTD/svg11.dtd">
<!-- Generated by graphviz version 2.43.0 (0)
 -->
<!-- Title: mosaic::auto_configurer::impl::OpenCVCameraMediaTrack Pages: 1 -->
<svg width="1370pt" height="161pt"
 viewBox="0.00 0.00 1370.00 160.50" xmlns="http://www.w3.org/2000/svg" xmlns:xlink="http://www.w3.org/1999/xlink">
<g id="graph0" class="graph" transform="scale(1 1) rotate(0) translate(4 156.5)">
<title>mosaic::auto_configurer::impl::OpenCVCameraMediaTrack</title>
<!-- Node1 -->
<g id="Node000001" class="node">
<title>Node1</title>
<g id="a_Node000001"><a xlink:title=" ">
<polygon fill="#999999" stroke="#666666" points="1362,-59.5 1179,-59.5 1179,-29.5 1362,-29.5 1362,-59.5"/>
<text text-anchor="start" x="1187" y="-47.5" font-family="Helvetica,sans-Serif" font-size="10.00">mosaic::auto_configurer</text>
<text text-anchor="middle" x="1270.5" y="-36.5" font-family="Helvetica,sans-Serif" font-size="10.00">::impl::OpenCVCameraMediaTrack</text>
</a>
</g>
</g>
<!-- Node2 -->
<g id="Node000002" class="node">
<title>Node2</title>
<g id="a_Node000002"><a xlink:href="classmosaic_1_1handlers_1_1AMediaTrackHandler.html" target="_top" xlink:title=" ">
<polygon fill="white" stroke="#666666" points="1042,-89.5 899,-89.5 899,-59.5 1042,-59.5 1042,-89.5"/>
<text text-anchor="start" x="907" y="-77.5" font-family="Helvetica,sans-Serif" font-size="10.00">mosaic::handlers::AMedia</text>
<text text-anchor="middle" x="970.5" y="-66.5" font-family="Helvetica,sans-Serif" font-size="10.00">TrackHandler</text>
</a>
</g>
</g>
<!-- Node2&#45;&gt;Node1 -->
<g id="edge1_Node000001_Node000002" class="edge">
<title>Node2&#45;&gt;Node1</title>
<g id="a_edge1_Node000001_Node000002"><a xlink:title=" ">
<path fill="none" stroke="#63b8ff" d="M1052.39,-66.36C1091.46,-62.42 1138.48,-57.69 1178.76,-53.64"/>
<polygon fill="#63b8ff" stroke="#63b8ff" points="1051.72,-62.91 1042.12,-67.39 1052.42,-69.87 1051.72,-62.91"/>
</a>
</g>
</g>
<!-- Node3 -->
<g id="Node000003" class="node">
<title>Node3</title>
<g id="a_Node000003"><a xlink:href="classmosaic_1_1handlers_1_1IMediaTrackHandler.html" target="_top" xlink:title=" ">
<polygon fill="white" stroke="#666666" points="773,-152.5 634,-152.5 634,-122.5 773,-122.5 773,-152.5"/>
<text text-anchor="start" x="642" y="-140.5" font-family="Helvetica,sans-Serif" font-size="10.00">mosaic::handlers::IMedia</text>
<text text-anchor="middle" x="703.5" y="-129.5" font-family="Helvetica,sans-Serif" font-size="10.00">TrackHandler</text>
</a>
</g>
</g>
<!-- Node3&#45;&gt;Node2 -->
<g id="edge2_Node000002_Node000003" class="edge">
<title>Node3&#45;&gt;Node2</title>
<g id="a_edge2_Node000002_Node000003"><a xlink:title=" ">
<path fill="none" stroke="#63b8ff" d="M783.11,-120.24C813.71,-113.37 849.04,-105.27 881,-97.5 891.18,-95.02 901.99,-92.3 912.44,-89.61"/>
<polygon fill="#63b8ff" stroke="#63b8ff" points="782.34,-116.82 773.35,-122.42 783.87,-123.66 782.34,-116.82"/>
</a>
</g>
</g>
<!-- Node4 -->
<g id="Node000004" class="node">
<title>Node4</title>
<g id="a_Node000004"><a xlink:title=" ">
<polygon fill="white" stroke="#666666" points="379,-147 314,-147 314,-128 379,-128 379,-147"/>
<text text-anchor="middle" x="346.5" y="-135" font-family="Helvetica,sans-Serif" font-size="10.00">std::string</text>
</a>
</g>
</g>
<!-- Node4&#45;&gt;Node3 -->
<g id="edge3_Node000003_Node000004" class="edge">
<title>Node4&#45;&gt;Node3</title>
<g id="a_edge3_Node000003_Node000004"><a xlink:title=" ">
<path fill="none" stroke="#9a32cd" stroke-dasharray="5,2" d="M389.28,-137.5C449.53,-137.5 561.51,-137.5 633.97,-137.5"/>
<polygon fill="#9a32cd" stroke="#9a32cd" points="389,-134 379,-137.5 389,-141 389,-134"/>
</a>
</g>
<text text-anchor="middle" x="523.5" y="-140.5" font-family="Helvetica,sans-Serif" font-size="10.00" fill="grey"> track_name_</text>
</g>
<!-- Node5 -->
<g id="Node000005" class="node">
<title>Node5</title>
<g id="a_Node000005"><a xlink:title=" ">
<polygon fill="white" stroke="#666666" points="111,-152.5 7,-152.5 7,-122.5 111,-122.5 111,-152.5"/>
<text text-anchor="start" x="15" y="-140.5" font-family="Helvetica,sans-Serif" font-size="10.00">std::basic_string&lt;</text>
<text text-anchor="middle" x="59" y="-129.5" font-family="Helvetica,sans-Serif" font-size="10.00"> Char &gt;</text>
</a>
</g>
</g>
<!-- Node5&#45;&gt;Node4 -->
<g id="edge4_Node000004_Node000005" class="edge">
<title>Node5&#45;&gt;Node4</title>
<g id="a_edge4_Node000004_Node000005"><a xlink:title=" ">
<path fill="none" stroke="#63b8ff" d="M121.38,-137.5C180.51,-137.5 267.62,-137.5 313.9,-137.5"/>
<polygon fill="#63b8ff" stroke="#63b8ff" points="121.04,-134 111.04,-137.5 121.04,-141 121.04,-134"/>
</a>
</g>
</g>
<!-- Node6 -->
<g id="Node000006" class="node">
<title>Node6</title>
<g id="a_Node000006"><a xlink:href="classmosaic_1_1handlers_1_1Recordable.html" target="_top" xlink:title=" ">
<polygon fill="white" stroke="#666666" points="784,-104 623,-104 623,-85 784,-85 784,-104"/>
<text text-anchor="middle" x="703.5" y="-92" font-family="Helvetica,sans-Serif" font-size="10.00">mosaic::handlers::Recordable</text>
</a>
</g>
</g>
<!-- Node6&#45;&gt;Node2 -->
<g id="edge5_Node000002_Node000006" class="edge">
<title>Node6&#45;&gt;Node2</title>
<g id="a_edge5_Node000002_Node000006"><a xlink:title=" ">
<path fill="none" stroke="#63b8ff" d="M794.41,-87.71C828.41,-85.15 866.6,-82.27 898.61,-79.85"/>
<polygon fill="#63b8ff" stroke="#63b8ff" points="793.72,-84.26 784.01,-88.5 794.24,-91.24 793.72,-84.26"/>
</a>
</g>
</g>
<!-- Node7 -->
<g id="Node000007" class="node">
<title>Node7</title>
<g id="a_Node000007"><a xlink:title=" ">
<polygon fill="white" stroke="#666666" points="424,-109.5 269,-109.5 269,-79.5 424,-79.5 424,-109.5"/>
<text text-anchor="start" x="277" y="-97.5" font-family="Helvetica,sans-Serif" font-size="10.00">std::unique_ptr&lt; Recordable</text>
<text text-anchor="middle" x="346.5" y="-86.5" font-family="Helvetica,sans-Serif" font-size="10.00">::Impl &gt;</text>
</a>
</g>
</g>
<!-- Node7&#45;&gt;Node6 -->
<g id="edge6_Node000006_Node000007" class="edge">
<title>Node7&#45;&gt;Node6</title>
<g id="a_edge6_Node000006_Node000007"><a xlink:title=" ">
<path fill="none" stroke="#9a32cd" stroke-dasharray="5,2" d="M434.27,-94.5C491.87,-94.5 566.91,-94.5 622.97,-94.5"/>
<polygon fill="#9a32cd" stroke="#9a32cd" points="434.09,-91 424.09,-94.5 434.09,-98 434.09,-91"/>
</a>
</g>
<text text-anchor="middle" x="523.5" y="-97.5" font-family="Helvetica,sans-Serif" font-size="10.00" fill="grey"> pImpl</text>
</g>
<!-- Node8 -->
<g id="Node000008" class="node">
<title>Node8</title>
<g id="a_Node000008"><a xlink:title=" ">
<polygon fill="white" stroke="#666666" points="118,-83 0,-83 0,-64 118,-64 118,-83"/>
<text text-anchor="middle" x="59" y="-71" font-family="Helvetica,sans-Serif" font-size="10.00">std::unique_ptr&lt; T &gt;</text>
</a>
</g>
</g>
<!-- Node8&#45;&gt;Node7 -->
<g id="edge7_Node000007_Node000008" class="edge">
<title>Node8&#45;&gt;Node7</title>
<g id="a_edge7_Node000007_Node000008"><a xlink:title=" ">
<path fill="none" stroke="orange" stroke-dasharray="5,2" d="M128.32,-78.53C170.61,-81.64 225,-85.64 268.77,-88.86"/>
<polygon fill="orange" stroke="orange" points="128.35,-75.02 118.12,-77.77 127.84,-82 128.35,-75.02"/>
</a>
</g>
<text text-anchor="middle" x="193.5" y="-89.5" font-family="Helvetica,sans-Serif" font-size="10.00" fill="grey"> &lt; Recordable::Impl &gt;</text>
</g>
<!-- Node9 -->
<g id="Node000009" class="node">
<title>Node9</title>
<g id="a_Node000009"><a xlink:title=" ">
<polygon fill="white" stroke="#666666" points="605,-68.5 442,-68.5 442,-38.5 605,-38.5 605,-68.5"/>
<text text-anchor="start" x="450" y="-56.5" font-family="Helvetica,sans-Serif" font-size="10.00">std::unique_ptr&lt; AMediaTrack</text>
<text text-anchor="middle" x="523.5" y="-45.5" font-family="Helvetica,sans-Serif" font-size="10.00">Handler::Impl &gt;</text>
</a>
</g>
</g>
<!-- Node8&#45;&gt;Node9 -->
<g id="edge9_Node000009_Node000008" class="edge">
<title>Node8&#45;&gt;Node9</title>
<g id="a_edge9_Node000009_Node000008"><a xlink:title=" ">
<path fill="none" stroke="orange" stroke-dasharray="5,2" d="M97.26,-61.05C109.46,-57.56 123.18,-54.24 136,-52.5 240.89,-38.27 363.27,-41.96 441.76,-46.89"/>
<polygon fill="orange" stroke="orange" points="96,-57.78 87.42,-64 98,-64.48 96,-57.78"/>
</a>
</g>
<text text-anchor="start" x="136" y="-66.5" font-family="Helvetica,sans-Serif" font-size="10.00" fill="grey"> &lt; AMediaTrackHandler</text>
<text text-anchor="middle" x="193.5" y="-55.5" font-family="Helvetica,sans-Serif" font-size="10.00" fill="grey">::Impl &gt;</text>
</g>
<!-- Node9&#45;&gt;Node2 -->
<g id="edge8_Node000002_Node000009" class="edge">
<title>Node9&#45;&gt;Node2</title>
<g id="a_edge8_Node000002_Node000009"><a xlink:title=" ">
<path fill="none" stroke="#9a32cd" stroke-dasharray="5,2" d="M615.26,-57.65C665.08,-59.94 727.95,-62.84 784,-65.5 821.84,-67.29 864.03,-69.34 898.59,-71.02"/>
<polygon fill="#9a32cd" stroke="#9a32cd" points="615.31,-54.15 605.16,-57.18 614.99,-61.14 615.31,-54.15"/>
</a>
</g>
<text text-anchor="middle" x="703.5" y="-68.5" font-family="Helvetica,sans-Serif" font-size="10.00" fill="grey"> pImpl</text>
</g>
<!-- Node10 -->
<g id="Node000010" class="node">
<title>Node10</title>
<g id="a_Node000010"><a xlink:title=" ">
<polygon fill="white" stroke="#666666" points="1028.5,-35.5 912.5,-35.5 912.5,-5.5 1028.5,-5.5 1028.5,-35.5"/>
<text text-anchor="start" x="920.5" y="-23.5" font-family="Helvetica,sans-Serif" font-size="10.00">std::shared_ptr&lt; std</text>
<text text-anchor="middle" x="970.5" y="-12.5" font-family="Helvetica,sans-Serif" font-size="10.00">::thread &gt;</text>
</a>
</g>
</g>
<!-- Node10&#45;&gt;Node1 -->
<g id="edge10_Node000001_Node000010" class="edge">
<title>Node10&#45;&gt;Node1</title>
<g id="a_edge10_Node000001_Node000010"><a xlink:title=" ">
<path fill="none" stroke="#9a32cd" stroke-dasharray="5,2" d="M1038.59,-25.9C1080.02,-29.24 1133.71,-33.56 1178.89,-37.2"/>
<polygon fill="#9a32cd" stroke="#9a32cd" points="1038.85,-22.41 1028.6,-25.1 1038.29,-29.39 1038.85,-22.41"/>
</a>
</g>
<text text-anchor="middle" x="1110.5" y="-37.5" font-family="Helvetica,sans-Serif" font-size="10.00" fill="grey"> frame_loop_thread_</text>
</g>
<!-- Node11 -->
<g id="Node000011" class="node">
<title>Node11</title>
<g id="a_Node000011"><a xlink:title=" ">
<polygon fill="white" stroke="#666666" points="762.5,-19 644.5,-19 644.5,0 762.5,0 762.5,-19"/>
<text text-anchor="middle" x="703.5" y="-7" font-family="Helvetica,sans-Serif" font-size="10.00">std::shared_ptr&lt; T &gt;</text>
</a>
</g>
</g>
<!-- Node11&#45;&gt;Node10 -->
<g id="edge11_Node000010_Node000011" class="edge">
<title>Node11&#45;&gt;Node10</title>
<g id="a_edge11_Node000010_Node000011"><a xlink:title=" ">
<path fill="none" stroke="orange" stroke-dasharray="5,2" d="M772.82,-12.34C816.11,-14.13 871.45,-16.43 912.39,-18.13"/>
<polygon fill="orange" stroke="orange" points="772.79,-8.83 762.66,-11.91 772.5,-15.83 772.79,-8.83"/>
</a>
</g>
<text text-anchor="middle" x="841.5" y="-20.5" font-family="Helvetica,sans-Serif" font-size="10.00" fill="grey"> &lt; std::thread &gt;</text>
</g>
</g>
</svg>
