<?xml version="1.0" encoding="UTF-8" standalone="no"?>
<!DOCTYPE svg PUBLIC "-//W3C//DTD SVG 1.1//EN"
 "http://www.w3.org/Graphics/SVG/1.1/DTD/svg11.dtd">
<!-- Generated by graphviz version 2.43.0 (0)
 -->
<!-- Title: mosaic::auto_configurer::ADCHandlerConfigurer Pages: 1 -->
<svg width="966pt" height="82pt"
 viewBox="0.00 0.00 966.00 82.00" xmlns="http://www.w3.org/2000/svg" xmlns:xlink="http://www.w3.org/1999/xlink">
<g id="graph0" class="graph" transform="scale(1 1) rotate(0) translate(4 78)">
<title>mosaic::auto_configurer::ADCHandlerConfigurer</title>
<!-- Node1 -->
<g id="Node000001" class="node">
<title>Node1</title>
<g id="a_Node000001"><a xlink:title=" ">
<polygon fill="#999999" stroke="#666666" points="958,-47 824,-47 824,-17 958,-17 958,-47"/>
<text text-anchor="start" x="832" y="-35" font-family="Helvetica,sans-Serif" font-size="10.00">mosaic::auto_configurer</text>
<text text-anchor="middle" x="891" y="-24" font-family="Helvetica,sans-Serif" font-size="10.00">::ADCHandlerConfigurer</text>
</a>
</g>
</g>
<!-- Node2 -->
<g id="Node000002" class="node">
<title>Node2</title>
<g id="a_Node000002"><a xlink:href="classmosaic_1_1auto__configurer_1_1IConfigurableConnector.html" target="_top" xlink:title=" ">
<polygon fill="white" stroke="#666666" points="787,-74 650,-74 650,-44 787,-44 787,-74"/>
<text text-anchor="start" x="658" y="-62" font-family="Helvetica,sans-Serif" font-size="10.00">mosaic::auto_configurer</text>
<text text-anchor="middle" x="718.5" y="-51" font-family="Helvetica,sans-Serif" font-size="10.00">::IConfigurableConnector</text>
</a>
</g>
</g>
<!-- Node2&#45;&gt;Node1 -->
<g id="edge1_Node000001_Node000002" class="edge">
<title>Node2&#45;&gt;Node1</title>
<g id="a_edge1_Node000001_Node000002"><a xlink:title=" ">
<path fill="none" stroke="#63b8ff" d="M797.29,-46.68C806.13,-45.28 815.08,-43.86 823.75,-42.49"/>
<polygon fill="#63b8ff" stroke="#63b8ff" points="796.71,-43.23 787.38,-48.25 797.8,-50.14 796.71,-43.23"/>
</a>
</g>
</g>
<!-- Node3 -->
<g id="Node000003" class="node">
<title>Node3</title>
<g id="a_Node000003"><a xlink:title=" ">
<polygon fill="white" stroke="#666666" points="428,-74 287,-74 287,-44 428,-44 428,-74"/>
<text text-anchor="start" x="295" y="-62" font-family="Helvetica,sans-Serif" font-size="10.00">std::shared_ptr&lt; mosaic</text>
<text text-anchor="middle" x="357.5" y="-51" font-family="Helvetica,sans-Serif" font-size="10.00">::core::ConnectorConfig &gt;</text>
</a>
</g>
</g>
<!-- Node3&#45;&gt;Node2 -->
<g id="edge2_Node000002_Node000003" class="edge">
<title>Node3&#45;&gt;Node2</title>
<g id="a_edge2_Node000002_Node000003"><a xlink:title=" ">
<path fill="none" stroke="#9a32cd" stroke-dasharray="5,2" d="M438.52,-59C502.03,-59 589.84,-59 649.87,-59"/>
<polygon fill="#9a32cd" stroke="#9a32cd" points="438.14,-55.5 428.14,-59 438.14,-62.5 438.14,-55.5"/>
</a>
</g>
<text text-anchor="middle" x="539" y="-62" font-family="Helvetica,sans-Serif" font-size="10.00" fill="grey"> connector_config_</text>
</g>
<!-- Node4 -->
<g id="Node000004" class="node">
<title>Node4</title>
<g id="a_Node000004"><a xlink:title=" ">
<polygon fill="white" stroke="#666666" points="118,-46.5 0,-46.5 0,-27.5 118,-27.5 118,-46.5"/>
<text text-anchor="middle" x="59" y="-34.5" font-family="Helvetica,sans-Serif" font-size="10.00">std::shared_ptr&lt; T &gt;</text>
</a>
</g>
</g>
<!-- Node4&#45;&gt;Node3 -->
<g id="edge3_Node000003_Node000004" class="edge">
<title>Node4&#45;&gt;Node3</title>
<g id="a_edge3_Node000003_Node000004"><a xlink:title=" ">
<path fill="none" stroke="orange" stroke-dasharray="5,2" d="M128.43,-42.08C175.98,-45.61 239.14,-50.29 286.94,-53.84"/>
<polygon fill="orange" stroke="orange" points="128.46,-38.57 118.23,-41.32 127.94,-45.55 128.46,-38.57"/>
</a>
</g>
<text text-anchor="start" x="136" y="-66" font-family="Helvetica,sans-Serif" font-size="10.00" fill="grey"> &lt; mosaic::core::Connector</text>
<text text-anchor="middle" x="202.5" y="-55" font-family="Helvetica,sans-Serif" font-size="10.00" fill="grey">Config &gt;</text>
</g>
<!-- Node5 -->
<g id="Node000005" class="node">
<title>Node5</title>
<g id="a_Node000005"><a xlink:title=" ">
<polygon fill="white" stroke="#666666" points="632,-30 446,-30 446,0 632,0 632,-30"/>
<text text-anchor="start" x="454" y="-18" font-family="Helvetica,sans-Serif" font-size="10.00">std::shared_ptr&lt; mosaic</text>
<text text-anchor="middle" x="539" y="-7" font-family="Helvetica,sans-Serif" font-size="10.00">::handlers::IDataChannelHandler &gt;</text>
</a>
</g>
</g>
<!-- Node4&#45;&gt;Node5 -->
<g id="edge5_Node000005_Node000004" class="edge">
<title>Node4&#45;&gt;Node5</title>
<g id="a_edge5_Node000005_Node000004"><a xlink:title=" ">
<path fill="none" stroke="orange" stroke-dasharray="5,2" d="M97.57,-24.48C109.69,-21.02 123.29,-17.74 136,-16 241.45,-1.57 363.92,-3.97 445.71,-8.28"/>
<polygon fill="orange" stroke="orange" points="96.36,-21.19 87.78,-27.4 98.36,-27.9 96.36,-21.19"/>
</a>
</g>
<text text-anchor="start" x="141.5" y="-30" font-family="Helvetica,sans-Serif" font-size="10.00" fill="grey"> &lt; mosaic::handlers</text>
<text text-anchor="middle" x="202.5" y="-19" font-family="Helvetica,sans-Serif" font-size="10.00" fill="grey">::IDataChannelHandler &gt;</text>
</g>
<!-- Node5&#45;&gt;Node1 -->
<g id="edge4_Node000001_Node000005" class="edge">
<title>Node5&#45;&gt;Node1</title>
<g id="a_edge4_Node000001_Node000005"><a xlink:title=" ">
<path fill="none" stroke="#9a32cd" stroke-dasharray="5,2" d="M642.35,-17.79C686.82,-19.24 739.5,-21.29 787,-24 798.91,-24.68 811.58,-25.55 823.81,-26.46"/>
<polygon fill="#9a32cd" stroke="#9a32cd" points="642.23,-14.28 632.12,-17.46 642,-21.28 642.23,-14.28"/>
</a>
</g>
<text text-anchor="middle" x="718.5" y="-27" font-family="Helvetica,sans-Serif" font-size="10.00" fill="grey"> handler_</text>
</g>
</g>
</svg>
