<?xml version="1.0" encoding="UTF-8" standalone="no"?>
<!DOCTYPE svg PUBLIC "-//W3C//DTD SVG 1.1//EN"
 "http://www.w3.org/Graphics/SVG/1.1/DTD/svg11.dtd">
<!-- Generated by graphviz version 2.43.0 (0)
 -->
<!-- Title: mosaic::auto_configurer::AutoConfigurer Pages: 1 -->
<!--zoomable 334 -->

<svg id="main" version="1.1" xmlns="http://www.w3.org/2000/svg" xmlns:xlink="http://www.w3.org/1999/xlink" xml:space="preserve" onload="init(evt)">
<style type="text/css"><![CDATA[
.node, .edge {opacity: 0.7;}
.node.selected, .edge.selected {opacity: 1;}
.edge:hover path { stroke: red; }
.edge:hover polygon { stroke: red; fill: red; }
]]></style>

<defs>
  <circle id="rim" cx="0" cy="0" r="7"/>
  <circle id="rim2" cx="0" cy="0" r="3.5"/>
  <g id="zoomPlus">
    <use xlink:href="#rim" fill="#404040"><set attributeName="fill" to="#808080" begin="zoomplus.mouseover" end="zoomplus.mouseout"/></use>
    <path d="M-4,0h8M0,-4v8" fill="none" stroke="white" stroke-width="1.5" pointer-events="none"/>
  </g>
  <g id="zoomMin">
    <use xlink:href="#rim" fill="#404040"><set attributeName="fill" to="#808080" begin="zoomminus.mouseover" end="zoomminus.mouseout"/></use>
    <path d="M-4,0h8" fill="none" stroke="white" stroke-width="1.5" pointer-events="none"/>
  </g>
  <g id="arrowUp" transform="translate(30 24)">
    <use xlink:href="#rim"/>
    <path pointer-events="none" fill="none" stroke="white" stroke-width="1.5" d="M0,-3.0v7 M-2.5,-0.5L0,-3.0L2.5,-0.5"/>
  </g>
  <g id="arrowRight" transform="rotate(90) translate(36 -43)">
    <use xlink:href="#rim"/>
    <path pointer-events="none" fill="none" stroke="white" stroke-width="1.5" d="M0,-3.0v7 M-2.5,-0.5L0,-3.0L2.5,-0.5"/>
  </g>
  <g id="arrowDown" transform="rotate(180) translate(-30 -48)">
    <use xlink:href="#rim"/>
    <path pointer-events="none" fill="none" stroke="white" stroke-width="1.5" d="M0,-3.0v7 M-2.5,-0.5L0,-3.0L2.5,-0.5"/>
  </g>
  <g id="arrowLeft" transform="rotate(270) translate(-36 17)">
    <use xlink:href="#rim"/>
    <path pointer-events="none" fill="none" stroke="white" stroke-width="1.5" d="M0,-3.0v7 M-2.5,-0.5L0,-3.0L2.5,-0.5"/>
  </g>
  <g id="resetDef">
    <use xlink:href="#rim2" fill="#404040"><set attributeName="fill" to="#808080" begin="reset.mouseover" end="reset.mouseout"/></use>
  </g>
</defs>
<script type="application/ecmascript">
var viewWidth = 824;
var viewHeight = 334;
var sectionId = 'dynsection-0';
</script>
<script type="application/ecmascript" xlink:href="svg.min.js"/>
<svg id="graph" class="graph">
<g id="viewport">
<title>mosaic::auto_configurer::AutoConfigurer</title>
<!-- Node1 -->
<g id="Node000001" class="node">
<title>Node1</title>
<g id="a_Node000001"><a xlink:title=" ">
<polygon fill="#999999" stroke="#666666" points="816,-203 682,-203 682,-173 816,-173 816,-203"/>
<text text-anchor="start" x="690" y="-191" font-family="Helvetica,sans-Serif" font-size="10.00">mosaic::auto_configurer</text>
<text text-anchor="middle" x="749" y="-180" font-family="Helvetica,sans-Serif" font-size="10.00">::AutoConfigurer</text>
</a>
</g>
</g>
<!-- Node2 -->
<g id="Node000002" class="node">
<title>Node2</title>
<g id="a_Node000002"><a xlink:title=" ">
<polygon fill="white" stroke="#666666" points="495,-326 359,-326 359,-296 495,-296 495,-326"/>
<text text-anchor="start" x="367" y="-314" font-family="Helvetica,sans-Serif" font-size="10.00">std::shared_ptr&lt; mosaic</text>
<text text-anchor="middle" x="427" y="-303" font-family="Helvetica,sans-Serif" font-size="10.00">::core::MosaicConfig &gt;</text>
</a>
</g>
</g>
<!-- Node2&#45;&gt;Node1 -->
<g id="edge1_Node000001_Node000002" class="edge">
<title>Node2&#45;&gt;Node1</title>
<g id="a_edge1_Node000001_Node000002"><a xlink:title=" ">
<path fill="none" stroke="#9a32cd" stroke-dasharray="5,2" d="M505.02,-304.6C552.79,-298.28 614.3,-285.75 664,-261 692.88,-246.61 719.83,-219.93 735.07,-203.12"/>
<polygon fill="#9a32cd" stroke="#9a32cd" points="504.53,-301.14 495.05,-305.86 505.41,-308.08 504.53,-301.14"/>
</a>
</g>
<text text-anchor="middle" x="600.5" y="-302" font-family="Helvetica,sans-Serif" font-size="10.00" fill="grey"> mosaic_config_</text>
</g>
<!-- Node3 -->
<g id="Node000003" class="node">
<title>Node3</title>
<g id="a_Node000003"><a xlink:title=" ">
<polygon fill="white" stroke="#666666" points="118,-272.5 0,-272.5 0,-253.5 118,-253.5 118,-272.5"/>
<text text-anchor="middle" x="59" y="-260.5" font-family="Helvetica,sans-Serif" font-size="10.00">std::shared_ptr&lt; T &gt;</text>
</a>
</g>
</g>
<!-- Node3&#45;&gt;Node2 -->
<g id="edge2_Node000002_Node000003" class="edge">
<title>Node3&#45;&gt;Node2</title>
<g id="a_edge2_Node000002_Node000003"><a xlink:title=" ">
<path fill="none" stroke="orange" stroke-dasharray="5,2" d="M115.37,-274.47C122.3,-275.75 129.3,-276.96 136,-278 212.11,-289.82 300.08,-299.24 358.99,-304.94"/>
<polygon fill="orange" stroke="orange" points="115.78,-270.99 105.31,-272.57 114.48,-277.87 115.78,-270.99"/>
</a>
</g>
<text text-anchor="middle" x="226.5" y="-303" font-family="Helvetica,sans-Serif" font-size="10.00" fill="grey"> &lt; mosaic::core::MosaicConfig &gt;</text>
</g>
<!-- Node4 -->
<g id="Node000004" class="node">
<title>Node4</title>
<g id="a_Node000004"><a xlink:title=" ">
<polygon fill="white" stroke="#666666" points="499.5,-278 354.5,-278 354.5,-248 499.5,-248 499.5,-278"/>
<text text-anchor="start" x="362.5" y="-266" font-family="Helvetica,sans-Serif" font-size="10.00">std::shared_ptr&lt; mosaic</text>
<text text-anchor="middle" x="427" y="-255" font-family="Helvetica,sans-Serif" font-size="10.00">::core::MosaicConnector &gt;</text>
</a>
</g>
</g>
<!-- Node3&#45;&gt;Node4 -->
<g id="edge4_Node000004_Node000003" class="edge">
<title>Node3&#45;&gt;Node4</title>
<g id="a_edge4_Node000004_Node000003"><a xlink:title=" ">
<path fill="none" stroke="orange" stroke-dasharray="5,2" d="M128.45,-263C192.84,-263 288.87,-263 354.3,-263"/>
<polygon fill="orange" stroke="orange" points="128.4,-259.5 118.4,-263 128.4,-266.5 128.4,-259.5"/>
</a>
</g>
<text text-anchor="middle" x="226.5" y="-266" font-family="Helvetica,sans-Serif" font-size="10.00" fill="grey"> &lt; mosaic::core::MosaicConnector &gt;</text>
</g>
<!-- Node10 -->
<g id="Node000010" class="node">
<title>Node10</title>
<g id="a_Node000010"><a xlink:title=" ">
<polygon fill="white" stroke="#666666" points="519,-230 335,-230 335,-200 519,-200 519,-230"/>
<text text-anchor="start" x="343" y="-218" font-family="Helvetica,sans-Serif" font-size="10.00">std::shared_ptr&lt; mosaic</text>
<text text-anchor="middle" x="427" y="-207" font-family="Helvetica,sans-Serif" font-size="10.00">::auto_configurer::IConfigReader &gt;</text>
</a>
</g>
</g>
<!-- Node3&#45;&gt;Node10 -->
<g id="edge12_Node000010_Node000003" class="edge">
<title>Node3&#45;&gt;Node10</title>
<g id="a_edge12_Node000010_Node000003"><a xlink:title=" ">
<path fill="none" stroke="orange" stroke-dasharray="5,2" d="M92.5,-249.85C105.77,-245.02 121.41,-240 136,-237 201.66,-223.51 277.2,-218.09 334.72,-216.01"/>
<polygon fill="orange" stroke="orange" points="90.99,-246.68 82.86,-253.48 93.45,-253.23 90.99,-246.68"/>
</a>
</g>
<text text-anchor="start" x="160.5" y="-251" font-family="Helvetica,sans-Serif" font-size="10.00" fill="grey"> &lt; mosaic::auto_configurer</text>
<text text-anchor="middle" x="226.5" y="-240" font-family="Helvetica,sans-Serif" font-size="10.00" fill="grey">::IConfigReader &gt;</text>
</g>
<!-- Node4&#45;&gt;Node1 -->
<g id="edge3_Node000001_Node000004" class="edge">
<title>Node4&#45;&gt;Node1</title>
<g id="a_edge3_Node000001_Node000004"><a xlink:title=" ">
<path fill="none" stroke="#9a32cd" stroke-dasharray="5,2" d="M509.4,-251.95C555.28,-244.78 613.36,-234.13 664,-220 680.38,-215.43 698.04,-208.95 712.92,-203.01"/>
<polygon fill="#9a32cd" stroke="#9a32cd" points="508.86,-248.49 499.51,-253.47 509.93,-255.41 508.86,-248.49"/>
</a>
</g>
<text text-anchor="middle" x="600.5" y="-249" font-family="Helvetica,sans-Serif" font-size="10.00" fill="grey"> mosaic_connector_</text>
</g>
<!-- Node5 -->
<g id="Node000005" class="node">
<title>Node5</title>
<g id="a_Node000005"><a xlink:title=" ">
<polygon fill="white" stroke="#666666" points="509,-181.5 345,-181.5 345,-140.5 509,-140.5 509,-181.5"/>
<text text-anchor="start" x="353" y="-169.5" font-family="Helvetica,sans-Serif" font-size="10.00">std::vector&lt; std::shared</text>
<text text-anchor="start" x="353" y="-158.5" font-family="Helvetica,sans-Serif" font-size="10.00">_ptr&lt; mosaic::auto_configurer</text>
<text text-anchor="middle" x="427" y="-147.5" font-family="Helvetica,sans-Serif" font-size="10.00">::IConfigurableConnector &gt; &gt;</text>
</a>
</g>
</g>
<!-- Node5&#45;&gt;Node1 -->
<g id="edge5_Node000001_Node000005" class="edge">
<title>Node5&#45;&gt;Node1</title>
<g id="a_edge5_Node000001_Node000005"><a xlink:title=" ">
<path fill="none" stroke="#9a32cd" stroke-dasharray="5,2" d="M519.27,-165.85C563.09,-168.53 616.33,-172.27 664,-177 669.71,-177.57 675.63,-178.22 681.56,-178.91"/>
<polygon fill="#9a32cd" stroke="#9a32cd" points="519.39,-162.36 509.2,-165.25 518.97,-169.34 519.39,-162.36"/>
</a>
</g>
<text text-anchor="middle" x="600.5" y="-180" font-family="Helvetica,sans-Serif" font-size="10.00" fill="grey"> configurable_connectors_</text>
</g>
<!-- Node6 -->
<g id="Node000006" class="node">
<title>Node6</title>
<g id="a_Node000006"><a xlink:title=" ">
<polygon fill="white" stroke="#666666" points="107.5,-170.5 10.5,-170.5 10.5,-151.5 107.5,-151.5 107.5,-170.5"/>
<text text-anchor="middle" x="59" y="-158.5" font-family="Helvetica,sans-Serif" font-size="10.00">std::vector&lt; T &gt;</text>
</a>
</g>
</g>
<!-- Node6&#45;&gt;Node5 -->
<g id="edge6_Node000005_Node000006" class="edge">
<title>Node6&#45;&gt;Node5</title>
<g id="a_edge6_Node000005_Node000006"><a xlink:title=" ">
<path fill="none" stroke="orange" stroke-dasharray="5,2" d="M118.1,-161C179.32,-161 276.19,-161 344.91,-161"/>
<polygon fill="orange" stroke="orange" points="117.85,-157.5 107.85,-161 117.85,-164.5 117.85,-157.5"/>
</a>
</g>
<text text-anchor="start" x="155" y="-186" font-family="Helvetica,sans-Serif" font-size="10.00" fill="grey"> &lt; std::shared_ptr&lt;</text>
<text text-anchor="start" x="155" y="-175" font-family="Helvetica,sans-Serif" font-size="10.00" fill="grey"> mosaic::auto_configurer</text>
<text text-anchor="middle" x="226.5" y="-164" font-family="Helvetica,sans-Serif" font-size="10.00" fill="grey">::IConfigurableConnector &gt; &gt;</text>
</g>
<!-- Node7 -->
<g id="Node000007" class="node">
<title>Node7</title>
<g id="a_Node000007"><a xlink:title=" ">
<polygon fill="white" stroke="#666666" points="508.5,-122 345.5,-122 345.5,-70 508.5,-70 508.5,-122"/>
<text text-anchor="start" x="353.5" y="-110" font-family="Helvetica,sans-Serif" font-size="10.00">std::unordered_map</text>
<text text-anchor="start" x="353.5" y="-99" font-family="Helvetica,sans-Serif" font-size="10.00">&lt; std::string, std::</text>
<text text-anchor="start" x="353.5" y="-88" font-family="Helvetica,sans-Serif" font-size="10.00">shared_ptr&lt; mosaic::handlers</text>
<text text-anchor="middle" x="427" y="-77" font-family="Helvetica,sans-Serif" font-size="10.00">::IDataChannelHandler &gt; &gt;</text>
</a>
</g>
</g>
<!-- Node7&#45;&gt;Node1 -->
<g id="edge7_Node000001_Node000007" class="edge">
<title>Node7&#45;&gt;Node1</title>
<g id="a_edge7_Node000001_Node000007"><a xlink:title=" ">
<path fill="none" stroke="#9a32cd" stroke-dasharray="5,2" d="M518.59,-113.67C562.92,-123.29 616.79,-136.41 664,-152 681.63,-157.82 700.69,-165.84 716.19,-172.83"/>
<polygon fill="#9a32cd" stroke="#9a32cd" points="519.21,-110.23 508.7,-111.55 517.74,-117.07 519.21,-110.23"/>
</a>
</g>
<text text-anchor="middle" x="600.5" y="-155" font-family="Helvetica,sans-Serif" font-size="10.00" fill="grey"> dc_handler_map_</text>
</g>
<!-- Node8 -->
<g id="Node000008" class="node">
<title>Node8</title>
<g id="a_Node000008"><a xlink:title=" ">
<polygon fill="white" stroke="#666666" points="116,-76 2,-76 2,-46 116,-46 116,-76"/>
<text text-anchor="start" x="10" y="-64" font-family="Helvetica,sans-Serif" font-size="10.00">std::unordered_map</text>
<text text-anchor="middle" x="59" y="-53" font-family="Helvetica,sans-Serif" font-size="10.00">&lt; K, T &gt;</text>
</a>
</g>
</g>
<!-- Node8&#45;&gt;Node7 -->
<g id="edge8_Node000007_Node000008" class="edge">
<title>Node8&#45;&gt;Node7</title>
<g id="a_edge8_Node000007_Node000008"><a xlink:title=" ">
<path fill="none" stroke="orange" stroke-dasharray="5,2" d="M126.38,-67.35C187.94,-73.23 279.69,-82.01 345.43,-88.29"/>
<polygon fill="orange" stroke="orange" points="126.67,-63.86 116.39,-66.39 126.01,-70.83 126.67,-63.86"/>
</a>
</g>
<text text-anchor="start" x="136" y="-110" font-family="Helvetica,sans-Serif" font-size="10.00" fill="grey"> &lt; std::string, std</text>
<text text-anchor="start" x="136" y="-99" font-family="Helvetica,sans-Serif" font-size="10.00" fill="grey">::shared_ptr&lt; mosaic</text>
<text text-anchor="middle" x="226.5" y="-88" font-family="Helvetica,sans-Serif" font-size="10.00" fill="grey">::handlers::IDataChannelHandler &gt; &gt;</text>
</g>
<!-- Node9 -->
<g id="Node000009" class="node">
<title>Node9</title>
<g id="a_Node000009"><a xlink:title=" ">
<polygon fill="white" stroke="#666666" points="508.5,-52 345.5,-52 345.5,0 508.5,0 508.5,-52"/>
<text text-anchor="start" x="353.5" y="-40" font-family="Helvetica,sans-Serif" font-size="10.00">std::unordered_map</text>
<text text-anchor="start" x="353.5" y="-29" font-family="Helvetica,sans-Serif" font-size="10.00">&lt; std::string, std::</text>
<text text-anchor="start" x="353.5" y="-18" font-family="Helvetica,sans-Serif" font-size="10.00">shared_ptr&lt; mosaic::handlers</text>
<text text-anchor="middle" x="427" y="-7" font-family="Helvetica,sans-Serif" font-size="10.00">::IMediaTrackHandler &gt; &gt;</text>
</a>
</g>
</g>
<!-- Node8&#45;&gt;Node9 -->
<g id="edge10_Node000009_Node000008" class="edge">
<title>Node8&#45;&gt;Node9</title>
<g id="a_edge10_Node000009_Node000008"><a xlink:title=" ">
<path fill="none" stroke="orange" stroke-dasharray="5,2" d="M101.55,-42.21C112.53,-38.06 124.53,-34.24 136,-32 205.69,-18.41 286.59,-17.97 345.2,-20.32"/>
<polygon fill="orange" stroke="orange" points="100.21,-38.97 92.19,-45.9 102.78,-45.48 100.21,-38.97"/>
</a>
</g>
<text text-anchor="start" x="139.5" y="-57" font-family="Helvetica,sans-Serif" font-size="10.00" fill="grey"> &lt; std::string, std</text>
<text text-anchor="start" x="139.5" y="-46" font-family="Helvetica,sans-Serif" font-size="10.00" fill="grey">::shared_ptr&lt; mosaic</text>
<text text-anchor="middle" x="226.5" y="-35" font-family="Helvetica,sans-Serif" font-size="10.00" fill="grey">::handlers::IMediaTrackHandler &gt; &gt;</text>
</g>
<!-- Node9&#45;&gt;Node1 -->
<g id="edge9_Node000001_Node000009" class="edge">
<title>Node9&#45;&gt;Node1</title>
<g id="a_edge9_Node000001_Node000009"><a xlink:title=" ">
<path fill="none" stroke="#9a32cd" stroke-dasharray="5,2" d="M518.46,-45.31C564.29,-57.65 619.51,-76.58 664,-104 694.2,-122.61 721.74,-154.13 736.56,-172.81"/>
<polygon fill="#9a32cd" stroke="#9a32cd" points="519.09,-41.85 508.53,-42.7 517.31,-48.62 519.09,-41.85"/>
</a>
</g>
<text text-anchor="middle" x="600.5" y="-107" font-family="Helvetica,sans-Serif" font-size="10.00" fill="grey"> mt_handler_map_</text>
</g>
<!-- Node10&#45;&gt;Node1 -->
<g id="edge11_Node000001_Node000010" class="edge">
<title>Node10&#45;&gt;Node1</title>
<g id="a_edge11_Node000001_Node000010"><a xlink:title=" ">
<path fill="none" stroke="#9a32cd" stroke-dasharray="5,2" d="M529.43,-206.44C579.23,-202.24 637.81,-197.3 681.78,-193.59"/>
<polygon fill="#9a32cd" stroke="#9a32cd" points="528.94,-202.97 519.27,-207.3 529.53,-209.95 528.94,-202.97"/>
</a>
</g>
<text text-anchor="middle" x="600.5" y="-208" font-family="Helvetica,sans-Serif" font-size="10.00" fill="grey"> config_reader_</text>
</g>
</g>
</svg>

<g id="navigator" transform="translate(0 0)" fill="#404254">
  <rect fill="#f2f5e9" fill-opacity="0.5" stroke="#606060" stroke-width=".5" x="0" y="0" width="60" height="60"/>
  <use id="zoomplus" xlink:href="#zoomPlus" x="17" y="9" onmousedown="handleZoom(evt,'in')"/>
  <use id="zoomminus" xlink:href="#zoomMin" x="42" y="9" onmousedown="handleZoom(evt,'out')"/>
  <use id="reset" xlink:href="#resetDef" x="30" y="36" onmousedown="handleReset()"/>
   <use id="arrowup" xlink:href="#arrowUp" x="0" y="0" onmousedown="handlePan(0,-1)"/>
  <use id="arrowright" xlink:href="#arrowRight" x="0" y="0" onmousedown="handlePan(1,0)"/>
  <use id="arrowdown" xlink:href="#arrowDown" x="0" y="0" onmousedown="handlePan(0,1)"/>
  <use id="arrowleft" xlink:href="#arrowLeft" x="0" y="0" onmousedown="handlePan(-1,0)"/>
</g>
<svg viewBox="0 0 15 15" width="100%" height="30px" preserveAspectRatio="xMaxYMin meet">
 <g id="arrow_out" transform="scale(0.3 0.3)">
  <a xlink:href="classmosaic_1_1auto__configurer_1_1AutoConfigurer__coll__graph_org.svg" target="_base">
   <rect id="button" ry="5" rx="5" y="6" x="6" height="38" width="38"
        fill="#f2f5e9" fill-opacity="0.5" stroke="#606060" stroke-width="1.0"/>
   <path id="arrow"
     d="M 11.500037,31.436501 C 11.940474,20.09759 22.043105,11.32322 32.158766,21.979434 L 37.068811,17.246167 C 37.068811,17.246167 37.088388,32 37.088388,32 L 22.160133,31.978069 C 22.160133,31.978069 26.997745,27.140456 26.997745,27.140456 C 18.528582,18.264221 13.291696,25.230495 11.500037,31.436501 z"
     style="fill:#404040;"/>
  </a>
 </g>
</svg>

<style type='text/css'>
<![CDATA[
[data-mouse-over-selected='false'] { opacity: 0.7; }
[data-mouse-over-selected='true']  { opacity: 1.0; }
]]>
</style>
<script type="application/ecmascript"><![CDATA[
document.addEventListener('DOMContentLoaded', (event) => {
  highlightEdges();
  highlightAdjacentNodes();
});
]]></script>
</svg>
