<?xml version="1.0" encoding="UTF-8" standalone="no"?>
<!DOCTYPE svg PUBLIC "-//W3C//DTD SVG 1.1//EN"
 "http://www.w3.org/Graphics/SVG/1.1/DTD/svg11.dtd">
<!-- Generated by graphviz version 2.43.0 (0)
 -->
<!-- Title: mosaic::core::PeerConnectionManager::Impl Pages: 1 -->
<svg width="853pt" height="326pt"
 viewBox="0.00 0.00 853.00 326.00" xmlns="http://www.w3.org/2000/svg" xmlns:xlink="http://www.w3.org/1999/xlink">
<g id="graph0" class="graph" transform="scale(1 1) rotate(0) translate(4 322)">
<title>mosaic::core::PeerConnectionManager::Impl</title>
<!-- Node1 -->
<g id="Node000001" class="node">
<title>Node1</title>
<g id="a_Node000001"><a xlink:title=" ">
<polygon fill="#999999" stroke="#666666" points="845,-174 684,-174 684,-144 845,-144 845,-174"/>
<text text-anchor="start" x="692" y="-162" font-family="Helvetica,sans-Serif" font-size="10.00">mosaic::core::PeerConnection</text>
<text text-anchor="middle" x="764.5" y="-151" font-family="Helvetica,sans-Serif" font-size="10.00">Manager::Impl</text>
</a>
</g>
</g>
<!-- Node2 -->
<g id="Node000002" class="node">
<title>Node2</title>
<g id="a_Node000002"><a xlink:title=" ">
<polygon fill="white" stroke="#666666" points="494,-318 349,-318 349,-288 494,-288 494,-318"/>
<text text-anchor="start" x="357" y="-306" font-family="Helvetica,sans-Serif" font-size="10.00">std::shared_ptr&lt; mosaic</text>
<text text-anchor="middle" x="421.5" y="-295" font-family="Helvetica,sans-Serif" font-size="10.00">::core::MosaicConnector &gt;</text>
</a>
</g>
</g>
<!-- Node2&#45;&gt;Node1 -->
<g id="edge1_Node000001_Node000002" class="edge">
<title>Node2&#45;&gt;Node1</title>
<g id="a_edge1_Node000001_Node000002"><a xlink:title=" ">
<path fill="none" stroke="#9a32cd" stroke-dasharray="5,2" d="M504,-298.24C553.25,-292.61 615.96,-280.4 666,-254 703.42,-234.26 736.18,-195.68 752.5,-174.26"/>
<polygon fill="#9a32cd" stroke="#9a32cd" points="503.59,-294.77 494.02,-299.32 504.34,-301.73 503.59,-294.77"/>
</a>
</g>
<text text-anchor="middle" x="597.5" y="-297" font-family="Helvetica,sans-Serif" font-size="10.00" fill="grey"> client_</text>
</g>
<!-- Node3 -->
<g id="Node000003" class="node">
<title>Node3</title>
<g id="a_Node000003"><a xlink:title=" ">
<polygon fill="white" stroke="#666666" points="118,-216.5 0,-216.5 0,-197.5 118,-197.5 118,-216.5"/>
<text text-anchor="middle" x="59" y="-204.5" font-family="Helvetica,sans-Serif" font-size="10.00">std::shared_ptr&lt; T &gt;</text>
</a>
</g>
</g>
<!-- Node3&#45;&gt;Node2 -->
<g id="edge2_Node000002_Node000003" class="edge">
<title>Node3&#45;&gt;Node2</title>
<g id="a_edge2_Node000002_Node000003"><a xlink:title=" ">
<path fill="none" stroke="orange" stroke-dasharray="5,2" d="M75.14,-224.22C89.29,-239.06 111.8,-259.66 136,-270 204.24,-299.16 289.62,-305.54 348.95,-305.78"/>
<polygon fill="orange" stroke="orange" points="77.54,-221.66 68.19,-216.68 72.39,-226.4 77.54,-221.66"/>
</a>
</g>
<text text-anchor="middle" x="225" y="-307" font-family="Helvetica,sans-Serif" font-size="10.00" fill="grey"> &lt; mosaic::core::MosaicConnector &gt;</text>
</g>
<!-- Node4 -->
<g id="Node000004" class="node">
<title>Node4</title>
<g id="a_Node000004"><a xlink:title=" ">
<polygon fill="white" stroke="#666666" points="511,-270 332,-270 332,-240 511,-240 511,-270"/>
<text text-anchor="start" x="340" y="-258" font-family="Helvetica,sans-Serif" font-size="10.00">std::shared_ptr&lt; mosaic</text>
<text text-anchor="middle" x="421.5" y="-247" font-family="Helvetica,sans-Serif" font-size="10.00">::core::ConnectorStateManager &gt;</text>
</a>
</g>
</g>
<!-- Node3&#45;&gt;Node4 -->
<g id="edge4_Node000004_Node000003" class="edge">
<title>Node3&#45;&gt;Node4</title>
<g id="a_edge4_Node000004_Node000003"><a xlink:title=" ">
<path fill="none" stroke="orange" stroke-dasharray="5,2" d="M115.37,-218.46C122.3,-219.74 129.3,-220.95 136,-222 201.34,-232.22 275.58,-240.73 331.83,-246.54"/>
<polygon fill="orange" stroke="orange" points="115.78,-214.98 105.31,-216.55 114.48,-221.85 115.78,-214.98"/>
</a>
</g>
<text text-anchor="start" x="158.5" y="-258" font-family="Helvetica,sans-Serif" font-size="10.00" fill="grey"> &lt; mosaic::core::Connector</text>
<text text-anchor="middle" x="225" y="-247" font-family="Helvetica,sans-Serif" font-size="10.00" fill="grey">StateManager &gt;</text>
</g>
<!-- Node5 -->
<g id="Node000005" class="node">
<title>Node5</title>
<g id="a_Node000005"><a xlink:title=" ">
<polygon fill="white" stroke="#666666" points="496,-222 347,-222 347,-192 496,-192 496,-222"/>
<text text-anchor="start" x="355" y="-210" font-family="Helvetica,sans-Serif" font-size="10.00">std::shared_ptr&lt; ISignaling</text>
<text text-anchor="middle" x="421.5" y="-199" font-family="Helvetica,sans-Serif" font-size="10.00">Client &gt;</text>
</a>
</g>
</g>
<!-- Node3&#45;&gt;Node5 -->
<g id="edge6_Node000005_Node000003" class="edge">
<title>Node3&#45;&gt;Node5</title>
<g id="a_edge6_Node000005_Node000003"><a xlink:title=" ">
<path fill="none" stroke="orange" stroke-dasharray="5,2" d="M128.47,-207C190.93,-207 282.98,-207 346.98,-207"/>
<polygon fill="orange" stroke="orange" points="128.32,-203.5 118.32,-207 128.32,-210.5 128.32,-203.5"/>
</a>
</g>
<text text-anchor="middle" x="225" y="-210" font-family="Helvetica,sans-Serif" font-size="10.00" fill="grey"> &lt; ISignalingClient &gt;</text>
</g>
<!-- Node6 -->
<g id="Node000006" class="node">
<title>Node6</title>
<g id="a_Node000006"><a xlink:title=" ">
<polygon fill="white" stroke="#666666" points="489.5,-174 353.5,-174 353.5,-144 489.5,-144 489.5,-174"/>
<text text-anchor="start" x="361.5" y="-162" font-family="Helvetica,sans-Serif" font-size="10.00">std::shared_ptr&lt; mosaic</text>
<text text-anchor="middle" x="421.5" y="-151" font-family="Helvetica,sans-Serif" font-size="10.00">::core::WebRtcConfig &gt;</text>
</a>
</g>
</g>
<!-- Node3&#45;&gt;Node6 -->
<g id="edge8_Node000006_Node000003" class="edge">
<title>Node3&#45;&gt;Node6</title>
<g id="a_edge8_Node000006_Node000003"><a xlink:title=" ">
<path fill="none" stroke="orange" stroke-dasharray="5,2" d="M115.37,-195.54C122.3,-194.26 129.3,-193.05 136,-192 210.06,-180.42 295.55,-171.03 353.33,-165.27"/>
<polygon fill="orange" stroke="orange" points="114.48,-192.15 105.31,-197.45 115.78,-199.02 114.48,-192.15"/>
</a>
</g>
<text text-anchor="middle" x="225" y="-195" font-family="Helvetica,sans-Serif" font-size="10.00" fill="grey"> &lt; mosaic::core::WebRtcConfig &gt;</text>
</g>
<!-- Node7 -->
<g id="Node000007" class="node">
<title>Node7</title>
<g id="a_Node000007"><a xlink:title=" ">
<polygon fill="white" stroke="#666666" points="499,-126 344,-126 344,-96 499,-96 499,-126"/>
<text text-anchor="start" x="352" y="-114" font-family="Helvetica,sans-Serif" font-size="10.00">std::shared_ptr&lt; webrtc</text>
<text text-anchor="middle" x="421.5" y="-103" font-family="Helvetica,sans-Serif" font-size="10.00">::PeerConnectionObserver &gt;</text>
</a>
</g>
</g>
<!-- Node3&#45;&gt;Node7 -->
<g id="edge10_Node000007_Node000003" class="edge">
<title>Node3&#45;&gt;Node7</title>
<g id="a_edge10_Node000007_Node000003"><a xlink:title=" ">
<path fill="none" stroke="orange" stroke-dasharray="5,2" d="M75.08,-189.48C89.18,-174.4 111.66,-153.46 136,-143 202.21,-114.54 284.69,-108.05 343.77,-107.78"/>
<polygon fill="orange" stroke="orange" points="72.25,-187.39 68.15,-197.16 77.45,-192.08 72.25,-187.39"/>
</a>
</g>
<text text-anchor="start" x="160" y="-157" font-family="Helvetica,sans-Serif" font-size="10.00" fill="grey"> &lt; webrtc::PeerConnection</text>
<text text-anchor="middle" x="225" y="-146" font-family="Helvetica,sans-Serif" font-size="10.00" fill="grey">Observer &gt;</text>
</g>
<!-- Node4&#45;&gt;Node1 -->
<g id="edge3_Node000001_Node000004" class="edge">
<title>Node4&#45;&gt;Node1</title>
<g id="a_edge3_Node000001_Node000004"><a xlink:title=" ">
<path fill="none" stroke="#9a32cd" stroke-dasharray="5,2" d="M521.05,-241.62C565.98,-234 619.42,-222.75 666,-207 691.2,-198.48 718.22,-184.78 737.41,-174.2"/>
<polygon fill="#9a32cd" stroke="#9a32cd" points="520.3,-238.2 511.01,-243.29 521.45,-245.11 520.3,-238.2"/>
</a>
</g>
<text text-anchor="middle" x="597.5" y="-242" font-family="Helvetica,sans-Serif" font-size="10.00" fill="grey"> state_manager_</text>
</g>
<!-- Node5&#45;&gt;Node1 -->
<g id="edge5_Node000001_Node000005" class="edge">
<title>Node5&#45;&gt;Node1</title>
<g id="a_edge5_Node000001_Node000005"><a xlink:title=" ">
<path fill="none" stroke="#9a32cd" stroke-dasharray="5,2" d="M506.2,-196.03C553.2,-189.78 612.9,-181.68 666,-174 671.85,-173.15 677.89,-172.26 683.97,-171.36"/>
<polygon fill="#9a32cd" stroke="#9a32cd" points="505.52,-192.59 496.07,-197.38 506.45,-199.53 505.52,-192.59"/>
</a>
</g>
<text text-anchor="middle" x="597.5" y="-195" font-family="Helvetica,sans-Serif" font-size="10.00" fill="grey"> signaling_client_</text>
</g>
<!-- Node6&#45;&gt;Node1 -->
<g id="edge7_Node000001_Node000006" class="edge">
<title>Node6&#45;&gt;Node1</title>
<g id="a_edge7_Node000001_Node000006"><a xlink:title=" ">
<path fill="none" stroke="#9a32cd" stroke-dasharray="5,2" d="M499.91,-159C554.91,-159 628.54,-159 684,-159"/>
<polygon fill="#9a32cd" stroke="#9a32cd" points="499.87,-155.5 489.87,-159 499.87,-162.5 499.87,-155.5"/>
</a>
</g>
<text text-anchor="middle" x="597.5" y="-162" font-family="Helvetica,sans-Serif" font-size="10.00" fill="grey"> web_rtc_config_</text>
</g>
<!-- Node7&#45;&gt;Node1 -->
<g id="edge9_Node000001_Node000007" class="edge">
<title>Node7&#45;&gt;Node1</title>
<g id="a_edge9_Node000001_Node000007"><a xlink:title=" ">
<path fill="none" stroke="#9a32cd" stroke-dasharray="5,2" d="M509.09,-122.35C555.63,-128.55 613.98,-136.47 666,-144 671.85,-144.85 677.89,-145.74 683.97,-146.64"/>
<polygon fill="#9a32cd" stroke="#9a32cd" points="509.42,-118.86 499.05,-121.02 508.5,-125.8 509.42,-118.86"/>
</a>
</g>
<text text-anchor="middle" x="597.5" y="-147" font-family="Helvetica,sans-Serif" font-size="10.00" fill="grey"> peer_connection_observer_</text>
</g>
<!-- Node8 -->
<g id="Node000008" class="node">
<title>Node8</title>
<g id="a_Node000008"><a xlink:title=" ">
<polygon fill="white" stroke="#666666" points="488.5,-78 354.5,-78 354.5,-48 488.5,-48 488.5,-78"/>
<text text-anchor="start" x="362.5" y="-66" font-family="Helvetica,sans-Serif" font-size="10.00">std::unique_ptr&lt; webrtc</text>
<text text-anchor="middle" x="421.5" y="-55" font-family="Helvetica,sans-Serif" font-size="10.00">::TaskQueueFactory &gt;</text>
</a>
</g>
</g>
<!-- Node8&#45;&gt;Node1 -->
<g id="edge11_Node000001_Node000008" class="edge">
<title>Node8&#45;&gt;Node1</title>
<g id="a_edge11_Node000001_Node000008"><a xlink:title=" ">
<path fill="none" stroke="#9a32cd" stroke-dasharray="5,2" d="M498.77,-72.22C547.48,-79.45 611.49,-91.44 666,-110 691.64,-118.73 719.06,-133 738.27,-143.89"/>
<polygon fill="#9a32cd" stroke="#9a32cd" points="499.02,-68.72 488.62,-70.75 498.01,-75.65 499.02,-68.72"/>
</a>
</g>
<text text-anchor="middle" x="597.5" y="-113" font-family="Helvetica,sans-Serif" font-size="10.00" fill="grey"> task_queue_factory_</text>
</g>
<!-- Node9 -->
<g id="Node000009" class="node">
<title>Node9</title>
<g id="a_Node000009"><a xlink:title=" ">
<polygon fill="white" stroke="#666666" points="118,-47.5 0,-47.5 0,-28.5 118,-28.5 118,-47.5"/>
<text text-anchor="middle" x="59" y="-35.5" font-family="Helvetica,sans-Serif" font-size="10.00">std::unique_ptr&lt; T &gt;</text>
</a>
</g>
</g>
<!-- Node9&#45;&gt;Node8 -->
<g id="edge12_Node000008_Node000009" class="edge">
<title>Node9&#45;&gt;Node8</title>
<g id="a_edge12_Node000008_Node000009"><a xlink:title=" ">
<path fill="none" stroke="orange" stroke-dasharray="5,2" d="M128.45,-42.75C193.34,-47.25 290.18,-53.96 354.31,-58.41"/>
<polygon fill="orange" stroke="orange" points="128.54,-39.24 118.32,-42.04 128.06,-46.23 128.54,-39.24"/>
</a>
</g>
<text text-anchor="middle" x="225" y="-58" font-family="Helvetica,sans-Serif" font-size="10.00" fill="grey"> &lt; webrtc::TaskQueueFactory &gt;</text>
</g>
<!-- Node10 -->
<g id="Node000010" class="node">
<title>Node10</title>
<g id="a_Node000010"><a xlink:title=" ">
<polygon fill="white" stroke="#666666" points="478,-30 365,-30 365,0 478,0 478,-30"/>
<text text-anchor="start" x="373" y="-18" font-family="Helvetica,sans-Serif" font-size="10.00">std::unique_ptr&lt; rtc</text>
<text text-anchor="middle" x="421.5" y="-7" font-family="Helvetica,sans-Serif" font-size="10.00">::Thread &gt;</text>
</a>
</g>
</g>
<!-- Node9&#45;&gt;Node10 -->
<g id="edge14_Node000010_Node000009" class="edge">
<title>Node9&#45;&gt;Node10</title>
<g id="a_edge14_Node000010_Node000009"><a xlink:title=" ">
<path fill="none" stroke="orange" stroke-dasharray="5,2" d="M111.72,-26.6C119.81,-25.16 128.11,-23.88 136,-23 215.18,-14.14 307.49,-13.26 364.97,-13.83"/>
<polygon fill="orange" stroke="orange" points="110.8,-23.21 101.62,-28.49 112.09,-30.09 110.8,-23.21"/>
</a>
</g>
<text text-anchor="middle" x="225" y="-26" font-family="Helvetica,sans-Serif" font-size="10.00" fill="grey"> &lt; rtc::Thread &gt;</text>
</g>
<!-- Node10&#45;&gt;Node1 -->
<g id="edge13_Node000001_Node000010" class="edge">
<title>Node10&#45;&gt;Node1</title>
<g id="a_edge13_Node000001_Node000010"><a xlink:title=" ">
<path fill="none" stroke="#9a32cd" stroke-dasharray="5,2" d="M488.19,-9C539.57,-7.27 611.24,-11.56 666,-41 710.24,-64.78 742.3,-117.77 756.05,-143.87"/>
<polygon fill="#9a32cd" stroke="#9a32cd" points="488.04,-5.51 478.2,-9.43 488.34,-12.5 488.04,-5.51"/>
</a>
</g>
<text text-anchor="middle" x="597.5" y="-66" font-family="Helvetica,sans-Serif" font-size="10.00" fill="grey"> network_thread_</text>
<text text-anchor="middle" x="597.5" y="-55" font-family="Helvetica,sans-Serif" font-size="10.00" fill="grey">signaling_thread_</text>
<text text-anchor="middle" x="597.5" y="-44" font-family="Helvetica,sans-Serif" font-size="10.00" fill="grey">worker_thread_</text>
</g>
</g>
</svg>
