<?xml version="1.0" encoding="UTF-8" standalone="no"?>
<!DOCTYPE svg PUBLIC "-//W3C//DTD SVG 1.1//EN"
 "http://www.w3.org/Graphics/SVG/1.1/DTD/svg11.dtd">
<!-- Generated by graphviz version 2.43.0 (0)
 -->
<!-- Title: mosaic::core::CreateSdpAnswerObserver Pages: 1 -->
<svg width="779pt" height="86pt"
 viewBox="0.00 0.00 779.00 86.00" xmlns="http://www.w3.org/2000/svg" xmlns:xlink="http://www.w3.org/1999/xlink">
<g id="graph0" class="graph" transform="scale(1 1) rotate(0) translate(4 82)">
<title>mosaic::core::CreateSdpAnswerObserver</title>
<!-- Node1 -->
<g id="Node000001" class="node">
<title>Node1</title>
<g id="a_Node000001"><a xlink:title=" ">
<polygon fill="#999999" stroke="#666666" points="771,-54 600,-54 600,-24 771,-24 771,-54"/>
<text text-anchor="start" x="608" y="-42" font-family="Helvetica,sans-Serif" font-size="10.00">mosaic::core::CreateSdpAnswer</text>
<text text-anchor="middle" x="685.5" y="-31" font-family="Helvetica,sans-Serif" font-size="10.00">Observer</text>
</a>
</g>
</g>
<!-- Node2 -->
<g id="Node000002" class="node">
<title>Node2</title>
<g id="a_Node000002"><a xlink:title=" ">
<polygon fill="white" stroke="#666666" points="495,-78 314,-78 314,-48 495,-48 495,-78"/>
<text text-anchor="start" x="322" y="-66" font-family="Helvetica,sans-Serif" font-size="10.00">webrtc::CreateSessionDescription</text>
<text text-anchor="middle" x="404.5" y="-55" font-family="Helvetica,sans-Serif" font-size="10.00">Observer</text>
</a>
</g>
</g>
<!-- Node2&#45;&gt;Node1 -->
<g id="edge1_Node000001_Node000002" class="edge">
<title>Node2&#45;&gt;Node1</title>
<g id="a_edge1_Node000001_Node000002"><a xlink:title=" ">
<path fill="none" stroke="#63b8ff" d="M505.63,-54.39C536.4,-51.74 569.95,-48.85 599.6,-46.3"/>
<polygon fill="#63b8ff" stroke="#63b8ff" points="504.98,-50.93 495.31,-55.27 505.58,-57.9 504.98,-50.93"/>
</a>
</g>
</g>
<!-- Node3 -->
<g id="Node000003" class="node">
<title>Node3</title>
<g id="a_Node000003"><a xlink:title=" ">
<polygon fill="white" stroke="#666666" points="494.5,-30 314.5,-30 314.5,0 494.5,0 494.5,-30"/>
<text text-anchor="start" x="322.5" y="-18" font-family="Helvetica,sans-Serif" font-size="10.00">std::shared_ptr&lt; mosaic</text>
<text text-anchor="middle" x="404.5" y="-7" font-family="Helvetica,sans-Serif" font-size="10.00">::core::PeerConnectionManager &gt;</text>
</a>
</g>
</g>
<!-- Node3&#45;&gt;Node1 -->
<g id="edge2_Node000001_Node000003" class="edge">
<title>Node3&#45;&gt;Node1</title>
<g id="a_edge2_Node000001_Node000003"><a xlink:title=" ">
<path fill="none" stroke="#9a32cd" stroke-dasharray="5,2" d="M504.52,-23.52C535.6,-26.19 569.62,-29.12 599.63,-31.7"/>
<polygon fill="#9a32cd" stroke="#9a32cd" points="504.81,-20.03 494.54,-22.66 504.21,-27 504.81,-20.03"/>
</a>
</g>
<text text-anchor="middle" x="547.5" y="-32" font-family="Helvetica,sans-Serif" font-size="10.00" fill="grey"> pc_manager_</text>
</g>
<!-- Node4 -->
<g id="Node000004" class="node">
<title>Node4</title>
<g id="a_Node000004"><a xlink:title=" ">
<polygon fill="white" stroke="#666666" points="118,-24.5 0,-24.5 0,-5.5 118,-5.5 118,-24.5"/>
<text text-anchor="middle" x="59" y="-12.5" font-family="Helvetica,sans-Serif" font-size="10.00">std::shared_ptr&lt; T &gt;</text>
</a>
</g>
</g>
<!-- Node4&#45;&gt;Node3 -->
<g id="edge3_Node000003_Node000004" class="edge">
<title>Node4&#45;&gt;Node3</title>
<g id="a_edge3_Node000003_Node000004"><a xlink:title=" ">
<path fill="none" stroke="orange" stroke-dasharray="5,2" d="M128.31,-15C181.64,-15 256.17,-15 314.22,-15"/>
<polygon fill="orange" stroke="orange" points="128.27,-11.5 118.27,-15 128.27,-18.5 128.27,-11.5"/>
</a>
</g>
<text text-anchor="start" x="136" y="-29" font-family="Helvetica,sans-Serif" font-size="10.00" fill="grey"> &lt; mosaic::core::PeerConnection</text>
<text text-anchor="middle" x="216" y="-18" font-family="Helvetica,sans-Serif" font-size="10.00" fill="grey">Manager &gt;</text>
</g>
</g>
</svg>
