<?xml version="1.0" encoding="UTF-8" standalone="no"?>
<!DOCTYPE svg PUBLIC "-//W3C//DTD SVG 1.1//EN"
 "http://www.w3.org/Graphics/SVG/1.1/DTD/svg11.dtd">
<!-- Generated by graphviz version 2.43.0 (0)
 -->
<!-- Title: mosaic::handlers::AMediaTrackHandler Pages: 1 -->
<svg width="972pt" height="123pt"
 viewBox="0.00 0.00 972.00 123.00" xmlns="http://www.w3.org/2000/svg" xmlns:xlink="http://www.w3.org/1999/xlink">
<g id="graph0" class="graph" transform="scale(1 1) rotate(0) translate(4 119)">
<title>mosaic::handlers::AMediaTrackHandler</title>
<!-- Node1 -->
<g id="Node000001" class="node">
<title>Node1</title>
<g id="a_Node000001"><a xlink:title=" ">
<polygon fill="#999999" stroke="#666666" points="964,-72 821,-72 821,-42 964,-42 964,-72"/>
<text text-anchor="start" x="829" y="-60" font-family="Helvetica,sans-Serif" font-size="10.00">mosaic::handlers::AMedia</text>
<text text-anchor="middle" x="892.5" y="-49" font-family="Helvetica,sans-Serif" font-size="10.00">TrackHandler</text>
</a>
</g>
</g>
<!-- Node2 -->
<g id="Node000002" class="node">
<title>Node2</title>
<g id="a_Node000002"><a xlink:href="classmosaic_1_1handlers_1_1IMediaTrackHandler.html" target="_top" xlink:title=" ">
<polygon fill="white" stroke="#666666" points="773,-115 634,-115 634,-85 773,-85 773,-115"/>
<text text-anchor="start" x="642" y="-103" font-family="Helvetica,sans-Serif" font-size="10.00">mosaic::handlers::IMedia</text>
<text text-anchor="middle" x="703.5" y="-92" font-family="Helvetica,sans-Serif" font-size="10.00">TrackHandler</text>
</a>
</g>
</g>
<!-- Node2&#45;&gt;Node1 -->
<g id="edge1_Node000001_Node000002" class="edge">
<title>Node2&#45;&gt;Node1</title>
<g id="a_edge1_Node000001_Node000002"><a xlink:title=" ">
<path fill="none" stroke="#63b8ff" d="M779.86,-82.67C795.19,-79.15 811.19,-75.47 826.13,-72.03"/>
<polygon fill="#63b8ff" stroke="#63b8ff" points="778.86,-79.31 769.9,-84.96 780.43,-86.13 778.86,-79.31"/>
</a>
</g>
</g>
<!-- Node3 -->
<g id="Node000003" class="node">
<title>Node3</title>
<g id="a_Node000003"><a xlink:title=" ">
<polygon fill="white" stroke="#666666" points="379,-109.5 314,-109.5 314,-90.5 379,-90.5 379,-109.5"/>
<text text-anchor="middle" x="346.5" y="-97.5" font-family="Helvetica,sans-Serif" font-size="10.00">std::string</text>
</a>
</g>
</g>
<!-- Node3&#45;&gt;Node2 -->
<g id="edge2_Node000002_Node000003" class="edge">
<title>Node3&#45;&gt;Node2</title>
<g id="a_edge2_Node000002_Node000003"><a xlink:title=" ">
<path fill="none" stroke="#9a32cd" stroke-dasharray="5,2" d="M389.28,-100C449.53,-100 561.51,-100 633.97,-100"/>
<polygon fill="#9a32cd" stroke="#9a32cd" points="389,-96.5 379,-100 389,-103.5 389,-96.5"/>
</a>
</g>
<text text-anchor="middle" x="523.5" y="-103" font-family="Helvetica,sans-Serif" font-size="10.00" fill="grey"> track_name_</text>
</g>
<!-- Node4 -->
<g id="Node000004" class="node">
<title>Node4</title>
<g id="a_Node000004"><a xlink:title=" ">
<polygon fill="white" stroke="#666666" points="111,-115 7,-115 7,-85 111,-85 111,-115"/>
<text text-anchor="start" x="15" y="-103" font-family="Helvetica,sans-Serif" font-size="10.00">std::basic_string&lt;</text>
<text text-anchor="middle" x="59" y="-92" font-family="Helvetica,sans-Serif" font-size="10.00"> Char &gt;</text>
</a>
</g>
</g>
<!-- Node4&#45;&gt;Node3 -->
<g id="edge3_Node000003_Node000004" class="edge">
<title>Node4&#45;&gt;Node3</title>
<g id="a_edge3_Node000003_Node000004"><a xlink:title=" ">
<path fill="none" stroke="#63b8ff" d="M121.38,-100C180.51,-100 267.62,-100 313.9,-100"/>
<polygon fill="#63b8ff" stroke="#63b8ff" points="121.04,-96.5 111.04,-100 121.04,-103.5 121.04,-96.5"/>
</a>
</g>
</g>
<!-- Node5 -->
<g id="Node000005" class="node">
<title>Node5</title>
<g id="a_Node000005"><a xlink:href="classmosaic_1_1handlers_1_1Recordable.html" target="_top" xlink:title=" ">
<polygon fill="white" stroke="#666666" points="784,-66.5 623,-66.5 623,-47.5 784,-47.5 784,-66.5"/>
<text text-anchor="middle" x="703.5" y="-54.5" font-family="Helvetica,sans-Serif" font-size="10.00">mosaic::handlers::Recordable</text>
</a>
</g>
</g>
<!-- Node5&#45;&gt;Node1 -->
<g id="edge4_Node000001_Node000005" class="edge">
<title>Node5&#45;&gt;Node1</title>
<g id="a_edge4_Node000001_Node000005"><a xlink:title=" ">
<path fill="none" stroke="#63b8ff" d="M794.16,-57C803.13,-57 812.14,-57 820.87,-57"/>
<polygon fill="#63b8ff" stroke="#63b8ff" points="794.08,-53.5 784.08,-57 794.08,-60.5 794.08,-53.5"/>
</a>
</g>
</g>
<!-- Node6 -->
<g id="Node000006" class="node">
<title>Node6</title>
<g id="a_Node000006"><a xlink:title=" ">
<polygon fill="white" stroke="#666666" points="424,-72 269,-72 269,-42 424,-42 424,-72"/>
<text text-anchor="start" x="277" y="-60" font-family="Helvetica,sans-Serif" font-size="10.00">std::unique_ptr&lt; Recordable</text>
<text text-anchor="middle" x="346.5" y="-49" font-family="Helvetica,sans-Serif" font-size="10.00">::Impl &gt;</text>
</a>
</g>
</g>
<!-- Node6&#45;&gt;Node5 -->
<g id="edge5_Node000005_Node000006" class="edge">
<title>Node6&#45;&gt;Node5</title>
<g id="a_edge5_Node000005_Node000006"><a xlink:title=" ">
<path fill="none" stroke="#9a32cd" stroke-dasharray="5,2" d="M434.27,-57C491.87,-57 566.91,-57 622.97,-57"/>
<polygon fill="#9a32cd" stroke="#9a32cd" points="434.09,-53.5 424.09,-57 434.09,-60.5 434.09,-53.5"/>
</a>
</g>
<text text-anchor="middle" x="523.5" y="-60" font-family="Helvetica,sans-Serif" font-size="10.00" fill="grey"> pImpl</text>
</g>
<!-- Node7 -->
<g id="Node000007" class="node">
<title>Node7</title>
<g id="a_Node000007"><a xlink:title=" ">
<polygon fill="white" stroke="#666666" points="118,-45.5 0,-45.5 0,-26.5 118,-26.5 118,-45.5"/>
<text text-anchor="middle" x="59" y="-33.5" font-family="Helvetica,sans-Serif" font-size="10.00">std::unique_ptr&lt; T &gt;</text>
</a>
</g>
</g>
<!-- Node7&#45;&gt;Node6 -->
<g id="edge6_Node000006_Node000007" class="edge">
<title>Node7&#45;&gt;Node6</title>
<g id="a_edge6_Node000006_Node000007"><a xlink:title=" ">
<path fill="none" stroke="orange" stroke-dasharray="5,2" d="M128.32,-41.03C170.61,-44.14 225,-48.14 268.77,-51.36"/>
<polygon fill="orange" stroke="orange" points="128.35,-37.52 118.12,-40.27 127.84,-44.5 128.35,-37.52"/>
</a>
</g>
<text text-anchor="middle" x="193.5" y="-53" font-family="Helvetica,sans-Serif" font-size="10.00" fill="grey"> &lt; Recordable::Impl &gt;</text>
</g>
<!-- Node8 -->
<g id="Node000008" class="node">
<title>Node8</title>
<g id="a_Node000008"><a xlink:title=" ">
<polygon fill="white" stroke="#666666" points="605,-30 442,-30 442,0 605,0 605,-30"/>
<text text-anchor="start" x="450" y="-18" font-family="Helvetica,sans-Serif" font-size="10.00">std::unique_ptr&lt; AMediaTrack</text>
<text text-anchor="middle" x="523.5" y="-7" font-family="Helvetica,sans-Serif" font-size="10.00">Handler::Impl &gt;</text>
</a>
</g>
</g>
<!-- Node7&#45;&gt;Node8 -->
<g id="edge8_Node000008_Node000007" class="edge">
<title>Node7&#45;&gt;Node8</title>
<g id="a_edge8_Node000008_Node000007"><a xlink:title=" ">
<path fill="none" stroke="orange" stroke-dasharray="5,2" d="M99.18,-23.66C110.9,-20.52 123.86,-17.59 136,-16 240.96,-2.28 363.32,-5.09 441.79,-9.27"/>
<polygon fill="orange" stroke="orange" points="97.93,-20.37 89.25,-26.44 99.82,-27.11 97.93,-20.37"/>
</a>
</g>
<text text-anchor="start" x="136" y="-30" font-family="Helvetica,sans-Serif" font-size="10.00" fill="grey"> &lt; AMediaTrackHandler</text>
<text text-anchor="middle" x="193.5" y="-19" font-family="Helvetica,sans-Serif" font-size="10.00" fill="grey">::Impl &gt;</text>
</g>
<!-- Node8&#45;&gt;Node1 -->
<g id="edge7_Node000001_Node000008" class="edge">
<title>Node8&#45;&gt;Node1</title>
<g id="a_edge7_Node000001_Node000008"><a xlink:title=" ">
<path fill="none" stroke="#9a32cd" stroke-dasharray="5,2" d="M615.21,-14.19C665.27,-15 728.38,-18.07 784,-27 804.85,-30.35 827.44,-36.28 846.5,-42"/>
<polygon fill="#9a32cd" stroke="#9a32cd" points="615.1,-10.69 605.06,-14.06 615.01,-17.69 615.1,-10.69"/>
</a>
</g>
<text text-anchor="middle" x="703.5" y="-30" font-family="Helvetica,sans-Serif" font-size="10.00" fill="grey"> pImpl</text>
</g>
</g>
</svg>
