<?xml version="1.0" encoding="UTF-8" standalone="no"?>
<!DOCTYPE svg PUBLIC "-//W3C//DTD SVG 1.1//EN"
 "http://www.w3.org/Graphics/SVG/1.1/DTD/svg11.dtd">
<!-- Generated by graphviz version 2.43.0 (0)
 -->
<!-- Title: mosaic::auto_configurer::impl::ConnectionCheckDataChannel Pages: 1 -->
<svg width="1697pt" height="121pt"
 viewBox="0.00 0.00 1697.00 121.00" xmlns="http://www.w3.org/2000/svg" xmlns:xlink="http://www.w3.org/1999/xlink">
<g id="graph0" class="graph" transform="scale(1 1) rotate(0) translate(4 117)">
<title>mosaic::auto_configurer::impl::ConnectionCheckDataChannel</title>
<!-- Node1 -->
<g id="Node000001" class="node">
<title>Node1</title>
<g id="a_Node000001"><a xlink:title=" ">
<polygon fill="#999999" stroke="#666666" points="1689,-91 1491,-91 1491,-61 1689,-61 1689,-91"/>
<text text-anchor="start" x="1499" y="-79" font-family="Helvetica,sans-Serif" font-size="10.00">mosaic::auto_configurer</text>
<text text-anchor="middle" x="1590" y="-68" font-family="Helvetica,sans-Serif" font-size="10.00">::impl::ConnectionCheckDataChannel</text>
</a>
</g>
</g>
<!-- Node2 -->
<g id="Node000002" class="node">
<title>Node2</title>
<g id="a_Node000002"><a xlink:href="classmosaic_1_1handlers_1_1DataChannelSendable.html" target="_top" xlink:title=" ">
<polygon fill="white" stroke="#666666" points="781,-113 612,-113 612,-83 781,-83 781,-113"/>
<text text-anchor="start" x="620" y="-101" font-family="Helvetica,sans-Serif" font-size="10.00">mosaic::handlers::DataChannel</text>
<text text-anchor="middle" x="696.5" y="-90" font-family="Helvetica,sans-Serif" font-size="10.00">Sendable</text>
</a>
</g>
</g>
<!-- Node2&#45;&gt;Node1 -->
<g id="edge1_Node000001_Node000002" class="edge">
<title>Node2&#45;&gt;Node1</title>
<g id="a_edge1_Node000001_Node000002"><a xlink:title=" ">
<path fill="none" stroke="#63b8ff" d="M791.54,-98C856.44,-98 944.71,-98 1022.5,-98 1022.5,-98 1022.5,-98 1370.5,-98 1409.96,-98 1453.23,-94.4 1490.78,-90.12"/>
<polygon fill="#63b8ff" stroke="#63b8ff" points="791.33,-94.5 781.33,-98 791.33,-101.5 791.33,-94.5"/>
</a>
</g>
</g>
<!-- Node3 -->
<g id="Node000003" class="node">
<title>Node3</title>
<g id="a_Node000003"><a xlink:href="classmosaic_1_1handlers_1_1ADataChannelHandler.html" target="_top" xlink:title=" ">
<polygon fill="white" stroke="#666666" points="385,-91 209,-91 209,-61 385,-61 385,-91"/>
<text text-anchor="start" x="217" y="-79" font-family="Helvetica,sans-Serif" font-size="10.00">mosaic::handlers::ADataChannel</text>
<text text-anchor="middle" x="297" y="-68" font-family="Helvetica,sans-Serif" font-size="10.00">Handler</text>
</a>
</g>
</g>
<!-- Node3&#45;&gt;Node2 -->
<g id="edge2_Node000002_Node000003" class="edge">
<title>Node3&#45;&gt;Node2</title>
<g id="a_edge2_Node000002_Node000003"><a xlink:title=" ">
<path fill="none" stroke="#63b8ff" d="M395.28,-81.38C461.64,-85.06 548.63,-89.87 611.87,-93.37"/>
<polygon fill="#63b8ff" stroke="#63b8ff" points="395.41,-77.89 385.23,-80.83 395.02,-84.88 395.41,-77.89"/>
</a>
</g>
</g>
<!-- Node7 -->
<g id="Node000007" class="node">
<title>Node7</title>
<g id="a_Node000007"><a xlink:href="classmosaic_1_1handlers_1_1IDataChannelReceivable.html" target="_top" xlink:title=" ">
<polygon fill="white" stroke="#666666" points="594,-70 422,-70 422,-40 594,-40 594,-70"/>
<text text-anchor="start" x="430" y="-58" font-family="Helvetica,sans-Serif" font-size="10.00">mosaic::handlers::IDataChannel</text>
<text text-anchor="middle" x="508" y="-47" font-family="Helvetica,sans-Serif" font-size="10.00">Receivable</text>
</a>
</g>
</g>
<!-- Node3&#45;&gt;Node7 -->
<g id="edge7_Node000007_Node000003" class="edge">
<title>Node3&#45;&gt;Node7</title>
<g id="a_edge7_Node000007_Node000003"><a xlink:title=" ">
<path fill="none" stroke="#63b8ff" d="M395.1,-66.24C403.98,-65.35 412.93,-64.45 421.7,-63.57"/>
<polygon fill="#63b8ff" stroke="#63b8ff" points="394.72,-62.76 385.12,-67.25 395.42,-69.73 394.72,-62.76"/>
</a>
</g>
</g>
<!-- Node4 -->
<g id="Node000004" class="node">
<title>Node4</title>
<g id="a_Node000004"><a xlink:href="classmosaic_1_1handlers_1_1IDataChannelHandler.html" target="_top" xlink:title=" ">
<polygon fill="white" stroke="#666666" points="172,-91 0,-91 0,-61 172,-61 172,-91"/>
<text text-anchor="start" x="8" y="-79" font-family="Helvetica,sans-Serif" font-size="10.00">mosaic::handlers::IDataChannel</text>
<text text-anchor="middle" x="86" y="-68" font-family="Helvetica,sans-Serif" font-size="10.00">Handler</text>
</a>
</g>
</g>
<!-- Node4&#45;&gt;Node3 -->
<g id="edge3_Node000003_Node000004" class="edge">
<title>Node4&#45;&gt;Node3</title>
<g id="a_edge3_Node000003_Node000004"><a xlink:title=" ">
<path fill="none" stroke="#63b8ff" d="M182.28,-76C191.08,-76 199.97,-76 208.69,-76"/>
<polygon fill="#63b8ff" stroke="#63b8ff" points="182.01,-72.5 172.01,-76 182.01,-79.5 182.01,-72.5"/>
</a>
</g>
</g>
<!-- Node5 -->
<g id="Node000005" class="node">
<title>Node5</title>
<g id="a_Node000005"><a xlink:href="classmosaic_1_1handlers_1_1DataChannelStringReceivable.html" target="_top" xlink:title=" ">
<polygon fill="white" stroke="#666666" points="1454,-70 1285,-70 1285,-40 1454,-40 1454,-70"/>
<text text-anchor="start" x="1293" y="-58" font-family="Helvetica,sans-Serif" font-size="10.00">mosaic::handlers::DataChannel</text>
<text text-anchor="middle" x="1369.5" y="-47" font-family="Helvetica,sans-Serif" font-size="10.00">StringReceivable</text>
</a>
</g>
</g>
<!-- Node5&#45;&gt;Node1 -->
<g id="edge4_Node000001_Node000005" class="edge">
<title>Node5&#45;&gt;Node1</title>
<g id="a_edge4_Node000001_Node000005"><a xlink:title=" ">
<path fill="none" stroke="#63b8ff" d="M1464.01,-63.99C1472.9,-64.84 1481.94,-65.71 1490.88,-66.57"/>
<polygon fill="#63b8ff" stroke="#63b8ff" points="1464.33,-60.5 1454.04,-63.03 1463.66,-67.47 1464.33,-60.5"/>
</a>
</g>
</g>
<!-- Node6 -->
<g id="Node000006" class="node">
<title>Node6</title>
<g id="a_Node000006"><a xlink:title=" ">
<polygon fill="white" stroke="#666666" points="1248,-70 1079,-70 1079,-40 1248,-40 1248,-70"/>
<text text-anchor="start" x="1087" y="-58" font-family="Helvetica,sans-Serif" font-size="10.00">mosaic::handlers::DataChannel</text>
<text text-anchor="middle" x="1163.5" y="-47" font-family="Helvetica,sans-Serif" font-size="10.00">Receivable&lt; std::string &gt;</text>
</a>
</g>
</g>
<!-- Node6&#45;&gt;Node5 -->
<g id="edge5_Node000005_Node000006" class="edge">
<title>Node6&#45;&gt;Node5</title>
<g id="a_edge5_Node000005_Node000006"><a xlink:title=" ">
<path fill="none" stroke="#63b8ff" d="M1258.34,-55C1267.15,-55 1276.03,-55 1284.74,-55"/>
<polygon fill="#63b8ff" stroke="#63b8ff" points="1258.06,-51.5 1248.06,-55 1258.06,-58.5 1258.06,-51.5"/>
</a>
</g>
</g>
<!-- Node7&#45;&gt;Node6 -->
<g id="edge6_Node000006_Node000007" class="edge">
<title>Node7&#45;&gt;Node6</title>
<g id="a_edge6_Node000006_Node000007"><a xlink:title=" ">
<path fill="none" stroke="#63b8ff" d="M604.27,-55C732.1,-55 957.1,-55 1078.76,-55"/>
<polygon fill="#63b8ff" stroke="#63b8ff" points="604.1,-51.5 594.1,-55 604.1,-58.5 604.1,-51.5"/>
</a>
</g>
</g>
<!-- Node8 -->
<g id="Node000008" class="node">
<title>Node8</title>
<g id="a_Node000008"><a xlink:href="classmosaic_1_1handlers_1_1DataChannelReceivable.html" target="_top" xlink:title=" ">
<polygon fill="white" stroke="#666666" points="968,-30 799,-30 799,0 968,0 968,-30"/>
<text text-anchor="start" x="807" y="-18" font-family="Helvetica,sans-Serif" font-size="10.00">mosaic::handlers::DataChannel</text>
<text text-anchor="middle" x="883.5" y="-7" font-family="Helvetica,sans-Serif" font-size="10.00">Receivable&lt; ReceiveT &gt;</text>
</a>
</g>
</g>
<!-- Node7&#45;&gt;Node8 -->
<g id="edge9_Node000008_Node000007" class="edge">
<title>Node7&#45;&gt;Node8</title>
<g id="a_edge9_Node000008_Node000007"><a xlink:title=" ">
<path fill="none" stroke="#63b8ff" d="M604.47,-44.78C664.53,-38.34 741.29,-30.12 798.93,-23.95"/>
<polygon fill="#63b8ff" stroke="#63b8ff" points="603.79,-41.33 594.22,-45.87 604.54,-48.29 603.79,-41.33"/>
</a>
</g>
</g>
<!-- Node8&#45;&gt;Node6 -->
<g id="edge8_Node000006_Node000008" class="edge">
<title>Node8&#45;&gt;Node6</title>
<g id="a_edge8_Node000006_Node000008"><a xlink:title=" ">
<path fill="none" stroke="orange" stroke-dasharray="5,2" d="M978.38,-22.61C1005.15,-25.31 1034.3,-28.76 1061,-33 1073.11,-34.92 1085.95,-37.38 1098.27,-39.94"/>
<polygon fill="orange" stroke="orange" points="978.54,-19.11 968.25,-21.61 977.86,-26.07 978.54,-19.11"/>
</a>
</g>
<text text-anchor="middle" x="1023.5" y="-36" font-family="Helvetica,sans-Serif" font-size="10.00" fill="grey"> &lt; std::string &gt;</text>
</g>
</g>
</svg>
