<?xml version="1.0" encoding="UTF-8" standalone="no"?>
<!DOCTYPE svg PUBLIC "-//W3C//DTD SVG 1.1//EN"
 "http://www.w3.org/Graphics/SVG/1.1/DTD/svg11.dtd">
<!-- Generated by graphviz version 2.43.0 (0)
 -->
<!-- Title: mosaic::handlers::ADataChannelHandler::Impl Pages: 1 -->
<!--zoomable 215 -->

<svg id="main" version="1.1" xmlns="http://www.w3.org/2000/svg" xmlns:xlink="http://www.w3.org/1999/xlink" xml:space="preserve" onload="init(evt)">
<style type="text/css"><![CDATA[
.node, .edge {opacity: 0.7;}
.node.selected, .edge.selected {opacity: 1;}
.edge:hover path { stroke: red; }
.edge:hover polygon { stroke: red; fill: red; }
]]></style>

<defs>
  <circle id="rim" cx="0" cy="0" r="7"/>
  <circle id="rim2" cx="0" cy="0" r="3.5"/>
  <g id="zoomPlus">
    <use xlink:href="#rim" fill="#404040"><set attributeName="fill" to="#808080" begin="zoomplus.mouseover" end="zoomplus.mouseout"/></use>
    <path d="M-4,0h8M0,-4v8" fill="none" stroke="white" stroke-width="1.5" pointer-events="none"/>
  </g>
  <g id="zoomMin">
    <use xlink:href="#rim" fill="#404040"><set attributeName="fill" to="#808080" begin="zoomminus.mouseover" end="zoomminus.mouseout"/></use>
    <path d="M-4,0h8" fill="none" stroke="white" stroke-width="1.5" pointer-events="none"/>
  </g>
  <g id="arrowUp" transform="translate(30 24)">
    <use xlink:href="#rim"/>
    <path pointer-events="none" fill="none" stroke="white" stroke-width="1.5" d="M0,-3.0v7 M-2.5,-0.5L0,-3.0L2.5,-0.5"/>
  </g>
  <g id="arrowRight" transform="rotate(90) translate(36 -43)">
    <use xlink:href="#rim"/>
    <path pointer-events="none" fill="none" stroke="white" stroke-width="1.5" d="M0,-3.0v7 M-2.5,-0.5L0,-3.0L2.5,-0.5"/>
  </g>
  <g id="arrowDown" transform="rotate(180) translate(-30 -48)">
    <use xlink:href="#rim"/>
    <path pointer-events="none" fill="none" stroke="white" stroke-width="1.5" d="M0,-3.0v7 M-2.5,-0.5L0,-3.0L2.5,-0.5"/>
  </g>
  <g id="arrowLeft" transform="rotate(270) translate(-36 17)">
    <use xlink:href="#rim"/>
    <path pointer-events="none" fill="none" stroke="white" stroke-width="1.5" d="M0,-3.0v7 M-2.5,-0.5L0,-3.0L2.5,-0.5"/>
  </g>
  <g id="resetDef">
    <use xlink:href="#rim2" fill="#404040"><set attributeName="fill" to="#808080" begin="reset.mouseover" end="reset.mouseout"/></use>
  </g>
</defs>
<script type="application/ecmascript">
var viewWidth = 844;
var viewHeight = 215;
var sectionId = 'dynsection-0';
</script>
<script type="application/ecmascript" xlink:href="svg.min.js"/>
<svg id="graph" class="graph">
<g id="viewport">
<title>mosaic::handlers::ADataChannelHandler::Impl</title>
<!-- Node1 -->
<g id="Node000001" class="node">
<title>Node1</title>
<g id="a_Node000001"><a xlink:title=" ">
<polygon fill="#999999" stroke="#666666" points="836,-115.5 660,-115.5 660,-85.5 836,-85.5 836,-115.5"/>
<text text-anchor="start" x="668" y="-103.5" font-family="Helvetica,sans-Serif" font-size="10.00">mosaic::handlers::ADataChannel</text>
<text text-anchor="middle" x="748" y="-92.5" font-family="Helvetica,sans-Serif" font-size="10.00">Handler::Impl</text>
</a>
</g>
</g>
<!-- Node2 -->
<g id="Node000002" class="node">
<title>Node2</title>
<g id="a_Node000002"><a xlink:title=" ">
<polygon fill="white" stroke="#666666" points="486,-201 421,-201 421,-182 486,-182 486,-201"/>
<text text-anchor="middle" x="453.5" y="-189" font-family="Helvetica,sans-Serif" font-size="10.00">std::string</text>
</a>
</g>
</g>
<!-- Node2&#45;&gt;Node1 -->
<g id="edge1_Node000001_Node000002" class="edge">
<title>Node2&#45;&gt;Node1</title>
<g id="a_edge1_Node000001_Node000002"><a xlink:title=" ">
<path fill="none" stroke="#9a32cd" stroke-dasharray="5,2" d="M496.51,-183.88C512.68,-180.71 531.28,-176.77 548,-172.5 590.36,-161.69 600.84,-158.24 642,-143.5 665.74,-135 691.99,-124.25 712.3,-115.62"/>
<polygon fill="#9a32cd" stroke="#9a32cd" points="495.43,-180.52 486.27,-185.85 496.75,-187.4 495.43,-180.52"/>
</a>
</g>
<text text-anchor="middle" x="604" y="-170.5" font-family="Helvetica,sans-Serif" font-size="10.00" fill="grey"> label_</text>
</g>
<!-- Node3 -->
<g id="Node000003" class="node">
<title>Node3</title>
<g id="a_Node000003"><a xlink:title=" ">
<polygon fill="white" stroke="#666666" points="127.5,-206.5 23.5,-206.5 23.5,-176.5 127.5,-176.5 127.5,-206.5"/>
<text text-anchor="start" x="31.5" y="-194.5" font-family="Helvetica,sans-Serif" font-size="10.00">std::basic_string&lt;</text>
<text text-anchor="middle" x="75.5" y="-183.5" font-family="Helvetica,sans-Serif" font-size="10.00"> Char &gt;</text>
</a>
</g>
</g>
<!-- Node3&#45;&gt;Node2 -->
<g id="edge2_Node000002_Node000003" class="edge">
<title>Node3&#45;&gt;Node2</title>
<g id="a_edge2_Node000002_Node000003"><a xlink:title=" ">
<path fill="none" stroke="#63b8ff" d="M137.65,-191.5C218.61,-191.5 358.37,-191.5 420.79,-191.5"/>
<polygon fill="#63b8ff" stroke="#63b8ff" points="137.6,-188 127.6,-191.5 137.6,-195 137.6,-188"/>
</a>
</g>
</g>
<!-- Node4 -->
<g id="Node000004" class="node">
<title>Node4</title>
<g id="a_Node000004"><a xlink:title=" ">
<polygon fill="white" stroke="#666666" points="546,-163.5 361,-163.5 361,-133.5 546,-133.5 546,-163.5"/>
<text text-anchor="start" x="369" y="-151.5" font-family="Helvetica,sans-Serif" font-size="10.00">webrtc::scoped_refptr</text>
<text text-anchor="middle" x="453.5" y="-140.5" font-family="Helvetica,sans-Serif" font-size="10.00">&lt; webrtc::DataChannelInterface &gt;</text>
</a>
</g>
</g>
<!-- Node4&#45;&gt;Node1 -->
<g id="edge3_Node000001_Node000004" class="edge">
<title>Node4&#45;&gt;Node1</title>
<g id="a_edge3_Node000001_Node000004"><a xlink:title=" ">
<path fill="none" stroke="#9a32cd" stroke-dasharray="5,2" d="M556.12,-131.82C589.83,-126.29 627.03,-120.19 659.57,-114.85"/>
<polygon fill="#9a32cd" stroke="#9a32cd" points="555.55,-128.37 546.25,-133.44 556.68,-135.28 555.55,-128.37"/>
</a>
</g>
<text text-anchor="middle" x="604" y="-131.5" font-family="Helvetica,sans-Serif" font-size="10.00" fill="grey"> dc_interface_</text>
</g>
<!-- Node5 -->
<g id="Node000005" class="node">
<title>Node5</title>
<g id="a_Node000005"><a xlink:title=" ">
<polygon fill="white" stroke="#666666" points="151,-158 0,-158 0,-139 151,-139 151,-158"/>
<text text-anchor="middle" x="75.5" y="-146" font-family="Helvetica,sans-Serif" font-size="10.00">webrtc::scoped_refptr&lt; T &gt;</text>
</a>
</g>
</g>
<!-- Node5&#45;&gt;Node4 -->
<g id="edge4_Node000004_Node000005" class="edge">
<title>Node5&#45;&gt;Node4</title>
<g id="a_edge4_Node000004_Node000005"><a xlink:title=" ">
<path fill="none" stroke="orange" stroke-dasharray="5,2" d="M161.34,-148.5C220.76,-148.5 300.11,-148.5 360.96,-148.5"/>
<polygon fill="orange" stroke="orange" points="161.24,-145 151.24,-148.5 161.24,-152 161.24,-145"/>
</a>
</g>
<text text-anchor="middle" x="255" y="-151.5" font-family="Helvetica,sans-Serif" font-size="10.00" fill="grey"> &lt; webrtc::DataChannelInterface &gt;</text>
</g>
<!-- Node6 -->
<g id="Node000006" class="node">
<title>Node6</title>
<g id="a_Node000006"><a xlink:title=" ">
<polygon fill="white" stroke="#666666" points="548,-115.5 359,-115.5 359,-85.5 548,-85.5 548,-115.5"/>
<text text-anchor="start" x="367" y="-103.5" font-family="Helvetica,sans-Serif" font-size="10.00">std::shared_ptr&lt; mosaic</text>
<text text-anchor="middle" x="453.5" y="-92.5" font-family="Helvetica,sans-Serif" font-size="10.00">::handlers::DataChannelObserver &gt;</text>
</a>
</g>
</g>
<!-- Node6&#45;&gt;Node1 -->
<g id="edge5_Node000001_Node000006" class="edge">
<title>Node6&#45;&gt;Node1</title>
<g id="a_edge5_Node000001_Node000006"><a xlink:title=" ">
<path fill="none" stroke="#9a32cd" stroke-dasharray="5,2" d="M558.43,-100.5C591.58,-100.5 627.9,-100.5 659.73,-100.5"/>
<polygon fill="#9a32cd" stroke="#9a32cd" points="558.26,-97 548.26,-100.5 558.26,-104 558.26,-97"/>
</a>
</g>
<text text-anchor="middle" x="604" y="-103.5" font-family="Helvetica,sans-Serif" font-size="10.00" fill="grey"> observer_</text>
</g>
<!-- Node7 -->
<g id="Node000007" class="node">
<title>Node7</title>
<g id="a_Node000007"><a xlink:title=" ">
<polygon fill="white" stroke="#666666" points="134.5,-110 16.5,-110 16.5,-91 134.5,-91 134.5,-110"/>
<text text-anchor="middle" x="75.5" y="-98" font-family="Helvetica,sans-Serif" font-size="10.00">std::shared_ptr&lt; T &gt;</text>
</a>
</g>
</g>
<!-- Node7&#45;&gt;Node6 -->
<g id="edge6_Node000006_Node000007" class="edge">
<title>Node7&#45;&gt;Node6</title>
<g id="a_edge6_Node000006_Node000007"><a xlink:title=" ">
<path fill="none" stroke="orange" stroke-dasharray="5,2" d="M144.95,-100.5C204.86,-100.5 292.46,-100.5 358.86,-100.5"/>
<polygon fill="orange" stroke="orange" points="144.84,-97 134.84,-100.5 144.84,-104 144.84,-97"/>
</a>
</g>
<text text-anchor="start" x="192.5" y="-114.5" font-family="Helvetica,sans-Serif" font-size="10.00" fill="grey"> &lt; mosaic::handlers</text>
<text text-anchor="middle" x="255" y="-103.5" font-family="Helvetica,sans-Serif" font-size="10.00" fill="grey">::DataChannelObserver &gt;</text>
</g>
<!-- Node8 -->
<g id="Node000008" class="node">
<title>Node8</title>
<g id="a_Node000008"><a xlink:title=" ">
<polygon fill="white" stroke="#666666" points="509.5,-67.5 397.5,-67.5 397.5,-37.5 509.5,-37.5 509.5,-67.5"/>
<text text-anchor="start" x="405.5" y="-55.5" font-family="Helvetica,sans-Serif" font-size="10.00">std::queue&lt; webrtc</text>
<text text-anchor="middle" x="453.5" y="-44.5" font-family="Helvetica,sans-Serif" font-size="10.00">::DataBuffer &gt;</text>
</a>
</g>
</g>
<!-- Node8&#45;&gt;Node1 -->
<g id="edge7_Node000001_Node000008" class="edge">
<title>Node8&#45;&gt;Node1</title>
<g id="a_edge7_Node000001_Node000008"><a xlink:title=" ">
<path fill="none" stroke="#9a32cd" stroke-dasharray="5,2" d="M519.46,-63.16C560.76,-69.94 614.73,-78.79 659.75,-86.18"/>
<polygon fill="#9a32cd" stroke="#9a32cd" points="519.95,-59.69 509.52,-61.53 518.82,-66.6 519.95,-59.69"/>
</a>
</g>
<text text-anchor="middle" x="604" y="-84.5" font-family="Helvetica,sans-Serif" font-size="10.00" fill="grey"> send_queue_</text>
</g>
<!-- Node9 -->
<g id="Node000009" class="node">
<title>Node9</title>
<g id="a_Node000009"><a xlink:title=" ">
<polygon fill="white" stroke="#666666" points="123.5,-62 27.5,-62 27.5,-43 123.5,-43 123.5,-62"/>
<text text-anchor="middle" x="75.5" y="-50" font-family="Helvetica,sans-Serif" font-size="10.00">std::queue&lt; T &gt;</text>
</a>
</g>
</g>
<!-- Node9&#45;&gt;Node8 -->
<g id="edge8_Node000008_Node000009" class="edge">
<title>Node9&#45;&gt;Node8</title>
<g id="a_edge8_Node000008_Node000009"><a xlink:title=" ">
<path fill="none" stroke="orange" stroke-dasharray="5,2" d="M133.92,-52.5C205.42,-52.5 326.73,-52.5 397.22,-52.5"/>
<polygon fill="orange" stroke="orange" points="133.74,-49 123.74,-52.5 133.74,-56 133.74,-49"/>
</a>
</g>
<text text-anchor="middle" x="255" y="-55.5" font-family="Helvetica,sans-Serif" font-size="10.00" fill="grey"> &lt; webrtc::DataBuffer &gt;</text>
</g>
<!-- Node10 -->
<g id="Node000010" class="node">
<title>Node10</title>
<g id="a_Node000010"><a xlink:title=" ">
<polygon fill="white" stroke="#666666" points="488,-19 419,-19 419,0 488,0 488,-19"/>
<text text-anchor="middle" x="453.5" y="-7" font-family="Helvetica,sans-Serif" font-size="10.00">std::mutex</text>
</a>
</g>
</g>
<!-- Node10&#45;&gt;Node1 -->
<g id="edge9_Node000001_Node000010" class="edge">
<title>Node10&#45;&gt;Node1</title>
<g id="a_edge9_Node000001_Node000010"><a xlink:title=" ">
<path fill="none" stroke="#9a32cd" stroke-dasharray="5,2" d="M498.41,-17.58C514.12,-20.7 531.92,-24.48 548,-28.5 590.29,-39.07 600.95,-41.83 642,-56.5 666.2,-65.15 692.9,-76.36 713.31,-85.3"/>
<polygon fill="#9a32cd" stroke="#9a32cd" points="498.9,-14.12 488.42,-15.64 497.57,-20.99 498.9,-14.12"/>
</a>
</g>
<text text-anchor="middle" x="604" y="-59.5" font-family="Helvetica,sans-Serif" font-size="10.00" fill="grey"> queue_mutex_</text>
</g>
</g>
</svg>

<g id="navigator" transform="translate(0 0)" fill="#404254">
  <rect fill="#f2f5e9" fill-opacity="0.5" stroke="#606060" stroke-width=".5" x="0" y="0" width="60" height="60"/>
  <use id="zoomplus" xlink:href="#zoomPlus" x="17" y="9" onmousedown="handleZoom(evt,'in')"/>
  <use id="zoomminus" xlink:href="#zoomMin" x="42" y="9" onmousedown="handleZoom(evt,'out')"/>
  <use id="reset" xlink:href="#resetDef" x="30" y="36" onmousedown="handleReset()"/>
   <use id="arrowup" xlink:href="#arrowUp" x="0" y="0" onmousedown="handlePan(0,-1)"/>
  <use id="arrowright" xlink:href="#arrowRight" x="0" y="0" onmousedown="handlePan(1,0)"/>
  <use id="arrowdown" xlink:href="#arrowDown" x="0" y="0" onmousedown="handlePan(0,1)"/>
  <use id="arrowleft" xlink:href="#arrowLeft" x="0" y="0" onmousedown="handlePan(-1,0)"/>
</g>
<svg viewBox="0 0 15 15" width="100%" height="30px" preserveAspectRatio="xMaxYMin meet">
 <g id="arrow_out" transform="scale(0.3 0.3)">
  <a xlink:href="classmosaic_1_1handlers_1_1ADataChannelHandler_1_1Impl__coll__graph_org.svg" target="_base">
   <rect id="button" ry="5" rx="5" y="6" x="6" height="38" width="38"
        fill="#f2f5e9" fill-opacity="0.5" stroke="#606060" stroke-width="1.0"/>
   <path id="arrow"
     d="M 11.500037,31.436501 C 11.940474,20.09759 22.043105,11.32322 32.158766,21.979434 L 37.068811,17.246167 C 37.068811,17.246167 37.088388,32 37.088388,32 L 22.160133,31.978069 C 22.160133,31.978069 26.997745,27.140456 26.997745,27.140456 C 18.528582,18.264221 13.291696,25.230495 11.500037,31.436501 z"
     style="fill:#404040;"/>
  </a>
 </g>
</svg>

<style type='text/css'>
<![CDATA[
[data-mouse-over-selected='false'] { opacity: 0.7; }
[data-mouse-over-selected='true']  { opacity: 1.0; }
]]>
</style>
<script type="application/ecmascript"><![CDATA[
document.addEventListener('DOMContentLoaded', (event) => {
  highlightEdges();
  highlightAdjacentNodes();
});
]]></script>
</svg>
