<?xml version="1.0" encoding="UTF-8" standalone="no"?>
<!DOCTYPE svg PUBLIC "-//W3C//DTD SVG 1.1//EN"
 "http://www.w3.org/Graphics/SVG/1.1/DTD/svg11.dtd">
<!-- Generated by graphviz version 2.43.0 (0)
 -->
<!-- Title: mosaic::core_signaling::SignalingClient Pages: 1 -->
<svg width="811pt" height="220pt"
 viewBox="0.00 0.00 811.00 220.00" xmlns="http://www.w3.org/2000/svg" xmlns:xlink="http://www.w3.org/1999/xlink">
<g id="graph0" class="graph" transform="scale(1 1) rotate(0) translate(4 216)">
<title>mosaic::core_signaling::SignalingClient</title>
<!-- Node1 -->
<g id="Node000001" class="node">
<title>Node1</title>
<g id="a_Node000001"><a xlink:title=" ">
<polygon fill="#999999" stroke="#666666" points="803,-129 675,-129 675,-99 803,-99 803,-129"/>
<text text-anchor="start" x="683" y="-117" font-family="Helvetica,sans-Serif" font-size="10.00">mosaic::core_signaling</text>
<text text-anchor="middle" x="739" y="-106" font-family="Helvetica,sans-Serif" font-size="10.00">::SignalingClient</text>
</a>
</g>
</g>
<!-- Node2 -->
<g id="Node000002" class="node">
<title>Node2</title>
<g id="a_Node000002"><a xlink:href="classmosaic_1_1core__signaling_1_1ISignalingClient.html" target="_top" xlink:title=" ">
<polygon fill="white" stroke="#666666" points="492,-212 364,-212 364,-182 492,-182 492,-212"/>
<text text-anchor="start" x="372" y="-200" font-family="Helvetica,sans-Serif" font-size="10.00">mosaic::core_signaling</text>
<text text-anchor="middle" x="428" y="-189" font-family="Helvetica,sans-Serif" font-size="10.00">::ISignalingClient</text>
</a>
</g>
</g>
<!-- Node2&#45;&gt;Node1 -->
<g id="edge1_Node000001_Node000002" class="edge">
<title>Node2&#45;&gt;Node1</title>
<g id="a_edge1_Node000001_Node000002"><a xlink:title=" ">
<path fill="none" stroke="#63b8ff" d="M502.5,-187.16C547.76,-179.96 606.56,-168.53 657,-152 675.3,-146 694.88,-136.9 710.2,-129.11"/>
<polygon fill="#63b8ff" stroke="#63b8ff" points="501.82,-183.72 492.47,-188.72 502.89,-190.64 501.82,-183.72"/>
</a>
</g>
</g>
<!-- Node3 -->
<g id="Node000003" class="node">
<title>Node3</title>
<g id="a_Node000003"><a xlink:title=" ">
<polygon fill="white" stroke="#666666" points="500.5,-164 355.5,-164 355.5,-134 500.5,-134 500.5,-164"/>
<text text-anchor="start" x="363.5" y="-152" font-family="Helvetica,sans-Serif" font-size="10.00">std::shared_ptr&lt; mosaic</text>
<text text-anchor="middle" x="428" y="-141" font-family="Helvetica,sans-Serif" font-size="10.00">::core::MosaicConnector &gt;</text>
</a>
</g>
</g>
<!-- Node3&#45;&gt;Node1 -->
<g id="edge2_Node000001_Node000003" class="edge">
<title>Node3&#45;&gt;Node1</title>
<g id="a_edge2_Node000001_Node000003"><a xlink:title=" ">
<path fill="none" stroke="#9a32cd" stroke-dasharray="5,2" d="M510.65,-141.01C554.13,-136.6 608.52,-130.84 657,-125 662.78,-124.3 668.78,-123.55 674.79,-122.77"/>
<polygon fill="#9a32cd" stroke="#9a32cd" points="510.29,-137.53 500.69,-142.01 510.99,-144.49 510.29,-137.53"/>
</a>
</g>
<text text-anchor="middle" x="599.5" y="-140" font-family="Helvetica,sans-Serif" font-size="10.00" fill="grey"> mosaic_connector_</text>
</g>
<!-- Node4 -->
<g id="Node000004" class="node">
<title>Node4</title>
<g id="a_Node000004"><a xlink:title=" ">
<polygon fill="white" stroke="#666666" points="118,-133.5 0,-133.5 0,-114.5 118,-114.5 118,-133.5"/>
<text text-anchor="middle" x="59" y="-121.5" font-family="Helvetica,sans-Serif" font-size="10.00">std::shared_ptr&lt; T &gt;</text>
</a>
</g>
</g>
<!-- Node4&#45;&gt;Node3 -->
<g id="edge3_Node000003_Node000004" class="edge">
<title>Node4&#45;&gt;Node3</title>
<g id="a_edge3_Node000003_Node000004"><a xlink:title=" ">
<path fill="none" stroke="orange" stroke-dasharray="5,2" d="M128.24,-128.65C192.86,-133.05 289.52,-139.63 355.26,-144.11"/>
<polygon fill="orange" stroke="orange" points="128.37,-125.15 118.15,-127.96 127.89,-132.13 128.37,-125.15"/>
</a>
</g>
<text text-anchor="middle" x="225" y="-143" font-family="Helvetica,sans-Serif" font-size="10.00" fill="grey"> &lt; mosaic::core::MosaicConnector &gt;</text>
</g>
<!-- Node5 -->
<g id="Node000005" class="node">
<title>Node5</title>
<g id="a_Node000005"><a xlink:title=" ">
<polygon fill="white" stroke="#666666" points="519,-116 337,-116 337,-86 519,-86 519,-116"/>
<text text-anchor="start" x="345" y="-104" font-family="Helvetica,sans-Serif" font-size="10.00">std::shared_ptr&lt; mosaic</text>
<text text-anchor="middle" x="428" y="-93" font-family="Helvetica,sans-Serif" font-size="10.00">::security::IMosaicAuthenticator &gt;</text>
</a>
</g>
</g>
<!-- Node4&#45;&gt;Node5 -->
<g id="edge5_Node000005_Node000004" class="edge">
<title>Node4&#45;&gt;Node5</title>
<g id="a_edge5_Node000005_Node000004"><a xlink:title=" ">
<path fill="none" stroke="orange" stroke-dasharray="5,2" d="M99.18,-111.71C110.91,-108.58 123.87,-105.63 136,-104 202.85,-95 279.11,-94.57 336.79,-96.22"/>
<polygon fill="orange" stroke="orange" points="97.94,-108.43 89.26,-114.49 99.83,-115.17 97.94,-108.43"/>
</a>
</g>
<text text-anchor="start" x="164.5" y="-118" font-family="Helvetica,sans-Serif" font-size="10.00" fill="grey"> &lt; mosaic::security</text>
<text text-anchor="middle" x="225" y="-107" font-family="Helvetica,sans-Serif" font-size="10.00" fill="grey">::IMosaicAuthenticator &gt;</text>
</g>
<!-- Node5&#45;&gt;Node1 -->
<g id="edge4_Node000001_Node000005" class="edge">
<title>Node5&#45;&gt;Node1</title>
<g id="a_edge4_Node000001_Node000005"><a xlink:title=" ">
<path fill="none" stroke="#9a32cd" stroke-dasharray="5,2" d="M529.28,-105.22C577.08,-107.23 632.82,-109.57 674.67,-111.34"/>
<polygon fill="#9a32cd" stroke="#9a32cd" points="529.34,-101.72 519.21,-104.8 529.05,-108.71 529.34,-101.72"/>
</a>
</g>
<text text-anchor="middle" x="599.5" y="-113" font-family="Helvetica,sans-Serif" font-size="10.00" fill="grey"> authenticator_</text>
</g>
<!-- Node6 -->
<g id="Node000006" class="node">
<title>Node6</title>
<g id="a_Node000006"><a xlink:title=" ">
<polygon fill="white" stroke="#666666" points="460.5,-67.5 395.5,-67.5 395.5,-48.5 460.5,-48.5 460.5,-67.5"/>
<text text-anchor="middle" x="428" y="-55.5" font-family="Helvetica,sans-Serif" font-size="10.00">std::string</text>
</a>
</g>
</g>
<!-- Node6&#45;&gt;Node1 -->
<g id="edge6_Node000001_Node000006" class="edge">
<title>Node6&#45;&gt;Node1</title>
<g id="a_edge6_Node000001_Node000006"><a xlink:title=" ">
<path fill="none" stroke="#9a32cd" stroke-dasharray="5,2" d="M470.72,-54.07C517.17,-51 593.99,-49.87 657,-68 679.38,-74.44 702.21,-88.19 717.91,-98.99"/>
<polygon fill="#9a32cd" stroke="#9a32cd" points="470.45,-50.58 460.72,-54.79 470.95,-57.56 470.45,-50.58"/>
</a>
</g>
<text text-anchor="start" x="542" y="-93" font-family="Helvetica,sans-Serif" font-size="10.00" fill="grey"> current_rtc_connection</text>
<text text-anchor="middle" x="599.5" y="-82" font-family="Helvetica,sans-Serif" font-size="10.00" fill="grey">_id_</text>
<text text-anchor="middle" x="599.5" y="-71" font-family="Helvetica,sans-Serif" font-size="10.00" fill="grey">ws_uri_</text>
</g>
<!-- Node7 -->
<g id="Node000007" class="node">
<title>Node7</title>
<g id="a_Node000007"><a xlink:title=" ">
<polygon fill="white" stroke="#666666" points="111,-73 7,-73 7,-43 111,-43 111,-73"/>
<text text-anchor="start" x="15" y="-61" font-family="Helvetica,sans-Serif" font-size="10.00">std::basic_string&lt;</text>
<text text-anchor="middle" x="59" y="-50" font-family="Helvetica,sans-Serif" font-size="10.00"> Char &gt;</text>
</a>
</g>
</g>
<!-- Node7&#45;&gt;Node6 -->
<g id="edge7_Node000006_Node000007" class="edge">
<title>Node7&#45;&gt;Node6</title>
<g id="a_edge7_Node000006_Node000007"><a xlink:title=" ">
<path fill="none" stroke="#63b8ff" d="M121.31,-58C200.24,-58 334.43,-58 395.3,-58"/>
<polygon fill="#63b8ff" stroke="#63b8ff" points="121.03,-54.5 111.03,-58 121.03,-61.5 121.03,-54.5"/>
</a>
</g>
</g>
<!-- Node8 -->
<g id="Node000008" class="node">
<title>Node8</title>
<g id="a_Node000008"><a xlink:title=" ">
<polygon fill="white" stroke="#666666" points="524,-30 332,-30 332,0 524,0 524,-30"/>
<text text-anchor="start" x="340" y="-18" font-family="Helvetica,sans-Serif" font-size="10.00">std::unique_ptr&lt; mosaic</text>
<text text-anchor="middle" x="428" y="-7" font-family="Helvetica,sans-Serif" font-size="10.00">::core_signaling::WebSocketClient &gt;</text>
</a>
</g>
</g>
<!-- Node8&#45;&gt;Node1 -->
<g id="edge8_Node000001_Node000008" class="edge">
<title>Node8&#45;&gt;Node1</title>
<g id="a_edge8_Node000001_Node000008"><a xlink:title=" ">
<path fill="none" stroke="#9a32cd" stroke-dasharray="5,2" d="M534.17,-10.86C574.15,-12.9 619.15,-19.72 657,-37 687.18,-50.77 713.18,-80.5 727.12,-98.73"/>
<polygon fill="#9a32cd" stroke="#9a32cd" points="534.26,-7.36 524.12,-10.44 533.97,-14.35 534.26,-7.36"/>
</a>
</g>
<text text-anchor="middle" x="599.5" y="-40" font-family="Helvetica,sans-Serif" font-size="10.00" fill="grey"> ws_client_</text>
</g>
<!-- Node9 -->
<g id="Node000009" class="node">
<title>Node9</title>
<g id="a_Node000009"><a xlink:title=" ">
<polygon fill="white" stroke="#666666" points="118,-24.5 0,-24.5 0,-5.5 118,-5.5 118,-24.5"/>
<text text-anchor="middle" x="59" y="-12.5" font-family="Helvetica,sans-Serif" font-size="10.00">std::unique_ptr&lt; T &gt;</text>
</a>
</g>
</g>
<!-- Node9&#45;&gt;Node8 -->
<g id="edge9_Node000008_Node000009" class="edge">
<title>Node9&#45;&gt;Node8</title>
<g id="a_edge9_Node000008_Node000009"><a xlink:title=" ">
<path fill="none" stroke="orange" stroke-dasharray="5,2" d="M128.2,-15C185.54,-15 268.13,-15 331.96,-15"/>
<polygon fill="orange" stroke="orange" points="128.15,-11.5 118.15,-15 128.15,-18.5 128.15,-11.5"/>
</a>
</g>
<text text-anchor="start" x="161.5" y="-29" font-family="Helvetica,sans-Serif" font-size="10.00" fill="grey"> &lt; mosaic::core_signaling</text>
<text text-anchor="middle" x="225" y="-18" font-family="Helvetica,sans-Serif" font-size="10.00" fill="grey">::WebSocketClient &gt;</text>
</g>
</g>
</svg>
