<?xml version="1.0" encoding="UTF-8" standalone="no"?>
<!DOCTYPE svg PUBLIC "-//W3C//DTD SVG 1.1//EN"
 "http://www.w3.org/Graphics/SVG/1.1/DTD/svg11.dtd">
<!-- Generated by graphviz version 2.43.0 (0)
 -->
<!-- Title: mosaic::core::SimpleSetRemoteDescriptionObserver Pages: 1 -->
<svg width="780pt" height="86pt"
 viewBox="0.00 0.00 780.00 86.00" xmlns="http://www.w3.org/2000/svg" xmlns:xlink="http://www.w3.org/1999/xlink">
<g id="graph0" class="graph" transform="scale(1 1) rotate(0) translate(4 82)">
<title>mosaic::core::SimpleSetRemoteDescriptionObserver</title>
<!-- Node1 -->
<g id="Node000001" class="node">
<title>Node1</title>
<g id="a_Node000001"><a xlink:title=" ">
<polygon fill="#999999" stroke="#666666" points="772,-54 599,-54 599,-24 772,-24 772,-54"/>
<text text-anchor="start" x="607" y="-42" font-family="Helvetica,sans-Serif" font-size="10.00">mosaic::core::SimpleSetRemote</text>
<text text-anchor="middle" x="685.5" y="-31" font-family="Helvetica,sans-Serif" font-size="10.00">DescriptionObserver</text>
</a>
</g>
</g>
<!-- Node2 -->
<g id="Node000002" class="node">
<title>Node2</title>
<g id="a_Node000002"><a xlink:title=" ">
<polygon fill="white" stroke="#666666" points="486,-78 322,-78 322,-48 486,-48 486,-78"/>
<text text-anchor="start" x="330" y="-66" font-family="Helvetica,sans-Serif" font-size="10.00">webrtc::SetSessionDescription</text>
<text text-anchor="middle" x="404" y="-55" font-family="Helvetica,sans-Serif" font-size="10.00">Observer</text>
</a>
</g>
</g>
<!-- Node2&#45;&gt;Node1 -->
<g id="edge1_Node000001_Node000002" class="edge">
<title>Node2&#45;&gt;Node1</title>
<g id="a_edge1_Node000001_Node000002"><a xlink:title=" ">
<path fill="none" stroke="#63b8ff" d="M496.3,-55.16C529.23,-52.33 566.25,-49.15 598.69,-46.37"/>
<polygon fill="#63b8ff" stroke="#63b8ff" points="495.88,-51.68 486.22,-56.03 496.48,-58.66 495.88,-51.68"/>
</a>
</g>
</g>
<!-- Node3 -->
<g id="Node000003" class="node">
<title>Node3</title>
<g id="a_Node000003"><a xlink:title=" ">
<polygon fill="white" stroke="#666666" points="494,-30 314,-30 314,0 494,0 494,-30"/>
<text text-anchor="start" x="322" y="-18" font-family="Helvetica,sans-Serif" font-size="10.00">std::shared_ptr&lt; mosaic</text>
<text text-anchor="middle" x="404" y="-7" font-family="Helvetica,sans-Serif" font-size="10.00">::core::PeerConnectionManager &gt;</text>
</a>
</g>
</g>
<!-- Node3&#45;&gt;Node1 -->
<g id="edge2_Node000001_Node000003" class="edge">
<title>Node3&#45;&gt;Node1</title>
<g id="a_edge2_Node000001_Node000003"><a xlink:title=" ">
<path fill="none" stroke="#9a32cd" stroke-dasharray="5,2" d="M504.51,-23.54C535.23,-26.18 568.79,-29.06 598.53,-31.62"/>
<polygon fill="#9a32cd" stroke="#9a32cd" points="504.47,-20.03 494.2,-22.66 503.87,-27 504.47,-20.03"/>
</a>
</g>
<text text-anchor="middle" x="546.5" y="-32" font-family="Helvetica,sans-Serif" font-size="10.00" fill="grey"> pc_manager_</text>
</g>
<!-- Node4 -->
<g id="Node000004" class="node">
<title>Node4</title>
<g id="a_Node000004"><a xlink:title=" ">
<polygon fill="white" stroke="#666666" points="118,-24.5 0,-24.5 0,-5.5 118,-5.5 118,-24.5"/>
<text text-anchor="middle" x="59" y="-12.5" font-family="Helvetica,sans-Serif" font-size="10.00">std::shared_ptr&lt; T &gt;</text>
</a>
</g>
</g>
<!-- Node4&#45;&gt;Node3 -->
<g id="edge3_Node000003_Node000004" class="edge">
<title>Node4&#45;&gt;Node3</title>
<g id="a_edge3_Node000003_Node000004"><a xlink:title=" ">
<path fill="none" stroke="orange" stroke-dasharray="5,2" d="M128.21,-15C181.46,-15 255.89,-15 313.85,-15"/>
<polygon fill="orange" stroke="orange" points="128.19,-11.5 118.19,-15 128.19,-18.5 128.19,-11.5"/>
</a>
</g>
<text text-anchor="start" x="136" y="-29" font-family="Helvetica,sans-Serif" font-size="10.00" fill="grey"> &lt; mosaic::core::PeerConnection</text>
<text text-anchor="middle" x="216" y="-18" font-family="Helvetica,sans-Serif" font-size="10.00" fill="grey">Manager &gt;</text>
</g>
</g>
</svg>
