<?xml version="1.0" encoding="UTF-8" standalone="no"?>
<!DOCTYPE svg PUBLIC "-//W3C//DTD SVG 1.1//EN"
 "http://www.w3.org/Graphics/SVG/1.1/DTD/svg11.dtd">
<!-- Generated by graphviz version 2.43.0 (0)
 -->
<!-- Title: mosaic::handlers::VideoRecorder::Impl Pages: 1 -->
<svg width="288pt" height="192pt"
 viewBox="0.00 0.00 288.00 192.00" xmlns="http://www.w3.org/2000/svg" xmlns:xlink="http://www.w3.org/1999/xlink">

<svg id="main" version="1.1" xmlns="http://www.w3.org/2000/svg" xmlns:xlink="http://www.w3.org/1999/xlink" xml:space="preserve" onload="init(evt)">
<style type="text/css"><![CDATA[
.node, .edge {opacity: 0.7;}
.node.selected, .edge.selected {opacity: 1;}
.edge:hover path { stroke: red; }
.edge:hover polygon { stroke: red; fill: red; }
]]></style>
<script type="application/ecmascript" xlink:href="svg.min.js"/>
<svg id="graph" class="graph">
<g id="graph0" class="graph" transform="scale(1 1) rotate(0) translate(4 188)">
<title>mosaic::handlers::VideoRecorder::Impl</title>
<!-- Node1 -->
<g id="Node000001" class="node">
<title>Node1</title>
<g id="a_Node000001"><a xlink:title=" ">
<polygon fill="#999999" stroke="#666666" points="206.5,-30 29.5,-30 29.5,0 206.5,0 206.5,-30"/>
<text text-anchor="start" x="37.5" y="-18" font-family="Helvetica,sans-Serif" font-size="10.00">mosaic::handlers::VideoRecorder</text>
<text text-anchor="middle" x="118" y="-7" font-family="Helvetica,sans-Serif" font-size="10.00">::Impl</text>
</a>
</g>
</g>
<!-- Node2 -->
<g id="Node000002" class="node">
<title>Node2</title>
<g id="a_Node000002"><a xlink:title=" ">
<polygon fill="white" stroke="#666666" points="93.5,-101.5 28.5,-101.5 28.5,-82.5 93.5,-82.5 93.5,-101.5"/>
<text text-anchor="middle" x="61" y="-89.5" font-family="Helvetica,sans-Serif" font-size="10.00">std::string</text>
</a>
</g>
</g>
<!-- Node2&#45;&gt;Node1 -->
<g id="edge1_Node000001_Node000002" class="edge">
<title>Node2&#45;&gt;Node1</title>
<g id="a_edge1_Node000001_Node000002"><a xlink:title=" ">
<path fill="none" stroke="#9a32cd" stroke-dasharray="5,2" d="M61.28,-72.09C62.18,-64.1 64.3,-55.04 69,-48 73.79,-40.81 80.8,-34.87 88.03,-30.14"/>
<polygon fill="#9a32cd" stroke="#9a32cd" points="57.77,-72.16 60.68,-82.35 64.76,-72.57 57.77,-72.16"/>
</a>
</g>
<text text-anchor="middle" x="112.5" y="-51" font-family="Helvetica,sans-Serif" font-size="10.00" fill="grey"> record_file_path_</text>
</g>
<!-- Node3 -->
<g id="Node000003" class="node">
<title>Node3</title>
<g id="a_Node000003"><a xlink:title=" ">
<polygon fill="white" stroke="#666666" points="104,-184 0,-184 0,-154 104,-154 104,-184"/>
<text text-anchor="start" x="8" y="-172" font-family="Helvetica,sans-Serif" font-size="10.00">std::basic_string&lt;</text>
<text text-anchor="middle" x="52" y="-161" font-family="Helvetica,sans-Serif" font-size="10.00"> Char &gt;</text>
</a>
</g>
</g>
<!-- Node3&#45;&gt;Node2 -->
<g id="edge2_Node000002_Node000003" class="edge">
<title>Node3&#45;&gt;Node2</title>
<g id="a_edge2_Node000002_Node000003"><a xlink:title=" ">
<path fill="none" stroke="#63b8ff" d="M54.92,-143.68C56.64,-129.36 58.71,-112.11 59.94,-101.87"/>
<polygon fill="#63b8ff" stroke="#63b8ff" points="51.41,-143.55 53.69,-153.89 58.36,-144.38 51.41,-143.55"/>
</a>
</g>
</g>
<!-- Node4 -->
<g id="Node000004" class="node">
<title>Node4</title>
<g id="a_Node000004"><a xlink:title=" ">
<polygon fill="white" stroke="#666666" points="235,-107 123,-107 123,-77 235,-77 235,-107"/>
<text text-anchor="start" x="131" y="-95" font-family="Helvetica,sans-Serif" font-size="10.00">std::unique_ptr&lt; cv</text>
<text text-anchor="middle" x="179" y="-84" font-family="Helvetica,sans-Serif" font-size="10.00">::VideoWriter &gt;</text>
</a>
</g>
</g>
<!-- Node4&#45;&gt;Node1 -->
<g id="edge3_Node000001_Node000004" class="edge">
<title>Node4&#45;&gt;Node1</title>
<g id="a_edge3_Node000001_Node000004"><a xlink:title=" ">
<path fill="none" stroke="#9a32cd" stroke-dasharray="5,2" d="M168.43,-67.38C164.94,-60.79 160.73,-53.83 156,-48 150.68,-41.43 143.86,-35.2 137.48,-30.02"/>
<polygon fill="#9a32cd" stroke="#9a32cd" points="165.42,-69.2 172.99,-76.62 171.7,-66.1 165.42,-69.2"/>
</a>
</g>
<text text-anchor="middle" x="199" y="-51" font-family="Helvetica,sans-Serif" font-size="10.00" fill="grey"> video_writer_</text>
</g>
<!-- Node5 -->
<g id="Node000005" class="node">
<title>Node5</title>
<g id="a_Node000005"><a xlink:title=" ">
<polygon fill="white" stroke="#666666" points="240,-178.5 122,-178.5 122,-159.5 240,-159.5 240,-178.5"/>
<text text-anchor="middle" x="181" y="-166.5" font-family="Helvetica,sans-Serif" font-size="10.00">std::unique_ptr&lt; T &gt;</text>
</a>
</g>
</g>
<!-- Node5&#45;&gt;Node4 -->
<g id="edge4_Node000004_Node000005" class="edge">
<title>Node5&#45;&gt;Node4</title>
<g id="a_edge4_Node000004_Node000005"><a xlink:title=" ">
<path fill="none" stroke="orange" stroke-dasharray="5,2" d="M180.5,-149.2C180.15,-136.14 179.69,-119.01 179.38,-107.11"/>
<polygon fill="orange" stroke="orange" points="177.01,-149.49 180.77,-159.4 184,-149.31 177.01,-149.49"/>
</a>
</g>
<text text-anchor="middle" x="230" y="-128" font-family="Helvetica,sans-Serif" font-size="10.00" fill="grey"> &lt; cv::VideoWriter &gt;</text>
</g>
</g>
</svg>
</svg>

<style type='text/css'>
<![CDATA[
[data-mouse-over-selected='false'] { opacity: 0.7; }
[data-mouse-over-selected='true']  { opacity: 1.0; }
]]>
</style>
<script type="application/ecmascript"><![CDATA[
document.addEventListener('DOMContentLoaded', (event) => {
  highlightEdges();
  highlightAdjacentNodes();
});
]]></script>
</svg>
