<?xml version="1.0" encoding="UTF-8" standalone="no"?>
<!DOCTYPE svg PUBLIC "-//W3C//DTD SVG 1.1//EN"
 "http://www.w3.org/Graphics/SVG/1.1/DTD/svg11.dtd">
<!-- Generated by graphviz version 2.43.0 (0)
 -->
<!-- Title: mosaic::core::ConnectorStateManager Pages: 1 -->
<svg width="280pt" height="203pt"
 viewBox="0.00 0.00 280.00 203.00" xmlns="http://www.w3.org/2000/svg" xmlns:xlink="http://www.w3.org/1999/xlink">

<svg id="main" version="1.1" xmlns="http://www.w3.org/2000/svg" xmlns:xlink="http://www.w3.org/1999/xlink" xml:space="preserve" onload="init(evt)">
<style type="text/css"><![CDATA[
.node, .edge {opacity: 0.7;}
.node.selected, .edge.selected {opacity: 1;}
.edge:hover path { stroke: red; }
.edge:hover polygon { stroke: red; fill: red; }
]]></style>
<script type="application/ecmascript" xlink:href="svg.min.js"/>
<svg id="graph" class="graph">
<g id="graph0" class="graph" transform="scale(1 1) rotate(0) translate(4 199)">
<title>mosaic::core::ConnectorStateManager</title>
<!-- Node1 -->
<g id="Node000001" class="node">
<title>Node1</title>
<g id="a_Node000001"><a xlink:title=" ">
<polygon fill="#999999" stroke="#666666" points="243.5,-30 83.5,-30 83.5,0 243.5,0 243.5,-30"/>
<text text-anchor="start" x="91.5" y="-18" font-family="Helvetica,sans-Serif" font-size="10.00">mosaic::core::ConnectorState</text>
<text text-anchor="middle" x="163.5" y="-7" font-family="Helvetica,sans-Serif" font-size="10.00">Manager</text>
</a>
</g>
</g>
<!-- Node2 -->
<g id="Node000002" class="node">
<title>Node2</title>
<g id="a_Node000002"><a xlink:title=" ">
<polygon fill="white" stroke="#666666" points="147,-118 0,-118 0,-77 147,-77 147,-118"/>
<text text-anchor="start" x="8" y="-106" font-family="Helvetica,sans-Serif" font-size="10.00">std::shared_ptr&lt; mosaic</text>
<text text-anchor="start" x="8" y="-95" font-family="Helvetica,sans-Serif" font-size="10.00">::core_signaling::ISignaling</text>
<text text-anchor="middle" x="73.5" y="-84" font-family="Helvetica,sans-Serif" font-size="10.00">Client &gt;</text>
</a>
</g>
</g>
<!-- Node2&#45;&gt;Node1 -->
<g id="edge1_Node000001_Node000002" class="edge">
<title>Node2&#45;&gt;Node1</title>
<g id="a_edge1_Node000001_Node000002"><a xlink:title=" ">
<path fill="none" stroke="#9a32cd" stroke-dasharray="5,2" d="M83.39,-67.37C86.75,-60.42 91.07,-53.44 96.5,-48 103.87,-40.61 113.29,-34.69 122.71,-30.05"/>
<polygon fill="#9a32cd" stroke="#9a32cd" points="80.12,-66.11 79.39,-76.68 86.55,-68.88 80.12,-66.11"/>
</a>
</g>
<text text-anchor="middle" x="139" y="-51" font-family="Helvetica,sans-Serif" font-size="10.00" fill="grey"> signaling_client_</text>
</g>
<!-- Node3 -->
<g id="Node000003" class="node">
<title>Node3</title>
<g id="a_Node000003"><a xlink:title=" ">
<polygon fill="white" stroke="#666666" points="132.5,-195 14.5,-195 14.5,-176 132.5,-176 132.5,-195"/>
<text text-anchor="middle" x="73.5" y="-183" font-family="Helvetica,sans-Serif" font-size="10.00">std::shared_ptr&lt; T &gt;</text>
</a>
</g>
</g>
<!-- Node3&#45;&gt;Node2 -->
<g id="edge2_Node000002_Node000003" class="edge">
<title>Node3&#45;&gt;Node2</title>
<g id="a_edge2_Node000002_Node000003"><a xlink:title=" ">
<path fill="none" stroke="orange" stroke-dasharray="5,2" d="M73.5,-165.57C73.5,-151.56 73.5,-132.52 73.5,-118.3"/>
<polygon fill="orange" stroke="orange" points="70,-165.94 73.5,-175.94 77,-165.94 70,-165.94"/>
</a>
</g>
<text text-anchor="start" x="73.5" y="-150" font-family="Helvetica,sans-Serif" font-size="10.00" fill="grey"> &lt; mosaic::core_signaling</text>
<text text-anchor="middle" x="137" y="-139" font-family="Helvetica,sans-Serif" font-size="10.00" fill="grey">::ISignalingClient &gt;</text>
</g>
<!-- Node4 -->
<g id="Node000004" class="node">
<title>Node4</title>
<g id="a_Node000004"><a xlink:title=" ">
<polygon fill="white" stroke="#666666" points="272,-107 165,-107 165,-88 272,-88 272,-107"/>
<text text-anchor="middle" x="218.5" y="-95" font-family="Helvetica,sans-Serif" font-size="10.00">std::shared_mutex</text>
</a>
</g>
</g>
<!-- Node4&#45;&gt;Node1 -->
<g id="edge3_Node000001_Node000004" class="edge">
<title>Node4&#45;&gt;Node1</title>
<g id="a_edge3_Node000001_Node000004"><a xlink:title=" ">
<path fill="none" stroke="#9a32cd" stroke-dasharray="5,2" d="M206.74,-79.29C196.75,-64.67 182.57,-43.92 173.21,-30.22"/>
<polygon fill="#9a32cd" stroke="#9a32cd" points="204.08,-81.6 212.61,-87.89 209.86,-77.65 204.08,-81.6"/>
</a>
</g>
<text text-anchor="middle" x="212.5" y="-51" font-family="Helvetica,sans-Serif" font-size="10.00" fill="grey"> mutex_</text>
</g>
</g>
</svg>
</svg>

<style type='text/css'>
<![CDATA[
[data-mouse-over-selected='false'] { opacity: 0.7; }
[data-mouse-over-selected='true']  { opacity: 1.0; }
]]>
</style>
<script type="application/ecmascript"><![CDATA[
document.addEventListener('DOMContentLoaded', (event) => {
  highlightEdges();
  highlightAdjacentNodes();
});
]]></script>
</svg>
