<?xml version="1.0" encoding="UTF-8" standalone="no"?>
<!DOCTYPE svg PUBLIC "-//W3C//DTD SVG 1.1//EN"
 "http://www.w3.org/Graphics/SVG/1.1/DTD/svg11.dtd">
<!-- Generated by graphviz version 2.43.0 (0)
 -->
<!-- Title: mosaic::core::PeerConnectionManager Pages: 1 -->
<svg width="719pt" height="108pt"
 viewBox="0.00 0.00 719.00 108.00" xmlns="http://www.w3.org/2000/svg" xmlns:xlink="http://www.w3.org/1999/xlink">
<g id="graph0" class="graph" transform="scale(1 1) rotate(0) translate(4 104)">
<title>mosaic::core::PeerConnectionManager</title>
<!-- Node1 -->
<g id="Node000001" class="node">
<title>Node1</title>
<g id="a_Node000001"><a xlink:title=" ">
<polygon fill="#999999" stroke="#666666" points="711,-65.5 550,-65.5 550,-35.5 711,-35.5 711,-65.5"/>
<text text-anchor="start" x="558" y="-53.5" font-family="Helvetica,sans-Serif" font-size="10.00">mosaic::core::PeerConnection</text>
<text text-anchor="middle" x="630.5" y="-42.5" font-family="Helvetica,sans-Serif" font-size="10.00">Manager</text>
</a>
</g>
</g>
<!-- Node2 -->
<g id="Node000002" class="node">
<title>Node2</title>
<g id="a_Node000002"><a xlink:title=" ">
<polygon fill="white" stroke="#666666" points="476.5,-100 320.5,-100 320.5,-59 476.5,-59 476.5,-100"/>
<text text-anchor="start" x="328.5" y="-88" font-family="Helvetica,sans-Serif" font-size="10.00">std::enable_shared</text>
<text text-anchor="start" x="328.5" y="-77" font-family="Helvetica,sans-Serif" font-size="10.00">_from_this&lt; PeerConnection</text>
<text text-anchor="middle" x="398.5" y="-66" font-family="Helvetica,sans-Serif" font-size="10.00">Manager &gt;</text>
</a>
</g>
</g>
<!-- Node2&#45;&gt;Node1 -->
<g id="edge1_Node000001_Node000002" class="edge">
<title>Node2&#45;&gt;Node1</title>
<g id="a_edge1_Node000001_Node000002"><a xlink:title=" ">
<path fill="none" stroke="#63b8ff" d="M486.76,-68.5C507.45,-65.89 529.4,-63.12 549.73,-60.56"/>
<polygon fill="#63b8ff" stroke="#63b8ff" points="486.21,-65.04 476.73,-69.76 487.09,-71.98 486.21,-65.04"/>
</a>
</g>
</g>
<!-- Node3 -->
<g id="Node000003" class="node">
<title>Node3</title>
<g id="a_Node000003"><a xlink:title=" ">
<polygon fill="white" stroke="#666666" points="483,-41 314,-41 314,0 483,0 483,-41"/>
<text text-anchor="start" x="322" y="-29" font-family="Helvetica,sans-Serif" font-size="10.00">std::shared_ptr&lt; mosaic</text>
<text text-anchor="start" x="322" y="-18" font-family="Helvetica,sans-Serif" font-size="10.00">::core::PeerConnectionManager</text>
<text text-anchor="middle" x="398.5" y="-7" font-family="Helvetica,sans-Serif" font-size="10.00">::Impl &gt;</text>
</a>
</g>
</g>
<!-- Node3&#45;&gt;Node1 -->
<g id="edge2_Node000001_Node000003" class="edge">
<title>Node3&#45;&gt;Node1</title>
<g id="a_edge2_Node000001_Node000003"><a xlink:title=" ">
<path fill="none" stroke="#9a32cd" stroke-dasharray="5,2" d="M493.21,-32.72C511.96,-35.17 531.49,-37.72 549.71,-40.09"/>
<polygon fill="#9a32cd" stroke="#9a32cd" points="493.55,-29.24 483.19,-31.42 492.65,-36.18 493.55,-29.24"/>
</a>
</g>
<text text-anchor="middle" x="516.5" y="-39.5" font-family="Helvetica,sans-Serif" font-size="10.00" fill="grey"> pImpl</text>
</g>
<!-- Node4 -->
<g id="Node000004" class="node">
<title>Node4</title>
<g id="a_Node000004"><a xlink:title=" ">
<polygon fill="white" stroke="#666666" points="118,-30 0,-30 0,-11 118,-11 118,-30"/>
<text text-anchor="middle" x="59" y="-18" font-family="Helvetica,sans-Serif" font-size="10.00">std::shared_ptr&lt; T &gt;</text>
</a>
</g>
</g>
<!-- Node4&#45;&gt;Node3 -->
<g id="edge3_Node000003_Node000004" class="edge">
<title>Node4&#45;&gt;Node3</title>
<g id="a_edge3_Node000003_Node000004"><a xlink:title=" ">
<path fill="none" stroke="orange" stroke-dasharray="5,2" d="M128.1,-20.5C181.64,-20.5 256.5,-20.5 313.72,-20.5"/>
<polygon fill="orange" stroke="orange" points="128.02,-17 118.02,-20.5 128.02,-24 128.02,-17"/>
</a>
</g>
<text text-anchor="start" x="136" y="-34.5" font-family="Helvetica,sans-Serif" font-size="10.00" fill="grey"> &lt; mosaic::core::PeerConnection</text>
<text text-anchor="middle" x="216" y="-23.5" font-family="Helvetica,sans-Serif" font-size="10.00" fill="grey">Manager::Impl &gt;</text>
</g>
</g>
</svg>
