<?xml version="1.0" encoding="UTF-8" standalone="no"?>
<!DOCTYPE svg PUBLIC "-//W3C//DTD SVG 1.1//EN"
 "http://www.w3.org/Graphics/SVG/1.1/DTD/svg11.dtd">
<!-- Generated by graphviz version 2.43.0 (0)
 -->
<!-- Title: mosaic::auto_configurer::AMTHandlerConfigurer Pages: 1 -->
<svg width="191pt" height="181pt"
 viewBox="0.00 0.00 191.00 181.00" xmlns="http://www.w3.org/2000/svg" xmlns:xlink="http://www.w3.org/1999/xlink">
<g id="graph0" class="graph" transform="scale(1 1) rotate(0) translate(4 177)">
<title>mosaic::auto_configurer::AMTHandlerConfigurer</title>
<!-- Node1 -->
<g id="Node000001" class="node">
<title>Node1</title>
<g id="a_Node000001"><a xlink:title=" ">
<polygon fill="#999999" stroke="#666666" points="158.5,-107 24.5,-107 24.5,-77 158.5,-77 158.5,-107"/>
<text text-anchor="start" x="32.5" y="-95" font-family="Helvetica,sans-Serif" font-size="10.00">mosaic::auto_configurer</text>
<text text-anchor="middle" x="91.5" y="-84" font-family="Helvetica,sans-Serif" font-size="10.00">::AMTHandlerConfigurer</text>
</a>
</g>
</g>
<!-- Node3 -->
<g id="Node000003" class="node">
<title>Node3</title>
<g id="a_Node000003"><a xlink:href="classmosaic_1_1auto__configurer_1_1impl_1_1OpenCVCameraMediaTrackConfigurer.html" target="_top" xlink:title=" ">
<polygon fill="white" stroke="#666666" points="183,-41 0,-41 0,0 183,0 183,-41"/>
<text text-anchor="start" x="8" y="-29" font-family="Helvetica,sans-Serif" font-size="10.00">mosaic::auto_configurer</text>
<text text-anchor="start" x="8" y="-18" font-family="Helvetica,sans-Serif" font-size="10.00">::impl::OpenCVCameraMediaTrack</text>
<text text-anchor="middle" x="91.5" y="-7" font-family="Helvetica,sans-Serif" font-size="10.00">Configurer</text>
</a>
</g>
</g>
<!-- Node1&#45;&gt;Node3 -->
<g id="edge2_Node000001_Node000003" class="edge">
<title>Node1&#45;&gt;Node3</title>
<g id="a_edge2_Node000001_Node000003"><a xlink:title=" ">
<path fill="none" stroke="#63b8ff" d="M91.5,-66.91C91.5,-58.47 91.5,-49.1 91.5,-41.07"/>
<polygon fill="#63b8ff" stroke="#63b8ff" points="88,-66.94 91.5,-76.94 95,-66.94 88,-66.94"/>
</a>
</g>
</g>
<!-- Node2 -->
<g id="Node000002" class="node">
<title>Node2</title>
<g id="a_Node000002"><a xlink:href="classmosaic_1_1auto__configurer_1_1IConfigurableConnector.html" target="_top" xlink:title=" ">
<polygon fill="white" stroke="#666666" points="160,-173 23,-173 23,-143 160,-143 160,-173"/>
<text text-anchor="start" x="31" y="-161" font-family="Helvetica,sans-Serif" font-size="10.00">mosaic::auto_configurer</text>
<text text-anchor="middle" x="91.5" y="-150" font-family="Helvetica,sans-Serif" font-size="10.00">::IConfigurableConnector</text>
</a>
</g>
</g>
<!-- Node2&#45;&gt;Node1 -->
<g id="edge1_Node000001_Node000002" class="edge">
<title>Node2&#45;&gt;Node1</title>
<g id="a_edge1_Node000001_Node000002"><a xlink:title=" ">
<path fill="none" stroke="#63b8ff" d="M91.5,-132.54C91.5,-123.96 91.5,-114.61 91.5,-107.16"/>
<polygon fill="#63b8ff" stroke="#63b8ff" points="88,-132.8 91.5,-142.8 95,-132.8 88,-132.8"/>
</a>
</g>
</g>
</g>
</svg>
