<?xml version="1.0" encoding="UTF-8" standalone="no"?>
<!DOCTYPE svg PUBLIC "-//W3C//DTD SVG 1.1//EN"
 "http://www.w3.org/Graphics/SVG/1.1/DTD/svg11.dtd">
<!-- Generated by graphviz version 2.43.0 (0)
 -->
<!-- Title: mosaic::security::AuthenticatorResolver Pages: 1 -->
<svg width="714pt" height="67pt"
 viewBox="0.00 0.00 714.00 67.00" xmlns="http://www.w3.org/2000/svg" xmlns:xlink="http://www.w3.org/1999/xlink">
<g id="graph0" class="graph" transform="scale(1 1) rotate(0) translate(4 63)">
<title>mosaic::security::AuthenticatorResolver</title>
<!-- Node1 -->
<g id="Node000001" class="node">
<title>Node1</title>
<g id="a_Node000001"><a xlink:title=" ">
<polygon fill="#999999" stroke="#666666" points="706,-41 538,-41 538,-11 706,-11 706,-41"/>
<text text-anchor="start" x="546" y="-29" font-family="Helvetica,sans-Serif" font-size="10.00">mosaic::security::Authenticator</text>
<text text-anchor="middle" x="622" y="-18" font-family="Helvetica,sans-Serif" font-size="10.00">Resolver</text>
</a>
</g>
</g>
<!-- Node2 -->
<g id="Node000002" class="node">
<title>Node2</title>
<g id="a_Node000002"><a xlink:title=" ">
<polygon fill="white" stroke="#666666" points="432,-52 283,-52 283,0 432,0 432,-52"/>
<text text-anchor="start" x="291" y="-40" font-family="Helvetica,sans-Serif" font-size="10.00">std::unordered_map</text>
<text text-anchor="start" x="291" y="-29" font-family="Helvetica,sans-Serif" font-size="10.00">&lt; AuthType, std::shared</text>
<text text-anchor="start" x="291" y="-18" font-family="Helvetica,sans-Serif" font-size="10.00">_ptr&lt; mosaic::security</text>
<text text-anchor="middle" x="357.5" y="-7" font-family="Helvetica,sans-Serif" font-size="10.00">::IAuthenticatorFactory &gt; &gt;</text>
</a>
</g>
</g>
<!-- Node2&#45;&gt;Node1 -->
<g id="edge1_Node000001_Node000002" class="edge">
<title>Node2&#45;&gt;Node1</title>
<g id="a_edge1_Node000001_Node000002"><a xlink:title=" ">
<path fill="none" stroke="#9a32cd" stroke-dasharray="5,2" d="M442.47,-26C472.88,-26 507.21,-26 537.57,-26"/>
<polygon fill="#9a32cd" stroke="#9a32cd" points="442.32,-22.5 432.32,-26 442.32,-29.5 442.32,-22.5"/>
</a>
</g>
<text text-anchor="middle" x="485" y="-29" font-family="Helvetica,sans-Serif" font-size="10.00" fill="grey"> factory_map_</text>
</g>
<!-- Node3 -->
<g id="Node000003" class="node">
<title>Node3</title>
<g id="a_Node000003"><a xlink:title=" ">
<polygon fill="white" stroke="#666666" points="114,-41 0,-41 0,-11 114,-11 114,-41"/>
<text text-anchor="start" x="8" y="-29" font-family="Helvetica,sans-Serif" font-size="10.00">std::unordered_map</text>
<text text-anchor="middle" x="57" y="-18" font-family="Helvetica,sans-Serif" font-size="10.00">&lt; K, T &gt;</text>
</a>
</g>
</g>
<!-- Node3&#45;&gt;Node2 -->
<g id="edge2_Node000002_Node000003" class="edge">
<title>Node3&#45;&gt;Node2</title>
<g id="a_edge2_Node000002_Node000003"><a xlink:title=" ">
<path fill="none" stroke="orange" stroke-dasharray="5,2" d="M124.21,-26C171.19,-26 234.26,-26 282.83,-26"/>
<polygon fill="orange" stroke="orange" points="124.15,-22.5 114.15,-26 124.15,-29.5 124.15,-22.5"/>
</a>
</g>
<text text-anchor="start" x="132" y="-51" font-family="Helvetica,sans-Serif" font-size="10.00" fill="grey"> &lt; AuthType, std::shared</text>
<text text-anchor="start" x="132" y="-40" font-family="Helvetica,sans-Serif" font-size="10.00" fill="grey">_ptr&lt; mosaic::security</text>
<text text-anchor="middle" x="198.5" y="-29" font-family="Helvetica,sans-Serif" font-size="10.00" fill="grey">::IAuthenticatorFactory &gt; &gt;</text>
</g>
</g>
</svg>
