<?xml version="1.0" encoding="UTF-8" standalone="no"?>
<!DOCTYPE svg PUBLIC "-//W3C//DTD SVG 1.1//EN"
 "http://www.w3.org/Graphics/SVG/1.1/DTD/svg11.dtd">
<!-- Generated by graphviz version 2.43.0 (0)
 -->
<!-- Title: src/config_reader/config_reader_resolver.cpp Pages: 1 -->
<svg width="585pt" height="357pt"
 viewBox="0.00 0.00 585.00 357.00" xmlns="http://www.w3.org/2000/svg" xmlns:xlink="http://www.w3.org/1999/xlink">
<g id="graph0" class="graph" transform="scale(1 1) rotate(0) translate(4 353)">
<title>src/config_reader/config_reader_resolver.cpp</title>
<!-- Node1 -->
<g id="Node000001" class="node">
<title>Node1</title>
<g id="a_Node000001"><a xlink:title=" ">
<polygon fill="#999999" stroke="#666666" points="523.5,-349 391.5,-349 391.5,-319 523.5,-319 523.5,-349"/>
<text text-anchor="start" x="399.5" y="-337" font-family="Helvetica,sans-Serif" font-size="10.00">src/config_reader/config</text>
<text text-anchor="middle" x="457.5" y="-326" font-family="Helvetica,sans-Serif" font-size="10.00">_reader_resolver.cpp</text>
</a>
</g>
</g>
<!-- Node2 -->
<g id="Node000002" class="node">
<title>Node2</title>
<g id="a_Node000002"><a xlink:href="config__reader__resolver_8h.html" target="_top" xlink:title=" ">
<polygon fill="white" stroke="#666666" points="307,-283 176,-283 176,-242 307,-242 307,-283"/>
<text text-anchor="start" x="184" y="-271" font-family="Helvetica,sans-Serif" font-size="10.00">mosaic/auto_configurer</text>
<text text-anchor="start" x="184" y="-260" font-family="Helvetica,sans-Serif" font-size="10.00">/config_reader/config</text>
<text text-anchor="middle" x="241.5" y="-249" font-family="Helvetica,sans-Serif" font-size="10.00">_reader_resolver.h</text>
</a>
</g>
</g>
<!-- Node1&#45;&gt;Node2 -->
<g id="edge1_Node000001_Node000002" class="edge">
<title>Node1&#45;&gt;Node2</title>
<g id="a_edge1_Node000001_Node000002"><a xlink:title=" ">
<path fill="none" stroke="#63b8ff" d="M413.79,-318.94C384.62,-309.55 345.61,-297 312.08,-286.21"/>
<polygon fill="#63b8ff" stroke="#63b8ff" points="312.92,-282.8 302.33,-283.07 310.78,-289.47 312.92,-282.8"/>
</a>
</g>
</g>
<!-- Node9 -->
<g id="Node000009" class="node">
<title>Node9</title>
<g id="a_Node000009"><a xlink:title=" ">
<polygon fill="#e0e0e0" stroke="#999999" points="453.5,-74 385.5,-74 385.5,-55 453.5,-55 453.5,-74"/>
<text text-anchor="middle" x="419.5" y="-62" font-family="Helvetica,sans-Serif" font-size="10.00">filesystem</text>
</a>
</g>
</g>
<!-- Node1&#45;&gt;Node9 -->
<g id="edge15_Node000001_Node000009" class="edge">
<title>Node1&#45;&gt;Node9</title>
<g id="a_edge15_Node000001_Node000009"><a xlink:title=" ">
<path fill="none" stroke="#63b8ff" d="M460.46,-318.86C466.05,-289.7 476.56,-220.93 464.5,-165 457.93,-134.54 441.25,-102.18 430.15,-82.92"/>
<polygon fill="#63b8ff" stroke="#63b8ff" points="433.04,-80.93 424.93,-74.11 427.02,-84.5 433.04,-80.93"/>
</a>
</g>
</g>
<!-- Node13 -->
<g id="Node000013" class="node">
<title>Node13</title>
<g id="a_Node000013"><a xlink:title=" ">
<polygon fill="#e0e0e0" stroke="#999999" points="577,-272 512,-272 512,-253 577,-253 577,-272"/>
<text text-anchor="middle" x="544.5" y="-260" font-family="Helvetica,sans-Serif" font-size="10.00">stdexcept</text>
</a>
</g>
</g>
<!-- Node1&#45;&gt;Node13 -->
<g id="edge16_Node000001_Node000013" class="edge">
<title>Node1&#45;&gt;Node13</title>
<g id="a_edge16_Node000001_Node000013"><a xlink:title=" ">
<path fill="none" stroke="#63b8ff" d="M475.11,-318.94C489.72,-307.26 510.45,-290.7 525.45,-278.72"/>
<polygon fill="#63b8ff" stroke="#63b8ff" points="527.9,-281.24 533.53,-272.27 523.53,-275.77 527.9,-281.24"/>
</a>
</g>
</g>
<!-- Node14 -->
<g id="Node000014" class="node">
<title>Node14</title>
<g id="a_Node000014"><a xlink:href="yaml__config__reader_8h.html" target="_top" xlink:title=" ">
<polygon fill="white" stroke="#666666" points="455.5,-206 307.5,-206 307.5,-165 455.5,-165 455.5,-206"/>
<text text-anchor="start" x="315.5" y="-194" font-family="Helvetica,sans-Serif" font-size="10.00">mosaic/auto_configurer</text>
<text text-anchor="start" x="315.5" y="-183" font-family="Helvetica,sans-Serif" font-size="10.00">/config_reader/yaml_config</text>
<text text-anchor="middle" x="381.5" y="-172" font-family="Helvetica,sans-Serif" font-size="10.00">_reader.h</text>
</a>
</g>
</g>
<!-- Node1&#45;&gt;Node14 -->
<g id="edge17_Node000001_Node000014" class="edge">
<title>Node1&#45;&gt;Node14</title>
<g id="a_edge17_Node000001_Node000014"><a xlink:title=" ">
<path fill="none" stroke="#63b8ff" d="M450.21,-318.95C437.89,-295.2 412.7,-246.63 396.48,-215.37"/>
<polygon fill="#63b8ff" stroke="#63b8ff" points="399.47,-213.54 391.76,-206.27 393.26,-216.76 399.47,-213.54"/>
</a>
</g>
</g>
<!-- Node3 -->
<g id="Node000003" class="node">
<title>Node3</title>
<g id="a_Node000003"><a xlink:title=" ">
<polygon fill="#e0e0e0" stroke="#999999" points="65,-195 0,-195 0,-176 65,-176 65,-195"/>
<text text-anchor="middle" x="32.5" y="-183" font-family="Helvetica,sans-Serif" font-size="10.00">functional</text>
</a>
</g>
</g>
<!-- Node2&#45;&gt;Node3 -->
<g id="edge2_Node000002_Node000003" class="edge">
<title>Node2&#45;&gt;Node3</title>
<g id="a_edge2_Node000002_Node000003"><a xlink:title=" ">
<path fill="none" stroke="#63b8ff" d="M177.05,-241.97C145.79,-232.02 107.87,-219.24 74.5,-206 69.49,-204.01 64.23,-201.73 59.18,-199.44"/>
<polygon fill="#63b8ff" stroke="#63b8ff" points="60.42,-196.16 49.88,-195.11 57.47,-202.5 60.42,-196.16"/>
</a>
</g>
</g>
<!-- Node4 -->
<g id="Node000004" class="node">
<title>Node4</title>
<g id="a_Node000004"><a xlink:title=" ">
<polygon fill="#e0e0e0" stroke="#999999" points="367.5,-129 309.5,-129 309.5,-110 367.5,-110 367.5,-129"/>
<text text-anchor="middle" x="338.5" y="-117" font-family="Helvetica,sans-Serif" font-size="10.00">memory</text>
</a>
</g>
</g>
<!-- Node2&#45;&gt;Node4 -->
<g id="edge3_Node000002_Node000004" class="edge">
<title>Node2&#45;&gt;Node4</title>
<g id="a_edge3_Node000002_Node000004"><a xlink:title=" ">
<path fill="none" stroke="#63b8ff" d="M251.57,-241.93C262.2,-221.92 279.97,-190.26 298.5,-165 305.78,-155.07 314.89,-144.8 322.58,-136.63"/>
<polygon fill="#63b8ff" stroke="#63b8ff" points="325.26,-138.89 329.67,-129.25 320.22,-134.04 325.26,-138.89"/>
</a>
</g>
</g>
<!-- Node5 -->
<g id="Node000005" class="node">
<title>Node5</title>
<g id="a_Node000005"><a xlink:href="config__reader__factory_8h.html" target="_top" xlink:title=" ">
<polygon fill="white" stroke="#666666" points="213.5,-195 83.5,-195 83.5,-176 213.5,-176 213.5,-195"/>
<text text-anchor="middle" x="148.5" y="-183" font-family="Helvetica,sans-Serif" font-size="10.00">config_reader_factory.h</text>
</a>
</g>
</g>
<!-- Node2&#45;&gt;Node5 -->
<g id="edge4_Node000002_Node000005" class="edge">
<title>Node2&#45;&gt;Node5</title>
<g id="a_edge4_Node000002_Node000005"><a xlink:title=" ">
<path fill="none" stroke="#63b8ff" d="M217.07,-241.79C201.56,-229.29 181.78,-213.34 167.46,-201.79"/>
<polygon fill="#63b8ff" stroke="#63b8ff" points="169.31,-198.79 159.33,-195.24 164.92,-204.24 169.31,-198.79"/>
</a>
</g>
</g>
<!-- Node8 -->
<g id="Node000008" class="node">
<title>Node8</title>
<g id="a_Node000008"><a xlink:href="i__config__reader_8h.html" target="_top" xlink:title=" ">
<polygon fill="white" stroke="#666666" points="291,-129 192,-129 192,-110 291,-110 291,-129"/>
<text text-anchor="middle" x="241.5" y="-117" font-family="Helvetica,sans-Serif" font-size="10.00">i_config_reader.h</text>
</a>
</g>
</g>
<!-- Node2&#45;&gt;Node8 -->
<g id="edge14_Node000002_Node000008" class="edge">
<title>Node2&#45;&gt;Node8</title>
<g id="a_edge14_Node000002_Node000008"><a xlink:title=" ">
<path fill="none" stroke="#63b8ff" d="M241.5,-241.89C241.5,-214.74 241.5,-166.01 241.5,-139.29"/>
<polygon fill="#63b8ff" stroke="#63b8ff" points="245,-139.02 241.5,-129.02 238,-139.02 245,-139.02"/>
</a>
</g>
</g>
<!-- Node5&#45;&gt;Node4 -->
<g id="edge5_Node000005_Node000004" class="edge">
<title>Node5&#45;&gt;Node4</title>
<g id="a_edge5_Node000005_Node000004"><a xlink:title=" ">
<path fill="none" stroke="#63b8ff" d="M174.12,-175.87C207.51,-164.62 266.01,-144.92 303.47,-132.3"/>
<polygon fill="#63b8ff" stroke="#63b8ff" points="304.62,-135.61 312.98,-129.1 302.38,-128.97 304.62,-135.61"/>
</a>
</g>
</g>
<!-- Node6 -->
<g id="Node000006" class="node">
<title>Node6</title>
<g id="a_Node000006"><a xlink:title=" ">
<polygon fill="#e0e0e0" stroke="#999999" points="186.5,-19 142.5,-19 142.5,0 186.5,0 186.5,-19"/>
<text text-anchor="middle" x="164.5" y="-7" font-family="Helvetica,sans-Serif" font-size="10.00">string</text>
</a>
</g>
</g>
<!-- Node5&#45;&gt;Node6 -->
<g id="edge6_Node000005_Node000006" class="edge">
<title>Node5&#45;&gt;Node6</title>
<g id="a_edge6_Node000005_Node000006"><a xlink:title=" ">
<path fill="none" stroke="#63b8ff" d="M149.32,-175.63C151.81,-148.52 159.37,-66.32 162.79,-29.13"/>
<polygon fill="#63b8ff" stroke="#63b8ff" points="166.27,-29.42 163.71,-19.14 159.3,-28.78 166.27,-29.42"/>
</a>
</g>
</g>
<!-- Node7 -->
<g id="Node000007" class="node">
<title>Node7</title>
<g id="a_Node000007"><a xlink:title=" ">
<polygon fill="#e0e0e0" stroke="#999999" points="123,-129 54,-129 54,-110 123,-110 123,-129"/>
<text text-anchor="middle" x="88.5" y="-117" font-family="Helvetica,sans-Serif" font-size="10.00">type_traits</text>
</a>
</g>
</g>
<!-- Node5&#45;&gt;Node7 -->
<g id="edge7_Node000005_Node000007" class="edge">
<title>Node5&#45;&gt;Node7</title>
<g id="a_edge7_Node000005_Node000007"><a xlink:title=" ">
<path fill="none" stroke="#63b8ff" d="M140.41,-175.87C131.07,-165.9 115.49,-149.29 103.84,-136.86"/>
<polygon fill="#63b8ff" stroke="#63b8ff" points="106.24,-134.31 96.85,-129.41 101.13,-139.09 106.24,-134.31"/>
</a>
</g>
</g>
<!-- Node5&#45;&gt;Node8 -->
<g id="edge8_Node000005_Node000008" class="edge">
<title>Node5&#45;&gt;Node8</title>
<g id="a_edge8_Node000005_Node000008"><a xlink:title=" ">
<path fill="none" stroke="#63b8ff" d="M161.04,-175.87C176.3,-165.37 202.27,-147.5 220.57,-134.9"/>
<polygon fill="#63b8ff" stroke="#63b8ff" points="222.61,-137.75 228.86,-129.2 218.64,-131.98 222.61,-137.75"/>
</a>
</g>
</g>
<!-- Node8&#45;&gt;Node9 -->
<g id="edge9_Node000008_Node000009" class="edge">
<title>Node8&#45;&gt;Node9</title>
<g id="a_edge9_Node000008_Node000009"><a xlink:title=" ">
<path fill="none" stroke="#63b8ff" d="M270.1,-109.98C300.11,-101.05 347.48,-86.94 380.82,-77.02"/>
<polygon fill="#63b8ff" stroke="#63b8ff" points="382.09,-80.29 390.68,-74.08 380.09,-73.58 382.09,-80.29"/>
</a>
</g>
</g>
<!-- Node10 -->
<g id="Node000010" class="node">
<title>Node10</title>
<g id="a_Node000010"><a xlink:href="configs__decl_8h.html" target="_top" xlink:title=" ">
<polygon fill="white" stroke="#666666" points="303.5,-74 179.5,-74 179.5,-55 303.5,-55 303.5,-74"/>
<text text-anchor="middle" x="241.5" y="-62" font-family="Helvetica,sans-Serif" font-size="10.00">mosaic/configs_decl.h</text>
</a>
</g>
</g>
<!-- Node8&#45;&gt;Node10 -->
<g id="edge10_Node000008_Node000010" class="edge">
<title>Node8&#45;&gt;Node10</title>
<g id="a_edge10_Node000008_Node000010"><a xlink:title=" ">
<path fill="none" stroke="#63b8ff" d="M241.5,-109.75C241.5,-102.8 241.5,-92.85 241.5,-84.13"/>
<polygon fill="#63b8ff" stroke="#63b8ff" points="245,-84.09 241.5,-74.09 238,-84.09 245,-84.09"/>
</a>
</g>
</g>
<!-- Node10&#45;&gt;Node6 -->
<g id="edge11_Node000010_Node000006" class="edge">
<title>Node10&#45;&gt;Node6</title>
<g id="a_edge11_Node000010_Node000006"><a xlink:title=" ">
<path fill="none" stroke="#63b8ff" d="M229.13,-54.98C217.41,-46.92 199.58,-34.65 185.61,-25.03"/>
<polygon fill="#63b8ff" stroke="#63b8ff" points="187.32,-21.96 177.1,-19.17 183.35,-27.72 187.32,-21.96"/>
</a>
</g>
</g>
<!-- Node11 -->
<g id="Node000011" class="node">
<title>Node11</title>
<g id="a_Node000011"><a xlink:title=" ">
<polygon fill="#e0e0e0" stroke="#999999" points="369,-19 276,-19 276,0 369,0 369,-19"/>
<text text-anchor="middle" x="322.5" y="-7" font-family="Helvetica,sans-Serif" font-size="10.00">unordered_map</text>
</a>
</g>
</g>
<!-- Node10&#45;&gt;Node11 -->
<g id="edge12_Node000010_Node000011" class="edge">
<title>Node10&#45;&gt;Node11</title>
<g id="a_edge12_Node000010_Node000011"><a xlink:title=" ">
<path fill="none" stroke="#63b8ff" d="M254.51,-54.98C266.96,-46.84 285.96,-34.41 300.71,-24.76"/>
<polygon fill="#63b8ff" stroke="#63b8ff" points="302.8,-27.57 309.25,-19.17 298.96,-21.72 302.8,-27.57"/>
</a>
</g>
</g>
<!-- Node12 -->
<g id="Node000012" class="node">
<title>Node12</title>
<g id="a_Node000012"><a xlink:title=" ">
<polygon fill="#e0e0e0" stroke="#999999" points="258,-19 211,-19 211,0 258,0 258,-19"/>
<text text-anchor="middle" x="234.5" y="-7" font-family="Helvetica,sans-Serif" font-size="10.00">vector</text>
</a>
</g>
</g>
<!-- Node10&#45;&gt;Node12 -->
<g id="edge13_Node000010_Node000012" class="edge">
<title>Node10&#45;&gt;Node12</title>
<g id="a_edge13_Node000010_Node000012"><a xlink:title=" ">
<path fill="none" stroke="#63b8ff" d="M240.34,-54.75C239.43,-47.8 238.11,-37.85 236.96,-29.13"/>
<polygon fill="#63b8ff" stroke="#63b8ff" points="240.41,-28.54 235.63,-19.09 233.47,-29.46 240.41,-28.54"/>
</a>
</g>
</g>
<!-- Node14&#45;&gt;Node4 -->
<g id="edge18_Node000014_Node000004" class="edge">
<title>Node14&#45;&gt;Node4</title>
<g id="a_edge18_Node000014_Node000004"><a xlink:title=" ">
<path fill="none" stroke="#63b8ff" d="M368.36,-164.95C362.55,-156.3 355.77,-146.2 350.14,-137.82"/>
<polygon fill="#63b8ff" stroke="#63b8ff" points="352.87,-135.61 344.39,-129.26 347.06,-139.51 352.87,-135.61"/>
</a>
</g>
</g>
<!-- Node14&#45;&gt;Node8 -->
<g id="edge19_Node000014_Node000008" class="edge">
<title>Node14&#45;&gt;Node8</title>
<g id="a_edge19_Node000014_Node000008"><a xlink:title=" ">
<path fill="none" stroke="#63b8ff" d="M338.73,-164.95C316.21,-154.65 289.22,-142.31 269.4,-133.25"/>
<polygon fill="#63b8ff" stroke="#63b8ff" points="270.84,-130.07 260.29,-129.09 267.93,-136.43 270.84,-130.07"/>
</a>
</g>
</g>
</g>
</svg>
