<?xml version="1.0" encoding="UTF-8" standalone="no"?>
<!DOCTYPE svg PUBLIC "-//W3C//DTD SVG 1.1//EN"
 "http://www.w3.org/Graphics/SVG/1.1/DTD/svg11.dtd">
<!-- Generated by graphviz version 2.43.0 (0)
 -->
<!-- Title: include/mosaic/auto_configurer/connector/configurable_connector_factory.h Pages: 1 -->
<!--zoomable 522 -->

<svg id="main" version="1.1" xmlns="http://www.w3.org/2000/svg" xmlns:xlink="http://www.w3.org/1999/xlink" xml:space="preserve" onload="init(evt)">
<style type="text/css"><![CDATA[
.node, .edge {opacity: 0.7;}
.node.selected, .edge.selected {opacity: 1;}
.edge:hover path { stroke: red; }
.edge:hover polygon { stroke: red; fill: red; }
]]></style>

<defs>
  <circle id="rim" cx="0" cy="0" r="7"/>
  <circle id="rim2" cx="0" cy="0" r="3.5"/>
  <g id="zoomPlus">
    <use xlink:href="#rim" fill="#404040"><set attributeName="fill" to="#808080" begin="zoomplus.mouseover" end="zoomplus.mouseout"/></use>
    <path d="M-4,0h8M0,-4v8" fill="none" stroke="white" stroke-width="1.5" pointer-events="none"/>
  </g>
  <g id="zoomMin">
    <use xlink:href="#rim" fill="#404040"><set attributeName="fill" to="#808080" begin="zoomminus.mouseover" end="zoomminus.mouseout"/></use>
    <path d="M-4,0h8" fill="none" stroke="white" stroke-width="1.5" pointer-events="none"/>
  </g>
  <g id="arrowUp" transform="translate(30 24)">
    <use xlink:href="#rim"/>
    <path pointer-events="none" fill="none" stroke="white" stroke-width="1.5" d="M0,-3.0v7 M-2.5,-0.5L0,-3.0L2.5,-0.5"/>
  </g>
  <g id="arrowRight" transform="rotate(90) translate(36 -43)">
    <use xlink:href="#rim"/>
    <path pointer-events="none" fill="none" stroke="white" stroke-width="1.5" d="M0,-3.0v7 M-2.5,-0.5L0,-3.0L2.5,-0.5"/>
  </g>
  <g id="arrowDown" transform="rotate(180) translate(-30 -48)">
    <use xlink:href="#rim"/>
    <path pointer-events="none" fill="none" stroke="white" stroke-width="1.5" d="M0,-3.0v7 M-2.5,-0.5L0,-3.0L2.5,-0.5"/>
  </g>
  <g id="arrowLeft" transform="rotate(270) translate(-36 17)">
    <use xlink:href="#rim"/>
    <path pointer-events="none" fill="none" stroke="white" stroke-width="1.5" d="M0,-3.0v7 M-2.5,-0.5L0,-3.0L2.5,-0.5"/>
  </g>
  <g id="resetDef">
    <use xlink:href="#rim2" fill="#404040"><set attributeName="fill" to="#808080" begin="reset.mouseover" end="reset.mouseout"/></use>
  </g>
</defs>
<script type="application/ecmascript">
var viewWidth = 1158;
var viewHeight = 522;
var sectionId = 'dynsection-0';
</script>
<script type="application/ecmascript" xlink:href="svg.min.js"/>
<svg id="graph" class="graph">
<g id="viewport">
<title>include/mosaic/auto_configurer/connector/configurable_connector_factory.h</title>
<!-- Node1 -->
<g id="Node000001" class="node">
<title>Node1</title>
<g id="a_Node000001"><a xlink:title=" ">
<polygon fill="#999999" stroke="#666666" points="362,-514 229,-514 229,-462 362,-462 362,-514"/>
<text text-anchor="start" x="237" y="-502" font-family="Helvetica,sans-Serif" font-size="10.00">include/mosaic/auto</text>
<text text-anchor="start" x="237" y="-491" font-family="Helvetica,sans-Serif" font-size="10.00">_configurer/connector</text>
<text text-anchor="start" x="237" y="-480" font-family="Helvetica,sans-Serif" font-size="10.00">/configurable_connector</text>
<text text-anchor="middle" x="295.5" y="-469" font-family="Helvetica,sans-Serif" font-size="10.00">_factory.h</text>
</a>
</g>
</g>
<!-- Node2 -->
<g id="Node000002" class="node">
<title>Node2</title>
<g id="a_Node000002"><a xlink:title=" ">
<polygon fill="#e0e0e0" stroke="#999999" points="362.5,-19 304.5,-19 304.5,0 362.5,0 362.5,-19"/>
<text text-anchor="middle" x="333.5" y="-7" font-family="Helvetica,sans-Serif" font-size="10.00">memory</text>
</a>
</g>
</g>
<!-- Node1&#45;&gt;Node2 -->
<g id="edge1_Node000001_Node000002" class="edge">
<title>Node1&#45;&gt;Node2</title>
<g id="a_edge1_Node000001_Node000002"><a xlink:title=" ">
<path fill="none" stroke="#63b8ff" d="M295.5,-461.59C295.5,-435.39 295.5,-393.34 295.5,-357 295.5,-357 295.5,-357 295.5,-135 295.5,-95.63 313.1,-52.18 324.34,-28.45"/>
<polygon fill="#63b8ff" stroke="#63b8ff" points="327.58,-29.8 328.84,-19.28 321.29,-26.71 327.58,-29.8"/>
</a>
</g>
</g>
<!-- Node3 -->
<g id="Node000003" class="node">
<title>Node3</title>
<g id="a_Node000003"><a xlink:title=" ">
<polygon fill="#e0e0e0" stroke="#999999" points="69,-19 0,-19 0,0 69,0 69,-19"/>
<text text-anchor="middle" x="34.5" y="-7" font-family="Helvetica,sans-Serif" font-size="10.00">type_traits</text>
</a>
</g>
</g>
<!-- Node1&#45;&gt;Node3 -->
<g id="edge2_Node000001_Node000003" class="edge">
<title>Node1&#45;&gt;Node3</title>
<g id="a_edge2_Node000001_Node000003"><a xlink:title=" ">
<path fill="none" stroke="#63b8ff" d="M228.82,-483.7C147.72,-475.67 21.5,-448.48 21.5,-357 21.5,-357 21.5,-357 21.5,-135 21.5,-97.29 27.47,-53.5 31.32,-29.2"/>
<polygon fill="#63b8ff" stroke="#63b8ff" points="34.79,-29.66 32.96,-19.22 27.89,-28.52 34.79,-29.66"/>
</a>
</g>
</g>
<!-- Node4 -->
<g id="Node000004" class="node">
<title>Node4</title>
<g id="a_Node000004"><a xlink:href="i__configurable__connector_8h.html" target="_top" xlink:title=" ">
<polygon fill="white" stroke="#666666" points="740.5,-426 594.5,-426 594.5,-407 740.5,-407 740.5,-426"/>
<text text-anchor="middle" x="667.5" y="-414" font-family="Helvetica,sans-Serif" font-size="10.00">i_configurable_connector.h</text>
</a>
</g>
</g>
<!-- Node1&#45;&gt;Node4 -->
<g id="edge3_Node000001_Node000004" class="edge">
<title>Node1&#45;&gt;Node4</title>
<g id="a_edge3_Node000001_Node000004"><a xlink:title=" ">
<path fill="none" stroke="#63b8ff" d="M362.01,-474.57C433.27,-461.26 545.12,-440.36 611.88,-427.89"/>
<polygon fill="#63b8ff" stroke="#63b8ff" points="612.6,-431.32 621.79,-426.04 611.32,-424.44 612.6,-431.32"/>
</a>
</g>
</g>
<!-- Node5 -->
<g id="Node000005" class="node">
<title>Node5</title>
<g id="a_Node000005"><a xlink:href="configs__decl_8h.html" target="_top" xlink:title=" ">
<polygon fill="white" stroke="#666666" points="1099.5,-79.5 975.5,-79.5 975.5,-60.5 1099.5,-60.5 1099.5,-79.5"/>
<text text-anchor="middle" x="1037.5" y="-67.5" font-family="Helvetica,sans-Serif" font-size="10.00">mosaic/configs_decl.h</text>
</a>
</g>
</g>
<!-- Node4&#45;&gt;Node5 -->
<g id="edge4_Node000004_Node000005" class="edge">
<title>Node4&#45;&gt;Node5</title>
<g id="a_edge4_Node000004_Node000005"><a xlink:title=" ">
<path fill="none" stroke="#63b8ff" d="M732.68,-406.96C834.87,-392.09 1025.3,-357.88 1065.5,-305 1115.6,-239.1 1069.02,-131.21 1047.29,-88.86"/>
<polygon fill="#63b8ff" stroke="#63b8ff" points="1050.25,-86.98 1042.48,-79.78 1044.07,-90.26 1050.25,-86.98"/>
</a>
</g>
</g>
<!-- Node9 -->
<g id="Node000009" class="node">
<title>Node9</title>
<g id="a_Node000009"><a xlink:href="mosaic__connector_8h.html" target="_top" xlink:title=" ">
<polygon fill="white" stroke="#666666" points="724.5,-371 610.5,-371 610.5,-341 724.5,-341 724.5,-371"/>
<text text-anchor="start" x="618.5" y="-359" font-family="Helvetica,sans-Serif" font-size="10.00">mosaic/core/mosaic</text>
<text text-anchor="middle" x="667.5" y="-348" font-family="Helvetica,sans-Serif" font-size="10.00">_connector.h</text>
</a>
</g>
</g>
<!-- Node4&#45;&gt;Node9 -->
<g id="edge8_Node000004_Node000009" class="edge">
<title>Node4&#45;&gt;Node9</title>
<g id="a_edge8_Node000004_Node000009"><a xlink:title=" ">
<path fill="none" stroke="#63b8ff" d="M667.5,-406.87C667.5,-400.11 667.5,-390.35 667.5,-381.26"/>
<polygon fill="#63b8ff" stroke="#63b8ff" points="671,-381.11 667.5,-371.11 664,-381.11 671,-381.11"/>
</a>
</g>
</g>
<!-- Node6 -->
<g id="Node000006" class="node">
<title>Node6</title>
<g id="a_Node000006"><a xlink:title=" ">
<polygon fill="#e0e0e0" stroke="#999999" points="609.5,-19 565.5,-19 565.5,0 609.5,0 609.5,-19"/>
<text text-anchor="middle" x="587.5" y="-7" font-family="Helvetica,sans-Serif" font-size="10.00">string</text>
</a>
</g>
</g>
<!-- Node5&#45;&gt;Node6 -->
<g id="edge5_Node000005_Node000006" class="edge">
<title>Node5&#45;&gt;Node6</title>
<g id="a_edge5_Node000005_Node000006"><a xlink:title=" ">
<path fill="none" stroke="#63b8ff" d="M997.05,-60.46C987.09,-58.51 976.43,-56.56 966.5,-55 838.79,-34.94 685.56,-19.61 619.92,-13.45"/>
<polygon fill="#63b8ff" stroke="#63b8ff" points="620.08,-9.95 609.8,-12.51 619.43,-16.92 620.08,-9.95"/>
</a>
</g>
</g>
<!-- Node7 -->
<g id="Node000007" class="node">
<title>Node7</title>
<g id="a_Node000007"><a xlink:title=" ">
<polygon fill="#e0e0e0" stroke="#999999" points="1084,-19 991,-19 991,0 1084,0 1084,-19"/>
<text text-anchor="middle" x="1037.5" y="-7" font-family="Helvetica,sans-Serif" font-size="10.00">unordered_map</text>
</a>
</g>
</g>
<!-- Node5&#45;&gt;Node7 -->
<g id="edge6_Node000005_Node000007" class="edge">
<title>Node5&#45;&gt;Node7</title>
<g id="a_edge6_Node000005_Node000007"><a xlink:title=" ">
<path fill="none" stroke="#63b8ff" d="M1037.5,-60.37C1037.5,-52.25 1037.5,-39.81 1037.5,-29.39"/>
<polygon fill="#63b8ff" stroke="#63b8ff" points="1041,-29.17 1037.5,-19.17 1034,-29.17 1041,-29.17"/>
</a>
</g>
</g>
<!-- Node8 -->
<g id="Node000008" class="node">
<title>Node8</title>
<g id="a_Node000008"><a xlink:title=" ">
<polygon fill="#e0e0e0" stroke="#999999" points="1150,-19 1103,-19 1103,0 1150,0 1150,-19"/>
<text text-anchor="middle" x="1126.5" y="-7" font-family="Helvetica,sans-Serif" font-size="10.00">vector</text>
</a>
</g>
</g>
<!-- Node5&#45;&gt;Node8 -->
<g id="edge7_Node000005_Node000008" class="edge">
<title>Node5&#45;&gt;Node8</title>
<g id="a_edge7_Node000005_Node000008"><a xlink:title=" ">
<path fill="none" stroke="#63b8ff" d="M1050.63,-60.37C1064.83,-51.04 1087.7,-36.01 1104.62,-24.88"/>
<polygon fill="#63b8ff" stroke="#63b8ff" points="1106.88,-27.58 1113.31,-19.17 1103.03,-21.74 1106.88,-27.58"/>
</a>
</g>
</g>
<!-- Node9&#45;&gt;Node2 -->
<g id="edge10_Node000009_Node000002" class="edge">
<title>Node9&#45;&gt;Node2</title>
<g id="a_edge10_Node000009_Node000002"><a xlink:title=" ">
<path fill="none" stroke="#63b8ff" d="M610.18,-353.54C529.54,-350.25 388.38,-339.58 352.5,-305 321.02,-274.67 333.5,-252.21 333.5,-208.5 333.5,-208.5 333.5,-208.5 333.5,-135 333.5,-97.49 333.5,-53.63 333.5,-29.26"/>
<polygon fill="#63b8ff" stroke="#63b8ff" points="337,-29.25 333.5,-19.25 330,-29.25 337,-29.25"/>
</a>
</g>
</g>
<!-- Node9&#45;&gt;Node6 -->
<g id="edge11_Node000009_Node000006" class="edge">
<title>Node9&#45;&gt;Node6</title>
<g id="a_edge11_Node000009_Node000006"><a xlink:title=" ">
<path fill="none" stroke="#63b8ff" d="M635.12,-340.86C595.86,-321.71 531.59,-283.44 504.5,-228 483.62,-185.27 489.45,-166.11 504.5,-121 517.51,-82.02 550.26,-45.74 570.52,-25.99"/>
<polygon fill="#63b8ff" stroke="#63b8ff" points="573,-28.46 577.85,-19.04 568.18,-23.38 573,-28.46"/>
</a>
</g>
</g>
<!-- Node10 -->
<g id="Node000010" class="node">
<title>Node10</title>
<g id="a_Node000010"><a xlink:title=" ">
<polygon fill="#e0e0e0" stroke="#999999" points="733.5,-294 695.5,-294 695.5,-275 733.5,-275 733.5,-294"/>
<text text-anchor="middle" x="714.5" y="-282" font-family="Helvetica,sans-Serif" font-size="10.00">map</text>
</a>
</g>
</g>
<!-- Node9&#45;&gt;Node10 -->
<g id="edge9_Node000009_Node000010" class="edge">
<title>Node9&#45;&gt;Node10</title>
<g id="a_edge9_Node000009_Node000010"><a xlink:title=" ">
<path fill="none" stroke="#63b8ff" d="M677.01,-340.94C684.46,-329.92 694.86,-314.54 702.82,-302.78"/>
<polygon fill="#63b8ff" stroke="#63b8ff" points="705.87,-304.51 708.57,-294.27 700.07,-300.59 705.87,-304.51"/>
</a>
</g>
</g>
<!-- Node11 -->
<g id="Node000011" class="node">
<title>Node11</title>
<g id="a_Node000011"><a xlink:href="connector__state__manager_8h.html" target="_top" xlink:title=" ">
<polygon fill="white" stroke="#666666" points="879,-299.5 752,-299.5 752,-269.5 879,-269.5 879,-299.5"/>
<text text-anchor="start" x="760" y="-287.5" font-family="Helvetica,sans-Serif" font-size="10.00">mosaic/core/connector</text>
<text text-anchor="middle" x="815.5" y="-276.5" font-family="Helvetica,sans-Serif" font-size="10.00">_state_manager.h</text>
</a>
</g>
</g>
<!-- Node9&#45;&gt;Node11 -->
<g id="edge12_Node000009_Node000011" class="edge">
<title>Node9&#45;&gt;Node11</title>
<g id="a_edge12_Node000009_Node000011"><a xlink:title=" ">
<path fill="none" stroke="#63b8ff" d="M697.45,-340.94C720.22,-330.24 751.73,-315.44 776.48,-303.83"/>
<polygon fill="#63b8ff" stroke="#63b8ff" points="778.03,-306.96 785.59,-299.54 775.06,-300.63 778.03,-306.96"/>
</a>
</g>
</g>
<!-- Node15 -->
<g id="Node000015" class="node">
<title>Node15</title>
<g id="a_Node000015"><a xlink:title=" ">
<polygon fill="#e0e0e0" stroke="#999999" points="761.5,-151 615.5,-151 615.5,-121 761.5,-121 761.5,-151"/>
<text text-anchor="start" x="623.5" y="-139" font-family="Helvetica,sans-Serif" font-size="10.00">mosaic/rtc/webrtc_forward</text>
<text text-anchor="middle" x="688.5" y="-128" font-family="Helvetica,sans-Serif" font-size="10.00">_decl.h</text>
</a>
</g>
</g>
<!-- Node9&#45;&gt;Node15 -->
<g id="edge47_Node000009_Node000015" class="edge">
<title>Node9&#45;&gt;Node15</title>
<g id="a_edge47_Node000009_Node000015"><a xlink:title=" ">
<path fill="none" stroke="#63b8ff" d="M668.88,-340.7C672.4,-304.12 681.77,-206.84 686.17,-161.24"/>
<polygon fill="#63b8ff" stroke="#63b8ff" points="689.67,-161.36 687.14,-151.07 682.7,-160.69 689.67,-161.36"/>
</a>
</g>
</g>
<!-- Node18 -->
<g id="Node000018" class="node">
<title>Node18</title>
<g id="a_Node000018"><a xlink:href="peer__connection__manager_8h.html" target="_top" xlink:title=" ">
<polygon fill="white" stroke="#666666" points="1056,-299.5 897,-299.5 897,-269.5 1056,-269.5 1056,-299.5"/>
<text text-anchor="start" x="905" y="-287.5" font-family="Helvetica,sans-Serif" font-size="10.00">mosaic/core/peer_connection</text>
<text text-anchor="middle" x="976.5" y="-276.5" font-family="Helvetica,sans-Serif" font-size="10.00">_manager.h</text>
</a>
</g>
</g>
<!-- Node9&#45;&gt;Node18 -->
<g id="edge25_Node000009_Node000018" class="edge">
<title>Node9&#45;&gt;Node18</title>
<g id="a_edge25_Node000009_Node000018"><a xlink:title=" ">
<path fill="none" stroke="#63b8ff" d="M724.48,-340.94C773.44,-329.58 844.41,-313.6 898.6,-301.71"/>
<polygon fill="#63b8ff" stroke="#63b8ff" points="899.5,-305.1 908.52,-299.54 898,-298.26 899.5,-305.1"/>
</a>
</g>
</g>
<!-- Node19 -->
<g id="Node000019" class="node">
<title>Node19</title>
<g id="a_Node000019"><a xlink:href="i__data__channel__handler_8h.html" target="_top" xlink:title=" ">
<polygon fill="white" stroke="#666666" points="499,-305 362,-305 362,-264 499,-264 499,-305"/>
<text text-anchor="start" x="370" y="-293" font-family="Helvetica,sans-Serif" font-size="10.00">mosaic/handlers/data</text>
<text text-anchor="start" x="370" y="-282" font-family="Helvetica,sans-Serif" font-size="10.00">_channel/i_data_channel</text>
<text text-anchor="middle" x="430.5" y="-271" font-family="Helvetica,sans-Serif" font-size="10.00">_handler.h</text>
</a>
</g>
</g>
<!-- Node9&#45;&gt;Node19 -->
<g id="edge30_Node000009_Node000019" class="edge">
<title>Node9&#45;&gt;Node19</title>
<g id="a_edge30_Node000009_Node000019"><a xlink:title=" ">
<path fill="none" stroke="#63b8ff" d="M619.54,-340.94C587.26,-331.47 543.99,-318.78 507,-307.93"/>
<polygon fill="#63b8ff" stroke="#63b8ff" points="507.83,-304.53 497.25,-305.07 505.86,-311.25 507.83,-304.53"/>
</a>
</g>
</g>
<!-- Node25 -->
<g id="Node000025" class="node">
<title>Node25</title>
<g id="a_Node000025"><a xlink:href="i__media__track__handler_8h.html" target="_top" xlink:title=" ">
<polygon fill="white" stroke="#666666" points="645,-228 514,-228 514,-187 645,-187 645,-228"/>
<text text-anchor="start" x="522" y="-216" font-family="Helvetica,sans-Serif" font-size="10.00">mosaic/handlers/media</text>
<text text-anchor="start" x="522" y="-205" font-family="Helvetica,sans-Serif" font-size="10.00">_track/i_media_track</text>
<text text-anchor="middle" x="579.5" y="-194" font-family="Helvetica,sans-Serif" font-size="10.00">_handler.h</text>
</a>
</g>
</g>
<!-- Node9&#45;&gt;Node25 -->
<g id="edge43_Node000009_Node000025" class="edge">
<title>Node9&#45;&gt;Node25</title>
<g id="a_edge43_Node000009_Node000025"><a xlink:title=" ">
<path fill="none" stroke="#63b8ff" d="M659.06,-340.95C644.73,-317.1 615.37,-268.21 596.6,-236.97"/>
<polygon fill="#63b8ff" stroke="#63b8ff" points="599.53,-235.04 591.38,-228.27 593.53,-238.65 599.53,-235.04"/>
</a>
</g>
</g>
<!-- Node11&#45;&gt;Node2 -->
<g id="edge13_Node000011_Node000002" class="edge">
<title>Node11&#45;&gt;Node2</title>
<g id="a_edge13_Node000011_Node000002"><a xlink:title=" ">
<path fill="none" stroke="#63b8ff" d="M765.81,-269.44C758.04,-267.47 750.08,-265.58 742.5,-264 637.77,-242.16 596.95,-281.84 504.5,-228 420.14,-178.87 361.95,-70.66 341.55,-28.15"/>
<polygon fill="#63b8ff" stroke="#63b8ff" points="344.69,-26.61 337.28,-19.04 338.35,-29.58 344.69,-26.61"/>
</a>
</g>
</g>
<!-- Node11&#45;&gt;Node6 -->
<g id="edge15_Node000011_Node000006" class="edge">
<title>Node11&#45;&gt;Node6</title>
<g id="a_edge15_Node000011_Node000006"><a xlink:title=" ">
<path fill="none" stroke="#63b8ff" d="M815.38,-269.07C814.37,-238.27 807.9,-165.28 770.5,-121 728.79,-71.63 659.15,-38.29 618.87,-22.02"/>
<polygon fill="#63b8ff" stroke="#63b8ff" points="620.13,-18.76 609.54,-18.35 617.56,-25.27 620.13,-18.76"/>
</a>
</g>
</g>
<!-- Node12 -->
<g id="Node000012" class="node">
<title>Node12</title>
<g id="a_Node000012"><a xlink:title=" ">
<polygon fill="#e0e0e0" stroke="#999999" points="787.5,-217 701.5,-217 701.5,-198 787.5,-198 787.5,-217"/>
<text text-anchor="middle" x="744.5" y="-205" font-family="Helvetica,sans-Serif" font-size="10.00">shared_mutex</text>
</a>
</g>
</g>
<!-- Node11&#45;&gt;Node12 -->
<g id="edge14_Node000011_Node000012" class="edge">
<title>Node11&#45;&gt;Node12</title>
<g id="a_edge14_Node000011_Node000012"><a xlink:title=" ">
<path fill="none" stroke="#63b8ff" d="M802.15,-269.39C790.17,-256.74 772.6,-238.18 760,-224.88"/>
<polygon fill="#63b8ff" stroke="#63b8ff" points="762.32,-222.23 752.9,-217.37 757.23,-227.04 762.32,-222.23"/>
</a>
</g>
</g>
<!-- Node13 -->
<g id="Node000013" class="node">
<title>Node13</title>
<g id="a_Node000013"><a xlink:href="i__signaling__client_8h.html" target="_top" xlink:title=" ">
<polygon fill="white" stroke="#666666" points="951,-222.5 844,-222.5 844,-192.5 951,-192.5 951,-222.5"/>
<text text-anchor="start" x="852" y="-210.5" font-family="Helvetica,sans-Serif" font-size="10.00">mosaic/signaling/i</text>
<text text-anchor="middle" x="897.5" y="-199.5" font-family="Helvetica,sans-Serif" font-size="10.00">_signaling_client.h</text>
</a>
</g>
</g>
<!-- Node11&#45;&gt;Node13 -->
<g id="edge16_Node000011_Node000013" class="edge">
<title>Node11&#45;&gt;Node13</title>
<g id="a_edge16_Node000011_Node000013"><a xlink:title=" ">
<path fill="none" stroke="#63b8ff" d="M830.92,-269.39C843.18,-258.18 860.51,-242.33 874.42,-229.61"/>
<polygon fill="#63b8ff" stroke="#63b8ff" points="877.13,-231.88 882.15,-222.54 872.4,-226.71 877.13,-231.88"/>
</a>
</g>
</g>
<!-- Node14 -->
<g id="Node000014" class="node">
<title>Node14</title>
<g id="a_Node000014"><a xlink:title=" ">
<polygon fill="#e0e0e0" stroke="#999999" points="957.5,-85 839.5,-85 839.5,-55 957.5,-55 957.5,-85"/>
<text text-anchor="start" x="847.5" y="-73" font-family="Helvetica,sans-Serif" font-size="10.00">mosaic/json_forward</text>
<text text-anchor="middle" x="898.5" y="-62" font-family="Helvetica,sans-Serif" font-size="10.00">_decl.h</text>
</a>
</g>
</g>
<!-- Node13&#45;&gt;Node14 -->
<g id="edge17_Node000013_Node000014" class="edge">
<title>Node13&#45;&gt;Node14</title>
<g id="a_edge17_Node000013_Node000014"><a xlink:title=" ">
<path fill="none" stroke="#63b8ff" d="M924.92,-192.5C940.21,-183.05 957.87,-169.02 966.5,-151 972.26,-138.97 972.52,-132.9 966.5,-121 960.17,-108.5 949.09,-98.36 937.68,-90.56"/>
<polygon fill="#63b8ff" stroke="#63b8ff" points="939.29,-87.44 928.96,-85.06 935.55,-93.36 939.29,-87.44"/>
</a>
</g>
</g>
<!-- Node13&#45;&gt;Node15 -->
<g id="edge18_Node000013_Node000015" class="edge">
<title>Node13&#45;&gt;Node15</title>
<g id="a_edge18_Node000013_Node000015"><a xlink:title=" ">
<path fill="none" stroke="#63b8ff" d="M855.21,-192.44C822.06,-181.41 775.79,-166.03 740.4,-154.26"/>
<polygon fill="#63b8ff" stroke="#63b8ff" points="741.32,-150.88 730.73,-151.04 739.12,-157.52 741.32,-150.88"/>
</a>
</g>
</g>
<!-- Node16 -->
<g id="Node000016" class="node">
<title>Node16</title>
<g id="a_Node000016"><a xlink:href="i__mosaic__authenticator_8h.html" target="_top" xlink:title=" ">
<polygon fill="white" stroke="#666666" points="957.5,-151 817.5,-151 817.5,-121 957.5,-121 957.5,-151"/>
<text text-anchor="start" x="825.5" y="-139" font-family="Helvetica,sans-Serif" font-size="10.00">mosaic/security/i_mosaic</text>
<text text-anchor="middle" x="887.5" y="-128" font-family="Helvetica,sans-Serif" font-size="10.00">_authenticator.h</text>
</a>
</g>
</g>
<!-- Node13&#45;&gt;Node16 -->
<g id="edge19_Node000013_Node000016" class="edge">
<title>Node13&#45;&gt;Node16</title>
<g id="a_edge19_Node000013_Node000016"><a xlink:title=" ">
<path fill="none" stroke="#63b8ff" d="M895.48,-192.44C894.19,-183.49 892.49,-171.66 890.99,-161.23"/>
<polygon fill="#63b8ff" stroke="#63b8ff" points="894.41,-160.44 889.52,-151.04 887.48,-161.44 894.41,-160.44"/>
</a>
</g>
</g>
<!-- Node16&#45;&gt;Node2 -->
<g id="edge20_Node000016_Node000002" class="edge">
<title>Node16&#45;&gt;Node2</title>
<g id="a_edge20_Node000016_Node000002"><a xlink:title=" ">
<path fill="none" stroke="#63b8ff" d="M825.03,-120.96C709.92,-95.09 467.49,-40.61 372.68,-19.3"/>
<polygon fill="#63b8ff" stroke="#63b8ff" points="373.18,-15.83 362.65,-17.05 371.64,-22.66 373.18,-15.83"/>
</a>
</g>
</g>
<!-- Node16&#45;&gt;Node5 -->
<g id="edge23_Node000016_Node000005" class="edge">
<title>Node16&#45;&gt;Node5</title>
<g id="a_edge23_Node000016_Node000005"><a xlink:title=" ">
<path fill="none" stroke="#63b8ff" d="M920.42,-120.95C946.61,-109.78 982.92,-94.29 1008.13,-83.53"/>
<polygon fill="#63b8ff" stroke="#63b8ff" points="1009.71,-86.66 1017.54,-79.52 1006.97,-80.22 1009.71,-86.66"/>
</a>
</g>
</g>
<!-- Node16&#45;&gt;Node14 -->
<g id="edge24_Node000016_Node000014" class="edge">
<title>Node16&#45;&gt;Node14</title>
<g id="a_edge24_Node000016_Node000014"><a xlink:title=" ">
<path fill="none" stroke="#63b8ff" d="M889.94,-120.8C891.24,-113.26 892.87,-103.78 894.35,-95.13"/>
<polygon fill="#63b8ff" stroke="#63b8ff" points="897.82,-95.61 896.07,-85.16 890.92,-94.43 897.82,-95.61"/>
</a>
</g>
</g>
<!-- Node17 -->
<g id="Node000017" class="node">
<title>Node17</title>
<g id="a_Node000017"><a xlink:href="auth__type_8h.html" target="_top" xlink:title=" ">
<polygon fill="white" stroke="#666666" points="821.5,-79.5 747.5,-79.5 747.5,-60.5 821.5,-60.5 821.5,-79.5"/>
<text text-anchor="middle" x="784.5" y="-67.5" font-family="Helvetica,sans-Serif" font-size="10.00">auth_type.h</text>
</a>
</g>
</g>
<!-- Node16&#45;&gt;Node17 -->
<g id="edge21_Node000016_Node000017" class="edge">
<title>Node16&#45;&gt;Node17</title>
<g id="a_edge21_Node000016_Node000017"><a xlink:title=" ">
<path fill="none" stroke="#63b8ff" d="M864.9,-120.95C847.71,-110.27 824.17,-95.65 807.01,-84.98"/>
<polygon fill="#63b8ff" stroke="#63b8ff" points="808.55,-81.82 798.21,-79.52 804.85,-87.77 808.55,-81.82"/>
</a>
</g>
</g>
<!-- Node17&#45;&gt;Node6 -->
<g id="edge22_Node000017_Node000006" class="edge">
<title>Node17&#45;&gt;Node6</title>
<g id="a_edge22_Node000017_Node000006"><a xlink:title=" ">
<path fill="none" stroke="#63b8ff" d="M755.85,-60.49C719.67,-49.75 657.56,-31.3 619.74,-20.08"/>
<polygon fill="#63b8ff" stroke="#63b8ff" points="620.35,-16.6 609.76,-17.11 618.35,-23.31 620.35,-16.6"/>
</a>
</g>
</g>
<!-- Node18&#45;&gt;Node5 -->
<g id="edge27_Node000018_Node000005" class="edge">
<title>Node18&#45;&gt;Node5</title>
<g id="a_edge27_Node000018_Node000005"><a xlink:title=" ">
<path fill="none" stroke="#63b8ff" d="M980.6,-269.23C991.34,-231.81 1020.3,-130.92 1032.24,-89.32"/>
<polygon fill="#63b8ff" stroke="#63b8ff" points="1035.62,-90.25 1035.01,-79.67 1028.89,-88.32 1035.62,-90.25"/>
</a>
</g>
</g>
<!-- Node18&#45;&gt;Node8 -->
<g id="edge26_Node000018_Node000008" class="edge">
<title>Node18&#45;&gt;Node8</title>
<g id="a_edge26_Node000018_Node000008"><a xlink:title=" ">
<path fill="none" stroke="#63b8ff" d="M988.7,-269.11C1014.67,-237.77 1075.69,-160.09 1108.5,-85 1116.4,-66.93 1121.18,-44.81 1123.81,-29.39"/>
<polygon fill="#63b8ff" stroke="#63b8ff" points="1127.34,-29.5 1125.42,-19.08 1120.42,-28.42 1127.34,-29.5"/>
</a>
</g>
</g>
<!-- Node18&#45;&gt;Node9 -->
<g id="edge28_Node000018_Node000009" class="edge">
<title>Node18&#45;&gt;Node9</title>
<g id="a_edge28_Node000018_Node000009"><a xlink:title=" ">
<path fill="none" stroke="#63b8ff" d="M919.63,-299.54C867.41,-311.65 790.1,-329.03 734.83,-341.1"/>
<polygon fill="#63b8ff" stroke="#63b8ff" points="733.8,-337.74 724.77,-343.29 735.29,-344.58 733.8,-337.74"/>
</a>
</g>
</g>
<!-- Node18&#45;&gt;Node13 -->
<g id="edge29_Node000018_Node000013" class="edge">
<title>Node18&#45;&gt;Node13</title>
<g id="a_edge29_Node000018_Node000013"><a xlink:title=" ">
<path fill="none" stroke="#63b8ff" d="M961.64,-269.39C949.83,-258.18 933.14,-242.33 919.74,-229.61"/>
<polygon fill="#63b8ff" stroke="#63b8ff" points="921.95,-226.89 912.29,-222.54 917.14,-231.97 921.95,-226.89"/>
</a>
</g>
</g>
<!-- Node19&#45;&gt;Node6 -->
<g id="edge31_Node000019_Node000006" class="edge">
<title>Node19&#45;&gt;Node6</title>
<g id="a_edge31_Node000019_Node000006"><a xlink:title=" ">
<path fill="none" stroke="#63b8ff" d="M428.09,-263.75C423.96,-220.6 420.38,-116.81 471.5,-55 492.25,-29.91 528.87,-18.93 555.42,-14.15"/>
<polygon fill="#63b8ff" stroke="#63b8ff" points="556.08,-17.59 565.4,-12.56 554.97,-10.68 556.08,-17.59"/>
</a>
</g>
</g>
<!-- Node19&#45;&gt;Node15 -->
<g id="edge42_Node000019_Node000015" class="edge">
<title>Node19&#45;&gt;Node15</title>
<g id="a_edge42_Node000019_Node000015"><a xlink:title=" ">
<path fill="none" stroke="#63b8ff" d="M440.5,-263.74C452.65,-241.72 475.22,-206.64 504.5,-187 534.27,-167.03 571.78,-155 605.16,-147.78"/>
<polygon fill="#63b8ff" stroke="#63b8ff" points="606.27,-151.12 615.37,-145.69 604.87,-144.27 606.27,-151.12"/>
</a>
</g>
</g>
<!-- Node20 -->
<g id="Node000020" class="node">
<title>Node20</title>
<g id="a_Node000020"><a xlink:href="log_8h.html" target="_top" xlink:title=" ">
<polygon fill="white" stroke="#666666" points="241,-217 128,-217 128,-198 241,-198 241,-217"/>
<text text-anchor="middle" x="184.5" y="-205" font-family="Helvetica,sans-Serif" font-size="10.00">mosaic/logger/log.h</text>
</a>
</g>
</g>
<!-- Node19&#45;&gt;Node20 -->
<g id="edge32_Node000019_Node000020" class="edge">
<title>Node19&#45;&gt;Node20</title>
<g id="a_edge32_Node000019_Node000020"><a xlink:title=" ">
<path fill="none" stroke="#63b8ff" d="M366.51,-263.99C320.77,-250.05 260.76,-231.75 222.41,-220.06"/>
<polygon fill="#63b8ff" stroke="#63b8ff" points="223.25,-216.66 212.67,-217.09 221.21,-223.35 223.25,-216.66"/>
</a>
</g>
</g>
<!-- Node21 -->
<g id="Node000021" class="node">
<title>Node21</title>
<g id="a_Node000021"><a xlink:href="i__logger_8h.html" target="_top" xlink:title=" ">
<polygon fill="white" stroke="#666666" points="216.5,-145.5 152.5,-145.5 152.5,-126.5 216.5,-126.5 216.5,-145.5"/>
<text text-anchor="middle" x="184.5" y="-133.5" font-family="Helvetica,sans-Serif" font-size="10.00">i_logger.h</text>
</a>
</g>
</g>
<!-- Node20&#45;&gt;Node21 -->
<g id="edge33_Node000020_Node000021" class="edge">
<title>Node20&#45;&gt;Node21</title>
<g id="a_edge33_Node000020_Node000021"><a xlink:title=" ">
<path fill="none" stroke="#63b8ff" d="M184.5,-197.98C184.5,-187.56 184.5,-169.61 184.5,-155.88"/>
<polygon fill="#63b8ff" stroke="#63b8ff" points="188,-155.59 184.5,-145.59 181,-155.59 188,-155.59"/>
</a>
</g>
</g>
<!-- Node24 -->
<g id="Node000024" class="node">
<title>Node24</title>
<g id="a_Node000024"><a xlink:href="log__service_8h.html" target="_top" xlink:title=" ">
<polygon fill="white" stroke="#666666" points="131,-79.5 50,-79.5 50,-60.5 131,-60.5 131,-79.5"/>
<text text-anchor="middle" x="90.5" y="-67.5" font-family="Helvetica,sans-Serif" font-size="10.00">log_service.h</text>
</a>
</g>
</g>
<!-- Node20&#45;&gt;Node24 -->
<g id="edge41_Node000020_Node000024" class="edge">
<title>Node20&#45;&gt;Node24</title>
<g id="a_edge41_Node000020_Node000024"><a xlink:title=" ">
<path fill="none" stroke="#63b8ff" d="M177.97,-197.95C169.76,-187.13 155.32,-167.88 143.5,-151 128.49,-129.55 111.93,-104.29 101.39,-87.98"/>
<polygon fill="#63b8ff" stroke="#63b8ff" points="104.29,-86.02 95.93,-79.5 98.4,-89.81 104.29,-86.02"/>
</a>
</g>
</g>
<!-- Node21&#45;&gt;Node6 -->
<g id="edge34_Node000021_Node000006" class="edge">
<title>Node21&#45;&gt;Node6</title>
<g id="a_edge34_Node000021_Node000006"><a xlink:title=" ">
<path fill="none" stroke="#63b8ff" d="M210.23,-126.46C255.33,-111.54 351.63,-79.97 433.5,-55 475.47,-42.2 524.16,-28.28 555.37,-19.48"/>
<polygon fill="#63b8ff" stroke="#63b8ff" points="556.57,-22.78 565.25,-16.71 554.68,-16.04 556.57,-22.78"/>
</a>
</g>
</g>
<!-- Node22 -->
<g id="Node000022" class="node">
<title>Node22</title>
<g id="a_Node000022"><a xlink:title=" ">
<polygon fill="#e0e0e0" stroke="#999999" points="267,-79.5 188,-79.5 188,-60.5 267,-60.5 267,-79.5"/>
<text text-anchor="middle" x="227.5" y="-67.5" font-family="Helvetica,sans-Serif" font-size="10.00">fmt/format.h</text>
</a>
</g>
</g>
<!-- Node21&#45;&gt;Node22 -->
<g id="edge35_Node000021_Node000022" class="edge">
<title>Node21&#45;&gt;Node22</title>
<g id="a_edge35_Node000021_Node000022"><a xlink:title=" ">
<path fill="none" stroke="#63b8ff" d="M190.3,-126.37C196.8,-116.69 207.52,-100.74 215.78,-88.44"/>
<polygon fill="#63b8ff" stroke="#63b8ff" points="218.85,-90.16 221.52,-79.91 213.03,-86.25 218.85,-90.16"/>
</a>
</g>
</g>
<!-- Node23 -->
<g id="Node000023" class="node">
<title>Node23</title>
<g id="a_Node000023"><a xlink:href="log__level_8h.html" target="_top" xlink:title=" ">
<polygon fill="white" stroke="#666666" points="169.5,-19 99.5,-19 99.5,0 169.5,0 169.5,-19"/>
<text text-anchor="middle" x="134.5" y="-7" font-family="Helvetica,sans-Serif" font-size="10.00">log_level.h</text>
</a>
</g>
</g>
<!-- Node21&#45;&gt;Node23 -->
<g id="edge36_Node000021_Node000023" class="edge">
<title>Node21&#45;&gt;Node23</title>
<g id="a_edge36_Node000021_Node000023"><a xlink:title=" ">
<path fill="none" stroke="#63b8ff" d="M181.06,-126.44C173,-106.36 152.72,-55.87 141.78,-28.62"/>
<polygon fill="#63b8ff" stroke="#63b8ff" points="144.94,-27.09 137.96,-19.12 138.44,-29.7 144.94,-27.09"/>
</a>
</g>
</g>
<!-- Node21&#45;&gt;Node24 -->
<g id="edge37_Node000021_Node000024" class="edge">
<title>Node21&#45;&gt;Node24</title>
<g id="a_edge37_Node000021_Node000024"><a xlink:title=" ">
<path fill="none" stroke="#63b8ff" d="M171.82,-126.37C156.41,-115.87 130.15,-98 111.65,-85.4"/>
<polygon fill="#63b8ff" stroke="#63b8ff" points="113.51,-82.43 103.28,-79.7 109.57,-88.22 113.51,-82.43"/>
</a>
</g>
</g>
<!-- Node24&#45;&gt;Node2 -->
<g id="edge38_Node000024_Node000002" class="edge">
<title>Node24&#45;&gt;Node2</title>
<g id="a_edge38_Node000024_Node000002"><a xlink:title=" ">
<path fill="none" stroke="#63b8ff" d="M125.83,-60.49C170.72,-49.69 247.92,-31.1 294.49,-19.89"/>
<polygon fill="#63b8ff" stroke="#63b8ff" points="295.32,-23.29 304.22,-17.55 293.68,-16.49 295.32,-23.29"/>
</a>
</g>
</g>
<!-- Node24&#45;&gt;Node3 -->
<g id="edge39_Node000024_Node000003" class="edge">
<title>Node24&#45;&gt;Node3</title>
<g id="a_edge39_Node000024_Node000003"><a xlink:title=" ">
<path fill="none" stroke="#63b8ff" d="M82.24,-60.37C73.72,-51.47 60.24,-37.39 49.77,-26.45"/>
<polygon fill="#63b8ff" stroke="#63b8ff" points="52.24,-23.97 42.8,-19.17 47.18,-28.81 52.24,-23.97"/>
</a>
</g>
</g>
<!-- Node24&#45;&gt;Node23 -->
<g id="edge40_Node000024_Node000023" class="edge">
<title>Node24&#45;&gt;Node23</title>
<g id="a_edge40_Node000024_Node000023"><a xlink:title=" ">
<path fill="none" stroke="#63b8ff" d="M96.99,-60.37C103.49,-51.73 113.66,-38.2 121.78,-27.42"/>
<polygon fill="#63b8ff" stroke="#63b8ff" points="124.77,-29.26 127.98,-19.17 119.17,-25.06 124.77,-29.26"/>
</a>
</g>
</g>
<!-- Node25&#45;&gt;Node6 -->
<g id="edge44_Node000025_Node000006" class="edge">
<title>Node25&#45;&gt;Node6</title>
<g id="a_edge44_Node000025_Node000006"><a xlink:title=" ">
<path fill="none" stroke="#63b8ff" d="M580.3,-186.99C581.84,-149.25 585.21,-66.67 586.73,-29.41"/>
<polygon fill="#63b8ff" stroke="#63b8ff" points="590.24,-29.15 587.15,-19.02 583.25,-28.87 590.24,-29.15"/>
</a>
</g>
</g>
<!-- Node25&#45;&gt;Node15 -->
<g id="edge46_Node000025_Node000015" class="edge">
<title>Node25&#45;&gt;Node15</title>
<g id="a_edge46_Node000025_Node000015"><a xlink:title=" ">
<path fill="none" stroke="#63b8ff" d="M610.15,-186.96C624.96,-177.51 642.7,-166.2 657.55,-156.74"/>
<polygon fill="#63b8ff" stroke="#63b8ff" points="659.82,-159.44 666.37,-151.11 656.05,-153.54 659.82,-159.44"/>
</a>
</g>
</g>
<!-- Node26 -->
<g id="Node000026" class="node">
<title>Node26</title>
<g id="a_Node000026"><a xlink:title=" ">
<polygon fill="#e0e0e0" stroke="#999999" points="559,-145.5 514,-145.5 514,-126.5 559,-126.5 559,-145.5"/>
<text text-anchor="middle" x="536.5" y="-133.5" font-family="Helvetica,sans-Serif" font-size="10.00">utility</text>
</a>
</g>
</g>
<!-- Node25&#45;&gt;Node26 -->
<g id="edge45_Node000025_Node000026" class="edge">
<title>Node25&#45;&gt;Node26</title>
<g id="a_edge45_Node000025_Node000026"><a xlink:title=" ">
<path fill="none" stroke="#63b8ff" d="M567.29,-186.77C560.97,-176.55 553.32,-164.19 547.23,-154.34"/>
<polygon fill="#63b8ff" stroke="#63b8ff" points="550.19,-152.48 541.96,-145.82 544.24,-156.17 550.19,-152.48"/>
</a>
</g>
</g>
</g>
</svg>

<g id="navigator" transform="translate(0 0)" fill="#404254">
  <rect fill="#f2f5e9" fill-opacity="0.5" stroke="#606060" stroke-width=".5" x="0" y="0" width="60" height="60"/>
  <use id="zoomplus" xlink:href="#zoomPlus" x="17" y="9" onmousedown="handleZoom(evt,'in')"/>
  <use id="zoomminus" xlink:href="#zoomMin" x="42" y="9" onmousedown="handleZoom(evt,'out')"/>
  <use id="reset" xlink:href="#resetDef" x="30" y="36" onmousedown="handleReset()"/>
   <use id="arrowup" xlink:href="#arrowUp" x="0" y="0" onmousedown="handlePan(0,-1)"/>
  <use id="arrowright" xlink:href="#arrowRight" x="0" y="0" onmousedown="handlePan(1,0)"/>
  <use id="arrowdown" xlink:href="#arrowDown" x="0" y="0" onmousedown="handlePan(0,1)"/>
  <use id="arrowleft" xlink:href="#arrowLeft" x="0" y="0" onmousedown="handlePan(-1,0)"/>
</g>
<svg viewBox="0 0 15 15" width="100%" height="30px" preserveAspectRatio="xMaxYMin meet">
 <g id="arrow_out" transform="scale(0.3 0.3)">
  <a xlink:href="configurable__connector__factory_8h__incl_org.svg" target="_base">
   <rect id="button" ry="5" rx="5" y="6" x="6" height="38" width="38"
        fill="#f2f5e9" fill-opacity="0.5" stroke="#606060" stroke-width="1.0"/>
   <path id="arrow"
     d="M 11.500037,31.436501 C 11.940474,20.09759 22.043105,11.32322 32.158766,21.979434 L 37.068811,17.246167 C 37.068811,17.246167 37.088388,32 37.088388,32 L 22.160133,31.978069 C 22.160133,31.978069 26.997745,27.140456 26.997745,27.140456 C 18.528582,18.264221 13.291696,25.230495 11.500037,31.436501 z"
     style="fill:#404040;"/>
  </a>
 </g>
</svg>

<style type='text/css'>
<![CDATA[
[data-mouse-over-selected='false'] { opacity: 0.7; }
[data-mouse-over-selected='true']  { opacity: 1.0; }
]]>
</style>
<script type="application/ecmascript"><![CDATA[
document.addEventListener('DOMContentLoaded', (event) => {
  highlightEdges();
  highlightAdjacentNodes();
});
]]></script>
</svg>
