<?xml version="1.0" encoding="UTF-8" standalone="no"?>
<!DOCTYPE svg PUBLIC "-//W3C//DTD SVG 1.1//EN"
 "http://www.w3.org/Graphics/SVG/1.1/DTD/svg11.dtd">
<!-- Generated by graphviz version 2.43.0 (0)
 -->
<!-- Title: include/mosaic/auto_configurer/config_reader/config_reader_resolver.h Pages: 1 -->
<svg width="388pt" height="269pt"
 viewBox="0.00 0.00 388.00 269.00" xmlns="http://www.w3.org/2000/svg" xmlns:xlink="http://www.w3.org/1999/xlink">

<svg id="main" version="1.1" xmlns="http://www.w3.org/2000/svg" xmlns:xlink="http://www.w3.org/1999/xlink" xml:space="preserve" onload="init(evt)">
<style type="text/css"><![CDATA[
.node, .edge {opacity: 0.7;}
.node.selected, .edge.selected {opacity: 1;}
.edge:hover path { stroke: red; }
.edge:hover polygon { stroke: red; fill: red; }
]]></style>
<script type="application/ecmascript" xlink:href="svg.min.js"/>
<svg id="graph" class="graph">
<g id="graph0" class="graph" transform="scale(1 1) rotate(0) translate(4 265)">
<title>include/mosaic/auto_configurer/config_reader/config_reader_resolver.h</title>
<!-- Node1 -->
<g id="Node000001" class="node">
<title>Node1</title>
<g id="a_Node000001"><a xlink:title=" ">
<polygon fill="#999999" stroke="#666666" points="209.5,-261 69.5,-261 69.5,-220 209.5,-220 209.5,-261"/>
<text text-anchor="start" x="77.5" y="-249" font-family="Helvetica,sans-Serif" font-size="10.00">include/mosaic/auto</text>
<text text-anchor="start" x="77.5" y="-238" font-family="Helvetica,sans-Serif" font-size="10.00">_configurer/config_reader</text>
<text text-anchor="middle" x="139.5" y="-227" font-family="Helvetica,sans-Serif" font-size="10.00">/config_reader_resolver.h</text>
</a>
</g>
</g>
<!-- Node2 -->
<g id="Node000002" class="node">
<title>Node2</title>
<g id="a_Node000002"><a xlink:title=" ">
<polygon fill="#e0e0e0" stroke="#999999" points="65,-184 0,-184 0,-165 65,-165 65,-184"/>
<text text-anchor="middle" x="32.5" y="-172" font-family="Helvetica,sans-Serif" font-size="10.00">functional</text>
</a>
</g>
</g>
<!-- Node1&#45;&gt;Node2 -->
<g id="edge1_Node000001_Node000002" class="edge">
<title>Node1&#45;&gt;Node2</title>
<g id="a_edge1_Node000001_Node000002"><a xlink:title=" ">
<path fill="none" stroke="#63b8ff" d="M106.82,-219.95C90.22,-210.03 70.47,-198.21 55.5,-189.25"/>
<polygon fill="#63b8ff" stroke="#63b8ff" points="57.24,-186.22 46.86,-184.09 53.65,-192.23 57.24,-186.22"/>
</a>
</g>
</g>
<!-- Node3 -->
<g id="Node000003" class="node">
<title>Node3</title>
<g id="a_Node000003"><a xlink:title=" ">
<polygon fill="#e0e0e0" stroke="#999999" points="108.5,-129 50.5,-129 50.5,-110 108.5,-110 108.5,-129"/>
<text text-anchor="middle" x="79.5" y="-117" font-family="Helvetica,sans-Serif" font-size="10.00">memory</text>
</a>
</g>
</g>
<!-- Node1&#45;&gt;Node3 -->
<g id="edge2_Node000001_Node000003" class="edge">
<title>Node1&#45;&gt;Node3</title>
<g id="a_edge2_Node000001_Node000003"><a xlink:title=" ">
<path fill="none" stroke="#63b8ff" d="M129.59,-219.85C118.16,-197.17 99.51,-160.19 88.48,-138.31"/>
<polygon fill="#63b8ff" stroke="#63b8ff" points="91.5,-136.53 83.87,-129.18 85.25,-139.68 91.5,-136.53"/>
</a>
</g>
</g>
<!-- Node4 -->
<g id="Node000004" class="node">
<title>Node4</title>
<g id="a_Node000004"><a xlink:href="config__reader__factory_8h.html" target="_top" xlink:title=" ">
<polygon fill="white" stroke="#666666" points="251.5,-184 121.5,-184 121.5,-165 251.5,-165 251.5,-184"/>
<text text-anchor="middle" x="186.5" y="-172" font-family="Helvetica,sans-Serif" font-size="10.00">config_reader_factory.h</text>
</a>
</g>
</g>
<!-- Node1&#45;&gt;Node4 -->
<g id="edge3_Node000001_Node000004" class="edge">
<title>Node1&#45;&gt;Node4</title>
<g id="a_edge3_Node000001_Node000004"><a xlink:title=" ">
<path fill="none" stroke="#63b8ff" d="M153.86,-219.95C160.28,-211.2 167.78,-200.99 173.98,-192.56"/>
<polygon fill="#63b8ff" stroke="#63b8ff" points="176.97,-194.39 180.07,-184.26 171.33,-190.25 176.97,-194.39"/>
</a>
</g>
</g>
<!-- Node7 -->
<g id="Node000007" class="node">
<title>Node7</title>
<g id="a_Node000007"><a xlink:href="i__config__reader_8h.html" target="_top" xlink:title=" ">
<polygon fill="white" stroke="#666666" points="351,-129 252,-129 252,-110 351,-110 351,-129"/>
<text text-anchor="middle" x="301.5" y="-117" font-family="Helvetica,sans-Serif" font-size="10.00">i_config_reader.h</text>
</a>
</g>
</g>
<!-- Node1&#45;&gt;Node7 -->
<g id="edge13_Node000001_Node000007" class="edge">
<title>Node1&#45;&gt;Node7</title>
<g id="a_edge13_Node000001_Node000007"><a xlink:title=" ">
<path fill="none" stroke="#63b8ff" d="M199.45,-219.91C220.3,-211.14 242.86,-199.28 260.5,-184 275.03,-171.42 286.35,-152.45 293.38,-138.52"/>
<polygon fill="#63b8ff" stroke="#63b8ff" points="296.57,-139.96 297.73,-129.43 290.26,-136.94 296.57,-139.96"/>
</a>
</g>
</g>
<!-- Node4&#45;&gt;Node3 -->
<g id="edge4_Node000004_Node000003" class="edge">
<title>Node4&#45;&gt;Node3</title>
<g id="a_edge4_Node000004_Node000003"><a xlink:title=" ">
<path fill="none" stroke="#63b8ff" d="M169.31,-164.98C152.25,-156.54 125.87,-143.47 106.1,-133.68"/>
<polygon fill="#63b8ff" stroke="#63b8ff" points="107.52,-130.47 97,-129.17 104.41,-136.75 107.52,-130.47"/>
</a>
</g>
</g>
<!-- Node5 -->
<g id="Node000005" class="node">
<title>Node5</title>
<g id="a_Node000005"><a xlink:title=" ">
<polygon fill="#e0e0e0" stroke="#999999" points="203.5,-19 159.5,-19 159.5,0 203.5,0 203.5,-19"/>
<text text-anchor="middle" x="181.5" y="-7" font-family="Helvetica,sans-Serif" font-size="10.00">string</text>
</a>
</g>
</g>
<!-- Node4&#45;&gt;Node5 -->
<g id="edge5_Node000004_Node000005" class="edge">
<title>Node4&#45;&gt;Node5</title>
<g id="a_edge5_Node000004_Node000005"><a xlink:title=" ">
<path fill="none" stroke="#63b8ff" d="M178.02,-164.85C170.45,-156.47 159.9,-143.01 155.5,-129 145.65,-97.62 146.91,-86.75 155.5,-55 158.16,-45.19 163.57,-35.33 168.78,-27.39"/>
<polygon fill="#63b8ff" stroke="#63b8ff" points="171.73,-29.27 174.61,-19.07 166,-25.25 171.73,-29.27"/>
</a>
</g>
</g>
<!-- Node6 -->
<g id="Node000006" class="node">
<title>Node6</title>
<g id="a_Node000006"><a xlink:title=" ">
<polygon fill="#e0e0e0" stroke="#999999" points="234,-129 165,-129 165,-110 234,-110 234,-129"/>
<text text-anchor="middle" x="199.5" y="-117" font-family="Helvetica,sans-Serif" font-size="10.00">type_traits</text>
</a>
</g>
</g>
<!-- Node4&#45;&gt;Node6 -->
<g id="edge6_Node000004_Node000006" class="edge">
<title>Node4&#45;&gt;Node6</title>
<g id="a_edge6_Node000004_Node000006"><a xlink:title=" ">
<path fill="none" stroke="#63b8ff" d="M188.65,-164.75C190.37,-157.72 192.85,-147.62 195,-138.84"/>
<polygon fill="#63b8ff" stroke="#63b8ff" points="198.41,-139.63 197.39,-129.09 191.61,-137.97 198.41,-139.63"/>
</a>
</g>
</g>
<!-- Node4&#45;&gt;Node7 -->
<g id="edge7_Node000004_Node000007" class="edge">
<title>Node4&#45;&gt;Node7</title>
<g id="a_edge7_Node000004_Node000007"><a xlink:title=" ">
<path fill="none" stroke="#63b8ff" d="M204.98,-164.98C223.48,-156.46 252.18,-143.23 273.48,-133.41"/>
<polygon fill="#63b8ff" stroke="#63b8ff" points="275.07,-136.53 282.69,-129.17 272.14,-130.18 275.07,-136.53"/>
</a>
</g>
</g>
<!-- Node8 -->
<g id="Node000008" class="node">
<title>Node8</title>
<g id="a_Node000008"><a xlink:title=" ">
<polygon fill="#e0e0e0" stroke="#999999" points="232.5,-74 164.5,-74 164.5,-55 232.5,-55 232.5,-74"/>
<text text-anchor="middle" x="198.5" y="-62" font-family="Helvetica,sans-Serif" font-size="10.00">filesystem</text>
</a>
</g>
</g>
<!-- Node7&#45;&gt;Node8 -->
<g id="edge8_Node000007_Node000008" class="edge">
<title>Node7&#45;&gt;Node8</title>
<g id="a_edge8_Node000007_Node000008"><a xlink:title=" ">
<path fill="none" stroke="#63b8ff" d="M284.95,-109.98C268.61,-101.57 243.37,-88.59 224.37,-78.81"/>
<polygon fill="#63b8ff" stroke="#63b8ff" points="225.84,-75.63 215.35,-74.17 222.64,-81.86 225.84,-75.63"/>
</a>
</g>
</g>
<!-- Node9 -->
<g id="Node000009" class="node">
<title>Node9</title>
<g id="a_Node000009"><a xlink:href="configs__decl_8h.html" target="_top" xlink:title=" ">
<polygon fill="white" stroke="#666666" points="374.5,-74 250.5,-74 250.5,-55 374.5,-55 374.5,-74"/>
<text text-anchor="middle" x="312.5" y="-62" font-family="Helvetica,sans-Serif" font-size="10.00">mosaic/configs_decl.h</text>
</a>
</g>
</g>
<!-- Node7&#45;&gt;Node9 -->
<g id="edge9_Node000007_Node000009" class="edge">
<title>Node7&#45;&gt;Node9</title>
<g id="a_edge9_Node000007_Node000009"><a xlink:title=" ">
<path fill="none" stroke="#63b8ff" d="M303.32,-109.75C304.76,-102.8 306.82,-92.85 308.63,-84.13"/>
<polygon fill="#63b8ff" stroke="#63b8ff" points="312.11,-84.59 310.72,-74.09 305.26,-83.17 312.11,-84.59"/>
</a>
</g>
</g>
<!-- Node9&#45;&gt;Node5 -->
<g id="edge10_Node000009_Node000005" class="edge">
<title>Node9&#45;&gt;Node5</title>
<g id="a_edge10_Node000009_Node000005"><a xlink:title=" ">
<path fill="none" stroke="#63b8ff" d="M291.45,-54.98C270.09,-46.34 236.8,-32.87 212.44,-23.02"/>
<polygon fill="#63b8ff" stroke="#63b8ff" points="213.51,-19.68 202.93,-19.17 210.89,-26.17 213.51,-19.68"/>
</a>
</g>
</g>
<!-- Node10 -->
<g id="Node000010" class="node">
<title>Node10</title>
<g id="a_Node000010"><a xlink:title=" ">
<polygon fill="#e0e0e0" stroke="#999999" points="315,-19 222,-19 222,0 315,0 315,-19"/>
<text text-anchor="middle" x="268.5" y="-7" font-family="Helvetica,sans-Serif" font-size="10.00">unordered_map</text>
</a>
</g>
</g>
<!-- Node9&#45;&gt;Node10 -->
<g id="edge11_Node000009_Node000010" class="edge">
<title>Node9&#45;&gt;Node10</title>
<g id="a_edge11_Node000009_Node000010"><a xlink:title=" ">
<path fill="none" stroke="#63b8ff" d="M305.23,-54.75C298.96,-47.18 289.71,-36.05 282.07,-26.84"/>
<polygon fill="#63b8ff" stroke="#63b8ff" points="284.71,-24.55 275.63,-19.09 279.33,-29.02 284.71,-24.55"/>
</a>
</g>
</g>
<!-- Node11 -->
<g id="Node000011" class="node">
<title>Node11</title>
<g id="a_Node000011"><a xlink:title=" ">
<polygon fill="#e0e0e0" stroke="#999999" points="380,-19 333,-19 333,0 380,0 380,-19"/>
<text text-anchor="middle" x="356.5" y="-7" font-family="Helvetica,sans-Serif" font-size="10.00">vector</text>
</a>
</g>
</g>
<!-- Node9&#45;&gt;Node11 -->
<g id="edge12_Node000009_Node000011" class="edge">
<title>Node9&#45;&gt;Node11</title>
<g id="a_edge12_Node000009_Node000011"><a xlink:title=" ">
<path fill="none" stroke="#63b8ff" d="M319.77,-54.75C326.04,-47.18 335.29,-36.05 342.93,-26.84"/>
<polygon fill="#63b8ff" stroke="#63b8ff" points="345.67,-29.02 349.37,-19.09 340.29,-24.55 345.67,-29.02"/>
</a>
</g>
</g>
</g>
</svg>
</svg>

<style type='text/css'>
<![CDATA[
[data-mouse-over-selected='false'] { opacity: 0.7; }
[data-mouse-over-selected='true']  { opacity: 1.0; }
]]>
</style>
<script type="application/ecmascript"><![CDATA[
document.addEventListener('DOMContentLoaded', (event) => {
  highlightEdges();
  highlightAdjacentNodes();
});
]]></script>
</svg>
