<?xml version="1.0" encoding="UTF-8" standalone="no"?>
<!DOCTYPE svg PUBLIC "-//W3C//DTD SVG 1.1//EN"
 "http://www.w3.org/Graphics/SVG/1.1/DTD/svg11.dtd">
<!-- Generated by graphviz version 2.43.0 (0)
 -->
<!-- Title: include/mosaic/core/connector_state_manager.h Pages: 1 -->
<!--zoomable 291 -->

<svg id="main" version="1.1" xmlns="http://www.w3.org/2000/svg" xmlns:xlink="http://www.w3.org/1999/xlink" xml:space="preserve" onload="init(evt)">
<style type="text/css"><![CDATA[
.node, .edge {opacity: 0.7;}
.node.selected, .edge.selected {opacity: 1;}
.edge:hover path { stroke: red; }
.edge:hover polygon { stroke: red; fill: red; }
]]></style>

<defs>
  <circle id="rim" cx="0" cy="0" r="7"/>
  <circle id="rim2" cx="0" cy="0" r="3.5"/>
  <g id="zoomPlus">
    <use xlink:href="#rim" fill="#404040"><set attributeName="fill" to="#808080" begin="zoomplus.mouseover" end="zoomplus.mouseout"/></use>
    <path d="M-4,0h8M0,-4v8" fill="none" stroke="white" stroke-width="1.5" pointer-events="none"/>
  </g>
  <g id="zoomMin">
    <use xlink:href="#rim" fill="#404040"><set attributeName="fill" to="#808080" begin="zoomminus.mouseover" end="zoomminus.mouseout"/></use>
    <path d="M-4,0h8" fill="none" stroke="white" stroke-width="1.5" pointer-events="none"/>
  </g>
  <g id="arrowUp" transform="translate(30 24)">
    <use xlink:href="#rim"/>
    <path pointer-events="none" fill="none" stroke="white" stroke-width="1.5" d="M0,-3.0v7 M-2.5,-0.5L0,-3.0L2.5,-0.5"/>
  </g>
  <g id="arrowRight" transform="rotate(90) translate(36 -43)">
    <use xlink:href="#rim"/>
    <path pointer-events="none" fill="none" stroke="white" stroke-width="1.5" d="M0,-3.0v7 M-2.5,-0.5L0,-3.0L2.5,-0.5"/>
  </g>
  <g id="arrowDown" transform="rotate(180) translate(-30 -48)">
    <use xlink:href="#rim"/>
    <path pointer-events="none" fill="none" stroke="white" stroke-width="1.5" d="M0,-3.0v7 M-2.5,-0.5L0,-3.0L2.5,-0.5"/>
  </g>
  <g id="arrowLeft" transform="rotate(270) translate(-36 17)">
    <use xlink:href="#rim"/>
    <path pointer-events="none" fill="none" stroke="white" stroke-width="1.5" d="M0,-3.0v7 M-2.5,-0.5L0,-3.0L2.5,-0.5"/>
  </g>
  <g id="resetDef">
    <use xlink:href="#rim2" fill="#404040"><set attributeName="fill" to="#808080" begin="reset.mouseover" end="reset.mouseout"/></use>
  </g>
</defs>
<script type="application/ecmascript">
var viewWidth = 539;
var viewHeight = 291;
var sectionId = 'dynsection-0';
</script>
<script type="application/ecmascript" xlink:href="svg.min.js"/>
<svg id="graph" class="graph">
<g id="viewport">
<title>include/mosaic/core/connector_state_manager.h</title>
<!-- Node1 -->
<g id="Node000001" class="node">
<title>Node1</title>
<g id="a_Node000001"><a xlink:title=" ">
<polygon fill="#999999" stroke="#666666" points="193.67,-283 38.67,-283 38.67,-253 193.67,-253 193.67,-283"/>
<text text-anchor="start" x="46.67" y="-271" font-family="Helvetica,sans-Serif" font-size="10.00">include/mosaic/core</text>
<text text-anchor="middle" x="116.17" y="-260" font-family="Helvetica,sans-Serif" font-size="10.00">/connector_state_manager.h</text>
</a>
</g>
</g>
<!-- Node2 -->
<g id="Node000002" class="node">
<title>Node2</title>
<g id="a_Node000002"><a xlink:title=" ">
<polygon fill="#e0e0e0" stroke="#999999" points="96.17,-79.5 38.17,-79.5 38.17,-60.5 96.17,-60.5 96.17,-79.5"/>
<text text-anchor="middle" x="67.17" y="-67.5" font-family="Helvetica,sans-Serif" font-size="10.00">memory</text>
</a>
</g>
</g>
<!-- Node1&#45;&gt;Node2 -->
<g id="edge1_Node000001_Node000002" class="edge">
<title>Node1&#45;&gt;Node2</title>
<g id="a_edge1_Node000001_Node000002"><a xlink:title=" ">
<path fill="none" stroke="#63b8ff" d="M123.23,-252.74C130.26,-236.66 139.19,-209.79 133.17,-187 122.95,-148.39 96.57,-109.18 80.42,-87.69"/>
<polygon fill="#63b8ff" stroke="#63b8ff" points="83.08,-85.4 74.21,-79.61 77.53,-89.67 83.08,-85.4"/>
</a>
</g>
</g>
<!-- Node3 -->
<g id="Node000003" class="node">
<title>Node3</title>
<g id="a_Node000003"><a xlink:title=" ">
<polygon fill="#e0e0e0" stroke="#999999" points="124.17,-211.5 38.17,-211.5 38.17,-192.5 124.17,-192.5 124.17,-211.5"/>
<text text-anchor="middle" x="81.17" y="-199.5" font-family="Helvetica,sans-Serif" font-size="10.00">shared_mutex</text>
</a>
</g>
</g>
<!-- Node1&#45;&gt;Node3 -->
<g id="edge2_Node000001_Node000003" class="edge">
<title>Node1&#45;&gt;Node3</title>
<g id="a_edge2_Node000001_Node000003"><a xlink:title=" ">
<path fill="none" stroke="#63b8ff" d="M108.4,-252.8C103.21,-243.31 96.35,-230.76 90.81,-220.63"/>
<polygon fill="#63b8ff" stroke="#63b8ff" points="93.87,-218.94 86,-211.84 87.73,-222.3 93.87,-218.94"/>
</a>
</g>
</g>
<!-- Node4 -->
<g id="Node000004" class="node">
<title>Node4</title>
<g id="a_Node000004"><a xlink:title=" ">
<polygon fill="#e0e0e0" stroke="#999999" points="173.17,-19 129.17,-19 129.17,0 173.17,0 173.17,-19"/>
<text text-anchor="middle" x="151.17" y="-7" font-family="Helvetica,sans-Serif" font-size="10.00">string</text>
</a>
</g>
</g>
<!-- Node1&#45;&gt;Node4 -->
<g id="edge3_Node000001_Node000004" class="edge">
<title>Node1&#45;&gt;Node4</title>
<g id="a_edge3_Node000001_Node000004"><a xlink:title=" ">
<path fill="none" stroke="#63b8ff" d="M72.92,-252.95C56.18,-245.15 38.76,-233.59 29.17,-217 -6.9,-154.68 -12.11,-113.99 29.17,-55 49.31,-26.21 90.15,-15.98 119.01,-12.38"/>
<polygon fill="#63b8ff" stroke="#63b8ff" points="119.46,-15.86 129.05,-11.34 118.74,-8.89 119.46,-15.86"/>
</a>
</g>
</g>
<!-- Node5 -->
<g id="Node000005" class="node">
<title>Node5</title>
<g id="a_Node000005"><a xlink:href="i__signaling__client_8h.html" target="_top" xlink:title=" ">
<polygon fill="white" stroke="#666666" points="361.67,-217 254.67,-217 254.67,-187 361.67,-187 361.67,-217"/>
<text text-anchor="start" x="262.67" y="-205" font-family="Helvetica,sans-Serif" font-size="10.00">mosaic/signaling/i</text>
<text text-anchor="middle" x="308.17" y="-194" font-family="Helvetica,sans-Serif" font-size="10.00">_signaling_client.h</text>
</a>
</g>
</g>
<!-- Node1&#45;&gt;Node5 -->
<g id="edge4_Node000001_Node000005" class="edge">
<title>Node1&#45;&gt;Node5</title>
<g id="a_edge4_Node000001_Node000005"><a xlink:title=" ">
<path fill="none" stroke="#63b8ff" d="M158.3,-252.95C187.19,-243.33 225.69,-230.49 256.44,-220.24"/>
<polygon fill="#63b8ff" stroke="#63b8ff" points="257.75,-223.5 266.13,-217.01 255.53,-216.85 257.75,-223.5"/>
</a>
</g>
</g>
<!-- Node6 -->
<g id="Node000006" class="node">
<title>Node6</title>
<g id="a_Node000006"><a xlink:title=" ">
<polygon fill="#e0e0e0" stroke="#999999" points="466.17,-85 348.17,-85 348.17,-55 466.17,-55 466.17,-85"/>
<text text-anchor="start" x="356.17" y="-73" font-family="Helvetica,sans-Serif" font-size="10.00">mosaic/json_forward</text>
<text text-anchor="middle" x="407.17" y="-62" font-family="Helvetica,sans-Serif" font-size="10.00">_decl.h</text>
</a>
</g>
</g>
<!-- Node5&#45;&gt;Node6 -->
<g id="edge5_Node000005_Node000006" class="edge">
<title>Node5&#45;&gt;Node6</title>
<g id="a_edge5_Node000005_Node000006"><a xlink:title=" ">
<path fill="none" stroke="#63b8ff" d="M318.95,-186.84C336.13,-164.28 369.87,-119.98 390.27,-93.18"/>
<polygon fill="#63b8ff" stroke="#63b8ff" points="393.12,-95.22 396.4,-85.14 387.55,-90.98 393.12,-95.22"/>
</a>
</g>
</g>
<!-- Node7 -->
<g id="Node000007" class="node">
<title>Node7</title>
<g id="a_Node000007"><a xlink:title=" ">
<polygon fill="#e0e0e0" stroke="#999999" points="531.17,-151 385.17,-151 385.17,-121 531.17,-121 531.17,-151"/>
<text text-anchor="start" x="393.17" y="-139" font-family="Helvetica,sans-Serif" font-size="10.00">mosaic/rtc/webrtc_forward</text>
<text text-anchor="middle" x="458.17" y="-128" font-family="Helvetica,sans-Serif" font-size="10.00">_decl.h</text>
</a>
</g>
</g>
<!-- Node5&#45;&gt;Node7 -->
<g id="edge6_Node000005_Node000007" class="edge">
<title>Node5&#45;&gt;Node7</title>
<g id="a_edge6_Node000005_Node000007"><a xlink:title=" ">
<path fill="none" stroke="#63b8ff" d="M341.08,-186.95C363.06,-177.58 392.18,-165.16 415.87,-155.05"/>
<polygon fill="#63b8ff" stroke="#63b8ff" points="417.5,-158.16 425.32,-151.01 414.75,-151.72 417.5,-158.16"/>
</a>
</g>
</g>
<!-- Node8 -->
<g id="Node000008" class="node">
<title>Node8</title>
<g id="a_Node000008"><a xlink:href="i__mosaic__authenticator_8h.html" target="_top" xlink:title=" ">
<polygon fill="white" stroke="#666666" points="329.17,-151 189.17,-151 189.17,-121 329.17,-121 329.17,-151"/>
<text text-anchor="start" x="197.17" y="-139" font-family="Helvetica,sans-Serif" font-size="10.00">mosaic/security/i_mosaic</text>
<text text-anchor="middle" x="259.17" y="-128" font-family="Helvetica,sans-Serif" font-size="10.00">_authenticator.h</text>
</a>
</g>
</g>
<!-- Node5&#45;&gt;Node8 -->
<g id="edge7_Node000005_Node000008" class="edge">
<title>Node5&#45;&gt;Node8</title>
<g id="a_edge7_Node000005_Node000008"><a xlink:title=" ">
<path fill="none" stroke="#63b8ff" d="M297.29,-186.8C291.07,-178.68 283.14,-168.31 276.12,-159.15"/>
<polygon fill="#63b8ff" stroke="#63b8ff" points="278.87,-156.98 270.01,-151.16 273.31,-161.23 278.87,-156.98"/>
</a>
</g>
</g>
<!-- Node8&#45;&gt;Node2 -->
<g id="edge8_Node000008_Node000002" class="edge">
<title>Node8&#45;&gt;Node2</title>
<g id="a_edge8_Node000008_Node000002"><a xlink:title=" ">
<path fill="none" stroke="#63b8ff" d="M214.2,-120.91C183.4,-111.14 141.69,-97.65 105.17,-85 103.32,-84.36 101.43,-83.7 99.53,-83.02"/>
<polygon fill="#63b8ff" stroke="#63b8ff" points="100.62,-79.69 90.02,-79.58 98.24,-86.27 100.62,-79.69"/>
</a>
</g>
</g>
<!-- Node8&#45;&gt;Node6 -->
<g id="edge15_Node000008_Node000006" class="edge">
<title>Node8&#45;&gt;Node6</title>
<g id="a_edge15_Node000008_Node000006"><a xlink:title=" ">
<path fill="none" stroke="#63b8ff" d="M291.64,-120.95C313.33,-111.58 342.06,-99.16 365.43,-89.05"/>
<polygon fill="#63b8ff" stroke="#63b8ff" points="366.97,-92.19 374.76,-85.01 364.19,-85.77 366.97,-92.19"/>
</a>
</g>
</g>
<!-- Node9 -->
<g id="Node000009" class="node">
<title>Node9</title>
<g id="a_Node000009"><a xlink:href="auth__type_8h.html" target="_top" xlink:title=" ">
<polygon fill="white" stroke="#666666" points="188.17,-79.5 114.17,-79.5 114.17,-60.5 188.17,-60.5 188.17,-79.5"/>
<text text-anchor="middle" x="151.17" y="-67.5" font-family="Helvetica,sans-Serif" font-size="10.00">auth_type.h</text>
</a>
</g>
</g>
<!-- Node8&#45;&gt;Node9 -->
<g id="edge9_Node000008_Node000009" class="edge">
<title>Node8&#45;&gt;Node9</title>
<g id="a_edge9_Node000008_Node000009"><a xlink:title=" ">
<path fill="none" stroke="#63b8ff" d="M235.46,-120.95C217.27,-110.18 192.3,-95.38 174.27,-84.69"/>
<polygon fill="#63b8ff" stroke="#63b8ff" points="175.93,-81.6 165.54,-79.52 172.36,-87.63 175.93,-81.6"/>
</a>
</g>
</g>
<!-- Node10 -->
<g id="Node000010" class="node">
<title>Node10</title>
<g id="a_Node000010"><a xlink:href="configs__decl_8h.html" target="_top" xlink:title=" ">
<polygon fill="white" stroke="#666666" points="330.17,-79.5 206.17,-79.5 206.17,-60.5 330.17,-60.5 330.17,-79.5"/>
<text text-anchor="middle" x="268.17" y="-67.5" font-family="Helvetica,sans-Serif" font-size="10.00">mosaic/configs_decl.h</text>
</a>
</g>
</g>
<!-- Node8&#45;&gt;Node10 -->
<g id="edge11_Node000008_Node000010" class="edge">
<title>Node8&#45;&gt;Node10</title>
<g id="a_edge11_Node000008_Node000010"><a xlink:title=" ">
<path fill="none" stroke="#63b8ff" d="M261.16,-120.8C262.44,-111.7 264.12,-99.79 265.51,-89.9"/>
<polygon fill="#63b8ff" stroke="#63b8ff" points="268.99,-90.23 266.92,-79.84 262.06,-89.26 268.99,-90.23"/>
</a>
</g>
</g>
<!-- Node9&#45;&gt;Node4 -->
<g id="edge10_Node000009_Node000004" class="edge">
<title>Node9&#45;&gt;Node4</title>
<g id="a_edge10_Node000009_Node000004"><a xlink:title=" ">
<path fill="none" stroke="#63b8ff" d="M151.17,-60.37C151.17,-52.25 151.17,-39.81 151.17,-29.39"/>
<polygon fill="#63b8ff" stroke="#63b8ff" points="154.67,-29.17 151.17,-19.17 147.67,-29.17 154.67,-29.17"/>
</a>
</g>
</g>
<!-- Node10&#45;&gt;Node4 -->
<g id="edge12_Node000010_Node000004" class="edge">
<title>Node10&#45;&gt;Node4</title>
<g id="a_edge12_Node000010_Node000004"><a xlink:title=" ">
<path fill="none" stroke="#63b8ff" d="M251.15,-60.49C231.74,-50.79 199.78,-34.81 177.22,-23.53"/>
<polygon fill="#63b8ff" stroke="#63b8ff" points="178.71,-20.36 168.2,-19.02 175.58,-26.62 178.71,-20.36"/>
</a>
</g>
</g>
<!-- Node11 -->
<g id="Node000011" class="node">
<title>Node11</title>
<g id="a_Node000011"><a xlink:title=" ">
<polygon fill="#e0e0e0" stroke="#999999" points="375.67,-19 282.67,-19 282.67,0 375.67,0 375.67,-19"/>
<text text-anchor="middle" x="329.17" y="-7" font-family="Helvetica,sans-Serif" font-size="10.00">unordered_map</text>
</a>
</g>
</g>
<!-- Node10&#45;&gt;Node11 -->
<g id="edge13_Node000010_Node000011" class="edge">
<title>Node10&#45;&gt;Node11</title>
<g id="a_edge13_Node000010_Node000011"><a xlink:title=" ">
<path fill="none" stroke="#63b8ff" d="M277.17,-60.37C286.54,-51.38 301.42,-37.11 312.86,-26.14"/>
<polygon fill="#63b8ff" stroke="#63b8ff" points="315.33,-28.62 320.13,-19.17 310.49,-23.56 315.33,-28.62"/>
</a>
</g>
</g>
<!-- Node12 -->
<g id="Node000012" class="node">
<title>Node12</title>
<g id="a_Node000012"><a xlink:title=" ">
<polygon fill="#e0e0e0" stroke="#999999" points="264.67,-19 217.67,-19 217.67,0 264.67,0 264.67,-19"/>
<text text-anchor="middle" x="241.17" y="-7" font-family="Helvetica,sans-Serif" font-size="10.00">vector</text>
</a>
</g>
</g>
<!-- Node10&#45;&gt;Node12 -->
<g id="edge14_Node000010_Node000012" class="edge">
<title>Node10&#45;&gt;Node12</title>
<g id="a_edge14_Node000010_Node000012"><a xlink:title=" ">
<path fill="none" stroke="#63b8ff" d="M264.18,-60.37C260.31,-51.99 254.32,-39.01 249.42,-28.39"/>
<polygon fill="#63b8ff" stroke="#63b8ff" points="252.53,-26.78 245.17,-19.17 246.18,-29.71 252.53,-26.78"/>
</a>
</g>
</g>
</g>
</svg>

<g id="navigator" transform="translate(0 0)" fill="#404254">
  <rect fill="#f2f5e9" fill-opacity="0.5" stroke="#606060" stroke-width=".5" x="0" y="0" width="60" height="60"/>
  <use id="zoomplus" xlink:href="#zoomPlus" x="17" y="9" onmousedown="handleZoom(evt,'in')"/>
  <use id="zoomminus" xlink:href="#zoomMin" x="42" y="9" onmousedown="handleZoom(evt,'out')"/>
  <use id="reset" xlink:href="#resetDef" x="30" y="36" onmousedown="handleReset()"/>
   <use id="arrowup" xlink:href="#arrowUp" x="0" y="0" onmousedown="handlePan(0,-1)"/>
  <use id="arrowright" xlink:href="#arrowRight" x="0" y="0" onmousedown="handlePan(1,0)"/>
  <use id="arrowdown" xlink:href="#arrowDown" x="0" y="0" onmousedown="handlePan(0,1)"/>
  <use id="arrowleft" xlink:href="#arrowLeft" x="0" y="0" onmousedown="handlePan(-1,0)"/>
</g>
<svg viewBox="0 0 15 15" width="100%" height="30px" preserveAspectRatio="xMaxYMin meet">
 <g id="arrow_out" transform="scale(0.3 0.3)">
  <a xlink:href="connector__state__manager_8h__incl_org.svg" target="_base">
   <rect id="button" ry="5" rx="5" y="6" x="6" height="38" width="38"
        fill="#f2f5e9" fill-opacity="0.5" stroke="#606060" stroke-width="1.0"/>
   <path id="arrow"
     d="M 11.500037,31.436501 C 11.940474,20.09759 22.043105,11.32322 32.158766,21.979434 L 37.068811,17.246167 C 37.068811,17.246167 37.088388,32 37.088388,32 L 22.160133,31.978069 C 22.160133,31.978069 26.997745,27.140456 26.997745,27.140456 C 18.528582,18.264221 13.291696,25.230495 11.500037,31.436501 z"
     style="fill:#404040;"/>
  </a>
 </g>
</svg>

<style type='text/css'>
<![CDATA[
[data-mouse-over-selected='false'] { opacity: 0.7; }
[data-mouse-over-selected='true']  { opacity: 1.0; }
]]>
</style>
<script type="application/ecmascript"><![CDATA[
document.addEventListener('DOMContentLoaded', (event) => {
  highlightEdges();
  highlightAdjacentNodes();
});
]]></script>
</svg>
