<?xml version="1.0" encoding="UTF-8" standalone="no"?>
<!DOCTYPE svg PUBLIC "-//W3C//DTD SVG 1.1//EN"
 "http://www.w3.org/Graphics/SVG/1.1/DTD/svg11.dtd">
<!-- Generated by graphviz version 2.43.0 (0)
 -->
<!-- Title: include/mosaic/auto_configurer/connector/connector_resolver.h Pages: 1 -->
<!--zoomable 577 -->

<svg id="main" version="1.1" xmlns="http://www.w3.org/2000/svg" xmlns:xlink="http://www.w3.org/1999/xlink" xml:space="preserve" onload="init(evt)">
<style type="text/css"><![CDATA[
.node, .edge {opacity: 0.7;}
.node.selected, .edge.selected {opacity: 1;}
.edge:hover path { stroke: red; }
.edge:hover polygon { stroke: red; fill: red; }
]]></style>

<defs>
  <circle id="rim" cx="0" cy="0" r="7"/>
  <circle id="rim2" cx="0" cy="0" r="3.5"/>
  <g id="zoomPlus">
    <use xlink:href="#rim" fill="#404040"><set attributeName="fill" to="#808080" begin="zoomplus.mouseover" end="zoomplus.mouseout"/></use>
    <path d="M-4,0h8M0,-4v8" fill="none" stroke="white" stroke-width="1.5" pointer-events="none"/>
  </g>
  <g id="zoomMin">
    <use xlink:href="#rim" fill="#404040"><set attributeName="fill" to="#808080" begin="zoomminus.mouseover" end="zoomminus.mouseout"/></use>
    <path d="M-4,0h8" fill="none" stroke="white" stroke-width="1.5" pointer-events="none"/>
  </g>
  <g id="arrowUp" transform="translate(30 24)">
    <use xlink:href="#rim"/>
    <path pointer-events="none" fill="none" stroke="white" stroke-width="1.5" d="M0,-3.0v7 M-2.5,-0.5L0,-3.0L2.5,-0.5"/>
  </g>
  <g id="arrowRight" transform="rotate(90) translate(36 -43)">
    <use xlink:href="#rim"/>
    <path pointer-events="none" fill="none" stroke="white" stroke-width="1.5" d="M0,-3.0v7 M-2.5,-0.5L0,-3.0L2.5,-0.5"/>
  </g>
  <g id="arrowDown" transform="rotate(180) translate(-30 -48)">
    <use xlink:href="#rim"/>
    <path pointer-events="none" fill="none" stroke="white" stroke-width="1.5" d="M0,-3.0v7 M-2.5,-0.5L0,-3.0L2.5,-0.5"/>
  </g>
  <g id="arrowLeft" transform="rotate(270) translate(-36 17)">
    <use xlink:href="#rim"/>
    <path pointer-events="none" fill="none" stroke="white" stroke-width="1.5" d="M0,-3.0v7 M-2.5,-0.5L0,-3.0L2.5,-0.5"/>
  </g>
  <g id="resetDef">
    <use xlink:href="#rim2" fill="#404040"><set attributeName="fill" to="#808080" begin="reset.mouseover" end="reset.mouseout"/></use>
  </g>
</defs>
<script type="application/ecmascript">
var viewWidth = 1268;
var viewHeight = 577;
var sectionId = 'dynsection-0';
</script>
<script type="application/ecmascript" xlink:href="svg.min.js"/>
<svg id="graph" class="graph">
<g id="viewport">
<title>include/mosaic/auto_configurer/connector/connector_resolver.h</title>
<!-- Node1 -->
<g id="Node000001" class="node">
<title>Node1</title>
<g id="a_Node000001"><a xlink:title=" ">
<polygon fill="#999999" stroke="#666666" points="421,-569 299,-569 299,-528 421,-528 421,-569"/>
<text text-anchor="start" x="307" y="-557" font-family="Helvetica,sans-Serif" font-size="10.00">include/mosaic/auto</text>
<text text-anchor="start" x="307" y="-546" font-family="Helvetica,sans-Serif" font-size="10.00">_configurer/connector</text>
<text text-anchor="middle" x="360" y="-535" font-family="Helvetica,sans-Serif" font-size="10.00">/connector_resolver.h</text>
</a>
</g>
</g>
<!-- Node2 -->
<g id="Node000002" class="node">
<title>Node2</title>
<g id="a_Node000002"><a xlink:title=" ">
<polygon fill="#e0e0e0" stroke="#999999" points="111,-19 53,-19 53,0 111,0 111,-19"/>
<text text-anchor="middle" x="82" y="-7" font-family="Helvetica,sans-Serif" font-size="10.00">memory</text>
</a>
</g>
</g>
<!-- Node1&#45;&gt;Node2 -->
<g id="edge1_Node000001_Node000002" class="edge">
<title>Node1&#45;&gt;Node2</title>
<g id="a_edge1_Node000001_Node000002"><a xlink:title=" ">
<path fill="none" stroke="#63b8ff" d="M298.93,-538.35C196.22,-521.23 0,-480.3 0,-417.5 0,-417.5 0,-417.5 0,-135 0,-89.39 38.86,-47.58 63.07,-25.95"/>
<polygon fill="#63b8ff" stroke="#63b8ff" points="65.65,-28.35 70.94,-19.17 61.08,-23.04 65.65,-28.35"/>
</a>
</g>
</g>
<!-- Node3 -->
<g id="Node000003" class="node">
<title>Node3</title>
<g id="a_Node000003"><a xlink:title=" ">
<polygon fill="#e0e0e0" stroke="#999999" points="682,-19 638,-19 638,0 682,0 682,-19"/>
<text text-anchor="middle" x="660" y="-7" font-family="Helvetica,sans-Serif" font-size="10.00">string</text>
</a>
</g>
</g>
<!-- Node1&#45;&gt;Node3 -->
<g id="edge2_Node000001_Node000003" class="edge">
<title>Node1&#45;&gt;Node3</title>
<g id="a_edge2_Node000001_Node000003"><a xlink:title=" ">
<path fill="none" stroke="#63b8ff" d="M360,-527.68C360,-502.19 360,-456.55 360,-417.5 360,-417.5 360,-417.5 360,-283.5 360,-157.19 419.67,-118.26 529,-55 560.34,-36.87 600.19,-24.66 627.67,-17.69"/>
<polygon fill="#63b8ff" stroke="#63b8ff" points="628.67,-21.04 637.55,-15.27 627,-14.25 628.67,-21.04"/>
</a>
</g>
</g>
<!-- Node4 -->
<g id="Node000004" class="node">
<title>Node4</title>
<g id="a_Node000004"><a xlink:title=" ">
<polygon fill="#e0e0e0" stroke="#999999" points="1259.5,-19 1166.5,-19 1166.5,0 1259.5,0 1259.5,-19"/>
<text text-anchor="middle" x="1213" y="-7" font-family="Helvetica,sans-Serif" font-size="10.00">unordered_map</text>
</a>
</g>
</g>
<!-- Node1&#45;&gt;Node4 -->
<g id="edge3_Node000001_Node000004" class="edge">
<title>Node1&#45;&gt;Node4</title>
<g id="a_edge3_Node000001_Node000004"><a xlink:title=" ">
<path fill="none" stroke="#63b8ff" d="M421.02,-545.11C623.13,-536.39 1258,-502.27 1258,-417.5 1258,-417.5 1258,-417.5 1258,-135 1258,-98.46 1252.59,-88.92 1239,-55 1235.22,-45.57 1229.68,-35.75 1224.68,-27.74"/>
<polygon fill="#63b8ff" stroke="#63b8ff" points="1227.58,-25.78 1219.2,-19.3 1221.71,-29.59 1227.58,-25.78"/>
</a>
</g>
</g>
<!-- Node5 -->
<g id="Node000005" class="node">
<title>Node5</title>
<g id="a_Node000005"><a xlink:href="configurable__connector__factory_8h.html" target="_top" xlink:title=" ">
<polygon fill="white" stroke="#666666" points="255,-492 125,-492 125,-462 255,-462 255,-492"/>
<text text-anchor="start" x="133" y="-480" font-family="Helvetica,sans-Serif" font-size="10.00">configurable_connector</text>
<text text-anchor="middle" x="190" y="-469" font-family="Helvetica,sans-Serif" font-size="10.00">_factory.h</text>
</a>
</g>
</g>
<!-- Node1&#45;&gt;Node5 -->
<g id="edge4_Node000001_Node000005" class="edge">
<title>Node1&#45;&gt;Node5</title>
<g id="a_edge4_Node000001_Node000005"><a xlink:title=" ">
<path fill="none" stroke="#63b8ff" d="M312.19,-527.96C287.59,-517.9 257.82,-505.73 233.82,-495.91"/>
<polygon fill="#63b8ff" stroke="#63b8ff" points="234.84,-492.55 224.25,-492 232.19,-499.03 234.84,-492.55"/>
</a>
</g>
</g>
<!-- Node7 -->
<g id="Node000007" class="node">
<title>Node7</title>
<g id="a_Node000007"><a xlink:href="i__configurable__connector_8h.html" target="_top" xlink:title=" ">
<polygon fill="white" stroke="#666666" points="819,-426 673,-426 673,-407 819,-407 819,-426"/>
<text text-anchor="middle" x="746" y="-414" font-family="Helvetica,sans-Serif" font-size="10.00">i_configurable_connector.h</text>
</a>
</g>
</g>
<!-- Node1&#45;&gt;Node7 -->
<g id="edge52_Node000001_Node000007" class="edge">
<title>Node1&#45;&gt;Node7</title>
<g id="a_edge52_Node000001_Node000007"><a xlink:title=" ">
<path fill="none" stroke="#63b8ff" d="M418.21,-527.9C499.54,-500.51 644.66,-451.63 711.08,-429.26"/>
<polygon fill="#63b8ff" stroke="#63b8ff" points="712.3,-432.54 720.66,-426.03 710.07,-425.91 712.3,-432.54"/>
</a>
</g>
</g>
<!-- Node5&#45;&gt;Node2 -->
<g id="edge5_Node000005_Node000002" class="edge">
<title>Node5&#45;&gt;Node2</title>
<g id="a_edge5_Node000005_Node000002"><a xlink:title=" ">
<path fill="none" stroke="#63b8ff" d="M144.39,-461.92C99.62,-444.93 38,-411.63 38,-357 38,-357 38,-357 38,-135 38,-94.88 58.56,-51.43 71.57,-27.96"/>
<polygon fill="#63b8ff" stroke="#63b8ff" points="74.66,-29.6 76.6,-19.18 68.59,-26.12 74.66,-29.6"/>
</a>
</g>
</g>
<!-- Node6 -->
<g id="Node000006" class="node">
<title>Node6</title>
<g id="a_Node000006"><a xlink:title=" ">
<polygon fill="#e0e0e0" stroke="#999999" points="209.5,-19 140.5,-19 140.5,0 209.5,0 209.5,-19"/>
<text text-anchor="middle" x="175" y="-7" font-family="Helvetica,sans-Serif" font-size="10.00">type_traits</text>
</a>
</g>
</g>
<!-- Node5&#45;&gt;Node6 -->
<g id="edge6_Node000005_Node000006" class="edge">
<title>Node5&#45;&gt;Node6</title>
<g id="a_edge6_Node000005_Node000006"><a xlink:title=" ">
<path fill="none" stroke="#63b8ff" d="M173.13,-461.74C150.74,-441.12 114,-400.63 114,-357 114,-357 114,-357 114,-135 114,-92.71 142.73,-49.83 160.75,-27.09"/>
<polygon fill="#63b8ff" stroke="#63b8ff" points="163.64,-29.09 167.27,-19.14 158.22,-24.65 163.64,-29.09"/>
</a>
</g>
</g>
<!-- Node5&#45;&gt;Node7 -->
<g id="edge7_Node000005_Node000007" class="edge">
<title>Node5&#45;&gt;Node7</title>
<g id="a_edge7_Node000005_Node000007"><a xlink:title=" ">
<path fill="none" stroke="#63b8ff" d="M255.14,-469.15C356.36,-458.5 551.32,-437.98 662.66,-426.27"/>
<polygon fill="#63b8ff" stroke="#63b8ff" points="663.25,-429.73 672.83,-425.2 662.52,-422.76 663.25,-429.73"/>
</a>
</g>
</g>
<!-- Node8 -->
<g id="Node000008" class="node">
<title>Node8</title>
<g id="a_Node000008"><a xlink:href="configs__decl_8h.html" target="_top" xlink:title=" ">
<polygon fill="white" stroke="#666666" points="1230,-79.5 1106,-79.5 1106,-60.5 1230,-60.5 1230,-79.5"/>
<text text-anchor="middle" x="1168" y="-67.5" font-family="Helvetica,sans-Serif" font-size="10.00">mosaic/configs_decl.h</text>
</a>
</g>
</g>
<!-- Node7&#45;&gt;Node8 -->
<g id="edge8_Node000007_Node000008" class="edge">
<title>Node7&#45;&gt;Node8</title>
<g id="a_edge8_Node000007_Node000008"><a xlink:title=" ">
<path fill="none" stroke="#63b8ff" d="M819.14,-408.92C943.55,-395.7 1183,-360.5 1183,-285.5 1183,-285.5 1183,-285.5 1183,-206.5 1183,-164.44 1175.77,-115.48 1171.35,-89.47"/>
<polygon fill="#63b8ff" stroke="#63b8ff" points="1174.78,-88.77 1169.61,-79.52 1167.89,-89.98 1174.78,-88.77"/>
</a>
</g>
</g>
<!-- Node10 -->
<g id="Node000010" class="node">
<title>Node10</title>
<g id="a_Node000010"><a xlink:href="mosaic__connector_8h.html" target="_top" xlink:title=" ">
<polygon fill="white" stroke="#666666" points="913,-371 799,-371 799,-341 913,-341 913,-371"/>
<text text-anchor="start" x="807" y="-359" font-family="Helvetica,sans-Serif" font-size="10.00">mosaic/core/mosaic</text>
<text text-anchor="middle" x="856" y="-348" font-family="Helvetica,sans-Serif" font-size="10.00">_connector.h</text>
</a>
</g>
</g>
<!-- Node7&#45;&gt;Node10 -->
<g id="edge12_Node000007_Node000010" class="edge">
<title>Node7&#45;&gt;Node10</title>
<g id="a_edge12_Node000007_Node000010"><a xlink:title=" ">
<path fill="none" stroke="#63b8ff" d="M762.23,-406.87C777.5,-398.75 800.89,-386.31 820.48,-375.89"/>
<polygon fill="#63b8ff" stroke="#63b8ff" points="822.27,-378.9 829.46,-371.11 818.99,-372.72 822.27,-378.9"/>
</a>
</g>
</g>
<!-- Node8&#45;&gt;Node3 -->
<g id="edge9_Node000008_Node000003" class="edge">
<title>Node8&#45;&gt;Node3</title>
<g id="a_edge9_Node000008_Node000003"><a xlink:title=" ">
<path fill="none" stroke="#63b8ff" d="M1105.96,-61.86C997.06,-49.31 775.17,-23.76 692.23,-14.21"/>
<polygon fill="#63b8ff" stroke="#63b8ff" points="692.49,-10.72 682.15,-13.05 691.68,-17.67 692.49,-10.72"/>
</a>
</g>
</g>
<!-- Node8&#45;&gt;Node4 -->
<g id="edge10_Node000008_Node000004" class="edge">
<title>Node8&#45;&gt;Node4</title>
<g id="a_edge10_Node000008_Node000004"><a xlink:title=" ">
<path fill="none" stroke="#63b8ff" d="M1174.64,-60.37C1181.29,-51.73 1191.69,-38.2 1199.99,-27.42"/>
<polygon fill="#63b8ff" stroke="#63b8ff" points="1203.01,-29.23 1206.33,-19.17 1197.46,-24.96 1203.01,-29.23"/>
</a>
</g>
</g>
<!-- Node9 -->
<g id="Node000009" class="node">
<title>Node9</title>
<g id="a_Node000009"><a xlink:title=" ">
<polygon fill="#e0e0e0" stroke="#999999" points="1124.5,-19 1077.5,-19 1077.5,0 1124.5,0 1124.5,-19"/>
<text text-anchor="middle" x="1101" y="-7" font-family="Helvetica,sans-Serif" font-size="10.00">vector</text>
</a>
</g>
</g>
<!-- Node8&#45;&gt;Node9 -->
<g id="edge11_Node000008_Node000009" class="edge">
<title>Node8&#45;&gt;Node9</title>
<g id="a_edge11_Node000008_Node000009"><a xlink:title=" ">
<path fill="none" stroke="#63b8ff" d="M1158.11,-60.37C1147.72,-51.3 1131.16,-36.84 1118.55,-25.82"/>
<polygon fill="#63b8ff" stroke="#63b8ff" points="1120.76,-23.11 1110.93,-19.17 1116.16,-28.38 1120.76,-23.11"/>
</a>
</g>
</g>
<!-- Node10&#45;&gt;Node2 -->
<g id="edge14_Node000010_Node000002" class="edge">
<title>Node10&#45;&gt;Node2</title>
<g id="a_edge14_Node000010_Node000002"><a xlink:title=" ">
<path fill="none" stroke="#63b8ff" d="M798.92,-351.36C651.48,-340.92 262.56,-306.43 164,-228 100.65,-177.59 86.23,-72.63 82.96,-29.56"/>
<polygon fill="#63b8ff" stroke="#63b8ff" points="86.44,-29.13 82.31,-19.37 79.45,-29.57 86.44,-29.13"/>
</a>
</g>
</g>
<!-- Node10&#45;&gt;Node3 -->
<g id="edge15_Node000010_Node000003" class="edge">
<title>Node10&#45;&gt;Node3</title>
<g id="a_edge15_Node000010_Node000003"><a xlink:title=" ">
<path fill="none" stroke="#63b8ff" d="M858.38,-340.68C863.56,-311.18 877.18,-241.83 899,-187 910.34,-158.52 933.14,-148.2 919,-121 875.7,-37.69 751.61,-17.19 692.31,-12.15"/>
<polygon fill="#63b8ff" stroke="#63b8ff" points="692.26,-8.63 682.02,-11.37 691.73,-15.61 692.26,-8.63"/>
</a>
</g>
</g>
<!-- Node11 -->
<g id="Node000011" class="node">
<title>Node11</title>
<g id="a_Node000011"><a xlink:title=" ">
<polygon fill="#e0e0e0" stroke="#999999" points="979,-294 941,-294 941,-275 979,-275 979,-294"/>
<text text-anchor="middle" x="960" y="-282" font-family="Helvetica,sans-Serif" font-size="10.00">map</text>
</a>
</g>
</g>
<!-- Node10&#45;&gt;Node11 -->
<g id="edge13_Node000010_Node000011" class="edge">
<title>Node10&#45;&gt;Node11</title>
<g id="a_edge13_Node000010_Node000011"><a xlink:title=" ">
<path fill="none" stroke="#63b8ff" d="M877.05,-340.94C894.94,-328.98 920.52,-311.88 938.53,-299.85"/>
<polygon fill="#63b8ff" stroke="#63b8ff" points="940.81,-302.53 947.18,-294.07 936.92,-296.71 940.81,-302.53"/>
</a>
</g>
</g>
<!-- Node12 -->
<g id="Node000012" class="node">
<title>Node12</title>
<g id="a_Node000012"><a xlink:href="connector__state__manager_8h.html" target="_top" xlink:title=" ">
<polygon fill="white" stroke="#666666" points="565.5,-299.5 438.5,-299.5 438.5,-269.5 565.5,-269.5 565.5,-299.5"/>
<text text-anchor="start" x="446.5" y="-287.5" font-family="Helvetica,sans-Serif" font-size="10.00">mosaic/core/connector</text>
<text text-anchor="middle" x="502" y="-276.5" font-family="Helvetica,sans-Serif" font-size="10.00">_state_manager.h</text>
</a>
</g>
</g>
<!-- Node10&#45;&gt;Node12 -->
<g id="edge16_Node000010_Node000012" class="edge">
<title>Node10&#45;&gt;Node12</title>
<g id="a_edge16_Node000010_Node000012"><a xlink:title=" ">
<path fill="none" stroke="#63b8ff" d="M798.73,-343.76C738.05,-331.84 642.03,-312.99 575.74,-299.98"/>
<polygon fill="#63b8ff" stroke="#63b8ff" points="576.26,-296.51 565.77,-298.02 574.91,-303.38 576.26,-296.51"/>
</a>
</g>
</g>
<!-- Node16 -->
<g id="Node000016" class="node">
<title>Node16</title>
<g id="a_Node000016"><a xlink:title=" ">
<polygon fill="#e0e0e0" stroke="#999999" points="910,-151 764,-151 764,-121 910,-121 910,-151"/>
<text text-anchor="start" x="772" y="-139" font-family="Helvetica,sans-Serif" font-size="10.00">mosaic/rtc/webrtc_forward</text>
<text text-anchor="middle" x="837" y="-128" font-family="Helvetica,sans-Serif" font-size="10.00">_decl.h</text>
</a>
</g>
</g>
<!-- Node10&#45;&gt;Node16 -->
<g id="edge51_Node000010_Node000016" class="edge">
<title>Node10&#45;&gt;Node16</title>
<g id="a_edge51_Node000010_Node000016"><a xlink:title=" ">
<path fill="none" stroke="#63b8ff" d="M854.75,-340.7C851.57,-304.12 843.09,-206.84 839.11,-161.24"/>
<polygon fill="#63b8ff" stroke="#63b8ff" points="842.58,-160.73 838.23,-151.07 835.61,-161.34 842.58,-160.73"/>
</a>
</g>
</g>
<!-- Node19 -->
<g id="Node000019" class="node">
<title>Node19</title>
<g id="a_Node000019"><a xlink:href="peer__connection__manager_8h.html" target="_top" xlink:title=" ">
<polygon fill="white" stroke="#666666" points="1155.5,-299.5 996.5,-299.5 996.5,-269.5 1155.5,-269.5 1155.5,-299.5"/>
<text text-anchor="start" x="1004.5" y="-287.5" font-family="Helvetica,sans-Serif" font-size="10.00">mosaic/core/peer_connection</text>
<text text-anchor="middle" x="1076" y="-276.5" font-family="Helvetica,sans-Serif" font-size="10.00">_manager.h</text>
</a>
</g>
</g>
<!-- Node10&#45;&gt;Node19 -->
<g id="edge29_Node000010_Node000019" class="edge">
<title>Node10&#45;&gt;Node19</title>
<g id="a_edge29_Node000010_Node000019"><a xlink:title=" ">
<path fill="none" stroke="#63b8ff" d="M894.97,-340.94C928.68,-329.82 977.81,-314.26 1016.42,-302.46"/>
<polygon fill="#63b8ff" stroke="#63b8ff" points="1017.45,-305.8 1026,-299.54 1015.41,-299.11 1017.45,-305.8"/>
</a>
</g>
</g>
<!-- Node20 -->
<g id="Node000020" class="node">
<title>Node20</title>
<g id="a_Node000020"><a xlink:href="i__data__channel__handler_8h.html" target="_top" xlink:title=" ">
<polygon fill="white" stroke="#666666" points="764.5,-305 627.5,-305 627.5,-264 764.5,-264 764.5,-305"/>
<text text-anchor="start" x="635.5" y="-293" font-family="Helvetica,sans-Serif" font-size="10.00">mosaic/handlers/data</text>
<text text-anchor="start" x="635.5" y="-282" font-family="Helvetica,sans-Serif" font-size="10.00">_channel/i_data_channel</text>
<text text-anchor="middle" x="696" y="-271" font-family="Helvetica,sans-Serif" font-size="10.00">_handler.h</text>
</a>
</g>
</g>
<!-- Node10&#45;&gt;Node20 -->
<g id="edge34_Node000010_Node000020" class="edge">
<title>Node10&#45;&gt;Node20</title>
<g id="a_edge34_Node000010_Node000020"><a xlink:title=" ">
<path fill="none" stroke="#63b8ff" d="M823.62,-340.94C802.66,-331.83 774.85,-319.75 750.53,-309.19"/>
<polygon fill="#63b8ff" stroke="#63b8ff" points="751.63,-305.85 741.06,-305.07 748.84,-312.27 751.63,-305.85"/>
</a>
</g>
</g>
<!-- Node26 -->
<g id="Node000026" class="node">
<title>Node26</title>
<g id="a_Node000026"><a xlink:href="i__media__track__handler_8h.html" target="_top" xlink:title=" ">
<polygon fill="white" stroke="#666666" points="1039.5,-228 908.5,-228 908.5,-187 1039.5,-187 1039.5,-228"/>
<text text-anchor="start" x="916.5" y="-216" font-family="Helvetica,sans-Serif" font-size="10.00">mosaic/handlers/media</text>
<text text-anchor="start" x="916.5" y="-205" font-family="Helvetica,sans-Serif" font-size="10.00">_track/i_media_track</text>
<text text-anchor="middle" x="974" y="-194" font-family="Helvetica,sans-Serif" font-size="10.00">_handler.h</text>
</a>
</g>
</g>
<!-- Node10&#45;&gt;Node26 -->
<g id="edge47_Node000010_Node000026" class="edge">
<title>Node10&#45;&gt;Node26</title>
<g id="a_edge47_Node000010_Node000026"><a xlink:title=" ">
<path fill="none" stroke="#63b8ff" d="M867.31,-340.95C886.69,-316.89 926.58,-267.37 951.71,-236.17"/>
<polygon fill="#63b8ff" stroke="#63b8ff" points="954.53,-238.26 958.07,-228.27 949.07,-233.87 954.53,-238.26"/>
</a>
</g>
</g>
<!-- Node12&#45;&gt;Node2 -->
<g id="edge17_Node000012_Node000002" class="edge">
<title>Node12&#45;&gt;Node2</title>
<g id="a_edge17_Node000012_Node000002"><a xlink:title=" ">
<path fill="none" stroke="#63b8ff" d="M438.63,-269.46C429.7,-267.57 420.63,-265.7 412,-264 322.1,-246.3 284.16,-280.41 209,-228 136.74,-177.61 99.56,-71.83 87,-29.05"/>
<polygon fill="#63b8ff" stroke="#63b8ff" points="90.35,-28.06 84.27,-19.38 83.62,-29.96 90.35,-28.06"/>
</a>
</g>
</g>
<!-- Node12&#45;&gt;Node3 -->
<g id="edge19_Node000012_Node000003" class="edge">
<title>Node12&#45;&gt;Node3</title>
<g id="a_edge19_Node000012_Node000003"><a xlink:title=" ">
<path fill="none" stroke="#63b8ff" d="M500.89,-269.24C498.64,-230.12 497.73,-119.73 552,-55 571.04,-32.29 603.53,-21.01 627.91,-15.51"/>
<polygon fill="#63b8ff" stroke="#63b8ff" points="628.71,-18.92 637.81,-13.49 627.31,-12.06 628.71,-18.92"/>
</a>
</g>
</g>
<!-- Node13 -->
<g id="Node000013" class="node">
<title>Node13</title>
<g id="a_Node000013"><a xlink:title=" ">
<polygon fill="#e0e0e0" stroke="#999999" points="474,-217 388,-217 388,-198 474,-198 474,-217"/>
<text text-anchor="middle" x="431" y="-205" font-family="Helvetica,sans-Serif" font-size="10.00">shared_mutex</text>
</a>
</g>
</g>
<!-- Node12&#45;&gt;Node13 -->
<g id="edge18_Node000012_Node000013" class="edge">
<title>Node12&#45;&gt;Node13</title>
<g id="a_edge18_Node000012_Node000013"><a xlink:title=" ">
<path fill="none" stroke="#63b8ff" d="M488.65,-269.39C476.67,-256.74 459.1,-238.18 446.5,-224.88"/>
<polygon fill="#63b8ff" stroke="#63b8ff" points="448.82,-222.23 439.4,-217.37 443.73,-227.04 448.82,-222.23"/>
</a>
</g>
</g>
<!-- Node14 -->
<g id="Node000014" class="node">
<title>Node14</title>
<g id="a_Node000014"><a xlink:href="i__signaling__client_8h.html" target="_top" xlink:title=" ">
<polygon fill="white" stroke="#666666" points="729.5,-222.5 622.5,-222.5 622.5,-192.5 729.5,-192.5 729.5,-222.5"/>
<text text-anchor="start" x="630.5" y="-210.5" font-family="Helvetica,sans-Serif" font-size="10.00">mosaic/signaling/i</text>
<text text-anchor="middle" x="676" y="-199.5" font-family="Helvetica,sans-Serif" font-size="10.00">_signaling_client.h</text>
</a>
</g>
</g>
<!-- Node12&#45;&gt;Node14 -->
<g id="edge20_Node000012_Node000014" class="edge">
<title>Node12&#45;&gt;Node14</title>
<g id="a_edge20_Node000012_Node000014"><a xlink:title=" ">
<path fill="none" stroke="#63b8ff" d="M534.73,-269.39C562.8,-257.29 603.42,-239.78 633.91,-226.64"/>
<polygon fill="#63b8ff" stroke="#63b8ff" points="635.62,-229.72 643.42,-222.54 632.85,-223.29 635.62,-229.72"/>
</a>
</g>
</g>
<!-- Node15 -->
<g id="Node000015" class="node">
<title>Node15</title>
<g id="a_Node000015"><a xlink:title=" ">
<polygon fill="#e0e0e0" stroke="#999999" points="686,-85 568,-85 568,-55 686,-55 686,-85"/>
<text text-anchor="start" x="576" y="-73" font-family="Helvetica,sans-Serif" font-size="10.00">mosaic/json_forward</text>
<text text-anchor="middle" x="627" y="-62" font-family="Helvetica,sans-Serif" font-size="10.00">_decl.h</text>
</a>
</g>
</g>
<!-- Node14&#45;&gt;Node15 -->
<g id="edge21_Node000014_Node000015" class="edge">
<title>Node14&#45;&gt;Node15</title>
<g id="a_edge21_Node000014_Node000015"><a xlink:title=" ">
<path fill="none" stroke="#63b8ff" d="M642.7,-192.38C625.72,-183.26 606.66,-169.59 597,-151 587.31,-132.34 597.54,-109.82 608.62,-93.43"/>
<polygon fill="#63b8ff" stroke="#63b8ff" points="611.68,-95.17 614.73,-85.02 606.02,-91.05 611.68,-95.17"/>
</a>
</g>
</g>
<!-- Node14&#45;&gt;Node16 -->
<g id="edge22_Node000014_Node000016" class="edge">
<title>Node14&#45;&gt;Node16</title>
<g id="a_edge22_Node000014_Node000016"><a xlink:title=" ">
<path fill="none" stroke="#63b8ff" d="M708.58,-192.44C733.57,-181.65 768.24,-166.68 795.26,-155.02"/>
<polygon fill="#63b8ff" stroke="#63b8ff" points="796.67,-158.22 804.47,-151.04 793.9,-151.79 796.67,-158.22"/>
</a>
</g>
</g>
<!-- Node17 -->
<g id="Node000017" class="node">
<title>Node17</title>
<g id="a_Node000017"><a xlink:href="i__mosaic__authenticator_8h.html" target="_top" xlink:title=" ">
<polygon fill="white" stroke="#666666" points="746,-151 606,-151 606,-121 746,-121 746,-151"/>
<text text-anchor="start" x="614" y="-139" font-family="Helvetica,sans-Serif" font-size="10.00">mosaic/security/i_mosaic</text>
<text text-anchor="middle" x="676" y="-128" font-family="Helvetica,sans-Serif" font-size="10.00">_authenticator.h</text>
</a>
</g>
</g>
<!-- Node14&#45;&gt;Node17 -->
<g id="edge23_Node000014_Node000017" class="edge">
<title>Node14&#45;&gt;Node17</title>
<g id="a_edge23_Node000014_Node000017"><a xlink:title=" ">
<path fill="none" stroke="#63b8ff" d="M676,-192.44C676,-183.49 676,-171.66 676,-161.23"/>
<polygon fill="#63b8ff" stroke="#63b8ff" points="679.5,-161.04 676,-151.04 672.5,-161.04 679.5,-161.04"/>
</a>
</g>
</g>
<!-- Node17&#45;&gt;Node2 -->
<g id="edge24_Node000017_Node000002" class="edge">
<title>Node17&#45;&gt;Node2</title>
<g id="a_edge24_Node000017_Node000002"><a xlink:title=" ">
<path fill="none" stroke="#63b8ff" d="M686.03,-120.9C697.28,-103.21 711.9,-73.01 695,-55 652.04,-9.21 193.36,-26.38 131,-19 127.78,-18.62 124.46,-18.17 121.13,-17.67"/>
<polygon fill="#63b8ff" stroke="#63b8ff" points="121.63,-14.21 111.2,-16.1 120.53,-21.12 121.63,-14.21"/>
</a>
</g>
</g>
<!-- Node17&#45;&gt;Node8 -->
<g id="edge27_Node000017_Node000008" class="edge">
<title>Node17&#45;&gt;Node8</title>
<g id="a_edge27_Node000017_Node000008"><a xlink:title=" ">
<path fill="none" stroke="#63b8ff" d="M746.18,-122.36C749.16,-121.89 752.11,-121.43 755,-121 874.15,-103.24 1013.36,-87.4 1095.91,-78.51"/>
<polygon fill="#63b8ff" stroke="#63b8ff" points="1096.36,-81.99 1105.93,-77.44 1095.62,-75.03 1096.36,-81.99"/>
</a>
</g>
</g>
<!-- Node17&#45;&gt;Node15 -->
<g id="edge28_Node000017_Node000015" class="edge">
<title>Node17&#45;&gt;Node15</title>
<g id="a_edge28_Node000017_Node000015"><a xlink:title=" ">
<path fill="none" stroke="#63b8ff" d="M665.13,-120.8C658.91,-112.68 650.98,-102.31 643.96,-93.15"/>
<polygon fill="#63b8ff" stroke="#63b8ff" points="646.7,-90.98 637.84,-85.16 641.14,-95.23 646.7,-90.98"/>
</a>
</g>
</g>
<!-- Node18 -->
<g id="Node000018" class="node">
<title>Node18</title>
<g id="a_Node000018"><a xlink:href="auth__type_8h.html" target="_top" xlink:title=" ">
<polygon fill="white" stroke="#666666" points="816,-79.5 742,-79.5 742,-60.5 816,-60.5 816,-79.5"/>
<text text-anchor="middle" x="779" y="-67.5" font-family="Helvetica,sans-Serif" font-size="10.00">auth_type.h</text>
</a>
</g>
</g>
<!-- Node17&#45;&gt;Node18 -->
<g id="edge25_Node000017_Node000018" class="edge">
<title>Node17&#45;&gt;Node18</title>
<g id="a_edge25_Node000017_Node000018"><a xlink:title=" ">
<path fill="none" stroke="#63b8ff" d="M698.6,-120.95C715.79,-110.27 739.33,-95.65 756.49,-84.98"/>
<polygon fill="#63b8ff" stroke="#63b8ff" points="758.65,-87.77 765.29,-79.52 754.95,-81.82 758.65,-87.77"/>
</a>
</g>
</g>
<!-- Node18&#45;&gt;Node3 -->
<g id="edge26_Node000018_Node000003" class="edge">
<title>Node18&#45;&gt;Node3</title>
<g id="a_edge26_Node000018_Node000003"><a xlink:title=" ">
<path fill="none" stroke="#63b8ff" d="M761.7,-60.49C741.95,-50.79 709.45,-34.81 686.51,-23.53"/>
<polygon fill="#63b8ff" stroke="#63b8ff" points="687.84,-20.29 677.32,-19.02 684.75,-26.57 687.84,-20.29"/>
</a>
</g>
</g>
<!-- Node19&#45;&gt;Node8 -->
<g id="edge31_Node000019_Node000008" class="edge">
<title>Node19&#45;&gt;Node8</title>
<g id="a_edge31_Node000019_Node000008"><a xlink:title=" ">
<path fill="none" stroke="#63b8ff" d="M1082.18,-269.23C1098.41,-231.73 1142.25,-130.49 1160.18,-89.05"/>
<polygon fill="#63b8ff" stroke="#63b8ff" points="1163.48,-90.24 1164.25,-79.67 1157.06,-87.46 1163.48,-90.24"/>
</a>
</g>
</g>
<!-- Node19&#45;&gt;Node9 -->
<g id="edge30_Node000019_Node000009" class="edge">
<title>Node19&#45;&gt;Node9</title>
<g id="a_edge30_Node000019_Node000009"><a xlink:title=" ">
<path fill="none" stroke="#63b8ff" d="M1077.31,-269.21C1081.5,-223.41 1094.61,-80.33 1099.3,-29.03"/>
<polygon fill="#63b8ff" stroke="#63b8ff" points="1102.79,-29.33 1100.22,-19.05 1095.82,-28.69 1102.79,-29.33"/>
</a>
</g>
</g>
<!-- Node19&#45;&gt;Node10 -->
<g id="edge32_Node000019_Node000010" class="edge">
<title>Node19&#45;&gt;Node10</title>
<g id="a_edge32_Node000019_Node000010"><a xlink:title=" ">
<path fill="none" stroke="#63b8ff" d="M1037.09,-299.54C1003.4,-310.65 954.28,-326.21 915.65,-338.02"/>
<polygon fill="#63b8ff" stroke="#63b8ff" points="914.62,-334.67 906.07,-340.94 916.65,-341.37 914.62,-334.67"/>
</a>
</g>
</g>
<!-- Node19&#45;&gt;Node14 -->
<g id="edge33_Node000019_Node000014" class="edge">
<title>Node19&#45;&gt;Node14</title>
<g id="a_edge33_Node000019_Node000014"><a xlink:title=" ">
<path fill="none" stroke="#63b8ff" d="M1014.05,-269.43C1005.32,-267.55 996.44,-265.69 988,-264 902.4,-246.91 803.05,-229.68 739.89,-219.06"/>
<polygon fill="#63b8ff" stroke="#63b8ff" points="740.12,-215.55 729.68,-217.34 738.96,-222.45 740.12,-215.55"/>
</a>
</g>
</g>
<!-- Node20&#45;&gt;Node3 -->
<g id="edge35_Node000020_Node000003" class="edge">
<title>Node20&#45;&gt;Node3</title>
<g id="a_edge35_Node000020_Node000003"><a xlink:title=" ">
<path fill="none" stroke="#63b8ff" d="M656.53,-264C641.24,-254.83 624.64,-242.66 613,-228 570.75,-174.8 571.2,-151.83 559,-85 556.61,-71.88 551.72,-66.17 559,-55 574.14,-31.79 604.4,-20.6 627.87,-15.26"/>
<polygon fill="#63b8ff" stroke="#63b8ff" points="628.67,-18.67 637.77,-13.25 627.27,-11.81 628.67,-18.67"/>
</a>
</g>
</g>
<!-- Node20&#45;&gt;Node16 -->
<g id="edge46_Node000020_Node000016" class="edge">
<title>Node20&#45;&gt;Node16</title>
<g id="a_edge46_Node000020_Node000016"><a xlink:title=" ">
<path fill="none" stroke="#63b8ff" d="M715.02,-263.74C741.4,-236.33 788.94,-186.94 816.23,-158.58"/>
<polygon fill="#63b8ff" stroke="#63b8ff" points="818.94,-160.81 823.35,-151.18 813.9,-155.96 818.94,-160.81"/>
</a>
</g>
</g>
<!-- Node21 -->
<g id="Node000021" class="node">
<title>Node21</title>
<g id="a_Node000021"><a xlink:href="log_8h.html" target="_top" xlink:title=" ">
<polygon fill="white" stroke="#666666" points="331.5,-217 218.5,-217 218.5,-198 331.5,-198 331.5,-217"/>
<text text-anchor="middle" x="275" y="-205" font-family="Helvetica,sans-Serif" font-size="10.00">mosaic/logger/log.h</text>
</a>
</g>
</g>
<!-- Node20&#45;&gt;Node21 -->
<g id="edge36_Node000020_Node000021" class="edge">
<title>Node20&#45;&gt;Node21</title>
<g id="a_edge36_Node000020_Node000021"><a xlink:title=" ">
<path fill="none" stroke="#63b8ff" d="M627.32,-271.72C563.08,-260.65 464.49,-243.5 379,-228 363.06,-225.11 345.76,-221.9 329.93,-218.93"/>
<polygon fill="#63b8ff" stroke="#63b8ff" points="330.24,-215.43 319.77,-217.02 328.95,-222.3 330.24,-215.43"/>
</a>
</g>
</g>
<!-- Node22 -->
<g id="Node000022" class="node">
<title>Node22</title>
<g id="a_Node000022"><a xlink:href="i__logger_8h.html" target="_top" xlink:title=" ">
<polygon fill="white" stroke="#666666" points="322,-145.5 258,-145.5 258,-126.5 322,-126.5 322,-145.5"/>
<text text-anchor="middle" x="290" y="-133.5" font-family="Helvetica,sans-Serif" font-size="10.00">i_logger.h</text>
</a>
</g>
</g>
<!-- Node21&#45;&gt;Node22 -->
<g id="edge37_Node000021_Node000022" class="edge">
<title>Node21&#45;&gt;Node22</title>
<g id="a_edge37_Node000021_Node000022"><a xlink:title=" ">
<path fill="none" stroke="#63b8ff" d="M276.84,-197.98C279.11,-187.45 283.04,-169.25 286.01,-155.47"/>
<polygon fill="#63b8ff" stroke="#63b8ff" points="289.46,-156.11 288.15,-145.59 282.61,-154.63 289.46,-156.11"/>
</a>
</g>
</g>
<!-- Node25 -->
<g id="Node000025" class="node">
<title>Node25</title>
<g id="a_Node000025"><a xlink:href="log__service_8h.html" target="_top" xlink:title=" ">
<polygon fill="white" stroke="#666666" points="261.5,-79.5 180.5,-79.5 180.5,-60.5 261.5,-60.5 261.5,-79.5"/>
<text text-anchor="middle" x="221" y="-67.5" font-family="Helvetica,sans-Serif" font-size="10.00">log_service.h</text>
</a>
</g>
</g>
<!-- Node21&#45;&gt;Node25 -->
<g id="edge45_Node000021_Node000025" class="edge">
<title>Node21&#45;&gt;Node25</title>
<g id="a_edge45_Node000021_Node000025"><a xlink:title=" ">
<path fill="none" stroke="#63b8ff" d="M270.67,-197.97C265.27,-187.17 255.91,-167.95 249,-151 240.51,-130.19 232.18,-105.73 226.85,-89.39"/>
<polygon fill="#63b8ff" stroke="#63b8ff" points="230.06,-87.96 223.67,-79.51 223.4,-90.1 230.06,-87.96"/>
</a>
</g>
</g>
<!-- Node22&#45;&gt;Node3 -->
<g id="edge38_Node000022_Node000003" class="edge">
<title>Node22&#45;&gt;Node3</title>
<g id="a_edge38_Node000022_Node000003"><a xlink:title=" ">
<path fill="none" stroke="#63b8ff" d="M313.29,-126.48C337.16,-117.4 375.06,-102.01 406,-85 426.74,-73.6 428.23,-64.3 450,-55 509.87,-29.43 585.82,-18.04 628.03,-13.38"/>
<polygon fill="#63b8ff" stroke="#63b8ff" points="628.42,-16.86 638,-12.33 627.69,-9.89 628.42,-16.86"/>
</a>
</g>
</g>
<!-- Node23 -->
<g id="Node000023" class="node">
<title>Node23</title>
<g id="a_Node000023"><a xlink:title=" ">
<polygon fill="#e0e0e0" stroke="#999999" points="397.5,-79.5 318.5,-79.5 318.5,-60.5 397.5,-60.5 397.5,-79.5"/>
<text text-anchor="middle" x="358" y="-67.5" font-family="Helvetica,sans-Serif" font-size="10.00">fmt/format.h</text>
</a>
</g>
</g>
<!-- Node22&#45;&gt;Node23 -->
<g id="edge39_Node000022_Node000023" class="edge">
<title>Node22&#45;&gt;Node23</title>
<g id="a_edge39_Node000022_Node000023"><a xlink:title=" ">
<path fill="none" stroke="#63b8ff" d="M299.17,-126.37C309.86,-116.31 327.74,-99.48 340.99,-87.01"/>
<polygon fill="#63b8ff" stroke="#63b8ff" points="343.65,-89.31 348.54,-79.91 338.86,-84.21 343.65,-89.31"/>
</a>
</g>
</g>
<!-- Node24 -->
<g id="Node000024" class="node">
<title>Node24</title>
<g id="a_Node000024"><a xlink:href="log__level_8h.html" target="_top" xlink:title=" ">
<polygon fill="white" stroke="#666666" points="303,-19 233,-19 233,0 303,0 303,-19"/>
<text text-anchor="middle" x="268" y="-7" font-family="Helvetica,sans-Serif" font-size="10.00">log_level.h</text>
</a>
</g>
</g>
<!-- Node22&#45;&gt;Node24 -->
<g id="edge40_Node000022_Node000024" class="edge">
<title>Node22&#45;&gt;Node24</title>
<g id="a_edge40_Node000022_Node000024"><a xlink:title=" ">
<path fill="none" stroke="#63b8ff" d="M288.49,-126.44C284.96,-106.45 276.1,-56.32 271.27,-28.98"/>
<polygon fill="#63b8ff" stroke="#63b8ff" points="274.71,-28.36 269.52,-19.12 267.82,-29.57 274.71,-28.36"/>
</a>
</g>
</g>
<!-- Node22&#45;&gt;Node25 -->
<g id="edge41_Node000022_Node000025" class="edge">
<title>Node22&#45;&gt;Node25</title>
<g id="a_edge41_Node000022_Node000025"><a xlink:title=" ">
<path fill="none" stroke="#63b8ff" d="M280.69,-126.37C269.85,-116.31 251.7,-99.48 238.26,-87.01"/>
<polygon fill="#63b8ff" stroke="#63b8ff" points="240.31,-84.14 230.6,-79.91 235.55,-89.27 240.31,-84.14"/>
</a>
</g>
</g>
<!-- Node25&#45;&gt;Node2 -->
<g id="edge42_Node000025_Node000002" class="edge">
<title>Node25&#45;&gt;Node2</title>
<g id="a_edge42_Node000025_Node000002"><a xlink:title=" ">
<path fill="none" stroke="#63b8ff" d="M200.79,-60.49C177.32,-50.62 138.39,-34.23 111.54,-22.93"/>
<polygon fill="#63b8ff" stroke="#63b8ff" points="112.81,-19.67 102.24,-19.02 110.1,-26.12 112.81,-19.67"/>
</a>
</g>
</g>
<!-- Node25&#45;&gt;Node6 -->
<g id="edge43_Node000025_Node000006" class="edge">
<title>Node25&#45;&gt;Node6</title>
<g id="a_edge43_Node000025_Node000006"><a xlink:title=" ">
<path fill="none" stroke="#63b8ff" d="M214.21,-60.37C207.35,-51.64 196.57,-37.93 188.05,-27.09"/>
<polygon fill="#63b8ff" stroke="#63b8ff" points="190.75,-24.86 181.82,-19.17 185.25,-29.19 190.75,-24.86"/>
</a>
</g>
</g>
<!-- Node25&#45;&gt;Node24 -->
<g id="edge44_Node000025_Node000024" class="edge">
<title>Node25&#45;&gt;Node24</title>
<g id="a_edge44_Node000025_Node000024"><a xlink:title=" ">
<path fill="none" stroke="#63b8ff" d="M227.94,-60.37C234.95,-51.64 245.96,-37.93 254.67,-27.09"/>
<polygon fill="#63b8ff" stroke="#63b8ff" points="257.5,-29.16 261.04,-19.17 252.04,-24.77 257.5,-29.16"/>
</a>
</g>
</g>
<!-- Node26&#45;&gt;Node3 -->
<g id="edge48_Node000026_Node000003" class="edge">
<title>Node26&#45;&gt;Node3</title>
<g id="a_edge48_Node000026_Node000003"><a xlink:title=" ">
<path fill="none" stroke="#63b8ff" d="M977.74,-186.84C982.64,-154.5 986.93,-90.17 952,-55 916.16,-18.91 760.51,-12.03 692.27,-10.76"/>
<polygon fill="#63b8ff" stroke="#63b8ff" points="692.15,-7.26 682.09,-10.6 692.04,-14.26 692.15,-7.26"/>
</a>
</g>
</g>
<!-- Node26&#45;&gt;Node16 -->
<g id="edge50_Node000026_Node000016" class="edge">
<title>Node26&#45;&gt;Node16</title>
<g id="a_edge50_Node000026_Node000016"><a xlink:title=" ">
<path fill="none" stroke="#63b8ff" d="M935.47,-186.96C916.16,-177.16 892.88,-165.35 873.81,-155.67"/>
<polygon fill="#63b8ff" stroke="#63b8ff" points="875.32,-152.52 864.82,-151.11 872.15,-158.76 875.32,-152.52"/>
</a>
</g>
</g>
<!-- Node27 -->
<g id="Node000027" class="node">
<title>Node27</title>
<g id="a_Node000027"><a xlink:title=" ">
<polygon fill="#e0e0e0" stroke="#999999" points="1049.5,-145.5 1004.5,-145.5 1004.5,-126.5 1049.5,-126.5 1049.5,-145.5"/>
<text text-anchor="middle" x="1027" y="-133.5" font-family="Helvetica,sans-Serif" font-size="10.00">utility</text>
</a>
</g>
</g>
<!-- Node26&#45;&gt;Node27 -->
<g id="edge49_Node000026_Node000027" class="edge">
<title>Node26&#45;&gt;Node27</title>
<g id="a_edge49_Node000026_Node000027"><a xlink:title=" ">
<path fill="none" stroke="#63b8ff" d="M989.05,-186.77C996.92,-176.45 1006.46,-163.93 1014.01,-154.04"/>
<polygon fill="#63b8ff" stroke="#63b8ff" points="1016.99,-155.89 1020.27,-145.82 1011.43,-151.65 1016.99,-155.89"/>
</a>
</g>
</g>
</g>
</svg>

<g id="navigator" transform="translate(0 0)" fill="#404254">
  <rect fill="#f2f5e9" fill-opacity="0.5" stroke="#606060" stroke-width=".5" x="0" y="0" width="60" height="60"/>
  <use id="zoomplus" xlink:href="#zoomPlus" x="17" y="9" onmousedown="handleZoom(evt,'in')"/>
  <use id="zoomminus" xlink:href="#zoomMin" x="42" y="9" onmousedown="handleZoom(evt,'out')"/>
  <use id="reset" xlink:href="#resetDef" x="30" y="36" onmousedown="handleReset()"/>
   <use id="arrowup" xlink:href="#arrowUp" x="0" y="0" onmousedown="handlePan(0,-1)"/>
  <use id="arrowright" xlink:href="#arrowRight" x="0" y="0" onmousedown="handlePan(1,0)"/>
  <use id="arrowdown" xlink:href="#arrowDown" x="0" y="0" onmousedown="handlePan(0,1)"/>
  <use id="arrowleft" xlink:href="#arrowLeft" x="0" y="0" onmousedown="handlePan(-1,0)"/>
</g>
<svg viewBox="0 0 15 15" width="100%" height="30px" preserveAspectRatio="xMaxYMin meet">
 <g id="arrow_out" transform="scale(0.3 0.3)">
  <a xlink:href="connector__resolver_8h__incl_org.svg" target="_base">
   <rect id="button" ry="5" rx="5" y="6" x="6" height="38" width="38"
        fill="#f2f5e9" fill-opacity="0.5" stroke="#606060" stroke-width="1.0"/>
   <path id="arrow"
     d="M 11.500037,31.436501 C 11.940474,20.09759 22.043105,11.32322 32.158766,21.979434 L 37.068811,17.246167 C 37.068811,17.246167 37.088388,32 37.088388,32 L 22.160133,31.978069 C 22.160133,31.978069 26.997745,27.140456 26.997745,27.140456 C 18.528582,18.264221 13.291696,25.230495 11.500037,31.436501 z"
     style="fill:#404040;"/>
  </a>
 </g>
</svg>

<style type='text/css'>
<![CDATA[
[data-mouse-over-selected='false'] { opacity: 0.7; }
[data-mouse-over-selected='true']  { opacity: 1.0; }
]]>
</style>
<script type="application/ecmascript"><![CDATA[
document.addEventListener('DOMContentLoaded', (event) => {
  highlightEdges();
  highlightAdjacentNodes();
});
]]></script>
</svg>
