<?xml version="1.0" encoding="UTF-8" standalone="no"?>
<!DOCTYPE svg PUBLIC "-//W3C//DTD SVG 1.1//EN"
 "http://www.w3.org/Graphics/SVG/1.1/DTD/svg11.dtd">
<!-- Generated by graphviz version 2.43.0 (0)
 -->
<!-- Title: include/mosaic/core/connector_state_manager.h Pages: 1 -->
<svg width="1646pt" height="434pt"
 viewBox="0.00 0.00 1646.00 434.00" xmlns="http://www.w3.org/2000/svg" xmlns:xlink="http://www.w3.org/1999/xlink">
<g id="graph0" class="graph" transform="scale(1 1) rotate(0) translate(4 430)">
<title>include/mosaic/core/connector_state_manager.h</title>
<!-- Node1 -->
<g id="Node000001" class="node">
<title>Node1</title>
<g id="a_Node000001"><a xlink:title=" ">
<polygon fill="#999999" stroke="#666666" points="470.5,-426 315.5,-426 315.5,-396 470.5,-396 470.5,-426"/>
<text text-anchor="start" x="323.5" y="-414" font-family="Helvetica,sans-Serif" font-size="10.00">include/mosaic/core</text>
<text text-anchor="middle" x="393" y="-403" font-family="Helvetica,sans-Serif" font-size="10.00">/connector_state_manager.h</text>
</a>
</g>
</g>
<!-- Node2 -->
<g id="Node000002" class="node">
<title>Node2</title>
<g id="a_Node000002"><a xlink:href="mosaic__connector_8h.html" target="_top" xlink:title=" ">
<polygon fill="white" stroke="#666666" points="451,-360 335,-360 335,-330 451,-330 451,-360"/>
<text text-anchor="start" x="343" y="-348" font-family="Helvetica,sans-Serif" font-size="10.00">include/mosaic/core</text>
<text text-anchor="middle" x="393" y="-337" font-family="Helvetica,sans-Serif" font-size="10.00">/mosaic_connector.h</text>
</a>
</g>
</g>
<!-- Node1&#45;&gt;Node2 -->
<g id="edge1_Node000001_Node000002" class="edge">
<title>Node1&#45;&gt;Node2</title>
<g id="a_edge1_Node000001_Node000002"><a xlink:title=" ">
<path fill="none" stroke="#63b8ff" d="M393,-385.54C393,-376.96 393,-367.61 393,-360.16"/>
<polygon fill="#63b8ff" stroke="#63b8ff" points="389.5,-385.8 393,-395.8 396.5,-385.8 389.5,-385.8"/>
</a>
</g>
</g>
<!-- Node18 -->
<g id="Node000018" class="node">
<title>Node18</title>
<g id="a_Node000018"><a xlink:href="peer__connection__manager_8cpp.html" target="_top" xlink:title=" ">
<polygon fill="white" stroke="#666666" points="138,-206 0,-206 0,-176 138,-176 138,-206"/>
<text text-anchor="start" x="8" y="-194" font-family="Helvetica,sans-Serif" font-size="10.00">src/core/peer_connection</text>
<text text-anchor="middle" x="69" y="-183" font-family="Helvetica,sans-Serif" font-size="10.00">_manager.cpp</text>
</a>
</g>
</g>
<!-- Node1&#45;&gt;Node18 -->
<g id="edge36_Node000001_Node000018" class="edge">
<title>Node1&#45;&gt;Node18</title>
<g id="a_edge36_Node000001_Node000018"><a xlink:title=" ">
<path fill="none" stroke="#63b8ff" d="M305.23,-394.66C207.11,-375.52 57.51,-339.67 24,-294 3.39,-265.91 34.01,-226.9 54.01,-206.21"/>
<polygon fill="#63b8ff" stroke="#63b8ff" points="304.67,-398.12 315.16,-396.58 306,-391.25 304.67,-398.12"/>
</a>
</g>
</g>
<!-- Node24 -->
<g id="Node000024" class="node">
<title>Node24</title>
<g id="a_Node000024"><a xlink:href="connector__state__manager_8cpp.html" target="_top" xlink:title=" ">
<polygon fill="white" stroke="#666666" points="584.5,-360 469.5,-360 469.5,-330 584.5,-330 584.5,-360"/>
<text text-anchor="start" x="477.5" y="-348" font-family="Helvetica,sans-Serif" font-size="10.00">src/core/connector</text>
<text text-anchor="middle" x="527" y="-337" font-family="Helvetica,sans-Serif" font-size="10.00">_state_manager.cpp</text>
</a>
</g>
</g>
<!-- Node1&#45;&gt;Node24 -->
<g id="edge35_Node000001_Node000024" class="edge">
<title>Node1&#45;&gt;Node24</title>
<g id="a_edge35_Node000001_Node000024"><a xlink:title=" ">
<path fill="none" stroke="#63b8ff" d="M431.71,-391.51C452.73,-381.47 478.3,-369.26 497.66,-360.01"/>
<polygon fill="#63b8ff" stroke="#63b8ff" points="429.92,-388.49 422.41,-395.95 432.94,-394.8 429.92,-388.49"/>
</a>
</g>
</g>
<!-- Node3 -->
<g id="Node000003" class="node">
<title>Node3</title>
<g id="a_Node000003"><a xlink:href="i__configurable__connector_8h.html" target="_top" xlink:title=" ">
<polygon fill="white" stroke="#666666" points="1270.5,-294 1121.5,-294 1121.5,-253 1270.5,-253 1270.5,-294"/>
<text text-anchor="start" x="1129.5" y="-282" font-family="Helvetica,sans-Serif" font-size="10.00">include/mosaic/auto</text>
<text text-anchor="start" x="1129.5" y="-271" font-family="Helvetica,sans-Serif" font-size="10.00">_configurer/connector</text>
<text text-anchor="middle" x="1196" y="-260" font-family="Helvetica,sans-Serif" font-size="10.00">/i_configurable_connector.h</text>
</a>
</g>
</g>
<!-- Node2&#45;&gt;Node3 -->
<g id="edge2_Node000002_Node000003" class="edge">
<title>Node2&#45;&gt;Node3</title>
<g id="a_edge2_Node000002_Node000003"><a xlink:title=" ">
<path fill="none" stroke="#63b8ff" d="M461.42,-330.09C708.82,-295.99 989.95,-282.06 1121.33,-276.99"/>
<polygon fill="#63b8ff" stroke="#63b8ff" points="460.58,-326.67 451.15,-331.52 461.54,-333.61 460.58,-326.67"/>
</a>
</g>
</g>
<!-- Node15 -->
<g id="Node000015" class="node">
<title>Node15</title>
<g id="a_Node000015"><a xlink:href="mosaic__connector__factory_8h.html" target="_top" xlink:title=" ">
<polygon fill="white" stroke="#666666" points="795.5,-288.5 640.5,-288.5 640.5,-258.5 795.5,-258.5 795.5,-288.5"/>
<text text-anchor="start" x="648.5" y="-276.5" font-family="Helvetica,sans-Serif" font-size="10.00">include/mosaic/core</text>
<text text-anchor="middle" x="718" y="-265.5" font-family="Helvetica,sans-Serif" font-size="10.00">/mosaic_connector_factory.h</text>
</a>
</g>
</g>
<!-- Node2&#45;&gt;Node15 -->
<g id="edge20_Node000002_Node000015" class="edge">
<title>Node2&#45;&gt;Node15</title>
<g id="a_edge20_Node000002_Node000015"><a xlink:title=" ">
<path fill="none" stroke="#63b8ff" d="M461.03,-329.9C519.76,-317.7 600.04,-300.97 632,-294 639.93,-292.27 648.26,-290.42 656.49,-288.58"/>
<polygon fill="#63b8ff" stroke="#63b8ff" points="460.15,-326.51 451.07,-331.97 461.57,-333.36 460.15,-326.51"/>
</a>
</g>
</g>
<!-- Node17 -->
<g id="Node000017" class="node">
<title>Node17</title>
<g id="a_Node000017"><a xlink:href="peer__connection__manager_8h.html" target="_top" xlink:title=" ">
<polygon fill="white" stroke="#666666" points="190.5,-288.5 33.5,-288.5 33.5,-258.5 190.5,-258.5 190.5,-288.5"/>
<text text-anchor="start" x="41.5" y="-276.5" font-family="Helvetica,sans-Serif" font-size="10.00">include/mosaic/core</text>
<text text-anchor="middle" x="112" y="-265.5" font-family="Helvetica,sans-Serif" font-size="10.00">/peer_connection_manager.h</text>
</a>
</g>
</g>
<!-- Node2&#45;&gt;Node17 -->
<g id="edge23_Node000002_Node000017" class="edge">
<title>Node2&#45;&gt;Node17</title>
<g id="a_edge23_Node000002_Node000017"><a xlink:title=" ">
<path fill="none" stroke="#63b8ff" d="M324.7,-328.52C274.96,-316.57 208.72,-300.18 163.41,-288.59"/>
<polygon fill="#63b8ff" stroke="#63b8ff" points="324.19,-332 334.73,-330.93 325.83,-325.19 324.19,-332"/>
</a>
</g>
</g>
<!-- Node19 -->
<g id="Node000019" class="node">
<title>Node19</title>
<g id="a_Node000019"><a xlink:href="peer__connection__observer_8h.html" target="_top" xlink:title=" ">
<polygon fill="white" stroke="#666666" points="365,-288.5 209,-288.5 209,-258.5 365,-258.5 365,-288.5"/>
<text text-anchor="start" x="217" y="-276.5" font-family="Helvetica,sans-Serif" font-size="10.00">include/mosaic/core</text>
<text text-anchor="middle" x="287" y="-265.5" font-family="Helvetica,sans-Serif" font-size="10.00">/peer_connection_observer.h</text>
</a>
</g>
</g>
<!-- Node2&#45;&gt;Node19 -->
<g id="edge26_Node000002_Node000019" class="edge">
<title>Node2&#45;&gt;Node19</title>
<g id="a_edge26_Node000002_Node000019"><a xlink:title=" ">
<path fill="none" stroke="#63b8ff" d="M362.89,-324.25C345.51,-312.86 324.07,-298.81 308.42,-288.54"/>
<polygon fill="#63b8ff" stroke="#63b8ff" points="361.27,-327.38 371.55,-329.94 365.11,-321.53 361.27,-327.38"/>
</a>
</g>
</g>
<!-- Node20 -->
<g id="Node000020" class="node">
<title>Node20</title>
<g id="a_Node000020"><a xlink:href="mosaic__connector_8cpp.html" target="_top" xlink:title=" ">
<polygon fill="white" stroke="#666666" points="322,-200.5 156,-200.5 156,-181.5 322,-181.5 322,-200.5"/>
<text text-anchor="middle" x="239" y="-188.5" font-family="Helvetica,sans-Serif" font-size="10.00">src/core/mosaic_connector.cpp</text>
</a>
</g>
</g>
<!-- Node2&#45;&gt;Node20 -->
<g id="edge33_Node000002_Node000020" class="edge">
<title>Node2&#45;&gt;Node20</title>
<g id="a_edge33_Node000002_Node000020"><a xlink:title=" ">
<path fill="none" stroke="#63b8ff" d="M393.71,-319.57C393.03,-299.64 389.08,-271.8 374,-253 351.15,-224.51 312.11,-208.86 281.87,-200.57"/>
<polygon fill="#63b8ff" stroke="#63b8ff" points="390.21,-319.75 393.8,-329.72 397.21,-319.69 390.21,-319.75"/>
</a>
</g>
</g>
<!-- Node21 -->
<g id="Node000021" class="node">
<title>Node21</title>
<g id="a_Node000021"><a xlink:href="peer__connection__observer_8cpp.html" target="_top" xlink:title=" ">
<polygon fill="white" stroke="#666666" points="478,-206 340,-206 340,-176 478,-176 478,-206"/>
<text text-anchor="start" x="348" y="-194" font-family="Helvetica,sans-Serif" font-size="10.00">src/core/peer_connection</text>
<text text-anchor="middle" x="409" y="-183" font-family="Helvetica,sans-Serif" font-size="10.00">_observer.cpp</text>
</a>
</g>
</g>
<!-- Node2&#45;&gt;Node21 -->
<g id="edge34_Node000002_Node000021" class="edge">
<title>Node2&#45;&gt;Node21</title>
<g id="a_edge34_Node000002_Node000021"><a xlink:title=" ">
<path fill="none" stroke="#63b8ff" d="M401.02,-320.11C403.41,-311.93 405.72,-302.65 407,-294 411.57,-262.99 410.78,-226.1 409.85,-206.28"/>
<polygon fill="#63b8ff" stroke="#63b8ff" points="397.64,-319.18 398.03,-329.77 404.33,-321.25 397.64,-319.18"/>
</a>
</g>
</g>
<!-- Node22 -->
<g id="Node000022" class="node">
<title>Node22</title>
<g id="a_Node000022"><a xlink:href="signaling__client_8h.html" target="_top" xlink:title=" ">
<polygon fill="white" stroke="#666666" points="622.5,-288.5 485.5,-288.5 485.5,-258.5 622.5,-258.5 622.5,-288.5"/>
<text text-anchor="start" x="493.5" y="-276.5" font-family="Helvetica,sans-Serif" font-size="10.00">include/mosaic/signaling</text>
<text text-anchor="middle" x="554" y="-265.5" font-family="Helvetica,sans-Serif" font-size="10.00">/signaling_client.h</text>
</a>
</g>
</g>
<!-- Node2&#45;&gt;Node22 -->
<g id="edge30_Node000002_Node000022" class="edge">
<title>Node2&#45;&gt;Node22</title>
<g id="a_edge30_Node000002_Node000022"><a xlink:title=" ">
<path fill="none" stroke="#63b8ff" d="M434.79,-325.96C461.82,-314.29 496.49,-299.32 521.47,-288.54"/>
<polygon fill="#63b8ff" stroke="#63b8ff" points="433.37,-322.76 425.58,-329.94 436.15,-329.19 433.37,-322.76"/>
</a>
</g>
</g>
<!-- Node4 -->
<g id="Node000004" class="node">
<title>Node4</title>
<g id="a_Node000004"><a xlink:href="auto__configurer_8h.html" target="_top" xlink:title=" ">
<polygon fill="white" stroke="#666666" points="1308,-118 1150,-118 1150,-88 1308,-88 1308,-118"/>
<text text-anchor="start" x="1158" y="-106" font-family="Helvetica,sans-Serif" font-size="10.00">include/mosaic/auto</text>
<text text-anchor="middle" x="1229" y="-95" font-family="Helvetica,sans-Serif" font-size="10.00">_configurer/auto_configurer.h</text>
</a>
</g>
</g>
<!-- Node3&#45;&gt;Node4 -->
<g id="edge3_Node000003_Node000004" class="edge">
<title>Node3&#45;&gt;Node4</title>
<g id="a_edge3_Node000003_Node000004"><a xlink:title=" ">
<path fill="none" stroke="#63b8ff" d="M1201.82,-242.76C1208.99,-206.17 1220.87,-145.53 1226.23,-118.16"/>
<polygon fill="#63b8ff" stroke="#63b8ff" points="1198.34,-242.35 1199.85,-252.84 1205.21,-243.7 1198.34,-242.35"/>
</a>
</g>
</g>
<!-- Node6 -->
<g id="Node000006" class="node">
<title>Node6</title>
<g id="a_Node000006"><a xlink:href="a__dc__handler__configurer_8h.html" target="_top" xlink:title=" ">
<polygon fill="white" stroke="#666666" points="988,-123.5 842,-123.5 842,-82.5 988,-82.5 988,-123.5"/>
<text text-anchor="start" x="850" y="-111.5" font-family="Helvetica,sans-Serif" font-size="10.00">include/mosaic/auto</text>
<text text-anchor="start" x="850" y="-100.5" font-family="Helvetica,sans-Serif" font-size="10.00">_configurer/connector</text>
<text text-anchor="middle" x="915" y="-89.5" font-family="Helvetica,sans-Serif" font-size="10.00">/a_dc_handler_configurer.h</text>
</a>
</g>
</g>
<!-- Node3&#45;&gt;Node6 -->
<g id="edge5_Node000003_Node000006" class="edge">
<title>Node3&#45;&gt;Node6</title>
<g id="a_edge5_Node000003_Node000006"><a xlink:title=" ">
<path fill="none" stroke="#63b8ff" d="M1111.34,-266.57C1068.12,-259.88 1016.83,-245.93 979,-217 947.66,-193.03 929.26,-149.03 920.75,-123.58"/>
<polygon fill="#63b8ff" stroke="#63b8ff" points="1110.88,-270.04 1121.28,-268 1111.88,-263.11 1110.88,-270.04"/>
</a>
</g>
</g>
<!-- Node7 -->
<g id="Node000007" class="node">
<title>Node7</title>
<g id="a_Node000007"><a xlink:href="a__mt__handler__configurer_8h.html" target="_top" xlink:title=" ">
<polygon fill="white" stroke="#666666" points="1581.5,-211.5 1432.5,-211.5 1432.5,-170.5 1581.5,-170.5 1581.5,-211.5"/>
<text text-anchor="start" x="1440.5" y="-199.5" font-family="Helvetica,sans-Serif" font-size="10.00">include/mosaic/auto</text>
<text text-anchor="start" x="1440.5" y="-188.5" font-family="Helvetica,sans-Serif" font-size="10.00">_configurer/connector</text>
<text text-anchor="middle" x="1507" y="-177.5" font-family="Helvetica,sans-Serif" font-size="10.00">/a_mt_handler_configurer.h</text>
</a>
</g>
</g>
<!-- Node3&#45;&gt;Node7 -->
<g id="edge7_Node000003_Node000007" class="edge">
<title>Node3&#45;&gt;Node7</title>
<g id="a_edge7_Node000003_Node000007"><a xlink:title=" ">
<path fill="none" stroke="#63b8ff" d="M1280.58,-253.06C1323.66,-242.86 1376.77,-229.85 1424,-217 1430.24,-215.3 1436.73,-213.47 1443.21,-211.59"/>
<polygon fill="#63b8ff" stroke="#63b8ff" points="1279.64,-249.68 1270.71,-255.38 1281.24,-256.5 1279.64,-249.68"/>
</a>
</g>
</g>
<!-- Node11 -->
<g id="Node000011" class="node">
<title>Node11</title>
<g id="a_Node000011"><a xlink:href="a__parallel__dc__handler__configurer_8h.html" target="_top" xlink:title=" ">
<polygon fill="white" stroke="#666666" points="1132,-129 1006,-129 1006,-77 1132,-77 1132,-129"/>
<text text-anchor="start" x="1014" y="-117" font-family="Helvetica,sans-Serif" font-size="10.00">include/mosaic/auto</text>
<text text-anchor="start" x="1014" y="-106" font-family="Helvetica,sans-Serif" font-size="10.00">_configurer/connector</text>
<text text-anchor="start" x="1014" y="-95" font-family="Helvetica,sans-Serif" font-size="10.00">/a_parallel_dc_handler</text>
<text text-anchor="middle" x="1069" y="-84" font-family="Helvetica,sans-Serif" font-size="10.00">_configurer.h</text>
</a>
</g>
</g>
<!-- Node3&#45;&gt;Node11 -->
<g id="edge12_Node000003_Node000011" class="edge">
<title>Node3&#45;&gt;Node11</title>
<g id="a_edge12_Node000003_Node000011"><a xlink:title=" ">
<path fill="none" stroke="#63b8ff" d="M1190.79,-242.97C1185.56,-219.9 1175.67,-188.01 1158,-165 1147.16,-150.89 1132.11,-138.85 1117.47,-129.29"/>
<polygon fill="#63b8ff" stroke="#63b8ff" points="1187.39,-243.82 1192.88,-252.89 1194.24,-242.38 1187.39,-243.82"/>
</a>
</g>
</g>
<!-- Node12 -->
<g id="Node000012" class="node">
<title>Node12</title>
<g id="a_Node000012"><a xlink:href="configurable__connector__factory_8h.html" target="_top" xlink:title=" ">
<polygon fill="white" stroke="#666666" points="1414.5,-217 1281.5,-217 1281.5,-165 1414.5,-165 1414.5,-217"/>
<text text-anchor="start" x="1289.5" y="-205" font-family="Helvetica,sans-Serif" font-size="10.00">include/mosaic/auto</text>
<text text-anchor="start" x="1289.5" y="-194" font-family="Helvetica,sans-Serif" font-size="10.00">_configurer/connector</text>
<text text-anchor="start" x="1289.5" y="-183" font-family="Helvetica,sans-Serif" font-size="10.00">/configurable_connector</text>
<text text-anchor="middle" x="1348" y="-172" font-family="Helvetica,sans-Serif" font-size="10.00">_factory.h</text>
</a>
</g>
</g>
<!-- Node3&#45;&gt;Node12 -->
<g id="edge14_Node000003_Node000012" class="edge">
<title>Node3&#45;&gt;Node12</title>
<g id="a_edge14_Node000003_Node000012"><a xlink:title=" ">
<path fill="none" stroke="#63b8ff" d="M1242.02,-248.13C1260.54,-238.32 1281.89,-227.01 1300.56,-217.13"/>
<polygon fill="#63b8ff" stroke="#63b8ff" points="1240.38,-245.03 1233.18,-252.81 1243.66,-251.22 1240.38,-245.03"/>
</a>
</g>
</g>
<!-- Node13 -->
<g id="Node000013" class="node">
<title>Node13</title>
<g id="a_Node000013"><a xlink:href="connector__resolver_8h.html" target="_top" xlink:title=" ">
<polygon fill="white" stroke="#666666" points="1448,-123.5 1326,-123.5 1326,-82.5 1448,-82.5 1448,-123.5"/>
<text text-anchor="start" x="1334" y="-111.5" font-family="Helvetica,sans-Serif" font-size="10.00">include/mosaic/auto</text>
<text text-anchor="start" x="1334" y="-100.5" font-family="Helvetica,sans-Serif" font-size="10.00">_configurer/connector</text>
<text text-anchor="middle" x="1387" y="-89.5" font-family="Helvetica,sans-Serif" font-size="10.00">/connector_resolver.h</text>
</a>
</g>
</g>
<!-- Node3&#45;&gt;Node13 -->
<g id="edge18_Node000003_Node000013" class="edge">
<title>Node3&#45;&gt;Node13</title>
<g id="a_edge18_Node000003_Node000013"><a xlink:title=" ">
<path fill="none" stroke="#63b8ff" d="M1211.34,-244.19C1225.11,-220.75 1247.1,-187.73 1273,-165 1292.49,-147.9 1317.6,-133.81 1339.29,-123.5"/>
<polygon fill="#63b8ff" stroke="#63b8ff" points="1208.24,-242.56 1206.3,-252.97 1214.31,-246.04 1208.24,-242.56"/>
</a>
</g>
</g>
<!-- Node14 -->
<g id="Node000014" class="node">
<title>Node14</title>
<g id="a_Node000014"><a xlink:href="i__configurable__connector_8cpp.html" target="_top" xlink:title=" ">
<polygon fill="white" stroke="#666666" points="1148.5,-206 987.5,-206 987.5,-176 1148.5,-176 1148.5,-206"/>
<text text-anchor="start" x="995.5" y="-194" font-family="Helvetica,sans-Serif" font-size="10.00">src/auto_configurer</text>
<text text-anchor="middle" x="1068" y="-183" font-family="Helvetica,sans-Serif" font-size="10.00">/i_configurable_connector.cpp</text>
</a>
</g>
</g>
<!-- Node3&#45;&gt;Node14 -->
<g id="edge19_Node000003_Node000014" class="edge">
<title>Node3&#45;&gt;Node14</title>
<g id="a_edge19_Node000003_Node000014"><a xlink:title=" ">
<path fill="none" stroke="#63b8ff" d="M1156.05,-247.37C1134.48,-233.81 1108.65,-217.56 1090.56,-206.19"/>
<polygon fill="#63b8ff" stroke="#63b8ff" points="1154.36,-250.45 1164.69,-252.81 1158.09,-244.52 1154.36,-250.45"/>
</a>
</g>
</g>
<!-- Node5 -->
<g id="Node000005" class="node">
<title>Node5</title>
<g id="a_Node000005"><a xlink:href="auto__configurer_8cpp.html" target="_top" xlink:title=" ">
<polygon fill="white" stroke="#666666" points="1206.5,-35.5 1091.5,-35.5 1091.5,-5.5 1206.5,-5.5 1206.5,-35.5"/>
<text text-anchor="start" x="1099.5" y="-23.5" font-family="Helvetica,sans-Serif" font-size="10.00">src/auto_configurer</text>
<text text-anchor="middle" x="1149" y="-12.5" font-family="Helvetica,sans-Serif" font-size="10.00">/auto_configurer.cpp</text>
</a>
</g>
</g>
<!-- Node4&#45;&gt;Node5 -->
<g id="edge4_Node000004_Node000005" class="edge">
<title>Node4&#45;&gt;Node5</title>
<g id="a_edge4_Node000004_Node000005"><a xlink:title=" ">
<path fill="none" stroke="#63b8ff" d="M1207.69,-80.55C1193.55,-66.33 1175.39,-48.06 1163.04,-35.63"/>
<polygon fill="#63b8ff" stroke="#63b8ff" points="1205.53,-83.35 1215.07,-87.98 1210.5,-78.42 1205.53,-83.35"/>
</a>
</g>
</g>
<!-- Node6&#45;&gt;Node5 -->
<g id="edge6_Node000006_Node000005" class="edge">
<title>Node6&#45;&gt;Node5</title>
<g id="a_edge6_Node000006_Node000005"><a xlink:title=" ">
<path fill="none" stroke="#63b8ff" d="M981.53,-79.11C1022.27,-65.1 1073.1,-47.61 1108.01,-35.6"/>
<polygon fill="#63b8ff" stroke="#63b8ff" points="980.26,-75.85 971.94,-82.41 982.54,-82.47 980.26,-75.85"/>
</a>
</g>
</g>
<!-- Node7&#45;&gt;Node5 -->
<g id="edge11_Node000007_Node000005" class="edge">
<title>Node7&#45;&gt;Node5</title>
<g id="a_edge11_Node000007_Node000005"><a xlink:title=" ">
<path fill="none" stroke="#63b8ff" d="M1501.86,-160.11C1495.76,-134.07 1482.94,-97.39 1457,-77 1437.59,-61.74 1290.5,-40.17 1206.8,-28.95"/>
<polygon fill="#63b8ff" stroke="#63b8ff" points="1498.5,-161.14 1504.01,-170.19 1505.35,-159.68 1498.5,-161.14"/>
</a>
</g>
</g>
<!-- Node8 -->
<g id="Node000008" class="node">
<title>Node8</title>
<g id="a_Node000008"><a xlink:href="opencv__camera__mt__handler_8h.html" target="_top" xlink:title=" ">
<polygon fill="white" stroke="#666666" points="1638,-123.5 1504,-123.5 1504,-82.5 1638,-82.5 1638,-123.5"/>
<text text-anchor="start" x="1512" y="-111.5" font-family="Helvetica,sans-Serif" font-size="10.00">include/mosaic/auto</text>
<text text-anchor="start" x="1512" y="-100.5" font-family="Helvetica,sans-Serif" font-size="10.00">_configurer/impl/opencv</text>
<text text-anchor="middle" x="1571" y="-89.5" font-family="Helvetica,sans-Serif" font-size="10.00">_camera_mt_handler.h</text>
</a>
</g>
</g>
<!-- Node7&#45;&gt;Node8 -->
<g id="edge8_Node000007_Node000008" class="edge">
<title>Node7&#45;&gt;Node8</title>
<g id="a_edge8_Node000007_Node000008"><a xlink:title=" ">
<path fill="none" stroke="#63b8ff" d="M1527.7,-162.18C1537.03,-149.64 1547.83,-135.13 1556.31,-123.74"/>
<polygon fill="#63b8ff" stroke="#63b8ff" points="1524.68,-160.37 1521.52,-170.49 1530.3,-164.55 1524.68,-160.37"/>
</a>
</g>
</g>
<!-- Node9 -->
<g id="Node000009" class="node">
<title>Node9</title>
<g id="a_Node000009"><a xlink:href="connector__resolver_8cpp.html" target="_top" xlink:title=" ">
<polygon fill="white" stroke="#666666" points="1472,-35.5 1340,-35.5 1340,-5.5 1472,-5.5 1472,-35.5"/>
<text text-anchor="start" x="1348" y="-23.5" font-family="Helvetica,sans-Serif" font-size="10.00">src/auto_configurer</text>
<text text-anchor="middle" x="1406" y="-12.5" font-family="Helvetica,sans-Serif" font-size="10.00">/connector_resolver.cpp</text>
</a>
</g>
</g>
<!-- Node8&#45;&gt;Node9 -->
<g id="edge9_Node000008_Node000009" class="edge">
<title>Node8&#45;&gt;Node9</title>
<g id="a_edge9_Node000008_Node000009"><a xlink:title=" ">
<path fill="none" stroke="#63b8ff" d="M1521.31,-77.76C1493.05,-63.97 1458.66,-47.19 1434.83,-35.56"/>
<polygon fill="#63b8ff" stroke="#63b8ff" points="1520.11,-81.07 1530.64,-82.31 1523.18,-74.78 1520.11,-81.07"/>
</a>
</g>
</g>
<!-- Node10 -->
<g id="Node000010" class="node">
<title>Node10</title>
<g id="a_Node000010"><a xlink:href="opencv__camera__mt__handler_8cpp.html" target="_top" xlink:title=" ">
<polygon fill="white" stroke="#666666" points="1632,-41 1510,-41 1510,0 1632,0 1632,-41"/>
<text text-anchor="start" x="1518" y="-29" font-family="Helvetica,sans-Serif" font-size="10.00">src/auto_configurer</text>
<text text-anchor="start" x="1518" y="-18" font-family="Helvetica,sans-Serif" font-size="10.00">/impl/opencv_camera</text>
<text text-anchor="middle" x="1571" y="-7" font-family="Helvetica,sans-Serif" font-size="10.00">_mt_handler.cpp</text>
</a>
</g>
</g>
<!-- Node8&#45;&gt;Node10 -->
<g id="edge10_Node000008_Node000010" class="edge">
<title>Node8&#45;&gt;Node10</title>
<g id="a_edge10_Node000008_Node000010"><a xlink:title=" ">
<path fill="none" stroke="#63b8ff" d="M1571,-71.87C1571,-61.6 1571,-50.4 1571,-41.17"/>
<polygon fill="#63b8ff" stroke="#63b8ff" points="1567.5,-72.1 1571,-82.1 1574.5,-72.1 1567.5,-72.1"/>
</a>
</g>
</g>
<!-- Node11&#45;&gt;Node5 -->
<g id="edge13_Node000011_Node000005" class="edge">
<title>Node11&#45;&gt;Node5</title>
<g id="a_edge13_Node000011_Node000005"><a xlink:title=" ">
<path fill="none" stroke="#63b8ff" d="M1100.98,-69.82C1112.64,-58.08 1125.26,-45.39 1134.63,-35.96"/>
<polygon fill="#63b8ff" stroke="#63b8ff" points="1098.44,-67.41 1093.87,-76.97 1103.41,-72.34 1098.44,-67.41"/>
</a>
</g>
</g>
<!-- Node12&#45;&gt;Node13 -->
<g id="edge15_Node000012_Node000013" class="edge">
<title>Node12&#45;&gt;Node13</title>
<g id="a_edge15_Node000012_Node000013"><a xlink:title=" ">
<path fill="none" stroke="#63b8ff" d="M1363.67,-155.44C1368.57,-144.64 1373.8,-133.11 1378.06,-123.7"/>
<polygon fill="#63b8ff" stroke="#63b8ff" points="1360.43,-154.11 1359.49,-164.66 1366.81,-157 1360.43,-154.11"/>
</a>
</g>
</g>
<!-- Node13&#45;&gt;Node5 -->
<g id="edge16_Node000013_Node000005" class="edge">
<title>Node13&#45;&gt;Node5</title>
<g id="a_edge16_Node000013_Node000005"><a xlink:title=" ">
<path fill="none" stroke="#63b8ff" d="M1323.33,-79.19C1321.2,-78.45 1319.08,-77.72 1317,-77 1274.88,-62.52 1226.58,-46.64 1192.61,-35.59"/>
<polygon fill="#63b8ff" stroke="#63b8ff" points="1322.18,-82.49 1332.78,-82.49 1324.49,-75.89 1322.18,-82.49"/>
</a>
</g>
</g>
<!-- Node13&#45;&gt;Node9 -->
<g id="edge17_Node000013_Node000009" class="edge">
<title>Node13&#45;&gt;Node9</title>
<g id="a_edge17_Node000013_Node000009"><a xlink:title=" ">
<path fill="none" stroke="#63b8ff" d="M1394.05,-72.13C1396.98,-59.73 1400.23,-45.93 1402.61,-35.87"/>
<polygon fill="#63b8ff" stroke="#63b8ff" points="1390.59,-71.56 1391.7,-82.1 1397.4,-73.17 1390.59,-71.56"/>
</a>
</g>
</g>
<!-- Node15&#45;&gt;Node5 -->
<g id="edge21_Node000015_Node000005" class="edge">
<title>Node15&#45;&gt;Node5</title>
<g id="a_edge21_Node000015_Node000005"><a xlink:title=" ">
<path fill="none" stroke="#63b8ff" d="M755.1,-253.09C769.44,-243.9 784.82,-231.7 795,-217 831.7,-163.99 785.38,-120.46 833,-77 869.98,-43.25 1010.82,-29.53 1091.44,-24.36"/>
<polygon fill="#63b8ff" stroke="#63b8ff" points="753.08,-250.23 746.36,-258.42 756.72,-256.21 753.08,-250.23"/>
</a>
</g>
</g>
<!-- Node16 -->
<g id="Node000016" class="node">
<title>Node16</title>
<g id="a_Node000016"><a xlink:href="mosaic__connector__factory_8cpp.html" target="_top" xlink:title=" ">
<polygon fill="white" stroke="#666666" points="786,-206 640,-206 640,-176 786,-176 786,-206"/>
<text text-anchor="start" x="648" y="-194" font-family="Helvetica,sans-Serif" font-size="10.00">src/core/mosaic_connector</text>
<text text-anchor="middle" x="713" y="-183" font-family="Helvetica,sans-Serif" font-size="10.00">_factory.cpp</text>
</a>
</g>
</g>
<!-- Node15&#45;&gt;Node16 -->
<g id="edge22_Node000015_Node000016" class="edge">
<title>Node15&#45;&gt;Node16</title>
<g id="a_edge22_Node000015_Node000016"><a xlink:title=" ">
<path fill="none" stroke="#63b8ff" d="M716.49,-248.24C715.64,-234.48 714.6,-217.75 713.88,-206.13"/>
<polygon fill="#63b8ff" stroke="#63b8ff" points="713.02,-248.71 717.13,-258.48 720,-248.28 713.02,-248.71"/>
</a>
</g>
</g>
<!-- Node17&#45;&gt;Node2 -->
<g id="edge24_Node000017_Node000002" class="edge">
<title>Node17&#45;&gt;Node2</title>
<g id="a_edge24_Node000017_Node000002"><a xlink:title=" ">
<path fill="none" stroke="#63b8ff" d="M184.29,-290.94C233.57,-302.8 297.57,-318.65 341.68,-329.94"/>
<polygon fill="#63b8ff" stroke="#63b8ff" points="184.87,-287.48 174.33,-288.54 183.23,-294.28 184.87,-287.48"/>
</a>
</g>
</g>
<!-- Node17&#45;&gt;Node18 -->
<g id="edge25_Node000017_Node000018" class="edge">
<title>Node17&#45;&gt;Node18</title>
<g id="a_edge25_Node000017_Node000018"><a xlink:title=" ">
<path fill="none" stroke="#63b8ff" d="M99.69,-249.46C92.23,-235.48 82.94,-218.1 76.55,-206.13"/>
<polygon fill="#63b8ff" stroke="#63b8ff" points="96.71,-251.31 104.51,-258.48 102.89,-248.01 96.71,-251.31"/>
</a>
</g>
</g>
<!-- Node19&#45;&gt;Node18 -->
<g id="edge28_Node000019_Node000018" class="edge">
<title>Node19&#45;&gt;Node18</title>
<g id="a_edge28_Node000019_Node000018"><a xlink:title=" ">
<path fill="none" stroke="#63b8ff" d="M239.57,-254.99C199.93,-240.35 144.11,-219.74 107.27,-206.13"/>
<polygon fill="#63b8ff" stroke="#63b8ff" points="238.43,-258.3 249.03,-258.48 240.86,-251.73 238.43,-258.3"/>
</a>
</g>
</g>
<!-- Node19&#45;&gt;Node20 -->
<g id="edge27_Node000019_Node000020" class="edge">
<title>Node19&#45;&gt;Node20</title>
<g id="a_edge27_Node000019_Node000020"><a xlink:title=" ">
<path fill="none" stroke="#63b8ff" d="M273.33,-249.57C263.67,-233.37 251.24,-212.53 244.3,-200.88"/>
<polygon fill="#63b8ff" stroke="#63b8ff" points="270.51,-251.68 278.64,-258.48 276.52,-248.1 270.51,-251.68"/>
</a>
</g>
</g>
<!-- Node19&#45;&gt;Node21 -->
<g id="edge29_Node000019_Node000021" class="edge">
<title>Node19&#45;&gt;Node21</title>
<g id="a_edge29_Node000019_Node000021"><a xlink:title=" ">
<path fill="none" stroke="#63b8ff" d="M316.84,-252.81C338.74,-238.36 367.97,-219.07 387.58,-206.13"/>
<polygon fill="#63b8ff" stroke="#63b8ff" points="314.67,-250.05 308.25,-258.48 318.53,-255.89 314.67,-250.05"/>
</a>
</g>
</g>
<!-- Node22&#45;&gt;Node16 -->
<g id="edge31_Node000022_Node000016" class="edge">
<title>Node22&#45;&gt;Node16</title>
<g id="a_edge31_Node000022_Node000016"><a xlink:title=" ">
<path fill="none" stroke="#63b8ff" d="M590.63,-253.95C619.39,-239.39 658.84,-219.42 685.09,-206.13"/>
<polygon fill="#63b8ff" stroke="#63b8ff" points="589.04,-250.84 581.7,-258.48 592.2,-257.08 589.04,-250.84"/>
</a>
</g>
</g>
<!-- Node23 -->
<g id="Node000023" class="node">
<title>Node23</title>
<g id="a_Node000023"><a xlink:href="signaling__client_8cpp.html" target="_top" xlink:title=" ">
<polygon fill="white" stroke="#666666" points="621.5,-206 496.5,-206 496.5,-176 621.5,-176 621.5,-206"/>
<text text-anchor="start" x="504.5" y="-194" font-family="Helvetica,sans-Serif" font-size="10.00">src/signaling/signaling</text>
<text text-anchor="middle" x="559" y="-183" font-family="Helvetica,sans-Serif" font-size="10.00">_client.cpp</text>
</a>
</g>
</g>
<!-- Node22&#45;&gt;Node23 -->
<g id="edge32_Node000022_Node000023" class="edge">
<title>Node22&#45;&gt;Node23</title>
<g id="a_edge32_Node000022_Node000023"><a xlink:title=" ">
<path fill="none" stroke="#63b8ff" d="M555.51,-248.24C556.36,-234.48 557.4,-217.75 558.12,-206.13"/>
<polygon fill="#63b8ff" stroke="#63b8ff" points="552,-248.28 554.87,-258.48 558.98,-248.71 552,-248.28"/>
</a>
</g>
</g>
</g>
</svg>
