<?xml version="1.0" encoding="UTF-8" standalone="no"?>
<!DOCTYPE svg PUBLIC "-//W3C//DTD SVG 1.1//EN"
 "http://www.w3.org/Graphics/SVG/1.1/DTD/svg11.dtd">
<!-- Generated by graphviz version 2.43.0 (0)
 -->
<!-- Title: include/mosaic/core/connector_state_manager.h Pages: 1 -->
<svg width="1629pt" height="423pt"
 viewBox="0.00 0.00 1629.00 423.00" xmlns="http://www.w3.org/2000/svg" xmlns:xlink="http://www.w3.org/1999/xlink">
<g id="graph0" class="graph" transform="scale(1 1) rotate(0) translate(4 419)">
<title>include/mosaic/core/connector_state_manager.h</title>
<!-- Node1 -->
<g id="Node000001" class="node">
<title>Node1</title>
<g id="a_Node000001"><a xlink:title=" ">
<polygon fill="#999999" stroke="#666666" points="470.5,-415 315.5,-415 315.5,-385 470.5,-385 470.5,-415"/>
<text text-anchor="start" x="323.5" y="-403" font-family="Helvetica,sans-Serif" font-size="10.00">include/mosaic/core</text>
<text text-anchor="middle" x="393" y="-392" font-family="Helvetica,sans-Serif" font-size="10.00">/connector_state_manager.h</text>
</a>
</g>
</g>
<!-- Node2 -->
<g id="Node000002" class="node">
<title>Node2</title>
<g id="a_Node000002"><a xlink:href="mosaic__connector_8h.html" target="_top" xlink:title=" ">
<polygon fill="white" stroke="#666666" points="451,-349 335,-349 335,-319 451,-319 451,-349"/>
<text text-anchor="start" x="343" y="-337" font-family="Helvetica,sans-Serif" font-size="10.00">include/mosaic/core</text>
<text text-anchor="middle" x="393" y="-326" font-family="Helvetica,sans-Serif" font-size="10.00">/mosaic_connector.h</text>
</a>
</g>
</g>
<!-- Node1&#45;&gt;Node2 -->
<g id="edge1_Node000001_Node000002" class="edge">
<title>Node1&#45;&gt;Node2</title>
<g id="a_edge1_Node000001_Node000002"><a xlink:title=" ">
<path fill="none" stroke="#63b8ff" d="M393,-374.54C393,-365.96 393,-356.61 393,-349.16"/>
<polygon fill="#63b8ff" stroke="#63b8ff" points="389.5,-374.8 393,-384.8 396.5,-374.8 389.5,-374.8"/>
</a>
</g>
</g>
<!-- Node16 -->
<g id="Node000016" class="node">
<title>Node16</title>
<g id="a_Node000016"><a xlink:href="peer__connection__manager_8cpp.html" target="_top" xlink:title=" ">
<polygon fill="white" stroke="#666666" points="138,-195 0,-195 0,-165 138,-165 138,-195"/>
<text text-anchor="start" x="8" y="-183" font-family="Helvetica,sans-Serif" font-size="10.00">src/core/peer_connection</text>
<text text-anchor="middle" x="69" y="-172" font-family="Helvetica,sans-Serif" font-size="10.00">_manager.cpp</text>
</a>
</g>
</g>
<!-- Node1&#45;&gt;Node16 -->
<g id="edge33_Node000001_Node000016" class="edge">
<title>Node1&#45;&gt;Node16</title>
<g id="a_edge33_Node000001_Node000016"><a xlink:title=" ">
<path fill="none" stroke="#63b8ff" d="M305.23,-383.66C207.11,-364.52 57.51,-328.67 24,-283 3.39,-254.91 34.01,-215.9 54.01,-195.21"/>
<polygon fill="#63b8ff" stroke="#63b8ff" points="304.67,-387.12 315.16,-385.58 306,-380.25 304.67,-387.12"/>
</a>
</g>
</g>
<!-- Node22 -->
<g id="Node000022" class="node">
<title>Node22</title>
<g id="a_Node000022"><a xlink:href="connector__state__manager_8cpp.html" target="_top" xlink:title=" ">
<polygon fill="white" stroke="#666666" points="584.5,-349 469.5,-349 469.5,-319 584.5,-319 584.5,-349"/>
<text text-anchor="start" x="477.5" y="-337" font-family="Helvetica,sans-Serif" font-size="10.00">src/core/connector</text>
<text text-anchor="middle" x="527" y="-326" font-family="Helvetica,sans-Serif" font-size="10.00">_state_manager.cpp</text>
</a>
</g>
</g>
<!-- Node1&#45;&gt;Node22 -->
<g id="edge32_Node000001_Node000022" class="edge">
<title>Node1&#45;&gt;Node22</title>
<g id="a_edge32_Node000001_Node000022"><a xlink:title=" ">
<path fill="none" stroke="#63b8ff" d="M431.71,-380.51C452.73,-370.47 478.3,-358.26 497.66,-349.01"/>
<polygon fill="#63b8ff" stroke="#63b8ff" points="429.92,-377.49 422.41,-384.95 432.94,-383.8 429.92,-377.49"/>
</a>
</g>
</g>
<!-- Node3 -->
<g id="Node000003" class="node">
<title>Node3</title>
<g id="a_Node000003"><a xlink:href="i__configurable__connector_8h.html" target="_top" xlink:title=" ">
<polygon fill="white" stroke="#666666" points="1241.5,-283 1092.5,-283 1092.5,-242 1241.5,-242 1241.5,-283"/>
<text text-anchor="start" x="1100.5" y="-271" font-family="Helvetica,sans-Serif" font-size="10.00">include/mosaic/auto</text>
<text text-anchor="start" x="1100.5" y="-260" font-family="Helvetica,sans-Serif" font-size="10.00">_configurer/connector</text>
<text text-anchor="middle" x="1167" y="-249" font-family="Helvetica,sans-Serif" font-size="10.00">/i_configurable_connector.h</text>
</a>
</g>
</g>
<!-- Node2&#45;&gt;Node3 -->
<g id="edge2_Node000002_Node000003" class="edge">
<title>Node2&#45;&gt;Node3</title>
<g id="a_edge2_Node000002_Node000003"><a xlink:title=" ">
<path fill="none" stroke="#63b8ff" d="M461.32,-319.1C697.57,-286.16 965.16,-271.76 1092.47,-266.3"/>
<polygon fill="#63b8ff" stroke="#63b8ff" points="460.57,-315.67 451.16,-320.53 461.55,-322.6 460.57,-315.67"/>
</a>
</g>
</g>
<!-- Node13 -->
<g id="Node000013" class="node">
<title>Node13</title>
<g id="a_Node000013"><a xlink:href="mosaic__connector__factory_8h.html" target="_top" xlink:title=" ">
<polygon fill="white" stroke="#666666" points="795.5,-277.5 640.5,-277.5 640.5,-247.5 795.5,-247.5 795.5,-277.5"/>
<text text-anchor="start" x="648.5" y="-265.5" font-family="Helvetica,sans-Serif" font-size="10.00">include/mosaic/core</text>
<text text-anchor="middle" x="718" y="-254.5" font-family="Helvetica,sans-Serif" font-size="10.00">/mosaic_connector_factory.h</text>
</a>
</g>
</g>
<!-- Node2&#45;&gt;Node13 -->
<g id="edge17_Node000002_Node000013" class="edge">
<title>Node2&#45;&gt;Node13</title>
<g id="a_edge17_Node000002_Node000013"><a xlink:title=" ">
<path fill="none" stroke="#63b8ff" d="M461.03,-318.9C519.76,-306.7 600.04,-289.97 632,-283 639.93,-281.27 648.26,-279.42 656.49,-277.58"/>
<polygon fill="#63b8ff" stroke="#63b8ff" points="460.15,-315.51 451.07,-320.97 461.57,-322.36 460.15,-315.51"/>
</a>
</g>
</g>
<!-- Node15 -->
<g id="Node000015" class="node">
<title>Node15</title>
<g id="a_Node000015"><a xlink:href="peer__connection__manager_8h.html" target="_top" xlink:title=" ">
<polygon fill="white" stroke="#666666" points="190.5,-277.5 33.5,-277.5 33.5,-247.5 190.5,-247.5 190.5,-277.5"/>
<text text-anchor="start" x="41.5" y="-265.5" font-family="Helvetica,sans-Serif" font-size="10.00">include/mosaic/core</text>
<text text-anchor="middle" x="112" y="-254.5" font-family="Helvetica,sans-Serif" font-size="10.00">/peer_connection_manager.h</text>
</a>
</g>
</g>
<!-- Node2&#45;&gt;Node15 -->
<g id="edge20_Node000002_Node000015" class="edge">
<title>Node2&#45;&gt;Node15</title>
<g id="a_edge20_Node000002_Node000015"><a xlink:title=" ">
<path fill="none" stroke="#63b8ff" d="M324.7,-317.52C274.96,-305.57 208.72,-289.18 163.41,-277.59"/>
<polygon fill="#63b8ff" stroke="#63b8ff" points="324.19,-321 334.73,-319.93 325.83,-314.19 324.19,-321"/>
</a>
</g>
</g>
<!-- Node17 -->
<g id="Node000017" class="node">
<title>Node17</title>
<g id="a_Node000017"><a xlink:href="peer__connection__observer_8h.html" target="_top" xlink:title=" ">
<polygon fill="white" stroke="#666666" points="365,-277.5 209,-277.5 209,-247.5 365,-247.5 365,-277.5"/>
<text text-anchor="start" x="217" y="-265.5" font-family="Helvetica,sans-Serif" font-size="10.00">include/mosaic/core</text>
<text text-anchor="middle" x="287" y="-254.5" font-family="Helvetica,sans-Serif" font-size="10.00">/peer_connection_observer.h</text>
</a>
</g>
</g>
<!-- Node2&#45;&gt;Node17 -->
<g id="edge23_Node000002_Node000017" class="edge">
<title>Node2&#45;&gt;Node17</title>
<g id="a_edge23_Node000002_Node000017"><a xlink:title=" ">
<path fill="none" stroke="#63b8ff" d="M362.89,-313.25C345.51,-301.86 324.07,-287.81 308.42,-277.54"/>
<polygon fill="#63b8ff" stroke="#63b8ff" points="361.27,-316.38 371.55,-318.94 365.11,-310.53 361.27,-316.38"/>
</a>
</g>
</g>
<!-- Node18 -->
<g id="Node000018" class="node">
<title>Node18</title>
<g id="a_Node000018"><a xlink:href="mosaic__connector_8cpp.html" target="_top" xlink:title=" ">
<polygon fill="white" stroke="#666666" points="322,-189.5 156,-189.5 156,-170.5 322,-170.5 322,-189.5"/>
<text text-anchor="middle" x="239" y="-177.5" font-family="Helvetica,sans-Serif" font-size="10.00">src/core/mosaic_connector.cpp</text>
</a>
</g>
</g>
<!-- Node2&#45;&gt;Node18 -->
<g id="edge30_Node000002_Node000018" class="edge">
<title>Node2&#45;&gt;Node18</title>
<g id="a_edge30_Node000002_Node000018"><a xlink:title=" ">
<path fill="none" stroke="#63b8ff" d="M393.71,-308.57C393.03,-288.64 389.08,-260.8 374,-242 351.15,-213.51 312.11,-197.86 281.87,-189.57"/>
<polygon fill="#63b8ff" stroke="#63b8ff" points="390.21,-308.75 393.8,-318.72 397.21,-308.69 390.21,-308.75"/>
</a>
</g>
</g>
<!-- Node19 -->
<g id="Node000019" class="node">
<title>Node19</title>
<g id="a_Node000019"><a xlink:href="peer__connection__observer_8cpp.html" target="_top" xlink:title=" ">
<polygon fill="white" stroke="#666666" points="478,-195 340,-195 340,-165 478,-165 478,-195"/>
<text text-anchor="start" x="348" y="-183" font-family="Helvetica,sans-Serif" font-size="10.00">src/core/peer_connection</text>
<text text-anchor="middle" x="409" y="-172" font-family="Helvetica,sans-Serif" font-size="10.00">_observer.cpp</text>
</a>
</g>
</g>
<!-- Node2&#45;&gt;Node19 -->
<g id="edge31_Node000002_Node000019" class="edge">
<title>Node2&#45;&gt;Node19</title>
<g id="a_edge31_Node000002_Node000019"><a xlink:title=" ">
<path fill="none" stroke="#63b8ff" d="M401.02,-309.11C403.41,-300.93 405.72,-291.65 407,-283 411.57,-251.99 410.78,-215.1 409.85,-195.28"/>
<polygon fill="#63b8ff" stroke="#63b8ff" points="397.64,-308.18 398.03,-318.77 404.33,-310.25 397.64,-308.18"/>
</a>
</g>
</g>
<!-- Node20 -->
<g id="Node000020" class="node">
<title>Node20</title>
<g id="a_Node000020"><a xlink:href="signaling__client_8h.html" target="_top" xlink:title=" ">
<polygon fill="white" stroke="#666666" points="622.5,-277.5 485.5,-277.5 485.5,-247.5 622.5,-247.5 622.5,-277.5"/>
<text text-anchor="start" x="493.5" y="-265.5" font-family="Helvetica,sans-Serif" font-size="10.00">include/mosaic/signaling</text>
<text text-anchor="middle" x="554" y="-254.5" font-family="Helvetica,sans-Serif" font-size="10.00">/signaling_client.h</text>
</a>
</g>
</g>
<!-- Node2&#45;&gt;Node20 -->
<g id="edge27_Node000002_Node000020" class="edge">
<title>Node2&#45;&gt;Node20</title>
<g id="a_edge27_Node000002_Node000020"><a xlink:title=" ">
<path fill="none" stroke="#63b8ff" d="M434.79,-314.96C461.82,-303.29 496.49,-288.32 521.47,-277.54"/>
<polygon fill="#63b8ff" stroke="#63b8ff" points="433.37,-311.76 425.58,-318.94 436.15,-318.19 433.37,-311.76"/>
</a>
</g>
</g>
<!-- Node4 -->
<g id="Node000004" class="node">
<title>Node4</title>
<g id="a_Node000004"><a xlink:href="auto__configurer_8h.html" target="_top" xlink:title=" ">
<polygon fill="white" stroke="#666666" points="1000,-107 842,-107 842,-77 1000,-77 1000,-107"/>
<text text-anchor="start" x="850" y="-95" font-family="Helvetica,sans-Serif" font-size="10.00">include/mosaic/auto</text>
<text text-anchor="middle" x="921" y="-84" font-family="Helvetica,sans-Serif" font-size="10.00">_configurer/auto_configurer.h</text>
</a>
</g>
</g>
<!-- Node3&#45;&gt;Node4 -->
<g id="edge3_Node000003_Node000004" class="edge">
<title>Node3&#45;&gt;Node4</title>
<g id="a_edge3_Node000003_Node000004"><a xlink:title=" ">
<path fill="none" stroke="#63b8ff" d="M1129.94,-236.11C1077.46,-200.17 983.25,-135.64 941.68,-107.16"/>
<polygon fill="#63b8ff" stroke="#63b8ff" points="1128.07,-239.08 1138.3,-241.84 1132.03,-233.3 1128.07,-239.08"/>
</a>
</g>
</g>
<!-- Node6 -->
<g id="Node000006" class="node">
<title>Node6</title>
<g id="a_Node000006"><a xlink:href="a__dc__handler__configurer_8h.html" target="_top" xlink:title=" ">
<polygon fill="white" stroke="#666666" points="1164,-112.5 1018,-112.5 1018,-71.5 1164,-71.5 1164,-112.5"/>
<text text-anchor="start" x="1026" y="-100.5" font-family="Helvetica,sans-Serif" font-size="10.00">include/mosaic/auto</text>
<text text-anchor="start" x="1026" y="-89.5" font-family="Helvetica,sans-Serif" font-size="10.00">_configurer/connector</text>
<text text-anchor="middle" x="1091" y="-78.5" font-family="Helvetica,sans-Serif" font-size="10.00">/a_dc_handler_configurer.h</text>
</a>
</g>
</g>
<!-- Node3&#45;&gt;Node6 -->
<g id="edge5_Node000003_Node000006" class="edge">
<title>Node3&#45;&gt;Node6</title>
<g id="a_edge5_Node000003_Node000006"><a xlink:title=" ">
<path fill="none" stroke="#63b8ff" d="M1149,-233.37C1143.84,-224.76 1138.42,-215.14 1134,-206 1118.66,-174.25 1104.94,-135.5 1097.31,-112.62"/>
<polygon fill="#63b8ff" stroke="#63b8ff" points="1146.03,-235.22 1154.23,-241.92 1152,-231.57 1146.03,-235.22"/>
</a>
</g>
</g>
<!-- Node7 -->
<g id="Node000007" class="node">
<title>Node7</title>
<g id="a_Node000007"><a xlink:href="a__mt__handler__configurer_8h.html" target="_top" xlink:title=" ">
<polygon fill="white" stroke="#666666" points="1331.5,-112.5 1182.5,-112.5 1182.5,-71.5 1331.5,-71.5 1331.5,-112.5"/>
<text text-anchor="start" x="1190.5" y="-100.5" font-family="Helvetica,sans-Serif" font-size="10.00">include/mosaic/auto</text>
<text text-anchor="start" x="1190.5" y="-89.5" font-family="Helvetica,sans-Serif" font-size="10.00">_configurer/connector</text>
<text text-anchor="middle" x="1257" y="-78.5" font-family="Helvetica,sans-Serif" font-size="10.00">/a_mt_handler_configurer.h</text>
</a>
</g>
</g>
<!-- Node3&#45;&gt;Node7 -->
<g id="edge7_Node000003_Node000007" class="edge">
<title>Node3&#45;&gt;Node7</title>
<g id="a_edge7_Node000003_Node000007"><a xlink:title=" ">
<path fill="none" stroke="#63b8ff" d="M1161.72,-231.84C1159.19,-209.15 1159.07,-177.81 1172,-154 1181.53,-136.44 1198.57,-122.71 1214.9,-112.76"/>
<polygon fill="#63b8ff" stroke="#63b8ff" points="1158.27,-232.45 1163.06,-241.9 1165.21,-231.53 1158.27,-232.45"/>
</a>
</g>
</g>
<!-- Node8 -->
<g id="Node000008" class="node">
<title>Node8</title>
<g id="a_Node000008"><a xlink:href="a__parallel__dc__handler__configurer_8h.html" target="_top" xlink:title=" ">
<polygon fill="white" stroke="#666666" points="1476,-118 1350,-118 1350,-66 1476,-66 1476,-118"/>
<text text-anchor="start" x="1358" y="-106" font-family="Helvetica,sans-Serif" font-size="10.00">include/mosaic/auto</text>
<text text-anchor="start" x="1358" y="-95" font-family="Helvetica,sans-Serif" font-size="10.00">_configurer/connector</text>
<text text-anchor="start" x="1358" y="-84" font-family="Helvetica,sans-Serif" font-size="10.00">/a_parallel_dc_handler</text>
<text text-anchor="middle" x="1413" y="-73" font-family="Helvetica,sans-Serif" font-size="10.00">_configurer.h</text>
</a>
</g>
</g>
<!-- Node3&#45;&gt;Node8 -->
<g id="edge9_Node000003_Node000008" class="edge">
<title>Node3&#45;&gt;Node8</title>
<g id="a_edge9_Node000003_Node000008"><a xlink:title=" ">
<path fill="none" stroke="#63b8ff" d="M1170.24,-231.73C1174.45,-207.49 1184.07,-174.09 1206,-154 1251.79,-112.05 1281.63,-136.2 1341,-118 1343.91,-117.11 1346.88,-116.17 1349.87,-115.21"/>
<polygon fill="#63b8ff" stroke="#63b8ff" points="1166.75,-231.41 1168.71,-241.82 1173.67,-232.46 1166.75,-231.41"/>
</a>
</g>
</g>
<!-- Node9 -->
<g id="Node000009" class="node">
<title>Node9</title>
<g id="a_Node000009"><a xlink:href="configurable__connector__factory_8h.html" target="_top" xlink:title=" ">
<polygon fill="white" stroke="#666666" points="1526.5,-206 1393.5,-206 1393.5,-154 1526.5,-154 1526.5,-206"/>
<text text-anchor="start" x="1401.5" y="-194" font-family="Helvetica,sans-Serif" font-size="10.00">include/mosaic/auto</text>
<text text-anchor="start" x="1401.5" y="-183" font-family="Helvetica,sans-Serif" font-size="10.00">_configurer/connector</text>
<text text-anchor="start" x="1401.5" y="-172" font-family="Helvetica,sans-Serif" font-size="10.00">/configurable_connector</text>
<text text-anchor="middle" x="1460" y="-161" font-family="Helvetica,sans-Serif" font-size="10.00">_factory.h</text>
</a>
</g>
</g>
<!-- Node3&#45;&gt;Node9 -->
<g id="edge11_Node000003_Node000009" class="edge">
<title>Node3&#45;&gt;Node9</title>
<g id="a_edge11_Node000003_Node000009"><a xlink:title=" ">
<path fill="none" stroke="#63b8ff" d="M1251.38,-241.53C1291.97,-231.54 1341.21,-218.86 1385,-206 1387.77,-205.19 1390.58,-204.34 1393.42,-203.47"/>
<polygon fill="#63b8ff" stroke="#63b8ff" points="1250.4,-238.17 1241.52,-243.94 1252.07,-244.96 1250.4,-238.17"/>
</a>
</g>
</g>
<!-- Node10 -->
<g id="Node000010" class="node">
<title>Node10</title>
<g id="a_Node000010"><a xlink:href="connector__resolver_8h.html" target="_top" xlink:title=" ">
<polygon fill="white" stroke="#666666" points="1616,-112.5 1494,-112.5 1494,-71.5 1616,-71.5 1616,-112.5"/>
<text text-anchor="start" x="1502" y="-100.5" font-family="Helvetica,sans-Serif" font-size="10.00">include/mosaic/auto</text>
<text text-anchor="start" x="1502" y="-89.5" font-family="Helvetica,sans-Serif" font-size="10.00">_configurer/connector</text>
<text text-anchor="middle" x="1555" y="-78.5" font-family="Helvetica,sans-Serif" font-size="10.00">/connector_resolver.h</text>
</a>
</g>
</g>
<!-- Node3&#45;&gt;Node10 -->
<g id="edge15_Node000003_Node000010" class="edge">
<title>Node3&#45;&gt;Node10</title>
<g id="a_edge15_Node000003_Node000010"><a xlink:title=" ">
<path fill="none" stroke="#63b8ff" d="M1251.91,-259.94C1348.19,-256.3 1496.9,-244.43 1536,-206 1560.69,-181.74 1560.59,-138.25 1558,-112.89"/>
<polygon fill="#63b8ff" stroke="#63b8ff" points="1251.77,-256.44 1241.9,-260.29 1252.01,-263.44 1251.77,-256.44"/>
</a>
</g>
</g>
<!-- Node12 -->
<g id="Node000012" class="node">
<title>Node12</title>
<g id="a_Node000012"><a xlink:href="i__configurable__connector_8cpp.html" target="_top" xlink:title=" ">
<polygon fill="white" stroke="#666666" points="1375.5,-195 1214.5,-195 1214.5,-165 1375.5,-165 1375.5,-195"/>
<text text-anchor="start" x="1222.5" y="-183" font-family="Helvetica,sans-Serif" font-size="10.00">src/auto_configurer</text>
<text text-anchor="middle" x="1295" y="-172" font-family="Helvetica,sans-Serif" font-size="10.00">/i_configurable_connector.cpp</text>
</a>
</g>
</g>
<!-- Node3&#45;&gt;Node12 -->
<g id="edge16_Node000003_Node000012" class="edge">
<title>Node3&#45;&gt;Node12</title>
<g id="a_edge16_Node000003_Node000012"><a xlink:title=" ">
<path fill="none" stroke="#63b8ff" d="M1206.95,-236.37C1228.52,-222.81 1254.35,-206.56 1272.44,-195.19"/>
<polygon fill="#63b8ff" stroke="#63b8ff" points="1204.91,-233.52 1198.31,-241.81 1208.64,-239.45 1204.91,-233.52"/>
</a>
</g>
</g>
<!-- Node5 -->
<g id="Node000005" class="node">
<title>Node5</title>
<g id="a_Node000005"><a xlink:href="auto__configurer_8cpp.html" target="_top" xlink:title=" ">
<polygon fill="white" stroke="#666666" points="1231.5,-30 1116.5,-30 1116.5,0 1231.5,0 1231.5,-30"/>
<text text-anchor="start" x="1124.5" y="-18" font-family="Helvetica,sans-Serif" font-size="10.00">src/auto_configurer</text>
<text text-anchor="middle" x="1174" y="-7" font-family="Helvetica,sans-Serif" font-size="10.00">/auto_configurer.cpp</text>
</a>
</g>
</g>
<!-- Node4&#45;&gt;Node5 -->
<g id="edge4_Node000004_Node000005" class="edge">
<title>Node4&#45;&gt;Node5</title>
<g id="a_edge4_Node000004_Node000005"><a xlink:title=" ">
<path fill="none" stroke="#63b8ff" d="M978.14,-74.06C1022.9,-60.79 1084.43,-42.55 1126.51,-30.08"/>
<polygon fill="#63b8ff" stroke="#63b8ff" points="976.88,-70.78 968.29,-76.98 978.87,-77.49 976.88,-70.78"/>
</a>
</g>
</g>
<!-- Node6&#45;&gt;Node5 -->
<g id="edge6_Node000006_Node000005" class="edge">
<title>Node6&#45;&gt;Node5</title>
<g id="a_edge6_Node000006_Node000005"><a xlink:title=" ">
<path fill="none" stroke="#63b8ff" d="M1120.5,-64.34C1133.28,-52.8 1147.71,-39.75 1158.37,-30.13"/>
<polygon fill="#63b8ff" stroke="#63b8ff" points="1117.88,-61.99 1112.81,-71.29 1122.57,-67.19 1117.88,-61.99"/>
</a>
</g>
</g>
<!-- Node7&#45;&gt;Node5 -->
<g id="edge8_Node000007_Node000005" class="edge">
<title>Node7&#45;&gt;Node5</title>
<g id="a_edge8_Node000007_Node000005"><a xlink:title=" ">
<path fill="none" stroke="#63b8ff" d="M1227.5,-64.34C1214.72,-52.8 1200.29,-39.75 1189.63,-30.13"/>
<polygon fill="#63b8ff" stroke="#63b8ff" points="1225.43,-67.19 1235.19,-71.29 1230.12,-61.99 1225.43,-67.19"/>
</a>
</g>
</g>
<!-- Node8&#45;&gt;Node5 -->
<g id="edge10_Node000008_Node000005" class="edge">
<title>Node8&#45;&gt;Node5</title>
<g id="a_edge10_Node000008_Node000005"><a xlink:title=" ">
<path fill="none" stroke="#63b8ff" d="M1340.26,-65.81C1295.61,-51.48 1254.28,-39.18 1223.13,-30.1"/>
<polygon fill="#63b8ff" stroke="#63b8ff" points="1339.24,-69.16 1349.84,-68.89 1341.39,-62.5 1339.24,-69.16"/>
</a>
</g>
</g>
<!-- Node9&#45;&gt;Node10 -->
<g id="edge12_Node000009_Node000010" class="edge">
<title>Node9&#45;&gt;Node10</title>
<g id="a_edge12_Node000009_Node000010"><a xlink:title=" ">
<path fill="none" stroke="#63b8ff" d="M1495.48,-146.88C1508.23,-135.34 1522.22,-122.68 1533.43,-112.53"/>
<polygon fill="#63b8ff" stroke="#63b8ff" points="1492.8,-144.59 1487.73,-153.89 1497.5,-149.78 1492.8,-144.59"/>
</a>
</g>
</g>
<!-- Node10&#45;&gt;Node5 -->
<g id="edge13_Node000010_Node000005" class="edge">
<title>Node10&#45;&gt;Node5</title>
<g id="a_edge13_Node000010_Node000005"><a xlink:title=" ">
<path fill="none" stroke="#63b8ff" d="M1494.02,-68.49C1490.98,-67.6 1487.97,-66.76 1485,-66 1398,-43.67 1294.61,-29.41 1231.68,-22.06"/>
<polygon fill="#63b8ff" stroke="#63b8ff" points="1493.14,-71.88 1503.73,-71.48 1495.2,-65.19 1493.14,-71.88"/>
</a>
</g>
</g>
<!-- Node11 -->
<g id="Node000011" class="node">
<title>Node11</title>
<g id="a_Node000011"><a xlink:href="connector__resolver_8cpp.html" target="_top" xlink:title=" ">
<polygon fill="white" stroke="#666666" points="1621,-30 1489,-30 1489,0 1621,0 1621,-30"/>
<text text-anchor="start" x="1497" y="-18" font-family="Helvetica,sans-Serif" font-size="10.00">src/auto_configurer</text>
<text text-anchor="middle" x="1555" y="-7" font-family="Helvetica,sans-Serif" font-size="10.00">/connector_resolver.cpp</text>
</a>
</g>
</g>
<!-- Node10&#45;&gt;Node11 -->
<g id="edge14_Node000010_Node000011" class="edge">
<title>Node10&#45;&gt;Node11</title>
<g id="a_edge14_Node000010_Node000011"><a xlink:title=" ">
<path fill="none" stroke="#63b8ff" d="M1555,-61.11C1555,-50.51 1555,-39.07 1555,-30.36"/>
<polygon fill="#63b8ff" stroke="#63b8ff" points="1551.5,-61.29 1555,-71.29 1558.5,-61.29 1551.5,-61.29"/>
</a>
</g>
</g>
<!-- Node13&#45;&gt;Node5 -->
<g id="edge18_Node000013_Node000005" class="edge">
<title>Node13&#45;&gt;Node5</title>
<g id="a_edge18_Node000013_Node000005"><a xlink:title=" ">
<path fill="none" stroke="#63b8ff" d="M755.1,-242.09C769.44,-232.9 784.82,-220.7 795,-206 831.7,-152.99 784.77,-108.79 833,-66 873.9,-29.72 1030.18,-19.76 1116.27,-17.03"/>
<polygon fill="#63b8ff" stroke="#63b8ff" points="753.08,-239.23 746.36,-247.42 756.72,-245.21 753.08,-239.23"/>
</a>
</g>
</g>
<!-- Node14 -->
<g id="Node000014" class="node">
<title>Node14</title>
<g id="a_Node000014"><a xlink:href="mosaic__connector__factory_8cpp.html" target="_top" xlink:title=" ">
<polygon fill="white" stroke="#666666" points="786,-195 640,-195 640,-165 786,-165 786,-195"/>
<text text-anchor="start" x="648" y="-183" font-family="Helvetica,sans-Serif" font-size="10.00">src/core/mosaic_connector</text>
<text text-anchor="middle" x="713" y="-172" font-family="Helvetica,sans-Serif" font-size="10.00">_factory.cpp</text>
</a>
</g>
</g>
<!-- Node13&#45;&gt;Node14 -->
<g id="edge19_Node000013_Node000014" class="edge">
<title>Node13&#45;&gt;Node14</title>
<g id="a_edge19_Node000013_Node000014"><a xlink:title=" ">
<path fill="none" stroke="#63b8ff" d="M716.49,-237.24C715.64,-223.48 714.6,-206.75 713.88,-195.13"/>
<polygon fill="#63b8ff" stroke="#63b8ff" points="713.02,-237.71 717.13,-247.48 720,-237.28 713.02,-237.71"/>
</a>
</g>
</g>
<!-- Node15&#45;&gt;Node2 -->
<g id="edge21_Node000015_Node000002" class="edge">
<title>Node15&#45;&gt;Node2</title>
<g id="a_edge21_Node000015_Node000002"><a xlink:title=" ">
<path fill="none" stroke="#63b8ff" d="M184.29,-279.94C233.57,-291.8 297.57,-307.65 341.68,-318.94"/>
<polygon fill="#63b8ff" stroke="#63b8ff" points="184.87,-276.48 174.33,-277.54 183.23,-283.28 184.87,-276.48"/>
</a>
</g>
</g>
<!-- Node15&#45;&gt;Node16 -->
<g id="edge22_Node000015_Node000016" class="edge">
<title>Node15&#45;&gt;Node16</title>
<g id="a_edge22_Node000015_Node000016"><a xlink:title=" ">
<path fill="none" stroke="#63b8ff" d="M99.69,-238.46C92.23,-224.48 82.94,-207.1 76.55,-195.13"/>
<polygon fill="#63b8ff" stroke="#63b8ff" points="96.71,-240.31 104.51,-247.48 102.89,-237.01 96.71,-240.31"/>
</a>
</g>
</g>
<!-- Node17&#45;&gt;Node16 -->
<g id="edge25_Node000017_Node000016" class="edge">
<title>Node17&#45;&gt;Node16</title>
<g id="a_edge25_Node000017_Node000016"><a xlink:title=" ">
<path fill="none" stroke="#63b8ff" d="M239.57,-243.99C199.93,-229.35 144.11,-208.74 107.27,-195.13"/>
<polygon fill="#63b8ff" stroke="#63b8ff" points="238.43,-247.3 249.03,-247.48 240.86,-240.73 238.43,-247.3"/>
</a>
</g>
</g>
<!-- Node17&#45;&gt;Node18 -->
<g id="edge24_Node000017_Node000018" class="edge">
<title>Node17&#45;&gt;Node18</title>
<g id="a_edge24_Node000017_Node000018"><a xlink:title=" ">
<path fill="none" stroke="#63b8ff" d="M273.33,-238.57C263.67,-222.37 251.24,-201.53 244.3,-189.88"/>
<polygon fill="#63b8ff" stroke="#63b8ff" points="270.51,-240.68 278.64,-247.48 276.52,-237.1 270.51,-240.68"/>
</a>
</g>
</g>
<!-- Node17&#45;&gt;Node19 -->
<g id="edge26_Node000017_Node000019" class="edge">
<title>Node17&#45;&gt;Node19</title>
<g id="a_edge26_Node000017_Node000019"><a xlink:title=" ">
<path fill="none" stroke="#63b8ff" d="M316.84,-241.81C338.74,-227.36 367.97,-208.07 387.58,-195.13"/>
<polygon fill="#63b8ff" stroke="#63b8ff" points="314.67,-239.05 308.25,-247.48 318.53,-244.89 314.67,-239.05"/>
</a>
</g>
</g>
<!-- Node20&#45;&gt;Node14 -->
<g id="edge28_Node000020_Node000014" class="edge">
<title>Node20&#45;&gt;Node14</title>
<g id="a_edge28_Node000020_Node000014"><a xlink:title=" ">
<path fill="none" stroke="#63b8ff" d="M590.63,-242.95C619.39,-228.39 658.84,-208.42 685.09,-195.13"/>
<polygon fill="#63b8ff" stroke="#63b8ff" points="589.04,-239.84 581.7,-247.48 592.2,-246.08 589.04,-239.84"/>
</a>
</g>
</g>
<!-- Node21 -->
<g id="Node000021" class="node">
<title>Node21</title>
<g id="a_Node000021"><a xlink:href="signaling__client_8cpp.html" target="_top" xlink:title=" ">
<polygon fill="white" stroke="#666666" points="621.5,-195 496.5,-195 496.5,-165 621.5,-165 621.5,-195"/>
<text text-anchor="start" x="504.5" y="-183" font-family="Helvetica,sans-Serif" font-size="10.00">src/signaling/signaling</text>
<text text-anchor="middle" x="559" y="-172" font-family="Helvetica,sans-Serif" font-size="10.00">_client.cpp</text>
</a>
</g>
</g>
<!-- Node20&#45;&gt;Node21 -->
<g id="edge29_Node000020_Node000021" class="edge">
<title>Node20&#45;&gt;Node21</title>
<g id="a_edge29_Node000020_Node000021"><a xlink:title=" ">
<path fill="none" stroke="#63b8ff" d="M555.51,-237.24C556.36,-223.48 557.4,-206.75 558.12,-195.13"/>
<polygon fill="#63b8ff" stroke="#63b8ff" points="552,-237.28 554.87,-247.48 558.98,-237.71 552,-237.28"/>
</a>
</g>
</g>
</g>
</svg>
