<?xml version="1.0" encoding="UTF-8" standalone="no"?>
<!DOCTYPE svg PUBLIC "-//W3C//DTD SVG 1.1//EN"
 "http://www.w3.org/Graphics/SVG/1.1/DTD/svg11.dtd">
<!-- Generated by graphviz version 2.43.0 (0)
 -->
<!-- Title: src/auto_configurer/connector_resolver.cpp Pages: 1 -->
<svg width="1609pt" height="654pt"
 viewBox="0.00 0.00 1608.50 654.00" xmlns="http://www.w3.org/2000/svg" xmlns:xlink="http://www.w3.org/1999/xlink">
<g id="graph0" class="graph" transform="scale(1 1) rotate(0) translate(4 650)">
<title>src/auto_configurer/connector_resolver.cpp</title>
<!-- Node1 -->
<g id="Node000001" class="node">
<title>Node1</title>
<g id="a_Node000001"><a xlink:title=" ">
<polygon fill="#999999" stroke="#666666" points="1208.5,-646 1076.5,-646 1076.5,-616 1208.5,-616 1208.5,-646"/>
<text text-anchor="start" x="1084.5" y="-634" font-family="Helvetica,sans-Serif" font-size="10.00">src/auto_configurer</text>
<text text-anchor="middle" x="1142.5" y="-623" font-family="Helvetica,sans-Serif" font-size="10.00">/connector_resolver.cpp</text>
</a>
</g>
</g>
<!-- Node2 -->
<g id="Node000002" class="node">
<title>Node2</title>
<g id="a_Node000002"><a xlink:href="connector__resolver_8h.html" target="_top" xlink:title=" ">
<polygon fill="white" stroke="#666666" points="1093.5,-574.5 921.5,-574.5 921.5,-544.5 1093.5,-544.5 1093.5,-574.5"/>
<text text-anchor="start" x="929.5" y="-562.5" font-family="Helvetica,sans-Serif" font-size="10.00">mosaic/auto_configurer</text>
<text text-anchor="middle" x="1007.5" y="-551.5" font-family="Helvetica,sans-Serif" font-size="10.00">/connector/connector_resolver.h</text>
</a>
</g>
</g>
<!-- Node1&#45;&gt;Node2 -->
<g id="edge1_Node000001_Node000002" class="edge">
<title>Node1&#45;&gt;Node2</title>
<g id="a_edge1_Node000001_Node000002"><a xlink:title=" ">
<path fill="none" stroke="#63b8ff" d="M1115.18,-615.94C1094.6,-605.34 1066.17,-590.7 1043.69,-579.13"/>
<polygon fill="#63b8ff" stroke="#63b8ff" points="1045.27,-576.01 1034.78,-574.54 1042.07,-582.23 1045.27,-576.01"/>
</a>
</g>
</g>
<!-- Node29 -->
<g id="Node000029" class="node">
<title>Node29</title>
<g id="a_Node000029"><a xlink:href="opencv__camera__mt__handler_8h.html" target="_top" xlink:title=" ">
<polygon fill="white" stroke="#666666" points="1385.5,-580 1245.5,-580 1245.5,-539 1385.5,-539 1385.5,-580"/>
<text text-anchor="start" x="1253.5" y="-568" font-family="Helvetica,sans-Serif" font-size="10.00">mosaic/auto_configurer</text>
<text text-anchor="start" x="1253.5" y="-557" font-family="Helvetica,sans-Serif" font-size="10.00">/impl/opencv_camera_mt</text>
<text text-anchor="middle" x="1315.5" y="-546" font-family="Helvetica,sans-Serif" font-size="10.00">_handler.h</text>
</a>
</g>
</g>
<!-- Node1&#45;&gt;Node29 -->
<g id="edge54_Node000001_Node000029" class="edge">
<title>Node1&#45;&gt;Node29</title>
<g id="a_edge54_Node000001_Node000029"><a xlink:title=" ">
<path fill="none" stroke="#63b8ff" d="M1177.51,-615.94C1200.37,-606.75 1230.78,-594.53 1257.23,-583.91"/>
<polygon fill="#63b8ff" stroke="#63b8ff" points="1258.8,-587.05 1266.78,-580.07 1256.19,-580.55 1258.8,-587.05"/>
</a>
</g>
</g>
<!-- Node3 -->
<g id="Node000003" class="node">
<title>Node3</title>
<g id="a_Node000003"><a xlink:title=" ">
<polygon fill="#e0e0e0" stroke="#999999" points="1249.5,-19 1191.5,-19 1191.5,0 1249.5,0 1249.5,-19"/>
<text text-anchor="middle" x="1220.5" y="-7" font-family="Helvetica,sans-Serif" font-size="10.00">memory</text>
</a>
</g>
</g>
<!-- Node2&#45;&gt;Node3 -->
<g id="edge2_Node000002_Node000003" class="edge">
<title>Node2&#45;&gt;Node3</title>
<g id="a_edge2_Node000002_Node000003"><a xlink:title=" ">
<path fill="none" stroke="#63b8ff" d="M1093.6,-553.32C1131.56,-546.63 1173.76,-532.46 1201.5,-503 1228.19,-474.66 1220.5,-456.43 1220.5,-417.5 1220.5,-417.5 1220.5,-417.5 1220.5,-283.5 1220.5,-188.22 1220.5,-74.23 1220.5,-29.67"/>
<polygon fill="#63b8ff" stroke="#63b8ff" points="1224,-29.46 1220.5,-19.46 1217,-29.46 1224,-29.46"/>
</a>
</g>
</g>
<!-- Node4 -->
<g id="Node000004" class="node">
<title>Node4</title>
<g id="a_Node000004"><a xlink:title=" ">
<polygon fill="#e0e0e0" stroke="#999999" points="863.5,-19 819.5,-19 819.5,0 863.5,0 863.5,-19"/>
<text text-anchor="middle" x="841.5" y="-7" font-family="Helvetica,sans-Serif" font-size="10.00">string</text>
</a>
</g>
</g>
<!-- Node2&#45;&gt;Node4 -->
<g id="edge3_Node000002_Node000004" class="edge">
<title>Node2&#45;&gt;Node4</title>
<g id="a_edge3_Node000002_Node000004"><a xlink:title=" ">
<path fill="none" stroke="#63b8ff" d="M1012.91,-544.48C1027.84,-505.33 1068.5,-395.2 1068.5,-357 1068.5,-357 1068.5,-357 1068.5,-135 1068.5,-47.26 936.51,-20.94 873.82,-13.38"/>
<polygon fill="#63b8ff" stroke="#63b8ff" points="874.01,-9.88 863.68,-12.25 873.23,-16.84 874.01,-9.88"/>
</a>
</g>
</g>
<!-- Node5 -->
<g id="Node000005" class="node">
<title>Node5</title>
<g id="a_Node000005"><a xlink:title=" ">
<polygon fill="#e0e0e0" stroke="#999999" points="93,-19 0,-19 0,0 93,0 93,-19"/>
<text text-anchor="middle" x="46.5" y="-7" font-family="Helvetica,sans-Serif" font-size="10.00">unordered_map</text>
</a>
</g>
</g>
<!-- Node2&#45;&gt;Node5 -->
<g id="edge4_Node000002_Node000005" class="edge">
<title>Node2&#45;&gt;Node5</title>
<g id="a_edge4_Node000002_Node000005"><a xlink:title=" ">
<path fill="none" stroke="#63b8ff" d="M921.3,-555.12C681.92,-544.58 26.5,-507.51 26.5,-417.5 26.5,-417.5 26.5,-417.5 26.5,-135 26.5,-97.01 35.69,-53.32 41.61,-29.11"/>
<polygon fill="#63b8ff" stroke="#63b8ff" points="45.06,-29.73 44.13,-19.18 38.28,-28.01 45.06,-29.73"/>
</a>
</g>
</g>
<!-- Node6 -->
<g id="Node000006" class="node">
<title>Node6</title>
<g id="a_Node000006"><a xlink:href="configurable__connector__factory_8h.html" target="_top" xlink:title=" ">
<polygon fill="white" stroke="#666666" points="960.5,-497.5 830.5,-497.5 830.5,-467.5 960.5,-467.5 960.5,-497.5"/>
<text text-anchor="start" x="838.5" y="-485.5" font-family="Helvetica,sans-Serif" font-size="10.00">configurable_connector</text>
<text text-anchor="middle" x="895.5" y="-474.5" font-family="Helvetica,sans-Serif" font-size="10.00">_factory.h</text>
</a>
</g>
</g>
<!-- Node2&#45;&gt;Node6 -->
<g id="edge5_Node000002_Node000006" class="edge">
<title>Node2&#45;&gt;Node6</title>
<g id="a_edge5_Node000002_Node000006"><a xlink:title=" ">
<path fill="none" stroke="#63b8ff" d="M986.43,-544.39C969.07,-532.77 944.24,-516.14 924.92,-503.2"/>
<polygon fill="#63b8ff" stroke="#63b8ff" points="926.73,-500.2 916.47,-497.54 922.83,-506.02 926.73,-500.2"/>
</a>
</g>
</g>
<!-- Node8 -->
<g id="Node000008" class="node">
<title>Node8</title>
<g id="a_Node000008"><a xlink:href="i__configurable__connector_8h.html" target="_top" xlink:title=" ">
<polygon fill="white" stroke="#666666" points="968.5,-426 822.5,-426 822.5,-407 968.5,-407 968.5,-426"/>
<text text-anchor="middle" x="895.5" y="-414" font-family="Helvetica,sans-Serif" font-size="10.00">i_configurable_connector.h</text>
</a>
</g>
</g>
<!-- Node2&#45;&gt;Node8 -->
<g id="edge53_Node000002_Node000008" class="edge">
<title>Node2&#45;&gt;Node8</title>
<g id="a_edge53_Node000002_Node000008"><a xlink:title=" ">
<path fill="none" stroke="#63b8ff" d="M1004.9,-544.24C1000.6,-523.98 990.32,-486.6 969.5,-462 958.06,-448.48 941.42,-437.96 926.82,-430.56"/>
<polygon fill="#63b8ff" stroke="#63b8ff" points="928.12,-427.3 917.59,-426.14 925.1,-433.61 928.12,-427.3"/>
</a>
</g>
</g>
<!-- Node6&#45;&gt;Node3 -->
<g id="edge6_Node000006_Node000003" class="edge">
<title>Node6&#45;&gt;Node3</title>
<g id="a_edge6_Node000006_Node000003"><a xlink:title=" ">
<path fill="none" stroke="#63b8ff" d="M922.02,-467.5C939.23,-457.52 961.36,-442.92 977.5,-426 1101.83,-295.65 1189.07,-90.23 1213.53,-28.57"/>
<polygon fill="#63b8ff" stroke="#63b8ff" points="1216.86,-29.66 1217.25,-19.07 1210.35,-27.11 1216.86,-29.66"/>
</a>
</g>
</g>
<!-- Node7 -->
<g id="Node000007" class="node">
<title>Node7</title>
<g id="a_Node000007"><a xlink:title=" ">
<polygon fill="#e0e0e0" stroke="#999999" points="305,-19 236,-19 236,0 305,0 305,-19"/>
<text text-anchor="middle" x="270.5" y="-7" font-family="Helvetica,sans-Serif" font-size="10.00">type_traits</text>
</a>
</g>
</g>
<!-- Node6&#45;&gt;Node7 -->
<g id="edge7_Node000006_Node000007" class="edge">
<title>Node6&#45;&gt;Node7</title>
<g id="a_edge7_Node000006_Node000007"><a xlink:title=" ">
<path fill="none" stroke="#63b8ff" d="M830.29,-478.58C634.39,-468.96 64.5,-434.32 64.5,-357 64.5,-357 64.5,-357 64.5,-135 64.5,-98.46 57.66,-80.85 83.5,-55 103.21,-35.28 176.88,-22.34 225.65,-15.74"/>
<polygon fill="#63b8ff" stroke="#63b8ff" points="226.2,-19.19 235.65,-14.42 225.28,-12.25 226.2,-19.19"/>
</a>
</g>
</g>
<!-- Node6&#45;&gt;Node8 -->
<g id="edge8_Node000006_Node000008" class="edge">
<title>Node6&#45;&gt;Node8</title>
<g id="a_edge8_Node000006_Node000008"><a xlink:title=" ">
<path fill="none" stroke="#63b8ff" d="M895.5,-467.3C895.5,-458.2 895.5,-446.29 895.5,-436.4"/>
<polygon fill="#63b8ff" stroke="#63b8ff" points="899,-436.34 895.5,-426.34 892,-436.34 899,-436.34"/>
</a>
</g>
</g>
<!-- Node9 -->
<g id="Node000009" class="node">
<title>Node9</title>
<g id="a_Node000009"><a xlink:href="configs__decl_8h.html" target="_top" xlink:title=" ">
<polygon fill="white" stroke="#666666" points="216.5,-79.5 92.5,-79.5 92.5,-60.5 216.5,-60.5 216.5,-79.5"/>
<text text-anchor="middle" x="154.5" y="-67.5" font-family="Helvetica,sans-Serif" font-size="10.00">mosaic/configs_decl.h</text>
</a>
</g>
</g>
<!-- Node8&#45;&gt;Node9 -->
<g id="edge9_Node000008_Node000009" class="edge">
<title>Node8&#45;&gt;Node9</title>
<g id="a_edge9_Node000008_Node000009"><a xlink:title=" ">
<path fill="none" stroke="#63b8ff" d="M822.24,-410.21C636.08,-395.78 159.5,-352.32 159.5,-285.5 159.5,-285.5 159.5,-285.5 159.5,-206.5 159.5,-164.86 157.11,-116.06 155.64,-89.88"/>
<polygon fill="#63b8ff" stroke="#63b8ff" points="159.11,-89.34 155.04,-79.56 152.12,-89.74 159.11,-89.34"/>
</a>
</g>
</g>
<!-- Node11 -->
<g id="Node000011" class="node">
<title>Node11</title>
<g id="a_Node000011"><a xlink:href="mosaic__connector_8h.html" target="_top" xlink:title=" ">
<polygon fill="white" stroke="#666666" points="803.5,-371 689.5,-371 689.5,-341 803.5,-341 803.5,-371"/>
<text text-anchor="start" x="697.5" y="-359" font-family="Helvetica,sans-Serif" font-size="10.00">mosaic/core/mosaic</text>
<text text-anchor="middle" x="746.5" y="-348" font-family="Helvetica,sans-Serif" font-size="10.00">_connector.h</text>
</a>
</g>
</g>
<!-- Node8&#45;&gt;Node11 -->
<g id="edge13_Node000008_Node000011" class="edge">
<title>Node8&#45;&gt;Node11</title>
<g id="a_edge13_Node000008_Node000011"><a xlink:title=" ">
<path fill="none" stroke="#63b8ff" d="M873.83,-406.99C852.39,-398.57 818.92,-385.43 791.67,-374.73"/>
<polygon fill="#63b8ff" stroke="#63b8ff" points="792.91,-371.46 782.32,-371.06 790.35,-377.98 792.91,-371.46"/>
</a>
</g>
</g>
<!-- Node9&#45;&gt;Node4 -->
<g id="edge10_Node000009_Node000004" class="edge">
<title>Node9&#45;&gt;Node4</title>
<g id="a_edge10_Node000009_Node000004"><a xlink:title=" ">
<path fill="none" stroke="#63b8ff" d="M216.4,-60.49C231.77,-58.53 248.22,-56.57 263.5,-55 471.1,-33.69 721.6,-17.71 809.3,-12.4"/>
<polygon fill="#63b8ff" stroke="#63b8ff" points="809.64,-15.89 819.41,-11.79 809.22,-8.9 809.64,-15.89"/>
</a>
</g>
</g>
<!-- Node9&#45;&gt;Node5 -->
<g id="edge11_Node000009_Node000005" class="edge">
<title>Node9&#45;&gt;Node5</title>
<g id="a_edge11_Node000009_Node000005"><a xlink:title=" ">
<path fill="none" stroke="#63b8ff" d="M138.56,-60.37C120.86,-50.78 92.04,-35.17 71.36,-23.97"/>
<polygon fill="#63b8ff" stroke="#63b8ff" points="72.96,-20.85 62.5,-19.17 69.63,-27.01 72.96,-20.85"/>
</a>
</g>
</g>
<!-- Node10 -->
<g id="Node000010" class="node">
<title>Node10</title>
<g id="a_Node000010"><a xlink:title=" ">
<polygon fill="#e0e0e0" stroke="#999999" points="186,-19 139,-19 139,0 186,0 186,-19"/>
<text text-anchor="middle" x="162.5" y="-7" font-family="Helvetica,sans-Serif" font-size="10.00">vector</text>
</a>
</g>
</g>
<!-- Node9&#45;&gt;Node10 -->
<g id="edge12_Node000009_Node000010" class="edge">
<title>Node9&#45;&gt;Node10</title>
<g id="a_edge12_Node000009_Node000010"><a xlink:title=" ">
<path fill="none" stroke="#63b8ff" d="M155.68,-60.37C156.79,-52.25 158.49,-39.81 159.92,-29.39"/>
<polygon fill="#63b8ff" stroke="#63b8ff" points="163.43,-29.55 161.31,-19.17 156.49,-28.6 163.43,-29.55"/>
</a>
</g>
</g>
<!-- Node11&#45;&gt;Node3 -->
<g id="edge15_Node000011_Node000003" class="edge">
<title>Node11&#45;&gt;Node3</title>
<g id="a_edge15_Node000011_Node000003"><a xlink:title=" ">
<path fill="none" stroke="#63b8ff" d="M803.9,-349.37C848.38,-343.2 910.49,-330.54 959.5,-305 1058.5,-253.41 1060.53,-207.99 1130.5,-121 1157.49,-87.45 1189.37,-48.45 1207.03,-26.91"/>
<polygon fill="#63b8ff" stroke="#63b8ff" points="1209.83,-29.02 1213.46,-19.07 1204.41,-24.58 1209.83,-29.02"/>
</a>
</g>
</g>
<!-- Node11&#45;&gt;Node4 -->
<g id="edge16_Node000011_Node000004" class="edge">
<title>Node11&#45;&gt;Node4</title>
<g id="a_edge16_Node000011_Node000004"><a xlink:title=" ">
<path fill="none" stroke="#63b8ff" d="M736.43,-340.92C730.2,-331.31 722.79,-318.01 719.5,-305 715.03,-287.33 716.24,-281.93 719.5,-264 726.05,-228.02 729.12,-218.01 748.5,-187 760.16,-168.34 770.49,-169.44 782.5,-151 808.75,-110.68 827.48,-56.74 836.13,-28.88"/>
<polygon fill="#63b8ff" stroke="#63b8ff" points="839.49,-29.84 839.03,-19.26 832.79,-27.82 839.49,-29.84"/>
</a>
</g>
</g>
<!-- Node12 -->
<g id="Node000012" class="node">
<title>Node12</title>
<g id="a_Node000012"><a xlink:title=" ">
<polygon fill="#e0e0e0" stroke="#999999" points="950.5,-294 912.5,-294 912.5,-275 950.5,-275 950.5,-294"/>
<text text-anchor="middle" x="931.5" y="-282" font-family="Helvetica,sans-Serif" font-size="10.00">map</text>
</a>
</g>
</g>
<!-- Node11&#45;&gt;Node12 -->
<g id="edge14_Node000011_Node000012" class="edge">
<title>Node11&#45;&gt;Node12</title>
<g id="a_edge14_Node000011_Node000012"><a xlink:title=" ">
<path fill="none" stroke="#63b8ff" d="M798.56,-340.91C828.41,-332.09 866.24,-319.63 898.5,-305 902.21,-303.32 906.04,-301.32 909.71,-299.26"/>
<polygon fill="#63b8ff" stroke="#63b8ff" points="911.54,-302.25 918.37,-294.15 907.98,-296.22 911.54,-302.25"/>
</a>
</g>
</g>
<!-- Node13 -->
<g id="Node000013" class="node">
<title>Node13</title>
<g id="a_Node000013"><a xlink:href="connector__state__manager_8h.html" target="_top" xlink:title=" ">
<polygon fill="white" stroke="#666666" points="856,-299.5 729,-299.5 729,-269.5 856,-269.5 856,-299.5"/>
<text text-anchor="start" x="737" y="-287.5" font-family="Helvetica,sans-Serif" font-size="10.00">mosaic/core/connector</text>
<text text-anchor="middle" x="792.5" y="-276.5" font-family="Helvetica,sans-Serif" font-size="10.00">_state_manager.h</text>
</a>
</g>
</g>
<!-- Node11&#45;&gt;Node13 -->
<g id="edge17_Node000011_Node000013" class="edge">
<title>Node11&#45;&gt;Node13</title>
<g id="a_edge17_Node000011_Node000013"><a xlink:title=" ">
<path fill="none" stroke="#63b8ff" d="M755.81,-340.94C762.04,-331.52 770.39,-318.91 777.55,-308.09"/>
<polygon fill="#63b8ff" stroke="#63b8ff" points="780.6,-309.81 783.21,-299.54 774.77,-305.95 780.6,-309.81"/>
</a>
</g>
</g>
<!-- Node17 -->
<g id="Node000017" class="node">
<title>Node17</title>
<g id="a_Node000017"><a xlink:title=" ">
<polygon fill="#e0e0e0" stroke="#999999" points="598.5,-151 452.5,-151 452.5,-121 598.5,-121 598.5,-151"/>
<text text-anchor="start" x="460.5" y="-139" font-family="Helvetica,sans-Serif" font-size="10.00">mosaic/rtc/webrtc_forward</text>
<text text-anchor="middle" x="525.5" y="-128" font-family="Helvetica,sans-Serif" font-size="10.00">_decl.h</text>
</a>
</g>
</g>
<!-- Node11&#45;&gt;Node17 -->
<g id="edge52_Node000011_Node000017" class="edge">
<title>Node11&#45;&gt;Node17</title>
<g id="a_edge52_Node000011_Node000017"><a xlink:title=" ">
<path fill="none" stroke="#63b8ff" d="M712.46,-340.89C669.8,-321.53 597.26,-282.79 555.5,-228 540.53,-208.35 532.83,-180.88 529.01,-161.27"/>
<polygon fill="#63b8ff" stroke="#63b8ff" points="532.43,-160.53 527.26,-151.28 525.53,-161.74 532.43,-160.53"/>
</a>
</g>
</g>
<!-- Node20 -->
<g id="Node000020" class="node">
<title>Node20</title>
<g id="a_Node000020"><a xlink:href="peer__connection__manager_8h.html" target="_top" xlink:title=" ">
<polygon fill="white" stroke="#666666" points="353,-299.5 194,-299.5 194,-269.5 353,-269.5 353,-299.5"/>
<text text-anchor="start" x="202" y="-287.5" font-family="Helvetica,sans-Serif" font-size="10.00">mosaic/core/peer_connection</text>
<text text-anchor="middle" x="273.5" y="-276.5" font-family="Helvetica,sans-Serif" font-size="10.00">_manager.h</text>
</a>
</g>
</g>
<!-- Node11&#45;&gt;Node20 -->
<g id="edge30_Node000011_Node000020" class="edge">
<title>Node11&#45;&gt;Node20</title>
<g id="a_edge30_Node000011_Node000020"><a xlink:title=" ">
<path fill="none" stroke="#63b8ff" d="M689.29,-349.81C612.22,-341.98 471.34,-325.84 352.5,-305 346.67,-303.98 340.65,-302.83 334.64,-301.62"/>
<polygon fill="#63b8ff" stroke="#63b8ff" points="335.09,-298.14 324.59,-299.54 333.67,-305 335.09,-298.14"/>
</a>
</g>
</g>
<!-- Node21 -->
<g id="Node000021" class="node">
<title>Node21</title>
<g id="a_Node000021"><a xlink:href="i__data__channel__handler_8h.html" target="_top" xlink:title=" ">
<polygon fill="white" stroke="#666666" points="508,-305 371,-305 371,-264 508,-264 508,-305"/>
<text text-anchor="start" x="379" y="-293" font-family="Helvetica,sans-Serif" font-size="10.00">mosaic/handlers/data</text>
<text text-anchor="start" x="379" y="-282" font-family="Helvetica,sans-Serif" font-size="10.00">_channel/i_data_channel</text>
<text text-anchor="middle" x="439.5" y="-271" font-family="Helvetica,sans-Serif" font-size="10.00">_handler.h</text>
</a>
</g>
</g>
<!-- Node11&#45;&gt;Node21 -->
<g id="edge35_Node000011_Node000021" class="edge">
<title>Node11&#45;&gt;Node21</title>
<g id="a_edge35_Node000011_Node000021"><a xlink:title=" ">
<path fill="none" stroke="#63b8ff" d="M689.38,-342.43C644.09,-332.43 579.21,-317.99 522.5,-305 521.06,-304.67 519.6,-304.34 518.13,-304"/>
<polygon fill="#63b8ff" stroke="#63b8ff" points="518.86,-300.57 508.33,-301.73 517.28,-307.39 518.86,-300.57"/>
</a>
</g>
</g>
<!-- Node27 -->
<g id="Node000027" class="node">
<title>Node27</title>
<g id="a_Node000027"><a xlink:href="i__media__track__handler_8h.html" target="_top" xlink:title=" ">
<polygon fill="white" stroke="#666666" points="1002,-228 871,-228 871,-187 1002,-187 1002,-228"/>
<text text-anchor="start" x="879" y="-216" font-family="Helvetica,sans-Serif" font-size="10.00">mosaic/handlers/media</text>
<text text-anchor="start" x="879" y="-205" font-family="Helvetica,sans-Serif" font-size="10.00">_track/i_media_track</text>
<text text-anchor="middle" x="936.5" y="-194" font-family="Helvetica,sans-Serif" font-size="10.00">_handler.h</text>
</a>
</g>
</g>
<!-- Node11&#45;&gt;Node27 -->
<g id="edge48_Node000011_Node000027" class="edge">
<title>Node11&#45;&gt;Node27</title>
<g id="a_edge48_Node000011_Node000027"><a xlink:title=" ">
<path fill="none" stroke="#63b8ff" d="M796.02,-340.93C818.73,-332.86 845.08,-321.08 865.5,-305 888.99,-286.5 908.48,-258.36 921.06,-237.23"/>
<polygon fill="#63b8ff" stroke="#63b8ff" points="924.21,-238.77 926.18,-228.36 918.15,-235.27 924.21,-238.77"/>
</a>
</g>
</g>
<!-- Node13&#45;&gt;Node3 -->
<g id="edge18_Node000013_Node000003" class="edge">
<title>Node13&#45;&gt;Node3</title>
<g id="a_edge18_Node000013_Node000003"><a xlink:title=" ">
<path fill="none" stroke="#63b8ff" d="M856.22,-272.51C911.53,-262.05 986.55,-245.37 1011.5,-228 1088.09,-174.67 1059.95,-116.09 1130.5,-55 1146.62,-41.04 1167.89,-30.26 1185.7,-22.81"/>
<polygon fill="#63b8ff" stroke="#63b8ff" points="1187.2,-25.98 1195.19,-19.01 1184.6,-19.48 1187.2,-25.98"/>
</a>
</g>
</g>
<!-- Node13&#45;&gt;Node4 -->
<g id="edge20_Node000013_Node000004" class="edge">
<title>Node13&#45;&gt;Node4</title>
<g id="a_edge20_Node000013_Node000004"><a xlink:title=" ">
<path fill="none" stroke="#63b8ff" d="M779.68,-269.18C763.7,-249.5 740.44,-213.53 757.5,-187 778.37,-154.55 815.05,-183.07 836.5,-151 861.41,-113.74 853.16,-57.65 846.5,-28.91"/>
<polygon fill="#63b8ff" stroke="#63b8ff" points="849.85,-27.86 844.01,-19.02 843.06,-29.57 849.85,-27.86"/>
</a>
</g>
</g>
<!-- Node14 -->
<g id="Node000014" class="node">
<title>Node14</title>
<g id="a_Node000014"><a xlink:title=" ">
<polygon fill="#e0e0e0" stroke="#999999" points="852.5,-217 766.5,-217 766.5,-198 852.5,-198 852.5,-217"/>
<text text-anchor="middle" x="809.5" y="-205" font-family="Helvetica,sans-Serif" font-size="10.00">shared_mutex</text>
</a>
</g>
</g>
<!-- Node13&#45;&gt;Node14 -->
<g id="edge19_Node000013_Node000014" class="edge">
<title>Node13&#45;&gt;Node14</title>
<g id="a_edge19_Node000013_Node000014"><a xlink:title=" ">
<path fill="none" stroke="#63b8ff" d="M795.7,-269.39C798.4,-257.46 802.3,-240.26 805.26,-227.18"/>
<polygon fill="#63b8ff" stroke="#63b8ff" points="808.69,-227.9 807.49,-217.37 801.86,-226.35 808.69,-227.9"/>
</a>
</g>
</g>
<!-- Node15 -->
<g id="Node000015" class="node">
<title>Node15</title>
<g id="a_Node000015"><a xlink:href="i__signaling__client_8h.html" target="_top" xlink:title=" ">
<polygon fill="white" stroke="#666666" points="672,-222.5 565,-222.5 565,-192.5 672,-192.5 672,-222.5"/>
<text text-anchor="start" x="573" y="-210.5" font-family="Helvetica,sans-Serif" font-size="10.00">mosaic/signaling/i</text>
<text text-anchor="middle" x="618.5" y="-199.5" font-family="Helvetica,sans-Serif" font-size="10.00">_signaling_client.h</text>
</a>
</g>
</g>
<!-- Node13&#45;&gt;Node15 -->
<g id="edge21_Node000013_Node000015" class="edge">
<title>Node13&#45;&gt;Node15</title>
<g id="a_edge21_Node000013_Node000015"><a xlink:title=" ">
<path fill="none" stroke="#63b8ff" d="M759.77,-269.39C731.7,-257.29 691.08,-239.78 660.59,-226.64"/>
<polygon fill="#63b8ff" stroke="#63b8ff" points="661.65,-223.29 651.08,-222.54 658.88,-229.72 661.65,-223.29"/>
</a>
</g>
</g>
<!-- Node16 -->
<g id="Node000016" class="node">
<title>Node16</title>
<g id="a_Node000016"><a xlink:title=" ">
<polygon fill="#e0e0e0" stroke="#999999" points="794.5,-85 676.5,-85 676.5,-55 794.5,-55 794.5,-85"/>
<text text-anchor="start" x="684.5" y="-73" font-family="Helvetica,sans-Serif" font-size="10.00">mosaic/json_forward</text>
<text text-anchor="middle" x="735.5" y="-62" font-family="Helvetica,sans-Serif" font-size="10.00">_decl.h</text>
</a>
</g>
</g>
<!-- Node15&#45;&gt;Node16 -->
<g id="edge22_Node000015_Node000016" class="edge">
<title>Node15&#45;&gt;Node16</title>
<g id="a_edge22_Node000015_Node000016"><a xlink:title=" ">
<path fill="none" stroke="#63b8ff" d="M663.16,-192.48C704.12,-179.17 759.33,-159.92 765.5,-151 777.64,-133.44 766.65,-110.34 754.7,-93.48"/>
<polygon fill="#63b8ff" stroke="#63b8ff" points="757.32,-91.14 748.48,-85.29 751.74,-95.37 757.32,-91.14"/>
</a>
</g>
</g>
<!-- Node15&#45;&gt;Node17 -->
<g id="edge23_Node000015_Node000017" class="edge">
<title>Node15&#45;&gt;Node17</title>
<g id="a_edge23_Node000015_Node000017"><a xlink:title=" ">
<path fill="none" stroke="#63b8ff" d="M599.68,-192.44C586.07,-182.26 567.48,-168.37 552.31,-157.04"/>
<polygon fill="#63b8ff" stroke="#63b8ff" points="554.4,-154.23 544.29,-151.04 550.21,-159.83 554.4,-154.23"/>
</a>
</g>
</g>
<!-- Node18 -->
<g id="Node000018" class="node">
<title>Node18</title>
<g id="a_Node000018"><a xlink:href="i__mosaic__authenticator_8h.html" target="_top" xlink:title=" ">
<polygon fill="white" stroke="#666666" points="756.5,-151 616.5,-151 616.5,-121 756.5,-121 756.5,-151"/>
<text text-anchor="start" x="624.5" y="-139" font-family="Helvetica,sans-Serif" font-size="10.00">mosaic/security/i_mosaic</text>
<text text-anchor="middle" x="686.5" y="-128" font-family="Helvetica,sans-Serif" font-size="10.00">_authenticator.h</text>
</a>
</g>
</g>
<!-- Node15&#45;&gt;Node18 -->
<g id="edge24_Node000015_Node000018" class="edge">
<title>Node15&#45;&gt;Node18</title>
<g id="a_edge24_Node000015_Node000018"><a xlink:title=" ">
<path fill="none" stroke="#63b8ff" d="M632.26,-192.44C641.85,-182.64 654.81,-169.39 665.65,-158.31"/>
<polygon fill="#63b8ff" stroke="#63b8ff" points="668.27,-160.64 672.76,-151.04 663.26,-155.74 668.27,-160.64"/>
</a>
</g>
</g>
<!-- Node18&#45;&gt;Node3 -->
<g id="edge25_Node000018_Node000003" class="edge">
<title>Node18&#45;&gt;Node3</title>
<g id="a_edge25_Node000018_Node000003"><a xlink:title=" ">
<path fill="none" stroke="#63b8ff" d="M742.75,-120.94C808.36,-104.65 920.13,-77.19 1016.5,-55 1073.82,-41.8 1140.42,-27.46 1181.52,-18.72"/>
<polygon fill="#63b8ff" stroke="#63b8ff" points="1182.34,-22.13 1191.4,-16.63 1180.89,-15.28 1182.34,-22.13"/>
</a>
</g>
</g>
<!-- Node18&#45;&gt;Node9 -->
<g id="edge28_Node000018_Node000009" class="edge">
<title>Node18&#45;&gt;Node9</title>
<g id="a_edge28_Node000018_Node000009"><a xlink:title=" ">
<path fill="none" stroke="#63b8ff" d="M616.33,-122.3C613.35,-121.84 610.4,-121.41 607.5,-121 455.28,-99.57 416.19,-102.79 263.5,-85 251.66,-83.62 239.1,-82.08 226.88,-80.54"/>
<polygon fill="#63b8ff" stroke="#63b8ff" points="227.08,-77.04 216.72,-79.25 226.2,-83.98 227.08,-77.04"/>
</a>
</g>
</g>
<!-- Node18&#45;&gt;Node16 -->
<g id="edge29_Node000018_Node000016" class="edge">
<title>Node18&#45;&gt;Node16</title>
<g id="a_edge29_Node000018_Node000016"><a xlink:title=" ">
<path fill="none" stroke="#63b8ff" d="M697.37,-120.8C703.59,-112.68 711.52,-102.31 718.54,-93.15"/>
<polygon fill="#63b8ff" stroke="#63b8ff" points="721.36,-95.23 724.66,-85.16 715.8,-90.98 721.36,-95.23"/>
</a>
</g>
</g>
<!-- Node19 -->
<g id="Node000019" class="node">
<title>Node19</title>
<g id="a_Node000019"><a xlink:href="auth__type_8h.html" target="_top" xlink:title=" ">
<polygon fill="white" stroke="#666666" points="658.5,-79.5 584.5,-79.5 584.5,-60.5 658.5,-60.5 658.5,-79.5"/>
<text text-anchor="middle" x="621.5" y="-67.5" font-family="Helvetica,sans-Serif" font-size="10.00">auth_type.h</text>
</a>
</g>
</g>
<!-- Node18&#45;&gt;Node19 -->
<g id="edge26_Node000018_Node000019" class="edge">
<title>Node18&#45;&gt;Node19</title>
<g id="a_edge26_Node000018_Node000019"><a xlink:title=" ">
<path fill="none" stroke="#63b8ff" d="M672.07,-120.8C661.94,-110.82 648.37,-97.46 637.84,-87.09"/>
<polygon fill="#63b8ff" stroke="#63b8ff" points="640.06,-84.37 630.48,-79.84 635.15,-89.35 640.06,-84.37"/>
</a>
</g>
</g>
<!-- Node19&#45;&gt;Node4 -->
<g id="edge27_Node000019_Node000004" class="edge">
<title>Node19&#45;&gt;Node4</title>
<g id="a_edge27_Node000019_Node000004"><a xlink:title=" ">
<path fill="none" stroke="#63b8ff" d="M649.17,-60.36C655.2,-58.54 661.55,-56.67 667.5,-55 716.75,-41.21 774.33,-26.83 809.33,-18.27"/>
<polygon fill="#63b8ff" stroke="#63b8ff" points="810.55,-21.57 819.44,-15.8 808.9,-14.77 810.55,-21.57"/>
</a>
</g>
</g>
<!-- Node20&#45;&gt;Node9 -->
<g id="edge32_Node000020_Node000009" class="edge">
<title>Node20&#45;&gt;Node9</title>
<g id="a_edge32_Node000020_Node000009"><a xlink:title=" ">
<path fill="none" stroke="#63b8ff" d="M261.32,-269.49C252.2,-258.61 239.75,-242.92 230.5,-228 200.94,-180.32 174.36,-119.43 161.93,-89.42"/>
<polygon fill="#63b8ff" stroke="#63b8ff" points="165.04,-87.77 158.01,-79.84 158.56,-90.42 165.04,-87.77"/>
</a>
</g>
</g>
<!-- Node20&#45;&gt;Node10 -->
<g id="edge31_Node000020_Node000010" class="edge">
<title>Node20&#45;&gt;Node10</title>
<g id="a_edge31_Node000020_Node000010"><a xlink:title=" ">
<path fill="none" stroke="#63b8ff" d="M273.96,-269.3C274.53,-231.24 271.59,-125.12 225.5,-55 216.86,-41.85 202.88,-31.4 190.28,-23.94"/>
<polygon fill="#63b8ff" stroke="#63b8ff" points="191.89,-20.83 181.45,-19.04 188.5,-26.95 191.89,-20.83"/>
</a>
</g>
</g>
<!-- Node20&#45;&gt;Node11 -->
<g id="edge33_Node000020_Node000011" class="edge">
<title>Node20&#45;&gt;Node11</title>
<g id="a_edge33_Node000020_Node000011"><a xlink:title=" ">
<path fill="none" stroke="#63b8ff" d="M342.37,-299.54C351.83,-301.51 361.41,-303.41 370.5,-305 477.97,-323.85 603.48,-338.85 678.96,-347.34"/>
<polygon fill="#63b8ff" stroke="#63b8ff" points="678.94,-350.86 689.27,-348.49 679.72,-343.9 678.94,-350.86"/>
</a>
</g>
</g>
<!-- Node20&#45;&gt;Node15 -->
<g id="edge34_Node000020_Node000015" class="edge">
<title>Node20&#45;&gt;Node15</title>
<g id="a_edge34_Node000020_Node000015"><a xlink:title=" ">
<path fill="none" stroke="#63b8ff" d="M336.94,-269.4C345.2,-267.58 353.55,-265.74 361.5,-264 427.34,-249.6 502.73,-233.34 554.75,-222.17"/>
<polygon fill="#63b8ff" stroke="#63b8ff" points="555.79,-225.52 564.83,-220 554.32,-218.68 555.79,-225.52"/>
</a>
</g>
</g>
<!-- Node21&#45;&gt;Node4 -->
<g id="edge36_Node000021_Node000004" class="edge">
<title>Node21&#45;&gt;Node4</title>
<g id="a_edge36_Node000021_Node000004"><a xlink:title=" ">
<path fill="none" stroke="#63b8ff" d="M433.6,-263.86C425,-230.97 413.14,-164.16 443.5,-121 469,-84.75 497.87,-106.73 536.5,-85 555.56,-74.28 555.45,-63.73 575.5,-55 654.65,-20.53 757.78,-12.63 809.28,-10.91"/>
<polygon fill="#63b8ff" stroke="#63b8ff" points="809.56,-14.4 819.46,-10.63 809.37,-7.4 809.56,-14.4"/>
</a>
</g>
</g>
<!-- Node21&#45;&gt;Node17 -->
<g id="edge47_Node000021_Node000017" class="edge">
<title>Node21&#45;&gt;Node17</title>
<g id="a_edge47_Node000021_Node000017"><a xlink:title=" ">
<path fill="none" stroke="#63b8ff" d="M451.1,-263.74C466.92,-236.8 495.2,-188.62 511.97,-160.06"/>
<polygon fill="#63b8ff" stroke="#63b8ff" points="515.13,-161.58 517.18,-151.18 509.09,-158.03 515.13,-161.58"/>
</a>
</g>
</g>
<!-- Node22 -->
<g id="Node000022" class="node">
<title>Node22</title>
<g id="a_Node000022"><a xlink:href="log_8h.html" target="_top" xlink:title=" ">
<polygon fill="white" stroke="#666666" points="396,-217 283,-217 283,-198 396,-198 396,-217"/>
<text text-anchor="middle" x="339.5" y="-205" font-family="Helvetica,sans-Serif" font-size="10.00">mosaic/logger/log.h</text>
</a>
</g>
</g>
<!-- Node21&#45;&gt;Node22 -->
<g id="edge37_Node000021_Node000022" class="edge">
<title>Node21&#45;&gt;Node22</title>
<g id="a_edge37_Node000021_Node000022"><a xlink:title=" ">
<path fill="none" stroke="#63b8ff" d="M413.49,-263.99C396.56,-251.29 374.81,-234.99 359.29,-223.34"/>
<polygon fill="#63b8ff" stroke="#63b8ff" points="361.05,-220.29 350.95,-217.09 356.85,-225.89 361.05,-220.29"/>
</a>
</g>
</g>
<!-- Node23 -->
<g id="Node000023" class="node">
<title>Node23</title>
<g id="a_Node000023"><a xlink:href="i__logger_8h.html" target="_top" xlink:title=" ">
<polygon fill="white" stroke="#666666" points="396.5,-145.5 332.5,-145.5 332.5,-126.5 396.5,-126.5 396.5,-145.5"/>
<text text-anchor="middle" x="364.5" y="-133.5" font-family="Helvetica,sans-Serif" font-size="10.00">i_logger.h</text>
</a>
</g>
</g>
<!-- Node22&#45;&gt;Node23 -->
<g id="edge38_Node000022_Node000023" class="edge">
<title>Node22&#45;&gt;Node23</title>
<g id="a_edge38_Node000022_Node000023"><a xlink:title=" ">
<path fill="none" stroke="#63b8ff" d="M342.57,-197.98C346.39,-187.35 353.03,-168.89 358,-155.06"/>
<polygon fill="#63b8ff" stroke="#63b8ff" points="361.32,-156.19 361.41,-145.59 354.73,-153.82 361.32,-156.19"/>
</a>
</g>
</g>
<!-- Node26 -->
<g id="Node000026" class="node">
<title>Node26</title>
<g id="a_Node000026"><a xlink:href="log__service_8h.html" target="_top" xlink:title=" ">
<polygon fill="white" stroke="#666666" points="354,-79.5 273,-79.5 273,-60.5 354,-60.5 354,-79.5"/>
<text text-anchor="middle" x="313.5" y="-67.5" font-family="Helvetica,sans-Serif" font-size="10.00">log_service.h</text>
</a>
</g>
</g>
<!-- Node22&#45;&gt;Node26 -->
<g id="edge46_Node000022_Node000026" class="edge">
<title>Node22&#45;&gt;Node26</title>
<g id="a_edge46_Node000022_Node000026"><a xlink:title=" ">
<path fill="none" stroke="#63b8ff" d="M336.58,-197.95C333,-187.14 326.97,-167.9 323.5,-151 319.29,-130.48 316.58,-106.61 315.06,-90.32"/>
<polygon fill="#63b8ff" stroke="#63b8ff" points="318.51,-89.61 314.16,-79.95 311.54,-90.22 318.51,-89.61"/>
</a>
</g>
</g>
<!-- Node23&#45;&gt;Node4 -->
<g id="edge39_Node000023_Node000004" class="edge">
<title>Node23&#45;&gt;Node4</title>
<g id="a_edge39_Node000023_Node000004"><a xlink:title=" ">
<path fill="none" stroke="#63b8ff" d="M369.59,-126.37C380.16,-109.33 406.3,-71.61 439.5,-55 504.25,-22.6 725.52,-13.52 809.14,-11.22"/>
<polygon fill="#63b8ff" stroke="#63b8ff" points="809.42,-14.71 819.32,-10.95 809.23,-7.72 809.42,-14.71"/>
</a>
</g>
</g>
<!-- Node24 -->
<g id="Node000024" class="node">
<title>Node24</title>
<g id="a_Node000024"><a xlink:title=" ">
<polygon fill="#e0e0e0" stroke="#999999" points="528,-79.5 449,-79.5 449,-60.5 528,-60.5 528,-79.5"/>
<text text-anchor="middle" x="488.5" y="-67.5" font-family="Helvetica,sans-Serif" font-size="10.00">fmt/format.h</text>
</a>
</g>
</g>
<!-- Node23&#45;&gt;Node24 -->
<g id="edge40_Node000023_Node000024" class="edge">
<title>Node23&#45;&gt;Node24</title>
<g id="a_edge40_Node000023_Node000024"><a xlink:title=" ">
<path fill="none" stroke="#63b8ff" d="M381.22,-126.37C402.12,-115.59 438.09,-97.02 462.57,-84.38"/>
<polygon fill="#63b8ff" stroke="#63b8ff" points="464.36,-87.4 471.65,-79.7 461.15,-81.18 464.36,-87.4"/>
</a>
</g>
</g>
<!-- Node25 -->
<g id="Node000025" class="node">
<title>Node25</title>
<g id="a_Node000025"><a xlink:href="log__level_8h.html" target="_top" xlink:title=" ">
<polygon fill="white" stroke="#666666" points="409.5,-19 339.5,-19 339.5,0 409.5,0 409.5,-19"/>
<text text-anchor="middle" x="374.5" y="-7" font-family="Helvetica,sans-Serif" font-size="10.00">log_level.h</text>
</a>
</g>
</g>
<!-- Node23&#45;&gt;Node25 -->
<g id="edge41_Node000023_Node000025" class="edge">
<title>Node23&#45;&gt;Node25</title>
<g id="a_edge41_Node000023_Node000025"><a xlink:title=" ">
<path fill="none" stroke="#63b8ff" d="M365.19,-126.44C366.79,-106.54 370.78,-56.76 372.99,-29.35"/>
<polygon fill="#63b8ff" stroke="#63b8ff" points="376.5,-29.37 373.81,-19.12 369.52,-28.8 376.5,-29.37"/>
</a>
</g>
</g>
<!-- Node23&#45;&gt;Node26 -->
<g id="edge42_Node000023_Node000026" class="edge">
<title>Node23&#45;&gt;Node26</title>
<g id="a_edge42_Node000023_Node000026"><a xlink:title=" ">
<path fill="none" stroke="#63b8ff" d="M357.62,-126.37C349.83,-116.59 336.95,-100.42 327.11,-88.08"/>
<polygon fill="#63b8ff" stroke="#63b8ff" points="329.57,-85.54 320.6,-79.91 324.09,-89.91 329.57,-85.54"/>
</a>
</g>
</g>
<!-- Node26&#45;&gt;Node3 -->
<g id="edge43_Node000026_Node000003" class="edge">
<title>Node26&#45;&gt;Node3</title>
<g id="a_edge43_Node000026_Node000003"><a xlink:title=" ">
<path fill="none" stroke="#63b8ff" d="M354.02,-63.94C378.69,-60.99 410.88,-57.4 439.5,-55 723.63,-31.14 1067,-16.49 1181.35,-11.99"/>
<polygon fill="#63b8ff" stroke="#63b8ff" points="1181.53,-15.48 1191.38,-11.59 1181.25,-8.49 1181.53,-15.48"/>
</a>
</g>
</g>
<!-- Node26&#45;&gt;Node7 -->
<g id="edge44_Node000026_Node000007" class="edge">
<title>Node26&#45;&gt;Node7</title>
<g id="a_edge44_Node000026_Node000007"><a xlink:title=" ">
<path fill="none" stroke="#63b8ff" d="M307.16,-60.37C300.8,-51.73 290.86,-38.2 282.93,-27.42"/>
<polygon fill="#63b8ff" stroke="#63b8ff" points="285.61,-25.15 276.87,-19.17 279.97,-29.3 285.61,-25.15"/>
</a>
</g>
</g>
<!-- Node26&#45;&gt;Node25 -->
<g id="edge45_Node000026_Node000025" class="edge">
<title>Node26&#45;&gt;Node25</title>
<g id="a_edge45_Node000026_Node000025"><a xlink:title=" ">
<path fill="none" stroke="#63b8ff" d="M322.5,-60.37C331.87,-51.38 346.75,-37.11 358.2,-26.14"/>
<polygon fill="#63b8ff" stroke="#63b8ff" points="360.67,-28.62 365.46,-19.17 355.82,-23.56 360.67,-28.62"/>
</a>
</g>
</g>
<!-- Node27&#45;&gt;Node4 -->
<g id="edge49_Node000027_Node000004" class="edge">
<title>Node27&#45;&gt;Node4</title>
<g id="a_edge49_Node000027_Node000004"><a xlink:title=" ">
<path fill="none" stroke="#63b8ff" d="M930.16,-186.65C920.29,-156.99 899.76,-99.81 874.5,-55 869.02,-45.28 861.73,-35.23 855.39,-27.14"/>
<polygon fill="#63b8ff" stroke="#63b8ff" points="858.03,-24.84 849.02,-19.25 852.58,-29.23 858.03,-24.84"/>
</a>
</g>
</g>
<!-- Node27&#45;&gt;Node17 -->
<g id="edge51_Node000027_Node000017" class="edge">
<title>Node27&#45;&gt;Node17</title>
<g id="a_edge51_Node000027_Node000017"><a xlink:title=" ">
<path fill="none" stroke="#63b8ff" d="M870.75,-188.95C867.63,-188.26 864.53,-187.61 861.5,-187 752.87,-165.25 721.89,-168.39 608.89,-151.18"/>
<polygon fill="#63b8ff" stroke="#63b8ff" points="609.22,-147.69 598.8,-149.62 608.15,-154.61 609.22,-147.69"/>
</a>
</g>
</g>
<!-- Node28 -->
<g id="Node000028" class="node">
<title>Node28</title>
<g id="a_Node000028"><a xlink:title=" ">
<polygon fill="#e0e0e0" stroke="#999999" points="1002,-145.5 957,-145.5 957,-126.5 1002,-126.5 1002,-145.5"/>
<text text-anchor="middle" x="979.5" y="-133.5" font-family="Helvetica,sans-Serif" font-size="10.00">utility</text>
</a>
</g>
</g>
<!-- Node27&#45;&gt;Node28 -->
<g id="edge50_Node000027_Node000028" class="edge">
<title>Node27&#45;&gt;Node28</title>
<g id="a_edge50_Node000027_Node000028"><a xlink:title=" ">
<path fill="none" stroke="#63b8ff" d="M948.71,-186.77C955.03,-176.55 962.68,-164.19 968.77,-154.34"/>
<polygon fill="#63b8ff" stroke="#63b8ff" points="971.76,-156.17 974.04,-145.82 965.81,-152.48 971.76,-156.17"/>
</a>
</g>
</g>
<!-- Node29&#45;&gt;Node3 -->
<g id="edge55_Node000029_Node000003" class="edge">
<title>Node29&#45;&gt;Node3</title>
<g id="a_edge55_Node000029_Node000003"><a xlink:title=" ">
<path fill="none" stroke="#63b8ff" d="M1311.19,-539C1305.58,-511.89 1296.5,-461.22 1296.5,-417.5 1296.5,-417.5 1296.5,-417.5 1296.5,-135 1296.5,-97.88 1292.76,-86.11 1272.5,-55 1264.8,-43.18 1253.05,-32.75 1242.67,-24.96"/>
<polygon fill="#63b8ff" stroke="#63b8ff" points="1244.57,-22.02 1234.39,-19.07 1240.51,-27.72 1244.57,-22.02"/>
</a>
</g>
</g>
<!-- Node30 -->
<g id="Node000030" class="node">
<title>Node30</title>
<g id="a_Node000030"><a xlink:title=" ">
<polygon fill="#e0e0e0" stroke="#999999" points="1410.5,-492 1362.5,-492 1362.5,-473 1410.5,-473 1410.5,-492"/>
<text text-anchor="middle" x="1386.5" y="-480" font-family="Helvetica,sans-Serif" font-size="10.00">thread</text>
</a>
</g>
</g>
<!-- Node29&#45;&gt;Node30 -->
<g id="edge56_Node000029_Node000030" class="edge">
<title>Node29&#45;&gt;Node30</title>
<g id="a_edge56_Node000029_Node000030"><a xlink:title=" ">
<path fill="none" stroke="#63b8ff" d="M1334.15,-538.79C1345.66,-526.64 1360.24,-511.24 1371.09,-499.78"/>
<polygon fill="#63b8ff" stroke="#63b8ff" points="1373.9,-501.9 1378.23,-492.24 1368.81,-497.09 1373.9,-501.9"/>
</a>
</g>
</g>
<!-- Node31 -->
<g id="Node000031" class="node">
<title>Node31</title>
<g id="a_Node000031"><a xlink:title=" ">
<polygon fill="#e0e0e0" stroke="#999999" points="1546.5,-492 1428.5,-492 1428.5,-473 1546.5,-473 1546.5,-492"/>
<text text-anchor="middle" x="1487.5" y="-480" font-family="Helvetica,sans-Serif" font-size="10.00">opencv2/videoio.hpp</text>
</a>
</g>
</g>
<!-- Node29&#45;&gt;Node31 -->
<g id="edge57_Node000029_Node000031" class="edge">
<title>Node29&#45;&gt;Node31</title>
<g id="a_edge57_Node000029_Node000031"><a xlink:title=" ">
<path fill="none" stroke="#63b8ff" d="M1360.24,-538.99C1391.27,-525.46 1431.69,-507.84 1458.56,-496.12"/>
<polygon fill="#63b8ff" stroke="#63b8ff" points="1460.04,-499.29 1467.8,-492.09 1457.24,-492.88 1460.04,-499.29"/>
</a>
</g>
</g>
<!-- Node32 -->
<g id="Node000032" class="node">
<title>Node32</title>
<g id="a_Node000032"><a xlink:href="a__mt__handler__configurer_8h.html" target="_top" xlink:title=" ">
<polygon fill="white" stroke="#666666" points="1192,-503 1055,-503 1055,-462 1192,-462 1192,-503"/>
<text text-anchor="start" x="1063" y="-491" font-family="Helvetica,sans-Serif" font-size="10.00">mosaic/auto_configurer</text>
<text text-anchor="start" x="1063" y="-480" font-family="Helvetica,sans-Serif" font-size="10.00">/connector/a_mt_handler</text>
<text text-anchor="middle" x="1123.5" y="-469" font-family="Helvetica,sans-Serif" font-size="10.00">_configurer.h</text>
</a>
</g>
</g>
<!-- Node29&#45;&gt;Node32 -->
<g id="edge58_Node000029_Node000032" class="edge">
<title>Node29&#45;&gt;Node32</title>
<g id="a_edge58_Node000029_Node000032"><a xlink:title=" ">
<path fill="none" stroke="#63b8ff" d="M1265.56,-538.99C1240.32,-529.13 1209.52,-517.1 1183.06,-506.77"/>
<polygon fill="#63b8ff" stroke="#63b8ff" points="1184.12,-503.42 1173.53,-503.04 1181.57,-509.94 1184.12,-503.42"/>
</a>
</g>
</g>
<!-- Node33 -->
<g id="Node000033" class="node">
<title>Node33</title>
<g id="a_Node000033"><a xlink:href="a__media__track__handler_8h.html" target="_top" xlink:title=" ">
<polygon fill="white" stroke="#666666" points="1456,-305 1325,-305 1325,-264 1456,-264 1456,-305"/>
<text text-anchor="start" x="1333" y="-293" font-family="Helvetica,sans-Serif" font-size="10.00">mosaic/handlers/media</text>
<text text-anchor="start" x="1333" y="-282" font-family="Helvetica,sans-Serif" font-size="10.00">_track/a_media_track</text>
<text text-anchor="middle" x="1390.5" y="-271" font-family="Helvetica,sans-Serif" font-size="10.00">_handler.h</text>
</a>
</g>
</g>
<!-- Node29&#45;&gt;Node33 -->
<g id="edge60_Node000029_Node000033" class="edge">
<title>Node29&#45;&gt;Node33</title>
<g id="a_edge60_Node000029_Node000033"><a xlink:title=" ">
<path fill="none" stroke="#63b8ff" d="M1320.89,-538.87C1333.89,-491.56 1366.99,-371.06 1382.39,-315.01"/>
<polygon fill="#63b8ff" stroke="#63b8ff" points="1385.78,-315.89 1385.05,-305.32 1379.03,-314.04 1385.78,-315.89"/>
</a>
</g>
</g>
<!-- Node32&#45;&gt;Node8 -->
<g id="edge59_Node000032_Node000008" class="edge">
<title>Node32&#45;&gt;Node8</title>
<g id="a_edge59_Node000032_Node000008"><a xlink:title=" ">
<path fill="none" stroke="#63b8ff" d="M1054.78,-462.21C1015.93,-451.3 968.69,-438.04 935.79,-428.81"/>
<polygon fill="#63b8ff" stroke="#63b8ff" points="936.64,-425.41 926.07,-426.08 934.75,-432.15 936.64,-425.41"/>
</a>
</g>
</g>
<!-- Node33&#45;&gt;Node3 -->
<g id="edge62_Node000033_Node000003" class="edge">
<title>Node33&#45;&gt;Node3</title>
<g id="a_edge62_Node000033_Node000003"><a xlink:title=" ">
<path fill="none" stroke="#63b8ff" d="M1375.49,-263.84C1368.28,-253.61 1360.02,-240.63 1354.5,-228 1322.71,-155.31 1360.41,-116.67 1310.5,-55 1297.55,-38.99 1277.39,-28.28 1259.43,-21.39"/>
<polygon fill="#63b8ff" stroke="#63b8ff" points="1260.33,-18 1249.73,-17.95 1257.98,-24.59 1260.33,-18"/>
</a>
</g>
</g>
<!-- Node33&#45;&gt;Node4 -->
<g id="edge63_Node000033_Node000004" class="edge">
<title>Node33&#45;&gt;Node4</title>
<g id="a_edge63_Node000033_Node000004"><a xlink:title=" ">
<path fill="none" stroke="#63b8ff" d="M1363.06,-263.8C1314.01,-228.48 1208.19,-151.82 1120.5,-85 1103.38,-71.96 1102.1,-63.88 1082.5,-55 1012.6,-23.33 921.57,-14.2 873.88,-11.56"/>
<polygon fill="#63b8ff" stroke="#63b8ff" points="873.99,-8.07 863.83,-11.07 873.65,-15.06 873.99,-8.07"/>
</a>
</g>
</g>
<!-- Node33&#45;&gt;Node27 -->
<g id="edge64_Node000033_Node000027" class="edge">
<title>Node33&#45;&gt;Node27</title>
<g id="a_edge64_Node000033_Node000027"><a xlink:title=" ">
<path fill="none" stroke="#63b8ff" d="M1324.97,-272.67C1242.06,-258.98 1099.57,-235.44 1012.13,-220.99"/>
<polygon fill="#63b8ff" stroke="#63b8ff" points="1012.45,-217.5 1002.01,-219.32 1011.31,-224.41 1012.45,-217.5"/>
</a>
</g>
</g>
<!-- Node34 -->
<g id="Node000034" class="node">
<title>Node34</title>
<g id="a_Node000034"><a xlink:title=" ">
<polygon fill="#e0e0e0" stroke="#999999" points="1600.5,-217 1550.5,-217 1550.5,-198 1600.5,-198 1600.5,-217"/>
<text text-anchor="middle" x="1575.5" y="-205" font-family="Helvetica,sans-Serif" font-size="10.00">chrono</text>
</a>
</g>
</g>
<!-- Node33&#45;&gt;Node34 -->
<g id="edge61_Node000033_Node000034" class="edge">
<title>Node33&#45;&gt;Node34</title>
<g id="a_edge61_Node000033_Node000034"><a xlink:title=" ">
<path fill="none" stroke="#63b8ff" d="M1445.8,-263.97C1473.32,-253.87 1506.95,-240.96 1536.5,-228 1541.03,-226.01 1545.78,-223.77 1550.36,-221.53"/>
<polygon fill="#63b8ff" stroke="#63b8ff" points="1551.98,-224.64 1559.35,-217.03 1548.85,-218.38 1551.98,-224.64"/>
</a>
</g>
</g>
<!-- Node35 -->
<g id="Node000035" class="node">
<title>Node35</title>
<g id="a_Node000035"><a xlink:href="recordable_8h.html" target="_top" xlink:title=" ">
<polygon fill="white" stroke="#666666" points="1494,-222.5 1363,-222.5 1363,-192.5 1494,-192.5 1494,-222.5"/>
<text text-anchor="start" x="1371" y="-210.5" font-family="Helvetica,sans-Serif" font-size="10.00">mosaic/handlers/media</text>
<text text-anchor="middle" x="1428.5" y="-199.5" font-family="Helvetica,sans-Serif" font-size="10.00">_track/recordable.h</text>
</a>
</g>
</g>
<!-- Node33&#45;&gt;Node35 -->
<g id="edge65_Node000033_Node000035" class="edge">
<title>Node33&#45;&gt;Node35</title>
<g id="a_edge65_Node000033_Node000035"><a xlink:title=" ">
<path fill="none" stroke="#63b8ff" d="M1400.48,-263.79C1405.42,-254.06 1411.4,-242.24 1416.58,-232.03"/>
<polygon fill="#63b8ff" stroke="#63b8ff" points="1419.83,-233.36 1421.22,-222.86 1413.58,-230.2 1419.83,-233.36"/>
</a>
</g>
</g>
<!-- Node36 -->
<g id="Node000036" class="node">
<title>Node36</title>
<g id="a_Node000036"><a xlink:title=" ">
<polygon fill="#e0e0e0" stroke="#999999" points="1558,-145.5 1429,-145.5 1429,-126.5 1558,-126.5 1558,-145.5"/>
<text text-anchor="middle" x="1493.5" y="-133.5" font-family="Helvetica,sans-Serif" font-size="10.00">opencv_forward_decl.h</text>
</a>
</g>
</g>
<!-- Node33&#45;&gt;Node36 -->
<g id="edge69_Node000033_Node000036" class="edge">
<title>Node33&#45;&gt;Node36</title>
<g id="a_edge69_Node000033_Node000036"><a xlink:title=" ">
<path fill="none" stroke="#63b8ff" d="M1456.23,-265.77C1474.71,-257.42 1492.69,-245.35 1503.5,-228 1517.39,-205.7 1509.17,-174.26 1501.61,-154.78"/>
<polygon fill="#63b8ff" stroke="#63b8ff" points="1504.83,-153.41 1497.72,-145.56 1498.38,-156.13 1504.83,-153.41"/>
</a>
</g>
</g>
<!-- Node35&#45;&gt;Node3 -->
<g id="edge66_Node000035_Node000003" class="edge">
<title>Node35&#45;&gt;Node3</title>
<g id="a_edge66_Node000035_Node000003"><a xlink:title=" ">
<path fill="none" stroke="#63b8ff" d="M1424.79,-192.15C1416.36,-162.32 1392.95,-93.18 1348.5,-55 1323.42,-33.45 1287.3,-22.15 1259.82,-16.34"/>
<polygon fill="#63b8ff" stroke="#63b8ff" points="1260.24,-12.86 1249.75,-14.37 1258.89,-19.73 1260.24,-12.86"/>
</a>
</g>
</g>
<!-- Node35&#45;&gt;Node4 -->
<g id="edge67_Node000035_Node000004" class="edge">
<title>Node35&#45;&gt;Node4</title>
<g id="a_edge67_Node000035_Node000004"><a xlink:title=" ">
<path fill="none" stroke="#63b8ff" d="M1405.93,-192.43C1356.32,-162.18 1233.23,-90.82 1120.5,-55 1033.91,-27.49 926.55,-16.49 873.82,-12.51"/>
<polygon fill="#63b8ff" stroke="#63b8ff" points="873.95,-9.01 863.72,-11.79 873.44,-16 873.95,-9.01"/>
</a>
</g>
</g>
<!-- Node35&#45;&gt;Node36 -->
<g id="edge68_Node000035_Node000036" class="edge">
<title>Node35&#45;&gt;Node36</title>
<g id="a_edge68_Node000035_Node000036"><a xlink:title=" ">
<path fill="none" stroke="#63b8ff" d="M1441.65,-192.44C1452.26,-181.09 1467.2,-165.12 1478.31,-153.24"/>
<polygon fill="#63b8ff" stroke="#63b8ff" points="1481.03,-155.46 1485.3,-145.77 1475.91,-150.68 1481.03,-155.46"/>
</a>
</g>
</g>
</g>
</svg>
