<?xml version="1.0" encoding="UTF-8" standalone="no"?>
<!DOCTYPE svg PUBLIC "-//W3C//DTD SVG 1.1//EN"
 "http://www.w3.org/Graphics/SVG/1.1/DTD/svg11.dtd">
<!-- Generated by graphviz version 2.43.0 (0)
 -->
<!-- Title: include/mosaic/handlers/data_channel/data_channel_sendable.h Pages: 1 -->
<svg width="389pt" height="434pt"
 viewBox="0.00 0.00 388.50 434.00" xmlns="http://www.w3.org/2000/svg" xmlns:xlink="http://www.w3.org/1999/xlink">
<g id="graph0" class="graph" transform="scale(1 1) rotate(0) translate(4 430)">
<title>include/mosaic/handlers/data_channel/data_channel_sendable.h</title>
<!-- Node1 -->
<g id="Node000001" class="node">
<title>Node1</title>
<g id="a_Node000001"><a xlink:title=" ">
<polygon fill="#999999" stroke="#666666" points="269.5,-426 116.5,-426 116.5,-385 269.5,-385 269.5,-426"/>
<text text-anchor="start" x="124.5" y="-414" font-family="Helvetica,sans-Serif" font-size="10.00">include/mosaic/handlers</text>
<text text-anchor="start" x="124.5" y="-403" font-family="Helvetica,sans-Serif" font-size="10.00">/data_channel/data_channel</text>
<text text-anchor="middle" x="193" y="-392" font-family="Helvetica,sans-Serif" font-size="10.00">_sendable.h</text>
</a>
</g>
</g>
<!-- Node2 -->
<g id="Node000002" class="node">
<title>Node2</title>
<g id="a_Node000002"><a xlink:href="a__data__channel__handler_8h.html" target="_top" xlink:title=" ">
<polygon fill="white" stroke="#666666" points="214,-349 74,-349 74,-308 214,-308 214,-349"/>
<text text-anchor="start" x="82" y="-337" font-family="Helvetica,sans-Serif" font-size="10.00">mosaic/handlers/data</text>
<text text-anchor="start" x="82" y="-326" font-family="Helvetica,sans-Serif" font-size="10.00">_channel/a_data_channel</text>
<text text-anchor="middle" x="144" y="-315" font-family="Helvetica,sans-Serif" font-size="10.00">_handler.h</text>
</a>
</g>
</g>
<!-- Node1&#45;&gt;Node2 -->
<g id="edge1_Node000001_Node000002" class="edge">
<title>Node1&#45;&gt;Node2</title>
<g id="a_edge1_Node000001_Node000002"><a xlink:title=" ">
<path fill="none" stroke="#63b8ff" d="M180.13,-384.79C174.67,-376.44 168.21,-366.55 162.27,-357.47"/>
<polygon fill="#63b8ff" stroke="#63b8ff" points="165.19,-355.53 156.79,-349.07 159.33,-359.36 165.19,-355.53"/>
</a>
</g>
</g>
<!-- Node5 -->
<g id="Node000005" class="node">
<title>Node5</title>
<g id="a_Node000005"><a xlink:href="log_8h.html" target="_top" xlink:title=" ">
<polygon fill="white" stroke="#666666" points="317.5,-189.5 204.5,-189.5 204.5,-170.5 317.5,-170.5 317.5,-189.5"/>
<text text-anchor="middle" x="261" y="-177.5" font-family="Helvetica,sans-Serif" font-size="10.00">mosaic/logger/log.h</text>
</a>
</g>
</g>
<!-- Node1&#45;&gt;Node5 -->
<g id="edge15_Node000001_Node000005" class="edge">
<title>Node1&#45;&gt;Node5</title>
<g id="a_edge15_Node000001_Node000005"><a xlink:title=" ">
<path fill="none" stroke="#63b8ff" d="M205.34,-384.83C211.39,-374.49 218.34,-361.41 223,-349 242.65,-296.64 253.87,-231.11 258.49,-199.61"/>
<polygon fill="#63b8ff" stroke="#63b8ff" points="261.97,-200.02 259.9,-189.63 255.04,-199.04 261.97,-200.02"/>
</a>
</g>
</g>
<!-- Node3 -->
<g id="Node000003" class="node">
<title>Node3</title>
<g id="a_Node000003"><a xlink:href="i__data__channel__handler_8h.html" target="_top" xlink:title=" ">
<polygon fill="white" stroke="#666666" points="187.5,-272 50.5,-272 50.5,-231 187.5,-231 187.5,-272"/>
<text text-anchor="start" x="58.5" y="-260" font-family="Helvetica,sans-Serif" font-size="10.00">mosaic/handlers/data</text>
<text text-anchor="start" x="58.5" y="-249" font-family="Helvetica,sans-Serif" font-size="10.00">_channel/i_data_channel</text>
<text text-anchor="middle" x="119" y="-238" font-family="Helvetica,sans-Serif" font-size="10.00">_handler.h</text>
</a>
</g>
</g>
<!-- Node2&#45;&gt;Node3 -->
<g id="edge2_Node000002_Node000003" class="edge">
<title>Node2&#45;&gt;Node3</title>
<g id="a_edge2_Node000002_Node000003"><a xlink:title=" ">
<path fill="none" stroke="#63b8ff" d="M137.43,-307.79C134.76,-299.79 131.62,-290.37 128.7,-281.59"/>
<polygon fill="#63b8ff" stroke="#63b8ff" points="132.01,-280.45 125.52,-272.07 125.37,-282.67 132.01,-280.45"/>
</a>
</g>
</g>
<!-- Node4 -->
<g id="Node000004" class="node">
<title>Node4</title>
<g id="a_Node000004"><a xlink:title=" ">
<polygon fill="#e0e0e0" stroke="#999999" points="44,-74 0,-74 0,-55 44,-55 44,-74"/>
<text text-anchor="middle" x="22" y="-62" font-family="Helvetica,sans-Serif" font-size="10.00">string</text>
</a>
</g>
</g>
<!-- Node3&#45;&gt;Node4 -->
<g id="edge3_Node000003_Node000004" class="edge">
<title>Node3&#45;&gt;Node4</title>
<g id="a_edge3_Node000003_Node000004"><a xlink:title=" ">
<path fill="none" stroke="#63b8ff" d="M70.65,-230.8C55.41,-222.13 40.17,-210.35 31,-195 10.26,-160.3 14.17,-110.65 18.36,-84.03"/>
<polygon fill="#63b8ff" stroke="#63b8ff" points="21.81,-84.61 20.11,-74.15 14.92,-83.39 21.81,-84.61"/>
</a>
</g>
</g>
<!-- Node3&#45;&gt;Node5 -->
<g id="edge4_Node000003_Node000005" class="edge">
<title>Node3&#45;&gt;Node5</title>
<g id="a_edge4_Node000003_Node000005"><a xlink:title=" ">
<path fill="none" stroke="#63b8ff" d="M158.93,-230.96C183.12,-219.12 213.3,-204.35 234.55,-193.95"/>
<polygon fill="#63b8ff" stroke="#63b8ff" points="236.18,-197.04 243.63,-189.5 233.11,-190.76 236.18,-197.04"/>
</a>
</g>
</g>
<!-- Node12 -->
<g id="Node000012" class="node">
<title>Node12</title>
<g id="a_Node000012"><a xlink:title=" ">
<polygon fill="#e0e0e0" stroke="#999999" points="186,-195 40,-195 40,-165 186,-165 186,-195"/>
<text text-anchor="start" x="48" y="-183" font-family="Helvetica,sans-Serif" font-size="10.00">mosaic/rtc/webrtc_forward</text>
<text text-anchor="middle" x="113" y="-172" font-family="Helvetica,sans-Serif" font-size="10.00">_decl.h</text>
</a>
</g>
</g>
<!-- Node3&#45;&gt;Node12 -->
<g id="edge14_Node000003_Node000012" class="edge">
<title>Node3&#45;&gt;Node12</title>
<g id="a_edge14_Node000003_Node000012"><a xlink:title=" ">
<path fill="none" stroke="#63b8ff" d="M117.3,-230.77C116.6,-222.76 115.8,-213.42 115.07,-205.02"/>
<polygon fill="#63b8ff" stroke="#63b8ff" points="118.56,-204.7 114.21,-195.04 111.59,-205.3 118.56,-204.7"/>
</a>
</g>
</g>
<!-- Node6 -->
<g id="Node000006" class="node">
<title>Node6</title>
<g id="a_Node000006"><a xlink:href="i__logger_8h.html" target="_top" xlink:title=" ">
<polygon fill="white" stroke="#666666" points="218,-129 154,-129 154,-110 218,-110 218,-129"/>
<text text-anchor="middle" x="186" y="-117" font-family="Helvetica,sans-Serif" font-size="10.00">i_logger.h</text>
</a>
</g>
</g>
<!-- Node5&#45;&gt;Node6 -->
<g id="edge5_Node000005_Node000006" class="edge">
<title>Node5&#45;&gt;Node6</title>
<g id="a_edge5_Node000005_Node000006"><a xlink:title=" ">
<path fill="none" stroke="#63b8ff" d="M249.93,-170.37C238.19,-161.21 219.41,-146.56 205.24,-135.51"/>
<polygon fill="#63b8ff" stroke="#63b8ff" points="207.15,-132.56 197.11,-129.17 202.84,-138.08 207.15,-132.56"/>
</a>
</g>
</g>
<!-- Node9 -->
<g id="Node000009" class="node">
<title>Node9</title>
<g id="a_Node000009"><a xlink:href="log__service_8h.html" target="_top" xlink:title=" ">
<polygon fill="white" stroke="#666666" points="301.5,-74 220.5,-74 220.5,-55 301.5,-55 301.5,-74"/>
<text text-anchor="middle" x="261" y="-62" font-family="Helvetica,sans-Serif" font-size="10.00">log_service.h</text>
</a>
</g>
</g>
<!-- Node5&#45;&gt;Node9 -->
<g id="edge13_Node000005_Node000009" class="edge">
<title>Node5&#45;&gt;Node9</title>
<g id="a_edge13_Node000005_Node000009"><a xlink:title=" ">
<path fill="none" stroke="#63b8ff" d="M261,-170.47C261,-152.23 261,-109.07 261,-84.14"/>
<polygon fill="#63b8ff" stroke="#63b8ff" points="264.5,-84.13 261,-74.13 257.5,-84.13 264.5,-84.13"/>
</a>
</g>
</g>
<!-- Node6&#45;&gt;Node4 -->
<g id="edge6_Node000006_Node000004" class="edge">
<title>Node6&#45;&gt;Node4</title>
<g id="a_edge6_Node000006_Node000004"><a xlink:title=" ">
<path fill="none" stroke="#63b8ff" d="M159.65,-109.98C130.85,-100.68 84.72,-85.77 53.9,-75.81"/>
<polygon fill="#63b8ff" stroke="#63b8ff" points="54.67,-72.38 44.08,-72.63 52.52,-79.04 54.67,-72.38"/>
</a>
</g>
</g>
<!-- Node7 -->
<g id="Node000007" class="node">
<title>Node7</title>
<g id="a_Node000007"><a xlink:title=" ">
<polygon fill="#e0e0e0" stroke="#999999" points="157.5,-74 78.5,-74 78.5,-55 157.5,-55 157.5,-74"/>
<text text-anchor="middle" x="118" y="-62" font-family="Helvetica,sans-Serif" font-size="10.00">fmt/format.h</text>
</a>
</g>
</g>
<!-- Node6&#45;&gt;Node7 -->
<g id="edge7_Node000006_Node000007" class="edge">
<title>Node6&#45;&gt;Node7</title>
<g id="a_edge7_Node000006_Node000007"><a xlink:title=" ">
<path fill="none" stroke="#63b8ff" d="M175.07,-109.98C164.92,-102.07 149.58,-90.11 137.35,-80.58"/>
<polygon fill="#63b8ff" stroke="#63b8ff" points="139.16,-77.56 129.12,-74.17 134.86,-83.08 139.16,-77.56"/>
</a>
</g>
</g>
<!-- Node8 -->
<g id="Node000008" class="node">
<title>Node8</title>
<g id="a_Node000008"><a xlink:href="log__level_8h.html" target="_top" xlink:title=" ">
<polygon fill="white" stroke="#666666" points="217,-19 147,-19 147,0 217,0 217,-19"/>
<text text-anchor="middle" x="182" y="-7" font-family="Helvetica,sans-Serif" font-size="10.00">log_level.h</text>
</a>
</g>
</g>
<!-- Node6&#45;&gt;Node8 -->
<g id="edge8_Node000006_Node000008" class="edge">
<title>Node6&#45;&gt;Node8</title>
<g id="a_edge8_Node000006_Node000008"><a xlink:title=" ">
<path fill="none" stroke="#63b8ff" d="M185.67,-109.66C185.02,-92.17 183.57,-52.8 182.7,-29.27"/>
<polygon fill="#63b8ff" stroke="#63b8ff" points="186.19,-29.02 182.32,-19.16 179.19,-29.28 186.19,-29.02"/>
</a>
</g>
</g>
<!-- Node6&#45;&gt;Node9 -->
<g id="edge9_Node000006_Node000009" class="edge">
<title>Node6&#45;&gt;Node9</title>
<g id="a_edge9_Node000006_Node000009"><a xlink:title=" ">
<path fill="none" stroke="#63b8ff" d="M198.05,-109.98C209.46,-101.92 226.83,-89.65 240.43,-80.03"/>
<polygon fill="#63b8ff" stroke="#63b8ff" points="242.58,-82.8 248.73,-74.17 238.54,-77.08 242.58,-82.8"/>
</a>
</g>
</g>
<!-- Node9&#45;&gt;Node8 -->
<g id="edge12_Node000009_Node000008" class="edge">
<title>Node9&#45;&gt;Node8</title>
<g id="a_edge12_Node000009_Node000008"><a xlink:title=" ">
<path fill="none" stroke="#63b8ff" d="M248.31,-54.98C236.17,-46.84 217.64,-34.41 203.25,-24.76"/>
<polygon fill="#63b8ff" stroke="#63b8ff" points="205.18,-21.84 194.92,-19.17 201.28,-27.65 205.18,-21.84"/>
</a>
</g>
</g>
<!-- Node10 -->
<g id="Node000010" class="node">
<title>Node10</title>
<g id="a_Node000010"><a xlink:title=" ">
<polygon fill="#e0e0e0" stroke="#999999" points="293,-19 235,-19 235,0 293,0 293,-19"/>
<text text-anchor="middle" x="264" y="-7" font-family="Helvetica,sans-Serif" font-size="10.00">memory</text>
</a>
</g>
</g>
<!-- Node9&#45;&gt;Node10 -->
<g id="edge10_Node000009_Node000010" class="edge">
<title>Node9&#45;&gt;Node10</title>
<g id="a_edge10_Node000009_Node000010"><a xlink:title=" ">
<path fill="none" stroke="#63b8ff" d="M261.5,-54.75C261.89,-47.8 262.45,-37.85 262.95,-29.13"/>
<polygon fill="#63b8ff" stroke="#63b8ff" points="266.44,-29.27 263.51,-19.09 259.45,-28.88 266.44,-29.27"/>
</a>
</g>
</g>
<!-- Node11 -->
<g id="Node000011" class="node">
<title>Node11</title>
<g id="a_Node000011"><a xlink:title=" ">
<polygon fill="#e0e0e0" stroke="#999999" points="380.5,-19 311.5,-19 311.5,0 380.5,0 380.5,-19"/>
<text text-anchor="middle" x="346" y="-7" font-family="Helvetica,sans-Serif" font-size="10.00">type_traits</text>
</a>
</g>
</g>
<!-- Node9&#45;&gt;Node11 -->
<g id="edge11_Node000009_Node000011" class="edge">
<title>Node9&#45;&gt;Node11</title>
<g id="a_edge11_Node000009_Node000011"><a xlink:title=" ">
<path fill="none" stroke="#63b8ff" d="M274.66,-54.98C287.84,-46.77 308.03,-34.18 323.57,-24.49"/>
<polygon fill="#63b8ff" stroke="#63b8ff" points="325.46,-27.43 332.09,-19.17 321.76,-21.49 325.46,-27.43"/>
</a>
</g>
</g>
</g>
</svg>
