<?xml version="1.0" encoding="UTF-8" standalone="no"?>
<!DOCTYPE svg PUBLIC "-//W3C//DTD SVG 1.1//EN"
 "http://www.w3.org/Graphics/SVG/1.1/DTD/svg11.dtd">
<!-- Generated by graphviz version 2.43.0 (0)
 -->
<!-- Title: src/handlers/data_channel/data_channel_receivable.cpp Pages: 1 -->
<svg width="800pt" height="500pt"
 viewBox="0.00 0.00 799.50 500.00" xmlns="http://www.w3.org/2000/svg" xmlns:xlink="http://www.w3.org/1999/xlink">
<g id="graph0" class="graph" transform="scale(1 1) rotate(0) translate(4 496)">
<title>src/handlers/data_channel/data_channel_receivable.cpp</title>
<!-- Node1 -->
<g id="Node000001" class="node">
<title>Node1</title>
<g id="a_Node000001"><a xlink:title=" ">
<polygon fill="#999999" stroke="#666666" points="344.5,-492 183.5,-492 183.5,-462 344.5,-462 344.5,-492"/>
<text text-anchor="start" x="191.5" y="-480" font-family="Helvetica,sans-Serif" font-size="10.00">src/handlers/data_channel</text>
<text text-anchor="middle" x="264" y="-469" font-family="Helvetica,sans-Serif" font-size="10.00">/data_channel_receivable.cpp</text>
</a>
</g>
</g>
<!-- Node2 -->
<g id="Node000002" class="node">
<title>Node2</title>
<g id="a_Node000002"><a xlink:title=" ">
<polygon fill="#e0e0e0" stroke="#999999" points="158,-415 0,-415 0,-396 158,-396 158,-415"/>
<text text-anchor="middle" x="79" y="-403" font-family="Helvetica,sans-Serif" font-size="10.00">api/data_channel_interface.h</text>
</a>
</g>
</g>
<!-- Node1&#45;&gt;Node2 -->
<g id="edge1_Node000001_Node000002" class="edge">
<title>Node1&#45;&gt;Node2</title>
<g id="a_edge1_Node000001_Node000002"><a xlink:title=" ">
<path fill="none" stroke="#63b8ff" d="M226.56,-461.94C192.69,-449.21 143.33,-430.67 111.19,-418.59"/>
<polygon fill="#63b8ff" stroke="#63b8ff" points="112.4,-415.31 101.81,-415.07 109.94,-421.86 112.4,-415.31"/>
</a>
</g>
</g>
<!-- Node3 -->
<g id="Node000003" class="node">
<title>Node3</title>
<g id="a_Node000003"><a xlink:title=" ">
<polygon fill="#e0e0e0" stroke="#999999" points="256,-415 176,-415 176,-396 256,-396 256,-415"/>
<text text-anchor="middle" x="216" y="-403" font-family="Helvetica,sans-Serif" font-size="10.00">json/reader.h</text>
</a>
</g>
</g>
<!-- Node1&#45;&gt;Node3 -->
<g id="edge2_Node000001_Node000003" class="edge">
<title>Node1&#45;&gt;Node3</title>
<g id="a_edge2_Node000001_Node000003"><a xlink:title=" ">
<path fill="none" stroke="#63b8ff" d="M254.29,-461.94C246.68,-450.92 236.06,-435.54 227.93,-423.78"/>
<polygon fill="#63b8ff" stroke="#63b8ff" points="230.62,-421.51 222.05,-415.27 224.86,-425.48 230.62,-421.51"/>
</a>
</g>
</g>
<!-- Node4 -->
<g id="Node000004" class="node">
<title>Node4</title>
<g id="a_Node000004"><a xlink:title=" ">
<polygon fill="#e0e0e0" stroke="#999999" points="350,-415 274,-415 274,-396 350,-396 350,-415"/>
<text text-anchor="middle" x="312" y="-403" font-family="Helvetica,sans-Serif" font-size="10.00">json/value.h</text>
</a>
</g>
</g>
<!-- Node1&#45;&gt;Node4 -->
<g id="edge3_Node000001_Node000004" class="edge">
<title>Node1&#45;&gt;Node4</title>
<g id="a_edge3_Node000001_Node000004"><a xlink:title=" ">
<path fill="none" stroke="#63b8ff" d="M273.71,-461.94C281.32,-450.92 291.94,-435.54 300.07,-423.78"/>
<polygon fill="#63b8ff" stroke="#63b8ff" points="303.14,-425.48 305.95,-415.27 297.38,-421.51 303.14,-425.48"/>
</a>
</g>
</g>
<!-- Node5 -->
<g id="Node000005" class="node">
<title>Node5</title>
<g id="a_Node000005"><a xlink:href="data__channel__receivable_8h.html" target="_top" xlink:title=" ">
<polygon fill="white" stroke="#666666" points="496,-426 368,-426 368,-385 496,-385 496,-426"/>
<text text-anchor="start" x="376" y="-414" font-family="Helvetica,sans-Serif" font-size="10.00">mosaic/handlers/data</text>
<text text-anchor="start" x="376" y="-403" font-family="Helvetica,sans-Serif" font-size="10.00">_channel/data_channel</text>
<text text-anchor="middle" x="432" y="-392" font-family="Helvetica,sans-Serif" font-size="10.00">_receivable.h</text>
</a>
</g>
</g>
<!-- Node1&#45;&gt;Node5 -->
<g id="edge4_Node000001_Node000005" class="edge">
<title>Node1&#45;&gt;Node5</title>
<g id="a_edge4_Node000001_Node000005"><a xlink:title=" ">
<path fill="none" stroke="#63b8ff" d="M298,-461.94C320.2,-452.75 349.73,-440.53 375.42,-429.91"/>
<polygon fill="#63b8ff" stroke="#63b8ff" points="376.78,-433.13 384.69,-426.07 374.11,-426.66 376.78,-433.13"/>
</a>
</g>
</g>
<!-- Node6 -->
<g id="Node000006" class="node">
<title>Node6</title>
<g id="a_Node000006"><a xlink:title=" ">
<polygon fill="#e0e0e0" stroke="#999999" points="314,-338 264,-338 264,-319 314,-319 314,-338"/>
<text text-anchor="middle" x="289" y="-326" font-family="Helvetica,sans-Serif" font-size="10.00">cstdint</text>
</a>
</g>
</g>
<!-- Node5&#45;&gt;Node6 -->
<g id="edge5_Node000005_Node000006" class="edge">
<title>Node5&#45;&gt;Node6</title>
<g id="a_edge5_Node000005_Node000006"><a xlink:title=" ">
<path fill="none" stroke="#63b8ff" d="M392.4,-384.93C371.61,-374.51 345.79,-361.33 323,-349 319.57,-347.14 315.96,-345.14 312.44,-343.15"/>
<polygon fill="#63b8ff" stroke="#63b8ff" points="313.89,-339.94 303.47,-338.01 310.41,-346.02 313.89,-339.94"/>
</a>
</g>
</g>
<!-- Node7 -->
<g id="Node000007" class="node">
<title>Node7</title>
<g id="a_Node000007"><a xlink:title=" ">
<polygon fill="#e0e0e0" stroke="#999999" points="379.5,-338 332.5,-338 332.5,-319 379.5,-319 379.5,-338"/>
<text text-anchor="middle" x="356" y="-326" font-family="Helvetica,sans-Serif" font-size="10.00">vector</text>
</a>
</g>
</g>
<!-- Node5&#45;&gt;Node7 -->
<g id="edge6_Node000005_Node000007" class="edge">
<title>Node5&#45;&gt;Node7</title>
<g id="a_edge6_Node000005_Node000007"><a xlink:title=" ">
<path fill="none" stroke="#63b8ff" d="M412.03,-384.79C399.6,-372.52 383.81,-356.94 372.16,-345.45"/>
<polygon fill="#63b8ff" stroke="#63b8ff" points="374.43,-342.77 364.85,-338.24 369.51,-347.75 374.43,-342.77"/>
</a>
</g>
</g>
<!-- Node8 -->
<g id="Node000008" class="node">
<title>Node8</title>
<g id="a_Node000008"><a xlink:title=" ">
<polygon fill="#e0e0e0" stroke="#999999" points="466.5,-338 397.5,-338 397.5,-319 466.5,-319 466.5,-338"/>
<text text-anchor="middle" x="432" y="-326" font-family="Helvetica,sans-Serif" font-size="10.00">json/json.h</text>
</a>
</g>
</g>
<!-- Node5&#45;&gt;Node8 -->
<g id="edge7_Node000005_Node000008" class="edge">
<title>Node5&#45;&gt;Node8</title>
<g id="a_edge7_Node000005_Node000008"><a xlink:title=" ">
<path fill="none" stroke="#63b8ff" d="M432,-384.79C432,-373.59 432,-359.61 432,-348.52"/>
<polygon fill="#63b8ff" stroke="#63b8ff" points="435.5,-348.24 432,-338.24 428.5,-348.24 435.5,-348.24"/>
</a>
</g>
</g>
<!-- Node9 -->
<g id="Node000009" class="node">
<title>Node9</title>
<g id="a_Node000009"><a xlink:href="a__data__channel__handler_8h.html" target="_top" xlink:title=" ">
<polygon fill="white" stroke="#666666" points="625,-349 485,-349 485,-308 625,-308 625,-349"/>
<text text-anchor="start" x="493" y="-337" font-family="Helvetica,sans-Serif" font-size="10.00">mosaic/handlers/data</text>
<text text-anchor="start" x="493" y="-326" font-family="Helvetica,sans-Serif" font-size="10.00">_channel/a_data_channel</text>
<text text-anchor="middle" x="555" y="-315" font-family="Helvetica,sans-Serif" font-size="10.00">_handler.h</text>
</a>
</g>
</g>
<!-- Node5&#45;&gt;Node9 -->
<g id="edge8_Node000005_Node000009" class="edge">
<title>Node5&#45;&gt;Node9</title>
<g id="a_edge8_Node000005_Node000009"><a xlink:title=" ">
<path fill="none" stroke="#63b8ff" d="M464,-384.99C479.25,-375.69 497.68,-364.45 513.95,-354.53"/>
<polygon fill="#63b8ff" stroke="#63b8ff" points="516.02,-357.37 522.74,-349.17 512.38,-351.39 516.02,-357.37"/>
</a>
</g>
</g>
<!-- Node12 -->
<g id="Node000012" class="node">
<title>Node12</title>
<g id="a_Node000012"><a xlink:href="log_8h.html" target="_top" xlink:title=" ">
<polygon fill="white" stroke="#666666" points="728.5,-189.5 615.5,-189.5 615.5,-170.5 728.5,-170.5 728.5,-189.5"/>
<text text-anchor="middle" x="672" y="-177.5" font-family="Helvetica,sans-Serif" font-size="10.00">mosaic/logger/log.h</text>
</a>
</g>
</g>
<!-- Node5&#45;&gt;Node12 -->
<g id="edge22_Node000005_Node000012" class="edge">
<title>Node5&#45;&gt;Node12</title>
<g id="a_edge22_Node000005_Node000012"><a xlink:title=" ">
<path fill="none" stroke="#63b8ff" d="M496.22,-403.41C540.9,-399.15 598.58,-386.08 634,-349 673.53,-307.62 675.19,-234.23 673.52,-199.81"/>
<polygon fill="#63b8ff" stroke="#63b8ff" points="677,-199.48 672.87,-189.73 670.02,-199.93 677,-199.48"/>
</a>
</g>
</g>
<!-- Node10 -->
<g id="Node000010" class="node">
<title>Node10</title>
<g id="a_Node000010"><a xlink:href="i__data__channel__handler_8h.html" target="_top" xlink:title=" ">
<polygon fill="white" stroke="#666666" points="617.5,-272 480.5,-272 480.5,-231 617.5,-231 617.5,-272"/>
<text text-anchor="start" x="488.5" y="-260" font-family="Helvetica,sans-Serif" font-size="10.00">mosaic/handlers/data</text>
<text text-anchor="start" x="488.5" y="-249" font-family="Helvetica,sans-Serif" font-size="10.00">_channel/i_data_channel</text>
<text text-anchor="middle" x="549" y="-238" font-family="Helvetica,sans-Serif" font-size="10.00">_handler.h</text>
</a>
</g>
</g>
<!-- Node9&#45;&gt;Node10 -->
<g id="edge9_Node000009_Node000010" class="edge">
<title>Node9&#45;&gt;Node10</title>
<g id="a_edge9_Node000009_Node000010"><a xlink:title=" ">
<path fill="none" stroke="#63b8ff" d="M553.42,-307.79C552.8,-299.96 552.06,-290.77 551.37,-282.16"/>
<polygon fill="#63b8ff" stroke="#63b8ff" points="554.85,-281.76 550.57,-272.07 547.87,-282.32 554.85,-281.76"/>
</a>
</g>
</g>
<!-- Node11 -->
<g id="Node000011" class="node">
<title>Node11</title>
<g id="a_Node000011"><a xlink:title=" ">
<polygon fill="#e0e0e0" stroke="#999999" points="455,-74 411,-74 411,-55 455,-55 455,-74"/>
<text text-anchor="middle" x="433" y="-62" font-family="Helvetica,sans-Serif" font-size="10.00">string</text>
</a>
</g>
</g>
<!-- Node10&#45;&gt;Node11 -->
<g id="edge10_Node000010_Node000011" class="edge">
<title>Node10&#45;&gt;Node11</title>
<g id="a_edge10_Node000010_Node000011"><a xlink:title=" ">
<path fill="none" stroke="#63b8ff" d="M485.97,-230.89C468.99,-222.53 452.45,-210.92 442,-195 419.82,-161.2 424.3,-111.19 428.97,-84.28"/>
<polygon fill="#63b8ff" stroke="#63b8ff" points="432.45,-84.76 430.91,-74.27 425.57,-83.42 432.45,-84.76"/>
</a>
</g>
</g>
<!-- Node10&#45;&gt;Node12 -->
<g id="edge11_Node000010_Node000012" class="edge">
<title>Node10&#45;&gt;Node12</title>
<g id="a_edge11_Node000010_Node000012"><a xlink:title=" ">
<path fill="none" stroke="#63b8ff" d="M583.59,-230.96C604.16,-219.33 629.74,-204.88 648.08,-194.51"/>
<polygon fill="#63b8ff" stroke="#63b8ff" points="649.97,-197.47 656.95,-189.5 646.52,-191.38 649.97,-197.47"/>
</a>
</g>
</g>
<!-- Node19 -->
<g id="Node000019" class="node">
<title>Node19</title>
<g id="a_Node000019"><a xlink:title=" ">
<polygon fill="#e0e0e0" stroke="#999999" points="597,-195 451,-195 451,-165 597,-165 597,-195"/>
<text text-anchor="start" x="459" y="-183" font-family="Helvetica,sans-Serif" font-size="10.00">mosaic/rtc/webrtc_forward</text>
<text text-anchor="middle" x="524" y="-172" font-family="Helvetica,sans-Serif" font-size="10.00">_decl.h</text>
</a>
</g>
</g>
<!-- Node10&#45;&gt;Node19 -->
<g id="edge21_Node000010_Node000019" class="edge">
<title>Node10&#45;&gt;Node19</title>
<g id="a_edge21_Node000010_Node000019"><a xlink:title=" ">
<path fill="none" stroke="#63b8ff" d="M541.9,-230.77C538.96,-222.58 535.51,-213.01 532.44,-204.46"/>
<polygon fill="#63b8ff" stroke="#63b8ff" points="535.73,-203.26 529.05,-195.04 529.14,-205.63 535.73,-203.26"/>
</a>
</g>
</g>
<!-- Node13 -->
<g id="Node000013" class="node">
<title>Node13</title>
<g id="a_Node000013"><a xlink:href="i__logger_8h.html" target="_top" xlink:title=" ">
<polygon fill="white" stroke="#666666" points="629,-129 565,-129 565,-110 629,-110 629,-129"/>
<text text-anchor="middle" x="597" y="-117" font-family="Helvetica,sans-Serif" font-size="10.00">i_logger.h</text>
</a>
</g>
</g>
<!-- Node12&#45;&gt;Node13 -->
<g id="edge12_Node000012_Node000013" class="edge">
<title>Node12&#45;&gt;Node13</title>
<g id="a_edge12_Node000012_Node000013"><a xlink:title=" ">
<path fill="none" stroke="#63b8ff" d="M660.93,-170.37C649.19,-161.21 630.41,-146.56 616.24,-135.51"/>
<polygon fill="#63b8ff" stroke="#63b8ff" points="618.15,-132.56 608.11,-129.17 613.84,-138.08 618.15,-132.56"/>
</a>
</g>
</g>
<!-- Node16 -->
<g id="Node000016" class="node">
<title>Node16</title>
<g id="a_Node000016"><a xlink:href="log__service_8h.html" target="_top" xlink:title=" ">
<polygon fill="white" stroke="#666666" points="712.5,-74 631.5,-74 631.5,-55 712.5,-55 712.5,-74"/>
<text text-anchor="middle" x="672" y="-62" font-family="Helvetica,sans-Serif" font-size="10.00">log_service.h</text>
</a>
</g>
</g>
<!-- Node12&#45;&gt;Node16 -->
<g id="edge20_Node000012_Node000016" class="edge">
<title>Node12&#45;&gt;Node16</title>
<g id="a_edge20_Node000012_Node000016"><a xlink:title=" ">
<path fill="none" stroke="#63b8ff" d="M672,-170.47C672,-152.23 672,-109.07 672,-84.14"/>
<polygon fill="#63b8ff" stroke="#63b8ff" points="675.5,-84.13 672,-74.13 668.5,-84.13 675.5,-84.13"/>
</a>
</g>
</g>
<!-- Node13&#45;&gt;Node11 -->
<g id="edge13_Node000013_Node000011" class="edge">
<title>Node13&#45;&gt;Node11</title>
<g id="a_edge13_Node000013_Node000011"><a xlink:title=" ">
<path fill="none" stroke="#63b8ff" d="M570.65,-109.98C541.85,-100.68 495.72,-85.77 464.9,-75.81"/>
<polygon fill="#63b8ff" stroke="#63b8ff" points="465.67,-72.38 455.08,-72.63 463.52,-79.04 465.67,-72.38"/>
</a>
</g>
</g>
<!-- Node14 -->
<g id="Node000014" class="node">
<title>Node14</title>
<g id="a_Node000014"><a xlink:title=" ">
<polygon fill="#e0e0e0" stroke="#999999" points="568.5,-74 489.5,-74 489.5,-55 568.5,-55 568.5,-74"/>
<text text-anchor="middle" x="529" y="-62" font-family="Helvetica,sans-Serif" font-size="10.00">fmt/format.h</text>
</a>
</g>
</g>
<!-- Node13&#45;&gt;Node14 -->
<g id="edge14_Node000013_Node000014" class="edge">
<title>Node13&#45;&gt;Node14</title>
<g id="a_edge14_Node000013_Node000014"><a xlink:title=" ">
<path fill="none" stroke="#63b8ff" d="M586.07,-109.98C575.92,-102.07 560.58,-90.11 548.35,-80.58"/>
<polygon fill="#63b8ff" stroke="#63b8ff" points="550.16,-77.56 540.12,-74.17 545.86,-83.08 550.16,-77.56"/>
</a>
</g>
</g>
<!-- Node15 -->
<g id="Node000015" class="node">
<title>Node15</title>
<g id="a_Node000015"><a xlink:href="log__level_8h.html" target="_top" xlink:title=" ">
<polygon fill="white" stroke="#666666" points="628,-19 558,-19 558,0 628,0 628,-19"/>
<text text-anchor="middle" x="593" y="-7" font-family="Helvetica,sans-Serif" font-size="10.00">log_level.h</text>
</a>
</g>
</g>
<!-- Node13&#45;&gt;Node15 -->
<g id="edge15_Node000013_Node000015" class="edge">
<title>Node13&#45;&gt;Node15</title>
<g id="a_edge15_Node000013_Node000015"><a xlink:title=" ">
<path fill="none" stroke="#63b8ff" d="M596.67,-109.66C596.02,-92.17 594.57,-52.8 593.7,-29.27"/>
<polygon fill="#63b8ff" stroke="#63b8ff" points="597.19,-29.02 593.32,-19.16 590.19,-29.28 597.19,-29.02"/>
</a>
</g>
</g>
<!-- Node13&#45;&gt;Node16 -->
<g id="edge16_Node000013_Node000016" class="edge">
<title>Node13&#45;&gt;Node16</title>
<g id="a_edge16_Node000013_Node000016"><a xlink:title=" ">
<path fill="none" stroke="#63b8ff" d="M609.05,-109.98C620.46,-101.92 637.83,-89.65 651.43,-80.03"/>
<polygon fill="#63b8ff" stroke="#63b8ff" points="653.58,-82.8 659.73,-74.17 649.54,-77.08 653.58,-82.8"/>
</a>
</g>
</g>
<!-- Node16&#45;&gt;Node15 -->
<g id="edge19_Node000016_Node000015" class="edge">
<title>Node16&#45;&gt;Node15</title>
<g id="a_edge19_Node000016_Node000015"><a xlink:title=" ">
<path fill="none" stroke="#63b8ff" d="M659.31,-54.98C647.17,-46.84 628.64,-34.41 614.25,-24.76"/>
<polygon fill="#63b8ff" stroke="#63b8ff" points="616.18,-21.84 605.92,-19.17 612.28,-27.65 616.18,-21.84"/>
</a>
</g>
</g>
<!-- Node17 -->
<g id="Node000017" class="node">
<title>Node17</title>
<g id="a_Node000017"><a xlink:title=" ">
<polygon fill="#e0e0e0" stroke="#999999" points="704,-19 646,-19 646,0 704,0 704,-19"/>
<text text-anchor="middle" x="675" y="-7" font-family="Helvetica,sans-Serif" font-size="10.00">memory</text>
</a>
</g>
</g>
<!-- Node16&#45;&gt;Node17 -->
<g id="edge17_Node000016_Node000017" class="edge">
<title>Node16&#45;&gt;Node17</title>
<g id="a_edge17_Node000016_Node000017"><a xlink:title=" ">
<path fill="none" stroke="#63b8ff" d="M672.5,-54.75C672.89,-47.8 673.45,-37.85 673.95,-29.13"/>
<polygon fill="#63b8ff" stroke="#63b8ff" points="677.44,-29.27 674.51,-19.09 670.45,-28.88 677.44,-29.27"/>
</a>
</g>
</g>
<!-- Node18 -->
<g id="Node000018" class="node">
<title>Node18</title>
<g id="a_Node000018"><a xlink:title=" ">
<polygon fill="#e0e0e0" stroke="#999999" points="791.5,-19 722.5,-19 722.5,0 791.5,0 791.5,-19"/>
<text text-anchor="middle" x="757" y="-7" font-family="Helvetica,sans-Serif" font-size="10.00">type_traits</text>
</a>
</g>
</g>
<!-- Node16&#45;&gt;Node18 -->
<g id="edge18_Node000016_Node000018" class="edge">
<title>Node16&#45;&gt;Node18</title>
<g id="a_edge18_Node000016_Node000018"><a xlink:title=" ">
<path fill="none" stroke="#63b8ff" d="M685.66,-54.98C698.84,-46.77 719.03,-34.18 734.57,-24.49"/>
<polygon fill="#63b8ff" stroke="#63b8ff" points="736.46,-27.43 743.09,-19.17 732.76,-21.49 736.46,-27.43"/>
</a>
</g>
</g>
</g>
</svg>
