<?xml version="1.0" encoding="UTF-8" standalone="no"?>
<!DOCTYPE svg PUBLIC "-//W3C//DTD SVG 1.1//EN"
 "http://www.w3.org/Graphics/SVG/1.1/DTD/svg11.dtd">
<!-- Generated by graphviz version 2.43.0 (0)
 -->
<!-- Title: src Pages: 1 -->
<svg width="637pt" height="98pt"
 viewBox="0.00 0.00 637.00 98.00" xmlns="http://www.w3.org/2000/svg" xmlns:xlink="http://www.w3.org/1999/xlink">
<g id="graph0" class="graph" transform="scale(1 1) rotate(0) translate(4 94)">
<title>src</title>
<g id="clust1" class="cluster">
<title>clusterdir_68267d1309a1af8e8297ef4c3efbcdba</title>
<g id="a_clust1"><a xlink:href="dir_68267d1309a1af8e8297ef4c3efbcdba.html" target="_top">
<polygon fill="#edf0f7" stroke="#404040" stroke-width="2" points="8,-47 8,-82 621,-82 621,-47 8,-47"/>
</a>
</g>
</g>
<!-- dir_68267d1309a1af8e8297ef4c3efbcdba -->
<g id="node1" class="node">
<title>dir_68267d1309a1af8e8297ef4c3efbcdba</title>
<text text-anchor="middle" x="597" y="-62" font-family="Helvetica,sans-Serif" font-size="10.00">src</text>
</g>
<!-- dir_cb774543f111293b7ac720f1191ac1db -->
<g id="node2" class="node">
<title>dir_cb774543f111293b7ac720f1191ac1db</title>
<g id="a_node2"><a xlink:href="dir_cb774543f111293b7ac720f1191ac1db.html" target="_top" xlink:title="auto_configurer">
<polygon fill="#a2b4d6" stroke="#404040" points="563,-74 471,-74 471,-55 563,-55 563,-74"/>
<text text-anchor="middle" x="517" y="-62" font-family="Helvetica,sans-Serif" font-size="10.00">auto_configurer</text>
</a>
</g>
</g>
<!-- dir_d44c64559bbebec7f509842c48db8b23 -->
<g id="node9" class="node">
<title>dir_d44c64559bbebec7f509842c48db8b23</title>
<g id="a_node9"><a xlink:href="dir_d44c64559bbebec7f509842c48db8b23.html" target="_top" xlink:title="include">
<polygon fill="#edf0f7" stroke="red" points="291,-19 239,-19 239,0 291,0 291,-19"/>
<text text-anchor="middle" x="265" y="-7" font-family="Helvetica,sans-Serif" font-size="10.00">include</text>
</a>
</g>
</g>
<!-- dir_cb774543f111293b7ac720f1191ac1db&#45;&gt;dir_d44c64559bbebec7f509842c48db8b23 -->
<g id="edge1" class="edge">
<title>dir_cb774543f111293b7ac720f1191ac1db&#45;&gt;dir_d44c64559bbebec7f509842c48db8b23</title>
<g id="a_edge1"><a xlink:href="dir_000001_000015.html" target="_top">
<path fill="none" stroke="#63b8ff" d="M490.58,-54.94C481.57,-52.19 471.4,-49.27 462,-47 406.29,-33.52 340.68,-22.27 301,-15.97"/>
<polygon fill="#63b8ff" stroke="#63b8ff" points="301.43,-12.49 291,-14.4 300.34,-19.41 301.43,-12.49"/>
</a>
</g>
<g id="a_edge1&#45;headlabel"><a xlink:href="dir_000001_000015.html" target="_top" xlink:title="11">
<text text-anchor="middle" x="305.42" y="-7.75" font-family="Helvetica,sans-Serif" font-size="10.00" fill="#63b8ff">11</text>
</a>
</g>
</g>
<!-- dir_8584357d183de7e9e77d5d87cc2b8631 -->
<g id="node3" class="node">
<title>dir_8584357d183de7e9e77d5d87cc2b8631</title>
<g id="a_node3"><a xlink:href="dir_8584357d183de7e9e77d5d87cc2b8631.html" target="_top" xlink:title="config_reader">
<polygon fill="#a2b4d6" stroke="#404040" points="452.5,-74 369.5,-74 369.5,-55 452.5,-55 452.5,-74"/>
<text text-anchor="middle" x="411" y="-62" font-family="Helvetica,sans-Serif" font-size="10.00">config_reader</text>
</a>
</g>
</g>
<!-- dir_8584357d183de7e9e77d5d87cc2b8631&#45;&gt;dir_d44c64559bbebec7f509842c48db8b23 -->
<g id="edge2" class="edge">
<title>dir_8584357d183de7e9e77d5d87cc2b8631&#45;&gt;dir_d44c64559bbebec7f509842c48db8b23</title>
<g id="a_edge2"><a xlink:href="dir_000003_000015.html" target="_top">
<path fill="none" stroke="#63b8ff" d="M387.54,-54.98C363.42,-46.23 325.63,-32.51 298.4,-22.62"/>
<polygon fill="#63b8ff" stroke="#63b8ff" points="299.48,-19.29 288.88,-19.17 297.09,-25.87 299.48,-19.29"/>
</a>
</g>
<g id="a_edge2&#45;headlabel"><a xlink:href="dir_000003_000015.html" target="_top" xlink:title="3">
<text text-anchor="middle" x="303.83" y="-15.35" font-family="Helvetica,sans-Serif" font-size="10.00" fill="#63b8ff">3</text>
</a>
</g>
</g>
<!-- dir_aebb8dcc11953d78e620bbef0b9e2183 -->
<g id="node4" class="node">
<title>dir_aebb8dcc11953d78e620bbef0b9e2183</title>
<g id="a_node4"><a xlink:href="dir_aebb8dcc11953d78e620bbef0b9e2183.html" target="_top" xlink:title="core">
<polygon fill="#a2b4d6" stroke="#404040" points="351,-74 313,-74 313,-55 351,-55 351,-74"/>
<text text-anchor="middle" x="332" y="-62" font-family="Helvetica,sans-Serif" font-size="10.00">core</text>
</a>
</g>
</g>
<!-- dir_aebb8dcc11953d78e620bbef0b9e2183&#45;&gt;dir_d44c64559bbebec7f509842c48db8b23 -->
<g id="edge3" class="edge">
<title>dir_aebb8dcc11953d78e620bbef0b9e2183&#45;&gt;dir_d44c64559bbebec7f509842c48db8b23</title>
<g id="a_edge3"><a xlink:href="dir_000006_000015.html" target="_top">
<path fill="none" stroke="#63b8ff" d="M321.24,-54.98C311.23,-47.07 296.11,-35.11 284.07,-25.58"/>
<polygon fill="#63b8ff" stroke="#63b8ff" points="285.97,-22.63 275.96,-19.17 281.63,-28.12 285.97,-22.63"/>
</a>
</g>
<g id="a_edge3&#45;headlabel"><a xlink:href="dir_000006_000015.html" target="_top" xlink:title="17">
<text text-anchor="middle" x="290.56" y="-20.13" font-family="Helvetica,sans-Serif" font-size="10.00" fill="#63b8ff">17</text>
</a>
</g>
</g>
<!-- dir_5686efc8b5ddd35b6b727c343c338ca5 -->
<g id="node5" class="node">
<title>dir_5686efc8b5ddd35b6b727c343c338ca5</title>
<g id="a_node5"><a xlink:href="dir_5686efc8b5ddd35b6b727c343c338ca5.html" target="_top" xlink:title="handlers">
<polygon fill="#a2b4d6" stroke="#404040" points="294.5,-74 235.5,-74 235.5,-55 294.5,-55 294.5,-74"/>
<text text-anchor="middle" x="265" y="-62" font-family="Helvetica,sans-Serif" font-size="10.00">handlers</text>
</a>
</g>
</g>
<!-- dir_5686efc8b5ddd35b6b727c343c338ca5&#45;&gt;dir_d44c64559bbebec7f509842c48db8b23 -->
<g id="edge4" class="edge">
<title>dir_5686efc8b5ddd35b6b727c343c338ca5&#45;&gt;dir_d44c64559bbebec7f509842c48db8b23</title>
<g id="a_edge4"><a xlink:href="dir_000010_000015.html" target="_top">
<path fill="none" stroke="#63b8ff" d="M265,-54.75C265,-47.8 265,-37.85 265,-29.13"/>
<polygon fill="#63b8ff" stroke="#63b8ff" points="268.5,-29.09 265,-19.09 261.5,-29.09 268.5,-29.09"/>
</a>
</g>
<g id="a_edge4&#45;headlabel"><a xlink:href="dir_000010_000015.html" target="_top" xlink:title="12">
<text text-anchor="middle" x="271.34" y="-30.18" font-family="Helvetica,sans-Serif" font-size="10.00" fill="#63b8ff">12</text>
</a>
</g>
</g>
<!-- dir_ffde1fbcaa8d6b0d34e29c3bddf7a801 -->
<g id="node6" class="node">
<title>dir_ffde1fbcaa8d6b0d34e29c3bddf7a801</title>
<g id="a_node6"><a xlink:href="dir_ffde1fbcaa8d6b0d34e29c3bddf7a801.html" target="_top" xlink:title="logger">
<polygon fill="#a2b4d6" stroke="#404040" points="217.5,-74 170.5,-74 170.5,-55 217.5,-55 217.5,-74"/>
<text text-anchor="middle" x="194" y="-62" font-family="Helvetica,sans-Serif" font-size="10.00">logger</text>
</a>
</g>
</g>
<!-- dir_ffde1fbcaa8d6b0d34e29c3bddf7a801&#45;&gt;dir_d44c64559bbebec7f509842c48db8b23 -->
<g id="edge5" class="edge">
<title>dir_ffde1fbcaa8d6b0d34e29c3bddf7a801&#45;&gt;dir_d44c64559bbebec7f509842c48db8b23</title>
<g id="a_edge5"><a xlink:href="dir_000017_000015.html" target="_top">
<path fill="none" stroke="#63b8ff" d="M205.41,-54.98C216.11,-47 232.34,-34.88 245.16,-25.31"/>
<polygon fill="#63b8ff" stroke="#63b8ff" points="247.47,-27.96 253.39,-19.17 243.28,-22.35 247.47,-27.96"/>
</a>
</g>
<g id="a_edge5&#45;headlabel"><a xlink:href="dir_000017_000015.html" target="_top" xlink:title="3">
<text text-anchor="middle" x="246.28" y="-29.88" font-family="Helvetica,sans-Serif" font-size="10.00" fill="#63b8ff">3</text>
</a>
</g>
</g>
<!-- dir_8a6c31bbbfb30065ee9a683ead3fe21a -->
<g id="node7" class="node">
<title>dir_8a6c31bbbfb30065ee9a683ead3fe21a</title>
<g id="a_node7"><a xlink:href="dir_8a6c31bbbfb30065ee9a683ead3fe21a.html" target="_top" xlink:title="security">
<polygon fill="#a2b4d6" stroke="#404040" points="152,-74 96,-74 96,-55 152,-55 152,-74"/>
<text text-anchor="middle" x="124" y="-62" font-family="Helvetica,sans-Serif" font-size="10.00">security</text>
</a>
</g>
</g>
<!-- dir_8a6c31bbbfb30065ee9a683ead3fe21a&#45;&gt;dir_d44c64559bbebec7f509842c48db8b23 -->
<g id="edge6" class="edge">
<title>dir_8a6c31bbbfb30065ee9a683ead3fe21a&#45;&gt;dir_d44c64559bbebec7f509842c48db8b23</title>
<g id="a_edge6"><a xlink:href="dir_000022_000015.html" target="_top">
<path fill="none" stroke="#63b8ff" d="M143.22,-54.85C149.2,-52.24 155.84,-49.42 162,-47 184.35,-38.2 209.79,-29.18 229.79,-22.3"/>
<polygon fill="#63b8ff" stroke="#63b8ff" points="231.09,-25.56 239.42,-19.01 228.83,-18.93 231.09,-25.56"/>
</a>
</g>
<g id="a_edge6&#45;headlabel"><a xlink:href="dir_000022_000015.html" target="_top" xlink:title="10">
<text text-anchor="middle" x="228.6" y="-26.91" font-family="Helvetica,sans-Serif" font-size="10.00" fill="#63b8ff">10</text>
</a>
</g>
</g>
<!-- dir_7039ceb4d09e67587c6c1d1a01ef7850 -->
<g id="node8" class="node">
<title>dir_7039ceb4d09e67587c6c1d1a01ef7850</title>
<g id="a_node8"><a xlink:href="dir_7039ceb4d09e67587c6c1d1a01ef7850.html" target="_top" xlink:title="signaling">
<polygon fill="#a2b4d6" stroke="#404040" points="77.5,-74 16.5,-74 16.5,-55 77.5,-55 77.5,-74"/>
<text text-anchor="middle" x="47" y="-62" font-family="Helvetica,sans-Serif" font-size="10.00">signaling</text>
</a>
</g>
</g>
<!-- dir_7039ceb4d09e67587c6c1d1a01ef7850&#45;&gt;dir_d44c64559bbebec7f509842c48db8b23 -->
<g id="edge7" class="edge">
<title>dir_7039ceb4d09e67587c6c1d1a01ef7850&#45;&gt;dir_d44c64559bbebec7f509842c48db8b23</title>
<g id="a_edge7"><a xlink:href="dir_000024_000015.html" target="_top">
<path fill="none" stroke="#63b8ff" d="M65.86,-54.86C72.45,-52.08 79.96,-49.15 87,-47 135.19,-32.27 192.54,-21.71 228.86,-15.85"/>
<polygon fill="#63b8ff" stroke="#63b8ff" points="229.64,-19.27 238.97,-14.26 228.55,-12.36 229.64,-19.27"/>
</a>
</g>
<g id="a_edge7&#45;headlabel"><a xlink:href="dir_000024_000015.html" target="_top" xlink:title="4">
<text text-anchor="middle" x="226.53" y="-20.14" font-family="Helvetica,sans-Serif" font-size="10.00" fill="#63b8ff">4</text>
</a>
</g>
</g>
</g>
</svg>
