<?xml version="1.0" encoding="UTF-8" standalone="no"?>
<!DOCTYPE svg PUBLIC "-//W3C//DTD SVG 1.1//EN"
 "http://www.w3.org/Graphics/SVG/1.1/DTD/svg11.dtd">
<!-- Generated by graphviz version 2.43.0 (0)
 -->
<!-- Title: include/mosaic/auto_configurer/connector/i_configurable_connector.h Pages: 1 -->
<svg width="879pt" height="280pt"
 viewBox="0.00 0.00 878.50 280.00" xmlns="http://www.w3.org/2000/svg" xmlns:xlink="http://www.w3.org/1999/xlink">
<g id="graph0" class="graph" transform="scale(1 1) rotate(0) translate(4 276)">
<title>include/mosaic/auto_configurer/connector/i_configurable_connector.h</title>
<!-- Node1 -->
<g id="Node000001" class="node">
<title>Node1</title>
<g id="a_Node000001"><a xlink:title=" ">
<polygon fill="#999999" stroke="#666666" points="512.5,-272 363.5,-272 363.5,-231 512.5,-231 512.5,-272"/>
<text text-anchor="start" x="371.5" y="-260" font-family="Helvetica,sans-Serif" font-size="10.00">include/mosaic/auto</text>
<text text-anchor="start" x="371.5" y="-249" font-family="Helvetica,sans-Serif" font-size="10.00">_configurer/connector</text>
<text text-anchor="middle" x="438" y="-238" font-family="Helvetica,sans-Serif" font-size="10.00">/i_configurable_connector.h</text>
</a>
</g>
</g>
<!-- Node2 -->
<g id="Node000002" class="node">
<title>Node2</title>
<g id="a_Node000002"><a xlink:href="auto__configurer_8h.html" target="_top" xlink:title=" ">
<polygon fill="white" stroke="#666666" points="158,-101.5 0,-101.5 0,-71.5 158,-71.5 158,-101.5"/>
<text text-anchor="start" x="8" y="-89.5" font-family="Helvetica,sans-Serif" font-size="10.00">include/mosaic/auto</text>
<text text-anchor="middle" x="79" y="-78.5" font-family="Helvetica,sans-Serif" font-size="10.00">_configurer/auto_configurer.h</text>
</a>
</g>
</g>
<!-- Node1&#45;&gt;Node2 -->
<g id="edge1_Node000001_Node000002" class="edge">
<title>Node1&#45;&gt;Node2</title>
<g id="a_edge1_Node000001_Node000002"><a xlink:title=" ">
<path fill="none" stroke="#63b8ff" d="M376.19,-227.21C351.67,-217.65 323.33,-206.21 298,-195 227.71,-163.87 147.01,-122.85 105.99,-101.61"/>
<polygon fill="#63b8ff" stroke="#63b8ff" points="375.15,-230.56 385.74,-230.91 377.68,-224.03 375.15,-230.56"/>
</a>
</g>
</g>
<!-- Node4 -->
<g id="Node000004" class="node">
<title>Node4</title>
<g id="a_Node000004"><a xlink:href="a__dc__handler__configurer_8h.html" target="_top" xlink:title=" ">
<polygon fill="white" stroke="#666666" points="322,-107 176,-107 176,-66 322,-66 322,-107"/>
<text text-anchor="start" x="184" y="-95" font-family="Helvetica,sans-Serif" font-size="10.00">include/mosaic/auto</text>
<text text-anchor="start" x="184" y="-84" font-family="Helvetica,sans-Serif" font-size="10.00">_configurer/connector</text>
<text text-anchor="middle" x="249" y="-73" font-family="Helvetica,sans-Serif" font-size="10.00">/a_dc_handler_configurer.h</text>
</a>
</g>
</g>
<!-- Node1&#45;&gt;Node4 -->
<g id="edge3_Node000001_Node000004" class="edge">
<title>Node1&#45;&gt;Node4</title>
<g id="a_edge3_Node000001_Node000004"><a xlink:title=" ">
<path fill="none" stroke="#63b8ff" d="M397.18,-225.11C383.67,-216.13 368.82,-205.61 356,-195 322.12,-166.96 286.91,-129.76 266.52,-107.28"/>
<polygon fill="#63b8ff" stroke="#63b8ff" points="395.54,-228.23 405.83,-230.78 399.38,-222.37 395.54,-228.23"/>
</a>
</g>
</g>
<!-- Node5 -->
<g id="Node000005" class="node">
<title>Node5</title>
<g id="a_Node000005"><a xlink:href="a__mt__handler__configurer_8h.html" target="_top" xlink:title=" ">
<polygon fill="white" stroke="#666666" points="489.5,-107 340.5,-107 340.5,-66 489.5,-66 489.5,-107"/>
<text text-anchor="start" x="348.5" y="-95" font-family="Helvetica,sans-Serif" font-size="10.00">include/mosaic/auto</text>
<text text-anchor="start" x="348.5" y="-84" font-family="Helvetica,sans-Serif" font-size="10.00">_configurer/connector</text>
<text text-anchor="middle" x="415" y="-73" font-family="Helvetica,sans-Serif" font-size="10.00">/a_mt_handler_configurer.h</text>
</a>
</g>
</g>
<!-- Node1&#45;&gt;Node5 -->
<g id="edge5_Node000001_Node000005" class="edge">
<title>Node1&#45;&gt;Node5</title>
<g id="a_edge5_Node000001_Node000005"><a xlink:title=" ">
<path fill="none" stroke="#63b8ff" d="M391.66,-224.78C381.35,-216.69 371.77,-206.73 366,-195 355.8,-174.26 357.82,-164.62 366,-143 371.18,-129.29 381.47,-116.79 391.28,-107.13"/>
<polygon fill="#63b8ff" stroke="#63b8ff" points="389.89,-227.82 400.03,-230.87 394.01,-222.16 389.89,-227.82"/>
</a>
</g>
</g>
<!-- Node6 -->
<g id="Node000006" class="node">
<title>Node6</title>
<g id="a_Node000006"><a xlink:href="a__parallel__dc__handler__configurer_8h.html" target="_top" xlink:title=" ">
<polygon fill="white" stroke="#666666" points="501,-195 375,-195 375,-143 501,-143 501,-195"/>
<text text-anchor="start" x="383" y="-183" font-family="Helvetica,sans-Serif" font-size="10.00">include/mosaic/auto</text>
<text text-anchor="start" x="383" y="-172" font-family="Helvetica,sans-Serif" font-size="10.00">_configurer/connector</text>
<text text-anchor="start" x="383" y="-161" font-family="Helvetica,sans-Serif" font-size="10.00">/a_parallel_dc_handler</text>
<text text-anchor="middle" x="438" y="-150" font-family="Helvetica,sans-Serif" font-size="10.00">_configurer.h</text>
</a>
</g>
</g>
<!-- Node1&#45;&gt;Node6 -->
<g id="edge7_Node000001_Node000006" class="edge">
<title>Node1&#45;&gt;Node6</title>
<g id="a_edge7_Node000001_Node000006"><a xlink:title=" ">
<path fill="none" stroke="#63b8ff" d="M438,-220.49C438,-212.15 438,-203.19 438,-195.16"/>
<polygon fill="#63b8ff" stroke="#63b8ff" points="434.5,-220.6 438,-230.6 441.5,-220.6 434.5,-220.6"/>
</a>
</g>
</g>
<!-- Node7 -->
<g id="Node000007" class="node">
<title>Node7</title>
<g id="a_Node000007"><a xlink:href="configurable__connector__factory_8h.html" target="_top" xlink:title=" ">
<polygon fill="white" stroke="#666666" points="652.5,-195 519.5,-195 519.5,-143 652.5,-143 652.5,-195"/>
<text text-anchor="start" x="527.5" y="-183" font-family="Helvetica,sans-Serif" font-size="10.00">include/mosaic/auto</text>
<text text-anchor="start" x="527.5" y="-172" font-family="Helvetica,sans-Serif" font-size="10.00">_configurer/connector</text>
<text text-anchor="start" x="527.5" y="-161" font-family="Helvetica,sans-Serif" font-size="10.00">/configurable_connector</text>
<text text-anchor="middle" x="586" y="-150" font-family="Helvetica,sans-Serif" font-size="10.00">_factory.h</text>
</a>
</g>
</g>
<!-- Node1&#45;&gt;Node7 -->
<g id="edge9_Node000001_Node000007" class="edge">
<title>Node1&#45;&gt;Node7</title>
<g id="a_edge9_Node000001_Node000007"><a xlink:title=" ">
<path fill="none" stroke="#63b8ff" d="M483.31,-225.86C501.22,-216.11 521.8,-204.92 539.8,-195.13"/>
<polygon fill="#63b8ff" stroke="#63b8ff" points="481.32,-222.95 474.2,-230.81 484.66,-229.1 481.32,-222.95"/>
</a>
</g>
</g>
<!-- Node8 -->
<g id="Node000008" class="node">
<title>Node8</title>
<g id="a_Node000008"><a xlink:href="connector__resolver_8h.html" target="_top" xlink:title=" ">
<polygon fill="white" stroke="#666666" points="667,-107 545,-107 545,-66 667,-66 667,-107"/>
<text text-anchor="start" x="553" y="-95" font-family="Helvetica,sans-Serif" font-size="10.00">include/mosaic/auto</text>
<text text-anchor="start" x="553" y="-84" font-family="Helvetica,sans-Serif" font-size="10.00">_configurer/connector</text>
<text text-anchor="middle" x="606" y="-73" font-family="Helvetica,sans-Serif" font-size="10.00">/connector_resolver.h</text>
</a>
</g>
</g>
<!-- Node1&#45;&gt;Node8 -->
<g id="edge13_Node000001_Node000008" class="edge">
<title>Node1&#45;&gt;Node8</title>
<g id="a_edge13_Node000001_Node000008"><a xlink:title=" ">
<path fill="none" stroke="#63b8ff" d="M522.61,-240.3C578.2,-231.66 643.73,-217.09 661,-195 675.23,-176.79 669.8,-164.37 661,-143 655.22,-128.95 643.97,-116.57 633.14,-107.09"/>
<polygon fill="#63b8ff" stroke="#63b8ff" points="522.08,-236.84 512.71,-241.79 523.12,-243.76 522.08,-236.84"/>
</a>
</g>
</g>
<!-- Node10 -->
<g id="Node000010" class="node">
<title>Node10</title>
<g id="a_Node000010"><a xlink:href="i__configurable__connector_8cpp.html" target="_top" xlink:title=" ">
<polygon fill="white" stroke="#666666" points="870.5,-184 709.5,-184 709.5,-154 870.5,-154 870.5,-184"/>
<text text-anchor="start" x="717.5" y="-172" font-family="Helvetica,sans-Serif" font-size="10.00">src/auto_configurer</text>
<text text-anchor="middle" x="790" y="-161" font-family="Helvetica,sans-Serif" font-size="10.00">/i_configurable_connector.cpp</text>
</a>
</g>
</g>
<!-- Node1&#45;&gt;Node10 -->
<g id="edge14_Node000001_Node000010" class="edge">
<title>Node1&#45;&gt;Node10</title>
<g id="a_edge14_Node000001_Node000010"><a xlink:title=" ">
<path fill="none" stroke="#63b8ff" d="M522.55,-233.23C572.78,-222.73 637.67,-208.73 695,-195 709.1,-191.62 724.31,-187.73 738.34,-184.04"/>
<polygon fill="#63b8ff" stroke="#63b8ff" points="521.78,-229.82 512.7,-235.29 523.21,-236.67 521.78,-229.82"/>
</a>
</g>
</g>
<!-- Node3 -->
<g id="Node000003" class="node">
<title>Node3</title>
<g id="a_Node000003"><a xlink:href="auto__configurer_8cpp.html" target="_top" xlink:title=" ">
<polygon fill="white" stroke="#666666" points="472.5,-30 357.5,-30 357.5,0 472.5,0 472.5,-30"/>
<text text-anchor="start" x="365.5" y="-18" font-family="Helvetica,sans-Serif" font-size="10.00">src/auto_configurer</text>
<text text-anchor="middle" x="415" y="-7" font-family="Helvetica,sans-Serif" font-size="10.00">/auto_configurer.cpp</text>
</a>
</g>
</g>
<!-- Node2&#45;&gt;Node3 -->
<g id="edge2_Node000002_Node000003" class="edge">
<title>Node2&#45;&gt;Node3</title>
<g id="a_edge2_Node000002_Node000003"><a xlink:title=" ">
<path fill="none" stroke="#63b8ff" d="M151.82,-69.25C156.96,-68.14 162.06,-67.05 167,-66 232.1,-52.23 307,-37.24 357.31,-27.31"/>
<polygon fill="#63b8ff" stroke="#63b8ff" points="150.97,-65.85 141.94,-71.4 152.46,-72.69 150.97,-65.85"/>
</a>
</g>
</g>
<!-- Node4&#45;&gt;Node3 -->
<g id="edge4_Node000004_Node000003" class="edge">
<title>Node4&#45;&gt;Node3</title>
<g id="a_edge4_Node000004_Node000003"><a xlink:title=" ">
<path fill="none" stroke="#63b8ff" d="M305.2,-61.97C330.57,-51.35 359.68,-39.16 381.55,-30"/>
<polygon fill="#63b8ff" stroke="#63b8ff" points="303.55,-58.86 295.68,-65.96 306.26,-65.32 303.55,-58.86"/>
</a>
</g>
</g>
<!-- Node5&#45;&gt;Node3 -->
<g id="edge6_Node000005_Node000003" class="edge">
<title>Node5&#45;&gt;Node3</title>
<g id="a_edge6_Node000005_Node000003"><a xlink:title=" ">
<path fill="none" stroke="#63b8ff" d="M415,-55.66C415,-46.76 415,-37.42 415,-30.04"/>
<polygon fill="#63b8ff" stroke="#63b8ff" points="411.5,-55.77 415,-65.77 418.5,-55.77 411.5,-55.77"/>
</a>
</g>
</g>
<!-- Node6&#45;&gt;Node3 -->
<g id="edge8_Node000006_Node000003" class="edge">
<title>Node6&#45;&gt;Node3</title>
<g id="a_edge8_Node000006_Node000003"><a xlink:title=" ">
<path fill="none" stroke="#63b8ff" d="M478.52,-135.87C486.45,-127.41 493.65,-117.63 498,-107 504.9,-90.14 506.96,-81.86 498,-66 488.73,-49.6 471.69,-37.98 455.44,-30.09"/>
<polygon fill="#63b8ff" stroke="#63b8ff" points="476.02,-133.42 471.42,-142.97 480.97,-138.38 476.02,-133.42"/>
</a>
</g>
</g>
<!-- Node7&#45;&gt;Node8 -->
<g id="edge10_Node000007_Node000008" class="edge">
<title>Node7&#45;&gt;Node8</title>
<g id="a_edge10_Node000007_Node000008"><a xlink:title=" ">
<path fill="none" stroke="#63b8ff" d="M594.66,-133.16C596.87,-124.25 599.17,-114.99 601.12,-107.15"/>
<polygon fill="#63b8ff" stroke="#63b8ff" points="591.23,-132.42 592.22,-142.97 598.03,-134.11 591.23,-132.42"/>
</a>
</g>
</g>
<!-- Node8&#45;&gt;Node3 -->
<g id="edge11_Node000008_Node000003" class="edge">
<title>Node8&#45;&gt;Node3</title>
<g id="a_edge11_Node000008_Node000003"><a xlink:title=" ">
<path fill="none" stroke="#63b8ff" d="M542.88,-62.53C513.33,-51.78 479.09,-39.32 453.49,-30"/>
<polygon fill="#63b8ff" stroke="#63b8ff" points="541.69,-65.82 552.29,-65.96 544.09,-59.25 541.69,-65.82"/>
</a>
</g>
</g>
<!-- Node9 -->
<g id="Node000009" class="node">
<title>Node9</title>
<g id="a_Node000009"><a xlink:href="connector__resolver_8cpp.html" target="_top" xlink:title=" ">
<polygon fill="white" stroke="#666666" points="672,-30 540,-30 540,0 672,0 672,-30"/>
<text text-anchor="start" x="548" y="-18" font-family="Helvetica,sans-Serif" font-size="10.00">src/auto_configurer</text>
<text text-anchor="middle" x="606" y="-7" font-family="Helvetica,sans-Serif" font-size="10.00">/connector_resolver.cpp</text>
</a>
</g>
</g>
<!-- Node8&#45;&gt;Node9 -->
<g id="edge12_Node000008_Node000009" class="edge">
<title>Node8&#45;&gt;Node9</title>
<g id="a_edge12_Node000008_Node000009"><a xlink:title=" ">
<path fill="none" stroke="#63b8ff" d="M606,-55.66C606,-46.76 606,-37.42 606,-30.04"/>
<polygon fill="#63b8ff" stroke="#63b8ff" points="602.5,-55.77 606,-65.77 609.5,-55.77 602.5,-55.77"/>
</a>
</g>
</g>
</g>
</svg>
