<?xml version="1.0" encoding="UTF-8" standalone="no"?>
<!DOCTYPE svg PUBLIC "-//W3C//DTD SVG 1.1//EN"
 "http://www.w3.org/Graphics/SVG/1.1/DTD/svg11.dtd">
<!-- Generated by graphviz version 2.43.0 (0)
 -->
<!-- Title: include/mosaic/auto_configurer/config_reader/i_config_reader.h Pages: 1 -->
<svg width="268pt" height="159pt"
 viewBox="0.00 0.00 267.50 159.00" xmlns="http://www.w3.org/2000/svg" xmlns:xlink="http://www.w3.org/1999/xlink">
<g id="graph0" class="graph" transform="scale(1 1) rotate(0) translate(4 155)">
<title>include/mosaic/auto_configurer/config_reader/i_config_reader.h</title>
<!-- Node1 -->
<g id="Node000001" class="node">
<title>Node1</title>
<g id="a_Node000001"><a xlink:title=" ">
<polygon fill="#999999" stroke="#666666" points="161,-151 21,-151 21,-110 161,-110 161,-151"/>
<text text-anchor="start" x="29" y="-139" font-family="Helvetica,sans-Serif" font-size="10.00">include/mosaic/auto</text>
<text text-anchor="start" x="29" y="-128" font-family="Helvetica,sans-Serif" font-size="10.00">_configurer/config_reader</text>
<text text-anchor="middle" x="91" y="-117" font-family="Helvetica,sans-Serif" font-size="10.00">/i_config_reader.h</text>
</a>
</g>
</g>
<!-- Node2 -->
<g id="Node000002" class="node">
<title>Node2</title>
<g id="a_Node000002"><a xlink:title=" ">
<polygon fill="#e0e0e0" stroke="#999999" points="68,-74 0,-74 0,-55 68,-55 68,-74"/>
<text text-anchor="middle" x="34" y="-62" font-family="Helvetica,sans-Serif" font-size="10.00">filesystem</text>
</a>
</g>
</g>
<!-- Node1&#45;&gt;Node2 -->
<g id="edge1_Node000001_Node000002" class="edge">
<title>Node1&#45;&gt;Node2</title>
<g id="a_edge1_Node000001_Node000002"><a xlink:title=" ">
<path fill="none" stroke="#63b8ff" d="M73.59,-109.95C65.55,-100.92 56.12,-90.33 48.48,-81.75"/>
<polygon fill="#63b8ff" stroke="#63b8ff" points="51.07,-79.4 41.8,-74.26 45.84,-84.06 51.07,-79.4"/>
</a>
</g>
</g>
<!-- Node3 -->
<g id="Node000003" class="node">
<title>Node3</title>
<g id="a_Node000003"><a xlink:href="configs__decl_8h.html" target="_top" xlink:title=" ">
<polygon fill="white" stroke="#666666" points="210,-74 86,-74 86,-55 210,-55 210,-74"/>
<text text-anchor="middle" x="148" y="-62" font-family="Helvetica,sans-Serif" font-size="10.00">mosaic/configs_decl.h</text>
</a>
</g>
</g>
<!-- Node1&#45;&gt;Node3 -->
<g id="edge2_Node000001_Node000003" class="edge">
<title>Node1&#45;&gt;Node3</title>
<g id="a_edge2_Node000001_Node000003"><a xlink:title=" ">
<path fill="none" stroke="#63b8ff" d="M108.41,-109.95C116.45,-100.92 125.88,-90.33 133.52,-81.75"/>
<polygon fill="#63b8ff" stroke="#63b8ff" points="136.16,-84.06 140.2,-74.26 130.93,-79.4 136.16,-84.06"/>
</a>
</g>
</g>
<!-- Node4 -->
<g id="Node000004" class="node">
<title>Node4</title>
<g id="a_Node000004"><a xlink:title=" ">
<polygon fill="#e0e0e0" stroke="#999999" points="83,-19 39,-19 39,0 83,0 83,-19"/>
<text text-anchor="middle" x="61" y="-7" font-family="Helvetica,sans-Serif" font-size="10.00">string</text>
</a>
</g>
</g>
<!-- Node3&#45;&gt;Node4 -->
<g id="edge3_Node000003_Node000004" class="edge">
<title>Node3&#45;&gt;Node4</title>
<g id="a_edge3_Node000003_Node000004"><a xlink:title=" ">
<path fill="none" stroke="#63b8ff" d="M134.02,-54.98C120.53,-46.77 99.87,-34.18 83.96,-24.49"/>
<polygon fill="#63b8ff" stroke="#63b8ff" points="85.59,-21.38 75.23,-19.17 81.95,-27.36 85.59,-21.38"/>
</a>
</g>
</g>
<!-- Node5 -->
<g id="Node000005" class="node">
<title>Node5</title>
<g id="a_Node000005"><a xlink:title=" ">
<polygon fill="#e0e0e0" stroke="#999999" points="194.5,-19 101.5,-19 101.5,0 194.5,0 194.5,-19"/>
<text text-anchor="middle" x="148" y="-7" font-family="Helvetica,sans-Serif" font-size="10.00">unordered_map</text>
</a>
</g>
</g>
<!-- Node3&#45;&gt;Node5 -->
<g id="edge4_Node000003_Node000005" class="edge">
<title>Node3&#45;&gt;Node5</title>
<g id="a_edge4_Node000003_Node000005"><a xlink:title=" ">
<path fill="none" stroke="#63b8ff" d="M148,-54.75C148,-47.8 148,-37.85 148,-29.13"/>
<polygon fill="#63b8ff" stroke="#63b8ff" points="151.5,-29.09 148,-19.09 144.5,-29.09 151.5,-29.09"/>
</a>
</g>
</g>
<!-- Node6 -->
<g id="Node000006" class="node">
<title>Node6</title>
<g id="a_Node000006"><a xlink:title=" ">
<polygon fill="#e0e0e0" stroke="#999999" points="259.5,-19 212.5,-19 212.5,0 259.5,0 259.5,-19"/>
<text text-anchor="middle" x="236" y="-7" font-family="Helvetica,sans-Serif" font-size="10.00">vector</text>
</a>
</g>
</g>
<!-- Node3&#45;&gt;Node6 -->
<g id="edge5_Node000003_Node000006" class="edge">
<title>Node3&#45;&gt;Node6</title>
<g id="a_edge5_Node000003_Node000006"><a xlink:title=" ">
<path fill="none" stroke="#63b8ff" d="M162.14,-54.98C175.79,-46.77 196.69,-34.18 212.78,-24.49"/>
<polygon fill="#63b8ff" stroke="#63b8ff" points="214.84,-27.33 221.6,-19.17 211.23,-21.33 214.84,-27.33"/>
</a>
</g>
</g>
</g>
</svg>
