<?xml version="1.0" encoding="UTF-8" standalone="no"?>
<!DOCTYPE svg PUBLIC "-//W3C//DTD SVG 1.1//EN"
 "http://www.w3.org/Graphics/SVG/1.1/DTD/svg11.dtd">
<!-- Generated by graphviz version 2.43.0 (0)
 -->
<!-- Title: include/mosaic/auto_configurer/connector/i_configurable_connector.h Pages: 1 -->
<svg width="897pt" height="291pt"
 viewBox="0.00 0.00 896.50 291.00" xmlns="http://www.w3.org/2000/svg" xmlns:xlink="http://www.w3.org/1999/xlink">
<g id="graph0" class="graph" transform="scale(1 1) rotate(0) translate(4 287)">
<title>include/mosaic/auto_configurer/connector/i_configurable_connector.h</title>
<!-- Node1 -->
<g id="Node000001" class="node">
<title>Node1</title>
<g id="a_Node000001"><a xlink:title=" ">
<polygon fill="#999999" stroke="#666666" points="512.5,-283 363.5,-283 363.5,-242 512.5,-242 512.5,-283"/>
<text text-anchor="start" x="371.5" y="-271" font-family="Helvetica,sans-Serif" font-size="10.00">include/mosaic/auto</text>
<text text-anchor="start" x="371.5" y="-260" font-family="Helvetica,sans-Serif" font-size="10.00">_configurer/connector</text>
<text text-anchor="middle" x="438" y="-249" font-family="Helvetica,sans-Serif" font-size="10.00">/i_configurable_connector.h</text>
</a>
</g>
</g>
<!-- Node2 -->
<g id="Node000002" class="node">
<title>Node2</title>
<g id="a_Node000002"><a xlink:href="auto__configurer_8h.html" target="_top" xlink:title=" ">
<polygon fill="white" stroke="#666666" points="158,-112.5 0,-112.5 0,-82.5 158,-82.5 158,-112.5"/>
<text text-anchor="start" x="8" y="-100.5" font-family="Helvetica,sans-Serif" font-size="10.00">include/mosaic/auto</text>
<text text-anchor="middle" x="79" y="-89.5" font-family="Helvetica,sans-Serif" font-size="10.00">_configurer/auto_configurer.h</text>
</a>
</g>
</g>
<!-- Node1&#45;&gt;Node2 -->
<g id="edge1_Node000001_Node000002" class="edge">
<title>Node1&#45;&gt;Node2</title>
<g id="a_edge1_Node000001_Node000002"><a xlink:title=" ">
<path fill="none" stroke="#63b8ff" d="M353.38,-251.2C307.62,-243.24 251.19,-229.47 205,-206 157.32,-181.77 112.41,-136 91.42,-112.78"/>
<polygon fill="#63b8ff" stroke="#63b8ff" points="352.83,-254.65 363.27,-252.85 353.98,-247.75 352.83,-254.65"/>
</a>
</g>
</g>
<!-- Node4 -->
<g id="Node000004" class="node">
<title>Node4</title>
<g id="a_Node000004"><a xlink:href="a__dc__handler__configurer_8h.html" target="_top" xlink:title=" ">
<polygon fill="white" stroke="#666666" points="322,-118 176,-118 176,-77 322,-77 322,-118"/>
<text text-anchor="start" x="184" y="-106" font-family="Helvetica,sans-Serif" font-size="10.00">include/mosaic/auto</text>
<text text-anchor="start" x="184" y="-95" font-family="Helvetica,sans-Serif" font-size="10.00">_configurer/connector</text>
<text text-anchor="middle" x="249" y="-84" font-family="Helvetica,sans-Serif" font-size="10.00">/a_dc_handler_configurer.h</text>
</a>
</g>
</g>
<!-- Node1&#45;&gt;Node4 -->
<g id="edge3_Node000001_Node000004" class="edge">
<title>Node1&#45;&gt;Node4</title>
<g id="a_edge3_Node000001_Node000004"><a xlink:title=" ">
<path fill="none" stroke="#63b8ff" d="M353.35,-250.96C298.75,-242.22 234.89,-227.68 218,-206 197.83,-180.1 217.8,-141.55 233.7,-118.34"/>
<polygon fill="#63b8ff" stroke="#63b8ff" points="353,-254.45 363.42,-252.52 354.08,-247.53 353,-254.45"/>
</a>
</g>
</g>
<!-- Node5 -->
<g id="Node000005" class="node">
<title>Node5</title>
<g id="a_Node000005"><a xlink:href="a__mt__handler__configurer_8h.html" target="_top" xlink:title=" ">
<polygon fill="white" stroke="#666666" points="709.5,-200.5 560.5,-200.5 560.5,-159.5 709.5,-159.5 709.5,-200.5"/>
<text text-anchor="start" x="568.5" y="-188.5" font-family="Helvetica,sans-Serif" font-size="10.00">include/mosaic/auto</text>
<text text-anchor="start" x="568.5" y="-177.5" font-family="Helvetica,sans-Serif" font-size="10.00">_configurer/connector</text>
<text text-anchor="middle" x="635" y="-166.5" font-family="Helvetica,sans-Serif" font-size="10.00">/a_mt_handler_configurer.h</text>
</a>
</g>
</g>
<!-- Node1&#45;&gt;Node5 -->
<g id="edge5_Node000001_Node000005" class="edge">
<title>Node1&#45;&gt;Node5</title>
<g id="a_edge5_Node000001_Node000005"><a xlink:title=" ">
<path fill="none" stroke="#63b8ff" d="M495.57,-237.98C524.68,-226.08 559.58,-211.82 587.19,-200.54"/>
<polygon fill="#63b8ff" stroke="#63b8ff" points="493.87,-234.89 485.94,-241.91 496.52,-241.37 493.87,-234.89"/>
</a>
</g>
</g>
<!-- Node9 -->
<g id="Node000009" class="node">
<title>Node9</title>
<g id="a_Node000009"><a xlink:href="a__parallel__dc__handler__configurer_8h.html" target="_top" xlink:title=" ">
<polygon fill="white" stroke="#666666" points="353,-206 227,-206 227,-154 353,-154 353,-206"/>
<text text-anchor="start" x="235" y="-194" font-family="Helvetica,sans-Serif" font-size="10.00">include/mosaic/auto</text>
<text text-anchor="start" x="235" y="-183" font-family="Helvetica,sans-Serif" font-size="10.00">_configurer/connector</text>
<text text-anchor="start" x="235" y="-172" font-family="Helvetica,sans-Serif" font-size="10.00">/a_parallel_dc_handler</text>
<text text-anchor="middle" x="290" y="-161" font-family="Helvetica,sans-Serif" font-size="10.00">_configurer.h</text>
</a>
</g>
</g>
<!-- Node1&#45;&gt;Node9 -->
<g id="edge10_Node000001_Node000009" class="edge">
<title>Node1&#45;&gt;Node9</title>
<g id="a_edge10_Node000001_Node000009"><a xlink:title=" ">
<path fill="none" stroke="#63b8ff" d="M392.69,-236.86C374.78,-227.11 354.2,-215.92 336.2,-206.13"/>
<polygon fill="#63b8ff" stroke="#63b8ff" points="391.34,-240.1 401.8,-241.81 394.68,-233.95 391.34,-240.1"/>
</a>
</g>
</g>
<!-- Node10 -->
<g id="Node000010" class="node">
<title>Node10</title>
<g id="a_Node000010"><a xlink:href="configurable__connector__factory_8h.html" target="_top" xlink:title=" ">
<polygon fill="white" stroke="#666666" points="504.5,-206 371.5,-206 371.5,-154 504.5,-154 504.5,-206"/>
<text text-anchor="start" x="379.5" y="-194" font-family="Helvetica,sans-Serif" font-size="10.00">include/mosaic/auto</text>
<text text-anchor="start" x="379.5" y="-183" font-family="Helvetica,sans-Serif" font-size="10.00">_configurer/connector</text>
<text text-anchor="start" x="379.5" y="-172" font-family="Helvetica,sans-Serif" font-size="10.00">/configurable_connector</text>
<text text-anchor="middle" x="438" y="-161" font-family="Helvetica,sans-Serif" font-size="10.00">_factory.h</text>
</a>
</g>
</g>
<!-- Node1&#45;&gt;Node10 -->
<g id="edge12_Node000001_Node000010" class="edge">
<title>Node1&#45;&gt;Node10</title>
<g id="a_edge12_Node000001_Node000010"><a xlink:title=" ">
<path fill="none" stroke="#63b8ff" d="M438,-231.49C438,-223.15 438,-214.19 438,-206.16"/>
<polygon fill="#63b8ff" stroke="#63b8ff" points="434.5,-231.6 438,-241.6 441.5,-231.6 434.5,-231.6"/>
</a>
</g>
</g>
<!-- Node11 -->
<g id="Node000011" class="node">
<title>Node11</title>
<g id="a_Node000011"><a xlink:href="connector__resolver_8h.html" target="_top" xlink:title=" ">
<polygon fill="white" stroke="#666666" points="507,-118 385,-118 385,-77 507,-77 507,-118"/>
<text text-anchor="start" x="393" y="-106" font-family="Helvetica,sans-Serif" font-size="10.00">include/mosaic/auto</text>
<text text-anchor="start" x="393" y="-95" font-family="Helvetica,sans-Serif" font-size="10.00">_configurer/connector</text>
<text text-anchor="middle" x="446" y="-84" font-family="Helvetica,sans-Serif" font-size="10.00">/connector_resolver.h</text>
</a>
</g>
</g>
<!-- Node1&#45;&gt;Node11 -->
<g id="edge16_Node000001_Node000011" class="edge">
<title>Node1&#45;&gt;Node11</title>
<g id="a_edge16_Node000001_Node000011"><a xlink:title=" ">
<path fill="none" stroke="#63b8ff" d="M487.16,-236.01C497.94,-227.95 507.93,-217.96 514,-206 524.47,-185.4 523.91,-174.88 514,-154 507.01,-139.27 493.98,-127.16 481.19,-118.05"/>
<polygon fill="#63b8ff" stroke="#63b8ff" points="485.04,-233.22 478.82,-241.8 489.03,-238.97 485.04,-233.22"/>
</a>
</g>
</g>
<!-- Node12 -->
<g id="Node000012" class="node">
<title>Node12</title>
<g id="a_Node000012"><a xlink:href="i__configurable__connector_8cpp.html" target="_top" xlink:title=" ">
<polygon fill="white" stroke="#666666" points="888.5,-195 727.5,-195 727.5,-165 888.5,-165 888.5,-195"/>
<text text-anchor="start" x="735.5" y="-183" font-family="Helvetica,sans-Serif" font-size="10.00">src/auto_configurer</text>
<text text-anchor="middle" x="808" y="-172" font-family="Helvetica,sans-Serif" font-size="10.00">/i_configurable_connector.cpp</text>
</a>
</g>
</g>
<!-- Node1&#45;&gt;Node12 -->
<g id="edge17_Node000001_Node000012" class="edge">
<title>Node1&#45;&gt;Node12</title>
<g id="a_edge17_Node000001_Node000012"><a xlink:title=" ">
<path fill="none" stroke="#63b8ff" d="M522.47,-246.61C578.46,-236.31 653.41,-221.66 719,-206 732.58,-202.76 747.21,-198.83 760.61,-195.06"/>
<polygon fill="#63b8ff" stroke="#63b8ff" points="521.8,-243.18 512.6,-248.42 523.06,-250.06 521.8,-243.18"/>
</a>
</g>
</g>
<!-- Node3 -->
<g id="Node000003" class="node">
<title>Node3</title>
<g id="a_Node000003"><a xlink:href="auto__configurer_8cpp.html" target="_top" xlink:title=" ">
<polygon fill="white" stroke="#666666" points="406.5,-35.5 291.5,-35.5 291.5,-5.5 406.5,-5.5 406.5,-35.5"/>
<text text-anchor="start" x="299.5" y="-23.5" font-family="Helvetica,sans-Serif" font-size="10.00">src/auto_configurer</text>
<text text-anchor="middle" x="349" y="-12.5" font-family="Helvetica,sans-Serif" font-size="10.00">/auto_configurer.cpp</text>
</a>
</g>
</g>
<!-- Node2&#45;&gt;Node3 -->
<g id="edge2_Node000002_Node000003" class="edge">
<title>Node2&#45;&gt;Node3</title>
<g id="a_edge2_Node000002_Node000003"><a xlink:title=" ">
<path fill="none" stroke="#63b8ff" d="M139.38,-79.73C187.2,-66.44 253.23,-48.1 298.32,-35.58"/>
<polygon fill="#63b8ff" stroke="#63b8ff" points="138.17,-76.43 129.47,-82.48 140.04,-83.18 138.17,-76.43"/>
</a>
</g>
</g>
<!-- Node4&#45;&gt;Node3 -->
<g id="edge4_Node000004_Node000003" class="edge">
<title>Node4&#45;&gt;Node3</title>
<g id="a_edge4_Node000004_Node000003"><a xlink:title=" ">
<path fill="none" stroke="#63b8ff" d="M283.42,-70.69C299.04,-58.97 316.93,-45.56 330.07,-35.7"/>
<polygon fill="#63b8ff" stroke="#63b8ff" points="280.91,-68.19 275.01,-76.99 285.11,-73.79 280.91,-68.19"/>
</a>
</g>
</g>
<!-- Node5&#45;&gt;Node3 -->
<g id="edge9_Node000005_Node000003" class="edge">
<title>Node5&#45;&gt;Node3</title>
<g id="a_edge9_Node000005_Node000003"><a xlink:title=" ">
<path fill="none" stroke="#63b8ff" d="M601.51,-153.13C588.08,-142.5 572.6,-129.9 559,-118 539.13,-100.61 538.63,-90.6 516,-77 505.33,-70.59 440.54,-49.84 394.88,-35.61"/>
<polygon fill="#63b8ff" stroke="#63b8ff" points="599.55,-156.04 609.57,-159.47 603.88,-150.54 599.55,-156.04"/>
</a>
</g>
</g>
<!-- Node6 -->
<g id="Node000006" class="node">
<title>Node6</title>
<g id="a_Node000006"><a xlink:href="opencv__camera__mt__handler_8h.html" target="_top" xlink:title=" ">
<polygon fill="white" stroke="#666666" points="702,-118 568,-118 568,-77 702,-77 702,-118"/>
<text text-anchor="start" x="576" y="-106" font-family="Helvetica,sans-Serif" font-size="10.00">include/mosaic/auto</text>
<text text-anchor="start" x="576" y="-95" font-family="Helvetica,sans-Serif" font-size="10.00">_configurer/impl/opencv</text>
<text text-anchor="middle" x="635" y="-84" font-family="Helvetica,sans-Serif" font-size="10.00">_camera_mt_handler.h</text>
</a>
</g>
</g>
<!-- Node5&#45;&gt;Node6 -->
<g id="edge6_Node000005_Node000006" class="edge">
<title>Node5&#45;&gt;Node6</title>
<g id="a_edge6_Node000005_Node000006"><a xlink:title=" ">
<path fill="none" stroke="#63b8ff" d="M635,-148.87C635,-138.6 635,-127.4 635,-118.17"/>
<polygon fill="#63b8ff" stroke="#63b8ff" points="631.5,-149.1 635,-159.1 638.5,-149.1 631.5,-149.1"/>
</a>
</g>
</g>
<!-- Node7 -->
<g id="Node000007" class="node">
<title>Node7</title>
<g id="a_Node000007"><a xlink:href="connector__resolver_8cpp.html" target="_top" xlink:title=" ">
<polygon fill="white" stroke="#666666" points="557,-35.5 425,-35.5 425,-5.5 557,-5.5 557,-35.5"/>
<text text-anchor="start" x="433" y="-23.5" font-family="Helvetica,sans-Serif" font-size="10.00">src/auto_configurer</text>
<text text-anchor="middle" x="491" y="-12.5" font-family="Helvetica,sans-Serif" font-size="10.00">/connector_resolver.cpp</text>
</a>
</g>
</g>
<!-- Node6&#45;&gt;Node7 -->
<g id="edge7_Node000006_Node000007" class="edge">
<title>Node6&#45;&gt;Node7</title>
<g id="a_edge7_Node000006_Node000007"><a xlink:title=" ">
<path fill="none" stroke="#63b8ff" d="M588.54,-72.3C565.34,-60.22 538.06,-46.01 518.26,-35.7"/>
<polygon fill="#63b8ff" stroke="#63b8ff" points="587.06,-75.48 597.54,-76.99 590.29,-69.27 587.06,-75.48"/>
</a>
</g>
</g>
<!-- Node8 -->
<g id="Node000008" class="node">
<title>Node8</title>
<g id="a_Node000008"><a xlink:href="opencv__camera__mt__handler_8cpp.html" target="_top" xlink:title=" ">
<polygon fill="white" stroke="#666666" points="697,-41 575,-41 575,0 697,0 697,-41"/>
<text text-anchor="start" x="583" y="-29" font-family="Helvetica,sans-Serif" font-size="10.00">src/auto_configurer</text>
<text text-anchor="start" x="583" y="-18" font-family="Helvetica,sans-Serif" font-size="10.00">/impl/opencv_camera</text>
<text text-anchor="middle" x="636" y="-7" font-family="Helvetica,sans-Serif" font-size="10.00">_mt_handler.cpp</text>
</a>
</g>
</g>
<!-- Node6&#45;&gt;Node8 -->
<g id="edge8_Node000006_Node000008" class="edge">
<title>Node6&#45;&gt;Node8</title>
<g id="a_edge8_Node000006_Node000008"><a xlink:title=" ">
<path fill="none" stroke="#63b8ff" d="M635.4,-66.69C635.51,-58.08 635.63,-48.9 635.74,-41.07"/>
<polygon fill="#63b8ff" stroke="#63b8ff" points="631.9,-66.75 635.26,-76.79 638.9,-66.84 631.9,-66.75"/>
</a>
</g>
</g>
<!-- Node9&#45;&gt;Node3 -->
<g id="edge11_Node000009_Node000003" class="edge">
<title>Node9&#45;&gt;Node3</title>
<g id="a_edge11_Node000009_Node000003"><a xlink:title=" ">
<path fill="none" stroke="#63b8ff" d="M315.96,-145.63C321.65,-137.01 327.12,-127.48 331,-118 342.35,-90.24 346.6,-55.04 348.15,-35.75"/>
<polygon fill="#63b8ff" stroke="#63b8ff" points="313.05,-143.69 310.25,-153.91 318.81,-147.66 313.05,-143.69"/>
</a>
</g>
</g>
<!-- Node10&#45;&gt;Node11 -->
<g id="edge13_Node000010_Node000011" class="edge">
<title>Node10&#45;&gt;Node11</title>
<g id="a_edge13_Node000010_Node000011"><a xlink:title=" ">
<path fill="none" stroke="#63b8ff" d="M441.49,-143.87C442.37,-135.05 443.28,-125.9 444.05,-118.15"/>
<polygon fill="#63b8ff" stroke="#63b8ff" points="437.99,-143.67 440.49,-153.97 444.96,-144.37 437.99,-143.67"/>
</a>
</g>
</g>
<!-- Node11&#45;&gt;Node3 -->
<g id="edge14_Node000011_Node000003" class="edge">
<title>Node11&#45;&gt;Node3</title>
<g id="a_edge14_Node000011_Node000003"><a xlink:title=" ">
<path fill="none" stroke="#63b8ff" d="M412.62,-70.69C397.46,-58.97 380.11,-45.56 367.37,-35.7"/>
<polygon fill="#63b8ff" stroke="#63b8ff" points="410.72,-73.64 420.77,-76.99 415,-68.1 410.72,-73.64"/>
</a>
</g>
</g>
<!-- Node11&#45;&gt;Node7 -->
<g id="edge15_Node000011_Node000007" class="edge">
<title>Node11&#45;&gt;Node7</title>
<g id="a_edge15_Node000011_Node000007"><a xlink:title=" ">
<path fill="none" stroke="#63b8ff" d="M463.14,-67.93C469.72,-56.97 476.94,-44.93 482.38,-35.86"/>
<polygon fill="#63b8ff" stroke="#63b8ff" points="459.97,-66.42 457.82,-76.79 465.97,-70.02 459.97,-66.42"/>
</a>
</g>
</g>
</g>
</svg>
