<?xml version="1.0" encoding="UTF-8" standalone="no"?>
<!DOCTYPE svg PUBLIC "-//W3C//DTD SVG 1.1//EN"
 "http://www.w3.org/Graphics/SVG/1.1/DTD/svg11.dtd">
<!-- Generated by graphviz version 2.43.0 (0)
 -->
<!-- Title: include/mosaic/auto_configurer/config_reader/i_config_reader.h Pages: 1 -->
<svg width="508pt" height="269pt"
 viewBox="0.00 0.00 508.00 269.00" xmlns="http://www.w3.org/2000/svg" xmlns:xlink="http://www.w3.org/1999/xlink">
<g id="graph0" class="graph" transform="scale(1 1) rotate(0) translate(4 265)">
<title>include/mosaic/auto_configurer/config_reader/i_config_reader.h</title>
<!-- Node1 -->
<g id="Node000001" class="node">
<title>Node1</title>
<g id="a_Node000001"><a xlink:title=" ">
<polygon fill="#999999" stroke="#666666" points="296,-261 156,-261 156,-220 296,-220 296,-261"/>
<text text-anchor="start" x="164" y="-249" font-family="Helvetica,sans-Serif" font-size="10.00">include/mosaic/auto</text>
<text text-anchor="start" x="164" y="-238" font-family="Helvetica,sans-Serif" font-size="10.00">_configurer/config_reader</text>
<text text-anchor="middle" x="226" y="-227" font-family="Helvetica,sans-Serif" font-size="10.00">/i_config_reader.h</text>
</a>
</g>
</g>
<!-- Node2 -->
<g id="Node000002" class="node">
<title>Node2</title>
<g id="a_Node000002"><a xlink:href="auto__configurer_8h.html" target="_top" xlink:title=" ">
<polygon fill="white" stroke="#666666" points="158,-101.5 0,-101.5 0,-71.5 158,-71.5 158,-101.5"/>
<text text-anchor="start" x="8" y="-89.5" font-family="Helvetica,sans-Serif" font-size="10.00">include/mosaic/auto</text>
<text text-anchor="middle" x="79" y="-78.5" font-family="Helvetica,sans-Serif" font-size="10.00">_configurer/auto_configurer.h</text>
</a>
</g>
</g>
<!-- Node1&#45;&gt;Node2 -->
<g id="edge1_Node000001_Node000002" class="edge">
<title>Node1&#45;&gt;Node2</title>
<g id="a_edge1_Node000001_Node000002"><a xlink:title=" ">
<path fill="none" stroke="#63b8ff" d="M146.62,-219.04C128.31,-210.87 110.54,-199.57 98,-184 78.72,-160.06 77.16,-122.08 77.93,-101.64"/>
<polygon fill="#63b8ff" stroke="#63b8ff" points="145.35,-222.3 155.93,-222.91 148.04,-215.84 145.35,-222.3"/>
</a>
</g>
</g>
<!-- Node4 -->
<g id="Node000004" class="node">
<title>Node4</title>
<g id="a_Node000004"><a xlink:href="config__reader__factory_8h.html" target="_top" xlink:title=" ">
<polygon fill="white" stroke="#666666" points="247,-184 107,-184 107,-143 247,-143 247,-184"/>
<text text-anchor="start" x="115" y="-172" font-family="Helvetica,sans-Serif" font-size="10.00">include/mosaic/auto</text>
<text text-anchor="start" x="115" y="-161" font-family="Helvetica,sans-Serif" font-size="10.00">_configurer/config_reader</text>
<text text-anchor="middle" x="177" y="-150" font-family="Helvetica,sans-Serif" font-size="10.00">/config_reader_factory.h</text>
</a>
</g>
</g>
<!-- Node1&#45;&gt;Node4 -->
<g id="edge3_Node000001_Node000004" class="edge">
<title>Node1&#45;&gt;Node4</title>
<g id="a_edge3_Node000001_Node000004"><a xlink:title=" ">
<path fill="none" stroke="#63b8ff" d="M207.64,-211.39C201.69,-202.3 195.24,-192.41 189.79,-184.07"/>
<polygon fill="#63b8ff" stroke="#63b8ff" points="204.73,-213.34 213.13,-219.79 210.59,-209.51 204.73,-213.34"/>
</a>
</g>
</g>
<!-- Node5 -->
<g id="Node000005" class="node">
<title>Node5</title>
<g id="a_Node000005"><a xlink:href="config__reader__resolver_8h.html" target="_top" xlink:title=" ">
<polygon fill="white" stroke="#666666" points="316,-107 176,-107 176,-66 316,-66 316,-107"/>
<text text-anchor="start" x="184" y="-95" font-family="Helvetica,sans-Serif" font-size="10.00">include/mosaic/auto</text>
<text text-anchor="start" x="184" y="-84" font-family="Helvetica,sans-Serif" font-size="10.00">_configurer/config_reader</text>
<text text-anchor="middle" x="246" y="-73" font-family="Helvetica,sans-Serif" font-size="10.00">/config_reader_resolver.h</text>
</a>
</g>
</g>
<!-- Node1&#45;&gt;Node5 -->
<g id="edge7_Node000001_Node000005" class="edge">
<title>Node1&#45;&gt;Node5</title>
<g id="a_edge7_Node000001_Node000005"><a xlink:title=" ">
<path fill="none" stroke="#63b8ff" d="M244.73,-211.27C249.34,-202.85 253.63,-193.36 256,-184 262.61,-157.87 257.05,-126.71 251.95,-107.01"/>
<polygon fill="#63b8ff" stroke="#63b8ff" points="241.69,-209.54 239.68,-219.94 247.74,-213.06 241.69,-209.54"/>
</a>
</g>
</g>
<!-- Node7 -->
<g id="Node000007" class="node">
<title>Node7</title>
<g id="a_Node000007"><a xlink:href="yaml__config__reader_8h.html" target="_top" xlink:title=" ">
<polygon fill="white" stroke="#666666" points="443,-184 303,-184 303,-143 443,-143 443,-184"/>
<text text-anchor="start" x="311" y="-172" font-family="Helvetica,sans-Serif" font-size="10.00">include/mosaic/auto</text>
<text text-anchor="start" x="311" y="-161" font-family="Helvetica,sans-Serif" font-size="10.00">_configurer/config_reader</text>
<text text-anchor="middle" x="373" y="-150" font-family="Helvetica,sans-Serif" font-size="10.00">/yaml_config_reader.h</text>
</a>
</g>
</g>
<!-- Node1&#45;&gt;Node7 -->
<g id="edge8_Node000001_Node000007" class="edge">
<title>Node1&#45;&gt;Node7</title>
<g id="a_edge8_Node000001_Node000007"><a xlink:title=" ">
<path fill="none" stroke="#63b8ff" d="M273.41,-215.31C293.23,-205.2 315.96,-193.6 334.7,-184.04"/>
<polygon fill="#63b8ff" stroke="#63b8ff" points="271.56,-212.33 264.24,-219.99 274.74,-218.56 271.56,-212.33"/>
</a>
</g>
</g>
<!-- Node3 -->
<g id="Node000003" class="node">
<title>Node3</title>
<g id="a_Node000003"><a xlink:href="auto__configurer_8cpp.html" target="_top" xlink:title=" ">
<polygon fill="white" stroke="#666666" points="198.5,-30 83.5,-30 83.5,0 198.5,0 198.5,-30"/>
<text text-anchor="start" x="91.5" y="-18" font-family="Helvetica,sans-Serif" font-size="10.00">src/auto_configurer</text>
<text text-anchor="middle" x="141" y="-7" font-family="Helvetica,sans-Serif" font-size="10.00">/auto_configurer.cpp</text>
</a>
</g>
</g>
<!-- Node2&#45;&gt;Node3 -->
<g id="edge2_Node000002_Node000003" class="edge">
<title>Node2&#45;&gt;Node3</title>
<g id="a_edge2_Node000002_Node000003"><a xlink:title=" ">
<path fill="none" stroke="#63b8ff" d="M98.31,-63.85C108.15,-52.83 119.82,-39.74 128.47,-30.04"/>
<polygon fill="#63b8ff" stroke="#63b8ff" points="95.59,-61.64 91.55,-71.44 100.82,-66.3 95.59,-61.64"/>
</a>
</g>
</g>
<!-- Node4&#45;&gt;Node5 -->
<g id="edge4_Node000004_Node000005" class="edge">
<title>Node4&#45;&gt;Node5</title>
<g id="a_edge4_Node000004_Node000005"><a xlink:title=" ">
<path fill="none" stroke="#63b8ff" d="M202.09,-135.23C210.66,-125.91 220.08,-115.67 227.99,-107.07"/>
<polygon fill="#63b8ff" stroke="#63b8ff" points="199.32,-133.07 195.13,-142.79 204.48,-137.81 199.32,-133.07"/>
</a>
</g>
</g>
<!-- Node5&#45;&gt;Node3 -->
<g id="edge5_Node000005_Node000003" class="edge">
<title>Node5&#45;&gt;Node3</title>
<g id="a_edge5_Node000005_Node000003"><a xlink:title=" ">
<path fill="none" stroke="#63b8ff" d="M207.71,-60.15C192.4,-50.02 175.35,-38.74 162.32,-30.11"/>
<polygon fill="#63b8ff" stroke="#63b8ff" points="206.2,-63.35 216.47,-65.96 210.07,-57.52 206.2,-63.35"/>
</a>
</g>
</g>
<!-- Node6 -->
<g id="Node000006" class="node">
<title>Node6</title>
<g id="a_Node000006"><a xlink:href="config__reader__resolver_8cpp.html" target="_top" xlink:title=" ">
<polygon fill="white" stroke="#666666" points="361,-30 229,-30 229,0 361,0 361,-30"/>
<text text-anchor="start" x="237" y="-18" font-family="Helvetica,sans-Serif" font-size="10.00">src/config_reader/config</text>
<text text-anchor="middle" x="295" y="-7" font-family="Helvetica,sans-Serif" font-size="10.00">_reader_resolver.cpp</text>
</a>
</g>
</g>
<!-- Node5&#45;&gt;Node6 -->
<g id="edge6_Node000005_Node000006" class="edge">
<title>Node5&#45;&gt;Node6</title>
<g id="a_edge6_Node000005_Node000006"><a xlink:title=" ">
<path fill="none" stroke="#63b8ff" d="M265.81,-57.4C272.45,-47.99 279.56,-37.9 285.1,-30.04"/>
<polygon fill="#63b8ff" stroke="#63b8ff" points="262.81,-55.58 259.91,-65.77 268.53,-59.61 262.81,-55.58"/>
</a>
</g>
</g>
<!-- Node7&#45;&gt;Node6 -->
<g id="edge9_Node000007_Node000006" class="edge">
<title>Node7&#45;&gt;Node6</title>
<g id="a_edge9_Node000007_Node000006"><a xlink:title=" ">
<path fill="none" stroke="#63b8ff" d="M359.31,-133.49C350.01,-114.17 337.22,-88.32 325,-66 318.29,-53.75 310.1,-40.17 303.97,-30.27"/>
<polygon fill="#63b8ff" stroke="#63b8ff" points="356.23,-135.16 363.7,-142.68 362.54,-132.14 356.23,-135.16"/>
</a>
</g>
</g>
<!-- Node8 -->
<g id="Node000008" class="node">
<title>Node8</title>
<g id="a_Node000008"><a xlink:href="yaml__config__reader_8cpp.html" target="_top" xlink:title=" ">
<polygon fill="white" stroke="#666666" points="500,-101.5 372,-101.5 372,-71.5 500,-71.5 500,-101.5"/>
<text text-anchor="start" x="380" y="-89.5" font-family="Helvetica,sans-Serif" font-size="10.00">src/config_reader/yaml</text>
<text text-anchor="middle" x="436" y="-78.5" font-family="Helvetica,sans-Serif" font-size="10.00">_config_reader.cpp</text>
</a>
</g>
</g>
<!-- Node7&#45;&gt;Node8 -->
<g id="edge10_Node000007_Node000008" class="edge">
<title>Node7&#45;&gt;Node8</title>
<g id="a_edge10_Node000007_Node000008"><a xlink:title=" ">
<path fill="none" stroke="#63b8ff" d="M396.17,-134.92C405.59,-123.7 416.09,-111.21 423.94,-101.86"/>
<polygon fill="#63b8ff" stroke="#63b8ff" points="393.3,-132.89 389.55,-142.79 398.66,-137.39 393.3,-132.89"/>
</a>
</g>
</g>
</g>
</svg>
