<?xml version="1.0" encoding="UTF-8" standalone="no"?>
<!DOCTYPE svg PUBLIC "-//W3C//DTD SVG 1.1//EN"
 "http://www.w3.org/Graphics/SVG/1.1/DTD/svg11.dtd">
<!-- Generated by graphviz version 2.43.0 (0)
 -->
<!-- Title: include/mosaic/handlers/data_channel/i_data_channel_handler.h Pages: 1 -->
<svg width="2140pt" height="445pt"
 viewBox="0.00 0.00 2140.00 445.00" xmlns="http://www.w3.org/2000/svg" xmlns:xlink="http://www.w3.org/1999/xlink">
<g id="graph0" class="graph" transform="scale(1 1) rotate(0) translate(4 441)">
<title>include/mosaic/handlers/data_channel/i_data_channel_handler.h</title>
<!-- Node1 -->
<g id="Node000001" class="node">
<title>Node1</title>
<g id="a_Node000001"><a xlink:title=" ">
<polygon fill="#999999" stroke="#666666" points="1307.5,-437 1146.5,-437 1146.5,-396 1307.5,-396 1307.5,-437"/>
<text text-anchor="start" x="1154.5" y="-425" font-family="Helvetica,sans-Serif" font-size="10.00">include/mosaic/handlers</text>
<text text-anchor="start" x="1154.5" y="-414" font-family="Helvetica,sans-Serif" font-size="10.00">/data_channel/i_data_channel</text>
<text text-anchor="middle" x="1227" y="-403" font-family="Helvetica,sans-Serif" font-size="10.00">_handler.h</text>
</a>
</g>
</g>
<!-- Node2 -->
<g id="Node000002" class="node">
<title>Node2</title>
<g id="a_Node000002"><a xlink:href="auto__configurer_8h.html" target="_top" xlink:title=" ">
<polygon fill="white" stroke="#666666" points="158,-195 0,-195 0,-165 158,-165 158,-195"/>
<text text-anchor="start" x="8" y="-183" font-family="Helvetica,sans-Serif" font-size="10.00">include/mosaic/auto</text>
<text text-anchor="middle" x="79" y="-172" font-family="Helvetica,sans-Serif" font-size="10.00">_configurer/auto_configurer.h</text>
</a>
</g>
</g>
<!-- Node1&#45;&gt;Node2 -->
<g id="edge1_Node000001_Node000002" class="edge">
<title>Node1&#45;&gt;Node2</title>
<g id="a_edge1_Node000001_Node000002"><a xlink:title=" ">
<path fill="none" stroke="#63b8ff" d="M1136.11,-404.53C985.63,-385.5 675.71,-342.61 418,-283 308.57,-257.69 182.62,-216.54 119.5,-195.06"/>
<polygon fill="#63b8ff" stroke="#63b8ff" points="1135.87,-408.03 1146.23,-405.81 1136.75,-401.09 1135.87,-408.03"/>
</a>
</g>
</g>
<!-- Node4 -->
<g id="Node000004" class="node">
<title>Node4</title>
<g id="a_Node000004"><a xlink:href="mosaic__connector_8h.html" target="_top" xlink:title=" ">
<polygon fill="white" stroke="#666666" points="1285,-354.5 1169,-354.5 1169,-324.5 1285,-324.5 1285,-354.5"/>
<text text-anchor="start" x="1177" y="-342.5" font-family="Helvetica,sans-Serif" font-size="10.00">include/mosaic/core</text>
<text text-anchor="middle" x="1227" y="-331.5" font-family="Helvetica,sans-Serif" font-size="10.00">/mosaic_connector.h</text>
</a>
</g>
</g>
<!-- Node1&#45;&gt;Node4 -->
<g id="edge3_Node000001_Node000004" class="edge">
<title>Node1&#45;&gt;Node4</title>
<g id="a_edge3_Node000001_Node000004"><a xlink:title=" ">
<path fill="none" stroke="#63b8ff" d="M1227,-385.61C1227,-375.01 1227,-363.57 1227,-354.86"/>
<polygon fill="#63b8ff" stroke="#63b8ff" points="1223.5,-385.79 1227,-395.79 1230.5,-385.79 1223.5,-385.79"/>
</a>
</g>
</g>
<!-- Node22 -->
<g id="Node000022" class="node">
<title>Node22</title>
<g id="a_Node000022"><a xlink:href="a__data__channel__handler_8h.html" target="_top" xlink:title=" ">
<polygon fill="white" stroke="#666666" points="1870,-360 1706,-360 1706,-319 1870,-319 1870,-360"/>
<text text-anchor="start" x="1714" y="-348" font-family="Helvetica,sans-Serif" font-size="10.00">include/mosaic/handlers</text>
<text text-anchor="start" x="1714" y="-337" font-family="Helvetica,sans-Serif" font-size="10.00">/data_channel/a_data_channel</text>
<text text-anchor="middle" x="1788" y="-326" font-family="Helvetica,sans-Serif" font-size="10.00">_handler.h</text>
</a>
</g>
</g>
<!-- Node1&#45;&gt;Node22 -->
<g id="edge33_Node000001_Node000022" class="edge">
<title>Node1&#45;&gt;Node22</title>
<g id="a_edge33_Node000001_Node000022"><a xlink:title=" ">
<path fill="none" stroke="#63b8ff" d="M1317.84,-403.36C1425.14,-389.01 1602.1,-365.35 1705.58,-351.52"/>
<polygon fill="#63b8ff" stroke="#63b8ff" points="1317.12,-399.92 1307.68,-404.71 1318.05,-406.86 1317.12,-399.92"/>
</a>
</g>
</g>
<!-- Node3 -->
<g id="Node000003" class="node">
<title>Node3</title>
<g id="a_Node000003"><a xlink:href="auto__configurer_8cpp.html" target="_top" xlink:title=" ">
<polygon fill="white" stroke="#666666" points="513.5,-30 398.5,-30 398.5,0 513.5,0 513.5,-30"/>
<text text-anchor="start" x="406.5" y="-18" font-family="Helvetica,sans-Serif" font-size="10.00">src/auto_configurer</text>
<text text-anchor="middle" x="456" y="-7" font-family="Helvetica,sans-Serif" font-size="10.00">/auto_configurer.cpp</text>
</a>
</g>
</g>
<!-- Node2&#45;&gt;Node3 -->
<g id="edge2_Node000002_Node000003" class="edge">
<title>Node2&#45;&gt;Node3</title>
<g id="a_edge2_Node000002_Node000003"><a xlink:title=" ">
<path fill="none" stroke="#63b8ff" d="M87.95,-155.2C99.17,-128.87 121.02,-87.35 154,-66 193.43,-40.48 322.37,-26.36 398.43,-20.07"/>
<polygon fill="#63b8ff" stroke="#63b8ff" points="84.57,-154.22 84.05,-164.8 91.06,-156.86 84.57,-154.22"/>
</a>
</g>
</g>
<!-- Node5 -->
<g id="Node000005" class="node">
<title>Node5</title>
<g id="a_Node000005"><a xlink:href="i__configurable__connector_8h.html" target="_top" xlink:title=" ">
<polygon fill="white" stroke="#666666" points="576.5,-283 427.5,-283 427.5,-242 576.5,-242 576.5,-283"/>
<text text-anchor="start" x="435.5" y="-271" font-family="Helvetica,sans-Serif" font-size="10.00">include/mosaic/auto</text>
<text text-anchor="start" x="435.5" y="-260" font-family="Helvetica,sans-Serif" font-size="10.00">_configurer/connector</text>
<text text-anchor="middle" x="502" y="-249" font-family="Helvetica,sans-Serif" font-size="10.00">/i_configurable_connector.h</text>
</a>
</g>
</g>
<!-- Node4&#45;&gt;Node5 -->
<g id="edge4_Node000004_Node000005" class="edge">
<title>Node4&#45;&gt;Node5</title>
<g id="a_edge4_Node000004_Node000005"><a xlink:title=" ">
<path fill="none" stroke="#63b8ff" d="M1158.59,-331.42C1022.3,-317.32 717.86,-285.83 576.62,-271.22"/>
<polygon fill="#63b8ff" stroke="#63b8ff" points="1158.59,-334.94 1168.9,-332.49 1159.31,-327.98 1158.59,-334.94"/>
</a>
</g>
</g>
<!-- Node13 -->
<g id="Node000013" class="node">
<title>Node13</title>
<g id="a_Node000013"><a xlink:href="mosaic__connector__factory_8h.html" target="_top" xlink:title=" ">
<polygon fill="white" stroke="#666666" points="962.5,-277.5 807.5,-277.5 807.5,-247.5 962.5,-247.5 962.5,-277.5"/>
<text text-anchor="start" x="815.5" y="-265.5" font-family="Helvetica,sans-Serif" font-size="10.00">include/mosaic/core</text>
<text text-anchor="middle" x="885" y="-254.5" font-family="Helvetica,sans-Serif" font-size="10.00">/mosaic_connector_factory.h</text>
</a>
</g>
</g>
<!-- Node4&#45;&gt;Node13 -->
<g id="edge18_Node000004_Node000013" class="edge">
<title>Node4&#45;&gt;Node13</title>
<g id="a_edge18_Node000004_Node000013"><a xlink:title=" ">
<path fill="none" stroke="#63b8ff" d="M1158.73,-323.88C1107.13,-312.79 1034.58,-297.1 971,-283 963.08,-281.24 954.75,-279.38 946.52,-277.52"/>
<polygon fill="#63b8ff" stroke="#63b8ff" points="1158.25,-327.36 1168.76,-326.04 1159.72,-320.52 1158.25,-327.36"/>
</a>
</g>
</g>
<!-- Node15 -->
<g id="Node000015" class="node">
<title>Node15</title>
<g id="a_Node000015"><a xlink:href="peer__connection__manager_8h.html" target="_top" xlink:title=" ">
<polygon fill="white" stroke="#666666" points="1605.5,-277.5 1448.5,-277.5 1448.5,-247.5 1605.5,-247.5 1605.5,-277.5"/>
<text text-anchor="start" x="1456.5" y="-265.5" font-family="Helvetica,sans-Serif" font-size="10.00">include/mosaic/core</text>
<text text-anchor="middle" x="1527" y="-254.5" font-family="Helvetica,sans-Serif" font-size="10.00">/peer_connection_manager.h</text>
</a>
</g>
</g>
<!-- Node4&#45;&gt;Node15 -->
<g id="edge21_Node000004_Node000015" class="edge">
<title>Node4&#45;&gt;Node15</title>
<g id="a_edge21_Node000004_Node000015"><a xlink:title=" ">
<path fill="none" stroke="#63b8ff" d="M1287.4,-321.97C1339.21,-308.65 1413.43,-290.12 1465.55,-277.51"/>
<polygon fill="#63b8ff" stroke="#63b8ff" points="1286.49,-318.59 1277.68,-324.48 1288.23,-325.37 1286.49,-318.59"/>
</a>
</g>
</g>
<!-- Node17 -->
<g id="Node000017" class="node">
<title>Node17</title>
<g id="a_Node000017"><a xlink:href="peer__connection__observer_8h.html" target="_top" xlink:title=" ">
<polygon fill="white" stroke="#666666" points="1430,-277.5 1274,-277.5 1274,-247.5 1430,-247.5 1430,-277.5"/>
<text text-anchor="start" x="1282" y="-265.5" font-family="Helvetica,sans-Serif" font-size="10.00">include/mosaic/core</text>
<text text-anchor="middle" x="1352" y="-254.5" font-family="Helvetica,sans-Serif" font-size="10.00">/peer_connection_observer.h</text>
</a>
</g>
</g>
<!-- Node4&#45;&gt;Node17 -->
<g id="edge24_Node000004_Node000017" class="edge">
<title>Node4&#45;&gt;Node17</title>
<g id="a_edge24_Node000004_Node000017"><a xlink:title=" ">
<path fill="none" stroke="#63b8ff" d="M1259.37,-319.08C1281.04,-306.08 1309.07,-289.26 1328.59,-277.54"/>
<polygon fill="#63b8ff" stroke="#63b8ff" points="1257.29,-316.25 1250.51,-324.39 1260.89,-322.25 1257.29,-316.25"/>
</a>
</g>
</g>
<!-- Node18 -->
<g id="Node000018" class="node">
<title>Node18</title>
<g id="a_Node000018"><a xlink:href="mosaic__connector_8cpp.html" target="_top" xlink:title=" ">
<polygon fill="white" stroke="#666666" points="1291,-189.5 1125,-189.5 1125,-170.5 1291,-170.5 1291,-189.5"/>
<text text-anchor="middle" x="1208" y="-177.5" font-family="Helvetica,sans-Serif" font-size="10.00">src/core/mosaic_connector.cpp</text>
</a>
</g>
</g>
<!-- Node4&#45;&gt;Node18 -->
<g id="edge31_Node000004_Node000018" class="edge">
<title>Node4&#45;&gt;Node18</title>
<g id="a_edge31_Node000004_Node000018"><a xlink:title=" ">
<path fill="none" stroke="#63b8ff" d="M1224.06,-314.16C1219.75,-278.37 1211.89,-213.27 1209.06,-189.76"/>
<polygon fill="#63b8ff" stroke="#63b8ff" points="1220.61,-314.74 1225.28,-324.25 1227.56,-313.9 1220.61,-314.74"/>
</a>
</g>
</g>
<!-- Node19 -->
<g id="Node000019" class="node">
<title>Node19</title>
<g id="a_Node000019"><a xlink:href="peer__connection__observer_8cpp.html" target="_top" xlink:title=" ">
<polygon fill="white" stroke="#666666" points="1447,-195 1309,-195 1309,-165 1447,-165 1447,-195"/>
<text text-anchor="start" x="1317" y="-183" font-family="Helvetica,sans-Serif" font-size="10.00">src/core/peer_connection</text>
<text text-anchor="middle" x="1378" y="-172" font-family="Helvetica,sans-Serif" font-size="10.00">_observer.cpp</text>
</a>
</g>
</g>
<!-- Node4&#45;&gt;Node19 -->
<g id="edge32_Node000004_Node000019" class="edge">
<title>Node4&#45;&gt;Node19</title>
<g id="a_edge32_Node000004_Node000019"><a xlink:title=" ">
<path fill="none" stroke="#63b8ff" d="M1231.53,-314.62C1236.59,-293.45 1246.6,-262.74 1265,-242 1284.23,-220.32 1313.07,-204.92 1336.8,-195.03"/>
<polygon fill="#63b8ff" stroke="#63b8ff" points="1228.1,-313.93 1229.37,-324.45 1234.94,-315.43 1228.1,-313.93"/>
</a>
</g>
</g>
<!-- Node20 -->
<g id="Node000020" class="node">
<title>Node20</title>
<g id="a_Node000020"><a xlink:href="signaling__client_8h.html" target="_top" xlink:title=" ">
<polygon fill="white" stroke="#666666" points="1117.5,-277.5 980.5,-277.5 980.5,-247.5 1117.5,-247.5 1117.5,-277.5"/>
<text text-anchor="start" x="988.5" y="-265.5" font-family="Helvetica,sans-Serif" font-size="10.00">include/mosaic/signaling</text>
<text text-anchor="middle" x="1049" y="-254.5" font-family="Helvetica,sans-Serif" font-size="10.00">/signaling_client.h</text>
</a>
</g>
</g>
<!-- Node4&#45;&gt;Node20 -->
<g id="edge28_Node000004_Node000020" class="edge">
<title>Node4&#45;&gt;Node20</title>
<g id="a_edge28_Node000004_Node000020"><a xlink:title=" ">
<path fill="none" stroke="#63b8ff" d="M1184.18,-320.46C1152.91,-307.28 1111.13,-289.68 1082.33,-277.54"/>
<polygon fill="#63b8ff" stroke="#63b8ff" points="1182.95,-323.74 1193.52,-324.39 1185.66,-317.28 1182.95,-323.74"/>
</a>
</g>
</g>
<!-- Node5&#45;&gt;Node2 -->
<g id="edge5_Node000005_Node000002" class="edge">
<title>Node5&#45;&gt;Node2</title>
<g id="a_edge5_Node000005_Node000002"><a xlink:title=" ">
<path fill="none" stroke="#63b8ff" d="M417.12,-250.14C349.09,-240.38 251.4,-224.92 167,-206 153.21,-202.91 138.37,-198.94 124.88,-195.09"/>
<polygon fill="#63b8ff" stroke="#63b8ff" points="416.96,-253.65 427.36,-251.59 417.95,-246.72 416.96,-253.65"/>
</a>
</g>
</g>
<!-- Node6 -->
<g id="Node000006" class="node">
<title>Node6</title>
<g id="a_Node000006"><a xlink:href="a__dc__handler__configurer_8h.html" target="_top" xlink:title=" ">
<polygon fill="white" stroke="#666666" points="761,-112.5 615,-112.5 615,-71.5 761,-71.5 761,-112.5"/>
<text text-anchor="start" x="623" y="-100.5" font-family="Helvetica,sans-Serif" font-size="10.00">include/mosaic/auto</text>
<text text-anchor="start" x="623" y="-89.5" font-family="Helvetica,sans-Serif" font-size="10.00">_configurer/connector</text>
<text text-anchor="middle" x="688" y="-78.5" font-family="Helvetica,sans-Serif" font-size="10.00">/a_dc_handler_configurer.h</text>
</a>
</g>
</g>
<!-- Node5&#45;&gt;Node6 -->
<g id="edge6_Node000005_Node000006" class="edge">
<title>Node5&#45;&gt;Node6</title>
<g id="a_edge6_Node000005_Node000006"><a xlink:title=" ">
<path fill="none" stroke="#63b8ff" d="M545.04,-236.5C558.99,-227.6 574.16,-217.03 587,-206 620.92,-176.85 654.33,-136.58 672.95,-112.82"/>
<polygon fill="#63b8ff" stroke="#63b8ff" points="543.17,-233.54 536.55,-241.81 546.88,-239.48 543.17,-233.54"/>
</a>
</g>
</g>
<!-- Node7 -->
<g id="Node000007" class="node">
<title>Node7</title>
<g id="a_Node000007"><a xlink:href="a__mt__handler__configurer_8h.html" target="_top" xlink:title=" ">
<polygon fill="white" stroke="#666666" points="452.5,-112.5 303.5,-112.5 303.5,-71.5 452.5,-71.5 452.5,-112.5"/>
<text text-anchor="start" x="311.5" y="-100.5" font-family="Helvetica,sans-Serif" font-size="10.00">include/mosaic/auto</text>
<text text-anchor="start" x="311.5" y="-89.5" font-family="Helvetica,sans-Serif" font-size="10.00">_configurer/connector</text>
<text text-anchor="middle" x="378" y="-78.5" font-family="Helvetica,sans-Serif" font-size="10.00">/a_mt_handler_configurer.h</text>
</a>
</g>
</g>
<!-- Node5&#45;&gt;Node7 -->
<g id="edge8_Node000005_Node000007" class="edge">
<title>Node5&#45;&gt;Node7</title>
<g id="a_edge8_Node000005_Node000007"><a xlink:title=" ">
<path fill="none" stroke="#63b8ff" d="M523.51,-233.45C538.28,-210.51 552.49,-178.05 536,-154 529.97,-145.21 480.08,-126.81 437.95,-112.5"/>
<polygon fill="#63b8ff" stroke="#63b8ff" points="520.6,-231.5 517.88,-241.74 526.4,-235.43 520.6,-231.5"/>
</a>
</g>
</g>
<!-- Node8 -->
<g id="Node000008" class="node">
<title>Node8</title>
<g id="a_Node000008"><a xlink:href="a__parallel__dc__handler__configurer_8h.html" target="_top" xlink:title=" ">
<polygon fill="white" stroke="#666666" points="597,-118 471,-118 471,-66 597,-66 597,-118"/>
<text text-anchor="start" x="479" y="-106" font-family="Helvetica,sans-Serif" font-size="10.00">include/mosaic/auto</text>
<text text-anchor="start" x="479" y="-95" font-family="Helvetica,sans-Serif" font-size="10.00">_configurer/connector</text>
<text text-anchor="start" x="479" y="-84" font-family="Helvetica,sans-Serif" font-size="10.00">/a_parallel_dc_handler</text>
<text text-anchor="middle" x="534" y="-73" font-family="Helvetica,sans-Serif" font-size="10.00">_configurer.h</text>
</a>
</g>
</g>
<!-- Node5&#45;&gt;Node8 -->
<g id="edge10_Node000005_Node000008" class="edge">
<title>Node5&#45;&gt;Node8</title>
<g id="a_edge10_Node000005_Node000008"><a xlink:title=" ">
<path fill="none" stroke="#63b8ff" d="M545.26,-235.79C555.21,-227.62 564.48,-217.62 570,-206 583.68,-177.17 567.6,-141.83 552.78,-118.42"/>
<polygon fill="#63b8ff" stroke="#63b8ff" points="543.01,-233.1 537.19,-241.95 547.26,-238.66 543.01,-233.1"/>
</a>
</g>
</g>
<!-- Node9 -->
<g id="Node000009" class="node">
<title>Node9</title>
<g id="a_Node000009"><a xlink:href="configurable__connector__factory_8h.html" target="_top" xlink:title=" ">
<polygon fill="white" stroke="#666666" points="309.5,-206 176.5,-206 176.5,-154 309.5,-154 309.5,-206"/>
<text text-anchor="start" x="184.5" y="-194" font-family="Helvetica,sans-Serif" font-size="10.00">include/mosaic/auto</text>
<text text-anchor="start" x="184.5" y="-183" font-family="Helvetica,sans-Serif" font-size="10.00">_configurer/connector</text>
<text text-anchor="start" x="184.5" y="-172" font-family="Helvetica,sans-Serif" font-size="10.00">/configurable_connector</text>
<text text-anchor="middle" x="243" y="-161" font-family="Helvetica,sans-Serif" font-size="10.00">_factory.h</text>
</a>
</g>
</g>
<!-- Node5&#45;&gt;Node9 -->
<g id="edge12_Node000005_Node000009" class="edge">
<title>Node5&#45;&gt;Node9</title>
<g id="a_edge12_Node000005_Node000009"><a xlink:title=" ">
<path fill="none" stroke="#63b8ff" d="M429.14,-238.86C391.73,-227.23 346.47,-213.16 309.94,-201.81"/>
<polygon fill="#63b8ff" stroke="#63b8ff" points="428.38,-242.28 438.97,-241.91 430.46,-235.6 428.38,-242.28"/>
</a>
</g>
</g>
<!-- Node10 -->
<g id="Node000010" class="node">
<title>Node10</title>
<g id="a_Node000010"><a xlink:href="connector__resolver_8h.html" target="_top" xlink:title=" ">
<polygon fill="white" stroke="#666666" points="285,-112.5 163,-112.5 163,-71.5 285,-71.5 285,-112.5"/>
<text text-anchor="start" x="171" y="-100.5" font-family="Helvetica,sans-Serif" font-size="10.00">include/mosaic/auto</text>
<text text-anchor="start" x="171" y="-89.5" font-family="Helvetica,sans-Serif" font-size="10.00">_configurer/connector</text>
<text text-anchor="middle" x="224" y="-78.5" font-family="Helvetica,sans-Serif" font-size="10.00">/connector_resolver.h</text>
</a>
</g>
</g>
<!-- Node5&#45;&gt;Node10 -->
<g id="edge16_Node000005_Node000010" class="edge">
<title>Node5&#45;&gt;Node10</title>
<g id="a_edge16_Node000005_Node000010"><a xlink:title=" ">
<path fill="none" stroke="#63b8ff" d="M417.83,-238.38C396.73,-230.22 375.01,-219.59 357,-206 333.94,-188.6 339.11,-173.72 318,-154 300.8,-137.93 278.86,-123.42 260.5,-112.59"/>
<polygon fill="#63b8ff" stroke="#63b8ff" points="416.86,-241.76 427.46,-241.96 419.3,-235.2 416.86,-241.76"/>
</a>
</g>
</g>
<!-- Node12 -->
<g id="Node000012" class="node">
<title>Node12</title>
<g id="a_Node000012"><a xlink:href="i__configurable__connector_8cpp.html" target="_top" xlink:title=" ">
<polygon fill="white" stroke="#666666" points="527.5,-195 366.5,-195 366.5,-165 527.5,-165 527.5,-195"/>
<text text-anchor="start" x="374.5" y="-183" font-family="Helvetica,sans-Serif" font-size="10.00">src/auto_configurer</text>
<text text-anchor="middle" x="447" y="-172" font-family="Helvetica,sans-Serif" font-size="10.00">/i_configurable_connector.cpp</text>
</a>
</g>
</g>
<!-- Node5&#45;&gt;Node12 -->
<g id="edge17_Node000005_Node000012" class="edge">
<title>Node5&#45;&gt;Node12</title>
<g id="a_edge17_Node000005_Node000012"><a xlink:title=" ">
<path fill="none" stroke="#63b8ff" d="M482.6,-233.11C473.88,-220.35 463.96,-205.83 456.82,-195.37"/>
<polygon fill="#63b8ff" stroke="#63b8ff" points="479.87,-235.32 488.4,-241.6 485.65,-231.37 479.87,-235.32"/>
</a>
</g>
</g>
<!-- Node6&#45;&gt;Node3 -->
<g id="edge7_Node000006_Node000003" class="edge">
<title>Node6&#45;&gt;Node3</title>
<g id="a_edge7_Node000006_Node000003"><a xlink:title=" ">
<path fill="none" stroke="#63b8ff" d="M618.04,-68.38C579.51,-55.93 532.89,-40.86 499.56,-30.08"/>
<polygon fill="#63b8ff" stroke="#63b8ff" points="617.06,-71.74 627.65,-71.49 619.21,-65.08 617.06,-71.74"/>
</a>
</g>
</g>
<!-- Node7&#45;&gt;Node3 -->
<g id="edge9_Node000007_Node000003" class="edge">
<title>Node7&#45;&gt;Node3</title>
<g id="a_edge9_Node000007_Node000003"><a xlink:title=" ">
<path fill="none" stroke="#63b8ff" d="M406.01,-64.07C417.85,-52.68 431.16,-39.89 441.06,-30.36"/>
<polygon fill="#63b8ff" stroke="#63b8ff" points="403.28,-61.84 398.49,-71.29 408.13,-66.89 403.28,-61.84"/>
</a>
</g>
</g>
<!-- Node8&#45;&gt;Node3 -->
<g id="edge11_Node000008_Node000003" class="edge">
<title>Node8&#45;&gt;Node3</title>
<g id="a_edge11_Node000008_Node000003"><a xlink:title=" ">
<path fill="none" stroke="#63b8ff" d="M500.28,-58.57C490.05,-48.74 479.33,-38.44 471,-30.43"/>
<polygon fill="#63b8ff" stroke="#63b8ff" points="497.96,-61.2 507.59,-65.61 502.81,-56.15 497.96,-61.2"/>
</a>
</g>
</g>
<!-- Node9&#45;&gt;Node10 -->
<g id="edge13_Node000009_Node000010" class="edge">
<title>Node9&#45;&gt;Node10</title>
<g id="a_edge13_Node000009_Node000010"><a xlink:title=" ">
<path fill="none" stroke="#63b8ff" d="M235.22,-143.78C232.88,-133.18 230.39,-121.92 228.35,-112.7"/>
<polygon fill="#63b8ff" stroke="#63b8ff" points="231.83,-144.65 237.4,-153.66 238.66,-143.14 231.83,-144.65"/>
</a>
</g>
</g>
<!-- Node10&#45;&gt;Node3 -->
<g id="edge14_Node000010_Node000003" class="edge">
<title>Node10&#45;&gt;Node3</title>
<g id="a_edge14_Node000010_Node000003"><a xlink:title=" ">
<path fill="none" stroke="#63b8ff" d="M287.65,-68.14C289.79,-67.41 291.91,-66.7 294,-66 332.4,-53.22 376.29,-39.75 408.69,-30.01"/>
<polygon fill="#63b8ff" stroke="#63b8ff" points="286.51,-64.83 278.18,-71.38 288.78,-71.45 286.51,-64.83"/>
</a>
</g>
</g>
<!-- Node11 -->
<g id="Node000011" class="node">
<title>Node11</title>
<g id="a_Node000011"><a xlink:href="connector__resolver_8cpp.html" target="_top" xlink:title=" ">
<polygon fill="white" stroke="#666666" points="290,-30 158,-30 158,0 290,0 290,-30"/>
<text text-anchor="start" x="166" y="-18" font-family="Helvetica,sans-Serif" font-size="10.00">src/auto_configurer</text>
<text text-anchor="middle" x="224" y="-7" font-family="Helvetica,sans-Serif" font-size="10.00">/connector_resolver.cpp</text>
</a>
</g>
</g>
<!-- Node10&#45;&gt;Node11 -->
<g id="edge15_Node000010_Node000011" class="edge">
<title>Node10&#45;&gt;Node11</title>
<g id="a_edge15_Node000010_Node000011"><a xlink:title=" ">
<path fill="none" stroke="#63b8ff" d="M224,-61.11C224,-50.51 224,-39.07 224,-30.36"/>
<polygon fill="#63b8ff" stroke="#63b8ff" points="220.5,-61.29 224,-71.29 227.5,-61.29 220.5,-61.29"/>
</a>
</g>
</g>
<!-- Node13&#45;&gt;Node3 -->
<g id="edge19_Node000013_Node000003" class="edge">
<title>Node13&#45;&gt;Node3</title>
<g id="a_edge19_Node000013_Node000003"><a xlink:title=" ">
<path fill="none" stroke="#63b8ff" d="M847.9,-242.09C833.56,-232.9 818.18,-220.7 808,-206 771.3,-152.99 817.97,-109.08 770,-66 733.19,-32.94 593.98,-21.66 513.82,-17.87"/>
<polygon fill="#63b8ff" stroke="#63b8ff" points="846.28,-245.21 856.64,-247.42 849.92,-239.23 846.28,-245.21"/>
</a>
</g>
</g>
<!-- Node14 -->
<g id="Node000014" class="node">
<title>Node14</title>
<g id="a_Node000014"><a xlink:href="mosaic__connector__factory_8cpp.html" target="_top" xlink:title=" ">
<polygon fill="white" stroke="#666666" points="963,-195 817,-195 817,-165 963,-165 963,-195"/>
<text text-anchor="start" x="825" y="-183" font-family="Helvetica,sans-Serif" font-size="10.00">src/core/mosaic_connector</text>
<text text-anchor="middle" x="890" y="-172" font-family="Helvetica,sans-Serif" font-size="10.00">_factory.cpp</text>
</a>
</g>
</g>
<!-- Node13&#45;&gt;Node14 -->
<g id="edge20_Node000013_Node000014" class="edge">
<title>Node13&#45;&gt;Node14</title>
<g id="a_edge20_Node000013_Node000014"><a xlink:title=" ">
<path fill="none" stroke="#63b8ff" d="M886.51,-237.24C887.36,-223.48 888.4,-206.75 889.12,-195.13"/>
<polygon fill="#63b8ff" stroke="#63b8ff" points="883,-237.28 885.87,-247.48 889.98,-237.71 883,-237.28"/>
</a>
</g>
</g>
<!-- Node15&#45;&gt;Node4 -->
<g id="edge22_Node000015_Node000004" class="edge">
<title>Node15&#45;&gt;Node4</title>
<g id="a_edge22_Node000015_Node000004"><a xlink:title=" ">
<path fill="none" stroke="#63b8ff" d="M1466,-280.18C1413.14,-293.77 1337.28,-312.7 1285.23,-325.26"/>
<polygon fill="#63b8ff" stroke="#63b8ff" points="1467.11,-283.51 1475.92,-277.62 1465.37,-276.73 1467.11,-283.51"/>
</a>
</g>
</g>
<!-- Node16 -->
<g id="Node000016" class="node">
<title>Node16</title>
<g id="a_Node000016"><a xlink:href="peer__connection__manager_8cpp.html" target="_top" xlink:title=" ">
<polygon fill="white" stroke="#666666" points="1603,-195 1465,-195 1465,-165 1603,-165 1603,-195"/>
<text text-anchor="start" x="1473" y="-183" font-family="Helvetica,sans-Serif" font-size="10.00">src/core/peer_connection</text>
<text text-anchor="middle" x="1534" y="-172" font-family="Helvetica,sans-Serif" font-size="10.00">_manager.cpp</text>
</a>
</g>
</g>
<!-- Node15&#45;&gt;Node16 -->
<g id="edge23_Node000015_Node000016" class="edge">
<title>Node15&#45;&gt;Node16</title>
<g id="a_edge23_Node000015_Node000016"><a xlink:title=" ">
<path fill="none" stroke="#63b8ff" d="M1529.11,-237.24C1530.31,-223.48 1531.76,-206.75 1532.77,-195.13"/>
<polygon fill="#63b8ff" stroke="#63b8ff" points="1525.6,-237.21 1528.22,-247.48 1532.57,-237.82 1525.6,-237.21"/>
</a>
</g>
</g>
<!-- Node17&#45;&gt;Node16 -->
<g id="edge26_Node000017_Node000016" class="edge">
<title>Node17&#45;&gt;Node16</title>
<g id="a_edge26_Node000017_Node000016"><a xlink:title=" ">
<path fill="none" stroke="#63b8ff" d="M1393.08,-243.33C1426.07,-228.74 1471.75,-208.53 1502.05,-195.13"/>
<polygon fill="#63b8ff" stroke="#63b8ff" points="1391.43,-240.23 1383.7,-247.48 1394.26,-246.63 1391.43,-240.23"/>
</a>
</g>
</g>
<!-- Node17&#45;&gt;Node18 -->
<g id="edge25_Node000017_Node000018" class="edge">
<title>Node17&#45;&gt;Node18</title>
<g id="a_edge25_Node000017_Node000018"><a xlink:title=" ">
<path fill="none" stroke="#63b8ff" d="M1318.07,-242.53C1288.16,-225.81 1245.95,-202.22 1223.49,-189.66"/>
<polygon fill="#63b8ff" stroke="#63b8ff" points="1316.48,-245.65 1326.92,-247.48 1319.9,-239.54 1316.48,-245.65"/>
</a>
</g>
</g>
<!-- Node17&#45;&gt;Node19 -->
<g id="edge27_Node000017_Node000019" class="edge">
<title>Node17&#45;&gt;Node19</title>
<g id="a_edge27_Node000017_Node000019"><a xlink:title=" ">
<path fill="none" stroke="#63b8ff" d="M1359.7,-237.65C1364.17,-223.81 1369.65,-206.87 1373.44,-195.13"/>
<polygon fill="#63b8ff" stroke="#63b8ff" points="1356.27,-236.89 1356.53,-247.48 1362.93,-239.04 1356.27,-236.89"/>
</a>
</g>
</g>
<!-- Node20&#45;&gt;Node14 -->
<g id="edge29_Node000020_Node000014" class="edge">
<title>Node20&#45;&gt;Node14</title>
<g id="a_edge29_Node000020_Node000014"><a xlink:title=" ">
<path fill="none" stroke="#63b8ff" d="M1012.37,-242.95C983.61,-228.39 944.16,-208.42 917.91,-195.13"/>
<polygon fill="#63b8ff" stroke="#63b8ff" points="1010.8,-246.08 1021.3,-247.48 1013.96,-239.84 1010.8,-246.08"/>
</a>
</g>
</g>
<!-- Node21 -->
<g id="Node000021" class="node">
<title>Node21</title>
<g id="a_Node000021"><a xlink:href="signaling__client_8cpp.html" target="_top" xlink:title=" ">
<polygon fill="white" stroke="#666666" points="1106.5,-195 981.5,-195 981.5,-165 1106.5,-165 1106.5,-195"/>
<text text-anchor="start" x="989.5" y="-183" font-family="Helvetica,sans-Serif" font-size="10.00">src/signaling/signaling</text>
<text text-anchor="middle" x="1044" y="-172" font-family="Helvetica,sans-Serif" font-size="10.00">_client.cpp</text>
</a>
</g>
</g>
<!-- Node20&#45;&gt;Node21 -->
<g id="edge30_Node000020_Node000021" class="edge">
<title>Node20&#45;&gt;Node21</title>
<g id="a_edge30_Node000020_Node000021"><a xlink:title=" ">
<path fill="none" stroke="#63b8ff" d="M1047.49,-237.24C1046.64,-223.48 1045.6,-206.75 1044.88,-195.13"/>
<polygon fill="#63b8ff" stroke="#63b8ff" points="1044.02,-237.71 1048.13,-247.48 1051,-237.28 1044.02,-237.71"/>
</a>
</g>
</g>
<!-- Node23 -->
<g id="Node000023" class="node">
<title>Node23</title>
<g id="a_Node000023"><a xlink:href="data__channel__receivable_8h.html" target="_top" xlink:title=" ">
<polygon fill="white" stroke="#666666" points="1951.5,-283 1798.5,-283 1798.5,-242 1951.5,-242 1951.5,-283"/>
<text text-anchor="start" x="1806.5" y="-271" font-family="Helvetica,sans-Serif" font-size="10.00">include/mosaic/handlers</text>
<text text-anchor="start" x="1806.5" y="-260" font-family="Helvetica,sans-Serif" font-size="10.00">/data_channel/data_channel</text>
<text text-anchor="middle" x="1875" y="-249" font-family="Helvetica,sans-Serif" font-size="10.00">_receivable.h</text>
</a>
</g>
</g>
<!-- Node22&#45;&gt;Node23 -->
<g id="edge34_Node000022_Node000023" class="edge">
<title>Node22&#45;&gt;Node23</title>
<g id="a_edge34_Node000022_Node000023"><a xlink:title=" ">
<path fill="none" stroke="#63b8ff" d="M1818.66,-312.07C1829.73,-302.52 1842.02,-291.93 1852.29,-283.07"/>
<polygon fill="#63b8ff" stroke="#63b8ff" points="1816.15,-309.61 1810.86,-318.79 1820.72,-314.92 1816.15,-309.61"/>
</a>
</g>
</g>
<!-- Node24 -->
<g id="Node000024" class="node">
<title>Node24</title>
<g id="a_Node000024"><a xlink:href="a__data__channel__handler_8cpp.html" target="_top" xlink:title=" ">
<polygon fill="white" stroke="#666666" points="2132,-195 1974,-195 1974,-165 2132,-165 2132,-195"/>
<text text-anchor="start" x="1982" y="-183" font-family="Helvetica,sans-Serif" font-size="10.00">src/handlers/data_channel</text>
<text text-anchor="middle" x="2053" y="-172" font-family="Helvetica,sans-Serif" font-size="10.00">/a_data_channel_handler.cpp</text>
</a>
</g>
</g>
<!-- Node22&#45;&gt;Node24 -->
<g id="edge39_Node000022_Node000024" class="edge">
<title>Node22&#45;&gt;Node24</title>
<g id="a_edge39_Node000022_Node000024"><a xlink:title=" ">
<path fill="none" stroke="#63b8ff" d="M1880.07,-318.39C1907.13,-310 1935.91,-298.5 1960,-283 1997.08,-259.14 2028.9,-216.88 2043.87,-195"/>
<polygon fill="#63b8ff" stroke="#63b8ff" points="1878.77,-315.13 1870.19,-321.34 1880.77,-321.83 1878.77,-315.13"/>
</a>
</g>
</g>
<!-- Node26 -->
<g id="Node000026" class="node">
<title>Node26</title>
<g id="a_Node000026"><a xlink:href="data__channel__sendable_8h.html" target="_top" xlink:title=" ">
<polygon fill="white" stroke="#666666" points="1778.5,-283 1625.5,-283 1625.5,-242 1778.5,-242 1778.5,-283"/>
<text text-anchor="start" x="1633.5" y="-271" font-family="Helvetica,sans-Serif" font-size="10.00">include/mosaic/handlers</text>
<text text-anchor="start" x="1633.5" y="-260" font-family="Helvetica,sans-Serif" font-size="10.00">/data_channel/data_channel</text>
<text text-anchor="middle" x="1702" y="-249" font-family="Helvetica,sans-Serif" font-size="10.00">_sendable.h</text>
</a>
</g>
</g>
<!-- Node22&#45;&gt;Node26 -->
<g id="edge37_Node000022_Node000026" class="edge">
<title>Node22&#45;&gt;Node26</title>
<g id="a_edge37_Node000022_Node000026"><a xlink:title=" ">
<path fill="none" stroke="#63b8ff" d="M1757.69,-312.07C1746.75,-302.52 1734.6,-291.93 1724.44,-283.07"/>
<polygon fill="#63b8ff" stroke="#63b8ff" points="1755.57,-314.86 1765.4,-318.79 1760.17,-309.58 1755.57,-314.86"/>
</a>
</g>
</g>
<!-- Node23&#45;&gt;Node24 -->
<g id="edge35_Node000023_Node000024" class="edge">
<title>Node23&#45;&gt;Node24</title>
<g id="a_edge35_Node000023_Node000024"><a xlink:title=" ">
<path fill="none" stroke="#63b8ff" d="M1927.81,-237.62C1958.44,-223.76 1995.97,-206.79 2021.9,-195.06"/>
<polygon fill="#63b8ff" stroke="#63b8ff" points="1926.21,-234.5 1918.54,-241.81 1929.1,-240.88 1926.21,-234.5"/>
</a>
</g>
</g>
<!-- Node25 -->
<g id="Node000025" class="node">
<title>Node25</title>
<g id="a_Node000025"><a xlink:href="data__channel__receivable_8cpp.html" target="_top" xlink:title=" ">
<polygon fill="white" stroke="#666666" points="1955.5,-195 1794.5,-195 1794.5,-165 1955.5,-165 1955.5,-195"/>
<text text-anchor="start" x="1802.5" y="-183" font-family="Helvetica,sans-Serif" font-size="10.00">src/handlers/data_channel</text>
<text text-anchor="middle" x="1875" y="-172" font-family="Helvetica,sans-Serif" font-size="10.00">/data_channel_receivable.cpp</text>
</a>
</g>
</g>
<!-- Node23&#45;&gt;Node25 -->
<g id="edge36_Node000023_Node000025" class="edge">
<title>Node23&#45;&gt;Node25</title>
<g id="a_edge36_Node000023_Node000025"><a xlink:title=" ">
<path fill="none" stroke="#63b8ff" d="M1875,-231.26C1875,-218.96 1875,-205.33 1875,-195.37"/>
<polygon fill="#63b8ff" stroke="#63b8ff" points="1871.5,-231.6 1875,-241.6 1878.5,-231.6 1871.5,-231.6"/>
</a>
</g>
</g>
<!-- Node27 -->
<g id="Node000027" class="node">
<title>Node27</title>
<g id="a_Node000027"><a xlink:href="data__channel__sendable_8cpp.html" target="_top" xlink:title=" ">
<polygon fill="white" stroke="#666666" points="1776.5,-195 1621.5,-195 1621.5,-165 1776.5,-165 1776.5,-195"/>
<text text-anchor="start" x="1629.5" y="-183" font-family="Helvetica,sans-Serif" font-size="10.00">src/handlers/data_channel</text>
<text text-anchor="middle" x="1699" y="-172" font-family="Helvetica,sans-Serif" font-size="10.00">/data_channel_sendable.cpp</text>
</a>
</g>
</g>
<!-- Node26&#45;&gt;Node27 -->
<g id="edge38_Node000026_Node000027" class="edge">
<title>Node26&#45;&gt;Node27</title>
<g id="a_edge38_Node000026_Node000027"><a xlink:title=" ">
<path fill="none" stroke="#63b8ff" d="M1700.87,-231.26C1700.41,-218.96 1699.91,-205.33 1699.54,-195.37"/>
<polygon fill="#63b8ff" stroke="#63b8ff" points="1697.39,-231.74 1701.26,-241.6 1704.38,-231.48 1697.39,-231.74"/>
</a>
</g>
</g>
</g>
</svg>
