<?xml version="1.0" encoding="UTF-8" standalone="no"?>
<!DOCTYPE svg PUBLIC "-//W3C//DTD SVG 1.1//EN"
 "http://www.w3.org/Graphics/SVG/1.1/DTD/svg11.dtd">
<!-- Generated by graphviz version 2.43.0 (0)
 -->
<!-- Title: include/mosaic/handlers/data_channel/i_data_channel_handler.h Pages: 1 -->
<svg width="2148pt" height="456pt"
 viewBox="0.00 0.00 2148.00 456.00" xmlns="http://www.w3.org/2000/svg" xmlns:xlink="http://www.w3.org/1999/xlink">
<g id="graph0" class="graph" transform="scale(1 1) rotate(0) translate(4 452)">
<title>include/mosaic/handlers/data_channel/i_data_channel_handler.h</title>
<!-- Node1 -->
<g id="Node000001" class="node">
<title>Node1</title>
<g id="a_Node000001"><a xlink:title=" ">
<polygon fill="#999999" stroke="#666666" points="1315.5,-448 1154.5,-448 1154.5,-407 1315.5,-407 1315.5,-448"/>
<text text-anchor="start" x="1162.5" y="-436" font-family="Helvetica,sans-Serif" font-size="10.00">include/mosaic/handlers</text>
<text text-anchor="start" x="1162.5" y="-425" font-family="Helvetica,sans-Serif" font-size="10.00">/data_channel/i_data_channel</text>
<text text-anchor="middle" x="1235" y="-414" font-family="Helvetica,sans-Serif" font-size="10.00">_handler.h</text>
</a>
</g>
</g>
<!-- Node2 -->
<g id="Node000002" class="node">
<title>Node2</title>
<g id="a_Node000002"><a xlink:href="auto__configurer_8h.html" target="_top" xlink:title=" ">
<polygon fill="white" stroke="#666666" points="158,-206 0,-206 0,-176 158,-176 158,-206"/>
<text text-anchor="start" x="8" y="-194" font-family="Helvetica,sans-Serif" font-size="10.00">include/mosaic/auto</text>
<text text-anchor="middle" x="79" y="-183" font-family="Helvetica,sans-Serif" font-size="10.00">_configurer/auto_configurer.h</text>
</a>
</g>
</g>
<!-- Node1&#45;&gt;Node2 -->
<g id="edge1_Node000001_Node000002" class="edge">
<title>Node1&#45;&gt;Node2</title>
<g id="a_edge1_Node000001_Node000002"><a xlink:title=" ">
<path fill="none" stroke="#63b8ff" d="M1144.22,-420.16C980.26,-407.17 624.82,-371.92 335,-294 249.76,-271.08 154.41,-228.22 107.81,-206.06"/>
<polygon fill="#63b8ff" stroke="#63b8ff" points="1144.02,-423.66 1154.27,-420.95 1144.57,-416.68 1144.02,-423.66"/>
</a>
</g>
</g>
<!-- Node4 -->
<g id="Node000004" class="node">
<title>Node4</title>
<g id="a_Node000004"><a xlink:href="mosaic__connector_8h.html" target="_top" xlink:title=" ">
<polygon fill="white" stroke="#666666" points="1293,-365.5 1177,-365.5 1177,-335.5 1293,-335.5 1293,-365.5"/>
<text text-anchor="start" x="1185" y="-353.5" font-family="Helvetica,sans-Serif" font-size="10.00">include/mosaic/core</text>
<text text-anchor="middle" x="1235" y="-342.5" font-family="Helvetica,sans-Serif" font-size="10.00">/mosaic_connector.h</text>
</a>
</g>
</g>
<!-- Node1&#45;&gt;Node4 -->
<g id="edge3_Node000001_Node000004" class="edge">
<title>Node1&#45;&gt;Node4</title>
<g id="a_edge3_Node000001_Node000004"><a xlink:title=" ">
<path fill="none" stroke="#63b8ff" d="M1235,-396.61C1235,-386.01 1235,-374.57 1235,-365.86"/>
<polygon fill="#63b8ff" stroke="#63b8ff" points="1231.5,-396.79 1235,-406.79 1238.5,-396.79 1231.5,-396.79"/>
</a>
</g>
</g>
<!-- Node24 -->
<g id="Node000024" class="node">
<title>Node24</title>
<g id="a_Node000024"><a xlink:href="a__data__channel__handler_8h.html" target="_top" xlink:title=" ">
<polygon fill="white" stroke="#666666" points="1878,-371 1714,-371 1714,-330 1878,-330 1878,-371"/>
<text text-anchor="start" x="1722" y="-359" font-family="Helvetica,sans-Serif" font-size="10.00">include/mosaic/handlers</text>
<text text-anchor="start" x="1722" y="-348" font-family="Helvetica,sans-Serif" font-size="10.00">/data_channel/a_data_channel</text>
<text text-anchor="middle" x="1796" y="-337" font-family="Helvetica,sans-Serif" font-size="10.00">_handler.h</text>
</a>
</g>
</g>
<!-- Node1&#45;&gt;Node24 -->
<g id="edge36_Node000001_Node000024" class="edge">
<title>Node1&#45;&gt;Node24</title>
<g id="a_edge36_Node000001_Node000024"><a xlink:title=" ">
<path fill="none" stroke="#63b8ff" d="M1325.84,-414.36C1433.14,-400.01 1610.1,-376.35 1713.58,-362.52"/>
<polygon fill="#63b8ff" stroke="#63b8ff" points="1325.12,-410.92 1315.68,-415.71 1326.05,-417.86 1325.12,-410.92"/>
</a>
</g>
</g>
<!-- Node3 -->
<g id="Node000003" class="node">
<title>Node3</title>
<g id="a_Node000003"><a xlink:href="auto__configurer_8cpp.html" target="_top" xlink:title=" ">
<polygon fill="white" stroke="#666666" points="442.5,-35.5 327.5,-35.5 327.5,-5.5 442.5,-5.5 442.5,-35.5"/>
<text text-anchor="start" x="335.5" y="-23.5" font-family="Helvetica,sans-Serif" font-size="10.00">src/auto_configurer</text>
<text text-anchor="middle" x="385" y="-12.5" font-family="Helvetica,sans-Serif" font-size="10.00">/auto_configurer.cpp</text>
</a>
</g>
</g>
<!-- Node2&#45;&gt;Node3 -->
<g id="edge2_Node000002_Node000003" class="edge">
<title>Node2&#45;&gt;Node3</title>
<g id="a_edge2_Node000002_Node000003"><a xlink:title=" ">
<path fill="none" stroke="#63b8ff" d="M77.72,-165.83C77.76,-140.11 82.09,-100.01 106,-77 137,-47.16 255.06,-32.23 327.3,-25.74"/>
<polygon fill="#63b8ff" stroke="#63b8ff" points="74.22,-165.95 77.92,-175.88 81.22,-165.82 74.22,-165.95"/>
</a>
</g>
</g>
<!-- Node5 -->
<g id="Node000005" class="node">
<title>Node5</title>
<g id="a_Node000005"><a xlink:href="i__configurable__connector_8h.html" target="_top" xlink:title=" ">
<polygon fill="white" stroke="#666666" points="493.5,-294 344.5,-294 344.5,-253 493.5,-253 493.5,-294"/>
<text text-anchor="start" x="352.5" y="-282" font-family="Helvetica,sans-Serif" font-size="10.00">include/mosaic/auto</text>
<text text-anchor="start" x="352.5" y="-271" font-family="Helvetica,sans-Serif" font-size="10.00">_configurer/connector</text>
<text text-anchor="middle" x="419" y="-260" font-family="Helvetica,sans-Serif" font-size="10.00">/i_configurable_connector.h</text>
</a>
</g>
</g>
<!-- Node4&#45;&gt;Node5 -->
<g id="edge4_Node000004_Node000005" class="edge">
<title>Node4&#45;&gt;Node5</title>
<g id="a_edge4_Node000004_Node000005"><a xlink:title=" ">
<path fill="none" stroke="#63b8ff" d="M1166.86,-343.24C1015.31,-329.31 651.28,-295.85 493.75,-281.37"/>
<polygon fill="#63b8ff" stroke="#63b8ff" points="1166.69,-346.74 1176.97,-344.17 1167.33,-339.77 1166.69,-346.74"/>
</a>
</g>
</g>
<!-- Node15 -->
<g id="Node000015" class="node">
<title>Node15</title>
<g id="a_Node000015"><a xlink:href="mosaic__connector__factory_8h.html" target="_top" xlink:title=" ">
<polygon fill="white" stroke="#666666" points="970.5,-288.5 815.5,-288.5 815.5,-258.5 970.5,-258.5 970.5,-288.5"/>
<text text-anchor="start" x="823.5" y="-276.5" font-family="Helvetica,sans-Serif" font-size="10.00">include/mosaic/core</text>
<text text-anchor="middle" x="893" y="-265.5" font-family="Helvetica,sans-Serif" font-size="10.00">/mosaic_connector_factory.h</text>
</a>
</g>
</g>
<!-- Node4&#45;&gt;Node15 -->
<g id="edge21_Node000004_Node000015" class="edge">
<title>Node4&#45;&gt;Node15</title>
<g id="a_edge21_Node000004_Node000015"><a xlink:title=" ">
<path fill="none" stroke="#63b8ff" d="M1166.73,-334.88C1115.13,-323.79 1042.58,-308.1 979,-294 971.08,-292.24 962.75,-290.38 954.52,-288.52"/>
<polygon fill="#63b8ff" stroke="#63b8ff" points="1166.25,-338.36 1176.76,-337.04 1167.72,-331.52 1166.25,-338.36"/>
</a>
</g>
</g>
<!-- Node17 -->
<g id="Node000017" class="node">
<title>Node17</title>
<g id="a_Node000017"><a xlink:href="peer__connection__manager_8h.html" target="_top" xlink:title=" ">
<polygon fill="white" stroke="#666666" points="1613.5,-288.5 1456.5,-288.5 1456.5,-258.5 1613.5,-258.5 1613.5,-288.5"/>
<text text-anchor="start" x="1464.5" y="-276.5" font-family="Helvetica,sans-Serif" font-size="10.00">include/mosaic/core</text>
<text text-anchor="middle" x="1535" y="-265.5" font-family="Helvetica,sans-Serif" font-size="10.00">/peer_connection_manager.h</text>
</a>
</g>
</g>
<!-- Node4&#45;&gt;Node17 -->
<g id="edge24_Node000004_Node000017" class="edge">
<title>Node4&#45;&gt;Node17</title>
<g id="a_edge24_Node000004_Node000017"><a xlink:title=" ">
<path fill="none" stroke="#63b8ff" d="M1295.4,-332.97C1347.21,-319.65 1421.43,-301.12 1473.55,-288.51"/>
<polygon fill="#63b8ff" stroke="#63b8ff" points="1294.49,-329.59 1285.68,-335.48 1296.23,-336.37 1294.49,-329.59"/>
</a>
</g>
</g>
<!-- Node19 -->
<g id="Node000019" class="node">
<title>Node19</title>
<g id="a_Node000019"><a xlink:href="peer__connection__observer_8h.html" target="_top" xlink:title=" ">
<polygon fill="white" stroke="#666666" points="1438,-288.5 1282,-288.5 1282,-258.5 1438,-258.5 1438,-288.5"/>
<text text-anchor="start" x="1290" y="-276.5" font-family="Helvetica,sans-Serif" font-size="10.00">include/mosaic/core</text>
<text text-anchor="middle" x="1360" y="-265.5" font-family="Helvetica,sans-Serif" font-size="10.00">/peer_connection_observer.h</text>
</a>
</g>
</g>
<!-- Node4&#45;&gt;Node19 -->
<g id="edge27_Node000004_Node000019" class="edge">
<title>Node4&#45;&gt;Node19</title>
<g id="a_edge27_Node000004_Node000019"><a xlink:title=" ">
<path fill="none" stroke="#63b8ff" d="M1267.37,-330.08C1289.04,-317.08 1317.07,-300.26 1336.59,-288.54"/>
<polygon fill="#63b8ff" stroke="#63b8ff" points="1265.29,-327.25 1258.51,-335.39 1268.89,-333.25 1265.29,-327.25"/>
</a>
</g>
</g>
<!-- Node20 -->
<g id="Node000020" class="node">
<title>Node20</title>
<g id="a_Node000020"><a xlink:href="mosaic__connector_8cpp.html" target="_top" xlink:title=" ">
<polygon fill="white" stroke="#666666" points="1299,-200.5 1133,-200.5 1133,-181.5 1299,-181.5 1299,-200.5"/>
<text text-anchor="middle" x="1216" y="-188.5" font-family="Helvetica,sans-Serif" font-size="10.00">src/core/mosaic_connector.cpp</text>
</a>
</g>
</g>
<!-- Node4&#45;&gt;Node20 -->
<g id="edge34_Node000004_Node000020" class="edge">
<title>Node4&#45;&gt;Node20</title>
<g id="a_edge34_Node000004_Node000020"><a xlink:title=" ">
<path fill="none" stroke="#63b8ff" d="M1232.06,-325.16C1227.75,-289.37 1219.89,-224.27 1217.06,-200.76"/>
<polygon fill="#63b8ff" stroke="#63b8ff" points="1228.61,-325.74 1233.28,-335.25 1235.56,-324.9 1228.61,-325.74"/>
</a>
</g>
</g>
<!-- Node21 -->
<g id="Node000021" class="node">
<title>Node21</title>
<g id="a_Node000021"><a xlink:href="peer__connection__observer_8cpp.html" target="_top" xlink:title=" ">
<polygon fill="white" stroke="#666666" points="1455,-206 1317,-206 1317,-176 1455,-176 1455,-206"/>
<text text-anchor="start" x="1325" y="-194" font-family="Helvetica,sans-Serif" font-size="10.00">src/core/peer_connection</text>
<text text-anchor="middle" x="1386" y="-183" font-family="Helvetica,sans-Serif" font-size="10.00">_observer.cpp</text>
</a>
</g>
</g>
<!-- Node4&#45;&gt;Node21 -->
<g id="edge35_Node000004_Node000021" class="edge">
<title>Node4&#45;&gt;Node21</title>
<g id="a_edge35_Node000004_Node000021"><a xlink:title=" ">
<path fill="none" stroke="#63b8ff" d="M1239.53,-325.62C1244.59,-304.45 1254.6,-273.74 1273,-253 1292.23,-231.32 1321.07,-215.92 1344.8,-206.03"/>
<polygon fill="#63b8ff" stroke="#63b8ff" points="1236.1,-324.93 1237.37,-335.45 1242.94,-326.43 1236.1,-324.93"/>
</a>
</g>
</g>
<!-- Node22 -->
<g id="Node000022" class="node">
<title>Node22</title>
<g id="a_Node000022"><a xlink:href="signaling__client_8h.html" target="_top" xlink:title=" ">
<polygon fill="white" stroke="#666666" points="1125.5,-288.5 988.5,-288.5 988.5,-258.5 1125.5,-258.5 1125.5,-288.5"/>
<text text-anchor="start" x="996.5" y="-276.5" font-family="Helvetica,sans-Serif" font-size="10.00">include/mosaic/signaling</text>
<text text-anchor="middle" x="1057" y="-265.5" font-family="Helvetica,sans-Serif" font-size="10.00">/signaling_client.h</text>
</a>
</g>
</g>
<!-- Node4&#45;&gt;Node22 -->
<g id="edge31_Node000004_Node000022" class="edge">
<title>Node4&#45;&gt;Node22</title>
<g id="a_edge31_Node000004_Node000022"><a xlink:title=" ">
<path fill="none" stroke="#63b8ff" d="M1192.18,-331.46C1160.91,-318.28 1119.13,-300.68 1090.33,-288.54"/>
<polygon fill="#63b8ff" stroke="#63b8ff" points="1190.95,-334.74 1201.52,-335.39 1193.66,-328.28 1190.95,-334.74"/>
</a>
</g>
</g>
<!-- Node5&#45;&gt;Node2 -->
<g id="edge5_Node000005_Node000002" class="edge">
<title>Node5&#45;&gt;Node2</title>
<g id="a_edge5_Node000005_Node000002"><a xlink:title=" ">
<path fill="none" stroke="#63b8ff" d="M334.24,-254.37C286.48,-243.92 225.78,-230.27 172,-217 158.2,-213.6 143.31,-209.7 129.58,-206.01"/>
<polygon fill="#63b8ff" stroke="#63b8ff" points="333.71,-257.83 344.23,-256.55 335.21,-251 333.71,-257.83"/>
</a>
</g>
</g>
<!-- Node6 -->
<g id="Node000006" class="node">
<title>Node6</title>
<g id="a_Node000006"><a xlink:href="a__dc__handler__configurer_8h.html" target="_top" xlink:title=" ">
<polygon fill="white" stroke="#666666" points="261,-123.5 115,-123.5 115,-82.5 261,-82.5 261,-123.5"/>
<text text-anchor="start" x="123" y="-111.5" font-family="Helvetica,sans-Serif" font-size="10.00">include/mosaic/auto</text>
<text text-anchor="start" x="123" y="-100.5" font-family="Helvetica,sans-Serif" font-size="10.00">_configurer/connector</text>
<text text-anchor="middle" x="188" y="-89.5" font-family="Helvetica,sans-Serif" font-size="10.00">/a_dc_handler_configurer.h</text>
</a>
</g>
</g>
<!-- Node5&#45;&gt;Node6 -->
<g id="edge6_Node000005_Node000006" class="edge">
<title>Node5&#45;&gt;Node6</title>
<g id="a_edge6_Node000005_Node000006"><a xlink:title=" ">
<path fill="none" stroke="#63b8ff" d="M334.32,-264.54C298.32,-257.22 258.24,-243.32 230,-217 203.36,-192.17 193.53,-148.89 189.97,-123.71"/>
<polygon fill="#63b8ff" stroke="#63b8ff" points="333.87,-268.01 344.35,-266.43 335.17,-261.14 333.87,-268.01"/>
</a>
</g>
</g>
<!-- Node7 -->
<g id="Node000007" class="node">
<title>Node7</title>
<g id="a_Node000007"><a xlink:href="a__mt__handler__configurer_8h.html" target="_top" xlink:title=" ">
<polygon fill="white" stroke="#666666" points="769.5,-211.5 620.5,-211.5 620.5,-170.5 769.5,-170.5 769.5,-211.5"/>
<text text-anchor="start" x="628.5" y="-199.5" font-family="Helvetica,sans-Serif" font-size="10.00">include/mosaic/auto</text>
<text text-anchor="start" x="628.5" y="-188.5" font-family="Helvetica,sans-Serif" font-size="10.00">_configurer/connector</text>
<text text-anchor="middle" x="695" y="-177.5" font-family="Helvetica,sans-Serif" font-size="10.00">/a_mt_handler_configurer.h</text>
</a>
</g>
</g>
<!-- Node5&#45;&gt;Node7 -->
<g id="edge8_Node000005_Node000007" class="edge">
<title>Node5&#45;&gt;Node7</title>
<g id="a_edge8_Node000005_Node000007"><a xlink:title=" ">
<path fill="none" stroke="#63b8ff" d="M495.96,-250.05C537.45,-237.95 588.16,-223.16 628.01,-211.54"/>
<polygon fill="#63b8ff" stroke="#63b8ff" points="494.78,-246.75 486.16,-252.91 496.74,-253.47 494.78,-246.75"/>
</a>
</g>
</g>
<!-- Node11 -->
<g id="Node000011" class="node">
<title>Node11</title>
<g id="a_Node000011"><a xlink:href="a__parallel__dc__handler__configurer_8h.html" target="_top" xlink:title=" ">
<polygon fill="white" stroke="#666666" points="440,-129 314,-129 314,-77 440,-77 440,-129"/>
<text text-anchor="start" x="322" y="-117" font-family="Helvetica,sans-Serif" font-size="10.00">include/mosaic/auto</text>
<text text-anchor="start" x="322" y="-106" font-family="Helvetica,sans-Serif" font-size="10.00">_configurer/connector</text>
<text text-anchor="start" x="322" y="-95" font-family="Helvetica,sans-Serif" font-size="10.00">/a_parallel_dc_handler</text>
<text text-anchor="middle" x="377" y="-84" font-family="Helvetica,sans-Serif" font-size="10.00">_configurer.h</text>
</a>
</g>
</g>
<!-- Node5&#45;&gt;Node11 -->
<g id="edge13_Node000005_Node000011" class="edge">
<title>Node5&#45;&gt;Node11</title>
<g id="a_edge13_Node000005_Node000011"><a xlink:title=" ">
<path fill="none" stroke="#63b8ff" d="M334.26,-266.95C300.23,-260.05 264.12,-245.81 243,-217 229.33,-198.36 230.49,-184.43 243,-165 258.84,-140.39 287.31,-125.59 313.96,-116.75"/>
<polygon fill="#63b8ff" stroke="#63b8ff" points="333.8,-270.42 344.26,-268.78 335.06,-263.54 333.8,-270.42"/>
</a>
</g>
</g>
<!-- Node12 -->
<g id="Node000012" class="node">
<title>Node12</title>
<g id="a_Node000012"><a xlink:href="configurable__connector__factory_8h.html" target="_top" xlink:title=" ">
<polygon fill="white" stroke="#666666" points="564.5,-217 431.5,-217 431.5,-165 564.5,-165 564.5,-217"/>
<text text-anchor="start" x="439.5" y="-205" font-family="Helvetica,sans-Serif" font-size="10.00">include/mosaic/auto</text>
<text text-anchor="start" x="439.5" y="-194" font-family="Helvetica,sans-Serif" font-size="10.00">_configurer/connector</text>
<text text-anchor="start" x="439.5" y="-183" font-family="Helvetica,sans-Serif" font-size="10.00">/configurable_connector</text>
<text text-anchor="middle" x="498" y="-172" font-family="Helvetica,sans-Serif" font-size="10.00">_factory.h</text>
</a>
</g>
</g>
<!-- Node5&#45;&gt;Node12 -->
<g id="edge15_Node000005_Node000012" class="edge">
<title>Node5&#45;&gt;Node12</title>
<g id="a_edge15_Node000005_Node000012"><a xlink:title=" ">
<path fill="none" stroke="#63b8ff" d="M445.75,-245.25C454.67,-236.16 464.56,-226.08 473.31,-217.16"/>
<polygon fill="#63b8ff" stroke="#63b8ff" points="443.03,-243.01 438.53,-252.6 448.03,-247.92 443.03,-243.01"/>
</a>
</g>
</g>
<!-- Node13 -->
<g id="Node000013" class="node">
<title>Node13</title>
<g id="a_Node000013"><a xlink:href="connector__resolver_8h.html" target="_top" xlink:title=" ">
<polygon fill="white" stroke="#666666" points="586,-123.5 464,-123.5 464,-82.5 586,-82.5 586,-123.5"/>
<text text-anchor="start" x="472" y="-111.5" font-family="Helvetica,sans-Serif" font-size="10.00">include/mosaic/auto</text>
<text text-anchor="start" x="472" y="-100.5" font-family="Helvetica,sans-Serif" font-size="10.00">_configurer/connector</text>
<text text-anchor="middle" x="525" y="-89.5" font-family="Helvetica,sans-Serif" font-size="10.00">/connector_resolver.h</text>
</a>
</g>
</g>
<!-- Node5&#45;&gt;Node13 -->
<g id="edge19_Node000005_Node000013" class="edge">
<title>Node5&#45;&gt;Node13</title>
<g id="a_edge19_Node000005_Node000013"><a xlink:title=" ">
<path fill="none" stroke="#63b8ff" d="M503.58,-261.42C530.21,-253.5 556.85,-239.99 573,-217 593.83,-187.35 565.83,-147.25 544.66,-123.65"/>
<polygon fill="#63b8ff" stroke="#63b8ff" points="502.52,-258.09 493.8,-264.1 504.36,-264.84 502.52,-258.09"/>
</a>
</g>
</g>
<!-- Node14 -->
<g id="Node000014" class="node">
<title>Node14</title>
<g id="a_Node000014"><a xlink:href="i__configurable__connector_8cpp.html" target="_top" xlink:title=" ">
<polygon fill="white" stroke="#666666" points="413.5,-206 252.5,-206 252.5,-176 413.5,-176 413.5,-206"/>
<text text-anchor="start" x="260.5" y="-194" font-family="Helvetica,sans-Serif" font-size="10.00">src/auto_configurer</text>
<text text-anchor="middle" x="333" y="-183" font-family="Helvetica,sans-Serif" font-size="10.00">/i_configurable_connector.cpp</text>
</a>
</g>
</g>
<!-- Node5&#45;&gt;Node14 -->
<g id="edge20_Node000005_Node000014" class="edge">
<title>Node5&#45;&gt;Node14</title>
<g id="a_edge20_Node000005_Node000014"><a xlink:title=" ">
<path fill="none" stroke="#63b8ff" d="M390.19,-245.53C376.09,-232.33 359.69,-216.98 348.08,-206.12"/>
<polygon fill="#63b8ff" stroke="#63b8ff" points="388.05,-248.32 397.74,-252.6 392.83,-243.21 388.05,-248.32"/>
</a>
</g>
</g>
<!-- Node6&#45;&gt;Node3 -->
<g id="edge7_Node000006_Node000003" class="edge">
<title>Node6&#45;&gt;Node3</title>
<g id="a_edge7_Node000006_Node000003"><a xlink:title=" ">
<path fill="none" stroke="#63b8ff" d="M245.32,-78.58C279.39,-64.66 321.48,-47.46 350.5,-35.6"/>
<polygon fill="#63b8ff" stroke="#63b8ff" points="243.87,-75.39 235.94,-82.41 246.52,-81.87 243.87,-75.39"/>
</a>
</g>
</g>
<!-- Node7&#45;&gt;Node3 -->
<g id="edge12_Node000007_Node000003" class="edge">
<title>Node7&#45;&gt;Node3</title>
<g id="a_edge12_Node000007_Node000003"><a xlink:title=" ">
<path fill="none" stroke="#63b8ff" d="M677.28,-161.79C659.56,-135.91 629.96,-98.43 595,-77 540.59,-43.65 517.66,-57.45 456,-41 449.45,-39.25 442.58,-37.39 435.78,-35.54"/>
<polygon fill="#63b8ff" stroke="#63b8ff" points="674.58,-164.04 683.04,-170.42 680.4,-160.16 674.58,-164.04"/>
</a>
</g>
</g>
<!-- Node8 -->
<g id="Node000008" class="node">
<title>Node8</title>
<g id="a_Node000008"><a xlink:href="opencv__camera__mt__handler_8h.html" target="_top" xlink:title=" ">
<polygon fill="white" stroke="#666666" points="959,-123.5 825,-123.5 825,-82.5 959,-82.5 959,-123.5"/>
<text text-anchor="start" x="833" y="-111.5" font-family="Helvetica,sans-Serif" font-size="10.00">include/mosaic/auto</text>
<text text-anchor="start" x="833" y="-100.5" font-family="Helvetica,sans-Serif" font-size="10.00">_configurer/impl/opencv</text>
<text text-anchor="middle" x="892" y="-89.5" font-family="Helvetica,sans-Serif" font-size="10.00">_camera_mt_handler.h</text>
</a>
</g>
</g>
<!-- Node7&#45;&gt;Node8 -->
<g id="edge9_Node000007_Node000008" class="edge">
<title>Node7&#45;&gt;Node8</title>
<g id="a_edge9_Node000007_Node000008"><a xlink:title=" ">
<path fill="none" stroke="#63b8ff" d="M749.01,-166.42C779.82,-152.97 817.99,-136.31 847.13,-123.59"/>
<polygon fill="#63b8ff" stroke="#63b8ff" points="747.47,-163.28 739.7,-170.49 750.27,-169.69 747.47,-163.28"/>
</a>
</g>
</g>
<!-- Node9 -->
<g id="Node000009" class="node">
<title>Node9</title>
<g id="a_Node000009"><a xlink:href="connector__resolver_8cpp.html" target="_top" xlink:title=" ">
<polygon fill="white" stroke="#666666" points="597,-35.5 465,-35.5 465,-5.5 597,-5.5 597,-35.5"/>
<text text-anchor="start" x="473" y="-23.5" font-family="Helvetica,sans-Serif" font-size="10.00">src/auto_configurer</text>
<text text-anchor="middle" x="531" y="-12.5" font-family="Helvetica,sans-Serif" font-size="10.00">/connector_resolver.cpp</text>
</a>
</g>
</g>
<!-- Node8&#45;&gt;Node9 -->
<g id="edge10_Node000008_Node000009" class="edge">
<title>Node8&#45;&gt;Node9</title>
<g id="a_edge10_Node000008_Node000009"><a xlink:title=" ">
<path fill="none" stroke="#63b8ff" d="M821.32,-79.72C817.84,-78.77 814.38,-77.86 811,-77 738.45,-58.67 654.07,-42.65 597.06,-32.6"/>
<polygon fill="#63b8ff" stroke="#63b8ff" points="820.58,-83.15 831.16,-82.48 822.47,-76.41 820.58,-83.15"/>
</a>
</g>
</g>
<!-- Node10 -->
<g id="Node000010" class="node">
<title>Node10</title>
<g id="a_Node000010"><a xlink:href="opencv__camera__mt__handler_8cpp.html" target="_top" xlink:title=" ">
<polygon fill="white" stroke="#666666" points="953,-41 831,-41 831,0 953,0 953,-41"/>
<text text-anchor="start" x="839" y="-29" font-family="Helvetica,sans-Serif" font-size="10.00">src/auto_configurer</text>
<text text-anchor="start" x="839" y="-18" font-family="Helvetica,sans-Serif" font-size="10.00">/impl/opencv_camera</text>
<text text-anchor="middle" x="892" y="-7" font-family="Helvetica,sans-Serif" font-size="10.00">_mt_handler.cpp</text>
</a>
</g>
</g>
<!-- Node8&#45;&gt;Node10 -->
<g id="edge11_Node000008_Node000010" class="edge">
<title>Node8&#45;&gt;Node10</title>
<g id="a_edge11_Node000008_Node000010"><a xlink:title=" ">
<path fill="none" stroke="#63b8ff" d="M892,-71.87C892,-61.6 892,-50.4 892,-41.17"/>
<polygon fill="#63b8ff" stroke="#63b8ff" points="888.5,-72.1 892,-82.1 895.5,-72.1 888.5,-72.1"/>
</a>
</g>
</g>
<!-- Node11&#45;&gt;Node3 -->
<g id="edge14_Node000011_Node000003" class="edge">
<title>Node11&#45;&gt;Node3</title>
<g id="a_edge14_Node000011_Node000003"><a xlink:title=" ">
<path fill="none" stroke="#63b8ff" d="M380.5,-66.81C381.58,-55.95 382.71,-44.59 383.56,-35.96"/>
<polygon fill="#63b8ff" stroke="#63b8ff" points="376.99,-66.67 379.49,-76.97 383.96,-67.37 376.99,-66.67"/>
</a>
</g>
</g>
<!-- Node12&#45;&gt;Node13 -->
<g id="edge16_Node000012_Node000013" class="edge">
<title>Node12&#45;&gt;Node13</title>
<g id="a_edge16_Node000012_Node000013"><a xlink:title=" ">
<path fill="none" stroke="#63b8ff" d="M508.95,-155.11C512.31,-144.41 515.89,-133.01 518.81,-123.7"/>
<polygon fill="#63b8ff" stroke="#63b8ff" points="505.61,-154.07 505.95,-164.66 512.29,-156.17 505.61,-154.07"/>
</a>
</g>
</g>
<!-- Node13&#45;&gt;Node3 -->
<g id="edge17_Node000013_Node000003" class="edge">
<title>Node13&#45;&gt;Node3</title>
<g id="a_edge17_Node000013_Node000003"><a xlink:title=" ">
<path fill="none" stroke="#63b8ff" d="M481.93,-77.23C458.21,-63.6 429.63,-47.16 409.68,-35.69"/>
<polygon fill="#63b8ff" stroke="#63b8ff" points="480.34,-80.36 490.75,-82.31 483.83,-74.29 480.34,-80.36"/>
</a>
</g>
</g>
<!-- Node13&#45;&gt;Node9 -->
<g id="edge18_Node000013_Node000009" class="edge">
<title>Node13&#45;&gt;Node9</title>
<g id="a_edge18_Node000013_Node000009"><a xlink:title=" ">
<path fill="none" stroke="#63b8ff" d="M527.25,-71.76C528.17,-59.46 529.19,-45.83 529.93,-35.87"/>
<polygon fill="#63b8ff" stroke="#63b8ff" points="523.74,-71.87 526.48,-82.1 530.72,-72.39 523.74,-71.87"/>
</a>
</g>
</g>
<!-- Node15&#45;&gt;Node3 -->
<g id="edge22_Node000015_Node000003" class="edge">
<title>Node15&#45;&gt;Node3</title>
<g id="a_edge22_Node000015_Node000003"><a xlink:title=" ">
<path fill="none" stroke="#63b8ff" d="M860.93,-252.72C846.38,-242.94 829.46,-230.37 816,-217 795.69,-196.83 798.94,-184.52 778,-165 724.25,-114.88 706.3,-104.14 638,-77 561.37,-46.55 536.25,-59.93 456,-41 449.03,-39.36 441.72,-37.5 434.54,-35.6"/>
<polygon fill="#63b8ff" stroke="#63b8ff" points="859.35,-255.87 869.63,-258.43 863.2,-250.02 859.35,-255.87"/>
</a>
</g>
</g>
<!-- Node16 -->
<g id="Node000016" class="node">
<title>Node16</title>
<g id="a_Node000016"><a xlink:href="mosaic__connector__factory_8cpp.html" target="_top" xlink:title=" ">
<polygon fill="white" stroke="#666666" points="971,-206 825,-206 825,-176 971,-176 971,-206"/>
<text text-anchor="start" x="833" y="-194" font-family="Helvetica,sans-Serif" font-size="10.00">src/core/mosaic_connector</text>
<text text-anchor="middle" x="898" y="-183" font-family="Helvetica,sans-Serif" font-size="10.00">_factory.cpp</text>
</a>
</g>
</g>
<!-- Node15&#45;&gt;Node16 -->
<g id="edge23_Node000015_Node000016" class="edge">
<title>Node15&#45;&gt;Node16</title>
<g id="a_edge23_Node000015_Node000016"><a xlink:title=" ">
<path fill="none" stroke="#63b8ff" d="M894.51,-248.24C895.36,-234.48 896.4,-217.75 897.12,-206.13"/>
<polygon fill="#63b8ff" stroke="#63b8ff" points="891,-248.28 893.87,-258.48 897.98,-248.71 891,-248.28"/>
</a>
</g>
</g>
<!-- Node17&#45;&gt;Node4 -->
<g id="edge25_Node000017_Node000004" class="edge">
<title>Node17&#45;&gt;Node4</title>
<g id="a_edge25_Node000017_Node000004"><a xlink:title=" ">
<path fill="none" stroke="#63b8ff" d="M1474,-291.18C1421.14,-304.77 1345.28,-323.7 1293.23,-336.26"/>
<polygon fill="#63b8ff" stroke="#63b8ff" points="1475.11,-294.51 1483.92,-288.62 1473.37,-287.73 1475.11,-294.51"/>
</a>
</g>
</g>
<!-- Node18 -->
<g id="Node000018" class="node">
<title>Node18</title>
<g id="a_Node000018"><a xlink:href="peer__connection__manager_8cpp.html" target="_top" xlink:title=" ">
<polygon fill="white" stroke="#666666" points="1611,-206 1473,-206 1473,-176 1611,-176 1611,-206"/>
<text text-anchor="start" x="1481" y="-194" font-family="Helvetica,sans-Serif" font-size="10.00">src/core/peer_connection</text>
<text text-anchor="middle" x="1542" y="-183" font-family="Helvetica,sans-Serif" font-size="10.00">_manager.cpp</text>
</a>
</g>
</g>
<!-- Node17&#45;&gt;Node18 -->
<g id="edge26_Node000017_Node000018" class="edge">
<title>Node17&#45;&gt;Node18</title>
<g id="a_edge26_Node000017_Node000018"><a xlink:title=" ">
<path fill="none" stroke="#63b8ff" d="M1537.11,-248.24C1538.31,-234.48 1539.76,-217.75 1540.77,-206.13"/>
<polygon fill="#63b8ff" stroke="#63b8ff" points="1533.6,-248.21 1536.22,-258.48 1540.57,-248.82 1533.6,-248.21"/>
</a>
</g>
</g>
<!-- Node19&#45;&gt;Node18 -->
<g id="edge29_Node000019_Node000018" class="edge">
<title>Node19&#45;&gt;Node18</title>
<g id="a_edge29_Node000019_Node000018"><a xlink:title=" ">
<path fill="none" stroke="#63b8ff" d="M1401.08,-254.33C1434.07,-239.74 1479.75,-219.53 1510.05,-206.13"/>
<polygon fill="#63b8ff" stroke="#63b8ff" points="1399.43,-251.23 1391.7,-258.48 1402.26,-257.63 1399.43,-251.23"/>
</a>
</g>
</g>
<!-- Node19&#45;&gt;Node20 -->
<g id="edge28_Node000019_Node000020" class="edge">
<title>Node19&#45;&gt;Node20</title>
<g id="a_edge28_Node000019_Node000020"><a xlink:title=" ">
<path fill="none" stroke="#63b8ff" d="M1326.07,-253.53C1296.16,-236.81 1253.95,-213.22 1231.49,-200.66"/>
<polygon fill="#63b8ff" stroke="#63b8ff" points="1324.48,-256.65 1334.92,-258.48 1327.9,-250.54 1324.48,-256.65"/>
</a>
</g>
</g>
<!-- Node19&#45;&gt;Node21 -->
<g id="edge30_Node000019_Node000021" class="edge">
<title>Node19&#45;&gt;Node21</title>
<g id="a_edge30_Node000019_Node000021"><a xlink:title=" ">
<path fill="none" stroke="#63b8ff" d="M1367.7,-248.65C1372.17,-234.81 1377.65,-217.87 1381.44,-206.13"/>
<polygon fill="#63b8ff" stroke="#63b8ff" points="1364.27,-247.89 1364.53,-258.48 1370.93,-250.04 1364.27,-247.89"/>
</a>
</g>
</g>
<!-- Node22&#45;&gt;Node16 -->
<g id="edge32_Node000022_Node000016" class="edge">
<title>Node22&#45;&gt;Node16</title>
<g id="a_edge32_Node000022_Node000016"><a xlink:title=" ">
<path fill="none" stroke="#63b8ff" d="M1020.37,-253.95C991.61,-239.39 952.16,-219.42 925.91,-206.13"/>
<polygon fill="#63b8ff" stroke="#63b8ff" points="1018.8,-257.08 1029.3,-258.48 1021.96,-250.84 1018.8,-257.08"/>
</a>
</g>
</g>
<!-- Node23 -->
<g id="Node000023" class="node">
<title>Node23</title>
<g id="a_Node000023"><a xlink:href="signaling__client_8cpp.html" target="_top" xlink:title=" ">
<polygon fill="white" stroke="#666666" points="1114.5,-206 989.5,-206 989.5,-176 1114.5,-176 1114.5,-206"/>
<text text-anchor="start" x="997.5" y="-194" font-family="Helvetica,sans-Serif" font-size="10.00">src/signaling/signaling</text>
<text text-anchor="middle" x="1052" y="-183" font-family="Helvetica,sans-Serif" font-size="10.00">_client.cpp</text>
</a>
</g>
</g>
<!-- Node22&#45;&gt;Node23 -->
<g id="edge33_Node000022_Node000023" class="edge">
<title>Node22&#45;&gt;Node23</title>
<g id="a_edge33_Node000022_Node000023"><a xlink:title=" ">
<path fill="none" stroke="#63b8ff" d="M1055.49,-248.24C1054.64,-234.48 1053.6,-217.75 1052.88,-206.13"/>
<polygon fill="#63b8ff" stroke="#63b8ff" points="1052.02,-248.71 1056.13,-258.48 1059,-248.28 1052.02,-248.71"/>
</a>
</g>
</g>
<!-- Node25 -->
<g id="Node000025" class="node">
<title>Node25</title>
<g id="a_Node000025"><a xlink:href="data__channel__receivable_8h.html" target="_top" xlink:title=" ">
<polygon fill="white" stroke="#666666" points="1959.5,-294 1806.5,-294 1806.5,-253 1959.5,-253 1959.5,-294"/>
<text text-anchor="start" x="1814.5" y="-282" font-family="Helvetica,sans-Serif" font-size="10.00">include/mosaic/handlers</text>
<text text-anchor="start" x="1814.5" y="-271" font-family="Helvetica,sans-Serif" font-size="10.00">/data_channel/data_channel</text>
<text text-anchor="middle" x="1883" y="-260" font-family="Helvetica,sans-Serif" font-size="10.00">_receivable.h</text>
</a>
</g>
</g>
<!-- Node24&#45;&gt;Node25 -->
<g id="edge37_Node000024_Node000025" class="edge">
<title>Node24&#45;&gt;Node25</title>
<g id="a_edge37_Node000024_Node000025"><a xlink:title=" ">
<path fill="none" stroke="#63b8ff" d="M1826.66,-323.07C1837.73,-313.52 1850.02,-302.93 1860.29,-294.07"/>
<polygon fill="#63b8ff" stroke="#63b8ff" points="1824.15,-320.61 1818.86,-329.79 1828.72,-325.92 1824.15,-320.61"/>
</a>
</g>
</g>
<!-- Node26 -->
<g id="Node000026" class="node">
<title>Node26</title>
<g id="a_Node000026"><a xlink:href="a__data__channel__handler_8cpp.html" target="_top" xlink:title=" ">
<polygon fill="white" stroke="#666666" points="2140,-206 1982,-206 1982,-176 2140,-176 2140,-206"/>
<text text-anchor="start" x="1990" y="-194" font-family="Helvetica,sans-Serif" font-size="10.00">src/handlers/data_channel</text>
<text text-anchor="middle" x="2061" y="-183" font-family="Helvetica,sans-Serif" font-size="10.00">/a_data_channel_handler.cpp</text>
</a>
</g>
</g>
<!-- Node24&#45;&gt;Node26 -->
<g id="edge42_Node000024_Node000026" class="edge">
<title>Node24&#45;&gt;Node26</title>
<g id="a_edge42_Node000024_Node000026"><a xlink:title=" ">
<path fill="none" stroke="#63b8ff" d="M1888.07,-329.39C1915.13,-321 1943.91,-309.5 1968,-294 2005.08,-270.14 2036.9,-227.88 2051.87,-206"/>
<polygon fill="#63b8ff" stroke="#63b8ff" points="1886.77,-326.13 1878.19,-332.34 1888.77,-332.83 1886.77,-326.13"/>
</a>
</g>
</g>
<!-- Node28 -->
<g id="Node000028" class="node">
<title>Node28</title>
<g id="a_Node000028"><a xlink:href="data__channel__sendable_8h.html" target="_top" xlink:title=" ">
<polygon fill="white" stroke="#666666" points="1786.5,-294 1633.5,-294 1633.5,-253 1786.5,-253 1786.5,-294"/>
<text text-anchor="start" x="1641.5" y="-282" font-family="Helvetica,sans-Serif" font-size="10.00">include/mosaic/handlers</text>
<text text-anchor="start" x="1641.5" y="-271" font-family="Helvetica,sans-Serif" font-size="10.00">/data_channel/data_channel</text>
<text text-anchor="middle" x="1710" y="-260" font-family="Helvetica,sans-Serif" font-size="10.00">_sendable.h</text>
</a>
</g>
</g>
<!-- Node24&#45;&gt;Node28 -->
<g id="edge40_Node000024_Node000028" class="edge">
<title>Node24&#45;&gt;Node28</title>
<g id="a_edge40_Node000024_Node000028"><a xlink:title=" ">
<path fill="none" stroke="#63b8ff" d="M1765.69,-323.07C1754.75,-313.52 1742.6,-302.93 1732.44,-294.07"/>
<polygon fill="#63b8ff" stroke="#63b8ff" points="1763.57,-325.86 1773.4,-329.79 1768.17,-320.58 1763.57,-325.86"/>
</a>
</g>
</g>
<!-- Node25&#45;&gt;Node26 -->
<g id="edge38_Node000025_Node000026" class="edge">
<title>Node25&#45;&gt;Node26</title>
<g id="a_edge38_Node000025_Node000026"><a xlink:title=" ">
<path fill="none" stroke="#63b8ff" d="M1935.81,-248.62C1966.44,-234.76 2003.97,-217.79 2029.9,-206.06"/>
<polygon fill="#63b8ff" stroke="#63b8ff" points="1934.21,-245.5 1926.54,-252.81 1937.1,-251.88 1934.21,-245.5"/>
</a>
</g>
</g>
<!-- Node27 -->
<g id="Node000027" class="node">
<title>Node27</title>
<g id="a_Node000027"><a xlink:href="data__channel__receivable_8cpp.html" target="_top" xlink:title=" ">
<polygon fill="white" stroke="#666666" points="1963.5,-206 1802.5,-206 1802.5,-176 1963.5,-176 1963.5,-206"/>
<text text-anchor="start" x="1810.5" y="-194" font-family="Helvetica,sans-Serif" font-size="10.00">src/handlers/data_channel</text>
<text text-anchor="middle" x="1883" y="-183" font-family="Helvetica,sans-Serif" font-size="10.00">/data_channel_receivable.cpp</text>
</a>
</g>
</g>
<!-- Node25&#45;&gt;Node27 -->
<g id="edge39_Node000025_Node000027" class="edge">
<title>Node25&#45;&gt;Node27</title>
<g id="a_edge39_Node000025_Node000027"><a xlink:title=" ">
<path fill="none" stroke="#63b8ff" d="M1883,-242.26C1883,-229.96 1883,-216.33 1883,-206.37"/>
<polygon fill="#63b8ff" stroke="#63b8ff" points="1879.5,-242.6 1883,-252.6 1886.5,-242.6 1879.5,-242.6"/>
</a>
</g>
</g>
<!-- Node29 -->
<g id="Node000029" class="node">
<title>Node29</title>
<g id="a_Node000029"><a xlink:href="data__channel__sendable_8cpp.html" target="_top" xlink:title=" ">
<polygon fill="white" stroke="#666666" points="1784.5,-206 1629.5,-206 1629.5,-176 1784.5,-176 1784.5,-206"/>
<text text-anchor="start" x="1637.5" y="-194" font-family="Helvetica,sans-Serif" font-size="10.00">src/handlers/data_channel</text>
<text text-anchor="middle" x="1707" y="-183" font-family="Helvetica,sans-Serif" font-size="10.00">/data_channel_sendable.cpp</text>
</a>
</g>
</g>
<!-- Node28&#45;&gt;Node29 -->
<g id="edge41_Node000028_Node000029" class="edge">
<title>Node28&#45;&gt;Node29</title>
<g id="a_edge41_Node000028_Node000029"><a xlink:title=" ">
<path fill="none" stroke="#63b8ff" d="M1708.87,-242.26C1708.41,-229.96 1707.91,-216.33 1707.54,-206.37"/>
<polygon fill="#63b8ff" stroke="#63b8ff" points="1705.39,-242.74 1709.26,-252.6 1712.38,-242.48 1705.39,-242.74"/>
</a>
</g>
</g>
</g>
</svg>
