<?xml version="1.0" encoding="UTF-8" standalone="no"?>
<!DOCTYPE svg PUBLIC "-//W3C//DTD SVG 1.1//EN"
 "http://www.w3.org/Graphics/SVG/1.1/DTD/svg11.dtd">
<!-- Generated by graphviz version 2.43.0 (0)
 -->
<!-- Title: include/mosaic/security/i_mosaic_authenticator.h Pages: 1 -->
<!--zoomable 566 -->

<svg id="main" version="1.1" xmlns="http://www.w3.org/2000/svg" xmlns:xlink="http://www.w3.org/1999/xlink" xml:space="preserve" onload="init(evt)">
<style type="text/css"><![CDATA[
.node, .edge {opacity: 0.7;}
.node.selected, .edge.selected {opacity: 1;}
.edge:hover path { stroke: red; }
.edge:hover polygon { stroke: red; fill: red; }
]]></style>

<defs>
  <circle id="rim" cx="0" cy="0" r="7"/>
  <circle id="rim2" cx="0" cy="0" r="3.5"/>
  <g id="zoomPlus">
    <use xlink:href="#rim" fill="#404040"><set attributeName="fill" to="#808080" begin="zoomplus.mouseover" end="zoomplus.mouseout"/></use>
    <path d="M-4,0h8M0,-4v8" fill="none" stroke="white" stroke-width="1.5" pointer-events="none"/>
  </g>
  <g id="zoomMin">
    <use xlink:href="#rim" fill="#404040"><set attributeName="fill" to="#808080" begin="zoomminus.mouseover" end="zoomminus.mouseout"/></use>
    <path d="M-4,0h8" fill="none" stroke="white" stroke-width="1.5" pointer-events="none"/>
  </g>
  <g id="arrowUp" transform="translate(30 24)">
    <use xlink:href="#rim"/>
    <path pointer-events="none" fill="none" stroke="white" stroke-width="1.5" d="M0,-3.0v7 M-2.5,-0.5L0,-3.0L2.5,-0.5"/>
  </g>
  <g id="arrowRight" transform="rotate(90) translate(36 -43)">
    <use xlink:href="#rim"/>
    <path pointer-events="none" fill="none" stroke="white" stroke-width="1.5" d="M0,-3.0v7 M-2.5,-0.5L0,-3.0L2.5,-0.5"/>
  </g>
  <g id="arrowDown" transform="rotate(180) translate(-30 -48)">
    <use xlink:href="#rim"/>
    <path pointer-events="none" fill="none" stroke="white" stroke-width="1.5" d="M0,-3.0v7 M-2.5,-0.5L0,-3.0L2.5,-0.5"/>
  </g>
  <g id="arrowLeft" transform="rotate(270) translate(-36 17)">
    <use xlink:href="#rim"/>
    <path pointer-events="none" fill="none" stroke="white" stroke-width="1.5" d="M0,-3.0v7 M-2.5,-0.5L0,-3.0L2.5,-0.5"/>
  </g>
  <g id="resetDef">
    <use xlink:href="#rim2" fill="#404040"><set attributeName="fill" to="#808080" begin="reset.mouseover" end="reset.mouseout"/></use>
  </g>
</defs>
<script type="application/ecmascript">
var viewWidth = 1567;
var viewHeight = 566;
var sectionId = 'dynsection-1';
</script>
<script type="application/ecmascript" xlink:href="svg.min.js"/>
<svg id="graph" class="graph">
<g id="viewport">
<title>include/mosaic/security/i_mosaic_authenticator.h</title>
<!-- Node1 -->
<g id="Node000001" class="node">
<title>Node1</title>
<g id="a_Node000001"><a xlink:title=" ">
<polygon fill="#999999" stroke="#666666" points="338,-558 196,-558 196,-528 338,-528 338,-558"/>
<text text-anchor="start" x="204" y="-546" font-family="Helvetica,sans-Serif" font-size="10.00">include/mosaic/security</text>
<text text-anchor="middle" x="267" y="-535" font-family="Helvetica,sans-Serif" font-size="10.00">/i_mosaic_authenticator.h</text>
</a>
</g>
</g>
<!-- Node2 -->
<g id="Node000002" class="node">
<title>Node2</title>
<g id="a_Node000002"><a xlink:href="a__mosaic__authenticator_8h.html" target="_top" xlink:title=" ">
<polygon fill="white" stroke="#666666" points="427.5,-492 282.5,-492 282.5,-462 427.5,-462 427.5,-492"/>
<text text-anchor="start" x="290.5" y="-480" font-family="Helvetica,sans-Serif" font-size="10.00">include/mosaic/security</text>
<text text-anchor="middle" x="355" y="-469" font-family="Helvetica,sans-Serif" font-size="10.00">/a_mosaic_authenticator.h</text>
</a>
</g>
</g>
<!-- Node1&#45;&gt;Node2 -->
<g id="edge1_Node000001_Node000002" class="edge">
<title>Node1&#45;&gt;Node2</title>
<g id="a_edge1_Node000001_Node000002"><a xlink:title=" ">
<path fill="none" stroke="#63b8ff" d="M294.84,-521.75C308.07,-512.13 323.57,-500.86 335.52,-492.16"/>
<polygon fill="#63b8ff" stroke="#63b8ff" points="292.56,-519.08 286.53,-527.8 296.68,-524.75 292.56,-519.08"/>
</a>
</g>
</g>
<!-- Node9 -->
<g id="Node000009" class="node">
<title>Node9</title>
<g id="a_Node000009"><a xlink:href="authenticator__factory_8h.html" target="_top" xlink:title=" ">
<polygon fill="white" stroke="#666666" points="255,-492 123,-492 123,-462 255,-462 255,-492"/>
<text text-anchor="start" x="131" y="-480" font-family="Helvetica,sans-Serif" font-size="10.00">include/mosaic/security</text>
<text text-anchor="middle" x="189" y="-469" font-family="Helvetica,sans-Serif" font-size="10.00">/authenticator_factory.h</text>
</a>
</g>
</g>
<!-- Node1&#45;&gt;Node9 -->
<g id="edge9_Node000001_Node000009" class="edge">
<title>Node1&#45;&gt;Node9</title>
<g id="a_edge9_Node000001_Node000009"><a xlink:title=" ">
<path fill="none" stroke="#63b8ff" d="M241.65,-521.2C230.07,-511.7 216.65,-500.69 206.26,-492.16"/>
<polygon fill="#63b8ff" stroke="#63b8ff" points="239.74,-524.16 249.69,-527.8 244.18,-518.75 239.74,-524.16"/>
</a>
</g>
</g>
<!-- Node10 -->
<g id="Node000010" class="node">
<title>Node10</title>
<g id="a_Node000010"><a xlink:href="authenticator__resolver_8h.html" target="_top" xlink:title=" ">
<polygon fill="white" stroke="#666666" points="138,-426 0,-426 0,-396 138,-396 138,-426"/>
<text text-anchor="start" x="8" y="-414" font-family="Helvetica,sans-Serif" font-size="10.00">include/mosaic/security</text>
<text text-anchor="middle" x="69" y="-403" font-family="Helvetica,sans-Serif" font-size="10.00">/authenticator_resolver.h</text>
</a>
</g>
</g>
<!-- Node1&#45;&gt;Node10 -->
<g id="edge13_Node000001_Node000010" class="edge">
<title>Node1&#45;&gt;Node10</title>
<g id="a_edge13_Node000001_Node000010"><a xlink:title=" ">
<path fill="none" stroke="#63b8ff" d="M185.85,-527.5C160.83,-520.04 134.5,-508.82 114,-492 92.69,-474.51 79.63,-444.13 73.4,-426.26"/>
<polygon fill="#63b8ff" stroke="#63b8ff" points="185.15,-530.94 195.72,-530.28 187.04,-524.21 185.15,-530.94"/>
</a>
</g>
</g>
<!-- Node12 -->
<g id="Node000012" class="node">
<title>Node12</title>
<g id="a_Node000012"><a xlink:href="i__signaling__client_8h.html" target="_top" xlink:title=" ">
<polygon fill="white" stroke="#666666" points="836.5,-492 699.5,-492 699.5,-462 836.5,-462 836.5,-492"/>
<text text-anchor="start" x="707.5" y="-480" font-family="Helvetica,sans-Serif" font-size="10.00">include/mosaic/signaling</text>
<text text-anchor="middle" x="768" y="-469" font-family="Helvetica,sans-Serif" font-size="10.00">/i_signaling_client.h</text>
</a>
</g>
</g>
<!-- Node1&#45;&gt;Node12 -->
<g id="edge14_Node000001_Node000012" class="edge">
<title>Node1&#45;&gt;Node12</title>
<g id="a_edge14_Node000001_Node000012"><a xlink:title=" ">
<path fill="none" stroke="#63b8ff" d="M348.36,-531.61C445.97,-519.14 607.86,-498.46 699.41,-486.76"/>
<polygon fill="#63b8ff" stroke="#63b8ff" points="347.72,-528.16 338.25,-532.9 348.61,-535.1 347.72,-528.16"/>
</a>
</g>
</g>
<!-- Node3 -->
<g id="Node000003" class="node">
<title>Node3</title>
<g id="a_Node000003"><a xlink:href="no__auth__authenticator_8h.html" target="_top" xlink:title=" ">
<polygon fill="white" stroke="#666666" points="664,-426 502,-426 502,-396 664,-396 664,-426"/>
<text text-anchor="start" x="510" y="-414" font-family="Helvetica,sans-Serif" font-size="10.00">include/mosaic/security</text>
<text text-anchor="middle" x="583" y="-403" font-family="Helvetica,sans-Serif" font-size="10.00">/impl/no_auth_authenticator.h</text>
</a>
</g>
</g>
<!-- Node2&#45;&gt;Node3 -->
<g id="edge2_Node000002_Node000003" class="edge">
<title>Node2&#45;&gt;Node3</title>
<g id="a_edge2_Node000002_Node000003"><a xlink:title=" ">
<path fill="none" stroke="#63b8ff" d="M415.13,-459.12C451.89,-448.8 498.36,-435.76 533.08,-426.01"/>
<polygon fill="#63b8ff" stroke="#63b8ff" points="413.72,-455.88 405.04,-461.95 415.61,-462.62 413.72,-455.88"/>
</a>
</g>
</g>
<!-- Node6 -->
<g id="Node000006" class="node">
<title>Node6</title>
<g id="a_Node000006"><a xlink:href="simple__token__authenticator_8h.html" target="_top" xlink:title=" ">
<polygon fill="white" stroke="#666666" points="484,-426 296,-426 296,-396 484,-396 484,-426"/>
<text text-anchor="start" x="304" y="-414" font-family="Helvetica,sans-Serif" font-size="10.00">include/mosaic/security</text>
<text text-anchor="middle" x="390" y="-403" font-family="Helvetica,sans-Serif" font-size="10.00">/impl/simple_token_authenticator.h</text>
</a>
</g>
</g>
<!-- Node2&#45;&gt;Node6 -->
<g id="edge5_Node000002_Node000006" class="edge">
<title>Node2&#45;&gt;Node6</title>
<g id="a_edge5_Node000002_Node000006"><a xlink:title=" ">
<path fill="none" stroke="#63b8ff" d="M367.6,-452.96C372.5,-444 377.95,-434.03 382.25,-426.16"/>
<polygon fill="#63b8ff" stroke="#63b8ff" points="364.5,-451.34 362.77,-461.8 370.64,-454.7 364.5,-451.34"/>
</a>
</g>
</g>
<!-- Node8 -->
<g id="Node000008" class="node">
<title>Node8</title>
<g id="a_Node000008"><a xlink:href="a__mosaic__authenticator_8cpp.html" target="_top" xlink:title=" ">
<polygon fill="white" stroke="#666666" points="278,-426 156,-426 156,-396 278,-396 278,-426"/>
<text text-anchor="start" x="164" y="-414" font-family="Helvetica,sans-Serif" font-size="10.00">src/security/a_mosaic</text>
<text text-anchor="middle" x="217" y="-403" font-family="Helvetica,sans-Serif" font-size="10.00">_authenticator.cpp</text>
</a>
</g>
</g>
<!-- Node2&#45;&gt;Node8 -->
<g id="edge8_Node000002_Node000008" class="edge">
<title>Node2&#45;&gt;Node8</title>
<g id="a_edge8_Node000002_Node000008"><a xlink:title=" ">
<path fill="none" stroke="#63b8ff" d="M315.43,-457.65C293.73,-447.58 267.24,-435.3 247.21,-426.01"/>
<polygon fill="#63b8ff" stroke="#63b8ff" points="314.17,-460.92 324.72,-461.95 317.12,-454.57 314.17,-460.92"/>
</a>
</g>
</g>
<!-- Node4 -->
<g id="Node000004" class="node">
<title>Node4</title>
<g id="a_Node000004"><a xlink:href="authenticator__resolver_8cpp.html" target="_top" xlink:title=" ">
<polygon fill="white" stroke="#666666" points="430.5,-360 289.5,-360 289.5,-330 430.5,-330 430.5,-360"/>
<text text-anchor="start" x="297.5" y="-348" font-family="Helvetica,sans-Serif" font-size="10.00">src/security/authenticator</text>
<text text-anchor="middle" x="360" y="-337" font-family="Helvetica,sans-Serif" font-size="10.00">_resolver.cpp</text>
</a>
</g>
</g>
<!-- Node3&#45;&gt;Node4 -->
<g id="edge3_Node000003_Node000004" class="edge">
<title>Node3&#45;&gt;Node4</title>
<g id="a_edge3_Node000003_Node000004"><a xlink:title=" ">
<path fill="none" stroke="#63b8ff" d="M524.19,-393.12C488.23,-382.8 442.78,-369.76 408.82,-360.01"/>
<polygon fill="#63b8ff" stroke="#63b8ff" points="523.48,-396.56 534.06,-395.95 525.42,-389.83 523.48,-396.56"/>
</a>
</g>
</g>
<!-- Node5 -->
<g id="Node000005" class="node">
<title>Node5</title>
<g id="a_Node000005"><a xlink:href="no__auth__authenticator_8cpp.html" target="_top" xlink:title=" ">
<polygon fill="white" stroke="#666666" points="740,-360 606,-360 606,-330 740,-330 740,-360"/>
<text text-anchor="start" x="614" y="-348" font-family="Helvetica,sans-Serif" font-size="10.00">src/security/impl/no</text>
<text text-anchor="middle" x="673" y="-337" font-family="Helvetica,sans-Serif" font-size="10.00">_auth_authenticator.cpp</text>
</a>
</g>
</g>
<!-- Node3&#45;&gt;Node5 -->
<g id="edge4_Node000003_Node000005" class="edge">
<title>Node3&#45;&gt;Node5</title>
<g id="a_edge4_Node000003_Node000005"><a xlink:title=" ">
<path fill="none" stroke="#63b8ff" d="M611.47,-389.75C625.01,-380.13 640.86,-368.86 653.08,-360.16"/>
<polygon fill="#63b8ff" stroke="#63b8ff" points="609.1,-387.15 602.97,-395.8 613.15,-392.85 609.1,-387.15"/>
</a>
</g>
</g>
<!-- Node6&#45;&gt;Node4 -->
<g id="edge6_Node000006_Node000004" class="edge">
<title>Node6&#45;&gt;Node4</title>
<g id="a_edge6_Node000006_Node000004"><a xlink:title=" ">
<path fill="none" stroke="#63b8ff" d="M379.07,-386.68C374.9,-377.79 370.29,-367.95 366.64,-360.16"/>
<polygon fill="#63b8ff" stroke="#63b8ff" points="375.93,-388.23 383.34,-395.8 382.27,-385.26 375.93,-388.23"/>
</a>
</g>
</g>
<!-- Node7 -->
<g id="Node000007" class="node">
<title>Node7</title>
<g id="a_Node000007"><a xlink:href="simple__token__authenticator_8cpp.html" target="_top" xlink:title=" ">
<polygon fill="white" stroke="#666666" points="587.5,-360 448.5,-360 448.5,-330 587.5,-330 587.5,-360"/>
<text text-anchor="start" x="456.5" y="-348" font-family="Helvetica,sans-Serif" font-size="10.00">src/security/impl/simple</text>
<text text-anchor="middle" x="518" y="-337" font-family="Helvetica,sans-Serif" font-size="10.00">_token_authenticator.cpp</text>
</a>
</g>
</g>
<!-- Node6&#45;&gt;Node7 -->
<g id="edge7_Node000006_Node000007" class="edge">
<title>Node6&#45;&gt;Node7</title>
<g id="a_edge7_Node000006_Node000007"><a xlink:title=" ">
<path fill="none" stroke="#63b8ff" d="M427.24,-391.38C447.27,-381.36 471.57,-369.22 489.98,-360.01"/>
<polygon fill="#63b8ff" stroke="#63b8ff" points="425.47,-388.35 418.09,-395.95 428.6,-394.61 425.47,-388.35"/>
</a>
</g>
</g>
<!-- Node9&#45;&gt;Node10 -->
<g id="edge10_Node000009_Node000010" class="edge">
<title>Node9&#45;&gt;Node10</title>
<g id="a_edge10_Node000009_Node000010"><a xlink:title=" ">
<path fill="none" stroke="#63b8ff" d="M153.83,-457.24C135.1,-447.25 112.45,-435.18 95.27,-426.01"/>
<polygon fill="#63b8ff" stroke="#63b8ff" points="152.19,-460.34 162.67,-461.95 155.49,-454.16 152.19,-460.34"/>
</a>
</g>
</g>
<!-- Node10&#45;&gt;Node4 -->
<g id="edge12_Node000010_Node000004" class="edge">
<title>Node10&#45;&gt;Node4</title>
<g id="a_edge12_Node000010_Node000004"><a xlink:title=" ">
<path fill="none" stroke="#63b8ff" d="M142.75,-393.78C190.12,-383.36 251.03,-369.97 296.29,-360.01"/>
<polygon fill="#63b8ff" stroke="#63b8ff" points="141.88,-390.39 132.86,-395.95 143.38,-397.23 141.88,-390.39"/>
</a>
</g>
</g>
<!-- Node11 -->
<g id="Node000011" class="node">
<title>Node11</title>
<g id="a_Node000011"><a xlink:href="mosaic__connector__factory_8cpp.html" target="_top" xlink:title=" ">
<polygon fill="white" stroke="#666666" points="154,-206 8,-206 8,-176 154,-176 154,-206"/>
<text text-anchor="start" x="16" y="-194" font-family="Helvetica,sans-Serif" font-size="10.00">src/core/mosaic_connector</text>
<text text-anchor="middle" x="81" y="-183" font-family="Helvetica,sans-Serif" font-size="10.00">_factory.cpp</text>
</a>
</g>
</g>
<!-- Node10&#45;&gt;Node11 -->
<g id="edge11_Node000010_Node000011" class="edge">
<title>Node10&#45;&gt;Node11</title>
<g id="a_edge11_Node000010_Node000011"><a xlink:title=" ">
<path fill="none" stroke="#63b8ff" d="M70.35,-385.47C72.87,-339.65 78.23,-242.4 80.23,-206.07"/>
<polygon fill="#63b8ff" stroke="#63b8ff" points="66.84,-385.52 69.79,-395.7 73.83,-385.9 66.84,-385.52"/>
</a>
</g>
</g>
<!-- Node12&#45;&gt;Node5 -->
<g id="edge55_Node000012_Node000005" class="edge">
<title>Node12&#45;&gt;Node5</title>
<g id="a_edge55_Node000012_Node000005"><a xlink:title=" ">
<path fill="none" stroke="#63b8ff" d="M751.52,-453.45C731.91,-426.61 699.74,-382.6 683.33,-360.14"/>
<polygon fill="#63b8ff" stroke="#63b8ff" points="748.93,-455.83 757.65,-461.84 754.58,-451.7 748.93,-455.83"/>
</a>
</g>
</g>
<!-- Node12&#45;&gt;Node7 -->
<g id="edge56_Node000012_Node000007" class="edge">
<title>Node12&#45;&gt;Node7</title>
<g id="a_edge56_Node000012_Node000007"><a xlink:title=" ">
<path fill="none" stroke="#63b8ff" d="M743.05,-455.34C732.25,-446.36 719.47,-435.69 708,-426 692.35,-412.78 690.88,-406.01 673,-396 644.26,-379.91 609.57,-368.11 580.31,-360.03"/>
<polygon fill="#63b8ff" stroke="#63b8ff" points="740.95,-458.14 750.88,-461.84 745.42,-452.76 740.95,-458.14"/>
</a>
</g>
</g>
<!-- Node13 -->
<g id="Node000013" class="node">
<title>Node13</title>
<g id="a_Node000013"><a xlink:href="connector__state__manager_8h.html" target="_top" xlink:title=" ">
<polygon fill="white" stroke="#666666" points="1027.5,-426 872.5,-426 872.5,-396 1027.5,-396 1027.5,-426"/>
<text text-anchor="start" x="880.5" y="-414" font-family="Helvetica,sans-Serif" font-size="10.00">include/mosaic/core</text>
<text text-anchor="middle" x="950" y="-403" font-family="Helvetica,sans-Serif" font-size="10.00">/connector_state_manager.h</text>
</a>
</g>
</g>
<!-- Node12&#45;&gt;Node13 -->
<g id="edge15_Node000012_Node000013" class="edge">
<title>Node12&#45;&gt;Node13</title>
<g id="a_edge15_Node000012_Node000013"><a xlink:title=" ">
<path fill="none" stroke="#63b8ff" d="M817.51,-458.59C846.61,-448.36 882.91,-435.59 910.15,-426.01"/>
<polygon fill="#63b8ff" stroke="#63b8ff" points="816.21,-455.34 807.94,-461.95 818.54,-461.94 816.21,-455.34"/>
</a>
</g>
</g>
<!-- Node28 -->
<g id="Node000028" class="node">
<title>Node28</title>
<g id="a_Node000028"><a xlink:href="peer__connection__manager_8h.html" target="_top" xlink:title=" ">
<polygon fill="white" stroke="#666666" points="1121.5,-288.5 964.5,-288.5 964.5,-258.5 1121.5,-258.5 1121.5,-288.5"/>
<text text-anchor="start" x="972.5" y="-276.5" font-family="Helvetica,sans-Serif" font-size="10.00">include/mosaic/core</text>
<text text-anchor="middle" x="1043" y="-265.5" font-family="Helvetica,sans-Serif" font-size="10.00">/peer_connection_manager.h</text>
</a>
</g>
</g>
<!-- Node12&#45;&gt;Node28 -->
<g id="edge52_Node000012_Node000028" class="edge">
<title>Node12&#45;&gt;Node28</title>
<g id="a_edge52_Node000012_Node000028"><a xlink:title=" ">
<path fill="none" stroke="#63b8ff" d="M777.56,-452.01C791.67,-419.62 821.12,-362.25 864,-330 893.12,-308.1 931.02,-294.73 964.45,-286.63"/>
<polygon fill="#63b8ff" stroke="#63b8ff" points="774.18,-451.02 773.52,-461.59 780.63,-453.74 774.18,-451.02"/>
</a>
</g>
</g>
<!-- Node29 -->
<g id="Node000029" class="node">
<title>Node29</title>
<g id="a_Node000029"><a xlink:href="peer__connection__manager_8cpp.html" target="_top" xlink:title=" ">
<polygon fill="white" stroke="#666666" points="1219,-206 1081,-206 1081,-176 1219,-176 1219,-206"/>
<text text-anchor="start" x="1089" y="-194" font-family="Helvetica,sans-Serif" font-size="10.00">src/core/peer_connection</text>
<text text-anchor="middle" x="1150" y="-183" font-family="Helvetica,sans-Serif" font-size="10.00">_manager.cpp</text>
</a>
</g>
</g>
<!-- Node12&#45;&gt;Node29 -->
<g id="edge54_Node000012_Node000029" class="edge">
<title>Node12&#45;&gt;Node29</title>
<g id="a_edge54_Node000012_Node000029"><a xlink:title=" ">
<path fill="none" stroke="#63b8ff" d="M846.67,-470.29C901.71,-464.19 975.99,-451.65 1037,-426 1084.06,-406.22 1104.95,-403.9 1131,-360 1160.66,-310.02 1155.81,-236.85 1152.08,-206.27"/>
<polygon fill="#63b8ff" stroke="#63b8ff" points="846.2,-466.82 836.63,-471.36 846.94,-473.78 846.2,-466.82"/>
</a>
</g>
</g>
<!-- Node33 -->
<g id="Node000033" class="node">
<title>Node33</title>
<g id="a_Node000033"><a xlink:href="signaling__client_8h.html" target="_top" xlink:title=" ">
<polygon fill="white" stroke="#666666" points="303.5,-288.5 166.5,-288.5 166.5,-258.5 303.5,-258.5 303.5,-288.5"/>
<text text-anchor="start" x="174.5" y="-276.5" font-family="Helvetica,sans-Serif" font-size="10.00">include/mosaic/signaling</text>
<text text-anchor="middle" x="235" y="-265.5" font-family="Helvetica,sans-Serif" font-size="10.00">/signaling_client.h</text>
</a>
</g>
</g>
<!-- Node12&#45;&gt;Node33 -->
<g id="edge53_Node000012_Node000033" class="edge">
<title>Node12&#45;&gt;Node33</title>
<g id="a_edge53_Node000012_Node000033"><a xlink:title=" ">
<path fill="none" stroke="#63b8ff" d="M773.04,-451.79C778.29,-419.06 781.74,-361.23 749,-330 713.75,-296.37 360.06,-302.01 312,-294 303.29,-292.55 294.13,-290.61 285.28,-288.51"/>
<polygon fill="#63b8ff" stroke="#63b8ff" points="769.56,-451.39 771.24,-461.85 776.45,-452.62 769.56,-451.39"/>
</a>
</g>
</g>
<!-- Node14 -->
<g id="Node000014" class="node">
<title>Node14</title>
<g id="a_Node000014"><a xlink:href="mosaic__connector_8h.html" target="_top" xlink:title=" ">
<polygon fill="white" stroke="#666666" points="1122,-360 1006,-360 1006,-330 1122,-330 1122,-360"/>
<text text-anchor="start" x="1014" y="-348" font-family="Helvetica,sans-Serif" font-size="10.00">include/mosaic/core</text>
<text text-anchor="middle" x="1064" y="-337" font-family="Helvetica,sans-Serif" font-size="10.00">/mosaic_connector.h</text>
</a>
</g>
</g>
<!-- Node13&#45;&gt;Node14 -->
<g id="edge16_Node000013_Node000014" class="edge">
<title>Node13&#45;&gt;Node14</title>
<g id="a_edge16_Node000013_Node000014"><a xlink:title=" ">
<path fill="none" stroke="#63b8ff" d="M983.9,-390.97C1001.6,-381.03 1022.87,-369.09 1039.04,-360.01"/>
<polygon fill="#63b8ff" stroke="#63b8ff" points="982.02,-388.01 975.02,-395.95 985.45,-394.11 982.02,-388.01"/>
</a>
</g>
</g>
<!-- Node13&#45;&gt;Node29 -->
<g id="edge51_Node000013_Node000029" class="edge">
<title>Node13&#45;&gt;Node29</title>
<g id="a_edge51_Node000013_Node000029"><a xlink:title=" ">
<path fill="none" stroke="#63b8ff" d="M898.3,-391.25C884.75,-383.71 871.77,-373.51 864,-360 857.35,-348.44 858.36,-342.08 864,-330 908.52,-234.68 971.67,-248.65 1072,-217 1083.12,-213.49 1095.12,-209.67 1106.29,-206.09"/>
<polygon fill="#63b8ff" stroke="#63b8ff" points="896.74,-394.38 907.23,-395.83 899.93,-388.15 896.74,-394.38"/>
</a>
</g>
</g>
<!-- Node35 -->
<g id="Node000035" class="node">
<title>Node35</title>
<g id="a_Node000035"><a xlink:href="connector__state__manager_8cpp.html" target="_top" xlink:title=" ">
<polygon fill="white" stroke="#666666" points="987.5,-360 872.5,-360 872.5,-330 987.5,-330 987.5,-360"/>
<text text-anchor="start" x="880.5" y="-348" font-family="Helvetica,sans-Serif" font-size="10.00">src/core/connector</text>
<text text-anchor="middle" x="930" y="-337" font-family="Helvetica,sans-Serif" font-size="10.00">_state_manager.cpp</text>
</a>
</g>
</g>
<!-- Node13&#45;&gt;Node35 -->
<g id="edge50_Node000013_Node000035" class="edge">
<title>Node13&#45;&gt;Node35</title>
<g id="a_edge50_Node000013_Node000035"><a xlink:title=" ">
<path fill="none" stroke="#63b8ff" d="M942.53,-386.11C939.81,-377.38 936.81,-367.78 934.43,-360.16"/>
<polygon fill="#63b8ff" stroke="#63b8ff" points="939.24,-387.3 945.56,-395.8 945.92,-385.21 939.24,-387.3"/>
</a>
</g>
</g>
<!-- Node15 -->
<g id="Node000015" class="node">
<title>Node15</title>
<g id="a_Node000015"><a xlink:href="i__configurable__connector_8h.html" target="_top" xlink:title=" ">
<polygon fill="white" stroke="#666666" points="774.5,-294 625.5,-294 625.5,-253 774.5,-253 774.5,-294"/>
<text text-anchor="start" x="633.5" y="-282" font-family="Helvetica,sans-Serif" font-size="10.00">include/mosaic/auto</text>
<text text-anchor="start" x="633.5" y="-271" font-family="Helvetica,sans-Serif" font-size="10.00">_configurer/connector</text>
<text text-anchor="middle" x="700" y="-260" font-family="Helvetica,sans-Serif" font-size="10.00">/i_configurable_connector.h</text>
</a>
</g>
</g>
<!-- Node14&#45;&gt;Node15 -->
<g id="edge17_Node000014_Node000015" class="edge">
<title>Node14&#45;&gt;Node15</title>
<g id="a_edge17_Node000014_Node000015"><a xlink:title=" ">
<path fill="none" stroke="#63b8ff" d="M995.99,-329.82C914.62,-313.78 832.31,-298.52 774.54,-287.98"/>
<polygon fill="#63b8ff" stroke="#63b8ff" points="995.42,-333.28 1005.91,-331.78 996.78,-326.41 995.42,-333.28"/>
</a>
</g>
</g>
<!-- Node27 -->
<g id="Node000027" class="node">
<title>Node27</title>
<g id="a_Node000027"><a xlink:href="mosaic__connector__factory_8h.html" target="_top" xlink:title=" ">
<polygon fill="white" stroke="#666666" points="476.5,-288.5 321.5,-288.5 321.5,-258.5 476.5,-258.5 476.5,-288.5"/>
<text text-anchor="start" x="329.5" y="-276.5" font-family="Helvetica,sans-Serif" font-size="10.00">include/mosaic/core</text>
<text text-anchor="middle" x="399" y="-265.5" font-family="Helvetica,sans-Serif" font-size="10.00">/mosaic_connector_factory.h</text>
</a>
</g>
</g>
<!-- Node14&#45;&gt;Node27 -->
<g id="edge35_Node000014_Node000027" class="edge">
<title>Node14&#45;&gt;Node27</title>
<g id="a_edge35_Node000014_Node000027"><a xlink:title=" ">
<path fill="none" stroke="#63b8ff" d="M995.67,-330.13C928.76,-322.31 622.84,-294.62 476.79,-281.48"/>
<polygon fill="#63b8ff" stroke="#63b8ff" points="995.6,-333.65 1005.97,-331.45 996.5,-326.71 995.6,-333.65"/>
</a>
</g>
</g>
<!-- Node14&#45;&gt;Node28 -->
<g id="edge38_Node000014_Node000028" class="edge">
<title>Node14&#45;&gt;Node28</title>
<g id="a_edge38_Node000014_Node000028"><a xlink:title=" ">
<path fill="none" stroke="#63b8ff" d="M1050.44,-320.4C1046.61,-309.81 1043.24,-297.68 1041.7,-288.54"/>
<polygon fill="#63b8ff" stroke="#63b8ff" points="1047.27,-321.92 1054.2,-329.94 1053.79,-319.35 1047.27,-321.92"/>
</a>
</g>
</g>
<!-- Node30 -->
<g id="Node000030" class="node">
<title>Node30</title>
<g id="a_Node000030"><a xlink:href="peer__connection__observer_8h.html" target="_top" xlink:title=" ">
<polygon fill="white" stroke="#666666" points="1334,-288.5 1178,-288.5 1178,-258.5 1334,-258.5 1334,-288.5"/>
<text text-anchor="start" x="1186" y="-276.5" font-family="Helvetica,sans-Serif" font-size="10.00">include/mosaic/core</text>
<text text-anchor="middle" x="1256" y="-265.5" font-family="Helvetica,sans-Serif" font-size="10.00">/peer_connection_observer.h</text>
</a>
</g>
</g>
<!-- Node14&#45;&gt;Node30 -->
<g id="edge41_Node000014_Node000030" class="edge">
<title>Node14&#45;&gt;Node30</title>
<g id="a_edge41_Node000014_Node000030"><a xlink:title=" ">
<path fill="none" stroke="#63b8ff" d="M1112.58,-326.42C1144.99,-314.68 1187.03,-299.47 1217.2,-288.54"/>
<polygon fill="#63b8ff" stroke="#63b8ff" points="1111.07,-323.24 1102.85,-329.94 1113.45,-329.82 1111.07,-323.24"/>
</a>
</g>
</g>
<!-- Node31 -->
<g id="Node000031" class="node">
<title>Node31</title>
<g id="a_Node000031"><a xlink:href="mosaic__connector_8cpp.html" target="_top" xlink:title=" ">
<polygon fill="white" stroke="#666666" points="1403,-200.5 1237,-200.5 1237,-181.5 1403,-181.5 1403,-200.5"/>
<text text-anchor="middle" x="1320" y="-188.5" font-family="Helvetica,sans-Serif" font-size="10.00">src/core/mosaic_connector.cpp</text>
</a>
</g>
</g>
<!-- Node14&#45;&gt;Node31 -->
<g id="edge48_Node000014_Node000031" class="edge">
<title>Node14&#45;&gt;Node31</title>
<g id="a_edge48_Node000014_Node000031"><a xlink:title=" ">
<path fill="none" stroke="#63b8ff" d="M1132.29,-341.49C1206.07,-337.18 1316.65,-325.49 1343,-294 1366.3,-266.16 1339.15,-219.56 1326.16,-200.51"/>
<polygon fill="#63b8ff" stroke="#63b8ff" points="1131.93,-338.01 1122.13,-342.05 1132.31,-344.99 1131.93,-338.01"/>
</a>
</g>
</g>
<!-- Node32 -->
<g id="Node000032" class="node">
<title>Node32</title>
<g id="a_Node000032"><a xlink:href="peer__connection__observer_8cpp.html" target="_top" xlink:title=" ">
<polygon fill="white" stroke="#666666" points="1559,-206 1421,-206 1421,-176 1559,-176 1559,-206"/>
<text text-anchor="start" x="1429" y="-194" font-family="Helvetica,sans-Serif" font-size="10.00">src/core/peer_connection</text>
<text text-anchor="middle" x="1490" y="-183" font-family="Helvetica,sans-Serif" font-size="10.00">_observer.cpp</text>
</a>
</g>
</g>
<!-- Node14&#45;&gt;Node32 -->
<g id="edge49_Node000014_Node000032" class="edge">
<title>Node14&#45;&gt;Node32</title>
<g id="a_edge49_Node000014_Node000032"><a xlink:title=" ">
<path fill="none" stroke="#63b8ff" d="M1132.34,-342.11C1194.39,-338.2 1287.21,-326.77 1361,-294 1409.27,-272.56 1455.14,-228.84 1476.88,-206.24"/>
<polygon fill="#63b8ff" stroke="#63b8ff" points="1132.05,-338.62 1122.27,-342.69 1132.46,-345.61 1132.05,-338.62"/>
</a>
</g>
</g>
<!-- Node14&#45;&gt;Node33 -->
<g id="edge45_Node000014_Node000033" class="edge">
<title>Node14&#45;&gt;Node33</title>
<g id="a_edge45_Node000014_Node000033"><a xlink:title=" ">
<path fill="none" stroke="#63b8ff" d="M996.03,-330.03C692.91,-291.75 610.19,-339.15 312,-294 303,-292.64 293.52,-290.68 284.41,-288.53"/>
<polygon fill="#63b8ff" stroke="#63b8ff" points="995.62,-333.51 1005.99,-331.31 996.52,-326.56 995.62,-333.51"/>
</a>
</g>
</g>
<!-- Node16 -->
<g id="Node000016" class="node">
<title>Node16</title>
<g id="a_Node000016"><a xlink:href="auto__configurer_8h.html" target="_top" xlink:title=" ">
<polygon fill="white" stroke="#666666" points="656,-118 498,-118 498,-88 656,-88 656,-118"/>
<text text-anchor="start" x="506" y="-106" font-family="Helvetica,sans-Serif" font-size="10.00">include/mosaic/auto</text>
<text text-anchor="middle" x="577" y="-95" font-family="Helvetica,sans-Serif" font-size="10.00">_configurer/auto_configurer.h</text>
</a>
</g>
</g>
<!-- Node15&#45;&gt;Node16 -->
<g id="edge18_Node000015_Node000016" class="edge">
<title>Node15&#45;&gt;Node16</title>
<g id="a_edge18_Node000015_Node000016"><a xlink:title=" ">
<path fill="none" stroke="#63b8ff" d="M684.45,-243.76C671.93,-221.5 653.28,-190.3 634,-165 621,-147.94 603.98,-130.21 591.93,-118.3"/>
<polygon fill="#63b8ff" stroke="#63b8ff" points="681.51,-245.67 689.43,-252.7 687.63,-242.26 681.51,-245.67"/>
</a>
</g>
</g>
<!-- Node18 -->
<g id="Node000018" class="node">
<title>Node18</title>
<g id="a_Node000018"><a xlink:href="a__dc__handler__configurer_8h.html" target="_top" xlink:title=" ">
<polygon fill="white" stroke="#666666" points="820,-123.5 674,-123.5 674,-82.5 820,-82.5 820,-123.5"/>
<text text-anchor="start" x="682" y="-111.5" font-family="Helvetica,sans-Serif" font-size="10.00">include/mosaic/auto</text>
<text text-anchor="start" x="682" y="-100.5" font-family="Helvetica,sans-Serif" font-size="10.00">_configurer/connector</text>
<text text-anchor="middle" x="747" y="-89.5" font-family="Helvetica,sans-Serif" font-size="10.00">/a_dc_handler_configurer.h</text>
</a>
</g>
</g>
<!-- Node15&#45;&gt;Node18 -->
<g id="edge20_Node000015_Node000018" class="edge">
<title>Node15&#45;&gt;Node18</title>
<g id="a_edge20_Node000015_Node000018"><a xlink:title=" ">
<path fill="none" stroke="#63b8ff" d="M703.64,-242.76C706.76,-220.92 712.04,-190.71 720,-165 724.42,-150.73 731.24,-135.35 736.92,-123.61"/>
<polygon fill="#63b8ff" stroke="#63b8ff" points="700.16,-242.37 702.27,-252.75 707.09,-243.31 700.16,-242.37"/>
</a>
</g>
</g>
<!-- Node19 -->
<g id="Node000019" class="node">
<title>Node19</title>
<g id="a_Node000019"><a xlink:href="a__mt__handler__configurer_8h.html" target="_top" xlink:title=" ">
<polygon fill="white" stroke="#666666" points="1062.5,-211.5 913.5,-211.5 913.5,-170.5 1062.5,-170.5 1062.5,-211.5"/>
<text text-anchor="start" x="921.5" y="-199.5" font-family="Helvetica,sans-Serif" font-size="10.00">include/mosaic/auto</text>
<text text-anchor="start" x="921.5" y="-188.5" font-family="Helvetica,sans-Serif" font-size="10.00">_configurer/connector</text>
<text text-anchor="middle" x="988" y="-177.5" font-family="Helvetica,sans-Serif" font-size="10.00">/a_mt_handler_configurer.h</text>
</a>
</g>
</g>
<!-- Node15&#45;&gt;Node19 -->
<g id="edge22_Node000015_Node000019" class="edge">
<title>Node15&#45;&gt;Node19</title>
<g id="a_edge22_Node000015_Node000019"><a xlink:title=" ">
<path fill="none" stroke="#63b8ff" d="M783.94,-250.35C821.1,-240.39 865.3,-228.35 905,-217 911.08,-215.26 917.39,-213.42 923.71,-211.56"/>
<polygon fill="#63b8ff" stroke="#63b8ff" points="782.91,-247 774.15,-252.96 784.72,-253.76 782.91,-247"/>
</a>
</g>
</g>
<!-- Node23 -->
<g id="Node000023" class="node">
<title>Node23</title>
<g id="a_Node000023"><a xlink:href="a__parallel__dc__handler__configurer_8h.html" target="_top" xlink:title=" ">
<polygon fill="white" stroke="#666666" points="480,-129 354,-129 354,-77 480,-77 480,-129"/>
<text text-anchor="start" x="362" y="-117" font-family="Helvetica,sans-Serif" font-size="10.00">include/mosaic/auto</text>
<text text-anchor="start" x="362" y="-106" font-family="Helvetica,sans-Serif" font-size="10.00">_configurer/connector</text>
<text text-anchor="start" x="362" y="-95" font-family="Helvetica,sans-Serif" font-size="10.00">/a_parallel_dc_handler</text>
<text text-anchor="middle" x="417" y="-84" font-family="Helvetica,sans-Serif" font-size="10.00">_configurer.h</text>
</a>
</g>
</g>
<!-- Node15&#45;&gt;Node23 -->
<g id="edge27_Node000015_Node000023" class="edge">
<title>Node15&#45;&gt;Node23</title>
<g id="a_edge27_Node000015_Node000023"><a xlink:title=" ">
<path fill="none" stroke="#63b8ff" d="M665.12,-246.39C654.53,-237.64 643.26,-227.44 634,-217 615.68,-196.34 621.94,-181.77 600,-165 558.8,-133.5 538.17,-145.51 489,-129 486.11,-128.03 483.17,-127.03 480.19,-126.02"/>
<polygon fill="#63b8ff" stroke="#63b8ff" points="663.05,-249.22 673.03,-252.77 667.45,-243.77 663.05,-249.22"/>
</a>
</g>
</g>
<!-- Node24 -->
<g id="Node000024" class="node">
<title>Node24</title>
<g id="a_Node000024"><a xlink:href="configurable__connector__factory_8h.html" target="_top" xlink:title=" ">
<polygon fill="white" stroke="#666666" points="895.5,-217 762.5,-217 762.5,-165 895.5,-165 895.5,-217"/>
<text text-anchor="start" x="770.5" y="-205" font-family="Helvetica,sans-Serif" font-size="10.00">include/mosaic/auto</text>
<text text-anchor="start" x="770.5" y="-194" font-family="Helvetica,sans-Serif" font-size="10.00">_configurer/connector</text>
<text text-anchor="start" x="770.5" y="-183" font-family="Helvetica,sans-Serif" font-size="10.00">/configurable_connector</text>
<text text-anchor="middle" x="829" y="-172" font-family="Helvetica,sans-Serif" font-size="10.00">_factory.h</text>
</a>
</g>
</g>
<!-- Node15&#45;&gt;Node24 -->
<g id="edge29_Node000015_Node000024" class="edge">
<title>Node15&#45;&gt;Node24</title>
<g id="a_edge29_Node000015_Node000024"><a xlink:title=" ">
<path fill="none" stroke="#63b8ff" d="M740.31,-247.34C755.66,-237.77 773.13,-226.86 788.49,-217.28"/>
<polygon fill="#63b8ff" stroke="#63b8ff" points="738.19,-244.54 731.56,-252.81 741.89,-250.48 738.19,-244.54"/>
</a>
</g>
</g>
<!-- Node25 -->
<g id="Node000025" class="node">
<title>Node25</title>
<g id="a_Node000025"><a xlink:href="connector__resolver_8h.html" target="_top" xlink:title=" ">
<polygon fill="white" stroke="#666666" points="960,-123.5 838,-123.5 838,-82.5 960,-82.5 960,-123.5"/>
<text text-anchor="start" x="846" y="-111.5" font-family="Helvetica,sans-Serif" font-size="10.00">include/mosaic/auto</text>
<text text-anchor="start" x="846" y="-100.5" font-family="Helvetica,sans-Serif" font-size="10.00">_configurer/connector</text>
<text text-anchor="middle" x="899" y="-89.5" font-family="Helvetica,sans-Serif" font-size="10.00">/connector_resolver.h</text>
</a>
</g>
</g>
<!-- Node15&#45;&gt;Node25 -->
<g id="edge33_Node000015_Node000025" class="edge">
<title>Node15&#45;&gt;Node25</title>
<g id="a_edge33_Node000015_Node000025"><a xlink:title=" ">
<path fill="none" stroke="#63b8ff" d="M711.63,-243.36C723.17,-215.6 740.86,-176.41 753,-165 760.43,-158.02 808.37,-138.61 847.32,-123.54"/>
<polygon fill="#63b8ff" stroke="#63b8ff" points="708.38,-242.06 707.82,-252.64 714.85,-244.71 708.38,-242.06"/>
</a>
</g>
</g>
<!-- Node26 -->
<g id="Node000026" class="node">
<title>Node26</title>
<g id="a_Node000026"><a xlink:href="i__configurable__connector_8cpp.html" target="_top" xlink:title=" ">
<polygon fill="white" stroke="#666666" points="591.5,-206 430.5,-206 430.5,-176 591.5,-176 591.5,-206"/>
<text text-anchor="start" x="438.5" y="-194" font-family="Helvetica,sans-Serif" font-size="10.00">src/auto_configurer</text>
<text text-anchor="middle" x="511" y="-183" font-family="Helvetica,sans-Serif" font-size="10.00">/i_configurable_connector.cpp</text>
</a>
</g>
</g>
<!-- Node15&#45;&gt;Node26 -->
<g id="edge34_Node000015_Node000026" class="edge">
<title>Node15&#45;&gt;Node26</title>
<g id="a_edge34_Node000015_Node000026"><a xlink:title=" ">
<path fill="none" stroke="#63b8ff" d="M644.35,-248.8C611.75,-234.91 571.68,-217.84 544.02,-206.06"/>
<polygon fill="#63b8ff" stroke="#63b8ff" points="643.19,-252.11 653.77,-252.81 645.94,-245.67 643.19,-252.11"/>
</a>
</g>
</g>
<!-- Node17 -->
<g id="Node000017" class="node">
<title>Node17</title>
<g id="a_Node000017"><a xlink:href="auto__configurer_8cpp.html" target="_top" xlink:title=" ">
<polygon fill="white" stroke="#666666" points="719.5,-35.5 604.5,-35.5 604.5,-5.5 719.5,-5.5 719.5,-35.5"/>
<text text-anchor="start" x="612.5" y="-23.5" font-family="Helvetica,sans-Serif" font-size="10.00">src/auto_configurer</text>
<text text-anchor="middle" x="662" y="-12.5" font-family="Helvetica,sans-Serif" font-size="10.00">/auto_configurer.cpp</text>
</a>
</g>
</g>
<!-- Node16&#45;&gt;Node17 -->
<g id="edge19_Node000016_Node000017" class="edge">
<title>Node16&#45;&gt;Node17</title>
<g id="a_edge19_Node000016_Node000017"><a xlink:title=" ">
<path fill="none" stroke="#63b8ff" d="M599.23,-80.95C614.31,-66.66 633.84,-48.17 647.08,-35.63"/>
<polygon fill="#63b8ff" stroke="#63b8ff" points="596.66,-78.56 591.81,-87.98 601.47,-83.64 596.66,-78.56"/>
</a>
</g>
</g>
<!-- Node18&#45;&gt;Node17 -->
<g id="edge21_Node000018_Node000017" class="edge">
<title>Node18&#45;&gt;Node17</title>
<g id="a_edge21_Node000018_Node000017"><a xlink:title=" ">
<path fill="none" stroke="#63b8ff" d="M718.52,-75.03C704.58,-61.83 688.38,-46.48 676.9,-35.62"/>
<polygon fill="#63b8ff" stroke="#63b8ff" points="716.32,-77.77 725.99,-82.1 721.13,-72.68 716.32,-77.77"/>
</a>
</g>
</g>
<!-- Node19&#45;&gt;Node17 -->
<g id="edge26_Node000019_Node000017" class="edge">
<title>Node19&#45;&gt;Node17</title>
<g id="a_edge26_Node000019_Node000017"><a xlink:title=" ">
<path fill="none" stroke="#63b8ff" d="M991.66,-159.98C992.97,-134.43 990.28,-98.55 969,-77 951.68,-59.47 803.82,-38.81 719.78,-28.34"/>
<polygon fill="#63b8ff" stroke="#63b8ff" points="988.14,-159.99 990.89,-170.23 995.13,-160.52 988.14,-159.99"/>
</a>
</g>
</g>
<!-- Node20 -->
<g id="Node000020" class="node">
<title>Node20</title>
<g id="a_Node000020"><a xlink:href="opencv__camera__mt__handler_8h.html" target="_top" xlink:title=" ">
<polygon fill="white" stroke="#666666" points="1150,-123.5 1016,-123.5 1016,-82.5 1150,-82.5 1150,-123.5"/>
<text text-anchor="start" x="1024" y="-111.5" font-family="Helvetica,sans-Serif" font-size="10.00">include/mosaic/auto</text>
<text text-anchor="start" x="1024" y="-100.5" font-family="Helvetica,sans-Serif" font-size="10.00">_configurer/impl/opencv</text>
<text text-anchor="middle" x="1083" y="-89.5" font-family="Helvetica,sans-Serif" font-size="10.00">_camera_mt_handler.h</text>
</a>
</g>
</g>
<!-- Node19&#45;&gt;Node20 -->
<g id="edge23_Node000019_Node000020" class="edge">
<title>Node19&#45;&gt;Node20</title>
<g id="a_edge23_Node000019_Node000020"><a xlink:title=" ">
<path fill="none" stroke="#63b8ff" d="M1017.14,-163.62C1031.34,-150.77 1048.13,-135.57 1061.2,-123.74"/>
<polygon fill="#63b8ff" stroke="#63b8ff" points="1014.62,-161.18 1009.56,-170.49 1019.32,-166.37 1014.62,-161.18"/>
</a>
</g>
</g>
<!-- Node21 -->
<g id="Node000021" class="node">
<title>Node21</title>
<g id="a_Node000021"><a xlink:href="connector__resolver_8cpp.html" target="_top" xlink:title=" ">
<polygon fill="white" stroke="#666666" points="984,-35.5 852,-35.5 852,-5.5 984,-5.5 984,-35.5"/>
<text text-anchor="start" x="860" y="-23.5" font-family="Helvetica,sans-Serif" font-size="10.00">src/auto_configurer</text>
<text text-anchor="middle" x="918" y="-12.5" font-family="Helvetica,sans-Serif" font-size="10.00">/connector_resolver.cpp</text>
</a>
</g>
</g>
<!-- Node20&#45;&gt;Node21 -->
<g id="edge24_Node000020_Node000021" class="edge">
<title>Node20&#45;&gt;Node21</title>
<g id="a_edge24_Node000020_Node000021"><a xlink:title=" ">
<path fill="none" stroke="#63b8ff" d="M1033.31,-77.76C1005.05,-63.97 970.66,-47.19 946.83,-35.56"/>
<polygon fill="#63b8ff" stroke="#63b8ff" points="1032.11,-81.07 1042.64,-82.31 1035.18,-74.78 1032.11,-81.07"/>
</a>
</g>
</g>
<!-- Node22 -->
<g id="Node000022" class="node">
<title>Node22</title>
<g id="a_Node000022"><a xlink:href="opencv__camera__mt__handler_8cpp.html" target="_top" xlink:title=" ">
<polygon fill="white" stroke="#666666" points="1144,-41 1022,-41 1022,0 1144,0 1144,-41"/>
<text text-anchor="start" x="1030" y="-29" font-family="Helvetica,sans-Serif" font-size="10.00">src/auto_configurer</text>
<text text-anchor="start" x="1030" y="-18" font-family="Helvetica,sans-Serif" font-size="10.00">/impl/opencv_camera</text>
<text text-anchor="middle" x="1083" y="-7" font-family="Helvetica,sans-Serif" font-size="10.00">_mt_handler.cpp</text>
</a>
</g>
</g>
<!-- Node20&#45;&gt;Node22 -->
<g id="edge25_Node000020_Node000022" class="edge">
<title>Node20&#45;&gt;Node22</title>
<g id="a_edge25_Node000020_Node000022"><a xlink:title=" ">
<path fill="none" stroke="#63b8ff" d="M1083,-71.87C1083,-61.6 1083,-50.4 1083,-41.17"/>
<polygon fill="#63b8ff" stroke="#63b8ff" points="1079.5,-72.1 1083,-82.1 1086.5,-72.1 1079.5,-72.1"/>
</a>
</g>
</g>
<!-- Node23&#45;&gt;Node17 -->
<g id="edge28_Node000023_Node000017" class="edge">
<title>Node23&#45;&gt;Node17</title>
<g id="a_edge28_Node000023_Node000017"><a xlink:title=" ">
<path fill="none" stroke="#63b8ff" d="M489.94,-76.71C538.54,-60.55 584.31,-45.94 617.1,-35.58"/>
<polygon fill="#63b8ff" stroke="#63b8ff" points="488.57,-73.48 480.19,-79.96 490.78,-80.12 488.57,-73.48"/>
</a>
</g>
</g>
<!-- Node24&#45;&gt;Node25 -->
<g id="edge30_Node000024_Node000025" class="edge">
<title>Node24&#45;&gt;Node25</title>
<g id="a_edge30_Node000024_Node000025"><a xlink:title=" ">
<path fill="none" stroke="#63b8ff" d="M856.07,-156.74C865.16,-145.58 875,-133.49 882.96,-123.7"/>
<polygon fill="#63b8ff" stroke="#63b8ff" points="853.22,-154.7 849.62,-164.66 858.65,-159.12 853.22,-154.7"/>
</a>
</g>
</g>
<!-- Node25&#45;&gt;Node17 -->
<g id="edge31_Node000025_Node000017" class="edge">
<title>Node25&#45;&gt;Node17</title>
<g id="a_edge31_Node000025_Node000017"><a xlink:title=" ">
<path fill="none" stroke="#63b8ff" d="M834.7,-78.97C832.78,-78.31 830.88,-77.65 829,-77 787.12,-62.56 739.1,-46.68 705.34,-35.61"/>
<polygon fill="#63b8ff" stroke="#63b8ff" points="833.8,-82.37 844.4,-82.37 836.11,-75.76 833.8,-82.37"/>
</a>
</g>
</g>
<!-- Node25&#45;&gt;Node21 -->
<g id="edge32_Node000025_Node000021" class="edge">
<title>Node25&#45;&gt;Node21</title>
<g id="a_edge32_Node000025_Node000021"><a xlink:title=" ">
<path fill="none" stroke="#63b8ff" d="M906.05,-72.13C908.98,-59.73 912.23,-45.93 914.61,-35.87"/>
<polygon fill="#63b8ff" stroke="#63b8ff" points="902.59,-71.56 903.7,-82.1 909.4,-73.17 902.59,-71.56"/>
</a>
</g>
</g>
<!-- Node27&#45;&gt;Node11 -->
<g id="edge37_Node000027_Node000011" class="edge">
<title>Node27&#45;&gt;Node11</title>
<g id="a_edge37_Node000027_Node000011"><a xlink:title=" ">
<path fill="none" stroke="#63b8ff" d="M327.42,-256.2C269.81,-242.99 193.59,-225.25 163,-217 150.64,-213.67 137.33,-209.75 125.11,-206.02"/>
<polygon fill="#63b8ff" stroke="#63b8ff" points="326.69,-259.63 337.22,-258.45 328.25,-252.8 326.69,-259.63"/>
</a>
</g>
</g>
<!-- Node27&#45;&gt;Node17 -->
<g id="edge36_Node000027_Node000017" class="edge">
<title>Node27&#45;&gt;Node17</title>
<g id="a_edge36_Node000027_Node000017"><a xlink:title=" ">
<path fill="none" stroke="#63b8ff" d="M381.34,-250.22C352.37,-210.8 302.04,-128.13 345,-77 377.48,-38.34 522.12,-26.6 604.35,-23.05"/>
<polygon fill="#63b8ff" stroke="#63b8ff" points="378.69,-252.51 387.5,-258.39 384.28,-248.29 378.69,-252.51"/>
</a>
</g>
</g>
<!-- Node28&#45;&gt;Node14 -->
<g id="edge39_Node000028_Node000014" class="edge">
<title>Node28&#45;&gt;Node14</title>
<g id="a_edge39_Node000028_Node000014"><a xlink:title=" ">
<path fill="none" stroke="#63b8ff" d="M1056.55,-298.07C1060.38,-308.66 1063.75,-320.8 1065.3,-329.94"/>
<polygon fill="#63b8ff" stroke="#63b8ff" points="1059.72,-296.56 1052.79,-288.54 1053.21,-299.13 1059.72,-296.56"/>
</a>
</g>
</g>
<!-- Node28&#45;&gt;Node29 -->
<g id="edge40_Node000028_Node000029" class="edge">
<title>Node28&#45;&gt;Node29</title>
<g id="a_edge40_Node000028_Node000029"><a xlink:title=" ">
<path fill="none" stroke="#63b8ff" d="M1069.69,-252.42C1088.84,-238.02 1114.17,-218.96 1131.22,-206.13"/>
<polygon fill="#63b8ff" stroke="#63b8ff" points="1067.52,-249.67 1061.64,-258.48 1071.73,-255.26 1067.52,-249.67"/>
</a>
</g>
</g>
<!-- Node30&#45;&gt;Node29 -->
<g id="edge43_Node000030_Node000029" class="edge">
<title>Node30&#45;&gt;Node29</title>
<g id="a_edge43_Node000030_Node000029"><a xlink:title=" ">
<path fill="none" stroke="#63b8ff" d="M1229.56,-252.42C1210.59,-238.02 1185.5,-218.96 1168.61,-206.13"/>
<polygon fill="#63b8ff" stroke="#63b8ff" points="1227.46,-255.22 1237.54,-258.48 1231.69,-249.64 1227.46,-255.22"/>
</a>
</g>
</g>
<!-- Node30&#45;&gt;Node31 -->
<g id="edge42_Node000030_Node000031" class="edge">
<title>Node30&#45;&gt;Node31</title>
<g id="a_edge42_Node000030_Node000031"><a xlink:title=" ">
<path fill="none" stroke="#63b8ff" d="M1273.51,-250.48C1286.49,-234.15 1303.51,-212.74 1312.94,-200.88"/>
<polygon fill="#63b8ff" stroke="#63b8ff" points="1270.63,-248.47 1267.15,-258.48 1276.11,-252.83 1270.63,-248.47"/>
</a>
</g>
</g>
<!-- Node30&#45;&gt;Node32 -->
<g id="edge44_Node000030_Node000032" class="edge">
<title>Node30&#45;&gt;Node32</title>
<g id="a_edge44_Node000030_Node000032"><a xlink:title=" ">
<path fill="none" stroke="#63b8ff" d="M1306.37,-255.17C1348.96,-240.52 1409.21,-219.79 1448.92,-206.13"/>
<polygon fill="#63b8ff" stroke="#63b8ff" points="1305.08,-251.92 1296.76,-258.48 1307.35,-258.53 1305.08,-251.92"/>
</a>
</g>
</g>
<!-- Node33&#45;&gt;Node11 -->
<g id="edge46_Node000033_Node000011" class="edge">
<title>Node33&#45;&gt;Node11</title>
<g id="a_edge46_Node000033_Node000011"><a xlink:title=" ">
<path fill="none" stroke="#63b8ff" d="M199.16,-253.77C171.33,-239.22 133.34,-219.36 108.03,-206.13"/>
<polygon fill="#63b8ff" stroke="#63b8ff" points="197.69,-256.95 208.18,-258.48 200.93,-250.74 197.69,-256.95"/>
</a>
</g>
</g>
<!-- Node34 -->
<g id="Node000034" class="node">
<title>Node34</title>
<g id="a_Node000034"><a xlink:href="signaling__client_8cpp.html" target="_top" xlink:title=" ">
<polygon fill="white" stroke="#666666" points="297.5,-206 172.5,-206 172.5,-176 297.5,-176 297.5,-206"/>
<text text-anchor="start" x="180.5" y="-194" font-family="Helvetica,sans-Serif" font-size="10.00">src/signaling/signaling</text>
<text text-anchor="middle" x="235" y="-183" font-family="Helvetica,sans-Serif" font-size="10.00">_client.cpp</text>
</a>
</g>
</g>
<!-- Node33&#45;&gt;Node34 -->
<g id="edge47_Node000033_Node000034" class="edge">
<title>Node33&#45;&gt;Node34</title>
<g id="a_edge47_Node000033_Node000034"><a xlink:title=" ">
<path fill="none" stroke="#63b8ff" d="M235,-248.24C235,-234.48 235,-217.75 235,-206.13"/>
<polygon fill="#63b8ff" stroke="#63b8ff" points="231.5,-248.48 235,-258.48 238.5,-248.48 231.5,-248.48"/>
</a>
</g>
</g>
</g>
</svg>

<g id="navigator" transform="translate(0 0)" fill="#404254">
  <rect fill="#f2f5e9" fill-opacity="0.5" stroke="#606060" stroke-width=".5" x="0" y="0" width="60" height="60"/>
  <use id="zoomplus" xlink:href="#zoomPlus" x="17" y="9" onmousedown="handleZoom(evt,'in')"/>
  <use id="zoomminus" xlink:href="#zoomMin" x="42" y="9" onmousedown="handleZoom(evt,'out')"/>
  <use id="reset" xlink:href="#resetDef" x="30" y="36" onmousedown="handleReset()"/>
   <use id="arrowup" xlink:href="#arrowUp" x="0" y="0" onmousedown="handlePan(0,-1)"/>
  <use id="arrowright" xlink:href="#arrowRight" x="0" y="0" onmousedown="handlePan(1,0)"/>
  <use id="arrowdown" xlink:href="#arrowDown" x="0" y="0" onmousedown="handlePan(0,1)"/>
  <use id="arrowleft" xlink:href="#arrowLeft" x="0" y="0" onmousedown="handlePan(-1,0)"/>
</g>
<svg viewBox="0 0 15 15" width="100%" height="30px" preserveAspectRatio="xMaxYMin meet">
 <g id="arrow_out" transform="scale(0.3 0.3)">
  <a xlink:href="i__mosaic__authenticator_8h__dep__incl_org.svg" target="_base">
   <rect id="button" ry="5" rx="5" y="6" x="6" height="38" width="38"
        fill="#f2f5e9" fill-opacity="0.5" stroke="#606060" stroke-width="1.0"/>
   <path id="arrow"
     d="M 11.500037,31.436501 C 11.940474,20.09759 22.043105,11.32322 32.158766,21.979434 L 37.068811,17.246167 C 37.068811,17.246167 37.088388,32 37.088388,32 L 22.160133,31.978069 C 22.160133,31.978069 26.997745,27.140456 26.997745,27.140456 C 18.528582,18.264221 13.291696,25.230495 11.500037,31.436501 z"
     style="fill:#404040;"/>
  </a>
 </g>
</svg>

<style type='text/css'>
<![CDATA[
[data-mouse-over-selected='false'] { opacity: 0.7; }
[data-mouse-over-selected='true']  { opacity: 1.0; }
]]>
</style>
<script type="application/ecmascript"><![CDATA[
document.addEventListener('DOMContentLoaded', (event) => {
  highlightEdges();
  highlightAdjacentNodes();
});
]]></script>
</svg>
