<?xml version="1.0" encoding="UTF-8" standalone="no"?>
<!DOCTYPE svg PUBLIC "-//W3C//DTD SVG 1.1//EN"
 "http://www.w3.org/Graphics/SVG/1.1/DTD/svg11.dtd">
<!-- Generated by graphviz version 2.43.0 (0)
 -->
<!-- Title: include/mosaic/handlers/media_track/i_media_track_handler.h Pages: 1 -->
<svg width="1622pt" height="445pt"
 viewBox="0.00 0.00 1622.00 445.00" xmlns="http://www.w3.org/2000/svg" xmlns:xlink="http://www.w3.org/1999/xlink">
<g id="graph0" class="graph" transform="scale(1 1) rotate(0) translate(4 441)">
<title>include/mosaic/handlers/media_track/i_media_track_handler.h</title>
<!-- Node1 -->
<g id="Node000001" class="node">
<title>Node1</title>
<g id="a_Node000001"><a xlink:title=" ">
<polygon fill="#999999" stroke="#666666" points="1055,-437 903,-437 903,-396 1055,-396 1055,-437"/>
<text text-anchor="start" x="911" y="-425" font-family="Helvetica,sans-Serif" font-size="10.00">include/mosaic/handlers</text>
<text text-anchor="start" x="911" y="-414" font-family="Helvetica,sans-Serif" font-size="10.00">/media_track/i_media_track</text>
<text text-anchor="middle" x="979" y="-403" font-family="Helvetica,sans-Serif" font-size="10.00">_handler.h</text>
</a>
</g>
</g>
<!-- Node2 -->
<g id="Node000002" class="node">
<title>Node2</title>
<g id="a_Node000002"><a xlink:href="auto__configurer_8h.html" target="_top" xlink:title=" ">
<polygon fill="white" stroke="#666666" points="158,-195 0,-195 0,-165 158,-165 158,-195"/>
<text text-anchor="start" x="8" y="-183" font-family="Helvetica,sans-Serif" font-size="10.00">include/mosaic/auto</text>
<text text-anchor="middle" x="79" y="-172" font-family="Helvetica,sans-Serif" font-size="10.00">_configurer/auto_configurer.h</text>
</a>
</g>
</g>
<!-- Node1&#45;&gt;Node2 -->
<g id="edge1_Node000001_Node000002" class="edge">
<title>Node1&#45;&gt;Node2</title>
<g id="a_edge1_Node000001_Node000002"><a xlink:title=" ">
<path fill="none" stroke="#63b8ff" d="M892.99,-396.39C783.77,-371.78 589.7,-326.94 425,-283 316.24,-253.98 189.63,-215.43 123.85,-195.03"/>
<polygon fill="#63b8ff" stroke="#63b8ff" points="892.44,-399.85 902.97,-398.63 893.98,-393.02 892.44,-399.85"/>
</a>
</g>
</g>
<!-- Node4 -->
<g id="Node000004" class="node">
<title>Node4</title>
<g id="a_Node000004"><a xlink:href="mosaic__connector_8h.html" target="_top" xlink:title=" ">
<polygon fill="white" stroke="#666666" points="1037,-354.5 921,-354.5 921,-324.5 1037,-324.5 1037,-354.5"/>
<text text-anchor="start" x="929" y="-342.5" font-family="Helvetica,sans-Serif" font-size="10.00">include/mosaic/core</text>
<text text-anchor="middle" x="979" y="-331.5" font-family="Helvetica,sans-Serif" font-size="10.00">/mosaic_connector.h</text>
</a>
</g>
</g>
<!-- Node1&#45;&gt;Node4 -->
<g id="edge3_Node000001_Node000004" class="edge">
<title>Node1&#45;&gt;Node4</title>
<g id="a_edge3_Node000001_Node000004"><a xlink:title=" ">
<path fill="none" stroke="#63b8ff" d="M979,-385.61C979,-375.01 979,-363.57 979,-354.86"/>
<polygon fill="#63b8ff" stroke="#63b8ff" points="975.5,-385.79 979,-395.79 982.5,-385.79 975.5,-385.79"/>
</a>
</g>
</g>
<!-- Node22 -->
<g id="Node000022" class="node">
<title>Node22</title>
<g id="a_Node000022"><a xlink:href="a__media__track__handler_8h.html" target="_top" xlink:title=" ">
<polygon fill="white" stroke="#666666" points="1463.5,-360 1308.5,-360 1308.5,-319 1463.5,-319 1463.5,-360"/>
<text text-anchor="start" x="1316.5" y="-348" font-family="Helvetica,sans-Serif" font-size="10.00">include/mosaic/handlers</text>
<text text-anchor="start" x="1316.5" y="-337" font-family="Helvetica,sans-Serif" font-size="10.00">/media_track/a_media_track</text>
<text text-anchor="middle" x="1386" y="-326" font-family="Helvetica,sans-Serif" font-size="10.00">_handler.h</text>
</a>
</g>
</g>
<!-- Node1&#45;&gt;Node22 -->
<g id="edge33_Node000001_Node000022" class="edge">
<title>Node1&#45;&gt;Node22</title>
<g id="a_edge33_Node000001_Node000022"><a xlink:title=" ">
<path fill="none" stroke="#63b8ff" d="M1065.02,-399.65C1136.96,-386.39 1238.69,-367.65 1308.22,-354.83"/>
<polygon fill="#63b8ff" stroke="#63b8ff" points="1064.28,-396.23 1055.08,-401.48 1065.54,-403.11 1064.28,-396.23"/>
</a>
</g>
</g>
<!-- Node3 -->
<g id="Node000003" class="node">
<title>Node3</title>
<g id="a_Node000003"><a xlink:href="auto__configurer_8cpp.html" target="_top" xlink:title=" ">
<polygon fill="white" stroke="#666666" points="642.5,-30 527.5,-30 527.5,0 642.5,0 642.5,-30"/>
<text text-anchor="start" x="535.5" y="-18" font-family="Helvetica,sans-Serif" font-size="10.00">src/auto_configurer</text>
<text text-anchor="middle" x="585" y="-7" font-family="Helvetica,sans-Serif" font-size="10.00">/auto_configurer.cpp</text>
</a>
</g>
</g>
<!-- Node2&#45;&gt;Node3 -->
<g id="edge2_Node000002_Node000003" class="edge">
<title>Node2&#45;&gt;Node3</title>
<g id="a_edge2_Node000002_Node000003"><a xlink:title=" ">
<path fill="none" stroke="#63b8ff" d="M109.1,-159.47C149.82,-133.98 225.48,-89.82 296,-66 373.67,-39.77 467.95,-26.75 527.23,-20.71"/>
<polygon fill="#63b8ff" stroke="#63b8ff" points="107.07,-156.62 100.48,-164.92 110.81,-162.54 107.07,-156.62"/>
</a>
</g>
</g>
<!-- Node5 -->
<g id="Node000005" class="node">
<title>Node5</title>
<g id="a_Node000005"><a xlink:href="i__configurable__connector_8h.html" target="_top" xlink:title=" ">
<polygon fill="white" stroke="#666666" points="583.5,-283 434.5,-283 434.5,-242 583.5,-242 583.5,-283"/>
<text text-anchor="start" x="442.5" y="-271" font-family="Helvetica,sans-Serif" font-size="10.00">include/mosaic/auto</text>
<text text-anchor="start" x="442.5" y="-260" font-family="Helvetica,sans-Serif" font-size="10.00">_configurer/connector</text>
<text text-anchor="middle" x="509" y="-249" font-family="Helvetica,sans-Serif" font-size="10.00">/i_configurable_connector.h</text>
</a>
</g>
</g>
<!-- Node4&#45;&gt;Node5 -->
<g id="edge4_Node000004_Node000005" class="edge">
<title>Node4&#45;&gt;Node5</title>
<g id="a_edge4_Node000004_Node000005"><a xlink:title=" ">
<path fill="none" stroke="#63b8ff" d="M910.86,-327.63C823.81,-313.74 673.67,-289.78 583.61,-275.41"/>
<polygon fill="#63b8ff" stroke="#63b8ff" points="910.47,-331.11 920.9,-329.23 911.57,-324.2 910.47,-331.11"/>
</a>
</g>
</g>
<!-- Node13 -->
<g id="Node000013" class="node">
<title>Node13</title>
<g id="a_Node000013"><a xlink:href="mosaic__connector__factory_8h.html" target="_top" xlink:title=" ">
<polygon fill="white" stroke="#666666" points="1473.5,-277.5 1318.5,-277.5 1318.5,-247.5 1473.5,-247.5 1473.5,-277.5"/>
<text text-anchor="start" x="1326.5" y="-265.5" font-family="Helvetica,sans-Serif" font-size="10.00">include/mosaic/core</text>
<text text-anchor="middle" x="1396" y="-254.5" font-family="Helvetica,sans-Serif" font-size="10.00">/mosaic_connector_factory.h</text>
</a>
</g>
</g>
<!-- Node4&#45;&gt;Node13 -->
<g id="edge18_Node000004_Node000013" class="edge">
<title>Node4&#45;&gt;Node13</title>
<g id="a_edge18_Node000004_Node000013"><a xlink:title=" ">
<path fill="none" stroke="#63b8ff" d="M1047.28,-328.12C1114.16,-317.69 1218.85,-300.67 1309,-283 1317.51,-281.33 1326.45,-279.46 1335.24,-277.56"/>
<polygon fill="#63b8ff" stroke="#63b8ff" points="1046.64,-324.67 1037.29,-329.67 1047.71,-331.59 1046.64,-324.67"/>
</a>
</g>
</g>
<!-- Node15 -->
<g id="Node000015" class="node">
<title>Node15</title>
<g id="a_Node000015"><a xlink:href="peer__connection__manager_8h.html" target="_top" xlink:title=" ">
<polygon fill="white" stroke="#666666" points="1145.5,-277.5 988.5,-277.5 988.5,-247.5 1145.5,-247.5 1145.5,-277.5"/>
<text text-anchor="start" x="996.5" y="-265.5" font-family="Helvetica,sans-Serif" font-size="10.00">include/mosaic/core</text>
<text text-anchor="middle" x="1067" y="-254.5" font-family="Helvetica,sans-Serif" font-size="10.00">/peer_connection_manager.h</text>
</a>
</g>
</g>
<!-- Node4&#45;&gt;Node15 -->
<g id="edge21_Node000004_Node000015" class="edge">
<title>Node4&#45;&gt;Node15</title>
<g id="a_edge21_Node000004_Node000015"><a xlink:title=" ">
<path fill="none" stroke="#63b8ff" d="M997.71,-317.32C1011.65,-304.58 1030.49,-288.74 1045.12,-277.54"/>
<polygon fill="#63b8ff" stroke="#63b8ff" points="995.05,-315.01 990.14,-324.39 999.84,-320.12 995.05,-315.01"/>
</a>
</g>
</g>
<!-- Node17 -->
<g id="Node000017" class="node">
<title>Node17</title>
<g id="a_Node000017"><a xlink:href="peer__connection__observer_8h.html" target="_top" xlink:title=" ">
<polygon fill="white" stroke="#666666" points="970,-277.5 814,-277.5 814,-247.5 970,-247.5 970,-277.5"/>
<text text-anchor="start" x="822" y="-265.5" font-family="Helvetica,sans-Serif" font-size="10.00">include/mosaic/core</text>
<text text-anchor="middle" x="892" y="-254.5" font-family="Helvetica,sans-Serif" font-size="10.00">/peer_connection_observer.h</text>
</a>
</g>
</g>
<!-- Node4&#45;&gt;Node17 -->
<g id="edge24_Node000004_Node000017" class="edge">
<title>Node4&#45;&gt;Node17</title>
<g id="a_edge24_Node000004_Node000017"><a xlink:title=" ">
<path fill="none" stroke="#63b8ff" d="M954.84,-317.67C940,-304.88 921.39,-288.84 908.29,-277.54"/>
<polygon fill="#63b8ff" stroke="#63b8ff" points="952.78,-320.51 962.64,-324.39 957.35,-315.21 952.78,-320.51"/>
</a>
</g>
</g>
<!-- Node18 -->
<g id="Node000018" class="node">
<title>Node18</title>
<g id="a_Node000018"><a xlink:href="mosaic__connector_8cpp.html" target="_top" xlink:title=" ">
<polygon fill="white" stroke="#666666" points="826,-189.5 660,-189.5 660,-170.5 826,-170.5 826,-189.5"/>
<text text-anchor="middle" x="743" y="-177.5" font-family="Helvetica,sans-Serif" font-size="10.00">src/core/mosaic_connector.cpp</text>
</a>
</g>
</g>
<!-- Node4&#45;&gt;Node18 -->
<g id="edge31_Node000004_Node000018" class="edge">
<title>Node4&#45;&gt;Node18</title>
<g id="a_edge31_Node000004_Node000018"><a xlink:title=" ">
<path fill="none" stroke="#63b8ff" d="M910.78,-331.4C872.81,-324.42 826.74,-310.54 794,-283 763.55,-257.38 749.47,-209.11 744.83,-189.55"/>
<polygon fill="#63b8ff" stroke="#63b8ff" points="910.3,-334.87 920.75,-333.12 911.48,-327.98 910.3,-334.87"/>
</a>
</g>
</g>
<!-- Node19 -->
<g id="Node000019" class="node">
<title>Node19</title>
<g id="a_Node000019"><a xlink:href="peer__connection__observer_8cpp.html" target="_top" xlink:title=" ">
<polygon fill="white" stroke="#666666" points="982,-195 844,-195 844,-165 982,-165 982,-195"/>
<text text-anchor="start" x="852" y="-183" font-family="Helvetica,sans-Serif" font-size="10.00">src/core/peer_connection</text>
<text text-anchor="middle" x="913" y="-172" font-family="Helvetica,sans-Serif" font-size="10.00">_observer.cpp</text>
</a>
</g>
</g>
<!-- Node4&#45;&gt;Node19 -->
<g id="edge32_Node000004_Node000019" class="edge">
<title>Node4&#45;&gt;Node19</title>
<g id="a_edge32_Node000004_Node000019"><a xlink:title=" ">
<path fill="none" stroke="#63b8ff" d="M910.81,-335.46C873.11,-329.86 829.13,-316.02 805,-283 794.25,-268.29 795.81,-257.74 805,-242 818.19,-219.4 843.19,-204.52 865.81,-195.11"/>
<polygon fill="#63b8ff" stroke="#63b8ff" points="910.38,-338.93 920.75,-336.77 911.3,-331.99 910.38,-338.93"/>
</a>
</g>
</g>
<!-- Node20 -->
<g id="Node000020" class="node">
<title>Node20</title>
<g id="a_Node000020"><a xlink:href="signaling__client_8h.html" target="_top" xlink:title=" ">
<polygon fill="white" stroke="#666666" points="1300.5,-277.5 1163.5,-277.5 1163.5,-247.5 1300.5,-247.5 1300.5,-277.5"/>
<text text-anchor="start" x="1171.5" y="-265.5" font-family="Helvetica,sans-Serif" font-size="10.00">include/mosaic/signaling</text>
<text text-anchor="middle" x="1232" y="-254.5" font-family="Helvetica,sans-Serif" font-size="10.00">/signaling_client.h</text>
</a>
</g>
</g>
<!-- Node4&#45;&gt;Node20 -->
<g id="edge28_Node000004_Node000020" class="edge">
<title>Node4&#45;&gt;Node20</title>
<g id="a_edge28_Node000004_Node000020"><a xlink:title=" ">
<path fill="none" stroke="#63b8ff" d="M1036.14,-321.56C1080.9,-308.29 1142.43,-290.05 1184.51,-277.58"/>
<polygon fill="#63b8ff" stroke="#63b8ff" points="1034.88,-318.28 1026.29,-324.48 1036.87,-324.99 1034.88,-318.28"/>
</a>
</g>
</g>
<!-- Node5&#45;&gt;Node2 -->
<g id="edge5_Node000005_Node000002" class="edge">
<title>Node5&#45;&gt;Node2</title>
<g id="a_edge5_Node000005_Node000002"><a xlink:title=" ">
<path fill="none" stroke="#63b8ff" d="M424.45,-250.56C354.92,-240.9 254.03,-225.35 167,-206 153.2,-202.93 138.36,-198.97 124.87,-195.12"/>
<polygon fill="#63b8ff" stroke="#63b8ff" points="424.09,-254.05 434.47,-251.94 425.05,-247.11 424.09,-254.05"/>
</a>
</g>
</g>
<!-- Node6 -->
<g id="Node000006" class="node">
<title>Node6</title>
<g id="a_Node000006"><a xlink:href="a__dc__handler__configurer_8h.html" target="_top" xlink:title=" ">
<polygon fill="white" stroke="#666666" points="735,-112.5 589,-112.5 589,-71.5 735,-71.5 735,-112.5"/>
<text text-anchor="start" x="597" y="-100.5" font-family="Helvetica,sans-Serif" font-size="10.00">include/mosaic/auto</text>
<text text-anchor="start" x="597" y="-89.5" font-family="Helvetica,sans-Serif" font-size="10.00">_configurer/connector</text>
<text text-anchor="middle" x="662" y="-78.5" font-family="Helvetica,sans-Serif" font-size="10.00">/a_dc_handler_configurer.h</text>
</a>
</g>
</g>
<!-- Node5&#45;&gt;Node6 -->
<g id="edge6_Node000005_Node000006" class="edge">
<title>Node5&#45;&gt;Node6</title>
<g id="a_edge6_Node000005_Node000006"><a xlink:title=" ">
<path fill="none" stroke="#63b8ff" d="M533.87,-234.11C564.86,-199.98 617.04,-142.52 644.26,-112.53"/>
<polygon fill="#63b8ff" stroke="#63b8ff" points="530.98,-232.08 526.85,-241.84 536.16,-236.79 530.98,-232.08"/>
</a>
</g>
</g>
<!-- Node7 -->
<g id="Node000007" class="node">
<title>Node7</title>
<g id="a_Node000007"><a xlink:href="a__mt__handler__configurer_8h.html" target="_top" xlink:title=" ">
<polygon fill="white" stroke="#666666" points="902.5,-112.5 753.5,-112.5 753.5,-71.5 902.5,-71.5 902.5,-112.5"/>
<text text-anchor="start" x="761.5" y="-100.5" font-family="Helvetica,sans-Serif" font-size="10.00">include/mosaic/auto</text>
<text text-anchor="start" x="761.5" y="-89.5" font-family="Helvetica,sans-Serif" font-size="10.00">_configurer/connector</text>
<text text-anchor="middle" x="828" y="-78.5" font-family="Helvetica,sans-Serif" font-size="10.00">/a_mt_handler_configurer.h</text>
</a>
</g>
</g>
<!-- Node5&#45;&gt;Node7 -->
<g id="edge8_Node000005_Node000007" class="edge">
<title>Node5&#45;&gt;Node7</title>
<g id="a_edge8_Node000005_Node000007"><a xlink:title=" ">
<path fill="none" stroke="#63b8ff" d="M553.34,-236.48C568.02,-227.51 584.14,-216.91 598,-206 623.93,-185.59 622.93,-171.36 651,-154 670,-142.25 719.66,-125.52 761.55,-112.56"/>
<polygon fill="#63b8ff" stroke="#63b8ff" points="551.19,-233.69 544.41,-241.83 554.79,-239.69 551.19,-233.69"/>
</a>
</g>
</g>
<!-- Node8 -->
<g id="Node000008" class="node">
<title>Node8</title>
<g id="a_Node000008"><a xlink:href="a__parallel__dc__handler__configurer_8h.html" target="_top" xlink:title=" ">
<polygon fill="white" stroke="#666666" points="571,-118 445,-118 445,-66 571,-66 571,-118"/>
<text text-anchor="start" x="453" y="-106" font-family="Helvetica,sans-Serif" font-size="10.00">include/mosaic/auto</text>
<text text-anchor="start" x="453" y="-95" font-family="Helvetica,sans-Serif" font-size="10.00">_configurer/connector</text>
<text text-anchor="start" x="453" y="-84" font-family="Helvetica,sans-Serif" font-size="10.00">/a_parallel_dc_handler</text>
<text text-anchor="middle" x="508" y="-73" font-family="Helvetica,sans-Serif" font-size="10.00">_configurer.h</text>
</a>
</g>
</g>
<!-- Node5&#45;&gt;Node8 -->
<g id="edge10_Node000005_Node000008" class="edge">
<title>Node5&#45;&gt;Node8</title>
<g id="a_edge10_Node000005_Node000008"><a xlink:title=" ">
<path fill="none" stroke="#63b8ff" d="M526,-232.8C530.1,-224.44 533.9,-215.1 536,-206 541.19,-183.48 540.93,-176.58 536,-154 533.31,-141.71 527.91,-128.93 522.56,-118.26"/>
<polygon fill="#63b8ff" stroke="#63b8ff" points="522.85,-231.28 521.32,-241.76 529.05,-234.52 522.85,-231.28"/>
</a>
</g>
</g>
<!-- Node9 -->
<g id="Node000009" class="node">
<title>Node9</title>
<g id="a_Node000009"><a xlink:href="configurable__connector__factory_8h.html" target="_top" xlink:title=" ">
<polygon fill="white" stroke="#666666" points="527.5,-206 394.5,-206 394.5,-154 527.5,-154 527.5,-206"/>
<text text-anchor="start" x="402.5" y="-194" font-family="Helvetica,sans-Serif" font-size="10.00">include/mosaic/auto</text>
<text text-anchor="start" x="402.5" y="-183" font-family="Helvetica,sans-Serif" font-size="10.00">_configurer/connector</text>
<text text-anchor="start" x="402.5" y="-172" font-family="Helvetica,sans-Serif" font-size="10.00">/configurable_connector</text>
<text text-anchor="middle" x="461" y="-161" font-family="Helvetica,sans-Serif" font-size="10.00">_factory.h</text>
</a>
</g>
</g>
<!-- Node5&#45;&gt;Node9 -->
<g id="edge12_Node000005_Node000009" class="edge">
<title>Node5&#45;&gt;Node9</title>
<g id="a_edge12_Node000005_Node000009"><a xlink:title=" ">
<path fill="none" stroke="#63b8ff" d="M491.93,-232.88C486.73,-224.15 481.05,-214.63 476,-206.16"/>
<polygon fill="#63b8ff" stroke="#63b8ff" points="489.01,-234.8 497.13,-241.6 495.02,-231.22 489.01,-234.8"/>
</a>
</g>
</g>
<!-- Node10 -->
<g id="Node000010" class="node">
<title>Node10</title>
<g id="a_Node000010"><a xlink:href="connector__resolver_8h.html" target="_top" xlink:title=" ">
<polygon fill="white" stroke="#666666" points="427,-112.5 305,-112.5 305,-71.5 427,-71.5 427,-112.5"/>
<text text-anchor="start" x="313" y="-100.5" font-family="Helvetica,sans-Serif" font-size="10.00">include/mosaic/auto</text>
<text text-anchor="start" x="313" y="-89.5" font-family="Helvetica,sans-Serif" font-size="10.00">_configurer/connector</text>
<text text-anchor="middle" x="366" y="-78.5" font-family="Helvetica,sans-Serif" font-size="10.00">/connector_resolver.h</text>
</a>
</g>
</g>
<!-- Node5&#45;&gt;Node10 -->
<g id="edge16_Node000005_Node000010" class="edge">
<title>Node5&#45;&gt;Node10</title>
<g id="a_edge16_Node000005_Node000010"><a xlink:title=" ">
<path fill="none" stroke="#63b8ff" d="M425.21,-237.62C409.87,-229.79 395.43,-219.49 385,-206 364.07,-178.93 362.69,-137.23 364.03,-112.77"/>
<polygon fill="#63b8ff" stroke="#63b8ff" points="423.78,-240.82 434.32,-241.95 426.79,-234.5 423.78,-240.82"/>
</a>
</g>
</g>
<!-- Node12 -->
<g id="Node000012" class="node">
<title>Node12</title>
<g id="a_Node000012"><a xlink:href="i__configurable__connector_8cpp.html" target="_top" xlink:title=" ">
<polygon fill="white" stroke="#666666" points="337.5,-195 176.5,-195 176.5,-165 337.5,-165 337.5,-195"/>
<text text-anchor="start" x="184.5" y="-183" font-family="Helvetica,sans-Serif" font-size="10.00">src/auto_configurer</text>
<text text-anchor="middle" x="257" y="-172" font-family="Helvetica,sans-Serif" font-size="10.00">/i_configurable_connector.cpp</text>
</a>
</g>
</g>
<!-- Node5&#45;&gt;Node12 -->
<g id="edge17_Node000005_Node000012" class="edge">
<title>Node5&#45;&gt;Node12</title>
<g id="a_edge17_Node000005_Node000012"><a xlink:title=" ">
<path fill="none" stroke="#63b8ff" d="M437.9,-238.79C393.94,-224.75 338.89,-207.16 301.14,-195.1"/>
<polygon fill="#63b8ff" stroke="#63b8ff" points="437.09,-242.2 447.68,-241.91 439.22,-235.53 437.09,-242.2"/>
</a>
</g>
</g>
<!-- Node6&#45;&gt;Node3 -->
<g id="edge7_Node000006_Node000003" class="edge">
<title>Node6&#45;&gt;Node3</title>
<g id="a_edge7_Node000006_Node000003"><a xlink:title=" ">
<path fill="none" stroke="#63b8ff" d="M634.35,-64.07C622.66,-52.68 609.52,-39.89 599.74,-30.36"/>
<polygon fill="#63b8ff" stroke="#63b8ff" points="632.16,-66.82 641.77,-71.29 637.05,-61.81 632.16,-66.82"/>
</a>
</g>
</g>
<!-- Node7&#45;&gt;Node3 -->
<g id="edge9_Node000007_Node000003" class="edge">
<title>Node7&#45;&gt;Node3</title>
<g id="a_edge9_Node000007_Node000003"><a xlink:title=" ">
<path fill="none" stroke="#63b8ff" d="M754.98,-68.46C714.57,-55.99 665.61,-40.88 630.63,-30.08"/>
<polygon fill="#63b8ff" stroke="#63b8ff" points="754.2,-71.89 764.79,-71.49 756.27,-65.2 754.2,-71.89"/>
</a>
</g>
</g>
<!-- Node8&#45;&gt;Node3 -->
<g id="edge11_Node000008_Node000003" class="edge">
<title>Node8&#45;&gt;Node3</title>
<g id="a_edge11_Node000008_Node000003"><a xlink:title=" ">
<path fill="none" stroke="#63b8ff" d="M541.29,-58.57C551.39,-48.74 561.97,-38.44 570.19,-30.43"/>
<polygon fill="#63b8ff" stroke="#63b8ff" points="538.79,-56.12 534.07,-65.61 543.67,-61.14 538.79,-56.12"/>
</a>
</g>
</g>
<!-- Node9&#45;&gt;Node10 -->
<g id="edge13_Node000009_Node000010" class="edge">
<title>Node9&#45;&gt;Node10</title>
<g id="a_edge13_Node000009_Node000010"><a xlink:title=" ">
<path fill="none" stroke="#63b8ff" d="M425.52,-146.88C412.77,-135.34 398.78,-122.68 387.57,-112.53"/>
<polygon fill="#63b8ff" stroke="#63b8ff" points="423.5,-149.78 433.27,-153.89 428.2,-144.59 423.5,-149.78"/>
</a>
</g>
</g>
<!-- Node10&#45;&gt;Node3 -->
<g id="edge14_Node000010_Node000003" class="edge">
<title>Node10&#45;&gt;Node3</title>
<g id="a_edge14_Node000010_Node000003"><a xlink:title=" ">
<path fill="none" stroke="#63b8ff" d="M430.3,-67.98C432.22,-67.31 434.13,-66.65 436,-66 471.84,-53.59 512.69,-39.91 542.54,-30.01"/>
<polygon fill="#63b8ff" stroke="#63b8ff" points="428.89,-64.77 420.61,-71.38 431.2,-71.37 428.89,-64.77"/>
</a>
</g>
</g>
<!-- Node11 -->
<g id="Node000011" class="node">
<title>Node11</title>
<g id="a_Node000011"><a xlink:href="connector__resolver_8cpp.html" target="_top" xlink:title=" ">
<polygon fill="white" stroke="#666666" points="432,-30 300,-30 300,0 432,0 432,-30"/>
<text text-anchor="start" x="308" y="-18" font-family="Helvetica,sans-Serif" font-size="10.00">src/auto_configurer</text>
<text text-anchor="middle" x="366" y="-7" font-family="Helvetica,sans-Serif" font-size="10.00">/connector_resolver.cpp</text>
</a>
</g>
</g>
<!-- Node10&#45;&gt;Node11 -->
<g id="edge15_Node000010_Node000011" class="edge">
<title>Node10&#45;&gt;Node11</title>
<g id="a_edge15_Node000010_Node000011"><a xlink:title=" ">
<path fill="none" stroke="#63b8ff" d="M366,-61.11C366,-50.51 366,-39.07 366,-30.36"/>
<polygon fill="#63b8ff" stroke="#63b8ff" points="362.5,-61.29 366,-71.29 369.5,-61.29 362.5,-61.29"/>
</a>
</g>
</g>
<!-- Node13&#45;&gt;Node3 -->
<g id="edge19_Node000013_Node000003" class="edge">
<title>Node13&#45;&gt;Node3</title>
<g id="a_edge19_Node000013_Node000003"><a xlink:title=" ">
<path fill="none" stroke="#63b8ff" d="M1426.37,-241.23C1437.57,-231.96 1448.98,-219.92 1455,-206 1464.17,-184.79 1469.98,-171.6 1455,-154 1349.68,-30.27 819.75,-16.86 642.7,-15.88"/>
<polygon fill="#63b8ff" stroke="#63b8ff" points="1424.08,-238.58 1418.33,-247.49 1428.38,-244.11 1424.08,-238.58"/>
</a>
</g>
</g>
<!-- Node14 -->
<g id="Node000014" class="node">
<title>Node14</title>
<g id="a_Node000014"><a xlink:href="mosaic__connector__factory_8cpp.html" target="_top" xlink:title=" ">
<polygon fill="white" stroke="#666666" points="1446,-195 1300,-195 1300,-165 1446,-165 1446,-195"/>
<text text-anchor="start" x="1308" y="-183" font-family="Helvetica,sans-Serif" font-size="10.00">src/core/mosaic_connector</text>
<text text-anchor="middle" x="1373" y="-172" font-family="Helvetica,sans-Serif" font-size="10.00">_factory.cpp</text>
</a>
</g>
</g>
<!-- Node13&#45;&gt;Node14 -->
<g id="edge20_Node000013_Node000014" class="edge">
<title>Node13&#45;&gt;Node14</title>
<g id="a_edge20_Node000013_Node000014"><a xlink:title=" ">
<path fill="none" stroke="#63b8ff" d="M1389.18,-237.65C1385.23,-223.81 1380.39,-206.87 1377.04,-195.13"/>
<polygon fill="#63b8ff" stroke="#63b8ff" points="1385.88,-238.82 1391.99,-247.48 1392.61,-236.9 1385.88,-238.82"/>
</a>
</g>
</g>
<!-- Node15&#45;&gt;Node4 -->
<g id="edge22_Node000015_Node000004" class="edge">
<title>Node15&#45;&gt;Node4</title>
<g id="a_edge22_Node000015_Node000004"><a xlink:title=" ">
<path fill="none" stroke="#63b8ff" d="M1048.37,-284.61C1034.45,-297.33 1015.61,-313.18 1000.96,-324.39"/>
<polygon fill="#63b8ff" stroke="#63b8ff" points="1051.01,-286.93 1055.93,-277.54 1046.23,-281.82 1051.01,-286.93"/>
</a>
</g>
</g>
<!-- Node16 -->
<g id="Node000016" class="node">
<title>Node16</title>
<g id="a_Node000016"><a xlink:href="peer__connection__manager_8cpp.html" target="_top" xlink:title=" ">
<polygon fill="white" stroke="#666666" points="1138,-195 1000,-195 1000,-165 1138,-165 1138,-195"/>
<text text-anchor="start" x="1008" y="-183" font-family="Helvetica,sans-Serif" font-size="10.00">src/core/peer_connection</text>
<text text-anchor="middle" x="1069" y="-172" font-family="Helvetica,sans-Serif" font-size="10.00">_manager.cpp</text>
</a>
</g>
</g>
<!-- Node15&#45;&gt;Node16 -->
<g id="edge23_Node000015_Node000016" class="edge">
<title>Node15&#45;&gt;Node16</title>
<g id="a_edge23_Node000015_Node000016"><a xlink:title=" ">
<path fill="none" stroke="#63b8ff" d="M1067.6,-237.24C1067.94,-223.48 1068.36,-206.75 1068.65,-195.13"/>
<polygon fill="#63b8ff" stroke="#63b8ff" points="1064.1,-237.39 1067.35,-247.48 1071.1,-237.57 1064.1,-237.39"/>
</a>
</g>
</g>
<!-- Node17&#45;&gt;Node16 -->
<g id="edge26_Node000017_Node000016" class="edge">
<title>Node17&#45;&gt;Node16</title>
<g id="a_edge26_Node000017_Node000016"><a xlink:title=" ">
<path fill="none" stroke="#63b8ff" d="M931.95,-243.33C964.04,-228.74 1008.46,-208.53 1037.93,-195.13"/>
<polygon fill="#63b8ff" stroke="#63b8ff" points="930.48,-240.15 922.83,-247.48 933.38,-246.52 930.48,-240.15"/>
</a>
</g>
</g>
<!-- Node17&#45;&gt;Node18 -->
<g id="edge25_Node000017_Node000018" class="edge">
<title>Node17&#45;&gt;Node18</title>
<g id="a_edge25_Node000017_Node000018"><a xlink:title=" ">
<path fill="none" stroke="#63b8ff" d="M856.89,-242.53C825.94,-225.81 782.27,-202.22 759.03,-189.66"/>
<polygon fill="#63b8ff" stroke="#63b8ff" points="855.58,-245.8 866.05,-247.48 858.91,-239.65 855.58,-245.8"/>
</a>
</g>
</g>
<!-- Node17&#45;&gt;Node19 -->
<g id="edge27_Node000017_Node000019" class="edge">
<title>Node17&#45;&gt;Node19</title>
<g id="a_edge27_Node000017_Node000019"><a xlink:title=" ">
<path fill="none" stroke="#63b8ff" d="M898.22,-237.65C901.83,-223.81 906.25,-206.87 909.31,-195.13"/>
<polygon fill="#63b8ff" stroke="#63b8ff" points="894.8,-236.92 895.66,-247.48 901.57,-238.69 894.8,-236.92"/>
</a>
</g>
</g>
<!-- Node20&#45;&gt;Node14 -->
<g id="edge29_Node000020_Node000014" class="edge">
<title>Node20&#45;&gt;Node14</title>
<g id="a_edge29_Node000020_Node000014"><a xlink:title=" ">
<path fill="none" stroke="#63b8ff" d="M1265.48,-242.38C1290.9,-227.87 1325.28,-208.25 1348.25,-195.13"/>
<polygon fill="#63b8ff" stroke="#63b8ff" points="1263.51,-239.48 1256.56,-247.48 1266.98,-245.56 1263.51,-239.48"/>
</a>
</g>
</g>
<!-- Node21 -->
<g id="Node000021" class="node">
<title>Node21</title>
<g id="a_Node000021"><a xlink:href="signaling__client_8cpp.html" target="_top" xlink:title=" ">
<polygon fill="white" stroke="#666666" points="1281.5,-195 1156.5,-195 1156.5,-165 1281.5,-165 1281.5,-195"/>
<text text-anchor="start" x="1164.5" y="-183" font-family="Helvetica,sans-Serif" font-size="10.00">src/signaling/signaling</text>
<text text-anchor="middle" x="1219" y="-172" font-family="Helvetica,sans-Serif" font-size="10.00">_client.cpp</text>
</a>
</g>
</g>
<!-- Node20&#45;&gt;Node21 -->
<g id="edge30_Node000020_Node000021" class="edge">
<title>Node20&#45;&gt;Node21</title>
<g id="a_edge30_Node000020_Node000021"><a xlink:title=" ">
<path fill="none" stroke="#63b8ff" d="M1228.08,-237.24C1225.86,-223.48 1223.16,-206.75 1221.28,-195.13"/>
<polygon fill="#63b8ff" stroke="#63b8ff" points="1224.69,-238.16 1229.74,-247.48 1231.6,-237.05 1224.69,-238.16"/>
</a>
</g>
</g>
<!-- Node23 -->
<g id="Node000023" class="node">
<title>Node23</title>
<g id="a_Node000023"><a xlink:href="a__media__track__handler_8cpp.html" target="_top" xlink:title=" ">
<polygon fill="white" stroke="#666666" points="1614,-283 1492,-283 1492,-242 1614,-242 1614,-283"/>
<text text-anchor="start" x="1500" y="-271" font-family="Helvetica,sans-Serif" font-size="10.00">src/handlers/media</text>
<text text-anchor="start" x="1500" y="-260" font-family="Helvetica,sans-Serif" font-size="10.00">_track/a_media_track</text>
<text text-anchor="middle" x="1553" y="-249" font-family="Helvetica,sans-Serif" font-size="10.00">_handler.cpp</text>
</a>
</g>
</g>
<!-- Node22&#45;&gt;Node23 -->
<g id="edge34_Node000022_Node000023" class="edge">
<title>Node22&#45;&gt;Node23</title>
<g id="a_edge34_Node000022_Node000023"><a xlink:title=" ">
<path fill="none" stroke="#63b8ff" d="M1438.64,-314.86C1461.44,-304.62 1487.82,-292.77 1509.49,-283.04"/>
<polygon fill="#63b8ff" stroke="#63b8ff" points="1437.13,-311.7 1429.44,-318.99 1440,-318.09 1437.13,-311.7"/>
</a>
</g>
</g>
</g>
</svg>
