<?xml version="1.0" encoding="UTF-8" standalone="no"?>
<!DOCTYPE svg PUBLIC "-//W3C//DTD SVG 1.1//EN"
 "http://www.w3.org/Graphics/SVG/1.1/DTD/svg11.dtd">
<!-- Generated by graphviz version 2.43.0 (0)
 -->
<!-- Title: include/mosaic/security/i_mosaic_authenticator.h Pages: 1 -->
<svg width="1407pt" height="555pt"
 viewBox="0.00 0.00 1406.50 555.00" xmlns="http://www.w3.org/2000/svg" xmlns:xlink="http://www.w3.org/1999/xlink">
<g id="graph0" class="graph" transform="scale(1 1) rotate(0) translate(4 551)">
<title>include/mosaic/security/i_mosaic_authenticator.h</title>
<!-- Node1 -->
<g id="Node000001" class="node">
<title>Node1</title>
<g id="a_Node000001"><a xlink:title=" ">
<polygon fill="#999999" stroke="#666666" points="381.5,-547 239.5,-547 239.5,-517 381.5,-517 381.5,-547"/>
<text text-anchor="start" x="247.5" y="-535" font-family="Helvetica,sans-Serif" font-size="10.00">include/mosaic/security</text>
<text text-anchor="middle" x="310.5" y="-524" font-family="Helvetica,sans-Serif" font-size="10.00">/i_mosaic_authenticator.h</text>
</a>
</g>
</g>
<!-- Node2 -->
<g id="Node000002" class="node">
<title>Node2</title>
<g id="a_Node000002"><a xlink:href="a__mosaic__authenticator_8h.html" target="_top" xlink:title=" ">
<polygon fill="white" stroke="#666666" points="448,-481 303,-481 303,-451 448,-451 448,-481"/>
<text text-anchor="start" x="311" y="-469" font-family="Helvetica,sans-Serif" font-size="10.00">include/mosaic/security</text>
<text text-anchor="middle" x="375.5" y="-458" font-family="Helvetica,sans-Serif" font-size="10.00">/a_mosaic_authenticator.h</text>
</a>
</g>
</g>
<!-- Node1&#45;&gt;Node2 -->
<g id="edge1_Node000001_Node000002" class="edge">
<title>Node1&#45;&gt;Node2</title>
<g id="a_edge1_Node000001_Node000002"><a xlink:title=" ">
<path fill="none" stroke="#63b8ff" d="M332.19,-509.65C341.71,-500.27 352.62,-489.53 361.11,-481.16"/>
<polygon fill="#63b8ff" stroke="#63b8ff" points="329.6,-507.29 324.93,-516.8 334.51,-512.27 329.6,-507.29"/>
</a>
</g>
</g>
<!-- Node9 -->
<g id="Node000009" class="node">
<title>Node9</title>
<g id="a_Node000009"><a xlink:href="authenticator__factory_8h.html" target="_top" xlink:title=" ">
<polygon fill="white" stroke="#666666" points="204.5,-481 72.5,-481 72.5,-451 204.5,-451 204.5,-481"/>
<text text-anchor="start" x="80.5" y="-469" font-family="Helvetica,sans-Serif" font-size="10.00">include/mosaic/security</text>
<text text-anchor="middle" x="138.5" y="-458" font-family="Helvetica,sans-Serif" font-size="10.00">/authenticator_factory.h</text>
</a>
</g>
</g>
<!-- Node1&#45;&gt;Node9 -->
<g id="edge9_Node000001_Node000009" class="edge">
<title>Node1&#45;&gt;Node9</title>
<g id="a_edge9_Node000001_Node000009"><a xlink:title=" ">
<path fill="none" stroke="#63b8ff" d="M263.35,-513.46C235.91,-503.25 201.79,-490.55 176.16,-481.01"/>
<polygon fill="#63b8ff" stroke="#63b8ff" points="262.16,-516.75 272.75,-516.95 264.6,-510.19 262.16,-516.75"/>
</a>
</g>
</g>
<!-- Node10 -->
<g id="Node000010" class="node">
<title>Node10</title>
<g id="a_Node000010"><a xlink:href="authenticator__resolver_8h.html" target="_top" xlink:title=" ">
<polygon fill="white" stroke="#666666" points="192.5,-415 54.5,-415 54.5,-385 192.5,-385 192.5,-415"/>
<text text-anchor="start" x="62.5" y="-403" font-family="Helvetica,sans-Serif" font-size="10.00">include/mosaic/security</text>
<text text-anchor="middle" x="123.5" y="-392" font-family="Helvetica,sans-Serif" font-size="10.00">/authenticator_resolver.h</text>
</a>
</g>
</g>
<!-- Node1&#45;&gt;Node10 -->
<g id="edge13_Node000001_Node000010" class="edge">
<title>Node1&#45;&gt;Node10</title>
<g id="a_edge13_Node000001_Node000010"><a xlink:title=" ">
<path fill="none" stroke="#63b8ff" d="M287.48,-509.97C268.4,-493.05 240.17,-469.18 213.5,-451 193.71,-437.51 169.98,-424.44 151.85,-415.05"/>
<polygon fill="#63b8ff" stroke="#63b8ff" points="285.28,-512.7 295.07,-516.76 289.95,-507.49 285.28,-512.7"/>
</a>
</g>
</g>
<!-- Node12 -->
<g id="Node000012" class="node">
<title>Node12</title>
<g id="a_Node000012"><a xlink:href="i__signaling__client_8h.html" target="_top" xlink:title=" ">
<polygon fill="white" stroke="#666666" points="891,-481 754,-481 754,-451 891,-451 891,-481"/>
<text text-anchor="start" x="762" y="-469" font-family="Helvetica,sans-Serif" font-size="10.00">include/mosaic/signaling</text>
<text text-anchor="middle" x="822.5" y="-458" font-family="Helvetica,sans-Serif" font-size="10.00">/i_signaling_client.h</text>
</a>
</g>
</g>
<!-- Node1&#45;&gt;Node12 -->
<g id="edge14_Node000001_Node000012" class="edge">
<title>Node1&#45;&gt;Node12</title>
<g id="a_edge14_Node000001_Node000012"><a xlink:title=" ">
<path fill="none" stroke="#63b8ff" d="M391.76,-520.84C491.84,-508.33 660.1,-487.3 753.96,-475.57"/>
<polygon fill="#63b8ff" stroke="#63b8ff" points="391.18,-517.39 381.69,-522.1 392.05,-524.33 391.18,-517.39"/>
</a>
</g>
</g>
<!-- Node3 -->
<g id="Node000003" class="node">
<title>Node3</title>
<g id="a_Node000003"><a xlink:href="no__auth__authenticator_8h.html" target="_top" xlink:title=" ">
<polygon fill="white" stroke="#666666" points="512.5,-415 350.5,-415 350.5,-385 512.5,-385 512.5,-415"/>
<text text-anchor="start" x="358.5" y="-403" font-family="Helvetica,sans-Serif" font-size="10.00">include/mosaic/security</text>
<text text-anchor="middle" x="431.5" y="-392" font-family="Helvetica,sans-Serif" font-size="10.00">/impl/no_auth_authenticator.h</text>
</a>
</g>
</g>
<!-- Node2&#45;&gt;Node3 -->
<g id="edge2_Node000002_Node000003" class="edge">
<title>Node2&#45;&gt;Node3</title>
<g id="a_edge2_Node000002_Node000003"><a xlink:title=" ">
<path fill="none" stroke="#63b8ff" d="M394.67,-443.09C402.76,-433.85 411.94,-423.36 419.11,-415.16"/>
<polygon fill="#63b8ff" stroke="#63b8ff" points="391.88,-440.97 387.93,-450.8 397.15,-445.58 391.88,-440.97"/>
</a>
</g>
</g>
<!-- Node6 -->
<g id="Node000006" class="node">
<title>Node6</title>
<g id="a_Node000006"><a xlink:href="simple__token__authenticator_8h.html" target="_top" xlink:title=" ">
<polygon fill="white" stroke="#666666" points="718.5,-415 530.5,-415 530.5,-385 718.5,-385 718.5,-415"/>
<text text-anchor="start" x="538.5" y="-403" font-family="Helvetica,sans-Serif" font-size="10.00">include/mosaic/security</text>
<text text-anchor="middle" x="624.5" y="-392" font-family="Helvetica,sans-Serif" font-size="10.00">/impl/simple_token_authenticator.h</text>
</a>
</g>
</g>
<!-- Node2&#45;&gt;Node6 -->
<g id="edge5_Node000002_Node000006" class="edge">
<title>Node2&#45;&gt;Node6</title>
<g id="a_edge5_Node000002_Node000006"><a xlink:title=" ">
<path fill="none" stroke="#63b8ff" d="M439.88,-448.45C480.23,-438.08 531.66,-424.86 569.98,-415.01"/>
<polygon fill="#63b8ff" stroke="#63b8ff" points="438.96,-445.08 430.14,-450.95 440.7,-451.86 438.96,-445.08"/>
</a>
</g>
</g>
<!-- Node8 -->
<g id="Node000008" class="node">
<title>Node8</title>
<g id="a_Node000008"><a xlink:href="a__mosaic__authenticator_8cpp.html" target="_top" xlink:title=" ">
<polygon fill="white" stroke="#666666" points="332.5,-415 210.5,-415 210.5,-385 332.5,-385 332.5,-415"/>
<text text-anchor="start" x="218.5" y="-403" font-family="Helvetica,sans-Serif" font-size="10.00">src/security/a_mosaic</text>
<text text-anchor="middle" x="271.5" y="-392" font-family="Helvetica,sans-Serif" font-size="10.00">_authenticator.cpp</text>
</a>
</g>
</g>
<!-- Node2&#45;&gt;Node8 -->
<g id="edge8_Node000002_Node000008" class="edge">
<title>Node2&#45;&gt;Node8</title>
<g id="a_edge8_Node000002_Node000008"><a xlink:title=" ">
<path fill="none" stroke="#63b8ff" d="M344.13,-445.69C328.07,-435.82 308.89,-424.01 294.27,-415.01"/>
<polygon fill="#63b8ff" stroke="#63b8ff" points="342.33,-448.69 352.68,-450.95 345.99,-442.73 342.33,-448.69"/>
</a>
</g>
</g>
<!-- Node4 -->
<g id="Node000004" class="node">
<title>Node4</title>
<g id="a_Node000004"><a xlink:href="authenticator__resolver_8cpp.html" target="_top" xlink:title=" ">
<polygon fill="white" stroke="#666666" points="484,-349 343,-349 343,-319 484,-319 484,-349"/>
<text text-anchor="start" x="351" y="-337" font-family="Helvetica,sans-Serif" font-size="10.00">src/security/authenticator</text>
<text text-anchor="middle" x="413.5" y="-326" font-family="Helvetica,sans-Serif" font-size="10.00">_resolver.cpp</text>
</a>
</g>
</g>
<!-- Node3&#45;&gt;Node4 -->
<g id="edge3_Node000003_Node000004" class="edge">
<title>Node3&#45;&gt;Node4</title>
<g id="a_edge3_Node000003_Node000004"><a xlink:title=" ">
<path fill="none" stroke="#63b8ff" d="M424.78,-375.11C422.32,-366.38 419.63,-356.78 417.48,-349.16"/>
<polygon fill="#63b8ff" stroke="#63b8ff" points="421.43,-376.12 427.51,-384.8 428.17,-374.22 421.43,-376.12"/>
</a>
</g>
</g>
<!-- Node5 -->
<g id="Node000005" class="node">
<title>Node5</title>
<g id="a_Node000005"><a xlink:href="no__auth__authenticator_8cpp.html" target="_top" xlink:title=" ">
<polygon fill="white" stroke="#666666" points="636.5,-349 502.5,-349 502.5,-319 636.5,-319 636.5,-349"/>
<text text-anchor="start" x="510.5" y="-337" font-family="Helvetica,sans-Serif" font-size="10.00">src/security/impl/no</text>
<text text-anchor="middle" x="569.5" y="-326" font-family="Helvetica,sans-Serif" font-size="10.00">_auth_authenticator.cpp</text>
</a>
</g>
</g>
<!-- Node3&#45;&gt;Node5 -->
<g id="edge4_Node000003_Node000005" class="edge">
<title>Node3&#45;&gt;Node5</title>
<g id="a_edge4_Node000003_Node000005"><a xlink:title=" ">
<path fill="none" stroke="#63b8ff" d="M471.07,-380.65C492.77,-370.58 519.26,-358.3 539.29,-349.01"/>
<polygon fill="#63b8ff" stroke="#63b8ff" points="469.38,-377.57 461.78,-384.95 472.33,-383.92 469.38,-377.57"/>
</a>
</g>
</g>
<!-- Node6&#45;&gt;Node4 -->
<g id="edge6_Node000006_Node000004" class="edge">
<title>Node6&#45;&gt;Node4</title>
<g id="a_edge6_Node000006_Node000004"><a xlink:title=" ">
<path fill="none" stroke="#63b8ff" d="M568.42,-381.99C534.47,-371.69 491.69,-358.72 459.7,-349.01"/>
<polygon fill="#63b8ff" stroke="#63b8ff" points="567.61,-385.4 578.2,-384.95 569.64,-378.7 567.61,-385.4"/>
</a>
</g>
</g>
<!-- Node7 -->
<g id="Node000007" class="node">
<title>Node7</title>
<g id="a_Node000007"><a xlink:href="simple__token__authenticator_8cpp.html" target="_top" xlink:title=" ">
<polygon fill="white" stroke="#666666" points="794,-349 655,-349 655,-319 794,-319 794,-349"/>
<text text-anchor="start" x="663" y="-337" font-family="Helvetica,sans-Serif" font-size="10.00">src/security/impl/simple</text>
<text text-anchor="middle" x="724.5" y="-326" font-family="Helvetica,sans-Serif" font-size="10.00">_token_authenticator.cpp</text>
</a>
</g>
</g>
<!-- Node6&#45;&gt;Node7 -->
<g id="edge7_Node000006_Node000007" class="edge">
<title>Node6&#45;&gt;Node7</title>
<g id="a_edge7_Node000006_Node000007"><a xlink:title=" ">
<path fill="none" stroke="#63b8ff" d="M655.28,-379.3C670.5,-369.56 688.53,-358.02 702.37,-349.16"/>
<polygon fill="#63b8ff" stroke="#63b8ff" points="653.23,-376.46 646.69,-384.8 657,-382.35 653.23,-376.46"/>
</a>
</g>
</g>
<!-- Node9&#45;&gt;Node10 -->
<g id="edge10_Node000009_Node000010" class="edge">
<title>Node9&#45;&gt;Node10</title>
<g id="a_edge10_Node000009_Node000010"><a xlink:title=" ">
<path fill="none" stroke="#63b8ff" d="M132.83,-440.83C130.81,-432.17 128.59,-422.7 126.82,-415.16"/>
<polygon fill="#63b8ff" stroke="#63b8ff" points="129.48,-441.86 135.17,-450.8 136.3,-440.26 129.48,-441.86"/>
</a>
</g>
</g>
<!-- Node10&#45;&gt;Node4 -->
<g id="edge12_Node000010_Node000004" class="edge">
<title>Node10&#45;&gt;Node4</title>
<g id="a_edge12_Node000010_Node000004"><a xlink:title=" ">
<path fill="none" stroke="#63b8ff" d="M197,-382.78C244.21,-372.36 304.9,-358.97 350.01,-349.01"/>
<polygon fill="#63b8ff" stroke="#63b8ff" points="196.15,-379.38 187.14,-384.95 197.66,-386.22 196.15,-379.38"/>
</a>
</g>
</g>
<!-- Node11 -->
<g id="Node000011" class="node">
<title>Node11</title>
<g id="a_Node000011"><a xlink:href="mosaic__connector__factory_8cpp.html" target="_top" xlink:title=" ">
<polygon fill="white" stroke="#666666" points="289.5,-195 143.5,-195 143.5,-165 289.5,-165 289.5,-195"/>
<text text-anchor="start" x="151.5" y="-183" font-family="Helvetica,sans-Serif" font-size="10.00">src/core/mosaic_connector</text>
<text text-anchor="middle" x="216.5" y="-172" font-family="Helvetica,sans-Serif" font-size="10.00">_factory.cpp</text>
</a>
</g>
</g>
<!-- Node10&#45;&gt;Node11 -->
<g id="edge11_Node000010_Node000011" class="edge">
<title>Node10&#45;&gt;Node11</title>
<g id="a_edge11_Node000010_Node000011"><a xlink:title=" ">
<path fill="none" stroke="#63b8ff" d="M121.08,-374.63C119.02,-342.25 119.38,-284.22 142.5,-242 153.53,-221.85 174.18,-205.7 190.86,-195.09"/>
<polygon fill="#63b8ff" stroke="#63b8ff" points="117.62,-375.25 121.88,-384.95 124.6,-374.71 117.62,-375.25"/>
</a>
</g>
</g>
<!-- Node12&#45;&gt;Node5 -->
<g id="edge52_Node000012_Node000005" class="edge">
<title>Node12&#45;&gt;Node5</title>
<g id="a_edge52_Node000012_Node000005"><a xlink:title=" ">
<path fill="none" stroke="#63b8ff" d="M797.03,-444.47C786.03,-435.51 773.05,-424.83 761.5,-415 746.15,-401.94 745.04,-394.92 727.5,-385 698.83,-368.78 664.19,-357.07 634.67,-349.08"/>
<polygon fill="#63b8ff" stroke="#63b8ff" points="795.04,-447.36 805.01,-450.94 799.45,-441.92 795.04,-447.36"/>
</a>
</g>
</g>
<!-- Node12&#45;&gt;Node7 -->
<g id="edge53_Node000012_Node000007" class="edge">
<title>Node12&#45;&gt;Node7</title>
<g id="a_edge53_Node000012_Node000007"><a xlink:title=" ">
<path fill="none" stroke="#63b8ff" d="M805.76,-442.8C785.55,-415.99 752.16,-371.7 735.16,-349.14"/>
<polygon fill="#63b8ff" stroke="#63b8ff" points="803.01,-444.96 811.83,-450.84 808.6,-440.75 803.01,-444.96"/>
</a>
</g>
</g>
<!-- Node13 -->
<g id="Node000013" class="node">
<title>Node13</title>
<g id="a_Node000013"><a xlink:href="connector__state__manager_8h.html" target="_top" xlink:title=" ">
<polygon fill="white" stroke="#666666" points="1063,-415 908,-415 908,-385 1063,-385 1063,-415"/>
<text text-anchor="start" x="916" y="-403" font-family="Helvetica,sans-Serif" font-size="10.00">include/mosaic/core</text>
<text text-anchor="middle" x="985.5" y="-392" font-family="Helvetica,sans-Serif" font-size="10.00">/connector_state_manager.h</text>
</a>
</g>
</g>
<!-- Node12&#45;&gt;Node13 -->
<g id="edge15_Node000012_Node000013" class="edge">
<title>Node12&#45;&gt;Node13</title>
<g id="a_edge15_Node000012_Node000013"><a xlink:title=" ">
<path fill="none" stroke="#63b8ff" d="M867.86,-447.19C893.75,-437.02 925.73,-424.47 949.81,-415.01"/>
<polygon fill="#63b8ff" stroke="#63b8ff" points="866.3,-444.04 858.27,-450.95 868.86,-450.56 866.3,-444.04"/>
</a>
</g>
</g>
<!-- Node26 -->
<g id="Node000026" class="node">
<title>Node26</title>
<g id="a_Node000026"><a xlink:href="peer__connection__manager_8h.html" target="_top" xlink:title=" ">
<polygon fill="white" stroke="#666666" points="1298,-277.5 1141,-277.5 1141,-247.5 1298,-247.5 1298,-277.5"/>
<text text-anchor="start" x="1149" y="-265.5" font-family="Helvetica,sans-Serif" font-size="10.00">include/mosaic/core</text>
<text text-anchor="middle" x="1219.5" y="-254.5" font-family="Helvetica,sans-Serif" font-size="10.00">/peer_connection_manager.h</text>
</a>
</g>
</g>
<!-- Node12&#45;&gt;Node26 -->
<g id="edge49_Node000012_Node000026" class="edge">
<title>Node12&#45;&gt;Node26</title>
<g id="a_edge49_Node000012_Node000026"><a xlink:title=" ">
<path fill="none" stroke="#63b8ff" d="M901.21,-461.15C952.35,-455.85 1019.01,-443.51 1071.5,-415 1135.47,-380.25 1189.02,-308.62 1210,-277.95"/>
<polygon fill="#63b8ff" stroke="#63b8ff" points="900.81,-457.67 891.2,-462.12 901.49,-464.64 900.81,-457.67"/>
</a>
</g>
</g>
<!-- Node27 -->
<g id="Node000027" class="node">
<title>Node27</title>
<g id="a_Node000027"><a xlink:href="peer__connection__manager_8cpp.html" target="_top" xlink:title=" ">
<polygon fill="white" stroke="#666666" points="1398.5,-195 1260.5,-195 1260.5,-165 1398.5,-165 1398.5,-195"/>
<text text-anchor="start" x="1268.5" y="-183" font-family="Helvetica,sans-Serif" font-size="10.00">src/core/peer_connection</text>
<text text-anchor="middle" x="1329.5" y="-172" font-family="Helvetica,sans-Serif" font-size="10.00">_manager.cpp</text>
</a>
</g>
</g>
<!-- Node12&#45;&gt;Node27 -->
<g id="edge51_Node000012_Node000027" class="edge">
<title>Node12&#45;&gt;Node27</title>
<g id="a_edge51_Node000012_Node000027"><a xlink:title=" ">
<path fill="none" stroke="#63b8ff" d="M901.36,-458.75C959.48,-452.33 1039.7,-439.64 1106.5,-415 1214.91,-375.01 1273.17,-383.33 1330.5,-283 1346.32,-255.32 1339.4,-216.14 1333.89,-195.31"/>
<polygon fill="#63b8ff" stroke="#63b8ff" points="900.71,-455.3 891.14,-459.84 901.45,-462.26 900.71,-455.3"/>
</a>
</g>
</g>
<!-- Node31 -->
<g id="Node000031" class="node">
<title>Node31</title>
<g id="a_Node000031"><a xlink:href="signaling__client_8h.html" target="_top" xlink:title=" ">
<polygon fill="white" stroke="#666666" points="289,-277.5 152,-277.5 152,-247.5 289,-247.5 289,-277.5"/>
<text text-anchor="start" x="160" y="-265.5" font-family="Helvetica,sans-Serif" font-size="10.00">include/mosaic/signaling</text>
<text text-anchor="middle" x="220.5" y="-254.5" font-family="Helvetica,sans-Serif" font-size="10.00">/signaling_client.h</text>
</a>
</g>
</g>
<!-- Node12&#45;&gt;Node31 -->
<g id="edge50_Node000012_Node000031" class="edge">
<title>Node12&#45;&gt;Node31</title>
<g id="a_edge50_Node000012_Node000031"><a xlink:title=" ">
<path fill="none" stroke="#63b8ff" d="M827.4,-440.71C832.46,-407.9 835.54,-349.96 802.5,-319 761.45,-280.54 353.04,-291.94 297.5,-283 288.79,-281.6 279.62,-279.68 270.76,-277.59"/>
<polygon fill="#63b8ff" stroke="#63b8ff" points="823.91,-440.35 825.66,-450.8 830.81,-441.54 823.91,-440.35"/>
</a>
</g>
</g>
<!-- Node14 -->
<g id="Node000014" class="node">
<title>Node14</title>
<g id="a_Node000014"><a xlink:href="mosaic__connector_8h.html" target="_top" xlink:title=" ">
<polygon fill="white" stroke="#666666" points="1100.5,-349 984.5,-349 984.5,-319 1100.5,-319 1100.5,-349"/>
<text text-anchor="start" x="992.5" y="-337" font-family="Helvetica,sans-Serif" font-size="10.00">include/mosaic/core</text>
<text text-anchor="middle" x="1042.5" y="-326" font-family="Helvetica,sans-Serif" font-size="10.00">/mosaic_connector.h</text>
</a>
</g>
</g>
<!-- Node13&#45;&gt;Node14 -->
<g id="edge16_Node000013_Node000014" class="edge">
<title>Node13&#45;&gt;Node14</title>
<g id="a_edge16_Node000013_Node000014"><a xlink:title=" ">
<path fill="none" stroke="#63b8ff" d="M1005.02,-377.09C1013.24,-367.85 1022.59,-357.36 1029.89,-349.16"/>
<polygon fill="#63b8ff" stroke="#63b8ff" points="1002.19,-375 998.15,-384.8 1007.41,-379.66 1002.19,-375"/>
</a>
</g>
</g>
<!-- Node13&#45;&gt;Node27 -->
<g id="edge48_Node000013_Node000027" class="edge">
<title>Node13&#45;&gt;Node27</title>
<g id="a_edge48_Node000013_Node000027"><a xlink:title=" ">
<path fill="none" stroke="#63b8ff" d="M1073.13,-390.36C1146.07,-378.45 1247.25,-350.16 1306.5,-283 1328.48,-258.09 1330.79,-216.67 1330.32,-195.08"/>
<polygon fill="#63b8ff" stroke="#63b8ff" points="1072.37,-386.94 1063.03,-391.94 1073.45,-393.85 1072.37,-386.94"/>
</a>
</g>
</g>
<!-- Node33 -->
<g id="Node000033" class="node">
<title>Node33</title>
<g id="a_Node000033"><a xlink:href="connector__state__manager_8cpp.html" target="_top" xlink:title=" ">
<polygon fill="white" stroke="#666666" points="966,-349 851,-349 851,-319 966,-319 966,-349"/>
<text text-anchor="start" x="859" y="-337" font-family="Helvetica,sans-Serif" font-size="10.00">src/core/connector</text>
<text text-anchor="middle" x="908.5" y="-326" font-family="Helvetica,sans-Serif" font-size="10.00">_state_manager.cpp</text>
</a>
</g>
</g>
<!-- Node13&#45;&gt;Node33 -->
<g id="edge47_Node000013_Node000033" class="edge">
<title>Node13&#45;&gt;Node33</title>
<g id="a_edge47_Node000013_Node000033"><a xlink:title=" ">
<path fill="none" stroke="#63b8ff" d="M960.48,-378.2C949.05,-368.7 935.8,-357.69 925.54,-349.16"/>
<polygon fill="#63b8ff" stroke="#63b8ff" points="958.48,-381.1 968.41,-384.8 962.96,-375.71 958.48,-381.1"/>
</a>
</g>
</g>
<!-- Node15 -->
<g id="Node000015" class="node">
<title>Node15</title>
<g id="a_Node000015"><a xlink:href="i__configurable__connector_8h.html" target="_top" xlink:title=" ">
<polygon fill="white" stroke="#666666" points="758,-283 609,-283 609,-242 758,-242 758,-283"/>
<text text-anchor="start" x="617" y="-271" font-family="Helvetica,sans-Serif" font-size="10.00">include/mosaic/auto</text>
<text text-anchor="start" x="617" y="-260" font-family="Helvetica,sans-Serif" font-size="10.00">_configurer/connector</text>
<text text-anchor="middle" x="683.5" y="-249" font-family="Helvetica,sans-Serif" font-size="10.00">/i_configurable_connector.h</text>
</a>
</g>
</g>
<!-- Node14&#45;&gt;Node15 -->
<g id="edge17_Node000014_Node000015" class="edge">
<title>Node14&#45;&gt;Node15</title>
<g id="a_edge17_Node000014_Node000015"><a xlink:title=" ">
<path fill="none" stroke="#63b8ff" d="M974.02,-318.92C894.11,-303.12 814.43,-288 758.02,-277.4"/>
<polygon fill="#63b8ff" stroke="#63b8ff" points="973.78,-322.44 984.27,-320.95 975.14,-315.58 973.78,-322.44"/>
</a>
</g>
</g>
<!-- Node25 -->
<g id="Node000025" class="node">
<title>Node25</title>
<g id="a_Node000025"><a xlink:href="mosaic__connector__factory_8h.html" target="_top" xlink:title=" ">
<polygon fill="white" stroke="#666666" points="462,-277.5 307,-277.5 307,-247.5 462,-247.5 462,-277.5"/>
<text text-anchor="start" x="315" y="-265.5" font-family="Helvetica,sans-Serif" font-size="10.00">include/mosaic/core</text>
<text text-anchor="middle" x="384.5" y="-254.5" font-family="Helvetica,sans-Serif" font-size="10.00">/mosaic_connector_factory.h</text>
</a>
</g>
</g>
<!-- Node14&#45;&gt;Node25 -->
<g id="edge32_Node000014_Node000025" class="edge">
<title>Node14&#45;&gt;Node25</title>
<g id="a_edge32_Node000014_Node000025"><a xlink:title=" ">
<path fill="none" stroke="#63b8ff" d="M974.02,-319.26C907.37,-311.4 606.59,-283.77 462.13,-270.58"/>
<polygon fill="#63b8ff" stroke="#63b8ff" points="973.97,-322.78 984.34,-320.59 974.87,-315.84 973.97,-322.78"/>
</a>
</g>
</g>
<!-- Node14&#45;&gt;Node26 -->
<g id="edge35_Node000014_Node000026" class="edge">
<title>Node14&#45;&gt;Node26</title>
<g id="a_edge35_Node000014_Node000026"><a xlink:title=" ">
<path fill="none" stroke="#63b8ff" d="M1082.07,-315.11C1110.7,-303.42 1149.17,-288.37 1178.19,-277.54"/>
<polygon fill="#63b8ff" stroke="#63b8ff" points="1080.69,-311.9 1072.77,-318.94 1083.35,-318.37 1080.69,-311.9"/>
</a>
</g>
</g>
<!-- Node28 -->
<g id="Node000028" class="node">
<title>Node28</title>
<g id="a_Node000028"><a xlink:href="peer__connection__observer_8h.html" target="_top" xlink:title=" ">
<polygon fill="white" stroke="#666666" points="1122.5,-277.5 966.5,-277.5 966.5,-247.5 1122.5,-247.5 1122.5,-277.5"/>
<text text-anchor="start" x="974.5" y="-265.5" font-family="Helvetica,sans-Serif" font-size="10.00">include/mosaic/core</text>
<text text-anchor="middle" x="1044.5" y="-254.5" font-family="Helvetica,sans-Serif" font-size="10.00">/peer_connection_observer.h</text>
</a>
</g>
</g>
<!-- Node14&#45;&gt;Node28 -->
<g id="edge38_Node000014_Node000028" class="edge">
<title>Node14&#45;&gt;Node28</title>
<g id="a_edge38_Node000014_Node000028"><a xlink:title=" ">
<path fill="none" stroke="#63b8ff" d="M1043.2,-308.75C1043.5,-298.31 1043.84,-286.49 1044.1,-277.54"/>
<polygon fill="#63b8ff" stroke="#63b8ff" points="1039.69,-308.84 1042.9,-318.94 1046.69,-309.04 1039.69,-308.84"/>
</a>
</g>
</g>
<!-- Node29 -->
<g id="Node000029" class="node">
<title>Node29</title>
<g id="a_Node000029"><a xlink:href="mosaic__connector_8cpp.html" target="_top" xlink:title=" ">
<polygon fill="white" stroke="#666666" points="1242.5,-189.5 1076.5,-189.5 1076.5,-170.5 1242.5,-170.5 1242.5,-189.5"/>
<text text-anchor="middle" x="1159.5" y="-177.5" font-family="Helvetica,sans-Serif" font-size="10.00">src/core/mosaic_connector.cpp</text>
</a>
</g>
</g>
<!-- Node14&#45;&gt;Node29 -->
<g id="edge45_Node000014_Node000029" class="edge">
<title>Node14&#45;&gt;Node29</title>
<g id="a_edge45_Node000014_Node000029"><a xlink:title=" ">
<path fill="none" stroke="#63b8ff" d="M991.75,-314.33C978.23,-306.76 965.24,-296.53 957.5,-283 948.45,-267.18 946.64,-256.63 957.5,-242 962.7,-235 1072.02,-204.64 1127.62,-189.56"/>
<polygon fill="#63b8ff" stroke="#63b8ff" points="990.17,-317.45 1000.66,-318.93 993.38,-311.23 990.17,-317.45"/>
</a>
</g>
</g>
<!-- Node30 -->
<g id="Node000030" class="node">
<title>Node30</title>
<g id="a_Node000030"><a xlink:href="peer__connection__observer_8cpp.html" target="_top" xlink:title=" ">
<polygon fill="white" stroke="#666666" points="1058.5,-195 920.5,-195 920.5,-165 1058.5,-165 1058.5,-195"/>
<text text-anchor="start" x="928.5" y="-183" font-family="Helvetica,sans-Serif" font-size="10.00">src/core/peer_connection</text>
<text text-anchor="middle" x="989.5" y="-172" font-family="Helvetica,sans-Serif" font-size="10.00">_observer.cpp</text>
</a>
</g>
</g>
<!-- Node14&#45;&gt;Node30 -->
<g id="edge46_Node000014_Node000030" class="edge">
<title>Node14&#45;&gt;Node30</title>
<g id="a_edge46_Node000014_Node000030"><a xlink:title=" ">
<path fill="none" stroke="#63b8ff" d="M985.81,-315.65C959.35,-306.29 932.02,-294.36 924.5,-283 914.44,-267.81 917.26,-258.72 924.5,-242 933.05,-222.26 951.47,-205.97 966.53,-195.21"/>
<polygon fill="#63b8ff" stroke="#63b8ff" points="984.89,-319.03 995.49,-318.98 987.17,-312.41 984.89,-319.03"/>
</a>
</g>
</g>
<!-- Node14&#45;&gt;Node31 -->
<g id="edge42_Node000014_Node000031" class="edge">
<title>Node14&#45;&gt;Node31</title>
<g id="a_edge42_Node000014_Node000031"><a xlink:title=" ">
<path fill="none" stroke="#63b8ff" d="M974.04,-319.12C673.82,-281.57 592.06,-327.69 297.5,-283 288.5,-281.63 279.02,-279.68 269.91,-277.52"/>
<polygon fill="#63b8ff" stroke="#63b8ff" points="974,-322.64 984.36,-320.43 974.88,-315.7 974,-322.64"/>
</a>
</g>
</g>
<!-- Node16 -->
<g id="Node000016" class="node">
<title>Node16</title>
<g id="a_Node000016"><a xlink:href="auto__configurer_8h.html" target="_top" xlink:title=" ">
<polygon fill="white" stroke="#666666" points="647.5,-107 489.5,-107 489.5,-77 647.5,-77 647.5,-107"/>
<text text-anchor="start" x="497.5" y="-95" font-family="Helvetica,sans-Serif" font-size="10.00">include/mosaic/auto</text>
<text text-anchor="middle" x="568.5" y="-84" font-family="Helvetica,sans-Serif" font-size="10.00">_configurer/auto_configurer.h</text>
</a>
</g>
</g>
<!-- Node15&#45;&gt;Node16 -->
<g id="edge18_Node000015_Node000016" class="edge">
<title>Node15&#45;&gt;Node16</title>
<g id="a_edge18_Node000015_Node000016"><a xlink:title=" ">
<path fill="none" stroke="#63b8ff" d="M664.16,-233.16C639.3,-196.73 597.08,-134.88 578.17,-107.16"/>
<polygon fill="#63b8ff" stroke="#63b8ff" points="661.55,-235.55 670.08,-241.84 667.34,-231.61 661.55,-235.55"/>
</a>
</g>
</g>
<!-- Node18 -->
<g id="Node000018" class="node">
<title>Node18</title>
<g id="a_Node000018"><a xlink:href="a__dc__handler__configurer_8h.html" target="_top" xlink:title=" ">
<polygon fill="white" stroke="#666666" points="978.5,-112.5 832.5,-112.5 832.5,-71.5 978.5,-71.5 978.5,-112.5"/>
<text text-anchor="start" x="840.5" y="-100.5" font-family="Helvetica,sans-Serif" font-size="10.00">include/mosaic/auto</text>
<text text-anchor="start" x="840.5" y="-89.5" font-family="Helvetica,sans-Serif" font-size="10.00">_configurer/connector</text>
<text text-anchor="middle" x="905.5" y="-78.5" font-family="Helvetica,sans-Serif" font-size="10.00">/a_dc_handler_configurer.h</text>
</a>
</g>
</g>
<!-- Node15&#45;&gt;Node18 -->
<g id="edge20_Node000015_Node000018" class="edge">
<title>Node15&#45;&gt;Node18</title>
<g id="a_edge20_Node000015_Node000018"><a xlink:title=" ">
<path fill="none" stroke="#63b8ff" d="M686.83,-231.66C691.03,-207.66 700.45,-174.64 721.5,-154 726.09,-149.5 790.71,-128.65 842.09,-112.57"/>
<polygon fill="#63b8ff" stroke="#63b8ff" points="683.36,-231.24 685.29,-241.65 690.27,-232.3 683.36,-231.24"/>
</a>
</g>
</g>
<!-- Node19 -->
<g id="Node000019" class="node">
<title>Node19</title>
<g id="a_Node000019"><a xlink:href="a__mt__handler__configurer_8h.html" target="_top" xlink:title=" ">
<polygon fill="white" stroke="#666666" points="814,-112.5 665,-112.5 665,-71.5 814,-71.5 814,-112.5"/>
<text text-anchor="start" x="673" y="-100.5" font-family="Helvetica,sans-Serif" font-size="10.00">include/mosaic/auto</text>
<text text-anchor="start" x="673" y="-89.5" font-family="Helvetica,sans-Serif" font-size="10.00">_configurer/connector</text>
<text text-anchor="middle" x="739.5" y="-78.5" font-family="Helvetica,sans-Serif" font-size="10.00">/a_mt_handler_configurer.h</text>
</a>
</g>
</g>
<!-- Node15&#45;&gt;Node19 -->
<g id="edge22_Node000015_Node000019" class="edge">
<title>Node15&#45;&gt;Node19</title>
<g id="a_edge22_Node000015_Node000019"><a xlink:title=" ">
<path fill="none" stroke="#63b8ff" d="M679.88,-231.55C678.38,-209.37 678.83,-178.84 688.5,-154 694.61,-138.31 706.48,-123.72 717.23,-112.74"/>
<polygon fill="#63b8ff" stroke="#63b8ff" points="676.41,-232.03 680.75,-241.7 683.39,-231.44 676.41,-232.03"/>
</a>
</g>
</g>
<!-- Node20 -->
<g id="Node000020" class="node">
<title>Node20</title>
<g id="a_Node000020"><a xlink:href="a__parallel__dc__handler__configurer_8h.html" target="_top" xlink:title=" ">
<polygon fill="white" stroke="#666666" points="471.5,-118 345.5,-118 345.5,-66 471.5,-66 471.5,-118"/>
<text text-anchor="start" x="353.5" y="-106" font-family="Helvetica,sans-Serif" font-size="10.00">include/mosaic/auto</text>
<text text-anchor="start" x="353.5" y="-95" font-family="Helvetica,sans-Serif" font-size="10.00">_configurer/connector</text>
<text text-anchor="start" x="353.5" y="-84" font-family="Helvetica,sans-Serif" font-size="10.00">/a_parallel_dc_handler</text>
<text text-anchor="middle" x="408.5" y="-73" font-family="Helvetica,sans-Serif" font-size="10.00">_configurer.h</text>
</a>
</g>
</g>
<!-- Node15&#45;&gt;Node20 -->
<g id="edge24_Node000015_Node000020" class="edge">
<title>Node15&#45;&gt;Node20</title>
<g id="a_edge24_Node000015_Node000020"><a xlink:title=" ">
<path fill="none" stroke="#63b8ff" d="M598.7,-253.33C533.54,-245.25 450.86,-230.48 427.5,-206 405.25,-182.68 403.55,-143.63 405.31,-118.09"/>
<polygon fill="#63b8ff" stroke="#63b8ff" points="598.65,-256.85 608.99,-254.57 599.49,-249.9 598.65,-256.85"/>
</a>
</g>
</g>
<!-- Node21 -->
<g id="Node000021" class="node">
<title>Node21</title>
<g id="a_Node000021"><a xlink:href="configurable__connector__factory_8h.html" target="_top" xlink:title=" ">
<polygon fill="white" stroke="#666666" points="864,-206 731,-206 731,-154 864,-154 864,-206"/>
<text text-anchor="start" x="739" y="-194" font-family="Helvetica,sans-Serif" font-size="10.00">include/mosaic/auto</text>
<text text-anchor="start" x="739" y="-183" font-family="Helvetica,sans-Serif" font-size="10.00">_configurer/connector</text>
<text text-anchor="start" x="739" y="-172" font-family="Helvetica,sans-Serif" font-size="10.00">/configurable_connector</text>
<text text-anchor="middle" x="797.5" y="-161" font-family="Helvetica,sans-Serif" font-size="10.00">_factory.h</text>
</a>
</g>
</g>
<!-- Node15&#45;&gt;Node21 -->
<g id="edge26_Node000015_Node000021" class="edge">
<title>Node15&#45;&gt;Node21</title>
<g id="a_edge26_Node000015_Node000021"><a xlink:title=" ">
<path fill="none" stroke="#63b8ff" d="M719.89,-235.81C733.26,-226.36 748.38,-215.68 761.7,-206.28"/>
<polygon fill="#63b8ff" stroke="#63b8ff" points="717.54,-233.18 711.39,-241.81 721.58,-238.9 717.54,-233.18"/>
</a>
</g>
</g>
<!-- Node22 -->
<g id="Node000022" class="node">
<title>Node22</title>
<g id="a_Node000022"><a xlink:href="connector__resolver_8h.html" target="_top" xlink:title=" ">
<polygon fill="white" stroke="#666666" points="1118.5,-112.5 996.5,-112.5 996.5,-71.5 1118.5,-71.5 1118.5,-112.5"/>
<text text-anchor="start" x="1004.5" y="-100.5" font-family="Helvetica,sans-Serif" font-size="10.00">include/mosaic/auto</text>
<text text-anchor="start" x="1004.5" y="-89.5" font-family="Helvetica,sans-Serif" font-size="10.00">_configurer/connector</text>
<text text-anchor="middle" x="1057.5" y="-78.5" font-family="Helvetica,sans-Serif" font-size="10.00">/connector_resolver.h</text>
</a>
</g>
</g>
<!-- Node15&#45;&gt;Node22 -->
<g id="edge30_Node000015_Node000022" class="edge">
<title>Node15&#45;&gt;Node22</title>
<g id="a_edge30_Node000015_Node000022"><a xlink:title=" ">
<path fill="none" stroke="#63b8ff" d="M768.38,-248.68C802.91,-240.51 841.81,-227.29 872.5,-206 896.24,-189.53 888.71,-171.75 911.5,-154 926.46,-142.36 967.71,-125.54 1002.57,-112.51"/>
<polygon fill="#63b8ff" stroke="#63b8ff" points="767.28,-245.34 758.3,-250.96 768.82,-252.17 767.28,-245.34"/>
</a>
</g>
</g>
<!-- Node24 -->
<g id="Node000024" class="node">
<title>Node24</title>
<g id="a_Node000024"><a xlink:href="i__configurable__connector_8cpp.html" target="_top" xlink:title=" ">
<polygon fill="white" stroke="#666666" points="598,-195 437,-195 437,-165 598,-165 598,-195"/>
<text text-anchor="start" x="445" y="-183" font-family="Helvetica,sans-Serif" font-size="10.00">src/auto_configurer</text>
<text text-anchor="middle" x="517.5" y="-172" font-family="Helvetica,sans-Serif" font-size="10.00">/i_configurable_connector.cpp</text>
</a>
</g>
</g>
<!-- Node15&#45;&gt;Node24 -->
<g id="edge31_Node000015_Node000024" class="edge">
<title>Node15&#45;&gt;Node24</title>
<g id="a_edge31_Node000015_Node000024"><a xlink:title=" ">
<path fill="none" stroke="#63b8ff" d="M633.88,-237.44C605.38,-223.62 570.58,-206.74 546.5,-195.06"/>
<polygon fill="#63b8ff" stroke="#63b8ff" points="632.37,-240.59 642.89,-241.81 635.42,-234.29 632.37,-240.59"/>
</a>
</g>
</g>
<!-- Node17 -->
<g id="Node000017" class="node">
<title>Node17</title>
<g id="a_Node000017"><a xlink:href="auto__configurer_8cpp.html" target="_top" xlink:title=" ">
<polygon fill="white" stroke="#666666" points="712,-30 597,-30 597,0 712,0 712,-30"/>
<text text-anchor="start" x="605" y="-18" font-family="Helvetica,sans-Serif" font-size="10.00">src/auto_configurer</text>
<text text-anchor="middle" x="654.5" y="-7" font-family="Helvetica,sans-Serif" font-size="10.00">/auto_configurer.cpp</text>
</a>
</g>
</g>
<!-- Node16&#45;&gt;Node17 -->
<g id="edge19_Node000016_Node000017" class="edge">
<title>Node16&#45;&gt;Node17</title>
<g id="a_edge19_Node000016_Node000017"><a xlink:title=" ">
<path fill="none" stroke="#63b8ff" d="M592.38,-70.17C607.05,-57.38 625.44,-41.34 638.4,-30.04"/>
<polygon fill="#63b8ff" stroke="#63b8ff" points="589.91,-67.68 584.68,-76.89 594.51,-72.96 589.91,-67.68"/>
</a>
</g>
</g>
<!-- Node18&#45;&gt;Node17 -->
<g id="edge21_Node000018_Node000017" class="edge">
<title>Node18&#45;&gt;Node17</title>
<g id="a_edge21_Node000018_Node000017"><a xlink:title=" ">
<path fill="none" stroke="#63b8ff" d="M830.94,-68.53C828.09,-67.68 825.27,-66.83 822.5,-66 781.83,-53.82 735.6,-40.07 701.94,-30.07"/>
<polygon fill="#63b8ff" stroke="#63b8ff" points="830.13,-71.94 840.71,-71.46 832.14,-65.24 830.13,-71.94"/>
</a>
</g>
</g>
<!-- Node19&#45;&gt;Node17 -->
<g id="edge23_Node000019_Node000017" class="edge">
<title>Node19&#45;&gt;Node17</title>
<g id="a_edge23_Node000019_Node000017"><a xlink:title=" ">
<path fill="none" stroke="#63b8ff" d="M709.66,-64.67C696.48,-53.05 681.52,-39.84 670.51,-30.13"/>
<polygon fill="#63b8ff" stroke="#63b8ff" points="707.35,-67.3 717.17,-71.29 711.98,-62.05 707.35,-67.3"/>
</a>
</g>
</g>
<!-- Node20&#45;&gt;Node17 -->
<g id="edge25_Node000020_Node000017" class="edge">
<title>Node20&#45;&gt;Node17</title>
<g id="a_edge25_Node000020_Node000017"><a xlink:title=" ">
<path fill="none" stroke="#63b8ff" d="M481.23,-65.83C527.37,-51.33 570.39,-39.06 602.89,-30.04"/>
<polygon fill="#63b8ff" stroke="#63b8ff" points="480.13,-62.5 471.65,-68.85 482.24,-69.18 480.13,-62.5"/>
</a>
</g>
</g>
<!-- Node21&#45;&gt;Node22 -->
<g id="edge27_Node000021_Node000022" class="edge">
<title>Node21&#45;&gt;Node22</title>
<g id="a_edge27_Node000021_Node000022"><a xlink:title=" ">
<path fill="none" stroke="#63b8ff" d="M873.68,-155.16C908.47,-144.12 950.16,-130.66 987.5,-118 992.63,-116.26 997.97,-114.42 1003.29,-112.55"/>
<polygon fill="#63b8ff" stroke="#63b8ff" points="872.54,-151.85 864.06,-158.21 874.65,-158.53 872.54,-151.85"/>
</a>
</g>
</g>
<!-- Node22&#45;&gt;Node17 -->
<g id="edge28_Node000022_Node000017" class="edge">
<title>Node22&#45;&gt;Node17</title>
<g id="a_edge28_Node000022_Node000017"><a xlink:title=" ">
<path fill="none" stroke="#63b8ff" d="M996.53,-68.45C993.49,-67.57 990.47,-66.75 987.5,-66 892.39,-42.12 778.94,-28.06 712.02,-21.21"/>
<polygon fill="#63b8ff" stroke="#63b8ff" points="995.65,-71.84 1006.24,-71.42 997.7,-65.15 995.65,-71.84"/>
</a>
</g>
</g>
<!-- Node23 -->
<g id="Node000023" class="node">
<title>Node23</title>
<g id="a_Node000023"><a xlink:href="connector__resolver_8cpp.html" target="_top" xlink:title=" ">
<polygon fill="white" stroke="#666666" points="1123.5,-30 991.5,-30 991.5,0 1123.5,0 1123.5,-30"/>
<text text-anchor="start" x="999.5" y="-18" font-family="Helvetica,sans-Serif" font-size="10.00">src/auto_configurer</text>
<text text-anchor="middle" x="1057.5" y="-7" font-family="Helvetica,sans-Serif" font-size="10.00">/connector_resolver.cpp</text>
</a>
</g>
</g>
<!-- Node22&#45;&gt;Node23 -->
<g id="edge29_Node000022_Node000023" class="edge">
<title>Node22&#45;&gt;Node23</title>
<g id="a_edge29_Node000022_Node000023"><a xlink:title=" ">
<path fill="none" stroke="#63b8ff" d="M1057.5,-61.11C1057.5,-50.51 1057.5,-39.07 1057.5,-30.36"/>
<polygon fill="#63b8ff" stroke="#63b8ff" points="1054,-61.29 1057.5,-71.29 1061,-61.29 1054,-61.29"/>
</a>
</g>
</g>
<!-- Node25&#45;&gt;Node11 -->
<g id="edge34_Node000025_Node000011" class="edge">
<title>Node25&#45;&gt;Node11</title>
<g id="a_edge34_Node000025_Node000011"><a xlink:title=" ">
<path fill="none" stroke="#63b8ff" d="M346.19,-243.14C315.77,-228.56 273.84,-208.48 245.99,-195.13"/>
<polygon fill="#63b8ff" stroke="#63b8ff" points="344.71,-246.31 355.24,-247.48 347.73,-240 344.71,-246.31"/>
</a>
</g>
</g>
<!-- Node25&#45;&gt;Node17 -->
<g id="edge33_Node000025_Node000017" class="edge">
<title>Node25&#45;&gt;Node17</title>
<g id="a_edge33_Node000025_Node000017"><a xlink:title=" ">
<path fill="none" stroke="#63b8ff" d="M367.82,-239.07C340.52,-199.41 293.42,-116.38 336.5,-66 369.32,-27.61 514.32,-18.51 596.73,-16.47"/>
<polygon fill="#63b8ff" stroke="#63b8ff" points="365,-241.14 373.63,-247.29 370.72,-237.1 365,-241.14"/>
</a>
</g>
</g>
<!-- Node26&#45;&gt;Node14 -->
<g id="edge36_Node000026_Node000014" class="edge">
<title>Node26&#45;&gt;Node14</title>
<g id="a_edge36_Node000026_Node000014"><a xlink:title=" ">
<path fill="none" stroke="#63b8ff" d="M1179.98,-281.37C1151.37,-293.05 1112.9,-308.1 1083.87,-318.94"/>
<polygon fill="#63b8ff" stroke="#63b8ff" points="1181.36,-284.58 1189.28,-277.54 1178.7,-278.11 1181.36,-284.58"/>
</a>
</g>
</g>
<!-- Node26&#45;&gt;Node27 -->
<g id="edge37_Node000026_Node000027" class="edge">
<title>Node26&#45;&gt;Node27</title>
<g id="a_edge37_Node000026_Node000027"><a xlink:title=" ">
<path fill="none" stroke="#63b8ff" d="M1246.93,-241.42C1266.62,-227.02 1292.66,-207.96 1310.19,-195.13"/>
<polygon fill="#63b8ff" stroke="#63b8ff" points="1244.66,-238.75 1238.66,-247.48 1248.8,-244.4 1244.66,-238.75"/>
</a>
</g>
</g>
<!-- Node28&#45;&gt;Node27 -->
<g id="edge40_Node000028_Node000027" class="edge">
<title>Node28&#45;&gt;Node27</title>
<g id="a_edge40_Node000028_Node000027"><a xlink:title=" ">
<path fill="none" stroke="#63b8ff" d="M1109.46,-244.94C1150.36,-234.3 1204.18,-219.92 1251.5,-206 1262.96,-202.63 1275.3,-198.78 1286.7,-195.13"/>
<polygon fill="#63b8ff" stroke="#63b8ff" points="1108.42,-241.6 1099.62,-247.49 1110.17,-248.37 1108.42,-241.6"/>
</a>
</g>
</g>
<!-- Node28&#45;&gt;Node29 -->
<g id="edge39_Node000028_Node000029" class="edge">
<title>Node28&#45;&gt;Node29</title>
<g id="a_edge39_Node000028_Node000029"><a xlink:title=" ">
<path fill="none" stroke="#63b8ff" d="M1072.84,-241.66C1096.64,-225 1129.5,-202 1147.13,-189.66"/>
<polygon fill="#63b8ff" stroke="#63b8ff" points="1070.72,-238.88 1064.53,-247.48 1074.73,-244.61 1070.72,-238.88"/>
</a>
</g>
</g>
<!-- Node28&#45;&gt;Node30 -->
<g id="edge41_Node000028_Node000030" class="edge">
<title>Node28&#45;&gt;Node30</title>
<g id="a_edge41_Node000028_Node000030"><a xlink:title=" ">
<path fill="none" stroke="#63b8ff" d="M1029.03,-238.86C1019.44,-224.82 1007.41,-207.21 999.16,-195.13"/>
<polygon fill="#63b8ff" stroke="#63b8ff" points="1026.39,-241.2 1034.92,-247.48 1032.17,-237.25 1026.39,-241.2"/>
</a>
</g>
</g>
<!-- Node31&#45;&gt;Node11 -->
<g id="edge43_Node000031_Node000011" class="edge">
<title>Node31&#45;&gt;Node11</title>
<g id="a_edge43_Node000031_Node000011"><a xlink:title=" ">
<path fill="none" stroke="#63b8ff" d="M219.29,-237.24C218.61,-223.48 217.78,-206.75 217.2,-195.13"/>
<polygon fill="#63b8ff" stroke="#63b8ff" points="215.81,-237.66 219.8,-247.48 222.8,-237.32 215.81,-237.66"/>
</a>
</g>
</g>
<!-- Node32 -->
<g id="Node000032" class="node">
<title>Node32</title>
<g id="a_Node000032"><a xlink:href="signaling__client_8cpp.html" target="_top" xlink:title=" ">
<polygon fill="white" stroke="#666666" points="125,-195 0,-195 0,-165 125,-165 125,-195"/>
<text text-anchor="start" x="8" y="-183" font-family="Helvetica,sans-Serif" font-size="10.00">src/signaling/signaling</text>
<text text-anchor="middle" x="62.5" y="-172" font-family="Helvetica,sans-Serif" font-size="10.00">_client.cpp</text>
</a>
</g>
</g>
<!-- Node31&#45;&gt;Node32 -->
<g id="edge44_Node000031_Node000032" class="edge">
<title>Node31&#45;&gt;Node32</title>
<g id="a_edge44_Node000031_Node000032"><a xlink:title=" ">
<path fill="none" stroke="#63b8ff" d="M183.73,-242.77C155.18,-228.22 116.2,-208.36 90.24,-195.13"/>
<polygon fill="#63b8ff" stroke="#63b8ff" points="182.48,-246.06 192.98,-247.48 185.66,-239.82 182.48,-246.06"/>
</a>
</g>
</g>
</g>
</svg>
