<?xml version="1.0" encoding="UTF-8" standalone="no"?>
<!DOCTYPE svg PUBLIC "-//W3C//DTD SVG 1.1//EN"
 "http://www.w3.org/Graphics/SVG/1.1/DTD/svg11.dtd">
<!-- Generated by graphviz version 2.43.0 (0)
 -->
<!-- Title: include/mosaic/handlers/media_track/i_media_track_handler.h Pages: 1 -->
<svg width="1798pt" height="456pt"
 viewBox="0.00 0.00 1797.50 456.00" xmlns="http://www.w3.org/2000/svg" xmlns:xlink="http://www.w3.org/1999/xlink">
<g id="graph0" class="graph" transform="scale(1 1) rotate(0) translate(4 452)">
<title>include/mosaic/handlers/media_track/i_media_track_handler.h</title>
<!-- Node1 -->
<g id="Node000001" class="node">
<title>Node1</title>
<g id="a_Node000001"><a xlink:title=" ">
<polygon fill="#999999" stroke="#666666" points="996.5,-448 844.5,-448 844.5,-407 996.5,-407 996.5,-448"/>
<text text-anchor="start" x="852.5" y="-436" font-family="Helvetica,sans-Serif" font-size="10.00">include/mosaic/handlers</text>
<text text-anchor="start" x="852.5" y="-425" font-family="Helvetica,sans-Serif" font-size="10.00">/media_track/i_media_track</text>
<text text-anchor="middle" x="920.5" y="-414" font-family="Helvetica,sans-Serif" font-size="10.00">_handler.h</text>
</a>
</g>
</g>
<!-- Node2 -->
<g id="Node000002" class="node">
<title>Node2</title>
<g id="a_Node000002"><a xlink:href="auto__configurer_8h.html" target="_top" xlink:title=" ">
<polygon fill="white" stroke="#666666" points="999.5,-206 841.5,-206 841.5,-176 999.5,-176 999.5,-206"/>
<text text-anchor="start" x="849.5" y="-194" font-family="Helvetica,sans-Serif" font-size="10.00">include/mosaic/auto</text>
<text text-anchor="middle" x="920.5" y="-183" font-family="Helvetica,sans-Serif" font-size="10.00">_configurer/auto_configurer.h</text>
</a>
</g>
</g>
<!-- Node1&#45;&gt;Node2 -->
<g id="edge1_Node000001_Node000002" class="edge">
<title>Node1&#45;&gt;Node2</title>
<g id="a_edge1_Node000001_Node000002"><a xlink:title=" ">
<path fill="none" stroke="#63b8ff" d="M920.5,-396.86C920.5,-345.9 920.5,-243.56 920.5,-206.13"/>
<polygon fill="#63b8ff" stroke="#63b8ff" points="917,-396.91 920.5,-406.91 924,-396.91 917,-396.91"/>
</a>
</g>
</g>
<!-- Node4 -->
<g id="Node000004" class="node">
<title>Node4</title>
<g id="a_Node000004"><a xlink:href="mosaic__connector_8h.html" target="_top" xlink:title=" ">
<polygon fill="white" stroke="#666666" points="653.5,-365.5 537.5,-365.5 537.5,-335.5 653.5,-335.5 653.5,-365.5"/>
<text text-anchor="start" x="545.5" y="-353.5" font-family="Helvetica,sans-Serif" font-size="10.00">include/mosaic/core</text>
<text text-anchor="middle" x="595.5" y="-342.5" font-family="Helvetica,sans-Serif" font-size="10.00">/mosaic_connector.h</text>
</a>
</g>
</g>
<!-- Node1&#45;&gt;Node4 -->
<g id="edge3_Node000001_Node000004" class="edge">
<title>Node1&#45;&gt;Node4</title>
<g id="a_edge3_Node000001_Node000004"><a xlink:title=" ">
<path fill="none" stroke="#63b8ff" d="M834.21,-406.59C777.17,-393.42 703.93,-376.52 653.71,-364.93"/>
<polygon fill="#63b8ff" stroke="#63b8ff" points="833.77,-410.08 844.3,-408.92 835.35,-403.26 833.77,-410.08"/>
</a>
</g>
</g>
<!-- Node24 -->
<g id="Node000024" class="node">
<title>Node24</title>
<g id="a_Node000024"><a xlink:href="a__media__track__handler_8h.html" target="_top" xlink:title=" ">
<polygon fill="white" stroke="#666666" points="1717,-371 1562,-371 1562,-330 1717,-330 1717,-371"/>
<text text-anchor="start" x="1570" y="-359" font-family="Helvetica,sans-Serif" font-size="10.00">include/mosaic/handlers</text>
<text text-anchor="start" x="1570" y="-348" font-family="Helvetica,sans-Serif" font-size="10.00">/media_track/a_media_track</text>
<text text-anchor="middle" x="1639.5" y="-337" font-family="Helvetica,sans-Serif" font-size="10.00">_handler.h</text>
</a>
</g>
</g>
<!-- Node1&#45;&gt;Node24 -->
<g id="edge36_Node000001_Node000024" class="edge">
<title>Node1&#45;&gt;Node24</title>
<g id="a_edge36_Node000001_Node000024"><a xlink:title=" ">
<path fill="none" stroke="#63b8ff" d="M1007.12,-417.46C1148.47,-402.72 1426.53,-373.72 1561.85,-359.6"/>
<polygon fill="#63b8ff" stroke="#63b8ff" points="1006.35,-414.03 996.76,-418.54 1007.07,-420.99 1006.35,-414.03"/>
</a>
</g>
</g>
<!-- Node3 -->
<g id="Node000003" class="node">
<title>Node3</title>
<g id="a_Node000003"><a xlink:href="auto__configurer_8cpp.html" target="_top" xlink:title=" ">
<polygon fill="white" stroke="#666666" points="1154,-35.5 1039,-35.5 1039,-5.5 1154,-5.5 1154,-35.5"/>
<text text-anchor="start" x="1047" y="-23.5" font-family="Helvetica,sans-Serif" font-size="10.00">src/auto_configurer</text>
<text text-anchor="middle" x="1096.5" y="-12.5" font-family="Helvetica,sans-Serif" font-size="10.00">/auto_configurer.cpp</text>
</a>
</g>
</g>
<!-- Node2&#45;&gt;Node3 -->
<g id="edge2_Node000002_Node000003" class="edge">
<title>Node2&#45;&gt;Node3</title>
<g id="a_edge2_Node000002_Node000003"><a xlink:title=" ">
<path fill="none" stroke="#63b8ff" d="M919.98,-165.8C920.73,-140.65 925.73,-101.61 947.5,-77 970.73,-50.75 1007.58,-36.88 1038.82,-29.58"/>
<polygon fill="#63b8ff" stroke="#63b8ff" points="916.48,-165.92 919.88,-175.95 923.47,-165.99 916.48,-165.92"/>
</a>
</g>
</g>
<!-- Node5 -->
<g id="Node000005" class="node">
<title>Node5</title>
<g id="a_Node000005"><a xlink:href="i__configurable__connector_8h.html" target="_top" xlink:title=" ">
<polygon fill="white" stroke="#666666" points="1194,-294 1045,-294 1045,-253 1194,-253 1194,-294"/>
<text text-anchor="start" x="1053" y="-282" font-family="Helvetica,sans-Serif" font-size="10.00">include/mosaic/auto</text>
<text text-anchor="start" x="1053" y="-271" font-family="Helvetica,sans-Serif" font-size="10.00">_configurer/connector</text>
<text text-anchor="middle" x="1119.5" y="-260" font-family="Helvetica,sans-Serif" font-size="10.00">/i_configurable_connector.h</text>
</a>
</g>
</g>
<!-- Node4&#45;&gt;Node5 -->
<g id="edge4_Node000004_Node000005" class="edge">
<title>Node4&#45;&gt;Node5</title>
<g id="a_edge4_Node000004_Node000005"><a xlink:title=" ">
<path fill="none" stroke="#63b8ff" d="M663.7,-339.74C762.01,-325.67 942.89,-299.78 1044.73,-285.2"/>
<polygon fill="#63b8ff" stroke="#63b8ff" points="662.98,-336.31 653.58,-341.19 663.97,-343.23 662.98,-336.31"/>
</a>
</g>
</g>
<!-- Node15 -->
<g id="Node000015" class="node">
<title>Node15</title>
<g id="a_Node000015"><a xlink:href="mosaic__connector__factory_8h.html" target="_top" xlink:title=" ">
<polygon fill="white" stroke="#666666" points="324,-288.5 169,-288.5 169,-258.5 324,-258.5 324,-288.5"/>
<text text-anchor="start" x="177" y="-276.5" font-family="Helvetica,sans-Serif" font-size="10.00">include/mosaic/core</text>
<text text-anchor="middle" x="246.5" y="-265.5" font-family="Helvetica,sans-Serif" font-size="10.00">/mosaic_connector_factory.h</text>
</a>
</g>
</g>
<!-- Node4&#45;&gt;Node15 -->
<g id="edge21_Node000004_Node000015" class="edge">
<title>Node4&#45;&gt;Node15</title>
<g id="a_edge21_Node000004_Node000015"><a xlink:title=" ">
<path fill="none" stroke="#63b8ff" d="M527.48,-335.44C474.35,-324.38 398.67,-308.48 332.5,-294 324.57,-292.27 316.24,-290.41 308.02,-288.57"/>
<polygon fill="#63b8ff" stroke="#63b8ff" points="526.97,-338.91 537.47,-337.51 528.39,-332.05 526.97,-338.91"/>
</a>
</g>
</g>
<!-- Node17 -->
<g id="Node000017" class="node">
<title>Node17</title>
<g id="a_Node000017"><a xlink:href="peer__connection__manager_8h.html" target="_top" xlink:title=" ">
<polygon fill="white" stroke="#666666" points="499,-288.5 342,-288.5 342,-258.5 499,-258.5 499,-288.5"/>
<text text-anchor="start" x="350" y="-276.5" font-family="Helvetica,sans-Serif" font-size="10.00">include/mosaic/core</text>
<text text-anchor="middle" x="420.5" y="-265.5" font-family="Helvetica,sans-Serif" font-size="10.00">/peer_connection_manager.h</text>
</a>
</g>
</g>
<!-- Node4&#45;&gt;Node17 -->
<g id="edge24_Node000004_Node000017" class="edge">
<title>Node4&#45;&gt;Node17</title>
<g id="a_edge24_Node000004_Node000017"><a xlink:title=" ">
<path fill="none" stroke="#63b8ff" d="M547.53,-331.46C515.48,-318.28 474.55,-300.68 447.87,-288.54"/>
<polygon fill="#63b8ff" stroke="#63b8ff" points="546.59,-334.85 557.17,-335.39 549.24,-328.37 546.59,-334.85"/>
</a>
</g>
</g>
<!-- Node19 -->
<g id="Node000019" class="node">
<title>Node19</title>
<g id="a_Node000019"><a xlink:href="peer__connection__observer_8h.html" target="_top" xlink:title=" ">
<polygon fill="white" stroke="#666666" points="673.5,-288.5 517.5,-288.5 517.5,-258.5 673.5,-258.5 673.5,-288.5"/>
<text text-anchor="start" x="525.5" y="-276.5" font-family="Helvetica,sans-Serif" font-size="10.00">include/mosaic/core</text>
<text text-anchor="middle" x="595.5" y="-265.5" font-family="Helvetica,sans-Serif" font-size="10.00">/peer_connection_observer.h</text>
</a>
</g>
</g>
<!-- Node4&#45;&gt;Node19 -->
<g id="edge27_Node000004_Node000019" class="edge">
<title>Node4&#45;&gt;Node19</title>
<g id="a_edge27_Node000004_Node000019"><a xlink:title=" ">
<path fill="none" stroke="#63b8ff" d="M595.5,-325.04C595.5,-312.95 595.5,-298.79 595.5,-288.54"/>
<polygon fill="#63b8ff" stroke="#63b8ff" points="592,-325.39 595.5,-335.39 599,-325.39 592,-325.39"/>
</a>
</g>
</g>
<!-- Node20 -->
<g id="Node000020" class="node">
<title>Node20</title>
<g id="a_Node000020"><a xlink:href="mosaic__connector_8cpp.html" target="_top" xlink:title=" ">
<polygon fill="white" stroke="#666666" points="667.5,-200.5 501.5,-200.5 501.5,-181.5 667.5,-181.5 667.5,-200.5"/>
<text text-anchor="middle" x="584.5" y="-188.5" font-family="Helvetica,sans-Serif" font-size="10.00">src/core/mosaic_connector.cpp</text>
</a>
</g>
</g>
<!-- Node4&#45;&gt;Node20 -->
<g id="edge34_Node000004_Node000020" class="edge">
<title>Node4&#45;&gt;Node20</title>
<g id="a_edge34_Node000004_Node000020"><a xlink:title=" ">
<path fill="none" stroke="#63b8ff" d="M642.92,-330.59C658.38,-321.89 673.79,-309.89 682.5,-294 691.26,-278.02 691.35,-268.93 682.5,-253 667.61,-226.2 635.51,-209.64 612.1,-200.66"/>
<polygon fill="#63b8ff" stroke="#63b8ff" points="641.1,-327.59 633.87,-335.33 644.35,-333.79 641.1,-327.59"/>
</a>
</g>
</g>
<!-- Node21 -->
<g id="Node000021" class="node">
<title>Node21</title>
<g id="a_Node000021"><a xlink:href="peer__connection__observer_8cpp.html" target="_top" xlink:title=" ">
<polygon fill="white" stroke="#666666" points="823.5,-206 685.5,-206 685.5,-176 823.5,-176 823.5,-206"/>
<text text-anchor="start" x="693.5" y="-194" font-family="Helvetica,sans-Serif" font-size="10.00">src/core/peer_connection</text>
<text text-anchor="middle" x="754.5" y="-183" font-family="Helvetica,sans-Serif" font-size="10.00">_observer.cpp</text>
</a>
</g>
</g>
<!-- Node4&#45;&gt;Node21 -->
<g id="edge35_Node000004_Node000021" class="edge">
<title>Node4&#45;&gt;Node21</title>
<g id="a_edge35_Node000004_Node000021"><a xlink:title=" ">
<path fill="none" stroke="#63b8ff" d="M643.28,-331.22C662.44,-322.17 683.67,-309.76 699.5,-294 725.45,-268.16 742.3,-227.51 749.87,-206.17"/>
<polygon fill="#63b8ff" stroke="#63b8ff" points="641.74,-328.08 634.08,-335.39 644.63,-334.45 641.74,-328.08"/>
</a>
</g>
</g>
<!-- Node22 -->
<g id="Node000022" class="node">
<title>Node22</title>
<g id="a_Node000022"><a xlink:href="signaling__client_8h.html" target="_top" xlink:title=" ">
<polygon fill="white" stroke="#666666" points="151,-288.5 14,-288.5 14,-258.5 151,-258.5 151,-288.5"/>
<text text-anchor="start" x="22" y="-276.5" font-family="Helvetica,sans-Serif" font-size="10.00">include/mosaic/signaling</text>
<text text-anchor="middle" x="82.5" y="-265.5" font-family="Helvetica,sans-Serif" font-size="10.00">/signaling_client.h</text>
</a>
</g>
</g>
<!-- Node4&#45;&gt;Node22 -->
<g id="edge31_Node000004_Node000022" class="edge">
<title>Node4&#45;&gt;Node22</title>
<g id="a_edge31_Node000004_Node000022"><a xlink:title=" ">
<path fill="none" stroke="#63b8ff" d="M527.14,-343.39C440.95,-335.09 288.45,-318.44 159.5,-294 151.37,-292.46 142.82,-290.57 134.5,-288.58"/>
<polygon fill="#63b8ff" stroke="#63b8ff" points="527.03,-346.9 537.32,-344.36 527.69,-339.93 527.03,-346.9"/>
</a>
</g>
</g>
<!-- Node5&#45;&gt;Node2 -->
<g id="edge5_Node000005_Node000002" class="edge">
<title>Node5&#45;&gt;Node2</title>
<g id="a_edge5_Node000005_Node000002"><a xlink:title=" ">
<path fill="none" stroke="#63b8ff" d="M1061.6,-249.08C1027.18,-235.16 984.67,-217.96 955.35,-206.1"/>
<polygon fill="#63b8ff" stroke="#63b8ff" points="1060.49,-252.4 1071.07,-252.91 1063.12,-245.92 1060.49,-252.4"/>
</a>
</g>
</g>
<!-- Node6 -->
<g id="Node000006" class="node">
<title>Node6</title>
<g id="a_Node000006"><a xlink:href="a__dc__handler__configurer_8h.html" target="_top" xlink:title=" ">
<polygon fill="white" stroke="#666666" points="1246.5,-123.5 1100.5,-123.5 1100.5,-82.5 1246.5,-82.5 1246.5,-123.5"/>
<text text-anchor="start" x="1108.5" y="-111.5" font-family="Helvetica,sans-Serif" font-size="10.00">include/mosaic/auto</text>
<text text-anchor="start" x="1108.5" y="-100.5" font-family="Helvetica,sans-Serif" font-size="10.00">_configurer/connector</text>
<text text-anchor="middle" x="1173.5" y="-89.5" font-family="Helvetica,sans-Serif" font-size="10.00">/a_dc_handler_configurer.h</text>
</a>
</g>
</g>
<!-- Node5&#45;&gt;Node6 -->
<g id="edge6_Node000005_Node000006" class="edge">
<title>Node5&#45;&gt;Node6</title>
<g id="a_edge6_Node000005_Node000006"><a xlink:title=" ">
<path fill="none" stroke="#63b8ff" d="M1098.69,-243.99C1085.15,-221.68 1072.25,-190.3 1085.5,-165 1094.81,-147.21 1111.93,-133.58 1128.61,-123.76"/>
<polygon fill="#63b8ff" stroke="#63b8ff" points="1095.91,-246.13 1104.26,-252.66 1101.8,-242.35 1095.91,-246.13"/>
</a>
</g>
</g>
<!-- Node7 -->
<g id="Node000007" class="node">
<title>Node7</title>
<g id="a_Node000007"><a xlink:href="a__mt__handler__configurer_8h.html" target="_top" xlink:title=" ">
<polygon fill="white" stroke="#666666" points="1612,-211.5 1463,-211.5 1463,-170.5 1612,-170.5 1612,-211.5"/>
<text text-anchor="start" x="1471" y="-199.5" font-family="Helvetica,sans-Serif" font-size="10.00">include/mosaic/auto</text>
<text text-anchor="start" x="1471" y="-188.5" font-family="Helvetica,sans-Serif" font-size="10.00">_configurer/connector</text>
<text text-anchor="middle" x="1537.5" y="-177.5" font-family="Helvetica,sans-Serif" font-size="10.00">/a_mt_handler_configurer.h</text>
</a>
</g>
</g>
<!-- Node5&#45;&gt;Node7 -->
<g id="edge8_Node000005_Node000007" class="edge">
<title>Node5&#45;&gt;Node7</title>
<g id="a_edge8_Node000005_Node000007"><a xlink:title=" ">
<path fill="none" stroke="#63b8ff" d="M1204.46,-261.5C1272.54,-251.95 1370.25,-236.58 1454.5,-217 1461.39,-215.4 1468.55,-213.54 1475.64,-211.58"/>
<polygon fill="#63b8ff" stroke="#63b8ff" points="1203.64,-258.08 1194.22,-262.92 1204.61,-265.01 1203.64,-258.08"/>
</a>
</g>
</g>
<!-- Node11 -->
<g id="Node000011" class="node">
<title>Node11</title>
<g id="a_Node000011"><a xlink:href="a__parallel__dc__handler__configurer_8h.html" target="_top" xlink:title=" ">
<polygon fill="white" stroke="#666666" points="1082.5,-129 956.5,-129 956.5,-77 1082.5,-77 1082.5,-129"/>
<text text-anchor="start" x="964.5" y="-117" font-family="Helvetica,sans-Serif" font-size="10.00">include/mosaic/auto</text>
<text text-anchor="start" x="964.5" y="-106" font-family="Helvetica,sans-Serif" font-size="10.00">_configurer/connector</text>
<text text-anchor="start" x="964.5" y="-95" font-family="Helvetica,sans-Serif" font-size="10.00">/a_parallel_dc_handler</text>
<text text-anchor="middle" x="1019.5" y="-84" font-family="Helvetica,sans-Serif" font-size="10.00">_configurer.h</text>
</a>
</g>
</g>
<!-- Node5&#45;&gt;Node11 -->
<g id="edge13_Node000005_Node000011" class="edge">
<title>Node5&#45;&gt;Node11</title>
<g id="a_edge13_Node000005_Node000011"><a xlink:title=" ">
<path fill="none" stroke="#63b8ff" d="M1095.85,-245.03C1088.9,-236.34 1081.54,-226.52 1075.5,-217 1057.21,-188.16 1040.41,-152.5 1030.08,-129.05"/>
<polygon fill="#63b8ff" stroke="#63b8ff" points="1093.3,-247.44 1102.35,-252.96 1098.72,-243 1093.3,-247.44"/>
</a>
</g>
</g>
<!-- Node12 -->
<g id="Node000012" class="node">
<title>Node12</title>
<g id="a_Node000012"><a xlink:href="configurable__connector__factory_8h.html" target="_top" xlink:title=" ">
<polygon fill="white" stroke="#666666" points="1445,-217 1312,-217 1312,-165 1445,-165 1445,-217"/>
<text text-anchor="start" x="1320" y="-205" font-family="Helvetica,sans-Serif" font-size="10.00">include/mosaic/auto</text>
<text text-anchor="start" x="1320" y="-194" font-family="Helvetica,sans-Serif" font-size="10.00">_configurer/connector</text>
<text text-anchor="start" x="1320" y="-183" font-family="Helvetica,sans-Serif" font-size="10.00">/configurable_connector</text>
<text text-anchor="middle" x="1378.5" y="-172" font-family="Helvetica,sans-Serif" font-size="10.00">_factory.h</text>
</a>
</g>
</g>
<!-- Node5&#45;&gt;Node12 -->
<g id="edge15_Node000005_Node000012" class="edge">
<title>Node5&#45;&gt;Node12</title>
<g id="a_edge15_Node000005_Node000012"><a xlink:title=" ">
<path fill="none" stroke="#63b8ff" d="M1192.36,-249.86C1229.77,-238.23 1275.03,-224.16 1311.56,-212.81"/>
<polygon fill="#63b8ff" stroke="#63b8ff" points="1191.04,-246.6 1182.53,-252.91 1193.12,-253.28 1191.04,-246.6"/>
</a>
</g>
</g>
<!-- Node13 -->
<g id="Node000013" class="node">
<title>Node13</title>
<g id="a_Node000013"><a xlink:href="connector__resolver_8h.html" target="_top" xlink:title=" ">
<polygon fill="white" stroke="#666666" points="1393.5,-123.5 1271.5,-123.5 1271.5,-82.5 1393.5,-82.5 1393.5,-123.5"/>
<text text-anchor="start" x="1279.5" y="-111.5" font-family="Helvetica,sans-Serif" font-size="10.00">include/mosaic/auto</text>
<text text-anchor="start" x="1279.5" y="-100.5" font-family="Helvetica,sans-Serif" font-size="10.00">_configurer/connector</text>
<text text-anchor="middle" x="1332.5" y="-89.5" font-family="Helvetica,sans-Serif" font-size="10.00">/connector_resolver.h</text>
</a>
</g>
</g>
<!-- Node5&#45;&gt;Node13 -->
<g id="edge19_Node000005_Node000013" class="edge">
<title>Node5&#45;&gt;Node13</title>
<g id="a_edge19_Node000005_Node000013"><a xlink:title=" ">
<path fill="none" stroke="#63b8ff" d="M1203.7,-250.97C1225.09,-242.76 1246.95,-231.7 1264.5,-217 1280.47,-203.62 1308.1,-152.15 1322.74,-123.51"/>
<polygon fill="#63b8ff" stroke="#63b8ff" points="1202.44,-247.7 1194.25,-254.43 1204.85,-254.27 1202.44,-247.7"/>
</a>
</g>
</g>
<!-- Node14 -->
<g id="Node000014" class="node">
<title>Node14</title>
<g id="a_Node000014"><a xlink:href="i__configurable__connector_8cpp.html" target="_top" xlink:title=" ">
<polygon fill="white" stroke="#666666" points="1255,-206 1094,-206 1094,-176 1255,-176 1255,-206"/>
<text text-anchor="start" x="1102" y="-194" font-family="Helvetica,sans-Serif" font-size="10.00">src/auto_configurer</text>
<text text-anchor="middle" x="1174.5" y="-183" font-family="Helvetica,sans-Serif" font-size="10.00">/i_configurable_connector.cpp</text>
</a>
</g>
</g>
<!-- Node5&#45;&gt;Node14 -->
<g id="edge20_Node000005_Node000014" class="edge">
<title>Node5&#45;&gt;Node14</title>
<g id="a_edge20_Node000005_Node000014"><a xlink:title=" ">
<path fill="none" stroke="#63b8ff" d="M1138.9,-244.11C1147.62,-231.35 1157.54,-216.83 1164.68,-206.37"/>
<polygon fill="#63b8ff" stroke="#63b8ff" points="1135.85,-242.37 1133.1,-252.6 1141.63,-246.32 1135.85,-242.37"/>
</a>
</g>
</g>
<!-- Node6&#45;&gt;Node3 -->
<g id="edge7_Node000006_Node000003" class="edge">
<title>Node6&#45;&gt;Node3</title>
<g id="a_edge7_Node000006_Node000003"><a xlink:title=" ">
<path fill="none" stroke="#63b8ff" d="M1147.4,-74.71C1134.94,-61.69 1120.54,-46.63 1110.24,-35.87"/>
<polygon fill="#63b8ff" stroke="#63b8ff" points="1145.02,-77.29 1154.47,-82.1 1150.08,-72.46 1145.02,-77.29"/>
</a>
</g>
</g>
<!-- Node7&#45;&gt;Node3 -->
<g id="edge12_Node000007_Node000003" class="edge">
<title>Node7&#45;&gt;Node3</title>
<g id="a_edge12_Node000007_Node000003"><a xlink:title=" ">
<path fill="none" stroke="#63b8ff" d="M1504.25,-163.85C1490.85,-153.18 1475.33,-140.64 1461.5,-129 1434.75,-106.5 1433.96,-92.23 1402.5,-77 1359.61,-56.24 1230.41,-37.72 1154.3,-28.23"/>
<polygon fill="#63b8ff" stroke="#63b8ff" points="1502.27,-166.75 1512.28,-170.23 1506.62,-161.27 1502.27,-166.75"/>
</a>
</g>
</g>
<!-- Node8 -->
<g id="Node000008" class="node">
<title>Node8</title>
<g id="a_Node000008"><a xlink:href="opencv__camera__mt__handler_8h.html" target="_top" xlink:title=" ">
<polygon fill="white" stroke="#666666" points="1604.5,-123.5 1470.5,-123.5 1470.5,-82.5 1604.5,-82.5 1604.5,-123.5"/>
<text text-anchor="start" x="1478.5" y="-111.5" font-family="Helvetica,sans-Serif" font-size="10.00">include/mosaic/auto</text>
<text text-anchor="start" x="1478.5" y="-100.5" font-family="Helvetica,sans-Serif" font-size="10.00">_configurer/impl/opencv</text>
<text text-anchor="middle" x="1537.5" y="-89.5" font-family="Helvetica,sans-Serif" font-size="10.00">_camera_mt_handler.h</text>
</a>
</g>
</g>
<!-- Node7&#45;&gt;Node8 -->
<g id="edge9_Node000007_Node000008" class="edge">
<title>Node7&#45;&gt;Node8</title>
<g id="a_edge9_Node000007_Node000008"><a xlink:title=" ">
<path fill="none" stroke="#63b8ff" d="M1537.5,-160.36C1537.5,-148.26 1537.5,-134.58 1537.5,-123.74"/>
<polygon fill="#63b8ff" stroke="#63b8ff" points="1534,-160.49 1537.5,-170.49 1541,-160.49 1534,-160.49"/>
</a>
</g>
</g>
<!-- Node9 -->
<g id="Node000009" class="node">
<title>Node9</title>
<g id="a_Node000009"><a xlink:href="connector__resolver_8cpp.html" target="_top" xlink:title=" ">
<polygon fill="white" stroke="#666666" points="1428.5,-35.5 1296.5,-35.5 1296.5,-5.5 1428.5,-5.5 1428.5,-35.5"/>
<text text-anchor="start" x="1304.5" y="-23.5" font-family="Helvetica,sans-Serif" font-size="10.00">src/auto_configurer</text>
<text text-anchor="middle" x="1362.5" y="-12.5" font-family="Helvetica,sans-Serif" font-size="10.00">/connector_resolver.cpp</text>
</a>
</g>
</g>
<!-- Node8&#45;&gt;Node9 -->
<g id="edge10_Node000008_Node000009" class="edge">
<title>Node8&#45;&gt;Node9</title>
<g id="a_edge10_Node000008_Node000009"><a xlink:title=" ">
<path fill="none" stroke="#63b8ff" d="M1485.58,-78.12C1455.47,-64.26 1418.57,-47.29 1393.07,-35.56"/>
<polygon fill="#63b8ff" stroke="#63b8ff" points="1484.14,-81.31 1494.69,-82.31 1487.07,-74.95 1484.14,-81.31"/>
</a>
</g>
</g>
<!-- Node10 -->
<g id="Node000010" class="node">
<title>Node10</title>
<g id="a_Node000010"><a xlink:href="opencv__camera__mt__handler_8cpp.html" target="_top" xlink:title=" ">
<polygon fill="white" stroke="#666666" points="1598.5,-41 1476.5,-41 1476.5,0 1598.5,0 1598.5,-41"/>
<text text-anchor="start" x="1484.5" y="-29" font-family="Helvetica,sans-Serif" font-size="10.00">src/auto_configurer</text>
<text text-anchor="start" x="1484.5" y="-18" font-family="Helvetica,sans-Serif" font-size="10.00">/impl/opencv_camera</text>
<text text-anchor="middle" x="1537.5" y="-7" font-family="Helvetica,sans-Serif" font-size="10.00">_mt_handler.cpp</text>
</a>
</g>
</g>
<!-- Node8&#45;&gt;Node10 -->
<g id="edge11_Node000008_Node000010" class="edge">
<title>Node8&#45;&gt;Node10</title>
<g id="a_edge11_Node000008_Node000010"><a xlink:title=" ">
<path fill="none" stroke="#63b8ff" d="M1537.5,-71.87C1537.5,-61.6 1537.5,-50.4 1537.5,-41.17"/>
<polygon fill="#63b8ff" stroke="#63b8ff" points="1534,-72.1 1537.5,-82.1 1541,-72.1 1534,-72.1"/>
</a>
</g>
</g>
<!-- Node11&#45;&gt;Node3 -->
<g id="edge14_Node000011_Node000003" class="edge">
<title>Node11&#45;&gt;Node3</title>
<g id="a_edge14_Node000011_Node000003"><a xlink:title=" ">
<path fill="none" stroke="#63b8ff" d="M1050.6,-69.49C1061.74,-57.84 1073.73,-45.3 1082.67,-35.96"/>
<polygon fill="#63b8ff" stroke="#63b8ff" points="1047.82,-67.32 1043.44,-76.97 1052.88,-72.16 1047.82,-67.32"/>
</a>
</g>
</g>
<!-- Node12&#45;&gt;Node13 -->
<g id="edge16_Node000012_Node000013" class="edge">
<title>Node12&#45;&gt;Node13</title>
<g id="a_edge16_Node000012_Node000013"><a xlink:title=" ">
<path fill="none" stroke="#63b8ff" d="M1360.19,-155.76C1354.36,-144.88 1348.12,-133.2 1343.04,-123.7"/>
<polygon fill="#63b8ff" stroke="#63b8ff" points="1357.14,-157.5 1364.95,-164.66 1363.32,-154.19 1357.14,-157.5"/>
</a>
</g>
</g>
<!-- Node13&#45;&gt;Node3 -->
<g id="edge17_Node000013_Node000003" class="edge">
<title>Node13&#45;&gt;Node3</title>
<g id="a_edge17_Node000013_Node000003"><a xlink:title=" ">
<path fill="none" stroke="#63b8ff" d="M1265.4,-79.11C1224.31,-65.1 1173.05,-47.61 1137.84,-35.6"/>
<polygon fill="#63b8ff" stroke="#63b8ff" points="1264.48,-82.49 1275.07,-82.41 1266.74,-75.87 1264.48,-82.49"/>
</a>
</g>
</g>
<!-- Node13&#45;&gt;Node9 -->
<g id="edge18_Node000013_Node000009" class="edge">
<title>Node13&#45;&gt;Node9</title>
<g id="a_edge18_Node000013_Node000009"><a xlink:title=" ">
<path fill="none" stroke="#63b8ff" d="M1343.49,-72.5C1348.15,-60.01 1353.36,-46.03 1357.15,-35.87"/>
<polygon fill="#63b8ff" stroke="#63b8ff" points="1340.13,-71.51 1339.92,-82.1 1346.69,-73.95 1340.13,-71.51"/>
</a>
</g>
</g>
<!-- Node15&#45;&gt;Node3 -->
<g id="edge22_Node000015_Node000003" class="edge">
<title>Node15&#45;&gt;Node3</title>
<g id="a_edge22_Node000015_Node000003"><a xlink:title=" ">
<path fill="none" stroke="#63b8ff" d="M267.69,-251.11C277.38,-241.03 288.83,-228.67 298.5,-217 316.76,-194.96 312.3,-180.28 336.5,-165 454.58,-90.45 882.5,-42.31 1038.82,-26.88"/>
<polygon fill="#63b8ff" stroke="#63b8ff" points="265.14,-248.72 260.68,-258.33 270.16,-253.59 265.14,-248.72"/>
</a>
</g>
</g>
<!-- Node16 -->
<g id="Node000016" class="node">
<title>Node16</title>
<g id="a_Node000016"><a xlink:href="mosaic__connector__factory_8cpp.html" target="_top" xlink:title=" ">
<polygon fill="white" stroke="#666666" points="289.5,-206 143.5,-206 143.5,-176 289.5,-176 289.5,-206"/>
<text text-anchor="start" x="151.5" y="-194" font-family="Helvetica,sans-Serif" font-size="10.00">src/core/mosaic_connector</text>
<text text-anchor="middle" x="216.5" y="-183" font-family="Helvetica,sans-Serif" font-size="10.00">_factory.cpp</text>
</a>
</g>
</g>
<!-- Node15&#45;&gt;Node16 -->
<g id="edge23_Node000015_Node000016" class="edge">
<title>Node15&#45;&gt;Node16</title>
<g id="a_edge23_Node000015_Node000016"><a xlink:title=" ">
<path fill="none" stroke="#63b8ff" d="M237.76,-249.05C232.58,-235.15 226.18,-217.98 221.77,-206.13"/>
<polygon fill="#63b8ff" stroke="#63b8ff" points="234.5,-250.33 241.27,-258.48 241.06,-247.89 234.5,-250.33"/>
</a>
</g>
</g>
<!-- Node17&#45;&gt;Node4 -->
<g id="edge25_Node000017_Node000004" class="edge">
<title>Node17&#45;&gt;Node4</title>
<g id="a_edge25_Node000017_Node000004"><a xlink:title=" ">
<path fill="none" stroke="#63b8ff" d="M468.3,-292.47C500.32,-305.63 541.26,-323.24 568,-335.39"/>
<polygon fill="#63b8ff" stroke="#63b8ff" points="469.25,-289.08 458.67,-288.54 466.61,-295.56 469.25,-289.08"/>
</a>
</g>
</g>
<!-- Node18 -->
<g id="Node000018" class="node">
<title>Node18</title>
<g id="a_Node000018"><a xlink:href="peer__connection__manager_8cpp.html" target="_top" xlink:title=" ">
<polygon fill="white" stroke="#666666" points="483.5,-206 345.5,-206 345.5,-176 483.5,-176 483.5,-206"/>
<text text-anchor="start" x="353.5" y="-194" font-family="Helvetica,sans-Serif" font-size="10.00">src/core/peer_connection</text>
<text text-anchor="middle" x="414.5" y="-183" font-family="Helvetica,sans-Serif" font-size="10.00">_manager.cpp</text>
</a>
</g>
</g>
<!-- Node17&#45;&gt;Node18 -->
<g id="edge26_Node000017_Node000018" class="edge">
<title>Node17&#45;&gt;Node18</title>
<g id="a_edge26_Node000017_Node000018"><a xlink:title=" ">
<path fill="none" stroke="#63b8ff" d="M418.69,-248.24C417.67,-234.48 416.42,-217.75 415.55,-206.13"/>
<polygon fill="#63b8ff" stroke="#63b8ff" points="415.22,-248.77 419.45,-258.48 422.2,-248.25 415.22,-248.77"/>
</a>
</g>
</g>
<!-- Node19&#45;&gt;Node18 -->
<g id="edge29_Node000019_Node000018" class="edge">
<title>Node19&#45;&gt;Node18</title>
<g id="a_edge29_Node000019_Node000018"><a xlink:title=" ">
<path fill="none" stroke="#63b8ff" d="M554.65,-254.33C521.84,-239.74 476.41,-219.53 446.27,-206.13"/>
<polygon fill="#63b8ff" stroke="#63b8ff" points="553.41,-257.61 563.97,-258.48 556.26,-251.22 553.41,-257.61"/>
</a>
</g>
</g>
<!-- Node19&#45;&gt;Node20 -->
<g id="edge28_Node000019_Node000020" class="edge">
<title>Node19&#45;&gt;Node20</title>
<g id="a_edge28_Node000019_Node000020"><a xlink:title=" ">
<path fill="none" stroke="#63b8ff" d="M592.18,-248.2C589.99,-232.2 587.26,-212.2 585.71,-200.88"/>
<polygon fill="#63b8ff" stroke="#63b8ff" points="588.76,-249.04 593.58,-258.48 595.7,-248.1 588.76,-249.04"/>
</a>
</g>
</g>
<!-- Node19&#45;&gt;Node21 -->
<g id="edge30_Node000019_Node000021" class="edge">
<title>Node19&#45;&gt;Node21</title>
<g id="a_edge30_Node000019_Node000021"><a xlink:title=" ">
<path fill="none" stroke="#63b8ff" d="M632.13,-253.95C660.89,-239.39 700.34,-219.42 726.59,-206.13"/>
<polygon fill="#63b8ff" stroke="#63b8ff" points="630.54,-250.84 623.2,-258.48 633.7,-257.08 630.54,-250.84"/>
</a>
</g>
</g>
<!-- Node22&#45;&gt;Node16 -->
<g id="edge32_Node000022_Node000016" class="edge">
<title>Node22&#45;&gt;Node16</title>
<g id="a_edge32_Node000022_Node000016"><a xlink:title=" ">
<path fill="none" stroke="#63b8ff" d="M114.64,-253.19C138.76,-238.7 171.24,-219.19 192.98,-206.13"/>
<polygon fill="#63b8ff" stroke="#63b8ff" points="112.61,-250.33 105.84,-258.48 116.22,-256.33 112.61,-250.33"/>
</a>
</g>
</g>
<!-- Node23 -->
<g id="Node000023" class="node">
<title>Node23</title>
<g id="a_Node000023"><a xlink:href="signaling__client_8cpp.html" target="_top" xlink:title=" ">
<polygon fill="white" stroke="#666666" points="125,-206 0,-206 0,-176 125,-176 125,-206"/>
<text text-anchor="start" x="8" y="-194" font-family="Helvetica,sans-Serif" font-size="10.00">src/signaling/signaling</text>
<text text-anchor="middle" x="62.5" y="-183" font-family="Helvetica,sans-Serif" font-size="10.00">_client.cpp</text>
</a>
</g>
</g>
<!-- Node22&#45;&gt;Node23 -->
<g id="edge33_Node000022_Node000023" class="edge">
<title>Node22&#45;&gt;Node23</title>
<g id="a_edge33_Node000022_Node000023"><a xlink:title=" ">
<path fill="none" stroke="#63b8ff" d="M76.57,-248.65C73.14,-234.81 68.93,-217.87 66.01,-206.13"/>
<polygon fill="#63b8ff" stroke="#63b8ff" points="73.21,-249.62 79.02,-258.48 80,-247.93 73.21,-249.62"/>
</a>
</g>
</g>
<!-- Node24&#45;&gt;Node8 -->
<g id="edge37_Node000024_Node000008" class="edge">
<title>Node24&#45;&gt;Node8</title>
<g id="a_edge37_Node000024_Node000008"><a xlink:title=" ">
<path fill="none" stroke="#63b8ff" d="M1643.7,-319.88C1647.64,-281.47 1649.34,-213.63 1621.5,-165 1611.47,-147.48 1594.14,-133.62 1577.81,-123.56"/>
<polygon fill="#63b8ff" stroke="#63b8ff" points="1640.21,-319.56 1642.55,-329.9 1647.17,-320.36 1640.21,-319.56"/>
</a>
</g>
</g>
<!-- Node25 -->
<g id="Node000025" class="node">
<title>Node25</title>
<g id="a_Node000025"><a xlink:href="a__media__track__handler_8cpp.html" target="_top" xlink:title=" ">
<polygon fill="white" stroke="#666666" points="1789.5,-294 1667.5,-294 1667.5,-253 1789.5,-253 1789.5,-294"/>
<text text-anchor="start" x="1675.5" y="-282" font-family="Helvetica,sans-Serif" font-size="10.00">src/handlers/media</text>
<text text-anchor="start" x="1675.5" y="-271" font-family="Helvetica,sans-Serif" font-size="10.00">_track/a_media_track</text>
<text text-anchor="middle" x="1728.5" y="-260" font-family="Helvetica,sans-Serif" font-size="10.00">_handler.cpp</text>
</a>
</g>
</g>
<!-- Node24&#45;&gt;Node25 -->
<g id="edge38_Node000024_Node000025" class="edge">
<title>Node24&#45;&gt;Node25</title>
<g id="a_edge38_Node000024_Node000025"><a xlink:title=" ">
<path fill="none" stroke="#63b8ff" d="M1670.53,-323.35C1681.95,-313.73 1694.66,-303.01 1705.27,-294.07"/>
<polygon fill="#63b8ff" stroke="#63b8ff" points="1668.28,-320.67 1662.88,-329.79 1672.79,-326.03 1668.28,-320.67"/>
</a>
</g>
</g>
</g>
</svg>
