<?xml version="1.0" encoding="UTF-8" standalone="no"?>
<!DOCTYPE svg PUBLIC "-//W3C//DTD SVG 1.1//EN"
 "http://www.w3.org/Graphics/SVG/1.1/DTD/svg11.dtd">
<!-- Generated by graphviz version 2.43.0 (0)
 -->
<!-- Title: include/mosaic/security/i_mosaic_authenticator.h Pages: 1 -->
<svg width="436pt" height="159pt"
 viewBox="0.00 0.00 436.00 159.00" xmlns="http://www.w3.org/2000/svg" xmlns:xlink="http://www.w3.org/1999/xlink">
<g id="graph0" class="graph" transform="scale(1 1) rotate(0) translate(4 155)">
<title>include/mosaic/security/i_mosaic_authenticator.h</title>
<!-- Node1 -->
<g id="Node000001" class="node">
<title>Node1</title>
<g id="a_Node000001"><a xlink:title=" ">
<polygon fill="#999999" stroke="#666666" points="242,-151 100,-151 100,-121 242,-121 242,-151"/>
<text text-anchor="start" x="108" y="-139" font-family="Helvetica,sans-Serif" font-size="10.00">include/mosaic/security</text>
<text text-anchor="middle" x="171" y="-128" font-family="Helvetica,sans-Serif" font-size="10.00">/i_mosaic_authenticator.h</text>
</a>
</g>
</g>
<!-- Node2 -->
<g id="Node000002" class="node">
<title>Node2</title>
<g id="a_Node000002"><a xlink:title=" ">
<polygon fill="#e0e0e0" stroke="#999999" points="58,-79.5 0,-79.5 0,-60.5 58,-60.5 58,-79.5"/>
<text text-anchor="middle" x="29" y="-67.5" font-family="Helvetica,sans-Serif" font-size="10.00">memory</text>
</a>
</g>
</g>
<!-- Node1&#45;&gt;Node2 -->
<g id="edge1_Node000001_Node000002" class="edge">
<title>Node1&#45;&gt;Node2</title>
<g id="a_edge1_Node000001_Node000002"><a xlink:title=" ">
<path fill="none" stroke="#63b8ff" d="M139.84,-120.95C115.15,-109.83 80.97,-94.42 57.12,-83.67"/>
<polygon fill="#63b8ff" stroke="#63b8ff" points="58.45,-80.44 47.9,-79.52 55.58,-86.82 58.45,-80.44"/>
</a>
</g>
</g>
<!-- Node3 -->
<g id="Node000003" class="node">
<title>Node3</title>
<g id="a_Node000003"><a xlink:href="auth__type_8h.html" target="_top" xlink:title=" ">
<polygon fill="white" stroke="#666666" points="150,-79.5 76,-79.5 76,-60.5 150,-60.5 150,-79.5"/>
<text text-anchor="middle" x="113" y="-67.5" font-family="Helvetica,sans-Serif" font-size="10.00">auth_type.h</text>
</a>
</g>
</g>
<!-- Node1&#45;&gt;Node3 -->
<g id="edge2_Node000001_Node000003" class="edge">
<title>Node1&#45;&gt;Node3</title>
<g id="a_edge2_Node000001_Node000003"><a xlink:title=" ">
<path fill="none" stroke="#63b8ff" d="M158.13,-120.8C149.17,-110.92 137.21,-97.72 127.86,-87.39"/>
<polygon fill="#63b8ff" stroke="#63b8ff" points="130.32,-84.9 121.02,-79.84 125.14,-89.6 130.32,-84.9"/>
</a>
</g>
</g>
<!-- Node5 -->
<g id="Node000005" class="node">
<title>Node5</title>
<g id="a_Node000005"><a xlink:href="configs__decl_8h.html" target="_top" xlink:title=" ">
<polygon fill="white" stroke="#666666" points="292,-79.5 168,-79.5 168,-60.5 292,-60.5 292,-79.5"/>
<text text-anchor="middle" x="230" y="-67.5" font-family="Helvetica,sans-Serif" font-size="10.00">mosaic/configs_decl.h</text>
</a>
</g>
</g>
<!-- Node1&#45;&gt;Node5 -->
<g id="edge4_Node000001_Node000005" class="edge">
<title>Node1&#45;&gt;Node5</title>
<g id="a_edge4_Node000001_Node000005"><a xlink:title=" ">
<path fill="none" stroke="#63b8ff" d="M184.09,-120.8C193.2,-110.92 205.37,-97.72 214.89,-87.39"/>
<polygon fill="#63b8ff" stroke="#63b8ff" points="217.64,-89.57 221.85,-79.84 212.5,-84.82 217.64,-89.57"/>
</a>
</g>
</g>
<!-- Node8 -->
<g id="Node000008" class="node">
<title>Node8</title>
<g id="a_Node000008"><a xlink:title=" ">
<polygon fill="#e0e0e0" stroke="#999999" points="428,-85 310,-85 310,-55 428,-55 428,-85"/>
<text text-anchor="start" x="318" y="-73" font-family="Helvetica,sans-Serif" font-size="10.00">mosaic/json_forward</text>
<text text-anchor="middle" x="369" y="-62" font-family="Helvetica,sans-Serif" font-size="10.00">_decl.h</text>
</a>
</g>
</g>
<!-- Node1&#45;&gt;Node8 -->
<g id="edge8_Node000001_Node000008" class="edge">
<title>Node1&#45;&gt;Node8</title>
<g id="a_edge8_Node000001_Node000008"><a xlink:title=" ">
<path fill="none" stroke="#63b8ff" d="M214.45,-120.95C244.37,-111.28 284.29,-98.38 316.07,-88.11"/>
<polygon fill="#63b8ff" stroke="#63b8ff" points="317.21,-91.42 325.65,-85.01 315.06,-84.76 317.21,-91.42"/>
</a>
</g>
</g>
<!-- Node4 -->
<g id="Node000004" class="node">
<title>Node4</title>
<g id="a_Node000004"><a xlink:title=" ">
<polygon fill="#e0e0e0" stroke="#999999" points="150,-19 106,-19 106,0 150,0 150,-19"/>
<text text-anchor="middle" x="128" y="-7" font-family="Helvetica,sans-Serif" font-size="10.00">string</text>
</a>
</g>
</g>
<!-- Node3&#45;&gt;Node4 -->
<g id="edge3_Node000003_Node000004" class="edge">
<title>Node3&#45;&gt;Node4</title>
<g id="a_edge3_Node000003_Node000004"><a xlink:title=" ">
<path fill="none" stroke="#63b8ff" d="M115.21,-60.37C117.32,-52.16 120.55,-39.54 123.24,-29.05"/>
<polygon fill="#63b8ff" stroke="#63b8ff" points="126.68,-29.72 125.78,-19.17 119.9,-27.98 126.68,-29.72"/>
</a>
</g>
</g>
<!-- Node5&#45;&gt;Node4 -->
<g id="edge5_Node000005_Node000004" class="edge">
<title>Node5&#45;&gt;Node4</title>
<g id="a_edge5_Node000005_Node000004"><a xlink:title=" ">
<path fill="none" stroke="#63b8ff" d="M214.95,-60.37C198.38,-50.86 171.5,-35.45 152.01,-24.27"/>
<polygon fill="#63b8ff" stroke="#63b8ff" points="153.53,-21.11 143.11,-19.17 150.05,-27.18 153.53,-21.11"/>
</a>
</g>
</g>
<!-- Node6 -->
<g id="Node000006" class="node">
<title>Node6</title>
<g id="a_Node000006"><a xlink:title=" ">
<polygon fill="#e0e0e0" stroke="#999999" points="268.5,-19 175.5,-19 175.5,0 268.5,0 268.5,-19"/>
<text text-anchor="middle" x="222" y="-7" font-family="Helvetica,sans-Serif" font-size="10.00">unordered_map</text>
</a>
</g>
</g>
<!-- Node5&#45;&gt;Node6 -->
<g id="edge6_Node000005_Node000006" class="edge">
<title>Node5&#45;&gt;Node6</title>
<g id="a_edge6_Node000005_Node000006"><a xlink:title=" ">
<path fill="none" stroke="#63b8ff" d="M228.82,-60.37C227.71,-52.25 226.01,-39.81 224.58,-29.39"/>
<polygon fill="#63b8ff" stroke="#63b8ff" points="228.01,-28.6 223.19,-19.17 221.07,-29.55 228.01,-28.6"/>
</a>
</g>
</g>
<!-- Node7 -->
<g id="Node000007" class="node">
<title>Node7</title>
<g id="a_Node000007"><a xlink:title=" ">
<polygon fill="#e0e0e0" stroke="#999999" points="333.5,-19 286.5,-19 286.5,0 333.5,0 333.5,-19"/>
<text text-anchor="middle" x="310" y="-7" font-family="Helvetica,sans-Serif" font-size="10.00">vector</text>
</a>
</g>
</g>
<!-- Node5&#45;&gt;Node7 -->
<g id="edge7_Node000005_Node000007" class="edge">
<title>Node5&#45;&gt;Node7</title>
<g id="a_edge7_Node000005_Node000007"><a xlink:title=" ">
<path fill="none" stroke="#63b8ff" d="M241.8,-60.37C254.45,-51.12 274.74,-36.28 289.91,-25.19"/>
<polygon fill="#63b8ff" stroke="#63b8ff" points="292.14,-27.9 298.15,-19.17 288.01,-22.24 292.14,-27.9"/>
</a>
</g>
</g>
</g>
</svg>
