<?xml version="1.0" encoding="UTF-8" standalone="no"?>
<!DOCTYPE svg PUBLIC "-//W3C//DTD SVG 1.1//EN"
 "http://www.w3.org/Graphics/SVG/1.1/DTD/svg11.dtd">
<!-- Generated by graphviz version 2.43.0 (0)
 -->
<!-- Title: include/mosaic/signaling/i_signaling_client.h Pages: 1 -->
<!--zoomable 500 -->

<svg id="main" version="1.1" xmlns="http://www.w3.org/2000/svg" xmlns:xlink="http://www.w3.org/1999/xlink" xml:space="preserve" onload="init(evt)">
<style type="text/css"><![CDATA[
.node, .edge {opacity: 0.7;}
.node.selected, .edge.selected {opacity: 1;}
.edge:hover path { stroke: red; }
.edge:hover polygon { stroke: red; fill: red; }
]]></style>

<defs>
  <circle id="rim" cx="0" cy="0" r="7"/>
  <circle id="rim2" cx="0" cy="0" r="3.5"/>
  <g id="zoomPlus">
    <use xlink:href="#rim" fill="#404040"><set attributeName="fill" to="#808080" begin="zoomplus.mouseover" end="zoomplus.mouseout"/></use>
    <path d="M-4,0h8M0,-4v8" fill="none" stroke="white" stroke-width="1.5" pointer-events="none"/>
  </g>
  <g id="zoomMin">
    <use xlink:href="#rim" fill="#404040"><set attributeName="fill" to="#808080" begin="zoomminus.mouseover" end="zoomminus.mouseout"/></use>
    <path d="M-4,0h8" fill="none" stroke="white" stroke-width="1.5" pointer-events="none"/>
  </g>
  <g id="arrowUp" transform="translate(30 24)">
    <use xlink:href="#rim"/>
    <path pointer-events="none" fill="none" stroke="white" stroke-width="1.5" d="M0,-3.0v7 M-2.5,-0.5L0,-3.0L2.5,-0.5"/>
  </g>
  <g id="arrowRight" transform="rotate(90) translate(36 -43)">
    <use xlink:href="#rim"/>
    <path pointer-events="none" fill="none" stroke="white" stroke-width="1.5" d="M0,-3.0v7 M-2.5,-0.5L0,-3.0L2.5,-0.5"/>
  </g>
  <g id="arrowDown" transform="rotate(180) translate(-30 -48)">
    <use xlink:href="#rim"/>
    <path pointer-events="none" fill="none" stroke="white" stroke-width="1.5" d="M0,-3.0v7 M-2.5,-0.5L0,-3.0L2.5,-0.5"/>
  </g>
  <g id="arrowLeft" transform="rotate(270) translate(-36 17)">
    <use xlink:href="#rim"/>
    <path pointer-events="none" fill="none" stroke="white" stroke-width="1.5" d="M0,-3.0v7 M-2.5,-0.5L0,-3.0L2.5,-0.5"/>
  </g>
  <g id="resetDef">
    <use xlink:href="#rim2" fill="#404040"><set attributeName="fill" to="#808080" begin="reset.mouseover" end="reset.mouseout"/></use>
  </g>
</defs>
<script type="application/ecmascript">
var viewWidth = 1584;
var viewHeight = 500;
var sectionId = 'dynsection-1';
</script>
<script type="application/ecmascript" xlink:href="svg.min.js"/>
<svg id="graph" class="graph">
<g id="viewport">
<title>include/mosaic/signaling/i_signaling_client.h</title>
<!-- Node1 -->
<g id="Node000001" class="node">
<title>Node1</title>
<g id="a_Node000001"><a xlink:title=" ">
<polygon fill="#999999" stroke="#666666" points="536,-492 399,-492 399,-462 536,-462 536,-492"/>
<text text-anchor="start" x="407" y="-480" font-family="Helvetica,sans-Serif" font-size="10.00">include/mosaic/signaling</text>
<text text-anchor="middle" x="467.5" y="-469" font-family="Helvetica,sans-Serif" font-size="10.00">/i_signaling_client.h</text>
</a>
</g>
</g>
<!-- Node2 -->
<g id="Node000002" class="node">
<title>Node2</title>
<g id="a_Node000002"><a xlink:href="connector__state__manager_8h.html" target="_top" xlink:title=" ">
<polygon fill="white" stroke="#666666" points="598,-426 443,-426 443,-396 598,-396 598,-426"/>
<text text-anchor="start" x="451" y="-414" font-family="Helvetica,sans-Serif" font-size="10.00">include/mosaic/core</text>
<text text-anchor="middle" x="520.5" y="-403" font-family="Helvetica,sans-Serif" font-size="10.00">/connector_state_manager.h</text>
</a>
</g>
</g>
<!-- Node1&#45;&gt;Node2 -->
<g id="edge1_Node000001_Node000002" class="edge">
<title>Node1&#45;&gt;Node2</title>
<g id="a_edge1_Node000001_Node000002"><a xlink:title=" ">
<path fill="none" stroke="#63b8ff" d="M485.65,-454.09C493.3,-444.85 501.98,-434.36 508.77,-426.16"/>
<polygon fill="#63b8ff" stroke="#63b8ff" points="482.94,-451.86 479.26,-461.8 488.34,-456.33 482.94,-451.86"/>
</a>
</g>
</g>
<!-- Node18 -->
<g id="Node000018" class="node">
<title>Node18</title>
<g id="a_Node000018"><a xlink:href="peer__connection__manager_8h.html" target="_top" xlink:title=" ">
<polygon fill="white" stroke="#666666" points="562,-288.5 405,-288.5 405,-258.5 562,-258.5 562,-288.5"/>
<text text-anchor="start" x="413" y="-276.5" font-family="Helvetica,sans-Serif" font-size="10.00">include/mosaic/core</text>
<text text-anchor="middle" x="483.5" y="-265.5" font-family="Helvetica,sans-Serif" font-size="10.00">/peer_connection_manager.h</text>
</a>
</g>
</g>
<!-- Node1&#45;&gt;Node18 -->
<g id="edge38_Node000001_Node000018" class="edge">
<title>Node1&#45;&gt;Node18</title>
<g id="a_edge38_Node000001_Node000018"><a xlink:title=" ">
<path fill="none" stroke="#63b8ff" d="M448.35,-453.97C442.39,-445.75 436.57,-435.98 433.5,-426 429.58,-413.26 432.4,-409.29 433.5,-396 435.95,-366.36 433.23,-357.52 444.5,-330 450.84,-314.53 462.15,-299.14 470.96,-288.51"/>
<polygon fill="#63b8ff" stroke="#63b8ff" points="445.62,-456.16 454.51,-461.92 451.15,-451.87 445.62,-456.16"/>
</a>
</g>
</g>
<!-- Node19 -->
<g id="Node000019" class="node">
<title>Node19</title>
<g id="a_Node000019"><a xlink:href="peer__connection__manager_8cpp.html" target="_top" xlink:title=" ">
<polygon fill="white" stroke="#666666" points="521.5,-206 383.5,-206 383.5,-176 521.5,-176 521.5,-206"/>
<text text-anchor="start" x="391.5" y="-194" font-family="Helvetica,sans-Serif" font-size="10.00">src/core/peer_connection</text>
<text text-anchor="middle" x="452.5" y="-183" font-family="Helvetica,sans-Serif" font-size="10.00">_manager.cpp</text>
</a>
</g>
</g>
<!-- Node1&#45;&gt;Node19 -->
<g id="edge40_Node000001_Node000019" class="edge">
<title>Node1&#45;&gt;Node19</title>
<g id="a_edge40_Node000001_Node000019"><a xlink:title=" ">
<path fill="none" stroke="#63b8ff" d="M446.91,-454.01C439.99,-445.72 432.7,-435.89 427.5,-426 398.95,-371.75 396.49,-354.64 387.5,-294 384.83,-275.97 380.26,-269.72 387.5,-253 396.05,-233.26 414.47,-216.97 429.53,-206.21"/>
<polygon fill="#63b8ff" stroke="#63b8ff" points="444.43,-456.49 453.63,-461.74 449.71,-451.89 444.43,-456.49"/>
</a>
</g>
</g>
<!-- Node23 -->
<g id="Node000023" class="node">
<title>Node23</title>
<g id="a_Node000023"><a xlink:href="signaling__client_8h.html" target="_top" xlink:title=" ">
<polygon fill="white" stroke="#666666" points="137,-288.5 0,-288.5 0,-258.5 137,-258.5 137,-288.5"/>
<text text-anchor="start" x="8" y="-276.5" font-family="Helvetica,sans-Serif" font-size="10.00">include/mosaic/signaling</text>
<text text-anchor="middle" x="68.5" y="-265.5" font-family="Helvetica,sans-Serif" font-size="10.00">/signaling_client.h</text>
</a>
</g>
</g>
<!-- Node1&#45;&gt;Node23 -->
<g id="edge39_Node000001_Node000023" class="edge">
<title>Node1&#45;&gt;Node23</title>
<g id="a_edge39_Node000001_Node000023"><a xlink:title=" ">
<path fill="none" stroke="#63b8ff" d="M410.34,-458.89C383.75,-450.21 352,-438.79 324.5,-426 232.72,-383.31 131.42,-317.18 88.97,-288.53"/>
<polygon fill="#63b8ff" stroke="#63b8ff" points="409.29,-462.23 419.88,-461.96 411.43,-455.57 409.29,-462.23"/>
</a>
</g>
</g>
<!-- Node26 -->
<g id="Node000026" class="node">
<title>Node26</title>
<g id="a_Node000026"><a xlink:href="no__auth__authenticator_8cpp.html" target="_top" xlink:title=" ">
<polygon fill="white" stroke="#666666" points="750.5,-426 616.5,-426 616.5,-396 750.5,-396 750.5,-426"/>
<text text-anchor="start" x="624.5" y="-414" font-family="Helvetica,sans-Serif" font-size="10.00">src/security/impl/no</text>
<text text-anchor="middle" x="683.5" y="-403" font-family="Helvetica,sans-Serif" font-size="10.00">_auth_authenticator.cpp</text>
</a>
</g>
</g>
<!-- Node1&#45;&gt;Node26 -->
<g id="edge41_Node000001_Node000026" class="edge">
<title>Node1&#45;&gt;Node26</title>
<g id="a_edge41_Node000001_Node000026"><a xlink:title=" ">
<path fill="none" stroke="#63b8ff" d="M524.91,-458.99C559.67,-448.69 603.45,-435.72 636.21,-426.01"/>
<polygon fill="#63b8ff" stroke="#63b8ff" points="523.5,-455.76 514.9,-461.95 525.48,-462.47 523.5,-455.76"/>
</a>
</g>
</g>
<!-- Node27 -->
<g id="Node000027" class="node">
<title>Node27</title>
<g id="a_Node000027"><a xlink:href="simple__token__authenticator_8cpp.html" target="_top" xlink:title=" ">
<polygon fill="white" stroke="#666666" points="908,-426 769,-426 769,-396 908,-396 908,-426"/>
<text text-anchor="start" x="777" y="-414" font-family="Helvetica,sans-Serif" font-size="10.00">src/security/impl/simple</text>
<text text-anchor="middle" x="838.5" y="-403" font-family="Helvetica,sans-Serif" font-size="10.00">_token_authenticator.cpp</text>
</a>
</g>
</g>
<!-- Node1&#45;&gt;Node27 -->
<g id="edge42_Node000001_Node000027" class="edge">
<title>Node1&#45;&gt;Node27</title>
<g id="a_edge42_Node000001_Node000027"><a xlink:title=" ">
<path fill="none" stroke="#63b8ff" d="M546.21,-462.65C604.99,-452.65 687.29,-438.58 759.5,-426 762.52,-425.47 765.6,-424.94 768.72,-424.39"/>
<polygon fill="#63b8ff" stroke="#63b8ff" points="545.52,-459.22 536.25,-464.34 546.7,-466.12 545.52,-459.22"/>
</a>
</g>
</g>
<!-- Node3 -->
<g id="Node000003" class="node">
<title>Node3</title>
<g id="a_Node000003"><a xlink:href="mosaic__connector_8h.html" target="_top" xlink:title=" ">
<polygon fill="white" stroke="#666666" points="702.5,-360 586.5,-360 586.5,-330 702.5,-330 702.5,-360"/>
<text text-anchor="start" x="594.5" y="-348" font-family="Helvetica,sans-Serif" font-size="10.00">include/mosaic/core</text>
<text text-anchor="middle" x="644.5" y="-337" font-family="Helvetica,sans-Serif" font-size="10.00">/mosaic_connector.h</text>
</a>
</g>
</g>
<!-- Node2&#45;&gt;Node3 -->
<g id="edge2_Node000002_Node000003" class="edge">
<title>Node2&#45;&gt;Node3</title>
<g id="a_edge2_Node000002_Node000003"><a xlink:title=" ">
<path fill="none" stroke="#63b8ff" d="M556.84,-391.24C576.2,-381.25 599.6,-369.18 617.35,-360.01"/>
<polygon fill="#63b8ff" stroke="#63b8ff" points="554.99,-388.26 547.71,-395.95 558.2,-394.48 554.99,-388.26"/>
</a>
</g>
</g>
<!-- Node2&#45;&gt;Node19 -->
<g id="edge37_Node000002_Node000019" class="edge">
<title>Node2&#45;&gt;Node19</title>
<g id="a_edge37_Node000002_Node000019"><a xlink:title=" ">
<path fill="none" stroke="#63b8ff" d="M484.32,-390.49C452.79,-370.98 409.92,-337.62 395.5,-294 389.78,-276.7 388.81,-269.95 395.5,-253 403.05,-233.85 419.76,-217.18 433.15,-206.13"/>
<polygon fill="#63b8ff" stroke="#63b8ff" points="482.91,-393.73 493.29,-395.86 486.51,-387.72 482.91,-393.73"/>
</a>
</g>
</g>
<!-- Node25 -->
<g id="Node000025" class="node">
<title>Node25</title>
<g id="a_Node000025"><a xlink:href="connector__state__manager_8cpp.html" target="_top" xlink:title=" ">
<polygon fill="white" stroke="#666666" points="568,-360 453,-360 453,-330 568,-330 568,-360"/>
<text text-anchor="start" x="461" y="-348" font-family="Helvetica,sans-Serif" font-size="10.00">src/core/connector</text>
<text text-anchor="middle" x="510.5" y="-337" font-family="Helvetica,sans-Serif" font-size="10.00">_state_manager.cpp</text>
</a>
</g>
</g>
<!-- Node2&#45;&gt;Node25 -->
<g id="edge36_Node000002_Node000025" class="edge">
<title>Node2&#45;&gt;Node25</title>
<g id="a_edge36_Node000002_Node000025"><a xlink:title=" ">
<path fill="none" stroke="#63b8ff" d="M516.72,-385.83C515.37,-377.17 513.89,-367.7 512.71,-360.16"/>
<polygon fill="#63b8ff" stroke="#63b8ff" points="513.28,-386.46 518.28,-395.8 520.19,-385.38 513.28,-386.46"/>
</a>
</g>
</g>
<!-- Node4 -->
<g id="Node000004" class="node">
<title>Node4</title>
<g id="a_Node000004"><a xlink:href="i__configurable__connector_8h.html" target="_top" xlink:title=" ">
<polygon fill="white" stroke="#666666" points="1206,-294 1057,-294 1057,-253 1206,-253 1206,-294"/>
<text text-anchor="start" x="1065" y="-282" font-family="Helvetica,sans-Serif" font-size="10.00">include/mosaic/auto</text>
<text text-anchor="start" x="1065" y="-271" font-family="Helvetica,sans-Serif" font-size="10.00">_configurer/connector</text>
<text text-anchor="middle" x="1131.5" y="-260" font-family="Helvetica,sans-Serif" font-size="10.00">/i_configurable_connector.h</text>
</a>
</g>
</g>
<!-- Node3&#45;&gt;Node4 -->
<g id="edge3_Node000003_Node000004" class="edge">
<title>Node3&#45;&gt;Node4</title>
<g id="a_edge3_Node000003_Node000004"><a xlink:title=" ">
<path fill="none" stroke="#63b8ff" d="M712.93,-334.23C803.64,-321.29 963.12,-298.53 1056.85,-285.15"/>
<polygon fill="#63b8ff" stroke="#63b8ff" points="712.17,-330.81 702.76,-335.69 713.15,-337.74 712.17,-330.81"/>
</a>
</g>
</g>
<!-- Node16 -->
<g id="Node000016" class="node">
<title>Node16</title>
<g id="a_Node000016"><a xlink:href="mosaic__connector__factory_8h.html" target="_top" xlink:title=" ">
<polygon fill="white" stroke="#666666" points="310,-288.5 155,-288.5 155,-258.5 310,-258.5 310,-288.5"/>
<text text-anchor="start" x="163" y="-276.5" font-family="Helvetica,sans-Serif" font-size="10.00">include/mosaic/core</text>
<text text-anchor="middle" x="232.5" y="-265.5" font-family="Helvetica,sans-Serif" font-size="10.00">/mosaic_connector_factory.h</text>
</a>
</g>
</g>
<!-- Node3&#45;&gt;Node16 -->
<g id="edge21_Node000003_Node000016" class="edge">
<title>Node3&#45;&gt;Node16</title>
<g id="a_edge21_Node000003_Node000016"><a xlink:title=" ">
<path fill="none" stroke="#63b8ff" d="M576.4,-329.85C478.94,-311.98 377.81,-296.14 310.09,-285.93"/>
<polygon fill="#63b8ff" stroke="#63b8ff" points="575.96,-333.32 586.43,-331.69 577.23,-326.44 575.96,-333.32"/>
</a>
</g>
</g>
<!-- Node3&#45;&gt;Node18 -->
<g id="edge24_Node000003_Node000018" class="edge">
<title>Node3&#45;&gt;Node18</title>
<g id="a_edge24_Node000003_Node000018"><a xlink:title=" ">
<path fill="none" stroke="#63b8ff" d="M597.07,-326.11C568.84,-314.42 534.13,-299.37 510.49,-288.54"/>
<polygon fill="#63b8ff" stroke="#63b8ff" points="595.79,-329.37 606.37,-329.94 598.45,-322.89 595.79,-329.37"/>
</a>
</g>
</g>
<!-- Node20 -->
<g id="Node000020" class="node">
<title>Node20</title>
<g id="a_Node000020"><a xlink:href="peer__connection__observer_8h.html" target="_top" xlink:title=" ">
<polygon fill="white" stroke="#666666" points="736.5,-288.5 580.5,-288.5 580.5,-258.5 736.5,-258.5 736.5,-288.5"/>
<text text-anchor="start" x="588.5" y="-276.5" font-family="Helvetica,sans-Serif" font-size="10.00">include/mosaic/core</text>
<text text-anchor="middle" x="658.5" y="-265.5" font-family="Helvetica,sans-Serif" font-size="10.00">/peer_connection_observer.h</text>
</a>
</g>
</g>
<!-- Node3&#45;&gt;Node20 -->
<g id="edge27_Node000003_Node000020" class="edge">
<title>Node3&#45;&gt;Node20</title>
<g id="a_edge27_Node000003_Node000020"><a xlink:title=" ">
<path fill="none" stroke="#63b8ff" d="M649.32,-320.08C651.44,-309.56 653.85,-297.58 655.67,-288.54"/>
<polygon fill="#63b8ff" stroke="#63b8ff" points="645.88,-319.44 647.33,-329.94 652.74,-320.82 645.88,-319.44"/>
</a>
</g>
</g>
<!-- Node21 -->
<g id="Node000021" class="node">
<title>Node21</title>
<g id="a_Node000021"><a xlink:href="mosaic__connector_8cpp.html" target="_top" xlink:title=" ">
<polygon fill="white" stroke="#666666" points="710.5,-200.5 544.5,-200.5 544.5,-181.5 710.5,-181.5 710.5,-200.5"/>
<text text-anchor="middle" x="627.5" y="-188.5" font-family="Helvetica,sans-Serif" font-size="10.00">src/core/mosaic_connector.cpp</text>
</a>
</g>
</g>
<!-- Node3&#45;&gt;Node21 -->
<g id="edge34_Node000003_Node000021" class="edge">
<title>Node3&#45;&gt;Node21</title>
<g id="a_edge34_Node000003_Node000021"><a xlink:title=" ">
<path fill="none" stroke="#63b8ff" d="M708.03,-325.65C722.82,-318.26 736.78,-308.04 745.5,-294 755.11,-278.52 754.98,-268.56 745.5,-253 728.23,-224.63 693.05,-208.88 665.58,-200.52"/>
<polygon fill="#63b8ff" stroke="#63b8ff" points="706.39,-322.55 698.75,-329.9 709.3,-328.92 706.39,-322.55"/>
</a>
</g>
</g>
<!-- Node22 -->
<g id="Node000022" class="node">
<title>Node22</title>
<g id="a_Node000022"><a xlink:href="peer__connection__observer_8cpp.html" target="_top" xlink:title=" ">
<polygon fill="white" stroke="#666666" points="866.5,-206 728.5,-206 728.5,-176 866.5,-176 866.5,-206"/>
<text text-anchor="start" x="736.5" y="-194" font-family="Helvetica,sans-Serif" font-size="10.00">src/core/peer_connection</text>
<text text-anchor="middle" x="797.5" y="-183" font-family="Helvetica,sans-Serif" font-size="10.00">_observer.cpp</text>
</a>
</g>
</g>
<!-- Node3&#45;&gt;Node22 -->
<g id="edge35_Node000003_Node000022" class="edge">
<title>Node3&#45;&gt;Node22</title>
<g id="a_edge35_Node000003_Node000022"><a xlink:title=" ">
<path fill="none" stroke="#63b8ff" d="M712.14,-326.52C730.45,-319.04 748.94,-308.55 762.5,-294 785.86,-268.94 793.71,-227.58 796.28,-206.04"/>
<polygon fill="#63b8ff" stroke="#63b8ff" points="710.7,-323.33 702.61,-330.17 713.2,-329.87 710.7,-323.33"/>
</a>
</g>
</g>
<!-- Node3&#45;&gt;Node23 -->
<g id="edge31_Node000003_Node000023" class="edge">
<title>Node3&#45;&gt;Node23</title>
<g id="a_edge31_Node000003_Node000023"><a xlink:title=" ">
<path fill="none" stroke="#63b8ff" d="M576.37,-329.97C385.05,-303.03 332.28,-325.21 145.5,-294 136.93,-292.57 127.92,-290.66 119.19,-288.6"/>
<polygon fill="#63b8ff" stroke="#63b8ff" points="576.08,-333.46 586.47,-331.42 577.07,-326.53 576.08,-333.46"/>
</a>
</g>
</g>
<!-- Node5 -->
<g id="Node000005" class="node">
<title>Node5</title>
<g id="a_Node000005"><a xlink:href="auto__configurer_8h.html" target="_top" xlink:title=" ">
<polygon fill="white" stroke="#666666" points="1245.5,-118 1087.5,-118 1087.5,-88 1245.5,-88 1245.5,-118"/>
<text text-anchor="start" x="1095.5" y="-106" font-family="Helvetica,sans-Serif" font-size="10.00">include/mosaic/auto</text>
<text text-anchor="middle" x="1166.5" y="-95" font-family="Helvetica,sans-Serif" font-size="10.00">_configurer/auto_configurer.h</text>
</a>
</g>
</g>
<!-- Node4&#45;&gt;Node5 -->
<g id="edge4_Node000004_Node000005" class="edge">
<title>Node4&#45;&gt;Node5</title>
<g id="a_edge4_Node000004_Node000005"><a xlink:title=" ">
<path fill="none" stroke="#63b8ff" d="M1137.68,-242.76C1145.28,-206.17 1157.87,-145.53 1163.56,-118.16"/>
<polygon fill="#63b8ff" stroke="#63b8ff" points="1134.19,-242.34 1135.58,-252.84 1141.04,-243.76 1134.19,-242.34"/>
</a>
</g>
</g>
<!-- Node7 -->
<g id="Node000007" class="node">
<title>Node7</title>
<g id="a_Node000007"><a xlink:href="a__dc__handler__configurer_8h.html" target="_top" xlink:title=" ">
<polygon fill="white" stroke="#666666" points="925.5,-123.5 779.5,-123.5 779.5,-82.5 925.5,-82.5 925.5,-123.5"/>
<text text-anchor="start" x="787.5" y="-111.5" font-family="Helvetica,sans-Serif" font-size="10.00">include/mosaic/auto</text>
<text text-anchor="start" x="787.5" y="-100.5" font-family="Helvetica,sans-Serif" font-size="10.00">_configurer/connector</text>
<text text-anchor="middle" x="852.5" y="-89.5" font-family="Helvetica,sans-Serif" font-size="10.00">/a_dc_handler_configurer.h</text>
</a>
</g>
</g>
<!-- Node4&#45;&gt;Node7 -->
<g id="edge6_Node000004_Node000007" class="edge">
<title>Node4&#45;&gt;Node7</title>
<g id="a_edge6_Node000004_Node000007"><a xlink:title=" ">
<path fill="none" stroke="#63b8ff" d="M1046.92,-266.81C1003.61,-260.2 952.2,-246.24 914.5,-217 898.41,-204.52 873.86,-152.67 861.01,-123.74"/>
<polygon fill="#63b8ff" stroke="#63b8ff" points="1046.5,-270.29 1056.89,-268.23 1047.48,-263.36 1046.5,-270.29"/>
</a>
</g>
</g>
<!-- Node8 -->
<g id="Node000008" class="node">
<title>Node8</title>
<g id="a_Node000008"><a xlink:href="a__mt__handler__configurer_8h.html" target="_top" xlink:title=" ">
<polygon fill="white" stroke="#666666" points="1517,-211.5 1368,-211.5 1368,-170.5 1517,-170.5 1517,-211.5"/>
<text text-anchor="start" x="1376" y="-199.5" font-family="Helvetica,sans-Serif" font-size="10.00">include/mosaic/auto</text>
<text text-anchor="start" x="1376" y="-188.5" font-family="Helvetica,sans-Serif" font-size="10.00">_configurer/connector</text>
<text text-anchor="middle" x="1442.5" y="-177.5" font-family="Helvetica,sans-Serif" font-size="10.00">/a_mt_handler_configurer.h</text>
</a>
</g>
</g>
<!-- Node4&#45;&gt;Node8 -->
<g id="edge8_Node000004_Node000008" class="edge">
<title>Node4&#45;&gt;Node8</title>
<g id="a_edge8_Node000004_Node000008"><a xlink:title=" ">
<path fill="none" stroke="#63b8ff" d="M1216.1,-252.14C1257.84,-241.92 1308.91,-229.15 1354.5,-217 1360.95,-215.28 1367.65,-213.46 1374.34,-211.6"/>
<polygon fill="#63b8ff" stroke="#63b8ff" points="1215.13,-248.77 1206.24,-254.55 1216.79,-255.57 1215.13,-248.77"/>
</a>
</g>
</g>
<!-- Node12 -->
<g id="Node000012" class="node">
<title>Node12</title>
<g id="a_Node000012"><a xlink:href="a__parallel__dc__handler__configurer_8h.html" target="_top" xlink:title=" ">
<polygon fill="white" stroke="#666666" points="1069.5,-129 943.5,-129 943.5,-77 1069.5,-77 1069.5,-129"/>
<text text-anchor="start" x="951.5" y="-117" font-family="Helvetica,sans-Serif" font-size="10.00">include/mosaic/auto</text>
<text text-anchor="start" x="951.5" y="-106" font-family="Helvetica,sans-Serif" font-size="10.00">_configurer/connector</text>
<text text-anchor="start" x="951.5" y="-95" font-family="Helvetica,sans-Serif" font-size="10.00">/a_parallel_dc_handler</text>
<text text-anchor="middle" x="1006.5" y="-84" font-family="Helvetica,sans-Serif" font-size="10.00">_configurer.h</text>
</a>
</g>
</g>
<!-- Node4&#45;&gt;Node12 -->
<g id="edge13_Node000004_Node000012" class="edge">
<title>Node4&#45;&gt;Node12</title>
<g id="a_edge13_Node000004_Node000012"><a xlink:title=" ">
<path fill="none" stroke="#63b8ff" d="M1126.22,-243.02C1120.96,-219.99 1111.05,-188.1 1093.5,-165 1082.79,-150.9 1067.88,-138.79 1053.42,-129.17"/>
<polygon fill="#63b8ff" stroke="#63b8ff" points="1122.82,-243.87 1128.33,-252.92 1129.67,-242.41 1122.82,-243.87"/>
</a>
</g>
</g>
<!-- Node13 -->
<g id="Node000013" class="node">
<title>Node13</title>
<g id="a_Node000013"><a xlink:href="configurable__connector__factory_8h.html" target="_top" xlink:title=" ">
<polygon fill="white" stroke="#666666" points="1312,-217 1179,-217 1179,-165 1312,-165 1312,-217"/>
<text text-anchor="start" x="1187" y="-205" font-family="Helvetica,sans-Serif" font-size="10.00">include/mosaic/auto</text>
<text text-anchor="start" x="1187" y="-194" font-family="Helvetica,sans-Serif" font-size="10.00">_configurer/connector</text>
<text text-anchor="start" x="1187" y="-183" font-family="Helvetica,sans-Serif" font-size="10.00">/configurable_connector</text>
<text text-anchor="middle" x="1245.5" y="-172" font-family="Helvetica,sans-Serif" font-size="10.00">_factory.h</text>
</a>
</g>
</g>
<!-- Node4&#45;&gt;Node13 -->
<g id="edge15_Node000004_Node000013" class="edge">
<title>Node4&#45;&gt;Node13</title>
<g id="a_edge15_Node000004_Node000013"><a xlink:title=" ">
<path fill="none" stroke="#63b8ff" d="M1167.89,-246.81C1181.26,-237.36 1196.38,-226.68 1209.7,-217.28"/>
<polygon fill="#63b8ff" stroke="#63b8ff" points="1165.54,-244.18 1159.39,-252.81 1169.58,-249.9 1165.54,-244.18"/>
</a>
</g>
</g>
<!-- Node14 -->
<g id="Node000014" class="node">
<title>Node14</title>
<g id="a_Node000014"><a xlink:href="connector__resolver_8h.html" target="_top" xlink:title=" ">
<polygon fill="white" stroke="#666666" points="1385.5,-123.5 1263.5,-123.5 1263.5,-82.5 1385.5,-82.5 1385.5,-123.5"/>
<text text-anchor="start" x="1271.5" y="-111.5" font-family="Helvetica,sans-Serif" font-size="10.00">include/mosaic/auto</text>
<text text-anchor="start" x="1271.5" y="-100.5" font-family="Helvetica,sans-Serif" font-size="10.00">_configurer/connector</text>
<text text-anchor="middle" x="1324.5" y="-89.5" font-family="Helvetica,sans-Serif" font-size="10.00">/connector_resolver.h</text>
</a>
</g>
</g>
<!-- Node4&#45;&gt;Node14 -->
<g id="edge19_Node000004_Node000014" class="edge">
<title>Node4&#45;&gt;Node14</title>
<g id="a_edge19_Node000004_Node000014"><a xlink:title=" ">
<path fill="none" stroke="#63b8ff" d="M1216.12,-257.88C1260.35,-248.36 1308.04,-234.46 1321.5,-217 1342.1,-190.26 1336.38,-148.44 1330.4,-123.88"/>
<polygon fill="#63b8ff" stroke="#63b8ff" points="1215.24,-254.49 1206.16,-259.97 1216.67,-261.34 1215.24,-254.49"/>
</a>
</g>
</g>
<!-- Node15 -->
<g id="Node000015" class="node">
<title>Node15</title>
<g id="a_Node000015"><a xlink:href="i__configurable__connector_8cpp.html" target="_top" xlink:title=" ">
<polygon fill="white" stroke="#666666" points="1084,-206 923,-206 923,-176 1084,-176 1084,-206"/>
<text text-anchor="start" x="931" y="-194" font-family="Helvetica,sans-Serif" font-size="10.00">src/auto_configurer</text>
<text text-anchor="middle" x="1003.5" y="-183" font-family="Helvetica,sans-Serif" font-size="10.00">/i_configurable_connector.cpp</text>
</a>
</g>
</g>
<!-- Node4&#45;&gt;Node15 -->
<g id="edge20_Node000004_Node000015" class="edge">
<title>Node4&#45;&gt;Node15</title>
<g id="a_edge20_Node000004_Node000015"><a xlink:title=" ">
<path fill="none" stroke="#63b8ff" d="M1091.55,-247.37C1069.98,-233.81 1044.15,-217.56 1026.06,-206.19"/>
<polygon fill="#63b8ff" stroke="#63b8ff" points="1089.86,-250.45 1100.19,-252.81 1093.59,-244.52 1089.86,-250.45"/>
</a>
</g>
</g>
<!-- Node6 -->
<g id="Node000006" class="node">
<title>Node6</title>
<g id="a_Node000006"><a xlink:href="auto__configurer_8cpp.html" target="_top" xlink:title=" ">
<polygon fill="white" stroke="#666666" points="1144,-35.5 1029,-35.5 1029,-5.5 1144,-5.5 1144,-35.5"/>
<text text-anchor="start" x="1037" y="-23.5" font-family="Helvetica,sans-Serif" font-size="10.00">src/auto_configurer</text>
<text text-anchor="middle" x="1086.5" y="-12.5" font-family="Helvetica,sans-Serif" font-size="10.00">/auto_configurer.cpp</text>
</a>
</g>
</g>
<!-- Node5&#45;&gt;Node6 -->
<g id="edge5_Node000005_Node000006" class="edge">
<title>Node5&#45;&gt;Node6</title>
<g id="a_edge5_Node000005_Node000006"><a xlink:title=" ">
<path fill="none" stroke="#63b8ff" d="M1145.19,-80.55C1131.05,-66.33 1112.89,-48.06 1100.54,-35.63"/>
<polygon fill="#63b8ff" stroke="#63b8ff" points="1143.03,-83.35 1152.57,-87.98 1148,-78.42 1143.03,-83.35"/>
</a>
</g>
</g>
<!-- Node7&#45;&gt;Node6 -->
<g id="edge7_Node000007_Node000006" class="edge">
<title>Node7&#45;&gt;Node6</title>
<g id="a_edge7_Node000007_Node000006"><a xlink:title=" ">
<path fill="none" stroke="#63b8ff" d="M919.03,-79.11C959.77,-65.1 1010.6,-47.61 1045.51,-35.6"/>
<polygon fill="#63b8ff" stroke="#63b8ff" points="917.76,-75.85 909.44,-82.41 920.04,-82.47 917.76,-75.85"/>
</a>
</g>
</g>
<!-- Node8&#45;&gt;Node6 -->
<g id="edge12_Node000008_Node000006" class="edge">
<title>Node8&#45;&gt;Node6</title>
<g id="a_edge12_Node000008_Node000006"><a xlink:title=" ">
<path fill="none" stroke="#63b8ff" d="M1437.91,-160.13C1432.28,-134.12 1420.12,-97.45 1394.5,-77 1375.21,-61.6 1228.06,-40.09 1144.33,-28.91"/>
<polygon fill="#63b8ff" stroke="#63b8ff" points="1434.52,-161.07 1439.88,-170.21 1441.39,-159.72 1434.52,-161.07"/>
</a>
</g>
</g>
<!-- Node9 -->
<g id="Node000009" class="node">
<title>Node9</title>
<g id="a_Node000009"><a xlink:href="opencv__camera__mt__handler_8h.html" target="_top" xlink:title=" ">
<polygon fill="white" stroke="#666666" points="1575.5,-123.5 1441.5,-123.5 1441.5,-82.5 1575.5,-82.5 1575.5,-123.5"/>
<text text-anchor="start" x="1449.5" y="-111.5" font-family="Helvetica,sans-Serif" font-size="10.00">include/mosaic/auto</text>
<text text-anchor="start" x="1449.5" y="-100.5" font-family="Helvetica,sans-Serif" font-size="10.00">_configurer/impl/opencv</text>
<text text-anchor="middle" x="1508.5" y="-89.5" font-family="Helvetica,sans-Serif" font-size="10.00">_camera_mt_handler.h</text>
</a>
</g>
</g>
<!-- Node8&#45;&gt;Node9 -->
<g id="edge9_Node000008_Node000009" class="edge">
<title>Node8&#45;&gt;Node9</title>
<g id="a_edge9_Node000008_Node000009"><a xlink:title=" ">
<path fill="none" stroke="#63b8ff" d="M1463.57,-162.54C1473.26,-149.92 1484.52,-135.24 1493.35,-123.74"/>
<polygon fill="#63b8ff" stroke="#63b8ff" points="1460.79,-160.42 1457.48,-170.49 1466.34,-164.68 1460.79,-160.42"/>
</a>
</g>
</g>
<!-- Node10 -->
<g id="Node000010" class="node">
<title>Node10</title>
<g id="a_Node000010"><a xlink:href="connector__resolver_8cpp.html" target="_top" xlink:title=" ">
<polygon fill="white" stroke="#666666" points="1409.5,-35.5 1277.5,-35.5 1277.5,-5.5 1409.5,-5.5 1409.5,-35.5"/>
<text text-anchor="start" x="1285.5" y="-23.5" font-family="Helvetica,sans-Serif" font-size="10.00">src/auto_configurer</text>
<text text-anchor="middle" x="1343.5" y="-12.5" font-family="Helvetica,sans-Serif" font-size="10.00">/connector_resolver.cpp</text>
</a>
</g>
</g>
<!-- Node9&#45;&gt;Node10 -->
<g id="edge10_Node000009_Node000010" class="edge">
<title>Node9&#45;&gt;Node10</title>
<g id="a_edge10_Node000009_Node000010"><a xlink:title=" ">
<path fill="none" stroke="#63b8ff" d="M1458.81,-77.76C1430.55,-63.97 1396.16,-47.19 1372.33,-35.56"/>
<polygon fill="#63b8ff" stroke="#63b8ff" points="1457.61,-81.07 1468.14,-82.31 1460.68,-74.78 1457.61,-81.07"/>
</a>
</g>
</g>
<!-- Node11 -->
<g id="Node000011" class="node">
<title>Node11</title>
<g id="a_Node000011"><a xlink:href="opencv__camera__mt__handler_8cpp.html" target="_top" xlink:title=" ">
<polygon fill="white" stroke="#666666" points="1569.5,-41 1447.5,-41 1447.5,0 1569.5,0 1569.5,-41"/>
<text text-anchor="start" x="1455.5" y="-29" font-family="Helvetica,sans-Serif" font-size="10.00">src/auto_configurer</text>
<text text-anchor="start" x="1455.5" y="-18" font-family="Helvetica,sans-Serif" font-size="10.00">/impl/opencv_camera</text>
<text text-anchor="middle" x="1508.5" y="-7" font-family="Helvetica,sans-Serif" font-size="10.00">_mt_handler.cpp</text>
</a>
</g>
</g>
<!-- Node9&#45;&gt;Node11 -->
<g id="edge11_Node000009_Node000011" class="edge">
<title>Node9&#45;&gt;Node11</title>
<g id="a_edge11_Node000009_Node000011"><a xlink:title=" ">
<path fill="none" stroke="#63b8ff" d="M1508.5,-71.87C1508.5,-61.6 1508.5,-50.4 1508.5,-41.17"/>
<polygon fill="#63b8ff" stroke="#63b8ff" points="1505,-72.1 1508.5,-82.1 1512,-72.1 1505,-72.1"/>
</a>
</g>
</g>
<!-- Node12&#45;&gt;Node6 -->
<g id="edge14_Node000012_Node000006" class="edge">
<title>Node12&#45;&gt;Node6</title>
<g id="a_edge14_Node000012_Node000006"><a xlink:title=" ">
<path fill="none" stroke="#63b8ff" d="M1038.48,-69.82C1050.14,-58.08 1062.76,-45.39 1072.13,-35.96"/>
<polygon fill="#63b8ff" stroke="#63b8ff" points="1035.94,-67.41 1031.37,-76.97 1040.91,-72.34 1035.94,-67.41"/>
</a>
</g>
</g>
<!-- Node13&#45;&gt;Node14 -->
<g id="edge16_Node000013_Node000014" class="edge">
<title>Node13&#45;&gt;Node14</title>
<g id="a_edge16_Node000013_Node000014"><a xlink:title=" ">
<path fill="none" stroke="#63b8ff" d="M1275.75,-157.07C1286.09,-145.81 1297.33,-133.58 1306.4,-123.7"/>
<polygon fill="#63b8ff" stroke="#63b8ff" points="1272.96,-154.93 1268.78,-164.66 1278.12,-159.67 1272.96,-154.93"/>
</a>
</g>
</g>
<!-- Node14&#45;&gt;Node6 -->
<g id="edge17_Node000014_Node000006" class="edge">
<title>Node14&#45;&gt;Node6</title>
<g id="a_edge17_Node000014_Node000006"><a xlink:title=" ">
<path fill="none" stroke="#63b8ff" d="M1260.83,-79.19C1258.7,-78.45 1256.58,-77.72 1254.5,-77 1212.38,-62.52 1164.08,-46.64 1130.11,-35.59"/>
<polygon fill="#63b8ff" stroke="#63b8ff" points="1259.68,-82.49 1270.28,-82.49 1261.99,-75.89 1259.68,-82.49"/>
</a>
</g>
</g>
<!-- Node14&#45;&gt;Node10 -->
<g id="edge18_Node000014_Node000010" class="edge">
<title>Node14&#45;&gt;Node10</title>
<g id="a_edge18_Node000014_Node000010"><a xlink:title=" ">
<path fill="none" stroke="#63b8ff" d="M1331.55,-72.13C1334.48,-59.73 1337.73,-45.93 1340.11,-35.87"/>
<polygon fill="#63b8ff" stroke="#63b8ff" points="1328.09,-71.56 1329.2,-82.1 1334.9,-73.17 1328.09,-71.56"/>
</a>
</g>
</g>
<!-- Node16&#45;&gt;Node6 -->
<g id="edge22_Node000016_Node000006" class="edge">
<title>Node16&#45;&gt;Node6</title>
<g id="a_edge22_Node000016_Node000006"><a xlink:title=" ">
<path fill="none" stroke="#63b8ff" d="M260.83,-252.59C275.49,-242.17 293.59,-229.08 309.5,-217 338.96,-194.62 341.13,-180.98 374.5,-165 599.96,-57.01 903.22,-30.22 1028.57,-23.63"/>
<polygon fill="#63b8ff" stroke="#63b8ff" points="258.78,-249.76 252.64,-258.4 262.83,-255.47 258.78,-249.76"/>
</a>
</g>
</g>
<!-- Node17 -->
<g id="Node000017" class="node">
<title>Node17</title>
<g id="a_Node000017"><a xlink:href="mosaic__connector__factory_8cpp.html" target="_top" xlink:title=" ">
<polygon fill="white" stroke="#666666" points="300.5,-206 154.5,-206 154.5,-176 300.5,-176 300.5,-206"/>
<text text-anchor="start" x="162.5" y="-194" font-family="Helvetica,sans-Serif" font-size="10.00">src/core/mosaic_connector</text>
<text text-anchor="middle" x="227.5" y="-183" font-family="Helvetica,sans-Serif" font-size="10.00">_factory.cpp</text>
</a>
</g>
</g>
<!-- Node16&#45;&gt;Node17 -->
<g id="edge23_Node000016_Node000017" class="edge">
<title>Node16&#45;&gt;Node17</title>
<g id="a_edge23_Node000016_Node000017"><a xlink:title=" ">
<path fill="none" stroke="#63b8ff" d="M230.99,-248.24C230.14,-234.48 229.1,-217.75 228.38,-206.13"/>
<polygon fill="#63b8ff" stroke="#63b8ff" points="227.52,-248.71 231.63,-258.48 234.5,-248.28 227.52,-248.71"/>
</a>
</g>
</g>
<!-- Node18&#45;&gt;Node3 -->
<g id="edge25_Node000018_Node000003" class="edge">
<title>Node18&#45;&gt;Node3</title>
<g id="a_edge25_Node000018_Node000003"><a xlink:title=" ">
<path fill="none" stroke="#63b8ff" d="M530.87,-292.37C559.09,-304.05 593.81,-319.1 617.47,-329.94"/>
<polygon fill="#63b8ff" stroke="#63b8ff" points="532.16,-289.11 521.58,-288.54 529.5,-295.58 532.16,-289.11"/>
</a>
</g>
</g>
<!-- Node18&#45;&gt;Node19 -->
<g id="edge26_Node000018_Node000019" class="edge">
<title>Node18&#45;&gt;Node19</title>
<g id="a_edge26_Node000018_Node000019"><a xlink:title=" ">
<path fill="none" stroke="#63b8ff" d="M474.47,-249.05C469.12,-235.15 462.51,-217.98 457.94,-206.13"/>
<polygon fill="#63b8ff" stroke="#63b8ff" points="471.24,-250.4 478.1,-258.48 477.77,-247.89 471.24,-250.4"/>
</a>
</g>
</g>
<!-- Node20&#45;&gt;Node19 -->
<g id="edge29_Node000020_Node000019" class="edge">
<title>Node20&#45;&gt;Node19</title>
<g id="a_edge29_Node000020_Node000019"><a xlink:title=" ">
<path fill="none" stroke="#63b8ff" d="M612.97,-254.71C575.55,-240.09 523.26,-219.65 488.66,-206.13"/>
<polygon fill="#63b8ff" stroke="#63b8ff" points="612.03,-258.1 622.62,-258.48 614.58,-251.58 612.03,-258.1"/>
</a>
</g>
</g>
<!-- Node20&#45;&gt;Node21 -->
<g id="edge28_Node000020_Node000021" class="edge">
<title>Node20&#45;&gt;Node21</title>
<g id="a_edge28_Node000020_Node000021"><a xlink:title=" ">
<path fill="none" stroke="#63b8ff" d="M649.5,-249.12C643.28,-232.98 635.36,-212.42 630.92,-200.88"/>
<polygon fill="#63b8ff" stroke="#63b8ff" points="646.24,-250.4 653.1,-258.48 652.77,-247.89 646.24,-250.4"/>
</a>
</g>
</g>
<!-- Node20&#45;&gt;Node22 -->
<g id="edge30_Node000020_Node000022" class="edge">
<title>Node20&#45;&gt;Node22</title>
<g id="a_edge30_Node000020_Node000022"><a xlink:title=" ">
<path fill="none" stroke="#63b8ff" d="M691.51,-253.38C716.56,-238.87 750.45,-219.25 773.1,-206.13"/>
<polygon fill="#63b8ff" stroke="#63b8ff" points="689.61,-250.44 682.71,-258.48 693.12,-256.5 689.61,-250.44"/>
</a>
</g>
</g>
<!-- Node23&#45;&gt;Node17 -->
<g id="edge32_Node000023_Node000017" class="edge">
<title>Node23&#45;&gt;Node17</title>
<g id="a_edge32_Node000023_Node000017"><a xlink:title=" ">
<path fill="none" stroke="#63b8ff" d="M105.13,-253.95C133.89,-239.39 173.34,-219.42 199.59,-206.13"/>
<polygon fill="#63b8ff" stroke="#63b8ff" points="103.54,-250.84 96.2,-258.48 106.7,-257.08 103.54,-250.84"/>
</a>
</g>
</g>
<!-- Node24 -->
<g id="Node000024" class="node">
<title>Node24</title>
<g id="a_Node000024"><a xlink:href="signaling__client_8cpp.html" target="_top" xlink:title=" ">
<polygon fill="white" stroke="#666666" points="131,-206 6,-206 6,-176 131,-176 131,-206"/>
<text text-anchor="start" x="14" y="-194" font-family="Helvetica,sans-Serif" font-size="10.00">src/signaling/signaling</text>
<text text-anchor="middle" x="68.5" y="-183" font-family="Helvetica,sans-Serif" font-size="10.00">_client.cpp</text>
</a>
</g>
</g>
<!-- Node23&#45;&gt;Node24 -->
<g id="edge33_Node000023_Node000024" class="edge">
<title>Node23&#45;&gt;Node24</title>
<g id="a_edge33_Node000023_Node000024"><a xlink:title=" ">
<path fill="none" stroke="#63b8ff" d="M68.5,-248.24C68.5,-234.48 68.5,-217.75 68.5,-206.13"/>
<polygon fill="#63b8ff" stroke="#63b8ff" points="65,-248.48 68.5,-258.48 72,-248.48 65,-248.48"/>
</a>
</g>
</g>
</g>
</svg>

<g id="navigator" transform="translate(0 0)" fill="#404254">
  <rect fill="#f2f5e9" fill-opacity="0.5" stroke="#606060" stroke-width=".5" x="0" y="0" width="60" height="60"/>
  <use id="zoomplus" xlink:href="#zoomPlus" x="17" y="9" onmousedown="handleZoom(evt,'in')"/>
  <use id="zoomminus" xlink:href="#zoomMin" x="42" y="9" onmousedown="handleZoom(evt,'out')"/>
  <use id="reset" xlink:href="#resetDef" x="30" y="36" onmousedown="handleReset()"/>
   <use id="arrowup" xlink:href="#arrowUp" x="0" y="0" onmousedown="handlePan(0,-1)"/>
  <use id="arrowright" xlink:href="#arrowRight" x="0" y="0" onmousedown="handlePan(1,0)"/>
  <use id="arrowdown" xlink:href="#arrowDown" x="0" y="0" onmousedown="handlePan(0,1)"/>
  <use id="arrowleft" xlink:href="#arrowLeft" x="0" y="0" onmousedown="handlePan(-1,0)"/>
</g>
<svg viewBox="0 0 15 15" width="100%" height="30px" preserveAspectRatio="xMaxYMin meet">
 <g id="arrow_out" transform="scale(0.3 0.3)">
  <a xlink:href="i__signaling__client_8h__dep__incl_org.svg" target="_base">
   <rect id="button" ry="5" rx="5" y="6" x="6" height="38" width="38"
        fill="#f2f5e9" fill-opacity="0.5" stroke="#606060" stroke-width="1.0"/>
   <path id="arrow"
     d="M 11.500037,31.436501 C 11.940474,20.09759 22.043105,11.32322 32.158766,21.979434 L 37.068811,17.246167 C 37.068811,17.246167 37.088388,32 37.088388,32 L 22.160133,31.978069 C 22.160133,31.978069 26.997745,27.140456 26.997745,27.140456 C 18.528582,18.264221 13.291696,25.230495 11.500037,31.436501 z"
     style="fill:#404040;"/>
  </a>
 </g>
</svg>

<style type='text/css'>
<![CDATA[
[data-mouse-over-selected='false'] { opacity: 0.7; }
[data-mouse-over-selected='true']  { opacity: 1.0; }
]]>
</style>
<script type="application/ecmascript"><![CDATA[
document.addEventListener('DOMContentLoaded', (event) => {
  highlightEdges();
  highlightAdjacentNodes();
});
]]></script>
</svg>
