<?xml version="1.0" encoding="UTF-8" standalone="no"?>
<!DOCTYPE svg PUBLIC "-//W3C//DTD SVG 1.1//EN"
 "http://www.w3.org/Graphics/SVG/1.1/DTD/svg11.dtd">
<!-- Generated by graphviz version 2.43.0 (0)
 -->
<!-- Title: include/mosaic/signaling/i_signaling_client.h Pages: 1 -->
<svg width="514pt" height="225pt"
 viewBox="0.00 0.00 513.50 225.00" xmlns="http://www.w3.org/2000/svg" xmlns:xlink="http://www.w3.org/1999/xlink">
<g id="graph0" class="graph" transform="scale(1 1) rotate(0) translate(4 221)">
<title>include/mosaic/signaling/i_signaling_client.h</title>
<!-- Node1 -->
<g id="Node000001" class="node">
<title>Node1</title>
<g id="a_Node000001"><a xlink:title=" ">
<polygon fill="#999999" stroke="#666666" points="192.5,-217 55.5,-217 55.5,-187 192.5,-187 192.5,-217"/>
<text text-anchor="start" x="63.5" y="-205" font-family="Helvetica,sans-Serif" font-size="10.00">include/mosaic/signaling</text>
<text text-anchor="middle" x="124" y="-194" font-family="Helvetica,sans-Serif" font-size="10.00">/i_signaling_client.h</text>
</a>
</g>
</g>
<!-- Node2 -->
<g id="Node000002" class="node">
<title>Node2</title>
<g id="a_Node000002"><a xlink:title=" ">
<polygon fill="#e0e0e0" stroke="#999999" points="118,-85 0,-85 0,-55 118,-55 118,-85"/>
<text text-anchor="start" x="8" y="-73" font-family="Helvetica,sans-Serif" font-size="10.00">mosaic/json_forward</text>
<text text-anchor="middle" x="59" y="-62" font-family="Helvetica,sans-Serif" font-size="10.00">_decl.h</text>
</a>
</g>
</g>
<!-- Node1&#45;&gt;Node2 -->
<g id="edge1_Node000001_Node000002" class="edge">
<title>Node1&#45;&gt;Node2</title>
<g id="a_edge1_Node000001_Node000002"><a xlink:title=" ">
<path fill="none" stroke="#63b8ff" d="M84.03,-186.79C67.98,-178.89 51.14,-167.28 42,-151 32.18,-133.51 38.37,-110.96 45.9,-94.26"/>
<polygon fill="#63b8ff" stroke="#63b8ff" points="49.09,-95.71 50.37,-85.19 42.81,-92.61 49.09,-95.71"/>
</a>
</g>
</g>
<!-- Node3 -->
<g id="Node000003" class="node">
<title>Node3</title>
<g id="a_Node000003"><a xlink:title=" ">
<polygon fill="#e0e0e0" stroke="#999999" points="197,-151 51,-151 51,-121 197,-121 197,-151"/>
<text text-anchor="start" x="59" y="-139" font-family="Helvetica,sans-Serif" font-size="10.00">mosaic/rtc/webrtc_forward</text>
<text text-anchor="middle" x="124" y="-128" font-family="Helvetica,sans-Serif" font-size="10.00">_decl.h</text>
</a>
</g>
</g>
<!-- Node1&#45;&gt;Node3 -->
<g id="edge2_Node000001_Node000003" class="edge">
<title>Node1&#45;&gt;Node3</title>
<g id="a_edge2_Node000001_Node000003"><a xlink:title=" ">
<path fill="none" stroke="#63b8ff" d="M124,-186.8C124,-179.34 124,-169.99 124,-161.41"/>
<polygon fill="#63b8ff" stroke="#63b8ff" points="127.5,-161.16 124,-151.16 120.5,-161.16 127.5,-161.16"/>
</a>
</g>
</g>
<!-- Node4 -->
<g id="Node000004" class="node">
<title>Node4</title>
<g id="a_Node000004"><a xlink:href="i__mosaic__authenticator_8h.html" target="_top" xlink:title=" ">
<polygon fill="white" stroke="#666666" points="355,-151 215,-151 215,-121 355,-121 355,-151"/>
<text text-anchor="start" x="223" y="-139" font-family="Helvetica,sans-Serif" font-size="10.00">mosaic/security/i_mosaic</text>
<text text-anchor="middle" x="285" y="-128" font-family="Helvetica,sans-Serif" font-size="10.00">_authenticator.h</text>
</a>
</g>
</g>
<!-- Node1&#45;&gt;Node4 -->
<g id="edge3_Node000001_Node000004" class="edge">
<title>Node1&#45;&gt;Node4</title>
<g id="a_edge3_Node000001_Node000004"><a xlink:title=" ">
<path fill="none" stroke="#63b8ff" d="M159.33,-186.95C183.13,-177.49 214.73,-164.93 240.28,-154.78"/>
<polygon fill="#63b8ff" stroke="#63b8ff" points="241.75,-157.96 249.75,-151.01 239.16,-151.45 241.75,-157.96"/>
</a>
</g>
</g>
<!-- Node4&#45;&gt;Node2 -->
<g id="edge11_Node000004_Node000002" class="edge">
<title>Node4&#45;&gt;Node2</title>
<g id="a_edge11_Node000004_Node000002"><a xlink:title=" ">
<path fill="none" stroke="#63b8ff" d="M235.4,-120.95C200.96,-111.2 154.9,-98.16 118.48,-87.84"/>
<polygon fill="#63b8ff" stroke="#63b8ff" points="119.06,-84.37 108.48,-85.01 117.15,-91.1 119.06,-84.37"/>
</a>
</g>
</g>
<!-- Node5 -->
<g id="Node000005" class="node">
<title>Node5</title>
<g id="a_Node000005"><a xlink:title=" ">
<polygon fill="#e0e0e0" stroke="#999999" points="230,-79.5 172,-79.5 172,-60.5 230,-60.5 230,-79.5"/>
<text text-anchor="middle" x="201" y="-67.5" font-family="Helvetica,sans-Serif" font-size="10.00">memory</text>
</a>
</g>
</g>
<!-- Node4&#45;&gt;Node5 -->
<g id="edge4_Node000004_Node000005" class="edge">
<title>Node4&#45;&gt;Node5</title>
<g id="a_edge4_Node000004_Node000005"><a xlink:title=" ">
<path fill="none" stroke="#63b8ff" d="M266.36,-120.8C252.88,-110.53 234.69,-96.67 220.92,-86.18"/>
<polygon fill="#63b8ff" stroke="#63b8ff" points="222.68,-83.12 212.61,-79.84 218.44,-88.69 222.68,-83.12"/>
</a>
</g>
</g>
<!-- Node6 -->
<g id="Node000006" class="node">
<title>Node6</title>
<g id="a_Node000006"><a xlink:href="auth__type_8h.html" target="_top" xlink:title=" ">
<polygon fill="white" stroke="#666666" points="322,-79.5 248,-79.5 248,-60.5 322,-60.5 322,-79.5"/>
<text text-anchor="middle" x="285" y="-67.5" font-family="Helvetica,sans-Serif" font-size="10.00">auth_type.h</text>
</a>
</g>
</g>
<!-- Node4&#45;&gt;Node6 -->
<g id="edge5_Node000004_Node000006" class="edge">
<title>Node4&#45;&gt;Node6</title>
<g id="a_edge5_Node000004_Node000006"><a xlink:title=" ">
<path fill="none" stroke="#63b8ff" d="M285,-120.8C285,-111.7 285,-99.79 285,-89.9"/>
<polygon fill="#63b8ff" stroke="#63b8ff" points="288.5,-89.84 285,-79.84 281.5,-89.84 288.5,-89.84"/>
</a>
</g>
</g>
<!-- Node8 -->
<g id="Node000008" class="node">
<title>Node8</title>
<g id="a_Node000008"><a xlink:href="configs__decl_8h.html" target="_top" xlink:title=" ">
<polygon fill="white" stroke="#666666" points="464,-79.5 340,-79.5 340,-60.5 464,-60.5 464,-79.5"/>
<text text-anchor="middle" x="402" y="-67.5" font-family="Helvetica,sans-Serif" font-size="10.00">mosaic/configs_decl.h</text>
</a>
</g>
</g>
<!-- Node4&#45;&gt;Node8 -->
<g id="edge7_Node000004_Node000008" class="edge">
<title>Node4&#45;&gt;Node8</title>
<g id="a_edge7_Node000004_Node000008"><a xlink:title=" ">
<path fill="none" stroke="#63b8ff" d="M310.68,-120.95C330.56,-110.08 357.93,-95.11 377.51,-84.4"/>
<polygon fill="#63b8ff" stroke="#63b8ff" points="379.34,-87.39 386.43,-79.52 375.98,-81.25 379.34,-87.39"/>
</a>
</g>
</g>
<!-- Node7 -->
<g id="Node000007" class="node">
<title>Node7</title>
<g id="a_Node000007"><a xlink:title=" ">
<polygon fill="#e0e0e0" stroke="#999999" points="322,-19 278,-19 278,0 322,0 322,-19"/>
<text text-anchor="middle" x="300" y="-7" font-family="Helvetica,sans-Serif" font-size="10.00">string</text>
</a>
</g>
</g>
<!-- Node6&#45;&gt;Node7 -->
<g id="edge6_Node000006_Node000007" class="edge">
<title>Node6&#45;&gt;Node7</title>
<g id="a_edge6_Node000006_Node000007"><a xlink:title=" ">
<path fill="none" stroke="#63b8ff" d="M287.21,-60.37C289.32,-52.16 292.55,-39.54 295.24,-29.05"/>
<polygon fill="#63b8ff" stroke="#63b8ff" points="298.68,-29.72 297.78,-19.17 291.9,-27.98 298.68,-29.72"/>
</a>
</g>
</g>
<!-- Node8&#45;&gt;Node7 -->
<g id="edge8_Node000008_Node000007" class="edge">
<title>Node8&#45;&gt;Node7</title>
<g id="a_edge8_Node000008_Node000007"><a xlink:title=" ">
<path fill="none" stroke="#63b8ff" d="M386.95,-60.37C370.38,-50.86 343.5,-35.45 324.01,-24.27"/>
<polygon fill="#63b8ff" stroke="#63b8ff" points="325.53,-21.11 315.11,-19.17 322.05,-27.18 325.53,-21.11"/>
</a>
</g>
</g>
<!-- Node9 -->
<g id="Node000009" class="node">
<title>Node9</title>
<g id="a_Node000009"><a xlink:title=" ">
<polygon fill="#e0e0e0" stroke="#999999" points="440.5,-19 347.5,-19 347.5,0 440.5,0 440.5,-19"/>
<text text-anchor="middle" x="394" y="-7" font-family="Helvetica,sans-Serif" font-size="10.00">unordered_map</text>
</a>
</g>
</g>
<!-- Node8&#45;&gt;Node9 -->
<g id="edge9_Node000008_Node000009" class="edge">
<title>Node8&#45;&gt;Node9</title>
<g id="a_edge9_Node000008_Node000009"><a xlink:title=" ">
<path fill="none" stroke="#63b8ff" d="M400.82,-60.37C399.71,-52.25 398.01,-39.81 396.58,-29.39"/>
<polygon fill="#63b8ff" stroke="#63b8ff" points="400.01,-28.6 395.19,-19.17 393.07,-29.55 400.01,-28.6"/>
</a>
</g>
</g>
<!-- Node10 -->
<g id="Node000010" class="node">
<title>Node10</title>
<g id="a_Node000010"><a xlink:title=" ">
<polygon fill="#e0e0e0" stroke="#999999" points="505.5,-19 458.5,-19 458.5,0 505.5,0 505.5,-19"/>
<text text-anchor="middle" x="482" y="-7" font-family="Helvetica,sans-Serif" font-size="10.00">vector</text>
</a>
</g>
</g>
<!-- Node8&#45;&gt;Node10 -->
<g id="edge10_Node000008_Node000010" class="edge">
<title>Node8&#45;&gt;Node10</title>
<g id="a_edge10_Node000008_Node000010"><a xlink:title=" ">
<path fill="none" stroke="#63b8ff" d="M413.8,-60.37C426.45,-51.12 446.74,-36.28 461.91,-25.19"/>
<polygon fill="#63b8ff" stroke="#63b8ff" points="464.14,-27.9 470.15,-19.17 460.01,-22.24 464.14,-27.9"/>
</a>
</g>
</g>
</g>
</svg>
