<?xml version="1.0" encoding="UTF-8" standalone="no"?>
<!DOCTYPE svg PUBLIC "-//W3C//DTD SVG 1.1//EN"
 "http://www.w3.org/Graphics/SVG/1.1/DTD/svg11.dtd">
<!-- Generated by graphviz version 2.43.0 (0)
 -->
<!-- Title: include/mosaic/signaling/i_signaling_client.h Pages: 1 -->
<!--zoomable 489 -->

<svg id="main" version="1.1" xmlns="http://www.w3.org/2000/svg" xmlns:xlink="http://www.w3.org/1999/xlink" xml:space="preserve" onload="init(evt)">
<style type="text/css"><![CDATA[
.node, .edge {opacity: 0.7;}
.node.selected, .edge.selected {opacity: 1;}
.edge:hover path { stroke: red; }
.edge:hover polygon { stroke: red; fill: red; }
]]></style>

<defs>
  <circle id="rim" cx="0" cy="0" r="7"/>
  <circle id="rim2" cx="0" cy="0" r="3.5"/>
  <g id="zoomPlus">
    <use xlink:href="#rim" fill="#404040"><set attributeName="fill" to="#808080" begin="zoomplus.mouseover" end="zoomplus.mouseout"/></use>
    <path d="M-4,0h8M0,-4v8" fill="none" stroke="white" stroke-width="1.5" pointer-events="none"/>
  </g>
  <g id="zoomMin">
    <use xlink:href="#rim" fill="#404040"><set attributeName="fill" to="#808080" begin="zoomminus.mouseover" end="zoomminus.mouseout"/></use>
    <path d="M-4,0h8" fill="none" stroke="white" stroke-width="1.5" pointer-events="none"/>
  </g>
  <g id="arrowUp" transform="translate(30 24)">
    <use xlink:href="#rim"/>
    <path pointer-events="none" fill="none" stroke="white" stroke-width="1.5" d="M0,-3.0v7 M-2.5,-0.5L0,-3.0L2.5,-0.5"/>
  </g>
  <g id="arrowRight" transform="rotate(90) translate(36 -43)">
    <use xlink:href="#rim"/>
    <path pointer-events="none" fill="none" stroke="white" stroke-width="1.5" d="M0,-3.0v7 M-2.5,-0.5L0,-3.0L2.5,-0.5"/>
  </g>
  <g id="arrowDown" transform="rotate(180) translate(-30 -48)">
    <use xlink:href="#rim"/>
    <path pointer-events="none" fill="none" stroke="white" stroke-width="1.5" d="M0,-3.0v7 M-2.5,-0.5L0,-3.0L2.5,-0.5"/>
  </g>
  <g id="arrowLeft" transform="rotate(270) translate(-36 17)">
    <use xlink:href="#rim"/>
    <path pointer-events="none" fill="none" stroke="white" stroke-width="1.5" d="M0,-3.0v7 M-2.5,-0.5L0,-3.0L2.5,-0.5"/>
  </g>
  <g id="resetDef">
    <use xlink:href="#rim2" fill="#404040"><set attributeName="fill" to="#808080" begin="reset.mouseover" end="reset.mouseout"/></use>
  </g>
</defs>
<script type="application/ecmascript">
var viewWidth = 1453;
var viewHeight = 489;
var sectionId = 'dynsection-1';
</script>
<script type="application/ecmascript" xlink:href="svg.min.js"/>
<svg id="graph" class="graph">
<g id="viewport">
<title>include/mosaic/signaling/i_signaling_client.h</title>
<!-- Node1 -->
<g id="Node000001" class="node">
<title>Node1</title>
<g id="a_Node000001"><a xlink:title=" ">
<polygon fill="#999999" stroke="#666666" points="536,-481 399,-481 399,-451 536,-451 536,-481"/>
<text text-anchor="start" x="407" y="-469" font-family="Helvetica,sans-Serif" font-size="10.00">include/mosaic/signaling</text>
<text text-anchor="middle" x="467.5" y="-458" font-family="Helvetica,sans-Serif" font-size="10.00">/i_signaling_client.h</text>
</a>
</g>
</g>
<!-- Node2 -->
<g id="Node000002" class="node">
<title>Node2</title>
<g id="a_Node000002"><a xlink:href="connector__state__manager_8h.html" target="_top" xlink:title=" ">
<polygon fill="white" stroke="#666666" points="598,-415 443,-415 443,-385 598,-385 598,-415"/>
<text text-anchor="start" x="451" y="-403" font-family="Helvetica,sans-Serif" font-size="10.00">include/mosaic/core</text>
<text text-anchor="middle" x="520.5" y="-392" font-family="Helvetica,sans-Serif" font-size="10.00">/connector_state_manager.h</text>
</a>
</g>
</g>
<!-- Node1&#45;&gt;Node2 -->
<g id="edge1_Node000001_Node000002" class="edge">
<title>Node1&#45;&gt;Node2</title>
<g id="a_edge1_Node000001_Node000002"><a xlink:title=" ">
<path fill="none" stroke="#63b8ff" d="M485.65,-443.09C493.3,-433.85 501.98,-423.36 508.77,-415.16"/>
<polygon fill="#63b8ff" stroke="#63b8ff" points="482.94,-440.86 479.26,-450.8 488.34,-445.33 482.94,-440.86"/>
</a>
</g>
</g>
<!-- Node16 -->
<g id="Node000016" class="node">
<title>Node16</title>
<g id="a_Node000016"><a xlink:href="peer__connection__manager_8h.html" target="_top" xlink:title=" ">
<polygon fill="white" stroke="#666666" points="562,-277.5 405,-277.5 405,-247.5 562,-247.5 562,-277.5"/>
<text text-anchor="start" x="413" y="-265.5" font-family="Helvetica,sans-Serif" font-size="10.00">include/mosaic/core</text>
<text text-anchor="middle" x="483.5" y="-254.5" font-family="Helvetica,sans-Serif" font-size="10.00">/peer_connection_manager.h</text>
</a>
</g>
</g>
<!-- Node1&#45;&gt;Node16 -->
<g id="edge35_Node000001_Node000016" class="edge">
<title>Node1&#45;&gt;Node16</title>
<g id="a_edge35_Node000001_Node000016"><a xlink:title=" ">
<path fill="none" stroke="#63b8ff" d="M448.35,-442.97C442.39,-434.75 436.57,-424.98 433.5,-415 429.58,-402.26 432.4,-398.29 433.5,-385 435.95,-355.36 433.23,-346.52 444.5,-319 450.84,-303.53 462.15,-288.14 470.96,-277.51"/>
<polygon fill="#63b8ff" stroke="#63b8ff" points="445.62,-445.16 454.51,-450.92 451.15,-440.87 445.62,-445.16"/>
</a>
</g>
</g>
<!-- Node17 -->
<g id="Node000017" class="node">
<title>Node17</title>
<g id="a_Node000017"><a xlink:href="peer__connection__manager_8cpp.html" target="_top" xlink:title=" ">
<polygon fill="white" stroke="#666666" points="521.5,-195 383.5,-195 383.5,-165 521.5,-165 521.5,-195"/>
<text text-anchor="start" x="391.5" y="-183" font-family="Helvetica,sans-Serif" font-size="10.00">src/core/peer_connection</text>
<text text-anchor="middle" x="452.5" y="-172" font-family="Helvetica,sans-Serif" font-size="10.00">_manager.cpp</text>
</a>
</g>
</g>
<!-- Node1&#45;&gt;Node17 -->
<g id="edge37_Node000001_Node000017" class="edge">
<title>Node1&#45;&gt;Node17</title>
<g id="a_edge37_Node000001_Node000017"><a xlink:title=" ">
<path fill="none" stroke="#63b8ff" d="M446.91,-443.01C439.99,-434.72 432.7,-424.89 427.5,-415 398.95,-360.75 396.49,-343.64 387.5,-283 384.83,-264.97 380.26,-258.72 387.5,-242 396.05,-222.26 414.47,-205.97 429.53,-195.21"/>
<polygon fill="#63b8ff" stroke="#63b8ff" points="444.43,-445.49 453.63,-450.74 449.71,-440.89 444.43,-445.49"/>
</a>
</g>
</g>
<!-- Node21 -->
<g id="Node000021" class="node">
<title>Node21</title>
<g id="a_Node000021"><a xlink:href="signaling__client_8h.html" target="_top" xlink:title=" ">
<polygon fill="white" stroke="#666666" points="137,-277.5 0,-277.5 0,-247.5 137,-247.5 137,-277.5"/>
<text text-anchor="start" x="8" y="-265.5" font-family="Helvetica,sans-Serif" font-size="10.00">include/mosaic/signaling</text>
<text text-anchor="middle" x="68.5" y="-254.5" font-family="Helvetica,sans-Serif" font-size="10.00">/signaling_client.h</text>
</a>
</g>
</g>
<!-- Node1&#45;&gt;Node21 -->
<g id="edge36_Node000001_Node000021" class="edge">
<title>Node1&#45;&gt;Node21</title>
<g id="a_edge36_Node000001_Node000021"><a xlink:title=" ">
<path fill="none" stroke="#63b8ff" d="M410.34,-447.89C383.75,-439.21 352,-427.79 324.5,-415 232.72,-372.31 131.42,-306.18 88.97,-277.53"/>
<polygon fill="#63b8ff" stroke="#63b8ff" points="409.29,-451.23 419.88,-450.96 411.43,-444.57 409.29,-451.23"/>
</a>
</g>
</g>
<!-- Node24 -->
<g id="Node000024" class="node">
<title>Node24</title>
<g id="a_Node000024"><a xlink:href="no__auth__authenticator_8cpp.html" target="_top" xlink:title=" ">
<polygon fill="white" stroke="#666666" points="750.5,-415 616.5,-415 616.5,-385 750.5,-385 750.5,-415"/>
<text text-anchor="start" x="624.5" y="-403" font-family="Helvetica,sans-Serif" font-size="10.00">src/security/impl/no</text>
<text text-anchor="middle" x="683.5" y="-392" font-family="Helvetica,sans-Serif" font-size="10.00">_auth_authenticator.cpp</text>
</a>
</g>
</g>
<!-- Node1&#45;&gt;Node24 -->
<g id="edge38_Node000001_Node000024" class="edge">
<title>Node1&#45;&gt;Node24</title>
<g id="a_edge38_Node000001_Node000024"><a xlink:title=" ">
<path fill="none" stroke="#63b8ff" d="M524.91,-447.99C559.67,-437.69 603.45,-424.72 636.21,-415.01"/>
<polygon fill="#63b8ff" stroke="#63b8ff" points="523.5,-444.76 514.9,-450.95 525.48,-451.47 523.5,-444.76"/>
</a>
</g>
</g>
<!-- Node25 -->
<g id="Node000025" class="node">
<title>Node25</title>
<g id="a_Node000025"><a xlink:href="simple__token__authenticator_8cpp.html" target="_top" xlink:title=" ">
<polygon fill="white" stroke="#666666" points="908,-415 769,-415 769,-385 908,-385 908,-415"/>
<text text-anchor="start" x="777" y="-403" font-family="Helvetica,sans-Serif" font-size="10.00">src/security/impl/simple</text>
<text text-anchor="middle" x="838.5" y="-392" font-family="Helvetica,sans-Serif" font-size="10.00">_token_authenticator.cpp</text>
</a>
</g>
</g>
<!-- Node1&#45;&gt;Node25 -->
<g id="edge39_Node000001_Node000025" class="edge">
<title>Node1&#45;&gt;Node25</title>
<g id="a_edge39_Node000001_Node000025"><a xlink:title=" ">
<path fill="none" stroke="#63b8ff" d="M546.21,-451.65C604.99,-441.65 687.29,-427.58 759.5,-415 762.52,-414.47 765.6,-413.94 768.72,-413.39"/>
<polygon fill="#63b8ff" stroke="#63b8ff" points="545.52,-448.22 536.25,-453.34 546.7,-455.12 545.52,-448.22"/>
</a>
</g>
</g>
<!-- Node3 -->
<g id="Node000003" class="node">
<title>Node3</title>
<g id="a_Node000003"><a xlink:href="mosaic__connector_8h.html" target="_top" xlink:title=" ">
<polygon fill="white" stroke="#666666" points="702.5,-349 586.5,-349 586.5,-319 702.5,-319 702.5,-349"/>
<text text-anchor="start" x="594.5" y="-337" font-family="Helvetica,sans-Serif" font-size="10.00">include/mosaic/core</text>
<text text-anchor="middle" x="644.5" y="-326" font-family="Helvetica,sans-Serif" font-size="10.00">/mosaic_connector.h</text>
</a>
</g>
</g>
<!-- Node2&#45;&gt;Node3 -->
<g id="edge2_Node000002_Node000003" class="edge">
<title>Node2&#45;&gt;Node3</title>
<g id="a_edge2_Node000002_Node000003"><a xlink:title=" ">
<path fill="none" stroke="#63b8ff" d="M556.84,-380.24C576.2,-370.25 599.6,-358.18 617.35,-349.01"/>
<polygon fill="#63b8ff" stroke="#63b8ff" points="554.99,-377.26 547.71,-384.95 558.2,-383.48 554.99,-377.26"/>
</a>
</g>
</g>
<!-- Node2&#45;&gt;Node17 -->
<g id="edge34_Node000002_Node000017" class="edge">
<title>Node2&#45;&gt;Node17</title>
<g id="a_edge34_Node000002_Node000017"><a xlink:title=" ">
<path fill="none" stroke="#63b8ff" d="M484.32,-379.49C452.79,-359.98 409.92,-326.62 395.5,-283 389.78,-265.7 388.81,-258.95 395.5,-242 403.05,-222.85 419.76,-206.18 433.15,-195.13"/>
<polygon fill="#63b8ff" stroke="#63b8ff" points="482.91,-382.73 493.29,-384.86 486.51,-376.72 482.91,-382.73"/>
</a>
</g>
</g>
<!-- Node23 -->
<g id="Node000023" class="node">
<title>Node23</title>
<g id="a_Node000023"><a xlink:href="connector__state__manager_8cpp.html" target="_top" xlink:title=" ">
<polygon fill="white" stroke="#666666" points="568,-349 453,-349 453,-319 568,-319 568,-349"/>
<text text-anchor="start" x="461" y="-337" font-family="Helvetica,sans-Serif" font-size="10.00">src/core/connector</text>
<text text-anchor="middle" x="510.5" y="-326" font-family="Helvetica,sans-Serif" font-size="10.00">_state_manager.cpp</text>
</a>
</g>
</g>
<!-- Node2&#45;&gt;Node23 -->
<g id="edge33_Node000002_Node000023" class="edge">
<title>Node2&#45;&gt;Node23</title>
<g id="a_edge33_Node000002_Node000023"><a xlink:title=" ">
<path fill="none" stroke="#63b8ff" d="M516.72,-374.83C515.37,-366.17 513.89,-356.7 512.71,-349.16"/>
<polygon fill="#63b8ff" stroke="#63b8ff" points="513.28,-375.46 518.28,-384.8 520.19,-374.38 513.28,-375.46"/>
</a>
</g>
</g>
<!-- Node4 -->
<g id="Node000004" class="node">
<title>Node4</title>
<g id="a_Node000004"><a xlink:href="i__configurable__connector_8h.html" target="_top" xlink:title=" ">
<polygon fill="white" stroke="#666666" points="1206,-283 1057,-283 1057,-242 1206,-242 1206,-283"/>
<text text-anchor="start" x="1065" y="-271" font-family="Helvetica,sans-Serif" font-size="10.00">include/mosaic/auto</text>
<text text-anchor="start" x="1065" y="-260" font-family="Helvetica,sans-Serif" font-size="10.00">_configurer/connector</text>
<text text-anchor="middle" x="1131.5" y="-249" font-family="Helvetica,sans-Serif" font-size="10.00">/i_configurable_connector.h</text>
</a>
</g>
</g>
<!-- Node3&#45;&gt;Node4 -->
<g id="edge3_Node000003_Node000004" class="edge">
<title>Node3&#45;&gt;Node4</title>
<g id="a_edge3_Node000003_Node000004"><a xlink:title=" ">
<path fill="none" stroke="#63b8ff" d="M712.93,-323.23C803.64,-310.29 963.12,-287.53 1056.85,-274.15"/>
<polygon fill="#63b8ff" stroke="#63b8ff" points="712.17,-319.81 702.76,-324.69 713.15,-326.74 712.17,-319.81"/>
</a>
</g>
</g>
<!-- Node14 -->
<g id="Node000014" class="node">
<title>Node14</title>
<g id="a_Node000014"><a xlink:href="mosaic__connector__factory_8h.html" target="_top" xlink:title=" ">
<polygon fill="white" stroke="#666666" points="310,-277.5 155,-277.5 155,-247.5 310,-247.5 310,-277.5"/>
<text text-anchor="start" x="163" y="-265.5" font-family="Helvetica,sans-Serif" font-size="10.00">include/mosaic/core</text>
<text text-anchor="middle" x="232.5" y="-254.5" font-family="Helvetica,sans-Serif" font-size="10.00">/mosaic_connector_factory.h</text>
</a>
</g>
</g>
<!-- Node3&#45;&gt;Node14 -->
<g id="edge18_Node000003_Node000014" class="edge">
<title>Node3&#45;&gt;Node14</title>
<g id="a_edge18_Node000003_Node000014"><a xlink:title=" ">
<path fill="none" stroke="#63b8ff" d="M576.4,-318.85C478.94,-300.98 377.81,-285.14 310.09,-274.93"/>
<polygon fill="#63b8ff" stroke="#63b8ff" points="575.96,-322.32 586.43,-320.69 577.23,-315.44 575.96,-322.32"/>
</a>
</g>
</g>
<!-- Node3&#45;&gt;Node16 -->
<g id="edge21_Node000003_Node000016" class="edge">
<title>Node3&#45;&gt;Node16</title>
<g id="a_edge21_Node000003_Node000016"><a xlink:title=" ">
<path fill="none" stroke="#63b8ff" d="M597.07,-315.11C568.84,-303.42 534.13,-288.37 510.49,-277.54"/>
<polygon fill="#63b8ff" stroke="#63b8ff" points="595.79,-318.37 606.37,-318.94 598.45,-311.89 595.79,-318.37"/>
</a>
</g>
</g>
<!-- Node18 -->
<g id="Node000018" class="node">
<title>Node18</title>
<g id="a_Node000018"><a xlink:href="peer__connection__observer_8h.html" target="_top" xlink:title=" ">
<polygon fill="white" stroke="#666666" points="736.5,-277.5 580.5,-277.5 580.5,-247.5 736.5,-247.5 736.5,-277.5"/>
<text text-anchor="start" x="588.5" y="-265.5" font-family="Helvetica,sans-Serif" font-size="10.00">include/mosaic/core</text>
<text text-anchor="middle" x="658.5" y="-254.5" font-family="Helvetica,sans-Serif" font-size="10.00">/peer_connection_observer.h</text>
</a>
</g>
</g>
<!-- Node3&#45;&gt;Node18 -->
<g id="edge24_Node000003_Node000018" class="edge">
<title>Node3&#45;&gt;Node18</title>
<g id="a_edge24_Node000003_Node000018"><a xlink:title=" ">
<path fill="none" stroke="#63b8ff" d="M649.32,-309.08C651.44,-298.56 653.85,-286.58 655.67,-277.54"/>
<polygon fill="#63b8ff" stroke="#63b8ff" points="645.88,-308.44 647.33,-318.94 652.74,-309.82 645.88,-308.44"/>
</a>
</g>
</g>
<!-- Node19 -->
<g id="Node000019" class="node">
<title>Node19</title>
<g id="a_Node000019"><a xlink:href="mosaic__connector_8cpp.html" target="_top" xlink:title=" ">
<polygon fill="white" stroke="#666666" points="710.5,-189.5 544.5,-189.5 544.5,-170.5 710.5,-170.5 710.5,-189.5"/>
<text text-anchor="middle" x="627.5" y="-177.5" font-family="Helvetica,sans-Serif" font-size="10.00">src/core/mosaic_connector.cpp</text>
</a>
</g>
</g>
<!-- Node3&#45;&gt;Node19 -->
<g id="edge31_Node000003_Node000019" class="edge">
<title>Node3&#45;&gt;Node19</title>
<g id="a_edge31_Node000003_Node000019"><a xlink:title=" ">
<path fill="none" stroke="#63b8ff" d="M708.03,-314.65C722.82,-307.26 736.78,-297.04 745.5,-283 755.11,-267.52 754.98,-257.56 745.5,-242 728.23,-213.63 693.05,-197.88 665.58,-189.52"/>
<polygon fill="#63b8ff" stroke="#63b8ff" points="706.39,-311.55 698.75,-318.9 709.3,-317.92 706.39,-311.55"/>
</a>
</g>
</g>
<!-- Node20 -->
<g id="Node000020" class="node">
<title>Node20</title>
<g id="a_Node000020"><a xlink:href="peer__connection__observer_8cpp.html" target="_top" xlink:title=" ">
<polygon fill="white" stroke="#666666" points="866.5,-195 728.5,-195 728.5,-165 866.5,-165 866.5,-195"/>
<text text-anchor="start" x="736.5" y="-183" font-family="Helvetica,sans-Serif" font-size="10.00">src/core/peer_connection</text>
<text text-anchor="middle" x="797.5" y="-172" font-family="Helvetica,sans-Serif" font-size="10.00">_observer.cpp</text>
</a>
</g>
</g>
<!-- Node3&#45;&gt;Node20 -->
<g id="edge32_Node000003_Node000020" class="edge">
<title>Node3&#45;&gt;Node20</title>
<g id="a_edge32_Node000003_Node000020"><a xlink:title=" ">
<path fill="none" stroke="#63b8ff" d="M712.14,-315.52C730.45,-308.04 748.94,-297.55 762.5,-283 785.86,-257.94 793.71,-216.58 796.28,-195.04"/>
<polygon fill="#63b8ff" stroke="#63b8ff" points="710.7,-312.33 702.61,-319.17 713.2,-318.87 710.7,-312.33"/>
</a>
</g>
</g>
<!-- Node3&#45;&gt;Node21 -->
<g id="edge28_Node000003_Node000021" class="edge">
<title>Node3&#45;&gt;Node21</title>
<g id="a_edge28_Node000003_Node000021"><a xlink:title=" ">
<path fill="none" stroke="#63b8ff" d="M576.37,-318.97C385.05,-292.03 332.28,-314.21 145.5,-283 136.93,-281.57 127.92,-279.66 119.19,-277.6"/>
<polygon fill="#63b8ff" stroke="#63b8ff" points="576.08,-322.46 586.47,-320.42 577.07,-315.53 576.08,-322.46"/>
</a>
</g>
</g>
<!-- Node5 -->
<g id="Node000005" class="node">
<title>Node5</title>
<g id="a_Node000005"><a xlink:href="auto__configurer_8h.html" target="_top" xlink:title=" ">
<polygon fill="white" stroke="#666666" points="823.5,-107 665.5,-107 665.5,-77 823.5,-77 823.5,-107"/>
<text text-anchor="start" x="673.5" y="-95" font-family="Helvetica,sans-Serif" font-size="10.00">include/mosaic/auto</text>
<text text-anchor="middle" x="744.5" y="-84" font-family="Helvetica,sans-Serif" font-size="10.00">_configurer/auto_configurer.h</text>
</a>
</g>
</g>
<!-- Node4&#45;&gt;Node5 -->
<g id="edge4_Node000004_Node000005" class="edge">
<title>Node4&#45;&gt;Node5</title>
<g id="a_edge4_Node000004_Node000005"><a xlink:title=" ">
<path fill="none" stroke="#63b8ff" d="M1046.8,-253.29C1004.28,-245.97 953.64,-232.14 914.5,-206 890.48,-189.96 897.94,-172.2 875.5,-154 849.49,-132.9 814.98,-117.22 787.91,-107.04"/>
<polygon fill="#63b8ff" stroke="#63b8ff" points="1046.43,-256.77 1056.86,-254.92 1047.55,-249.86 1046.43,-256.77"/>
</a>
</g>
</g>
<!-- Node7 -->
<g id="Node000007" class="node">
<title>Node7</title>
<g id="a_Node000007"><a xlink:href="a__dc__handler__configurer_8h.html" target="_top" xlink:title=" ">
<polygon fill="white" stroke="#666666" points="987.5,-112.5 841.5,-112.5 841.5,-71.5 987.5,-71.5 987.5,-112.5"/>
<text text-anchor="start" x="849.5" y="-100.5" font-family="Helvetica,sans-Serif" font-size="10.00">include/mosaic/auto</text>
<text text-anchor="start" x="849.5" y="-89.5" font-family="Helvetica,sans-Serif" font-size="10.00">_configurer/connector</text>
<text text-anchor="middle" x="914.5" y="-78.5" font-family="Helvetica,sans-Serif" font-size="10.00">/a_dc_handler_configurer.h</text>
</a>
</g>
</g>
<!-- Node4&#45;&gt;Node7 -->
<g id="edge6_Node000004_Node000007" class="edge">
<title>Node4&#45;&gt;Node7</title>
<g id="a_edge6_Node000004_Node000007"><a xlink:title=" ">
<path fill="none" stroke="#63b8ff" d="M1128.12,-231.71C1123.9,-207.73 1114.47,-174.73 1093.5,-154 1089.03,-149.59 1025.97,-128.66 975.94,-112.53"/>
<polygon fill="#63b8ff" stroke="#63b8ff" points="1124.68,-232.34 1129.67,-241.69 1131.6,-231.27 1124.68,-232.34"/>
</a>
</g>
</g>
<!-- Node8 -->
<g id="Node000008" class="node">
<title>Node8</title>
<g id="a_Node000008"><a xlink:href="a__mt__handler__configurer_8h.html" target="_top" xlink:title=" ">
<polygon fill="white" stroke="#666666" points="1155,-112.5 1006,-112.5 1006,-71.5 1155,-71.5 1155,-112.5"/>
<text text-anchor="start" x="1014" y="-100.5" font-family="Helvetica,sans-Serif" font-size="10.00">include/mosaic/auto</text>
<text text-anchor="start" x="1014" y="-89.5" font-family="Helvetica,sans-Serif" font-size="10.00">_configurer/connector</text>
<text text-anchor="middle" x="1080.5" y="-78.5" font-family="Helvetica,sans-Serif" font-size="10.00">/a_mt_handler_configurer.h</text>
</a>
</g>
</g>
<!-- Node4&#45;&gt;Node8 -->
<g id="edge8_Node000004_Node000008" class="edge">
<title>Node4&#45;&gt;Node8</title>
<g id="a_edge8_Node000004_Node000008"><a xlink:title=" ">
<path fill="none" stroke="#63b8ff" d="M1134.75,-231.68C1136.06,-209.58 1135.55,-179.07 1126.5,-154 1120.92,-138.53 1109.95,-123.73 1100.13,-112.59"/>
<polygon fill="#63b8ff" stroke="#63b8ff" points="1131.25,-231.56 1133.98,-241.8 1138.23,-232.09 1131.25,-231.56"/>
</a>
</g>
</g>
<!-- Node9 -->
<g id="Node000009" class="node">
<title>Node9</title>
<g id="a_Node000009"><a xlink:href="a__parallel__dc__handler__configurer_8h.html" target="_top" xlink:title=" ">
<polygon fill="white" stroke="#666666" points="1299.5,-118 1173.5,-118 1173.5,-66 1299.5,-66 1299.5,-118"/>
<text text-anchor="start" x="1181.5" y="-106" font-family="Helvetica,sans-Serif" font-size="10.00">include/mosaic/auto</text>
<text text-anchor="start" x="1181.5" y="-95" font-family="Helvetica,sans-Serif" font-size="10.00">_configurer/connector</text>
<text text-anchor="start" x="1181.5" y="-84" font-family="Helvetica,sans-Serif" font-size="10.00">/a_parallel_dc_handler</text>
<text text-anchor="middle" x="1236.5" y="-73" font-family="Helvetica,sans-Serif" font-size="10.00">_configurer.h</text>
</a>
</g>
</g>
<!-- Node4&#45;&gt;Node9 -->
<g id="edge10_Node000004_Node000009" class="edge">
<title>Node4&#45;&gt;Node9</title>
<g id="a_edge10_Node000004_Node000009"><a xlink:title=" ">
<path fill="none" stroke="#63b8ff" d="M1149.05,-233.34C1169.06,-201.22 1201.51,-149.15 1220.75,-118.28"/>
<polygon fill="#63b8ff" stroke="#63b8ff" points="1146.07,-231.5 1143.75,-241.84 1152.01,-235.21 1146.07,-231.5"/>
</a>
</g>
</g>
<!-- Node10 -->
<g id="Node000010" class="node">
<title>Node10</title>
<g id="a_Node000010"><a xlink:href="configurable__connector__factory_8h.html" target="_top" xlink:title=" ">
<polygon fill="white" stroke="#666666" points="1350,-206 1217,-206 1217,-154 1350,-154 1350,-206"/>
<text text-anchor="start" x="1225" y="-194" font-family="Helvetica,sans-Serif" font-size="10.00">include/mosaic/auto</text>
<text text-anchor="start" x="1225" y="-183" font-family="Helvetica,sans-Serif" font-size="10.00">_configurer/connector</text>
<text text-anchor="start" x="1225" y="-172" font-family="Helvetica,sans-Serif" font-size="10.00">/configurable_connector</text>
<text text-anchor="middle" x="1283.5" y="-161" font-family="Helvetica,sans-Serif" font-size="10.00">_factory.h</text>
</a>
</g>
</g>
<!-- Node4&#45;&gt;Node10 -->
<g id="edge12_Node000004_Node000010" class="edge">
<title>Node4&#45;&gt;Node10</title>
<g id="a_edge12_Node000004_Node000010"><a xlink:title=" ">
<path fill="none" stroke="#63b8ff" d="M1177.52,-237.13C1196.04,-227.32 1217.39,-216.01 1236.06,-206.13"/>
<polygon fill="#63b8ff" stroke="#63b8ff" points="1175.88,-234.03 1168.68,-241.81 1179.16,-240.22 1175.88,-234.03"/>
</a>
</g>
</g>
<!-- Node11 -->
<g id="Node000011" class="node">
<title>Node11</title>
<g id="a_Node000011"><a xlink:href="connector__resolver_8h.html" target="_top" xlink:title=" ">
<polygon fill="white" stroke="#666666" points="1439.5,-112.5 1317.5,-112.5 1317.5,-71.5 1439.5,-71.5 1439.5,-112.5"/>
<text text-anchor="start" x="1325.5" y="-100.5" font-family="Helvetica,sans-Serif" font-size="10.00">include/mosaic/auto</text>
<text text-anchor="start" x="1325.5" y="-89.5" font-family="Helvetica,sans-Serif" font-size="10.00">_configurer/connector</text>
<text text-anchor="middle" x="1378.5" y="-78.5" font-family="Helvetica,sans-Serif" font-size="10.00">/connector_resolver.h</text>
</a>
</g>
</g>
<!-- Node4&#45;&gt;Node11 -->
<g id="edge16_Node000004_Node000011" class="edge">
<title>Node4&#45;&gt;Node11</title>
<g id="a_edge16_Node000004_Node000011"><a xlink:title=" ">
<path fill="none" stroke="#63b8ff" d="M1216.31,-250.7C1272.73,-241.74 1339.93,-227.03 1359.5,-206 1383.08,-180.66 1383.38,-137.56 1381.16,-112.55"/>
<polygon fill="#63b8ff" stroke="#63b8ff" points="1215.63,-247.26 1206.28,-252.25 1216.7,-254.18 1215.63,-247.26"/>
</a>
</g>
</g>
<!-- Node13 -->
<g id="Node000013" class="node">
<title>Node13</title>
<g id="a_Node000013"><a xlink:href="i__configurable__connector_8cpp.html" target="_top" xlink:title=" ">
<polygon fill="white" stroke="#666666" points="1084,-195 923,-195 923,-165 1084,-165 1084,-195"/>
<text text-anchor="start" x="931" y="-183" font-family="Helvetica,sans-Serif" font-size="10.00">src/auto_configurer</text>
<text text-anchor="middle" x="1003.5" y="-172" font-family="Helvetica,sans-Serif" font-size="10.00">/i_configurable_connector.cpp</text>
</a>
</g>
</g>
<!-- Node4&#45;&gt;Node13 -->
<g id="edge17_Node000004_Node000013" class="edge">
<title>Node4&#45;&gt;Node13</title>
<g id="a_edge17_Node000004_Node000013"><a xlink:title=" ">
<path fill="none" stroke="#63b8ff" d="M1091.55,-236.37C1069.98,-222.81 1044.15,-206.56 1026.06,-195.19"/>
<polygon fill="#63b8ff" stroke="#63b8ff" points="1089.86,-239.45 1100.19,-241.81 1093.59,-233.52 1089.86,-239.45"/>
</a>
</g>
</g>
<!-- Node6 -->
<g id="Node000006" class="node">
<title>Node6</title>
<g id="a_Node000006"><a xlink:href="auto__configurer_8cpp.html" target="_top" xlink:title=" ">
<polygon fill="white" stroke="#666666" points="1055,-30 940,-30 940,0 1055,0 1055,-30"/>
<text text-anchor="start" x="948" y="-18" font-family="Helvetica,sans-Serif" font-size="10.00">src/auto_configurer</text>
<text text-anchor="middle" x="997.5" y="-7" font-family="Helvetica,sans-Serif" font-size="10.00">/auto_configurer.cpp</text>
</a>
</g>
</g>
<!-- Node5&#45;&gt;Node6 -->
<g id="edge5_Node000005_Node000006" class="edge">
<title>Node5&#45;&gt;Node6</title>
<g id="a_edge5_Node000005_Node000006"><a xlink:title=" ">
<path fill="none" stroke="#63b8ff" d="M801.64,-74.06C846.4,-60.79 907.93,-42.55 950.01,-30.08"/>
<polygon fill="#63b8ff" stroke="#63b8ff" points="800.38,-70.78 791.79,-76.98 802.37,-77.49 800.38,-70.78"/>
</a>
</g>
</g>
<!-- Node7&#45;&gt;Node6 -->
<g id="edge7_Node000007_Node000006" class="edge">
<title>Node7&#45;&gt;Node6</title>
<g id="a_edge7_Node000007_Node000006"><a xlink:title=" ">
<path fill="none" stroke="#63b8ff" d="M944,-64.34C956.78,-52.8 971.21,-39.75 981.87,-30.13"/>
<polygon fill="#63b8ff" stroke="#63b8ff" points="941.38,-61.99 936.31,-71.29 946.07,-67.19 941.38,-61.99"/>
</a>
</g>
</g>
<!-- Node8&#45;&gt;Node6 -->
<g id="edge9_Node000008_Node000006" class="edge">
<title>Node8&#45;&gt;Node6</title>
<g id="a_edge9_Node000008_Node000006"><a xlink:title=" ">
<path fill="none" stroke="#63b8ff" d="M1051,-64.34C1038.22,-52.8 1023.79,-39.75 1013.13,-30.13"/>
<polygon fill="#63b8ff" stroke="#63b8ff" points="1048.93,-67.19 1058.69,-71.29 1053.62,-61.99 1048.93,-67.19"/>
</a>
</g>
</g>
<!-- Node9&#45;&gt;Node6 -->
<g id="edge11_Node000009_Node000006" class="edge">
<title>Node9&#45;&gt;Node6</title>
<g id="a_edge11_Node000009_Node000006"><a xlink:title=" ">
<path fill="none" stroke="#63b8ff" d="M1163.76,-65.81C1119.11,-51.48 1077.78,-39.18 1046.63,-30.1"/>
<polygon fill="#63b8ff" stroke="#63b8ff" points="1162.74,-69.16 1173.34,-68.89 1164.89,-62.5 1162.74,-69.16"/>
</a>
</g>
</g>
<!-- Node10&#45;&gt;Node11 -->
<g id="edge13_Node000010_Node000011" class="edge">
<title>Node10&#45;&gt;Node11</title>
<g id="a_edge13_Node000010_Node000011"><a xlink:title=" ">
<path fill="none" stroke="#63b8ff" d="M1318.98,-146.88C1331.73,-135.34 1345.72,-122.68 1356.93,-112.53"/>
<polygon fill="#63b8ff" stroke="#63b8ff" points="1316.3,-144.59 1311.23,-153.89 1321,-149.78 1316.3,-144.59"/>
</a>
</g>
</g>
<!-- Node11&#45;&gt;Node6 -->
<g id="edge14_Node000011_Node000006" class="edge">
<title>Node11&#45;&gt;Node6</title>
<g id="a_edge14_Node000011_Node000006"><a xlink:title=" ">
<path fill="none" stroke="#63b8ff" d="M1317.52,-68.49C1314.48,-67.6 1311.47,-66.76 1308.5,-66 1221.5,-43.67 1118.11,-29.41 1055.18,-22.06"/>
<polygon fill="#63b8ff" stroke="#63b8ff" points="1316.64,-71.88 1327.23,-71.48 1318.7,-65.19 1316.64,-71.88"/>
</a>
</g>
</g>
<!-- Node12 -->
<g id="Node000012" class="node">
<title>Node12</title>
<g id="a_Node000012"><a xlink:href="connector__resolver_8cpp.html" target="_top" xlink:title=" ">
<polygon fill="white" stroke="#666666" points="1444.5,-30 1312.5,-30 1312.5,0 1444.5,0 1444.5,-30"/>
<text text-anchor="start" x="1320.5" y="-18" font-family="Helvetica,sans-Serif" font-size="10.00">src/auto_configurer</text>
<text text-anchor="middle" x="1378.5" y="-7" font-family="Helvetica,sans-Serif" font-size="10.00">/connector_resolver.cpp</text>
</a>
</g>
</g>
<!-- Node11&#45;&gt;Node12 -->
<g id="edge15_Node000011_Node000012" class="edge">
<title>Node11&#45;&gt;Node12</title>
<g id="a_edge15_Node000011_Node000012"><a xlink:title=" ">
<path fill="none" stroke="#63b8ff" d="M1378.5,-61.11C1378.5,-50.51 1378.5,-39.07 1378.5,-30.36"/>
<polygon fill="#63b8ff" stroke="#63b8ff" points="1375,-61.29 1378.5,-71.29 1382,-61.29 1375,-61.29"/>
</a>
</g>
</g>
<!-- Node14&#45;&gt;Node6 -->
<g id="edge19_Node000014_Node000006" class="edge">
<title>Node14&#45;&gt;Node6</title>
<g id="a_edge19_Node000014_Node000006"><a xlink:title=" ">
<path fill="none" stroke="#63b8ff" d="M260.83,-241.59C275.49,-231.17 293.59,-218.08 309.5,-206 338.96,-183.62 341.83,-171.37 374.5,-154 564.76,-52.86 825.54,-25.75 939.85,-18.55"/>
<polygon fill="#63b8ff" stroke="#63b8ff" points="258.78,-238.76 252.64,-247.4 262.83,-244.47 258.78,-238.76"/>
</a>
</g>
</g>
<!-- Node15 -->
<g id="Node000015" class="node">
<title>Node15</title>
<g id="a_Node000015"><a xlink:href="mosaic__connector__factory_8cpp.html" target="_top" xlink:title=" ">
<polygon fill="white" stroke="#666666" points="300.5,-195 154.5,-195 154.5,-165 300.5,-165 300.5,-195"/>
<text text-anchor="start" x="162.5" y="-183" font-family="Helvetica,sans-Serif" font-size="10.00">src/core/mosaic_connector</text>
<text text-anchor="middle" x="227.5" y="-172" font-family="Helvetica,sans-Serif" font-size="10.00">_factory.cpp</text>
</a>
</g>
</g>
<!-- Node14&#45;&gt;Node15 -->
<g id="edge20_Node000014_Node000015" class="edge">
<title>Node14&#45;&gt;Node15</title>
<g id="a_edge20_Node000014_Node000015"><a xlink:title=" ">
<path fill="none" stroke="#63b8ff" d="M230.99,-237.24C230.14,-223.48 229.1,-206.75 228.38,-195.13"/>
<polygon fill="#63b8ff" stroke="#63b8ff" points="227.52,-237.71 231.63,-247.48 234.5,-237.28 227.52,-237.71"/>
</a>
</g>
</g>
<!-- Node16&#45;&gt;Node3 -->
<g id="edge22_Node000016_Node000003" class="edge">
<title>Node16&#45;&gt;Node3</title>
<g id="a_edge22_Node000016_Node000003"><a xlink:title=" ">
<path fill="none" stroke="#63b8ff" d="M530.87,-281.37C559.09,-293.05 593.81,-308.1 617.47,-318.94"/>
<polygon fill="#63b8ff" stroke="#63b8ff" points="532.16,-278.11 521.58,-277.54 529.5,-284.58 532.16,-278.11"/>
</a>
</g>
</g>
<!-- Node16&#45;&gt;Node17 -->
<g id="edge23_Node000016_Node000017" class="edge">
<title>Node16&#45;&gt;Node17</title>
<g id="a_edge23_Node000016_Node000017"><a xlink:title=" ">
<path fill="none" stroke="#63b8ff" d="M474.47,-238.05C469.12,-224.15 462.51,-206.98 457.94,-195.13"/>
<polygon fill="#63b8ff" stroke="#63b8ff" points="471.24,-239.4 478.1,-247.48 477.77,-236.89 471.24,-239.4"/>
</a>
</g>
</g>
<!-- Node18&#45;&gt;Node17 -->
<g id="edge26_Node000018_Node000017" class="edge">
<title>Node18&#45;&gt;Node17</title>
<g id="a_edge26_Node000018_Node000017"><a xlink:title=" ">
<path fill="none" stroke="#63b8ff" d="M612.97,-243.71C575.55,-229.09 523.26,-208.65 488.66,-195.13"/>
<polygon fill="#63b8ff" stroke="#63b8ff" points="612.03,-247.1 622.62,-247.48 614.58,-240.58 612.03,-247.1"/>
</a>
</g>
</g>
<!-- Node18&#45;&gt;Node19 -->
<g id="edge25_Node000018_Node000019" class="edge">
<title>Node18&#45;&gt;Node19</title>
<g id="a_edge25_Node000018_Node000019"><a xlink:title=" ">
<path fill="none" stroke="#63b8ff" d="M649.5,-238.12C643.28,-221.98 635.36,-201.42 630.92,-189.88"/>
<polygon fill="#63b8ff" stroke="#63b8ff" points="646.24,-239.4 653.1,-247.48 652.77,-236.89 646.24,-239.4"/>
</a>
</g>
</g>
<!-- Node18&#45;&gt;Node20 -->
<g id="edge27_Node000018_Node000020" class="edge">
<title>Node18&#45;&gt;Node20</title>
<g id="a_edge27_Node000018_Node000020"><a xlink:title=" ">
<path fill="none" stroke="#63b8ff" d="M691.51,-242.38C716.56,-227.87 750.45,-208.25 773.1,-195.13"/>
<polygon fill="#63b8ff" stroke="#63b8ff" points="689.61,-239.44 682.71,-247.48 693.12,-245.5 689.61,-239.44"/>
</a>
</g>
</g>
<!-- Node21&#45;&gt;Node15 -->
<g id="edge29_Node000021_Node000015" class="edge">
<title>Node21&#45;&gt;Node15</title>
<g id="a_edge29_Node000021_Node000015"><a xlink:title=" ">
<path fill="none" stroke="#63b8ff" d="M105.13,-242.95C133.89,-228.39 173.34,-208.42 199.59,-195.13"/>
<polygon fill="#63b8ff" stroke="#63b8ff" points="103.54,-239.84 96.2,-247.48 106.7,-246.08 103.54,-239.84"/>
</a>
</g>
</g>
<!-- Node22 -->
<g id="Node000022" class="node">
<title>Node22</title>
<g id="a_Node000022"><a xlink:href="signaling__client_8cpp.html" target="_top" xlink:title=" ">
<polygon fill="white" stroke="#666666" points="131,-195 6,-195 6,-165 131,-165 131,-195"/>
<text text-anchor="start" x="14" y="-183" font-family="Helvetica,sans-Serif" font-size="10.00">src/signaling/signaling</text>
<text text-anchor="middle" x="68.5" y="-172" font-family="Helvetica,sans-Serif" font-size="10.00">_client.cpp</text>
</a>
</g>
</g>
<!-- Node21&#45;&gt;Node22 -->
<g id="edge30_Node000021_Node000022" class="edge">
<title>Node21&#45;&gt;Node22</title>
<g id="a_edge30_Node000021_Node000022"><a xlink:title=" ">
<path fill="none" stroke="#63b8ff" d="M68.5,-237.24C68.5,-223.48 68.5,-206.75 68.5,-195.13"/>
<polygon fill="#63b8ff" stroke="#63b8ff" points="65,-237.48 68.5,-247.48 72,-237.48 65,-237.48"/>
</a>
</g>
</g>
</g>
</svg>

<g id="navigator" transform="translate(0 0)" fill="#404254">
  <rect fill="#f2f5e9" fill-opacity="0.5" stroke="#606060" stroke-width=".5" x="0" y="0" width="60" height="60"/>
  <use id="zoomplus" xlink:href="#zoomPlus" x="17" y="9" onmousedown="handleZoom(evt,'in')"/>
  <use id="zoomminus" xlink:href="#zoomMin" x="42" y="9" onmousedown="handleZoom(evt,'out')"/>
  <use id="reset" xlink:href="#resetDef" x="30" y="36" onmousedown="handleReset()"/>
   <use id="arrowup" xlink:href="#arrowUp" x="0" y="0" onmousedown="handlePan(0,-1)"/>
  <use id="arrowright" xlink:href="#arrowRight" x="0" y="0" onmousedown="handlePan(1,0)"/>
  <use id="arrowdown" xlink:href="#arrowDown" x="0" y="0" onmousedown="handlePan(0,1)"/>
  <use id="arrowleft" xlink:href="#arrowLeft" x="0" y="0" onmousedown="handlePan(-1,0)"/>
</g>
<svg viewBox="0 0 15 15" width="100%" height="30px" preserveAspectRatio="xMaxYMin meet">
 <g id="arrow_out" transform="scale(0.3 0.3)">
  <a xlink:href="i__signaling__client_8h__dep__incl_org.svg" target="_base">
   <rect id="button" ry="5" rx="5" y="6" x="6" height="38" width="38"
        fill="#f2f5e9" fill-opacity="0.5" stroke="#606060" stroke-width="1.0"/>
   <path id="arrow"
     d="M 11.500037,31.436501 C 11.940474,20.09759 22.043105,11.32322 32.158766,21.979434 L 37.068811,17.246167 C 37.068811,17.246167 37.088388,32 37.088388,32 L 22.160133,31.978069 C 22.160133,31.978069 26.997745,27.140456 26.997745,27.140456 C 18.528582,18.264221 13.291696,25.230495 11.500037,31.436501 z"
     style="fill:#404040;"/>
  </a>
 </g>
</svg>

<style type='text/css'>
<![CDATA[
[data-mouse-over-selected='false'] { opacity: 0.7; }
[data-mouse-over-selected='true']  { opacity: 1.0; }
]]>
</style>
<script type="application/ecmascript"><![CDATA[
document.addEventListener('DOMContentLoaded', (event) => {
  highlightEdges();
  highlightAdjacentNodes();
});
]]></script>
</svg>
