<?xml version="1.0" encoding="UTF-8" standalone="no"?>
<!DOCTYPE svg PUBLIC "-//W3C//DTD SVG 1.1//EN"
 "http://www.w3.org/Graphics/SVG/1.1/DTD/svg11.dtd">
<!-- Generated by graphviz version 2.43.0 (0)
 -->
<!-- Title: Graphical Class Hierarchy Pages: 1 -->
<svg width="501pt" height="86pt"
 viewBox="0.00 0.00 501.00 86.00" xmlns="http://www.w3.org/2000/svg" xmlns:xlink="http://www.w3.org/1999/xlink">
<g id="graph0" class="graph" transform="scale(1 1) rotate(0) translate(4 82)">
<title>Graphical Class Hierarchy</title>
<!-- Node0 -->
<g id="Node000000" class="node">
<title>Node0</title>
<g id="a_Node000000"><a xlink:href="classmosaic_1_1security_1_1IMosaicAuthenticator.html" target="_top" xlink:title=" ">
<polygon fill="white" stroke="#666666" points="140,-54 0,-54 0,-24 140,-24 140,-54"/>
<text text-anchor="start" x="8" y="-42" font-family="Helvetica,sans-Serif" font-size="10.00">mosaic::security::IMosaic</text>
<text text-anchor="middle" x="70" y="-31" font-family="Helvetica,sans-Serif" font-size="10.00">Authenticator</text>
</a>
</g>
</g>
<!-- Node1 -->
<g id="Node000001" class="node">
<title>Node1</title>
<g id="a_Node000001"><a xlink:href="classmosaic_1_1security_1_1AMosaicAuthenticator.html" target="_top" xlink:title=" ">
<polygon fill="white" stroke="#666666" points="319,-54 176,-54 176,-24 319,-24 319,-54"/>
<text text-anchor="start" x="184" y="-42" font-family="Helvetica,sans-Serif" font-size="10.00">mosaic::security::AMosaic</text>
<text text-anchor="middle" x="247.5" y="-31" font-family="Helvetica,sans-Serif" font-size="10.00">Authenticator</text>
</a>
</g>
</g>
<!-- Node0&#45;&gt;Node1 -->
<g id="edge22_Node000000_Node000001" class="edge">
<title>Node0&#45;&gt;Node1</title>
<g id="a_edge22_Node000000_Node000001"><a xlink:title=" ">
<path fill="none" stroke="#63b8ff" d="M150.35,-39C158.81,-39 167.37,-39 175.72,-39"/>
<polygon fill="#63b8ff" stroke="#63b8ff" points="150.11,-35.5 140.11,-39 150.11,-42.5 150.11,-35.5"/>
</a>
</g>
</g>
<!-- Node2 -->
<g id="Node000002" class="node">
<title>Node2</title>
<g id="a_Node000002"><a xlink:href="classmosaic_1_1security_1_1NoAuthAuthenticator.html" target="_top" xlink:title=" ">
<polygon fill="white" stroke="#666666" points="493,-78 355,-78 355,-48 493,-48 493,-78"/>
<text text-anchor="start" x="363" y="-66" font-family="Helvetica,sans-Serif" font-size="10.00">mosaic::security::NoAuth</text>
<text text-anchor="middle" x="424" y="-55" font-family="Helvetica,sans-Serif" font-size="10.00">Authenticator</text>
</a>
</g>
</g>
<!-- Node1&#45;&gt;Node2 -->
<g id="edge23_Node000001_Node000002" class="edge">
<title>Node1&#45;&gt;Node2</title>
<g id="a_edge23_Node000001_Node000002"><a xlink:title=" ">
<path fill="none" stroke="#63b8ff" d="M329.19,-50.1C337.72,-51.27 346.34,-52.46 354.72,-53.61"/>
<polygon fill="#63b8ff" stroke="#63b8ff" points="329.61,-46.62 319.22,-48.73 328.65,-53.56 329.61,-46.62"/>
</a>
</g>
</g>
<!-- Node3 -->
<g id="Node000003" class="node">
<title>Node3</title>
<g id="a_Node000003"><a xlink:href="classmosaic_1_1security_1_1SimpleTokenAuthenticator.html" target="_top" xlink:title=" ">
<polygon fill="white" stroke="#666666" points="492,-30 356,-30 356,0 492,0 492,-30"/>
<text text-anchor="start" x="364" y="-18" font-family="Helvetica,sans-Serif" font-size="10.00">mosaic::security::Simple</text>
<text text-anchor="middle" x="424" y="-7" font-family="Helvetica,sans-Serif" font-size="10.00">TokenAuthenticator</text>
</a>
</g>
</g>
<!-- Node1&#45;&gt;Node3 -->
<g id="edge24_Node000001_Node000003" class="edge">
<title>Node1&#45;&gt;Node3</title>
<g id="a_edge24_Node000001_Node000003"><a xlink:title=" ">
<path fill="none" stroke="#63b8ff" d="M329.22,-27.9C338.13,-26.67 347.13,-25.43 355.85,-24.24"/>
<polygon fill="#63b8ff" stroke="#63b8ff" points="328.65,-24.44 319.22,-29.27 329.61,-31.38 328.65,-24.44"/>
</a>
</g>
</g>
</g>
</svg>
