<?xml version="1.0" encoding="UTF-8" standalone="no"?>
<!DOCTYPE svg PUBLIC "-//W3C//DTD SVG 1.1//EN"
 "http://www.w3.org/Graphics/SVG/1.1/DTD/svg11.dtd">
<!-- Generated by graphviz version 2.43.0 (0)
 -->
<!-- Title: Graphical Class Hierarchy Pages: 1 -->
<svg width="567pt" height="76pt"
 viewBox="0.00 0.00 567.00 75.50" xmlns="http://www.w3.org/2000/svg" xmlns:xlink="http://www.w3.org/1999/xlink">
<g id="graph0" class="graph" transform="scale(1 1) rotate(0) translate(4 71.5)">
<title>Graphical Class Hierarchy</title>
<!-- Node0 -->
<g id="Node000000" class="node">
<title>Node0</title>
<g id="a_Node000000"><a xlink:href="classmosaic_1_1handlers_1_1IMediaTrackHandler.html" target="_top" xlink:title=" ">
<polygon fill="white" stroke="#666666" points="150,-67.5 11,-67.5 11,-37.5 150,-37.5 150,-67.5"/>
<text text-anchor="start" x="19" y="-55.5" font-family="Helvetica,sans-Serif" font-size="10.00">mosaic::handlers::IMedia</text>
<text text-anchor="middle" x="80.5" y="-44.5" font-family="Helvetica,sans-Serif" font-size="10.00">TrackHandler</text>
</a>
</g>
</g>
<!-- Node1 -->
<g id="Node000001" class="node">
<title>Node1</title>
<g id="a_Node000001"><a xlink:href="classmosaic_1_1handlers_1_1AMediaTrackHandler.html" target="_top" xlink:title=" ">
<polygon fill="white" stroke="#666666" points="340,-45.5 197,-45.5 197,-15.5 340,-15.5 340,-45.5"/>
<text text-anchor="start" x="205" y="-33.5" font-family="Helvetica,sans-Serif" font-size="10.00">mosaic::handlers::AMedia</text>
<text text-anchor="middle" x="268.5" y="-22.5" font-family="Helvetica,sans-Serif" font-size="10.00">TrackHandler</text>
</a>
</g>
</g>
<!-- Node0&#45;&gt;Node1 -->
<g id="edge20_Node000000_Node000001" class="edge">
<title>Node0&#45;&gt;Node1</title>
<g id="a_edge20_Node000000_Node000001"><a xlink:title=" ">
<path fill="none" stroke="#63b8ff" d="M160.33,-43.18C172.47,-41.74 184.93,-40.27 196.87,-38.85"/>
<polygon fill="#63b8ff" stroke="#63b8ff" points="159.75,-39.72 150.23,-44.37 160.57,-46.67 159.75,-39.72"/>
</a>
</g>
</g>
<!-- Node2 -->
<g id="Node000002" class="node">
<title>Node2</title>
<g id="a_Node000002"><a xlink:href="classmosaic_1_1auto__configurer_1_1impl_1_1OpenCVCameraMediaTrack.html" target="_top" xlink:title=" ">
<polygon fill="white" stroke="#666666" points="559,-45.5 376,-45.5 376,-15.5 559,-15.5 559,-45.5"/>
<text text-anchor="start" x="384" y="-33.5" font-family="Helvetica,sans-Serif" font-size="10.00">mosaic::auto_configurer</text>
<text text-anchor="middle" x="467.5" y="-22.5" font-family="Helvetica,sans-Serif" font-size="10.00">::impl::OpenCVCameraMediaTrack</text>
</a>
</g>
</g>
<!-- Node1&#45;&gt;Node2 -->
<g id="edge21_Node000001_Node000002" class="edge">
<title>Node1&#45;&gt;Node2</title>
<g id="a_edge21_Node000001_Node000002"><a xlink:title=" ">
<path fill="none" stroke="#63b8ff" d="M350.24,-30.5C358.67,-30.5 367.28,-30.5 375.81,-30.5"/>
<polygon fill="#63b8ff" stroke="#63b8ff" points="350.07,-27 340.07,-30.5 350.07,-34 350.07,-27"/>
</a>
</g>
</g>
<!-- Node3 -->
<g id="Node000003" class="node">
<title>Node3</title>
<g id="a_Node000003"><a xlink:href="classmosaic_1_1handlers_1_1Recordable.html" target="_top" xlink:title=" ">
<polygon fill="white" stroke="#666666" points="161,-19 0,-19 0,0 161,0 161,-19"/>
<text text-anchor="middle" x="80.5" y="-7" font-family="Helvetica,sans-Serif" font-size="10.00">mosaic::handlers::Recordable</text>
</a>
</g>
</g>
<!-- Node3&#45;&gt;Node1 -->
<g id="edge22_Node000003_Node000001" class="edge">
<title>Node3&#45;&gt;Node1</title>
<g id="a_edge22_Node000003_Node000001"><a xlink:title=" ">
<path fill="none" stroke="#63b8ff" d="M171.23,-19.63C179.8,-20.6 188.42,-21.57 196.78,-22.52"/>
<polygon fill="#63b8ff" stroke="#63b8ff" points="171.52,-16.14 161.19,-18.5 170.73,-23.1 171.52,-16.14"/>
</a>
</g>
</g>
</g>
</svg>
