<?xml version="1.0" encoding="UTF-8" standalone="no"?>
<!DOCTYPE svg PUBLIC "-//W3C//DTD SVG 1.1//EN"
 "http://www.w3.org/Graphics/SVG/1.1/DTD/svg11.dtd">
<!-- Generated by graphviz version 2.43.0 (0)
 -->
<!-- Title: Graphical Class Hierarchy Pages: 1 -->
<svg width="1010pt" height="194pt"
 viewBox="0.00 0.00 1010.00 193.50" xmlns="http://www.w3.org/2000/svg" xmlns:xlink="http://www.w3.org/1999/xlink">
<g id="graph0" class="graph" transform="scale(1 1) rotate(0) translate(4 189.5)">
<title>Graphical Class Hierarchy</title>
<!-- Node0 -->
<g id="Node000000" class="node">
<title>Node0</title>
<g id="a_Node000000"><a xlink:href="classmosaic_1_1handlers_1_1IDataChannelHandler.html" target="_top" xlink:title=" ">
<polygon fill="white" stroke="#666666" points="172,-126 0,-126 0,-96 172,-96 172,-126"/>
<text text-anchor="start" x="8" y="-114" font-family="Helvetica,sans-Serif" font-size="10.00">mosaic::handlers::IDataChannel</text>
<text text-anchor="middle" x="86" y="-103" font-family="Helvetica,sans-Serif" font-size="10.00">Handler</text>
</a>
</g>
</g>
<!-- Node1 -->
<g id="Node000001" class="node">
<title>Node1</title>
<g id="a_Node000001"><a xlink:href="classmosaic_1_1handlers_1_1ADataChannelHandler.html" target="_top" xlink:title=" ">
<polygon fill="white" stroke="#666666" points="384,-126 208,-126 208,-96 384,-96 384,-126"/>
<text text-anchor="start" x="216" y="-114" font-family="Helvetica,sans-Serif" font-size="10.00">mosaic::handlers::ADataChannel</text>
<text text-anchor="middle" x="296" y="-103" font-family="Helvetica,sans-Serif" font-size="10.00">Handler</text>
</a>
</g>
</g>
<!-- Node0&#45;&gt;Node1 -->
<g id="edge9_Node000000_Node000001" class="edge">
<title>Node0&#45;&gt;Node1</title>
<g id="a_edge9_Node000000_Node000001"><a xlink:title=" ">
<path fill="none" stroke="#63b8ff" d="M182.21,-111C190.77,-111 199.42,-111 207.91,-111"/>
<polygon fill="#63b8ff" stroke="#63b8ff" points="182.2,-107.5 172.2,-111 182.2,-114.5 182.2,-107.5"/>
</a>
</g>
</g>
<!-- Node2 -->
<g id="Node000002" class="node">
<title>Node2</title>
<g id="a_Node000002"><a xlink:href="classmosaic_1_1handlers_1_1DataChannelSendable.html" target="_top" xlink:title=" ">
<polygon fill="white" stroke="#666666" points="590.5,-150 421.5,-150 421.5,-120 590.5,-120 590.5,-150"/>
<text text-anchor="start" x="429.5" y="-138" font-family="Helvetica,sans-Serif" font-size="10.00">mosaic::handlers::DataChannel</text>
<text text-anchor="middle" x="506" y="-127" font-family="Helvetica,sans-Serif" font-size="10.00">Sendable</text>
</a>
</g>
</g>
<!-- Node1&#45;&gt;Node2 -->
<g id="edge10_Node000001_Node000002" class="edge">
<title>Node1&#45;&gt;Node2</title>
<g id="a_edge10_Node000001_Node000002"><a xlink:title=" ">
<path fill="none" stroke="#63b8ff" d="M394.2,-122.22C403.27,-123.26 412.41,-124.32 421.34,-125.35"/>
<polygon fill="#63b8ff" stroke="#63b8ff" points="394.34,-118.71 384.01,-121.04 393.54,-125.66 394.34,-118.71"/>
</a>
</g>
</g>
<!-- Node3 -->
<g id="Node000003" class="node">
<title>Node3</title>
<g id="a_Node000003"><a xlink:href="classmosaic_1_1handlers_1_1IDataChannelReceivable.html" target="_top" xlink:title=" ">
<polygon fill="white" stroke="#666666" points="592,-102 420,-102 420,-72 592,-72 592,-102"/>
<text text-anchor="start" x="428" y="-90" font-family="Helvetica,sans-Serif" font-size="10.00">mosaic::handlers::IDataChannel</text>
<text text-anchor="middle" x="506" y="-79" font-family="Helvetica,sans-Serif" font-size="10.00">Receivable</text>
</a>
</g>
</g>
<!-- Node1&#45;&gt;Node3 -->
<g id="edge11_Node000001_Node000003" class="edge">
<title>Node1&#45;&gt;Node3</title>
<g id="a_edge11_Node000001_Node000003"><a xlink:title=" ">
<path fill="none" stroke="#63b8ff" d="M394.02,-99.81C402.59,-98.82 411.22,-97.82 419.68,-96.85"/>
<polygon fill="#63b8ff" stroke="#63b8ff" points="393.54,-96.34 384.01,-100.96 394.34,-103.29 393.54,-96.34"/>
</a>
</g>
</g>
<!-- Node4 -->
<g id="Node000004" class="node">
<title>Node4</title>
<g id="a_Node000004"><a xlink:title=" ">
<polygon fill="#e0e0e0" stroke="#999999" points="797,-185.5 628,-185.5 628,-144.5 797,-144.5 797,-185.5"/>
<text text-anchor="start" x="636" y="-173.5" font-family="Helvetica,sans-Serif" font-size="10.00">mosaic::handlers::DataChannel</text>
<text text-anchor="start" x="636" y="-162.5" font-family="Helvetica,sans-Serif" font-size="10.00">Receivable&lt; std::vector&lt;</text>
<text text-anchor="middle" x="712.5" y="-151.5" font-family="Helvetica,sans-Serif" font-size="10.00"> uint8_t &gt; &gt;</text>
</a>
</g>
</g>
<!-- Node3&#45;&gt;Node4 -->
<g id="edge12_Node000003_Node000004" class="edge">
<title>Node3&#45;&gt;Node4</title>
<g id="a_edge12_Node000003_Node000004"><a xlink:title=" ">
<path fill="none" stroke="#63b8ff" d="M578.61,-105.44C583.2,-107.17 587.7,-109.02 592,-111 609.47,-119.04 610.82,-126.35 628,-135 634.6,-138.33 641.67,-141.46 648.78,-144.35"/>
<polygon fill="#63b8ff" stroke="#63b8ff" points="579.7,-102.11 569.11,-102.08 577.37,-108.71 579.7,-102.11"/>
</a>
</g>
</g>
<!-- Node6 -->
<g id="Node000006" class="node">
<title>Node6</title>
<g id="a_Node000006"><a xlink:title=" ">
<polygon fill="#e0e0e0" stroke="#999999" points="797,-126 628,-126 628,-96 797,-96 797,-126"/>
<text text-anchor="start" x="636" y="-114" font-family="Helvetica,sans-Serif" font-size="10.00">mosaic::handlers::DataChannel</text>
<text text-anchor="middle" x="712.5" y="-103" font-family="Helvetica,sans-Serif" font-size="10.00">Receivable&lt; Json::Value &gt;</text>
</a>
</g>
</g>
<!-- Node3&#45;&gt;Node6 -->
<g id="edge14_Node000003_Node000006" class="edge">
<title>Node3&#45;&gt;Node6</title>
<g id="a_edge14_Node000003_Node000006"><a xlink:title=" ">
<path fill="none" stroke="#63b8ff" d="M602.2,-98.17C610.71,-99.17 619.3,-100.18 627.71,-101.17"/>
<polygon fill="#63b8ff" stroke="#63b8ff" points="602.59,-94.69 592.25,-97 601.77,-101.65 602.59,-94.69"/>
</a>
</g>
</g>
<!-- Node8 -->
<g id="Node000008" class="node">
<title>Node8</title>
<g id="a_Node000008"><a xlink:title=" ">
<polygon fill="#e0e0e0" stroke="#999999" points="797,-78 628,-78 628,-48 797,-48 797,-78"/>
<text text-anchor="start" x="636" y="-66" font-family="Helvetica,sans-Serif" font-size="10.00">mosaic::handlers::DataChannel</text>
<text text-anchor="middle" x="712.5" y="-55" font-family="Helvetica,sans-Serif" font-size="10.00">Receivable&lt; std::string &gt;</text>
</a>
</g>
</g>
<!-- Node3&#45;&gt;Node8 -->
<g id="edge16_Node000003_Node000008" class="edge">
<title>Node3&#45;&gt;Node8</title>
<g id="a_edge16_Node000003_Node000008"><a xlink:title=" ">
<path fill="none" stroke="#63b8ff" d="M602.2,-75.83C610.71,-74.83 619.3,-73.82 627.71,-72.83"/>
<polygon fill="#63b8ff" stroke="#63b8ff" points="601.77,-72.35 592.25,-77 602.59,-79.31 601.77,-72.35"/>
</a>
</g>
</g>
<!-- Node10 -->
<g id="Node000010" class="node">
<title>Node10</title>
<g id="a_Node000010"><a xlink:href="classmosaic_1_1handlers_1_1DataChannelReceivable.html" target="_top" xlink:title=" ">
<polygon fill="white" stroke="#666666" points="797,-30 628,-30 628,0 797,0 797,-30"/>
<text text-anchor="start" x="636" y="-18" font-family="Helvetica,sans-Serif" font-size="10.00">mosaic::handlers::DataChannel</text>
<text text-anchor="middle" x="712.5" y="-7" font-family="Helvetica,sans-Serif" font-size="10.00">Receivable&lt; ReceiveT &gt;</text>
</a>
</g>
</g>
<!-- Node3&#45;&gt;Node10 -->
<g id="edge18_Node000003_Node000010" class="edge">
<title>Node3&#45;&gt;Node10</title>
<g id="a_edge18_Node000003_Node000010"><a xlink:title=" ">
<path fill="none" stroke="#63b8ff" d="M551.75,-68.04C574.41,-58.75 602.45,-47.72 628,-39 636.99,-35.93 646.62,-32.92 656.02,-30.12"/>
<polygon fill="#63b8ff" stroke="#63b8ff" points="550.3,-64.85 542.4,-71.9 552.98,-71.32 550.3,-64.85"/>
</a>
</g>
</g>
<!-- Node5 -->
<g id="Node000005" class="node">
<title>Node5</title>
<g id="a_Node000005"><a xlink:href="classmosaic_1_1handlers_1_1DataChannelByteReceivable.html" target="_top" xlink:title=" ">
<polygon fill="white" stroke="#666666" points="1002,-180 833,-180 833,-150 1002,-150 1002,-180"/>
<text text-anchor="start" x="841" y="-168" font-family="Helvetica,sans-Serif" font-size="10.00">mosaic::handlers::DataChannel</text>
<text text-anchor="middle" x="917.5" y="-157" font-family="Helvetica,sans-Serif" font-size="10.00">ByteReceivable</text>
</a>
</g>
</g>
<!-- Node4&#45;&gt;Node5 -->
<g id="edge13_Node000004_Node000005" class="edge">
<title>Node4&#45;&gt;Node5</title>
<g id="a_edge13_Node000004_Node000005"><a xlink:title=" ">
<path fill="none" stroke="#63b8ff" d="M807.26,-165C815.83,-165 824.48,-165 832.95,-165"/>
<polygon fill="#63b8ff" stroke="#63b8ff" points="807.24,-161.5 797.24,-165 807.24,-168.5 807.24,-161.5"/>
</a>
</g>
</g>
<!-- Node7 -->
<g id="Node000007" class="node">
<title>Node7</title>
<g id="a_Node000007"><a xlink:href="classmosaic_1_1handlers_1_1DataChannelJsonReceivable.html" target="_top" xlink:title=" ">
<polygon fill="white" stroke="#666666" points="1002,-126 833,-126 833,-96 1002,-96 1002,-126"/>
<text text-anchor="start" x="841" y="-114" font-family="Helvetica,sans-Serif" font-size="10.00">mosaic::handlers::DataChannel</text>
<text text-anchor="middle" x="917.5" y="-103" font-family="Helvetica,sans-Serif" font-size="10.00">JsonReceivable</text>
</a>
</g>
</g>
<!-- Node6&#45;&gt;Node7 -->
<g id="edge15_Node000006_Node000007" class="edge">
<title>Node6&#45;&gt;Node7</title>
<g id="a_edge15_Node000006_Node000007"><a xlink:title=" ">
<path fill="none" stroke="#63b8ff" d="M807.26,-111C815.83,-111 824.48,-111 832.95,-111"/>
<polygon fill="#63b8ff" stroke="#63b8ff" points="807.24,-107.5 797.24,-111 807.24,-114.5 807.24,-107.5"/>
</a>
</g>
</g>
<!-- Node9 -->
<g id="Node000009" class="node">
<title>Node9</title>
<g id="a_Node000009"><a xlink:href="classmosaic_1_1handlers_1_1DataChannelStringReceivable.html" target="_top" xlink:title=" ">
<polygon fill="white" stroke="#666666" points="1002,-78 833,-78 833,-48 1002,-48 1002,-78"/>
<text text-anchor="start" x="841" y="-66" font-family="Helvetica,sans-Serif" font-size="10.00">mosaic::handlers::DataChannel</text>
<text text-anchor="middle" x="917.5" y="-55" font-family="Helvetica,sans-Serif" font-size="10.00">StringReceivable</text>
</a>
</g>
</g>
<!-- Node8&#45;&gt;Node9 -->
<g id="edge17_Node000008_Node000009" class="edge">
<title>Node8&#45;&gt;Node9</title>
<g id="a_edge17_Node000008_Node000009"><a xlink:title=" ">
<path fill="none" stroke="#63b8ff" d="M807.26,-63C815.83,-63 824.48,-63 832.95,-63"/>
<polygon fill="#63b8ff" stroke="#63b8ff" points="807.24,-59.5 797.24,-63 807.24,-66.5 807.24,-59.5"/>
</a>
</g>
</g>
</g>
</svg>
