<?xml version="1.0" encoding="UTF-8" standalone="no"?>
<!DOCTYPE svg PUBLIC "-//W3C//DTD SVG 1.1//EN"
 "http://www.w3.org/Graphics/SVG/1.1/DTD/svg11.dtd">
<!-- Generated by graphviz version 2.43.0 (0)
 -->
<!-- Title: Graphical Class Hierarchy Pages: 1 -->
<svg width="568pt" height="134pt"
 viewBox="0.00 0.00 568.00 134.00" xmlns="http://www.w3.org/2000/svg" xmlns:xlink="http://www.w3.org/1999/xlink">
<g id="graph0" class="graph" transform="scale(1 1) rotate(0) translate(4 130)">
<title>Graphical Class Hierarchy</title>
<!-- Node0 -->
<g id="Node000000" class="node">
<title>Node0</title>
<g id="a_Node000000"><a xlink:href="classmosaic_1_1auto__configurer_1_1IConfigurableConnector.html" target="_top" xlink:title=" ">
<polygon fill="white" stroke="#666666" points="137,-78 0,-78 0,-48 137,-48 137,-78"/>
<text text-anchor="start" x="8" y="-66" font-family="Helvetica,sans-Serif" font-size="10.00">mosaic::auto_configurer</text>
<text text-anchor="middle" x="68.5" y="-55" font-family="Helvetica,sans-Serif" font-size="10.00">::IConfigurableConnector</text>
</a>
</g>
</g>
<!-- Node1 -->
<g id="Node000001" class="node">
<title>Node1</title>
<g id="a_Node000001"><a xlink:href="classmosaic_1_1auto__configurer_1_1ADCHandlerConfigurer.html" target="_top" xlink:title=" ">
<polygon fill="white" stroke="#666666" points="324,-126 190,-126 190,-96 324,-96 324,-126"/>
<text text-anchor="start" x="198" y="-114" font-family="Helvetica,sans-Serif" font-size="10.00">mosaic::auto_configurer</text>
<text text-anchor="middle" x="257" y="-103" font-family="Helvetica,sans-Serif" font-size="10.00">::ADCHandlerConfigurer</text>
</a>
</g>
</g>
<!-- Node0&#45;&gt;Node1 -->
<g id="edge3_Node000000_Node000001" class="edge">
<title>Node0&#45;&gt;Node1</title>
<g id="a_edge3_Node000000_Node000001"><a xlink:title=" ">
<path fill="none" stroke="#63b8ff" d="M137.81,-80.58C157.46,-85.64 178.72,-91.11 197.71,-96"/>
<polygon fill="#63b8ff" stroke="#63b8ff" points="138.55,-77.16 128,-78.06 136.81,-83.94 138.55,-77.16"/>
</a>
</g>
</g>
<!-- Node2 -->
<g id="Node000002" class="node">
<title>Node2</title>
<g id="a_Node000002"><a xlink:href="classmosaic_1_1auto__configurer_1_1AMTHandlerConfigurer.html" target="_top" xlink:title=" ">
<polygon fill="white" stroke="#666666" points="324,-78 190,-78 190,-48 324,-48 324,-78"/>
<text text-anchor="start" x="198" y="-66" font-family="Helvetica,sans-Serif" font-size="10.00">mosaic::auto_configurer</text>
<text text-anchor="middle" x="257" y="-55" font-family="Helvetica,sans-Serif" font-size="10.00">::AMTHandlerConfigurer</text>
</a>
</g>
</g>
<!-- Node0&#45;&gt;Node2 -->
<g id="edge4_Node000000_Node000002" class="edge">
<title>Node0&#45;&gt;Node2</title>
<g id="a_edge4_Node000000_Node000002"><a xlink:title=" ">
<path fill="none" stroke="#63b8ff" d="M147.3,-63C161.46,-63 176.1,-63 189.88,-63"/>
<polygon fill="#63b8ff" stroke="#63b8ff" points="147.09,-59.5 137.09,-63 147.09,-66.5 147.09,-59.5"/>
</a>
</g>
</g>
<!-- Node4 -->
<g id="Node000004" class="node">
<title>Node4</title>
<g id="a_Node000004"><a xlink:href="classmosaic_1_1auto__configurer_1_1AParallelDCHandlerConfigurer.html" target="_top" xlink:title=" ">
<polygon fill="white" stroke="#666666" points="341,-30 173,-30 173,0 341,0 341,-30"/>
<text text-anchor="start" x="181" y="-18" font-family="Helvetica,sans-Serif" font-size="10.00">mosaic::auto_configurer</text>
<text text-anchor="middle" x="257" y="-7" font-family="Helvetica,sans-Serif" font-size="10.00">::AParallelDCHandlerConfigurer</text>
</a>
</g>
</g>
<!-- Node0&#45;&gt;Node4 -->
<g id="edge6_Node000000_Node000004" class="edge">
<title>Node0&#45;&gt;Node4</title>
<g id="a_edge6_Node000000_Node000004"><a xlink:title=" ">
<path fill="none" stroke="#63b8ff" d="M137.81,-45.42C157.46,-40.36 178.72,-34.89 197.71,-30"/>
<polygon fill="#63b8ff" stroke="#63b8ff" points="136.81,-42.06 128,-47.94 138.55,-48.84 136.81,-42.06"/>
</a>
</g>
</g>
<!-- Node3 -->
<g id="Node000003" class="node">
<title>Node3</title>
<g id="a_Node000003"><a xlink:href="classmosaic_1_1auto__configurer_1_1impl_1_1OpenCVCameraMediaTrackConfigurer.html" target="_top" xlink:title=" ">
<polygon fill="white" stroke="#666666" points="560,-83.5 377,-83.5 377,-42.5 560,-42.5 560,-83.5"/>
<text text-anchor="start" x="385" y="-71.5" font-family="Helvetica,sans-Serif" font-size="10.00">mosaic::auto_configurer</text>
<text text-anchor="start" x="385" y="-60.5" font-family="Helvetica,sans-Serif" font-size="10.00">::impl::OpenCVCameraMediaTrack</text>
<text text-anchor="middle" x="468.5" y="-49.5" font-family="Helvetica,sans-Serif" font-size="10.00">Configurer</text>
</a>
</g>
</g>
<!-- Node2&#45;&gt;Node3 -->
<g id="edge5_Node000002_Node000003" class="edge">
<title>Node2&#45;&gt;Node3</title>
<g id="a_edge5_Node000002_Node000003"><a xlink:title=" ">
<path fill="none" stroke="#63b8ff" d="M334.61,-63C348.31,-63 362.7,-63 376.75,-63"/>
<polygon fill="#63b8ff" stroke="#63b8ff" points="334.29,-59.5 324.29,-63 334.29,-66.5 334.29,-59.5"/>
</a>
</g>
</g>
</g>
</svg>
