<?xml version="1.0" encoding="UTF-8" standalone="no"?>
<!DOCTYPE svg PUBLIC "-//W3C//DTD SVG 1.1//EN"
 "http://www.w3.org/Graphics/SVG/1.1/DTD/svg11.dtd">
<!-- Generated by graphviz version 2.43.0 (0)
 -->
<!-- Title: include/mosaic/logger/log.hpp Pages: 1 -->
<svg width="377pt" height="203pt"
 viewBox="0.00 0.00 376.50 203.00" xmlns="http://www.w3.org/2000/svg" xmlns:xlink="http://www.w3.org/1999/xlink">
<g id="graph0" class="graph" transform="scale(1 1) rotate(0) translate(4 199)">
<title>include/mosaic/logger/log.hpp</title>
<!-- Node1 -->
<g id="Node000001" class="node">
<title>Node1</title>
<g id="a_Node000001"><a xlink:title=" ">
<polygon fill="#999999" stroke="#666666" points="265,-195 141,-195 141,-165 265,-165 265,-195"/>
<text text-anchor="start" x="149" y="-183" font-family="Helvetica,sans-Serif" font-size="10.00">include/mosaic/logger</text>
<text text-anchor="middle" x="203" y="-172" font-family="Helvetica,sans-Serif" font-size="10.00">/log.hpp</text>
</a>
</g>
</g>
<!-- Node2 -->
<g id="Node000002" class="node">
<title>Node2</title>
<g id="a_Node000002"><a xlink:href="i__logger_8hpp.html" target="_top" xlink:title=" ">
<polygon fill="white" stroke="#666666" points="208,-129 132,-129 132,-110 208,-110 208,-129"/>
<text text-anchor="middle" x="170" y="-117" font-family="Helvetica,sans-Serif" font-size="10.00">i_logger.hpp</text>
</a>
</g>
</g>
<!-- Node1&#45;&gt;Node2 -->
<g id="edge1_Node000001_Node000002" class="edge">
<title>Node1&#45;&gt;Node2</title>
<g id="a_edge1_Node000001_Node000002"><a xlink:title=" ">
<path fill="none" stroke="#63b8ff" d="M195.01,-164.84C190.47,-156.78 184.73,-146.62 179.9,-138.06"/>
<polygon fill="#63b8ff" stroke="#63b8ff" points="182.91,-136.26 174.94,-129.27 176.81,-139.7 182.91,-136.26"/>
</a>
</g>
</g>
<!-- Node6 -->
<g id="Node000006" class="node">
<title>Node6</title>
<g id="a_Node000006"><a xlink:href="log__service_8hpp.html" target="_top" xlink:title=" ">
<polygon fill="white" stroke="#666666" points="291.5,-74 198.5,-74 198.5,-55 291.5,-55 291.5,-74"/>
<text text-anchor="middle" x="245" y="-62" font-family="Helvetica,sans-Serif" font-size="10.00">log_service.hpp</text>
</a>
</g>
</g>
<!-- Node1&#45;&gt;Node6 -->
<g id="edge9_Node000001_Node000006" class="edge">
<title>Node1&#45;&gt;Node6</title>
<g id="a_edge9_Node000001_Node000006"><a xlink:title=" ">
<path fill="none" stroke="#63b8ff" d="M208.32,-164.63C215.94,-144.03 229.97,-106.12 238.29,-83.63"/>
<polygon fill="#63b8ff" stroke="#63b8ff" points="241.58,-84.82 241.77,-74.23 235.02,-82.39 241.58,-84.82"/>
</a>
</g>
</g>
<!-- Node3 -->
<g id="Node000003" class="node">
<title>Node3</title>
<g id="a_Node000003"><a xlink:title=" ">
<polygon fill="#e0e0e0" stroke="#999999" points="44,-74 0,-74 0,-55 44,-55 44,-74"/>
<text text-anchor="middle" x="22" y="-62" font-family="Helvetica,sans-Serif" font-size="10.00">string</text>
</a>
</g>
</g>
<!-- Node2&#45;&gt;Node3 -->
<g id="edge2_Node000002_Node000003" class="edge">
<title>Node2&#45;&gt;Node3</title>
<g id="a_edge2_Node000002_Node000003"><a xlink:title=" ">
<path fill="none" stroke="#63b8ff" d="M146.22,-109.98C121.19,-101.02 81.63,-86.86 53.9,-76.92"/>
<polygon fill="#63b8ff" stroke="#63b8ff" points="54.86,-73.55 44.27,-73.47 52.5,-80.14 54.86,-73.55"/>
</a>
</g>
</g>
<!-- Node4 -->
<g id="Node000004" class="node">
<title>Node4</title>
<g id="a_Node000004"><a xlink:title=" ">
<polygon fill="#e0e0e0" stroke="#999999" points="141.5,-74 62.5,-74 62.5,-55 141.5,-55 141.5,-74"/>
<text text-anchor="middle" x="102" y="-62" font-family="Helvetica,sans-Serif" font-size="10.00">fmt/format.h</text>
</a>
</g>
</g>
<!-- Node2&#45;&gt;Node4 -->
<g id="edge3_Node000002_Node000004" class="edge">
<title>Node2&#45;&gt;Node4</title>
<g id="a_edge3_Node000002_Node000004"><a xlink:title=" ">
<path fill="none" stroke="#63b8ff" d="M159.07,-109.98C148.92,-102.07 133.58,-90.11 121.35,-80.58"/>
<polygon fill="#63b8ff" stroke="#63b8ff" points="123.16,-77.56 113.12,-74.17 118.86,-83.08 123.16,-77.56"/>
</a>
</g>
</g>
<!-- Node5 -->
<g id="Node000005" class="node">
<title>Node5</title>
<g id="a_Node000005"><a xlink:href="log__level_8hpp.html" target="_top" xlink:title=" ">
<polygon fill="white" stroke="#666666" points="205,-19 123,-19 123,0 205,0 205,-19"/>
<text text-anchor="middle" x="164" y="-7" font-family="Helvetica,sans-Serif" font-size="10.00">log_level.hpp</text>
</a>
</g>
</g>
<!-- Node2&#45;&gt;Node5 -->
<g id="edge4_Node000002_Node000005" class="edge">
<title>Node2&#45;&gt;Node5</title>
<g id="a_edge4_Node000002_Node000005"><a xlink:title=" ">
<path fill="none" stroke="#63b8ff" d="M169.51,-109.66C168.54,-92.17 166.35,-52.8 165.04,-29.27"/>
<polygon fill="#63b8ff" stroke="#63b8ff" points="168.53,-28.95 164.48,-19.16 161.54,-29.34 168.53,-28.95"/>
</a>
</g>
</g>
<!-- Node2&#45;&gt;Node6 -->
<g id="edge5_Node000002_Node000006" class="edge">
<title>Node2&#45;&gt;Node6</title>
<g id="a_edge5_Node000002_Node000006"><a xlink:title=" ">
<path fill="none" stroke="#63b8ff" d="M182.05,-109.98C193.46,-101.92 210.83,-89.65 224.43,-80.03"/>
<polygon fill="#63b8ff" stroke="#63b8ff" points="226.58,-82.8 232.73,-74.17 222.54,-77.08 226.58,-82.8"/>
</a>
</g>
</g>
<!-- Node6&#45;&gt;Node5 -->
<g id="edge8_Node000006_Node000005" class="edge">
<title>Node6&#45;&gt;Node5</title>
<g id="a_edge8_Node000006_Node000005"><a xlink:title=" ">
<path fill="none" stroke="#63b8ff" d="M231.99,-54.98C219.54,-46.84 200.54,-34.41 185.79,-24.76"/>
<polygon fill="#63b8ff" stroke="#63b8ff" points="187.54,-21.72 177.25,-19.17 183.7,-27.57 187.54,-21.72"/>
</a>
</g>
</g>
<!-- Node7 -->
<g id="Node000007" class="node">
<title>Node7</title>
<g id="a_Node000007"><a xlink:title=" ">
<polygon fill="#e0e0e0" stroke="#999999" points="281,-19 223,-19 223,0 281,0 281,-19"/>
<text text-anchor="middle" x="252" y="-7" font-family="Helvetica,sans-Serif" font-size="10.00">memory</text>
</a>
</g>
</g>
<!-- Node6&#45;&gt;Node7 -->
<g id="edge6_Node000006_Node000007" class="edge">
<title>Node6&#45;&gt;Node7</title>
<g id="a_edge6_Node000006_Node000007"><a xlink:title=" ">
<path fill="none" stroke="#63b8ff" d="M246.16,-54.75C247.07,-47.8 248.39,-37.85 249.54,-29.13"/>
<polygon fill="#63b8ff" stroke="#63b8ff" points="253.03,-29.46 250.87,-19.09 246.09,-28.54 253.03,-29.46"/>
</a>
</g>
</g>
<!-- Node8 -->
<g id="Node000008" class="node">
<title>Node8</title>
<g id="a_Node000008"><a xlink:title=" ">
<polygon fill="#e0e0e0" stroke="#999999" points="368.5,-19 299.5,-19 299.5,0 368.5,0 368.5,-19"/>
<text text-anchor="middle" x="334" y="-7" font-family="Helvetica,sans-Serif" font-size="10.00">type_traits</text>
</a>
</g>
</g>
<!-- Node6&#45;&gt;Node8 -->
<g id="edge7_Node000006_Node000008" class="edge">
<title>Node6&#45;&gt;Node8</title>
<g id="a_edge7_Node000006_Node000008"><a xlink:title=" ">
<path fill="none" stroke="#63b8ff" d="M259.3,-54.98C273.1,-46.77 294.24,-34.18 310.51,-24.49"/>
<polygon fill="#63b8ff" stroke="#63b8ff" points="312.64,-27.29 319.44,-19.17 309.06,-21.28 312.64,-27.29"/>
</a>
</g>
</g>
</g>
</svg>
