<?xml version="1.0" encoding="UTF-8" standalone="no"?>
<!DOCTYPE svg PUBLIC "-//W3C//DTD SVG 1.1//EN"
 "http://www.w3.org/Graphics/SVG/1.1/DTD/svg11.dtd">
<!-- Generated by graphviz version 2.43.0 (0)
 -->
<!-- Title: src/logger/log_service.cpp Pages: 1 -->
<svg width="452pt" height="258pt"
 viewBox="0.00 0.00 451.50 258.00" xmlns="http://www.w3.org/2000/svg" xmlns:xlink="http://www.w3.org/1999/xlink">
<g id="graph0" class="graph" transform="scale(1 1) rotate(0) translate(4 254)">
<title>src/logger/log_service.cpp</title>
<!-- Node1 -->
<g id="Node000001" class="node">
<title>Node1</title>
<g id="a_Node000001"><a xlink:title=" ">
<polygon fill="#999999" stroke="#666666" points="313.5,-250 170.5,-250 170.5,-231 313.5,-231 313.5,-250"/>
<text text-anchor="middle" x="242" y="-238" font-family="Helvetica,sans-Serif" font-size="10.00">src/logger/log_service.cpp</text>
</a>
</g>
</g>
<!-- Node2 -->
<g id="Node000002" class="node">
<title>Node2</title>
<g id="a_Node000002"><a xlink:href="console__logger_8h.html" target="_top" xlink:title=" ">
<polygon fill="white" stroke="#666666" points="235,-195 109,-195 109,-165 235,-165 235,-195"/>
<text text-anchor="start" x="117" y="-183" font-family="Helvetica,sans-Serif" font-size="10.00">mosaic/logger/console</text>
<text text-anchor="middle" x="172" y="-172" font-family="Helvetica,sans-Serif" font-size="10.00">_logger.h</text>
</a>
</g>
</g>
<!-- Node1&#45;&gt;Node2 -->
<g id="edge1_Node000001_Node000002" class="edge">
<title>Node1&#45;&gt;Node2</title>
<g id="a_edge1_Node000001_Node000002"><a xlink:title=" ">
<path fill="none" stroke="#63b8ff" d="M231.67,-230.87C222.52,-223.22 208.81,-211.76 196.83,-201.75"/>
<polygon fill="#63b8ff" stroke="#63b8ff" points="198.81,-198.84 188.89,-195.11 194.32,-204.21 198.81,-198.84"/>
</a>
</g>
</g>
<!-- Node10 -->
<g id="Node000010" class="node">
<title>Node10</title>
<g id="a_Node000010"><a xlink:href="log__service_8h.html" target="_top" xlink:title=" ">
<polygon fill="white" stroke="#666666" points="361.5,-74 280.5,-74 280.5,-55 361.5,-55 361.5,-74"/>
<text text-anchor="middle" x="321" y="-62" font-family="Helvetica,sans-Serif" font-size="10.00">log_service.h</text>
</a>
</g>
</g>
<!-- Node1&#45;&gt;Node10 -->
<g id="edge13_Node000001_Node000010" class="edge">
<title>Node1&#45;&gt;Node10</title>
<g id="a_edge13_Node000001_Node000010"><a xlink:title=" ">
<path fill="none" stroke="#63b8ff" d="M246.02,-230.93C254.7,-212.38 275.79,-167.13 293,-129 299.89,-113.73 307.56,-96.31 313.12,-83.58"/>
<polygon fill="#63b8ff" stroke="#63b8ff" points="316.45,-84.71 317.24,-74.15 310.03,-81.91 316.45,-84.71"/>
</a>
</g>
</g>
<!-- Node3 -->
<g id="Node000003" class="node">
<title>Node3</title>
<g id="a_Node000003"><a xlink:title=" ">
<polygon fill="#e0e0e0" stroke="#999999" points="50,-129 0,-129 0,-110 50,-110 50,-129"/>
<text text-anchor="middle" x="25" y="-117" font-family="Helvetica,sans-Serif" font-size="10.00">chrono</text>
</a>
</g>
</g>
<!-- Node2&#45;&gt;Node3 -->
<g id="edge2_Node000002_Node000003" class="edge">
<title>Node2&#45;&gt;Node3</title>
<g id="a_edge2_Node000002_Node000003"><a xlink:title=" ">
<path fill="none" stroke="#63b8ff" d="M136.79,-164.99C112.26,-155.23 79.85,-142.33 56.24,-132.93"/>
<polygon fill="#63b8ff" stroke="#63b8ff" points="57.29,-129.58 46.71,-129.14 54.71,-136.09 57.29,-129.58"/>
</a>
</g>
</g>
<!-- Node4 -->
<g id="Node000004" class="node">
<title>Node4</title>
<g id="a_Node000004"><a xlink:title=" ">
<polygon fill="#e0e0e0" stroke="#999999" points="124,-129 68,-129 68,-110 124,-110 124,-129"/>
<text text-anchor="middle" x="96" y="-117" font-family="Helvetica,sans-Serif" font-size="10.00">iomanip</text>
</a>
</g>
</g>
<!-- Node2&#45;&gt;Node4 -->
<g id="edge3_Node000002_Node000004" class="edge">
<title>Node2&#45;&gt;Node4</title>
<g id="a_edge3_Node000002_Node000004"><a xlink:title=" ">
<path fill="none" stroke="#63b8ff" d="M153.6,-164.84C142.12,-156 127.35,-144.63 115.64,-135.62"/>
<polygon fill="#63b8ff" stroke="#63b8ff" points="117.45,-132.59 107.39,-129.27 113.18,-138.14 117.45,-132.59"/>
</a>
</g>
</g>
<!-- Node5 -->
<g id="Node000005" class="node">
<title>Node5</title>
<g id="a_Node000005"><a xlink:title=" ">
<polygon fill="#e0e0e0" stroke="#999999" points="202,-129 142,-129 142,-110 202,-110 202,-129"/>
<text text-anchor="middle" x="172" y="-117" font-family="Helvetica,sans-Serif" font-size="10.00">iostream</text>
</a>
</g>
</g>
<!-- Node2&#45;&gt;Node5 -->
<g id="edge4_Node000002_Node000005" class="edge">
<title>Node2&#45;&gt;Node5</title>
<g id="a_edge4_Node000002_Node000005"><a xlink:title=" ">
<path fill="none" stroke="#63b8ff" d="M172,-164.84C172,-157.21 172,-147.7 172,-139.45"/>
<polygon fill="#63b8ff" stroke="#63b8ff" points="175.5,-139.27 172,-129.27 168.5,-139.27 175.5,-139.27"/>
</a>
</g>
</g>
<!-- Node6 -->
<g id="Node000006" class="node">
<title>Node6</title>
<g id="a_Node000006"><a xlink:href="i__logger_8h.html" target="_top" xlink:title=" ">
<polygon fill="white" stroke="#666666" points="284,-129 220,-129 220,-110 284,-110 284,-129"/>
<text text-anchor="middle" x="252" y="-117" font-family="Helvetica,sans-Serif" font-size="10.00">i_logger.h</text>
</a>
</g>
</g>
<!-- Node2&#45;&gt;Node6 -->
<g id="edge5_Node000002_Node000006" class="edge">
<title>Node2&#45;&gt;Node6</title>
<g id="a_edge5_Node000002_Node000006"><a xlink:title=" ">
<path fill="none" stroke="#63b8ff" d="M191.37,-164.84C203.57,-155.91 219.31,-144.41 231.69,-135.35"/>
<polygon fill="#63b8ff" stroke="#63b8ff" points="234.01,-137.99 240.01,-129.27 229.87,-132.34 234.01,-137.99"/>
</a>
</g>
</g>
<!-- Node7 -->
<g id="Node000007" class="node">
<title>Node7</title>
<g id="a_Node000007"><a xlink:title=" ">
<polygon fill="#e0e0e0" stroke="#999999" points="126,-74 82,-74 82,-55 126,-55 126,-74"/>
<text text-anchor="middle" x="104" y="-62" font-family="Helvetica,sans-Serif" font-size="10.00">string</text>
</a>
</g>
</g>
<!-- Node6&#45;&gt;Node7 -->
<g id="edge6_Node000006_Node000007" class="edge">
<title>Node6&#45;&gt;Node7</title>
<g id="a_edge6_Node000006_Node000007"><a xlink:title=" ">
<path fill="none" stroke="#63b8ff" d="M228.22,-109.98C203.19,-101.02 163.63,-86.86 135.9,-76.92"/>
<polygon fill="#63b8ff" stroke="#63b8ff" points="136.86,-73.55 126.27,-73.47 134.5,-80.14 136.86,-73.55"/>
</a>
</g>
</g>
<!-- Node8 -->
<g id="Node000008" class="node">
<title>Node8</title>
<g id="a_Node000008"><a xlink:title=" ">
<polygon fill="#e0e0e0" stroke="#999999" points="223.5,-74 144.5,-74 144.5,-55 223.5,-55 223.5,-74"/>
<text text-anchor="middle" x="184" y="-62" font-family="Helvetica,sans-Serif" font-size="10.00">fmt/format.h</text>
</a>
</g>
</g>
<!-- Node6&#45;&gt;Node8 -->
<g id="edge7_Node000006_Node000008" class="edge">
<title>Node6&#45;&gt;Node8</title>
<g id="a_edge7_Node000006_Node000008"><a xlink:title=" ">
<path fill="none" stroke="#63b8ff" d="M241.07,-109.98C230.92,-102.07 215.58,-90.11 203.35,-80.58"/>
<polygon fill="#63b8ff" stroke="#63b8ff" points="205.16,-77.56 195.12,-74.17 200.86,-83.08 205.16,-77.56"/>
</a>
</g>
</g>
<!-- Node9 -->
<g id="Node000009" class="node">
<title>Node9</title>
<g id="a_Node000009"><a xlink:href="log__level_8h.html" target="_top" xlink:title=" ">
<polygon fill="white" stroke="#666666" points="280,-19 210,-19 210,0 280,0 280,-19"/>
<text text-anchor="middle" x="245" y="-7" font-family="Helvetica,sans-Serif" font-size="10.00">log_level.h</text>
</a>
</g>
</g>
<!-- Node6&#45;&gt;Node9 -->
<g id="edge8_Node000006_Node000009" class="edge">
<title>Node6&#45;&gt;Node9</title>
<g id="a_edge8_Node000006_Node000009"><a xlink:title=" ">
<path fill="none" stroke="#63b8ff" d="M251.43,-109.66C250.29,-92.17 247.74,-52.8 246.22,-29.27"/>
<polygon fill="#63b8ff" stroke="#63b8ff" points="249.7,-28.91 245.56,-19.16 242.72,-29.36 249.7,-28.91"/>
</a>
</g>
</g>
<!-- Node6&#45;&gt;Node10 -->
<g id="edge9_Node000006_Node000010" class="edge">
<title>Node6&#45;&gt;Node10</title>
<g id="a_edge9_Node000006_Node000010"><a xlink:title=" ">
<path fill="none" stroke="#63b8ff" d="M263.09,-109.98C273.49,-102 289.26,-89.88 301.72,-80.31"/>
<polygon fill="#63b8ff" stroke="#63b8ff" points="303.91,-83.04 309.71,-74.17 299.65,-77.49 303.91,-83.04"/>
</a>
</g>
</g>
<!-- Node10&#45;&gt;Node9 -->
<g id="edge12_Node000010_Node000009" class="edge">
<title>Node10&#45;&gt;Node9</title>
<g id="a_edge12_Node000010_Node000009"><a xlink:title=" ">
<path fill="none" stroke="#63b8ff" d="M308.79,-54.98C297.22,-46.92 279.62,-34.65 265.84,-25.03"/>
<polygon fill="#63b8ff" stroke="#63b8ff" points="267.64,-22.02 257.43,-19.17 263.63,-27.76 267.64,-22.02"/>
</a>
</g>
</g>
<!-- Node11 -->
<g id="Node000011" class="node">
<title>Node11</title>
<g id="a_Node000011"><a xlink:title=" ">
<polygon fill="#e0e0e0" stroke="#999999" points="356,-19 298,-19 298,0 356,0 356,-19"/>
<text text-anchor="middle" x="327" y="-7" font-family="Helvetica,sans-Serif" font-size="10.00">memory</text>
</a>
</g>
</g>
<!-- Node10&#45;&gt;Node11 -->
<g id="edge10_Node000010_Node000011" class="edge">
<title>Node10&#45;&gt;Node11</title>
<g id="a_edge10_Node000010_Node000011"><a xlink:title=" ">
<path fill="none" stroke="#63b8ff" d="M321.99,-54.75C322.78,-47.8 323.9,-37.85 324.89,-29.13"/>
<polygon fill="#63b8ff" stroke="#63b8ff" points="328.38,-29.42 326.03,-19.09 321.42,-28.63 328.38,-29.42"/>
</a>
</g>
</g>
<!-- Node12 -->
<g id="Node000012" class="node">
<title>Node12</title>
<g id="a_Node000012"><a xlink:title=" ">
<polygon fill="#e0e0e0" stroke="#999999" points="443.5,-19 374.5,-19 374.5,0 443.5,0 443.5,-19"/>
<text text-anchor="middle" x="409" y="-7" font-family="Helvetica,sans-Serif" font-size="10.00">type_traits</text>
</a>
</g>
</g>
<!-- Node10&#45;&gt;Node12 -->
<g id="edge11_Node000010_Node000012" class="edge">
<title>Node10&#45;&gt;Node12</title>
<g id="a_edge11_Node000010_Node000012"><a xlink:title=" ">
<path fill="none" stroke="#63b8ff" d="M335.14,-54.98C348.79,-46.77 369.69,-34.18 385.78,-24.49"/>
<polygon fill="#63b8ff" stroke="#63b8ff" points="387.84,-27.33 394.6,-19.17 384.23,-21.33 387.84,-27.33"/>
</a>
</g>
</g>
</g>
</svg>
