<?xml version="1.0" encoding="UTF-8" standalone="no"?>
<!DOCTYPE svg PUBLIC "-//W3C//DTD SVG 1.1//EN"
 "http://www.w3.org/Graphics/SVG/1.1/DTD/svg11.dtd">
<!-- Generated by graphviz version 2.43.0 (0)
 -->
<!-- Title: include/mosaic/logger/log_service.h Pages: 1 -->
<svg width="2482pt" height="643pt"
 viewBox="0.00 0.00 2482.00 643.00" xmlns="http://www.w3.org/2000/svg" xmlns:xlink="http://www.w3.org/1999/xlink">
<g id="graph0" class="graph" transform="scale(1 1) rotate(0) translate(4 639)">
<title>include/mosaic/logger/log_service.h</title>
<!-- Node1 -->
<g id="Node000001" class="node">
<title>Node1</title>
<g id="a_Node000001"><a xlink:title=" ">
<polygon fill="#999999" stroke="#666666" points="1190,-635 1066,-635 1066,-605 1190,-605 1190,-635"/>
<text text-anchor="start" x="1074" y="-623" font-family="Helvetica,sans-Serif" font-size="10.00">include/mosaic/logger</text>
<text text-anchor="middle" x="1128" y="-612" font-family="Helvetica,sans-Serif" font-size="10.00">/log_service.h</text>
</a>
</g>
</g>
<!-- Node2 -->
<g id="Node000002" class="node">
<title>Node2</title>
<g id="a_Node000002"><a xlink:href="i__logger_8h.html" target="_top" xlink:title=" ">
<polygon fill="white" stroke="#666666" points="1190,-569 1066,-569 1066,-539 1190,-539 1190,-569"/>
<text text-anchor="start" x="1074" y="-557" font-family="Helvetica,sans-Serif" font-size="10.00">include/mosaic/logger</text>
<text text-anchor="middle" x="1128" y="-546" font-family="Helvetica,sans-Serif" font-size="10.00">/i_logger.h</text>
</a>
</g>
</g>
<!-- Node1&#45;&gt;Node2 -->
<g id="edge1_Node000001_Node000002" class="edge">
<title>Node1&#45;&gt;Node2</title>
<g id="a_edge1_Node000001_Node000002"><a xlink:title=" ">
<path fill="none" stroke="#63b8ff" d="M1128,-594.54C1128,-585.96 1128,-576.61 1128,-569.16"/>
<polygon fill="#63b8ff" stroke="#63b8ff" points="1124.5,-594.8 1128,-604.8 1131.5,-594.8 1124.5,-594.8"/>
</a>
</g>
</g>
<!-- Node4 -->
<g id="Node000004" class="node">
<title>Node4</title>
<g id="a_Node000004"><a xlink:href="log__service_8cpp.html" target="_top" xlink:title=" ">
<polygon fill="white" stroke="#666666" points="160.5,-426 17.5,-426 17.5,-407 160.5,-407 160.5,-426"/>
<text text-anchor="middle" x="89" y="-414" font-family="Helvetica,sans-Serif" font-size="10.00">src/logger/log_service.cpp</text>
</a>
</g>
</g>
<!-- Node1&#45;&gt;Node4 -->
<g id="edge61_Node000001_Node000004" class="edge">
<title>Node1&#45;&gt;Node4</title>
<g id="a_edge61_Node000001_Node000004"><a xlink:title=" ">
<path fill="none" stroke="#63b8ff" d="M1055.82,-606.09C896.52,-577.4 502.93,-505.47 175,-437 158.66,-433.59 140.65,-429.55 125.35,-426.03"/>
<polygon fill="#63b8ff" stroke="#63b8ff" points="1055.51,-609.59 1065.97,-607.92 1056.75,-602.7 1055.51,-609.59"/>
</a>
</g>
</g>
<!-- Node5 -->
<g id="Node000005" class="node">
<title>Node5</title>
<g id="a_Node000005"><a xlink:href="log_8h.html" target="_top" xlink:title=" ">
<polygon fill="white" stroke="#666666" points="1446,-503 1322,-503 1322,-473 1446,-473 1446,-503"/>
<text text-anchor="start" x="1330" y="-491" font-family="Helvetica,sans-Serif" font-size="10.00">include/mosaic/logger</text>
<text text-anchor="middle" x="1384" y="-480" font-family="Helvetica,sans-Serif" font-size="10.00">/log.h</text>
</a>
</g>
</g>
<!-- Node1&#45;&gt;Node5 -->
<g id="edge60_Node000001_Node000005" class="edge">
<title>Node1&#45;&gt;Node5</title>
<g id="a_edge60_Node000001_Node000005"><a xlink:title=" ">
<path fill="none" stroke="#63b8ff" d="M1165.06,-600.18C1216.88,-573.87 1309.82,-526.67 1356.15,-503.14"/>
<polygon fill="#63b8ff" stroke="#63b8ff" points="1163.22,-597.19 1155.88,-604.84 1166.38,-603.43 1163.22,-597.19"/>
</a>
</g>
</g>
<!-- Node3 -->
<g id="Node000003" class="node">
<title>Node3</title>
<g id="a_Node000003"><a xlink:href="console__logger_8h.html" target="_top" xlink:title=" ">
<polygon fill="white" stroke="#666666" points="1050,-503 926,-503 926,-473 1050,-473 1050,-503"/>
<text text-anchor="start" x="934" y="-491" font-family="Helvetica,sans-Serif" font-size="10.00">include/mosaic/logger</text>
<text text-anchor="middle" x="988" y="-480" font-family="Helvetica,sans-Serif" font-size="10.00">/console_logger.h</text>
</a>
</g>
</g>
<!-- Node2&#45;&gt;Node3 -->
<g id="edge2_Node000002_Node000003" class="edge">
<title>Node2&#45;&gt;Node3</title>
<g id="a_edge2_Node000002_Node000003"><a xlink:title=" ">
<path fill="none" stroke="#63b8ff" d="M1088.15,-534.78C1066.08,-524.69 1039.06,-512.34 1018.65,-503.01"/>
<polygon fill="#63b8ff" stroke="#63b8ff" points="1086.73,-537.98 1097.28,-538.95 1089.64,-531.61 1086.73,-537.98"/>
</a>
</g>
</g>
<!-- Node2&#45;&gt;Node5 -->
<g id="edge4_Node000002_Node000005" class="edge">
<title>Node2&#45;&gt;Node5</title>
<g id="a_edge4_Node000002_Node000005"><a xlink:title=" ">
<path fill="none" stroke="#63b8ff" d="M1193.93,-536.52C1235.45,-526.14 1288.47,-512.88 1327.95,-503.01"/>
<polygon fill="#63b8ff" stroke="#63b8ff" points="1193.03,-533.13 1184.18,-538.95 1194.73,-539.92 1193.03,-533.13"/>
</a>
</g>
</g>
<!-- Node3&#45;&gt;Node4 -->
<g id="edge3_Node000003_Node000004" class="edge">
<title>Node3&#45;&gt;Node4</title>
<g id="a_edge3_Node000003_Node000004"><a xlink:title=" ">
<path fill="none" stroke="#63b8ff" d="M915.6,-486.46C773.09,-484.54 446.43,-475.86 175,-437 156.97,-434.42 137.11,-430.02 121.03,-426.06"/>
<polygon fill="#63b8ff" stroke="#63b8ff" points="915.91,-489.96 925.95,-486.59 916,-482.97 915.91,-489.96"/>
</a>
</g>
</g>
<!-- Node6 -->
<g id="Node000006" class="node">
<title>Node6</title>
<g id="a_Node000006"><a xlink:href="data__channel__receivable_8h.html" target="_top" xlink:title=" ">
<polygon fill="white" stroke="#666666" points="2302.5,-283 2149.5,-283 2149.5,-242 2302.5,-242 2302.5,-283"/>
<text text-anchor="start" x="2157.5" y="-271" font-family="Helvetica,sans-Serif" font-size="10.00">include/mosaic/handlers</text>
<text text-anchor="start" x="2157.5" y="-260" font-family="Helvetica,sans-Serif" font-size="10.00">/data_channel/data_channel</text>
<text text-anchor="middle" x="2226" y="-249" font-family="Helvetica,sans-Serif" font-size="10.00">_receivable.h</text>
</a>
</g>
</g>
<!-- Node5&#45;&gt;Node6 -->
<g id="edge5_Node000005_Node000006" class="edge">
<title>Node5&#45;&gt;Node6</title>
<g id="a_edge5_Node000005_Node000006"><a xlink:title=" ">
<path fill="none" stroke="#63b8ff" d="M1456.25,-486.01C1677.69,-482.63 2333.78,-469.85 2365,-437 2414.72,-384.68 2317.63,-316.22 2261.69,-283.12"/>
<polygon fill="#63b8ff" stroke="#63b8ff" points="1455.99,-482.51 1446.04,-486.16 1456.09,-489.51 1455.99,-482.51"/>
</a>
</g>
</g>
<!-- Node7 -->
<g id="Node000007" class="node">
<title>Node7</title>
<g id="a_Node000007"><a xlink:href="a__data__channel__handler_8cpp.html" target="_top" xlink:title=" ">
<polygon fill="white" stroke="#666666" points="2474,-195 2316,-195 2316,-165 2474,-165 2474,-195"/>
<text text-anchor="start" x="2324" y="-183" font-family="Helvetica,sans-Serif" font-size="10.00">src/handlers/data_channel</text>
<text text-anchor="middle" x="2395" y="-172" font-family="Helvetica,sans-Serif" font-size="10.00">/a_data_channel_handler.cpp</text>
</a>
</g>
</g>
<!-- Node5&#45;&gt;Node7 -->
<g id="edge52_Node000005_Node000007" class="edge">
<title>Node5&#45;&gt;Node7</title>
<g id="a_edge52_Node000005_Node000007"><a xlink:title=" ">
<path fill="none" stroke="#63b8ff" d="M1456.16,-486.03C1680.46,-482.69 2352.4,-469.95 2385,-437 2451.31,-369.96 2414.65,-238.39 2400.09,-195.15"/>
<polygon fill="#63b8ff" stroke="#63b8ff" points="1456.09,-482.53 1446.14,-486.18 1456.19,-489.53 1456.09,-482.53"/>
</a>
</g>
</g>
<!-- Node9 -->
<g id="Node000009" class="node">
<title>Node9</title>
<g id="a_Node000009"><a xlink:href="data__channel__sendable_8h.html" target="_top" xlink:title=" ">
<polygon fill="white" stroke="#666666" points="1655.5,-283 1502.5,-283 1502.5,-242 1655.5,-242 1655.5,-283"/>
<text text-anchor="start" x="1510.5" y="-271" font-family="Helvetica,sans-Serif" font-size="10.00">include/mosaic/handlers</text>
<text text-anchor="start" x="1510.5" y="-260" font-family="Helvetica,sans-Serif" font-size="10.00">/data_channel/data_channel</text>
<text text-anchor="middle" x="1579" y="-249" font-family="Helvetica,sans-Serif" font-size="10.00">_sendable.h</text>
</a>
</g>
</g>
<!-- Node5&#45;&gt;Node9 -->
<g id="edge8_Node000005_Node000009" class="edge">
<title>Node5&#45;&gt;Node9</title>
<g id="a_edge8_Node000005_Node000009"><a xlink:title=" ">
<path fill="none" stroke="#63b8ff" d="M1368.16,-464.29C1356.92,-445.15 1345.82,-417.5 1358,-396 1390.96,-337.81 1460.79,-302.39 1513.19,-283"/>
<polygon fill="#63b8ff" stroke="#63b8ff" points="1365.31,-466.33 1373.58,-472.95 1371.24,-462.62 1365.31,-466.33"/>
</a>
</g>
</g>
<!-- Node10 -->
<g id="Node000010" class="node">
<title>Node10</title>
<g id="a_Node000010"><a xlink:href="data__channel__sendable_8cpp.html" target="_top" xlink:title=" ">
<polygon fill="white" stroke="#666666" points="1656.5,-195 1501.5,-195 1501.5,-165 1656.5,-165 1656.5,-195"/>
<text text-anchor="start" x="1509.5" y="-183" font-family="Helvetica,sans-Serif" font-size="10.00">src/handlers/data_channel</text>
<text text-anchor="middle" x="1579" y="-172" font-family="Helvetica,sans-Serif" font-size="10.00">/data_channel_sendable.cpp</text>
</a>
</g>
</g>
<!-- Node5&#45;&gt;Node10 -->
<g id="edge53_Node000005_Node000010" class="edge">
<title>Node5&#45;&gt;Node10</title>
<g id="a_edge53_Node000005_Node000010"><a xlink:title=" ">
<path fill="none" stroke="#63b8ff" d="M1363.46,-464.76C1357.24,-456.64 1351.22,-446.97 1348,-437 1331.17,-384.82 1348.84,-361.07 1384,-319 1431.87,-261.72 1508.83,-216.76 1550.3,-195.12"/>
<polygon fill="#63b8ff" stroke="#63b8ff" points="1360.85,-467.11 1369.89,-472.63 1366.27,-462.67 1360.85,-467.11"/>
</a>
</g>
</g>
<!-- Node11 -->
<g id="Node000011" class="node">
<title>Node11</title>
<g id="a_Node000011"><a xlink:href="i__data__channel__handler_8h.html" target="_top" xlink:title=" ">
<polygon fill="white" stroke="#666666" points="1191.5,-437 1030.5,-437 1030.5,-396 1191.5,-396 1191.5,-437"/>
<text text-anchor="start" x="1038.5" y="-425" font-family="Helvetica,sans-Serif" font-size="10.00">include/mosaic/handlers</text>
<text text-anchor="start" x="1038.5" y="-414" font-family="Helvetica,sans-Serif" font-size="10.00">/data_channel/i_data_channel</text>
<text text-anchor="middle" x="1111" y="-403" font-family="Helvetica,sans-Serif" font-size="10.00">_handler.h</text>
</a>
</g>
</g>
<!-- Node5&#45;&gt;Node11 -->
<g id="edge10_Node000005_Node000011" class="edge">
<title>Node5&#45;&gt;Node11</title>
<g id="a_edge10_Node000005_Node000011"><a xlink:title=" ">
<path fill="none" stroke="#63b8ff" d="M1318.98,-470.45C1279.54,-460.41 1229.01,-447.54 1187.63,-437.01"/>
<polygon fill="#63b8ff" stroke="#63b8ff" points="1318.2,-473.86 1328.75,-472.94 1319.93,-467.08 1318.2,-473.86"/>
</a>
</g>
</g>
<!-- Node26 -->
<g id="Node000026" class="node">
<title>Node26</title>
<g id="a_Node000026"><a xlink:href="peer__connection__manager_8cpp.html" target="_top" xlink:title=" ">
<polygon fill="white" stroke="#666666" points="478,-195 340,-195 340,-165 478,-165 478,-195"/>
<text text-anchor="start" x="348" y="-183" font-family="Helvetica,sans-Serif" font-size="10.00">src/core/peer_connection</text>
<text text-anchor="middle" x="409" y="-172" font-family="Helvetica,sans-Serif" font-size="10.00">_manager.cpp</text>
</a>
</g>
</g>
<!-- Node5&#45;&gt;Node26 -->
<g id="edge50_Node000005_Node000026" class="edge">
<title>Node5&#45;&gt;Node26</title>
<g id="a_edge50_Node000005_Node000026"><a xlink:title=" ">
<path fill="none" stroke="#63b8ff" d="M1311.8,-484.39C1132.9,-476.64 674.91,-448.43 555,-360 507.81,-325.2 534.29,-286.41 496,-242 479.14,-222.44 454.7,-206.03 436.01,-195.17"/>
<polygon fill="#63b8ff" stroke="#63b8ff" points="1311.76,-487.9 1321.89,-484.82 1312.05,-480.9 1311.76,-487.9"/>
</a>
</g>
</g>
<!-- Node28 -->
<g id="Node000028" class="node">
<title>Node28</title>
<g id="a_Node000028"><a xlink:href="mosaic__connector_8cpp.html" target="_top" xlink:title=" ">
<polygon fill="white" stroke="#666666" points="166,-189.5 0,-189.5 0,-170.5 166,-170.5 166,-189.5"/>
<text text-anchor="middle" x="83" y="-177.5" font-family="Helvetica,sans-Serif" font-size="10.00">src/core/mosaic_connector.cpp</text>
</a>
</g>
</g>
<!-- Node5&#45;&gt;Node28 -->
<g id="edge49_Node000005_Node000028" class="edge">
<title>Node5&#45;&gt;Node28</title>
<g id="a_edge49_Node000005_Node000028"><a xlink:title=" ">
<path fill="none" stroke="#63b8ff" d="M1311.88,-483.64C1094.9,-473.47 461.78,-443.33 441,-437 277.27,-387.15 125.97,-228.54 90.71,-189.66"/>
<polygon fill="#63b8ff" stroke="#63b8ff" points="1311.74,-487.14 1321.89,-484.11 1312.06,-480.14 1311.74,-487.14"/>
</a>
</g>
</g>
<!-- Node29 -->
<g id="Node000029" class="node">
<title>Node29</title>
<g id="a_Node000029"><a xlink:href="peer__connection__observer_8cpp.html" target="_top" xlink:title=" ">
<polygon fill="white" stroke="#666666" points="322,-195 184,-195 184,-165 322,-165 322,-195"/>
<text text-anchor="start" x="192" y="-183" font-family="Helvetica,sans-Serif" font-size="10.00">src/core/peer_connection</text>
<text text-anchor="middle" x="253" y="-172" font-family="Helvetica,sans-Serif" font-size="10.00">_observer.cpp</text>
</a>
</g>
</g>
<!-- Node5&#45;&gt;Node29 -->
<g id="edge51_Node000005_Node000029" class="edge">
<title>Node5&#45;&gt;Node29</title>
<g id="a_edge51_Node000005_Node000029"><a xlink:title=" ">
<path fill="none" stroke="#63b8ff" d="M1311.63,-483.66C1135.32,-475.3 693.2,-453.05 628,-437 463.77,-396.58 389.79,-411.65 280,-283 258.36,-257.64 253.84,-216.78 253.04,-195.28"/>
<polygon fill="#63b8ff" stroke="#63b8ff" points="1311.69,-487.16 1321.85,-484.14 1312.02,-480.17 1311.69,-487.16"/>
</a>
</g>
</g>
<!-- Node31 -->
<g id="Node000031" class="node">
<title>Node31</title>
<g id="a_Node000031"><a xlink:href="signaling__client_8cpp.html" target="_top" xlink:title=" ">
<polygon fill="white" stroke="#666666" points="1483.5,-195 1358.5,-195 1358.5,-165 1483.5,-165 1483.5,-195"/>
<text text-anchor="start" x="1366.5" y="-183" font-family="Helvetica,sans-Serif" font-size="10.00">src/signaling/signaling</text>
<text text-anchor="middle" x="1421" y="-172" font-family="Helvetica,sans-Serif" font-size="10.00">_client.cpp</text>
</a>
</g>
</g>
<!-- Node5&#45;&gt;Node31 -->
<g id="edge58_Node000005_Node000031" class="edge">
<title>Node5&#45;&gt;Node31</title>
<g id="a_edge58_Node000005_Node000031"><a xlink:title=" ">
<path fill="none" stroke="#63b8ff" d="M1323.98,-468.68C1309.38,-461.25 1295.53,-451 1287,-437 1241.89,-363 1240.1,-314.88 1287,-242 1292.74,-233.08 1347.38,-210.08 1385.09,-195.01"/>
<polygon fill="#63b8ff" stroke="#63b8ff" points="1322.58,-471.89 1333.12,-472.95 1325.54,-465.55 1322.58,-471.89"/>
</a>
</g>
</g>
<!-- Node33 -->
<g id="Node000033" class="node">
<title>Node33</title>
<g id="a_Node000033"><a xlink:href="logger_8h.html" target="_top" xlink:title=" ">
<polygon fill="white" stroke="#666666" points="1491,-431.5 1367,-431.5 1367,-401.5 1491,-401.5 1491,-431.5"/>
<text text-anchor="start" x="1375" y="-419.5" font-family="Helvetica,sans-Serif" font-size="10.00">include/mosaic/logger</text>
<text text-anchor="middle" x="1429" y="-408.5" font-family="Helvetica,sans-Serif" font-size="10.00">/logger.h</text>
</a>
</g>
</g>
<!-- Node5&#45;&gt;Node33 -->
<g id="edge47_Node000005_Node000033" class="edge">
<title>Node5&#45;&gt;Node33</title>
<g id="a_edge47_Node000005_Node000033"><a xlink:title=" ">
<path fill="none" stroke="#63b8ff" d="M1398.64,-464.38C1405.65,-453.57 1413.81,-440.96 1419.91,-431.54"/>
<polygon fill="#63b8ff" stroke="#63b8ff" points="1395.6,-462.64 1393.11,-472.94 1401.48,-466.44 1395.6,-462.64"/>
</a>
</g>
</g>
<!-- Node34 -->
<g id="Node000034" class="node">
<title>Node34</title>
<g id="a_Node000034"><a xlink:href="connector__state__manager_8cpp.html" target="_top" xlink:title=" ">
<polygon fill="white" stroke="#666666" points="1624.5,-431.5 1509.5,-431.5 1509.5,-401.5 1624.5,-401.5 1624.5,-431.5"/>
<text text-anchor="start" x="1517.5" y="-419.5" font-family="Helvetica,sans-Serif" font-size="10.00">src/core/connector</text>
<text text-anchor="middle" x="1567" y="-408.5" font-family="Helvetica,sans-Serif" font-size="10.00">_state_manager.cpp</text>
</a>
</g>
</g>
<!-- Node5&#45;&gt;Node34 -->
<g id="edge48_Node000005_Node000034" class="edge">
<title>Node5&#45;&gt;Node34</title>
<g id="a_edge48_Node000005_Node000034"><a xlink:title=" ">
<path fill="none" stroke="#63b8ff" d="M1430.7,-469.26C1461.54,-457.55 1501.39,-442.42 1530.02,-431.54"/>
<polygon fill="#63b8ff" stroke="#63b8ff" points="1429.14,-466.11 1421.03,-472.94 1431.62,-472.66 1429.14,-466.11"/>
</a>
</g>
</g>
<!-- Node35 -->
<g id="Node000035" class="node">
<title>Node35</title>
<g id="a_Node000035"><a xlink:href="a__media__track__handler_8cpp.html" target="_top" xlink:title=" ">
<polygon fill="white" stroke="#666666" points="1765,-437 1643,-437 1643,-396 1765,-396 1765,-437"/>
<text text-anchor="start" x="1651" y="-425" font-family="Helvetica,sans-Serif" font-size="10.00">src/handlers/media</text>
<text text-anchor="start" x="1651" y="-414" font-family="Helvetica,sans-Serif" font-size="10.00">_track/a_media_track</text>
<text text-anchor="middle" x="1704" y="-403" font-family="Helvetica,sans-Serif" font-size="10.00">_handler.cpp</text>
</a>
</g>
</g>
<!-- Node5&#45;&gt;Node35 -->
<g id="edge54_Node000005_Node000035" class="edge">
<title>Node5&#45;&gt;Node35</title>
<g id="a_edge54_Node000005_Node000035"><a xlink:title=" ">
<path fill="none" stroke="#63b8ff" d="M1456.27,-474.02C1506.36,-464.66 1574.49,-451.22 1634,-437 1636.94,-436.3 1639.95,-435.55 1642.99,-434.78"/>
<polygon fill="#63b8ff" stroke="#63b8ff" points="1455.37,-470.62 1446.18,-475.89 1456.65,-477.51 1455.37,-470.62"/>
</a>
</g>
</g>
<!-- Node36 -->
<g id="Node000036" class="node">
<title>Node36</title>
<g id="a_Node000036"><a xlink:href="recordable_8cpp.html" target="_top" xlink:title=" ">
<polygon fill="white" stroke="#666666" points="1905,-431.5 1783,-431.5 1783,-401.5 1905,-401.5 1905,-431.5"/>
<text text-anchor="start" x="1791" y="-419.5" font-family="Helvetica,sans-Serif" font-size="10.00">src/handlers/media</text>
<text text-anchor="middle" x="1844" y="-408.5" font-family="Helvetica,sans-Serif" font-size="10.00">_track/recordable.cpp</text>
</a>
</g>
</g>
<!-- Node5&#45;&gt;Node36 -->
<g id="edge55_Node000005_Node000036" class="edge">
<title>Node5&#45;&gt;Node36</title>
<g id="a_edge55_Node000005_Node000036"><a xlink:title=" ">
<path fill="none" stroke="#63b8ff" d="M1456.55,-480.85C1535.25,-473.46 1664.34,-459.18 1774,-437 1781.54,-435.47 1789.47,-433.57 1797.16,-431.55"/>
<polygon fill="#63b8ff" stroke="#63b8ff" points="1455.89,-477.4 1446.26,-481.81 1456.54,-484.37 1455.89,-477.4"/>
</a>
</g>
</g>
<!-- Node37 -->
<g id="Node000037" class="node">
<title>Node37</title>
<g id="a_Node000037"><a xlink:href="a__mosaic__authenticator_8cpp.html" target="_top" xlink:title=" ">
<polygon fill="white" stroke="#666666" points="2045,-431.5 1923,-431.5 1923,-401.5 2045,-401.5 2045,-431.5"/>
<text text-anchor="start" x="1931" y="-419.5" font-family="Helvetica,sans-Serif" font-size="10.00">src/security/a_mosaic</text>
<text text-anchor="middle" x="1984" y="-408.5" font-family="Helvetica,sans-Serif" font-size="10.00">_authenticator.cpp</text>
</a>
</g>
</g>
<!-- Node5&#45;&gt;Node37 -->
<g id="edge56_Node000005_Node000037" class="edge">
<title>Node5&#45;&gt;Node37</title>
<g id="a_edge56_Node000005_Node000037"><a xlink:title=" ">
<path fill="none" stroke="#63b8ff" d="M1456.34,-484.25C1558.9,-479.42 1752.11,-466.94 1914,-437 1921.82,-435.55 1930.02,-433.64 1937.96,-431.57"/>
<polygon fill="#63b8ff" stroke="#63b8ff" points="1455.93,-480.76 1446.1,-484.72 1456.25,-487.75 1455.93,-480.76"/>
</a>
</g>
</g>
<!-- Node38 -->
<g id="Node000038" class="node">
<title>Node38</title>
<g id="a_Node000038"><a xlink:href="authenticator__resolver_8cpp.html" target="_top" xlink:title=" ">
<polygon fill="white" stroke="#666666" points="2204.5,-431.5 2063.5,-431.5 2063.5,-401.5 2204.5,-401.5 2204.5,-431.5"/>
<text text-anchor="start" x="2071.5" y="-419.5" font-family="Helvetica,sans-Serif" font-size="10.00">src/security/authenticator</text>
<text text-anchor="middle" x="2134" y="-408.5" font-family="Helvetica,sans-Serif" font-size="10.00">_resolver.cpp</text>
</a>
</g>
</g>
<!-- Node5&#45;&gt;Node38 -->
<g id="edge57_Node000005_Node000038" class="edge">
<title>Node5&#45;&gt;Node38</title>
<g id="a_edge57_Node000005_Node000038"><a xlink:title=" ">
<path fill="none" stroke="#63b8ff" d="M1456.36,-485.5C1579.71,-482.07 1838.28,-471.1 2054,-437 2063.04,-435.57 2072.56,-433.64 2081.75,-431.54"/>
<polygon fill="#63b8ff" stroke="#63b8ff" points="1456.18,-482 1446.28,-485.77 1456.37,-489 1456.18,-482"/>
</a>
</g>
</g>
<!-- Node39 -->
<g id="Node000039" class="node">
<title>Node39</title>
<g id="a_Node000039"><a xlink:href="websocket__client_8cpp.html" target="_top" xlink:title=" ">
<polygon fill="white" stroke="#666666" points="2355.5,-431.5 2222.5,-431.5 2222.5,-401.5 2355.5,-401.5 2355.5,-431.5"/>
<text text-anchor="start" x="2230.5" y="-419.5" font-family="Helvetica,sans-Serif" font-size="10.00">src/signaling/websocket</text>
<text text-anchor="middle" x="2289" y="-408.5" font-family="Helvetica,sans-Serif" font-size="10.00">_client.cpp</text>
</a>
</g>
</g>
<!-- Node5&#45;&gt;Node39 -->
<g id="edge59_Node000005_Node000039" class="edge">
<title>Node5&#45;&gt;Node39</title>
<g id="a_edge59_Node000005_Node000039"><a xlink:title=" ">
<path fill="none" stroke="#63b8ff" d="M1456.22,-487.34C1600.95,-487 1936.4,-481.02 2214,-437 2222.64,-435.63 2231.72,-433.7 2240.47,-431.58"/>
<polygon fill="#63b8ff" stroke="#63b8ff" points="1456.13,-483.84 1446.14,-487.36 1456.14,-490.84 1456.13,-483.84"/>
</a>
</g>
</g>
<!-- Node6&#45;&gt;Node7 -->
<g id="edge6_Node000006_Node000007" class="edge">
<title>Node6&#45;&gt;Node7</title>
<g id="a_edge6_Node000006_Node000007"><a xlink:title=" ">
<path fill="none" stroke="#63b8ff" d="M2276.51,-237.44C2305.53,-223.62 2340.96,-206.74 2365.48,-195.06"/>
<polygon fill="#63b8ff" stroke="#63b8ff" points="2274.87,-234.35 2267.34,-241.81 2277.88,-240.67 2274.87,-234.35"/>
</a>
</g>
</g>
<!-- Node8 -->
<g id="Node000008" class="node">
<title>Node8</title>
<g id="a_Node000008"><a xlink:href="data__channel__receivable_8cpp.html" target="_top" xlink:title=" ">
<polygon fill="white" stroke="#666666" points="2297.5,-195 2136.5,-195 2136.5,-165 2297.5,-165 2297.5,-195"/>
<text text-anchor="start" x="2144.5" y="-183" font-family="Helvetica,sans-Serif" font-size="10.00">src/handlers/data_channel</text>
<text text-anchor="middle" x="2217" y="-172" font-family="Helvetica,sans-Serif" font-size="10.00">/data_channel_receivable.cpp</text>
</a>
</g>
</g>
<!-- Node6&#45;&gt;Node8 -->
<g id="edge7_Node000006_Node000008" class="edge">
<title>Node6&#45;&gt;Node8</title>
<g id="a_edge7_Node000006_Node000008"><a xlink:title=" ">
<path fill="none" stroke="#63b8ff" d="M2222.66,-231.63C2221.27,-219.23 2219.73,-205.43 2218.61,-195.37"/>
<polygon fill="#63b8ff" stroke="#63b8ff" points="2219.19,-232.05 2223.78,-241.6 2226.14,-231.27 2219.19,-232.05"/>
</a>
</g>
</g>
<!-- Node9&#45;&gt;Node10 -->
<g id="edge9_Node000009_Node000010" class="edge">
<title>Node9&#45;&gt;Node10</title>
<g id="a_edge9_Node000009_Node000010"><a xlink:title=" ">
<path fill="none" stroke="#63b8ff" d="M1579,-231.26C1579,-218.96 1579,-205.33 1579,-195.37"/>
<polygon fill="#63b8ff" stroke="#63b8ff" points="1575.5,-231.6 1579,-241.6 1582.5,-231.6 1575.5,-231.6"/>
</a>
</g>
</g>
<!-- Node12 -->
<g id="Node000012" class="node">
<title>Node12</title>
<g id="a_Node000012"><a xlink:href="auto__configurer_8h.html" target="_top" xlink:title=" ">
<polygon fill="white" stroke="#666666" points="1176,-195 1018,-195 1018,-165 1176,-165 1176,-195"/>
<text text-anchor="start" x="1026" y="-183" font-family="Helvetica,sans-Serif" font-size="10.00">include/mosaic/auto</text>
<text text-anchor="middle" x="1097" y="-172" font-family="Helvetica,sans-Serif" font-size="10.00">_configurer/auto_configurer.h</text>
</a>
</g>
</g>
<!-- Node11&#45;&gt;Node12 -->
<g id="edge11_Node000011_Node000012" class="edge">
<title>Node11&#45;&gt;Node12</title>
<g id="a_edge11_Node000011_Node000012"><a xlink:title=" ">
<path fill="none" stroke="#63b8ff" d="M1103.34,-385.93C1095.29,-351.48 1084.27,-292.81 1088,-242 1089.18,-225.99 1092.06,-207.8 1094.25,-195.48"/>
<polygon fill="#63b8ff" stroke="#63b8ff" points="1099.98,-386.9 1105.72,-395.8 1106.78,-385.26 1099.98,-386.9"/>
</a>
</g>
</g>
<!-- Node14 -->
<g id="Node000014" class="node">
<title>Node14</title>
<g id="a_Node000014"><a xlink:href="mosaic__connector_8h.html" target="_top" xlink:title=" ">
<polygon fill="white" stroke="#666666" points="680,-354.5 564,-354.5 564,-324.5 680,-324.5 680,-354.5"/>
<text text-anchor="start" x="572" y="-342.5" font-family="Helvetica,sans-Serif" font-size="10.00">include/mosaic/core</text>
<text text-anchor="middle" x="622" y="-331.5" font-family="Helvetica,sans-Serif" font-size="10.00">/mosaic_connector.h</text>
</a>
</g>
</g>
<!-- Node11&#45;&gt;Node14 -->
<g id="edge13_Node000011_Node000014" class="edge">
<title>Node11&#45;&gt;Node14</title>
<g id="a_edge13_Node000011_Node000014"><a xlink:title=" ">
<path fill="none" stroke="#63b8ff" d="M1020.22,-401.58C920.82,-386.33 764.38,-362.34 680.22,-349.43"/>
<polygon fill="#63b8ff" stroke="#63b8ff" points="1019.84,-405.06 1030.25,-403.12 1020.9,-398.14 1019.84,-405.06"/>
</a>
</g>
</g>
<!-- Node32 -->
<g id="Node000032" class="node">
<title>Node32</title>
<g id="a_Node000032"><a xlink:href="a__data__channel__handler_8h.html" target="_top" xlink:title=" ">
<polygon fill="white" stroke="#666666" points="1984,-360 1820,-360 1820,-319 1984,-319 1984,-360"/>
<text text-anchor="start" x="1828" y="-348" font-family="Helvetica,sans-Serif" font-size="10.00">include/mosaic/handlers</text>
<text text-anchor="start" x="1828" y="-337" font-family="Helvetica,sans-Serif" font-size="10.00">/data_channel/a_data_channel</text>
<text text-anchor="middle" x="1902" y="-326" font-family="Helvetica,sans-Serif" font-size="10.00">_handler.h</text>
</a>
</g>
</g>
<!-- Node11&#45;&gt;Node32 -->
<g id="edge43_Node000011_Node000032" class="edge">
<title>Node11&#45;&gt;Node32</title>
<g id="a_edge43_Node000011_Node000032"><a xlink:title=" ">
<path fill="none" stroke="#63b8ff" d="M1201.55,-406.91C1356.65,-392.21 1670.81,-362.42 1819.9,-348.28"/>
<polygon fill="#63b8ff" stroke="#63b8ff" points="1201.19,-403.43 1191.57,-407.86 1201.85,-410.4 1201.19,-403.43"/>
</a>
</g>
</g>
<!-- Node13 -->
<g id="Node000013" class="node">
<title>Node13</title>
<g id="a_Node000013"><a xlink:href="auto__configurer_8cpp.html" target="_top" xlink:title=" ">
<polygon fill="white" stroke="#666666" points="804.5,-30 689.5,-30 689.5,0 804.5,0 804.5,-30"/>
<text text-anchor="start" x="697.5" y="-18" font-family="Helvetica,sans-Serif" font-size="10.00">src/auto_configurer</text>
<text text-anchor="middle" x="747" y="-7" font-family="Helvetica,sans-Serif" font-size="10.00">/auto_configurer.cpp</text>
</a>
</g>
</g>
<!-- Node12&#45;&gt;Node13 -->
<g id="edge12_Node000012_Node000013" class="edge">
<title>Node12&#45;&gt;Node13</title>
<g id="a_edge12_Node000012_Node000013"><a xlink:title=" ">
<path fill="none" stroke="#63b8ff" d="M1084.68,-156.02C1069.38,-129.85 1040.75,-87.88 1004,-66 1002.92,-65.36 880.13,-41.63 804.69,-27.1"/>
<polygon fill="#63b8ff" stroke="#63b8ff" points="1081.73,-157.91 1089.7,-164.88 1087.81,-154.46 1081.73,-157.91"/>
</a>
</g>
</g>
<!-- Node15 -->
<g id="Node000015" class="node">
<title>Node15</title>
<g id="a_Node000015"><a xlink:href="i__configurable__connector_8h.html" target="_top" xlink:title=" ">
<polygon fill="white" stroke="#666666" points="867.5,-283 718.5,-283 718.5,-242 867.5,-242 867.5,-283"/>
<text text-anchor="start" x="726.5" y="-271" font-family="Helvetica,sans-Serif" font-size="10.00">include/mosaic/auto</text>
<text text-anchor="start" x="726.5" y="-260" font-family="Helvetica,sans-Serif" font-size="10.00">_configurer/connector</text>
<text text-anchor="middle" x="793" y="-249" font-family="Helvetica,sans-Serif" font-size="10.00">/i_configurable_connector.h</text>
</a>
</g>
</g>
<!-- Node14&#45;&gt;Node15 -->
<g id="edge14_Node000014_Node000015" class="edge">
<title>Node14&#45;&gt;Node15</title>
<g id="a_edge14_Node000014_Node000015"><a xlink:title=" ">
<path fill="none" stroke="#63b8ff" d="M663.62,-320.25C689.29,-308.99 722.19,-294.56 748.4,-283.06"/>
<polygon fill="#63b8ff" stroke="#63b8ff" points="661.92,-317.17 654.16,-324.39 664.73,-323.58 661.92,-317.17"/>
</a>
</g>
</g>
<!-- Node23 -->
<g id="Node000023" class="node">
<title>Node23</title>
<g id="a_Node000023"><a xlink:href="mosaic__connector__factory_8h.html" target="_top" xlink:title=" ">
<polygon fill="white" stroke="#666666" points="1040.5,-277.5 885.5,-277.5 885.5,-247.5 1040.5,-247.5 1040.5,-277.5"/>
<text text-anchor="start" x="893.5" y="-265.5" font-family="Helvetica,sans-Serif" font-size="10.00">include/mosaic/core</text>
<text text-anchor="middle" x="963" y="-254.5" font-family="Helvetica,sans-Serif" font-size="10.00">/mosaic_connector_factory.h</text>
</a>
</g>
</g>
<!-- Node14&#45;&gt;Node23 -->
<g id="edge28_Node000014_Node000023" class="edge">
<title>Node14&#45;&gt;Node23</title>
<g id="a_edge28_Node000014_Node000023"><a xlink:title=" ">
<path fill="none" stroke="#63b8ff" d="M689.97,-323.75C741.14,-312.62 812.99,-296.94 876,-283 883.86,-281.26 892.11,-279.42 900.28,-277.6"/>
<polygon fill="#63b8ff" stroke="#63b8ff" points="689.05,-320.37 680.03,-325.91 690.54,-327.21 689.05,-320.37"/>
</a>
</g>
</g>
<!-- Node25 -->
<g id="Node000025" class="node">
<title>Node25</title>
<g id="a_Node000025"><a xlink:href="peer__connection__manager_8h.html" target="_top" xlink:title=" ">
<polygon fill="white" stroke="#666666" points="700.5,-277.5 543.5,-277.5 543.5,-247.5 700.5,-247.5 700.5,-277.5"/>
<text text-anchor="start" x="551.5" y="-265.5" font-family="Helvetica,sans-Serif" font-size="10.00">include/mosaic/core</text>
<text text-anchor="middle" x="622" y="-254.5" font-family="Helvetica,sans-Serif" font-size="10.00">/peer_connection_manager.h</text>
</a>
</g>
</g>
<!-- Node14&#45;&gt;Node25 -->
<g id="edge31_Node000014_Node000025" class="edge">
<title>Node14&#45;&gt;Node25</title>
<g id="a_edge31_Node000014_Node000025"><a xlink:title=" ">
<path fill="none" stroke="#63b8ff" d="M615.65,-314.41C614.89,-302.24 615.21,-287.9 616.6,-277.54"/>
<polygon fill="#63b8ff" stroke="#63b8ff" points="612.17,-314.76 616.59,-324.39 619.14,-314.11 612.17,-314.76"/>
</a>
</g>
</g>
<!-- Node27 -->
<g id="Node000027" class="node">
<title>Node27</title>
<g id="a_Node000027"><a xlink:href="peer__connection__observer_8h.html" target="_top" xlink:title=" ">
<polygon fill="white" stroke="#666666" points="487,-277.5 331,-277.5 331,-247.5 487,-247.5 487,-277.5"/>
<text text-anchor="start" x="339" y="-265.5" font-family="Helvetica,sans-Serif" font-size="10.00">include/mosaic/core</text>
<text text-anchor="middle" x="409" y="-254.5" font-family="Helvetica,sans-Serif" font-size="10.00">/peer_connection_observer.h</text>
</a>
</g>
</g>
<!-- Node14&#45;&gt;Node27 -->
<g id="edge34_Node000014_Node000027" class="edge">
<title>Node14&#45;&gt;Node27</title>
<g id="a_edge34_Node000014_Node000027"><a xlink:title=" ">
<path fill="none" stroke="#63b8ff" d="M572.2,-320.97C534.64,-307.74 483.79,-289.83 448.88,-277.54"/>
<polygon fill="#63b8ff" stroke="#63b8ff" points="571.34,-324.37 581.94,-324.39 573.67,-317.77 571.34,-324.37"/>
</a>
</g>
</g>
<!-- Node14&#45;&gt;Node28 -->
<g id="edge41_Node000014_Node000028" class="edge">
<title>Node14&#45;&gt;Node28</title>
<g id="a_edge41_Node000014_Node000028"><a xlink:title=" ">
<path fill="none" stroke="#63b8ff" d="M553.68,-334.03C483.49,-327.92 371.82,-313.95 280,-283 243.26,-270.62 237.39,-259.9 203,-242 166.51,-223.01 123.48,-201.3 100.14,-189.59"/>
<polygon fill="#63b8ff" stroke="#63b8ff" points="553.47,-337.53 563.73,-334.88 554.06,-330.55 553.47,-337.53"/>
</a>
</g>
</g>
<!-- Node14&#45;&gt;Node29 -->
<g id="edge42_Node000014_Node000029" class="edge">
<title>Node14&#45;&gt;Node29</title>
<g id="a_edge42_Node000014_Node000029"><a xlink:title=" ">
<path fill="none" stroke="#63b8ff" d="M553.82,-332.04C477.41,-323.74 359.33,-307.43 322,-283 288.9,-261.34 267.61,-217.72 258.34,-195.19"/>
<polygon fill="#63b8ff" stroke="#63b8ff" points="553.53,-335.53 563.85,-333.11 554.27,-328.56 553.53,-335.53"/>
</a>
</g>
</g>
<!-- Node30 -->
<g id="Node000030" class="node">
<title>Node30</title>
<g id="a_Node000030"><a xlink:href="signaling__client_8h.html" target="_top" xlink:title=" ">
<polygon fill="white" stroke="#666666" points="1234.5,-277.5 1097.5,-277.5 1097.5,-247.5 1234.5,-247.5 1234.5,-277.5"/>
<text text-anchor="start" x="1105.5" y="-265.5" font-family="Helvetica,sans-Serif" font-size="10.00">include/mosaic/signaling</text>
<text text-anchor="middle" x="1166" y="-254.5" font-family="Helvetica,sans-Serif" font-size="10.00">/signaling_client.h</text>
</a>
</g>
</g>
<!-- Node14&#45;&gt;Node30 -->
<g id="edge38_Node000014_Node000030" class="edge">
<title>Node14&#45;&gt;Node30</title>
<g id="a_edge38_Node000014_Node000030"><a xlink:title=" ">
<path fill="none" stroke="#63b8ff" d="M690.07,-330.42C774.43,-320.22 922.52,-301.75 1049,-283 1064.68,-280.67 1081.52,-277.98 1097.39,-275.36"/>
<polygon fill="#63b8ff" stroke="#63b8ff" points="689.62,-326.95 680.11,-331.62 690.45,-333.9 689.62,-326.95"/>
</a>
</g>
</g>
<!-- Node15&#45;&gt;Node12 -->
<g id="edge15_Node000015_Node000012" class="edge">
<title>Node15&#45;&gt;Node12</title>
<g id="a_edge15_Node000015_Node000012"><a xlink:title=" ">
<path fill="none" stroke="#63b8ff" d="M876.77,-239.32C930.12,-225.19 997.63,-207.31 1043.75,-195.1"/>
<polygon fill="#63b8ff" stroke="#63b8ff" points="875.75,-235.97 866.98,-241.91 877.54,-242.73 875.75,-235.97"/>
</a>
</g>
</g>
<!-- Node16 -->
<g id="Node000016" class="node">
<title>Node16</title>
<g id="a_Node000016"><a xlink:href="a__dc__handler__configurer_8h.html" target="_top" xlink:title=" ">
<polygon fill="white" stroke="#666666" points="648,-112.5 502,-112.5 502,-71.5 648,-71.5 648,-112.5"/>
<text text-anchor="start" x="510" y="-100.5" font-family="Helvetica,sans-Serif" font-size="10.00">include/mosaic/auto</text>
<text text-anchor="start" x="510" y="-89.5" font-family="Helvetica,sans-Serif" font-size="10.00">_configurer/connector</text>
<text text-anchor="middle" x="575" y="-78.5" font-family="Helvetica,sans-Serif" font-size="10.00">/a_dc_handler_configurer.h</text>
</a>
</g>
</g>
<!-- Node15&#45;&gt;Node16 -->
<g id="edge16_Node000015_Node000016" class="edge">
<title>Node15&#45;&gt;Node16</title>
<g id="a_edge16_Node000015_Node000016"><a xlink:title=" ">
<path fill="none" stroke="#63b8ff" d="M708.66,-240.95C654.02,-227.27 592.24,-210.93 588,-206 565.72,-180.1 567.62,-137.6 571.19,-112.77"/>
<polygon fill="#63b8ff" stroke="#63b8ff" points="707.87,-244.36 718.42,-243.39 709.56,-237.57 707.87,-244.36"/>
</a>
</g>
</g>
<!-- Node17 -->
<g id="Node000017" class="node">
<title>Node17</title>
<g id="a_Node000017"><a xlink:href="a__mt__handler__configurer_8h.html" target="_top" xlink:title=" ">
<polygon fill="white" stroke="#666666" points="815.5,-112.5 666.5,-112.5 666.5,-71.5 815.5,-71.5 815.5,-112.5"/>
<text text-anchor="start" x="674.5" y="-100.5" font-family="Helvetica,sans-Serif" font-size="10.00">include/mosaic/auto</text>
<text text-anchor="start" x="674.5" y="-89.5" font-family="Helvetica,sans-Serif" font-size="10.00">_configurer/connector</text>
<text text-anchor="middle" x="741" y="-78.5" font-family="Helvetica,sans-Serif" font-size="10.00">/a_mt_handler_configurer.h</text>
</a>
</g>
</g>
<!-- Node15&#45;&gt;Node17 -->
<g id="edge18_Node000015_Node000017" class="edge">
<title>Node15&#45;&gt;Node17</title>
<g id="a_edge18_Node000015_Node000017"><a xlink:title=" ">
<path fill="none" stroke="#63b8ff" d="M708.51,-239.51C658.65,-226.12 604.55,-210.72 601,-206 587.11,-187.53 588.34,-173.33 601,-154 610.37,-139.7 645.85,-124.32 678.74,-112.58"/>
<polygon fill="#63b8ff" stroke="#63b8ff" points="707.85,-242.95 718.41,-242.15 709.66,-236.19 707.85,-242.95"/>
</a>
</g>
</g>
<!-- Node18 -->
<g id="Node000018" class="node">
<title>Node18</title>
<g id="a_Node000018"><a xlink:href="a__parallel__dc__handler__configurer_8h.html" target="_top" xlink:title=" ">
<polygon fill="white" stroke="#666666" points="484,-118 358,-118 358,-66 484,-66 484,-118"/>
<text text-anchor="start" x="366" y="-106" font-family="Helvetica,sans-Serif" font-size="10.00">include/mosaic/auto</text>
<text text-anchor="start" x="366" y="-95" font-family="Helvetica,sans-Serif" font-size="10.00">_configurer/connector</text>
<text text-anchor="start" x="366" y="-84" font-family="Helvetica,sans-Serif" font-size="10.00">/a_parallel_dc_handler</text>
<text text-anchor="middle" x="421" y="-73" font-family="Helvetica,sans-Serif" font-size="10.00">_configurer.h</text>
</a>
</g>
</g>
<!-- Node15&#45;&gt;Node18 -->
<g id="edge20_Node000015_Node000018" class="edge">
<title>Node15&#45;&gt;Node18</title>
<g id="a_edge20_Node000015_Node000018"><a xlink:title=" ">
<path fill="none" stroke="#63b8ff" d="M708.7,-241.76C646.93,-227.16 572.73,-209.26 566,-206 519.32,-183.4 473.48,-143.96 446.22,-118.17"/>
<polygon fill="#63b8ff" stroke="#63b8ff" points="707.95,-245.18 718.49,-244.07 709.56,-238.37 707.95,-245.18"/>
</a>
</g>
</g>
<!-- Node19 -->
<g id="Node000019" class="node">
<title>Node19</title>
<g id="a_Node000019"><a xlink:href="configurable__connector__factory_8h.html" target="_top" xlink:title=" ">
<polygon fill="white" stroke="#666666" points="961.5,-206 828.5,-206 828.5,-154 961.5,-154 961.5,-206"/>
<text text-anchor="start" x="836.5" y="-194" font-family="Helvetica,sans-Serif" font-size="10.00">include/mosaic/auto</text>
<text text-anchor="start" x="836.5" y="-183" font-family="Helvetica,sans-Serif" font-size="10.00">_configurer/connector</text>
<text text-anchor="start" x="836.5" y="-172" font-family="Helvetica,sans-Serif" font-size="10.00">/configurable_connector</text>
<text text-anchor="middle" x="895" y="-161" font-family="Helvetica,sans-Serif" font-size="10.00">_factory.h</text>
</a>
</g>
</g>
<!-- Node15&#45;&gt;Node19 -->
<g id="edge22_Node000015_Node000019" class="edge">
<title>Node15&#45;&gt;Node19</title>
<g id="a_edge22_Node000015_Node000019"><a xlink:title=" ">
<path fill="none" stroke="#63b8ff" d="M825.9,-235.54C837.78,-226.16 851.17,-215.59 862.97,-206.28"/>
<polygon fill="#63b8ff" stroke="#63b8ff" points="823.63,-232.86 817.95,-241.81 827.97,-238.36 823.63,-232.86"/>
</a>
</g>
</g>
<!-- Node20 -->
<g id="Node000020" class="node">
<title>Node20</title>
<g id="a_Node000020"><a xlink:href="connector__resolver_8h.html" target="_top" xlink:title=" ">
<polygon fill="white" stroke="#666666" points="956,-112.5 834,-112.5 834,-71.5 956,-71.5 956,-112.5"/>
<text text-anchor="start" x="842" y="-100.5" font-family="Helvetica,sans-Serif" font-size="10.00">include/mosaic/auto</text>
<text text-anchor="start" x="842" y="-89.5" font-family="Helvetica,sans-Serif" font-size="10.00">_configurer/connector</text>
<text text-anchor="middle" x="895" y="-78.5" font-family="Helvetica,sans-Serif" font-size="10.00">/connector_resolver.h</text>
</a>
</g>
</g>
<!-- Node15&#45;&gt;Node20 -->
<g id="edge26_Node000015_Node000020" class="edge">
<title>Node15&#45;&gt;Node20</title>
<g id="a_edge26_Node000015_Node000020"><a xlink:title=" ">
<path fill="none" stroke="#63b8ff" d="M795,-231.67C797.71,-208.88 804.07,-177.51 819,-154 829.61,-137.29 846.4,-123.11 861.5,-112.64"/>
<polygon fill="#63b8ff" stroke="#63b8ff" points="791.51,-231.47 793.97,-241.78 798.47,-232.18 791.51,-231.47"/>
</a>
</g>
</g>
<!-- Node22 -->
<g id="Node000022" class="node">
<title>Node22</title>
<g id="a_Node000022"><a xlink:href="i__configurable__connector_8cpp.html" target="_top" xlink:title=" ">
<polygon fill="white" stroke="#666666" points="771.5,-195 610.5,-195 610.5,-165 771.5,-165 771.5,-195"/>
<text text-anchor="start" x="618.5" y="-183" font-family="Helvetica,sans-Serif" font-size="10.00">src/auto_configurer</text>
<text text-anchor="middle" x="691" y="-172" font-family="Helvetica,sans-Serif" font-size="10.00">/i_configurable_connector.cpp</text>
</a>
</g>
</g>
<!-- Node15&#45;&gt;Node22 -->
<g id="edge27_Node000015_Node000022" class="edge">
<title>Node15&#45;&gt;Node22</title>
<g id="a_edge27_Node000015_Node000022"><a xlink:title=" ">
<path fill="none" stroke="#63b8ff" d="M760.01,-235.47C743.06,-222.09 723.07,-206.31 708.98,-195.19"/>
<polygon fill="#63b8ff" stroke="#63b8ff" points="758.03,-238.36 768.05,-241.81 762.37,-232.86 758.03,-238.36"/>
</a>
</g>
</g>
<!-- Node16&#45;&gt;Node13 -->
<g id="edge17_Node000016_Node000013" class="edge">
<title>Node16&#45;&gt;Node13</title>
<g id="a_edge17_Node000016_Node000013"><a xlink:title=" ">
<path fill="none" stroke="#63b8ff" d="M629.06,-67.43C657.18,-55.16 690.63,-40.58 714.7,-30.08"/>
<polygon fill="#63b8ff" stroke="#63b8ff" points="627.51,-64.29 619.74,-71.49 630.31,-70.7 627.51,-64.29"/>
</a>
</g>
</g>
<!-- Node17&#45;&gt;Node13 -->
<g id="edge19_Node000017_Node000013" class="edge">
<title>Node17&#45;&gt;Node13</title>
<g id="a_edge19_Node000017_Node000013"><a xlink:title=" ">
<path fill="none" stroke="#63b8ff" d="M743.39,-61.11C744.24,-50.51 745.15,-39.07 745.85,-30.36"/>
<polygon fill="#63b8ff" stroke="#63b8ff" points="739.89,-61.05 742.58,-71.29 746.86,-61.61 739.89,-61.05"/>
</a>
</g>
</g>
<!-- Node18&#45;&gt;Node13 -->
<g id="edge21_Node000018_Node000013" class="edge">
<title>Node18&#45;&gt;Node13</title>
<g id="a_edge21_Node000018_Node000013"><a xlink:title=" ">
<path fill="none" stroke="#63b8ff" d="M493.81,-65.93C566.25,-46.75 639.87,-33.22 689.48,-24.96"/>
<polygon fill="#63b8ff" stroke="#63b8ff" points="492.81,-62.57 484.06,-68.54 494.63,-69.33 492.81,-62.57"/>
</a>
</g>
</g>
<!-- Node19&#45;&gt;Node20 -->
<g id="edge23_Node000019_Node000020" class="edge">
<title>Node19&#45;&gt;Node20</title>
<g id="a_edge23_Node000019_Node000020"><a xlink:title=" ">
<path fill="none" stroke="#63b8ff" d="M895,-143.45C895,-132.94 895,-121.82 895,-112.7"/>
<polygon fill="#63b8ff" stroke="#63b8ff" points="891.5,-143.66 895,-153.66 898.5,-143.66 891.5,-143.66"/>
</a>
</g>
</g>
<!-- Node20&#45;&gt;Node13 -->
<g id="edge24_Node000020_Node000013" class="edge">
<title>Node20&#45;&gt;Node13</title>
<g id="a_edge24_Node000020_Node000013"><a xlink:title=" ">
<path fill="none" stroke="#63b8ff" d="M847.57,-66.96C823.65,-54.84 795.46,-40.56 775.02,-30.2"/>
<polygon fill="#63b8ff" stroke="#63b8ff" points="846,-70.09 856.5,-71.49 849.16,-63.85 846,-70.09"/>
</a>
</g>
</g>
<!-- Node21 -->
<g id="Node000021" class="node">
<title>Node21</title>
<g id="a_Node000021"><a xlink:href="connector__resolver_8cpp.html" target="_top" xlink:title=" ">
<polygon fill="white" stroke="#666666" points="961,-30 829,-30 829,0 961,0 961,-30"/>
<text text-anchor="start" x="837" y="-18" font-family="Helvetica,sans-Serif" font-size="10.00">src/auto_configurer</text>
<text text-anchor="middle" x="895" y="-7" font-family="Helvetica,sans-Serif" font-size="10.00">/connector_resolver.cpp</text>
</a>
</g>
</g>
<!-- Node20&#45;&gt;Node21 -->
<g id="edge25_Node000020_Node000021" class="edge">
<title>Node20&#45;&gt;Node21</title>
<g id="a_edge25_Node000020_Node000021"><a xlink:title=" ">
<path fill="none" stroke="#63b8ff" d="M895,-61.11C895,-50.51 895,-39.07 895,-30.36"/>
<polygon fill="#63b8ff" stroke="#63b8ff" points="891.5,-61.29 895,-71.29 898.5,-61.29 891.5,-61.29"/>
</a>
</g>
</g>
<!-- Node23&#45;&gt;Node13 -->
<g id="edge29_Node000023_Node000013" class="edge">
<title>Node23&#45;&gt;Node13</title>
<g id="a_edge29_Node000023_Node000013"><a xlink:title=" ">
<path fill="none" stroke="#63b8ff" d="M972.03,-237.85C985.76,-197.45 1006.19,-114.8 965,-66 959.74,-59.77 867.5,-40.18 804.7,-27.45"/>
<polygon fill="#63b8ff" stroke="#63b8ff" points="968.69,-236.79 968.65,-247.39 975.29,-239.14 968.69,-236.79"/>
</a>
</g>
</g>
<!-- Node24 -->
<g id="Node000024" class="node">
<title>Node24</title>
<g id="a_Node000024"><a xlink:href="mosaic__connector__factory_8cpp.html" target="_top" xlink:title=" ">
<polygon fill="white" stroke="#666666" points="1340,-195 1194,-195 1194,-165 1340,-165 1340,-195"/>
<text text-anchor="start" x="1202" y="-183" font-family="Helvetica,sans-Serif" font-size="10.00">src/core/mosaic_connector</text>
<text text-anchor="middle" x="1267" y="-172" font-family="Helvetica,sans-Serif" font-size="10.00">_factory.cpp</text>
</a>
</g>
</g>
<!-- Node23&#45;&gt;Node24 -->
<g id="edge30_Node000023_Node000024" class="edge">
<title>Node23&#45;&gt;Node24</title>
<g id="a_edge30_Node000023_Node000024"><a xlink:title=" ">
<path fill="none" stroke="#63b8ff" d="M1032.57,-245.07C1076.44,-234.47 1134.21,-220.08 1185,-206 1197.19,-202.62 1210.33,-198.73 1222.43,-195.04"/>
<polygon fill="#63b8ff" stroke="#63b8ff" points="1031.48,-241.73 1022.58,-247.48 1033.12,-248.54 1031.48,-241.73"/>
</a>
</g>
</g>
<!-- Node25&#45;&gt;Node14 -->
<g id="edge32_Node000025_Node000014" class="edge">
<title>Node25&#45;&gt;Node14</title>
<g id="a_edge32_Node000025_Node000014"><a xlink:title=" ">
<path fill="none" stroke="#63b8ff" d="M628.35,-287.51C629.11,-299.68 628.79,-314.02 627.41,-324.39"/>
<polygon fill="#63b8ff" stroke="#63b8ff" points="631.83,-287.17 627.4,-277.54 624.86,-287.83 631.83,-287.17"/>
</a>
</g>
</g>
<!-- Node25&#45;&gt;Node26 -->
<g id="edge33_Node000025_Node000026" class="edge">
<title>Node25&#45;&gt;Node26</title>
<g id="a_edge33_Node000025_Node000026"><a xlink:title=" ">
<path fill="none" stroke="#63b8ff" d="M575.41,-243.89C536.69,-229.26 482.31,-208.71 446.39,-195.13"/>
<polygon fill="#63b8ff" stroke="#63b8ff" points="574.31,-247.22 584.9,-247.48 576.78,-240.67 574.31,-247.22"/>
</a>
</g>
</g>
<!-- Node27&#45;&gt;Node26 -->
<g id="edge36_Node000027_Node000026" class="edge">
<title>Node27&#45;&gt;Node26</title>
<g id="a_edge36_Node000027_Node000026"><a xlink:title=" ">
<path fill="none" stroke="#63b8ff" d="M409,-237.24C409,-223.48 409,-206.75 409,-195.13"/>
<polygon fill="#63b8ff" stroke="#63b8ff" points="405.5,-237.48 409,-247.48 412.5,-237.48 405.5,-237.48"/>
</a>
</g>
</g>
<!-- Node27&#45;&gt;Node28 -->
<g id="edge35_Node000027_Node000028" class="edge">
<title>Node27&#45;&gt;Node28</title>
<g id="a_edge35_Node000027_Node000028"><a xlink:title=" ">
<path fill="none" stroke="#63b8ff" d="M337.33,-245.14C290.94,-234.39 229.28,-219.81 175,-206 154.47,-200.78 131.47,-194.53 113.6,-189.58"/>
<polygon fill="#63b8ff" stroke="#63b8ff" points="336.75,-248.59 347.28,-247.44 338.33,-241.77 336.75,-248.59"/>
</a>
</g>
</g>
<!-- Node27&#45;&gt;Node29 -->
<g id="edge37_Node000027_Node000029" class="edge">
<title>Node27&#45;&gt;Node29</title>
<g id="a_edge37_Node000027_Node000029"><a xlink:title=" ">
<path fill="none" stroke="#63b8ff" d="M372.69,-242.77C344.5,-228.22 306.02,-208.36 280.39,-195.13"/>
<polygon fill="#63b8ff" stroke="#63b8ff" points="371.34,-246 381.83,-247.48 374.55,-239.78 371.34,-246"/>
</a>
</g>
</g>
<!-- Node30&#45;&gt;Node24 -->
<g id="edge39_Node000030_Node000024" class="edge">
<title>Node30&#45;&gt;Node24</title>
<g id="a_edge39_Node000030_Node000024"><a xlink:title=" ">
<path fill="none" stroke="#63b8ff" d="M1191.43,-241.23C1209.48,-226.85 1233.25,-207.9 1249.27,-195.13"/>
<polygon fill="#63b8ff" stroke="#63b8ff" points="1189.23,-238.51 1183.59,-247.48 1193.59,-243.98 1189.23,-238.51"/>
</a>
</g>
</g>
<!-- Node30&#45;&gt;Node31 -->
<g id="edge40_Node000030_Node000031" class="edge">
<title>Node30&#45;&gt;Node31</title>
<g id="a_edge40_Node000030_Node000031"><a xlink:title=" ">
<path fill="none" stroke="#63b8ff" d="M1224.19,-244.5C1260.24,-233.8 1307.44,-219.51 1349,-206 1359.57,-202.56 1370.96,-198.69 1381.48,-195.04"/>
<polygon fill="#63b8ff" stroke="#63b8ff" points="1222.92,-241.22 1214.33,-247.41 1224.91,-247.93 1222.92,-241.22"/>
</a>
</g>
</g>
<!-- Node32&#45;&gt;Node6 -->
<g id="edge44_Node000032_Node000006" class="edge">
<title>Node32&#45;&gt;Node6</title>
<g id="a_edge44_Node000032_Node000006"><a xlink:title=" ">
<path fill="none" stroke="#63b8ff" d="M1994.17,-317.16C2043.27,-305.8 2102.96,-291.98 2149.47,-281.21"/>
<polygon fill="#63b8ff" stroke="#63b8ff" points="1993.13,-313.81 1984.18,-319.48 1994.71,-320.63 1993.13,-313.81"/>
</a>
</g>
</g>
<!-- Node32&#45;&gt;Node7 -->
<g id="edge46_Node000032_Node000007" class="edge">
<title>Node32&#45;&gt;Node7</title>
<g id="a_edge46_Node000032_Node000007"><a xlink:title=" ">
<path fill="none" stroke="#63b8ff" d="M1994.2,-333.87C2098.04,-327.3 2259.18,-312.63 2312,-283 2349.04,-262.23 2376.07,-217.79 2388.08,-195.05"/>
<polygon fill="#63b8ff" stroke="#63b8ff" points="1993.79,-330.39 1984.03,-334.5 1994.23,-337.38 1993.79,-330.39"/>
</a>
</g>
</g>
<!-- Node32&#45;&gt;Node9 -->
<g id="edge45_Node000032_Node000009" class="edge">
<title>Node32&#45;&gt;Node9</title>
<g id="a_edge45_Node000032_Node000009"><a xlink:title=" ">
<path fill="none" stroke="#63b8ff" d="M1809.74,-317.08C1760.98,-305.76 1701.84,-292.02 1655.65,-281.3"/>
<polygon fill="#63b8ff" stroke="#63b8ff" points="1809.13,-320.53 1819.66,-319.38 1810.71,-313.71 1809.13,-320.53"/>
</a>
</g>
</g>
</g>
</svg>
