<?xml version="1.0" encoding="UTF-8" standalone="no"?>
<!DOCTYPE svg PUBLIC "-//W3C//DTD SVG 1.1//EN"
 "http://www.w3.org/Graphics/SVG/1.1/DTD/svg11.dtd">
<!-- Generated by graphviz version 2.43.0 (0)
 -->
<!-- Title: include/mosaic/logger/log_level.hpp Pages: 1 -->
<svg width="2234pt" height="698pt"
 viewBox="0.00 0.00 2234.00 698.00" xmlns="http://www.w3.org/2000/svg" xmlns:xlink="http://www.w3.org/1999/xlink">
<g id="graph0" class="graph" transform="scale(1 1) rotate(0) translate(4 694)">
<title>include/mosaic/logger/log_level.hpp</title>
<!-- Node1 -->
<g id="Node000001" class="node">
<title>Node1</title>
<g id="a_Node000001"><a xlink:title=" ">
<polygon fill="#999999" stroke="#666666" points="939.5,-690 815.5,-690 815.5,-660 939.5,-660 939.5,-690"/>
<text text-anchor="start" x="823.5" y="-678" font-family="Helvetica,sans-Serif" font-size="10.00">include/mosaic/logger</text>
<text text-anchor="middle" x="877.5" y="-667" font-family="Helvetica,sans-Serif" font-size="10.00">/log_level.hpp</text>
</a>
</g>
</g>
<!-- Node2 -->
<g id="Node000002" class="node">
<title>Node2</title>
<g id="a_Node000002"><a xlink:href="i__logger_8hpp.html" target="_top" xlink:title=" ">
<polygon fill="white" stroke="#666666" points="894.5,-558 770.5,-558 770.5,-528 894.5,-528 894.5,-558"/>
<text text-anchor="start" x="778.5" y="-546" font-family="Helvetica,sans-Serif" font-size="10.00">include/mosaic/logger</text>
<text text-anchor="middle" x="832.5" y="-535" font-family="Helvetica,sans-Serif" font-size="10.00">/i_logger.hpp</text>
</a>
</g>
</g>
<!-- Node1&#45;&gt;Node2 -->
<g id="edge1_Node000001_Node000002" class="edge">
<title>Node1&#45;&gt;Node2</title>
<g id="a_edge1_Node000001_Node000002"><a xlink:title=" ">
<path fill="none" stroke="#63b8ff" d="M864.14,-651.21C859.65,-642.86 854.92,-633.19 851.5,-624 843.18,-601.66 837.63,-574.42 834.78,-558.18"/>
<polygon fill="#63b8ff" stroke="#63b8ff" points="861.1,-652.95 869.02,-659.99 867.22,-649.55 861.1,-652.95"/>
</a>
</g>
</g>
<!-- Node36 -->
<g id="Node000036" class="node">
<title>Node36</title>
<g id="a_Node000036"><a xlink:href="log__service_8hpp.html" target="_top" xlink:title=" ">
<polygon fill="white" stroke="#666666" points="984.5,-624 860.5,-624 860.5,-594 984.5,-594 984.5,-624"/>
<text text-anchor="start" x="868.5" y="-612" font-family="Helvetica,sans-Serif" font-size="10.00">include/mosaic/logger</text>
<text text-anchor="middle" x="922.5" y="-601" font-family="Helvetica,sans-Serif" font-size="10.00">/log_service.hpp</text>
</a>
</g>
</g>
<!-- Node1&#45;&gt;Node36 -->
<g id="edge55_Node000001_Node000036" class="edge">
<title>Node1&#45;&gt;Node36</title>
<g id="a_edge55_Node000001_Node000036"><a xlink:title=" ">
<path fill="none" stroke="#63b8ff" d="M893.3,-651.53C899.7,-642.43 906.89,-632.19 912.54,-624.16"/>
<polygon fill="#63b8ff" stroke="#63b8ff" points="890.38,-649.6 887.49,-659.8 896.1,-653.63 890.38,-649.6"/>
</a>
</g>
</g>
<!-- Node3 -->
<g id="Node000003" class="node">
<title>Node3</title>
<g id="a_Node000003"><a xlink:href="console__logger_8hpp.html" target="_top" xlink:title=" ">
<polygon fill="white" stroke="#666666" points="431.5,-492 307.5,-492 307.5,-462 431.5,-462 431.5,-492"/>
<text text-anchor="start" x="315.5" y="-480" font-family="Helvetica,sans-Serif" font-size="10.00">include/mosaic/logger</text>
<text text-anchor="middle" x="369.5" y="-469" font-family="Helvetica,sans-Serif" font-size="10.00">/console_logger.hpp</text>
</a>
</g>
</g>
<!-- Node2&#45;&gt;Node3 -->
<g id="edge2_Node000002_Node000003" class="edge">
<title>Node2&#45;&gt;Node3</title>
<g id="a_edge2_Node000002_Node000003"><a xlink:title=" ">
<path fill="none" stroke="#63b8ff" d="M759.9,-531.96C669.57,-519.48 516.88,-498.37 431.69,-486.6"/>
<polygon fill="#63b8ff" stroke="#63b8ff" points="759.67,-535.47 770.06,-533.37 760.63,-528.53 759.67,-535.47"/>
</a>
</g>
</g>
<!-- Node5 -->
<g id="Node000005" class="node">
<title>Node5</title>
<g id="a_Node000005"><a xlink:href="log_8hpp.html" target="_top" xlink:title=" ">
<polygon fill="white" stroke="#666666" points="1306.5,-492 1182.5,-492 1182.5,-462 1306.5,-462 1306.5,-492"/>
<text text-anchor="start" x="1190.5" y="-480" font-family="Helvetica,sans-Serif" font-size="10.00">include/mosaic/logger</text>
<text text-anchor="middle" x="1244.5" y="-469" font-family="Helvetica,sans-Serif" font-size="10.00">/log.hpp</text>
</a>
</g>
</g>
<!-- Node2&#45;&gt;Node5 -->
<g id="edge4_Node000002_Node000005" class="edge">
<title>Node2&#45;&gt;Node5</title>
<g id="a_edge4_Node000002_Node000005"><a xlink:title=" ">
<path fill="none" stroke="#63b8ff" d="M904.93,-530.75C983.55,-518.54 1107.8,-499.23 1182.21,-487.68"/>
<polygon fill="#63b8ff" stroke="#63b8ff" points="903.97,-527.36 894.63,-532.35 905.05,-534.27 903.97,-527.36"/>
</a>
</g>
</g>
<!-- Node4 -->
<g id="Node000004" class="node">
<title>Node4</title>
<g id="a_Node000004"><a xlink:href="log__service_8cpp.html" target="_top" xlink:title=" ">
<polygon fill="white" stroke="#666666" points="143,-415 0,-415 0,-396 143,-396 143,-415"/>
<text text-anchor="middle" x="71.5" y="-403" font-family="Helvetica,sans-Serif" font-size="10.00">src/logger/log_service.cpp</text>
</a>
</g>
</g>
<!-- Node3&#45;&gt;Node4 -->
<g id="edge3_Node000003_Node000004" class="edge">
<title>Node3&#45;&gt;Node4</title>
<g id="a_edge3_Node000003_Node000004"><a xlink:title=" ">
<path fill="none" stroke="#63b8ff" d="M299.43,-459.66C239.55,-445.69 155.76,-426.15 108.24,-415.07"/>
<polygon fill="#63b8ff" stroke="#63b8ff" points="298.66,-463.07 309.2,-461.94 300.25,-456.26 298.66,-463.07"/>
</a>
</g>
</g>
<!-- Node6 -->
<g id="Node000006" class="node">
<title>Node6</title>
<g id="a_Node000006"><a xlink:href="data__channel__handler_8hpp.html" target="_top" xlink:title=" ">
<polygon fill="white" stroke="#666666" points="575,-426 422,-426 422,-385 575,-385 575,-426"/>
<text text-anchor="start" x="430" y="-414" font-family="Helvetica,sans-Serif" font-size="10.00">include/mosaic/handlers</text>
<text text-anchor="start" x="430" y="-403" font-family="Helvetica,sans-Serif" font-size="10.00">/data_channel/data_channel</text>
<text text-anchor="middle" x="498.5" y="-392" font-family="Helvetica,sans-Serif" font-size="10.00">_handler.hpp</text>
</a>
</g>
</g>
<!-- Node5&#45;&gt;Node6 -->
<g id="edge5_Node000005_Node000006" class="edge">
<title>Node5&#45;&gt;Node6</title>
<g id="a_edge5_Node000005_Node000006"><a xlink:title=" ">
<path fill="none" stroke="#63b8ff" d="M1172.23,-469.27C1031.08,-456.12 719.95,-427.13 575.27,-413.65"/>
<polygon fill="#63b8ff" stroke="#63b8ff" points="1172.22,-472.78 1182.5,-470.22 1172.87,-465.81 1172.22,-472.78"/>
</a>
</g>
</g>
<!-- Node19 -->
<g id="Node000019" class="node">
<title>Node19</title>
<g id="a_Node000019"><a xlink:href="mosaic__connector_8cpp.html" target="_top" xlink:title=" ">
<polygon fill="white" stroke="#666666" points="1430.5,-178.5 1264.5,-178.5 1264.5,-159.5 1430.5,-159.5 1430.5,-178.5"/>
<text text-anchor="middle" x="1347.5" y="-166.5" font-family="Helvetica,sans-Serif" font-size="10.00">src/core/mosaic_connector.cpp</text>
</a>
</g>
</g>
<!-- Node5&#45;&gt;Node19 -->
<g id="edge45_Node000005_Node000019" class="edge">
<title>Node5&#45;&gt;Node19</title>
<g id="a_edge45_Node000005_Node000019"><a xlink:title=" ">
<path fill="none" stroke="#63b8ff" d="M1238.66,-451.8C1228.88,-405.46 1213.99,-302.49 1254.5,-231 1269.35,-204.79 1300.64,-187.87 1322.81,-178.66"/>
<polygon fill="#63b8ff" stroke="#63b8ff" points="1235.3,-452.8 1240.89,-461.8 1242.13,-451.28 1235.3,-452.8"/>
</a>
</g>
</g>
<!-- Node20 -->
<g id="Node000020" class="node">
<title>Node20</title>
<g id="a_Node000020"><a xlink:href="peer__connection__manager_8cpp.html" target="_top" xlink:title=" ">
<polygon fill="white" stroke="#666666" points="1742.5,-184 1604.5,-184 1604.5,-154 1742.5,-154 1742.5,-184"/>
<text text-anchor="start" x="1612.5" y="-172" font-family="Helvetica,sans-Serif" font-size="10.00">src/core/peer_connection</text>
<text text-anchor="middle" x="1673.5" y="-161" font-family="Helvetica,sans-Serif" font-size="10.00">_manager.cpp</text>
</a>
</g>
</g>
<!-- Node5&#45;&gt;Node20 -->
<g id="edge46_Node000005_Node000020" class="edge">
<title>Node5&#45;&gt;Node20</title>
<g id="a_edge46_Node000005_Node000020"><a xlink:title=" ">
<path fill="none" stroke="#63b8ff" d="M1274.95,-456.27C1287.42,-447.6 1301.67,-436.93 1313.5,-426 1331.1,-409.75 1330.56,-400.88 1348.5,-385 1401.58,-338.04 1585.44,-223.95 1650.48,-184.06"/>
<polygon fill="#63b8ff" stroke="#63b8ff" points="1272.95,-453.4 1266.65,-461.92 1276.89,-459.18 1272.95,-453.4"/>
</a>
</g>
</g>
<!-- Node21 -->
<g id="Node000021" class="node">
<title>Node21</title>
<g id="a_Node000021"><a xlink:href="peer__connection__observer_8cpp.html" target="_top" xlink:title=" ">
<polygon fill="white" stroke="#666666" points="1586.5,-184 1448.5,-184 1448.5,-154 1586.5,-154 1586.5,-184"/>
<text text-anchor="start" x="1456.5" y="-172" font-family="Helvetica,sans-Serif" font-size="10.00">src/core/peer_connection</text>
<text text-anchor="middle" x="1517.5" y="-161" font-family="Helvetica,sans-Serif" font-size="10.00">_observer.cpp</text>
</a>
</g>
</g>
<!-- Node5&#45;&gt;Node21 -->
<g id="edge47_Node000005_Node000021" class="edge">
<title>Node5&#45;&gt;Node21</title>
<g id="a_edge47_Node000005_Node000021"><a xlink:title=" ">
<path fill="none" stroke="#63b8ff" d="M1260.35,-453.52C1274.11,-434.55 1295,-407.04 1315.5,-385 1366.5,-330.16 1389.94,-327.24 1440.5,-272 1467.32,-242.7 1494.28,-204.51 1508.07,-184.18"/>
<polygon fill="#63b8ff" stroke="#63b8ff" points="1257.37,-451.67 1254.38,-461.83 1263.06,-455.75 1257.37,-451.67"/>
</a>
</g>
</g>
<!-- Node24 -->
<g id="Node000024" class="node">
<title>Node24</title>
<g id="a_Node000024"><a xlink:href="signaling__client_8cpp.html" target="_top" xlink:title=" ">
<polygon fill="white" stroke="#666666" points="1246,-184 1121,-184 1121,-154 1246,-154 1246,-184"/>
<text text-anchor="start" x="1129" y="-172" font-family="Helvetica,sans-Serif" font-size="10.00">src/signaling/signaling</text>
<text text-anchor="middle" x="1183.5" y="-161" font-family="Helvetica,sans-Serif" font-size="10.00">_client.cpp</text>
</a>
</g>
</g>
<!-- Node5&#45;&gt;Node24 -->
<g id="edge53_Node000005_Node000024" class="edge">
<title>Node5&#45;&gt;Node24</title>
<g id="a_edge53_Node000005_Node000024"><a xlink:title=" ">
<path fill="none" stroke="#63b8ff" d="M1209.73,-456C1199.33,-448.1 1189.19,-438.01 1183.5,-426 1143.76,-342.04 1168.91,-224.54 1179.48,-184.23"/>
<polygon fill="#63b8ff" stroke="#63b8ff" points="1207.86,-458.96 1218.05,-461.86 1211.89,-453.24 1207.86,-458.96"/>
</a>
</g>
</g>
<!-- Node25 -->
<g id="Node000025" class="node">
<title>Node25</title>
<g id="a_Node000025"><a xlink:href="data__channel__receivable_8hpp.html" target="_top" xlink:title=" ">
<polygon fill="white" stroke="#666666" points="391,-349 238,-349 238,-308 391,-308 391,-349"/>
<text text-anchor="start" x="246" y="-337" font-family="Helvetica,sans-Serif" font-size="10.00">include/mosaic/handlers</text>
<text text-anchor="start" x="246" y="-326" font-family="Helvetica,sans-Serif" font-size="10.00">/data_channel/data_channel</text>
<text text-anchor="middle" x="314.5" y="-315" font-family="Helvetica,sans-Serif" font-size="10.00">_receivable.hpp</text>
</a>
</g>
</g>
<!-- Node5&#45;&gt;Node25 -->
<g id="edge42_Node000005_Node000025" class="edge">
<title>Node5&#45;&gt;Node25</title>
<g id="a_edge42_Node000005_Node000025"><a xlink:title=" ">
<path fill="none" stroke="#63b8ff" d="M1172.39,-472.34C973.34,-462.15 429.77,-433.69 412.5,-426 375.42,-409.49 344.37,-372.35 327.69,-349.26"/>
<polygon fill="#63b8ff" stroke="#63b8ff" points="1172.29,-475.84 1182.45,-472.85 1172.64,-468.85 1172.29,-475.84"/>
</a>
</g>
</g>
<!-- Node26 -->
<g id="Node000026" class="node">
<title>Node26</title>
<g id="a_Node000026"><a xlink:href="data__channel__handler_8cpp.html" target="_top" xlink:title=" ">
<polygon fill="white" stroke="#666666" points="173.5,-266.5 27.5,-266.5 27.5,-236.5 173.5,-236.5 173.5,-266.5"/>
<text text-anchor="start" x="35.5" y="-254.5" font-family="Helvetica,sans-Serif" font-size="10.00">src/handlers/data_channel</text>
<text text-anchor="middle" x="100.5" y="-243.5" font-family="Helvetica,sans-Serif" font-size="10.00">/data_channel_handler.cpp</text>
</a>
</g>
</g>
<!-- Node5&#45;&gt;Node26 -->
<g id="edge48_Node000005_Node000026" class="edge">
<title>Node5&#45;&gt;Node26</title>
<g id="a_edge48_Node000005_Node000026"><a xlink:title=" ">
<path fill="none" stroke="#63b8ff" d="M1172.18,-473.46C974.34,-466.3 433.76,-445.21 355.5,-426 274.95,-406.22 252.18,-398.33 185.5,-349 153.19,-325.1 124.3,-287.1 109.98,-266.65"/>
<polygon fill="#63b8ff" stroke="#63b8ff" points="1172.34,-476.97 1182.46,-473.83 1172.59,-469.97 1172.34,-476.97"/>
</a>
</g>
</g>
<!-- Node29 -->
<g id="Node000029" class="node">
<title>Node29</title>
<g id="a_Node000029"><a xlink:href="data__channel__sendable_8cpp.html" target="_top" xlink:title=" ">
<polygon fill="white" stroke="#666666" points="679,-266.5 524,-266.5 524,-236.5 679,-236.5 679,-266.5"/>
<text text-anchor="start" x="532" y="-254.5" font-family="Helvetica,sans-Serif" font-size="10.00">src/handlers/data_channel</text>
<text text-anchor="middle" x="601.5" y="-243.5" font-family="Helvetica,sans-Serif" font-size="10.00">/data_channel_sendable.cpp</text>
</a>
</g>
</g>
<!-- Node5&#45;&gt;Node29 -->
<g id="edge49_Node000005_Node000029" class="edge">
<title>Node5&#45;&gt;Node29</title>
<g id="a_edge49_Node000005_Node000029"><a xlink:title=" ">
<path fill="none" stroke="#63b8ff" d="M1194.19,-458.51C1070.71,-415.59 754.57,-305.71 642.03,-266.59"/>
<polygon fill="#63b8ff" stroke="#63b8ff" points="1193.19,-461.87 1203.79,-461.85 1195.49,-455.26 1193.19,-461.87"/>
</a>
</g>
</g>
<!-- Node30 -->
<g id="Node000030" class="node">
<title>Node30</title>
<g id="a_Node000030"><a xlink:href="logger_8hpp.html" target="_top" xlink:title=" ">
<polygon fill="white" stroke="#666666" points="1481.5,-420.5 1357.5,-420.5 1357.5,-390.5 1481.5,-390.5 1481.5,-420.5"/>
<text text-anchor="start" x="1365.5" y="-408.5" font-family="Helvetica,sans-Serif" font-size="10.00">include/mosaic/logger</text>
<text text-anchor="middle" x="1419.5" y="-397.5" font-family="Helvetica,sans-Serif" font-size="10.00">/logger.hpp</text>
</a>
</g>
</g>
<!-- Node5&#45;&gt;Node30 -->
<g id="edge43_Node000005_Node000030" class="edge">
<title>Node5&#45;&gt;Node30</title>
<g id="a_edge43_Node000005_Node000030"><a xlink:title=" ">
<path fill="none" stroke="#63b8ff" d="M1289.54,-458.11C1318.98,-446.42 1356.87,-431.37 1384.14,-420.54"/>
<polygon fill="#63b8ff" stroke="#63b8ff" points="1287.92,-454.99 1279.91,-461.94 1290.5,-461.5 1287.92,-454.99"/>
</a>
</g>
</g>
<!-- Node31 -->
<g id="Node000031" class="node">
<title>Node31</title>
<g id="a_Node000031"><a xlink:href="connector__state__manager_8cpp.html" target="_top" xlink:title=" ">
<polygon fill="white" stroke="#666666" points="1615,-420.5 1500,-420.5 1500,-390.5 1615,-390.5 1615,-420.5"/>
<text text-anchor="start" x="1508" y="-408.5" font-family="Helvetica,sans-Serif" font-size="10.00">src/core/connector</text>
<text text-anchor="middle" x="1557.5" y="-397.5" font-family="Helvetica,sans-Serif" font-size="10.00">_state_manager.cpp</text>
</a>
</g>
</g>
<!-- Node5&#45;&gt;Node31 -->
<g id="edge44_Node000005_Node000031" class="edge">
<title>Node5&#45;&gt;Node31</title>
<g id="a_edge44_Node000005_Node000031"><a xlink:title=" ">
<path fill="none" stroke="#63b8ff" d="M1316.66,-462.96C1365.87,-453.67 1432.41,-440.33 1490.5,-426 1497.2,-424.35 1504.24,-422.46 1511.14,-420.53"/>
<polygon fill="#63b8ff" stroke="#63b8ff" points="1315.92,-459.54 1306.74,-464.82 1317.21,-466.42 1315.92,-459.54"/>
</a>
</g>
</g>
<!-- Node32 -->
<g id="Node000032" class="node">
<title>Node32</title>
<g id="a_Node000032"><a xlink:href="media__track__handler_8cpp.html" target="_top" xlink:title=" ">
<polygon fill="white" stroke="#666666" points="1805.5,-420.5 1633.5,-420.5 1633.5,-390.5 1805.5,-390.5 1805.5,-420.5"/>
<text text-anchor="start" x="1641.5" y="-408.5" font-family="Helvetica,sans-Serif" font-size="10.00">src/handlers/media</text>
<text text-anchor="middle" x="1719.5" y="-397.5" font-family="Helvetica,sans-Serif" font-size="10.00">_track/media_track_handler.cpp</text>
</a>
</g>
</g>
<!-- Node5&#45;&gt;Node32 -->
<g id="edge50_Node000005_Node000032" class="edge">
<title>Node5&#45;&gt;Node32</title>
<g id="a_edge50_Node000005_Node000032"><a xlink:title=" ">
<path fill="none" stroke="#63b8ff" d="M1316.6,-468.07C1393.2,-459.28 1517.74,-443.96 1624.5,-426 1634.13,-424.38 1644.27,-422.49 1654.2,-420.54"/>
<polygon fill="#63b8ff" stroke="#63b8ff" points="1316.11,-464.6 1306.57,-469.22 1316.91,-471.56 1316.11,-464.6"/>
</a>
</g>
</g>
<!-- Node33 -->
<g id="Node000033" class="node">
<title>Node33</title>
<g id="a_Node000033"><a xlink:href="recordable_8cpp.html" target="_top" xlink:title=" ">
<polygon fill="white" stroke="#666666" points="1945.5,-420.5 1823.5,-420.5 1823.5,-390.5 1945.5,-390.5 1945.5,-420.5"/>
<text text-anchor="start" x="1831.5" y="-408.5" font-family="Helvetica,sans-Serif" font-size="10.00">src/handlers/media</text>
<text text-anchor="middle" x="1884.5" y="-397.5" font-family="Helvetica,sans-Serif" font-size="10.00">_track/recordable.cpp</text>
</a>
</g>
</g>
<!-- Node5&#45;&gt;Node33 -->
<g id="edge51_Node000005_Node000033" class="edge">
<title>Node5&#45;&gt;Node33</title>
<g id="a_edge51_Node000005_Node000033"><a xlink:title=" ">
<path fill="none" stroke="#63b8ff" d="M1316.77,-473.92C1425.54,-469.83 1637.44,-458.15 1814.5,-426 1822.44,-424.56 1830.79,-422.62 1838.84,-420.52"/>
<polygon fill="#63b8ff" stroke="#63b8ff" points="1316.44,-470.43 1306.57,-474.29 1316.69,-477.43 1316.44,-470.43"/>
</a>
</g>
</g>
<!-- Node34 -->
<g id="Node000034" class="node">
<title>Node34</title>
<g id="a_Node000034"><a xlink:href="mosaic__authenticator_8cpp.html" target="_top" xlink:title=" ">
<polygon fill="white" stroke="#666666" points="2075,-420.5 1964,-420.5 1964,-390.5 2075,-390.5 2075,-420.5"/>
<text text-anchor="start" x="1972" y="-408.5" font-family="Helvetica,sans-Serif" font-size="10.00">src/security/mosaic</text>
<text text-anchor="middle" x="2019.5" y="-397.5" font-family="Helvetica,sans-Serif" font-size="10.00">_authenticator.cpp</text>
</a>
</g>
</g>
<!-- Node5&#45;&gt;Node34 -->
<g id="edge52_Node000005_Node000034" class="edge">
<title>Node5&#45;&gt;Node34</title>
<g id="a_edge52_Node000005_Node000034"><a xlink:title=" ">
<path fill="none" stroke="#63b8ff" d="M1316.97,-476.16C1446.16,-475.27 1724.31,-468.1 1954.5,-426 1962.03,-424.62 1969.93,-422.69 1977.52,-420.57"/>
<polygon fill="#63b8ff" stroke="#63b8ff" points="1316.79,-472.66 1306.81,-476.22 1316.83,-479.66 1316.79,-472.66"/>
</a>
</g>
</g>
<!-- Node35 -->
<g id="Node000035" class="node">
<title>Node35</title>
<g id="a_Node000035"><a xlink:href="websocket__client__impl_8cpp.html" target="_top" xlink:title=" ">
<polygon fill="white" stroke="#666666" points="2226,-420.5 2093,-420.5 2093,-390.5 2226,-390.5 2226,-420.5"/>
<text text-anchor="start" x="2101" y="-408.5" font-family="Helvetica,sans-Serif" font-size="10.00">src/signaling/websocket</text>
<text text-anchor="middle" x="2159.5" y="-397.5" font-family="Helvetica,sans-Serif" font-size="10.00">_client_impl.cpp</text>
</a>
</g>
</g>
<!-- Node5&#45;&gt;Node35 -->
<g id="edge54_Node000005_Node000035" class="edge">
<title>Node5&#45;&gt;Node35</title>
<g id="a_edge54_Node000005_Node000035"><a xlink:title=" ">
<path fill="none" stroke="#63b8ff" d="M1316.77,-476.42C1462.79,-476.23 1803.02,-470.53 2084.5,-426 2093.14,-424.63 2102.22,-422.7 2110.97,-420.58"/>
<polygon fill="#63b8ff" stroke="#63b8ff" points="1316.59,-472.92 1306.6,-476.42 1316.6,-479.92 1316.59,-472.92"/>
</a>
</g>
</g>
<!-- Node7 -->
<g id="Node000007" class="node">
<title>Node7</title>
<g id="a_Node000007"><a xlink:href="auto__configurer_8hpp.html" target="_top" xlink:title=" ">
<polygon fill="white" stroke="#666666" points="382.5,-184 212.5,-184 212.5,-154 382.5,-154 382.5,-184"/>
<text text-anchor="start" x="220.5" y="-172" font-family="Helvetica,sans-Serif" font-size="10.00">include/mosaic/auto</text>
<text text-anchor="middle" x="297.5" y="-161" font-family="Helvetica,sans-Serif" font-size="10.00">_configurer/auto_configurer.hpp</text>
</a>
</g>
</g>
<!-- Node6&#45;&gt;Node7 -->
<g id="edge6_Node000006_Node000007" class="edge">
<title>Node6&#45;&gt;Node7</title>
<g id="a_edge6_Node000006_Node000007"><a xlink:title=" ">
<path fill="none" stroke="#63b8ff" d="M467.13,-378.17C457.46,-369.36 447.1,-359.18 438.5,-349 398.1,-301.15 401.54,-279.15 361.5,-231 346.97,-213.53 327.85,-195.88 314.3,-184.08"/>
<polygon fill="#63b8ff" stroke="#63b8ff" points="464.91,-380.87 474.7,-384.91 469.57,-375.65 464.91,-380.87"/>
</a>
</g>
</g>
<!-- Node9 -->
<g id="Node000009" class="node">
<title>Node9</title>
<g id="a_Node000009"><a xlink:href="mosaic__connector_8hpp.html" target="_top" xlink:title=" ">
<polygon fill="white" stroke="#666666" points="1049.5,-343.5 921.5,-343.5 921.5,-313.5 1049.5,-313.5 1049.5,-343.5"/>
<text text-anchor="start" x="929.5" y="-331.5" font-family="Helvetica,sans-Serif" font-size="10.00">include/mosaic/core</text>
<text text-anchor="middle" x="985.5" y="-320.5" font-family="Helvetica,sans-Serif" font-size="10.00">/mosaic_connector.hpp</text>
</a>
</g>
</g>
<!-- Node6&#45;&gt;Node9 -->
<g id="edge8_Node000006_Node000009" class="edge">
<title>Node6&#45;&gt;Node9</title>
<g id="a_edge8_Node000006_Node000009"><a xlink:title=" ">
<path fill="none" stroke="#63b8ff" d="M585.15,-391.16C681.58,-376.31 835.14,-352.66 921.36,-339.38"/>
<polygon fill="#63b8ff" stroke="#63b8ff" points="584.48,-387.72 575.13,-392.7 585.55,-394.64 584.48,-387.72"/>
</a>
</g>
</g>
<!-- Node6&#45;&gt;Node25 -->
<g id="edge34_Node000006_Node000025" class="edge">
<title>Node6&#45;&gt;Node25</title>
<g id="a_edge34_Node000006_Node000025"><a xlink:title=" ">
<path fill="none" stroke="#63b8ff" d="M441.17,-381.13C415.9,-370.83 386.53,-358.86 362.44,-349.04"/>
<polygon fill="#63b8ff" stroke="#63b8ff" points="440.06,-384.46 450.64,-384.99 442.7,-377.97 440.06,-384.46"/>
</a>
</g>
</g>
<!-- Node6&#45;&gt;Node26 -->
<g id="edge41_Node000006_Node000026" class="edge">
<title>Node6&#45;&gt;Node26</title>
<g id="a_edge41_Node000006_Node000026"><a xlink:title=" ">
<path fill="none" stroke="#63b8ff" d="M411.88,-398.98C356.79,-392.58 285.38,-378.77 228.5,-349 205.1,-336.76 206.2,-324.4 185.5,-308 166.02,-292.57 142.21,-277.3 124.76,-266.69"/>
<polygon fill="#63b8ff" stroke="#63b8ff" points="411.65,-402.48 421.97,-400.09 412.41,-395.52 411.65,-402.48"/>
</a>
</g>
</g>
<!-- Node28 -->
<g id="Node000028" class="node">
<title>Node28</title>
<g id="a_Node000028"><a xlink:href="data__channel__sendable_8hpp.html" target="_top" xlink:title=" ">
<polygon fill="white" stroke="#666666" points="601,-349 448,-349 448,-308 601,-308 601,-349"/>
<text text-anchor="start" x="456" y="-337" font-family="Helvetica,sans-Serif" font-size="10.00">include/mosaic/handlers</text>
<text text-anchor="start" x="456" y="-326" font-family="Helvetica,sans-Serif" font-size="10.00">/data_channel/data_channel</text>
<text text-anchor="middle" x="524.5" y="-315" font-family="Helvetica,sans-Serif" font-size="10.00">_sendable.hpp</text>
</a>
</g>
</g>
<!-- Node6&#45;&gt;Node28 -->
<g id="edge38_Node000006_Node000028" class="edge">
<title>Node6&#45;&gt;Node28</title>
<g id="a_edge38_Node000006_Node000028"><a xlink:title=" ">
<path fill="none" stroke="#63b8ff" d="M508.64,-375.26C511.68,-366.48 514.94,-357.07 517.71,-349.07"/>
<polygon fill="#63b8ff" stroke="#63b8ff" points="505.3,-374.2 505.33,-384.79 511.91,-376.49 505.3,-374.2"/>
</a>
</g>
</g>
<!-- Node8 -->
<g id="Node000008" class="node">
<title>Node8</title>
<g id="a_Node000008"><a xlink:href="auto__configurer_8cpp.html" target="_top" xlink:title=" ">
<polygon fill="white" stroke="#666666" points="473,-30 358,-30 358,0 473,0 473,-30"/>
<text text-anchor="start" x="366" y="-18" font-family="Helvetica,sans-Serif" font-size="10.00">src/auto_configurer</text>
<text text-anchor="middle" x="415.5" y="-7" font-family="Helvetica,sans-Serif" font-size="10.00">/auto_configurer.cpp</text>
</a>
</g>
</g>
<!-- Node7&#45;&gt;Node8 -->
<g id="edge7_Node000007_Node000008" class="edge">
<title>Node7&#45;&gt;Node8</title>
<g id="a_edge7_Node000007_Node000008"><a xlink:title=" ">
<path fill="none" stroke="#63b8ff" d="M313.52,-145.73C328.65,-124.88 352.15,-92.97 373.5,-66 383.21,-53.73 394.66,-40.16 403.14,-30.26"/>
<polygon fill="#63b8ff" stroke="#63b8ff" points="310.6,-143.79 307.57,-153.95 316.27,-147.9 310.6,-143.79"/>
</a>
</g>
</g>
<!-- Node9&#45;&gt;Node8 -->
<g id="edge27_Node000009_Node000008" class="edge">
<title>Node9&#45;&gt;Node8</title>
<g id="a_edge27_Node000009_Node000008"><a xlink:title=" ">
<path fill="none" stroke="#63b8ff" d="M911.26,-322.09C818.02,-314.53 653.43,-298.65 514.5,-272 445.36,-258.74 429.83,-247.93 361.5,-231 291.59,-213.68 248.42,-251.3 203.5,-195 145.6,-122.42 295.07,-57.66 372.47,-30.09"/>
<polygon fill="#63b8ff" stroke="#63b8ff" points="911.19,-325.59 921.44,-322.9 911.75,-318.62 911.19,-325.59"/>
</a>
</g>
</g>
<!-- Node10 -->
<g id="Node000010" class="node">
<title>Node10</title>
<g id="a_Node000010"><a xlink:href="configurable__connectors_8hpp.html" target="_top" xlink:title=" ">
<polygon fill="white" stroke="#666666" points="856,-272 697,-272 697,-231 856,-231 856,-272"/>
<text text-anchor="start" x="705" y="-260" font-family="Helvetica,sans-Serif" font-size="10.00">include/mosaic/auto</text>
<text text-anchor="start" x="705" y="-249" font-family="Helvetica,sans-Serif" font-size="10.00">_configurer/connector</text>
<text text-anchor="middle" x="776.5" y="-238" font-family="Helvetica,sans-Serif" font-size="10.00">/configurable_connectors.hpp</text>
</a>
</g>
</g>
<!-- Node9&#45;&gt;Node10 -->
<g id="edge9_Node000009_Node000010" class="edge">
<title>Node9&#45;&gt;Node10</title>
<g id="a_edge9_Node000009_Node000010"><a xlink:title=" ">
<path fill="none" stroke="#63b8ff" d="M936.69,-309.99C905.04,-298.63 863.75,-283.81 831.01,-272.06"/>
<polygon fill="#63b8ff" stroke="#63b8ff" points="935.59,-313.31 946.19,-313.39 937.96,-306.72 935.59,-313.31"/>
</a>
</g>
</g>
<!-- Node18 -->
<g id="Node000018" class="node">
<title>Node18</title>
<g id="a_Node000018"><a xlink:href="peer__connection__observer_8hpp.html" target="_top" xlink:title=" ">
<polygon fill="white" stroke="#666666" points="1431.5,-266.5 1263.5,-266.5 1263.5,-236.5 1431.5,-236.5 1431.5,-266.5"/>
<text text-anchor="start" x="1271.5" y="-254.5" font-family="Helvetica,sans-Serif" font-size="10.00">include/mosaic/core</text>
<text text-anchor="middle" x="1347.5" y="-243.5" font-family="Helvetica,sans-Serif" font-size="10.00">/peer_connection_observer.hpp</text>
</a>
</g>
</g>
<!-- Node9&#45;&gt;Node18 -->
<g id="edge23_Node000009_Node000018" class="edge">
<title>Node9&#45;&gt;Node18</title>
<g id="a_edge23_Node000009_Node000018"><a xlink:title=" ">
<path fill="none" stroke="#63b8ff" d="M1059.92,-312.08C1124.52,-298.7 1217.26,-279.48 1279.81,-266.53"/>
<polygon fill="#63b8ff" stroke="#63b8ff" points="1058.88,-308.72 1049.8,-314.18 1060.3,-315.58 1058.88,-308.72"/>
</a>
</g>
</g>
<!-- Node9&#45;&gt;Node19 -->
<g id="edge28_Node000009_Node000019" class="edge">
<title>Node9&#45;&gt;Node19</title>
<g id="a_edge28_Node000009_Node000019"><a xlink:title=" ">
<path fill="none" stroke="#63b8ff" d="M1024.38,-309.1C1046.94,-298.38 1075.88,-284.53 1101.5,-272 1138.1,-254.1 1146.13,-247.24 1183.5,-231 1231.56,-210.12 1289.32,-189.68 1321.88,-178.57"/>
<polygon fill="#63b8ff" stroke="#63b8ff" points="1022.66,-306.05 1015.13,-313.5 1025.66,-312.37 1022.66,-306.05"/>
</a>
</g>
</g>
<!-- Node9&#45;&gt;Node21 -->
<g id="edge30_Node000009_Node000021" class="edge">
<title>Node9&#45;&gt;Node21</title>
<g id="a_edge30_Node000009_Node000021"><a xlink:title=" ">
<path fill="none" stroke="#63b8ff" d="M1041.94,-310.47C1075.46,-300.03 1118.68,-286.02 1156.5,-272 1200.77,-255.59 1209.32,-244.69 1254.5,-231 1334.67,-206.71 1358.36,-215.82 1439.5,-195 1451.76,-191.85 1464.92,-187.87 1476.88,-184.02"/>
<polygon fill="#63b8ff" stroke="#63b8ff" points="1040.82,-307.15 1032.31,-313.45 1042.89,-313.84 1040.82,-307.15"/>
</a>
</g>
</g>
<!-- Node22 -->
<g id="Node000022" class="node">
<title>Node22</title>
<g id="a_Node000022"><a xlink:href="mosaic__connector__factory_8cpp.html" target="_top" xlink:title=" ">
<polygon fill="white" stroke="#666666" points="1102.5,-184 956.5,-184 956.5,-154 1102.5,-154 1102.5,-184"/>
<text text-anchor="start" x="964.5" y="-172" font-family="Helvetica,sans-Serif" font-size="10.00">src/core/mosaic_connector</text>
<text text-anchor="middle" x="1029.5" y="-161" font-family="Helvetica,sans-Serif" font-size="10.00">_factory.cpp</text>
</a>
</g>
</g>
<!-- Node9&#45;&gt;Node22 -->
<g id="edge29_Node000009_Node000022" class="edge">
<title>Node9&#45;&gt;Node22</title>
<g id="a_edge29_Node000009_Node000022"><a xlink:title=" ">
<path fill="none" stroke="#63b8ff" d="M970.27,-304.53C959.04,-284.52 947.47,-255.02 958.5,-231 967.79,-210.77 987.47,-194.72 1003.76,-184.17"/>
<polygon fill="#63b8ff" stroke="#63b8ff" points="967.36,-306.48 975.49,-313.27 973.37,-302.89 967.36,-306.48"/>
</a>
</g>
</g>
<!-- Node23 -->
<g id="Node000023" class="node">
<title>Node23</title>
<g id="a_Node000023"><a xlink:href="signaling__client_8hpp.html" target="_top" xlink:title=" ">
<polygon fill="white" stroke="#666666" points="1093,-266.5 968,-266.5 968,-236.5 1093,-236.5 1093,-266.5"/>
<text text-anchor="start" x="976" y="-254.5" font-family="Helvetica,sans-Serif" font-size="10.00">src/signaling/signaling</text>
<text text-anchor="middle" x="1030.5" y="-243.5" font-family="Helvetica,sans-Serif" font-size="10.00">_client.hpp</text>
</a>
</g>
</g>
<!-- Node9&#45;&gt;Node23 -->
<g id="edge31_Node000009_Node000023" class="edge">
<title>Node9&#45;&gt;Node23</title>
<g id="a_edge31_Node000009_Node000023"><a xlink:title=" ">
<path fill="none" stroke="#63b8ff" d="M999.29,-304.51C1006.73,-292.11 1015.67,-277.21 1022.07,-266.54"/>
<polygon fill="#63b8ff" stroke="#63b8ff" points="996.11,-303.02 993.96,-313.39 1002.11,-306.62 996.11,-303.02"/>
</a>
</g>
</g>
<!-- Node10&#45;&gt;Node7 -->
<g id="edge10_Node000010_Node000007" class="edge">
<title>Node10&#45;&gt;Node7</title>
<g id="a_edge10_Node000010_Node000007"><a xlink:title=" ">
<path fill="none" stroke="#63b8ff" d="M686.92,-231C555.07,-209.32 518.45,-219.48 391.5,-195 376.25,-192.06 359.81,-188 345.02,-184.01"/>
<polygon fill="#63b8ff" stroke="#63b8ff" points="686.56,-234.49 697,-232.69 687.71,-227.59 686.56,-234.49"/>
</a>
</g>
</g>
<!-- Node10&#45;&gt;Node8 -->
<g id="edge22_Node000010_Node000008" class="edge">
<title>Node10&#45;&gt;Node8</title>
<g id="a_edge22_Node000010_Node000008"><a xlink:title=" ">
<path fill="none" stroke="#63b8ff" d="M690.05,-227.46C668.13,-219.29 645.45,-208.63 626.5,-195 566.7,-152.01 580.47,-111.43 522.5,-66 502.81,-50.57 477.59,-38.49 456.57,-30.07"/>
<polygon fill="#63b8ff" stroke="#63b8ff" points="689.12,-230.85 699.71,-230.93 691.48,-224.26 689.12,-230.85"/>
</a>
</g>
</g>
<!-- Node11 -->
<g id="Node000011" class="node">
<title>Node11</title>
<g id="a_Node000011"><a xlink:href="configurable__connector__factory_8hpp.html" target="_top" xlink:title=" ">
<polygon fill="white" stroke="#666666" points="780,-195 647,-195 647,-143 780,-143 780,-195"/>
<text text-anchor="start" x="655" y="-183" font-family="Helvetica,sans-Serif" font-size="10.00">include/mosaic/auto</text>
<text text-anchor="start" x="655" y="-172" font-family="Helvetica,sans-Serif" font-size="10.00">_configurer/connector</text>
<text text-anchor="start" x="655" y="-161" font-family="Helvetica,sans-Serif" font-size="10.00">/configurable_connector</text>
<text text-anchor="middle" x="713.5" y="-150" font-family="Helvetica,sans-Serif" font-size="10.00">_factory.hpp</text>
</a>
</g>
</g>
<!-- Node10&#45;&gt;Node11 -->
<g id="edge11_Node000010_Node000011" class="edge">
<title>Node10&#45;&gt;Node11</title>
<g id="a_edge11_Node000010_Node000011"><a xlink:title=" ">
<path fill="none" stroke="#63b8ff" d="M754.74,-222.7C747.74,-213.75 740.03,-203.9 733.19,-195.16"/>
<polygon fill="#63b8ff" stroke="#63b8ff" points="752.01,-224.88 760.93,-230.6 757.52,-220.57 752.01,-224.88"/>
</a>
</g>
</g>
<!-- Node12 -->
<g id="Node000012" class="node">
<title>Node12</title>
<g id="a_Node000012"><a xlink:href="connector__resolver_8hpp.html" target="_top" xlink:title=" ">
<polygon fill="white" stroke="#666666" points="742,-107 609,-107 609,-66 742,-66 742,-107"/>
<text text-anchor="start" x="617" y="-95" font-family="Helvetica,sans-Serif" font-size="10.00">include/mosaic/auto</text>
<text text-anchor="start" x="617" y="-84" font-family="Helvetica,sans-Serif" font-size="10.00">_configurer/connector</text>
<text text-anchor="middle" x="675.5" y="-73" font-family="Helvetica,sans-Serif" font-size="10.00">/connector_resolver.hpp</text>
</a>
</g>
</g>
<!-- Node10&#45;&gt;Node12 -->
<g id="edge15_Node000010_Node000012" class="edge">
<title>Node10&#45;&gt;Node12</title>
<g id="a_edge15_Node000010_Node000012"><a xlink:title=" ">
<path fill="none" stroke="#63b8ff" d="M697.9,-227.65C670.81,-218.07 645.29,-206.5 637.5,-195 618.85,-167.47 641.04,-129.78 658.5,-107.11"/>
<polygon fill="#63b8ff" stroke="#63b8ff" points="696.92,-231.02 707.51,-230.95 699.19,-224.4 696.92,-231.02"/>
</a>
</g>
</g>
<!-- Node14 -->
<g id="Node000014" class="node">
<title>Node14</title>
<g id="a_Node000014"><a xlink:href="connection__check__dc__handler_8hpp.html" target="_top" xlink:title=" ">
<polygon fill="white" stroke="#666666" points="552.5,-189.5 400.5,-189.5 400.5,-148.5 552.5,-148.5 552.5,-189.5"/>
<text text-anchor="start" x="408.5" y="-177.5" font-family="Helvetica,sans-Serif" font-size="10.00">include/mosaic/auto</text>
<text text-anchor="start" x="408.5" y="-166.5" font-family="Helvetica,sans-Serif" font-size="10.00">_configurer/impl/connection</text>
<text text-anchor="middle" x="476.5" y="-155.5" font-family="Helvetica,sans-Serif" font-size="10.00">_check_dc_handler.hpp</text>
</a>
</g>
</g>
<!-- Node10&#45;&gt;Node14 -->
<g id="edge16_Node000010_Node000014" class="edge">
<title>Node10&#45;&gt;Node14</title>
<g id="a_edge16_Node000010_Node000014"><a xlink:title=" ">
<path fill="none" stroke="#63b8ff" d="M691.54,-228.3C653.29,-218.25 607.6,-206.14 566.5,-195 560.08,-193.26 553.41,-191.44 546.73,-189.6"/>
<polygon fill="#63b8ff" stroke="#63b8ff" points="691.04,-231.79 701.6,-230.95 692.82,-225.02 691.04,-231.79"/>
</a>
</g>
</g>
<!-- Node16 -->
<g id="Node000016" class="node">
<title>Node16</title>
<g id="a_Node000016"><a xlink:href="opencv__camera__mt__handler_8hpp.html" target="_top" xlink:title=" ">
<polygon fill="white" stroke="#666666" points="938.5,-189.5 798.5,-189.5 798.5,-148.5 938.5,-148.5 938.5,-189.5"/>
<text text-anchor="start" x="806.5" y="-177.5" font-family="Helvetica,sans-Serif" font-size="10.00">include/mosaic/auto</text>
<text text-anchor="start" x="806.5" y="-166.5" font-family="Helvetica,sans-Serif" font-size="10.00">_configurer/impl/opencv</text>
<text text-anchor="middle" x="868.5" y="-155.5" font-family="Helvetica,sans-Serif" font-size="10.00">_camera_mt_handler.hpp</text>
</a>
</g>
</g>
<!-- Node10&#45;&gt;Node16 -->
<g id="edge19_Node000010_Node000016" class="edge">
<title>Node10&#45;&gt;Node16</title>
<g id="a_edge19_Node000010_Node000016"><a xlink:title=" ">
<path fill="none" stroke="#63b8ff" d="M806.91,-223.89C819.67,-212.72 834.25,-199.97 846.02,-189.67"/>
<polygon fill="#63b8ff" stroke="#63b8ff" points="804.46,-221.38 799.24,-230.6 809.07,-226.65 804.46,-221.38"/>
</a>
</g>
</g>
<!-- Node11&#45;&gt;Node12 -->
<g id="edge12_Node000011_Node000012" class="edge">
<title>Node11&#45;&gt;Node12</title>
<g id="a_edge12_Node000011_Node000012"><a xlink:title=" ">
<path fill="none" stroke="#63b8ff" d="M697.33,-133.74C693.04,-124.65 688.55,-115.15 684.77,-107.15"/>
<polygon fill="#63b8ff" stroke="#63b8ff" points="694.25,-135.42 701.68,-142.97 700.58,-132.43 694.25,-135.42"/>
</a>
</g>
</g>
<!-- Node12&#45;&gt;Node8 -->
<g id="edge13_Node000012_Node000008" class="edge">
<title>Node12&#45;&gt;Node8</title>
<g id="a_edge13_Node000012_Node000008"><a xlink:title=" ">
<path fill="none" stroke="#63b8ff" d="M599.2,-65.1C557.02,-53.83 505.68,-40.11 468.01,-30.04"/>
<polygon fill="#63b8ff" stroke="#63b8ff" points="598.32,-68.49 608.88,-67.69 600.12,-61.73 598.32,-68.49"/>
</a>
</g>
</g>
<!-- Node13 -->
<g id="Node000013" class="node">
<title>Node13</title>
<g id="a_Node000013"><a xlink:href="connector__resolver_8cpp.html" target="_top" xlink:title=" ">
<polygon fill="white" stroke="#666666" points="741.5,-30 609.5,-30 609.5,0 741.5,0 741.5,-30"/>
<text text-anchor="start" x="617.5" y="-18" font-family="Helvetica,sans-Serif" font-size="10.00">src/auto_configurer</text>
<text text-anchor="middle" x="675.5" y="-7" font-family="Helvetica,sans-Serif" font-size="10.00">/connector_resolver.cpp</text>
</a>
</g>
</g>
<!-- Node12&#45;&gt;Node13 -->
<g id="edge14_Node000012_Node000013" class="edge">
<title>Node12&#45;&gt;Node13</title>
<g id="a_edge14_Node000012_Node000013"><a xlink:title=" ">
<path fill="none" stroke="#63b8ff" d="M675.5,-55.66C675.5,-46.76 675.5,-37.42 675.5,-30.04"/>
<polygon fill="#63b8ff" stroke="#63b8ff" points="672,-55.77 675.5,-65.77 679,-55.77 672,-55.77"/>
</a>
</g>
</g>
<!-- Node14&#45;&gt;Node13 -->
<g id="edge17_Node000014_Node000013" class="edge">
<title>Node14&#45;&gt;Node13</title>
<g id="a_edge17_Node000014_Node000013"><a xlink:title=" ">
<path fill="none" stroke="#63b8ff" d="M506.41,-141.61C530.86,-120.43 566.64,-90.32 599.5,-66 616.89,-53.13 637.44,-39.71 652.78,-30.02"/>
<polygon fill="#63b8ff" stroke="#63b8ff" points="503.82,-139.23 498.57,-148.43 508.41,-144.51 503.82,-139.23"/>
</a>
</g>
</g>
<!-- Node15 -->
<g id="Node000015" class="node">
<title>Node15</title>
<g id="a_Node000015"><a xlink:href="connection__check__dc__handler_8cpp.html" target="_top" xlink:title=" ">
<polygon fill="white" stroke="#666666" points="514,-107 383,-107 383,-66 514,-66 514,-107"/>
<text text-anchor="start" x="391" y="-95" font-family="Helvetica,sans-Serif" font-size="10.00">src/auto_configurer</text>
<text text-anchor="start" x="391" y="-84" font-family="Helvetica,sans-Serif" font-size="10.00">/impl/connection_check</text>
<text text-anchor="middle" x="448.5" y="-73" font-family="Helvetica,sans-Serif" font-size="10.00">_dc_handler.cpp</text>
</a>
</g>
</g>
<!-- Node14&#45;&gt;Node15 -->
<g id="edge18_Node000014_Node000015" class="edge">
<title>Node14&#45;&gt;Node15</title>
<g id="a_edge18_Node000014_Node000015"><a xlink:title=" ">
<path fill="none" stroke="#63b8ff" d="M466.24,-138.51C462.61,-128.07 458.62,-116.59 455.34,-107.17"/>
<polygon fill="#63b8ff" stroke="#63b8ff" points="462.99,-139.81 469.58,-148.1 469.6,-137.51 462.99,-139.81"/>
</a>
</g>
</g>
<!-- Node16&#45;&gt;Node13 -->
<g id="edge20_Node000016_Node000013" class="edge">
<title>Node16&#45;&gt;Node13</title>
<g id="a_edge20_Node000016_Node000013"><a xlink:title=" ">
<path fill="none" stroke="#63b8ff" d="M838.15,-141.6C804.72,-112.55 755.04,-69.45 750.5,-66 733.56,-53.11 713.45,-39.81 698.32,-30.16"/>
<polygon fill="#63b8ff" stroke="#63b8ff" points="836.01,-144.37 845.85,-148.29 840.6,-139.09 836.01,-144.37"/>
</a>
</g>
</g>
<!-- Node17 -->
<g id="Node000017" class="node">
<title>Node17</title>
<g id="a_Node000017"><a xlink:href="opencv__camera__mt__handler_8cpp.html" target="_top" xlink:title=" ">
<polygon fill="white" stroke="#666666" points="929.5,-107 807.5,-107 807.5,-66 929.5,-66 929.5,-107"/>
<text text-anchor="start" x="815.5" y="-95" font-family="Helvetica,sans-Serif" font-size="10.00">src/auto_configurer</text>
<text text-anchor="start" x="815.5" y="-84" font-family="Helvetica,sans-Serif" font-size="10.00">/impl/opencv_camera</text>
<text text-anchor="middle" x="868.5" y="-73" font-family="Helvetica,sans-Serif" font-size="10.00">_mt_handler.cpp</text>
</a>
</g>
</g>
<!-- Node16&#45;&gt;Node17 -->
<g id="edge21_Node000016_Node000017" class="edge">
<title>Node16&#45;&gt;Node17</title>
<g id="a_edge21_Node000016_Node000017"><a xlink:title=" ">
<path fill="none" stroke="#63b8ff" d="M868.5,-137.87C868.5,-127.6 868.5,-116.4 868.5,-107.17"/>
<polygon fill="#63b8ff" stroke="#63b8ff" points="865,-138.1 868.5,-148.1 872,-138.1 865,-138.1"/>
</a>
</g>
</g>
<!-- Node18&#45;&gt;Node19 -->
<g id="edge24_Node000018_Node000019" class="edge">
<title>Node18&#45;&gt;Node19</title>
<g id="a_edge24_Node000018_Node000019"><a xlink:title=" ">
<path fill="none" stroke="#63b8ff" d="M1347.5,-226.2C1347.5,-210.2 1347.5,-190.2 1347.5,-178.88"/>
<polygon fill="#63b8ff" stroke="#63b8ff" points="1344,-226.48 1347.5,-236.48 1351,-226.48 1344,-226.48"/>
</a>
</g>
</g>
<!-- Node18&#45;&gt;Node20 -->
<g id="edge25_Node000018_Node000020" class="edge">
<title>Node18&#45;&gt;Node20</title>
<g id="a_edge25_Node000018_Node000020"><a xlink:title=" ">
<path fill="none" stroke="#63b8ff" d="M1428.06,-234.39C1476.79,-224.17 1540.03,-210.06 1595.5,-195 1607.44,-191.76 1620.27,-187.83 1632.01,-184.06"/>
<polygon fill="#63b8ff" stroke="#63b8ff" points="1427.27,-230.98 1418.2,-236.45 1428.7,-237.83 1427.27,-230.98"/>
</a>
</g>
</g>
<!-- Node18&#45;&gt;Node21 -->
<g id="edge26_Node000018_Node000021" class="edge">
<title>Node18&#45;&gt;Node21</title>
<g id="a_edge26_Node000018_Node000021"><a xlink:title=" ">
<path fill="none" stroke="#63b8ff" d="M1386.26,-232.14C1417.05,-217.56 1459.47,-197.48 1487.66,-184.13"/>
<polygon fill="#63b8ff" stroke="#63b8ff" points="1384.65,-229.03 1377.11,-236.48 1387.65,-235.36 1384.65,-229.03"/>
</a>
</g>
</g>
<!-- Node23&#45;&gt;Node22 -->
<g id="edge32_Node000023_Node000022" class="edge">
<title>Node23&#45;&gt;Node22</title>
<g id="a_edge32_Node000023_Node000022"><a xlink:title=" ">
<path fill="none" stroke="#63b8ff" d="M1030.2,-226.24C1030.03,-212.48 1029.82,-195.75 1029.68,-184.13"/>
<polygon fill="#63b8ff" stroke="#63b8ff" points="1026.7,-226.52 1030.33,-236.48 1033.7,-226.44 1026.7,-226.52"/>
</a>
</g>
</g>
<!-- Node23&#45;&gt;Node24 -->
<g id="edge33_Node000023_Node000024" class="edge">
<title>Node23&#45;&gt;Node24</title>
<g id="a_edge33_Node000023_Node000024"><a xlink:title=" ">
<path fill="none" stroke="#63b8ff" d="M1066.11,-231.77C1093.76,-217.22 1131.5,-197.36 1156.64,-184.13"/>
<polygon fill="#63b8ff" stroke="#63b8ff" points="1064.37,-228.72 1057.15,-236.48 1067.63,-234.92 1064.37,-228.72"/>
</a>
</g>
</g>
<!-- Node25&#45;&gt;Node14 -->
<g id="edge35_Node000025_Node000014" class="edge">
<title>Node25&#45;&gt;Node14</title>
<g id="a_edge35_Node000025_Node000014"><a xlink:title=" ">
<path fill="none" stroke="#63b8ff" d="M342.06,-300.7C374.47,-269.19 427.49,-217.65 456.31,-189.63"/>
<polygon fill="#63b8ff" stroke="#63b8ff" points="339.42,-298.39 334.69,-307.87 344.3,-303.41 339.42,-298.39"/>
</a>
</g>
</g>
<!-- Node25&#45;&gt;Node26 -->
<g id="edge36_Node000025_Node000026" class="edge">
<title>Node25&#45;&gt;Node26</title>
<g id="a_edge36_Node000025_Node000026"><a xlink:title=" ">
<path fill="none" stroke="#63b8ff" d="M249.06,-304.57C213.7,-292.17 171.16,-277.26 140.68,-266.58"/>
<polygon fill="#63b8ff" stroke="#63b8ff" points="248.24,-307.99 258.83,-307.99 250.55,-301.38 248.24,-307.99"/>
</a>
</g>
</g>
<!-- Node27 -->
<g id="Node000027" class="node">
<title>Node27</title>
<g id="a_Node000027"><a xlink:href="data__channel__receivable_8cpp.html" target="_top" xlink:title=" ">
<polygon fill="white" stroke="#666666" points="353,-266.5 192,-266.5 192,-236.5 353,-236.5 353,-266.5"/>
<text text-anchor="start" x="200" y="-254.5" font-family="Helvetica,sans-Serif" font-size="10.00">src/handlers/data_channel</text>
<text text-anchor="middle" x="272.5" y="-243.5" font-family="Helvetica,sans-Serif" font-size="10.00">/data_channel_receivable.cpp</text>
</a>
</g>
</g>
<!-- Node25&#45;&gt;Node27 -->
<g id="edge37_Node000025_Node000027" class="edge">
<title>Node25&#45;&gt;Node27</title>
<g id="a_edge37_Node000025_Node000027"><a xlink:title=" ">
<path fill="none" stroke="#63b8ff" d="M298.5,-298.93C292.37,-287.97 285.62,-275.93 280.54,-266.86"/>
<polygon fill="#63b8ff" stroke="#63b8ff" points="295.53,-300.78 303.46,-307.79 301.63,-297.36 295.53,-300.78"/>
</a>
</g>
</g>
<!-- Node28&#45;&gt;Node14 -->
<g id="edge39_Node000028_Node000014" class="edge">
<title>Node28&#45;&gt;Node14</title>
<g id="a_edge39_Node000028_Node000014"><a xlink:title=" ">
<path fill="none" stroke="#63b8ff" d="M515.6,-298.3C505.98,-266.72 490.9,-217.24 482.56,-189.88"/>
<polygon fill="#63b8ff" stroke="#63b8ff" points="512.25,-299.33 518.52,-307.87 518.95,-297.28 512.25,-299.33"/>
</a>
</g>
</g>
<!-- Node28&#45;&gt;Node29 -->
<g id="edge40_Node000028_Node000029" class="edge">
<title>Node28&#45;&gt;Node29</title>
<g id="a_edge40_Node000028_Node000029"><a xlink:title=" ">
<path fill="none" stroke="#63b8ff" d="M552.15,-300.57C563.84,-289.18 576.98,-276.39 586.76,-266.86"/>
<polygon fill="#63b8ff" stroke="#63b8ff" points="549.45,-298.31 544.73,-307.79 554.34,-303.32 549.45,-298.31"/>
</a>
</g>
</g>
<!-- Node36&#45;&gt;Node2 -->
<g id="edge56_Node000036_Node000002" class="edge">
<title>Node36&#45;&gt;Node2</title>
<g id="a_edge56_Node000036_Node000002"><a xlink:title=" ">
<path fill="none" stroke="#63b8ff" d="M894.03,-587.75C880.49,-578.13 864.64,-566.86 852.42,-558.16"/>
<polygon fill="#63b8ff" stroke="#63b8ff" points="892.35,-590.85 902.53,-593.8 896.4,-585.15 892.35,-590.85"/>
</a>
</g>
</g>
<!-- Node36&#45;&gt;Node4 -->
<g id="edge58_Node000036_Node000004" class="edge">
<title>Node36&#45;&gt;Node4</title>
<g id="a_edge58_Node000036_Node000004"><a xlink:title=" ">
<path fill="none" stroke="#63b8ff" d="M923.5,-583.71C922.84,-565.69 918.77,-541.93 903.5,-528 779.89,-415.23 322.27,-455.09 157.5,-426 140.31,-422.97 121.38,-418.77 105.66,-415.04"/>
<polygon fill="#63b8ff" stroke="#63b8ff" points="920,-583.8 923.55,-593.79 927,-583.77 920,-583.8"/>
</a>
</g>
</g>
<!-- Node36&#45;&gt;Node5 -->
<g id="edge57_Node000036_Node000005" class="edge">
<title>Node36&#45;&gt;Node5</title>
<g id="a_edge57_Node000036_Node000005"><a xlink:title=" ">
<path fill="none" stroke="#63b8ff" d="M966.78,-590.12C1031.43,-564.02 1150.38,-516 1209.39,-492.17"/>
<polygon fill="#63b8ff" stroke="#63b8ff" points="965.23,-586.97 957.27,-593.96 967.85,-593.47 965.23,-586.97"/>
</a>
</g>
</g>
</g>
</svg>
