<?xml version="1.0" encoding="UTF-8" standalone="no"?>
<!DOCTYPE svg PUBLIC "-//W3C//DTD SVG 1.1//EN"
 "http://www.w3.org/Graphics/SVG/1.1/DTD/svg11.dtd">
<!-- Generated by graphviz version 2.43.0 (0)
 -->
<!-- Title: include/mosaic/logger/log.h Pages: 1 -->
<!--zoomable 511 -->

<svg id="main" version="1.1" xmlns="http://www.w3.org/2000/svg" xmlns:xlink="http://www.w3.org/1999/xlink" xml:space="preserve" onload="init(evt)">
<style type="text/css"><![CDATA[
.node, .edge {opacity: 0.7;}
.node.selected, .edge.selected {opacity: 1;}
.edge:hover path { stroke: red; }
.edge:hover polygon { stroke: red; fill: red; }
]]></style>

<defs>
  <circle id="rim" cx="0" cy="0" r="7"/>
  <circle id="rim2" cx="0" cy="0" r="3.5"/>
  <g id="zoomPlus">
    <use xlink:href="#rim" fill="#404040"><set attributeName="fill" to="#808080" begin="zoomplus.mouseover" end="zoomplus.mouseout"/></use>
    <path d="M-4,0h8M0,-4v8" fill="none" stroke="white" stroke-width="1.5" pointer-events="none"/>
  </g>
  <g id="zoomMin">
    <use xlink:href="#rim" fill="#404040"><set attributeName="fill" to="#808080" begin="zoomminus.mouseover" end="zoomminus.mouseout"/></use>
    <path d="M-4,0h8" fill="none" stroke="white" stroke-width="1.5" pointer-events="none"/>
  </g>
  <g id="arrowUp" transform="translate(30 24)">
    <use xlink:href="#rim"/>
    <path pointer-events="none" fill="none" stroke="white" stroke-width="1.5" d="M0,-3.0v7 M-2.5,-0.5L0,-3.0L2.5,-0.5"/>
  </g>
  <g id="arrowRight" transform="rotate(90) translate(36 -43)">
    <use xlink:href="#rim"/>
    <path pointer-events="none" fill="none" stroke="white" stroke-width="1.5" d="M0,-3.0v7 M-2.5,-0.5L0,-3.0L2.5,-0.5"/>
  </g>
  <g id="arrowDown" transform="rotate(180) translate(-30 -48)">
    <use xlink:href="#rim"/>
    <path pointer-events="none" fill="none" stroke="white" stroke-width="1.5" d="M0,-3.0v7 M-2.5,-0.5L0,-3.0L2.5,-0.5"/>
  </g>
  <g id="arrowLeft" transform="rotate(270) translate(-36 17)">
    <use xlink:href="#rim"/>
    <path pointer-events="none" fill="none" stroke="white" stroke-width="1.5" d="M0,-3.0v7 M-2.5,-0.5L0,-3.0L2.5,-0.5"/>
  </g>
  <g id="resetDef">
    <use xlink:href="#rim2" fill="#404040"><set attributeName="fill" to="#808080" begin="reset.mouseover" end="reset.mouseout"/></use>
  </g>
</defs>
<script type="application/ecmascript">
var viewWidth = 2878;
var viewHeight = 511;
var sectionId = 'dynsection-1';
</script>
<script type="application/ecmascript" xlink:href="svg.min.js"/>
<svg id="graph" class="graph">
<g id="viewport">
<title>include/mosaic/logger/log.h</title>
<!-- Node1 -->
<g id="Node000001" class="node">
<title>Node1</title>
<g id="a_Node000001"><a xlink:title=" ">
<polygon fill="#999999" stroke="#666666" points="1896.5,-503 1772.5,-503 1772.5,-473 1896.5,-473 1896.5,-503"/>
<text text-anchor="start" x="1780.5" y="-491" font-family="Helvetica,sans-Serif" font-size="10.00">include/mosaic/logger</text>
<text text-anchor="middle" x="1834.5" y="-480" font-family="Helvetica,sans-Serif" font-size="10.00">/log.h</text>
</a>
</g>
</g>
<!-- Node2 -->
<g id="Node000002" class="node">
<title>Node2</title>
<g id="a_Node000002"><a xlink:href="data__channel__receivable_8h.html" target="_top" xlink:title=" ">
<polygon fill="white" stroke="#666666" points="508,-283 355,-283 355,-242 508,-242 508,-283"/>
<text text-anchor="start" x="363" y="-271" font-family="Helvetica,sans-Serif" font-size="10.00">include/mosaic/handlers</text>
<text text-anchor="start" x="363" y="-260" font-family="Helvetica,sans-Serif" font-size="10.00">/data_channel/data_channel</text>
<text text-anchor="middle" x="431.5" y="-249" font-family="Helvetica,sans-Serif" font-size="10.00">_receivable.h</text>
</a>
</g>
</g>
<!-- Node1&#45;&gt;Node2 -->
<g id="edge1_Node000001_Node000002" class="edge">
<title>Node1&#45;&gt;Node2</title>
<g id="a_edge1_Node000001_Node000002"><a xlink:title=" ">
<path fill="none" stroke="#63b8ff" d="M1762.39,-486.34C1544.92,-483.94 897.75,-473.83 690.5,-437 579.37,-417.25 522.8,-444.96 448.5,-360 429.91,-338.74 428.28,-304.48 429.43,-283.01"/>
<polygon fill="#63b8ff" stroke="#63b8ff" points="1762.38,-489.84 1772.42,-486.44 1762.46,-482.84 1762.38,-489.84"/>
</a>
</g>
</g>
<!-- Node3 -->
<g id="Node000003" class="node">
<title>Node3</title>
<g id="a_Node000003"><a xlink:href="a__data__channel__handler_8cpp.html" target="_top" xlink:title=" ">
<polygon fill="white" stroke="#666666" points="510.5,-195 352.5,-195 352.5,-165 510.5,-165 510.5,-195"/>
<text text-anchor="start" x="360.5" y="-183" font-family="Helvetica,sans-Serif" font-size="10.00">src/handlers/data_channel</text>
<text text-anchor="middle" x="431.5" y="-172" font-family="Helvetica,sans-Serif" font-size="10.00">/a_data_channel_handler.cpp</text>
</a>
</g>
</g>
<!-- Node1&#45;&gt;Node3 -->
<g id="edge48_Node000001_Node000003" class="edge">
<title>Node1&#45;&gt;Node3</title>
<g id="a_edge48_Node000001_Node000003"><a xlink:title=" ">
<path fill="none" stroke="#63b8ff" d="M1762.26,-486.1C1586.09,-483.35 1138.25,-472.95 993.5,-437 880.6,-408.96 555.29,-244.52 458.79,-195.06"/>
<polygon fill="#63b8ff" stroke="#63b8ff" points="1762.41,-489.6 1772.46,-486.25 1762.51,-482.6 1762.41,-489.6"/>
</a>
</g>
</g>
<!-- Node5 -->
<g id="Node000005" class="node">
<title>Node5</title>
<g id="a_Node000005"><a xlink:href="data__channel__sendable_8h.html" target="_top" xlink:title=" ">
<polygon fill="white" stroke="#666666" points="337,-283 184,-283 184,-242 337,-242 337,-283"/>
<text text-anchor="start" x="192" y="-271" font-family="Helvetica,sans-Serif" font-size="10.00">include/mosaic/handlers</text>
<text text-anchor="start" x="192" y="-260" font-family="Helvetica,sans-Serif" font-size="10.00">/data_channel/data_channel</text>
<text text-anchor="middle" x="260.5" y="-249" font-family="Helvetica,sans-Serif" font-size="10.00">_sendable.h</text>
</a>
</g>
</g>
<!-- Node1&#45;&gt;Node5 -->
<g id="edge4_Node000001_Node000005" class="edge">
<title>Node1&#45;&gt;Node5</title>
<g id="a_edge4_Node000001_Node000005"><a xlink:title=" ">
<path fill="none" stroke="#63b8ff" d="M1761.96,-486.89C1499.1,-486.15 605.6,-480.43 485.5,-437 395.28,-404.38 312.27,-321.17 277.6,-283.08"/>
<polygon fill="#63b8ff" stroke="#63b8ff" points="1762.15,-490.39 1772.15,-486.92 1762.16,-483.39 1762.15,-490.39"/>
</a>
</g>
</g>
<!-- Node6 -->
<g id="Node000006" class="node">
<title>Node6</title>
<g id="a_Node000006"><a xlink:href="data__channel__sendable_8cpp.html" target="_top" xlink:title=" ">
<polygon fill="white" stroke="#666666" points="155,-195 0,-195 0,-165 155,-165 155,-195"/>
<text text-anchor="start" x="8" y="-183" font-family="Helvetica,sans-Serif" font-size="10.00">src/handlers/data_channel</text>
<text text-anchor="middle" x="77.5" y="-172" font-family="Helvetica,sans-Serif" font-size="10.00">/data_channel_sendable.cpp</text>
</a>
</g>
</g>
<!-- Node1&#45;&gt;Node6 -->
<g id="edge49_Node000001_Node000006" class="edge">
<title>Node1&#45;&gt;Node6</title>
<g id="a_edge49_Node000001_Node000006"><a xlink:title=" ">
<path fill="none" stroke="#63b8ff" d="M1762.26,-486.8C1489.75,-485.73 533.08,-479 403.5,-437 256.66,-389.4 127.02,-241.84 88.85,-195.25"/>
<polygon fill="#63b8ff" stroke="#63b8ff" points="1762.41,-490.3 1772.42,-486.84 1762.44,-483.3 1762.41,-490.3"/>
</a>
</g>
</g>
<!-- Node7 -->
<g id="Node000007" class="node">
<title>Node7</title>
<g id="a_Node000007"><a xlink:href="i__data__channel__handler_8h.html" target="_top" xlink:title=" ">
<polygon fill="white" stroke="#666666" points="1163,-437 1002,-437 1002,-396 1163,-396 1163,-437"/>
<text text-anchor="start" x="1010" y="-425" font-family="Helvetica,sans-Serif" font-size="10.00">include/mosaic/handlers</text>
<text text-anchor="start" x="1010" y="-414" font-family="Helvetica,sans-Serif" font-size="10.00">/data_channel/i_data_channel</text>
<text text-anchor="middle" x="1082.5" y="-403" font-family="Helvetica,sans-Serif" font-size="10.00">_handler.h</text>
</a>
</g>
</g>
<!-- Node1&#45;&gt;Node7 -->
<g id="edge6_Node000001_Node000007" class="edge">
<title>Node1&#45;&gt;Node7</title>
<g id="a_edge6_Node000001_Node000007"><a xlink:title=" ">
<path fill="none" stroke="#63b8ff" d="M1762.06,-480.3C1621.02,-467.27 1310.54,-438.58 1163.18,-424.96"/>
<polygon fill="#63b8ff" stroke="#63b8ff" points="1762.04,-483.82 1772.32,-481.25 1762.69,-476.85 1762.04,-483.82"/>
</a>
</g>
</g>
<!-- Node22 -->
<g id="Node000022" class="node">
<title>Node22</title>
<g id="a_Node000022"><a xlink:href="peer__connection__manager_8cpp.html" target="_top" xlink:title=" ">
<polygon fill="white" stroke="#666666" points="1828.5,-195 1690.5,-195 1690.5,-165 1828.5,-165 1828.5,-195"/>
<text text-anchor="start" x="1698.5" y="-183" font-family="Helvetica,sans-Serif" font-size="10.00">src/core/peer_connection</text>
<text text-anchor="middle" x="1759.5" y="-172" font-family="Helvetica,sans-Serif" font-size="10.00">_manager.cpp</text>
</a>
</g>
</g>
<!-- Node1&#45;&gt;Node22 -->
<g id="edge46_Node000001_Node000022" class="edge">
<title>Node1&#45;&gt;Node22</title>
<g id="a_edge46_Node000001_Node000022"><a xlink:title=" ">
<path fill="none" stroke="#63b8ff" d="M1833.85,-462.78C1831.97,-417.9 1824.7,-319.36 1796.5,-242 1790.22,-224.78 1778.84,-207.08 1770.35,-195.21"/>
<polygon fill="#63b8ff" stroke="#63b8ff" points="1830.36,-463.12 1834.22,-472.99 1837.35,-462.87 1830.36,-463.12"/>
</a>
</g>
</g>
<!-- Node24 -->
<g id="Node000024" class="node">
<title>Node24</title>
<g id="a_Node000024"><a xlink:href="mosaic__connector_8cpp.html" target="_top" xlink:title=" ">
<polygon fill="white" stroke="#666666" points="2012.5,-189.5 1846.5,-189.5 1846.5,-170.5 2012.5,-170.5 2012.5,-189.5"/>
<text text-anchor="middle" x="1929.5" y="-177.5" font-family="Helvetica,sans-Serif" font-size="10.00">src/core/mosaic_connector.cpp</text>
</a>
</g>
</g>
<!-- Node1&#45;&gt;Node24 -->
<g id="edge45_Node000001_Node000024" class="edge">
<title>Node1&#45;&gt;Node24</title>
<g id="a_edge45_Node000001_Node000024"><a xlink:title=" ">
<path fill="none" stroke="#63b8ff" d="M1842.04,-462.72C1861.79,-399.09 1914.38,-229.69 1926.83,-189.59"/>
<polygon fill="#63b8ff" stroke="#63b8ff" points="1838.58,-462.06 1838.95,-472.65 1845.26,-464.14 1838.58,-462.06"/>
</a>
</g>
</g>
<!-- Node25 -->
<g id="Node000025" class="node">
<title>Node25</title>
<g id="a_Node000025"><a xlink:href="peer__connection__observer_8cpp.html" target="_top" xlink:title=" ">
<polygon fill="white" stroke="#666666" points="1672.5,-195 1534.5,-195 1534.5,-165 1672.5,-165 1672.5,-195"/>
<text text-anchor="start" x="1542.5" y="-183" font-family="Helvetica,sans-Serif" font-size="10.00">src/core/peer_connection</text>
<text text-anchor="middle" x="1603.5" y="-172" font-family="Helvetica,sans-Serif" font-size="10.00">_observer.cpp</text>
</a>
</g>
</g>
<!-- Node1&#45;&gt;Node25 -->
<g id="edge47_Node000001_Node000025" class="edge">
<title>Node1&#45;&gt;Node25</title>
<g id="a_edge47_Node000001_Node000025"><a xlink:title=" ">
<path fill="none" stroke="#63b8ff" d="M1803.95,-467.12C1756.77,-434.67 1667.01,-365.58 1622.5,-283 1607.12,-254.46 1603.97,-215.63 1603.46,-195.09"/>
<polygon fill="#63b8ff" stroke="#63b8ff" points="1802.27,-470.21 1812.51,-472.93 1806.2,-464.42 1802.27,-470.21"/>
</a>
</g>
</g>
<!-- Node27 -->
<g id="Node000027" class="node">
<title>Node27</title>
<g id="a_Node000027"><a xlink:href="signaling__client_8cpp.html" target="_top" xlink:title=" ">
<polygon fill="white" stroke="#666666" points="1516,-195 1391,-195 1391,-165 1516,-165 1516,-195"/>
<text text-anchor="start" x="1399" y="-183" font-family="Helvetica,sans-Serif" font-size="10.00">src/signaling/signaling</text>
<text text-anchor="middle" x="1453.5" y="-172" font-family="Helvetica,sans-Serif" font-size="10.00">_client.cpp</text>
</a>
</g>
</g>
<!-- Node1&#45;&gt;Node27 -->
<g id="edge54_Node000001_Node000027" class="edge">
<title>Node1&#45;&gt;Node27</title>
<g id="a_edge54_Node000001_Node000027"><a xlink:title=" ">
<path fill="none" stroke="#63b8ff" d="M1778.04,-469.39C1756.78,-461.33 1733.03,-450.52 1713.5,-437 1619.67,-372.06 1631.01,-318.66 1546.5,-242 1525.91,-223.32 1499.05,-206.35 1479.5,-195.08"/>
<polygon fill="#63b8ff" stroke="#63b8ff" points="1777.02,-472.75 1787.62,-472.91 1779.43,-466.18 1777.02,-472.75"/>
</a>
</g>
</g>
<!-- Node29 -->
<g id="Node000029" class="node">
<title>Node29</title>
<g id="a_Node000029"><a xlink:href="logger_8h.html" target="_top" xlink:title=" ">
<polygon fill="white" stroke="#666666" points="2005.5,-431.5 1881.5,-431.5 1881.5,-401.5 2005.5,-401.5 2005.5,-431.5"/>
<text text-anchor="start" x="1889.5" y="-419.5" font-family="Helvetica,sans-Serif" font-size="10.00">include/mosaic/logger</text>
<text text-anchor="middle" x="1943.5" y="-408.5" font-family="Helvetica,sans-Serif" font-size="10.00">/logger.h</text>
</a>
</g>
</g>
<!-- Node1&#45;&gt;Node29 -->
<g id="edge43_Node000001_Node000029" class="edge">
<title>Node1&#45;&gt;Node29</title>
<g id="a_edge43_Node000001_Node000029"><a xlink:title=" ">
<path fill="none" stroke="#63b8ff" d="M1865.47,-467.25C1883.33,-455.86 1905.38,-441.81 1921.48,-431.54"/>
<polygon fill="#63b8ff" stroke="#63b8ff" points="1863.11,-464.61 1856.56,-472.94 1866.87,-470.51 1863.11,-464.61"/>
</a>
</g>
</g>
<!-- Node30 -->
<g id="Node000030" class="node">
<title>Node30</title>
<g id="a_Node000030"><a xlink:href="connector__state__manager_8cpp.html" target="_top" xlink:title=" ">
<polygon fill="white" stroke="#666666" points="2139,-431.5 2024,-431.5 2024,-401.5 2139,-401.5 2139,-431.5"/>
<text text-anchor="start" x="2032" y="-419.5" font-family="Helvetica,sans-Serif" font-size="10.00">src/core/connector</text>
<text text-anchor="middle" x="2081.5" y="-408.5" font-family="Helvetica,sans-Serif" font-size="10.00">_state_manager.cpp</text>
</a>
</g>
</g>
<!-- Node1&#45;&gt;Node30 -->
<g id="edge44_Node000001_Node000030" class="edge">
<title>Node1&#45;&gt;Node30</title>
<g id="a_edge44_Node000001_Node000030"><a xlink:title=" ">
<path fill="none" stroke="#63b8ff" d="M1895.78,-470.18C1930.61,-460.57 1975.03,-448.22 2014.5,-437 2020.68,-435.24 2027.17,-433.38 2033.58,-431.53"/>
<polygon fill="#63b8ff" stroke="#63b8ff" points="1894.46,-466.91 1885.75,-472.94 1896.33,-473.66 1894.46,-466.91"/>
</a>
</g>
</g>
<!-- Node31 -->
<g id="Node000031" class="node">
<title>Node31</title>
<g id="a_Node000031"><a xlink:href="a__media__track__handler_8cpp.html" target="_top" xlink:title=" ">
<polygon fill="white" stroke="#666666" points="2279.5,-437 2157.5,-437 2157.5,-396 2279.5,-396 2279.5,-437"/>
<text text-anchor="start" x="2165.5" y="-425" font-family="Helvetica,sans-Serif" font-size="10.00">src/handlers/media</text>
<text text-anchor="start" x="2165.5" y="-414" font-family="Helvetica,sans-Serif" font-size="10.00">_track/a_media_track</text>
<text text-anchor="middle" x="2218.5" y="-403" font-family="Helvetica,sans-Serif" font-size="10.00">_handler.cpp</text>
</a>
</g>
</g>
<!-- Node1&#45;&gt;Node31 -->
<g id="edge50_Node000001_Node000031" class="edge">
<title>Node1&#45;&gt;Node31</title>
<g id="a_edge50_Node000001_Node000031"><a xlink:title=" ">
<path fill="none" stroke="#63b8ff" d="M1906.53,-477.9C1970.46,-469.27 2066.21,-454.95 2148.5,-437 2151.33,-436.38 2154.23,-435.72 2157.14,-435.02"/>
<polygon fill="#63b8ff" stroke="#63b8ff" points="1906,-474.44 1896.55,-479.24 1906.93,-481.38 1906,-474.44"/>
</a>
</g>
</g>
<!-- Node32 -->
<g id="Node000032" class="node">
<title>Node32</title>
<g id="a_Node000032"><a xlink:href="recordable_8cpp.html" target="_top" xlink:title=" ">
<polygon fill="white" stroke="#666666" points="2419.5,-431.5 2297.5,-431.5 2297.5,-401.5 2419.5,-401.5 2419.5,-431.5"/>
<text text-anchor="start" x="2305.5" y="-419.5" font-family="Helvetica,sans-Serif" font-size="10.00">src/handlers/media</text>
<text text-anchor="middle" x="2358.5" y="-408.5" font-family="Helvetica,sans-Serif" font-size="10.00">_track/recordable.cpp</text>
</a>
</g>
</g>
<!-- Node1&#45;&gt;Node32 -->
<g id="edge51_Node000001_Node000032" class="edge">
<title>Node1&#45;&gt;Node32</title>
<g id="a_edge51_Node000001_Node000032"><a xlink:title=" ">
<path fill="none" stroke="#63b8ff" d="M1906.76,-482.67C1996.79,-476.44 2155.05,-462.76 2288.5,-437 2296.18,-435.52 2304.25,-433.61 2312.06,-431.57"/>
<polygon fill="#63b8ff" stroke="#63b8ff" points="1906.4,-479.18 1896.66,-483.35 1906.87,-486.17 1906.4,-479.18"/>
</a>
</g>
</g>
<!-- Node33 -->
<g id="Node000033" class="node">
<title>Node33</title>
<g id="a_Node000033"><a xlink:href="a__mosaic__authenticator_8cpp.html" target="_top" xlink:title=" ">
<polygon fill="white" stroke="#666666" points="2559.5,-431.5 2437.5,-431.5 2437.5,-401.5 2559.5,-401.5 2559.5,-431.5"/>
<text text-anchor="start" x="2445.5" y="-419.5" font-family="Helvetica,sans-Serif" font-size="10.00">src/security/a_mosaic</text>
<text text-anchor="middle" x="2498.5" y="-408.5" font-family="Helvetica,sans-Serif" font-size="10.00">_authenticator.cpp</text>
</a>
</g>
</g>
<!-- Node1&#45;&gt;Node33 -->
<g id="edge52_Node000001_Node000033" class="edge">
<title>Node1&#45;&gt;Node33</title>
<g id="a_edge52_Node000001_Node000033"><a xlink:title=" ">
<path fill="none" stroke="#63b8ff" d="M1906.77,-485.28C2019.16,-481.63 2242.31,-470.46 2428.5,-437 2436.45,-435.57 2444.79,-433.64 2452.85,-431.54"/>
<polygon fill="#63b8ff" stroke="#63b8ff" points="1906.45,-481.79 1896.57,-485.6 1906.67,-488.79 1906.45,-481.79"/>
</a>
</g>
</g>
<!-- Node34 -->
<g id="Node000034" class="node">
<title>Node34</title>
<g id="a_Node000034"><a xlink:href="authenticator__resolver_8cpp.html" target="_top" xlink:title=" ">
<polygon fill="white" stroke="#666666" points="2719,-431.5 2578,-431.5 2578,-401.5 2719,-401.5 2719,-431.5"/>
<text text-anchor="start" x="2586" y="-419.5" font-family="Helvetica,sans-Serif" font-size="10.00">src/security/authenticator</text>
<text text-anchor="middle" x="2648.5" y="-408.5" font-family="Helvetica,sans-Serif" font-size="10.00">_resolver.cpp</text>
</a>
</g>
</g>
<!-- Node1&#45;&gt;Node34 -->
<g id="edge53_Node000001_Node000034" class="edge">
<title>Node1&#45;&gt;Node34</title>
<g id="a_edge53_Node000001_Node000034"><a xlink:title=" ">
<path fill="none" stroke="#63b8ff" d="M1906.76,-486.17C2038.9,-483.73 2328,-474.22 2568.5,-437 2577.54,-435.6 2587.06,-433.68 2596.26,-431.59"/>
<polygon fill="#63b8ff" stroke="#63b8ff" points="1906.7,-482.67 1896.76,-486.34 1906.82,-489.66 1906.7,-482.67"/>
</a>
</g>
</g>
<!-- Node35 -->
<g id="Node000035" class="node">
<title>Node35</title>
<g id="a_Node000035"><a xlink:href="websocket__client_8cpp.html" target="_top" xlink:title=" ">
<polygon fill="white" stroke="#666666" points="2870,-431.5 2737,-431.5 2737,-401.5 2870,-401.5 2870,-431.5"/>
<text text-anchor="start" x="2745" y="-419.5" font-family="Helvetica,sans-Serif" font-size="10.00">src/signaling/websocket</text>
<text text-anchor="middle" x="2803.5" y="-408.5" font-family="Helvetica,sans-Serif" font-size="10.00">_client.cpp</text>
</a>
</g>
</g>
<!-- Node1&#45;&gt;Node35 -->
<g id="edge55_Node000001_Node000035" class="edge">
<title>Node1&#45;&gt;Node35</title>
<g id="a_edge55_Node000001_Node000035"><a xlink:title=" ">
<path fill="none" stroke="#63b8ff" d="M1906.92,-487.8C2059.73,-488.42 2425.98,-484.31 2728.5,-437 2737.27,-435.63 2746.51,-433.67 2755.38,-431.51"/>
<polygon fill="#63b8ff" stroke="#63b8ff" points="1906.74,-484.3 1896.72,-487.75 1906.71,-491.3 1906.74,-484.3"/>
</a>
</g>
</g>
<!-- Node2&#45;&gt;Node3 -->
<g id="edge2_Node000002_Node000003" class="edge">
<title>Node2&#45;&gt;Node3</title>
<g id="a_edge2_Node000002_Node000003"><a xlink:title=" ">
<path fill="none" stroke="#63b8ff" d="M431.5,-231.26C431.5,-218.96 431.5,-205.33 431.5,-195.37"/>
<polygon fill="#63b8ff" stroke="#63b8ff" points="428,-231.6 431.5,-241.6 435,-231.6 428,-231.6"/>
</a>
</g>
</g>
<!-- Node4 -->
<g id="Node000004" class="node">
<title>Node4</title>
<g id="a_Node000004"><a xlink:href="data__channel__receivable_8cpp.html" target="_top" xlink:title=" ">
<polygon fill="white" stroke="#666666" points="334,-195 173,-195 173,-165 334,-165 334,-195"/>
<text text-anchor="start" x="181" y="-183" font-family="Helvetica,sans-Serif" font-size="10.00">src/handlers/data_channel</text>
<text text-anchor="middle" x="253.5" y="-172" font-family="Helvetica,sans-Serif" font-size="10.00">/data_channel_receivable.cpp</text>
</a>
</g>
</g>
<!-- Node2&#45;&gt;Node4 -->
<g id="edge3_Node000002_Node000004" class="edge">
<title>Node2&#45;&gt;Node4</title>
<g id="a_edge3_Node000002_Node000004"><a xlink:title=" ">
<path fill="none" stroke="#63b8ff" d="M378.69,-237.62C348.06,-223.76 310.53,-206.79 284.6,-195.06"/>
<polygon fill="#63b8ff" stroke="#63b8ff" points="377.4,-240.88 387.96,-241.81 380.29,-234.5 377.4,-240.88"/>
</a>
</g>
</g>
<!-- Node5&#45;&gt;Node6 -->
<g id="edge5_Node000005_Node000006" class="edge">
<title>Node5&#45;&gt;Node6</title>
<g id="a_edge5_Node000005_Node000006"><a xlink:title=" ">
<path fill="none" stroke="#63b8ff" d="M206.21,-237.62C174.72,-223.76 136.13,-206.79 109.47,-195.06"/>
<polygon fill="#63b8ff" stroke="#63b8ff" points="205.17,-240.98 215.73,-241.81 207.99,-234.58 205.17,-240.98"/>
</a>
</g>
</g>
<!-- Node8 -->
<g id="Node000008" class="node">
<title>Node8</title>
<g id="a_Node000008"><a xlink:href="auto__configurer_8h.html" target="_top" xlink:title=" ">
<polygon fill="white" stroke="#666666" points="686.5,-195 528.5,-195 528.5,-165 686.5,-165 686.5,-195"/>
<text text-anchor="start" x="536.5" y="-183" font-family="Helvetica,sans-Serif" font-size="10.00">include/mosaic/auto</text>
<text text-anchor="middle" x="607.5" y="-172" font-family="Helvetica,sans-Serif" font-size="10.00">_configurer/auto_configurer.h</text>
</a>
</g>
</g>
<!-- Node7&#45;&gt;Node8 -->
<g id="edge7_Node000007_Node000008" class="edge">
<title>Node7&#45;&gt;Node8</title>
<g id="a_edge7_Node000007_Node000008"><a xlink:title=" ">
<path fill="none" stroke="#63b8ff" d="M1030.47,-391.63C974.02,-365.57 881.39,-322.28 802.5,-283 741.45,-252.6 670.73,-215.01 633.51,-195.03"/>
<polygon fill="#63b8ff" stroke="#63b8ff" points="1029,-394.81 1039.55,-395.82 1031.94,-388.46 1029,-394.81"/>
</a>
</g>
</g>
<!-- Node10 -->
<g id="Node000010" class="node">
<title>Node10</title>
<g id="a_Node000010"><a xlink:href="mosaic__connector_8h.html" target="_top" xlink:title=" ">
<polygon fill="white" stroke="#666666" points="1409.5,-354.5 1293.5,-354.5 1293.5,-324.5 1409.5,-324.5 1409.5,-354.5"/>
<text text-anchor="start" x="1301.5" y="-342.5" font-family="Helvetica,sans-Serif" font-size="10.00">include/mosaic/core</text>
<text text-anchor="middle" x="1351.5" y="-331.5" font-family="Helvetica,sans-Serif" font-size="10.00">/mosaic_connector.h</text>
</a>
</g>
</g>
<!-- Node7&#45;&gt;Node10 -->
<g id="edge9_Node000007_Node000010" class="edge">
<title>Node7&#45;&gt;Node10</title>
<g id="a_edge9_Node000007_Node000010"><a xlink:title=" ">
<path fill="none" stroke="#63b8ff" d="M1162.2,-393.28C1207.15,-380.75 1261.94,-365.47 1300.99,-354.58"/>
<polygon fill="#63b8ff" stroke="#63b8ff" points="1161.17,-389.93 1152.47,-395.99 1163.05,-396.68 1161.17,-389.93"/>
</a>
</g>
</g>
<!-- Node28 -->
<g id="Node000028" class="node">
<title>Node28</title>
<g id="a_Node000028"><a xlink:href="a__data__channel__handler_8h.html" target="_top" xlink:title=" ">
<polygon fill="white" stroke="#666666" points="621.5,-360 457.5,-360 457.5,-319 621.5,-319 621.5,-360"/>
<text text-anchor="start" x="465.5" y="-348" font-family="Helvetica,sans-Serif" font-size="10.00">include/mosaic/handlers</text>
<text text-anchor="start" x="465.5" y="-337" font-family="Helvetica,sans-Serif" font-size="10.00">/data_channel/a_data_channel</text>
<text text-anchor="middle" x="539.5" y="-326" font-family="Helvetica,sans-Serif" font-size="10.00">_handler.h</text>
</a>
</g>
</g>
<!-- Node7&#45;&gt;Node28 -->
<g id="edge39_Node000007_Node000028" class="edge">
<title>Node7&#45;&gt;Node28</title>
<g id="a_edge39_Node000007_Node000028"><a xlink:title=" ">
<path fill="none" stroke="#63b8ff" d="M991.69,-402.96C888.36,-388.68 721.08,-365.58 621.54,-351.83"/>
<polygon fill="#63b8ff" stroke="#63b8ff" points="991.41,-406.45 1001.79,-404.35 992.37,-399.52 991.41,-406.45"/>
</a>
</g>
</g>
<!-- Node9 -->
<g id="Node000009" class="node">
<title>Node9</title>
<g id="a_Node000009"><a xlink:href="auto__configurer_8cpp.html" target="_top" xlink:title=" ">
<polygon fill="white" stroke="#666666" points="941,-30 826,-30 826,0 941,0 941,-30"/>
<text text-anchor="start" x="834" y="-18" font-family="Helvetica,sans-Serif" font-size="10.00">src/auto_configurer</text>
<text text-anchor="middle" x="883.5" y="-7" font-family="Helvetica,sans-Serif" font-size="10.00">/auto_configurer.cpp</text>
</a>
</g>
</g>
<!-- Node8&#45;&gt;Node9 -->
<g id="edge8_Node000008_Node000009" class="edge">
<title>Node8&#45;&gt;Node9</title>
<g id="a_edge8_Node000008_Node000009"><a xlink:title=" ">
<path fill="none" stroke="#63b8ff" d="M585.08,-157.35C562.53,-132.96 534.18,-93.17 557.5,-66 591.39,-26.52 741.48,-17.89 825.69,-16.21"/>
<polygon fill="#63b8ff" stroke="#63b8ff" points="582.68,-159.9 592.13,-164.69 587.73,-155.06 582.68,-159.9"/>
</a>
</g>
</g>
<!-- Node11 -->
<g id="Node000011" class="node">
<title>Node11</title>
<g id="a_Node000011"><a xlink:href="i__configurable__connector_8h.html" target="_top" xlink:title=" ">
<polygon fill="white" stroke="#666666" points="960,-283 811,-283 811,-242 960,-242 960,-283"/>
<text text-anchor="start" x="819" y="-271" font-family="Helvetica,sans-Serif" font-size="10.00">include/mosaic/auto</text>
<text text-anchor="start" x="819" y="-260" font-family="Helvetica,sans-Serif" font-size="10.00">_configurer/connector</text>
<text text-anchor="middle" x="885.5" y="-249" font-family="Helvetica,sans-Serif" font-size="10.00">/i_configurable_connector.h</text>
</a>
</g>
</g>
<!-- Node10&#45;&gt;Node11 -->
<g id="edge10_Node000010_Node000011" class="edge">
<title>Node10&#45;&gt;Node11</title>
<g id="a_edge10_Node000010_Node000011"><a xlink:title=" ">
<path fill="none" stroke="#63b8ff" d="M1283.46,-327.7C1213.49,-316.57 1101.37,-298.68 1004.5,-283 990.14,-280.67 974.8,-278.17 960.08,-275.77"/>
<polygon fill="#63b8ff" stroke="#63b8ff" points="1283.04,-331.17 1293.47,-329.29 1284.14,-324.26 1283.04,-331.17"/>
</a>
</g>
</g>
<!-- Node19 -->
<g id="Node000019" class="node">
<title>Node19</title>
<g id="a_Node000019"><a xlink:href="mosaic__connector__factory_8h.html" target="_top" xlink:title=" ">
<polygon fill="white" stroke="#666666" points="1168,-277.5 1013,-277.5 1013,-247.5 1168,-247.5 1168,-277.5"/>
<text text-anchor="start" x="1021" y="-265.5" font-family="Helvetica,sans-Serif" font-size="10.00">include/mosaic/core</text>
<text text-anchor="middle" x="1090.5" y="-254.5" font-family="Helvetica,sans-Serif" font-size="10.00">/mosaic_connector_factory.h</text>
</a>
</g>
</g>
<!-- Node10&#45;&gt;Node19 -->
<g id="edge24_Node000010_Node000019" class="edge">
<title>Node10&#45;&gt;Node19</title>
<g id="a_edge24_Node000010_Node000019"><a xlink:title=" ">
<path fill="none" stroke="#63b8ff" d="M1292.84,-321.64C1246.64,-308.37 1182.99,-290.08 1139.49,-277.58"/>
<polygon fill="#63b8ff" stroke="#63b8ff" points="1292.14,-325.08 1302.71,-324.48 1294.07,-318.36 1292.14,-325.08"/>
</a>
</g>
</g>
<!-- Node21 -->
<g id="Node000021" class="node">
<title>Node21</title>
<g id="a_Node000021"><a xlink:href="peer__connection__manager_8h.html" target="_top" xlink:title=" ">
<polygon fill="white" stroke="#666666" points="1537,-277.5 1380,-277.5 1380,-247.5 1537,-247.5 1537,-277.5"/>
<text text-anchor="start" x="1388" y="-265.5" font-family="Helvetica,sans-Serif" font-size="10.00">include/mosaic/core</text>
<text text-anchor="middle" x="1458.5" y="-254.5" font-family="Helvetica,sans-Serif" font-size="10.00">/peer_connection_manager.h</text>
</a>
</g>
</g>
<!-- Node10&#45;&gt;Node21 -->
<g id="edge27_Node000010_Node000021" class="edge">
<title>Node10&#45;&gt;Node21</title>
<g id="a_edge27_Node000010_Node000021"><a xlink:title=" ">
<path fill="none" stroke="#63b8ff" d="M1374.62,-318.03C1391.88,-305.18 1415.27,-288.94 1433.06,-277.54"/>
<polygon fill="#63b8ff" stroke="#63b8ff" points="1372.07,-315.57 1366.21,-324.39 1376.3,-321.15 1372.07,-315.57"/>
</a>
</g>
</g>
<!-- Node23 -->
<g id="Node000023" class="node">
<title>Node23</title>
<g id="a_Node000023"><a xlink:href="peer__connection__observer_8h.html" target="_top" xlink:title=" ">
<polygon fill="white" stroke="#666666" points="1787.5,-277.5 1631.5,-277.5 1631.5,-247.5 1787.5,-247.5 1787.5,-277.5"/>
<text text-anchor="start" x="1639.5" y="-265.5" font-family="Helvetica,sans-Serif" font-size="10.00">include/mosaic/core</text>
<text text-anchor="middle" x="1709.5" y="-254.5" font-family="Helvetica,sans-Serif" font-size="10.00">/peer_connection_observer.h</text>
</a>
</g>
</g>
<!-- Node10&#45;&gt;Node23 -->
<g id="edge30_Node000010_Node000023" class="edge">
<title>Node10&#45;&gt;Node23</title>
<g id="a_edge30_Node000010_Node000023"><a xlink:title=" ">
<path fill="none" stroke="#63b8ff" d="M1419.81,-324.19C1483.77,-310.79 1578.78,-290.88 1642.37,-277.56"/>
<polygon fill="#63b8ff" stroke="#63b8ff" points="1418.89,-320.81 1409.82,-326.28 1420.32,-327.66 1418.89,-320.81"/>
</a>
</g>
</g>
<!-- Node10&#45;&gt;Node24 -->
<g id="edge37_Node000010_Node000024" class="edge">
<title>Node10&#45;&gt;Node24</title>
<g id="a_edge37_Node000010_Node000024"><a xlink:title=" ">
<path fill="none" stroke="#63b8ff" d="M1419.77,-334.37C1527.08,-327.15 1729.86,-310.33 1796.5,-283 1850.88,-260.7 1902.25,-210.08 1921.5,-189.72"/>
<polygon fill="#63b8ff" stroke="#63b8ff" points="1419.44,-330.88 1409.69,-335.04 1419.9,-337.87 1419.44,-330.88"/>
</a>
</g>
</g>
<!-- Node10&#45;&gt;Node25 -->
<g id="edge38_Node000010_Node000025" class="edge">
<title>Node10&#45;&gt;Node25</title>
<g id="a_edge38_Node000010_Node000025"><a xlink:title=" ">
<path fill="none" stroke="#63b8ff" d="M1349.74,-314.09C1349.57,-292.29 1353.01,-260.97 1371.5,-242 1420.57,-191.67 1457.76,-224.74 1525.5,-206 1537.29,-202.74 1549.96,-198.85 1561.59,-195.12"/>
<polygon fill="#63b8ff" stroke="#63b8ff" points="1346.24,-314.34 1350.08,-324.21 1353.24,-314.1 1346.24,-314.34"/>
</a>
</g>
</g>
<!-- Node26 -->
<g id="Node000026" class="node">
<title>Node26</title>
<g id="a_Node000026"><a xlink:href="signaling__client_8h.html" target="_top" xlink:title=" ">
<polygon fill="white" stroke="#666666" points="1323,-277.5 1186,-277.5 1186,-247.5 1323,-247.5 1323,-277.5"/>
<text text-anchor="start" x="1194" y="-265.5" font-family="Helvetica,sans-Serif" font-size="10.00">include/mosaic/signaling</text>
<text text-anchor="middle" x="1254.5" y="-254.5" font-family="Helvetica,sans-Serif" font-size="10.00">/signaling_client.h</text>
</a>
</g>
</g>
<!-- Node10&#45;&gt;Node26 -->
<g id="edge34_Node000010_Node000026" class="edge">
<title>Node10&#45;&gt;Node26</title>
<g id="a_edge34_Node000010_Node000026"><a xlink:title=" ">
<path fill="none" stroke="#63b8ff" d="M1325.02,-318.03C1308.4,-305.18 1287.41,-288.94 1272.66,-277.54"/>
<polygon fill="#63b8ff" stroke="#63b8ff" points="1323.2,-321.05 1333.26,-324.39 1327.48,-315.51 1323.2,-321.05"/>
</a>
</g>
</g>
<!-- Node11&#45;&gt;Node8 -->
<g id="edge11_Node000011_Node000008" class="edge">
<title>Node11&#45;&gt;Node8</title>
<g id="a_edge11_Node000011_Node000008"><a xlink:title=" ">
<path fill="none" stroke="#63b8ff" d="M807.98,-239.05C759.34,-224.97 698.11,-207.24 656.19,-195.1"/>
<polygon fill="#63b8ff" stroke="#63b8ff" points="807.27,-242.49 817.85,-241.91 809.22,-235.77 807.27,-242.49"/>
</a>
</g>
</g>
<!-- Node12 -->
<g id="Node000012" class="node">
<title>Node12</title>
<g id="a_Node000012"><a xlink:href="a__dc__handler__configurer_8h.html" target="_top" xlink:title=" ">
<polygon fill="white" stroke="#666666" points="712.5,-112.5 566.5,-112.5 566.5,-71.5 712.5,-71.5 712.5,-112.5"/>
<text text-anchor="start" x="574.5" y="-100.5" font-family="Helvetica,sans-Serif" font-size="10.00">include/mosaic/auto</text>
<text text-anchor="start" x="574.5" y="-89.5" font-family="Helvetica,sans-Serif" font-size="10.00">_configurer/connector</text>
<text text-anchor="middle" x="639.5" y="-78.5" font-family="Helvetica,sans-Serif" font-size="10.00">/a_dc_handler_configurer.h</text>
</a>
</g>
</g>
<!-- Node11&#45;&gt;Node12 -->
<g id="edge12_Node000011_Node000012" class="edge">
<title>Node11&#45;&gt;Node12</title>
<g id="a_edge12_Node000011_Node000012"><a xlink:title=" ">
<path fill="none" stroke="#63b8ff" d="M836.57,-237.01C819.42,-227.88 800.27,-217.03 783.5,-206 738.37,-176.31 689.67,-136.22 662.05,-112.64"/>
<polygon fill="#63b8ff" stroke="#63b8ff" points="835.38,-240.34 845.86,-241.9 838.64,-234.15 835.38,-240.34"/>
</a>
</g>
</g>
<!-- Node13 -->
<g id="Node000013" class="node">
<title>Node13</title>
<g id="a_Node000013"><a xlink:href="a__mt__handler__configurer_8h.html" target="_top" xlink:title=" ">
<polygon fill="white" stroke="#666666" points="880,-112.5 731,-112.5 731,-71.5 880,-71.5 880,-112.5"/>
<text text-anchor="start" x="739" y="-100.5" font-family="Helvetica,sans-Serif" font-size="10.00">include/mosaic/auto</text>
<text text-anchor="start" x="739" y="-89.5" font-family="Helvetica,sans-Serif" font-size="10.00">_configurer/connector</text>
<text text-anchor="middle" x="805.5" y="-78.5" font-family="Helvetica,sans-Serif" font-size="10.00">/a_mt_handler_configurer.h</text>
</a>
</g>
</g>
<!-- Node11&#45;&gt;Node13 -->
<g id="edge14_Node000011_Node000013" class="edge">
<title>Node11&#45;&gt;Node13</title>
<g id="a_edge14_Node000011_Node000013"><a xlink:title=" ">
<path fill="none" stroke="#63b8ff" d="M827.29,-236.47C815.37,-228.53 804.38,-218.47 797.5,-206 781.35,-176.72 790.18,-136.5 797.93,-112.78"/>
<polygon fill="#63b8ff" stroke="#63b8ff" points="825.73,-239.62 836.08,-241.89 829.4,-233.66 825.73,-239.62"/>
</a>
</g>
</g>
<!-- Node14 -->
<g id="Node000014" class="node">
<title>Node14</title>
<g id="a_Node000014"><a xlink:href="a__parallel__dc__handler__configurer_8h.html" target="_top" xlink:title=" ">
<polygon fill="white" stroke="#666666" points="1024.5,-118 898.5,-118 898.5,-66 1024.5,-66 1024.5,-118"/>
<text text-anchor="start" x="906.5" y="-106" font-family="Helvetica,sans-Serif" font-size="10.00">include/mosaic/auto</text>
<text text-anchor="start" x="906.5" y="-95" font-family="Helvetica,sans-Serif" font-size="10.00">_configurer/connector</text>
<text text-anchor="start" x="906.5" y="-84" font-family="Helvetica,sans-Serif" font-size="10.00">/a_parallel_dc_handler</text>
<text text-anchor="middle" x="961.5" y="-73" font-family="Helvetica,sans-Serif" font-size="10.00">_configurer.h</text>
</a>
</g>
</g>
<!-- Node11&#45;&gt;Node14 -->
<g id="edge16_Node000011_Node000014" class="edge">
<title>Node11&#45;&gt;Node14</title>
<g id="a_edge16_Node000011_Node000014"><a xlink:title=" ">
<path fill="none" stroke="#63b8ff" d="M837.28,-236.13C826.53,-228.03 816.54,-217.99 810.5,-206 800.1,-185.36 797.58,-173.16 810.5,-154 813.27,-149.9 858.17,-132.04 898.29,-116.7"/>
<polygon fill="#63b8ff" stroke="#63b8ff" points="835.4,-239.08 845.6,-241.95 839.41,-233.35 835.4,-239.08"/>
</a>
</g>
</g>
<!-- Node15 -->
<g id="Node000015" class="node">
<title>Node15</title>
<g id="a_Node000015"><a xlink:href="configurable__connector__factory_8h.html" target="_top" xlink:title=" ">
<polygon fill="white" stroke="#666666" points="1170,-206 1037,-206 1037,-154 1170,-154 1170,-206"/>
<text text-anchor="start" x="1045" y="-194" font-family="Helvetica,sans-Serif" font-size="10.00">include/mosaic/auto</text>
<text text-anchor="start" x="1045" y="-183" font-family="Helvetica,sans-Serif" font-size="10.00">_configurer/connector</text>
<text text-anchor="start" x="1045" y="-172" font-family="Helvetica,sans-Serif" font-size="10.00">/configurable_connector</text>
<text text-anchor="middle" x="1103.5" y="-161" font-family="Helvetica,sans-Serif" font-size="10.00">_factory.h</text>
</a>
</g>
</g>
<!-- Node11&#45;&gt;Node15 -->
<g id="edge18_Node000011_Node000015" class="edge">
<title>Node11&#45;&gt;Node15</title>
<g id="a_edge18_Node000011_Node000015"><a xlink:title=" ">
<path fill="none" stroke="#63b8ff" d="M948.16,-238.36C975.95,-228.1 1008.68,-216.02 1036.91,-205.59"/>
<polygon fill="#63b8ff" stroke="#63b8ff" points="946.72,-235.16 938.55,-241.91 949.14,-241.73 946.72,-235.16"/>
</a>
</g>
</g>
<!-- Node16 -->
<g id="Node000016" class="node">
<title>Node16</title>
<g id="a_Node000016"><a xlink:href="connector__resolver_8h.html" target="_top" xlink:title=" ">
<polygon fill="white" stroke="#666666" points="1164.5,-112.5 1042.5,-112.5 1042.5,-71.5 1164.5,-71.5 1164.5,-112.5"/>
<text text-anchor="start" x="1050.5" y="-100.5" font-family="Helvetica,sans-Serif" font-size="10.00">include/mosaic/auto</text>
<text text-anchor="start" x="1050.5" y="-89.5" font-family="Helvetica,sans-Serif" font-size="10.00">_configurer/connector</text>
<text text-anchor="middle" x="1103.5" y="-78.5" font-family="Helvetica,sans-Serif" font-size="10.00">/connector_resolver.h</text>
</a>
</g>
</g>
<!-- Node11&#45;&gt;Node16 -->
<g id="edge22_Node000011_Node000016" class="edge">
<title>Node11&#45;&gt;Node16</title>
<g id="a_edge22_Node000011_Node000016"><a xlink:title=" ">
<path fill="none" stroke="#63b8ff" d="M941.28,-237.43C957.77,-228.86 975.21,-218.25 989.5,-206 1011.43,-187.2 1008.48,-174.83 1028.5,-154 1043.04,-138.88 1061.26,-123.98 1076.1,-112.69"/>
<polygon fill="#63b8ff" stroke="#63b8ff" points="939.6,-234.36 932.24,-241.98 942.75,-240.61 939.6,-234.36"/>
</a>
</g>
</g>
<!-- Node18 -->
<g id="Node000018" class="node">
<title>Node18</title>
<g id="a_Node000018"><a xlink:href="i__configurable__connector_8cpp.html" target="_top" xlink:title=" ">
<polygon fill="white" stroke="#666666" points="980,-195 819,-195 819,-165 980,-165 980,-195"/>
<text text-anchor="start" x="827" y="-183" font-family="Helvetica,sans-Serif" font-size="10.00">src/auto_configurer</text>
<text text-anchor="middle" x="899.5" y="-172" font-family="Helvetica,sans-Serif" font-size="10.00">/i_configurable_connector.cpp</text>
</a>
</g>
</g>
<!-- Node11&#45;&gt;Node18 -->
<g id="edge23_Node000011_Node000018" class="edge">
<title>Node11&#45;&gt;Node18</title>
<g id="a_edge23_Node000011_Node000018"><a xlink:title=" ">
<path fill="none" stroke="#63b8ff" d="M890.69,-231.63C892.85,-219.23 895.25,-205.43 897,-195.37"/>
<polygon fill="#63b8ff" stroke="#63b8ff" points="887.23,-231.15 888.96,-241.6 894.12,-232.35 887.23,-231.15"/>
</a>
</g>
</g>
<!-- Node12&#45;&gt;Node9 -->
<g id="edge13_Node000012_Node000009" class="edge">
<title>Node12&#45;&gt;Node9</title>
<g id="a_edge13_Node000012_Node000009"><a xlink:title=" ">
<path fill="none" stroke="#63b8ff" d="M712.56,-68.54C753.19,-56.06 802.49,-40.9 837.68,-30.08"/>
<polygon fill="#63b8ff" stroke="#63b8ff" points="711.5,-65.21 702.97,-71.49 713.56,-71.9 711.5,-65.21"/>
</a>
</g>
</g>
<!-- Node13&#45;&gt;Node9 -->
<g id="edge15_Node000013_Node000009" class="edge">
<title>Node13&#45;&gt;Node9</title>
<g id="a_edge15_Node000013_Node000009"><a xlink:title=" ">
<path fill="none" stroke="#63b8ff" d="M833.51,-64.07C845.35,-52.68 858.66,-39.89 868.56,-30.36"/>
<polygon fill="#63b8ff" stroke="#63b8ff" points="830.78,-61.84 825.99,-71.29 835.63,-66.89 830.78,-61.84"/>
</a>
</g>
</g>
<!-- Node14&#45;&gt;Node9 -->
<g id="edge17_Node000014_Node000009" class="edge">
<title>Node14&#45;&gt;Node9</title>
<g id="a_edge17_Node000014_Node000009"><a xlink:title=" ">
<path fill="none" stroke="#63b8ff" d="M927.78,-58.57C917.55,-48.74 906.83,-38.44 898.5,-30.43"/>
<polygon fill="#63b8ff" stroke="#63b8ff" points="925.46,-61.2 935.09,-65.61 930.31,-56.15 925.46,-61.2"/>
</a>
</g>
</g>
<!-- Node15&#45;&gt;Node16 -->
<g id="edge19_Node000015_Node000016" class="edge">
<title>Node15&#45;&gt;Node16</title>
<g id="a_edge19_Node000015_Node000016"><a xlink:title=" ">
<path fill="none" stroke="#63b8ff" d="M1103.5,-143.45C1103.5,-132.94 1103.5,-121.82 1103.5,-112.7"/>
<polygon fill="#63b8ff" stroke="#63b8ff" points="1100,-143.66 1103.5,-153.66 1107,-143.66 1100,-143.66"/>
</a>
</g>
</g>
<!-- Node16&#45;&gt;Node9 -->
<g id="edge20_Node000016_Node000009" class="edge">
<title>Node16&#45;&gt;Node9</title>
<g id="a_edge20_Node000016_Node000009"><a xlink:title=" ">
<path fill="none" stroke="#63b8ff" d="M1039.2,-67.98C1037.28,-67.31 1035.38,-66.65 1033.5,-66 997.56,-53.59 956.61,-39.98 926.58,-30.09"/>
<polygon fill="#63b8ff" stroke="#63b8ff" points="1038.3,-71.37 1048.89,-71.37 1040.61,-64.76 1038.3,-71.37"/>
</a>
</g>
</g>
<!-- Node17 -->
<g id="Node000017" class="node">
<title>Node17</title>
<g id="a_Node000017"><a xlink:href="connector__resolver_8cpp.html" target="_top" xlink:title=" ">
<polygon fill="white" stroke="#666666" points="1169.5,-30 1037.5,-30 1037.5,0 1169.5,0 1169.5,-30"/>
<text text-anchor="start" x="1045.5" y="-18" font-family="Helvetica,sans-Serif" font-size="10.00">src/auto_configurer</text>
<text text-anchor="middle" x="1103.5" y="-7" font-family="Helvetica,sans-Serif" font-size="10.00">/connector_resolver.cpp</text>
</a>
</g>
</g>
<!-- Node16&#45;&gt;Node17 -->
<g id="edge21_Node000016_Node000017" class="edge">
<title>Node16&#45;&gt;Node17</title>
<g id="a_edge21_Node000016_Node000017"><a xlink:title=" ">
<path fill="none" stroke="#63b8ff" d="M1103.5,-61.11C1103.5,-50.51 1103.5,-39.07 1103.5,-30.36"/>
<polygon fill="#63b8ff" stroke="#63b8ff" points="1100,-61.29 1103.5,-71.29 1107,-61.29 1100,-61.29"/>
</a>
</g>
</g>
<!-- Node19&#45;&gt;Node9 -->
<g id="edge25_Node000019_Node000009" class="edge">
<title>Node19&#45;&gt;Node9</title>
<g id="a_edge25_Node000019_Node000009"><a xlink:title=" ">
<path fill="none" stroke="#63b8ff" d="M1139.38,-242.61C1155.05,-233.95 1170.64,-221.97 1179.5,-206 1190.5,-186.17 1182.59,-76.08 1173.5,-66 1158.12,-48.95 1021.36,-31.2 941.26,-22.13"/>
<polygon fill="#63b8ff" stroke="#63b8ff" points="1137.49,-239.65 1130.19,-247.33 1140.68,-245.87 1137.49,-239.65"/>
</a>
</g>
</g>
<!-- Node20 -->
<g id="Node000020" class="node">
<title>Node20</title>
<g id="a_Node000020"><a xlink:href="mosaic__connector__factory_8cpp.html" target="_top" xlink:title=" ">
<polygon fill="white" stroke="#666666" points="1372.5,-195 1226.5,-195 1226.5,-165 1372.5,-165 1372.5,-195"/>
<text text-anchor="start" x="1234.5" y="-183" font-family="Helvetica,sans-Serif" font-size="10.00">src/core/mosaic_connector</text>
<text text-anchor="middle" x="1299.5" y="-172" font-family="Helvetica,sans-Serif" font-size="10.00">_factory.cpp</text>
</a>
</g>
</g>
<!-- Node19&#45;&gt;Node20 -->
<g id="edge26_Node000019_Node000020" class="edge">
<title>Node19&#45;&gt;Node20</title>
<g id="a_edge26_Node000019_Node000020"><a xlink:title=" ">
<path fill="none" stroke="#63b8ff" d="M1136.7,-243.71C1174.66,-229.09 1227.71,-208.65 1262.81,-195.13"/>
<polygon fill="#63b8ff" stroke="#63b8ff" points="1134.98,-240.62 1126.91,-247.48 1137.49,-247.15 1134.98,-240.62"/>
</a>
</g>
</g>
<!-- Node21&#45;&gt;Node10 -->
<g id="edge28_Node000021_Node000010" class="edge">
<title>Node21&#45;&gt;Node10</title>
<g id="a_edge28_Node000021_Node000010"><a xlink:title=" ">
<path fill="none" stroke="#63b8ff" d="M1435.48,-283.9C1418.24,-296.74 1394.85,-312.97 1377.04,-324.39"/>
<polygon fill="#63b8ff" stroke="#63b8ff" points="1438.01,-286.37 1443.87,-277.54 1433.78,-280.79 1438.01,-286.37"/>
</a>
</g>
</g>
<!-- Node21&#45;&gt;Node22 -->
<g id="edge29_Node000021_Node000022" class="edge">
<title>Node21&#45;&gt;Node22</title>
<g id="a_edge29_Node000021_Node000022"><a xlink:title=" ">
<path fill="none" stroke="#63b8ff" d="M1529.57,-245.08C1573.53,-234.61 1631.02,-220.36 1681.5,-206 1693.26,-202.66 1705.93,-198.74 1717.56,-195.01"/>
<polygon fill="#63b8ff" stroke="#63b8ff" points="1528.76,-241.68 1519.84,-247.39 1530.38,-248.49 1528.76,-241.68"/>
</a>
</g>
</g>
<!-- Node23&#45;&gt;Node22 -->
<g id="edge32_Node000023_Node000022" class="edge">
<title>Node23&#45;&gt;Node22</title>
<g id="a_edge32_Node000023_Node000022"><a xlink:title=" ">
<path fill="none" stroke="#63b8ff" d="M1723.56,-238.86C1732.29,-224.82 1743.22,-207.21 1750.72,-195.13"/>
<polygon fill="#63b8ff" stroke="#63b8ff" points="1720.51,-237.14 1718.21,-247.48 1726.46,-240.83 1720.51,-237.14"/>
</a>
</g>
</g>
<!-- Node23&#45;&gt;Node24 -->
<g id="edge31_Node000023_Node000024" class="edge">
<title>Node23&#45;&gt;Node24</title>
<g id="a_edge31_Node000023_Node000024"><a xlink:title=" ">
<path fill="none" stroke="#63b8ff" d="M1757.29,-244.01C1803.27,-227.19 1870.88,-202.45 1906.14,-189.55"/>
<polygon fill="#63b8ff" stroke="#63b8ff" points="1756.01,-240.75 1747.82,-247.48 1758.41,-247.33 1756.01,-240.75"/>
</a>
</g>
</g>
<!-- Node23&#45;&gt;Node25 -->
<g id="edge33_Node000023_Node000025" class="edge">
<title>Node23&#45;&gt;Node25</title>
<g id="a_edge33_Node000023_Node000025"><a xlink:title=" ">
<path fill="none" stroke="#63b8ff" d="M1683.06,-241.42C1664.09,-227.02 1639,-207.96 1622.11,-195.13"/>
<polygon fill="#63b8ff" stroke="#63b8ff" points="1680.96,-244.22 1691.04,-247.48 1685.19,-238.64 1680.96,-244.22"/>
</a>
</g>
</g>
<!-- Node26&#45;&gt;Node20 -->
<g id="edge35_Node000026_Node000020" class="edge">
<title>Node26&#45;&gt;Node20</title>
<g id="a_edge35_Node000026_Node000020"><a xlink:title=" ">
<path fill="none" stroke="#63b8ff" d="M1267.38,-238.46C1275.19,-224.48 1284.91,-207.1 1291.6,-195.13"/>
<polygon fill="#63b8ff" stroke="#63b8ff" points="1264.16,-237.04 1262.34,-247.48 1270.27,-240.46 1264.16,-237.04"/>
</a>
</g>
</g>
<!-- Node26&#45;&gt;Node27 -->
<g id="edge36_Node000026_Node000027" class="edge">
<title>Node26&#45;&gt;Node27</title>
<g id="a_edge36_Node000026_Node000027"><a xlink:title=" ">
<path fill="none" stroke="#63b8ff" d="M1298.49,-243.71C1334.63,-229.09 1385.15,-208.65 1418.57,-195.13"/>
<polygon fill="#63b8ff" stroke="#63b8ff" points="1297.12,-240.48 1289.16,-247.48 1299.75,-246.97 1297.12,-240.48"/>
</a>
</g>
</g>
<!-- Node28&#45;&gt;Node2 -->
<g id="edge40_Node000028_Node000002" class="edge">
<title>Node28&#45;&gt;Node2</title>
<g id="a_edge40_Node000028_Node000002"><a xlink:title=" ">
<path fill="none" stroke="#63b8ff" d="M502.91,-313.09C488.84,-303.32 473.01,-292.32 459.83,-283.17"/>
<polygon fill="#63b8ff" stroke="#63b8ff" points="501.2,-316.16 511.41,-318.99 505.19,-310.41 501.2,-316.16"/>
</a>
</g>
</g>
<!-- Node28&#45;&gt;Node3 -->
<g id="edge42_Node000028_Node000003" class="edge">
<title>Node28&#45;&gt;Node3</title>
<g id="a_edge42_Node000028_Node000003"><a xlink:title=" ">
<path fill="none" stroke="#63b8ff" d="M537.8,-308.54C535.41,-288.3 529.76,-261.76 516.5,-242 502.73,-221.49 479.6,-205.56 460.95,-195.12"/>
<polygon fill="#63b8ff" stroke="#63b8ff" points="534.34,-309.16 538.79,-318.78 541.31,-308.48 534.34,-309.16"/>
</a>
</g>
</g>
<!-- Node28&#45;&gt;Node5 -->
<g id="edge41_Node000028_Node000005" class="edge">
<title>Node28&#45;&gt;Node5</title>
<g id="a_edge41_Node000028_Node000005"><a xlink:title=" ">
<path fill="none" stroke="#63b8ff" d="M457.1,-316.35C417.79,-305.78 371.17,-293.25 333.2,-283.04"/>
<polygon fill="#63b8ff" stroke="#63b8ff" points="456.36,-319.77 466.92,-318.99 458.18,-313.01 456.36,-319.77"/>
</a>
</g>
</g>
</g>
</svg>

<g id="navigator" transform="translate(0 0)" fill="#404254">
  <rect fill="#f2f5e9" fill-opacity="0.5" stroke="#606060" stroke-width=".5" x="0" y="0" width="60" height="60"/>
  <use id="zoomplus" xlink:href="#zoomPlus" x="17" y="9" onmousedown="handleZoom(evt,'in')"/>
  <use id="zoomminus" xlink:href="#zoomMin" x="42" y="9" onmousedown="handleZoom(evt,'out')"/>
  <use id="reset" xlink:href="#resetDef" x="30" y="36" onmousedown="handleReset()"/>
   <use id="arrowup" xlink:href="#arrowUp" x="0" y="0" onmousedown="handlePan(0,-1)"/>
  <use id="arrowright" xlink:href="#arrowRight" x="0" y="0" onmousedown="handlePan(1,0)"/>
  <use id="arrowdown" xlink:href="#arrowDown" x="0" y="0" onmousedown="handlePan(0,1)"/>
  <use id="arrowleft" xlink:href="#arrowLeft" x="0" y="0" onmousedown="handlePan(-1,0)"/>
</g>
<svg viewBox="0 0 15 15" width="100%" height="30px" preserveAspectRatio="xMaxYMin meet">
 <g id="arrow_out" transform="scale(0.3 0.3)">
  <a xlink:href="log_8h__dep__incl_org.svg" target="_base">
   <rect id="button" ry="5" rx="5" y="6" x="6" height="38" width="38"
        fill="#f2f5e9" fill-opacity="0.5" stroke="#606060" stroke-width="1.0"/>
   <path id="arrow"
     d="M 11.500037,31.436501 C 11.940474,20.09759 22.043105,11.32322 32.158766,21.979434 L 37.068811,17.246167 C 37.068811,17.246167 37.088388,32 37.088388,32 L 22.160133,31.978069 C 22.160133,31.978069 26.997745,27.140456 26.997745,27.140456 C 18.528582,18.264221 13.291696,25.230495 11.500037,31.436501 z"
     style="fill:#404040;"/>
  </a>
 </g>
</svg>

<style type='text/css'>
<![CDATA[
[data-mouse-over-selected='false'] { opacity: 0.7; }
[data-mouse-over-selected='true']  { opacity: 1.0; }
]]>
</style>
<script type="application/ecmascript"><![CDATA[
document.addEventListener('DOMContentLoaded', (event) => {
  highlightEdges();
  highlightAdjacentNodes();
});
]]></script>
</svg>
