<?xml version="1.0" encoding="UTF-8" standalone="no"?>
<!DOCTYPE svg PUBLIC "-//W3C//DTD SVG 1.1//EN"
 "http://www.w3.org/Graphics/SVG/1.1/DTD/svg11.dtd">
<!-- Generated by graphviz version 2.43.0 (0)
 -->
<!-- Title: src/handlers/media_track/media_track_handler.cpp Pages: 1 -->
<!--zoomable 280 -->

<svg id="main" version="1.1" xmlns="http://www.w3.org/2000/svg" xmlns:xlink="http://www.w3.org/1999/xlink" xml:space="preserve" onload="init(evt)">
<style type="text/css"><![CDATA[
.node, .edge {opacity: 0.7;}
.node.selected, .edge.selected {opacity: 1;}
.edge:hover path { stroke: red; }
.edge:hover polygon { stroke: red; fill: red; }
]]></style>

<defs>
  <circle id="rim" cx="0" cy="0" r="7"/>
  <circle id="rim2" cx="0" cy="0" r="3.5"/>
  <g id="zoomPlus">
    <use xlink:href="#rim" fill="#404040"><set attributeName="fill" to="#808080" begin="zoomplus.mouseover" end="zoomplus.mouseout"/></use>
    <path d="M-4,0h8M0,-4v8" fill="none" stroke="white" stroke-width="1.5" pointer-events="none"/>
  </g>
  <g id="zoomMin">
    <use xlink:href="#rim" fill="#404040"><set attributeName="fill" to="#808080" begin="zoomminus.mouseover" end="zoomminus.mouseout"/></use>
    <path d="M-4,0h8" fill="none" stroke="white" stroke-width="1.5" pointer-events="none"/>
  </g>
  <g id="arrowUp" transform="translate(30 24)">
    <use xlink:href="#rim"/>
    <path pointer-events="none" fill="none" stroke="white" stroke-width="1.5" d="M0,-3.0v7 M-2.5,-0.5L0,-3.0L2.5,-0.5"/>
  </g>
  <g id="arrowRight" transform="rotate(90) translate(36 -43)">
    <use xlink:href="#rim"/>
    <path pointer-events="none" fill="none" stroke="white" stroke-width="1.5" d="M0,-3.0v7 M-2.5,-0.5L0,-3.0L2.5,-0.5"/>
  </g>
  <g id="arrowDown" transform="rotate(180) translate(-30 -48)">
    <use xlink:href="#rim"/>
    <path pointer-events="none" fill="none" stroke="white" stroke-width="1.5" d="M0,-3.0v7 M-2.5,-0.5L0,-3.0L2.5,-0.5"/>
  </g>
  <g id="arrowLeft" transform="rotate(270) translate(-36 17)">
    <use xlink:href="#rim"/>
    <path pointer-events="none" fill="none" stroke="white" stroke-width="1.5" d="M0,-3.0v7 M-2.5,-0.5L0,-3.0L2.5,-0.5"/>
  </g>
  <g id="resetDef">
    <use xlink:href="#rim2" fill="#404040"><set attributeName="fill" to="#808080" begin="reset.mouseover" end="reset.mouseout"/></use>
  </g>
</defs>
<script type="application/ecmascript">
var viewWidth = 1180;
var viewHeight = 280;
var sectionId = 'dynsection-0';
</script>
<script type="application/ecmascript" xlink:href="svg.min.js"/>
<svg id="graph" class="graph">
<g id="viewport">
<title>src/handlers/media_track/media_track_handler.cpp</title>
<!-- Node1 -->
<g id="Node000001" class="node">
<title>Node1</title>
<g id="a_Node000001"><a xlink:title=" ">
<polygon fill="#999999" stroke="#666666" points="859,-272 687,-272 687,-242 859,-242 859,-272"/>
<text text-anchor="start" x="695" y="-260" font-family="Helvetica,sans-Serif" font-size="10.00">src/handlers/media</text>
<text text-anchor="middle" x="773" y="-249" font-family="Helvetica,sans-Serif" font-size="10.00">_track/media_track_handler.cpp</text>
</a>
</g>
</g>
<!-- Node2 -->
<g id="Node000002" class="node">
<title>Node2</title>
<g id="a_Node000002"><a xlink:href="media__track__handler_8hpp.html" target="_top" xlink:title=" ">
<polygon fill="white" stroke="#666666" points="323.5,-206 150.5,-206 150.5,-176 323.5,-176 323.5,-206"/>
<text text-anchor="start" x="158.5" y="-194" font-family="Helvetica,sans-Serif" font-size="10.00">mosaic/handlers/media</text>
<text text-anchor="middle" x="237" y="-183" font-family="Helvetica,sans-Serif" font-size="10.00">_track/media_track_handler.hpp</text>
</a>
</g>
</g>
<!-- Node1&#45;&gt;Node2 -->
<g id="edge1_Node000001_Node000002" class="edge">
<title>Node1&#45;&gt;Node2</title>
<g id="a_edge1_Node000001_Node000002"><a xlink:title=" ">
<path fill="none" stroke="#63b8ff" d="M686.88,-245.72C590.47,-234.2 434.58,-215.59 333.96,-203.58"/>
<polygon fill="#63b8ff" stroke="#63b8ff" points="334.14,-200.07 323.79,-202.36 333.31,-207.02 334.14,-200.07"/>
</a>
</g>
</g>
<!-- Node10 -->
<g id="Node000010" class="node">
<title>Node10</title>
<g id="a_Node000010"><a xlink:title=" ">
<polygon fill="#e0e0e0" stroke="#999999" points="762,-200.5 634,-200.5 634,-181.5 762,-181.5 762,-200.5"/>
<text text-anchor="middle" x="698" y="-188.5" font-family="Helvetica,sans-Serif" font-size="10.00">api/video/i420_buffer.h</text>
</a>
</g>
</g>
<!-- Node1&#45;&gt;Node10 -->
<g id="edge11_Node000001_Node000010" class="edge">
<title>Node1&#45;&gt;Node10</title>
<g id="a_edge11_Node000001_Node000010"><a xlink:title=" ">
<path fill="none" stroke="#63b8ff" d="M756.36,-241.8C744.43,-231.62 728.39,-217.93 716.14,-207.48"/>
<polygon fill="#63b8ff" stroke="#63b8ff" points="718.24,-204.67 708.36,-200.84 713.7,-210 718.24,-204.67"/>
</a>
</g>
</g>
<!-- Node11 -->
<g id="Node000011" class="node">
<title>Node11</title>
<g id="a_Node000011"><a xlink:title=" ">
<polygon fill="#e0e0e0" stroke="#999999" points="915.5,-200.5 780.5,-200.5 780.5,-181.5 915.5,-181.5 915.5,-200.5"/>
<text text-anchor="middle" x="848" y="-188.5" font-family="Helvetica,sans-Serif" font-size="10.00">api/video/video_frame.h</text>
</a>
</g>
</g>
<!-- Node1&#45;&gt;Node11 -->
<g id="edge12_Node000001_Node000011" class="edge">
<title>Node1&#45;&gt;Node11</title>
<g id="a_edge12_Node000001_Node000011"><a xlink:title=" ">
<path fill="none" stroke="#63b8ff" d="M789.64,-241.8C801.57,-231.62 817.61,-217.93 829.86,-207.48"/>
<polygon fill="#63b8ff" stroke="#63b8ff" points="832.3,-210 837.64,-200.84 827.76,-204.67 832.3,-210"/>
</a>
</g>
</g>
<!-- Node12 -->
<g id="Node000012" class="node">
<title>Node12</title>
<g id="a_Node000012"><a xlink:title=" ">
<polygon fill="#e0e0e0" stroke="#999999" points="1028.5,-200.5 933.5,-200.5 933.5,-181.5 1028.5,-181.5 1028.5,-200.5"/>
<text text-anchor="middle" x="981" y="-188.5" font-family="Helvetica,sans-Serif" font-size="10.00">libyuv/convert.h</text>
</a>
</g>
</g>
<!-- Node1&#45;&gt;Node12 -->
<g id="edge13_Node000001_Node000012" class="edge">
<title>Node1&#45;&gt;Node12</title>
<g id="a_edge13_Node000001_Node000012"><a xlink:title=" ">
<path fill="none" stroke="#63b8ff" d="M818.65,-241.95C856.09,-230.43 908.45,-214.32 943.48,-203.54"/>
<polygon fill="#63b8ff" stroke="#63b8ff" points="944.79,-206.8 953.32,-200.52 942.73,-200.11 944.79,-206.8"/>
</a>
</g>
</g>
<!-- Node13 -->
<g id="Node000013" class="node">
<title>Node13</title>
<g id="a_Node000013"><a xlink:title=" ">
<polygon fill="#e0e0e0" stroke="#999999" points="1171.5,-206 1046.5,-206 1046.5,-176 1171.5,-176 1171.5,-206"/>
<text text-anchor="start" x="1054.5" y="-194" font-family="Helvetica,sans-Serif" font-size="10.00">media/base/adapted</text>
<text text-anchor="middle" x="1109" y="-183" font-family="Helvetica,sans-Serif" font-size="10.00">_video_track_source.h</text>
</a>
</g>
</g>
<!-- Node1&#45;&gt;Node13 -->
<g id="edge14_Node000001_Node000013" class="edge">
<title>Node1&#45;&gt;Node13</title>
<g id="a_edge14_Node000001_Node000013"><a xlink:title=" ">
<path fill="none" stroke="#63b8ff" d="M848.13,-241.99C898.72,-232.52 967.21,-219.63 1036.12,-206.36"/>
<polygon fill="#63b8ff" stroke="#63b8ff" points="1037.13,-209.73 1046.29,-204.4 1035.8,-202.85 1037.13,-209.73"/>
</a>
</g>
</g>
<!-- Node14 -->
<g id="Node000014" class="node">
<title>Node14</title>
<g id="a_Node000014"><a xlink:href="log_8hpp.html" target="_top" xlink:title=" ">
<polygon fill="white" stroke="#666666" points="615.5,-200.5 490.5,-200.5 490.5,-181.5 615.5,-181.5 615.5,-200.5"/>
<text text-anchor="middle" x="553" y="-188.5" font-family="Helvetica,sans-Serif" font-size="10.00">mosaic/logger/log.hpp</text>
</a>
</g>
</g>
<!-- Node1&#45;&gt;Node14 -->
<g id="edge15_Node000001_Node000014" class="edge">
<title>Node1&#45;&gt;Node14</title>
<g id="a_edge15_Node000001_Node000014"><a xlink:title=" ">
<path fill="none" stroke="#63b8ff" d="M724.72,-241.95C684.95,-230.38 629.26,-214.18 592.21,-203.41"/>
<polygon fill="#63b8ff" stroke="#63b8ff" points="592.86,-199.95 582.28,-200.52 590.9,-206.67 592.86,-199.95"/>
</a>
</g>
</g>
<!-- Node3 -->
<g id="Node000003" class="node">
<title>Node3</title>
<g id="a_Node000003"><a xlink:title=" ">
<polygon fill="#e0e0e0" stroke="#999999" points="50,-134.5 0,-134.5 0,-115.5 50,-115.5 50,-134.5"/>
<text text-anchor="middle" x="25" y="-122.5" font-family="Helvetica,sans-Serif" font-size="10.00">chrono</text>
</a>
</g>
</g>
<!-- Node2&#45;&gt;Node3 -->
<g id="edge2_Node000002_Node000003" class="edge">
<title>Node2&#45;&gt;Node3</title>
<g id="a_edge2_Node000002_Node000003"><a xlink:title=" ">
<path fill="none" stroke="#63b8ff" d="M185.26,-175.97C150.75,-166.39 104.45,-153.09 64,-140 61.89,-139.32 59.72,-138.59 57.53,-137.85"/>
<polygon fill="#63b8ff" stroke="#63b8ff" points="58.61,-134.52 48.01,-134.53 56.31,-141.13 58.61,-134.52"/>
</a>
</g>
</g>
<!-- Node4 -->
<g id="Node000004" class="node">
<title>Node4</title>
<g id="a_Node000004"><a xlink:title=" ">
<polygon fill="#e0e0e0" stroke="#999999" points="305,-19 247,-19 247,0 305,0 305,-19"/>
<text text-anchor="middle" x="276" y="-7" font-family="Helvetica,sans-Serif" font-size="10.00">memory</text>
</a>
</g>
</g>
<!-- Node2&#45;&gt;Node4 -->
<g id="edge3_Node000002_Node000004" class="edge">
<title>Node2&#45;&gt;Node4</title>
<g id="a_edge3_Node000002_Node000004"><a xlink:title=" ">
<path fill="none" stroke="#63b8ff" d="M166.26,-175.94C145.4,-168.51 124.34,-157.2 110,-140 85.52,-110.65 73.46,-85.11 97,-55 114.04,-33.2 189.65,-20.55 236.98,-14.64"/>
<polygon fill="#63b8ff" stroke="#63b8ff" points="237.4,-18.11 246.91,-13.44 236.57,-11.16 237.4,-18.11"/>
</a>
</g>
</g>
<!-- Node5 -->
<g id="Node000005" class="node">
<title>Node5</title>
<g id="a_Node000005"><a xlink:title=" ">
<polygon fill="#e0e0e0" stroke="#999999" points="348,-74 304,-74 304,-55 348,-55 348,-74"/>
<text text-anchor="middle" x="326" y="-62" font-family="Helvetica,sans-Serif" font-size="10.00">string</text>
</a>
</g>
</g>
<!-- Node2&#45;&gt;Node5 -->
<g id="edge4_Node000002_Node000005" class="edge">
<title>Node2&#45;&gt;Node5</title>
<g id="a_edge4_Node000002_Node000005"><a xlink:title=" ">
<path fill="none" stroke="#63b8ff" d="M237.21,-175.97C238.12,-158.9 241.84,-129.88 256,-110 265.71,-96.37 281.02,-85.95 294.85,-78.63"/>
<polygon fill="#63b8ff" stroke="#63b8ff" points="296.69,-81.62 304.11,-74.05 293.59,-75.35 296.69,-81.62"/>
</a>
</g>
</g>
<!-- Node6 -->
<g id="Node000006" class="node">
<title>Node6</title>
<g id="a_Node000006"><a xlink:title=" ">
<polygon fill="#e0e0e0" stroke="#999999" points="381,-134.5 265,-134.5 265,-115.5 381,-115.5 381,-134.5"/>
<text text-anchor="middle" x="323" y="-122.5" font-family="Helvetica,sans-Serif" font-size="10.00">opencv2/opencv.hpp</text>
</a>
</g>
</g>
<!-- Node2&#45;&gt;Node6 -->
<g id="edge5_Node000002_Node000006" class="edge">
<title>Node2&#45;&gt;Node6</title>
<g id="a_edge5_Node000002_Node000006"><a xlink:title=" ">
<path fill="none" stroke="#63b8ff" d="M256.09,-175.8C270.02,-165.43 288.86,-151.4 303,-140.88"/>
<polygon fill="#63b8ff" stroke="#63b8ff" points="305.18,-143.62 311.12,-134.84 301,-138.01 305.18,-143.62"/>
</a>
</g>
</g>
<!-- Node7 -->
<g id="Node000007" class="node">
<title>Node7</title>
<g id="a_Node000007"><a xlink:href="webrtc__forward__decl_8hpp.html" target="_top" xlink:title=" ">
<polygon fill="white" stroke="#666666" points="525,-140 399,-140 399,-110 525,-110 525,-140"/>
<text text-anchor="start" x="407" y="-128" font-family="Helvetica,sans-Serif" font-size="10.00">../../rtc/webrtc_forward</text>
<text text-anchor="middle" x="462" y="-117" font-family="Helvetica,sans-Serif" font-size="10.00">_decl.hpp</text>
</a>
</g>
</g>
<!-- Node2&#45;&gt;Node7 -->
<g id="edge6_Node000002_Node000007" class="edge">
<title>Node2&#45;&gt;Node7</title>
<g id="a_edge6_Node000002_Node000007"><a xlink:title=" ">
<path fill="none" stroke="#63b8ff" d="M286.38,-175.95C320.67,-166.2 366.53,-153.16 402.78,-142.84"/>
<polygon fill="#63b8ff" stroke="#63b8ff" points="404.08,-146.11 412.74,-140.01 402.16,-139.38 404.08,-146.11"/>
</a>
</g>
</g>
<!-- Node8 -->
<g id="Node000008" class="node">
<title>Node8</title>
<g id="a_Node000008"><a xlink:href="recordable_8hpp.html" target="_top" xlink:title=" ">
<polygon fill="white" stroke="#666666" points="208.5,-134.5 119.5,-134.5 119.5,-115.5 208.5,-115.5 208.5,-134.5"/>
<text text-anchor="middle" x="164" y="-122.5" font-family="Helvetica,sans-Serif" font-size="10.00">recordable.hpp</text>
</a>
</g>
</g>
<!-- Node2&#45;&gt;Node8 -->
<g id="edge7_Node000002_Node000008" class="edge">
<title>Node2&#45;&gt;Node8</title>
<g id="a_edge7_Node000002_Node000008"><a xlink:title=" ">
<path fill="none" stroke="#63b8ff" d="M220.8,-175.8C209.2,-165.62 193.58,-151.93 181.66,-141.48"/>
<polygon fill="#63b8ff" stroke="#63b8ff" points="183.91,-138.8 174.09,-134.84 179.3,-144.07 183.91,-138.8"/>
</a>
</g>
</g>
<!-- Node8&#45;&gt;Node4 -->
<g id="edge8_Node000008_Node000004" class="edge">
<title>Node8&#45;&gt;Node4</title>
<g id="a_edge8_Node000008_Node000004"><a xlink:title=" ">
<path fill="none" stroke="#63b8ff" d="M191.44,-115.43C211.95,-107.68 239.24,-94.35 256,-74 266.45,-61.32 271.46,-43.13 273.85,-29.47"/>
<polygon fill="#63b8ff" stroke="#63b8ff" points="277.36,-29.67 275.31,-19.28 270.43,-28.69 277.36,-29.67"/>
</a>
</g>
</g>
<!-- Node8&#45;&gt;Node5 -->
<g id="edge9_Node000008_Node000005" class="edge">
<title>Node8&#45;&gt;Node5</title>
<g id="a_edge9_Node000008_Node000005"><a xlink:title=" ">
<path fill="none" stroke="#63b8ff" d="M187.56,-115.49C215.75,-105.31 263.06,-88.23 294.4,-76.91"/>
<polygon fill="#63b8ff" stroke="#63b8ff" points="295.76,-80.14 303.98,-73.45 293.38,-73.56 295.76,-80.14"/>
</a>
</g>
</g>
<!-- Node9 -->
<g id="Node000009" class="node">
<title>Node9</title>
<g id="a_Node000009"><a xlink:href="opencv__forward__decl_8hpp.html" target="_top" xlink:title=" ">
<polygon fill="white" stroke="#666666" points="247.5,-74 106.5,-74 106.5,-55 247.5,-55 247.5,-74"/>
<text text-anchor="middle" x="177" y="-62" font-family="Helvetica,sans-Serif" font-size="10.00">opencv_forward_decl.hpp</text>
</a>
</g>
</g>
<!-- Node8&#45;&gt;Node9 -->
<g id="edge10_Node000008_Node000009" class="edge">
<title>Node8&#45;&gt;Node9</title>
<g id="a_edge10_Node000008_Node000009"><a xlink:title=" ">
<path fill="none" stroke="#63b8ff" d="M165.92,-115.37C167.74,-107.16 170.55,-94.54 172.88,-84.05"/>
<polygon fill="#63b8ff" stroke="#63b8ff" points="176.32,-84.69 175.07,-74.17 169.49,-83.17 176.32,-84.69"/>
</a>
</g>
</g>
<!-- Node15 -->
<g id="Node000015" class="node">
<title>Node15</title>
<g id="a_Node000015"><a xlink:href="i__logger_8hpp.html" target="_top" xlink:title=" ">
<polygon fill="white" stroke="#666666" points="657,-134.5 581,-134.5 581,-115.5 657,-115.5 657,-134.5"/>
<text text-anchor="middle" x="619" y="-122.5" font-family="Helvetica,sans-Serif" font-size="10.00">i_logger.hpp</text>
</a>
</g>
</g>
<!-- Node14&#45;&gt;Node15 -->
<g id="edge16_Node000014_Node000015" class="edge">
<title>Node14&#45;&gt;Node15</title>
<g id="a_edge16_Node000014_Node000015"><a xlink:title=" ">
<path fill="none" stroke="#63b8ff" d="M561.9,-181.37C572.27,-171.31 589.63,-154.48 602.49,-142.01"/>
<polygon fill="#63b8ff" stroke="#63b8ff" points="605.07,-144.38 609.82,-134.91 600.2,-139.35 605.07,-144.38"/>
</a>
</g>
</g>
<!-- Node18 -->
<g id="Node000018" class="node">
<title>Node18</title>
<g id="a_Node000018"><a xlink:href="log__service_8hpp.html" target="_top" xlink:title=" ">
<polygon fill="white" stroke="#666666" points="590.5,-74 497.5,-74 497.5,-55 590.5,-55 590.5,-74"/>
<text text-anchor="middle" x="544" y="-62" font-family="Helvetica,sans-Serif" font-size="10.00">log_service.hpp</text>
</a>
</g>
</g>
<!-- Node14&#45;&gt;Node18 -->
<g id="edge24_Node000014_Node000018" class="edge">
<title>Node14&#45;&gt;Node18</title>
<g id="a_edge24_Node000014_Node000018"><a xlink:title=" ">
<path fill="none" stroke="#63b8ff" d="M552.38,-181.44C550.94,-161.54 547.34,-111.76 545.36,-84.35"/>
<polygon fill="#63b8ff" stroke="#63b8ff" points="548.83,-83.84 544.62,-74.12 541.85,-84.34 548.83,-83.84"/>
</a>
</g>
</g>
<!-- Node15&#45;&gt;Node5 -->
<g id="edge17_Node000015_Node000005" class="edge">
<title>Node15&#45;&gt;Node5</title>
<g id="a_edge17_Node000015_Node000005"><a xlink:title=" ">
<path fill="none" stroke="#63b8ff" d="M581,-116.41C522.79,-104.79 412.58,-82.79 358.12,-71.91"/>
<polygon fill="#63b8ff" stroke="#63b8ff" points="358.5,-68.42 348,-69.89 357.12,-75.28 358.5,-68.42"/>
</a>
</g>
</g>
<!-- Node16 -->
<g id="Node000016" class="node">
<title>Node16</title>
<g id="a_Node000016"><a xlink:title=" ">
<polygon fill="#e0e0e0" stroke="#999999" points="726.5,-74 647.5,-74 647.5,-55 726.5,-55 726.5,-74"/>
<text text-anchor="middle" x="687" y="-62" font-family="Helvetica,sans-Serif" font-size="10.00">fmt/format.h</text>
</a>
</g>
</g>
<!-- Node15&#45;&gt;Node16 -->
<g id="edge18_Node000015_Node000016" class="edge">
<title>Node15&#45;&gt;Node16</title>
<g id="a_edge18_Node000015_Node000016"><a xlink:title=" ">
<path fill="none" stroke="#63b8ff" d="M629.03,-115.37C639.58,-106.3 656.39,-91.84 669.19,-80.82"/>
<polygon fill="#63b8ff" stroke="#63b8ff" points="671.63,-83.34 676.93,-74.17 667.06,-78.04 671.63,-83.34"/>
</a>
</g>
</g>
<!-- Node17 -->
<g id="Node000017" class="node">
<title>Node17</title>
<g id="a_Node000017"><a xlink:href="log__level_8hpp.html" target="_top" xlink:title=" ">
<polygon fill="white" stroke="#666666" points="660,-19 578,-19 578,0 660,0 660,-19"/>
<text text-anchor="middle" x="619" y="-7" font-family="Helvetica,sans-Serif" font-size="10.00">log_level.hpp</text>
</a>
</g>
</g>
<!-- Node15&#45;&gt;Node17 -->
<g id="edge19_Node000015_Node000017" class="edge">
<title>Node15&#45;&gt;Node17</title>
<g id="a_edge19_Node000015_Node000017"><a xlink:title=" ">
<path fill="none" stroke="#63b8ff" d="M619,-115.47C619,-97.23 619,-54.07 619,-29.14"/>
<polygon fill="#63b8ff" stroke="#63b8ff" points="622.5,-29.13 619,-19.13 615.5,-29.13 622.5,-29.13"/>
</a>
</g>
</g>
<!-- Node15&#45;&gt;Node18 -->
<g id="edge20_Node000015_Node000018" class="edge">
<title>Node15&#45;&gt;Node18</title>
<g id="a_edge20_Node000015_Node000018"><a xlink:title=" ">
<path fill="none" stroke="#63b8ff" d="M607.93,-115.37C596.19,-106.21 577.41,-91.56 563.24,-80.51"/>
<polygon fill="#63b8ff" stroke="#63b8ff" points="565.15,-77.56 555.11,-74.17 560.84,-83.08 565.15,-77.56"/>
</a>
</g>
</g>
<!-- Node18&#45;&gt;Node4 -->
<g id="edge21_Node000018_Node000004" class="edge">
<title>Node18&#45;&gt;Node4</title>
<g id="a_edge21_Node000018_Node000004"><a xlink:title=" ">
<path fill="none" stroke="#63b8ff" d="M500.94,-54.98C449.69,-44.85 364.84,-28.07 315.3,-18.27"/>
<polygon fill="#63b8ff" stroke="#63b8ff" points="315.78,-14.8 305.29,-16.29 314.42,-21.67 315.78,-14.8"/>
</a>
</g>
</g>
<!-- Node18&#45;&gt;Node17 -->
<g id="edge23_Node000018_Node000017" class="edge">
<title>Node18&#45;&gt;Node17</title>
<g id="a_edge23_Node000018_Node000017"><a xlink:title=" ">
<path fill="none" stroke="#63b8ff" d="M556.05,-54.98C567.46,-46.92 584.83,-34.65 598.43,-25.03"/>
<polygon fill="#63b8ff" stroke="#63b8ff" points="600.58,-27.8 606.73,-19.17 596.54,-22.08 600.58,-27.8"/>
</a>
</g>
</g>
<!-- Node19 -->
<g id="Node000019" class="node">
<title>Node19</title>
<g id="a_Node000019"><a xlink:title=" ">
<polygon fill="#e0e0e0" stroke="#999999" points="559.5,-19 490.5,-19 490.5,0 559.5,0 559.5,-19"/>
<text text-anchor="middle" x="525" y="-7" font-family="Helvetica,sans-Serif" font-size="10.00">type_traits</text>
</a>
</g>
</g>
<!-- Node18&#45;&gt;Node19 -->
<g id="edge22_Node000018_Node000019" class="edge">
<title>Node18&#45;&gt;Node19</title>
<g id="a_edge22_Node000018_Node000019"><a xlink:title=" ">
<path fill="none" stroke="#63b8ff" d="M540.86,-54.75C538.32,-47.65 534.64,-37.4 531.47,-28.56"/>
<polygon fill="#63b8ff" stroke="#63b8ff" points="534.75,-27.32 528.08,-19.09 528.16,-29.68 534.75,-27.32"/>
</a>
</g>
</g>
</g>
</svg>

<g id="navigator" transform="translate(0 0)" fill="#404254">
  <rect fill="#f2f5e9" fill-opacity="0.5" stroke="#606060" stroke-width=".5" x="0" y="0" width="60" height="60"/>
  <use id="zoomplus" xlink:href="#zoomPlus" x="17" y="9" onmousedown="handleZoom(evt,'in')"/>
  <use id="zoomminus" xlink:href="#zoomMin" x="42" y="9" onmousedown="handleZoom(evt,'out')"/>
  <use id="reset" xlink:href="#resetDef" x="30" y="36" onmousedown="handleReset()"/>
   <use id="arrowup" xlink:href="#arrowUp" x="0" y="0" onmousedown="handlePan(0,-1)"/>
  <use id="arrowright" xlink:href="#arrowRight" x="0" y="0" onmousedown="handlePan(1,0)"/>
  <use id="arrowdown" xlink:href="#arrowDown" x="0" y="0" onmousedown="handlePan(0,1)"/>
  <use id="arrowleft" xlink:href="#arrowLeft" x="0" y="0" onmousedown="handlePan(-1,0)"/>
</g>
<svg viewBox="0 0 15 15" width="100%" height="30px" preserveAspectRatio="xMaxYMin meet">
 <g id="arrow_out" transform="scale(0.3 0.3)">
  <a xlink:href="media__track__handler_8cpp__incl_org.svg" target="_base">
   <rect id="button" ry="5" rx="5" y="6" x="6" height="38" width="38"
        fill="#f2f5e9" fill-opacity="0.5" stroke="#606060" stroke-width="1.0"/>
   <path id="arrow"
     d="M 11.500037,31.436501 C 11.940474,20.09759 22.043105,11.32322 32.158766,21.979434 L 37.068811,17.246167 C 37.068811,17.246167 37.088388,32 37.088388,32 L 22.160133,31.978069 C 22.160133,31.978069 26.997745,27.140456 26.997745,27.140456 C 18.528582,18.264221 13.291696,25.230495 11.500037,31.436501 z"
     style="fill:#404040;"/>
  </a>
 </g>
</svg>

<style type='text/css'>
<![CDATA[
[data-mouse-over-selected='false'] { opacity: 0.7; }
[data-mouse-over-selected='true']  { opacity: 1.0; }
]]>
</style>
<script type="application/ecmascript"><![CDATA[
document.addEventListener('DOMContentLoaded', (event) => {
  highlightEdges();
  highlightAdjacentNodes();
});
]]></script>
</svg>
