<?xml version="1.0" encoding="UTF-8" standalone="no"?>
<!DOCTYPE svg PUBLIC "-//W3C//DTD SVG 1.1//EN"
 "http://www.w3.org/Graphics/SVG/1.1/DTD/svg11.dtd">
<!-- Generated by graphviz version 2.43.0 (0)
 -->
<!-- Title: include/mosaic/handlers/media_track/media_track_handler.hpp Pages: 1 -->
<svg width="520pt" height="170pt"
 viewBox="0.00 0.00 520.00 170.00" xmlns="http://www.w3.org/2000/svg" xmlns:xlink="http://www.w3.org/1999/xlink">
<g id="graph0" class="graph" transform="scale(1 1) rotate(0) translate(4 166)">
<title>include/mosaic/handlers/media_track/media_track_handler.hpp</title>
<!-- Node1 -->
<g id="Node000001" class="node">
<title>Node1</title>
<g id="a_Node000001"><a xlink:title=" ">
<polygon fill="#999999" stroke="#666666" points="259,-162 115,-162 115,-121 259,-121 259,-162"/>
<text text-anchor="start" x="123" y="-150" font-family="Helvetica,sans-Serif" font-size="10.00">include/mosaic/handlers</text>
<text text-anchor="start" x="123" y="-139" font-family="Helvetica,sans-Serif" font-size="10.00">/media_track/media_track</text>
<text text-anchor="middle" x="187" y="-128" font-family="Helvetica,sans-Serif" font-size="10.00">_handler.hpp</text>
</a>
</g>
</g>
<!-- Node2 -->
<g id="Node000002" class="node">
<title>Node2</title>
<g id="a_Node000002"><a xlink:title=" ">
<polygon fill="#e0e0e0" stroke="#999999" points="50,-79.5 0,-79.5 0,-60.5 50,-60.5 50,-79.5"/>
<text text-anchor="middle" x="25" y="-67.5" font-family="Helvetica,sans-Serif" font-size="10.00">chrono</text>
</a>
</g>
</g>
<!-- Node1&#45;&gt;Node2 -->
<g id="edge1_Node000001_Node000002" class="edge">
<title>Node1&#45;&gt;Node2</title>
<g id="a_edge1_Node000001_Node000002"><a xlink:title=" ">
<path fill="none" stroke="#63b8ff" d="M141.44,-120.96C113.48,-108.96 78.49,-93.95 54.2,-83.53"/>
<polygon fill="#63b8ff" stroke="#63b8ff" points="55.39,-80.23 44.82,-79.5 52.63,-86.66 55.39,-80.23"/>
</a>
</g>
</g>
<!-- Node3 -->
<g id="Node000003" class="node">
<title>Node3</title>
<g id="a_Node000003"><a xlink:title=" ">
<polygon fill="#e0e0e0" stroke="#999999" points="62,-19 4,-19 4,0 62,0 62,-19"/>
<text text-anchor="middle" x="33" y="-7" font-family="Helvetica,sans-Serif" font-size="10.00">memory</text>
</a>
</g>
</g>
<!-- Node1&#45;&gt;Node3 -->
<g id="edge2_Node000001_Node000003" class="edge">
<title>Node1&#45;&gt;Node3</title>
<g id="a_edge2_Node000001_Node000003"><a xlink:title=" ">
<path fill="none" stroke="#63b8ff" d="M150.25,-120.89C133.52,-111.16 113.94,-98.58 98,-85 77.46,-67.51 57.65,-43.42 45.4,-27.42"/>
<polygon fill="#63b8ff" stroke="#63b8ff" points="47.92,-24.95 39.12,-19.05 42.32,-29.15 47.92,-24.95"/>
</a>
</g>
</g>
<!-- Node4 -->
<g id="Node000004" class="node">
<title>Node4</title>
<g id="a_Node000004"><a xlink:title=" ">
<polygon fill="#e0e0e0" stroke="#999999" points="284,-19 240,-19 240,0 284,0 284,-19"/>
<text text-anchor="middle" x="262" y="-7" font-family="Helvetica,sans-Serif" font-size="10.00">string</text>
</a>
</g>
</g>
<!-- Node1&#45;&gt;Node4 -->
<g id="edge3_Node000001_Node000004" class="edge">
<title>Node1&#45;&gt;Node4</title>
<g id="a_edge3_Node000001_Node000004"><a xlink:title=" ">
<path fill="none" stroke="#63b8ff" d="M198.39,-120.76C213.01,-95.41 238.15,-51.84 252.04,-27.76"/>
<polygon fill="#63b8ff" stroke="#63b8ff" points="255.12,-29.42 257.09,-19.01 249.06,-25.93 255.12,-29.42"/>
</a>
</g>
</g>
<!-- Node5 -->
<g id="Node000005" class="node">
<title>Node5</title>
<g id="a_Node000005"><a xlink:title=" ">
<polygon fill="#e0e0e0" stroke="#999999" points="368,-79.5 252,-79.5 252,-60.5 368,-60.5 368,-79.5"/>
<text text-anchor="middle" x="310" y="-67.5" font-family="Helvetica,sans-Serif" font-size="10.00">opencv2/opencv.hpp</text>
</a>
</g>
</g>
<!-- Node1&#45;&gt;Node5 -->
<g id="edge4_Node000001_Node000005" class="edge">
<title>Node1&#45;&gt;Node5</title>
<g id="a_edge4_Node000001_Node000005"><a xlink:title=" ">
<path fill="none" stroke="#63b8ff" d="M221.59,-120.96C242.16,-109.33 267.74,-94.88 286.08,-84.51"/>
<polygon fill="#63b8ff" stroke="#63b8ff" points="287.97,-87.47 294.95,-79.5 284.52,-81.38 287.97,-87.47"/>
</a>
</g>
</g>
<!-- Node6 -->
<g id="Node000006" class="node">
<title>Node6</title>
<g id="a_Node000006"><a xlink:href="webrtc__forward__decl_8hpp.html" target="_top" xlink:title=" ">
<polygon fill="white" stroke="#666666" points="512,-85 386,-85 386,-55 512,-55 512,-85"/>
<text text-anchor="start" x="394" y="-73" font-family="Helvetica,sans-Serif" font-size="10.00">../../rtc/webrtc_forward</text>
<text text-anchor="middle" x="449" y="-62" font-family="Helvetica,sans-Serif" font-size="10.00">_decl.hpp</text>
</a>
</g>
</g>
<!-- Node1&#45;&gt;Node6 -->
<g id="edge5_Node000001_Node000006" class="edge">
<title>Node1&#45;&gt;Node6</title>
<g id="a_edge5_Node000001_Node000006"><a xlink:title=" ">
<path fill="none" stroke="#63b8ff" d="M259.29,-121.32C299.05,-110.78 347.92,-97.81 386.1,-87.69"/>
<polygon fill="#63b8ff" stroke="#63b8ff" points="387.29,-90.99 396.06,-85.04 385.5,-84.22 387.29,-90.99"/>
</a>
</g>
</g>
<!-- Node7 -->
<g id="Node000007" class="node">
<title>Node7</title>
<g id="a_Node000007"><a xlink:href="recordable_8hpp.html" target="_top" xlink:title=" ">
<polygon fill="white" stroke="#666666" points="195.5,-79.5 106.5,-79.5 106.5,-60.5 195.5,-60.5 195.5,-79.5"/>
<text text-anchor="middle" x="151" y="-67.5" font-family="Helvetica,sans-Serif" font-size="10.00">recordable.hpp</text>
</a>
</g>
</g>
<!-- Node1&#45;&gt;Node7 -->
<g id="edge6_Node000001_Node000007" class="edge">
<title>Node1&#45;&gt;Node7</title>
<g id="a_edge6_Node000001_Node000007"><a xlink:title=" ">
<path fill="none" stroke="#63b8ff" d="M176.78,-120.77C171.6,-110.76 165.35,-98.7 160.3,-88.95"/>
<polygon fill="#63b8ff" stroke="#63b8ff" points="163.28,-87.09 155.57,-79.82 157.06,-90.31 163.28,-87.09"/>
</a>
</g>
</g>
<!-- Node7&#45;&gt;Node3 -->
<g id="edge7_Node000007_Node000003" class="edge">
<title>Node7&#45;&gt;Node3</title>
<g id="a_edge7_Node000007_Node000003"><a xlink:title=" ">
<path fill="none" stroke="#63b8ff" d="M133.84,-60.49C114.27,-50.79 82.03,-34.81 59.28,-23.53"/>
<polygon fill="#63b8ff" stroke="#63b8ff" points="60.69,-20.32 50.18,-19.02 57.58,-26.59 60.69,-20.32"/>
</a>
</g>
</g>
<!-- Node7&#45;&gt;Node4 -->
<g id="edge8_Node000007_Node000004" class="edge">
<title>Node7&#45;&gt;Node4</title>
<g id="a_edge8_Node000007_Node000004"><a xlink:title=" ">
<path fill="none" stroke="#63b8ff" d="M167.38,-60.37C185.58,-50.78 215.2,-35.17 236.45,-23.97"/>
<polygon fill="#63b8ff" stroke="#63b8ff" points="238.34,-26.93 245.55,-19.17 235.08,-20.73 238.34,-26.93"/>
</a>
</g>
</g>
<!-- Node8 -->
<g id="Node000008" class="node">
<title>Node8</title>
<g id="a_Node000008"><a xlink:href="opencv__forward__decl_8hpp.html" target="_top" xlink:title=" ">
<polygon fill="white" stroke="#666666" points="221.5,-19 80.5,-19 80.5,0 221.5,0 221.5,-19"/>
<text text-anchor="middle" x="151" y="-7" font-family="Helvetica,sans-Serif" font-size="10.00">opencv_forward_decl.hpp</text>
</a>
</g>
</g>
<!-- Node7&#45;&gt;Node8 -->
<g id="edge9_Node000007_Node000008" class="edge">
<title>Node7&#45;&gt;Node8</title>
<g id="a_edge9_Node000007_Node000008"><a xlink:title=" ">
<path fill="none" stroke="#63b8ff" d="M151,-60.37C151,-52.25 151,-39.81 151,-29.39"/>
<polygon fill="#63b8ff" stroke="#63b8ff" points="154.5,-29.17 151,-19.17 147.5,-29.17 154.5,-29.17"/>
</a>
</g>
</g>
</g>
</svg>
