<?xml version="1.0" encoding="UTF-8" standalone="no"?>
<!DOCTYPE svg PUBLIC "-//W3C//DTD SVG 1.1//EN"
 "http://www.w3.org/Graphics/SVG/1.1/DTD/svg11.dtd">
<!-- Generated by graphviz version 2.43.0 (0)
 -->
<!-- Title: include/mosaic/core/mosaic_connector_factory.h Pages: 1 -->
<svg width="1143pt" height="445pt"
 viewBox="0.00 0.00 1142.50 445.00" xmlns="http://www.w3.org/2000/svg" xmlns:xlink="http://www.w3.org/1999/xlink">
<g id="graph0" class="graph" transform="scale(1 1) rotate(0) translate(4 441)">
<title>include/mosaic/core/mosaic_connector_factory.h</title>
<!-- Node1 -->
<g id="Node000001" class="node">
<title>Node1</title>
<g id="a_Node000001"><a xlink:title=" ">
<polygon fill="#999999" stroke="#666666" points="500,-437 345,-437 345,-407 500,-407 500,-437"/>
<text text-anchor="start" x="353" y="-425" font-family="Helvetica,sans-Serif" font-size="10.00">include/mosaic/core</text>
<text text-anchor="middle" x="422.5" y="-414" font-family="Helvetica,sans-Serif" font-size="10.00">/mosaic_connector_factory.h</text>
</a>
</g>
</g>
<!-- Node2 -->
<g id="Node000002" class="node">
<title>Node2</title>
<g id="a_Node000002"><a xlink:title=" ">
<polygon fill="#e0e0e0" stroke="#999999" points="1093.5,-19 1035.5,-19 1035.5,0 1093.5,0 1093.5,-19"/>
<text text-anchor="middle" x="1064.5" y="-7" font-family="Helvetica,sans-Serif" font-size="10.00">memory</text>
</a>
</g>
</g>
<!-- Node1&#45;&gt;Node2 -->
<g id="edge1_Node000001_Node000002" class="edge">
<title>Node1&#45;&gt;Node2</title>
<g id="a_edge1_Node000001_Node000002"><a xlink:title=" ">
<path fill="none" stroke="#63b8ff" d="M500.05,-414.32C684.59,-397.38 1134.5,-349.52 1134.5,-285.5 1134.5,-285.5 1134.5,-285.5 1134.5,-135 1134.5,-91.27 1101.28,-48.71 1080.61,-26.46"/>
<polygon fill="#63b8ff" stroke="#63b8ff" points="1083.1,-24 1073.65,-19.22 1078.06,-28.85 1083.1,-24"/>
</a>
</g>
</g>
<!-- Node3 -->
<g id="Node000003" class="node">
<title>Node3</title>
<g id="a_Node000003"><a xlink:href="configs__decl_8h.html" target="_top" xlink:title=" ">
<polygon fill="white" stroke="#666666" points="174.5,-79.5 50.5,-79.5 50.5,-60.5 174.5,-60.5 174.5,-79.5"/>
<text text-anchor="middle" x="112.5" y="-67.5" font-family="Helvetica,sans-Serif" font-size="10.00">mosaic/configs_decl.h</text>
</a>
</g>
</g>
<!-- Node1&#45;&gt;Node3 -->
<g id="edge2_Node000001_Node000003" class="edge">
<title>Node1&#45;&gt;Node3</title>
<g id="a_edge2_Node000001_Node000003"><a xlink:title=" ">
<path fill="none" stroke="#63b8ff" d="M349.38,-406.92C250.26,-385.7 85.5,-341.94 85.5,-285.5 85.5,-285.5 85.5,-285.5 85.5,-206.5 85.5,-163.89 98.5,-115.18 106.46,-89.34"/>
<polygon fill="#63b8ff" stroke="#63b8ff" points="109.81,-90.35 109.51,-79.76 103.14,-88.23 109.81,-90.35"/>
</a>
</g>
</g>
<!-- Node7 -->
<g id="Node000007" class="node">
<title>Node7</title>
<g id="a_Node000007"><a xlink:href="mosaic__connector_8h.html" target="_top" xlink:title=" ">
<polygon fill="white" stroke="#666666" points="479.5,-371 365.5,-371 365.5,-341 479.5,-341 479.5,-371"/>
<text text-anchor="start" x="373.5" y="-359" font-family="Helvetica,sans-Serif" font-size="10.00">mosaic/core/mosaic</text>
<text text-anchor="middle" x="422.5" y="-348" font-family="Helvetica,sans-Serif" font-size="10.00">_connector.h</text>
</a>
</g>
</g>
<!-- Node1&#45;&gt;Node7 -->
<g id="edge6_Node000001_Node000007" class="edge">
<title>Node1&#45;&gt;Node7</title>
<g id="a_edge6_Node000001_Node000007"><a xlink:title=" ">
<path fill="none" stroke="#63b8ff" d="M422.5,-406.8C422.5,-399.34 422.5,-389.99 422.5,-381.41"/>
<polygon fill="#63b8ff" stroke="#63b8ff" points="426,-381.16 422.5,-371.16 419,-381.16 426,-381.16"/>
</a>
</g>
</g>
<!-- Node4 -->
<g id="Node000004" class="node">
<title>Node4</title>
<g id="a_Node000004"><a xlink:title=" ">
<polygon fill="#e0e0e0" stroke="#999999" points="645.5,-19 601.5,-19 601.5,0 645.5,0 645.5,-19"/>
<text text-anchor="middle" x="623.5" y="-7" font-family="Helvetica,sans-Serif" font-size="10.00">string</text>
</a>
</g>
</g>
<!-- Node3&#45;&gt;Node4 -->
<g id="edge3_Node000003_Node000004" class="edge">
<title>Node3&#45;&gt;Node4</title>
<g id="a_edge3_Node000003_Node000004"><a xlink:title=" ">
<path fill="none" stroke="#63b8ff" d="M152.19,-60.49C162.36,-58.5 173.31,-56.52 183.5,-55 335.19,-32.42 518.04,-17.99 591.07,-12.73"/>
<polygon fill="#63b8ff" stroke="#63b8ff" points="591.71,-16.2 601.43,-12 591.21,-9.21 591.71,-16.2"/>
</a>
</g>
</g>
<!-- Node5 -->
<g id="Node000005" class="node">
<title>Node5</title>
<g id="a_Node000005"><a xlink:title=" ">
<polygon fill="#e0e0e0" stroke="#999999" points="159,-19 66,-19 66,0 159,0 159,-19"/>
<text text-anchor="middle" x="112.5" y="-7" font-family="Helvetica,sans-Serif" font-size="10.00">unordered_map</text>
</a>
</g>
</g>
<!-- Node3&#45;&gt;Node5 -->
<g id="edge4_Node000003_Node000005" class="edge">
<title>Node3&#45;&gt;Node5</title>
<g id="a_edge4_Node000003_Node000005"><a xlink:title=" ">
<path fill="none" stroke="#63b8ff" d="M112.5,-60.37C112.5,-52.25 112.5,-39.81 112.5,-29.39"/>
<polygon fill="#63b8ff" stroke="#63b8ff" points="116,-29.17 112.5,-19.17 109,-29.17 116,-29.17"/>
</a>
</g>
</g>
<!-- Node6 -->
<g id="Node000006" class="node">
<title>Node6</title>
<g id="a_Node000006"><a xlink:title=" ">
<polygon fill="#e0e0e0" stroke="#999999" points="47,-19 0,-19 0,0 47,0 47,-19"/>
<text text-anchor="middle" x="23.5" y="-7" font-family="Helvetica,sans-Serif" font-size="10.00">vector</text>
</a>
</g>
</g>
<!-- Node3&#45;&gt;Node6 -->
<g id="edge5_Node000003_Node000006" class="edge">
<title>Node3&#45;&gt;Node6</title>
<g id="a_edge5_Node000003_Node000006"><a xlink:title=" ">
<path fill="none" stroke="#63b8ff" d="M99.37,-60.37C85.17,-51.04 62.3,-36.01 45.38,-24.88"/>
<polygon fill="#63b8ff" stroke="#63b8ff" points="46.97,-21.74 36.69,-19.17 43.12,-27.58 46.97,-21.74"/>
</a>
</g>
</g>
<!-- Node7&#45;&gt;Node2 -->
<g id="edge8_Node000007_Node000002" class="edge">
<title>Node7&#45;&gt;Node2</title>
<g id="a_edge8_Node000007_Node000002"><a xlink:title=" ">
<path fill="none" stroke="#63b8ff" d="M479.67,-354.69C642.42,-352.29 1096.5,-334.31 1096.5,-208.5 1096.5,-208.5 1096.5,-208.5 1096.5,-135 1096.5,-96.1 1081.66,-52.45 1072.2,-28.56"/>
<polygon fill="#63b8ff" stroke="#63b8ff" points="1075.33,-26.98 1068.3,-19.06 1068.86,-29.64 1075.33,-26.98"/>
</a>
</g>
</g>
<!-- Node7&#45;&gt;Node4 -->
<g id="edge9_Node000007_Node000004" class="edge">
<title>Node7&#45;&gt;Node4</title>
<g id="a_edge9_Node000007_Node000004"><a xlink:title=" ">
<path fill="none" stroke="#63b8ff" d="M479.6,-354.61C562.34,-352.7 709.32,-343.77 742.5,-305 818.26,-216.49 687.92,-73.48 640.06,-26.22"/>
<polygon fill="#63b8ff" stroke="#63b8ff" points="642.25,-23.47 632.64,-19.01 637.37,-28.49 642.25,-23.47"/>
</a>
</g>
</g>
<!-- Node8 -->
<g id="Node000008" class="node">
<title>Node8</title>
<g id="a_Node000008"><a xlink:title=" ">
<polygon fill="#e0e0e0" stroke="#999999" points="356.5,-294 318.5,-294 318.5,-275 356.5,-275 356.5,-294"/>
<text text-anchor="middle" x="337.5" y="-282" font-family="Helvetica,sans-Serif" font-size="10.00">map</text>
</a>
</g>
</g>
<!-- Node7&#45;&gt;Node8 -->
<g id="edge7_Node000007_Node000008" class="edge">
<title>Node7&#45;&gt;Node8</title>
<g id="a_edge7_Node000007_Node000008"><a xlink:title=" ">
<path fill="none" stroke="#63b8ff" d="M405.3,-340.94C391.02,-329.26 370.76,-312.7 356.11,-300.72"/>
<polygon fill="#63b8ff" stroke="#63b8ff" points="358.18,-297.89 348.22,-294.27 353.75,-303.31 358.18,-297.89"/>
</a>
</g>
</g>
<!-- Node9 -->
<g id="Node000009" class="node">
<title>Node9</title>
<g id="a_Node000009"><a xlink:href="connector__state__manager_8h.html" target="_top" xlink:title=" ">
<polygon fill="white" stroke="#666666" points="578,-299.5 451,-299.5 451,-269.5 578,-269.5 578,-299.5"/>
<text text-anchor="start" x="459" y="-287.5" font-family="Helvetica,sans-Serif" font-size="10.00">mosaic/core/connector</text>
<text text-anchor="middle" x="514.5" y="-276.5" font-family="Helvetica,sans-Serif" font-size="10.00">_state_manager.h</text>
</a>
</g>
</g>
<!-- Node7&#45;&gt;Node9 -->
<g id="edge10_Node000007_Node000009" class="edge">
<title>Node7&#45;&gt;Node9</title>
<g id="a_edge10_Node000007_Node000009"><a xlink:title=" ">
<path fill="none" stroke="#63b8ff" d="M441.12,-340.94C454.46,-330.86 472.64,-317.13 487.56,-305.85"/>
<polygon fill="#63b8ff" stroke="#63b8ff" points="490.04,-308.36 495.91,-299.54 485.82,-302.78 490.04,-308.36"/>
</a>
</g>
</g>
<!-- Node13 -->
<g id="Node000013" class="node">
<title>Node13</title>
<g id="a_Node000013"><a xlink:title=" ">
<polygon fill="#e0e0e0" stroke="#999999" points="595.5,-151 449.5,-151 449.5,-121 595.5,-121 595.5,-151"/>
<text text-anchor="start" x="457.5" y="-139" font-family="Helvetica,sans-Serif" font-size="10.00">mosaic/rtc/webrtc_forward</text>
<text text-anchor="middle" x="522.5" y="-128" font-family="Helvetica,sans-Serif" font-size="10.00">_decl.h</text>
</a>
</g>
</g>
<!-- Node7&#45;&gt;Node13 -->
<g id="edge45_Node000007_Node000013" class="edge">
<title>Node7&#45;&gt;Node13</title>
<g id="a_edge45_Node000007_Node000013"><a xlink:title=" ">
<path fill="none" stroke="#63b8ff" d="M424.19,-340.71C426.68,-322.43 432.19,-290.01 442.5,-264 457.19,-226.94 467.06,-220.61 488.5,-187 494.28,-177.94 500.88,-168.12 506.72,-159.61"/>
<polygon fill="#63b8ff" stroke="#63b8ff" points="509.65,-161.51 512.45,-151.29 503.89,-157.53 509.65,-161.51"/>
</a>
</g>
</g>
<!-- Node16 -->
<g id="Node000016" class="node">
<title>Node16</title>
<g id="a_Node000016"><a xlink:href="peer__connection__manager_8h.html" target="_top" xlink:title=" ">
<polygon fill="white" stroke="#666666" points="301,-299.5 142,-299.5 142,-269.5 301,-269.5 301,-299.5"/>
<text text-anchor="start" x="150" y="-287.5" font-family="Helvetica,sans-Serif" font-size="10.00">mosaic/core/peer_connection</text>
<text text-anchor="middle" x="221.5" y="-276.5" font-family="Helvetica,sans-Serif" font-size="10.00">_manager.h</text>
</a>
</g>
</g>
<!-- Node7&#45;&gt;Node16 -->
<g id="edge23_Node000007_Node000016" class="edge">
<title>Node7&#45;&gt;Node16</title>
<g id="a_edge23_Node000007_Node000016"><a xlink:title=" ">
<path fill="none" stroke="#63b8ff" d="M376.28,-340.94C343.22,-330.01 299.07,-314.79 266.34,-303.06"/>
<polygon fill="#63b8ff" stroke="#63b8ff" points="267.16,-299.64 256.57,-299.54 264.79,-306.23 267.16,-299.64"/>
</a>
</g>
</g>
<!-- Node17 -->
<g id="Node000017" class="node">
<title>Node17</title>
<g id="a_Node000017"><a xlink:href="i__data__channel__handler_8h.html" target="_top" xlink:title=" ">
<polygon fill="white" stroke="#666666" points="733,-305 596,-305 596,-264 733,-264 733,-305"/>
<text text-anchor="start" x="604" y="-293" font-family="Helvetica,sans-Serif" font-size="10.00">mosaic/handlers/data</text>
<text text-anchor="start" x="604" y="-282" font-family="Helvetica,sans-Serif" font-size="10.00">_channel/i_data_channel</text>
<text text-anchor="middle" x="664.5" y="-271" font-family="Helvetica,sans-Serif" font-size="10.00">_handler.h</text>
</a>
</g>
</g>
<!-- Node7&#45;&gt;Node17 -->
<g id="edge28_Node000007_Node000017" class="edge">
<title>Node7&#45;&gt;Node17</title>
<g id="a_edge28_Node000007_Node000017"><a xlink:title=" ">
<path fill="none" stroke="#63b8ff" d="M471.47,-340.94C504.44,-331.47 548.61,-318.78 586.38,-307.93"/>
<polygon fill="#63b8ff" stroke="#63b8ff" points="587.7,-311.2 596.34,-305.07 585.77,-304.47 587.7,-311.2"/>
</a>
</g>
</g>
<!-- Node24 -->
<g id="Node000024" class="node">
<title>Node24</title>
<g id="a_Node000024"><a xlink:href="i__media__track__handler_8h.html" target="_top" xlink:title=" ">
<polygon fill="white" stroke="#666666" points="436,-228 305,-228 305,-187 436,-187 436,-228"/>
<text text-anchor="start" x="313" y="-216" font-family="Helvetica,sans-Serif" font-size="10.00">mosaic/handlers/media</text>
<text text-anchor="start" x="313" y="-205" font-family="Helvetica,sans-Serif" font-size="10.00">_track/i_media_track</text>
<text text-anchor="middle" x="370.5" y="-194" font-family="Helvetica,sans-Serif" font-size="10.00">_handler.h</text>
</a>
</g>
</g>
<!-- Node7&#45;&gt;Node24 -->
<g id="edge41_Node000007_Node000024" class="edge">
<title>Node7&#45;&gt;Node24</title>
<g id="a_edge41_Node000007_Node000024"><a xlink:title=" ">
<path fill="none" stroke="#63b8ff" d="M417.51,-340.95C409.12,-317.3 391.99,-269.05 380.89,-237.78"/>
<polygon fill="#63b8ff" stroke="#63b8ff" points="384.16,-236.53 377.52,-228.27 377.57,-238.87 384.16,-236.53"/>
</a>
</g>
</g>
<!-- Node9&#45;&gt;Node2 -->
<g id="edge11_Node000009_Node000002" class="edge">
<title>Node9&#45;&gt;Node2</title>
<g id="a_edge11_Node000009_Node000002"><a xlink:title=" ">
<path fill="none" stroke="#63b8ff" d="M562.95,-269.44C571.1,-267.39 579.5,-265.48 587.5,-264 661.77,-250.21 859.28,-264.34 925.5,-228 996.75,-188.89 1000.65,-156.39 1039.5,-85 1049.26,-67.06 1056.15,-44.64 1060.2,-29.1"/>
<polygon fill="#63b8ff" stroke="#63b8ff" points="1063.65,-29.71 1062.64,-19.16 1056.85,-28.04 1063.65,-29.71"/>
</a>
</g>
</g>
<!-- Node9&#45;&gt;Node4 -->
<g id="edge13_Node000009_Node000004" class="edge">
<title>Node9&#45;&gt;Node4</title>
<g id="a_edge13_Node000009_Node000004"><a xlink:title=" ">
<path fill="none" stroke="#63b8ff" d="M511.3,-269.22C507.61,-248.93 504.1,-211.52 521.5,-187 544.76,-154.2 580.23,-183.06 604.5,-151 631.78,-114.96 629.7,-58.34 626.34,-29.2"/>
<polygon fill="#63b8ff" stroke="#63b8ff" points="629.8,-28.61 625.01,-19.16 622.86,-29.54 629.8,-28.61"/>
</a>
</g>
</g>
<!-- Node10 -->
<g id="Node000010" class="node">
<title>Node10</title>
<g id="a_Node000010"><a xlink:title=" ">
<polygon fill="#e0e0e0" stroke="#999999" points="616.5,-217 530.5,-217 530.5,-198 616.5,-198 616.5,-217"/>
<text text-anchor="middle" x="573.5" y="-205" font-family="Helvetica,sans-Serif" font-size="10.00">shared_mutex</text>
</a>
</g>
</g>
<!-- Node9&#45;&gt;Node10 -->
<g id="edge12_Node000009_Node000010" class="edge">
<title>Node9&#45;&gt;Node10</title>
<g id="a_edge12_Node000009_Node000010"><a xlink:title=" ">
<path fill="none" stroke="#63b8ff" d="M525.6,-269.39C535.46,-256.86 549.88,-238.53 560.32,-225.26"/>
<polygon fill="#63b8ff" stroke="#63b8ff" points="563.09,-227.4 566.52,-217.37 557.58,-223.07 563.09,-227.4"/>
</a>
</g>
</g>
<!-- Node11 -->
<g id="Node000011" class="node">
<title>Node11</title>
<g id="a_Node000011"><a xlink:href="i__signaling__client_8h.html" target="_top" xlink:title=" ">
<polygon fill="white" stroke="#666666" points="287,-222.5 180,-222.5 180,-192.5 287,-192.5 287,-222.5"/>
<text text-anchor="start" x="188" y="-210.5" font-family="Helvetica,sans-Serif" font-size="10.00">mosaic/signaling/i</text>
<text text-anchor="middle" x="233.5" y="-199.5" font-family="Helvetica,sans-Serif" font-size="10.00">_signaling_client.h</text>
</a>
</g>
</g>
<!-- Node9&#45;&gt;Node11 -->
<g id="edge14_Node000009_Node000011" class="edge">
<title>Node9&#45;&gt;Node11</title>
<g id="a_edge14_Node000009_Node000011"><a xlink:title=" ">
<path fill="none" stroke="#63b8ff" d="M455.99,-269.46C411.98,-258.69 350.25,-243.15 296.5,-228 293.56,-227.17 290.56,-226.31 287.53,-225.42"/>
<polygon fill="#63b8ff" stroke="#63b8ff" points="288.4,-222.03 277.82,-222.53 286.4,-228.74 288.4,-222.03"/>
</a>
</g>
</g>
<!-- Node12 -->
<g id="Node000012" class="node">
<title>Node12</title>
<g id="a_Node000012"><a xlink:title=" ">
<polygon fill="#e0e0e0" stroke="#999999" points="310.5,-85 192.5,-85 192.5,-55 310.5,-55 310.5,-85"/>
<text text-anchor="start" x="200.5" y="-73" font-family="Helvetica,sans-Serif" font-size="10.00">mosaic/json_forward</text>
<text text-anchor="middle" x="251.5" y="-62" font-family="Helvetica,sans-Serif" font-size="10.00">_decl.h</text>
</a>
</g>
</g>
<!-- Node11&#45;&gt;Node12 -->
<g id="edge15_Node000011_Node000012" class="edge">
<title>Node11&#45;&gt;Node12</title>
<g id="a_edge15_Node000011_Node000012"><a xlink:title=" ">
<path fill="none" stroke="#63b8ff" d="M214.23,-192.37C194.04,-175.73 166.99,-147.04 180.5,-121 187.09,-108.29 198.56,-98.13 210.39,-90.38"/>
<polygon fill="#63b8ff" stroke="#63b8ff" points="212.26,-93.34 218.99,-85.16 208.63,-87.35 212.26,-93.34"/>
</a>
</g>
</g>
<!-- Node11&#45;&gt;Node13 -->
<g id="edge16_Node000011_Node000013" class="edge">
<title>Node11&#45;&gt;Node13</title>
<g id="a_edge16_Node000011_Node000013"><a xlink:title=" ">
<path fill="none" stroke="#63b8ff" d="M277.08,-192.5C283.57,-190.56 290.19,-188.67 296.5,-187 344.52,-174.28 398.86,-162.18 442.22,-153.08"/>
<polygon fill="#63b8ff" stroke="#63b8ff" points="443.08,-156.48 452.15,-151.01 441.65,-149.62 443.08,-156.48"/>
</a>
</g>
</g>
<!-- Node14 -->
<g id="Node000014" class="node">
<title>Node14</title>
<g id="a_Node000014"><a xlink:href="i__mosaic__authenticator_8h.html" target="_top" xlink:title=" ">
<polygon fill="white" stroke="#666666" points="329.5,-151 189.5,-151 189.5,-121 329.5,-121 329.5,-151"/>
<text text-anchor="start" x="197.5" y="-139" font-family="Helvetica,sans-Serif" font-size="10.00">mosaic/security/i_mosaic</text>
<text text-anchor="middle" x="259.5" y="-128" font-family="Helvetica,sans-Serif" font-size="10.00">_authenticator.h</text>
</a>
</g>
</g>
<!-- Node11&#45;&gt;Node14 -->
<g id="edge17_Node000011_Node000014" class="edge">
<title>Node11&#45;&gt;Node14</title>
<g id="a_edge17_Node000011_Node000014"><a xlink:title=" ">
<path fill="none" stroke="#63b8ff" d="M238.76,-192.44C242.18,-183.3 246.72,-171.16 250.68,-160.57"/>
<polygon fill="#63b8ff" stroke="#63b8ff" points="254.02,-161.64 254.25,-151.04 247.46,-159.18 254.02,-161.64"/>
</a>
</g>
</g>
<!-- Node14&#45;&gt;Node2 -->
<g id="edge18_Node000014_Node000002" class="edge">
<title>Node14&#45;&gt;Node2</title>
<g id="a_edge18_Node000014_Node000002"><a xlink:title=" ">
<path fill="none" stroke="#63b8ff" d="M329.72,-122.61C333.03,-122.06 336.3,-121.52 339.5,-121 640.95,-72.25 721.3,-75.32 1025.51,-19.07"/>
<polygon fill="#63b8ff" stroke="#63b8ff" points="1026.3,-22.48 1035.5,-17.21 1025.03,-15.6 1026.3,-22.48"/>
</a>
</g>
</g>
<!-- Node14&#45;&gt;Node3 -->
<g id="edge21_Node000014_Node000003" class="edge">
<title>Node14&#45;&gt;Node3</title>
<g id="a_edge21_Node000014_Node000003"><a xlink:title=" ">
<path fill="none" stroke="#63b8ff" d="M227.24,-120.95C201.57,-109.78 165.99,-94.29 141.28,-83.53"/>
<polygon fill="#63b8ff" stroke="#63b8ff" points="142.63,-80.3 132.06,-79.52 139.83,-86.72 142.63,-80.3"/>
</a>
</g>
</g>
<!-- Node14&#45;&gt;Node12 -->
<g id="edge22_Node000014_Node000012" class="edge">
<title>Node14&#45;&gt;Node12</title>
<g id="a_edge22_Node000014_Node000012"><a xlink:title=" ">
<path fill="none" stroke="#63b8ff" d="M257.72,-120.8C256.78,-113.26 255.6,-103.78 254.52,-95.13"/>
<polygon fill="#63b8ff" stroke="#63b8ff" points="257.98,-94.65 253.27,-85.16 251.04,-95.52 257.98,-94.65"/>
</a>
</g>
</g>
<!-- Node15 -->
<g id="Node000015" class="node">
<title>Node15</title>
<g id="a_Node000015"><a xlink:href="auth__type_8h.html" target="_top" xlink:title=" ">
<polygon fill="white" stroke="#666666" points="402.5,-79.5 328.5,-79.5 328.5,-60.5 402.5,-60.5 402.5,-79.5"/>
<text text-anchor="middle" x="365.5" y="-67.5" font-family="Helvetica,sans-Serif" font-size="10.00">auth_type.h</text>
</a>
</g>
</g>
<!-- Node14&#45;&gt;Node15 -->
<g id="edge19_Node000014_Node000015" class="edge">
<title>Node14&#45;&gt;Node15</title>
<g id="a_edge19_Node000014_Node000015"><a xlink:title=" ">
<path fill="none" stroke="#63b8ff" d="M282.76,-120.95C300.61,-110.18 325.12,-95.38 342.83,-84.69"/>
<polygon fill="#63b8ff" stroke="#63b8ff" points="344.64,-87.68 351.39,-79.52 341.02,-81.69 344.64,-87.68"/>
</a>
</g>
</g>
<!-- Node15&#45;&gt;Node4 -->
<g id="edge20_Node000015_Node000004" class="edge">
<title>Node15&#45;&gt;Node4</title>
<g id="a_edge20_Node000015_Node000004"><a xlink:title=" ">
<path fill="none" stroke="#63b8ff" d="M395.63,-60.43C402.47,-58.56 409.72,-56.66 416.5,-55 478.09,-39.94 550.66,-24.97 591.45,-16.81"/>
<polygon fill="#63b8ff" stroke="#63b8ff" points="592.23,-20.22 601.35,-14.84 590.86,-13.36 592.23,-20.22"/>
</a>
</g>
</g>
<!-- Node16&#45;&gt;Node3 -->
<g id="edge25_Node000016_Node000003" class="edge">
<title>Node16&#45;&gt;Node3</title>
<g id="a_edge25_Node000016_Node000003"><a xlink:title=" ">
<path fill="none" stroke="#63b8ff" d="M205.82,-269.2C195,-258.66 180.93,-243.51 171.5,-228 143.46,-181.89 125.1,-120.26 117.1,-89.75"/>
<polygon fill="#63b8ff" stroke="#63b8ff" points="120.39,-88.51 114.54,-79.67 113.61,-90.23 120.39,-88.51"/>
</a>
</g>
</g>
<!-- Node16&#45;&gt;Node6 -->
<g id="edge24_Node000016_Node000006" class="edge">
<title>Node16&#45;&gt;Node6</title>
<g id="a_edge24_Node000016_Node000006"><a xlink:title=" ">
<path fill="none" stroke="#63b8ff" d="M198.44,-269.39C182.57,-259.05 161.54,-244.07 145.5,-228 89.99,-172.38 74.47,-156.34 41.5,-85 33.14,-66.92 28.41,-44.52 25.91,-29.02"/>
<polygon fill="#63b8ff" stroke="#63b8ff" points="29.38,-28.52 24.47,-19.13 22.45,-29.52 29.38,-28.52"/>
</a>
</g>
</g>
<!-- Node16&#45;&gt;Node7 -->
<g id="edge26_Node000016_Node000007" class="edge">
<title>Node16&#45;&gt;Node7</title>
<g id="a_edge26_Node000016_Node000007"><a xlink:title=" ">
<path fill="none" stroke="#63b8ff" d="M267.66,-299.54C300.7,-310.47 344.85,-325.68 377.6,-337.42"/>
<polygon fill="#63b8ff" stroke="#63b8ff" points="376.78,-340.84 387.37,-340.94 379.15,-334.25 376.78,-340.84"/>
</a>
</g>
</g>
<!-- Node16&#45;&gt;Node11 -->
<g id="edge27_Node000016_Node000011" class="edge">
<title>Node16&#45;&gt;Node11</title>
<g id="a_edge27_Node000016_Node000011"><a xlink:title=" ">
<path fill="none" stroke="#63b8ff" d="M223.76,-269.39C225.42,-259.02 227.71,-244.68 229.66,-232.51"/>
<polygon fill="#63b8ff" stroke="#63b8ff" points="233.13,-232.97 231.25,-222.54 226.22,-231.87 233.13,-232.97"/>
</a>
</g>
</g>
<!-- Node17&#45;&gt;Node4 -->
<g id="edge29_Node000017_Node000004" class="edge">
<title>Node17&#45;&gt;Node4</title>
<g id="a_edge29_Node000017_Node000004"><a xlink:title=" ">
<path fill="none" stroke="#63b8ff" d="M663.41,-263.73C660.95,-223.88 653.83,-131.16 637.5,-55 635.63,-46.29 632.78,-36.85 630.14,-28.91"/>
<polygon fill="#63b8ff" stroke="#63b8ff" points="633.37,-27.53 626.78,-19.23 626.76,-29.83 633.37,-27.53"/>
</a>
</g>
</g>
<!-- Node17&#45;&gt;Node13 -->
<g id="edge40_Node000017_Node000013" class="edge">
<title>Node17&#45;&gt;Node13</title>
<g id="a_edge40_Node000017_Node000013"><a xlink:title=" ">
<path fill="none" stroke="#63b8ff" d="M660.94,-263.85C656.17,-242.58 645.86,-208.79 625.5,-187 612.56,-173.15 594.97,-162.68 577.99,-155"/>
<polygon fill="#63b8ff" stroke="#63b8ff" points="579.23,-151.72 568.66,-151.01 576.48,-158.16 579.23,-151.72"/>
</a>
</g>
</g>
<!-- Node18 -->
<g id="Node000018" class="node">
<title>Node18</title>
<g id="a_Node000018"><a xlink:href="log_8h.html" target="_top" xlink:title=" ">
<polygon fill="white" stroke="#666666" points="916,-217 803,-217 803,-198 916,-198 916,-217"/>
<text text-anchor="middle" x="859.5" y="-205" font-family="Helvetica,sans-Serif" font-size="10.00">mosaic/logger/log.h</text>
</a>
</g>
</g>
<!-- Node17&#45;&gt;Node18 -->
<g id="edge30_Node000017_Node000018" class="edge">
<title>Node17&#45;&gt;Node18</title>
<g id="a_edge30_Node000017_Node000018"><a xlink:title=" ">
<path fill="none" stroke="#63b8ff" d="M715.22,-263.99C750.71,-250.34 797.03,-232.53 827.49,-220.81"/>
<polygon fill="#63b8ff" stroke="#63b8ff" points="829.09,-223.94 837.17,-217.09 826.58,-217.41 829.09,-223.94"/>
</a>
</g>
</g>
<!-- Node19 -->
<g id="Node000019" class="node">
<title>Node19</title>
<g id="a_Node000019"><a xlink:href="i__logger_8h.html" target="_top" xlink:title=" ">
<polygon fill="white" stroke="#666666" points="891.5,-145.5 827.5,-145.5 827.5,-126.5 891.5,-126.5 891.5,-145.5"/>
<text text-anchor="middle" x="859.5" y="-133.5" font-family="Helvetica,sans-Serif" font-size="10.00">i_logger.h</text>
</a>
</g>
</g>
<!-- Node18&#45;&gt;Node19 -->
<g id="edge31_Node000018_Node000019" class="edge">
<title>Node18&#45;&gt;Node19</title>
<g id="a_edge31_Node000018_Node000019"><a xlink:title=" ">
<path fill="none" stroke="#63b8ff" d="M859.5,-197.98C859.5,-187.56 859.5,-169.61 859.5,-155.88"/>
<polygon fill="#63b8ff" stroke="#63b8ff" points="863,-155.59 859.5,-145.59 856,-155.59 863,-155.59"/>
</a>
</g>
</g>
<!-- Node22 -->
<g id="Node000022" class="node">
<title>Node22</title>
<g id="a_Node000022"><a xlink:href="log__service_8h.html" target="_top" xlink:title=" ">
<polygon fill="white" stroke="#666666" points="1030,-79.5 949,-79.5 949,-60.5 1030,-60.5 1030,-79.5"/>
<text text-anchor="middle" x="989.5" y="-67.5" font-family="Helvetica,sans-Serif" font-size="10.00">log_service.h</text>
</a>
</g>
</g>
<!-- Node18&#45;&gt;Node22 -->
<g id="edge39_Node000018_Node000022" class="edge">
<title>Node18&#45;&gt;Node22</title>
<g id="a_edge39_Node000018_Node000022"><a xlink:title=" ">
<path fill="none" stroke="#63b8ff" d="M868.03,-197.61C889.61,-175.11 946.63,-115.69 974.17,-86.97"/>
<polygon fill="#63b8ff" stroke="#63b8ff" points="976.71,-89.39 981.11,-79.75 971.66,-84.54 976.71,-89.39"/>
</a>
</g>
</g>
<!-- Node19&#45;&gt;Node4 -->
<g id="edge32_Node000019_Node000004" class="edge">
<title>Node19&#45;&gt;Node4</title>
<g id="a_edge32_Node000019_Node000004"><a xlink:title=" ">
<path fill="none" stroke="#63b8ff" d="M845.89,-126.3C821.73,-111 769.54,-78.69 723.5,-55 700.56,-43.2 673.82,-31.39 653.77,-22.91"/>
<polygon fill="#63b8ff" stroke="#63b8ff" points="655.08,-19.67 644.51,-19.03 652.38,-26.13 655.08,-19.67"/>
</a>
</g>
</g>
<!-- Node20 -->
<g id="Node000020" class="node">
<title>Node20</title>
<g id="a_Node000020"><a xlink:title=" ">
<polygon fill="#e0e0e0" stroke="#999999" points="931,-79.5 852,-79.5 852,-60.5 931,-60.5 931,-79.5"/>
<text text-anchor="middle" x="891.5" y="-67.5" font-family="Helvetica,sans-Serif" font-size="10.00">fmt/format.h</text>
</a>
</g>
</g>
<!-- Node19&#45;&gt;Node20 -->
<g id="edge33_Node000019_Node000020" class="edge">
<title>Node19&#45;&gt;Node20</title>
<g id="a_edge33_Node000019_Node000020"><a xlink:title=" ">
<path fill="none" stroke="#63b8ff" d="M863.82,-126.37C868.56,-116.88 876.32,-101.36 882.42,-89.16"/>
<polygon fill="#63b8ff" stroke="#63b8ff" points="885.71,-90.41 887.05,-79.91 879.44,-87.28 885.71,-90.41"/>
</a>
</g>
</g>
<!-- Node21 -->
<g id="Node000021" class="node">
<title>Node21</title>
<g id="a_Node000021"><a xlink:href="log__level_8h.html" target="_top" xlink:title=" ">
<polygon fill="white" stroke="#666666" points="890.5,-19 820.5,-19 820.5,0 890.5,0 890.5,-19"/>
<text text-anchor="middle" x="855.5" y="-7" font-family="Helvetica,sans-Serif" font-size="10.00">log_level.h</text>
</a>
</g>
</g>
<!-- Node19&#45;&gt;Node21 -->
<g id="edge34_Node000019_Node000021" class="edge">
<title>Node19&#45;&gt;Node21</title>
<g id="a_edge34_Node000019_Node000021"><a xlink:title=" ">
<path fill="none" stroke="#63b8ff" d="M855.82,-126.35C851.87,-116.53 845.83,-99.95 843.5,-85 841.44,-71.83 841.75,-68.22 843.5,-55 844.66,-46.27 847.03,-36.83 849.37,-28.9"/>
<polygon fill="#63b8ff" stroke="#63b8ff" points="852.75,-29.82 852.41,-19.23 846.07,-27.72 852.75,-29.82"/>
</a>
</g>
</g>
<!-- Node19&#45;&gt;Node22 -->
<g id="edge35_Node000019_Node000022" class="edge">
<title>Node19&#45;&gt;Node22</title>
<g id="a_edge35_Node000019_Node000022"><a xlink:title=" ">
<path fill="none" stroke="#63b8ff" d="M877.03,-126.37C899.03,-115.54 936.99,-96.85 962.65,-84.22"/>
<polygon fill="#63b8ff" stroke="#63b8ff" points="964.4,-87.26 971.83,-79.7 961.31,-80.98 964.4,-87.26"/>
</a>
</g>
</g>
<!-- Node22&#45;&gt;Node2 -->
<g id="edge36_Node000022_Node000002" class="edge">
<title>Node22&#45;&gt;Node2</title>
<g id="a_edge36_Node000022_Node000002"><a xlink:title=" ">
<path fill="none" stroke="#63b8ff" d="M1000.57,-60.37C1012.31,-51.21 1031.09,-36.56 1045.26,-25.51"/>
<polygon fill="#63b8ff" stroke="#63b8ff" points="1047.66,-28.08 1053.39,-19.17 1043.35,-22.56 1047.66,-28.08"/>
</a>
</g>
</g>
<!-- Node22&#45;&gt;Node21 -->
<g id="edge38_Node000022_Node000021" class="edge">
<title>Node22&#45;&gt;Node21</title>
<g id="a_edge38_Node000022_Node000021"><a xlink:title=" ">
<path fill="none" stroke="#63b8ff" d="M970.02,-60.49C947.49,-50.66 910.19,-34.38 884.31,-23.08"/>
<polygon fill="#63b8ff" stroke="#63b8ff" points="885.57,-19.81 875.01,-19.02 882.77,-26.23 885.57,-19.81"/>
</a>
</g>
</g>
<!-- Node23 -->
<g id="Node000023" class="node">
<title>Node23</title>
<g id="a_Node000023"><a xlink:title=" ">
<polygon fill="#e0e0e0" stroke="#999999" points="1017,-19 948,-19 948,0 1017,0 1017,-19"/>
<text text-anchor="middle" x="982.5" y="-7" font-family="Helvetica,sans-Serif" font-size="10.00">type_traits</text>
</a>
</g>
</g>
<!-- Node22&#45;&gt;Node23 -->
<g id="edge37_Node000022_Node000023" class="edge">
<title>Node22&#45;&gt;Node23</title>
<g id="a_edge37_Node000022_Node000023"><a xlink:title=" ">
<path fill="none" stroke="#63b8ff" d="M988.47,-60.37C987.5,-52.25 986.01,-39.81 984.76,-29.39"/>
<polygon fill="#63b8ff" stroke="#63b8ff" points="988.2,-28.68 983.54,-19.17 981.25,-29.51 988.2,-28.68"/>
</a>
</g>
</g>
<!-- Node24&#45;&gt;Node4 -->
<g id="edge42_Node000024_Node000004" class="edge">
<title>Node24&#45;&gt;Node4</title>
<g id="a_edge42_Node000024_Node000004"><a xlink:title=" ">
<path fill="none" stroke="#63b8ff" d="M383.6,-186.88C396.57,-168.41 417.74,-140.72 440.5,-121 489.94,-78.16 558.04,-41.93 595.68,-23.52"/>
<polygon fill="#63b8ff" stroke="#63b8ff" points="597.52,-26.52 605,-19.02 594.48,-20.21 597.52,-26.52"/>
</a>
</g>
</g>
<!-- Node24&#45;&gt;Node13 -->
<g id="edge44_Node000024_Node000013" class="edge">
<title>Node24&#45;&gt;Node13</title>
<g id="a_edge44_Node000024_Node000013"><a xlink:title=" ">
<path fill="none" stroke="#63b8ff" d="M413.24,-186.96C434.97,-177.02 461.21,-165.03 482.52,-155.28"/>
<polygon fill="#63b8ff" stroke="#63b8ff" points="484,-158.45 491.63,-151.11 481.08,-152.09 484,-158.45"/>
</a>
</g>
</g>
<!-- Node25 -->
<g id="Node000025" class="node">
<title>Node25</title>
<g id="a_Node000025"><a xlink:title=" ">
<polygon fill="#e0e0e0" stroke="#999999" points="393,-145.5 348,-145.5 348,-126.5 393,-126.5 393,-145.5"/>
<text text-anchor="middle" x="370.5" y="-133.5" font-family="Helvetica,sans-Serif" font-size="10.00">utility</text>
</a>
</g>
</g>
<!-- Node24&#45;&gt;Node25 -->
<g id="edge43_Node000024_Node000025" class="edge">
<title>Node24&#45;&gt;Node25</title>
<g id="a_edge43_Node000024_Node000025"><a xlink:title=" ">
<path fill="none" stroke="#63b8ff" d="M370.5,-186.77C370.5,-177.08 370.5,-165.46 370.5,-155.88"/>
<polygon fill="#63b8ff" stroke="#63b8ff" points="374,-155.82 370.5,-145.82 367,-155.82 374,-155.82"/>
</a>
</g>
</g>
</g>
</svg>
