<?xml version="1.0" encoding="UTF-8" standalone="no"?>
<!DOCTYPE svg PUBLIC "-//W3C//DTD SVG 1.1//EN"
 "http://www.w3.org/Graphics/SVG/1.1/DTD/svg11.dtd">
<!-- Generated by graphviz version 2.43.0 (0)
 -->
<!-- Title: include/mosaic/core/mosaic_connector.h Pages: 1 -->
<!--zoomable 379 -->

<svg id="main" version="1.1" xmlns="http://www.w3.org/2000/svg" xmlns:xlink="http://www.w3.org/1999/xlink" xml:space="preserve" onload="init(evt)">
<style type="text/css"><![CDATA[
.node, .edge {opacity: 0.7;}
.node.selected, .edge.selected {opacity: 1;}
.edge:hover path { stroke: red; }
.edge:hover polygon { stroke: red; fill: red; }
]]></style>

<defs>
  <circle id="rim" cx="0" cy="0" r="7"/>
  <circle id="rim2" cx="0" cy="0" r="3.5"/>
  <g id="zoomPlus">
    <use xlink:href="#rim" fill="#404040"><set attributeName="fill" to="#808080" begin="zoomplus.mouseover" end="zoomplus.mouseout"/></use>
    <path d="M-4,0h8M0,-4v8" fill="none" stroke="white" stroke-width="1.5" pointer-events="none"/>
  </g>
  <g id="zoomMin">
    <use xlink:href="#rim" fill="#404040"><set attributeName="fill" to="#808080" begin="zoomminus.mouseover" end="zoomminus.mouseout"/></use>
    <path d="M-4,0h8" fill="none" stroke="white" stroke-width="1.5" pointer-events="none"/>
  </g>
  <g id="arrowUp" transform="translate(30 24)">
    <use xlink:href="#rim"/>
    <path pointer-events="none" fill="none" stroke="white" stroke-width="1.5" d="M0,-3.0v7 M-2.5,-0.5L0,-3.0L2.5,-0.5"/>
  </g>
  <g id="arrowRight" transform="rotate(90) translate(36 -43)">
    <use xlink:href="#rim"/>
    <path pointer-events="none" fill="none" stroke="white" stroke-width="1.5" d="M0,-3.0v7 M-2.5,-0.5L0,-3.0L2.5,-0.5"/>
  </g>
  <g id="arrowDown" transform="rotate(180) translate(-30 -48)">
    <use xlink:href="#rim"/>
    <path pointer-events="none" fill="none" stroke="white" stroke-width="1.5" d="M0,-3.0v7 M-2.5,-0.5L0,-3.0L2.5,-0.5"/>
  </g>
  <g id="arrowLeft" transform="rotate(270) translate(-36 17)">
    <use xlink:href="#rim"/>
    <path pointer-events="none" fill="none" stroke="white" stroke-width="1.5" d="M0,-3.0v7 M-2.5,-0.5L0,-3.0L2.5,-0.5"/>
  </g>
  <g id="resetDef">
    <use xlink:href="#rim2" fill="#404040"><set attributeName="fill" to="#808080" begin="reset.mouseover" end="reset.mouseout"/></use>
  </g>
</defs>
<script type="application/ecmascript">
var viewWidth = 1095;
var viewHeight = 379;
var sectionId = 'dynsection-0';
</script>
<script type="application/ecmascript" xlink:href="svg.min.js"/>
<svg id="graph" class="graph">
<g id="viewport">
<title>include/mosaic/core/mosaic_connector.h</title>
<!-- Node1 -->
<g id="Node000001" class="node">
<title>Node1</title>
<g id="a_Node000001"><a xlink:title=" ">
<polygon fill="#999999" stroke="#666666" points="646.5,-371 530.5,-371 530.5,-341 646.5,-341 646.5,-371"/>
<text text-anchor="start" x="538.5" y="-359" font-family="Helvetica,sans-Serif" font-size="10.00">include/mosaic/core</text>
<text text-anchor="middle" x="588.5" y="-348" font-family="Helvetica,sans-Serif" font-size="10.00">/mosaic_connector.h</text>
</a>
</g>
</g>
<!-- Node2 -->
<g id="Node000002" class="node">
<title>Node2</title>
<g id="a_Node000002"><a xlink:title=" ">
<polygon fill="#e0e0e0" stroke="#999999" points="268.5,-294 230.5,-294 230.5,-275 268.5,-275 268.5,-294"/>
<text text-anchor="middle" x="249.5" y="-282" font-family="Helvetica,sans-Serif" font-size="10.00">map</text>
</a>
</g>
</g>
<!-- Node1&#45;&gt;Node2 -->
<g id="edge1_Node000001_Node000002" class="edge">
<title>Node1&#45;&gt;Node2</title>
<g id="a_edge1_Node000001_Node000002"><a xlink:title=" ">
<path fill="none" stroke="#63b8ff" d="M530.21,-351.91C467.42,-347.11 365.37,-335.05 282.5,-305 278.35,-303.49 274.13,-301.46 270.16,-299.27"/>
<polygon fill="#63b8ff" stroke="#63b8ff" points="271.87,-296.21 261.49,-294.06 268.26,-302.21 271.87,-296.21"/>
</a>
</g>
</g>
<!-- Node3 -->
<g id="Node000003" class="node">
<title>Node3</title>
<g id="a_Node000003"><a xlink:title=" ">
<polygon fill="#e0e0e0" stroke="#999999" points="344.5,-19 286.5,-19 286.5,0 344.5,0 344.5,-19"/>
<text text-anchor="middle" x="315.5" y="-7" font-family="Helvetica,sans-Serif" font-size="10.00">memory</text>
</a>
</g>
</g>
<!-- Node1&#45;&gt;Node3 -->
<g id="edge2_Node000001_Node000003" class="edge">
<title>Node1&#45;&gt;Node3</title>
<g id="a_edge2_Node000001_Node000003"><a xlink:title=" ">
<path fill="none" stroke="#63b8ff" d="M530.37,-351.87C459.41,-346.82 345.17,-334.28 315.5,-305 284.39,-274.3 296.5,-252.21 296.5,-208.5 296.5,-208.5 296.5,-208.5 296.5,-135 296.5,-97.06 305.23,-53.35 310.85,-29.13"/>
<polygon fill="#63b8ff" stroke="#63b8ff" points="314.31,-29.73 313.25,-19.19 307.5,-28.09 314.31,-29.73"/>
</a>
</g>
</g>
<!-- Node4 -->
<g id="Node000004" class="node">
<title>Node4</title>
<g id="a_Node000004"><a xlink:title=" ">
<polygon fill="#e0e0e0" stroke="#999999" points="508.5,-19 464.5,-19 464.5,0 508.5,0 508.5,-19"/>
<text text-anchor="middle" x="486.5" y="-7" font-family="Helvetica,sans-Serif" font-size="10.00">string</text>
</a>
</g>
</g>
<!-- Node1&#45;&gt;Node4 -->
<g id="edge3_Node000001_Node000004" class="edge">
<title>Node1&#45;&gt;Node4</title>
<g id="a_edge3_Node000001_Node000004"><a xlink:title=" ">
<path fill="none" stroke="#63b8ff" d="M556.78,-340.94C541.83,-332.65 525.18,-320.69 515.5,-305 459.8,-214.74 475.08,-78.53 483.08,-29.18"/>
<polygon fill="#63b8ff" stroke="#63b8ff" points="486.57,-29.51 484.82,-19.06 479.68,-28.32 486.57,-29.51"/>
</a>
</g>
</g>
<!-- Node5 -->
<g id="Node000005" class="node">
<title>Node5</title>
<g id="a_Node000005"><a xlink:href="connector__state__manager_8h.html" target="_top" xlink:title=" ">
<polygon fill="white" stroke="#666666" points="652,-299.5 525,-299.5 525,-269.5 652,-269.5 652,-299.5"/>
<text text-anchor="start" x="533" y="-287.5" font-family="Helvetica,sans-Serif" font-size="10.00">mosaic/core/connector</text>
<text text-anchor="middle" x="588.5" y="-276.5" font-family="Helvetica,sans-Serif" font-size="10.00">_state_manager.h</text>
</a>
</g>
</g>
<!-- Node1&#45;&gt;Node5 -->
<g id="edge4_Node000001_Node000005" class="edge">
<title>Node1&#45;&gt;Node5</title>
<g id="a_edge4_Node000001_Node000005"><a xlink:title=" ">
<path fill="none" stroke="#63b8ff" d="M588.5,-340.94C588.5,-331.99 588.5,-320.16 588.5,-309.73"/>
<polygon fill="#63b8ff" stroke="#63b8ff" points="592,-309.54 588.5,-299.54 585,-309.54 592,-309.54"/>
</a>
</g>
</g>
<!-- Node9 -->
<g id="Node000009" class="node">
<title>Node9</title>
<g id="a_Node000009"><a xlink:title=" ">
<polygon fill="#e0e0e0" stroke="#999999" points="856.5,-151 710.5,-151 710.5,-121 856.5,-121 856.5,-151"/>
<text text-anchor="start" x="718.5" y="-139" font-family="Helvetica,sans-Serif" font-size="10.00">mosaic/rtc/webrtc_forward</text>
<text text-anchor="middle" x="783.5" y="-128" font-family="Helvetica,sans-Serif" font-size="10.00">_decl.h</text>
</a>
</g>
</g>
<!-- Node1&#45;&gt;Node9 -->
<g id="edge42_Node000001_Node000009" class="edge">
<title>Node1&#45;&gt;Node9</title>
<g id="a_edge42_Node000001_Node000009"><a xlink:title=" ">
<path fill="none" stroke="#63b8ff" d="M624.24,-340.97C666.98,-322.16 737.07,-284.46 771.5,-228 783.76,-207.89 785.87,-180.66 785.45,-161.25"/>
<polygon fill="#63b8ff" stroke="#63b8ff" points="788.94,-160.92 784.99,-151.09 781.95,-161.24 788.94,-160.92"/>
</a>
</g>
</g>
<!-- Node15 -->
<g id="Node000015" class="node">
<title>Node15</title>
<g id="a_Node000015"><a xlink:href="peer__connection__manager_8h.html" target="_top" xlink:title=" ">
<polygon fill="white" stroke="#666666" points="1016,-299.5 857,-299.5 857,-269.5 1016,-269.5 1016,-299.5"/>
<text text-anchor="start" x="865" y="-287.5" font-family="Helvetica,sans-Serif" font-size="10.00">mosaic/core/peer_connection</text>
<text text-anchor="middle" x="936.5" y="-276.5" font-family="Helvetica,sans-Serif" font-size="10.00">_manager.h</text>
</a>
</g>
</g>
<!-- Node1&#45;&gt;Node15 -->
<g id="edge20_Node000001_Node000015" class="edge">
<title>Node1&#45;&gt;Node15</title>
<g id="a_edge20_Node000001_Node000015"><a xlink:title=" ">
<path fill="none" stroke="#63b8ff" d="M646.71,-342.39C696.59,-332.42 770.17,-318.05 834.5,-305 839.91,-303.9 845.49,-302.76 851.12,-301.6"/>
<polygon fill="#63b8ff" stroke="#63b8ff" points="852.22,-304.95 861.31,-299.51 850.81,-298.09 852.22,-304.95"/>
</a>
</g>
</g>
<!-- Node16 -->
<g id="Node000016" class="node">
<title>Node16</title>
<g id="a_Node000016"><a xlink:href="i__data__channel__handler_8h.html" target="_top" xlink:title=" ">
<polygon fill="white" stroke="#666666" points="462,-305 325,-305 325,-264 462,-264 462,-305"/>
<text text-anchor="start" x="333" y="-293" font-family="Helvetica,sans-Serif" font-size="10.00">mosaic/handlers/data</text>
<text text-anchor="start" x="333" y="-282" font-family="Helvetica,sans-Serif" font-size="10.00">_channel/i_data_channel</text>
<text text-anchor="middle" x="393.5" y="-271" font-family="Helvetica,sans-Serif" font-size="10.00">_handler.h</text>
</a>
</g>
</g>
<!-- Node1&#45;&gt;Node16 -->
<g id="edge25_Node000001_Node000016" class="edge">
<title>Node1&#45;&gt;Node16</title>
<g id="a_edge25_Node000001_Node000016"><a xlink:title=" ">
<path fill="none" stroke="#63b8ff" d="M549.04,-340.94C522.93,-331.63 488.09,-319.21 458,-308.49"/>
<polygon fill="#63b8ff" stroke="#63b8ff" points="459.01,-305.13 448.42,-305.07 456.66,-311.73 459.01,-305.13"/>
</a>
</g>
</g>
<!-- Node23 -->
<g id="Node000023" class="node">
<title>Node23</title>
<g id="a_Node000023"><a xlink:href="i__media__track__handler_8h.html" target="_top" xlink:title=" ">
<polygon fill="white" stroke="#666666" points="951,-228 820,-228 820,-187 951,-187 951,-228"/>
<text text-anchor="start" x="828" y="-216" font-family="Helvetica,sans-Serif" font-size="10.00">mosaic/handlers/media</text>
<text text-anchor="start" x="828" y="-205" font-family="Helvetica,sans-Serif" font-size="10.00">_track/i_media_track</text>
<text text-anchor="middle" x="885.5" y="-194" font-family="Helvetica,sans-Serif" font-size="10.00">_handler.h</text>
</a>
</g>
</g>
<!-- Node1&#45;&gt;Node23 -->
<g id="edge38_Node000001_Node000023" class="edge">
<title>Node1&#45;&gt;Node23</title>
<g id="a_edge38_Node000001_Node000023"><a xlink:title=" ">
<path fill="none" stroke="#63b8ff" d="M646.71,-351.75C692.76,-346.89 757.13,-334.83 805.5,-305 820.06,-296.02 846.91,-261.67 865.47,-236.5"/>
<polygon fill="#63b8ff" stroke="#63b8ff" points="868.34,-238.51 871.41,-228.37 862.68,-234.38 868.34,-238.51"/>
</a>
</g>
</g>
<!-- Node5&#45;&gt;Node3 -->
<g id="edge5_Node000005_Node000003" class="edge">
<title>Node5&#45;&gt;Node3</title>
<g id="a_edge5_Node000005_Node000003"><a xlink:title=" ">
<path fill="none" stroke="#63b8ff" d="M567.91,-269.34C552.85,-258.63 532.21,-243.22 515.5,-228 439.66,-158.93 360.27,-65.06 329.15,-27.27"/>
<polygon fill="#63b8ff" stroke="#63b8ff" points="331.67,-24.82 322.62,-19.31 326.25,-29.26 331.67,-24.82"/>
</a>
</g>
</g>
<!-- Node5&#45;&gt;Node4 -->
<g id="edge7_Node000005_Node000004" class="edge">
<title>Node5&#45;&gt;Node4</title>
<g id="a_edge7_Node000005_Node000004"><a xlink:title=" ">
<path fill="none" stroke="#63b8ff" d="M574.96,-269.19C565.19,-258.4 552.09,-242.96 542.5,-228 522.01,-196.03 516.4,-187.37 505.5,-151 492.82,-108.71 488.58,-56.7 487.18,-29.36"/>
<polygon fill="#63b8ff" stroke="#63b8ff" points="490.67,-29.09 486.74,-19.25 483.68,-29.4 490.67,-29.09"/>
</a>
</g>
</g>
<!-- Node6 -->
<g id="Node000006" class="node">
<title>Node6</title>
<g id="a_Node000006"><a xlink:title=" ">
<polygon fill="#e0e0e0" stroke="#999999" points="637.5,-217 551.5,-217 551.5,-198 637.5,-198 637.5,-217"/>
<text text-anchor="middle" x="594.5" y="-205" font-family="Helvetica,sans-Serif" font-size="10.00">shared_mutex</text>
</a>
</g>
</g>
<!-- Node5&#45;&gt;Node6 -->
<g id="edge6_Node000005_Node000006" class="edge">
<title>Node5&#45;&gt;Node6</title>
<g id="a_edge6_Node000005_Node000006"><a xlink:title=" ">
<path fill="none" stroke="#63b8ff" d="M589.63,-269.39C590.57,-257.58 591.93,-240.6 592.97,-227.58"/>
<polygon fill="#63b8ff" stroke="#63b8ff" points="596.48,-227.62 593.79,-217.37 589.5,-227.06 596.48,-227.62"/>
</a>
</g>
</g>
<!-- Node7 -->
<g id="Node000007" class="node">
<title>Node7</title>
<g id="a_Node000007"><a xlink:href="i__signaling__client_8h.html" target="_top" xlink:title=" ">
<polygon fill="white" stroke="#666666" points="763,-222.5 656,-222.5 656,-192.5 763,-192.5 763,-222.5"/>
<text text-anchor="start" x="664" y="-210.5" font-family="Helvetica,sans-Serif" font-size="10.00">mosaic/signaling/i</text>
<text text-anchor="middle" x="709.5" y="-199.5" font-family="Helvetica,sans-Serif" font-size="10.00">_signaling_client.h</text>
</a>
</g>
</g>
<!-- Node5&#45;&gt;Node7 -->
<g id="edge8_Node000005_Node000007" class="edge">
<title>Node5&#45;&gt;Node7</title>
<g id="a_edge8_Node000005_Node000007"><a xlink:title=" ">
<path fill="none" stroke="#63b8ff" d="M611.26,-269.39C630.19,-257.66 657.32,-240.84 678.28,-227.85"/>
<polygon fill="#63b8ff" stroke="#63b8ff" points="680.19,-230.79 686.84,-222.54 676.5,-224.84 680.19,-230.79"/>
</a>
</g>
</g>
<!-- Node8 -->
<g id="Node000008" class="node">
<title>Node8</title>
<g id="a_Node000008"><a xlink:title=" ">
<polygon fill="#e0e0e0" stroke="#999999" points="737.5,-85 619.5,-85 619.5,-55 737.5,-55 737.5,-85"/>
<text text-anchor="start" x="627.5" y="-73" font-family="Helvetica,sans-Serif" font-size="10.00">mosaic/json_forward</text>
<text text-anchor="middle" x="678.5" y="-62" font-family="Helvetica,sans-Serif" font-size="10.00">_decl.h</text>
</a>
</g>
</g>
<!-- Node7&#45;&gt;Node8 -->
<g id="edge9_Node000007_Node000008" class="edge">
<title>Node7&#45;&gt;Node8</title>
<g id="a_edge9_Node000007_Node000008"><a xlink:title=" ">
<path fill="none" stroke="#63b8ff" d="M706.24,-192.26C700.95,-169.12 690.43,-123.13 683.97,-94.91"/>
<polygon fill="#63b8ff" stroke="#63b8ff" points="687.36,-94.02 681.72,-85.05 680.53,-95.58 687.36,-94.02"/>
</a>
</g>
</g>
<!-- Node7&#45;&gt;Node9 -->
<g id="edge10_Node000007_Node000009" class="edge">
<title>Node7&#45;&gt;Node9</title>
<g id="a_edge10_Node000007_Node000009"><a xlink:title=" ">
<path fill="none" stroke="#63b8ff" d="M724.48,-192.44C735.01,-182.54 749.28,-169.14 761.16,-157.99"/>
<polygon fill="#63b8ff" stroke="#63b8ff" points="763.65,-160.44 768.55,-151.04 758.86,-155.34 763.65,-160.44"/>
</a>
</g>
</g>
<!-- Node10 -->
<g id="Node000010" class="node">
<title>Node10</title>
<g id="a_Node000010"><a xlink:href="i__mosaic__authenticator_8h.html" target="_top" xlink:title=" ">
<polygon fill="white" stroke="#666666" points="654.5,-151 514.5,-151 514.5,-121 654.5,-121 654.5,-151"/>
<text text-anchor="start" x="522.5" y="-139" font-family="Helvetica,sans-Serif" font-size="10.00">mosaic/security/i_mosaic</text>
<text text-anchor="middle" x="584.5" y="-128" font-family="Helvetica,sans-Serif" font-size="10.00">_authenticator.h</text>
</a>
</g>
</g>
<!-- Node7&#45;&gt;Node10 -->
<g id="edge11_Node000007_Node000010" class="edge">
<title>Node7&#45;&gt;Node10</title>
<g id="a_edge11_Node000007_Node000010"><a xlink:title=" ">
<path fill="none" stroke="#63b8ff" d="M684.2,-192.44C665.31,-181.93 639.29,-167.46 618.57,-155.94"/>
<polygon fill="#63b8ff" stroke="#63b8ff" points="620.2,-152.84 609.76,-151.04 616.8,-158.96 620.2,-152.84"/>
</a>
</g>
</g>
<!-- Node10&#45;&gt;Node3 -->
<g id="edge12_Node000010_Node000003" class="edge">
<title>Node10&#45;&gt;Node3</title>
<g id="a_edge12_Node000010_Node000003"><a xlink:title=" ">
<path fill="none" stroke="#63b8ff" d="M554.17,-120.96C501.61,-96.64 394.38,-47.01 343.49,-23.46"/>
<polygon fill="#63b8ff" stroke="#63b8ff" points="344.65,-20.13 334.1,-19.11 341.71,-26.49 344.65,-20.13"/>
</a>
</g>
</g>
<!-- Node10&#45;&gt;Node8 -->
<g id="edge19_Node000010_Node000008" class="edge">
<title>Node10&#45;&gt;Node8</title>
<g id="a_edge19_Node000010_Node000008"><a xlink:title=" ">
<path fill="none" stroke="#63b8ff" d="M605.36,-120.8C618.26,-112.01 635.01,-100.61 649.23,-90.93"/>
<polygon fill="#63b8ff" stroke="#63b8ff" points="651.4,-93.69 657.7,-85.16 647.46,-87.9 651.4,-93.69"/>
</a>
</g>
</g>
<!-- Node11 -->
<g id="Node000011" class="node">
<title>Node11</title>
<g id="a_Node000011"><a xlink:href="auth__type_8h.html" target="_top" xlink:title=" ">
<polygon fill="white" stroke="#666666" points="593.5,-79.5 519.5,-79.5 519.5,-60.5 593.5,-60.5 593.5,-79.5"/>
<text text-anchor="middle" x="556.5" y="-67.5" font-family="Helvetica,sans-Serif" font-size="10.00">auth_type.h</text>
</a>
</g>
</g>
<!-- Node10&#45;&gt;Node11 -->
<g id="edge13_Node000010_Node000011" class="edge">
<title>Node10&#45;&gt;Node11</title>
<g id="a_edge13_Node000010_Node000011"><a xlink:title=" ">
<path fill="none" stroke="#63b8ff" d="M578.29,-120.8C574.22,-111.5 568.87,-99.27 564.49,-89.26"/>
<polygon fill="#63b8ff" stroke="#63b8ff" points="567.58,-87.6 560.37,-79.84 561.17,-90.41 567.58,-87.6"/>
</a>
</g>
</g>
<!-- Node12 -->
<g id="Node000012" class="node">
<title>Node12</title>
<g id="a_Node000012"><a xlink:href="configs__decl_8h.html" target="_top" xlink:title=" ">
<polygon fill="white" stroke="#666666" points="1036.5,-79.5 912.5,-79.5 912.5,-60.5 1036.5,-60.5 1036.5,-79.5"/>
<text text-anchor="middle" x="974.5" y="-67.5" font-family="Helvetica,sans-Serif" font-size="10.00">mosaic/configs_decl.h</text>
</a>
</g>
</g>
<!-- Node10&#45;&gt;Node12 -->
<g id="edge15_Node000010_Node000012" class="edge">
<title>Node10&#45;&gt;Node12</title>
<g id="a_edge15_Node000010_Node000012"><a xlink:title=" ">
<path fill="none" stroke="#63b8ff" d="M654.67,-123.48C728.15,-111.43 842.4,-92.68 912.61,-81.16"/>
<polygon fill="#63b8ff" stroke="#63b8ff" points="913.34,-84.58 922.64,-79.51 912.21,-77.68 913.34,-84.58"/>
</a>
</g>
</g>
<!-- Node11&#45;&gt;Node4 -->
<g id="edge14_Node000011_Node000004" class="edge">
<title>Node11&#45;&gt;Node4</title>
<g id="a_edge14_Node000011_Node000004"><a xlink:title=" ">
<path fill="none" stroke="#63b8ff" d="M546.17,-60.37C535.31,-51.3 518.01,-36.84 504.83,-25.82"/>
<polygon fill="#63b8ff" stroke="#63b8ff" points="506.79,-22.89 496.87,-19.17 502.3,-28.27 506.79,-22.89"/>
</a>
</g>
</g>
<!-- Node12&#45;&gt;Node4 -->
<g id="edge16_Node000012_Node000004" class="edge">
<title>Node12&#45;&gt;Node4</title>
<g id="a_edge16_Node000012_Node000004"><a xlink:title=" ">
<path fill="none" stroke="#63b8ff" d="M931.19,-60.44C920.53,-58.5 909.12,-56.55 898.5,-55 757.94,-34.49 589.13,-19.15 519.25,-13.2"/>
<polygon fill="#63b8ff" stroke="#63b8ff" points="519.16,-9.68 508.9,-12.33 518.57,-16.66 519.16,-9.68"/>
</a>
</g>
</g>
<!-- Node13 -->
<g id="Node000013" class="node">
<title>Node13</title>
<g id="a_Node000013"><a xlink:title=" ">
<polygon fill="#e0e0e0" stroke="#999999" points="1021,-19 928,-19 928,0 1021,0 1021,-19"/>
<text text-anchor="middle" x="974.5" y="-7" font-family="Helvetica,sans-Serif" font-size="10.00">unordered_map</text>
</a>
</g>
</g>
<!-- Node12&#45;&gt;Node13 -->
<g id="edge17_Node000012_Node000013" class="edge">
<title>Node12&#45;&gt;Node13</title>
<g id="a_edge17_Node000012_Node000013"><a xlink:title=" ">
<path fill="none" stroke="#63b8ff" d="M974.5,-60.37C974.5,-52.25 974.5,-39.81 974.5,-29.39"/>
<polygon fill="#63b8ff" stroke="#63b8ff" points="978,-29.17 974.5,-19.17 971,-29.17 978,-29.17"/>
</a>
</g>
</g>
<!-- Node14 -->
<g id="Node000014" class="node">
<title>Node14</title>
<g id="a_Node000014"><a xlink:title=" ">
<polygon fill="#e0e0e0" stroke="#999999" points="1087,-19 1040,-19 1040,0 1087,0 1087,-19"/>
<text text-anchor="middle" x="1063.5" y="-7" font-family="Helvetica,sans-Serif" font-size="10.00">vector</text>
</a>
</g>
</g>
<!-- Node12&#45;&gt;Node14 -->
<g id="edge18_Node000012_Node000014" class="edge">
<title>Node12&#45;&gt;Node14</title>
<g id="a_edge18_Node000012_Node000014"><a xlink:title=" ">
<path fill="none" stroke="#63b8ff" d="M987.63,-60.37C1001.83,-51.04 1024.7,-36.01 1041.62,-24.88"/>
<polygon fill="#63b8ff" stroke="#63b8ff" points="1043.88,-27.58 1050.31,-19.17 1040.03,-21.74 1043.88,-27.58"/>
</a>
</g>
</g>
<!-- Node15&#45;&gt;Node1 -->
<g id="edge23_Node000015_Node000001" class="edge">
<title>Node15&#45;&gt;Node1</title>
<g id="a_edge23_Node000015_Node000001"><a xlink:title=" ">
<path fill="none" stroke="#63b8ff" d="M878.89,-299.56C870.08,-301.41 861.07,-303.26 852.5,-305 786.25,-318.44 710.19,-333.28 656.7,-343.27"/>
<polygon fill="#63b8ff" stroke="#63b8ff" points="655.84,-339.87 646.65,-345.14 657.12,-346.75 655.84,-339.87"/>
</a>
</g>
</g>
<!-- Node15&#45;&gt;Node7 -->
<g id="edge24_Node000015_Node000007" class="edge">
<title>Node15&#45;&gt;Node7</title>
<g id="a_edge24_Node000015_Node000007"><a xlink:title=" ">
<path fill="none" stroke="#63b8ff" d="M894.07,-269.48C856.61,-257.1 801.86,-239.02 761.72,-225.75"/>
<polygon fill="#63b8ff" stroke="#63b8ff" points="762.7,-222.39 752.11,-222.58 760.5,-229.04 762.7,-222.39"/>
</a>
</g>
</g>
<!-- Node15&#45;&gt;Node12 -->
<g id="edge22_Node000015_Node000012" class="edge">
<title>Node15&#45;&gt;Node12</title>
<g id="a_edge22_Node000015_Node000012"><a xlink:title=" ">
<path fill="none" stroke="#63b8ff" d="M943.77,-269.29C949.05,-258.31 955.87,-242.57 959.5,-228 971.65,-179.21 974.09,-119.64 974.49,-89.85"/>
<polygon fill="#63b8ff" stroke="#63b8ff" points="978,-89.68 974.57,-79.66 971,-89.63 978,-89.68"/>
</a>
</g>
</g>
<!-- Node15&#45;&gt;Node14 -->
<g id="edge21_Node000015_Node000014" class="edge">
<title>Node15&#45;&gt;Node14</title>
<g id="a_edge21_Node000015_Node000014"><a xlink:title=" ">
<path fill="none" stroke="#63b8ff" d="M948.08,-269.42C956.77,-258.51 968.63,-242.8 977.5,-228 1013.69,-167.64 1022,-151.34 1045.5,-85 1052.02,-66.61 1056.97,-44.85 1060.02,-29.61"/>
<polygon fill="#63b8ff" stroke="#63b8ff" points="1063.53,-29.87 1061.97,-19.39 1056.66,-28.55 1063.53,-29.87"/>
</a>
</g>
</g>
<!-- Node16&#45;&gt;Node4 -->
<g id="edge26_Node000016_Node000004" class="edge">
<title>Node16&#45;&gt;Node4</title>
<g id="a_edge26_Node000016_Node000004"><a xlink:title=" ">
<path fill="none" stroke="#63b8ff" d="M392.75,-263.98C392.01,-222.57 394.93,-124.07 434.5,-55 441.42,-42.92 452.9,-32.57 463.32,-24.91"/>
<polygon fill="#63b8ff" stroke="#63b8ff" points="465.46,-27.68 471.69,-19.12 461.48,-21.92 465.46,-27.68"/>
</a>
</g>
</g>
<!-- Node16&#45;&gt;Node9 -->
<g id="edge37_Node000016_Node000009" class="edge">
<title>Node16&#45;&gt;Node9</title>
<g id="a_edge37_Node000016_Node000009"><a xlink:title=" ">
<path fill="none" stroke="#63b8ff" d="M417.49,-263.91C445.7,-241.87 494.75,-206.61 542.5,-187 592.87,-166.31 652.82,-153.83 700.32,-146.51"/>
<polygon fill="#63b8ff" stroke="#63b8ff" points="700.88,-149.97 710.26,-145.03 699.85,-143.05 700.88,-149.97"/>
</a>
</g>
</g>
<!-- Node17 -->
<g id="Node000017" class="node">
<title>Node17</title>
<g id="a_Node000017"><a xlink:href="log_8h.html" target="_top" xlink:title=" ">
<polygon fill="white" stroke="#666666" points="228,-217 115,-217 115,-198 228,-198 228,-217"/>
<text text-anchor="middle" x="171.5" y="-205" font-family="Helvetica,sans-Serif" font-size="10.00">mosaic/logger/log.h</text>
</a>
</g>
</g>
<!-- Node16&#45;&gt;Node17 -->
<g id="edge27_Node000016_Node000017" class="edge">
<title>Node16&#45;&gt;Node17</title>
<g id="a_edge27_Node000016_Node000017"><a xlink:title=" ">
<path fill="none" stroke="#63b8ff" d="M335.75,-263.99C294.83,-250.16 241.24,-232.06 206.6,-220.36"/>
<polygon fill="#63b8ff" stroke="#63b8ff" points="207.51,-216.97 196.92,-217.09 205.27,-223.6 207.51,-216.97"/>
</a>
</g>
</g>
<!-- Node18 -->
<g id="Node000018" class="node">
<title>Node18</title>
<g id="a_Node000018"><a xlink:href="i__logger_8h.html" target="_top" xlink:title=" ">
<polygon fill="white" stroke="#666666" points="203.5,-145.5 139.5,-145.5 139.5,-126.5 203.5,-126.5 203.5,-145.5"/>
<text text-anchor="middle" x="171.5" y="-133.5" font-family="Helvetica,sans-Serif" font-size="10.00">i_logger.h</text>
</a>
</g>
</g>
<!-- Node17&#45;&gt;Node18 -->
<g id="edge28_Node000017_Node000018" class="edge">
<title>Node17&#45;&gt;Node18</title>
<g id="a_edge28_Node000017_Node000018"><a xlink:title=" ">
<path fill="none" stroke="#63b8ff" d="M171.5,-197.98C171.5,-187.56 171.5,-169.61 171.5,-155.88"/>
<polygon fill="#63b8ff" stroke="#63b8ff" points="175,-155.59 171.5,-145.59 168,-155.59 175,-155.59"/>
</a>
</g>
</g>
<!-- Node21 -->
<g id="Node000021" class="node">
<title>Node21</title>
<g id="a_Node000021"><a xlink:href="log__service_8h.html" target="_top" xlink:title=" ">
<polygon fill="white" stroke="#666666" points="94,-79.5 13,-79.5 13,-60.5 94,-60.5 94,-79.5"/>
<text text-anchor="middle" x="53.5" y="-67.5" font-family="Helvetica,sans-Serif" font-size="10.00">log_service.h</text>
</a>
</g>
</g>
<!-- Node17&#45;&gt;Node21 -->
<g id="edge36_Node000017_Node000021" class="edge">
<title>Node17&#45;&gt;Node21</title>
<g id="a_edge36_Node000017_Node000021"><a xlink:title=" ">
<path fill="none" stroke="#63b8ff" d="M163.76,-197.61C144.25,-175.21 92.86,-116.19 67.73,-87.34"/>
<polygon fill="#63b8ff" stroke="#63b8ff" points="70.32,-84.99 61.12,-79.75 65.05,-89.59 70.32,-84.99"/>
</a>
</g>
</g>
<!-- Node18&#45;&gt;Node4 -->
<g id="edge29_Node000018_Node000004" class="edge">
<title>Node18&#45;&gt;Node4</title>
<g id="a_edge29_Node000018_Node000004"><a xlink:title=" ">
<path fill="none" stroke="#63b8ff" d="M190.43,-126.38C224,-111.22 296.26,-79.1 358.5,-55 390.85,-42.48 428.39,-29.62 454.41,-20.96"/>
<polygon fill="#63b8ff" stroke="#63b8ff" points="455.73,-24.21 464.13,-17.75 453.54,-17.57 455.73,-24.21"/>
</a>
</g>
</g>
<!-- Node19 -->
<g id="Node000019" class="node">
<title>Node19</title>
<g id="a_Node000019"><a xlink:title=" ">
<polygon fill="#e0e0e0" stroke="#999999" points="230,-79.5 151,-79.5 151,-60.5 230,-60.5 230,-79.5"/>
<text text-anchor="middle" x="190.5" y="-67.5" font-family="Helvetica,sans-Serif" font-size="10.00">fmt/format.h</text>
</a>
</g>
</g>
<!-- Node18&#45;&gt;Node19 -->
<g id="edge30_Node000018_Node000019" class="edge">
<title>Node18&#45;&gt;Node19</title>
<g id="a_edge30_Node000018_Node000019"><a xlink:title=" ">
<path fill="none" stroke="#63b8ff" d="M174.06,-126.37C176.85,-116.97 181.39,-101.67 185,-89.53"/>
<polygon fill="#63b8ff" stroke="#63b8ff" points="188.37,-90.49 187.86,-79.91 181.65,-88.5 188.37,-90.49"/>
</a>
</g>
</g>
<!-- Node20 -->
<g id="Node000020" class="node">
<title>Node20</title>
<g id="a_Node000020"><a xlink:href="log__level_8h.html" target="_top" xlink:title=" ">
<polygon fill="white" stroke="#666666" points="157.5,-19 87.5,-19 87.5,0 157.5,0 157.5,-19"/>
<text text-anchor="middle" x="122.5" y="-7" font-family="Helvetica,sans-Serif" font-size="10.00">log_level.h</text>
</a>
</g>
</g>
<!-- Node18&#45;&gt;Node20 -->
<g id="edge31_Node000018_Node000020" class="edge">
<title>Node18&#45;&gt;Node20</title>
<g id="a_edge31_Node000018_Node000020"><a xlink:title=" ">
<path fill="none" stroke="#63b8ff" d="M165.14,-126.21C158.4,-116.53 147.89,-100.32 141.5,-85 133.89,-66.74 128.72,-44.65 125.72,-29.29"/>
<polygon fill="#63b8ff" stroke="#63b8ff" points="129.08,-28.23 123.84,-19.02 122.2,-29.49 129.08,-28.23"/>
</a>
</g>
</g>
<!-- Node18&#45;&gt;Node21 -->
<g id="edge32_Node000018_Node000021" class="edge">
<title>Node18&#45;&gt;Node21</title>
<g id="a_edge32_Node000018_Node000021"><a xlink:title=" ">
<path fill="none" stroke="#63b8ff" d="M155.59,-126.37C135.79,-115.63 101.77,-97.18 78.49,-84.55"/>
<polygon fill="#63b8ff" stroke="#63b8ff" points="80,-81.39 69.54,-79.7 76.66,-87.54 80,-81.39"/>
</a>
</g>
</g>
<!-- Node21&#45;&gt;Node3 -->
<g id="edge33_Node000021_Node000003" class="edge">
<title>Node21&#45;&gt;Node3</title>
<g id="a_edge33_Node000021_Node000003"><a xlink:title=" ">
<path fill="none" stroke="#63b8ff" d="M91.6,-60.49C140.99,-49.47 226.69,-30.33 276.51,-19.21"/>
<polygon fill="#63b8ff" stroke="#63b8ff" points="277.28,-22.62 286.28,-17.03 275.75,-15.79 277.28,-22.62"/>
</a>
</g>
</g>
<!-- Node21&#45;&gt;Node20 -->
<g id="edge35_Node000021_Node000020" class="edge">
<title>Node21&#45;&gt;Node20</title>
<g id="a_edge35_Node000021_Node000020"><a xlink:title=" ">
<path fill="none" stroke="#63b8ff" d="M63.68,-60.37C74.38,-51.3 91.44,-36.84 104.43,-25.82"/>
<polygon fill="#63b8ff" stroke="#63b8ff" points="106.91,-28.3 112.28,-19.17 102.39,-22.96 106.91,-28.3"/>
</a>
</g>
</g>
<!-- Node22 -->
<g id="Node000022" class="node">
<title>Node22</title>
<g id="a_Node000022"><a xlink:title=" ">
<polygon fill="#e0e0e0" stroke="#999999" points="69,-19 0,-19 0,0 69,0 69,-19"/>
<text text-anchor="middle" x="34.5" y="-7" font-family="Helvetica,sans-Serif" font-size="10.00">type_traits</text>
</a>
</g>
</g>
<!-- Node21&#45;&gt;Node22 -->
<g id="edge34_Node000021_Node000022" class="edge">
<title>Node21&#45;&gt;Node22</title>
<g id="a_edge34_Node000021_Node000022"><a xlink:title=" ">
<path fill="none" stroke="#63b8ff" d="M50.7,-60.37C48,-52.07 43.85,-39.28 40.42,-28.72"/>
<polygon fill="#63b8ff" stroke="#63b8ff" points="43.73,-27.6 37.32,-19.17 37.08,-29.76 43.73,-27.6"/>
</a>
</g>
</g>
<!-- Node23&#45;&gt;Node4 -->
<g id="edge39_Node000023_Node000004" class="edge">
<title>Node23&#45;&gt;Node4</title>
<g id="a_edge39_Node000023_Node000004"><a xlink:title=" ">
<path fill="none" stroke="#63b8ff" d="M885.34,-186.95C884.24,-168.28 880.02,-140.22 865.5,-121 829.04,-72.75 803.56,-75.05 746.5,-55 667.61,-27.27 568.98,-16.46 518.91,-12.54"/>
<polygon fill="#63b8ff" stroke="#63b8ff" points="518.93,-9.03 508.7,-11.78 518.41,-16.01 518.93,-9.03"/>
</a>
</g>
</g>
<!-- Node23&#45;&gt;Node9 -->
<g id="edge41_Node000023_Node000009" class="edge">
<title>Node23&#45;&gt;Node9</title>
<g id="a_edge41_Node000023_Node000009"><a xlink:title=" ">
<path fill="none" stroke="#63b8ff" d="M856.82,-186.96C843.09,-177.6 826.67,-166.42 812.86,-157.01"/>
<polygon fill="#63b8ff" stroke="#63b8ff" points="814.45,-153.85 804.21,-151.11 810.51,-159.64 814.45,-153.85"/>
</a>
</g>
</g>
<!-- Node24 -->
<g id="Node000024" class="node">
<title>Node24</title>
<g id="a_Node000024"><a xlink:title=" ">
<polygon fill="#e0e0e0" stroke="#999999" points="958,-145.5 913,-145.5 913,-126.5 958,-126.5 958,-145.5"/>
<text text-anchor="middle" x="935.5" y="-133.5" font-family="Helvetica,sans-Serif" font-size="10.00">utility</text>
</a>
</g>
</g>
<!-- Node23&#45;&gt;Node24 -->
<g id="edge40_Node000023_Node000024" class="edge">
<title>Node23&#45;&gt;Node24</title>
<g id="a_edge40_Node000023_Node000024"><a xlink:title=" ">
<path fill="none" stroke="#63b8ff" d="M899.69,-186.77C907.12,-176.45 916.12,-163.93 923.24,-154.04"/>
<polygon fill="#63b8ff" stroke="#63b8ff" points="926.16,-155.98 929.15,-145.82 920.47,-151.89 926.16,-155.98"/>
</a>
</g>
</g>
</g>
</svg>

<g id="navigator" transform="translate(0 0)" fill="#404254">
  <rect fill="#f2f5e9" fill-opacity="0.5" stroke="#606060" stroke-width=".5" x="0" y="0" width="60" height="60"/>
  <use id="zoomplus" xlink:href="#zoomPlus" x="17" y="9" onmousedown="handleZoom(evt,'in')"/>
  <use id="zoomminus" xlink:href="#zoomMin" x="42" y="9" onmousedown="handleZoom(evt,'out')"/>
  <use id="reset" xlink:href="#resetDef" x="30" y="36" onmousedown="handleReset()"/>
   <use id="arrowup" xlink:href="#arrowUp" x="0" y="0" onmousedown="handlePan(0,-1)"/>
  <use id="arrowright" xlink:href="#arrowRight" x="0" y="0" onmousedown="handlePan(1,0)"/>
  <use id="arrowdown" xlink:href="#arrowDown" x="0" y="0" onmousedown="handlePan(0,1)"/>
  <use id="arrowleft" xlink:href="#arrowLeft" x="0" y="0" onmousedown="handlePan(-1,0)"/>
</g>
<svg viewBox="0 0 15 15" width="100%" height="30px" preserveAspectRatio="xMaxYMin meet">
 <g id="arrow_out" transform="scale(0.3 0.3)">
  <a xlink:href="mosaic__connector_8h__incl_org.svg" target="_base">
   <rect id="button" ry="5" rx="5" y="6" x="6" height="38" width="38"
        fill="#f2f5e9" fill-opacity="0.5" stroke="#606060" stroke-width="1.0"/>
   <path id="arrow"
     d="M 11.500037,31.436501 C 11.940474,20.09759 22.043105,11.32322 32.158766,21.979434 L 37.068811,17.246167 C 37.068811,17.246167 37.088388,32 37.088388,32 L 22.160133,31.978069 C 22.160133,31.978069 26.997745,27.140456 26.997745,27.140456 C 18.528582,18.264221 13.291696,25.230495 11.500037,31.436501 z"
     style="fill:#404040;"/>
  </a>
 </g>
</svg>

<style type='text/css'>
<![CDATA[
[data-mouse-over-selected='false'] { opacity: 0.7; }
[data-mouse-over-selected='true']  { opacity: 1.0; }
]]>
</style>
<script type="application/ecmascript"><![CDATA[
document.addEventListener('DOMContentLoaded', (event) => {
  highlightEdges();
  highlightAdjacentNodes();
});
]]></script>
</svg>
