<?xml version="1.0" encoding="UTF-8" standalone="no"?>
<!DOCTYPE svg PUBLIC "-//W3C//DTD SVG 1.1//EN"
 "http://www.w3.org/Graphics/SVG/1.1/DTD/svg11.dtd">
<!-- Generated by graphviz version 2.43.0 (0)
 -->
<!-- Title: src/core/mosaic_connector_factory.cpp Pages: 1 -->
<svg width="1866pt" height="511pt"
 viewBox="0.00 0.00 1865.50 511.00" xmlns="http://www.w3.org/2000/svg" xmlns:xlink="http://www.w3.org/1999/xlink">
<g id="graph0" class="graph" transform="scale(1 1) rotate(0) translate(4 507)">
<title>src/core/mosaic_connector_factory.cpp</title>
<!-- Node1 -->
<g id="Node000001" class="node">
<title>Node1</title>
<g id="a_Node000001"><a xlink:title=" ">
<polygon fill="#999999" stroke="#666666" points="1686.5,-503 1540.5,-503 1540.5,-473 1686.5,-473 1686.5,-503"/>
<text text-anchor="start" x="1548.5" y="-491" font-family="Helvetica,sans-Serif" font-size="10.00">src/core/mosaic_connector</text>
<text text-anchor="middle" x="1613.5" y="-480" font-family="Helvetica,sans-Serif" font-size="10.00">_factory.cpp</text>
</a>
</g>
</g>
<!-- Node2 -->
<g id="Node000002" class="node">
<title>Node2</title>
<g id="a_Node000002"><a xlink:href="mosaic__connector__factory_8h.html" target="_top" xlink:title=" ">
<polygon fill="white" stroke="#666666" points="1838,-437 1721,-437 1721,-407 1838,-407 1838,-437"/>
<text text-anchor="start" x="1729" y="-425" font-family="Helvetica,sans-Serif" font-size="10.00">mosaic/core/mosaic</text>
<text text-anchor="middle" x="1779.5" y="-414" font-family="Helvetica,sans-Serif" font-size="10.00">_connector_factory.h</text>
</a>
</g>
</g>
<!-- Node1&#45;&gt;Node2 -->
<g id="edge1_Node000001_Node000002" class="edge">
<title>Node1&#45;&gt;Node2</title>
<g id="a_edge1_Node000001_Node000002"><a xlink:title=" ">
<path fill="none" stroke="#63b8ff" d="M1649.93,-472.95C1674.58,-463.45 1707.33,-450.82 1733.74,-440.64"/>
<polygon fill="#63b8ff" stroke="#63b8ff" points="1735.08,-443.88 1743.16,-437.01 1732.57,-437.34 1735.08,-443.88"/>
</a>
</g>
</g>
<!-- Node27 -->
<g id="Node000027" class="node">
<title>Node27</title>
<g id="a_Node000027"><a xlink:href="signaling__client_8h.html" target="_top" xlink:title=" ">
<polygon fill="white" stroke="#666666" points="1241.5,-437 1095.5,-437 1095.5,-407 1241.5,-407 1241.5,-437"/>
<text text-anchor="start" x="1103.5" y="-425" font-family="Helvetica,sans-Serif" font-size="10.00">mosaic/signaling/signaling</text>
<text text-anchor="middle" x="1168.5" y="-414" font-family="Helvetica,sans-Serif" font-size="10.00">_client.h</text>
</a>
</g>
</g>
<!-- Node1&#45;&gt;Node27 -->
<g id="edge47_Node000001_Node000027" class="edge">
<title>Node1&#45;&gt;Node27</title>
<g id="a_edge47_Node000001_Node000027"><a xlink:title=" ">
<path fill="none" stroke="#63b8ff" d="M1540.02,-476.43C1460.75,-465.03 1334.78,-446.91 1251.87,-434.99"/>
<polygon fill="#63b8ff" stroke="#63b8ff" points="1252.12,-431.49 1241.72,-433.53 1251.12,-438.42 1252.12,-431.49"/>
</a>
</g>
</g>
<!-- Node32 -->
<g id="Node000032" class="node">
<title>Node32</title>
<g id="a_Node000032"><a xlink:href="authenticator__resolver_8h.html" target="_top" xlink:title=" ">
<polygon fill="white" stroke="#666666" points="1694.5,-299.5 1532.5,-299.5 1532.5,-269.5 1694.5,-269.5 1694.5,-299.5"/>
<text text-anchor="start" x="1540.5" y="-287.5" font-family="Helvetica,sans-Serif" font-size="10.00">mosaic/security/authenticator</text>
<text text-anchor="middle" x="1613.5" y="-276.5" font-family="Helvetica,sans-Serif" font-size="10.00">_resolver.h</text>
</a>
</g>
</g>
<!-- Node1&#45;&gt;Node32 -->
<g id="edge59_Node000001_Node000032" class="edge">
<title>Node1&#45;&gt;Node32</title>
<g id="a_edge59_Node000001_Node000032"><a xlink:title=" ">
<path fill="none" stroke="#63b8ff" d="M1613.5,-472.83C1613.5,-438.8 1613.5,-352.12 1613.5,-309.67"/>
<polygon fill="#63b8ff" stroke="#63b8ff" points="1617,-309.65 1613.5,-299.65 1610,-309.65 1617,-309.65"/>
</a>
</g>
</g>
<!-- Node3 -->
<g id="Node000003" class="node">
<title>Node3</title>
<g id="a_Node000003"><a xlink:title=" ">
<polygon fill="#e0e0e0" stroke="#999999" points="1358.5,-19 1300.5,-19 1300.5,0 1358.5,0 1358.5,-19"/>
<text text-anchor="middle" x="1329.5" y="-7" font-family="Helvetica,sans-Serif" font-size="10.00">memory</text>
</a>
</g>
</g>
<!-- Node2&#45;&gt;Node3 -->
<g id="edge2_Node000002_Node000003" class="edge">
<title>Node2&#45;&gt;Node3</title>
<g id="a_edge2_Node000002_Node000003"><a xlink:title=" ">
<path fill="none" stroke="#63b8ff" d="M1794.54,-406.73C1817.21,-383.59 1857.5,-335.44 1857.5,-285.5 1857.5,-285.5 1857.5,-285.5 1857.5,-135 1857.5,-84.4 1822.3,-76.52 1776.5,-55 1704.55,-21.2 1463.74,-13.01 1368.62,-11.08"/>
<polygon fill="#63b8ff" stroke="#63b8ff" points="1368.62,-7.58 1358.56,-10.89 1368.49,-14.58 1368.62,-7.58"/>
</a>
</g>
</g>
<!-- Node4 -->
<g id="Node000004" class="node">
<title>Node4</title>
<g id="a_Node000004"><a xlink:href="configs__decl_8h.html" target="_top" xlink:title=" ">
<polygon fill="white" stroke="#666666" points="1743.5,-79.5 1619.5,-79.5 1619.5,-60.5 1743.5,-60.5 1743.5,-79.5"/>
<text text-anchor="middle" x="1681.5" y="-67.5" font-family="Helvetica,sans-Serif" font-size="10.00">mosaic/configs_decl.h</text>
</a>
</g>
</g>
<!-- Node2&#45;&gt;Node4 -->
<g id="edge3_Node000002_Node000004" class="edge">
<title>Node2&#45;&gt;Node4</title>
<g id="a_edge3_Node000002_Node000004"><a xlink:title=" ">
<path fill="none" stroke="#63b8ff" d="M1777.37,-406.89C1770.54,-363.3 1747.24,-227.37 1707.5,-121 1703.28,-109.71 1697.1,-97.7 1691.82,-88.29"/>
<polygon fill="#63b8ff" stroke="#63b8ff" points="1694.81,-86.46 1686.77,-79.55 1688.75,-89.96 1694.81,-86.46"/>
</a>
</g>
</g>
<!-- Node8 -->
<g id="Node000008" class="node">
<title>Node8</title>
<g id="a_Node000008"><a xlink:href="mosaic__connector_8h.html" target="_top" xlink:title=" ">
<polygon fill="white" stroke="#666666" points="1178.5,-371 1064.5,-371 1064.5,-341 1178.5,-341 1178.5,-371"/>
<text text-anchor="start" x="1072.5" y="-359" font-family="Helvetica,sans-Serif" font-size="10.00">mosaic/core/mosaic</text>
<text text-anchor="middle" x="1121.5" y="-348" font-family="Helvetica,sans-Serif" font-size="10.00">_connector.h</text>
</a>
</g>
</g>
<!-- Node2&#45;&gt;Node8 -->
<g id="edge7_Node000002_Node000008" class="edge">
<title>Node2&#45;&gt;Node8</title>
<g id="a_edge7_Node000002_Node000008"><a xlink:title=" ">
<path fill="none" stroke="#63b8ff" d="M1720.82,-415.29C1598.76,-403.42 1318.16,-376.13 1188.92,-363.56"/>
<polygon fill="#63b8ff" stroke="#63b8ff" points="1189.05,-360.05 1178.76,-362.57 1188.37,-367.02 1189.05,-360.05"/>
</a>
</g>
</g>
<!-- Node5 -->
<g id="Node000005" class="node">
<title>Node5</title>
<g id="a_Node000005"><a xlink:title=" ">
<polygon fill="#e0e0e0" stroke="#999999" points="712.5,-19 668.5,-19 668.5,0 712.5,0 712.5,-19"/>
<text text-anchor="middle" x="690.5" y="-7" font-family="Helvetica,sans-Serif" font-size="10.00">string</text>
</a>
</g>
</g>
<!-- Node4&#45;&gt;Node5 -->
<g id="edge4_Node000004_Node000005" class="edge">
<title>Node4&#45;&gt;Node5</title>
<g id="a_edge4_Node000004_Node000005"><a xlink:title=" ">
<path fill="none" stroke="#63b8ff" d="M1619.13,-65.32C1429.6,-54.13 864.72,-20.78 723.02,-12.42"/>
<polygon fill="#63b8ff" stroke="#63b8ff" points="723.01,-8.91 712.82,-11.82 722.6,-15.9 723.01,-8.91"/>
</a>
</g>
</g>
<!-- Node6 -->
<g id="Node000006" class="node">
<title>Node6</title>
<g id="a_Node000006"><a xlink:title=" ">
<polygon fill="#e0e0e0" stroke="#999999" points="1782,-19 1689,-19 1689,0 1782,0 1782,-19"/>
<text text-anchor="middle" x="1735.5" y="-7" font-family="Helvetica,sans-Serif" font-size="10.00">unordered_map</text>
</a>
</g>
</g>
<!-- Node4&#45;&gt;Node6 -->
<g id="edge5_Node000004_Node000006" class="edge">
<title>Node4&#45;&gt;Node6</title>
<g id="a_edge5_Node000004_Node000006"><a xlink:title=" ">
<path fill="none" stroke="#63b8ff" d="M1689.47,-60.37C1697.6,-51.55 1710.43,-37.66 1720.48,-26.77"/>
<polygon fill="#63b8ff" stroke="#63b8ff" points="1723.29,-28.89 1727.5,-19.17 1718.14,-24.14 1723.29,-28.89"/>
</a>
</g>
</g>
<!-- Node7 -->
<g id="Node000007" class="node">
<title>Node7</title>
<g id="a_Node000007"><a xlink:title=" ">
<polygon fill="#e0e0e0" stroke="#999999" points="1651,-19 1604,-19 1604,0 1651,0 1651,-19"/>
<text text-anchor="middle" x="1627.5" y="-7" font-family="Helvetica,sans-Serif" font-size="10.00">vector</text>
</a>
</g>
</g>
<!-- Node4&#45;&gt;Node7 -->
<g id="edge6_Node000004_Node000007" class="edge">
<title>Node4&#45;&gt;Node7</title>
<g id="a_edge6_Node000004_Node000007"><a xlink:title=" ">
<path fill="none" stroke="#63b8ff" d="M1673.53,-60.37C1665.4,-51.55 1652.57,-37.66 1642.52,-26.77"/>
<polygon fill="#63b8ff" stroke="#63b8ff" points="1644.86,-24.14 1635.5,-19.17 1639.71,-28.89 1644.86,-24.14"/>
</a>
</g>
</g>
<!-- Node8&#45;&gt;Node3 -->
<g id="edge9_Node000008_Node000003" class="edge">
<title>Node8&#45;&gt;Node3</title>
<g id="a_edge9_Node000008_Node000003"><a xlink:title=" ">
<path fill="none" stroke="#63b8ff" d="M1122.07,-340.71C1124.51,-286.99 1135.75,-98.04 1174.5,-55 1203.74,-22.52 1254.95,-13.11 1290.46,-10.7"/>
<polygon fill="#63b8ff" stroke="#63b8ff" points="1290.68,-14.2 1300.49,-10.18 1290.32,-7.21 1290.68,-14.2"/>
</a>
</g>
</g>
<!-- Node8&#45;&gt;Node5 -->
<g id="edge10_Node000008_Node000005" class="edge">
<title>Node8&#45;&gt;Node5</title>
<g id="a_edge10_Node000008_Node000005"><a xlink:title=" ">
<path fill="none" stroke="#63b8ff" d="M1064.48,-352.39C949.84,-346.61 699.92,-331.14 671.5,-305 639.32,-275.41 652.5,-252.21 652.5,-208.5 652.5,-208.5 652.5,-208.5 652.5,-135 652.5,-95.63 670.1,-52.18 681.34,-28.45"/>
<polygon fill="#63b8ff" stroke="#63b8ff" points="684.58,-29.8 685.84,-19.28 678.29,-26.71 684.58,-29.8"/>
</a>
</g>
</g>
<!-- Node9 -->
<g id="Node000009" class="node">
<title>Node9</title>
<g id="a_Node000009"><a xlink:title=" ">
<polygon fill="#e0e0e0" stroke="#999999" points="1187.5,-294 1149.5,-294 1149.5,-275 1187.5,-275 1187.5,-294"/>
<text text-anchor="middle" x="1168.5" y="-282" font-family="Helvetica,sans-Serif" font-size="10.00">map</text>
</a>
</g>
</g>
<!-- Node8&#45;&gt;Node9 -->
<g id="edge8_Node000008_Node000009" class="edge">
<title>Node8&#45;&gt;Node9</title>
<g id="a_edge8_Node000008_Node000009"><a xlink:title=" ">
<path fill="none" stroke="#63b8ff" d="M1131.01,-340.94C1138.46,-329.92 1148.86,-314.54 1156.82,-302.78"/>
<polygon fill="#63b8ff" stroke="#63b8ff" points="1159.87,-304.51 1162.57,-294.27 1154.07,-300.59 1159.87,-304.51"/>
</a>
</g>
</g>
<!-- Node10 -->
<g id="Node000010" class="node">
<title>Node10</title>
<g id="a_Node000010"><a xlink:href="connector__state__manager_8h.html" target="_top" xlink:title=" ">
<polygon fill="white" stroke="#666666" points="1093,-299.5 966,-299.5 966,-269.5 1093,-269.5 1093,-299.5"/>
<text text-anchor="start" x="974" y="-287.5" font-family="Helvetica,sans-Serif" font-size="10.00">mosaic/core/connector</text>
<text text-anchor="middle" x="1029.5" y="-276.5" font-family="Helvetica,sans-Serif" font-size="10.00">_state_manager.h</text>
</a>
</g>
</g>
<!-- Node8&#45;&gt;Node10 -->
<g id="edge11_Node000008_Node000010" class="edge">
<title>Node8&#45;&gt;Node10</title>
<g id="a_edge11_Node000008_Node000010"><a xlink:title=" ">
<path fill="none" stroke="#63b8ff" d="M1102.88,-340.94C1089.54,-330.86 1071.36,-317.13 1056.44,-305.85"/>
<polygon fill="#63b8ff" stroke="#63b8ff" points="1058.18,-302.78 1048.09,-299.54 1053.96,-308.36 1058.18,-302.78"/>
</a>
</g>
</g>
<!-- Node14 -->
<g id="Node000014" class="node">
<title>Node14</title>
<g id="a_Node000014"><a xlink:title=" ">
<polygon fill="#e0e0e0" stroke="#999999" points="864.5,-151 718.5,-151 718.5,-121 864.5,-121 864.5,-151"/>
<text text-anchor="start" x="726.5" y="-139" font-family="Helvetica,sans-Serif" font-size="10.00">mosaic/rtc/webrtc_forward</text>
<text text-anchor="middle" x="791.5" y="-128" font-family="Helvetica,sans-Serif" font-size="10.00">_decl.h</text>
</a>
</g>
</g>
<!-- Node8&#45;&gt;Node14 -->
<g id="edge46_Node000008_Node000014" class="edge">
<title>Node8&#45;&gt;Node14</title>
<g id="a_edge46_Node000008_Node000014"><a xlink:title=" ">
<path fill="none" stroke="#63b8ff" d="M1064.06,-347.49C1020.91,-340.39 961.13,-327.39 912.5,-305 859.61,-280.65 837.08,-277.55 806.5,-228 794.07,-207.86 790.99,-180.64 790.61,-161.23"/>
<polygon fill="#63b8ff" stroke="#63b8ff" points="794.11,-161.09 790.64,-151.08 787.11,-161.07 794.11,-161.09"/>
</a>
</g>
</g>
<!-- Node17 -->
<g id="Node000017" class="node">
<title>Node17</title>
<g id="a_Node000017"><a xlink:href="peer__connection__manager_8h.html" target="_top" xlink:title=" ">
<polygon fill="white" stroke="#666666" points="1402,-299.5 1243,-299.5 1243,-269.5 1402,-269.5 1402,-299.5"/>
<text text-anchor="start" x="1251" y="-287.5" font-family="Helvetica,sans-Serif" font-size="10.00">mosaic/core/peer_connection</text>
<text text-anchor="middle" x="1322.5" y="-276.5" font-family="Helvetica,sans-Serif" font-size="10.00">_manager.h</text>
</a>
</g>
</g>
<!-- Node8&#45;&gt;Node17 -->
<g id="edge24_Node000008_Node000017" class="edge">
<title>Node8&#45;&gt;Node17</title>
<g id="a_edge24_Node000008_Node000017"><a xlink:title=" ">
<path fill="none" stroke="#63b8ff" d="M1156.63,-340.94C1187.04,-329.91 1231.41,-314.53 1266.66,-302.76"/>
<polygon fill="#63b8ff" stroke="#63b8ff" points="1267.95,-306.02 1276.34,-299.54 1265.75,-299.38 1267.95,-306.02"/>
</a>
</g>
</g>
<!-- Node18 -->
<g id="Node000018" class="node">
<title>Node18</title>
<g id="a_Node000018"><a xlink:href="i__data__channel__handler_8h.html" target="_top" xlink:title=" ">
<polygon fill="white" stroke="#666666" points="818,-305 681,-305 681,-264 818,-264 818,-305"/>
<text text-anchor="start" x="689" y="-293" font-family="Helvetica,sans-Serif" font-size="10.00">mosaic/handlers/data</text>
<text text-anchor="start" x="689" y="-282" font-family="Helvetica,sans-Serif" font-size="10.00">_channel/i_data_channel</text>
<text text-anchor="middle" x="749.5" y="-271" font-family="Helvetica,sans-Serif" font-size="10.00">_handler.h</text>
</a>
</g>
</g>
<!-- Node8&#45;&gt;Node18 -->
<g id="edge29_Node000008_Node000018" class="edge">
<title>Node8&#45;&gt;Node18</title>
<g id="a_edge29_Node000008_Node000018"><a xlink:title=" ">
<path fill="none" stroke="#63b8ff" d="M1064.28,-346.13C1005.84,-336.83 912.58,-321.32 832.5,-305 831.05,-304.7 829.59,-304.4 828.11,-304.09"/>
<polygon fill="#63b8ff" stroke="#63b8ff" points="828.78,-300.66 818.27,-301.99 827.32,-307.5 828.78,-300.66"/>
</a>
</g>
</g>
<!-- Node25 -->
<g id="Node000025" class="node">
<title>Node25</title>
<g id="a_Node000025"><a xlink:href="i__media__track__handler_8h.html" target="_top" xlink:title=" ">
<polygon fill="white" stroke="#666666" points="947,-228 816,-228 816,-187 947,-187 947,-228"/>
<text text-anchor="start" x="824" y="-216" font-family="Helvetica,sans-Serif" font-size="10.00">mosaic/handlers/media</text>
<text text-anchor="start" x="824" y="-205" font-family="Helvetica,sans-Serif" font-size="10.00">_track/i_media_track</text>
<text text-anchor="middle" x="881.5" y="-194" font-family="Helvetica,sans-Serif" font-size="10.00">_handler.h</text>
</a>
</g>
</g>
<!-- Node8&#45;&gt;Node25 -->
<g id="edge42_Node000008_Node000025" class="edge">
<title>Node8&#45;&gt;Node25</title>
<g id="a_edge42_Node000008_Node000025"><a xlink:title=" ">
<path fill="none" stroke="#63b8ff" d="M1064.24,-346.6C1030.62,-339.59 988.57,-327.04 956.5,-305 930.95,-287.44 910.13,-258.48 896.97,-236.86"/>
<polygon fill="#63b8ff" stroke="#63b8ff" points="899.9,-234.94 891.8,-228.1 893.87,-238.49 899.9,-234.94"/>
</a>
</g>
</g>
<!-- Node10&#45;&gt;Node3 -->
<g id="edge12_Node000010_Node000003" class="edge">
<title>Node10&#45;&gt;Node3</title>
<g id="a_edge12_Node000010_Node000003"><a xlink:title=" ">
<path fill="none" stroke="#63b8ff" d="M1054.36,-269.31C1069.3,-259.54 1087.49,-245.23 1098.5,-228 1141.16,-161.23 1085.16,-110.71 1141.5,-55 1162.22,-34.51 1241.42,-21.34 1290.17,-14.98"/>
<polygon fill="#63b8ff" stroke="#63b8ff" points="1290.89,-18.42 1300.37,-13.7 1290.01,-11.48 1290.89,-18.42"/>
</a>
</g>
</g>
<!-- Node10&#45;&gt;Node5 -->
<g id="edge14_Node000010_Node000005" class="edge">
<title>Node10&#45;&gt;Node5</title>
<g id="a_edge14_Node000010_Node000005"><a xlink:title=" ">
<path fill="none" stroke="#63b8ff" d="M1018.37,-269.24C1010.53,-258.49 1000.41,-243.06 994.5,-228 976.84,-182.96 1004.01,-159.33 974.5,-121 912.39,-40.33 783.17,-18.5 722.84,-12.63"/>
<polygon fill="#63b8ff" stroke="#63b8ff" points="723.01,-9.14 712.74,-11.74 722.4,-16.11 723.01,-9.14"/>
</a>
</g>
</g>
<!-- Node11 -->
<g id="Node000011" class="node">
<title>Node11</title>
<g id="a_Node000011"><a xlink:title=" ">
<polygon fill="#e0e0e0" stroke="#999999" points="1089.5,-217 1003.5,-217 1003.5,-198 1089.5,-198 1089.5,-217"/>
<text text-anchor="middle" x="1046.5" y="-205" font-family="Helvetica,sans-Serif" font-size="10.00">shared_mutex</text>
</a>
</g>
</g>
<!-- Node10&#45;&gt;Node11 -->
<g id="edge13_Node000010_Node000011" class="edge">
<title>Node10&#45;&gt;Node11</title>
<g id="a_edge13_Node000010_Node000011"><a xlink:title=" ">
<path fill="none" stroke="#63b8ff" d="M1032.7,-269.39C1035.4,-257.46 1039.3,-240.26 1042.26,-227.18"/>
<polygon fill="#63b8ff" stroke="#63b8ff" points="1045.69,-227.9 1044.49,-217.37 1038.86,-226.35 1045.69,-227.9"/>
</a>
</g>
</g>
<!-- Node12 -->
<g id="Node000012" class="node">
<title>Node12</title>
<g id="a_Node000012"><a xlink:href="i__signaling__client_8h.html" target="_top" xlink:title=" ">
<polygon fill="white" stroke="#666666" points="1291,-222.5 1184,-222.5 1184,-192.5 1291,-192.5 1291,-222.5"/>
<text text-anchor="start" x="1192" y="-210.5" font-family="Helvetica,sans-Serif" font-size="10.00">mosaic/signaling/i</text>
<text text-anchor="middle" x="1237.5" y="-199.5" font-family="Helvetica,sans-Serif" font-size="10.00">_signaling_client.h</text>
</a>
</g>
</g>
<!-- Node10&#45;&gt;Node12 -->
<g id="edge15_Node000010_Node000012" class="edge">
<title>Node10&#45;&gt;Node12</title>
<g id="a_edge15_Node000010_Node000012"><a xlink:title=" ">
<path fill="none" stroke="#63b8ff" d="M1068.62,-269.39C1102.76,-257.08 1152.42,-239.18 1189.06,-225.97"/>
<polygon fill="#63b8ff" stroke="#63b8ff" points="1190.33,-229.23 1198.55,-222.54 1187.96,-222.64 1190.33,-229.23"/>
</a>
</g>
</g>
<!-- Node13 -->
<g id="Node000013" class="node">
<title>Node13</title>
<g id="a_Node000013"><a xlink:title=" ">
<polygon fill="#e0e0e0" stroke="#999999" points="1301.5,-85 1183.5,-85 1183.5,-55 1301.5,-55 1301.5,-85"/>
<text text-anchor="start" x="1191.5" y="-73" font-family="Helvetica,sans-Serif" font-size="10.00">mosaic/json_forward</text>
<text text-anchor="middle" x="1242.5" y="-62" font-family="Helvetica,sans-Serif" font-size="10.00">_decl.h</text>
</a>
</g>
</g>
<!-- Node12&#45;&gt;Node13 -->
<g id="edge16_Node000012_Node000013" class="edge">
<title>Node12&#45;&gt;Node13</title>
<g id="a_edge16_Node000012_Node000013"><a xlink:title=" ">
<path fill="none" stroke="#63b8ff" d="M1238.03,-192.26C1238.88,-169.22 1240.56,-123.53 1241.6,-95.29"/>
<polygon fill="#63b8ff" stroke="#63b8ff" points="1245.11,-95.18 1241.98,-85.05 1238.11,-94.92 1245.11,-95.18"/>
</a>
</g>
</g>
<!-- Node12&#45;&gt;Node14 -->
<g id="edge17_Node000012_Node000014" class="edge">
<title>Node12&#45;&gt;Node14</title>
<g id="a_edge17_Node000012_Node000014"><a xlink:title=" ">
<path fill="none" stroke="#63b8ff" d="M1183.7,-198.12C1106.88,-186.15 965.08,-164.05 874.67,-149.96"/>
<polygon fill="#63b8ff" stroke="#63b8ff" points="875.15,-146.49 864.73,-148.41 874.07,-153.41 875.15,-146.49"/>
</a>
</g>
</g>
<!-- Node15 -->
<g id="Node000015" class="node">
<title>Node15</title>
<g id="a_Node000015"><a xlink:href="i__mosaic__authenticator_8h.html" target="_top" xlink:title=" ">
<polygon fill="white" stroke="#666666" points="1525.5,-151 1385.5,-151 1385.5,-121 1525.5,-121 1525.5,-151"/>
<text text-anchor="start" x="1393.5" y="-139" font-family="Helvetica,sans-Serif" font-size="10.00">mosaic/security/i_mosaic</text>
<text text-anchor="middle" x="1455.5" y="-128" font-family="Helvetica,sans-Serif" font-size="10.00">_authenticator.h</text>
</a>
</g>
</g>
<!-- Node12&#45;&gt;Node15 -->
<g id="edge18_Node000012_Node000015" class="edge">
<title>Node12&#45;&gt;Node15</title>
<g id="a_edge18_Node000012_Node000015"><a xlink:title=" ">
<path fill="none" stroke="#63b8ff" d="M1281.62,-192.44C1316.33,-181.37 1364.86,-165.9 1401.83,-154.11"/>
<polygon fill="#63b8ff" stroke="#63b8ff" points="1402.99,-157.42 1411.45,-151.04 1400.86,-150.75 1402.99,-157.42"/>
</a>
</g>
</g>
<!-- Node15&#45;&gt;Node3 -->
<g id="edge19_Node000015_Node000003" class="edge">
<title>Node15&#45;&gt;Node3</title>
<g id="a_edge19_Node000015_Node000003"><a xlink:title=" ">
<path fill="none" stroke="#63b8ff" d="M1456.7,-120.88C1457.39,-103.44 1455.92,-73.78 1440.5,-55 1422.75,-33.38 1392.93,-22.19 1368.67,-16.44"/>
<polygon fill="#63b8ff" stroke="#63b8ff" points="1369.17,-12.97 1358.66,-14.29 1367.7,-19.81 1369.17,-12.97"/>
</a>
</g>
</g>
<!-- Node15&#45;&gt;Node4 -->
<g id="edge22_Node000015_Node000004" class="edge">
<title>Node15&#45;&gt;Node4</title>
<g id="a_edge22_Node000015_Node000004"><a xlink:title=" ">
<path fill="none" stroke="#63b8ff" d="M1505.1,-120.95C1546.13,-109.34 1603.65,-93.05 1641.71,-82.27"/>
<polygon fill="#63b8ff" stroke="#63b8ff" points="1642.76,-85.61 1651.42,-79.52 1640.85,-78.87 1642.76,-85.61"/>
</a>
</g>
</g>
<!-- Node15&#45;&gt;Node13 -->
<g id="edge23_Node000015_Node000013" class="edge">
<title>Node15&#45;&gt;Node13</title>
<g id="a_edge23_Node000015_Node000013"><a xlink:title=" ">
<path fill="none" stroke="#63b8ff" d="M1408.76,-120.95C1376.43,-111.24 1333.25,-98.27 1299,-87.98"/>
<polygon fill="#63b8ff" stroke="#63b8ff" points="1299.72,-84.54 1289.13,-85.01 1297.7,-91.24 1299.72,-84.54"/>
</a>
</g>
</g>
<!-- Node16 -->
<g id="Node000016" class="node">
<title>Node16</title>
<g id="a_Node000016"><a xlink:href="auth__type_8h.html" target="_top" xlink:title=" ">
<polygon fill="white" stroke="#666666" points="1431.5,-79.5 1357.5,-79.5 1357.5,-60.5 1431.5,-60.5 1431.5,-79.5"/>
<text text-anchor="middle" x="1394.5" y="-67.5" font-family="Helvetica,sans-Serif" font-size="10.00">auth_type.h</text>
</a>
</g>
</g>
<!-- Node15&#45;&gt;Node16 -->
<g id="edge20_Node000015_Node000016" class="edge">
<title>Node15&#45;&gt;Node16</title>
<g id="a_edge20_Node000015_Node000016"><a xlink:title=" ">
<path fill="none" stroke="#63b8ff" d="M1441.96,-120.8C1432.45,-110.82 1419.72,-97.46 1409.83,-87.09"/>
<polygon fill="#63b8ff" stroke="#63b8ff" points="1412.36,-84.67 1402.93,-79.84 1407.3,-89.5 1412.36,-84.67"/>
</a>
</g>
</g>
<!-- Node16&#45;&gt;Node5 -->
<g id="edge21_Node000016_Node000005" class="edge">
<title>Node16&#45;&gt;Node5</title>
<g id="a_edge21_Node000016_Node000005"><a xlink:title=" ">
<path fill="none" stroke="#63b8ff" d="M1357.39,-62.05C1342.82,-59.52 1325.92,-56.83 1310.5,-55 1086.3,-28.33 814.46,-15.53 722.59,-11.74"/>
<polygon fill="#63b8ff" stroke="#63b8ff" points="722.67,-8.24 712.54,-11.34 722.39,-15.24 722.67,-8.24"/>
</a>
</g>
</g>
<!-- Node17&#45;&gt;Node4 -->
<g id="edge26_Node000017_Node000004" class="edge">
<title>Node17&#45;&gt;Node4</title>
<g id="a_edge26_Node000017_Node000004"><a xlink:title=" ">
<path fill="none" stroke="#63b8ff" d="M1402.34,-274.56C1492.78,-263.72 1629.95,-244.79 1647.5,-228 1685.71,-191.44 1685.97,-122.89 1683.53,-89.81"/>
<polygon fill="#63b8ff" stroke="#63b8ff" points="1687.01,-89.34 1682.62,-79.7 1680.03,-89.97 1687.01,-89.34"/>
</a>
</g>
</g>
<!-- Node17&#45;&gt;Node7 -->
<g id="edge25_Node000017_Node000007" class="edge">
<title>Node17&#45;&gt;Node7</title>
<g id="a_edge25_Node000017_Node000007"><a xlink:title=" ">
<path fill="none" stroke="#63b8ff" d="M1353.4,-269.46C1397.38,-248.39 1478.85,-205.21 1534.5,-151 1573.13,-113.37 1604.35,-57.07 1618.8,-28.51"/>
<polygon fill="#63b8ff" stroke="#63b8ff" points="1622.05,-29.84 1623.35,-19.33 1615.77,-26.74 1622.05,-29.84"/>
</a>
</g>
</g>
<!-- Node17&#45;&gt;Node8 -->
<g id="edge27_Node000017_Node000008" class="edge">
<title>Node17&#45;&gt;Node8</title>
<g id="a_edge27_Node000017_Node000008"><a xlink:title=" ">
<path fill="none" stroke="#63b8ff" d="M1287.43,-299.54C1257.04,-310.56 1212.67,-325.95 1177.41,-337.72"/>
<polygon fill="#63b8ff" stroke="#63b8ff" points="1176.11,-334.46 1167.72,-340.94 1178.32,-341.1 1176.11,-334.46"/>
</a>
</g>
</g>
<!-- Node17&#45;&gt;Node12 -->
<g id="edge28_Node000017_Node000012" class="edge">
<title>Node17&#45;&gt;Node12</title>
<g id="a_edge28_Node000017_Node000012"><a xlink:title=" ">
<path fill="none" stroke="#63b8ff" d="M1306.51,-269.39C1293.69,-258.08 1275.51,-242.04 1261.02,-229.26"/>
<polygon fill="#63b8ff" stroke="#63b8ff" points="1263.23,-226.54 1253.42,-222.54 1258.6,-231.78 1263.23,-226.54"/>
</a>
</g>
</g>
<!-- Node18&#45;&gt;Node5 -->
<g id="edge30_Node000018_Node000005" class="edge">
<title>Node18&#45;&gt;Node5</title>
<g id="a_edge30_Node000018_Node000005"><a xlink:title=" ">
<path fill="none" stroke="#63b8ff" d="M742.39,-263.56C733.49,-237.85 718.32,-191.62 709.5,-151 700.13,-107.85 694.56,-56.19 692.07,-29.13"/>
<polygon fill="#63b8ff" stroke="#63b8ff" points="695.55,-28.79 691.19,-19.14 688.58,-29.4 695.55,-28.79"/>
</a>
</g>
</g>
<!-- Node18&#45;&gt;Node14 -->
<g id="edge41_Node000018_Node000014" class="edge">
<title>Node18&#45;&gt;Node14</title>
<g id="a_edge41_Node000018_Node000014"><a xlink:title=" ">
<path fill="none" stroke="#63b8ff" d="M753.79,-263.75C758.2,-244.13 765.53,-213.27 773.5,-187 776.13,-178.34 779.39,-168.97 782.4,-160.71"/>
<polygon fill="#63b8ff" stroke="#63b8ff" points="785.7,-161.9 785.91,-151.31 779.14,-159.46 785.7,-161.9"/>
</a>
</g>
</g>
<!-- Node19 -->
<g id="Node000019" class="node">
<title>Node19</title>
<g id="a_Node000019"><a xlink:href="log_8h.html" target="_top" xlink:title=" ">
<polygon fill="white" stroke="#666666" points="205,-217 92,-217 92,-198 205,-198 205,-217"/>
<text text-anchor="middle" x="148.5" y="-205" font-family="Helvetica,sans-Serif" font-size="10.00">mosaic/logger/log.h</text>
</a>
</g>
</g>
<!-- Node18&#45;&gt;Node19 -->
<g id="edge31_Node000018_Node000019" class="edge">
<title>Node18&#45;&gt;Node19</title>
<g id="a_edge31_Node000018_Node000019"><a xlink:title=" ">
<path fill="none" stroke="#63b8ff" d="M680.85,-274.93C564.55,-260.42 330.24,-231.18 215.24,-216.83"/>
<polygon fill="#63b8ff" stroke="#63b8ff" points="215.52,-213.34 205.16,-215.57 214.65,-220.28 215.52,-213.34"/>
</a>
</g>
</g>
<!-- Node20 -->
<g id="Node000020" class="node">
<title>Node20</title>
<g id="a_Node000020"><a xlink:href="i__logger_8h.html" target="_top" xlink:title=" ">
<polygon fill="white" stroke="#666666" points="180.5,-145.5 116.5,-145.5 116.5,-126.5 180.5,-126.5 180.5,-145.5"/>
<text text-anchor="middle" x="148.5" y="-133.5" font-family="Helvetica,sans-Serif" font-size="10.00">i_logger.h</text>
</a>
</g>
</g>
<!-- Node19&#45;&gt;Node20 -->
<g id="edge32_Node000019_Node000020" class="edge">
<title>Node19&#45;&gt;Node20</title>
<g id="a_edge32_Node000019_Node000020"><a xlink:title=" ">
<path fill="none" stroke="#63b8ff" d="M148.5,-197.98C148.5,-187.56 148.5,-169.61 148.5,-155.88"/>
<polygon fill="#63b8ff" stroke="#63b8ff" points="152,-155.59 148.5,-145.59 145,-155.59 152,-155.59"/>
</a>
</g>
</g>
<!-- Node23 -->
<g id="Node000023" class="node">
<title>Node23</title>
<g id="a_Node000023"><a xlink:href="log__service_8h.html" target="_top" xlink:title=" ">
<polygon fill="white" stroke="#666666" points="94,-79.5 13,-79.5 13,-60.5 94,-60.5 94,-79.5"/>
<text text-anchor="middle" x="53.5" y="-67.5" font-family="Helvetica,sans-Serif" font-size="10.00">log_service.h</text>
</a>
</g>
</g>
<!-- Node19&#45;&gt;Node23 -->
<g id="edge40_Node000019_Node000023" class="edge">
<title>Node19&#45;&gt;Node23</title>
<g id="a_edge40_Node000019_Node000023"><a xlink:title=" ">
<path fill="none" stroke="#63b8ff" d="M141.99,-197.93C133.81,-187.1 119.39,-167.83 107.5,-151 92.47,-129.72 75.78,-104.78 64.99,-88.47"/>
<polygon fill="#63b8ff" stroke="#63b8ff" points="67.8,-86.38 59.37,-79.96 61.96,-90.24 67.8,-86.38"/>
</a>
</g>
</g>
<!-- Node20&#45;&gt;Node5 -->
<g id="edge33_Node000020_Node000005" class="edge">
<title>Node20&#45;&gt;Node5</title>
<g id="a_edge33_Node000020_Node000005"><a xlink:title=" ">
<path fill="none" stroke="#63b8ff" d="M149.01,-126.25C150.5,-109.35 156.39,-72.35 179.5,-55 217.75,-26.28 551.79,-14.42 658.13,-11.35"/>
<polygon fill="#63b8ff" stroke="#63b8ff" points="658.36,-14.85 668.26,-11.07 658.17,-7.85 658.36,-14.85"/>
</a>
</g>
</g>
<!-- Node21 -->
<g id="Node000021" class="node">
<title>Node21</title>
<g id="a_Node000021"><a xlink:title=" ">
<polygon fill="#e0e0e0" stroke="#999999" points="268,-79.5 189,-79.5 189,-60.5 268,-60.5 268,-79.5"/>
<text text-anchor="middle" x="228.5" y="-67.5" font-family="Helvetica,sans-Serif" font-size="10.00">fmt/format.h</text>
</a>
</g>
</g>
<!-- Node20&#45;&gt;Node21 -->
<g id="edge34_Node000020_Node000021" class="edge">
<title>Node20&#45;&gt;Node21</title>
<g id="a_edge34_Node000020_Node000021"><a xlink:title=" ">
<path fill="none" stroke="#63b8ff" d="M159.29,-126.37C172.17,-116.06 193.94,-98.65 209.63,-86.09"/>
<polygon fill="#63b8ff" stroke="#63b8ff" points="212,-88.68 217.63,-79.7 207.63,-83.21 212,-88.68"/>
</a>
</g>
</g>
<!-- Node22 -->
<g id="Node000022" class="node">
<title>Node22</title>
<g id="a_Node000022"><a xlink:href="log__level_8h.html" target="_top" xlink:title=" ">
<polygon fill="white" stroke="#666666" points="157.5,-19 87.5,-19 87.5,0 157.5,0 157.5,-19"/>
<text text-anchor="middle" x="122.5" y="-7" font-family="Helvetica,sans-Serif" font-size="10.00">log_level.h</text>
</a>
</g>
</g>
<!-- Node20&#45;&gt;Node22 -->
<g id="edge35_Node000020_Node000022" class="edge">
<title>Node20&#45;&gt;Node22</title>
<g id="a_edge35_Node000020_Node000022"><a xlink:title=" ">
<path fill="none" stroke="#63b8ff" d="M146.71,-126.44C142.54,-106.45 132.07,-56.32 126.36,-28.98"/>
<polygon fill="#63b8ff" stroke="#63b8ff" points="129.77,-28.19 124.3,-19.12 122.92,-29.62 129.77,-28.19"/>
</a>
</g>
</g>
<!-- Node20&#45;&gt;Node23 -->
<g id="edge36_Node000020_Node000023" class="edge">
<title>Node20&#45;&gt;Node23</title>
<g id="a_edge36_Node000020_Node000023"><a xlink:title=" ">
<path fill="none" stroke="#63b8ff" d="M135.69,-126.37C120.11,-115.87 93.57,-98 74.88,-85.4"/>
<polygon fill="#63b8ff" stroke="#63b8ff" points="76.66,-82.38 66.41,-79.7 72.75,-88.19 76.66,-82.38"/>
</a>
</g>
</g>
<!-- Node23&#45;&gt;Node3 -->
<g id="edge37_Node000023_Node000003" class="edge">
<title>Node23&#45;&gt;Node3</title>
<g id="a_edge37_Node000023_Node000003"><a xlink:title=" ">
<path fill="none" stroke="#63b8ff" d="M94,-63.75C118.67,-60.74 150.86,-57.14 179.5,-55 613.94,-22.5 1142.59,-13.08 1289.81,-11"/>
<polygon fill="#63b8ff" stroke="#63b8ff" points="1290.18,-14.5 1300.13,-10.86 1290.09,-7.5 1290.18,-14.5"/>
</a>
</g>
</g>
<!-- Node23&#45;&gt;Node22 -->
<g id="edge39_Node000023_Node000022" class="edge">
<title>Node23&#45;&gt;Node22</title>
<g id="a_edge39_Node000023_Node000022"><a xlink:title=" ">
<path fill="none" stroke="#63b8ff" d="M63.68,-60.37C74.38,-51.3 91.44,-36.84 104.43,-25.82"/>
<polygon fill="#63b8ff" stroke="#63b8ff" points="106.91,-28.3 112.28,-19.17 102.39,-22.96 106.91,-28.3"/>
</a>
</g>
</g>
<!-- Node24 -->
<g id="Node000024" class="node">
<title>Node24</title>
<g id="a_Node000024"><a xlink:title=" ">
<polygon fill="#e0e0e0" stroke="#999999" points="69,-19 0,-19 0,0 69,0 69,-19"/>
<text text-anchor="middle" x="34.5" y="-7" font-family="Helvetica,sans-Serif" font-size="10.00">type_traits</text>
</a>
</g>
</g>
<!-- Node23&#45;&gt;Node24 -->
<g id="edge38_Node000023_Node000024" class="edge">
<title>Node23&#45;&gt;Node24</title>
<g id="a_edge38_Node000023_Node000024"><a xlink:title=" ">
<path fill="none" stroke="#63b8ff" d="M50.7,-60.37C48,-52.07 43.85,-39.28 40.42,-28.72"/>
<polygon fill="#63b8ff" stroke="#63b8ff" points="43.73,-27.6 37.32,-19.17 37.08,-29.76 43.73,-27.6"/>
</a>
</g>
</g>
<!-- Node25&#45;&gt;Node5 -->
<g id="edge43_Node000025_Node000005" class="edge">
<title>Node25&#45;&gt;Node5</title>
<g id="a_edge43_Node000025_Node000005"><a xlink:title=" ">
<path fill="none" stroke="#63b8ff" d="M884.42,-186.92C886.13,-168.49 885.94,-140.83 873.5,-121 838.62,-65.41 764.61,-33.9 722.18,-19.72"/>
<polygon fill="#63b8ff" stroke="#63b8ff" points="723.21,-16.37 712.61,-16.64 721.06,-23.04 723.21,-16.37"/>
</a>
</g>
</g>
<!-- Node25&#45;&gt;Node14 -->
<g id="edge45_Node000025_Node000014" class="edge">
<title>Node25&#45;&gt;Node14</title>
<g id="a_edge45_Node000025_Node000014"><a xlink:title=" ">
<path fill="none" stroke="#63b8ff" d="M855.95,-186.77C843.96,-177.51 829.68,-166.49 817.62,-157.17"/>
<polygon fill="#63b8ff" stroke="#63b8ff" points="819.73,-154.38 809.68,-151.04 815.45,-159.92 819.73,-154.38"/>
</a>
</g>
</g>
<!-- Node26 -->
<g id="Node000026" class="node">
<title>Node26</title>
<g id="a_Node000026"><a xlink:title=" ">
<polygon fill="#e0e0e0" stroke="#999999" points="966,-145.5 921,-145.5 921,-126.5 966,-126.5 966,-145.5"/>
<text text-anchor="middle" x="943.5" y="-133.5" font-family="Helvetica,sans-Serif" font-size="10.00">utility</text>
</a>
</g>
</g>
<!-- Node25&#45;&gt;Node26 -->
<g id="edge44_Node000025_Node000026" class="edge">
<title>Node25&#45;&gt;Node26</title>
<g id="a_edge44_Node000025_Node000026"><a xlink:title=" ">
<path fill="none" stroke="#63b8ff" d="M899.1,-186.77C908.5,-176.24 919.93,-163.42 928.84,-153.43"/>
<polygon fill="#63b8ff" stroke="#63b8ff" points="931.59,-155.61 935.63,-145.82 926.36,-150.95 931.59,-155.61"/>
</a>
</g>
</g>
<!-- Node27&#45;&gt;Node3 -->
<g id="edge48_Node000027_Node000003" class="edge">
<title>Node27&#45;&gt;Node3</title>
<g id="a_edge48_Node000027_Node000003"><a xlink:title=" ">
<path fill="none" stroke="#63b8ff" d="M1241.76,-407.64C1298.62,-393.01 1373.76,-363.35 1410.5,-305 1420.21,-289.58 1413.73,-281.93 1410.5,-264 1408.13,-250.82 1372.78,-163.69 1368.5,-151 1358.71,-121.95 1356.73,-114.52 1348.5,-85 1343.24,-66.15 1337.77,-44.45 1334.06,-29.35"/>
<polygon fill="#63b8ff" stroke="#63b8ff" points="1337.37,-28.14 1331.6,-19.25 1330.57,-29.79 1337.37,-28.14"/>
</a>
</g>
</g>
<!-- Node27&#45;&gt;Node5 -->
<g id="edge49_Node000027_Node000005" class="edge">
<title>Node27&#45;&gt;Node5</title>
<g id="a_edge49_Node000027_Node000005"><a xlink:title=" ">
<path fill="none" stroke="#63b8ff" d="M1095.22,-418.34C944.65,-410.87 614.5,-383.34 614.5,-285.5 614.5,-285.5 614.5,-285.5 614.5,-135 614.5,-90.34 650.56,-48.13 673,-26.19"/>
<polygon fill="#63b8ff" stroke="#63b8ff" points="675.69,-28.46 680.56,-19.05 670.89,-23.37 675.69,-28.46"/>
</a>
</g>
</g>
<!-- Node27&#45;&gt;Node8 -->
<g id="edge50_Node000027_Node000008" class="edge">
<title>Node27&#45;&gt;Node8</title>
<g id="a_edge50_Node000027_Node000008"><a xlink:title=" ">
<path fill="none" stroke="#63b8ff" d="M1158.07,-406.8C1152.17,-398.76 1144.65,-388.53 1137.97,-379.43"/>
<polygon fill="#63b8ff" stroke="#63b8ff" points="1140.64,-377.15 1131.9,-371.16 1135,-381.3 1140.64,-377.15"/>
</a>
</g>
</g>
<!-- Node27&#45;&gt;Node12 -->
<g id="edge51_Node000027_Node000012" class="edge">
<title>Node27&#45;&gt;Node12</title>
<g id="a_edge51_Node000027_Node000012"><a xlink:title=" ">
<path fill="none" stroke="#63b8ff" d="M1174.24,-406.65C1178.14,-396.7 1183.34,-383.12 1187.5,-371 1204.3,-322.09 1221.52,-264.02 1230.72,-232.23"/>
<polygon fill="#63b8ff" stroke="#63b8ff" points="1234.12,-233.09 1233.52,-222.51 1227.39,-231.15 1234.12,-233.09"/>
</a>
</g>
</g>
<!-- Node28 -->
<g id="Node000028" class="node">
<title>Node28</title>
<g id="a_Node000028"><a xlink:href="websocket__client_8h.html" target="_top" xlink:title=" ">
<polygon fill="white" stroke="#666666" points="586.5,-151 432.5,-151 432.5,-121 586.5,-121 586.5,-151"/>
<text text-anchor="start" x="440.5" y="-139" font-family="Helvetica,sans-Serif" font-size="10.00">mosaic/signaling/websocket</text>
<text text-anchor="middle" x="509.5" y="-128" font-family="Helvetica,sans-Serif" font-size="10.00">_client.h</text>
</a>
</g>
</g>
<!-- Node27&#45;&gt;Node28 -->
<g id="edge52_Node000027_Node000028" class="edge">
<title>Node27&#45;&gt;Node28</title>
<g id="a_edge52_Node000027_Node000028"><a xlink:title=" ">
<path fill="none" stroke="#63b8ff" d="M1095.36,-418.83C950.84,-413.92 639.25,-400.08 600.5,-371 532.26,-319.78 515.17,-210.07 510.91,-161.27"/>
<polygon fill="#63b8ff" stroke="#63b8ff" points="514.38,-160.74 510.13,-151.03 507.4,-161.27 514.38,-160.74"/>
</a>
</g>
</g>
<!-- Node28&#45;&gt;Node3 -->
<g id="edge55_Node000028_Node000003" class="edge">
<title>Node28&#45;&gt;Node3</title>
<g id="a_edge55_Node000028_Node000003"><a xlink:title=" ">
<path fill="none" stroke="#63b8ff" d="M586.64,-123.29C757.46,-97.35 1162.6,-35.84 1290.26,-16.46"/>
<polygon fill="#63b8ff" stroke="#63b8ff" points="1291,-19.89 1300.36,-14.92 1289.95,-12.97 1291,-19.89"/>
</a>
</g>
</g>
<!-- Node28&#45;&gt;Node5 -->
<g id="edge56_Node000028_Node000005" class="edge">
<title>Node28&#45;&gt;Node5</title>
<g id="a_edge56_Node000028_Node000005"><a xlink:title=" ">
<path fill="none" stroke="#63b8ff" d="M523.35,-120.72C540.41,-103.65 570.79,-74.9 600.5,-55 619.2,-42.48 641.92,-31.27 659.86,-23.23"/>
<polygon fill="#63b8ff" stroke="#63b8ff" points="661.52,-26.33 669.28,-19.11 658.71,-19.91 661.52,-26.33"/>
</a>
</g>
</g>
<!-- Node28&#45;&gt;Node13 -->
<g id="edge57_Node000028_Node000013" class="edge">
<title>Node28&#45;&gt;Node13</title>
<g id="a_edge57_Node000028_Node000013"><a xlink:title=" ">
<path fill="none" stroke="#63b8ff" d="M586.56,-128.27C730,-115.75 1035.83,-89.04 1173.18,-77.05"/>
<polygon fill="#63b8ff" stroke="#63b8ff" points="1173.52,-80.54 1183.18,-76.18 1172.91,-73.56 1173.52,-80.54"/>
</a>
</g>
</g>
<!-- Node29 -->
<g id="Node000029" class="node">
<title>Node29</title>
<g id="a_Node000029"><a xlink:title=" ">
<polygon fill="#e0e0e0" stroke="#999999" points="336.5,-79.5 286.5,-79.5 286.5,-60.5 336.5,-60.5 336.5,-79.5"/>
<text text-anchor="middle" x="311.5" y="-67.5" font-family="Helvetica,sans-Serif" font-size="10.00">atomic</text>
</a>
</g>
</g>
<!-- Node28&#45;&gt;Node29 -->
<g id="edge53_Node000028_Node000029" class="edge">
<title>Node28&#45;&gt;Node29</title>
<g id="a_edge53_Node000028_Node000029"><a xlink:title=" ">
<path fill="none" stroke="#63b8ff" d="M458.85,-120.9C426.23,-111.49 383.06,-98.42 345.5,-85 344.07,-84.49 342.62,-83.95 341.15,-83.4"/>
<polygon fill="#63b8ff" stroke="#63b8ff" points="342.1,-80.01 331.51,-79.61 339.54,-86.53 342.1,-80.01"/>
</a>
</g>
</g>
<!-- Node30 -->
<g id="Node000030" class="node">
<title>Node30</title>
<g id="a_Node000030"><a xlink:title=" ">
<polygon fill="#e0e0e0" stroke="#999999" points="420,-79.5 355,-79.5 355,-60.5 420,-60.5 420,-79.5"/>
<text text-anchor="middle" x="387.5" y="-67.5" font-family="Helvetica,sans-Serif" font-size="10.00">functional</text>
</a>
</g>
</g>
<!-- Node28&#45;&gt;Node30 -->
<g id="edge54_Node000028_Node000030" class="edge">
<title>Node28&#45;&gt;Node30</title>
<g id="a_edge54_Node000028_Node000030"><a xlink:title=" ">
<path fill="none" stroke="#63b8ff" d="M482.73,-120.95C461.9,-110.03 433.19,-94.97 412.76,-84.25"/>
<polygon fill="#63b8ff" stroke="#63b8ff" points="414.22,-81.06 403.74,-79.52 410.97,-87.26 414.22,-81.06"/>
</a>
</g>
</g>
<!-- Node31 -->
<g id="Node000031" class="node">
<title>Node31</title>
<g id="a_Node000031"><a xlink:title=" ">
<polygon fill="#e0e0e0" stroke="#999999" points="548.5,-79.5 438.5,-79.5 438.5,-60.5 548.5,-60.5 548.5,-79.5"/>
<text text-anchor="middle" x="493.5" y="-67.5" font-family="Helvetica,sans-Serif" font-size="10.00">cpprest/ws_client.h</text>
</a>
</g>
</g>
<!-- Node28&#45;&gt;Node31 -->
<g id="edge58_Node000028_Node000031" class="edge">
<title>Node28&#45;&gt;Node31</title>
<g id="a_edge58_Node000028_Node000031"><a xlink:title=" ">
<path fill="none" stroke="#63b8ff" d="M505.95,-120.8C503.65,-111.6 500.63,-99.53 498.14,-89.58"/>
<polygon fill="#63b8ff" stroke="#63b8ff" points="501.53,-88.7 495.71,-79.84 494.74,-90.39 501.53,-88.7"/>
</a>
</g>
</g>
<!-- Node32&#45;&gt;Node3 -->
<g id="edge60_Node000032_Node000003" class="edge">
<title>Node32&#45;&gt;Node3</title>
<g id="a_edge60_Node000032_Node000003"><a xlink:title=" ">
<path fill="none" stroke="#63b8ff" d="M1646.66,-269.28C1665.05,-259.92 1687.05,-246.04 1701.5,-228 1751.61,-165.44 1806.13,-114.57 1752.5,-55 1727.06,-26.74 1468.76,-15.15 1368.75,-11.7"/>
<polygon fill="#63b8ff" stroke="#63b8ff" points="1368.86,-8.2 1358.74,-11.36 1368.62,-15.19 1368.86,-8.2"/>
</a>
</g>
</g>
<!-- Node32&#45;&gt;Node4 -->
<g id="edge68_Node000032_Node000004" class="edge">
<title>Node32&#45;&gt;Node4</title>
<g id="a_edge68_Node000032_Node000004"><a xlink:title=" ">
<path fill="none" stroke="#63b8ff" d="M1640.53,-269.41C1655.6,-259.93 1673.01,-245.9 1681.5,-228 1703.25,-182.16 1693.37,-119.98 1686.36,-89.45"/>
<polygon fill="#63b8ff" stroke="#63b8ff" points="1689.76,-88.6 1683.97,-79.73 1682.96,-90.27 1689.76,-88.6"/>
</a>
</g>
</g>
<!-- Node32&#45;&gt;Node6 -->
<g id="edge61_Node000032_Node000006" class="edge">
<title>Node32&#45;&gt;Node6</title>
<g id="a_edge61_Node000032_Node000006"><a xlink:title=" ">
<path fill="none" stroke="#63b8ff" d="M1678.99,-269.44C1705.82,-261.04 1735.64,-247.97 1757.5,-228 1785.68,-202.26 1786.83,-188.16 1795.5,-151 1805.19,-109.45 1814.68,-93.11 1795.5,-55 1788.81,-41.71 1776.06,-31.39 1764.03,-24.05"/>
<polygon fill="#63b8ff" stroke="#63b8ff" points="1765.51,-20.87 1755.08,-19.02 1762.08,-26.97 1765.51,-20.87"/>
</a>
</g>
</g>
<!-- Node32&#45;&gt;Node15 -->
<g id="edge67_Node000032_Node000015" class="edge">
<title>Node32&#45;&gt;Node15</title>
<g id="a_edge67_Node000032_Node000015"><a xlink:title=" ">
<path fill="none" stroke="#63b8ff" d="M1569.1,-269.5C1546.36,-260.54 1519.54,-246.98 1500.5,-228 1481.58,-209.13 1469.29,-180.71 1462.41,-160.65"/>
<polygon fill="#63b8ff" stroke="#63b8ff" points="1465.71,-159.47 1459.3,-151.03 1459.04,-161.62 1465.71,-159.47"/>
</a>
</g>
</g>
<!-- Node32&#45;&gt;Node16 -->
<g id="edge62_Node000032_Node000016" class="edge">
<title>Node32&#45;&gt;Node16</title>
<g id="a_edge62_Node000032_Node000016"><a xlink:title=" ">
<path fill="none" stroke="#63b8ff" d="M1548.71,-269.43C1490,-252.63 1408,-217.97 1376.5,-151 1367.07,-130.94 1375.76,-105.69 1384.03,-88.99"/>
<polygon fill="#63b8ff" stroke="#63b8ff" points="1387.31,-90.28 1388.95,-79.81 1381.14,-86.97 1387.31,-90.28"/>
</a>
</g>
</g>
<!-- Node33 -->
<g id="Node000033" class="node">
<title>Node33</title>
<g id="a_Node000033"><a xlink:href="authenticator__factory_8h.html" target="_top" xlink:title=" ">
<polygon fill="white" stroke="#666666" points="1639,-217 1510,-217 1510,-198 1639,-198 1639,-217"/>
<text text-anchor="middle" x="1574.5" y="-205" font-family="Helvetica,sans-Serif" font-size="10.00">authenticator_factory.h</text>
</a>
</g>
</g>
<!-- Node32&#45;&gt;Node33 -->
<g id="edge63_Node000032_Node000033" class="edge">
<title>Node32&#45;&gt;Node33</title>
<g id="a_edge63_Node000032_Node000033"><a xlink:title=" ">
<path fill="none" stroke="#63b8ff" d="M1606.16,-269.39C1599.83,-257.22 1590.66,-239.57 1583.81,-226.4"/>
<polygon fill="#63b8ff" stroke="#63b8ff" points="1586.83,-224.63 1579.11,-217.37 1580.62,-227.86 1586.83,-224.63"/>
</a>
</g>
</g>
<!-- Node33&#45;&gt;Node3 -->
<g id="edge64_Node000033_Node000003" class="edge">
<title>Node33&#45;&gt;Node3</title>
<g id="a_edge64_Node000033_Node000003"><a xlink:title=" ">
<path fill="none" stroke="#63b8ff" d="M1571.76,-197.88C1566.35,-181.74 1553.21,-146.3 1534.5,-121 1508.5,-85.83 1499.24,-77.12 1461.5,-55 1432.45,-37.98 1395.96,-26.31 1368.71,-19.2"/>
<polygon fill="#63b8ff" stroke="#63b8ff" points="1369.31,-15.75 1358.76,-16.7 1367.6,-22.53 1369.31,-15.75"/>
</a>
</g>
</g>
<!-- Node33&#45;&gt;Node4 -->
<g id="edge66_Node000033_Node000004" class="edge">
<title>Node33&#45;&gt;Node4</title>
<g id="a_edge66_Node000033_Node000004"><a xlink:title=" ">
<path fill="none" stroke="#63b8ff" d="M1581.52,-197.61C1599.13,-175.31 1645.41,-116.7 1668.3,-87.72"/>
<polygon fill="#63b8ff" stroke="#63b8ff" points="1671.14,-89.76 1674.59,-79.75 1665.65,-85.43 1671.14,-89.76"/>
</a>
</g>
</g>
<!-- Node33&#45;&gt;Node15 -->
<g id="edge65_Node000033_Node000015" class="edge">
<title>Node33&#45;&gt;Node15</title>
<g id="a_edge65_Node000033_Node000015"><a xlink:title=" ">
<path fill="none" stroke="#63b8ff" d="M1559.91,-197.98C1542.27,-187.67 1512.03,-170.02 1488.62,-156.34"/>
<polygon fill="#63b8ff" stroke="#63b8ff" points="1490.11,-153.16 1479.71,-151.14 1486.58,-159.2 1490.11,-153.16"/>
</a>
</g>
</g>
</g>
</svg>
