<?xml version="1.0" encoding="UTF-8" standalone="no"?>
<!DOCTYPE svg PUBLIC "-//W3C//DTD SVG 1.1//EN"
 "http://www.w3.org/Graphics/SVG/1.1/DTD/svg11.dtd">
<!-- Generated by graphviz version 2.43.0 (0)
 -->
<!-- Title: src/core/mosaic_connector_factory.cpp Pages: 1 -->
<svg width="1752pt" height="511pt"
 viewBox="0.00 0.00 1751.50 511.00" xmlns="http://www.w3.org/2000/svg" xmlns:xlink="http://www.w3.org/1999/xlink">
<g id="graph0" class="graph" transform="scale(1 1) rotate(0) translate(4 507)">
<title>src/core/mosaic_connector_factory.cpp</title>
<!-- Node1 -->
<g id="Node000001" class="node">
<title>Node1</title>
<g id="a_Node000001"><a xlink:title=" ">
<polygon fill="#999999" stroke="#666666" points="490.5,-503 344.5,-503 344.5,-473 490.5,-473 490.5,-503"/>
<text text-anchor="start" x="352.5" y="-491" font-family="Helvetica,sans-Serif" font-size="10.00">src/core/mosaic_connector</text>
<text text-anchor="middle" x="417.5" y="-480" font-family="Helvetica,sans-Serif" font-size="10.00">_factory.cpp</text>
</a>
</g>
</g>
<!-- Node2 -->
<g id="Node000002" class="node">
<title>Node2</title>
<g id="a_Node000002"><a xlink:href="mosaic__connector__factory_8h.html" target="_top" xlink:title=" ">
<polygon fill="white" stroke="#666666" points="476,-437 359,-437 359,-407 476,-407 476,-437"/>
<text text-anchor="start" x="367" y="-425" font-family="Helvetica,sans-Serif" font-size="10.00">mosaic/core/mosaic</text>
<text text-anchor="middle" x="417.5" y="-414" font-family="Helvetica,sans-Serif" font-size="10.00">_connector_factory.h</text>
</a>
</g>
</g>
<!-- Node1&#45;&gt;Node2 -->
<g id="edge1_Node000001_Node000002" class="edge">
<title>Node1&#45;&gt;Node2</title>
<g id="a_edge1_Node000001_Node000002"><a xlink:title=" ">
<path fill="none" stroke="#63b8ff" d="M417.5,-472.8C417.5,-465.34 417.5,-455.99 417.5,-447.41"/>
<polygon fill="#63b8ff" stroke="#63b8ff" points="421,-447.16 417.5,-437.16 414,-447.16 421,-447.16"/>
</a>
</g>
</g>
<!-- Node27 -->
<g id="Node000027" class="node">
<title>Node27</title>
<g id="a_Node000027"><a xlink:href="signaling__client_8h.html" target="_top" xlink:title=" ">
<polygon fill="white" stroke="#666666" points="1022.5,-437 876.5,-437 876.5,-407 1022.5,-407 1022.5,-437"/>
<text text-anchor="start" x="884.5" y="-425" font-family="Helvetica,sans-Serif" font-size="10.00">mosaic/signaling/signaling</text>
<text text-anchor="middle" x="949.5" y="-414" font-family="Helvetica,sans-Serif" font-size="10.00">_client.h</text>
</a>
</g>
</g>
<!-- Node1&#45;&gt;Node27 -->
<g id="edge47_Node000001_Node000027" class="edge">
<title>Node1&#45;&gt;Node27</title>
<g id="a_edge47_Node000001_Node000027"><a xlink:title=" ">
<path fill="none" stroke="#63b8ff" d="M490.64,-478.2C588.9,-466.38 763.09,-445.43 866.26,-433.01"/>
<polygon fill="#63b8ff" stroke="#63b8ff" points="866.82,-436.47 876.33,-431.8 865.98,-429.52 866.82,-436.47"/>
</a>
</g>
</g>
<!-- Node32 -->
<g id="Node000032" class="node">
<title>Node32</title>
<g id="a_Node000032"><a xlink:href="authenticator__resolver_8h.html" target="_top" xlink:title=" ">
<polygon fill="white" stroke="#666666" points="247.5,-299.5 85.5,-299.5 85.5,-269.5 247.5,-269.5 247.5,-299.5"/>
<text text-anchor="start" x="93.5" y="-287.5" font-family="Helvetica,sans-Serif" font-size="10.00">mosaic/security/authenticator</text>
<text text-anchor="middle" x="166.5" y="-276.5" font-family="Helvetica,sans-Serif" font-size="10.00">_resolver.h</text>
</a>
</g>
</g>
<!-- Node1&#45;&gt;Node32 -->
<g id="edge58_Node000001_Node000032" class="edge">
<title>Node1&#45;&gt;Node32</title>
<g id="a_edge58_Node000001_Node000032"><a xlink:title=" ">
<path fill="none" stroke="#63b8ff" d="M397.96,-472.8C384.5,-462.92 366.26,-449.36 350.5,-437 292.32,-391.38 225.72,-335.64 190.8,-306.13"/>
<polygon fill="#63b8ff" stroke="#63b8ff" points="192.92,-303.34 183.03,-299.56 188.4,-308.69 192.92,-303.34"/>
</a>
</g>
</g>
<!-- Node3 -->
<g id="Node000003" class="node">
<title>Node3</title>
<g id="a_Node000003"><a xlink:title=" ">
<polygon fill="#e0e0e0" stroke="#999999" points="666.5,-19 608.5,-19 608.5,0 666.5,0 666.5,-19"/>
<text text-anchor="middle" x="637.5" y="-7" font-family="Helvetica,sans-Serif" font-size="10.00">memory</text>
</a>
</g>
</g>
<!-- Node2&#45;&gt;Node3 -->
<g id="edge2_Node000002_Node000003" class="edge">
<title>Node2&#45;&gt;Node3</title>
<g id="a_edge2_Node000002_Node000003"><a xlink:title=" ">
<path fill="none" stroke="#63b8ff" d="M416.17,-406.91C412.39,-369.93 399.93,-267.41 371.5,-187 365.47,-169.94 356.85,-168.56 352.5,-151 349.29,-138.06 349.84,-134.07 352.5,-121 358.85,-89.78 355.53,-74.8 380.5,-55 413.6,-28.75 535.01,-17.12 598.39,-12.75"/>
<polygon fill="#63b8ff" stroke="#63b8ff" points="598.66,-16.24 608.41,-12.09 598.2,-9.25 598.66,-16.24"/>
</a>
</g>
</g>
<!-- Node4 -->
<g id="Node000004" class="node">
<title>Node4</title>
<g id="a_Node000004"><a xlink:href="configs__decl_8h.html" target="_top" xlink:title=" ">
<polygon fill="white" stroke="#666666" points="153.5,-79.5 29.5,-79.5 29.5,-60.5 153.5,-60.5 153.5,-79.5"/>
<text text-anchor="middle" x="91.5" y="-67.5" font-family="Helvetica,sans-Serif" font-size="10.00">mosaic/configs_decl.h</text>
</a>
</g>
</g>
<!-- Node2&#45;&gt;Node4 -->
<g id="edge3_Node000002_Node000004" class="edge">
<title>Node2&#45;&gt;Node4</title>
<g id="a_edge3_Node000002_Node000004"><a xlink:title=" ">
<path fill="none" stroke="#63b8ff" d="M358.86,-411.71C255.68,-393.71 52.5,-350.05 52.5,-285.5 52.5,-285.5 52.5,-285.5 52.5,-206.5 52.5,-162.82 71.44,-114.21 82.93,-88.76"/>
<polygon fill="#63b8ff" stroke="#63b8ff" points="86.13,-90.17 87.18,-79.63 79.78,-87.22 86.13,-90.17"/>
</a>
</g>
</g>
<!-- Node8 -->
<g id="Node000008" class="node">
<title>Node8</title>
<g id="a_Node000008"><a xlink:href="mosaic__connector_8h.html" target="_top" xlink:title=" ">
<polygon fill="white" stroke="#666666" points="874.5,-371 760.5,-371 760.5,-341 874.5,-341 874.5,-371"/>
<text text-anchor="start" x="768.5" y="-359" font-family="Helvetica,sans-Serif" font-size="10.00">mosaic/core/mosaic</text>
<text text-anchor="middle" x="817.5" y="-348" font-family="Helvetica,sans-Serif" font-size="10.00">_connector.h</text>
</a>
</g>
</g>
<!-- Node2&#45;&gt;Node8 -->
<g id="edge7_Node000002_Node000008" class="edge">
<title>Node2&#45;&gt;Node8</title>
<g id="a_edge7_Node000002_Node000008"><a xlink:title=" ">
<path fill="none" stroke="#63b8ff" d="M476.09,-411.63C549.09,-399.95 673.54,-380.03 750.33,-367.75"/>
<polygon fill="#63b8ff" stroke="#63b8ff" points="751.05,-371.18 760.37,-366.14 749.94,-364.26 751.05,-371.18"/>
</a>
</g>
</g>
<!-- Node5 -->
<g id="Node000005" class="node">
<title>Node5</title>
<g id="a_Node000005"><a xlink:title=" ">
<polygon fill="#e0e0e0" stroke="#999999" points="1103.5,-19 1059.5,-19 1059.5,0 1103.5,0 1103.5,-19"/>
<text text-anchor="middle" x="1081.5" y="-7" font-family="Helvetica,sans-Serif" font-size="10.00">string</text>
</a>
</g>
</g>
<!-- Node4&#45;&gt;Node5 -->
<g id="edge4_Node000004_Node000005" class="edge">
<title>Node4&#45;&gt;Node5</title>
<g id="a_edge4_Node000004_Node000005"><a xlink:title=" ">
<path fill="none" stroke="#63b8ff" d="M153.8,-65.32C343.14,-54.13 907.46,-20.78 1049.01,-12.42"/>
<polygon fill="#63b8ff" stroke="#63b8ff" points="1049.43,-15.9 1059.2,-11.82 1049.01,-8.91 1049.43,-15.9"/>
</a>
</g>
</g>
<!-- Node6 -->
<g id="Node000006" class="node">
<title>Node6</title>
<g id="a_Node000006"><a xlink:title=" ">
<polygon fill="#e0e0e0" stroke="#999999" points="93,-19 0,-19 0,0 93,0 93,-19"/>
<text text-anchor="middle" x="46.5" y="-7" font-family="Helvetica,sans-Serif" font-size="10.00">unordered_map</text>
</a>
</g>
</g>
<!-- Node4&#45;&gt;Node6 -->
<g id="edge5_Node000004_Node000006" class="edge">
<title>Node4&#45;&gt;Node6</title>
<g id="a_edge5_Node000004_Node000006"><a xlink:title=" ">
<path fill="none" stroke="#63b8ff" d="M84.86,-60.37C78.21,-51.73 67.81,-38.2 59.51,-27.42"/>
<polygon fill="#63b8ff" stroke="#63b8ff" points="62.04,-24.96 53.17,-19.17 56.49,-29.23 62.04,-24.96"/>
</a>
</g>
</g>
<!-- Node7 -->
<g id="Node000007" class="node">
<title>Node7</title>
<g id="a_Node000007"><a xlink:title=" ">
<polygon fill="#e0e0e0" stroke="#999999" points="159,-19 112,-19 112,0 159,0 159,-19"/>
<text text-anchor="middle" x="135.5" y="-7" font-family="Helvetica,sans-Serif" font-size="10.00">vector</text>
</a>
</g>
</g>
<!-- Node4&#45;&gt;Node7 -->
<g id="edge6_Node000004_Node000007" class="edge">
<title>Node4&#45;&gt;Node7</title>
<g id="a_edge6_Node000004_Node000007"><a xlink:title=" ">
<path fill="none" stroke="#63b8ff" d="M97.99,-60.37C104.49,-51.73 114.66,-38.2 122.78,-27.42"/>
<polygon fill="#63b8ff" stroke="#63b8ff" points="125.77,-29.26 128.98,-19.17 120.17,-25.06 125.77,-29.26"/>
</a>
</g>
</g>
<!-- Node8&#45;&gt;Node3 -->
<g id="edge9_Node000008_Node000003" class="edge">
<title>Node8&#45;&gt;Node3</title>
<g id="a_edge9_Node000008_Node000003"><a xlink:title=" ">
<path fill="none" stroke="#63b8ff" d="M760.26,-344.67C735.18,-337.44 707.24,-325.29 688.5,-305 615.19,-225.61 627.4,-80.5 634.51,-29.13"/>
<polygon fill="#63b8ff" stroke="#63b8ff" points="637.98,-29.56 635.99,-19.15 631.06,-28.53 637.98,-29.56"/>
</a>
</g>
</g>
<!-- Node8&#45;&gt;Node5 -->
<g id="edge10_Node000008_Node000005" class="edge">
<title>Node8&#45;&gt;Node5</title>
<g id="a_edge10_Node000008_Node000005"><a xlink:title=" ">
<path fill="none" stroke="#63b8ff" d="M874.57,-343.08C901.39,-335.44 932.63,-323.4 956.5,-305 1022.31,-254.28 1032.56,-228.51 1062.5,-151 1078.49,-109.61 1081.38,-56.85 1081.69,-29.25"/>
<polygon fill="#63b8ff" stroke="#63b8ff" points="1085.19,-29.07 1081.7,-19.07 1078.19,-29.07 1085.19,-29.07"/>
</a>
</g>
</g>
<!-- Node9 -->
<g id="Node000009" class="node">
<title>Node9</title>
<g id="a_Node000009"><a xlink:title=" ">
<polygon fill="#e0e0e0" stroke="#999999" points="735.5,-294 697.5,-294 697.5,-275 735.5,-275 735.5,-294"/>
<text text-anchor="middle" x="716.5" y="-282" font-family="Helvetica,sans-Serif" font-size="10.00">map</text>
</a>
</g>
</g>
<!-- Node8&#45;&gt;Node9 -->
<g id="edge8_Node000008_Node000009" class="edge">
<title>Node8&#45;&gt;Node9</title>
<g id="a_edge8_Node000008_Node000009"><a xlink:title=" ">
<path fill="none" stroke="#63b8ff" d="M797.06,-340.94C779.68,-328.98 754.84,-311.88 737.35,-299.85"/>
<polygon fill="#63b8ff" stroke="#63b8ff" points="739.17,-296.85 728.95,-294.07 735.21,-302.62 739.17,-296.85"/>
</a>
</g>
</g>
<!-- Node10 -->
<g id="Node000010" class="node">
<title>Node10</title>
<g id="a_Node000010"><a xlink:href="connector__state__manager_8h.html" target="_top" xlink:title=" ">
<polygon fill="white" stroke="#666666" points="881,-299.5 754,-299.5 754,-269.5 881,-269.5 881,-299.5"/>
<text text-anchor="start" x="762" y="-287.5" font-family="Helvetica,sans-Serif" font-size="10.00">mosaic/core/connector</text>
<text text-anchor="middle" x="817.5" y="-276.5" font-family="Helvetica,sans-Serif" font-size="10.00">_state_manager.h</text>
</a>
</g>
</g>
<!-- Node8&#45;&gt;Node10 -->
<g id="edge11_Node000008_Node000010" class="edge">
<title>Node8&#45;&gt;Node10</title>
<g id="a_edge11_Node000008_Node000010"><a xlink:title=" ">
<path fill="none" stroke="#63b8ff" d="M817.5,-340.94C817.5,-331.99 817.5,-320.16 817.5,-309.73"/>
<polygon fill="#63b8ff" stroke="#63b8ff" points="821,-309.54 817.5,-299.54 814,-309.54 821,-309.54"/>
</a>
</g>
</g>
<!-- Node14 -->
<g id="Node000014" class="node">
<title>Node14</title>
<g id="a_Node000014"><a xlink:title=" ">
<polygon fill="#e0e0e0" stroke="#999999" points="1053.5,-151 907.5,-151 907.5,-121 1053.5,-121 1053.5,-151"/>
<text text-anchor="start" x="915.5" y="-139" font-family="Helvetica,sans-Serif" font-size="10.00">mosaic/rtc/webrtc_forward</text>
<text text-anchor="middle" x="980.5" y="-128" font-family="Helvetica,sans-Serif" font-size="10.00">_decl.h</text>
</a>
</g>
</g>
<!-- Node8&#45;&gt;Node14 -->
<g id="edge46_Node000008_Node000014" class="edge">
<title>Node8&#45;&gt;Node14</title>
<g id="a_edge46_Node000008_Node000014"><a xlink:title=" ">
<path fill="none" stroke="#63b8ff" d="M854.7,-340.87C896.97,-322.4 963.14,-285.46 986.5,-228 995.21,-206.57 992.02,-179.95 987.68,-161.05"/>
<polygon fill="#63b8ff" stroke="#63b8ff" points="991.02,-159.99 985.15,-151.17 984.24,-161.73 991.02,-159.99"/>
</a>
</g>
</g>
<!-- Node17 -->
<g id="Node000017" class="node">
<title>Node17</title>
<g id="a_Node000017"><a xlink:href="peer__connection__manager_8h.html" target="_top" xlink:title=" ">
<polygon fill="white" stroke="#666666" points="604,-299.5 445,-299.5 445,-269.5 604,-269.5 604,-299.5"/>
<text text-anchor="start" x="453" y="-287.5" font-family="Helvetica,sans-Serif" font-size="10.00">mosaic/core/peer_connection</text>
<text text-anchor="middle" x="524.5" y="-276.5" font-family="Helvetica,sans-Serif" font-size="10.00">_manager.h</text>
</a>
</g>
</g>
<!-- Node8&#45;&gt;Node17 -->
<g id="edge24_Node000008_Node000017" class="edge">
<title>Node8&#45;&gt;Node17</title>
<g id="a_edge24_Node000008_Node000017"><a xlink:title=" ">
<path fill="none" stroke="#63b8ff" d="M760.15,-342.65C710.63,-331.32 639.28,-314.44 588.04,-301.96"/>
<polygon fill="#63b8ff" stroke="#63b8ff" points="588.62,-298.5 578.07,-299.52 586.96,-305.3 588.62,-298.5"/>
</a>
</g>
</g>
<!-- Node18 -->
<g id="Node000018" class="node">
<title>Node18</title>
<g id="a_Node000018"><a xlink:href="i__data__channel__handler_8h.html" target="_top" xlink:title=" ">
<polygon fill="white" stroke="#666666" points="1247,-305 1110,-305 1110,-264 1247,-264 1247,-305"/>
<text text-anchor="start" x="1118" y="-293" font-family="Helvetica,sans-Serif" font-size="10.00">mosaic/handlers/data</text>
<text text-anchor="start" x="1118" y="-282" font-family="Helvetica,sans-Serif" font-size="10.00">_channel/i_data_channel</text>
<text text-anchor="middle" x="1178.5" y="-271" font-family="Helvetica,sans-Serif" font-size="10.00">_handler.h</text>
</a>
</g>
</g>
<!-- Node8&#45;&gt;Node18 -->
<g id="edge29_Node000008_Node000018" class="edge">
<title>Node8&#45;&gt;Node18</title>
<g id="a_edge29_Node000008_Node000018"><a xlink:title=" ">
<path fill="none" stroke="#63b8ff" d="M874.7,-343.99C935.4,-332.3 1031.75,-313.75 1099.63,-300.68"/>
<polygon fill="#63b8ff" stroke="#63b8ff" points="1100.7,-304.04 1109.85,-298.72 1099.37,-297.17 1100.7,-304.04"/>
</a>
</g>
</g>
<!-- Node25 -->
<g id="Node000025" class="node">
<title>Node25</title>
<g id="a_Node000025"><a xlink:href="i__media__track__handler_8h.html" target="_top" xlink:title=" ">
<polygon fill="white" stroke="#666666" points="977,-228 846,-228 846,-187 977,-187 977,-228"/>
<text text-anchor="start" x="854" y="-216" font-family="Helvetica,sans-Serif" font-size="10.00">mosaic/handlers/media</text>
<text text-anchor="start" x="854" y="-205" font-family="Helvetica,sans-Serif" font-size="10.00">_track/i_media_track</text>
<text text-anchor="middle" x="911.5" y="-194" font-family="Helvetica,sans-Serif" font-size="10.00">_handler.h</text>
</a>
</g>
</g>
<!-- Node8&#45;&gt;Node25 -->
<g id="edge42_Node000008_Node000025" class="edge">
<title>Node8&#45;&gt;Node25</title>
<g id="a_edge42_Node000008_Node000025"><a xlink:title=" ">
<path fill="none" stroke="#63b8ff" d="M848.33,-340.82C863.25,-332.44 880.12,-320.42 890.5,-305 903.72,-285.35 908.79,-258.8 910.65,-238.52"/>
<polygon fill="#63b8ff" stroke="#63b8ff" points="914.16,-238.49 911.38,-228.27 907.18,-238 914.16,-238.49"/>
</a>
</g>
</g>
<!-- Node10&#45;&gt;Node3 -->
<g id="edge12_Node000010_Node000003" class="edge">
<title>Node10&#45;&gt;Node3</title>
<g id="a_edge12_Node000010_Node000003"><a xlink:title=" ">
<path fill="none" stroke="#63b8ff" d="M759.85,-269.47C736.5,-261.05 711.16,-247.97 694.5,-228 643.75,-167.16 672.95,-131.27 651.5,-55 649.09,-46.42 646.16,-37 643.61,-29.04"/>
<polygon fill="#63b8ff" stroke="#63b8ff" points="646.87,-27.74 640.45,-19.32 640.21,-29.91 646.87,-27.74"/>
</a>
</g>
</g>
<!-- Node10&#45;&gt;Node5 -->
<g id="edge14_Node000010_Node000005" class="edge">
<title>Node10&#45;&gt;Node5</title>
<g id="a_edge14_Node000010_Node000005"><a xlink:title=" ">
<path fill="none" stroke="#63b8ff" d="M814.74,-269.3C807.65,-232.06 789.86,-133.57 797.5,-121 850.85,-33.15 986.77,-15 1049.22,-11.35"/>
<polygon fill="#63b8ff" stroke="#63b8ff" points="1049.48,-14.84 1059.29,-10.85 1049.13,-7.85 1049.48,-14.84"/>
</a>
</g>
</g>
<!-- Node11 -->
<g id="Node000011" class="node">
<title>Node11</title>
<g id="a_Node000011"><a xlink:title=" ">
<polygon fill="#e0e0e0" stroke="#999999" points="789.5,-217 703.5,-217 703.5,-198 789.5,-198 789.5,-217"/>
<text text-anchor="middle" x="746.5" y="-205" font-family="Helvetica,sans-Serif" font-size="10.00">shared_mutex</text>
</a>
</g>
</g>
<!-- Node10&#45;&gt;Node11 -->
<g id="edge13_Node000010_Node000011" class="edge">
<title>Node10&#45;&gt;Node11</title>
<g id="a_edge13_Node000010_Node000011"><a xlink:title=" ">
<path fill="none" stroke="#63b8ff" d="M804.15,-269.39C792.17,-256.74 774.6,-238.18 762,-224.88"/>
<polygon fill="#63b8ff" stroke="#63b8ff" points="764.32,-222.23 754.9,-217.37 759.23,-227.04 764.32,-222.23"/>
</a>
</g>
</g>
<!-- Node12 -->
<g id="Node000012" class="node">
<title>Node12</title>
<g id="a_Node000012"><a xlink:href="i__signaling__client_8h.html" target="_top" xlink:title=" ">
<polygon fill="white" stroke="#666666" points="609,-222.5 502,-222.5 502,-192.5 609,-192.5 609,-222.5"/>
<text text-anchor="start" x="510" y="-210.5" font-family="Helvetica,sans-Serif" font-size="10.00">mosaic/signaling/i</text>
<text text-anchor="middle" x="555.5" y="-199.5" font-family="Helvetica,sans-Serif" font-size="10.00">_signaling_client.h</text>
</a>
</g>
</g>
<!-- Node10&#45;&gt;Node12 -->
<g id="edge15_Node000010_Node000012" class="edge">
<title>Node10&#45;&gt;Node12</title>
<g id="a_edge15_Node000010_Node000012"><a xlink:title=" ">
<path fill="none" stroke="#63b8ff" d="M768.53,-269.48C724.83,-256.97 660.76,-238.63 614.31,-225.33"/>
<polygon fill="#63b8ff" stroke="#63b8ff" points="615.25,-221.96 604.68,-222.58 613.33,-228.69 615.25,-221.96"/>
</a>
</g>
</g>
<!-- Node13 -->
<g id="Node000013" class="node">
<title>Node13</title>
<g id="a_Node000013"><a xlink:title=" ">
<polygon fill="#e0e0e0" stroke="#999999" points="609.5,-85 491.5,-85 491.5,-55 609.5,-55 609.5,-85"/>
<text text-anchor="start" x="499.5" y="-73" font-family="Helvetica,sans-Serif" font-size="10.00">mosaic/json_forward</text>
<text text-anchor="middle" x="550.5" y="-62" font-family="Helvetica,sans-Serif" font-size="10.00">_decl.h</text>
</a>
</g>
</g>
<!-- Node12&#45;&gt;Node13 -->
<g id="edge16_Node000012_Node000013" class="edge">
<title>Node12&#45;&gt;Node13</title>
<g id="a_edge16_Node000012_Node000013"><a xlink:title=" ">
<path fill="none" stroke="#63b8ff" d="M554.97,-192.26C554.12,-169.22 552.44,-123.53 551.4,-95.29"/>
<polygon fill="#63b8ff" stroke="#63b8ff" points="554.89,-94.92 551.02,-85.05 547.89,-95.18 554.89,-94.92"/>
</a>
</g>
</g>
<!-- Node12&#45;&gt;Node14 -->
<g id="edge17_Node000012_Node000014" class="edge">
<title>Node12&#45;&gt;Node14</title>
<g id="a_edge17_Node000012_Node000014"><a xlink:title=" ">
<path fill="none" stroke="#63b8ff" d="M609.33,-197.7C681.95,-185.82 812.01,-164.55 897.28,-150.61"/>
<polygon fill="#63b8ff" stroke="#63b8ff" points="897.89,-154.06 907.19,-148.99 896.76,-147.15 897.89,-154.06"/>
</a>
</g>
</g>
<!-- Node15 -->
<g id="Node000015" class="node">
<title>Node15</title>
<g id="a_Node000015"><a xlink:href="i__mosaic__authenticator_8h.html" target="_top" xlink:title=" ">
<polygon fill="white" stroke="#666666" points="501.5,-151 361.5,-151 361.5,-121 501.5,-121 501.5,-151"/>
<text text-anchor="start" x="369.5" y="-139" font-family="Helvetica,sans-Serif" font-size="10.00">mosaic/security/i_mosaic</text>
<text text-anchor="middle" x="431.5" y="-128" font-family="Helvetica,sans-Serif" font-size="10.00">_authenticator.h</text>
</a>
</g>
</g>
<!-- Node12&#45;&gt;Node15 -->
<g id="edge18_Node000012_Node000015" class="edge">
<title>Node12&#45;&gt;Node15</title>
<g id="a_edge18_Node000012_Node000015"><a xlink:title=" ">
<path fill="none" stroke="#63b8ff" d="M530.41,-192.44C511.67,-181.93 485.85,-167.46 465.3,-155.94"/>
<polygon fill="#63b8ff" stroke="#63b8ff" points="466.99,-152.88 456.56,-151.04 463.57,-158.99 466.99,-152.88"/>
</a>
</g>
</g>
<!-- Node15&#45;&gt;Node3 -->
<g id="edge19_Node000015_Node000003" class="edge">
<title>Node15&#45;&gt;Node3</title>
<g id="a_edge19_Node000015_Node000003"><a xlink:title=" ">
<path fill="none" stroke="#63b8ff" d="M414.97,-120.87C397.15,-103.95 373.48,-75.36 390.5,-55 416.46,-23.95 534.79,-14.53 597.78,-11.7"/>
<polygon fill="#63b8ff" stroke="#63b8ff" points="598.28,-15.18 608.12,-11.27 597.99,-8.19 598.28,-15.18"/>
</a>
</g>
</g>
<!-- Node15&#45;&gt;Node4 -->
<g id="edge22_Node000015_Node000004" class="edge">
<title>Node15&#45;&gt;Node4</title>
<g id="a_edge22_Node000015_Node000004"><a xlink:title=" ">
<path fill="none" stroke="#63b8ff" d="M361.46,-121.82C298.01,-109.87 205.75,-92.51 147.19,-81.48"/>
<polygon fill="#63b8ff" stroke="#63b8ff" points="147.5,-77.98 137.02,-79.57 146.2,-84.86 147.5,-77.98"/>
</a>
</g>
</g>
<!-- Node15&#45;&gt;Node13 -->
<g id="edge23_Node000015_Node000013" class="edge">
<title>Node15&#45;&gt;Node13</title>
<g id="a_edge23_Node000015_Node000013"><a xlink:title=" ">
<path fill="none" stroke="#63b8ff" d="M457.62,-120.95C474.59,-111.83 496.92,-99.82 515.43,-89.86"/>
<polygon fill="#63b8ff" stroke="#63b8ff" points="517.3,-92.83 524.45,-85.01 513.98,-86.67 517.3,-92.83"/>
</a>
</g>
</g>
<!-- Node16 -->
<g id="Node000016" class="node">
<title>Node16</title>
<g id="a_Node000016"><a xlink:href="auth__type_8h.html" target="_top" xlink:title=" ">
<polygon fill="white" stroke="#666666" points="473.5,-79.5 399.5,-79.5 399.5,-60.5 473.5,-60.5 473.5,-79.5"/>
<text text-anchor="middle" x="436.5" y="-67.5" font-family="Helvetica,sans-Serif" font-size="10.00">auth_type.h</text>
</a>
</g>
</g>
<!-- Node15&#45;&gt;Node16 -->
<g id="edge20_Node000015_Node000016" class="edge">
<title>Node15&#45;&gt;Node16</title>
<g id="a_edge20_Node000015_Node000016"><a xlink:title=" ">
<path fill="none" stroke="#63b8ff" d="M432.61,-120.8C433.32,-111.7 434.25,-99.79 435.02,-89.9"/>
<polygon fill="#63b8ff" stroke="#63b8ff" points="438.52,-90.09 435.81,-79.84 431.54,-89.54 438.52,-90.09"/>
</a>
</g>
</g>
<!-- Node16&#45;&gt;Node5 -->
<g id="edge21_Node000016_Node000005" class="edge">
<title>Node16&#45;&gt;Node5</title>
<g id="a_edge21_Node000016_Node000005"><a xlink:title=" ">
<path fill="none" stroke="#63b8ff" d="M461.08,-60.42C467.94,-58.33 475.44,-56.32 482.5,-55 696,-15.09 958.6,-10.67 1049.08,-10.4"/>
<polygon fill="#63b8ff" stroke="#63b8ff" points="1049.25,-13.9 1059.24,-10.39 1049.24,-6.9 1049.25,-13.9"/>
</a>
</g>
</g>
<!-- Node17&#45;&gt;Node4 -->
<g id="edge26_Node000017_Node000004" class="edge">
<title>Node17&#45;&gt;Node4</title>
<g id="a_edge26_Node000017_Node000004"><a xlink:title=" ">
<path fill="none" stroke="#63b8ff" d="M444.75,-277.76C359.51,-270.32 231.14,-255 190.5,-228 139.14,-193.88 109.24,-123.04 97.42,-89.44"/>
<polygon fill="#63b8ff" stroke="#63b8ff" points="100.61,-87.95 94.1,-79.59 93.98,-90.18 100.61,-87.95"/>
</a>
</g>
</g>
<!-- Node17&#45;&gt;Node7 -->
<g id="edge25_Node000017_Node000007" class="edge">
<title>Node17&#45;&gt;Node7</title>
<g id="a_edge25_Node000017_Node000007"><a xlink:title=" ">
<path fill="none" stroke="#63b8ff" d="M444.64,-277.66C367.26,-270.45 256.98,-255.62 224.5,-228 162.28,-175.08 197.64,-128.73 162.5,-55 158.03,-45.62 152.13,-35.69 146.98,-27.59"/>
<polygon fill="#63b8ff" stroke="#63b8ff" points="149.82,-25.53 141.42,-19.07 143.96,-29.36 149.82,-25.53"/>
</a>
</g>
</g>
<!-- Node17&#45;&gt;Node8 -->
<g id="edge27_Node000017_Node000008" class="edge">
<title>Node17&#45;&gt;Node8</title>
<g id="a_edge27_Node000017_Node000008"><a xlink:title=" ">
<path fill="none" stroke="#63b8ff" d="M589.25,-299.54C638.29,-310.82 705.22,-326.67 753.95,-338.54"/>
<polygon fill="#63b8ff" stroke="#63b8ff" points="753.21,-341.96 763.76,-340.94 754.87,-335.16 753.21,-341.96"/>
</a>
</g>
</g>
<!-- Node17&#45;&gt;Node12 -->
<g id="edge28_Node000017_Node000012" class="edge">
<title>Node17&#45;&gt;Node12</title>
<g id="a_edge28_Node000017_Node000012"><a xlink:title=" ">
<path fill="none" stroke="#63b8ff" d="M530.33,-269.39C534.66,-258.92 540.67,-244.39 545.73,-232.15"/>
<polygon fill="#63b8ff" stroke="#63b8ff" points="549.11,-233.12 549.7,-222.54 542.64,-230.45 549.11,-233.12"/>
</a>
</g>
</g>
<!-- Node18&#45;&gt;Node5 -->
<g id="edge30_Node000018_Node000005" class="edge">
<title>Node18&#45;&gt;Node5</title>
<g id="a_edge30_Node000018_Node000005"><a xlink:title=" ">
<path fill="none" stroke="#63b8ff" d="M1174.21,-263.9C1167.2,-233.02 1152.17,-171.37 1133.5,-121 1120.97,-87.19 1102.14,-49.54 1090.91,-28.07"/>
<polygon fill="#63b8ff" stroke="#63b8ff" points="1093.97,-26.37 1086.2,-19.16 1087.78,-29.64 1093.97,-26.37"/>
</a>
</g>
</g>
<!-- Node18&#45;&gt;Node14 -->
<g id="edge41_Node000018_Node000014" class="edge">
<title>Node18&#45;&gt;Node14</title>
<g id="a_edge41_Node000018_Node000014"><a xlink:title=" ">
<path fill="none" stroke="#63b8ff" d="M1151.8,-263.74C1114.11,-235.86 1045.7,-185.24 1007.73,-157.15"/>
<polygon fill="#63b8ff" stroke="#63b8ff" points="1009.79,-154.31 999.66,-151.18 1005.62,-159.94 1009.79,-154.31"/>
</a>
</g>
</g>
<!-- Node19 -->
<g id="Node000019" class="node">
<title>Node19</title>
<g id="a_Node000019"><a xlink:href="log_8h.html" target="_top" xlink:title=" ">
<polygon fill="white" stroke="#666666" points="1388,-217 1275,-217 1275,-198 1388,-198 1388,-217"/>
<text text-anchor="middle" x="1331.5" y="-205" font-family="Helvetica,sans-Serif" font-size="10.00">mosaic/logger/log.h</text>
</a>
</g>
</g>
<!-- Node18&#45;&gt;Node19 -->
<g id="edge31_Node000018_Node000019" class="edge">
<title>Node18&#45;&gt;Node19</title>
<g id="a_edge31_Node000018_Node000019"><a xlink:title=" ">
<path fill="none" stroke="#63b8ff" d="M1218.3,-263.99C1245.54,-250.64 1280.91,-233.3 1304.81,-221.58"/>
<polygon fill="#63b8ff" stroke="#63b8ff" points="1306.54,-224.63 1313.98,-217.09 1303.46,-218.35 1306.54,-224.63"/>
</a>
</g>
</g>
<!-- Node20 -->
<g id="Node000020" class="node">
<title>Node20</title>
<g id="a_Node000020"><a xlink:href="i__logger_8h.html" target="_top" xlink:title=" ">
<polygon fill="white" stroke="#666666" points="1363.5,-145.5 1299.5,-145.5 1299.5,-126.5 1363.5,-126.5 1363.5,-145.5"/>
<text text-anchor="middle" x="1331.5" y="-133.5" font-family="Helvetica,sans-Serif" font-size="10.00">i_logger.h</text>
</a>
</g>
</g>
<!-- Node19&#45;&gt;Node20 -->
<g id="edge32_Node000019_Node000020" class="edge">
<title>Node19&#45;&gt;Node20</title>
<g id="a_edge32_Node000019_Node000020"><a xlink:title=" ">
<path fill="none" stroke="#63b8ff" d="M1331.5,-197.98C1331.5,-187.56 1331.5,-169.61 1331.5,-155.88"/>
<polygon fill="#63b8ff" stroke="#63b8ff" points="1335,-155.59 1331.5,-145.59 1328,-155.59 1335,-155.59"/>
</a>
</g>
</g>
<!-- Node23 -->
<g id="Node000023" class="node">
<title>Node23</title>
<g id="a_Node000023"><a xlink:href="log__service_8h.html" target="_top" xlink:title=" ">
<polygon fill="white" stroke="#666666" points="1460,-79.5 1379,-79.5 1379,-60.5 1460,-60.5 1460,-79.5"/>
<text text-anchor="middle" x="1419.5" y="-67.5" font-family="Helvetica,sans-Serif" font-size="10.00">log_service.h</text>
</a>
</g>
</g>
<!-- Node19&#45;&gt;Node23 -->
<g id="edge40_Node000019_Node000023" class="edge">
<title>Node19&#45;&gt;Node23</title>
<g id="a_edge40_Node000019_Node000023"><a xlink:title=" ">
<path fill="none" stroke="#63b8ff" d="M1338.47,-197.67C1346.88,-186.89 1361.28,-167.99 1372.5,-151 1386.32,-130.07 1400.71,-105.01 1409.87,-88.58"/>
<polygon fill="#63b8ff" stroke="#63b8ff" points="1413.07,-90.03 1414.85,-79.59 1406.95,-86.65 1413.07,-90.03"/>
</a>
</g>
</g>
<!-- Node20&#45;&gt;Node5 -->
<g id="edge33_Node000020_Node000005" class="edge">
<title>Node20&#45;&gt;Node5</title>
<g id="a_edge33_Node000020_Node000005"><a xlink:title=" ">
<path fill="none" stroke="#63b8ff" d="M1330.02,-126.44C1326.67,-109.88 1316.93,-73.46 1293.5,-55 1265.93,-33.29 1165.87,-19.58 1113.68,-13.75"/>
<polygon fill="#63b8ff" stroke="#63b8ff" points="1113.93,-10.25 1103.61,-12.65 1113.18,-17.21 1113.93,-10.25"/>
</a>
</g>
</g>
<!-- Node21 -->
<g id="Node000021" class="node">
<title>Node21</title>
<g id="a_Node000021"><a xlink:title=" ">
<polygon fill="#e0e0e0" stroke="#999999" points="1284,-79.5 1205,-79.5 1205,-60.5 1284,-60.5 1284,-79.5"/>
<text text-anchor="middle" x="1244.5" y="-67.5" font-family="Helvetica,sans-Serif" font-size="10.00">fmt/format.h</text>
</a>
</g>
</g>
<!-- Node20&#45;&gt;Node21 -->
<g id="edge34_Node000020_Node000021" class="edge">
<title>Node20&#45;&gt;Node21</title>
<g id="a_edge34_Node000020_Node000021"><a xlink:title=" ">
<path fill="none" stroke="#63b8ff" d="M1319.77,-126.37C1305.63,-115.97 1281.64,-98.32 1264.55,-85.75"/>
<polygon fill="#63b8ff" stroke="#63b8ff" points="1266.45,-82.81 1256.33,-79.7 1262.31,-88.44 1266.45,-82.81"/>
</a>
</g>
</g>
<!-- Node22 -->
<g id="Node000022" class="node">
<title>Node22</title>
<g id="a_Node000022"><a xlink:href="log__level_8h.html" target="_top" xlink:title=" ">
<polygon fill="white" stroke="#666666" points="1375.5,-19 1305.5,-19 1305.5,0 1375.5,0 1375.5,-19"/>
<text text-anchor="middle" x="1340.5" y="-7" font-family="Helvetica,sans-Serif" font-size="10.00">log_level.h</text>
</a>
</g>
</g>
<!-- Node20&#45;&gt;Node22 -->
<g id="edge35_Node000020_Node000022" class="edge">
<title>Node20&#45;&gt;Node22</title>
<g id="a_edge35_Node000020_Node000022"><a xlink:title=" ">
<path fill="none" stroke="#63b8ff" d="M1332.12,-126.44C1333.56,-106.54 1337.16,-56.76 1339.14,-29.35"/>
<polygon fill="#63b8ff" stroke="#63b8ff" points="1342.65,-29.34 1339.88,-19.12 1335.67,-28.84 1342.65,-29.34"/>
</a>
</g>
</g>
<!-- Node20&#45;&gt;Node23 -->
<g id="edge36_Node000020_Node000023" class="edge">
<title>Node20&#45;&gt;Node23</title>
<g id="a_edge36_Node000020_Node000023"><a xlink:title=" ">
<path fill="none" stroke="#63b8ff" d="M1343.37,-126.37C1357.67,-115.97 1381.93,-98.32 1399.22,-85.75"/>
<polygon fill="#63b8ff" stroke="#63b8ff" points="1401.51,-88.41 1407.54,-79.7 1397.39,-82.75 1401.51,-88.41"/>
</a>
</g>
</g>
<!-- Node23&#45;&gt;Node3 -->
<g id="edge37_Node000023_Node000003" class="edge">
<title>Node23&#45;&gt;Node3</title>
<g id="a_edge37_Node000023_Node000003"><a xlink:title=" ">
<path fill="none" stroke="#63b8ff" d="M1378.97,-64.05C1354.29,-61.15 1322.11,-57.56 1293.5,-55 1059.88,-34.11 778.66,-18.08 676.77,-12.57"/>
<polygon fill="#63b8ff" stroke="#63b8ff" points="676.81,-9.07 666.63,-12.03 676.43,-16.06 676.81,-9.07"/>
</a>
</g>
</g>
<!-- Node23&#45;&gt;Node22 -->
<g id="edge39_Node000023_Node000022" class="edge">
<title>Node23&#45;&gt;Node22</title>
<g id="a_edge39_Node000023_Node000022"><a xlink:title=" ">
<path fill="none" stroke="#63b8ff" d="M1407.84,-60.37C1395.36,-51.12 1375.32,-36.28 1360.34,-25.19"/>
<polygon fill="#63b8ff" stroke="#63b8ff" points="1362.32,-22.31 1352.2,-19.17 1358.16,-27.93 1362.32,-22.31"/>
</a>
</g>
</g>
<!-- Node24 -->
<g id="Node000024" class="node">
<title>Node24</title>
<g id="a_Node000024"><a xlink:title=" ">
<polygon fill="#e0e0e0" stroke="#999999" points="1463,-19 1394,-19 1394,0 1463,0 1463,-19"/>
<text text-anchor="middle" x="1428.5" y="-7" font-family="Helvetica,sans-Serif" font-size="10.00">type_traits</text>
</a>
</g>
</g>
<!-- Node23&#45;&gt;Node24 -->
<g id="edge38_Node000023_Node000024" class="edge">
<title>Node23&#45;&gt;Node24</title>
<g id="a_edge38_Node000023_Node000024"><a xlink:title=" ">
<path fill="none" stroke="#63b8ff" d="M1420.83,-60.37C1422.09,-52.16 1424.03,-39.54 1425.65,-29.05"/>
<polygon fill="#63b8ff" stroke="#63b8ff" points="1429.11,-29.58 1427.17,-19.17 1422.19,-28.52 1429.11,-29.58"/>
</a>
</g>
</g>
<!-- Node25&#45;&gt;Node5 -->
<g id="edge43_Node000025_Node000005" class="edge">
<title>Node25&#45;&gt;Node5</title>
<g id="a_edge43_Node000025_Node000005"><a xlink:title=" ">
<path fill="none" stroke="#63b8ff" d="M901.83,-186.89C894.33,-168.69 886.99,-141.4 898.5,-121 930.92,-63.55 1006.55,-32.61 1049.75,-19.06"/>
<polygon fill="#63b8ff" stroke="#63b8ff" points="1050.91,-22.36 1059.47,-16.13 1048.89,-15.66 1050.91,-22.36"/>
</a>
</g>
</g>
<!-- Node25&#45;&gt;Node14 -->
<g id="edge45_Node000025_Node000014" class="edge">
<title>Node25&#45;&gt;Node14</title>
<g id="a_edge45_Node000025_Node000014"><a xlink:title=" ">
<path fill="none" stroke="#63b8ff" d="M931.09,-186.77C939.93,-177.87 950.39,-167.33 959.4,-158.25"/>
<polygon fill="#63b8ff" stroke="#63b8ff" points="962,-160.6 966.56,-151.04 957.03,-155.67 962,-160.6"/>
</a>
</g>
</g>
<!-- Node26 -->
<g id="Node000026" class="node">
<title>Node26</title>
<g id="a_Node000026"><a xlink:title=" ">
<polygon fill="#e0e0e0" stroke="#999999" points="851,-145.5 806,-145.5 806,-126.5 851,-126.5 851,-145.5"/>
<text text-anchor="middle" x="828.5" y="-133.5" font-family="Helvetica,sans-Serif" font-size="10.00">utility</text>
</a>
</g>
</g>
<!-- Node25&#45;&gt;Node26 -->
<g id="edge44_Node000025_Node000026" class="edge">
<title>Node25&#45;&gt;Node26</title>
<g id="a_edge44_Node000025_Node000026"><a xlink:title=" ">
<path fill="none" stroke="#63b8ff" d="M887.94,-186.77C874.85,-175.81 858.82,-162.39 846.71,-152.25"/>
<polygon fill="#63b8ff" stroke="#63b8ff" points="848.95,-149.56 839.03,-145.82 844.45,-154.92 848.95,-149.56"/>
</a>
</g>
</g>
<!-- Node27&#45;&gt;Node3 -->
<g id="edge48_Node000027_Node000003" class="edge">
<title>Node27&#45;&gt;Node3</title>
<g id="a_edge48_Node000027_Node000003"><a xlink:title=" ">
<path fill="none" stroke="#63b8ff" d="M963.82,-406.71C1008.04,-360.87 1135.19,-215 1062.5,-121 1014.91,-59.45 773.06,-25.81 676.95,-14.69"/>
<polygon fill="#63b8ff" stroke="#63b8ff" points="677.11,-11.19 666.78,-13.54 676.32,-18.15 677.11,-11.19"/>
</a>
</g>
</g>
<!-- Node27&#45;&gt;Node5 -->
<g id="edge49_Node000027_Node000005" class="edge">
<title>Node27&#45;&gt;Node5</title>
<g id="a_edge49_Node000027_Node000005"><a xlink:title=" ">
<path fill="none" stroke="#63b8ff" d="M1022.82,-416.53C1096.14,-407.66 1205.16,-381.53 1256.5,-305 1284.48,-263.29 1201.68,-151.19 1125.5,-55 1117.42,-44.8 1107.28,-34.41 1098.76,-26.23"/>
<polygon fill="#63b8ff" stroke="#63b8ff" points="1100.91,-23.45 1091.22,-19.15 1096.12,-28.55 1100.91,-23.45"/>
</a>
</g>
</g>
<!-- Node27&#45;&gt;Node8 -->
<g id="edge50_Node000027_Node000008" class="edge">
<title>Node27&#45;&gt;Node8</title>
<g id="a_edge50_Node000027_Node000008"><a xlink:title=" ">
<path fill="none" stroke="#63b8ff" d="M920.53,-406.95C901.45,-397.7 876.25,-385.49 855.56,-375.45"/>
<polygon fill="#63b8ff" stroke="#63b8ff" points="856.93,-372.23 846.4,-371.01 853.87,-378.52 856.93,-372.23"/>
</a>
</g>
</g>
<!-- Node27&#45;&gt;Node12 -->
<g id="edge51_Node000027_Node000012" class="edge">
<title>Node27&#45;&gt;Node12</title>
<g id="a_edge51_Node000027_Node000012"><a xlink:title=" ">
<path fill="none" stroke="#63b8ff" d="M876.41,-408.99C838.11,-401.12 791.07,-388.9 751.5,-371 704.33,-349.66 695.5,-337.87 655.5,-305 635.34,-288.44 632.26,-282.13 613.5,-264 601.73,-252.62 588.54,-240 577.73,-229.67"/>
<polygon fill="#63b8ff" stroke="#63b8ff" points="579.97,-226.97 570.32,-222.6 575.14,-232.04 579.97,-226.97"/>
</a>
</g>
</g>
<!-- Node28 -->
<g id="Node000028" class="node">
<title>Node28</title>
<g id="a_Node000028"><a xlink:href="websocket__client_8h.html" target="_top" xlink:title=" ">
<polygon fill="white" stroke="#666666" points="1632.5,-85 1478.5,-85 1478.5,-55 1632.5,-55 1632.5,-85"/>
<text text-anchor="start" x="1486.5" y="-73" font-family="Helvetica,sans-Serif" font-size="10.00">mosaic/signaling/websocket</text>
<text text-anchor="middle" x="1555.5" y="-62" font-family="Helvetica,sans-Serif" font-size="10.00">_client.h</text>
</a>
</g>
</g>
<!-- Node27&#45;&gt;Node28 -->
<g id="edge52_Node000027_Node000028" class="edge">
<title>Node27&#45;&gt;Node28</title>
<g id="a_edge52_Node000027_Node000028"><a xlink:title=" ">
<path fill="none" stroke="#63b8ff" d="M1022.62,-418.73C1175.63,-411.98 1515.5,-385.72 1515.5,-285.5 1515.5,-285.5 1515.5,-285.5 1515.5,-206.5 1515.5,-165.83 1532.28,-121 1544.11,-94.46"/>
<polygon fill="#63b8ff" stroke="#63b8ff" points="1547.35,-95.78 1548.35,-85.23 1540.99,-92.85 1547.35,-95.78"/>
</a>
</g>
</g>
<!-- Node28&#45;&gt;Node3 -->
<g id="edge55_Node000028_Node000003" class="edge">
<title>Node28&#45;&gt;Node3</title>
<g id="a_edge55_Node000028_Node000003"><a xlink:title=" ">
<path fill="none" stroke="#63b8ff" d="M1478.2,-56.01C1475.26,-55.65 1472.36,-55.31 1469.5,-55 1165.51,-22.22 796.31,-13.24 676.83,-11.1"/>
<polygon fill="#63b8ff" stroke="#63b8ff" points="676.76,-7.6 666.7,-10.92 676.64,-14.59 676.76,-7.6"/>
</a>
</g>
</g>
<!-- Node28&#45;&gt;Node5 -->
<g id="edge56_Node000028_Node000005" class="edge">
<title>Node28&#45;&gt;Node5</title>
<g id="a_edge56_Node000028_Node000005"><a xlink:title=" ">
<path fill="none" stroke="#63b8ff" d="M1478.17,-56.23C1475.24,-55.81 1472.35,-55.39 1469.5,-55 1338.13,-36.78 1180.98,-20.42 1114.16,-13.72"/>
<polygon fill="#63b8ff" stroke="#63b8ff" points="1114.15,-10.2 1103.85,-12.69 1113.46,-17.17 1114.15,-10.2"/>
</a>
</g>
</g>
<!-- Node29 -->
<g id="Node000029" class="node">
<title>Node29</title>
<g id="a_Node000029"><a xlink:title=" ">
<polygon fill="#e0e0e0" stroke="#999999" points="1531.5,-19 1481.5,-19 1481.5,0 1531.5,0 1531.5,-19"/>
<text text-anchor="middle" x="1506.5" y="-7" font-family="Helvetica,sans-Serif" font-size="10.00">atomic</text>
</a>
</g>
</g>
<!-- Node28&#45;&gt;Node29 -->
<g id="edge53_Node000028_Node000029" class="edge">
<title>Node28&#45;&gt;Node29</title>
<g id="a_edge53_Node000028_Node000029"><a xlink:title=" ">
<path fill="none" stroke="#63b8ff" d="M1543.64,-54.84C1536.6,-46.43 1527.64,-35.74 1520.29,-26.96"/>
<polygon fill="#63b8ff" stroke="#63b8ff" points="1522.95,-24.68 1513.84,-19.27 1517.58,-29.18 1522.95,-24.68"/>
</a>
</g>
</g>
<!-- Node30 -->
<g id="Node000030" class="node">
<title>Node30</title>
<g id="a_Node000030"><a xlink:title=" ">
<polygon fill="#e0e0e0" stroke="#999999" points="1615,-19 1550,-19 1550,0 1615,0 1615,-19"/>
<text text-anchor="middle" x="1582.5" y="-7" font-family="Helvetica,sans-Serif" font-size="10.00">functional</text>
</a>
</g>
</g>
<!-- Node28&#45;&gt;Node30 -->
<g id="edge54_Node000028_Node000030" class="edge">
<title>Node28&#45;&gt;Node30</title>
<g id="a_edge54_Node000028_Node000030"><a xlink:title=" ">
<path fill="none" stroke="#63b8ff" d="M1562.04,-54.84C1565.68,-46.95 1570.24,-37.05 1574.14,-28.61"/>
<polygon fill="#63b8ff" stroke="#63b8ff" points="1577.44,-29.81 1578.45,-19.27 1571.09,-26.88 1577.44,-29.81"/>
</a>
</g>
</g>
<!-- Node31 -->
<g id="Node000031" class="node">
<title>Node31</title>
<g id="a_Node000031"><a xlink:title=" ">
<polygon fill="#e0e0e0" stroke="#999999" points="1743.5,-19 1633.5,-19 1633.5,0 1743.5,0 1743.5,-19"/>
<text text-anchor="middle" x="1688.5" y="-7" font-family="Helvetica,sans-Serif" font-size="10.00">cpprest/ws_client.h</text>
</a>
</g>
</g>
<!-- Node28&#45;&gt;Node31 -->
<g id="edge57_Node000028_Node000031" class="edge">
<title>Node28&#45;&gt;Node31</title>
<g id="a_edge57_Node000028_Node000031"><a xlink:title=" ">
<path fill="none" stroke="#63b8ff" d="M1587.36,-54.99C1609.35,-45.31 1638.35,-32.56 1659.66,-23.18"/>
<polygon fill="#63b8ff" stroke="#63b8ff" points="1661.11,-26.37 1668.86,-19.14 1658.3,-19.96 1661.11,-26.37"/>
</a>
</g>
</g>
<!-- Node32&#45;&gt;Node3 -->
<g id="edge59_Node000032_Node000003" class="edge">
<title>Node32&#45;&gt;Node3</title>
<g id="a_edge59_Node000032_Node000003"><a xlink:title=" ">
<path fill="none" stroke="#63b8ff" d="M169.8,-269.49C180.26,-228.54 216.76,-108.58 296.5,-55 345.11,-22.34 519.49,-13.6 598.32,-11.3"/>
<polygon fill="#63b8ff" stroke="#63b8ff" points="598.44,-14.8 608.34,-11.03 598.25,-7.8 598.44,-14.8"/>
</a>
</g>
</g>
<!-- Node32&#45;&gt;Node4 -->
<g id="edge67_Node000032_Node000004" class="edge">
<title>Node32&#45;&gt;Node4</title>
<g id="a_edge67_Node000032_Node000004"><a xlink:title=" ">
<path fill="none" stroke="#63b8ff" d="M148.58,-269.46C136.9,-259.26 122.41,-244.41 114.5,-228 92.33,-182.01 90.21,-120.33 90.72,-89.78"/>
<polygon fill="#63b8ff" stroke="#63b8ff" points="94.22,-89.78 91.01,-79.69 87.23,-89.58 94.22,-89.78"/>
</a>
</g>
</g>
<!-- Node32&#45;&gt;Node6 -->
<g id="edge60_Node000032_Node000006" class="edge">
<title>Node32&#45;&gt;Node6</title>
<g id="a_edge60_Node000032_Node000006"><a xlink:title=" ">
<path fill="none" stroke="#63b8ff" d="M143.64,-269.34C128.6,-259.2 109.23,-244.46 95.5,-228 49.53,-172.89 37.66,-154.68 20.5,-85 17.31,-72.05 17.02,-67.87 20.5,-55 23.16,-45.19 28.57,-35.33 33.78,-27.39"/>
<polygon fill="#63b8ff" stroke="#63b8ff" points="36.73,-29.27 39.61,-19.07 31,-25.25 36.73,-29.27"/>
</a>
</g>
</g>
<!-- Node32&#45;&gt;Node15 -->
<g id="edge66_Node000032_Node000015" class="edge">
<title>Node32&#45;&gt;Node15</title>
<g id="a_edge66_Node000032_Node000015"><a xlink:title=" ">
<path fill="none" stroke="#63b8ff" d="M247.74,-275.2C287.97,-267.86 335.5,-254.04 371.5,-228 395.22,-210.85 412.18,-181.2 421.89,-160.42"/>
<polygon fill="#63b8ff" stroke="#63b8ff" points="425.2,-161.58 426.07,-151.02 418.81,-158.73 425.2,-161.58"/>
</a>
</g>
</g>
<!-- Node32&#45;&gt;Node16 -->
<g id="edge61_Node000032_Node000016" class="edge">
<title>Node32&#45;&gt;Node16</title>
<g id="a_edge61_Node000032_Node000016"><a xlink:title=" ">
<path fill="none" stroke="#63b8ff" d="M247.67,-280.76C333.21,-272.78 462.14,-244.87 510.5,-151 516.61,-139.15 516.75,-132.78 510.5,-121 501.65,-104.33 484.48,-92.21 468.91,-84.08"/>
<polygon fill="#63b8ff" stroke="#63b8ff" points="470.03,-80.73 459.51,-79.53 466.98,-87.04 470.03,-80.73"/>
</a>
</g>
</g>
<!-- Node33 -->
<g id="Node000033" class="node">
<title>Node33</title>
<g id="a_Node000033"><a xlink:href="authenticator__factory_8h.html" target="_top" xlink:title=" ">
<polygon fill="white" stroke="#666666" points="362,-217 233,-217 233,-198 362,-198 362,-217"/>
<text text-anchor="middle" x="297.5" y="-205" font-family="Helvetica,sans-Serif" font-size="10.00">authenticator_factory.h</text>
</a>
</g>
</g>
<!-- Node32&#45;&gt;Node33 -->
<g id="edge62_Node000032_Node000033" class="edge">
<title>Node32&#45;&gt;Node33</title>
<g id="a_edge62_Node000032_Node000033"><a xlink:title=" ">
<path fill="none" stroke="#63b8ff" d="M191.14,-269.39C214.72,-255.89 250.07,-235.66 273.45,-222.27"/>
<polygon fill="#63b8ff" stroke="#63b8ff" points="275.43,-225.17 282.37,-217.16 271.95,-219.09 275.43,-225.17"/>
</a>
</g>
</g>
<!-- Node33&#45;&gt;Node3 -->
<g id="edge63_Node000033_Node000003" class="edge">
<title>Node33&#45;&gt;Node3</title>
<g id="a_edge63_Node000033_Node000003"><a xlink:title=" ">
<path fill="none" stroke="#63b8ff" d="M295.62,-197.77C290.58,-171.82 279.74,-94.55 319.5,-55 358,-16.7 522.1,-10.92 598.31,-10.35"/>
<polygon fill="#63b8ff" stroke="#63b8ff" points="598.48,-13.85 608.46,-10.3 598.44,-6.85 598.48,-13.85"/>
</a>
</g>
</g>
<!-- Node33&#45;&gt;Node4 -->
<g id="edge65_Node000033_Node000004" class="edge">
<title>Node33&#45;&gt;Node4</title>
<g id="a_edge65_Node000033_Node000004"><a xlink:title=" ">
<path fill="none" stroke="#63b8ff" d="M284.3,-197.82C249.64,-175.02 155.76,-113.27 113.11,-85.21"/>
<polygon fill="#63b8ff" stroke="#63b8ff" points="114.87,-82.18 104.59,-79.61 111.02,-88.03 114.87,-82.18"/>
</a>
</g>
</g>
<!-- Node33&#45;&gt;Node15 -->
<g id="edge64_Node000033_Node000015" class="edge">
<title>Node33&#45;&gt;Node15</title>
<g id="a_edge64_Node000033_Node000015"><a xlink:title=" ">
<path fill="none" stroke="#63b8ff" d="M313.93,-197.98C334.12,-187.5 368.97,-169.43 395.5,-155.67"/>
<polygon fill="#63b8ff" stroke="#63b8ff" points="397.23,-158.72 404.49,-151.01 394.01,-152.5 397.23,-158.72"/>
</a>
</g>
</g>
</g>
</svg>
