<?xml version="1.0" encoding="UTF-8" standalone="no"?>
<!DOCTYPE svg PUBLIC "-//W3C//DTD SVG 1.1//EN"
 "http://www.w3.org/Graphics/SVG/1.1/DTD/svg11.dtd">
<!-- Generated by graphviz version 2.43.0 (0)
 -->
<!-- Title: include/mosaic/core/mosaic_connector.h Pages: 1 -->
<svg width="1650pt" height="368pt"
 viewBox="0.00 0.00 1650.00 368.00" xmlns="http://www.w3.org/2000/svg" xmlns:xlink="http://www.w3.org/1999/xlink">
<g id="graph0" class="graph" transform="scale(1 1) rotate(0) translate(4 364)">
<title>include/mosaic/core/mosaic_connector.h</title>
<!-- Node1 -->
<g id="Node000001" class="node">
<title>Node1</title>
<g id="a_Node000001"><a xlink:title=" ">
<polygon fill="#999999" stroke="#666666" points="1291,-360 1175,-360 1175,-330 1291,-330 1291,-360"/>
<text text-anchor="start" x="1183" y="-348" font-family="Helvetica,sans-Serif" font-size="10.00">include/mosaic/core</text>
<text text-anchor="middle" x="1233" y="-337" font-family="Helvetica,sans-Serif" font-size="10.00">/mosaic_connector.h</text>
</a>
</g>
</g>
<!-- Node2 -->
<g id="Node000002" class="node">
<title>Node2</title>
<g id="a_Node000002"><a xlink:href="i__configurable__connector_8h.html" target="_top" xlink:title=" ">
<polygon fill="white" stroke="#666666" points="587.5,-294 438.5,-294 438.5,-253 587.5,-253 587.5,-294"/>
<text text-anchor="start" x="446.5" y="-282" font-family="Helvetica,sans-Serif" font-size="10.00">include/mosaic/auto</text>
<text text-anchor="start" x="446.5" y="-271" font-family="Helvetica,sans-Serif" font-size="10.00">_configurer/connector</text>
<text text-anchor="middle" x="513" y="-260" font-family="Helvetica,sans-Serif" font-size="10.00">/i_configurable_connector.h</text>
</a>
</g>
</g>
<!-- Node1&#45;&gt;Node2 -->
<g id="edge1_Node000001_Node000002" class="edge">
<title>Node1&#45;&gt;Node2</title>
<g id="a_edge1_Node000001_Node000002"><a xlink:title=" ">
<path fill="none" stroke="#63b8ff" d="M1164.76,-337.41C1029.41,-324.35 727.95,-295.25 587.58,-281.7"/>
<polygon fill="#63b8ff" stroke="#63b8ff" points="1164.7,-340.92 1174.99,-338.4 1165.38,-333.96 1164.7,-340.92"/>
</a>
</g>
</g>
<!-- Node14 -->
<g id="Node000014" class="node">
<title>Node14</title>
<g id="a_Node000014"><a xlink:href="mosaic__connector__factory_8h.html" target="_top" xlink:title=" ">
<polygon fill="white" stroke="#666666" points="981.5,-288.5 826.5,-288.5 826.5,-258.5 981.5,-258.5 981.5,-288.5"/>
<text text-anchor="start" x="834.5" y="-276.5" font-family="Helvetica,sans-Serif" font-size="10.00">include/mosaic/core</text>
<text text-anchor="middle" x="904" y="-265.5" font-family="Helvetica,sans-Serif" font-size="10.00">/mosaic_connector_factory.h</text>
</a>
</g>
</g>
<!-- Node1&#45;&gt;Node14 -->
<g id="edge19_Node000001_Node000014" class="edge">
<title>Node1&#45;&gt;Node14</title>
<g id="a_edge19_Node000001_Node000014"><a xlink:title=" ">
<path fill="none" stroke="#63b8ff" d="M1165.19,-330.43C1116.41,-320.57 1049.08,-306.77 990,-294 982.07,-292.29 973.74,-290.44 965.51,-288.6"/>
<polygon fill="#63b8ff" stroke="#63b8ff" points="1164.5,-333.86 1175,-332.4 1165.89,-327 1164.5,-333.86"/>
</a>
</g>
</g>
<!-- Node16 -->
<g id="Node000016" class="node">
<title>Node16</title>
<g id="a_Node000016"><a xlink:href="peer__connection__manager_8h.html" target="_top" xlink:title=" ">
<polygon fill="white" stroke="#666666" points="1311.5,-288.5 1154.5,-288.5 1154.5,-258.5 1311.5,-258.5 1311.5,-288.5"/>
<text text-anchor="start" x="1162.5" y="-276.5" font-family="Helvetica,sans-Serif" font-size="10.00">include/mosaic/core</text>
<text text-anchor="middle" x="1233" y="-265.5" font-family="Helvetica,sans-Serif" font-size="10.00">/peer_connection_manager.h</text>
</a>
</g>
</g>
<!-- Node1&#45;&gt;Node16 -->
<g id="edge22_Node000001_Node000016" class="edge">
<title>Node1&#45;&gt;Node16</title>
<g id="a_edge22_Node000001_Node000016"><a xlink:title=" ">
<path fill="none" stroke="#63b8ff" d="M1226.53,-319.75C1225.96,-309.31 1226.26,-297.49 1227.45,-288.54"/>
<polygon fill="#63b8ff" stroke="#63b8ff" points="1223.07,-320.29 1227.45,-329.94 1230.04,-319.66 1223.07,-320.29"/>
</a>
</g>
</g>
<!-- Node18 -->
<g id="Node000018" class="node">
<title>Node18</title>
<g id="a_Node000018"><a xlink:href="peer__connection__observer_8h.html" target="_top" xlink:title=" ">
<polygon fill="white" stroke="#666666" points="1524,-288.5 1368,-288.5 1368,-258.5 1524,-258.5 1524,-288.5"/>
<text text-anchor="start" x="1376" y="-276.5" font-family="Helvetica,sans-Serif" font-size="10.00">include/mosaic/core</text>
<text text-anchor="middle" x="1446" y="-265.5" font-family="Helvetica,sans-Serif" font-size="10.00">/peer_connection_observer.h</text>
</a>
</g>
</g>
<!-- Node1&#45;&gt;Node18 -->
<g id="edge25_Node000001_Node000018" class="edge">
<title>Node1&#45;&gt;Node18</title>
<g id="a_edge25_Node000001_Node000018"><a xlink:title=" ">
<path fill="none" stroke="#63b8ff" d="M1285.97,-326.72C1322.04,-314.95 1369.2,-299.56 1402.96,-288.54"/>
<polygon fill="#63b8ff" stroke="#63b8ff" points="1284.52,-323.51 1276.1,-329.94 1286.7,-330.16 1284.52,-323.51"/>
</a>
</g>
</g>
<!-- Node19 -->
<g id="Node000019" class="node">
<title>Node19</title>
<g id="a_Node000019"><a xlink:href="mosaic__connector_8cpp.html" target="_top" xlink:title=" ">
<polygon fill="white" stroke="#666666" points="1486,-200.5 1320,-200.5 1320,-181.5 1486,-181.5 1486,-200.5"/>
<text text-anchor="middle" x="1403" y="-188.5" font-family="Helvetica,sans-Serif" font-size="10.00">src/core/mosaic_connector.cpp</text>
</a>
</g>
</g>
<!-- Node1&#45;&gt;Node19 -->
<g id="edge32_Node000001_Node000019" class="edge">
<title>Node1&#45;&gt;Node19</title>
<g id="a_edge32_Node000001_Node000019"><a xlink:title=" ">
<path fill="none" stroke="#63b8ff" d="M1272.68,-325.17C1288.27,-316.79 1305.8,-306.08 1320,-294 1337.83,-278.84 1380.33,-222.55 1396.55,-200.73"/>
<polygon fill="#63b8ff" stroke="#63b8ff" points="1271,-322.1 1263.76,-329.83 1274.24,-328.31 1271,-322.1"/>
</a>
</g>
</g>
<!-- Node20 -->
<g id="Node000020" class="node">
<title>Node20</title>
<g id="a_Node000020"><a xlink:href="peer__connection__observer_8cpp.html" target="_top" xlink:title=" ">
<polygon fill="white" stroke="#666666" points="1642,-206 1504,-206 1504,-176 1642,-176 1642,-206"/>
<text text-anchor="start" x="1512" y="-194" font-family="Helvetica,sans-Serif" font-size="10.00">src/core/peer_connection</text>
<text text-anchor="middle" x="1573" y="-183" font-family="Helvetica,sans-Serif" font-size="10.00">_observer.cpp</text>
</a>
</g>
</g>
<!-- Node1&#45;&gt;Node20 -->
<g id="edge33_Node000001_Node000020" class="edge">
<title>Node1&#45;&gt;Node20</title>
<g id="a_edge33_Node000001_Node000020"><a xlink:title=" ">
<path fill="none" stroke="#63b8ff" d="M1301.17,-340.35C1378.48,-334.91 1498.31,-322.12 1533,-294 1560.34,-271.84 1569.05,-228.44 1571.78,-206.07"/>
<polygon fill="#63b8ff" stroke="#63b8ff" points="1300.77,-336.87 1291.03,-341.04 1301.24,-343.85 1300.77,-336.87"/>
</a>
</g>
</g>
<!-- Node21 -->
<g id="Node000021" class="node">
<title>Node21</title>
<g id="a_Node000021"><a xlink:href="signaling__client_8h.html" target="_top" xlink:title=" ">
<polygon fill="white" stroke="#666666" points="1136.5,-288.5 999.5,-288.5 999.5,-258.5 1136.5,-258.5 1136.5,-288.5"/>
<text text-anchor="start" x="1007.5" y="-276.5" font-family="Helvetica,sans-Serif" font-size="10.00">include/mosaic/signaling</text>
<text text-anchor="middle" x="1068" y="-265.5" font-family="Helvetica,sans-Serif" font-size="10.00">/signaling_client.h</text>
</a>
</g>
</g>
<!-- Node1&#45;&gt;Node21 -->
<g id="edge29_Node000001_Node000021" class="edge">
<title>Node1&#45;&gt;Node21</title>
<g id="a_edge29_Node000001_Node000021"><a xlink:title=" ">
<path fill="none" stroke="#63b8ff" d="M1190.17,-325.96C1162.47,-314.29 1126.94,-299.32 1101.34,-288.54"/>
<polygon fill="#63b8ff" stroke="#63b8ff" points="1189.04,-329.28 1199.61,-329.94 1191.75,-322.83 1189.04,-329.28"/>
</a>
</g>
</g>
<!-- Node3 -->
<g id="Node000003" class="node">
<title>Node3</title>
<g id="a_Node000003"><a xlink:href="auto__configurer_8h.html" target="_top" xlink:title=" ">
<polygon fill="white" stroke="#666666" points="492,-118 334,-118 334,-88 492,-88 492,-118"/>
<text text-anchor="start" x="342" y="-106" font-family="Helvetica,sans-Serif" font-size="10.00">include/mosaic/auto</text>
<text text-anchor="middle" x="413" y="-95" font-family="Helvetica,sans-Serif" font-size="10.00">_configurer/auto_configurer.h</text>
</a>
</g>
</g>
<!-- Node2&#45;&gt;Node3 -->
<g id="edge2_Node000002_Node000003" class="edge">
<title>Node2&#45;&gt;Node3</title>
<g id="a_edge2_Node000002_Node000003"><a xlink:title=" ">
<path fill="none" stroke="#63b8ff" d="M534.33,-244.4C548.81,-221.62 562.71,-189.41 547,-165 536.52,-148.72 491.52,-130.34 456.52,-118.06"/>
<polygon fill="#63b8ff" stroke="#63b8ff" points="531.27,-242.67 528.6,-252.93 537.08,-246.58 531.27,-242.67"/>
</a>
</g>
</g>
<!-- Node5 -->
<g id="Node000005" class="node">
<title>Node5</title>
<g id="a_Node000005"><a xlink:href="a__dc__handler__configurer_8h.html" target="_top" xlink:title=" ">
<polygon fill="white" stroke="#666666" points="656,-123.5 510,-123.5 510,-82.5 656,-82.5 656,-123.5"/>
<text text-anchor="start" x="518" y="-111.5" font-family="Helvetica,sans-Serif" font-size="10.00">include/mosaic/auto</text>
<text text-anchor="start" x="518" y="-100.5" font-family="Helvetica,sans-Serif" font-size="10.00">_configurer/connector</text>
<text text-anchor="middle" x="583" y="-89.5" font-family="Helvetica,sans-Serif" font-size="10.00">/a_dc_handler_configurer.h</text>
</a>
</g>
</g>
<!-- Node2&#45;&gt;Node5 -->
<g id="edge4_Node000002_Node000005" class="edge">
<title>Node2&#45;&gt;Node5</title>
<g id="a_edge4_Node000002_Node000005"><a xlink:title=" ">
<path fill="none" stroke="#63b8ff" d="M556.12,-246.72C566.07,-238.55 575.38,-228.57 581,-217 595.57,-186.99 591.67,-147.01 587.41,-123.53"/>
<polygon fill="#63b8ff" stroke="#63b8ff" points="553.87,-244.03 548.05,-252.89 558.12,-249.6 553.87,-244.03"/>
</a>
</g>
</g>
<!-- Node6 -->
<g id="Node000006" class="node">
<title>Node6</title>
<g id="a_Node000006"><a xlink:href="a__mt__handler__configurer_8h.html" target="_top" xlink:title=" ">
<polygon fill="white" stroke="#666666" points="359.5,-211.5 210.5,-211.5 210.5,-170.5 359.5,-170.5 359.5,-211.5"/>
<text text-anchor="start" x="218.5" y="-199.5" font-family="Helvetica,sans-Serif" font-size="10.00">include/mosaic/auto</text>
<text text-anchor="start" x="218.5" y="-188.5" font-family="Helvetica,sans-Serif" font-size="10.00">_configurer/connector</text>
<text text-anchor="middle" x="285" y="-177.5" font-family="Helvetica,sans-Serif" font-size="10.00">/a_mt_handler_configurer.h</text>
</a>
</g>
</g>
<!-- Node2&#45;&gt;Node6 -->
<g id="edge6_Node000002_Node000006" class="edge">
<title>Node2&#45;&gt;Node6</title>
<g id="a_edge6_Node000002_Node000006"><a xlink:title=" ">
<path fill="none" stroke="#63b8ff" d="M447.69,-249.44C413.74,-237.45 372.7,-222.97 340.34,-211.54"/>
<polygon fill="#63b8ff" stroke="#63b8ff" points="446.92,-252.88 457.52,-252.91 449.25,-246.28 446.92,-252.88"/>
</a>
</g>
</g>
<!-- Node10 -->
<g id="Node000010" class="node">
<title>Node10</title>
<g id="a_Node000010"><a xlink:href="a__parallel__dc__handler__configurer_8h.html" target="_top" xlink:title=" ">
<polygon fill="white" stroke="#666666" points="800,-129 674,-129 674,-77 800,-77 800,-129"/>
<text text-anchor="start" x="682" y="-117" font-family="Helvetica,sans-Serif" font-size="10.00">include/mosaic/auto</text>
<text text-anchor="start" x="682" y="-106" font-family="Helvetica,sans-Serif" font-size="10.00">_configurer/connector</text>
<text text-anchor="start" x="682" y="-95" font-family="Helvetica,sans-Serif" font-size="10.00">/a_parallel_dc_handler</text>
<text text-anchor="middle" x="737" y="-84" font-family="Helvetica,sans-Serif" font-size="10.00">_configurer.h</text>
</a>
</g>
</g>
<!-- Node2&#45;&gt;Node10 -->
<g id="edge11_Node000002_Node000010" class="edge">
<title>Node2&#45;&gt;Node10</title>
<g id="a_edge11_Node000002_Node000010"><a xlink:title=" ">
<path fill="none" stroke="#63b8ff" d="M555.2,-247.44C569.97,-238.27 586.47,-227.55 601,-217 639.88,-188.77 682.05,-152.83 708.95,-129.15"/>
<polygon fill="#63b8ff" stroke="#63b8ff" points="552.95,-244.71 546.27,-252.93 556.62,-250.68 552.95,-244.71"/>
</a>
</g>
</g>
<!-- Node11 -->
<g id="Node000011" class="node">
<title>Node11</title>
<g id="a_Node000011"><a xlink:href="configurable__connector__factory_8h.html" target="_top" xlink:title=" ">
<polygon fill="white" stroke="#666666" points="192.5,-217 59.5,-217 59.5,-165 192.5,-165 192.5,-217"/>
<text text-anchor="start" x="67.5" y="-205" font-family="Helvetica,sans-Serif" font-size="10.00">include/mosaic/auto</text>
<text text-anchor="start" x="67.5" y="-194" font-family="Helvetica,sans-Serif" font-size="10.00">_configurer/connector</text>
<text text-anchor="start" x="67.5" y="-183" font-family="Helvetica,sans-Serif" font-size="10.00">/configurable_connector</text>
<text text-anchor="middle" x="126" y="-172" font-family="Helvetica,sans-Serif" font-size="10.00">_factory.h</text>
</a>
</g>
</g>
<!-- Node2&#45;&gt;Node11 -->
<g id="edge13_Node000002_Node000011" class="edge">
<title>Node2&#45;&gt;Node11</title>
<g id="a_edge13_Node000002_Node000011"><a xlink:title=" ">
<path fill="none" stroke="#63b8ff" d="M428.36,-260.86C365.2,-251.35 277.05,-236.33 201,-217 198.21,-216.29 195.37,-215.53 192.51,-214.73"/>
<polygon fill="#63b8ff" stroke="#63b8ff" points="427.87,-264.32 438.28,-262.34 428.9,-257.4 427.87,-264.32"/>
</a>
</g>
</g>
<!-- Node12 -->
<g id="Node000012" class="node">
<title>Node12</title>
<g id="a_Node000012"><a xlink:href="connector__resolver_8h.html" target="_top" xlink:title=" ">
<polygon fill="white" stroke="#666666" points="126,-123.5 4,-123.5 4,-82.5 126,-82.5 126,-123.5"/>
<text text-anchor="start" x="12" y="-111.5" font-family="Helvetica,sans-Serif" font-size="10.00">include/mosaic/auto</text>
<text text-anchor="start" x="12" y="-100.5" font-family="Helvetica,sans-Serif" font-size="10.00">_configurer/connector</text>
<text text-anchor="middle" x="65" y="-89.5" font-family="Helvetica,sans-Serif" font-size="10.00">/connector_resolver.h</text>
</a>
</g>
</g>
<!-- Node2&#45;&gt;Node12 -->
<g id="edge17_Node000002_Node000012" class="edge">
<title>Node2&#45;&gt;Node12</title>
<g id="a_edge17_Node000002_Node000012"><a xlink:title=" ">
<path fill="none" stroke="#63b8ff" d="M428.12,-268.33C301.32,-261.21 74.62,-244.75 50,-217 27.28,-191.39 42.12,-148.79 54.13,-123.86"/>
<polygon fill="#63b8ff" stroke="#63b8ff" points="428.02,-271.83 438.19,-268.88 428.4,-264.84 428.02,-271.83"/>
</a>
</g>
</g>
<!-- Node13 -->
<g id="Node000013" class="node">
<title>Node13</title>
<g id="a_Node000013"><a xlink:href="i__configurable__connector_8cpp.html" target="_top" xlink:title=" ">
<polygon fill="white" stroke="#666666" points="538.5,-206 377.5,-206 377.5,-176 538.5,-176 538.5,-206"/>
<text text-anchor="start" x="385.5" y="-194" font-family="Helvetica,sans-Serif" font-size="10.00">src/auto_configurer</text>
<text text-anchor="middle" x="458" y="-183" font-family="Helvetica,sans-Serif" font-size="10.00">/i_configurable_connector.cpp</text>
</a>
</g>
</g>
<!-- Node2&#45;&gt;Node13 -->
<g id="edge18_Node000002_Node000013" class="edge">
<title>Node2&#45;&gt;Node13</title>
<g id="a_edge18_Node000002_Node000013"><a xlink:title=" ">
<path fill="none" stroke="#63b8ff" d="M493.6,-244.11C484.88,-231.35 474.96,-216.83 467.82,-206.37"/>
<polygon fill="#63b8ff" stroke="#63b8ff" points="490.87,-246.32 499.4,-252.6 496.65,-242.37 490.87,-246.32"/>
</a>
</g>
</g>
<!-- Node4 -->
<g id="Node000004" class="node">
<title>Node4</title>
<g id="a_Node000004"><a xlink:href="auto__configurer_8cpp.html" target="_top" xlink:title=" ">
<polygon fill="white" stroke="#666666" points="555.5,-35.5 440.5,-35.5 440.5,-5.5 555.5,-5.5 555.5,-35.5"/>
<text text-anchor="start" x="448.5" y="-23.5" font-family="Helvetica,sans-Serif" font-size="10.00">src/auto_configurer</text>
<text text-anchor="middle" x="498" y="-12.5" font-family="Helvetica,sans-Serif" font-size="10.00">/auto_configurer.cpp</text>
</a>
</g>
</g>
<!-- Node3&#45;&gt;Node4 -->
<g id="edge3_Node000003_Node000004" class="edge">
<title>Node3&#45;&gt;Node4</title>
<g id="a_edge3_Node000003_Node000004"><a xlink:title=" ">
<path fill="none" stroke="#63b8ff" d="M435.23,-80.95C450.31,-66.66 469.84,-48.17 483.08,-35.63"/>
<polygon fill="#63b8ff" stroke="#63b8ff" points="432.66,-78.56 427.81,-87.98 437.47,-83.64 432.66,-78.56"/>
</a>
</g>
</g>
<!-- Node5&#45;&gt;Node4 -->
<g id="edge5_Node000005_Node000004" class="edge">
<title>Node5&#45;&gt;Node4</title>
<g id="a_edge5_Node000005_Node000004"><a xlink:title=" ">
<path fill="none" stroke="#63b8ff" d="M554.52,-75.03C540.58,-61.83 524.38,-46.48 512.9,-35.62"/>
<polygon fill="#63b8ff" stroke="#63b8ff" points="552.32,-77.77 561.99,-82.1 557.13,-72.68 552.32,-77.77"/>
</a>
</g>
</g>
<!-- Node6&#45;&gt;Node4 -->
<g id="edge10_Node000006_Node000004" class="edge">
<title>Node6&#45;&gt;Node4</title>
<g id="a_edge10_Node000006_Node000004"><a xlink:title=" ">
<path fill="none" stroke="#63b8ff" d="M288.18,-160.24C292.42,-134.86 302.26,-99.07 325,-77 355.89,-47.01 403.03,-33.22 440.3,-26.89"/>
<polygon fill="#63b8ff" stroke="#63b8ff" points="284.68,-160.01 286.69,-170.41 291.6,-161.02 284.68,-160.01"/>
</a>
</g>
</g>
<!-- Node7 -->
<g id="Node000007" class="node">
<title>Node7</title>
<g id="a_Node000007"><a xlink:href="opencv__camera__mt__handler_8h.html" target="_top" xlink:title=" ">
<polygon fill="white" stroke="#666666" points="278,-123.5 144,-123.5 144,-82.5 278,-82.5 278,-123.5"/>
<text text-anchor="start" x="152" y="-111.5" font-family="Helvetica,sans-Serif" font-size="10.00">include/mosaic/auto</text>
<text text-anchor="start" x="152" y="-100.5" font-family="Helvetica,sans-Serif" font-size="10.00">_configurer/impl/opencv</text>
<text text-anchor="middle" x="211" y="-89.5" font-family="Helvetica,sans-Serif" font-size="10.00">_camera_mt_handler.h</text>
</a>
</g>
</g>
<!-- Node6&#45;&gt;Node7 -->
<g id="edge7_Node000006_Node000007" class="edge">
<title>Node6&#45;&gt;Node7</title>
<g id="a_edge7_Node000006_Node000007"><a xlink:title=" ">
<path fill="none" stroke="#63b8ff" d="M261.69,-162.9C250.76,-150.2 237.98,-135.35 227.98,-123.74"/>
<polygon fill="#63b8ff" stroke="#63b8ff" points="259.03,-165.19 268.21,-170.49 264.34,-160.62 259.03,-165.19"/>
</a>
</g>
</g>
<!-- Node8 -->
<g id="Node000008" class="node">
<title>Node8</title>
<g id="a_Node000008"><a xlink:href="connector__resolver_8cpp.html" target="_top" xlink:title=" ">
<polygon fill="white" stroke="#666666" points="132,-35.5 0,-35.5 0,-5.5 132,-5.5 132,-35.5"/>
<text text-anchor="start" x="8" y="-23.5" font-family="Helvetica,sans-Serif" font-size="10.00">src/auto_configurer</text>
<text text-anchor="middle" x="66" y="-12.5" font-family="Helvetica,sans-Serif" font-size="10.00">/connector_resolver.cpp</text>
</a>
</g>
</g>
<!-- Node7&#45;&gt;Node8 -->
<g id="edge8_Node000007_Node000008" class="edge">
<title>Node7&#45;&gt;Node8</title>
<g id="a_edge8_Node000007_Node000008"><a xlink:title=" ">
<path fill="none" stroke="#63b8ff" d="M166.72,-77.41C142.09,-63.74 112.32,-47.21 91.56,-35.69"/>
<polygon fill="#63b8ff" stroke="#63b8ff" points="165.09,-80.51 175.53,-82.31 168.48,-74.39 165.09,-80.51"/>
</a>
</g>
</g>
<!-- Node9 -->
<g id="Node000009" class="node">
<title>Node9</title>
<g id="a_Node000009"><a xlink:href="opencv__camera__mt__handler_8cpp.html" target="_top" xlink:title=" ">
<polygon fill="white" stroke="#666666" points="272,-41 150,-41 150,0 272,0 272,-41"/>
<text text-anchor="start" x="158" y="-29" font-family="Helvetica,sans-Serif" font-size="10.00">src/auto_configurer</text>
<text text-anchor="start" x="158" y="-18" font-family="Helvetica,sans-Serif" font-size="10.00">/impl/opencv_camera</text>
<text text-anchor="middle" x="211" y="-7" font-family="Helvetica,sans-Serif" font-size="10.00">_mt_handler.cpp</text>
</a>
</g>
</g>
<!-- Node7&#45;&gt;Node9 -->
<g id="edge9_Node000007_Node000009" class="edge">
<title>Node7&#45;&gt;Node9</title>
<g id="a_edge9_Node000007_Node000009"><a xlink:title=" ">
<path fill="none" stroke="#63b8ff" d="M211,-71.87C211,-61.6 211,-50.4 211,-41.17"/>
<polygon fill="#63b8ff" stroke="#63b8ff" points="207.5,-72.1 211,-82.1 214.5,-72.1 207.5,-72.1"/>
</a>
</g>
</g>
<!-- Node10&#45;&gt;Node4 -->
<g id="edge12_Node000010_Node000004" class="edge">
<title>Node10&#45;&gt;Node4</title>
<g id="a_edge12_Node000010_Node000004"><a xlink:title=" ">
<path fill="none" stroke="#63b8ff" d="M664.29,-76.77C616.94,-60.72 572.61,-46.03 540.96,-35.6"/>
<polygon fill="#63b8ff" stroke="#63b8ff" points="663.21,-80.1 673.8,-80 665.46,-73.47 663.21,-80.1"/>
</a>
</g>
</g>
<!-- Node11&#45;&gt;Node12 -->
<g id="edge14_Node000011_Node000012" class="edge">
<title>Node11&#45;&gt;Node12</title>
<g id="a_edge14_Node000011_Node000012"><a xlink:title=" ">
<path fill="none" stroke="#63b8ff" d="M102.18,-156.42C94.32,-145.34 85.85,-133.39 78.98,-123.7"/>
<polygon fill="#63b8ff" stroke="#63b8ff" points="99.39,-158.53 108.03,-164.66 105.1,-154.48 99.39,-158.53"/>
</a>
</g>
</g>
<!-- Node12&#45;&gt;Node4 -->
<g id="edge15_Node000012_Node000004" class="edge">
<title>Node12&#45;&gt;Node4</title>
<g id="a_edge15_Node000012_Node000004"><a xlink:title=" ">
<path fill="none" stroke="#63b8ff" d="M125.97,-79.46C129.01,-78.58 132.03,-77.75 135,-77 241.16,-50.19 368.26,-34.37 440.43,-26.87"/>
<polygon fill="#63b8ff" stroke="#63b8ff" points="124.8,-76.16 116.26,-82.43 126.85,-82.85 124.8,-76.16"/>
</a>
</g>
</g>
<!-- Node12&#45;&gt;Node8 -->
<g id="edge16_Node000012_Node000008" class="edge">
<title>Node12&#45;&gt;Node8</title>
<g id="a_edge16_Node000012_Node000008"><a xlink:title=" ">
<path fill="none" stroke="#63b8ff" d="M65.38,-71.76C65.53,-59.46 65.7,-45.83 65.82,-35.87"/>
<polygon fill="#63b8ff" stroke="#63b8ff" points="61.87,-72.06 65.25,-82.1 68.87,-72.15 61.87,-72.06"/>
</a>
</g>
</g>
<!-- Node14&#45;&gt;Node4 -->
<g id="edge20_Node000014_Node000004" class="edge">
<title>Node14&#45;&gt;Node4</title>
<g id="a_edge20_Node000014_Node000004"><a xlink:title=" ">
<path fill="none" stroke="#63b8ff" d="M877.35,-251.98C866.53,-242.41 854.78,-230.22 847,-217 814.3,-161.43 856.56,-120.53 809,-77 772.79,-43.86 635.17,-29.93 555.65,-24.55"/>
<polygon fill="#63b8ff" stroke="#63b8ff" points="875.1,-254.67 884.99,-258.47 879.63,-249.33 875.1,-254.67"/>
</a>
</g>
</g>
<!-- Node15 -->
<g id="Node000015" class="node">
<title>Node15</title>
<g id="a_Node000015"><a xlink:href="mosaic__connector__factory_8cpp.html" target="_top" xlink:title=" ">
<polygon fill="white" stroke="#666666" points="1002,-206 856,-206 856,-176 1002,-176 1002,-206"/>
<text text-anchor="start" x="864" y="-194" font-family="Helvetica,sans-Serif" font-size="10.00">src/core/mosaic_connector</text>
<text text-anchor="middle" x="929" y="-183" font-family="Helvetica,sans-Serif" font-size="10.00">_factory.cpp</text>
</a>
</g>
</g>
<!-- Node14&#45;&gt;Node15 -->
<g id="edge21_Node000014_Node000015" class="edge">
<title>Node14&#45;&gt;Node15</title>
<g id="a_edge21_Node000014_Node000015"><a xlink:title=" ">
<path fill="none" stroke="#63b8ff" d="M911.41,-248.65C915.7,-234.81 920.97,-217.87 924.61,-206.13"/>
<polygon fill="#63b8ff" stroke="#63b8ff" points="907.98,-247.89 908.35,-258.48 914.66,-249.97 907.98,-247.89"/>
</a>
</g>
</g>
<!-- Node16&#45;&gt;Node1 -->
<g id="edge23_Node000016_Node000001" class="edge">
<title>Node16&#45;&gt;Node1</title>
<g id="a_edge23_Node000016_Node000001"><a xlink:title=" ">
<path fill="none" stroke="#63b8ff" d="M1239.47,-298.73C1240.04,-309.16 1239.74,-320.99 1238.55,-329.94"/>
<polygon fill="#63b8ff" stroke="#63b8ff" points="1242.93,-298.19 1238.55,-288.54 1235.96,-298.82 1242.93,-298.19"/>
</a>
</g>
</g>
<!-- Node17 -->
<g id="Node000017" class="node">
<title>Node17</title>
<g id="a_Node000017"><a xlink:href="peer__connection__manager_8cpp.html" target="_top" xlink:title=" ">
<polygon fill="white" stroke="#666666" points="1302,-206 1164,-206 1164,-176 1302,-176 1302,-206"/>
<text text-anchor="start" x="1172" y="-194" font-family="Helvetica,sans-Serif" font-size="10.00">src/core/peer_connection</text>
<text text-anchor="middle" x="1233" y="-183" font-family="Helvetica,sans-Serif" font-size="10.00">_manager.cpp</text>
</a>
</g>
</g>
<!-- Node16&#45;&gt;Node17 -->
<g id="edge24_Node000016_Node000017" class="edge">
<title>Node16&#45;&gt;Node17</title>
<g id="a_edge24_Node000016_Node000017"><a xlink:title=" ">
<path fill="none" stroke="#63b8ff" d="M1233,-248.24C1233,-234.48 1233,-217.75 1233,-206.13"/>
<polygon fill="#63b8ff" stroke="#63b8ff" points="1229.5,-248.48 1233,-258.48 1236.5,-248.48 1229.5,-248.48"/>
</a>
</g>
</g>
<!-- Node18&#45;&gt;Node17 -->
<g id="edge27_Node000018_Node000017" class="edge">
<title>Node18&#45;&gt;Node17</title>
<g id="a_edge27_Node000018_Node000017"><a xlink:title=" ">
<path fill="none" stroke="#63b8ff" d="M1399.41,-254.89C1360.69,-240.26 1306.31,-219.71 1270.39,-206.13"/>
<polygon fill="#63b8ff" stroke="#63b8ff" points="1398.31,-258.22 1408.9,-258.48 1400.78,-251.67 1398.31,-258.22"/>
</a>
</g>
</g>
<!-- Node18&#45;&gt;Node19 -->
<g id="edge26_Node000018_Node000019" class="edge">
<title>Node18&#45;&gt;Node19</title>
<g id="a_edge26_Node000018_Node000019"><a xlink:title=" ">
<path fill="none" stroke="#63b8ff" d="M1433.75,-249.57C1425.1,-233.37 1413.96,-212.53 1407.75,-200.88"/>
<polygon fill="#63b8ff" stroke="#63b8ff" points="1430.71,-251.31 1438.51,-258.48 1436.89,-248.01 1430.71,-251.31"/>
</a>
</g>
</g>
<!-- Node18&#45;&gt;Node20 -->
<g id="edge28_Node000018_Node000020" class="edge">
<title>Node18&#45;&gt;Node20</title>
<g id="a_edge28_Node000018_Node000020"><a xlink:title=" ">
<path fill="none" stroke="#63b8ff" d="M1476.76,-253C1499.59,-238.53 1530.2,-219.13 1550.71,-206.13"/>
<polygon fill="#63b8ff" stroke="#63b8ff" points="1474.69,-250.17 1468.12,-258.48 1478.44,-256.08 1474.69,-250.17"/>
</a>
</g>
</g>
<!-- Node21&#45;&gt;Node15 -->
<g id="edge30_Node000021_Node000015" class="edge">
<title>Node21&#45;&gt;Node15</title>
<g id="a_edge30_Node000021_Node000015"><a xlink:title=" ">
<path fill="none" stroke="#63b8ff" d="M1034.99,-253.38C1009.94,-238.87 976.05,-219.25 953.4,-206.13"/>
<polygon fill="#63b8ff" stroke="#63b8ff" points="1033.38,-256.5 1043.79,-258.48 1036.89,-250.44 1033.38,-256.5"/>
</a>
</g>
</g>
<!-- Node22 -->
<g id="Node000022" class="node">
<title>Node22</title>
<g id="a_Node000022"><a xlink:href="signaling__client_8cpp.html" target="_top" xlink:title=" ">
<polygon fill="white" stroke="#666666" points="1145.5,-206 1020.5,-206 1020.5,-176 1145.5,-176 1145.5,-206"/>
<text text-anchor="start" x="1028.5" y="-194" font-family="Helvetica,sans-Serif" font-size="10.00">src/signaling/signaling</text>
<text text-anchor="middle" x="1083" y="-183" font-family="Helvetica,sans-Serif" font-size="10.00">_client.cpp</text>
</a>
</g>
</g>
<!-- Node21&#45;&gt;Node22 -->
<g id="edge31_Node000021_Node000022" class="edge">
<title>Node21&#45;&gt;Node22</title>
<g id="a_edge31_Node000021_Node000022"><a xlink:title=" ">
<path fill="none" stroke="#63b8ff" d="M1072.44,-248.65C1075.02,-234.81 1078.18,-217.87 1080.37,-206.13"/>
<polygon fill="#63b8ff" stroke="#63b8ff" points="1069,-248.01 1070.61,-258.48 1075.89,-249.29 1069,-248.01"/>
</a>
</g>
</g>
</g>
</svg>
