<?xml version="1.0" encoding="UTF-8" standalone="no"?>
<!DOCTYPE svg PUBLIC "-//W3C//DTD SVG 1.1//EN"
 "http://www.w3.org/Graphics/SVG/1.1/DTD/svg11.dtd">
<!-- Generated by graphviz version 2.43.0 (0)
 -->
<!-- Title: include/mosaic/core/mosaic_connector.h Pages: 1 -->
<svg width="1630pt" height="357pt"
 viewBox="0.00 0.00 1629.50 357.00" xmlns="http://www.w3.org/2000/svg" xmlns:xlink="http://www.w3.org/1999/xlink">
<g id="graph0" class="graph" transform="scale(1 1) rotate(0) translate(4 353)">
<title>include/mosaic/core/mosaic_connector.h</title>
<!-- Node1 -->
<g id="Node000001" class="node">
<title>Node1</title>
<g id="a_Node000001"><a xlink:title=" ">
<polygon fill="#999999" stroke="#666666" points="1265.5,-349 1149.5,-349 1149.5,-319 1265.5,-319 1265.5,-349"/>
<text text-anchor="start" x="1157.5" y="-337" font-family="Helvetica,sans-Serif" font-size="10.00">include/mosaic/core</text>
<text text-anchor="middle" x="1207.5" y="-326" font-family="Helvetica,sans-Serif" font-size="10.00">/mosaic_connector.h</text>
</a>
</g>
</g>
<!-- Node2 -->
<g id="Node000002" class="node">
<title>Node2</title>
<g id="a_Node000002"><a xlink:href="i__configurable__connector_8h.html" target="_top" xlink:title=" ">
<polygon fill="white" stroke="#666666" points="473,-283 324,-283 324,-242 473,-242 473,-283"/>
<text text-anchor="start" x="332" y="-271" font-family="Helvetica,sans-Serif" font-size="10.00">include/mosaic/auto</text>
<text text-anchor="start" x="332" y="-260" font-family="Helvetica,sans-Serif" font-size="10.00">_configurer/connector</text>
<text text-anchor="middle" x="398.5" y="-249" font-family="Helvetica,sans-Serif" font-size="10.00">/i_configurable_connector.h</text>
</a>
</g>
</g>
<!-- Node1&#45;&gt;Node2 -->
<g id="edge1_Node000001_Node000002" class="edge">
<title>Node1&#45;&gt;Node2</title>
<g id="a_edge1_Node000001_Node000002"><a xlink:title=" ">
<path fill="none" stroke="#63b8ff" d="M1139.28,-327.14C988.77,-314.21 629.23,-283.32 473.05,-269.9"/>
<polygon fill="#63b8ff" stroke="#63b8ff" points="1139.06,-330.63 1149.32,-328 1139.66,-323.66 1139.06,-330.63"/>
</a>
</g>
</g>
<!-- Node12 -->
<g id="Node000012" class="node">
<title>Node12</title>
<g id="a_Node000012"><a xlink:href="mosaic__connector__factory_8h.html" target="_top" xlink:title=" ">
<polygon fill="white" stroke="#666666" points="956,-277.5 801,-277.5 801,-247.5 956,-247.5 956,-277.5"/>
<text text-anchor="start" x="809" y="-265.5" font-family="Helvetica,sans-Serif" font-size="10.00">include/mosaic/core</text>
<text text-anchor="middle" x="878.5" y="-254.5" font-family="Helvetica,sans-Serif" font-size="10.00">/mosaic_connector_factory.h</text>
</a>
</g>
</g>
<!-- Node1&#45;&gt;Node12 -->
<g id="edge16_Node000001_Node000012" class="edge">
<title>Node1&#45;&gt;Node12</title>
<g id="a_edge16_Node000001_Node000012"><a xlink:title=" ">
<path fill="none" stroke="#63b8ff" d="M1139.69,-319.43C1090.91,-309.57 1023.58,-295.77 964.5,-283 956.57,-281.29 948.24,-279.44 940.01,-277.6"/>
<polygon fill="#63b8ff" stroke="#63b8ff" points="1139,-322.86 1149.5,-321.4 1140.39,-316 1139,-322.86"/>
</a>
</g>
</g>
<!-- Node14 -->
<g id="Node000014" class="node">
<title>Node14</title>
<g id="a_Node000014"><a xlink:href="peer__connection__manager_8h.html" target="_top" xlink:title=" ">
<polygon fill="white" stroke="#666666" points="1286,-277.5 1129,-277.5 1129,-247.5 1286,-247.5 1286,-277.5"/>
<text text-anchor="start" x="1137" y="-265.5" font-family="Helvetica,sans-Serif" font-size="10.00">include/mosaic/core</text>
<text text-anchor="middle" x="1207.5" y="-254.5" font-family="Helvetica,sans-Serif" font-size="10.00">/peer_connection_manager.h</text>
</a>
</g>
</g>
<!-- Node1&#45;&gt;Node14 -->
<g id="edge19_Node000001_Node000014" class="edge">
<title>Node1&#45;&gt;Node14</title>
<g id="a_edge19_Node000001_Node000014"><a xlink:title=" ">
<path fill="none" stroke="#63b8ff" d="M1201.03,-308.75C1200.46,-298.31 1200.76,-286.49 1201.95,-277.54"/>
<polygon fill="#63b8ff" stroke="#63b8ff" points="1197.57,-309.29 1201.95,-318.94 1204.54,-308.66 1197.57,-309.29"/>
</a>
</g>
</g>
<!-- Node16 -->
<g id="Node000016" class="node">
<title>Node16</title>
<g id="a_Node000016"><a xlink:href="peer__connection__observer_8h.html" target="_top" xlink:title=" ">
<polygon fill="white" stroke="#666666" points="1460.5,-277.5 1304.5,-277.5 1304.5,-247.5 1460.5,-247.5 1460.5,-277.5"/>
<text text-anchor="start" x="1312.5" y="-265.5" font-family="Helvetica,sans-Serif" font-size="10.00">include/mosaic/core</text>
<text text-anchor="middle" x="1382.5" y="-254.5" font-family="Helvetica,sans-Serif" font-size="10.00">/peer_connection_observer.h</text>
</a>
</g>
</g>
<!-- Node1&#45;&gt;Node16 -->
<g id="edge22_Node000001_Node000016" class="edge">
<title>Node1&#45;&gt;Node16</title>
<g id="a_edge22_Node000001_Node000016"><a xlink:title=" ">
<path fill="none" stroke="#63b8ff" d="M1252.54,-315.11C1281.98,-303.42 1319.87,-288.37 1347.14,-277.54"/>
<polygon fill="#63b8ff" stroke="#63b8ff" points="1250.92,-311.99 1242.91,-318.94 1253.5,-318.5 1250.92,-311.99"/>
</a>
</g>
</g>
<!-- Node17 -->
<g id="Node000017" class="node">
<title>Node17</title>
<g id="a_Node000017"><a xlink:href="mosaic__connector_8cpp.html" target="_top" xlink:title=" ">
<polygon fill="white" stroke="#666666" points="1465.5,-189.5 1299.5,-189.5 1299.5,-170.5 1465.5,-170.5 1465.5,-189.5"/>
<text text-anchor="middle" x="1382.5" y="-177.5" font-family="Helvetica,sans-Serif" font-size="10.00">src/core/mosaic_connector.cpp</text>
</a>
</g>
</g>
<!-- Node1&#45;&gt;Node17 -->
<g id="edge29_Node000001_Node000017" class="edge">
<title>Node1&#45;&gt;Node17</title>
<g id="a_edge29_Node000001_Node000017"><a xlink:title=" ">
<path fill="none" stroke="#63b8ff" d="M1275.7,-329.58C1344.95,-324.5 1445.34,-312.2 1469.5,-283 1481.11,-268.96 1477.91,-258.17 1469.5,-242 1456.05,-216.14 1426.06,-198.97 1405.07,-189.61"/>
<polygon fill="#63b8ff" stroke="#63b8ff" points="1275.45,-326.09 1265.72,-330.27 1275.94,-333.07 1275.45,-326.09"/>
</a>
</g>
</g>
<!-- Node18 -->
<g id="Node000018" class="node">
<title>Node18</title>
<g id="a_Node000018"><a xlink:href="peer__connection__observer_8cpp.html" target="_top" xlink:title=" ">
<polygon fill="white" stroke="#666666" points="1621.5,-195 1483.5,-195 1483.5,-165 1621.5,-165 1621.5,-195"/>
<text text-anchor="start" x="1491.5" y="-183" font-family="Helvetica,sans-Serif" font-size="10.00">src/core/peer_connection</text>
<text text-anchor="middle" x="1552.5" y="-172" font-family="Helvetica,sans-Serif" font-size="10.00">_observer.cpp</text>
</a>
</g>
</g>
<!-- Node1&#45;&gt;Node18 -->
<g id="edge30_Node000001_Node000018" class="edge">
<title>Node1&#45;&gt;Node18</title>
<g id="a_edge30_Node000001_Node000018"><a xlink:title=" ">
<path fill="none" stroke="#63b8ff" d="M1275.8,-327.12C1347.26,-319.87 1453.67,-305.65 1487.5,-283 1519.78,-261.38 1539.35,-217.74 1547.72,-195.2"/>
<polygon fill="#63b8ff" stroke="#63b8ff" points="1275.13,-323.67 1265.52,-328.14 1275.82,-330.63 1275.13,-323.67"/>
</a>
</g>
</g>
<!-- Node19 -->
<g id="Node000019" class="node">
<title>Node19</title>
<g id="a_Node000019"><a xlink:href="signaling__client_8h.html" target="_top" xlink:title=" ">
<polygon fill="white" stroke="#666666" points="1111,-277.5 974,-277.5 974,-247.5 1111,-247.5 1111,-277.5"/>
<text text-anchor="start" x="982" y="-265.5" font-family="Helvetica,sans-Serif" font-size="10.00">include/mosaic/signaling</text>
<text text-anchor="middle" x="1042.5" y="-254.5" font-family="Helvetica,sans-Serif" font-size="10.00">/signaling_client.h</text>
</a>
</g>
</g>
<!-- Node1&#45;&gt;Node19 -->
<g id="edge26_Node000001_Node000019" class="edge">
<title>Node1&#45;&gt;Node19</title>
<g id="a_edge26_Node000001_Node000019"><a xlink:title=" ">
<path fill="none" stroke="#63b8ff" d="M1164.67,-314.96C1136.97,-303.29 1101.44,-288.32 1075.84,-277.54"/>
<polygon fill="#63b8ff" stroke="#63b8ff" points="1163.54,-318.28 1174.11,-318.94 1166.25,-311.83 1163.54,-318.28"/>
</a>
</g>
</g>
<!-- Node3 -->
<g id="Node000003" class="node">
<title>Node3</title>
<g id="a_Node000003"><a xlink:href="auto__configurer_8h.html" target="_top" xlink:title=" ">
<polygon fill="white" stroke="#666666" points="615.5,-107 457.5,-107 457.5,-77 615.5,-77 615.5,-107"/>
<text text-anchor="start" x="465.5" y="-95" font-family="Helvetica,sans-Serif" font-size="10.00">include/mosaic/auto</text>
<text text-anchor="middle" x="536.5" y="-84" font-family="Helvetica,sans-Serif" font-size="10.00">_configurer/auto_configurer.h</text>
</a>
</g>
</g>
<!-- Node2&#45;&gt;Node3 -->
<g id="edge2_Node000002_Node000003" class="edge">
<title>Node2&#45;&gt;Node3</title>
<g id="a_edge2_Node000002_Node000003"><a xlink:title=" ">
<path fill="none" stroke="#63b8ff" d="M420.95,-234.08C450.68,-197.78 502.01,-135.11 524.9,-107.16"/>
<polygon fill="#63b8ff" stroke="#63b8ff" points="418.23,-231.89 414.6,-241.84 423.64,-236.32 418.23,-231.89"/>
</a>
</g>
</g>
<!-- Node5 -->
<g id="Node000005" class="node">
<title>Node5</title>
<g id="a_Node000005"><a xlink:href="a__dc__handler__configurer_8h.html" target="_top" xlink:title=" ">
<polygon fill="white" stroke="#666666" points="779.5,-112.5 633.5,-112.5 633.5,-71.5 779.5,-71.5 779.5,-112.5"/>
<text text-anchor="start" x="641.5" y="-100.5" font-family="Helvetica,sans-Serif" font-size="10.00">include/mosaic/auto</text>
<text text-anchor="start" x="641.5" y="-89.5" font-family="Helvetica,sans-Serif" font-size="10.00">_configurer/connector</text>
<text text-anchor="middle" x="706.5" y="-78.5" font-family="Helvetica,sans-Serif" font-size="10.00">/a_dc_handler_configurer.h</text>
</a>
</g>
</g>
<!-- Node2&#45;&gt;Node5 -->
<g id="edge4_Node000002_Node000005" class="edge">
<title>Node2&#45;&gt;Node5</title>
<g id="a_edge4_Node000002_Node000005"><a xlink:title=" ">
<path fill="none" stroke="#63b8ff" d="M443.53,-236.86C505.15,-203.16 614.49,-143.34 670.79,-112.53"/>
<polygon fill="#63b8ff" stroke="#63b8ff" points="441.53,-233.97 434.43,-241.84 444.89,-240.11 441.53,-233.97"/>
</a>
</g>
</g>
<!-- Node6 -->
<g id="Node000006" class="node">
<title>Node6</title>
<g id="a_Node000006"><a xlink:href="a__mt__handler__configurer_8h.html" target="_top" xlink:title=" ">
<polygon fill="white" stroke="#666666" points="295,-112.5 146,-112.5 146,-71.5 295,-71.5 295,-112.5"/>
<text text-anchor="start" x="154" y="-100.5" font-family="Helvetica,sans-Serif" font-size="10.00">include/mosaic/auto</text>
<text text-anchor="start" x="154" y="-89.5" font-family="Helvetica,sans-Serif" font-size="10.00">_configurer/connector</text>
<text text-anchor="middle" x="220.5" y="-78.5" font-family="Helvetica,sans-Serif" font-size="10.00">/a_mt_handler_configurer.h</text>
</a>
</g>
</g>
<!-- Node2&#45;&gt;Node6 -->
<g id="edge6_Node000002_Node000006" class="edge">
<title>Node2&#45;&gt;Node6</title>
<g id="a_edge6_Node000002_Node000006"><a xlink:title=" ">
<path fill="none" stroke="#63b8ff" d="M394.27,-231.74C389.49,-208.06 379.6,-175.46 359.5,-154 347.43,-141.11 309.91,-125 276.89,-112.58"/>
<polygon fill="#63b8ff" stroke="#63b8ff" points="390.83,-232.39 396.06,-241.6 397.71,-231.13 390.83,-232.39"/>
</a>
</g>
</g>
<!-- Node7 -->
<g id="Node000007" class="node">
<title>Node7</title>
<g id="a_Node000007"><a xlink:href="a__parallel__dc__handler__configurer_8h.html" target="_top" xlink:title=" ">
<polygon fill="white" stroke="#666666" points="439.5,-118 313.5,-118 313.5,-66 439.5,-66 439.5,-118"/>
<text text-anchor="start" x="321.5" y="-106" font-family="Helvetica,sans-Serif" font-size="10.00">include/mosaic/auto</text>
<text text-anchor="start" x="321.5" y="-95" font-family="Helvetica,sans-Serif" font-size="10.00">_configurer/connector</text>
<text text-anchor="start" x="321.5" y="-84" font-family="Helvetica,sans-Serif" font-size="10.00">/a_parallel_dc_handler</text>
<text text-anchor="middle" x="376.5" y="-73" font-family="Helvetica,sans-Serif" font-size="10.00">_configurer.h</text>
</a>
</g>
</g>
<!-- Node2&#45;&gt;Node7 -->
<g id="edge8_Node000002_Node000007" class="edge">
<title>Node2&#45;&gt;Node7</title>
<g id="a_edge8_Node000002_Node000007"><a xlink:title=" ">
<path fill="none" stroke="#63b8ff" d="M398.91,-231.73C398.77,-210.04 397.68,-180.04 393.5,-154 391.58,-142.06 388.18,-129.12 384.91,-118.24"/>
<polygon fill="#63b8ff" stroke="#63b8ff" points="395.41,-231.94 398.91,-241.94 402.41,-231.95 395.41,-231.94"/>
</a>
</g>
</g>
<!-- Node8 -->
<g id="Node000008" class="node">
<title>Node8</title>
<g id="a_Node000008"><a xlink:href="configurable__connector__factory_8h.html" target="_top" xlink:title=" ">
<polygon fill="white" stroke="#666666" points="133,-206 0,-206 0,-154 133,-154 133,-206"/>
<text text-anchor="start" x="8" y="-194" font-family="Helvetica,sans-Serif" font-size="10.00">include/mosaic/auto</text>
<text text-anchor="start" x="8" y="-183" font-family="Helvetica,sans-Serif" font-size="10.00">_configurer/connector</text>
<text text-anchor="start" x="8" y="-172" font-family="Helvetica,sans-Serif" font-size="10.00">/configurable_connector</text>
<text text-anchor="middle" x="66.5" y="-161" font-family="Helvetica,sans-Serif" font-size="10.00">_factory.h</text>
</a>
</g>
</g>
<!-- Node2&#45;&gt;Node8 -->
<g id="edge10_Node000002_Node000008" class="edge">
<title>Node2&#45;&gt;Node8</title>
<g id="a_edge10_Node000002_Node000008"><a xlink:title=" ">
<path fill="none" stroke="#63b8ff" d="M314.08,-244.63C265.19,-234.41 202.6,-220.57 147.5,-206 142.8,-204.76 137.97,-203.42 133.12,-202.03"/>
<polygon fill="#63b8ff" stroke="#63b8ff" points="313.48,-248.08 323.98,-246.69 314.9,-241.23 313.48,-248.08"/>
</a>
</g>
</g>
<!-- Node9 -->
<g id="Node000009" class="node">
<title>Node9</title>
<g id="a_Node000009"><a xlink:href="connector__resolver_8h.html" target="_top" xlink:title=" ">
<polygon fill="white" stroke="#666666" points="127.5,-112.5 5.5,-112.5 5.5,-71.5 127.5,-71.5 127.5,-112.5"/>
<text text-anchor="start" x="13.5" y="-100.5" font-family="Helvetica,sans-Serif" font-size="10.00">include/mosaic/auto</text>
<text text-anchor="start" x="13.5" y="-89.5" font-family="Helvetica,sans-Serif" font-size="10.00">_configurer/connector</text>
<text text-anchor="middle" x="66.5" y="-78.5" font-family="Helvetica,sans-Serif" font-size="10.00">/connector_resolver.h</text>
</a>
</g>
</g>
<!-- Node2&#45;&gt;Node9 -->
<g id="edge14_Node000002_Node000009" class="edge">
<title>Node2&#45;&gt;Node9</title>
<g id="a_edge14_Node000002_Node000009"><a xlink:title=" ">
<path fill="none" stroke="#63b8ff" d="M313.66,-253.4C270.9,-246.12 219.9,-232.28 180.5,-206 156.47,-189.97 161.52,-174.83 141.5,-154 126.96,-138.88 108.74,-123.98 93.9,-112.69"/>
<polygon fill="#63b8ff" stroke="#63b8ff" points="313.34,-256.9 323.77,-255.03 314.46,-249.99 313.34,-256.9"/>
</a>
</g>
</g>
<!-- Node11 -->
<g id="Node000011" class="node">
<title>Node11</title>
<g id="a_Node000011"><a xlink:href="i__configurable__connector_8cpp.html" target="_top" xlink:title=" ">
<polygon fill="white" stroke="#666666" points="351,-195 190,-195 190,-165 351,-165 351,-195"/>
<text text-anchor="start" x="198" y="-183" font-family="Helvetica,sans-Serif" font-size="10.00">src/auto_configurer</text>
<text text-anchor="middle" x="270.5" y="-172" font-family="Helvetica,sans-Serif" font-size="10.00">/i_configurable_connector.cpp</text>
</a>
</g>
</g>
<!-- Node2&#45;&gt;Node11 -->
<g id="edge15_Node000002_Node000011" class="edge">
<title>Node2&#45;&gt;Node11</title>
<g id="a_edge15_Node000002_Node000011"><a xlink:title=" ">
<path fill="none" stroke="#63b8ff" d="M358.55,-236.37C336.98,-222.81 311.15,-206.56 293.06,-195.19"/>
<polygon fill="#63b8ff" stroke="#63b8ff" points="356.86,-239.45 367.19,-241.81 360.59,-233.52 356.86,-239.45"/>
</a>
</g>
</g>
<!-- Node4 -->
<g id="Node000004" class="node">
<title>Node4</title>
<g id="a_Node000004"><a xlink:href="auto__configurer_8cpp.html" target="_top" xlink:title=" ">
<polygon fill="white" stroke="#666666" points="514,-30 399,-30 399,0 514,0 514,-30"/>
<text text-anchor="start" x="407" y="-18" font-family="Helvetica,sans-Serif" font-size="10.00">src/auto_configurer</text>
<text text-anchor="middle" x="456.5" y="-7" font-family="Helvetica,sans-Serif" font-size="10.00">/auto_configurer.cpp</text>
</a>
</g>
</g>
<!-- Node3&#45;&gt;Node4 -->
<g id="edge3_Node000003_Node000004" class="edge">
<title>Node3&#45;&gt;Node4</title>
<g id="a_edge3_Node000003_Node000004"><a xlink:title=" ">
<path fill="none" stroke="#63b8ff" d="M513.9,-69.82C500.32,-57.08 483.42,-41.24 471.48,-30.04"/>
<polygon fill="#63b8ff" stroke="#63b8ff" points="511.76,-72.61 521.45,-76.89 516.55,-67.5 511.76,-72.61"/>
</a>
</g>
</g>
<!-- Node5&#45;&gt;Node4 -->
<g id="edge5_Node000005_Node000004" class="edge">
<title>Node5&#45;&gt;Node4</title>
<g id="a_edge5_Node000005_Node000004"><a xlink:title=" ">
<path fill="none" stroke="#63b8ff" d="M632.85,-68.52C630.03,-67.67 627.24,-66.83 624.5,-66 583.85,-53.76 537.62,-40.01 503.96,-30.03"/>
<polygon fill="#63b8ff" stroke="#63b8ff" points="631.91,-71.89 642.5,-71.44 633.94,-65.19 631.91,-71.89"/>
</a>
</g>
</g>
<!-- Node6&#45;&gt;Node4 -->
<g id="edge7_Node000006_Node000004" class="edge">
<title>Node6&#45;&gt;Node4</title>
<g id="a_edge7_Node000006_Node000004"><a xlink:title=" ">
<path fill="none" stroke="#63b8ff" d="M291.66,-68.38C330.86,-55.93 378.29,-40.86 412.19,-30.08"/>
<polygon fill="#63b8ff" stroke="#63b8ff" points="290.36,-65.13 281.89,-71.49 292.48,-71.8 290.36,-65.13"/>
</a>
</g>
</g>
<!-- Node7&#45;&gt;Node4 -->
<g id="edge9_Node000007_Node000004" class="edge">
<title>Node7&#45;&gt;Node4</title>
<g id="a_edge9_Node000007_Node000004"><a xlink:title=" ">
<path fill="none" stroke="#63b8ff" d="M411.09,-58.57C421.58,-48.74 432.57,-38.44 441.11,-30.43"/>
<polygon fill="#63b8ff" stroke="#63b8ff" points="408.49,-56.22 403.58,-65.61 413.27,-61.32 408.49,-56.22"/>
</a>
</g>
</g>
<!-- Node8&#45;&gt;Node9 -->
<g id="edge11_Node000008_Node000009" class="edge">
<title>Node8&#45;&gt;Node9</title>
<g id="a_edge11_Node000008_Node000009"><a xlink:title=" ">
<path fill="none" stroke="#63b8ff" d="M66.5,-143.45C66.5,-132.94 66.5,-121.82 66.5,-112.7"/>
<polygon fill="#63b8ff" stroke="#63b8ff" points="63,-143.66 66.5,-153.66 70,-143.66 63,-143.66"/>
</a>
</g>
</g>
<!-- Node9&#45;&gt;Node4 -->
<g id="edge12_Node000009_Node000004" class="edge">
<title>Node9&#45;&gt;Node4</title>
<g id="a_edge12_Node000009_Node000004"><a xlink:title=" ">
<path fill="none" stroke="#63b8ff" d="M127.48,-68.47C130.51,-67.58 133.53,-66.75 136.5,-66 226.83,-43.03 334.33,-28.84 398.91,-21.7"/>
<polygon fill="#63b8ff" stroke="#63b8ff" points="126.3,-65.17 117.77,-71.45 128.35,-71.86 126.3,-65.17"/>
</a>
</g>
</g>
<!-- Node10 -->
<g id="Node000010" class="node">
<title>Node10</title>
<g id="a_Node000010"><a xlink:href="connector__resolver_8cpp.html" target="_top" xlink:title=" ">
<polygon fill="white" stroke="#666666" points="132.5,-30 0.5,-30 0.5,0 132.5,0 132.5,-30"/>
<text text-anchor="start" x="8.5" y="-18" font-family="Helvetica,sans-Serif" font-size="10.00">src/auto_configurer</text>
<text text-anchor="middle" x="66.5" y="-7" font-family="Helvetica,sans-Serif" font-size="10.00">/connector_resolver.cpp</text>
</a>
</g>
</g>
<!-- Node9&#45;&gt;Node10 -->
<g id="edge13_Node000009_Node000010" class="edge">
<title>Node9&#45;&gt;Node10</title>
<g id="a_edge13_Node000009_Node000010"><a xlink:title=" ">
<path fill="none" stroke="#63b8ff" d="M66.5,-61.11C66.5,-50.51 66.5,-39.07 66.5,-30.36"/>
<polygon fill="#63b8ff" stroke="#63b8ff" points="63,-61.29 66.5,-71.29 70,-61.29 63,-61.29"/>
</a>
</g>
</g>
<!-- Node12&#45;&gt;Node4 -->
<g id="edge17_Node000012_Node000004" class="edge">
<title>Node12&#45;&gt;Node4</title>
<g id="a_edge17_Node000012_Node000004"><a xlink:title=" ">
<path fill="none" stroke="#63b8ff" d="M853.66,-240.02C843.96,-230.47 833.51,-218.56 826.5,-206 795.08,-149.7 836.65,-108.88 788.5,-66 748.94,-30.77 598.21,-20.36 514.1,-17.29"/>
<polygon fill="#63b8ff" stroke="#63b8ff" points="851.53,-242.82 861.2,-247.14 856.33,-237.73 851.53,-242.82"/>
</a>
</g>
</g>
<!-- Node13 -->
<g id="Node000013" class="node">
<title>Node13</title>
<g id="a_Node000013"><a xlink:href="mosaic__connector__factory_8cpp.html" target="_top" xlink:title=" ">
<polygon fill="white" stroke="#666666" points="981.5,-195 835.5,-195 835.5,-165 981.5,-165 981.5,-195"/>
<text text-anchor="start" x="843.5" y="-183" font-family="Helvetica,sans-Serif" font-size="10.00">src/core/mosaic_connector</text>
<text text-anchor="middle" x="908.5" y="-172" font-family="Helvetica,sans-Serif" font-size="10.00">_factory.cpp</text>
</a>
</g>
</g>
<!-- Node12&#45;&gt;Node13 -->
<g id="edge18_Node000012_Node000013" class="edge">
<title>Node12&#45;&gt;Node13</title>
<g id="a_edge18_Node000012_Node000013"><a xlink:title=" ">
<path fill="none" stroke="#63b8ff" d="M887.24,-238.05C892.42,-224.15 898.82,-206.98 903.23,-195.13"/>
<polygon fill="#63b8ff" stroke="#63b8ff" points="883.94,-236.89 883.73,-247.48 890.5,-239.33 883.94,-236.89"/>
</a>
</g>
</g>
<!-- Node14&#45;&gt;Node1 -->
<g id="edge20_Node000014_Node000001" class="edge">
<title>Node14&#45;&gt;Node1</title>
<g id="a_edge20_Node000014_Node000001"><a xlink:title=" ">
<path fill="none" stroke="#63b8ff" d="M1213.97,-287.73C1214.54,-298.16 1214.24,-309.99 1213.05,-318.94"/>
<polygon fill="#63b8ff" stroke="#63b8ff" points="1217.43,-287.19 1213.05,-277.54 1210.46,-287.82 1217.43,-287.19"/>
</a>
</g>
</g>
<!-- Node15 -->
<g id="Node000015" class="node">
<title>Node15</title>
<g id="a_Node000015"><a xlink:href="peer__connection__manager_8cpp.html" target="_top" xlink:title=" ">
<polygon fill="white" stroke="#666666" points="1281.5,-195 1143.5,-195 1143.5,-165 1281.5,-165 1281.5,-195"/>
<text text-anchor="start" x="1151.5" y="-183" font-family="Helvetica,sans-Serif" font-size="10.00">src/core/peer_connection</text>
<text text-anchor="middle" x="1212.5" y="-172" font-family="Helvetica,sans-Serif" font-size="10.00">_manager.cpp</text>
</a>
</g>
</g>
<!-- Node14&#45;&gt;Node15 -->
<g id="edge21_Node000014_Node000015" class="edge">
<title>Node14&#45;&gt;Node15</title>
<g id="a_edge21_Node000014_Node000015"><a xlink:title=" ">
<path fill="none" stroke="#63b8ff" d="M1209.01,-237.24C1209.86,-223.48 1210.9,-206.75 1211.62,-195.13"/>
<polygon fill="#63b8ff" stroke="#63b8ff" points="1205.5,-237.28 1208.37,-247.48 1212.48,-237.71 1205.5,-237.28"/>
</a>
</g>
</g>
<!-- Node16&#45;&gt;Node15 -->
<g id="edge24_Node000016_Node000015" class="edge">
<title>Node16&#45;&gt;Node15</title>
<g id="a_edge24_Node000016_Node000015"><a xlink:title=" ">
<path fill="none" stroke="#63b8ff" d="M1343.74,-243.14C1312.95,-228.56 1270.53,-208.48 1242.34,-195.13"/>
<polygon fill="#63b8ff" stroke="#63b8ff" points="1342.35,-246.36 1352.89,-247.48 1345.35,-240.03 1342.35,-246.36"/>
</a>
</g>
</g>
<!-- Node16&#45;&gt;Node17 -->
<g id="edge23_Node000016_Node000017" class="edge">
<title>Node16&#45;&gt;Node17</title>
<g id="a_edge23_Node000016_Node000017"><a xlink:title=" ">
<path fill="none" stroke="#63b8ff" d="M1382.5,-237.2C1382.5,-221.2 1382.5,-201.2 1382.5,-189.88"/>
<polygon fill="#63b8ff" stroke="#63b8ff" points="1379,-237.48 1382.5,-247.48 1386,-237.48 1379,-237.48"/>
</a>
</g>
</g>
<!-- Node16&#45;&gt;Node18 -->
<g id="edge25_Node000016_Node000018" class="edge">
<title>Node16&#45;&gt;Node18</title>
<g id="a_edge25_Node000016_Node000018"><a xlink:title=" ">
<path fill="none" stroke="#63b8ff" d="M1421.26,-243.14C1452.05,-228.56 1494.47,-208.48 1522.66,-195.13"/>
<polygon fill="#63b8ff" stroke="#63b8ff" points="1419.65,-240.03 1412.11,-247.48 1422.65,-246.36 1419.65,-240.03"/>
</a>
</g>
</g>
<!-- Node19&#45;&gt;Node13 -->
<g id="edge27_Node000019_Node000013" class="edge">
<title>Node19&#45;&gt;Node13</title>
<g id="a_edge27_Node000019_Node000013"><a xlink:title=" ">
<path fill="none" stroke="#63b8ff" d="M1010.36,-242.19C986.24,-227.7 953.76,-208.19 932.02,-195.13"/>
<polygon fill="#63b8ff" stroke="#63b8ff" points="1008.78,-245.33 1019.16,-247.48 1012.39,-239.33 1008.78,-245.33"/>
</a>
</g>
</g>
<!-- Node20 -->
<g id="Node000020" class="node">
<title>Node20</title>
<g id="a_Node000020"><a xlink:href="signaling__client_8cpp.html" target="_top" xlink:title=" ">
<polygon fill="white" stroke="#666666" points="1125,-195 1000,-195 1000,-165 1125,-165 1125,-195"/>
<text text-anchor="start" x="1008" y="-183" font-family="Helvetica,sans-Serif" font-size="10.00">src/signaling/signaling</text>
<text text-anchor="middle" x="1062.5" y="-172" font-family="Helvetica,sans-Serif" font-size="10.00">_client.cpp</text>
</a>
</g>
</g>
<!-- Node19&#45;&gt;Node20 -->
<g id="edge28_Node000019_Node000020" class="edge">
<title>Node19&#45;&gt;Node20</title>
<g id="a_edge28_Node000019_Node000020"><a xlink:title=" ">
<path fill="none" stroke="#63b8ff" d="M1048.43,-237.65C1051.86,-223.81 1056.07,-206.87 1058.99,-195.13"/>
<polygon fill="#63b8ff" stroke="#63b8ff" points="1045,-236.93 1045.98,-247.48 1051.79,-238.62 1045,-236.93"/>
</a>
</g>
</g>
</g>
</svg>
