<?xml version="1.0" encoding="UTF-8" standalone="no"?>
<!DOCTYPE svg PUBLIC "-//W3C//DTD SVG 1.1//EN"
 "http://www.w3.org/Graphics/SVG/1.1/DTD/svg11.dtd">
<!-- Generated by graphviz version 2.43.0 (0)
 -->
<!-- Title: src/core/mosaic_connector.cpp Pages: 1 -->
<svg width="1230pt" height="489pt"
 viewBox="0.00 0.00 1230.00 489.00" xmlns="http://www.w3.org/2000/svg" xmlns:xlink="http://www.w3.org/1999/xlink">
<g id="graph0" class="graph" transform="scale(1 1) rotate(0) translate(4 485)">
<title>src/core/mosaic_connector.cpp</title>
<!-- Node1 -->
<g id="Node000001" class="node">
<title>Node1</title>
<g id="a_Node000001"><a xlink:title=" ">
<polygon fill="#999999" stroke="#666666" points="824.5,-481 658.5,-481 658.5,-462 824.5,-462 824.5,-481"/>
<text text-anchor="middle" x="741.5" y="-469" font-family="Helvetica,sans-Serif" font-size="10.00">src/core/mosaic_connector.cpp</text>
</a>
</g>
</g>
<!-- Node2 -->
<g id="Node000002" class="node">
<title>Node2</title>
<g id="a_Node000002"><a xlink:title=" ">
<polygon fill="#e0e0e0" stroke="#999999" points="616,-211.5 571,-211.5 571,-192.5 616,-192.5 616,-211.5"/>
<text text-anchor="middle" x="593.5" y="-199.5" font-family="Helvetica,sans-Serif" font-size="10.00">utility</text>
</a>
</g>
</g>
<!-- Node1&#45;&gt;Node2 -->
<g id="edge1_Node000001_Node000002" class="edge">
<title>Node1&#45;&gt;Node2</title>
<g id="a_edge1_Node000001_Node000002"><a xlink:title=" ">
<path fill="none" stroke="#63b8ff" d="M736.74,-461.9C715.87,-424.18 632.14,-272.84 603.31,-220.74"/>
<polygon fill="#63b8ff" stroke="#63b8ff" points="606.22,-218.76 598.31,-211.7 600.09,-222.14 606.22,-218.76"/>
</a>
</g>
</g>
<!-- Node3 -->
<g id="Node000003" class="node">
<title>Node3</title>
<g id="a_Node000003"><a xlink:title=" ">
<polygon fill="#e0e0e0" stroke="#999999" points="1044.5,-426 904.5,-426 904.5,-396 1044.5,-396 1044.5,-426"/>
<text text-anchor="start" x="912.5" y="-414" font-family="Helvetica,sans-Serif" font-size="10.00">api/audio_codecs/builtin</text>
<text text-anchor="middle" x="974.5" y="-403" font-family="Helvetica,sans-Serif" font-size="10.00">_audio_decoder_factory.h</text>
</a>
</g>
</g>
<!-- Node1&#45;&gt;Node3 -->
<g id="edge2_Node000001_Node000003" class="edge">
<title>Node1&#45;&gt;Node3</title>
<g id="a_edge2_Node000001_Node000003"><a xlink:title=" ">
<path fill="none" stroke="#63b8ff" d="M775.38,-461.99C810.16,-453.26 865.17,-439.45 908.57,-428.55"/>
<polygon fill="#63b8ff" stroke="#63b8ff" points="909.64,-431.89 918.48,-426.06 907.93,-425.1 909.64,-431.89"/>
</a>
</g>
</g>
<!-- Node4 -->
<g id="Node000004" class="node">
<title>Node4</title>
<g id="a_Node000004"><a xlink:title=" ">
<polygon fill="#e0e0e0" stroke="#999999" points="1222,-426 1063,-426 1063,-396 1222,-396 1222,-426"/>
<text text-anchor="start" x="1071" y="-414" font-family="Helvetica,sans-Serif" font-size="10.00">api/video_codecs/video</text>
<text text-anchor="middle" x="1142.5" y="-403" font-family="Helvetica,sans-Serif" font-size="10.00">_decoder_factory_template.h</text>
</a>
</g>
</g>
<!-- Node1&#45;&gt;Node4 -->
<g id="edge3_Node000001_Node000004" class="edge">
<title>Node1&#45;&gt;Node4</title>
<g id="a_edge3_Node000001_Node000004"><a xlink:title=" ">
<path fill="none" stroke="#63b8ff" d="M803.11,-461.98C863.85,-453.52 959.63,-440.01 1052.76,-426.1"/>
<polygon fill="#63b8ff" stroke="#63b8ff" points="1053.56,-429.52 1062.93,-424.57 1052.52,-422.59 1053.56,-429.52"/>
</a>
</g>
</g>
<!-- Node5 -->
<g id="Node000005" class="node">
<title>Node5</title>
<g id="a_Node000005"><a xlink:href="mosaic__connector_8h.html" target="_top" xlink:title=" ">
<polygon fill="white" stroke="#666666" points="479.5,-360 365.5,-360 365.5,-330 479.5,-330 479.5,-360"/>
<text text-anchor="start" x="373.5" y="-348" font-family="Helvetica,sans-Serif" font-size="10.00">mosaic/core/mosaic</text>
<text text-anchor="middle" x="422.5" y="-337" font-family="Helvetica,sans-Serif" font-size="10.00">_connector.h</text>
</a>
</g>
</g>
<!-- Node1&#45;&gt;Node5 -->
<g id="edge4_Node000001_Node000005" class="edge">
<title>Node1&#45;&gt;Node5</title>
<g id="a_edge4_Node000001_Node000005"><a xlink:title=" ">
<path fill="none" stroke="#63b8ff" d="M658.49,-467.72C582.54,-463.48 477.41,-452.81 446.5,-426 430.64,-412.24 425.04,-388.46 423.17,-370.39"/>
<polygon fill="#63b8ff" stroke="#63b8ff" points="426.65,-370 422.44,-360.28 419.67,-370.5 426.65,-370"/>
</a>
</g>
</g>
<!-- Node21 -->
<g id="Node000021" class="node">
<title>Node21</title>
<g id="a_Node000021"><a xlink:href="log_8h.html" target="_top" xlink:title=" ">
<polygon fill="white" stroke="#666666" points="945,-211.5 832,-211.5 832,-192.5 945,-192.5 945,-211.5"/>
<text text-anchor="middle" x="888.5" y="-199.5" font-family="Helvetica,sans-Serif" font-size="10.00">mosaic/logger/log.h</text>
</a>
</g>
</g>
<!-- Node1&#45;&gt;Node21 -->
<g id="edge50_Node000001_Node000021" class="edge">
<title>Node1&#45;&gt;Node21</title>
<g id="a_edge50_Node000001_Node000021"><a xlink:title=" ">
<path fill="none" stroke="#63b8ff" d="M747.89,-461.66C765.96,-436.42 818.3,-361.48 852.5,-294 864.83,-269.68 875.85,-240.08 882.35,-221.39"/>
<polygon fill="#63b8ff" stroke="#63b8ff" points="885.72,-222.36 885.64,-211.76 879.1,-220.1 885.72,-222.36"/>
</a>
</g>
</g>
<!-- Node28 -->
<g id="Node000028" class="node">
<title>Node28</title>
<g id="a_Node000028"><a xlink:href="peer__connection__observer_8h.html" target="_top" xlink:title=" ">
<polygon fill="white" stroke="#666666" points="614,-426 455,-426 455,-396 614,-396 614,-426"/>
<text text-anchor="start" x="463" y="-414" font-family="Helvetica,sans-Serif" font-size="10.00">mosaic/core/peer_connection</text>
<text text-anchor="middle" x="534.5" y="-403" font-family="Helvetica,sans-Serif" font-size="10.00">_observer.h</text>
</a>
</g>
</g>
<!-- Node1&#45;&gt;Node28 -->
<g id="edge47_Node000001_Node000028" class="edge">
<title>Node1&#45;&gt;Node28</title>
<g id="a_edge47_Node000001_Node000028"><a xlink:title=" ">
<path fill="none" stroke="#63b8ff" d="M711.4,-461.99C680.83,-453.35 632.66,-439.74 594.3,-428.9"/>
<polygon fill="#63b8ff" stroke="#63b8ff" points="594.84,-425.42 584.27,-426.06 592.94,-432.15 594.84,-425.42"/>
</a>
</g>
</g>
<!-- Node6 -->
<g id="Node000006" class="node">
<title>Node6</title>
<g id="a_Node000006"><a xlink:title=" ">
<polygon fill="#e0e0e0" stroke="#999999" points="578.5,-283 540.5,-283 540.5,-264 578.5,-264 578.5,-283"/>
<text text-anchor="middle" x="559.5" y="-271" font-family="Helvetica,sans-Serif" font-size="10.00">map</text>
</a>
</g>
</g>
<!-- Node5&#45;&gt;Node6 -->
<g id="edge5_Node000005_Node000006" class="edge">
<title>Node5&#45;&gt;Node6</title>
<g id="a_edge5_Node000005_Node000006"><a xlink:title=" ">
<path fill="none" stroke="#63b8ff" d="M457.16,-329.98C478.98,-320.7 507.46,-307.74 531.5,-294 534.24,-292.43 537.05,-290.67 539.79,-288.87"/>
<polygon fill="#63b8ff" stroke="#63b8ff" points="541.85,-291.7 548.09,-283.14 537.87,-285.94 541.85,-291.7"/>
</a>
</g>
</g>
<!-- Node7 -->
<g id="Node000007" class="node">
<title>Node7</title>
<g id="a_Node000007"><a xlink:title=" ">
<polygon fill="#e0e0e0" stroke="#999999" points="712.5,-19 654.5,-19 654.5,0 712.5,0 712.5,-19"/>
<text text-anchor="middle" x="683.5" y="-7" font-family="Helvetica,sans-Serif" font-size="10.00">memory</text>
</a>
</g>
</g>
<!-- Node5&#45;&gt;Node7 -->
<g id="edge6_Node000005_Node000007" class="edge">
<title>Node5&#45;&gt;Node7</title>
<g id="a_edge6_Node000005_Node000007"><a xlink:title=" ">
<path fill="none" stroke="#63b8ff" d="M479.81,-331.64C483.09,-331.06 486.33,-330.5 489.5,-330 562.36,-318.44 770.25,-348.92 819.5,-294 858.52,-250.49 737.13,-81.45 696.37,-27.29"/>
<polygon fill="#63b8ff" stroke="#63b8ff" points="698.98,-24.94 690.15,-19.09 693.4,-29.18 698.98,-24.94"/>
</a>
</g>
</g>
<!-- Node8 -->
<g id="Node000008" class="node">
<title>Node8</title>
<g id="a_Node000008"><a xlink:title=" ">
<polygon fill="#e0e0e0" stroke="#999999" points="471.5,-19 427.5,-19 427.5,0 471.5,0 471.5,-19"/>
<text text-anchor="middle" x="449.5" y="-7" font-family="Helvetica,sans-Serif" font-size="10.00">string</text>
</a>
</g>
</g>
<!-- Node5&#45;&gt;Node8 -->
<g id="edge7_Node000005_Node000008" class="edge">
<title>Node5&#45;&gt;Node8</title>
<g id="a_edge7_Node000005_Node000008"><a xlink:title=" ">
<path fill="none" stroke="#63b8ff" d="M365.21,-343.93C274.2,-342.57 102.48,-334.54 59.5,-294 29.51,-265.71 41.5,-244.23 41.5,-203 41.5,-203 41.5,-203 41.5,-135 41.5,-98.46 33.16,-79.25 60.5,-55 87.04,-31.45 328.98,-16.72 417.37,-12.08"/>
<polygon fill="#63b8ff" stroke="#63b8ff" points="417.55,-15.58 427.36,-11.57 417.19,-8.59 417.55,-15.58"/>
</a>
</g>
</g>
<!-- Node9 -->
<g id="Node000009" class="node">
<title>Node9</title>
<g id="a_Node000009"><a xlink:href="connector__state__manager_8h.html" target="_top" xlink:title=" ">
<polygon fill="white" stroke="#666666" points="373,-288.5 246,-288.5 246,-258.5 373,-258.5 373,-288.5"/>
<text text-anchor="start" x="254" y="-276.5" font-family="Helvetica,sans-Serif" font-size="10.00">mosaic/core/connector</text>
<text text-anchor="middle" x="309.5" y="-265.5" font-family="Helvetica,sans-Serif" font-size="10.00">_state_manager.h</text>
</a>
</g>
</g>
<!-- Node5&#45;&gt;Node9 -->
<g id="edge8_Node000005_Node000009" class="edge">
<title>Node5&#45;&gt;Node9</title>
<g id="a_edge8_Node000005_Node000009"><a xlink:title=" ">
<path fill="none" stroke="#63b8ff" d="M399.63,-329.94C382.78,-319.57 359.66,-305.35 341.06,-293.91"/>
<polygon fill="#63b8ff" stroke="#63b8ff" points="342.68,-290.8 332.33,-288.54 339.02,-296.76 342.68,-290.8"/>
</a>
</g>
</g>
<!-- Node13 -->
<g id="Node000013" class="node">
<title>Node13</title>
<g id="a_Node000013"><a xlink:title=" ">
<polygon fill="#e0e0e0" stroke="#999999" points="699.5,-151 553.5,-151 553.5,-121 699.5,-121 699.5,-151"/>
<text text-anchor="start" x="561.5" y="-139" font-family="Helvetica,sans-Serif" font-size="10.00">mosaic/rtc/webrtc_forward</text>
<text text-anchor="middle" x="626.5" y="-128" font-family="Helvetica,sans-Serif" font-size="10.00">_decl.h</text>
</a>
</g>
</g>
<!-- Node5&#45;&gt;Node13 -->
<g id="edge46_Node000005_Node000013" class="edge">
<title>Node5&#45;&gt;Node13</title>
<g id="a_edge46_Node000005_Node000013"><a xlink:title=" ">
<path fill="none" stroke="#63b8ff" d="M479.75,-331.77C520.56,-322.11 571.01,-307.99 587.5,-294 616.61,-269.32 616.6,-254.11 625.5,-217 629.9,-198.67 629.91,-177.3 628.96,-161.26"/>
<polygon fill="#63b8ff" stroke="#63b8ff" points="632.43,-160.81 628.18,-151.11 625.45,-161.34 632.43,-160.81"/>
</a>
</g>
</g>
<!-- Node19 -->
<g id="Node000019" class="node">
<title>Node19</title>
<g id="a_Node000019"><a xlink:href="peer__connection__manager_8h.html" target="_top" xlink:title=" ">
<polygon fill="white" stroke="#666666" points="228,-288.5 69,-288.5 69,-258.5 228,-258.5 228,-288.5"/>
<text text-anchor="start" x="77" y="-276.5" font-family="Helvetica,sans-Serif" font-size="10.00">mosaic/core/peer_connection</text>
<text text-anchor="middle" x="148.5" y="-265.5" font-family="Helvetica,sans-Serif" font-size="10.00">_manager.h</text>
</a>
</g>
</g>
<!-- Node5&#45;&gt;Node19 -->
<g id="edge24_Node000005_Node000019" class="edge">
<title>Node5&#45;&gt;Node19</title>
<g id="a_edge24_Node000005_Node000019"><a xlink:title=" ">
<path fill="none" stroke="#63b8ff" d="M365.22,-330.85C319.14,-319.57 254.7,-303.26 208.04,-291.09"/>
<polygon fill="#63b8ff" stroke="#63b8ff" points="208.92,-287.7 198.36,-288.56 207.15,-294.47 208.92,-287.7"/>
</a>
</g>
</g>
<!-- Node20 -->
<g id="Node000020" class="node">
<title>Node20</title>
<g id="a_Node000020"><a xlink:href="i__data__channel__handler_8h.html" target="_top" xlink:title=" ">
<polygon fill="white" stroke="#666666" points="810,-294 673,-294 673,-253 810,-253 810,-294"/>
<text text-anchor="start" x="681" y="-282" font-family="Helvetica,sans-Serif" font-size="10.00">mosaic/handlers/data</text>
<text text-anchor="start" x="681" y="-271" font-family="Helvetica,sans-Serif" font-size="10.00">_channel/i_data_channel</text>
<text text-anchor="middle" x="741.5" y="-260" font-family="Helvetica,sans-Serif" font-size="10.00">_handler.h</text>
</a>
</g>
</g>
<!-- Node5&#45;&gt;Node20 -->
<g id="edge29_Node000005_Node000020" class="edge">
<title>Node5&#45;&gt;Node20</title>
<g id="a_edge29_Node000005_Node000020"><a xlink:title=" ">
<path fill="none" stroke="#63b8ff" d="M479.58,-332.06C538.09,-319.79 625.09,-301.46 658.5,-294 659.94,-293.68 661.4,-293.35 662.87,-293.02"/>
<polygon fill="#63b8ff" stroke="#63b8ff" points="663.71,-296.42 672.68,-290.79 662.16,-289.59 663.71,-296.42"/>
</a>
</g>
</g>
<!-- Node27 -->
<g id="Node000027" class="node">
<title>Node27</title>
<g id="a_Node000027"><a xlink:href="i__media__track__handler_8h.html" target="_top" xlink:title=" ">
<polygon fill="white" stroke="#666666" points="522,-294 391,-294 391,-253 522,-253 522,-294"/>
<text text-anchor="start" x="399" y="-282" font-family="Helvetica,sans-Serif" font-size="10.00">mosaic/handlers/media</text>
<text text-anchor="start" x="399" y="-271" font-family="Helvetica,sans-Serif" font-size="10.00">_track/i_media_track</text>
<text text-anchor="middle" x="456.5" y="-260" font-family="Helvetica,sans-Serif" font-size="10.00">_handler.h</text>
</a>
</g>
</g>
<!-- Node5&#45;&gt;Node27 -->
<g id="edge42_Node000005_Node000027" class="edge">
<title>Node5&#45;&gt;Node27</title>
<g id="a_edge42_Node000005_Node000027"><a xlink:title=" ">
<path fill="none" stroke="#63b8ff" d="M429.38,-329.94C433.12,-322.28 437.9,-312.52 442.39,-303.33"/>
<polygon fill="#63b8ff" stroke="#63b8ff" points="445.67,-304.59 446.92,-294.07 439.39,-301.52 445.67,-304.59"/>
</a>
</g>
</g>
<!-- Node9&#45;&gt;Node7 -->
<g id="edge9_Node000009_Node000007" class="edge">
<title>Node9&#45;&gt;Node7</title>
<g id="a_edge9_Node000009_Node000007"><a xlink:title=" ">
<path fill="none" stroke="#63b8ff" d="M348.07,-258.4C373.06,-248.47 405.81,-233.97 432.5,-217 487.83,-181.83 493.94,-162.74 544.5,-121 586.58,-86.26 636.91,-46.74 663.98,-25.65"/>
<polygon fill="#63b8ff" stroke="#63b8ff" points="666.47,-28.14 672.22,-19.24 662.17,-22.62 666.47,-28.14"/>
</a>
</g>
</g>
<!-- Node9&#45;&gt;Node8 -->
<g id="edge11_Node000009_Node000008" class="edge">
<title>Node9&#45;&gt;Node8</title>
<g id="a_edge11_Node000009_Node000008"><a xlink:title=" ">
<path fill="none" stroke="#63b8ff" d="M352.33,-258.48C372.66,-249.68 395.51,-236.28 409.5,-217 451.48,-159.14 452.65,-69.03 450.87,-29.82"/>
<polygon fill="#63b8ff" stroke="#63b8ff" points="454.34,-29.15 450.27,-19.37 447.35,-29.56 454.34,-29.15"/>
</a>
</g>
</g>
<!-- Node10 -->
<g id="Node000010" class="node">
<title>Node10</title>
<g id="a_Node000010"><a xlink:title=" ">
<polygon fill="#e0e0e0" stroke="#999999" points="400.5,-211.5 314.5,-211.5 314.5,-192.5 400.5,-192.5 400.5,-211.5"/>
<text text-anchor="middle" x="357.5" y="-199.5" font-family="Helvetica,sans-Serif" font-size="10.00">shared_mutex</text>
</a>
</g>
</g>
<!-- Node9&#45;&gt;Node10 -->
<g id="edge10_Node000009_Node000010" class="edge">
<title>Node9&#45;&gt;Node10</title>
<g id="a_edge10_Node000009_Node000010"><a xlink:title=" ">
<path fill="none" stroke="#63b8ff" d="M319.21,-258.44C326.82,-247.42 337.44,-232.04 345.57,-220.28"/>
<polygon fill="#63b8ff" stroke="#63b8ff" points="348.64,-221.98 351.45,-211.77 342.88,-218.01 348.64,-221.98"/>
</a>
</g>
</g>
<!-- Node11 -->
<g id="Node000011" class="node">
<title>Node11</title>
<g id="a_Node000011"><a xlink:href="i__signaling__client_8h.html" target="_top" xlink:title=" ">
<polygon fill="white" stroke="#666666" points="296,-217 189,-217 189,-187 296,-187 296,-217"/>
<text text-anchor="start" x="197" y="-205" font-family="Helvetica,sans-Serif" font-size="10.00">mosaic/signaling/i</text>
<text text-anchor="middle" x="242.5" y="-194" font-family="Helvetica,sans-Serif" font-size="10.00">_signaling_client.h</text>
</a>
</g>
</g>
<!-- Node9&#45;&gt;Node11 -->
<g id="edge12_Node000009_Node000011" class="edge">
<title>Node9&#45;&gt;Node11</title>
<g id="a_edge12_Node000009_Node000011"><a xlink:title=" ">
<path fill="none" stroke="#63b8ff" d="M295.94,-258.44C286.5,-248.64 273.73,-235.39 263.04,-224.31"/>
<polygon fill="#63b8ff" stroke="#63b8ff" points="265.5,-221.81 256.04,-217.04 260.46,-226.67 265.5,-221.81"/>
</a>
</g>
</g>
<!-- Node12 -->
<g id="Node000012" class="node">
<title>Node12</title>
<g id="a_Node000012"><a xlink:title=" ">
<polygon fill="#e0e0e0" stroke="#999999" points="329.5,-85 211.5,-85 211.5,-55 329.5,-55 329.5,-85"/>
<text text-anchor="start" x="219.5" y="-73" font-family="Helvetica,sans-Serif" font-size="10.00">mosaic/json_forward</text>
<text text-anchor="middle" x="270.5" y="-62" font-family="Helvetica,sans-Serif" font-size="10.00">_decl.h</text>
</a>
</g>
</g>
<!-- Node11&#45;&gt;Node12 -->
<g id="edge13_Node000011_Node000012" class="edge">
<title>Node11&#45;&gt;Node12</title>
<g id="a_edge13_Node000011_Node000012"><a xlink:title=" ">
<path fill="none" stroke="#63b8ff" d="M245.55,-186.84C250.3,-164.76 259.54,-121.89 265.34,-94.94"/>
<polygon fill="#63b8ff" stroke="#63b8ff" points="268.77,-95.66 267.45,-85.14 261.93,-94.18 268.77,-95.66"/>
</a>
</g>
</g>
<!-- Node11&#45;&gt;Node13 -->
<g id="edge14_Node000011_Node000013" class="edge">
<title>Node11&#45;&gt;Node13</title>
<g id="a_edge14_Node000011_Node000013"><a xlink:title=" ">
<path fill="none" stroke="#63b8ff" d="M296.07,-188.85C299.26,-188.2 302.42,-187.58 305.5,-187 385.86,-171.83 478.16,-157.8 543.1,-148.49"/>
<polygon fill="#63b8ff" stroke="#63b8ff" points="543.88,-151.92 553.28,-147.04 542.89,-144.99 543.88,-151.92"/>
</a>
</g>
</g>
<!-- Node14 -->
<g id="Node000014" class="node">
<title>Node14</title>
<g id="a_Node000014"><a xlink:href="i__mosaic__authenticator_8h.html" target="_top" xlink:title=" ">
<polygon fill="white" stroke="#666666" points="410.5,-151 270.5,-151 270.5,-121 410.5,-121 410.5,-151"/>
<text text-anchor="start" x="278.5" y="-139" font-family="Helvetica,sans-Serif" font-size="10.00">mosaic/security/i_mosaic</text>
<text text-anchor="middle" x="340.5" y="-128" font-family="Helvetica,sans-Serif" font-size="10.00">_authenticator.h</text>
</a>
</g>
</g>
<!-- Node11&#45;&gt;Node14 -->
<g id="edge15_Node000011_Node000014" class="edge">
<title>Node11&#45;&gt;Node14</title>
<g id="a_edge15_Node000011_Node000014"><a xlink:title=" ">
<path fill="none" stroke="#63b8ff" d="M264.25,-186.8C277.83,-177.93 295.49,-166.39 310.4,-156.66"/>
<polygon fill="#63b8ff" stroke="#63b8ff" points="312.35,-159.56 318.81,-151.16 308.52,-153.7 312.35,-159.56"/>
</a>
</g>
</g>
<!-- Node14&#45;&gt;Node7 -->
<g id="edge16_Node000014_Node000007" class="edge">
<title>Node14&#45;&gt;Node7</title>
<g id="a_edge16_Node000014_Node000007"><a xlink:title=" ">
<path fill="none" stroke="#63b8ff" d="M375.82,-120.92C417.23,-104.55 488.03,-76.96 549.5,-55 582.25,-43.3 619.86,-30.9 646.88,-22.17"/>
<polygon fill="#63b8ff" stroke="#63b8ff" points="648.24,-25.41 656.68,-19.01 646.09,-18.75 648.24,-25.41"/>
</a>
</g>
</g>
<!-- Node14&#45;&gt;Node12 -->
<g id="edge23_Node000014_Node000012" class="edge">
<title>Node14&#45;&gt;Node12</title>
<g id="a_edge23_Node000014_Node000012"><a xlink:title=" ">
<path fill="none" stroke="#63b8ff" d="M324.96,-120.8C315.72,-112.34 303.82,-101.46 293.5,-92.03"/>
<polygon fill="#63b8ff" stroke="#63b8ff" points="295.73,-89.33 285.99,-85.16 291.01,-94.49 295.73,-89.33"/>
</a>
</g>
</g>
<!-- Node15 -->
<g id="Node000015" class="node">
<title>Node15</title>
<g id="a_Node000015"><a xlink:href="auth__type_8h.html" target="_top" xlink:title=" ">
<polygon fill="white" stroke="#666666" points="421.5,-79.5 347.5,-79.5 347.5,-60.5 421.5,-60.5 421.5,-79.5"/>
<text text-anchor="middle" x="384.5" y="-67.5" font-family="Helvetica,sans-Serif" font-size="10.00">auth_type.h</text>
</a>
</g>
</g>
<!-- Node14&#45;&gt;Node15 -->
<g id="edge17_Node000014_Node000015" class="edge">
<title>Node14&#45;&gt;Node15</title>
<g id="a_edge17_Node000014_Node000015"><a xlink:title=" ">
<path fill="none" stroke="#63b8ff" d="M350.27,-120.8C356.86,-111.21 365.59,-98.5 372.59,-88.32"/>
<polygon fill="#63b8ff" stroke="#63b8ff" points="375.64,-90.07 378.42,-79.84 369.87,-86.1 375.64,-90.07"/>
</a>
</g>
</g>
<!-- Node16 -->
<g id="Node000016" class="node">
<title>Node16</title>
<g id="a_Node000016"><a xlink:href="configs__decl_8h.html" target="_top" xlink:title=" ">
<polygon fill="white" stroke="#666666" points="193.5,-79.5 69.5,-79.5 69.5,-60.5 193.5,-60.5 193.5,-79.5"/>
<text text-anchor="middle" x="131.5" y="-67.5" font-family="Helvetica,sans-Serif" font-size="10.00">mosaic/configs_decl.h</text>
</a>
</g>
</g>
<!-- Node14&#45;&gt;Node16 -->
<g id="edge19_Node000014_Node000016" class="edge">
<title>Node14&#45;&gt;Node16</title>
<g id="a_edge19_Node000014_Node000016"><a xlink:title=" ">
<path fill="none" stroke="#63b8ff" d="M294.63,-120.95C257.01,-109.43 204.4,-93.32 169.2,-82.54"/>
<polygon fill="#63b8ff" stroke="#63b8ff" points="169.9,-79.1 159.31,-79.52 167.85,-85.79 169.9,-79.1"/>
</a>
</g>
</g>
<!-- Node15&#45;&gt;Node8 -->
<g id="edge18_Node000015_Node000008" class="edge">
<title>Node15&#45;&gt;Node8</title>
<g id="a_edge18_Node000015_Node000008"><a xlink:title=" ">
<path fill="none" stroke="#63b8ff" d="M394.09,-60.37C404.08,-51.38 419.93,-37.11 432.13,-26.14"/>
<polygon fill="#63b8ff" stroke="#63b8ff" points="434.78,-28.46 439.87,-19.17 430.1,-23.26 434.78,-28.46"/>
</a>
</g>
</g>
<!-- Node16&#45;&gt;Node8 -->
<g id="edge20_Node000016_Node000008" class="edge">
<title>Node16&#45;&gt;Node8</title>
<g id="a_edge20_Node000016_Node000008"><a xlink:title=" ">
<path fill="none" stroke="#63b8ff" d="M174.28,-60.45C183.58,-58.62 193.36,-56.72 202.5,-55 279.53,-40.47 370.27,-24.39 417.41,-16.11"/>
<polygon fill="#63b8ff" stroke="#63b8ff" points="418.09,-19.54 427.34,-14.37 416.88,-12.65 418.09,-19.54"/>
</a>
</g>
</g>
<!-- Node17 -->
<g id="Node000017" class="node">
<title>Node17</title>
<g id="a_Node000017"><a xlink:title=" ">
<polygon fill="#e0e0e0" stroke="#999999" points="178,-19 85,-19 85,0 178,0 178,-19"/>
<text text-anchor="middle" x="131.5" y="-7" font-family="Helvetica,sans-Serif" font-size="10.00">unordered_map</text>
</a>
</g>
</g>
<!-- Node16&#45;&gt;Node17 -->
<g id="edge21_Node000016_Node000017" class="edge">
<title>Node16&#45;&gt;Node17</title>
<g id="a_edge21_Node000016_Node000017"><a xlink:title=" ">
<path fill="none" stroke="#63b8ff" d="M131.5,-60.37C131.5,-52.25 131.5,-39.81 131.5,-29.39"/>
<polygon fill="#63b8ff" stroke="#63b8ff" points="135,-29.17 131.5,-19.17 128,-29.17 135,-29.17"/>
</a>
</g>
</g>
<!-- Node18 -->
<g id="Node000018" class="node">
<title>Node18</title>
<g id="a_Node000018"><a xlink:title=" ">
<polygon fill="#e0e0e0" stroke="#999999" points="47,-19 0,-19 0,0 47,0 47,-19"/>
<text text-anchor="middle" x="23.5" y="-7" font-family="Helvetica,sans-Serif" font-size="10.00">vector</text>
</a>
</g>
</g>
<!-- Node16&#45;&gt;Node18 -->
<g id="edge22_Node000016_Node000018" class="edge">
<title>Node16&#45;&gt;Node18</title>
<g id="a_edge22_Node000016_Node000018"><a xlink:title=" ">
<path fill="none" stroke="#63b8ff" d="M115.56,-60.37C97.86,-50.78 69.04,-35.17 48.36,-23.97"/>
<polygon fill="#63b8ff" stroke="#63b8ff" points="49.96,-20.85 39.5,-19.17 46.63,-27.01 49.96,-20.85"/>
</a>
</g>
</g>
<!-- Node19&#45;&gt;Node5 -->
<g id="edge27_Node000019_Node000005" class="edge">
<title>Node19&#45;&gt;Node5</title>
<g id="a_edge27_Node000019_Node000005"><a xlink:title=" ">
<path fill="none" stroke="#63b8ff" d="M209.41,-288.54C255.17,-299.77 317.44,-315.54 362.88,-327.39"/>
<polygon fill="#63b8ff" stroke="#63b8ff" points="362.04,-330.79 372.6,-329.94 363.81,-324.02 362.04,-330.79"/>
</a>
</g>
</g>
<!-- Node19&#45;&gt;Node11 -->
<g id="edge28_Node000019_Node000011" class="edge">
<title>Node19&#45;&gt;Node11</title>
<g id="a_edge28_Node000019_Node000011"><a xlink:title=" ">
<path fill="none" stroke="#63b8ff" d="M167.52,-258.44C181.28,-248.26 200.07,-234.37 215.4,-223.04"/>
<polygon fill="#63b8ff" stroke="#63b8ff" points="217.55,-225.8 223.51,-217.04 213.38,-220.17 217.55,-225.8"/>
</a>
</g>
</g>
<!-- Node19&#45;&gt;Node16 -->
<g id="edge26_Node000019_Node000016" class="edge">
<title>Node19&#45;&gt;Node16</title>
<g id="a_edge26_Node000019_Node000016"><a xlink:title=" ">
<path fill="none" stroke="#63b8ff" d="M147.3,-258.33C144.31,-222.78 136.46,-129.81 133.08,-89.78"/>
<polygon fill="#63b8ff" stroke="#63b8ff" points="136.55,-89.25 132.22,-79.58 129.58,-89.83 136.55,-89.25"/>
</a>
</g>
</g>
<!-- Node19&#45;&gt;Node18 -->
<g id="edge25_Node000019_Node000018" class="edge">
<title>Node19&#45;&gt;Node18</title>
<g id="a_edge25_Node000019_Node000018"><a xlink:title=" ">
<path fill="none" stroke="#63b8ff" d="M141.78,-258.41C120.62,-214.06 55.37,-77.31 31.97,-28.25"/>
<polygon fill="#63b8ff" stroke="#63b8ff" points="35.1,-26.69 27.64,-19.18 28.79,-29.71 35.1,-26.69"/>
</a>
</g>
</g>
<!-- Node20&#45;&gt;Node8 -->
<g id="edge30_Node000020_Node000008" class="edge">
<title>Node20&#45;&gt;Node8</title>
<g id="a_edge30_Node000020_Node000008"><a xlink:title=" ">
<path fill="none" stroke="#63b8ff" d="M742.62,-252.86C743.34,-221.4 740.24,-159.38 708.5,-121 649.67,-49.86 536.71,-23.55 481.48,-14.64"/>
<polygon fill="#63b8ff" stroke="#63b8ff" points="481.97,-11.17 471.56,-13.12 480.91,-18.09 481.97,-11.17"/>
</a>
</g>
</g>
<!-- Node20&#45;&gt;Node13 -->
<g id="edge41_Node000020_Node000013" class="edge">
<title>Node20&#45;&gt;Node13</title>
<g id="a_edge41_Node000020_Node000013"><a xlink:title=" ">
<path fill="none" stroke="#63b8ff" d="M724.78,-252.8C703.64,-227.89 667.36,-185.15 645.29,-159.14"/>
<polygon fill="#63b8ff" stroke="#63b8ff" points="647.8,-156.69 638.66,-151.33 642.46,-161.22 647.8,-156.69"/>
</a>
</g>
</g>
<!-- Node20&#45;&gt;Node21 -->
<g id="edge31_Node000020_Node000021" class="edge">
<title>Node20&#45;&gt;Node21</title>
<g id="a_edge31_Node000020_Node000021"><a xlink:title=" ">
<path fill="none" stroke="#63b8ff" d="M782.84,-252.96C807.99,-241.06 839.4,-226.21 861.41,-215.81"/>
<polygon fill="#63b8ff" stroke="#63b8ff" points="862.97,-218.94 870.51,-211.5 859.98,-212.61 862.97,-218.94"/>
</a>
</g>
</g>
<!-- Node22 -->
<g id="Node000022" class="node">
<title>Node22</title>
<g id="a_Node000022"><a xlink:href="i__logger_8h.html" target="_top" xlink:title=" ">
<polygon fill="white" stroke="#666666" points="920.5,-145.5 856.5,-145.5 856.5,-126.5 920.5,-126.5 920.5,-145.5"/>
<text text-anchor="middle" x="888.5" y="-133.5" font-family="Helvetica,sans-Serif" font-size="10.00">i_logger.h</text>
</a>
</g>
</g>
<!-- Node21&#45;&gt;Node22 -->
<g id="edge32_Node000021_Node000022" class="edge">
<title>Node21&#45;&gt;Node22</title>
<g id="a_edge32_Node000021_Node000022"><a xlink:title=" ">
<path fill="none" stroke="#63b8ff" d="M888.5,-192.37C888.5,-183.16 888.5,-168.29 888.5,-156.27"/>
<polygon fill="#63b8ff" stroke="#63b8ff" points="892,-155.91 888.5,-145.91 885,-155.91 892,-155.91"/>
</a>
</g>
</g>
<!-- Node25 -->
<g id="Node000025" class="node">
<title>Node25</title>
<g id="a_Node000025"><a xlink:href="log__service_8h.html" target="_top" xlink:title=" ">
<polygon fill="white" stroke="#666666" points="1049,-79.5 968,-79.5 968,-60.5 1049,-60.5 1049,-79.5"/>
<text text-anchor="middle" x="1008.5" y="-67.5" font-family="Helvetica,sans-Serif" font-size="10.00">log_service.h</text>
</a>
</g>
</g>
<!-- Node21&#45;&gt;Node25 -->
<g id="edge40_Node000021_Node000025" class="edge">
<title>Node21&#45;&gt;Node25</title>
<g id="a_edge40_Node000021_Node000025"><a xlink:title=" ">
<path fill="none" stroke="#63b8ff" d="M896.37,-192.47C916.12,-171.08 967.98,-114.9 993.66,-87.08"/>
<polygon fill="#63b8ff" stroke="#63b8ff" points="996.23,-89.45 1000.44,-79.73 991.09,-84.71 996.23,-89.45"/>
</a>
</g>
</g>
<!-- Node22&#45;&gt;Node8 -->
<g id="edge33_Node000022_Node000008" class="edge">
<title>Node22&#45;&gt;Node8</title>
<g id="a_edge33_Node000022_Node000008"><a xlink:title=" ">
<path fill="none" stroke="#63b8ff" d="M876.21,-126.36C851.79,-109.66 794.92,-72.99 741.5,-55 650.61,-24.39 536.67,-14.76 481.87,-11.78"/>
<polygon fill="#63b8ff" stroke="#63b8ff" points="481.89,-8.28 471.72,-11.28 481.54,-15.27 481.89,-8.28"/>
</a>
</g>
</g>
<!-- Node23 -->
<g id="Node000023" class="node">
<title>Node23</title>
<g id="a_Node000023"><a xlink:title=" ">
<polygon fill="#e0e0e0" stroke="#999999" points="911,-79.5 832,-79.5 832,-60.5 911,-60.5 911,-79.5"/>
<text text-anchor="middle" x="871.5" y="-67.5" font-family="Helvetica,sans-Serif" font-size="10.00">fmt/format.h</text>
</a>
</g>
</g>
<!-- Node22&#45;&gt;Node23 -->
<g id="edge34_Node000022_Node000023" class="edge">
<title>Node22&#45;&gt;Node23</title>
<g id="a_edge34_Node000022_Node000023"><a xlink:title=" ">
<path fill="none" stroke="#63b8ff" d="M886.21,-126.37C883.74,-117.07 879.73,-101.98 876.52,-89.9"/>
<polygon fill="#63b8ff" stroke="#63b8ff" points="879.82,-88.67 873.87,-79.91 873.05,-90.47 879.82,-88.67"/>
</a>
</g>
</g>
<!-- Node24 -->
<g id="Node000024" class="node">
<title>Node24</title>
<g id="a_Node000024"><a xlink:href="log__level_8h.html" target="_top" xlink:title=" ">
<polygon fill="white" stroke="#666666" points="974.5,-19 904.5,-19 904.5,0 974.5,0 974.5,-19"/>
<text text-anchor="middle" x="939.5" y="-7" font-family="Helvetica,sans-Serif" font-size="10.00">log_level.h</text>
</a>
</g>
</g>
<!-- Node22&#45;&gt;Node24 -->
<g id="edge35_Node000022_Node000024" class="edge">
<title>Node22&#45;&gt;Node24</title>
<g id="a_edge35_Node000022_Node000024"><a xlink:title=" ">
<path fill="none" stroke="#63b8ff" d="M895.32,-126.28C902.53,-116.66 913.77,-100.5 920.5,-85 928.38,-66.85 933.5,-44.74 936.42,-29.35"/>
<polygon fill="#63b8ff" stroke="#63b8ff" points="939.95,-29.51 938.23,-19.06 933.05,-28.3 939.95,-29.51"/>
</a>
</g>
</g>
<!-- Node22&#45;&gt;Node25 -->
<g id="edge36_Node000022_Node000025" class="edge">
<title>Node22&#45;&gt;Node25</title>
<g id="a_edge36_Node000022_Node000025"><a xlink:title=" ">
<path fill="none" stroke="#63b8ff" d="M904.68,-126.37C924.81,-115.63 959.41,-97.18 983.09,-84.55"/>
<polygon fill="#63b8ff" stroke="#63b8ff" points="985.01,-87.49 992.19,-79.7 981.72,-81.32 985.01,-87.49"/>
</a>
</g>
</g>
<!-- Node25&#45;&gt;Node7 -->
<g id="edge37_Node000025_Node000007" class="edge">
<title>Node25&#45;&gt;Node7</title>
<g id="a_edge37_Node000025_Node000007"><a xlink:title=" ">
<path fill="none" stroke="#63b8ff" d="M968,-61.71C905.1,-50.39 784.75,-28.72 722.68,-17.55"/>
<polygon fill="#63b8ff" stroke="#63b8ff" points="722.97,-14.05 712.51,-15.72 721.73,-20.94 722.97,-14.05"/>
</a>
</g>
</g>
<!-- Node25&#45;&gt;Node24 -->
<g id="edge39_Node000025_Node000024" class="edge">
<title>Node25&#45;&gt;Node24</title>
<g id="a_edge39_Node000025_Node000024"><a xlink:title=" ">
<path fill="none" stroke="#63b8ff" d="M998.32,-60.37C987.62,-51.3 970.56,-36.84 957.57,-25.82"/>
<polygon fill="#63b8ff" stroke="#63b8ff" points="959.61,-22.96 949.72,-19.17 955.09,-28.3 959.61,-22.96"/>
</a>
</g>
</g>
<!-- Node26 -->
<g id="Node000026" class="node">
<title>Node26</title>
<g id="a_Node000026"><a xlink:title=" ">
<polygon fill="#e0e0e0" stroke="#999999" points="1062,-19 993,-19 993,0 1062,0 1062,-19"/>
<text text-anchor="middle" x="1027.5" y="-7" font-family="Helvetica,sans-Serif" font-size="10.00">type_traits</text>
</a>
</g>
</g>
<!-- Node25&#45;&gt;Node26 -->
<g id="edge38_Node000025_Node000026" class="edge">
<title>Node25&#45;&gt;Node26</title>
<g id="a_edge38_Node000025_Node000026"><a xlink:title=" ">
<path fill="none" stroke="#63b8ff" d="M1011.3,-60.37C1014,-52.07 1018.15,-39.28 1021.58,-28.72"/>
<polygon fill="#63b8ff" stroke="#63b8ff" points="1024.92,-29.76 1024.68,-19.17 1018.27,-27.6 1024.92,-29.76"/>
</a>
</g>
</g>
<!-- Node27&#45;&gt;Node2 -->
<g id="edge44_Node000027_Node000002" class="edge">
<title>Node27&#45;&gt;Node2</title>
<g id="a_edge44_Node000027_Node000002"><a xlink:title=" ">
<path fill="none" stroke="#63b8ff" d="M495.03,-252.96C518.26,-241.17 547.21,-226.48 567.7,-216.09"/>
<polygon fill="#63b8ff" stroke="#63b8ff" points="569.4,-219.15 576.74,-211.5 566.24,-212.91 569.4,-219.15"/>
</a>
</g>
</g>
<!-- Node27&#45;&gt;Node8 -->
<g id="edge43_Node000027_Node000008" class="edge">
<title>Node27&#45;&gt;Node8</title>
<g id="a_edge43_Node000027_Node000008"><a xlink:title=" ">
<path fill="none" stroke="#63b8ff" d="M459.53,-252.86C464.92,-214.54 474.6,-127.26 463.5,-55 462.15,-46.19 459.37,-36.74 456.65,-28.82"/>
<polygon fill="#63b8ff" stroke="#63b8ff" points="459.84,-27.35 453.1,-19.18 453.27,-29.77 459.84,-27.35"/>
</a>
</g>
</g>
<!-- Node27&#45;&gt;Node13 -->
<g id="edge45_Node000027_Node000013" class="edge">
<title>Node27&#45;&gt;Node13</title>
<g id="a_edge45_Node000027_Node000013"><a xlink:title=" ">
<path fill="none" stroke="#63b8ff" d="M480.83,-252.7C502.26,-235.3 534.35,-209.34 562.5,-187 574.85,-177.19 588.63,-166.41 600.23,-157.38"/>
<polygon fill="#63b8ff" stroke="#63b8ff" points="602.49,-160.05 608.23,-151.15 598.19,-154.53 602.49,-160.05"/>
</a>
</g>
</g>
<!-- Node28&#45;&gt;Node5 -->
<g id="edge49_Node000028_Node000005" class="edge">
<title>Node28&#45;&gt;Node5</title>
<g id="a_edge49_Node000028_Node000005"><a xlink:title=" ">
<path fill="none" stroke="#63b8ff" d="M509.92,-395.95C494.02,-386.87 473.12,-374.93 455.74,-365"/>
<polygon fill="#63b8ff" stroke="#63b8ff" points="457.44,-361.93 447.02,-360.01 453.97,-368.01 457.44,-361.93"/>
</a>
</g>
</g>
<!-- Node29 -->
<g id="Node000029" class="node">
<title>Node29</title>
<g id="a_Node000029"><a xlink:title=" ">
<polygon fill="#e0e0e0" stroke="#999999" points="613,-360 498,-360 498,-330 613,-330 613,-360"/>
<text text-anchor="start" x="506" y="-348" font-family="Helvetica,sans-Serif" font-size="10.00">api/peer_connection</text>
<text text-anchor="middle" x="555.5" y="-337" font-family="Helvetica,sans-Serif" font-size="10.00">_interface.h</text>
</a>
</g>
</g>
<!-- Node28&#45;&gt;Node29 -->
<g id="edge48_Node000028_Node000029" class="edge">
<title>Node28&#45;&gt;Node29</title>
<g id="a_edge48_Node000028_Node000029"><a xlink:title=" ">
<path fill="none" stroke="#63b8ff" d="M539.16,-395.8C541.66,-388.17 544.81,-378.57 547.68,-369.84"/>
<polygon fill="#63b8ff" stroke="#63b8ff" points="551.06,-370.76 550.85,-360.16 544.41,-368.57 551.06,-370.76"/>
</a>
</g>
</g>
</g>
</svg>
