<?xml version="1.0" encoding="UTF-8" standalone="no"?>
<!DOCTYPE svg PUBLIC "-//W3C//DTD SVG 1.1//EN"
 "http://www.w3.org/Graphics/SVG/1.1/DTD/svg11.dtd">
<!-- Generated by graphviz version 2.43.0 (0)
 -->
<!-- Title: src/security/impl/no_auth_authenticator.cpp Pages: 1 -->
<svg width="538pt" height="357pt"
 viewBox="0.00 0.00 538.00 357.00" xmlns="http://www.w3.org/2000/svg" xmlns:xlink="http://www.w3.org/1999/xlink">
<g id="graph0" class="graph" transform="scale(1 1) rotate(0) translate(4 353)">
<title>src/security/impl/no_auth_authenticator.cpp</title>
<!-- Node1 -->
<g id="Node000001" class="node">
<title>Node1</title>
<g id="a_Node000001"><a xlink:title=" ">
<polygon fill="#999999" stroke="#666666" points="357,-349 223,-349 223,-319 357,-319 357,-349"/>
<text text-anchor="start" x="231" y="-337" font-family="Helvetica,sans-Serif" font-size="10.00">src/security/impl/no</text>
<text text-anchor="middle" x="290" y="-326" font-family="Helvetica,sans-Serif" font-size="10.00">_auth_authenticator.cpp</text>
</a>
</g>
</g>
<!-- Node2 -->
<g id="Node000002" class="node">
<title>Node2</title>
<g id="a_Node000002"><a xlink:href="no__auth__authenticator_8h.html" target="_top" xlink:title=" ">
<polygon fill="white" stroke="#666666" points="233.5,-283 96.5,-283 96.5,-253 233.5,-253 233.5,-283"/>
<text text-anchor="start" x="104.5" y="-271" font-family="Helvetica,sans-Serif" font-size="10.00">mosaic/security/impl</text>
<text text-anchor="middle" x="165" y="-260" font-family="Helvetica,sans-Serif" font-size="10.00">/no_auth_authenticator.h</text>
</a>
</g>
</g>
<!-- Node1&#45;&gt;Node2 -->
<g id="edge1_Node000001_Node000002" class="edge">
<title>Node1&#45;&gt;Node2</title>
<g id="a_edge1_Node000001_Node000002"><a xlink:title=" ">
<path fill="none" stroke="#63b8ff" d="M262.57,-318.95C244.58,-309.74 220.85,-297.6 201.3,-287.59"/>
<polygon fill="#63b8ff" stroke="#63b8ff" points="202.86,-284.45 192.37,-283.01 199.67,-290.69 202.86,-284.45"/>
</a>
</g>
</g>
<!-- Node12 -->
<g id="Node000012" class="node">
<title>Node12</title>
<g id="a_Node000012"><a xlink:title=" ">
<polygon fill="#e0e0e0" stroke="#999999" points="328,-277.5 252,-277.5 252,-258.5 328,-258.5 328,-277.5"/>
<text text-anchor="middle" x="290" y="-265.5" font-family="Helvetica,sans-Serif" font-size="10.00">json/value.h</text>
</a>
</g>
</g>
<!-- Node1&#45;&gt;Node12 -->
<g id="edge13_Node000001_Node000012" class="edge">
<title>Node1&#45;&gt;Node12</title>
<g id="a_edge13_Node000001_Node000012"><a xlink:title=" ">
<path fill="none" stroke="#63b8ff" d="M290,-318.8C290,-309.7 290,-297.79 290,-287.9"/>
<polygon fill="#63b8ff" stroke="#63b8ff" points="293.5,-287.84 290,-277.84 286.5,-287.84 293.5,-287.84"/>
</a>
</g>
</g>
<!-- Node13 -->
<g id="Node000013" class="node">
<title>Node13</title>
<g id="a_Node000013"><a xlink:href="i__signaling__client_8h.html" target="_top" xlink:title=" ">
<polygon fill="white" stroke="#666666" points="409.5,-217 302.5,-217 302.5,-187 409.5,-187 409.5,-217"/>
<text text-anchor="start" x="310.5" y="-205" font-family="Helvetica,sans-Serif" font-size="10.00">mosaic/signaling/i</text>
<text text-anchor="middle" x="356" y="-194" font-family="Helvetica,sans-Serif" font-size="10.00">_signaling_client.h</text>
</a>
</g>
</g>
<!-- Node1&#45;&gt;Node13 -->
<g id="edge14_Node000001_Node000013" class="edge">
<title>Node1&#45;&gt;Node13</title>
<g id="a_edge14_Node000001_Node000013"><a xlink:title=" ">
<path fill="none" stroke="#63b8ff" d="M307.15,-318.92C317.28,-309.71 329.55,-296.85 337,-283 346.38,-265.57 351.17,-243.56 353.6,-227.04"/>
<polygon fill="#63b8ff" stroke="#63b8ff" points="357.07,-227.44 354.87,-217.08 350.13,-226.55 357.07,-227.44"/>
</a>
</g>
</g>
<!-- Node3 -->
<g id="Node000003" class="node">
<title>Node3</title>
<g id="a_Node000003"><a xlink:title=" ">
<polygon fill="#e0e0e0" stroke="#999999" points="58,-79.5 0,-79.5 0,-60.5 58,-60.5 58,-79.5"/>
<text text-anchor="middle" x="29" y="-67.5" font-family="Helvetica,sans-Serif" font-size="10.00">memory</text>
</a>
</g>
</g>
<!-- Node2&#45;&gt;Node3 -->
<g id="edge2_Node000002_Node000003" class="edge">
<title>Node2&#45;&gt;Node3</title>
<g id="a_edge2_Node000002_Node000003"><a xlink:title=" ">
<path fill="none" stroke="#63b8ff" d="M150.9,-252.71C141.65,-243.01 129.55,-229.69 120,-217 86.89,-173 54.27,-116.66 38.61,-88.56"/>
<polygon fill="#63b8ff" stroke="#63b8ff" points="41.54,-86.63 33.64,-79.57 35.41,-90.01 41.54,-86.63"/>
</a>
</g>
</g>
<!-- Node4 -->
<g id="Node000004" class="node">
<title>Node4</title>
<g id="a_Node000004"><a xlink:href="a__mosaic__authenticator_8h.html" target="_top" xlink:title=" ">
<polygon fill="white" stroke="#666666" points="272.5,-217 129.5,-217 129.5,-187 272.5,-187 272.5,-217"/>
<text text-anchor="start" x="137.5" y="-205" font-family="Helvetica,sans-Serif" font-size="10.00">mosaic/security/a_mosaic</text>
<text text-anchor="middle" x="201" y="-194" font-family="Helvetica,sans-Serif" font-size="10.00">_authenticator.h</text>
</a>
</g>
</g>
<!-- Node2&#45;&gt;Node4 -->
<g id="edge3_Node000002_Node000004" class="edge">
<title>Node2&#45;&gt;Node4</title>
<g id="a_edge3_Node000002_Node000004"><a xlink:title=" ">
<path fill="none" stroke="#63b8ff" d="M172.99,-252.8C177.42,-244.92 183.03,-234.95 188.07,-225.99"/>
<polygon fill="#63b8ff" stroke="#63b8ff" points="191.18,-227.6 193.03,-217.16 185.08,-224.16 191.18,-227.6"/>
</a>
</g>
</g>
<!-- Node5 -->
<g id="Node000005" class="node">
<title>Node5</title>
<g id="a_Node000005"><a xlink:href="i__mosaic__authenticator_8h.html" target="_top" xlink:title=" ">
<polygon fill="white" stroke="#666666" points="284.5,-145.5 145.5,-145.5 145.5,-126.5 284.5,-126.5 284.5,-145.5"/>
<text text-anchor="middle" x="215" y="-133.5" font-family="Helvetica,sans-Serif" font-size="10.00">i_mosaic_authenticator.h</text>
</a>
</g>
</g>
<!-- Node4&#45;&gt;Node5 -->
<g id="edge4_Node000004_Node000005" class="edge">
<title>Node4&#45;&gt;Node5</title>
<g id="a_edge4_Node000004_Node000005"><a xlink:title=" ">
<path fill="none" stroke="#63b8ff" d="M204.11,-186.8C206.1,-177.7 208.7,-165.79 210.87,-155.9"/>
<polygon fill="#63b8ff" stroke="#63b8ff" points="214.35,-156.36 213.07,-145.84 207.51,-154.87 214.35,-156.36"/>
</a>
</g>
</g>
<!-- Node5&#45;&gt;Node3 -->
<g id="edge5_Node000005_Node000003" class="edge">
<title>Node5&#45;&gt;Node3</title>
<g id="a_edge5_Node000005_Node000003"><a xlink:title=" ">
<path fill="none" stroke="#63b8ff" d="M188.99,-126.45C159.38,-116.66 109.58,-100.03 67,-85 65.16,-84.35 63.27,-83.68 61.37,-82.99"/>
<polygon fill="#63b8ff" stroke="#63b8ff" points="62.47,-79.67 51.87,-79.54 60.07,-86.25 62.47,-79.67"/>
</a>
</g>
</g>
<!-- Node6 -->
<g id="Node000006" class="node">
<title>Node6</title>
<g id="a_Node000006"><a xlink:href="auth__type_8h.html" target="_top" xlink:title=" ">
<polygon fill="white" stroke="#666666" points="150,-79.5 76,-79.5 76,-60.5 150,-60.5 150,-79.5"/>
<text text-anchor="middle" x="113" y="-67.5" font-family="Helvetica,sans-Serif" font-size="10.00">auth_type.h</text>
</a>
</g>
</g>
<!-- Node5&#45;&gt;Node6 -->
<g id="edge6_Node000005_Node000006" class="edge">
<title>Node5&#45;&gt;Node6</title>
<g id="a_edge6_Node000005_Node000006"><a xlink:title=" ">
<path fill="none" stroke="#63b8ff" d="M201.24,-126.37C184.36,-115.78 155.51,-97.67 135.41,-85.06"/>
<polygon fill="#63b8ff" stroke="#63b8ff" points="137.19,-82.05 126.86,-79.7 133.47,-87.98 137.19,-82.05"/>
</a>
</g>
</g>
<!-- Node8 -->
<g id="Node000008" class="node">
<title>Node8</title>
<g id="a_Node000008"><a xlink:href="configs__decl_8h.html" target="_top" xlink:title=" ">
<polygon fill="white" stroke="#666666" points="292,-79.5 168,-79.5 168,-60.5 292,-60.5 292,-79.5"/>
<text text-anchor="middle" x="230" y="-67.5" font-family="Helvetica,sans-Serif" font-size="10.00">mosaic/configs_decl.h</text>
</a>
</g>
</g>
<!-- Node5&#45;&gt;Node8 -->
<g id="edge8_Node000005_Node000008" class="edge">
<title>Node5&#45;&gt;Node8</title>
<g id="a_edge8_Node000005_Node000008"><a xlink:title=" ">
<path fill="none" stroke="#63b8ff" d="M217.02,-126.37C219.2,-117.07 222.74,-101.98 225.57,-89.9"/>
<polygon fill="#63b8ff" stroke="#63b8ff" points="229.04,-90.44 227.91,-79.91 222.22,-88.84 229.04,-90.44"/>
</a>
</g>
</g>
<!-- Node11 -->
<g id="Node000011" class="node">
<title>Node11</title>
<g id="a_Node000011"><a xlink:title=" ">
<polygon fill="#e0e0e0" stroke="#999999" points="428,-85 310,-85 310,-55 428,-55 428,-85"/>
<text text-anchor="start" x="318" y="-73" font-family="Helvetica,sans-Serif" font-size="10.00">mosaic/json_forward</text>
<text text-anchor="middle" x="369" y="-62" font-family="Helvetica,sans-Serif" font-size="10.00">_decl.h</text>
</a>
</g>
</g>
<!-- Node5&#45;&gt;Node11 -->
<g id="edge12_Node000005_Node000011" class="edge">
<title>Node5&#45;&gt;Node11</title>
<g id="a_edge12_Node000005_Node000011"><a xlink:title=" ">
<path fill="none" stroke="#63b8ff" d="M235.77,-126.37C258.73,-116.82 296.37,-101.18 325.8,-88.95"/>
<polygon fill="#63b8ff" stroke="#63b8ff" points="327.14,-92.19 335.03,-85.12 324.46,-85.72 327.14,-92.19"/>
</a>
</g>
</g>
<!-- Node7 -->
<g id="Node000007" class="node">
<title>Node7</title>
<g id="a_Node000007"><a xlink:title=" ">
<polygon fill="#e0e0e0" stroke="#999999" points="150,-19 106,-19 106,0 150,0 150,-19"/>
<text text-anchor="middle" x="128" y="-7" font-family="Helvetica,sans-Serif" font-size="10.00">string</text>
</a>
</g>
</g>
<!-- Node6&#45;&gt;Node7 -->
<g id="edge7_Node000006_Node000007" class="edge">
<title>Node6&#45;&gt;Node7</title>
<g id="a_edge7_Node000006_Node000007"><a xlink:title=" ">
<path fill="none" stroke="#63b8ff" d="M115.21,-60.37C117.32,-52.16 120.55,-39.54 123.24,-29.05"/>
<polygon fill="#63b8ff" stroke="#63b8ff" points="126.68,-29.72 125.78,-19.17 119.9,-27.98 126.68,-29.72"/>
</a>
</g>
</g>
<!-- Node8&#45;&gt;Node7 -->
<g id="edge9_Node000008_Node000007" class="edge">
<title>Node8&#45;&gt;Node7</title>
<g id="a_edge9_Node000008_Node000007"><a xlink:title=" ">
<path fill="none" stroke="#63b8ff" d="M214.95,-60.37C198.38,-50.86 171.5,-35.45 152.01,-24.27"/>
<polygon fill="#63b8ff" stroke="#63b8ff" points="153.53,-21.11 143.11,-19.17 150.05,-27.18 153.53,-21.11"/>
</a>
</g>
</g>
<!-- Node9 -->
<g id="Node000009" class="node">
<title>Node9</title>
<g id="a_Node000009"><a xlink:title=" ">
<polygon fill="#e0e0e0" stroke="#999999" points="268.5,-19 175.5,-19 175.5,0 268.5,0 268.5,-19"/>
<text text-anchor="middle" x="222" y="-7" font-family="Helvetica,sans-Serif" font-size="10.00">unordered_map</text>
</a>
</g>
</g>
<!-- Node8&#45;&gt;Node9 -->
<g id="edge10_Node000008_Node000009" class="edge">
<title>Node8&#45;&gt;Node9</title>
<g id="a_edge10_Node000008_Node000009"><a xlink:title=" ">
<path fill="none" stroke="#63b8ff" d="M228.82,-60.37C227.71,-52.25 226.01,-39.81 224.58,-29.39"/>
<polygon fill="#63b8ff" stroke="#63b8ff" points="228.01,-28.6 223.19,-19.17 221.07,-29.55 228.01,-28.6"/>
</a>
</g>
</g>
<!-- Node10 -->
<g id="Node000010" class="node">
<title>Node10</title>
<g id="a_Node000010"><a xlink:title=" ">
<polygon fill="#e0e0e0" stroke="#999999" points="333.5,-19 286.5,-19 286.5,0 333.5,0 333.5,-19"/>
<text text-anchor="middle" x="310" y="-7" font-family="Helvetica,sans-Serif" font-size="10.00">vector</text>
</a>
</g>
</g>
<!-- Node8&#45;&gt;Node10 -->
<g id="edge11_Node000008_Node000010" class="edge">
<title>Node8&#45;&gt;Node10</title>
<g id="a_edge11_Node000008_Node000010"><a xlink:title=" ">
<path fill="none" stroke="#63b8ff" d="M241.8,-60.37C254.45,-51.12 274.74,-36.28 289.91,-25.19"/>
<polygon fill="#63b8ff" stroke="#63b8ff" points="292.14,-27.9 298.15,-19.17 288.01,-22.24 292.14,-27.9"/>
</a>
</g>
</g>
<!-- Node13&#45;&gt;Node5 -->
<g id="edge17_Node000013_Node000005" class="edge">
<title>Node13&#45;&gt;Node5</title>
<g id="a_edge17_Node000013_Node000005"><a xlink:title=" ">
<path fill="none" stroke="#63b8ff" d="M325.06,-186.95C300.55,-175.83 266.61,-160.42 242.92,-149.67"/>
<polygon fill="#63b8ff" stroke="#63b8ff" points="244.32,-146.46 233.76,-145.52 241.42,-152.84 244.32,-146.46"/>
</a>
</g>
</g>
<!-- Node13&#45;&gt;Node11 -->
<g id="edge15_Node000013_Node000011" class="edge">
<title>Node13&#45;&gt;Node11</title>
<g id="a_edge15_Node000013_Node000011"><a xlink:title=" ">
<path fill="none" stroke="#63b8ff" d="M357.42,-186.84C359.61,-164.86 363.87,-122.27 366.57,-95.3"/>
<polygon fill="#63b8ff" stroke="#63b8ff" points="370.07,-95.44 367.59,-85.14 363.11,-94.74 370.07,-95.44"/>
</a>
</g>
</g>
<!-- Node14 -->
<g id="Node000014" class="node">
<title>Node14</title>
<g id="a_Node000014"><a xlink:title=" ">
<polygon fill="#e0e0e0" stroke="#999999" points="530,-151 384,-151 384,-121 530,-121 530,-151"/>
<text text-anchor="start" x="392" y="-139" font-family="Helvetica,sans-Serif" font-size="10.00">mosaic/rtc/webrtc_forward</text>
<text text-anchor="middle" x="457" y="-128" font-family="Helvetica,sans-Serif" font-size="10.00">_decl.h</text>
</a>
</g>
</g>
<!-- Node13&#45;&gt;Node14 -->
<g id="edge16_Node000013_Node000014" class="edge">
<title>Node13&#45;&gt;Node14</title>
<g id="a_edge16_Node000013_Node000014"><a xlink:title=" ">
<path fill="none" stroke="#63b8ff" d="M378.42,-186.8C392.41,-177.93 410.62,-166.39 425.98,-156.66"/>
<polygon fill="#63b8ff" stroke="#63b8ff" points="428.07,-159.47 434.65,-151.16 424.33,-153.56 428.07,-159.47"/>
</a>
</g>
</g>
</g>
</svg>
