<?xml version="1.0" encoding="UTF-8" standalone="no"?>
<!DOCTYPE svg PUBLIC "-//W3C//DTD SVG 1.1//EN"
 "http://www.w3.org/Graphics/SVG/1.1/DTD/svg11.dtd">
<!-- Generated by graphviz version 2.43.0 (0)
 -->
<!-- Title: include/mosaic/auto_configurer/impl/opencv_camera_mt_handler.hpp Pages: 1 -->
<!--zoomable 478 -->

<svg id="main" version="1.1" xmlns="http://www.w3.org/2000/svg" xmlns:xlink="http://www.w3.org/1999/xlink" xml:space="preserve" onload="init(evt)">
<style type="text/css"><![CDATA[
.node, .edge {opacity: 0.7;}
.node.selected, .edge.selected {opacity: 1;}
.edge:hover path { stroke: red; }
.edge:hover polygon { stroke: red; fill: red; }
]]></style>

<defs>
  <circle id="rim" cx="0" cy="0" r="7"/>
  <circle id="rim2" cx="0" cy="0" r="3.5"/>
  <g id="zoomPlus">
    <use xlink:href="#rim" fill="#404040"><set attributeName="fill" to="#808080" begin="zoomplus.mouseover" end="zoomplus.mouseout"/></use>
    <path d="M-4,0h8M0,-4v8" fill="none" stroke="white" stroke-width="1.5" pointer-events="none"/>
  </g>
  <g id="zoomMin">
    <use xlink:href="#rim" fill="#404040"><set attributeName="fill" to="#808080" begin="zoomminus.mouseover" end="zoomminus.mouseout"/></use>
    <path d="M-4,0h8" fill="none" stroke="white" stroke-width="1.5" pointer-events="none"/>
  </g>
  <g id="arrowUp" transform="translate(30 24)">
    <use xlink:href="#rim"/>
    <path pointer-events="none" fill="none" stroke="white" stroke-width="1.5" d="M0,-3.0v7 M-2.5,-0.5L0,-3.0L2.5,-0.5"/>
  </g>
  <g id="arrowRight" transform="rotate(90) translate(36 -43)">
    <use xlink:href="#rim"/>
    <path pointer-events="none" fill="none" stroke="white" stroke-width="1.5" d="M0,-3.0v7 M-2.5,-0.5L0,-3.0L2.5,-0.5"/>
  </g>
  <g id="arrowDown" transform="rotate(180) translate(-30 -48)">
    <use xlink:href="#rim"/>
    <path pointer-events="none" fill="none" stroke="white" stroke-width="1.5" d="M0,-3.0v7 M-2.5,-0.5L0,-3.0L2.5,-0.5"/>
  </g>
  <g id="arrowLeft" transform="rotate(270) translate(-36 17)">
    <use xlink:href="#rim"/>
    <path pointer-events="none" fill="none" stroke="white" stroke-width="1.5" d="M0,-3.0v7 M-2.5,-0.5L0,-3.0L2.5,-0.5"/>
  </g>
  <g id="resetDef">
    <use xlink:href="#rim2" fill="#404040"><set attributeName="fill" to="#808080" begin="reset.mouseover" end="reset.mouseout"/></use>
  </g>
</defs>
<script type="application/ecmascript">
var viewWidth = 1227;
var viewHeight = 478;
var sectionId = 'dynsection-0';
</script>
<script type="application/ecmascript" xlink:href="svg.min.js"/>
<svg id="graph" class="graph">
<g id="viewport">
<title>include/mosaic/auto_configurer/impl/opencv_camera_mt_handler.hpp</title>
<!-- Node1 -->
<g id="Node000001" class="node">
<title>Node1</title>
<g id="a_Node000001"><a xlink:title=" ">
<polygon fill="#999999" stroke="#666666" points="194,-470 54,-470 54,-429 194,-429 194,-470"/>
<text text-anchor="start" x="62" y="-458" font-family="Helvetica,sans-Serif" font-size="10.00">include/mosaic/auto</text>
<text text-anchor="start" x="62" y="-447" font-family="Helvetica,sans-Serif" font-size="10.00">_configurer/impl/opencv</text>
<text text-anchor="middle" x="124" y="-436" font-family="Helvetica,sans-Serif" font-size="10.00">_camera_mt_handler.hpp</text>
</a>
</g>
</g>
<!-- Node2 -->
<g id="Node000002" class="node">
<title>Node2</title>
<g id="a_Node000002"><a xlink:title=" ">
<polygon fill="#e0e0e0" stroke="#999999" points="191,-19 133,-19 133,0 191,0 191,-19"/>
<text text-anchor="middle" x="162" y="-7" font-family="Helvetica,sans-Serif" font-size="10.00">memory</text>
</a>
</g>
</g>
<!-- Node1&#45;&gt;Node2 -->
<g id="edge1_Node000001_Node000002" class="edge">
<title>Node1&#45;&gt;Node2</title>
<g id="a_edge1_Node000001_Node000002"><a xlink:title=" ">
<path fill="none" stroke="#63b8ff" d="M85.45,-428.83C49.04,-407.19 0,-368.72 0,-318.5 0,-318.5 0,-318.5 0,-124 0,-64.21 74.94,-33.25 122.88,-19.56"/>
<polygon fill="#63b8ff" stroke="#63b8ff" points="123.93,-22.9 132.66,-16.89 122.09,-16.14 123.93,-22.9"/>
</a>
</g>
</g>
<!-- Node3 -->
<g id="Node000003" class="node">
<title>Node3</title>
<g id="a_Node000003"><a xlink:title=" ">
<polygon fill="#e0e0e0" stroke="#999999" points="96,-387.5 48,-387.5 48,-368.5 96,-368.5 96,-387.5"/>
<text text-anchor="middle" x="72" y="-375.5" font-family="Helvetica,sans-Serif" font-size="10.00">thread</text>
</a>
</g>
</g>
<!-- Node1&#45;&gt;Node3 -->
<g id="edge2_Node000001_Node000003" class="edge">
<title>Node1&#45;&gt;Node3</title>
<g id="a_edge2_Node000001_Node000003"><a xlink:title=" ">
<path fill="none" stroke="#63b8ff" d="M109.24,-428.77C101.51,-418.45 92.15,-405.93 84.75,-396.04"/>
<polygon fill="#63b8ff" stroke="#63b8ff" points="87.39,-393.73 78.6,-387.82 81.79,-397.92 87.39,-393.73"/>
</a>
</g>
</g>
<!-- Node4 -->
<g id="Node000004" class="node">
<title>Node4</title>
<g id="a_Node000004"><a xlink:title=" ">
<polygon fill="#e0e0e0" stroke="#999999" points="182,-134.5 66,-134.5 66,-115.5 182,-115.5 182,-134.5"/>
<text text-anchor="middle" x="124" y="-122.5" font-family="Helvetica,sans-Serif" font-size="10.00">opencv2/opencv.hpp</text>
</a>
</g>
</g>
<!-- Node1&#45;&gt;Node4 -->
<g id="edge3_Node000001_Node000004" class="edge">
<title>Node1&#45;&gt;Node4</title>
<g id="a_edge3_Node000001_Node000004"><a xlink:title=" ">
<path fill="none" stroke="#63b8ff" d="M124,-428.68C124,-403.19 124,-357.55 124,-318.5 124,-318.5 124,-318.5 124,-256 124,-216.45 124,-170.13 124,-144.84"/>
<polygon fill="#63b8ff" stroke="#63b8ff" points="127.5,-144.52 124,-134.52 120.5,-144.52 127.5,-144.52"/>
</a>
</g>
</g>
<!-- Node5 -->
<g id="Node000005" class="node">
<title>Node5</title>
<g id="a_Node000005"><a xlink:href="media__track__handler_8hpp.html" target="_top" xlink:title=" ">
<polygon fill="white" stroke="#666666" points="325.5,-206 152.5,-206 152.5,-176 325.5,-176 325.5,-206"/>
<text text-anchor="start" x="160.5" y="-194" font-family="Helvetica,sans-Serif" font-size="10.00">../../handlers/media</text>
<text text-anchor="middle" x="239" y="-183" font-family="Helvetica,sans-Serif" font-size="10.00">_track/media_track_handler.hpp</text>
</a>
</g>
</g>
<!-- Node1&#45;&gt;Node5 -->
<g id="edge4_Node000001_Node000005" class="edge">
<title>Node1&#45;&gt;Node5</title>
<g id="a_edge4_Node000001_Node000005"><a xlink:title=" ">
<path fill="none" stroke="#63b8ff" d="M132.83,-428.8C153.7,-382.27 205.96,-265.7 228.44,-215.55"/>
<polygon fill="#63b8ff" stroke="#63b8ff" points="231.75,-216.73 232.65,-206.17 225.36,-213.87 231.75,-216.73"/>
</a>
</g>
</g>
<!-- Node11 -->
<g id="Node000011" class="node">
<title>Node11</title>
<g id="a_Node000011"><a xlink:href="configurable__connectors_8hpp.html" target="_top" xlink:title=" ">
<polygon fill="white" stroke="#666666" points="697.5,-393 560.5,-393 560.5,-363 697.5,-363 697.5,-393"/>
<text text-anchor="start" x="568.5" y="-381" font-family="Helvetica,sans-Serif" font-size="10.00">../connector/configurable</text>
<text text-anchor="middle" x="629" y="-370" font-family="Helvetica,sans-Serif" font-size="10.00">_connectors.hpp</text>
</a>
</g>
</g>
<!-- Node1&#45;&gt;Node11 -->
<g id="edge14_Node000001_Node000011" class="edge">
<title>Node1&#45;&gt;Node11</title>
<g id="a_edge14_Node000001_Node000011"><a xlink:title=" ">
<path fill="none" stroke="#63b8ff" d="M194.22,-438.84C287.66,-425.98 452.43,-403.3 550.08,-389.86"/>
<polygon fill="#63b8ff" stroke="#63b8ff" points="550.76,-393.3 560.19,-388.47 549.8,-386.37 550.76,-393.3"/>
</a>
</g>
</g>
<!-- Node5&#45;&gt;Node2 -->
<g id="edge6_Node000005_Node000002" class="edge">
<title>Node5&#45;&gt;Node2</title>
<g id="a_edge6_Node000005_Node000002"><a xlink:title=" ">
<path fill="none" stroke="#63b8ff" d="M232.16,-175.85C221.75,-154.13 201.51,-111.19 186,-74 179.69,-58.87 173.16,-41.44 168.5,-28.68"/>
<polygon fill="#63b8ff" stroke="#63b8ff" points="171.77,-27.42 165.08,-19.2 165.18,-29.79 171.77,-27.42"/>
</a>
</g>
</g>
<!-- Node5&#45;&gt;Node4 -->
<g id="edge8_Node000005_Node000004" class="edge">
<title>Node5&#45;&gt;Node4</title>
<g id="a_edge8_Node000005_Node000004"><a xlink:title=" ">
<path fill="none" stroke="#63b8ff" d="M213.76,-175.95C194.22,-165.08 167.32,-150.11 148.07,-139.4"/>
<polygon fill="#63b8ff" stroke="#63b8ff" points="149.74,-136.32 139.3,-134.52 146.34,-142.44 149.74,-136.32"/>
</a>
</g>
</g>
<!-- Node6 -->
<g id="Node000006" class="node">
<title>Node6</title>
<g id="a_Node000006"><a xlink:title=" ">
<polygon fill="#e0e0e0" stroke="#999999" points="326,-134.5 276,-134.5 276,-115.5 326,-115.5 326,-134.5"/>
<text text-anchor="middle" x="301" y="-122.5" font-family="Helvetica,sans-Serif" font-size="10.00">chrono</text>
</a>
</g>
</g>
<!-- Node5&#45;&gt;Node6 -->
<g id="edge5_Node000005_Node000006" class="edge">
<title>Node5&#45;&gt;Node6</title>
<g id="a_edge5_Node000005_Node000006"><a xlink:title=" ">
<path fill="none" stroke="#63b8ff" d="M252.76,-175.8C262.43,-165.82 275.37,-152.46 285.42,-142.09"/>
<polygon fill="#63b8ff" stroke="#63b8ff" points="287.99,-144.46 292.43,-134.84 282.96,-139.59 287.99,-144.46"/>
</a>
</g>
</g>
<!-- Node7 -->
<g id="Node000007" class="node">
<title>Node7</title>
<g id="a_Node000007"><a xlink:title=" ">
<polygon fill="#e0e0e0" stroke="#999999" points="747,-19 703,-19 703,0 747,0 747,-19"/>
<text text-anchor="middle" x="725" y="-7" font-family="Helvetica,sans-Serif" font-size="10.00">string</text>
</a>
</g>
</g>
<!-- Node5&#45;&gt;Node7 -->
<g id="edge7_Node000005_Node000007" class="edge">
<title>Node5&#45;&gt;Node7</title>
<g id="a_edge7_Node000005_Node000007"><a xlink:title=" ">
<path fill="none" stroke="#63b8ff" d="M325.73,-184.29C379.33,-178.23 448.44,-165.74 505,-140 524.59,-131.09 525.05,-121.87 543,-110 550.32,-105.16 652.09,-49.96 700.17,-23.93"/>
<polygon fill="#63b8ff" stroke="#63b8ff" points="701.9,-26.98 709.03,-19.14 698.57,-20.82 701.9,-26.98"/>
</a>
</g>
</g>
<!-- Node8 -->
<g id="Node000008" class="node">
<title>Node8</title>
<g id="a_Node000008"><a xlink:href="webrtc__forward__decl_8hpp.html" target="_top" xlink:title=" ">
<polygon fill="white" stroke="#666666" points="678,-140 552,-140 552,-110 678,-110 678,-140"/>
<text text-anchor="start" x="560" y="-128" font-family="Helvetica,sans-Serif" font-size="10.00">../../rtc/webrtc_forward</text>
<text text-anchor="middle" x="615" y="-117" font-family="Helvetica,sans-Serif" font-size="10.00">_decl.hpp</text>
</a>
</g>
</g>
<!-- Node5&#45;&gt;Node8 -->
<g id="edge9_Node000005_Node000008" class="edge">
<title>Node5&#45;&gt;Node8</title>
<g id="a_edge9_Node000005_Node000008"><a xlink:title=" ">
<path fill="none" stroke="#63b8ff" d="M324.76,-175.99C384.57,-166.14 466.19,-152.53 538,-140 539.28,-139.78 540.57,-139.55 541.87,-139.32"/>
<polygon fill="#63b8ff" stroke="#63b8ff" points="542.74,-142.72 551.98,-137.53 541.52,-135.83 542.74,-142.72"/>
</a>
</g>
</g>
<!-- Node9 -->
<g id="Node000009" class="node">
<title>Node9</title>
<g id="a_Node000009"><a xlink:href="recordable_8hpp.html" target="_top" xlink:title=" ">
<polygon fill="white" stroke="#666666" points="317.5,-74 228.5,-74 228.5,-55 317.5,-55 317.5,-74"/>
<text text-anchor="middle" x="273" y="-62" font-family="Helvetica,sans-Serif" font-size="10.00">recordable.hpp</text>
</a>
</g>
</g>
<!-- Node5&#45;&gt;Node9 -->
<g id="edge10_Node000005_Node000009" class="edge">
<title>Node5&#45;&gt;Node9</title>
<g id="a_edge10_Node000005_Node000009"><a xlink:title=" ">
<path fill="none" stroke="#63b8ff" d="M242.9,-175.72C249.1,-153.02 261.2,-108.72 268.02,-83.75"/>
<polygon fill="#63b8ff" stroke="#63b8ff" points="271.4,-84.64 270.66,-74.07 264.65,-82.79 271.4,-84.64"/>
</a>
</g>
</g>
<!-- Node9&#45;&gt;Node2 -->
<g id="edge11_Node000009_Node000002" class="edge">
<title>Node9&#45;&gt;Node2</title>
<g id="a_edge11_Node000009_Node000002"><a xlink:title=" ">
<path fill="none" stroke="#63b8ff" d="M255.17,-54.98C237.39,-46.5 209.85,-33.35 189.32,-23.54"/>
<polygon fill="#63b8ff" stroke="#63b8ff" points="190.69,-20.32 180.16,-19.17 187.67,-26.64 190.69,-20.32"/>
</a>
</g>
</g>
<!-- Node9&#45;&gt;Node7 -->
<g id="edge12_Node000009_Node000007" class="edge">
<title>Node9&#45;&gt;Node7</title>
<g id="a_edge12_Node000009_Node000007"><a xlink:title=" ">
<path fill="none" stroke="#63b8ff" d="M317.77,-56.3C320.89,-55.84 323.99,-55.4 327,-55 462.72,-36.74 625.2,-20.24 692.92,-13.6"/>
<polygon fill="#63b8ff" stroke="#63b8ff" points="693.34,-17.07 702.95,-12.62 692.66,-10.1 693.34,-17.07"/>
</a>
</g>
</g>
<!-- Node10 -->
<g id="Node000010" class="node">
<title>Node10</title>
<g id="a_Node000010"><a xlink:href="opencv__forward__decl_8hpp.html" target="_top" xlink:title=" ">
<polygon fill="white" stroke="#666666" points="350.5,-19 209.5,-19 209.5,0 350.5,0 350.5,-19"/>
<text text-anchor="middle" x="280" y="-7" font-family="Helvetica,sans-Serif" font-size="10.00">opencv_forward_decl.hpp</text>
</a>
</g>
</g>
<!-- Node9&#45;&gt;Node10 -->
<g id="edge13_Node000009_Node000010" class="edge">
<title>Node9&#45;&gt;Node10</title>
<g id="a_edge13_Node000009_Node000010"><a xlink:title=" ">
<path fill="none" stroke="#63b8ff" d="M274.16,-54.75C275.07,-47.8 276.39,-37.85 277.54,-29.13"/>
<polygon fill="#63b8ff" stroke="#63b8ff" points="281.03,-29.46 278.87,-19.09 274.09,-28.54 281.03,-29.46"/>
</a>
</g>
</g>
<!-- Node12 -->
<g id="Node000012" class="node">
<title>Node12</title>
<g id="a_Node000012"><a xlink:href="configs__decl_8hpp.html" target="_top" xlink:title=" ">
<polygon fill="white" stroke="#666666" points="1219,-74 1103,-74 1103,-55 1219,-55 1219,-74"/>
<text text-anchor="middle" x="1161" y="-62" font-family="Helvetica,sans-Serif" font-size="10.00">../../configs_decl.hpp</text>
</a>
</g>
</g>
<!-- Node11&#45;&gt;Node12 -->
<g id="edge15_Node000011_Node000012" class="edge">
<title>Node11&#45;&gt;Node12</title>
<g id="a_edge15_Node000011_Node000012"><a xlink:title=" ">
<path fill="none" stroke="#63b8ff" d="M697.62,-375.81C840.75,-371.47 1158,-351.31 1158,-258 1158,-258 1158,-258 1158,-190 1158,-152.48 1159.38,-108.63 1160.27,-84.26"/>
<polygon fill="#63b8ff" stroke="#63b8ff" points="1163.76,-84.38 1160.64,-74.25 1156.77,-84.11 1163.76,-84.38"/>
</a>
</g>
</g>
<!-- Node15 -->
<g id="Node000015" class="node">
<title>Node15</title>
<g id="a_Node000015"><a xlink:href="mosaic__connector_8hpp.html" target="_top" xlink:title=" ">
<polygon fill="white" stroke="#666666" points="712.5,-327 545.5,-327 545.5,-308 712.5,-308 712.5,-327"/>
<text text-anchor="middle" x="629" y="-315" font-family="Helvetica,sans-Serif" font-size="10.00">../../core/mosaic_connector.hpp</text>
</a>
</g>
</g>
<!-- Node11&#45;&gt;Node15 -->
<g id="edge19_Node000011_Node000015" class="edge">
<title>Node11&#45;&gt;Node15</title>
<g id="a_edge19_Node000011_Node000015"><a xlink:title=" ">
<path fill="none" stroke="#63b8ff" d="M629,-362.84C629,-355.21 629,-345.7 629,-337.45"/>
<polygon fill="#63b8ff" stroke="#63b8ff" points="632.5,-337.27 629,-327.27 625.5,-337.27 632.5,-337.27"/>
</a>
</g>
</g>
<!-- Node12&#45;&gt;Node7 -->
<g id="edge16_Node000012_Node000007" class="edge">
<title>Node12&#45;&gt;Node7</title>
<g id="a_edge16_Node000012_Node000007"><a xlink:title=" ">
<path fill="none" stroke="#63b8ff" d="M1102.65,-56.41C1009.54,-45.09 830.41,-23.31 757.29,-14.42"/>
<polygon fill="#63b8ff" stroke="#63b8ff" points="757.64,-10.94 747.29,-13.21 756.8,-17.89 757.64,-10.94"/>
</a>
</g>
</g>
<!-- Node13 -->
<g id="Node000013" class="node">
<title>Node13</title>
<g id="a_Node000013"><a xlink:title=" ">
<polygon fill="#e0e0e0" stroke="#999999" points="1209.5,-19 1116.5,-19 1116.5,0 1209.5,0 1209.5,-19"/>
<text text-anchor="middle" x="1163" y="-7" font-family="Helvetica,sans-Serif" font-size="10.00">unordered_map</text>
</a>
</g>
</g>
<!-- Node12&#45;&gt;Node13 -->
<g id="edge17_Node000012_Node000013" class="edge">
<title>Node12&#45;&gt;Node13</title>
<g id="a_edge17_Node000012_Node000013"><a xlink:title=" ">
<path fill="none" stroke="#63b8ff" d="M1161.33,-54.75C1161.59,-47.8 1161.97,-37.85 1162.3,-29.13"/>
<polygon fill="#63b8ff" stroke="#63b8ff" points="1165.8,-29.21 1162.68,-19.09 1158.8,-28.95 1165.8,-29.21"/>
</a>
</g>
</g>
<!-- Node14 -->
<g id="Node000014" class="node">
<title>Node14</title>
<g id="a_Node000014"><a xlink:title=" ">
<polygon fill="#e0e0e0" stroke="#999999" points="1098.5,-19 1051.5,-19 1051.5,0 1098.5,0 1098.5,-19"/>
<text text-anchor="middle" x="1075" y="-7" font-family="Helvetica,sans-Serif" font-size="10.00">vector</text>
</a>
</g>
</g>
<!-- Node12&#45;&gt;Node14 -->
<g id="edge18_Node000012_Node000014" class="edge">
<title>Node12&#45;&gt;Node14</title>
<g id="a_edge18_Node000012_Node000014"><a xlink:title=" ">
<path fill="none" stroke="#63b8ff" d="M1147.18,-54.98C1133.85,-46.77 1113.42,-34.18 1097.69,-24.49"/>
<polygon fill="#63b8ff" stroke="#63b8ff" points="1099.42,-21.44 1089.07,-19.17 1095.75,-27.4 1099.42,-21.44"/>
</a>
</g>
</g>
<!-- Node15&#45;&gt;Node2 -->
<g id="edge21_Node000015_Node000002" class="edge">
<title>Node15&#45;&gt;Node2</title>
<g id="a_edge21_Node000015_Node000002"><a xlink:title=" ">
<path fill="none" stroke="#63b8ff" d="M545.26,-316.09C382.23,-313.03 38,-294.43 38,-192 38,-192 38,-192 38,-124 38,-74.04 93.46,-40.14 130.2,-23.16"/>
<polygon fill="#63b8ff" stroke="#63b8ff" points="131.82,-26.27 139.54,-19.02 128.98,-19.87 131.82,-26.27"/>
</a>
</g>
</g>
<!-- Node15&#45;&gt;Node5 -->
<g id="edge36_Node000015_Node000005" class="edge">
<title>Node15&#45;&gt;Node5</title>
<g id="a_edge36_Node000015_Node000005"><a xlink:title=" ">
<path fill="none" stroke="#63b8ff" d="M611.26,-307.9C594.33,-299.46 568.32,-285.86 547,-272 528.67,-260.08 527.97,-250.91 508,-242 492.13,-234.92 406.54,-219.6 336.11,-207.77"/>
<polygon fill="#63b8ff" stroke="#63b8ff" points="336.27,-204.25 325.83,-206.06 335.12,-211.16 336.27,-204.25"/>
</a>
</g>
</g>
<!-- Node15&#45;&gt;Node7 -->
<g id="edge22_Node000015_Node000007" class="edge">
<title>Node15&#45;&gt;Node7</title>
<g id="a_edge22_Node000015_Node000007"><a xlink:title=" ">
<path fill="none" stroke="#63b8ff" d="M655.28,-307.88C673.35,-300.77 696.74,-289.06 712,-272 737.53,-243.45 744,-230.29 744,-192 744,-192 744,-192 744,-124 744,-90.16 735.68,-51.41 730.05,-29.07"/>
<polygon fill="#63b8ff" stroke="#63b8ff" points="733.4,-28.03 727.48,-19.25 726.63,-29.81 733.4,-28.03"/>
</a>
</g>
</g>
<!-- Node16 -->
<g id="Node000016" class="node">
<title>Node16</title>
<g id="a_Node000016"><a xlink:title=" ">
<polygon fill="#e0e0e0" stroke="#999999" points="499,-266.5 461,-266.5 461,-247.5 499,-247.5 499,-266.5"/>
<text text-anchor="middle" x="480" y="-254.5" font-family="Helvetica,sans-Serif" font-size="10.00">map</text>
</a>
</g>
</g>
<!-- Node15&#45;&gt;Node16 -->
<g id="edge20_Node000015_Node000016" class="edge">
<title>Node15&#45;&gt;Node16</title>
<g id="a_edge20_Node000015_Node000016"><a xlink:title=" ">
<path fill="none" stroke="#63b8ff" d="M605.8,-307.87C582.31,-299.07 545,-284.92 513,-272 511.59,-271.43 510.16,-270.85 508.7,-270.25"/>
<polygon fill="#63b8ff" stroke="#63b8ff" points="509.72,-266.88 499.15,-266.26 507.03,-273.34 509.72,-266.88"/>
</a>
</g>
</g>
<!-- Node17 -->
<g id="Node000017" class="node">
<title>Node17</title>
<g id="a_Node000017"><a xlink:href="data__channel__handler_8hpp.html" target="_top" xlink:title=" ">
<polygon fill="white" stroke="#666666" points="702.5,-272 555.5,-272 555.5,-242 702.5,-242 702.5,-272"/>
<text text-anchor="start" x="563.5" y="-260" font-family="Helvetica,sans-Serif" font-size="10.00">../handlers/data_channel</text>
<text text-anchor="middle" x="629" y="-249" font-family="Helvetica,sans-Serif" font-size="10.00">/data_channel_handler.hpp</text>
</a>
</g>
</g>
<!-- Node15&#45;&gt;Node17 -->
<g id="edge23_Node000015_Node000017" class="edge">
<title>Node15&#45;&gt;Node17</title>
<g id="a_edge23_Node000015_Node000017"><a xlink:title=" ">
<path fill="none" stroke="#63b8ff" d="M629,-307.87C629,-301.11 629,-291.35 629,-282.26"/>
<polygon fill="#63b8ff" stroke="#63b8ff" points="632.5,-282.11 629,-272.11 625.5,-282.11 632.5,-282.11"/>
</a>
</g>
</g>
<!-- Node24 -->
<g id="Node000024" class="node">
<title>Node24</title>
<g id="a_Node000024"><a xlink:href="connector__state__manager_8hpp.html" target="_top" xlink:title=" ">
<polygon fill="white" stroke="#666666" points="936,-266.5 772,-266.5 772,-247.5 936,-247.5 936,-266.5"/>
<text text-anchor="middle" x="854" y="-254.5" font-family="Helvetica,sans-Serif" font-size="10.00">connector_state_manager.hpp</text>
</a>
</g>
</g>
<!-- Node15&#45;&gt;Node24 -->
<g id="edge37_Node000015_Node000024" class="edge">
<title>Node15&#45;&gt;Node24</title>
<g id="a_edge37_Node000015_Node000024"><a xlink:title=" ">
<path fill="none" stroke="#63b8ff" d="M661.72,-307.99C701.29,-297.7 768.01,-280.36 811.52,-269.04"/>
<polygon fill="#63b8ff" stroke="#63b8ff" points="812.45,-272.42 821.24,-266.52 810.68,-265.65 812.45,-272.42"/>
</a>
</g>
</g>
<!-- Node31 -->
<g id="Node000031" class="node">
<title>Node31</title>
<g id="a_Node000031"><a xlink:href="peer__connection__manager_8hpp.html" target="_top" xlink:title=" ">
<polygon fill="white" stroke="#666666" points="1129,-266.5 963,-266.5 963,-247.5 1129,-247.5 1129,-266.5"/>
<text text-anchor="middle" x="1046" y="-254.5" font-family="Helvetica,sans-Serif" font-size="10.00">peer_connection_manager.hpp</text>
</a>
</g>
</g>
<!-- Node15&#45;&gt;Node31 -->
<g id="edge50_Node000015_Node000031" class="edge">
<title>Node15&#45;&gt;Node31</title>
<g id="a_edge50_Node000015_Node000031"><a xlink:title=" ">
<path fill="none" stroke="#63b8ff" d="M689.64,-307.99C765.45,-297.36 895.01,-279.18 975.27,-267.92"/>
<polygon fill="#63b8ff" stroke="#63b8ff" points="975.87,-271.37 985.29,-266.52 974.9,-264.44 975.87,-271.37"/>
</a>
</g>
</g>
<!-- Node17&#45;&gt;Node7 -->
<g id="edge24_Node000017_Node000007" class="edge">
<title>Node17&#45;&gt;Node7</title>
<g id="a_edge24_Node000017_Node000007"><a xlink:title=" ">
<path fill="none" stroke="#63b8ff" d="M637.18,-241.73C649.27,-220.21 672.09,-177.93 687,-140 702.16,-101.44 714.51,-54.36 720.69,-28.93"/>
<polygon fill="#63b8ff" stroke="#63b8ff" points="724.11,-29.7 723.03,-19.16 717.3,-28.08 724.11,-29.7"/>
</a>
</g>
</g>
<!-- Node17&#45;&gt;Node8 -->
<g id="edge35_Node000017_Node000008" class="edge">
<title>Node17&#45;&gt;Node8</title>
<g id="a_edge35_Node000017_Node000008"><a xlink:title=" ">
<path fill="none" stroke="#63b8ff" d="M627.48,-241.84C625.11,-219.86 620.52,-177.27 617.62,-150.3"/>
<polygon fill="#63b8ff" stroke="#63b8ff" points="621.07,-149.71 616.52,-140.14 614.11,-150.46 621.07,-149.71"/>
</a>
</g>
</g>
<!-- Node18 -->
<g id="Node000018" class="node">
<title>Node18</title>
<g id="a_Node000018"><a xlink:href="log_8hpp.html" target="_top" xlink:title=" ">
<polygon fill="white" stroke="#666666" points="510,-200.5 406,-200.5 406,-181.5 510,-181.5 510,-200.5"/>
<text text-anchor="middle" x="458" y="-188.5" font-family="Helvetica,sans-Serif" font-size="10.00">../../logger/log.hpp</text>
</a>
</g>
</g>
<!-- Node17&#45;&gt;Node18 -->
<g id="edge25_Node000017_Node000018" class="edge">
<title>Node17&#45;&gt;Node18</title>
<g id="a_edge25_Node000017_Node000018"><a xlink:title=" ">
<path fill="none" stroke="#63b8ff" d="M591.47,-241.95C561.22,-230.63 519.12,-214.88 490.34,-204.1"/>
<polygon fill="#63b8ff" stroke="#63b8ff" points="491.35,-200.74 480.76,-200.52 488.9,-207.3 491.35,-200.74"/>
</a>
</g>
</g>
<!-- Node19 -->
<g id="Node000019" class="node">
<title>Node19</title>
<g id="a_Node000019"><a xlink:href="i__logger_8hpp.html" target="_top" xlink:title=" ">
<polygon fill="white" stroke="#666666" points="496,-134.5 420,-134.5 420,-115.5 496,-115.5 496,-134.5"/>
<text text-anchor="middle" x="458" y="-122.5" font-family="Helvetica,sans-Serif" font-size="10.00">i_logger.hpp</text>
</a>
</g>
</g>
<!-- Node18&#45;&gt;Node19 -->
<g id="edge26_Node000018_Node000019" class="edge">
<title>Node18&#45;&gt;Node19</title>
<g id="a_edge26_Node000018_Node000019"><a xlink:title=" ">
<path fill="none" stroke="#63b8ff" d="M458,-181.37C458,-172.16 458,-157.29 458,-145.27"/>
<polygon fill="#63b8ff" stroke="#63b8ff" points="461.5,-144.91 458,-134.91 454.5,-144.91 461.5,-144.91"/>
</a>
</g>
</g>
<!-- Node22 -->
<g id="Node000022" class="node">
<title>Node22</title>
<g id="a_Node000022"><a xlink:href="log__service_8hpp.html" target="_top" xlink:title=" ">
<polygon fill="white" stroke="#666666" points="428.5,-74 335.5,-74 335.5,-55 428.5,-55 428.5,-74"/>
<text text-anchor="middle" x="382" y="-62" font-family="Helvetica,sans-Serif" font-size="10.00">log_service.hpp</text>
</a>
</g>
</g>
<!-- Node18&#45;&gt;Node22 -->
<g id="edge34_Node000018_Node000022" class="edge">
<title>Node18&#45;&gt;Node22</title>
<g id="a_edge34_Node000018_Node000022"><a xlink:title=" ">
<path fill="none" stroke="#63b8ff" d="M447.81,-181.33C437.38,-172.01 421.3,-156.32 411,-140 399.92,-122.43 391.88,-99.94 387.12,-84.29"/>
<polygon fill="#63b8ff" stroke="#63b8ff" points="390.36,-82.91 384.23,-74.27 383.63,-84.85 390.36,-82.91"/>
</a>
</g>
</g>
<!-- Node19&#45;&gt;Node7 -->
<g id="edge27_Node000019_Node000007" class="edge">
<title>Node19&#45;&gt;Node7</title>
<g id="a_edge27_Node000019_Node000007"><a xlink:title=" ">
<path fill="none" stroke="#63b8ff" d="M477.39,-115.35C507.13,-102.13 565.82,-76.2 616,-55 642.29,-43.9 672.32,-31.67 694.2,-22.84"/>
<polygon fill="#63b8ff" stroke="#63b8ff" points="695.66,-26.03 703.63,-19.05 693.05,-19.53 695.66,-26.03"/>
</a>
</g>
</g>
<!-- Node20 -->
<g id="Node000020" class="node">
<title>Node20</title>
<g id="a_Node000020"><a xlink:title=" ">
<polygon fill="#e0e0e0" stroke="#999999" points="525.5,-74 446.5,-74 446.5,-55 525.5,-55 525.5,-74"/>
<text text-anchor="middle" x="486" y="-62" font-family="Helvetica,sans-Serif" font-size="10.00">fmt/format.h</text>
</a>
</g>
</g>
<!-- Node19&#45;&gt;Node20 -->
<g id="edge28_Node000019_Node000020" class="edge">
<title>Node19&#45;&gt;Node20</title>
<g id="a_edge28_Node000019_Node000020"><a xlink:title=" ">
<path fill="none" stroke="#63b8ff" d="M462.13,-115.37C466.14,-106.99 472.35,-94.01 477.44,-83.39"/>
<polygon fill="#63b8ff" stroke="#63b8ff" points="480.69,-84.7 481.85,-74.17 474.38,-81.68 480.69,-84.7"/>
</a>
</g>
</g>
<!-- Node21 -->
<g id="Node000021" class="node">
<title>Node21</title>
<g id="a_Node000021"><a xlink:href="log__level_8hpp.html" target="_top" xlink:title=" ">
<polygon fill="white" stroke="#666666" points="567,-19 485,-19 485,0 567,0 567,-19"/>
<text text-anchor="middle" x="526" y="-7" font-family="Helvetica,sans-Serif" font-size="10.00">log_level.hpp</text>
</a>
</g>
</g>
<!-- Node19&#45;&gt;Node21 -->
<g id="edge29_Node000019_Node000021" class="edge">
<title>Node19&#45;&gt;Node21</title>
<g id="a_edge29_Node000019_Node000021"><a xlink:title=" ">
<path fill="none" stroke="#63b8ff" d="M482.66,-115.41C500.73,-107.65 523.97,-94.31 535,-74 542.55,-60.1 538.95,-42.08 534.25,-28.79"/>
<polygon fill="#63b8ff" stroke="#63b8ff" points="537.42,-27.28 530.44,-19.31 530.92,-29.89 537.42,-27.28"/>
</a>
</g>
</g>
<!-- Node19&#45;&gt;Node22 -->
<g id="edge30_Node000019_Node000022" class="edge">
<title>Node19&#45;&gt;Node22</title>
<g id="a_edge30_Node000019_Node000022"><a xlink:title=" ">
<path fill="none" stroke="#63b8ff" d="M446.79,-115.37C434.89,-106.21 415.86,-91.56 401.49,-80.51"/>
<polygon fill="#63b8ff" stroke="#63b8ff" points="403.32,-77.49 393.26,-74.17 399.05,-83.04 403.32,-77.49"/>
</a>
</g>
</g>
<!-- Node22&#45;&gt;Node2 -->
<g id="edge31_Node000022_Node000002" class="edge">
<title>Node22&#45;&gt;Node2</title>
<g id="a_edge31_Node000022_Node000002"><a xlink:title=" ">
<path fill="none" stroke="#63b8ff" d="M346.65,-54.98C306.9,-45.41 242.53,-29.9 201.24,-19.95"/>
<polygon fill="#63b8ff" stroke="#63b8ff" points="201.82,-16.49 191.28,-17.55 200.18,-23.3 201.82,-16.49"/>
</a>
</g>
</g>
<!-- Node22&#45;&gt;Node21 -->
<g id="edge33_Node000022_Node000021" class="edge">
<title>Node22&#45;&gt;Node21</title>
<g id="a_edge33_Node000022_Node000021"><a xlink:title=" ">
<path fill="none" stroke="#63b8ff" d="M405.14,-54.98C428.82,-46.27 465.87,-32.63 492.71,-22.75"/>
<polygon fill="#63b8ff" stroke="#63b8ff" points="494.27,-25.91 502.44,-19.17 491.85,-19.34 494.27,-25.91"/>
</a>
</g>
</g>
<!-- Node23 -->
<g id="Node000023" class="node">
<title>Node23</title>
<g id="a_Node000023"><a xlink:title=" ">
<polygon fill="#e0e0e0" stroke="#999999" points="437.5,-19 368.5,-19 368.5,0 437.5,0 437.5,-19"/>
<text text-anchor="middle" x="403" y="-7" font-family="Helvetica,sans-Serif" font-size="10.00">type_traits</text>
</a>
</g>
</g>
<!-- Node22&#45;&gt;Node23 -->
<g id="edge32_Node000022_Node000023" class="edge">
<title>Node22&#45;&gt;Node23</title>
<g id="a_edge32_Node000022_Node000023"><a xlink:title=" ">
<path fill="none" stroke="#63b8ff" d="M385.47,-54.75C388.28,-47.65 392.34,-37.4 395.85,-28.56"/>
<polygon fill="#63b8ff" stroke="#63b8ff" points="399.17,-29.68 399.6,-19.09 392.66,-27.1 399.17,-29.68"/>
</a>
</g>
</g>
<!-- Node24&#45;&gt;Node2 -->
<g id="edge38_Node000024_Node000002" class="edge">
<title>Node24&#45;&gt;Node2</title>
<g id="a_edge38_Node000024_Node000002"><a xlink:title=" ">
<path fill="none" stroke="#63b8ff" d="M771.95,-247.92C642.56,-235.06 404.89,-210.87 397,-206 353.78,-179.32 375.42,-140.75 335,-110 292.38,-77.57 265.18,-102.77 220,-74 200.99,-61.9 184.23,-41.99 173.68,-27.69"/>
<polygon fill="#63b8ff" stroke="#63b8ff" points="176.33,-25.37 167.68,-19.24 170.62,-29.42 176.33,-25.37"/>
</a>
</g>
</g>
<!-- Node24&#45;&gt;Node7 -->
<g id="edge40_Node000024_Node000007" class="edge">
<title>Node24&#45;&gt;Node7</title>
<g id="a_edge40_Node000024_Node000007"><a xlink:title=" ">
<path fill="none" stroke="#63b8ff" d="M865.67,-247.44C878.23,-237.98 898.49,-221.94 914,-206 970.83,-147.59 1071.12,-116.8 1018,-55 984.65,-16.2 826.31,-10.83 757.29,-10.36"/>
<polygon fill="#63b8ff" stroke="#63b8ff" points="757.02,-6.86 747.01,-10.33 757,-13.86 757.02,-6.86"/>
</a>
</g>
</g>
<!-- Node25 -->
<g id="Node000025" class="node">
<title>Node25</title>
<g id="a_Node000025"><a xlink:title=" ">
<polygon fill="#e0e0e0" stroke="#999999" points="1047,-200.5 961,-200.5 961,-181.5 1047,-181.5 1047,-200.5"/>
<text text-anchor="middle" x="1004" y="-188.5" font-family="Helvetica,sans-Serif" font-size="10.00">shared_mutex</text>
</a>
</g>
</g>
<!-- Node24&#45;&gt;Node25 -->
<g id="edge39_Node000024_Node000025" class="edge">
<title>Node24&#45;&gt;Node25</title>
<g id="a_edge39_Node000024_Node000025"><a xlink:title=" ">
<path fill="none" stroke="#63b8ff" d="M874.23,-247.37C899.95,-236.39 944.57,-217.36 974.19,-204.72"/>
<polygon fill="#63b8ff" stroke="#63b8ff" points="975.79,-207.84 983.61,-200.7 973.04,-201.4 975.79,-207.84"/>
</a>
</g>
</g>
<!-- Node26 -->
<g id="Node000026" class="node">
<title>Node26</title>
<g id="a_Node000026"><a xlink:href="i__signaling__client_8hpp.html" target="_top" xlink:title=" ">
<polygon fill="white" stroke="#666666" points="904.5,-206 779.5,-206 779.5,-176 904.5,-176 904.5,-206"/>
<text text-anchor="start" x="787.5" y="-194" font-family="Helvetica,sans-Serif" font-size="10.00">../signaling/i_signaling</text>
<text text-anchor="middle" x="842" y="-183" font-family="Helvetica,sans-Serif" font-size="10.00">_client.hpp</text>
</a>
</g>
</g>
<!-- Node24&#45;&gt;Node26 -->
<g id="edge41_Node000024_Node000026" class="edge">
<title>Node24&#45;&gt;Node26</title>
<g id="a_edge41_Node000024_Node000026"><a xlink:title=" ">
<path fill="none" stroke="#63b8ff" d="M852.38,-247.37C850.89,-239.4 848.6,-227.2 846.55,-216.27"/>
<polygon fill="#63b8ff" stroke="#63b8ff" points="849.98,-215.54 844.69,-206.36 843.1,-216.83 849.98,-215.54"/>
</a>
</g>
</g>
<!-- Node26&#45;&gt;Node8 -->
<g id="edge42_Node000026_Node000008" class="edge">
<title>Node26&#45;&gt;Node8</title>
<g id="a_edge42_Node000026_Node000008"><a xlink:title=" ">
<path fill="none" stroke="#63b8ff" d="M792.18,-175.95C757.59,-166.2 711.32,-153.16 674.74,-142.84"/>
<polygon fill="#63b8ff" stroke="#63b8ff" points="675.27,-139.36 664.7,-140.01 673.37,-146.09 675.27,-139.36"/>
</a>
</g>
</g>
<!-- Node27 -->
<g id="Node000027" class="node">
<title>Node27</title>
<g id="a_Node000027"><a xlink:href="mosaic__authenticator_8hpp.html" target="_top" xlink:title=" ">
<polygon fill="white" stroke="#666666" points="915.5,-140 808.5,-140 808.5,-110 915.5,-110 915.5,-140"/>
<text text-anchor="start" x="816.5" y="-128" font-family="Helvetica,sans-Serif" font-size="10.00">../security/mosaic</text>
<text text-anchor="middle" x="862" y="-117" font-family="Helvetica,sans-Serif" font-size="10.00">_authenticator.hpp</text>
</a>
</g>
</g>
<!-- Node26&#45;&gt;Node27 -->
<g id="edge43_Node000026_Node000027" class="edge">
<title>Node26&#45;&gt;Node27</title>
<g id="a_edge43_Node000026_Node000027"><a xlink:title=" ">
<path fill="none" stroke="#63b8ff" d="M846.44,-175.8C848.82,-168.17 851.82,-158.57 854.55,-149.84"/>
<polygon fill="#63b8ff" stroke="#63b8ff" points="857.93,-150.75 857.57,-140.16 851.25,-148.66 857.93,-150.75"/>
</a>
</g>
</g>
<!-- Node27&#45;&gt;Node2 -->
<g id="edge44_Node000027_Node000002" class="edge">
<title>Node27&#45;&gt;Node2</title>
<g id="a_edge44_Node000027_Node000002"><a xlink:title=" ">
<path fill="none" stroke="#63b8ff" d="M808.5,-110.98C743.99,-95.68 632.13,-70.44 535,-55 390.72,-32.06 350.11,-42.46 201.28,-18.85"/>
<polygon fill="#63b8ff" stroke="#63b8ff" points="201.75,-15.38 191.32,-17.24 200.64,-22.29 201.75,-15.38"/>
</a>
</g>
</g>
<!-- Node27&#45;&gt;Node12 -->
<g id="edge47_Node000027_Node000012" class="edge">
<title>Node27&#45;&gt;Node12</title>
<g id="a_edge47_Node000027_Node000012"><a xlink:title=" ">
<path fill="none" stroke="#63b8ff" d="M915.8,-113.47C969.98,-102.87 1053.08,-86.61 1107.25,-76.02"/>
<polygon fill="#63b8ff" stroke="#63b8ff" points="1108.2,-79.4 1117.34,-74.04 1106.85,-72.53 1108.2,-79.4"/>
</a>
</g>
</g>
<!-- Node28 -->
<g id="Node000028" class="node">
<title>Node28</title>
<g id="a_Node000028"><a xlink:title=" ">
<polygon fill="#e0e0e0" stroke="#999999" points="904.5,-74 859.5,-74 859.5,-55 904.5,-55 904.5,-74"/>
<text text-anchor="middle" x="882" y="-62" font-family="Helvetica,sans-Serif" font-size="10.00">utility</text>
</a>
</g>
</g>
<!-- Node27&#45;&gt;Node28 -->
<g id="edge45_Node000027_Node000028" class="edge">
<title>Node27&#45;&gt;Node28</title>
<g id="a_edge45_Node000027_Node000028"><a xlink:title=" ">
<path fill="none" stroke="#63b8ff" d="M866.84,-109.84C869.51,-102.04 872.85,-92.27 875.71,-83.89"/>
<polygon fill="#63b8ff" stroke="#63b8ff" points="879.08,-84.86 879,-74.27 872.46,-82.6 879.08,-84.86"/>
</a>
</g>
</g>
<!-- Node29 -->
<g id="Node000029" class="node">
<title>Node29</title>
<g id="a_Node000029"><a xlink:title=" ">
<polygon fill="#e0e0e0" stroke="#999999" points="841.5,-74 772.5,-74 772.5,-55 841.5,-55 841.5,-74"/>
<text text-anchor="middle" x="807" y="-62" font-family="Helvetica,sans-Serif" font-size="10.00">json/json.h</text>
</a>
</g>
</g>
<!-- Node27&#45;&gt;Node29 -->
<g id="edge46_Node000027_Node000029" class="edge">
<title>Node27&#45;&gt;Node29</title>
<g id="a_edge46_Node000027_Node000029"><a xlink:title=" ">
<path fill="none" stroke="#63b8ff" d="M848.69,-109.84C840.7,-101.35 830.52,-90.52 822.22,-81.69"/>
<polygon fill="#63b8ff" stroke="#63b8ff" points="824.64,-79.15 815.24,-74.27 819.54,-83.95 824.64,-79.15"/>
</a>
</g>
</g>
<!-- Node30 -->
<g id="Node000030" class="node">
<title>Node30</title>
<g id="a_Node000030"><a xlink:href="auth__type_8hpp.html" target="_top" xlink:title=" ">
<polygon fill="white" stroke="#666666" points="1009,-74 923,-74 923,-55 1009,-55 1009,-74"/>
<text text-anchor="middle" x="966" y="-62" font-family="Helvetica,sans-Serif" font-size="10.00">auth_type.hpp</text>
</a>
</g>
</g>
<!-- Node27&#45;&gt;Node30 -->
<g id="edge48_Node000027_Node000030" class="edge">
<title>Node27&#45;&gt;Node30</title>
<g id="a_edge48_Node000027_Node000030"><a xlink:title=" ">
<path fill="none" stroke="#63b8ff" d="M886.91,-109.99C903.49,-100.66 925.16,-88.47 941.63,-79.21"/>
<polygon fill="#63b8ff" stroke="#63b8ff" points="943.64,-82.09 950.64,-74.14 940.21,-75.99 943.64,-82.09"/>
</a>
</g>
</g>
<!-- Node30&#45;&gt;Node7 -->
<g id="edge49_Node000030_Node000007" class="edge">
<title>Node30&#45;&gt;Node7</title>
<g id="a_edge49_Node000030_Node000007"><a xlink:title=" ">
<path fill="none" stroke="#63b8ff" d="M927.28,-54.98C879.98,-44.58 800.84,-27.18 756.89,-17.51"/>
<polygon fill="#63b8ff" stroke="#63b8ff" points="757.54,-14.07 747.03,-15.34 756.04,-20.91 757.54,-14.07"/>
</a>
</g>
</g>
<!-- Node31&#45;&gt;Node12 -->
<g id="edge52_Node000031_Node000012" class="edge">
<title>Node31&#45;&gt;Node12</title>
<g id="a_edge52_Node000031_Node000012"><a xlink:title=" ">
<path fill="none" stroke="#63b8ff" d="M1054.61,-247.31C1063.82,-237.72 1078.52,-221.58 1089,-206 1116.81,-164.63 1141.44,-111.14 1153.38,-83.62"/>
<polygon fill="#63b8ff" stroke="#63b8ff" points="1156.73,-84.69 1157.44,-74.12 1150.29,-81.94 1156.73,-84.69"/>
</a>
</g>
</g>
<!-- Node31&#45;&gt;Node14 -->
<g id="edge51_Node000031_Node000014" class="edge">
<title>Node31&#45;&gt;Node14</title>
<g id="a_edge51_Node000031_Node000014"><a xlink:title=" ">
<path fill="none" stroke="#63b8ff" d="M1048.04,-247.2C1050.28,-237.24 1053.85,-220.54 1056,-206 1065.57,-141.45 1071.45,-64.16 1073.81,-29.25"/>
<polygon fill="#63b8ff" stroke="#63b8ff" points="1077.31,-29.32 1074.47,-19.11 1070.33,-28.86 1077.31,-29.32"/>
</a>
</g>
</g>
<!-- Node31&#45;&gt;Node26 -->
<g id="edge53_Node000031_Node000026" class="edge">
<title>Node31&#45;&gt;Node26</title>
<g id="a_edge53_Node000031_Node000026"><a xlink:title=" ">
<path fill="none" stroke="#63b8ff" d="M1018.49,-247.37C987.41,-237.62 936.04,-221.5 896.71,-209.16"/>
<polygon fill="#63b8ff" stroke="#63b8ff" points="897.58,-205.77 886.99,-206.12 895.49,-212.45 897.58,-205.77"/>
</a>
</g>
</g>
</g>
</svg>

<g id="navigator" transform="translate(0 0)" fill="#404254">
  <rect fill="#f2f5e9" fill-opacity="0.5" stroke="#606060" stroke-width=".5" x="0" y="0" width="60" height="60"/>
  <use id="zoomplus" xlink:href="#zoomPlus" x="17" y="9" onmousedown="handleZoom(evt,'in')"/>
  <use id="zoomminus" xlink:href="#zoomMin" x="42" y="9" onmousedown="handleZoom(evt,'out')"/>
  <use id="reset" xlink:href="#resetDef" x="30" y="36" onmousedown="handleReset()"/>
   <use id="arrowup" xlink:href="#arrowUp" x="0" y="0" onmousedown="handlePan(0,-1)"/>
  <use id="arrowright" xlink:href="#arrowRight" x="0" y="0" onmousedown="handlePan(1,0)"/>
  <use id="arrowdown" xlink:href="#arrowDown" x="0" y="0" onmousedown="handlePan(0,1)"/>
  <use id="arrowleft" xlink:href="#arrowLeft" x="0" y="0" onmousedown="handlePan(-1,0)"/>
</g>
<svg viewBox="0 0 15 15" width="100%" height="30px" preserveAspectRatio="xMaxYMin meet">
 <g id="arrow_out" transform="scale(0.3 0.3)">
  <a xlink:href="opencv__camera__mt__handler_8hpp__incl_org.svg" target="_base">
   <rect id="button" ry="5" rx="5" y="6" x="6" height="38" width="38"
        fill="#f2f5e9" fill-opacity="0.5" stroke="#606060" stroke-width="1.0"/>
   <path id="arrow"
     d="M 11.500037,31.436501 C 11.940474,20.09759 22.043105,11.32322 32.158766,21.979434 L 37.068811,17.246167 C 37.068811,17.246167 37.088388,32 37.088388,32 L 22.160133,31.978069 C 22.160133,31.978069 26.997745,27.140456 26.997745,27.140456 C 18.528582,18.264221 13.291696,25.230495 11.500037,31.436501 z"
     style="fill:#404040;"/>
  </a>
 </g>
</svg>

<style type='text/css'>
<![CDATA[
[data-mouse-over-selected='false'] { opacity: 0.7; }
[data-mouse-over-selected='true']  { opacity: 1.0; }
]]>
</style>
<script type="application/ecmascript"><![CDATA[
document.addEventListener('DOMContentLoaded', (event) => {
  highlightEdges();
  highlightAdjacentNodes();
});
]]></script>
</svg>
