<?xml version="1.0" encoding="UTF-8" standalone="no"?>
<!DOCTYPE svg PUBLIC "-//W3C//DTD SVG 1.1//EN"
 "http://www.w3.org/Graphics/SVG/1.1/DTD/svg11.dtd">
<!-- Generated by graphviz version 2.43.0 (0)
 -->
<!-- Title: include/mosaic/auto_configurer/impl/opencv_camera_mt_handler.h Pages: 1 -->
<svg width="280pt" height="126pt"
 viewBox="0.00 0.00 280.00 126.00" xmlns="http://www.w3.org/2000/svg" xmlns:xlink="http://www.w3.org/1999/xlink">
<g id="graph0" class="graph" transform="scale(1 1) rotate(0) translate(4 122)">
<title>include/mosaic/auto_configurer/impl/opencv_camera_mt_handler.h</title>
<!-- Node1 -->
<g id="Node000001" class="node">
<title>Node1</title>
<g id="a_Node000001"><a xlink:title=" ">
<polygon fill="#999999" stroke="#666666" points="205,-118 71,-118 71,-77 205,-77 205,-118"/>
<text text-anchor="start" x="79" y="-106" font-family="Helvetica,sans-Serif" font-size="10.00">include/mosaic/auto</text>
<text text-anchor="start" x="79" y="-95" font-family="Helvetica,sans-Serif" font-size="10.00">_configurer/impl/opencv</text>
<text text-anchor="middle" x="138" y="-84" font-family="Helvetica,sans-Serif" font-size="10.00">_camera_mt_handler.h</text>
</a>
</g>
</g>
<!-- Node2 -->
<g id="Node000002" class="node">
<title>Node2</title>
<g id="a_Node000002"><a xlink:href="connector__resolver_8cpp.html" target="_top" xlink:title=" ">
<polygon fill="white" stroke="#666666" points="132,-35.5 0,-35.5 0,-5.5 132,-5.5 132,-35.5"/>
<text text-anchor="start" x="8" y="-23.5" font-family="Helvetica,sans-Serif" font-size="10.00">src/auto_configurer</text>
<text text-anchor="middle" x="66" y="-12.5" font-family="Helvetica,sans-Serif" font-size="10.00">/connector_resolver.cpp</text>
</a>
</g>
</g>
<!-- Node1&#45;&gt;Node2 -->
<g id="edge1_Node000001_Node000002" class="edge">
<title>Node1&#45;&gt;Node2</title>
<g id="a_edge1_Node000001_Node000002"><a xlink:title=" ">
<path fill="none" stroke="#63b8ff" d="M112.14,-69.57C101.22,-58.18 88.93,-45.39 79.79,-35.86"/>
<polygon fill="#63b8ff" stroke="#63b8ff" points="109.63,-72 119.08,-76.79 114.68,-67.16 109.63,-72"/>
</a>
</g>
</g>
<!-- Node3 -->
<g id="Node000003" class="node">
<title>Node3</title>
<g id="a_Node000003"><a xlink:href="opencv__camera__mt__handler_8cpp.html" target="_top" xlink:title=" ">
<polygon fill="white" stroke="#666666" points="272,-41 150,-41 150,0 272,0 272,-41"/>
<text text-anchor="start" x="158" y="-29" font-family="Helvetica,sans-Serif" font-size="10.00">src/auto_configurer</text>
<text text-anchor="start" x="158" y="-18" font-family="Helvetica,sans-Serif" font-size="10.00">/impl/opencv_camera</text>
<text text-anchor="middle" x="211" y="-7" font-family="Helvetica,sans-Serif" font-size="10.00">_mt_handler.cpp</text>
</a>
</g>
</g>
<!-- Node1&#45;&gt;Node3 -->
<g id="edge2_Node000001_Node000003" class="edge">
<title>Node1&#45;&gt;Node3</title>
<g id="a_edge2_Node000001_Node000003"><a xlink:title=" ">
<path fill="none" stroke="#63b8ff" d="M164.27,-69.51C173.42,-60.11 183.5,-49.76 191.95,-41.07"/>
<polygon fill="#63b8ff" stroke="#63b8ff" points="161.65,-67.19 157.18,-76.79 166.66,-72.07 161.65,-67.19"/>
</a>
</g>
</g>
</g>
</svg>
