<?xml version="1.0" encoding="UTF-8" standalone="no"?>
<!DOCTYPE svg PUBLIC "-//W3C//DTD SVG 1.1//EN"
 "http://www.w3.org/Graphics/SVG/1.1/DTD/svg11.dtd">
<!-- Generated by graphviz version 2.43.0 (0)
 -->
<!-- Title: src/auto_configurer/impl/opencv_camera_mt_handler.cpp Pages: 1 -->
<!--zoomable 555 -->

<svg id="main" version="1.1" xmlns="http://www.w3.org/2000/svg" xmlns:xlink="http://www.w3.org/1999/xlink" xml:space="preserve" onload="init(evt)">
<style type="text/css"><![CDATA[
.node, .edge {opacity: 0.7;}
.node.selected, .edge.selected {opacity: 1;}
.edge:hover path { stroke: red; }
.edge:hover polygon { stroke: red; fill: red; }
]]></style>

<defs>
  <circle id="rim" cx="0" cy="0" r="7"/>
  <circle id="rim2" cx="0" cy="0" r="3.5"/>
  <g id="zoomPlus">
    <use xlink:href="#rim" fill="#404040"><set attributeName="fill" to="#808080" begin="zoomplus.mouseover" end="zoomplus.mouseout"/></use>
    <path d="M-4,0h8M0,-4v8" fill="none" stroke="white" stroke-width="1.5" pointer-events="none"/>
  </g>
  <g id="zoomMin">
    <use xlink:href="#rim" fill="#404040"><set attributeName="fill" to="#808080" begin="zoomminus.mouseover" end="zoomminus.mouseout"/></use>
    <path d="M-4,0h8" fill="none" stroke="white" stroke-width="1.5" pointer-events="none"/>
  </g>
  <g id="arrowUp" transform="translate(30 24)">
    <use xlink:href="#rim"/>
    <path pointer-events="none" fill="none" stroke="white" stroke-width="1.5" d="M0,-3.0v7 M-2.5,-0.5L0,-3.0L2.5,-0.5"/>
  </g>
  <g id="arrowRight" transform="rotate(90) translate(36 -43)">
    <use xlink:href="#rim"/>
    <path pointer-events="none" fill="none" stroke="white" stroke-width="1.5" d="M0,-3.0v7 M-2.5,-0.5L0,-3.0L2.5,-0.5"/>
  </g>
  <g id="arrowDown" transform="rotate(180) translate(-30 -48)">
    <use xlink:href="#rim"/>
    <path pointer-events="none" fill="none" stroke="white" stroke-width="1.5" d="M0,-3.0v7 M-2.5,-0.5L0,-3.0L2.5,-0.5"/>
  </g>
  <g id="arrowLeft" transform="rotate(270) translate(-36 17)">
    <use xlink:href="#rim"/>
    <path pointer-events="none" fill="none" stroke="white" stroke-width="1.5" d="M0,-3.0v7 M-2.5,-0.5L0,-3.0L2.5,-0.5"/>
  </g>
  <g id="resetDef">
    <use xlink:href="#rim2" fill="#404040"><set attributeName="fill" to="#808080" begin="reset.mouseover" end="reset.mouseout"/></use>
  </g>
</defs>
<script type="application/ecmascript">
var viewWidth = 1198;
var viewHeight = 555;
var sectionId = 'dynsection-0';
</script>
<script type="application/ecmascript" xlink:href="svg.min.js"/>
<svg id="graph" class="graph">
<g id="viewport">
<title>src/auto_configurer/impl/opencv_camera_mt_handler.cpp</title>
<!-- Node1 -->
<g id="Node000001" class="node">
<title>Node1</title>
<g id="a_Node000001"><a xlink:title=" ">
<polygon fill="#999999" stroke="#666666" points="733.5,-547 611.5,-547 611.5,-506 733.5,-506 733.5,-547"/>
<text text-anchor="start" x="619.5" y="-535" font-family="Helvetica,sans-Serif" font-size="10.00">src/auto_configurer</text>
<text text-anchor="start" x="619.5" y="-524" font-family="Helvetica,sans-Serif" font-size="10.00">/impl/opencv_camera</text>
<text text-anchor="middle" x="672.5" y="-513" font-family="Helvetica,sans-Serif" font-size="10.00">_mt_handler.cpp</text>
</a>
</g>
</g>
<!-- Node2 -->
<g id="Node000002" class="node">
<title>Node2</title>
<g id="a_Node000002"><a xlink:href="opencv__camera__mt__handler_8hpp.html" target="_top" xlink:title=" ">
<polygon fill="white" stroke="#666666" points="565.5,-470 425.5,-470 425.5,-429 565.5,-429 565.5,-470"/>
<text text-anchor="start" x="433.5" y="-458" font-family="Helvetica,sans-Serif" font-size="10.00">mosaic/auto_configurer</text>
<text text-anchor="start" x="433.5" y="-447" font-family="Helvetica,sans-Serif" font-size="10.00">/impl/opencv_camera_mt</text>
<text text-anchor="middle" x="495.5" y="-436" font-family="Helvetica,sans-Serif" font-size="10.00">_handler.hpp</text>
</a>
</g>
</g>
<!-- Node1&#45;&gt;Node2 -->
<g id="edge1_Node000001_Node000002" class="edge">
<title>Node1&#45;&gt;Node2</title>
<g id="a_edge1_Node000001_Node000002"><a xlink:title=" ">
<path fill="none" stroke="#63b8ff" d="M626.46,-505.99C603.4,-496.22 575.3,-484.31 551.05,-474.04"/>
<polygon fill="#63b8ff" stroke="#63b8ff" points="552.19,-470.72 541.62,-470.04 549.46,-477.17 552.19,-470.72"/>
</a>
</g>
</g>
<!-- Node7 -->
<g id="Node000007" class="node">
<title>Node7</title>
<g id="a_Node000007"><a xlink:title=" ">
<polygon fill="#e0e0e0" stroke="#999999" points="824.5,-134.5 774.5,-134.5 774.5,-115.5 824.5,-115.5 824.5,-134.5"/>
<text text-anchor="middle" x="799.5" y="-122.5" font-family="Helvetica,sans-Serif" font-size="10.00">chrono</text>
</a>
</g>
</g>
<!-- Node1&#45;&gt;Node7 -->
<g id="edge55_Node000001_Node000007" class="edge">
<title>Node1&#45;&gt;Node7</title>
<g id="a_edge55_Node000001_Node000007"><a xlink:title=" ">
<path fill="none" stroke="#63b8ff" d="M733.68,-515.52C804.79,-500.02 912.5,-462.72 912.5,-379 912.5,-379 912.5,-379 912.5,-256 912.5,-202.7 857.72,-160.6 824.44,-139.94"/>
<polygon fill="#63b8ff" stroke="#63b8ff" points="826.07,-136.84 815.69,-134.69 822.47,-142.84 826.07,-136.84"/>
</a>
</g>
</g>
<!-- Node3 -->
<g id="Node000003" class="node">
<title>Node3</title>
<g id="a_Node000003"><a xlink:title=" ">
<polygon fill="#e0e0e0" stroke="#999999" points="1107.5,-19 1049.5,-19 1049.5,0 1107.5,0 1107.5,-19"/>
<text text-anchor="middle" x="1078.5" y="-7" font-family="Helvetica,sans-Serif" font-size="10.00">memory</text>
</a>
</g>
</g>
<!-- Node2&#45;&gt;Node3 -->
<g id="edge2_Node000002_Node000003" class="edge">
<title>Node2&#45;&gt;Node3</title>
<g id="a_edge2_Node000002_Node000003"><a xlink:title=" ">
<path fill="none" stroke="#63b8ff" d="M565.54,-437.95C741.75,-409.46 1189.5,-324.06 1189.5,-192 1189.5,-192 1189.5,-192 1189.5,-124 1189.5,-76.59 1139.38,-41.65 1106.5,-23.82"/>
<polygon fill="#63b8ff" stroke="#63b8ff" points="1107.82,-20.56 1097.33,-19.05 1104.58,-26.77 1107.82,-20.56"/>
</a>
</g>
</g>
<!-- Node4 -->
<g id="Node000004" class="node">
<title>Node4</title>
<g id="a_Node000004"><a xlink:title=" ">
<polygon fill="#e0e0e0" stroke="#999999" points="574.5,-387.5 526.5,-387.5 526.5,-368.5 574.5,-368.5 574.5,-387.5"/>
<text text-anchor="middle" x="550.5" y="-375.5" font-family="Helvetica,sans-Serif" font-size="10.00">thread</text>
</a>
</g>
</g>
<!-- Node2&#45;&gt;Node4 -->
<g id="edge3_Node000002_Node000004" class="edge">
<title>Node2&#45;&gt;Node4</title>
<g id="a_edge3_Node000002_Node000004"><a xlink:title=" ">
<path fill="none" stroke="#63b8ff" d="M511.11,-428.77C519.37,-418.34 529.39,-405.68 537.26,-395.73"/>
<polygon fill="#63b8ff" stroke="#63b8ff" points="540.06,-397.83 543.52,-387.82 534.57,-393.49 540.06,-397.83"/>
</a>
</g>
</g>
<!-- Node5 -->
<g id="Node000005" class="node">
<title>Node5</title>
<g id="a_Node000005"><a xlink:title=" ">
<polygon fill="#e0e0e0" stroke="#999999" points="243.5,-134.5 127.5,-134.5 127.5,-115.5 243.5,-115.5 243.5,-134.5"/>
<text text-anchor="middle" x="185.5" y="-122.5" font-family="Helvetica,sans-Serif" font-size="10.00">opencv2/opencv.hpp</text>
</a>
</g>
</g>
<!-- Node2&#45;&gt;Node5 -->
<g id="edge4_Node000002_Node000005" class="edge">
<title>Node2&#45;&gt;Node5</title>
<g id="a_edge4_Node000002_Node000005"><a xlink:title=" ">
<path fill="none" stroke="#63b8ff" d="M425.16,-442.12C327.91,-429.06 155.89,-389.68 80.5,-272 48.47,-222 121.98,-165.71 161.9,-140.07"/>
<polygon fill="#63b8ff" stroke="#63b8ff" points="163.93,-142.93 170.55,-134.66 160.21,-137 163.93,-142.93"/>
</a>
</g>
</g>
<!-- Node6 -->
<g id="Node000006" class="node">
<title>Node6</title>
<g id="a_Node000006"><a xlink:href="media__track__handler_8hpp.html" target="_top" xlink:title=" ">
<polygon fill="white" stroke="#666666" points="473,-206 300,-206 300,-176 473,-176 473,-206"/>
<text text-anchor="start" x="308" y="-194" font-family="Helvetica,sans-Serif" font-size="10.00">../../handlers/media</text>
<text text-anchor="middle" x="386.5" y="-183" font-family="Helvetica,sans-Serif" font-size="10.00">_track/media_track_handler.hpp</text>
</a>
</g>
</g>
<!-- Node2&#45;&gt;Node6 -->
<g id="edge5_Node000002_Node000006" class="edge">
<title>Node2&#45;&gt;Node6</title>
<g id="a_edge5_Node000002_Node000006"><a xlink:title=" ">
<path fill="none" stroke="#63b8ff" d="M425.41,-434.86C401.51,-426.69 376.95,-413.67 361.5,-393 321.72,-339.79 354.27,-255.65 374.06,-215.21"/>
<polygon fill="#63b8ff" stroke="#63b8ff" points="377.26,-216.64 378.64,-206.14 371.01,-213.48 377.26,-216.64"/>
</a>
</g>
</g>
<!-- Node12 -->
<g id="Node000012" class="node">
<title>Node12</title>
<g id="a_Node000012"><a xlink:href="configurable__connectors_8hpp.html" target="_top" xlink:title=" ">
<polygon fill="white" stroke="#666666" points="508,-393 371,-393 371,-363 508,-363 508,-393"/>
<text text-anchor="start" x="379" y="-381" font-family="Helvetica,sans-Serif" font-size="10.00">../connector/configurable</text>
<text text-anchor="middle" x="439.5" y="-370" font-family="Helvetica,sans-Serif" font-size="10.00">_connectors.hpp</text>
</a>
</g>
</g>
<!-- Node2&#45;&gt;Node12 -->
<g id="edge15_Node000002_Node000012" class="edge">
<title>Node2&#45;&gt;Node12</title>
<g id="a_edge15_Node000002_Node000012"><a xlink:title=" ">
<path fill="none" stroke="#63b8ff" d="M479.6,-428.77C472.64,-420.13 464.45,-409.96 457.29,-401.08"/>
<polygon fill="#63b8ff" stroke="#63b8ff" points="459.81,-398.63 450.81,-393.04 454.36,-403.02 459.81,-398.63"/>
</a>
</g>
</g>
<!-- Node6&#45;&gt;Node3 -->
<g id="edge7_Node000006_Node000003" class="edge">
<title>Node6&#45;&gt;Node3</title>
<g id="a_edge7_Node000006_Node000003"><a xlink:title=" ">
<path fill="none" stroke="#63b8ff" d="M473.2,-183.21C624.18,-171.25 921.49,-147.03 943.5,-140 998.91,-122.31 1019.58,-118.94 1056.5,-74 1067.03,-61.18 1072.65,-43.01 1075.57,-29.39"/>
<polygon fill="#63b8ff" stroke="#63b8ff" points="1079.07,-29.7 1077.43,-19.24 1072.18,-28.44 1079.07,-29.7"/>
</a>
</g>
</g>
<!-- Node6&#45;&gt;Node5 -->
<g id="edge9_Node000006_Node000005" class="edge">
<title>Node6&#45;&gt;Node5</title>
<g id="a_edge9_Node000006_Node000005"><a xlink:title=" ">
<path fill="none" stroke="#63b8ff" d="M342.39,-175.95C306.36,-164.48 256.04,-148.46 222.19,-137.68"/>
<polygon fill="#63b8ff" stroke="#63b8ff" points="222.84,-134.22 212.25,-134.52 220.72,-140.89 222.84,-134.22"/>
</a>
</g>
</g>
<!-- Node6&#45;&gt;Node7 -->
<g id="edge6_Node000006_Node000007" class="edge">
<title>Node6&#45;&gt;Node7</title>
<g id="a_edge6_Node000006_Node000007"><a xlink:title=" ">
<path fill="none" stroke="#63b8ff" d="M473.15,-176.7C538.41,-166.66 630.08,-152.53 710.5,-140 728.12,-137.25 747.7,-134.18 764,-131.61"/>
<polygon fill="#63b8ff" stroke="#63b8ff" points="764.85,-135.02 774.18,-130 763.76,-128.1 764.85,-135.02"/>
</a>
</g>
</g>
<!-- Node8 -->
<g id="Node000008" class="node">
<title>Node8</title>
<g id="a_Node000008"><a xlink:title=" ">
<polygon fill="#e0e0e0" stroke="#999999" points="443.5,-19 399.5,-19 399.5,0 443.5,0 443.5,-19"/>
<text text-anchor="middle" x="421.5" y="-7" font-family="Helvetica,sans-Serif" font-size="10.00">string</text>
</a>
</g>
</g>
<!-- Node6&#45;&gt;Node8 -->
<g id="edge8_Node000006_Node000008" class="edge">
<title>Node6&#45;&gt;Node8</title>
<g id="a_edge8_Node000006_Node000008"><a xlink:title=" ">
<path fill="none" stroke="#63b8ff" d="M388.01,-175.68C390.78,-150.87 397.35,-98.42 407.5,-55 409.53,-46.32 412.4,-36.89 415.01,-28.95"/>
<polygon fill="#63b8ff" stroke="#63b8ff" points="418.4,-29.85 418.31,-19.26 411.78,-27.59 418.4,-29.85"/>
</a>
</g>
</g>
<!-- Node9 -->
<g id="Node000009" class="node">
<title>Node9</title>
<g id="a_Node000009"><a xlink:href="webrtc__forward__decl_8hpp.html" target="_top" xlink:title=" ">
<polygon fill="white" stroke="#666666" points="575.5,-140 449.5,-140 449.5,-110 575.5,-110 575.5,-140"/>
<text text-anchor="start" x="457.5" y="-128" font-family="Helvetica,sans-Serif" font-size="10.00">../../rtc/webrtc_forward</text>
<text text-anchor="middle" x="512.5" y="-117" font-family="Helvetica,sans-Serif" font-size="10.00">_decl.hpp</text>
</a>
</g>
</g>
<!-- Node6&#45;&gt;Node9 -->
<g id="edge10_Node000006_Node000009" class="edge">
<title>Node6&#45;&gt;Node9</title>
<g id="a_edge10_Node000006_Node000009"><a xlink:title=" ">
<path fill="none" stroke="#63b8ff" d="M414.15,-175.95C432.29,-166.74 456.2,-154.6 475.91,-144.59"/>
<polygon fill="#63b8ff" stroke="#63b8ff" points="477.58,-147.66 484.91,-140.01 474.41,-141.42 477.58,-147.66"/>
</a>
</g>
</g>
<!-- Node10 -->
<g id="Node000010" class="node">
<title>Node10</title>
<g id="a_Node000010"><a xlink:href="recordable_8hpp.html" target="_top" xlink:title=" ">
<polygon fill="white" stroke="#666666" points="355,-74 266,-74 266,-55 355,-55 355,-74"/>
<text text-anchor="middle" x="310.5" y="-62" font-family="Helvetica,sans-Serif" font-size="10.00">recordable.hpp</text>
</a>
</g>
</g>
<!-- Node6&#45;&gt;Node10 -->
<g id="edge11_Node000006_Node000010" class="edge">
<title>Node6&#45;&gt;Node10</title>
<g id="a_edge11_Node000006_Node000010"><a xlink:title=" ">
<path fill="none" stroke="#63b8ff" d="M377.78,-175.72C363.74,-152.71 336.16,-107.53 321.03,-82.76"/>
<polygon fill="#63b8ff" stroke="#63b8ff" points="323.93,-80.78 315.73,-74.07 317.95,-84.43 323.93,-80.78"/>
</a>
</g>
</g>
<!-- Node10&#45;&gt;Node3 -->
<g id="edge12_Node000010_Node000003" class="edge">
<title>Node10&#45;&gt;Node3</title>
<g id="a_edge12_Node000010_Node000003"><a xlink:title=" ">
<path fill="none" stroke="#63b8ff" d="M355.02,-60.53C380.12,-58.87 412.06,-56.78 440.5,-55 703.87,-38.49 774.26,-55.84 1039.21,-18.95"/>
<polygon fill="#63b8ff" stroke="#63b8ff" points="1039.71,-22.42 1049.13,-17.56 1038.74,-15.48 1039.71,-22.42"/>
</a>
</g>
</g>
<!-- Node10&#45;&gt;Node8 -->
<g id="edge13_Node000010_Node000008" class="edge">
<title>Node10&#45;&gt;Node8</title>
<g id="a_edge13_Node000010_Node000008"><a xlink:title=" ">
<path fill="none" stroke="#63b8ff" d="M328.33,-54.98C346.11,-46.5 373.65,-33.35 394.18,-23.54"/>
<polygon fill="#63b8ff" stroke="#63b8ff" points="395.83,-26.64 403.34,-19.17 392.81,-20.32 395.83,-26.64"/>
</a>
</g>
</g>
<!-- Node11 -->
<g id="Node000011" class="node">
<title>Node11</title>
<g id="a_Node000011"><a xlink:href="opencv__forward__decl_8hpp.html" target="_top" xlink:title=" ">
<polygon fill="white" stroke="#666666" points="381,-19 240,-19 240,0 381,0 381,-19"/>
<text text-anchor="middle" x="310.5" y="-7" font-family="Helvetica,sans-Serif" font-size="10.00">opencv_forward_decl.hpp</text>
</a>
</g>
</g>
<!-- Node10&#45;&gt;Node11 -->
<g id="edge14_Node000010_Node000011" class="edge">
<title>Node10&#45;&gt;Node11</title>
<g id="a_edge14_Node000010_Node000011"><a xlink:title=" ">
<path fill="none" stroke="#63b8ff" d="M310.5,-54.75C310.5,-47.8 310.5,-37.85 310.5,-29.13"/>
<polygon fill="#63b8ff" stroke="#63b8ff" points="314,-29.09 310.5,-19.09 307,-29.09 314,-29.09"/>
</a>
</g>
</g>
<!-- Node13 -->
<g id="Node000013" class="node">
<title>Node13</title>
<g id="a_Node000013"><a xlink:href="configs__decl_8hpp.html" target="_top" xlink:title=" ">
<polygon fill="white" stroke="#666666" points="168.5,-74 52.5,-74 52.5,-55 168.5,-55 168.5,-74"/>
<text text-anchor="middle" x="110.5" y="-62" font-family="Helvetica,sans-Serif" font-size="10.00">../../configs_decl.hpp</text>
</a>
</g>
</g>
<!-- Node12&#45;&gt;Node13 -->
<g id="edge16_Node000012_Node000013" class="edge">
<title>Node12&#45;&gt;Node13</title>
<g id="a_edge16_Node000012_Node000013"><a xlink:title=" ">
<path fill="none" stroke="#63b8ff" d="M370.67,-366.77C276.53,-351.22 115.31,-318.44 80.5,-272 37.22,-214.25 79.46,-121.34 100.33,-82.96"/>
<polygon fill="#63b8ff" stroke="#63b8ff" points="103.5,-84.47 105.34,-74.04 97.39,-81.04 103.5,-84.47"/>
</a>
</g>
</g>
<!-- Node16 -->
<g id="Node000016" class="node">
<title>Node16</title>
<g id="a_Node000016"><a xlink:href="mosaic__connector_8hpp.html" target="_top" xlink:title=" ">
<polygon fill="white" stroke="#666666" points="530,-327 363,-327 363,-308 530,-308 530,-327"/>
<text text-anchor="middle" x="446.5" y="-315" font-family="Helvetica,sans-Serif" font-size="10.00">../../core/mosaic_connector.hpp</text>
</a>
</g>
</g>
<!-- Node12&#45;&gt;Node16 -->
<g id="edge20_Node000012_Node000016" class="edge">
<title>Node12&#45;&gt;Node16</title>
<g id="a_edge20_Node000012_Node000016"><a xlink:title=" ">
<path fill="none" stroke="#63b8ff" d="M441.19,-362.84C442.11,-355.21 443.24,-345.7 444.23,-337.45"/>
<polygon fill="#63b8ff" stroke="#63b8ff" points="447.74,-337.61 445.45,-327.27 440.79,-336.78 447.74,-337.61"/>
</a>
</g>
</g>
<!-- Node13&#45;&gt;Node8 -->
<g id="edge17_Node000013_Node000008" class="edge">
<title>Node13&#45;&gt;Node8</title>
<g id="a_edge17_Node000013_Node000008"><a xlink:title=" ">
<path fill="none" stroke="#63b8ff" d="M168.76,-56.14C223.42,-48.81 307.59,-36.43 389.27,-19.07"/>
<polygon fill="#63b8ff" stroke="#63b8ff" points="390.18,-22.45 399.22,-16.92 388.71,-15.61 390.18,-22.45"/>
</a>
</g>
</g>
<!-- Node14 -->
<g id="Node000014" class="node">
<title>Node14</title>
<g id="a_Node000014"><a xlink:title=" ">
<polygon fill="#e0e0e0" stroke="#999999" points="158,-19 65,-19 65,0 158,0 158,-19"/>
<text text-anchor="middle" x="111.5" y="-7" font-family="Helvetica,sans-Serif" font-size="10.00">unordered_map</text>
</a>
</g>
</g>
<!-- Node13&#45;&gt;Node14 -->
<g id="edge18_Node000013_Node000014" class="edge">
<title>Node13&#45;&gt;Node14</title>
<g id="a_edge18_Node000013_Node000014"><a xlink:title=" ">
<path fill="none" stroke="#63b8ff" d="M110.67,-54.75C110.8,-47.8 110.98,-37.85 111.15,-29.13"/>
<polygon fill="#63b8ff" stroke="#63b8ff" points="114.65,-29.15 111.34,-19.09 107.65,-29.02 114.65,-29.15"/>
</a>
</g>
</g>
<!-- Node15 -->
<g id="Node000015" class="node">
<title>Node15</title>
<g id="a_Node000015"><a xlink:title=" ">
<polygon fill="#e0e0e0" stroke="#999999" points="47,-19 0,-19 0,0 47,0 47,-19"/>
<text text-anchor="middle" x="23.5" y="-7" font-family="Helvetica,sans-Serif" font-size="10.00">vector</text>
</a>
</g>
</g>
<!-- Node13&#45;&gt;Node15 -->
<g id="edge19_Node000013_Node000015" class="edge">
<title>Node13&#45;&gt;Node15</title>
<g id="a_edge19_Node000013_Node000015"><a xlink:title=" ">
<path fill="none" stroke="#63b8ff" d="M96.52,-54.98C83.03,-46.77 62.37,-34.18 46.46,-24.49"/>
<polygon fill="#63b8ff" stroke="#63b8ff" points="48.09,-21.38 37.73,-19.17 44.45,-27.36 48.09,-21.38"/>
</a>
</g>
</g>
<!-- Node16&#45;&gt;Node3 -->
<g id="edge22_Node000016_Node000003" class="edge">
<title>Node16&#45;&gt;Node3</title>
<g id="a_edge22_Node000016_Node000003"><a xlink:title=" ">
<path fill="none" stroke="#63b8ff" d="M530.14,-310.38C716.89,-295.59 1151.5,-254.46 1151.5,-192 1151.5,-192 1151.5,-192 1151.5,-124 1151.5,-83.7 1118.54,-46.31 1096.91,-26.12"/>
<polygon fill="#63b8ff" stroke="#63b8ff" points="1099.05,-23.33 1089.27,-19.25 1094.37,-28.54 1099.05,-23.33"/>
</a>
</g>
</g>
<!-- Node16&#45;&gt;Node6 -->
<g id="edge37_Node000016_Node000006" class="edge">
<title>Node16&#45;&gt;Node6</title>
<g id="a_edge37_Node000016_Node000006"><a xlink:title=" ">
<path fill="none" stroke="#63b8ff" d="M435.78,-307.74C426.39,-299.49 413.1,-286.28 405.5,-272 396.21,-254.53 391.41,-232.52 388.96,-216.01"/>
<polygon fill="#63b8ff" stroke="#63b8ff" points="392.43,-215.52 387.67,-206.06 385.48,-216.43 392.43,-215.52"/>
</a>
</g>
</g>
<!-- Node16&#45;&gt;Node8 -->
<g id="edge23_Node000016_Node000008" class="edge">
<title>Node16&#45;&gt;Node8</title>
<g id="a_edge23_Node000016_Node000008"><a xlink:title=" ">
<path fill="none" stroke="#63b8ff" d="M426.28,-307.88C392.72,-292.51 325.71,-257.11 290.5,-206 256.13,-156.11 264.12,-134.1 256.5,-74 255.44,-65.62 251.36,-61.7 256.5,-55 292.19,-8.45 327.38,-32.5 389.68,-18.95"/>
<polygon fill="#63b8ff" stroke="#63b8ff" points="390.61,-22.32 399.49,-16.55 388.94,-15.53 390.61,-22.32"/>
</a>
</g>
</g>
<!-- Node17 -->
<g id="Node000017" class="node">
<title>Node17</title>
<g id="a_Node000017"><a xlink:title=" ">
<polygon fill="#e0e0e0" stroke="#999999" points="452.5,-266.5 414.5,-266.5 414.5,-247.5 452.5,-247.5 452.5,-266.5"/>
<text text-anchor="middle" x="433.5" y="-254.5" font-family="Helvetica,sans-Serif" font-size="10.00">map</text>
</a>
</g>
</g>
<!-- Node16&#45;&gt;Node17 -->
<g id="edge21_Node000016_Node000017" class="edge">
<title>Node16&#45;&gt;Node17</title>
<g id="a_edge21_Node000016_Node000017"><a xlink:title=" ">
<path fill="none" stroke="#63b8ff" d="M444.58,-307.87C442.76,-299.66 439.95,-287.04 437.62,-276.55"/>
<polygon fill="#63b8ff" stroke="#63b8ff" points="441.01,-275.67 435.43,-266.67 434.18,-277.19 441.01,-275.67"/>
</a>
</g>
</g>
<!-- Node18 -->
<g id="Node000018" class="node">
<title>Node18</title>
<g id="a_Node000018"><a xlink:href="data__channel__handler_8hpp.html" target="_top" xlink:title=" ">
<polygon fill="white" stroke="#666666" points="618,-272 471,-272 471,-242 618,-242 618,-272"/>
<text text-anchor="start" x="479" y="-260" font-family="Helvetica,sans-Serif" font-size="10.00">../handlers/data_channel</text>
<text text-anchor="middle" x="544.5" y="-249" font-family="Helvetica,sans-Serif" font-size="10.00">/data_channel_handler.hpp</text>
</a>
</g>
</g>
<!-- Node16&#45;&gt;Node18 -->
<g id="edge24_Node000016_Node000018" class="edge">
<title>Node16&#45;&gt;Node18</title>
<g id="a_edge24_Node000016_Node000018"><a xlink:title=" ">
<path fill="none" stroke="#63b8ff" d="M460.96,-307.87C474.38,-299.86 494.83,-287.65 512.14,-277.31"/>
<polygon fill="#63b8ff" stroke="#63b8ff" points="514.06,-280.25 520.86,-272.11 510.47,-274.23 514.06,-280.25"/>
</a>
</g>
</g>
<!-- Node25 -->
<g id="Node000025" class="node">
<title>Node25</title>
<g id="a_Node000025"><a xlink:href="connector__state__manager_8hpp.html" target="_top" xlink:title=" ">
<polygon fill="white" stroke="#666666" points="811.5,-266.5 647.5,-266.5 647.5,-247.5 811.5,-247.5 811.5,-266.5"/>
<text text-anchor="middle" x="729.5" y="-254.5" font-family="Helvetica,sans-Serif" font-size="10.00">connector_state_manager.hpp</text>
</a>
</g>
</g>
<!-- Node16&#45;&gt;Node25 -->
<g id="edge38_Node000016_Node000025" class="edge">
<title>Node16&#45;&gt;Node25</title>
<g id="a_edge38_Node000016_Node000025"><a xlink:title=" ">
<path fill="none" stroke="#63b8ff" d="M487.65,-307.99C538.16,-297.55 623.82,-279.85 678.47,-268.55"/>
<polygon fill="#63b8ff" stroke="#63b8ff" points="679.22,-271.97 688.3,-266.52 677.8,-265.11 679.22,-271.97"/>
</a>
</g>
</g>
<!-- Node32 -->
<g id="Node000032" class="node">
<title>Node32</title>
<g id="a_Node000032"><a xlink:href="peer__connection__manager_8hpp.html" target="_top" xlink:title=" ">
<polygon fill="white" stroke="#666666" points="255.5,-266.5 89.5,-266.5 89.5,-247.5 255.5,-247.5 255.5,-266.5"/>
<text text-anchor="middle" x="172.5" y="-254.5" font-family="Helvetica,sans-Serif" font-size="10.00">peer_connection_manager.hpp</text>
</a>
</g>
</g>
<!-- Node16&#45;&gt;Node32 -->
<g id="edge51_Node000016_Node000032" class="edge">
<title>Node16&#45;&gt;Node32</title>
<g id="a_edge51_Node000016_Node000032"><a xlink:title=" ">
<path fill="none" stroke="#63b8ff" d="M406.66,-307.99C357.85,-297.57 275.16,-279.92 222.24,-268.62"/>
<polygon fill="#63b8ff" stroke="#63b8ff" points="222.9,-265.18 212.39,-266.52 221.44,-272.03 222.9,-265.18"/>
</a>
</g>
</g>
<!-- Node18&#45;&gt;Node8 -->
<g id="edge25_Node000018_Node000008" class="edge">
<title>Node18&#45;&gt;Node8</title>
<g id="a_edge25_Node000018_Node000008"><a xlink:title=" ">
<path fill="none" stroke="#63b8ff" d="M534.77,-241.72C523.19,-225.15 502.85,-197.38 482.5,-176 465.55,-158.19 452.37,-161.53 440.5,-140 420.91,-104.47 419.4,-55.49 420.29,-29.12"/>
<polygon fill="#63b8ff" stroke="#63b8ff" points="423.79,-29.17 420.78,-19.01 416.8,-28.83 423.79,-29.17"/>
</a>
</g>
</g>
<!-- Node18&#45;&gt;Node9 -->
<g id="edge36_Node000018_Node000009" class="edge">
<title>Node18&#45;&gt;Node9</title>
<g id="a_edge36_Node000018_Node000009"><a xlink:title=" ">
<path fill="none" stroke="#63b8ff" d="M541.01,-241.84C535.58,-219.76 525.03,-176.89 518.39,-149.94"/>
<polygon fill="#63b8ff" stroke="#63b8ff" points="521.77,-149.02 515.98,-140.14 514.97,-150.69 521.77,-149.02"/>
</a>
</g>
</g>
<!-- Node19 -->
<g id="Node000019" class="node">
<title>Node19</title>
<g id="a_Node000019"><a xlink:href="log_8hpp.html" target="_top" xlink:title=" ">
<polygon fill="white" stroke="#666666" points="1044.5,-200.5 940.5,-200.5 940.5,-181.5 1044.5,-181.5 1044.5,-200.5"/>
<text text-anchor="middle" x="992.5" y="-188.5" font-family="Helvetica,sans-Serif" font-size="10.00">../../logger/log.hpp</text>
</a>
</g>
</g>
<!-- Node18&#45;&gt;Node19 -->
<g id="edge26_Node000018_Node000019" class="edge">
<title>Node18&#45;&gt;Node19</title>
<g id="a_edge26_Node000018_Node000019"><a xlink:title=" ">
<path fill="none" stroke="#63b8ff" d="M618.13,-244.98C625.01,-243.97 631.89,-242.96 638.5,-242 740.66,-227.18 859.5,-210.51 930.22,-200.65"/>
<polygon fill="#63b8ff" stroke="#63b8ff" points="930.88,-204.09 940.3,-199.25 929.91,-197.16 930.88,-204.09"/>
</a>
</g>
</g>
<!-- Node20 -->
<g id="Node000020" class="node">
<title>Node20</title>
<g id="a_Node000020"><a xlink:href="i__logger_8hpp.html" target="_top" xlink:title=" ">
<polygon fill="white" stroke="#666666" points="934.5,-134.5 858.5,-134.5 858.5,-115.5 934.5,-115.5 934.5,-134.5"/>
<text text-anchor="middle" x="896.5" y="-122.5" font-family="Helvetica,sans-Serif" font-size="10.00">i_logger.hpp</text>
</a>
</g>
</g>
<!-- Node19&#45;&gt;Node20 -->
<g id="edge27_Node000019_Node000020" class="edge">
<title>Node19&#45;&gt;Node20</title>
<g id="a_edge27_Node000019_Node000020"><a xlink:title=" ">
<path fill="none" stroke="#63b8ff" d="M979.55,-181.37C963.81,-170.87 937,-153 918.1,-140.4"/>
<polygon fill="#63b8ff" stroke="#63b8ff" points="919.81,-137.33 909.55,-134.7 915.93,-143.16 919.81,-137.33"/>
</a>
</g>
</g>
<!-- Node23 -->
<g id="Node000023" class="node">
<title>Node23</title>
<g id="a_Node000023"><a xlink:href="log__service_8hpp.html" target="_top" xlink:title=" ">
<polygon fill="white" stroke="#666666" points="1047,-74 954,-74 954,-55 1047,-55 1047,-74"/>
<text text-anchor="middle" x="1000.5" y="-62" font-family="Helvetica,sans-Serif" font-size="10.00">log_service.hpp</text>
</a>
</g>
</g>
<!-- Node19&#45;&gt;Node23 -->
<g id="edge35_Node000019_Node000023" class="edge">
<title>Node19&#45;&gt;Node23</title>
<g id="a_edge35_Node000019_Node000023"><a xlink:title=" ">
<path fill="none" stroke="#63b8ff" d="M993.05,-181.44C994.33,-161.54 997.53,-111.76 999.29,-84.35"/>
<polygon fill="#63b8ff" stroke="#63b8ff" points="1002.8,-84.32 999.95,-74.12 995.81,-83.87 1002.8,-84.32"/>
</a>
</g>
</g>
<!-- Node20&#45;&gt;Node8 -->
<g id="edge28_Node000020_Node000008" class="edge">
<title>Node20&#45;&gt;Node8</title>
<g id="a_edge28_Node000020_Node000008"><a xlink:title=" ">
<path fill="none" stroke="#63b8ff" d="M879.34,-115.29C849.48,-100.52 785.68,-70.63 728.5,-55 630.65,-28.25 510.59,-16.77 453.98,-12.58"/>
<polygon fill="#63b8ff" stroke="#63b8ff" points="454.07,-9.07 443.84,-11.85 453.57,-16.06 454.07,-9.07"/>
</a>
</g>
</g>
<!-- Node21 -->
<g id="Node000021" class="node">
<title>Node21</title>
<g id="a_Node000021"><a xlink:title=" ">
<polygon fill="#e0e0e0" stroke="#999999" points="936,-74 857,-74 857,-55 936,-55 936,-74"/>
<text text-anchor="middle" x="896.5" y="-62" font-family="Helvetica,sans-Serif" font-size="10.00">fmt/format.h</text>
</a>
</g>
</g>
<!-- Node20&#45;&gt;Node21 -->
<g id="edge29_Node000020_Node000021" class="edge">
<title>Node20&#45;&gt;Node21</title>
<g id="a_edge29_Node000020_Node000021"><a xlink:title=" ">
<path fill="none" stroke="#63b8ff" d="M896.5,-115.37C896.5,-107.25 896.5,-94.81 896.5,-84.39"/>
<polygon fill="#63b8ff" stroke="#63b8ff" points="900,-84.17 896.5,-74.17 893,-84.17 900,-84.17"/>
</a>
</g>
</g>
<!-- Node22 -->
<g id="Node000022" class="node">
<title>Node22</title>
<g id="a_Node000022"><a xlink:href="log__level_8hpp.html" target="_top" xlink:title=" ">
<polygon fill="white" stroke="#666666" points="906.5,-19 824.5,-19 824.5,0 906.5,0 906.5,-19"/>
<text text-anchor="middle" x="865.5" y="-7" font-family="Helvetica,sans-Serif" font-size="10.00">log_level.hpp</text>
</a>
</g>
</g>
<!-- Node20&#45;&gt;Node22 -->
<g id="edge30_Node000020_Node000022" class="edge">
<title>Node20&#45;&gt;Node22</title>
<g id="a_edge30_Node000020_Node000022"><a xlink:title=" ">
<path fill="none" stroke="#63b8ff" d="M883.9,-115.38C872.22,-106.55 855.6,-91.64 848.5,-74 842.46,-58.98 848.33,-41.11 854.77,-28.16"/>
<polygon fill="#63b8ff" stroke="#63b8ff" points="857.87,-29.79 859.62,-19.34 851.73,-26.42 857.87,-29.79"/>
</a>
</g>
</g>
<!-- Node20&#45;&gt;Node23 -->
<g id="edge31_Node000020_Node000023" class="edge">
<title>Node20&#45;&gt;Node23</title>
<g id="a_edge31_Node000020_Node000023"><a xlink:title=" ">
<path fill="none" stroke="#63b8ff" d="M911.85,-115.37C928.82,-105.82 956.4,-90.31 976.29,-79.12"/>
<polygon fill="#63b8ff" stroke="#63b8ff" points="978.09,-82.12 985.09,-74.17 974.66,-76.02 978.09,-82.12"/>
</a>
</g>
</g>
<!-- Node23&#45;&gt;Node3 -->
<g id="edge32_Node000023_Node000003" class="edge">
<title>Node23&#45;&gt;Node3</title>
<g id="a_edge32_Node000023_Node000003"><a xlink:title=" ">
<path fill="none" stroke="#63b8ff" d="M1013.03,-54.98C1024.9,-46.92 1042.96,-34.65 1057.11,-25.03"/>
<polygon fill="#63b8ff" stroke="#63b8ff" points="1059.44,-27.69 1065.74,-19.17 1055.5,-21.9 1059.44,-27.69"/>
</a>
</g>
</g>
<!-- Node23&#45;&gt;Node22 -->
<g id="edge34_Node000023_Node000022" class="edge">
<title>Node23&#45;&gt;Node22</title>
<g id="a_edge34_Node000023_Node000022"><a xlink:title=" ">
<path fill="none" stroke="#63b8ff" d="M978.81,-54.98C956.7,-46.3 922.18,-32.75 897.05,-22.88"/>
<polygon fill="#63b8ff" stroke="#63b8ff" points="898.17,-19.57 887.58,-19.17 895.61,-26.08 898.17,-19.57"/>
</a>
</g>
</g>
<!-- Node24 -->
<g id="Node000024" class="node">
<title>Node24</title>
<g id="a_Node000024"><a xlink:title=" ">
<polygon fill="#e0e0e0" stroke="#999999" points="1031,-19 962,-19 962,0 1031,0 1031,-19"/>
<text text-anchor="middle" x="996.5" y="-7" font-family="Helvetica,sans-Serif" font-size="10.00">type_traits</text>
</a>
</g>
</g>
<!-- Node23&#45;&gt;Node24 -->
<g id="edge33_Node000023_Node000024" class="edge">
<title>Node23&#45;&gt;Node24</title>
<g id="a_edge33_Node000023_Node000024"><a xlink:title=" ">
<path fill="none" stroke="#63b8ff" d="M999.84,-54.75C999.32,-47.8 998.56,-37.85 997.91,-29.13"/>
<polygon fill="#63b8ff" stroke="#63b8ff" points="1001.39,-28.8 997.15,-19.09 994.41,-29.32 1001.39,-28.8"/>
</a>
</g>
</g>
<!-- Node25&#45;&gt;Node3 -->
<g id="edge39_Node000025_Node000003" class="edge">
<title>Node25&#45;&gt;Node3</title>
<g id="a_edge39_Node000025_Node000003"><a xlink:title=" ">
<path fill="none" stroke="#63b8ff" d="M811.71,-254C896.29,-250.13 1020.25,-238.85 1053.5,-206 1101.57,-158.5 1090.35,-67.93 1082.71,-29.02"/>
<polygon fill="#63b8ff" stroke="#63b8ff" points="1086.11,-28.16 1080.61,-19.1 1079.26,-29.6 1086.11,-28.16"/>
</a>
</g>
</g>
<!-- Node25&#45;&gt;Node8 -->
<g id="edge41_Node000025_Node000008" class="edge">
<title>Node25&#45;&gt;Node8</title>
<g id="a_edge41_Node000025_Node000008"><a xlink:title=" ">
<path fill="none" stroke="#63b8ff" d="M731.27,-247.44C737.18,-216.08 752.85,-106.61 695.5,-55 660.38,-23.39 518.31,-14.1 453.73,-11.48"/>
<polygon fill="#63b8ff" stroke="#63b8ff" points="453.82,-7.98 443.7,-11.1 453.56,-14.97 453.82,-7.98"/>
</a>
</g>
</g>
<!-- Node26 -->
<g id="Node000026" class="node">
<title>Node26</title>
<g id="a_Node000026"><a xlink:title=" ">
<polygon fill="#e0e0e0" stroke="#999999" points="843.5,-200.5 757.5,-200.5 757.5,-181.5 843.5,-181.5 843.5,-200.5"/>
<text text-anchor="middle" x="800.5" y="-188.5" font-family="Helvetica,sans-Serif" font-size="10.00">shared_mutex</text>
</a>
</g>
</g>
<!-- Node25&#45;&gt;Node26 -->
<g id="edge40_Node000025_Node000026" class="edge">
<title>Node25&#45;&gt;Node26</title>
<g id="a_edge40_Node000025_Node000026"><a xlink:title=" ">
<path fill="none" stroke="#63b8ff" d="M739.08,-247.37C750.34,-237.21 769.26,-220.16 783.13,-207.65"/>
<polygon fill="#63b8ff" stroke="#63b8ff" points="785.54,-210.2 790.62,-200.91 780.85,-205 785.54,-210.2"/>
</a>
</g>
</g>
<!-- Node27 -->
<g id="Node000027" class="node">
<title>Node27</title>
<g id="a_Node000027"><a xlink:href="i__signaling__client_8hpp.html" target="_top" xlink:title=" ">
<polygon fill="white" stroke="#666666" points="699,-206 574,-206 574,-176 699,-176 699,-206"/>
<text text-anchor="start" x="582" y="-194" font-family="Helvetica,sans-Serif" font-size="10.00">../signaling/i_signaling</text>
<text text-anchor="middle" x="636.5" y="-183" font-family="Helvetica,sans-Serif" font-size="10.00">_client.hpp</text>
</a>
</g>
</g>
<!-- Node25&#45;&gt;Node27 -->
<g id="edge42_Node000025_Node000027" class="edge">
<title>Node25&#45;&gt;Node27</title>
<g id="a_edge42_Node000025_Node000027"><a xlink:title=" ">
<path fill="none" stroke="#63b8ff" d="M716.96,-247.37C703.87,-238.36 682.89,-223.92 665.63,-212.05"/>
<polygon fill="#63b8ff" stroke="#63b8ff" points="667.23,-208.9 657.01,-206.12 663.27,-214.67 667.23,-208.9"/>
</a>
</g>
</g>
<!-- Node27&#45;&gt;Node9 -->
<g id="edge43_Node000027_Node000009" class="edge">
<title>Node27&#45;&gt;Node9</title>
<g id="a_edge43_Node000027_Node000009"><a xlink:title=" ">
<path fill="none" stroke="#63b8ff" d="M609.29,-175.95C591.52,-166.78 568.12,-154.71 548.78,-144.72"/>
<polygon fill="#63b8ff" stroke="#63b8ff" points="550.14,-141.49 539.65,-140.01 546.93,-147.71 550.14,-141.49"/>
</a>
</g>
</g>
<!-- Node28 -->
<g id="Node000028" class="node">
<title>Node28</title>
<g id="a_Node000028"><a xlink:href="mosaic__authenticator_8hpp.html" target="_top" xlink:title=" ">
<polygon fill="white" stroke="#666666" points="701,-140 594,-140 594,-110 701,-110 701,-140"/>
<text text-anchor="start" x="602" y="-128" font-family="Helvetica,sans-Serif" font-size="10.00">../security/mosaic</text>
<text text-anchor="middle" x="647.5" y="-117" font-family="Helvetica,sans-Serif" font-size="10.00">_authenticator.hpp</text>
</a>
</g>
</g>
<!-- Node27&#45;&gt;Node28 -->
<g id="edge44_Node000027_Node000028" class="edge">
<title>Node27&#45;&gt;Node28</title>
<g id="a_edge44_Node000027_Node000028"><a xlink:title=" ">
<path fill="none" stroke="#63b8ff" d="M638.94,-175.8C640.24,-168.26 641.87,-158.78 643.35,-150.13"/>
<polygon fill="#63b8ff" stroke="#63b8ff" points="646.82,-150.61 645.07,-140.16 639.92,-149.43 646.82,-150.61"/>
</a>
</g>
</g>
<!-- Node28&#45;&gt;Node3 -->
<g id="edge45_Node000028_Node000003" class="edge">
<title>Node28&#45;&gt;Node3</title>
<g id="a_edge45_Node000028_Node000003"><a xlink:title=" ">
<path fill="none" stroke="#63b8ff" d="M683.32,-109.93C723.15,-94.71 789.64,-70.53 848.5,-55 929.41,-33.65 953.71,-36.25 1039.56,-19.11"/>
<polygon fill="#63b8ff" stroke="#63b8ff" points="1040.37,-22.52 1049.48,-17.1 1038.98,-15.66 1040.37,-22.52"/>
</a>
</g>
</g>
<!-- Node28&#45;&gt;Node13 -->
<g id="edge48_Node000028_Node000013" class="edge">
<title>Node28&#45;&gt;Node13</title>
<g id="a_edge48_Node000028_Node000013"><a xlink:title=" ">
<path fill="none" stroke="#63b8ff" d="M593.97,-111.63C590.77,-111.04 587.6,-110.49 584.5,-110 441.07,-87.42 271.3,-74.88 178.87,-69.23"/>
<polygon fill="#63b8ff" stroke="#63b8ff" points="178.99,-65.73 168.8,-68.62 178.57,-72.71 178.99,-65.73"/>
</a>
</g>
</g>
<!-- Node29 -->
<g id="Node000029" class="node">
<title>Node29</title>
<g id="a_Node000029"><a xlink:title=" ">
<polygon fill="#e0e0e0" stroke="#999999" points="686,-74 641,-74 641,-55 686,-55 686,-74"/>
<text text-anchor="middle" x="663.5" y="-62" font-family="Helvetica,sans-Serif" font-size="10.00">utility</text>
</a>
</g>
</g>
<!-- Node28&#45;&gt;Node29 -->
<g id="edge46_Node000028_Node000029" class="edge">
<title>Node28&#45;&gt;Node29</title>
<g id="a_edge46_Node000028_Node000029"><a xlink:title=" ">
<path fill="none" stroke="#63b8ff" d="M651.37,-109.84C653.48,-102.13 656.12,-92.49 658.39,-84.17"/>
<polygon fill="#63b8ff" stroke="#63b8ff" points="661.84,-84.84 661.1,-74.27 655.09,-82.99 661.84,-84.84"/>
</a>
</g>
</g>
<!-- Node30 -->
<g id="Node000030" class="node">
<title>Node30</title>
<g id="a_Node000030"><a xlink:title=" ">
<polygon fill="#e0e0e0" stroke="#999999" points="623,-74 554,-74 554,-55 623,-55 623,-74"/>
<text text-anchor="middle" x="588.5" y="-62" font-family="Helvetica,sans-Serif" font-size="10.00">json/json.h</text>
</a>
</g>
</g>
<!-- Node28&#45;&gt;Node30 -->
<g id="edge47_Node000028_Node000030" class="edge">
<title>Node28&#45;&gt;Node30</title>
<g id="a_edge47_Node000028_Node000030"><a xlink:title=" ">
<path fill="none" stroke="#63b8ff" d="M633.22,-109.84C624.57,-101.26 613.51,-90.3 604.56,-81.42"/>
<polygon fill="#63b8ff" stroke="#63b8ff" points="606.91,-78.82 597.34,-74.27 601.98,-83.79 606.91,-78.82"/>
</a>
</g>
</g>
<!-- Node31 -->
<g id="Node000031" class="node">
<title>Node31</title>
<g id="a_Node000031"><a xlink:href="auth__type_8hpp.html" target="_top" xlink:title=" ">
<polygon fill="white" stroke="#666666" points="535.5,-74 449.5,-74 449.5,-55 535.5,-55 535.5,-74"/>
<text text-anchor="middle" x="492.5" y="-62" font-family="Helvetica,sans-Serif" font-size="10.00">auth_type.hpp</text>
</a>
</g>
</g>
<!-- Node28&#45;&gt;Node31 -->
<g id="edge49_Node000028_Node000031" class="edge">
<title>Node28&#45;&gt;Node31</title>
<g id="a_edge49_Node000028_Node000031"><a xlink:title=" ">
<path fill="none" stroke="#63b8ff" d="M610.37,-109.99C584.28,-100.14 549.72,-87.1 524.77,-77.68"/>
<polygon fill="#63b8ff" stroke="#63b8ff" points="525.98,-74.4 515.39,-74.14 523.51,-80.94 525.98,-74.4"/>
</a>
</g>
</g>
<!-- Node31&#45;&gt;Node8 -->
<g id="edge50_Node000031_Node000008" class="edge">
<title>Node31&#45;&gt;Node8</title>
<g id="a_edge50_Node000031_Node000008"><a xlink:title=" ">
<path fill="none" stroke="#63b8ff" d="M481.09,-54.98C470.39,-47 454.16,-34.88 441.34,-25.31"/>
<polygon fill="#63b8ff" stroke="#63b8ff" points="443.22,-22.35 433.11,-19.17 439.03,-27.96 443.22,-22.35"/>
</a>
</g>
</g>
<!-- Node32&#45;&gt;Node13 -->
<g id="edge53_Node000032_Node000013" class="edge">
<title>Node32&#45;&gt;Node13</title>
<g id="a_edge53_Node000032_Node000013"><a xlink:title=" ">
<path fill="none" stroke="#63b8ff" d="M167.26,-247.36C156.14,-228.59 130.29,-182.37 118.5,-140 113.39,-121.62 111.51,-99.86 110.83,-84.61"/>
<polygon fill="#63b8ff" stroke="#63b8ff" points="114.33,-84.28 110.52,-74.39 107.33,-84.49 114.33,-84.28"/>
</a>
</g>
</g>
<!-- Node32&#45;&gt;Node15 -->
<g id="edge52_Node000032_Node000015" class="edge">
<title>Node32&#45;&gt;Node15</title>
<g id="a_edge52_Node000032_Node000015"><a xlink:title=" ">
<path fill="none" stroke="#63b8ff" d="M164.3,-247.49C155.13,-237.79 140.07,-221.32 128.5,-206 86.45,-150.32 73.13,-137.17 43.5,-74 36.74,-59.59 31.47,-42.32 28.04,-29.42"/>
<polygon fill="#63b8ff" stroke="#63b8ff" points="31.35,-28.24 25.51,-19.41 24.56,-29.96 31.35,-28.24"/>
</a>
</g>
</g>
<!-- Node32&#45;&gt;Node27 -->
<g id="edge54_Node000032_Node000027" class="edge">
<title>Node32&#45;&gt;Node27</title>
<g id="a_edge54_Node000032_Node000027"><a xlink:title=" ">
<path fill="none" stroke="#63b8ff" d="M234.6,-247.44C319.93,-235.67 473.14,-214.53 563.74,-202.04"/>
<polygon fill="#63b8ff" stroke="#63b8ff" points="564.23,-205.5 573.66,-200.67 563.27,-198.57 564.23,-205.5"/>
</a>
</g>
</g>
</g>
</svg>

<g id="navigator" transform="translate(0 0)" fill="#404254">
  <rect fill="#f2f5e9" fill-opacity="0.5" stroke="#606060" stroke-width=".5" x="0" y="0" width="60" height="60"/>
  <use id="zoomplus" xlink:href="#zoomPlus" x="17" y="9" onmousedown="handleZoom(evt,'in')"/>
  <use id="zoomminus" xlink:href="#zoomMin" x="42" y="9" onmousedown="handleZoom(evt,'out')"/>
  <use id="reset" xlink:href="#resetDef" x="30" y="36" onmousedown="handleReset()"/>
   <use id="arrowup" xlink:href="#arrowUp" x="0" y="0" onmousedown="handlePan(0,-1)"/>
  <use id="arrowright" xlink:href="#arrowRight" x="0" y="0" onmousedown="handlePan(1,0)"/>
  <use id="arrowdown" xlink:href="#arrowDown" x="0" y="0" onmousedown="handlePan(0,1)"/>
  <use id="arrowleft" xlink:href="#arrowLeft" x="0" y="0" onmousedown="handlePan(-1,0)"/>
</g>
<svg viewBox="0 0 15 15" width="100%" height="30px" preserveAspectRatio="xMaxYMin meet">
 <g id="arrow_out" transform="scale(0.3 0.3)">
  <a xlink:href="opencv__camera__mt__handler_8cpp__incl_org.svg" target="_base">
   <rect id="button" ry="5" rx="5" y="6" x="6" height="38" width="38"
        fill="#f2f5e9" fill-opacity="0.5" stroke="#606060" stroke-width="1.0"/>
   <path id="arrow"
     d="M 11.500037,31.436501 C 11.940474,20.09759 22.043105,11.32322 32.158766,21.979434 L 37.068811,17.246167 C 37.068811,17.246167 37.088388,32 37.088388,32 L 22.160133,31.978069 C 22.160133,31.978069 26.997745,27.140456 26.997745,27.140456 C 18.528582,18.264221 13.291696,25.230495 11.500037,31.436501 z"
     style="fill:#404040;"/>
  </a>
 </g>
</svg>

<style type='text/css'>
<![CDATA[
[data-mouse-over-selected='false'] { opacity: 0.7; }
[data-mouse-over-selected='true']  { opacity: 1.0; }
]]>
</style>
<script type="application/ecmascript"><![CDATA[
document.addEventListener('DOMContentLoaded', (event) => {
  highlightEdges();
  highlightAdjacentNodes();
});
]]></script>
</svg>
