<?xml version="1.0" encoding="UTF-8" standalone="no"?>
<!DOCTYPE svg PUBLIC "-//W3C//DTD SVG 1.1//EN"
 "http://www.w3.org/Graphics/SVG/1.1/DTD/svg11.dtd">
<!-- Generated by graphviz version 2.43.0 (0)
 -->
<!-- Title: src/auto_configurer/impl/opencv_camera_mt_handler.cpp Pages: 1 -->
<svg width="1606pt" height="665pt"
 viewBox="0.00 0.00 1605.50 665.00" xmlns="http://www.w3.org/2000/svg" xmlns:xlink="http://www.w3.org/1999/xlink">
<g id="graph0" class="graph" transform="scale(1 1) rotate(0) translate(4 661)">
<title>src/auto_configurer/impl/opencv_camera_mt_handler.cpp</title>
<!-- Node1 -->
<g id="Node000001" class="node">
<title>Node1</title>
<g id="a_Node000001"><a xlink:title=" ">
<polygon fill="#999999" stroke="#666666" points="1514.5,-657 1392.5,-657 1392.5,-616 1514.5,-616 1514.5,-657"/>
<text text-anchor="start" x="1400.5" y="-645" font-family="Helvetica,sans-Serif" font-size="10.00">src/auto_configurer</text>
<text text-anchor="start" x="1400.5" y="-634" font-family="Helvetica,sans-Serif" font-size="10.00">/impl/opencv_camera</text>
<text text-anchor="middle" x="1453.5" y="-623" font-family="Helvetica,sans-Serif" font-size="10.00">_mt_handler.cpp</text>
</a>
</g>
</g>
<!-- Node2 -->
<g id="Node000002" class="node">
<title>Node2</title>
<g id="a_Node000002"><a xlink:href="opencv__camera__mt__handler_8h.html" target="_top" xlink:title=" ">
<polygon fill="white" stroke="#666666" points="1348.5,-580 1208.5,-580 1208.5,-539 1348.5,-539 1348.5,-580"/>
<text text-anchor="start" x="1216.5" y="-568" font-family="Helvetica,sans-Serif" font-size="10.00">mosaic/auto_configurer</text>
<text text-anchor="start" x="1216.5" y="-557" font-family="Helvetica,sans-Serif" font-size="10.00">/impl/opencv_camera_mt</text>
<text text-anchor="middle" x="1278.5" y="-546" font-family="Helvetica,sans-Serif" font-size="10.00">_handler.h</text>
</a>
</g>
</g>
<!-- Node1&#45;&gt;Node2 -->
<g id="edge1_Node000001_Node000002" class="edge">
<title>Node1&#45;&gt;Node2</title>
<g id="a_edge1_Node000001_Node000002"><a xlink:title=" ">
<path fill="none" stroke="#63b8ff" d="M1407.98,-615.99C1385.18,-606.22 1357.4,-594.31 1333.42,-584.04"/>
<polygon fill="#63b8ff" stroke="#63b8ff" points="1334.67,-580.76 1324.1,-580.04 1331.91,-587.2 1334.67,-580.76"/>
</a>
</g>
</g>
<!-- Node32 -->
<g id="Node000032" class="node">
<title>Node32</title>
<g id="a_Node000032"><a xlink:title=" ">
<polygon fill="#e0e0e0" stroke="#999999" points="1442.5,-217 1392.5,-217 1392.5,-198 1442.5,-198 1442.5,-217"/>
<text text-anchor="middle" x="1417.5" y="-205" font-family="Helvetica,sans-Serif" font-size="10.00">chrono</text>
</a>
</g>
</g>
<!-- Node1&#45;&gt;Node32 -->
<g id="edge61_Node000001_Node000032" class="edge">
<title>Node1&#45;&gt;Node32</title>
<g id="a_edge61_Node000001_Node000032"><a xlink:title=" ">
<path fill="none" stroke="#63b8ff" d="M1451.84,-615.76C1445.78,-543.98 1424.99,-297.36 1419.08,-227.24"/>
<polygon fill="#63b8ff" stroke="#63b8ff" points="1422.56,-226.9 1418.24,-217.23 1415.59,-227.48 1422.56,-226.9"/>
</a>
</g>
</g>
<!-- Node35 -->
<g id="Node000035" class="node">
<title>Node35</title>
<g id="a_Node000035"><a xlink:title=" ">
<polygon fill="#e0e0e0" stroke="#999999" points="1597.5,-569 1481.5,-569 1481.5,-550 1597.5,-550 1597.5,-569"/>
<text text-anchor="middle" x="1539.5" y="-557" font-family="Helvetica,sans-Serif" font-size="10.00">opencv2/opencv.hpp</text>
</a>
</g>
</g>
<!-- Node1&#45;&gt;Node35 -->
<g id="edge62_Node000001_Node000035" class="edge">
<title>Node1&#45;&gt;Node35</title>
<g id="a_edge62_Node000001_Node000035"><a xlink:title=" ">
<path fill="none" stroke="#63b8ff" d="M1476.1,-615.79C1490.3,-603.41 1508.38,-587.64 1521.59,-576.12"/>
<polygon fill="#63b8ff" stroke="#63b8ff" points="1524.25,-578.45 1529.48,-569.24 1519.65,-573.17 1524.25,-578.45"/>
</a>
</g>
</g>
<!-- Node3 -->
<g id="Node000003" class="node">
<title>Node3</title>
<g id="a_Node000003"><a xlink:title=" ">
<polygon fill="#e0e0e0" stroke="#999999" points="1169.5,-19 1111.5,-19 1111.5,0 1169.5,0 1169.5,-19"/>
<text text-anchor="middle" x="1140.5" y="-7" font-family="Helvetica,sans-Serif" font-size="10.00">memory</text>
</a>
</g>
</g>
<!-- Node2&#45;&gt;Node3 -->
<g id="edge2_Node000002_Node000003" class="edge">
<title>Node2&#45;&gt;Node3</title>
<g id="a_edge2_Node000002_Node000003"><a xlink:title=" ">
<path fill="none" stroke="#63b8ff" d="M1339.37,-538.97C1359.34,-530.33 1380.5,-518.53 1396.5,-503 1448.69,-452.32 1470.5,-429.75 1470.5,-357 1470.5,-357 1470.5,-357 1470.5,-135 1470.5,-73.51 1267.4,-31.87 1179.87,-16.79"/>
<polygon fill="#63b8ff" stroke="#63b8ff" points="1180.23,-13.3 1169.79,-15.08 1179.06,-20.2 1180.23,-13.3"/>
</a>
</g>
</g>
<!-- Node4 -->
<g id="Node000004" class="node">
<title>Node4</title>
<g id="a_Node000004"><a xlink:title=" ">
<polygon fill="#e0e0e0" stroke="#999999" points="1251.5,-492 1203.5,-492 1203.5,-473 1251.5,-473 1251.5,-492"/>
<text text-anchor="middle" x="1227.5" y="-480" font-family="Helvetica,sans-Serif" font-size="10.00">thread</text>
</a>
</g>
</g>
<!-- Node2&#45;&gt;Node4 -->
<g id="edge3_Node000002_Node000004" class="edge">
<title>Node2&#45;&gt;Node4</title>
<g id="a_edge3_Node000002_Node000004"><a xlink:title=" ">
<path fill="none" stroke="#63b8ff" d="M1265.1,-538.79C1257.08,-527 1246.97,-512.14 1239.26,-500.79"/>
<polygon fill="#63b8ff" stroke="#63b8ff" points="1241.96,-498.54 1233.44,-492.24 1236.17,-502.47 1241.96,-498.54"/>
</a>
</g>
</g>
<!-- Node5 -->
<g id="Node000005" class="node">
<title>Node5</title>
<g id="a_Node000005"><a xlink:title=" ">
<polygon fill="#e0e0e0" stroke="#999999" points="1387.5,-492 1269.5,-492 1269.5,-473 1387.5,-473 1387.5,-492"/>
<text text-anchor="middle" x="1328.5" y="-480" font-family="Helvetica,sans-Serif" font-size="10.00">opencv2/videoio.hpp</text>
</a>
</g>
</g>
<!-- Node2&#45;&gt;Node5 -->
<g id="edge4_Node000002_Node000005" class="edge">
<title>Node2&#45;&gt;Node5</title>
<g id="a_edge4_Node000002_Node000005"><a xlink:title=" ">
<path fill="none" stroke="#63b8ff" d="M1291.64,-538.79C1299.5,-527 1309.41,-512.14 1316.97,-500.79"/>
<polygon fill="#63b8ff" stroke="#63b8ff" points="1320.04,-502.5 1322.68,-492.24 1314.22,-498.62 1320.04,-502.5"/>
</a>
</g>
</g>
<!-- Node6 -->
<g id="Node000006" class="node">
<title>Node6</title>
<g id="a_Node000006"><a xlink:href="a__mt__handler__configurer_8h.html" target="_top" xlink:title=" ">
<polygon fill="white" stroke="#666666" points="900,-503 763,-503 763,-462 900,-462 900,-503"/>
<text text-anchor="start" x="771" y="-491" font-family="Helvetica,sans-Serif" font-size="10.00">mosaic/auto_configurer</text>
<text text-anchor="start" x="771" y="-480" font-family="Helvetica,sans-Serif" font-size="10.00">/connector/a_mt_handler</text>
<text text-anchor="middle" x="831.5" y="-469" font-family="Helvetica,sans-Serif" font-size="10.00">_configurer.h</text>
</a>
</g>
</g>
<!-- Node2&#45;&gt;Node6 -->
<g id="edge5_Node000002_Node000006" class="edge">
<title>Node2&#45;&gt;Node6</title>
<g id="a_edge5_Node000002_Node000006"><a xlink:title=" ">
<path fill="none" stroke="#63b8ff" d="M1208.16,-546.7C1127.25,-533.12 994.72,-510.89 910.37,-496.73"/>
<polygon fill="#63b8ff" stroke="#63b8ff" points="910.77,-493.25 900.32,-495.05 909.61,-500.15 910.77,-493.25"/>
</a>
</g>
</g>
<!-- Node31 -->
<g id="Node000031" class="node">
<title>Node31</title>
<g id="a_Node000031"><a xlink:href="a__media__track__handler_8h.html" target="_top" xlink:title=" ">
<polygon fill="white" stroke="#666666" points="1253,-305 1122,-305 1122,-264 1253,-264 1253,-305"/>
<text text-anchor="start" x="1130" y="-293" font-family="Helvetica,sans-Serif" font-size="10.00">mosaic/handlers/media</text>
<text text-anchor="start" x="1130" y="-282" font-family="Helvetica,sans-Serif" font-size="10.00">_track/a_media_track</text>
<text text-anchor="middle" x="1187.5" y="-271" font-family="Helvetica,sans-Serif" font-size="10.00">_handler.h</text>
</a>
</g>
</g>
<!-- Node2&#45;&gt;Node31 -->
<g id="edge51_Node000002_Node000031" class="edge">
<title>Node2&#45;&gt;Node31</title>
<g id="a_edge51_Node000002_Node000031"><a xlink:title=" ">
<path fill="none" stroke="#63b8ff" d="M1232.44,-538.79C1217.71,-530.06 1203.03,-518.26 1194.5,-503 1161.13,-443.28 1171.46,-359.23 1180.37,-315.14"/>
<polygon fill="#63b8ff" stroke="#63b8ff" points="1183.85,-315.6 1182.52,-305.09 1177.01,-314.14 1183.85,-315.6"/>
</a>
</g>
</g>
<!-- Node7 -->
<g id="Node000007" class="node">
<title>Node7</title>
<g id="a_Node000007"><a xlink:href="i__configurable__connector_8h.html" target="_top" xlink:title=" ">
<polygon fill="white" stroke="#666666" points="624.5,-426 478.5,-426 478.5,-407 624.5,-407 624.5,-426"/>
<text text-anchor="middle" x="551.5" y="-414" font-family="Helvetica,sans-Serif" font-size="10.00">i_configurable_connector.h</text>
</a>
</g>
</g>
<!-- Node6&#45;&gt;Node7 -->
<g id="edge6_Node000006_Node000007" class="edge">
<title>Node6&#45;&gt;Node7</title>
<g id="a_edge6_Node000006_Node000007"><a xlink:title=" ">
<path fill="none" stroke="#63b8ff" d="M762.65,-465.76C711.61,-454.1 643.4,-438.51 598.5,-428.24"/>
<polygon fill="#63b8ff" stroke="#63b8ff" points="599.26,-424.83 588.73,-426.01 597.7,-431.65 599.26,-424.83"/>
</a>
</g>
</g>
<!-- Node8 -->
<g id="Node000008" class="node">
<title>Node8</title>
<g id="a_Node000008"><a xlink:href="configs__decl_8h.html" target="_top" xlink:title=" ">
<polygon fill="white" stroke="#666666" points="174.5,-79.5 50.5,-79.5 50.5,-60.5 174.5,-60.5 174.5,-79.5"/>
<text text-anchor="middle" x="112.5" y="-67.5" font-family="Helvetica,sans-Serif" font-size="10.00">mosaic/configs_decl.h</text>
</a>
</g>
</g>
<!-- Node7&#45;&gt;Node8 -->
<g id="edge7_Node000007_Node000008" class="edge">
<title>Node7&#45;&gt;Node8</title>
<g id="a_edge7_Node000007_Node000008"><a xlink:title=" ">
<path fill="none" stroke="#63b8ff" d="M478.37,-409.71C355.99,-398.32 118.08,-368.43 67.5,-305 15.1,-239.28 74.22,-130.49 100.85,-88.39"/>
<polygon fill="#63b8ff" stroke="#63b8ff" points="103.9,-90.11 106.41,-79.81 98.03,-86.3 103.9,-90.11"/>
</a>
</g>
</g>
<!-- Node12 -->
<g id="Node000012" class="node">
<title>Node12</title>
<g id="a_Node000012"><a xlink:href="mosaic__connector_8h.html" target="_top" xlink:title=" ">
<polygon fill="white" stroke="#666666" points="608.5,-371 494.5,-371 494.5,-341 608.5,-341 608.5,-371"/>
<text text-anchor="start" x="502.5" y="-359" font-family="Helvetica,sans-Serif" font-size="10.00">mosaic/core/mosaic</text>
<text text-anchor="middle" x="551.5" y="-348" font-family="Helvetica,sans-Serif" font-size="10.00">_connector.h</text>
</a>
</g>
</g>
<!-- Node7&#45;&gt;Node12 -->
<g id="edge11_Node000007_Node000012" class="edge">
<title>Node7&#45;&gt;Node12</title>
<g id="a_edge11_Node000007_Node000012"><a xlink:title=" ">
<path fill="none" stroke="#63b8ff" d="M551.5,-406.87C551.5,-400.11 551.5,-390.35 551.5,-381.26"/>
<polygon fill="#63b8ff" stroke="#63b8ff" points="555,-381.11 551.5,-371.11 548,-381.11 555,-381.11"/>
</a>
</g>
</g>
<!-- Node9 -->
<g id="Node000009" class="node">
<title>Node9</title>
<g id="a_Node000009"><a xlink:title=" ">
<polygon fill="#e0e0e0" stroke="#999999" points="660.5,-19 616.5,-19 616.5,0 660.5,0 660.5,-19"/>
<text text-anchor="middle" x="638.5" y="-7" font-family="Helvetica,sans-Serif" font-size="10.00">string</text>
</a>
</g>
</g>
<!-- Node8&#45;&gt;Node9 -->
<g id="edge8_Node000008_Node000009" class="edge">
<title>Node8&#45;&gt;Node9</title>
<g id="a_edge8_Node000008_Node000009"><a xlink:title=" ">
<path fill="none" stroke="#63b8ff" d="M155.4,-60.45C166.18,-58.48 177.74,-56.52 188.5,-55 344.46,-32.96 532.36,-18.14 606.34,-12.75"/>
<polygon fill="#63b8ff" stroke="#63b8ff" points="606.69,-16.24 616.41,-12.03 606.19,-9.25 606.69,-16.24"/>
</a>
</g>
</g>
<!-- Node10 -->
<g id="Node000010" class="node">
<title>Node10</title>
<g id="a_Node000010"><a xlink:title=" ">
<polygon fill="#e0e0e0" stroke="#999999" points="159,-19 66,-19 66,0 159,0 159,-19"/>
<text text-anchor="middle" x="112.5" y="-7" font-family="Helvetica,sans-Serif" font-size="10.00">unordered_map</text>
</a>
</g>
</g>
<!-- Node8&#45;&gt;Node10 -->
<g id="edge9_Node000008_Node000010" class="edge">
<title>Node8&#45;&gt;Node10</title>
<g id="a_edge9_Node000008_Node000010"><a xlink:title=" ">
<path fill="none" stroke="#63b8ff" d="M112.5,-60.37C112.5,-52.25 112.5,-39.81 112.5,-29.39"/>
<polygon fill="#63b8ff" stroke="#63b8ff" points="116,-29.17 112.5,-19.17 109,-29.17 116,-29.17"/>
</a>
</g>
</g>
<!-- Node11 -->
<g id="Node000011" class="node">
<title>Node11</title>
<g id="a_Node000011"><a xlink:title=" ">
<polygon fill="#e0e0e0" stroke="#999999" points="47,-19 0,-19 0,0 47,0 47,-19"/>
<text text-anchor="middle" x="23.5" y="-7" font-family="Helvetica,sans-Serif" font-size="10.00">vector</text>
</a>
</g>
</g>
<!-- Node8&#45;&gt;Node11 -->
<g id="edge10_Node000008_Node000011" class="edge">
<title>Node8&#45;&gt;Node11</title>
<g id="a_edge10_Node000008_Node000011"><a xlink:title=" ">
<path fill="none" stroke="#63b8ff" d="M99.37,-60.37C85.17,-51.04 62.3,-36.01 45.38,-24.88"/>
<polygon fill="#63b8ff" stroke="#63b8ff" points="46.97,-21.74 36.69,-19.17 43.12,-27.58 46.97,-21.74"/>
</a>
</g>
</g>
<!-- Node12&#45;&gt;Node3 -->
<g id="edge13_Node000012_Node000003" class="edge">
<title>Node12&#45;&gt;Node3</title>
<g id="a_edge13_Node000012_Node000003"><a xlink:title=" ">
<path fill="none" stroke="#63b8ff" d="M608.74,-352.78C703.11,-346.42 893.35,-321.95 1018.5,-228 1080.52,-181.44 1086.77,-155.77 1118.5,-85 1126.76,-66.58 1132.88,-44.23 1136.54,-28.85"/>
<polygon fill="#63b8ff" stroke="#63b8ff" points="1139.97,-29.56 1138.77,-19.03 1133.14,-28.01 1139.97,-29.56"/>
</a>
</g>
</g>
<!-- Node12&#45;&gt;Node9 -->
<g id="edge14_Node000012_Node000009" class="edge">
<title>Node12&#45;&gt;Node9</title>
<g id="a_edge14_Node000012_Node000009"><a xlink:title=" ">
<path fill="none" stroke="#63b8ff" d="M494.31,-344.96C430.43,-330.61 328.87,-297.81 274.5,-228 225.09,-164.56 167.74,-114.8 221.5,-55 247.13,-26.49 512.88,-14.77 606.27,-11.51"/>
<polygon fill="#63b8ff" stroke="#63b8ff" points="606.4,-15.01 616.27,-11.17 606.16,-8.01 606.4,-15.01"/>
</a>
</g>
</g>
<!-- Node13 -->
<g id="Node000013" class="node">
<title>Node13</title>
<g id="a_Node000013"><a xlink:title=" ">
<polygon fill="#e0e0e0" stroke="#999999" points="811.5,-294 773.5,-294 773.5,-275 811.5,-275 811.5,-294"/>
<text text-anchor="middle" x="792.5" y="-282" font-family="Helvetica,sans-Serif" font-size="10.00">map</text>
</a>
</g>
</g>
<!-- Node12&#45;&gt;Node13 -->
<g id="edge12_Node000012_Node000013" class="edge">
<title>Node12&#45;&gt;Node13</title>
<g id="a_edge12_Node000012_Node000013"><a xlink:title=" ">
<path fill="none" stroke="#63b8ff" d="M608.53,-346.03C651.14,-338.2 710.27,-324.94 759.5,-305 763.41,-303.42 767.41,-301.42 771.22,-299.31"/>
<polygon fill="#63b8ff" stroke="#63b8ff" points="773.31,-302.14 780.11,-294.02 769.72,-296.13 773.31,-302.14"/>
</a>
</g>
</g>
<!-- Node14 -->
<g id="Node000014" class="node">
<title>Node14</title>
<g id="a_Node000014"><a xlink:href="connector__state__manager_8h.html" target="_top" xlink:title=" ">
<polygon fill="white" stroke="#666666" points="523,-299.5 396,-299.5 396,-269.5 523,-269.5 523,-299.5"/>
<text text-anchor="start" x="404" y="-287.5" font-family="Helvetica,sans-Serif" font-size="10.00">mosaic/core/connector</text>
<text text-anchor="middle" x="459.5" y="-276.5" font-family="Helvetica,sans-Serif" font-size="10.00">_state_manager.h</text>
</a>
</g>
</g>
<!-- Node12&#45;&gt;Node14 -->
<g id="edge15_Node000012_Node000014" class="edge">
<title>Node12&#45;&gt;Node14</title>
<g id="a_edge15_Node000012_Node000014"><a xlink:title=" ">
<path fill="none" stroke="#63b8ff" d="M532.88,-340.94C519.54,-330.86 501.36,-317.13 486.44,-305.85"/>
<polygon fill="#63b8ff" stroke="#63b8ff" points="488.18,-302.78 478.09,-299.54 483.96,-308.36 488.18,-302.78"/>
</a>
</g>
</g>
<!-- Node18 -->
<g id="Node000018" class="node">
<title>Node18</title>
<g id="a_Node000018"><a xlink:title=" ">
<polygon fill="#e0e0e0" stroke="#999999" points="610.5,-151 464.5,-151 464.5,-121 610.5,-121 610.5,-151"/>
<text text-anchor="start" x="472.5" y="-139" font-family="Helvetica,sans-Serif" font-size="10.00">mosaic/rtc/webrtc_forward</text>
<text text-anchor="middle" x="537.5" y="-128" font-family="Helvetica,sans-Serif" font-size="10.00">_decl.h</text>
</a>
</g>
</g>
<!-- Node12&#45;&gt;Node18 -->
<g id="edge50_Node000012_Node000018" class="edge">
<title>Node12&#45;&gt;Node18</title>
<g id="a_edge50_Node000012_Node000018"><a xlink:title=" ">
<path fill="none" stroke="#63b8ff" d="M550.95,-340.6C549.8,-311.54 546.86,-243.79 542.5,-187 541.86,-178.65 541,-169.54 540.17,-161.41"/>
<polygon fill="#63b8ff" stroke="#63b8ff" points="543.65,-161.01 539.12,-151.43 536.68,-161.74 543.65,-161.01"/>
</a>
</g>
</g>
<!-- Node21 -->
<g id="Node000021" class="node">
<title>Node21</title>
<g id="a_Node000021"><a xlink:href="peer__connection__manager_8h.html" target="_top" xlink:title=" ">
<polygon fill="white" stroke="#666666" points="236,-299.5 77,-299.5 77,-269.5 236,-269.5 236,-299.5"/>
<text text-anchor="start" x="85" y="-287.5" font-family="Helvetica,sans-Serif" font-size="10.00">mosaic/core/peer_connection</text>
<text text-anchor="middle" x="156.5" y="-276.5" font-family="Helvetica,sans-Serif" font-size="10.00">_manager.h</text>
</a>
</g>
</g>
<!-- Node12&#45;&gt;Node21 -->
<g id="edge28_Node000012_Node000021" class="edge">
<title>Node12&#45;&gt;Node21</title>
<g id="a_edge28_Node000012_Node000021"><a xlink:title=" ">
<path fill="none" stroke="#63b8ff" d="M494.47,-347.3C431.81,-337.99 328.64,-321.53 240.5,-305 234.79,-303.93 228.88,-302.78 222.98,-301.6"/>
<polygon fill="#63b8ff" stroke="#63b8ff" points="223.56,-298.15 213.06,-299.59 222.17,-305.01 223.56,-298.15"/>
</a>
</g>
</g>
<!-- Node22 -->
<g id="Node000022" class="node">
<title>Node22</title>
<g id="a_Node000022"><a xlink:href="i__data__channel__handler_8h.html" target="_top" xlink:title=" ">
<polygon fill="white" stroke="#666666" points="717,-305 580,-305 580,-264 717,-264 717,-305"/>
<text text-anchor="start" x="588" y="-293" font-family="Helvetica,sans-Serif" font-size="10.00">mosaic/handlers/data</text>
<text text-anchor="start" x="588" y="-282" font-family="Helvetica,sans-Serif" font-size="10.00">_channel/i_data_channel</text>
<text text-anchor="middle" x="648.5" y="-271" font-family="Helvetica,sans-Serif" font-size="10.00">_handler.h</text>
</a>
</g>
</g>
<!-- Node12&#45;&gt;Node22 -->
<g id="edge33_Node000012_Node000022" class="edge">
<title>Node12&#45;&gt;Node22</title>
<g id="a_edge33_Node000012_Node000022"><a xlink:title=" ">
<path fill="none" stroke="#63b8ff" d="M571.13,-340.94C583.05,-332.4 598.63,-321.23 612.68,-311.17"/>
<polygon fill="#63b8ff" stroke="#63b8ff" points="615.09,-313.74 621.18,-305.07 611.01,-308.05 615.09,-313.74"/>
</a>
</g>
</g>
<!-- Node29 -->
<g id="Node000029" class="node">
<title>Node29</title>
<g id="a_Node000029"><a xlink:href="i__media__track__handler_8h.html" target="_top" xlink:title=" ">
<polygon fill="white" stroke="#666666" points="798,-228 667,-228 667,-187 798,-187 798,-228"/>
<text text-anchor="start" x="675" y="-216" font-family="Helvetica,sans-Serif" font-size="10.00">mosaic/handlers/media</text>
<text text-anchor="start" x="675" y="-205" font-family="Helvetica,sans-Serif" font-size="10.00">_track/i_media_track</text>
<text text-anchor="middle" x="732.5" y="-194" font-family="Helvetica,sans-Serif" font-size="10.00">_handler.h</text>
</a>
</g>
</g>
<!-- Node12&#45;&gt;Node29 -->
<g id="edge46_Node000012_Node000029" class="edge">
<title>Node12&#45;&gt;Node29</title>
<g id="a_edge46_Node000012_Node000029"><a xlink:title=" ">
<path fill="none" stroke="#63b8ff" d="M608.57,-345.96C653.74,-337.55 711.6,-323.53 726.5,-305 741.35,-286.54 741.65,-259.1 738.93,-238.19"/>
<polygon fill="#63b8ff" stroke="#63b8ff" points="742.37,-237.56 737.34,-228.23 735.46,-238.66 742.37,-237.56"/>
</a>
</g>
</g>
<!-- Node14&#45;&gt;Node3 -->
<g id="edge16_Node000014_Node000003" class="edge">
<title>Node14&#45;&gt;Node3</title>
<g id="a_edge16_Node000014_Node000003"><a xlink:title=" ">
<path fill="none" stroke="#63b8ff" d="M523.04,-271.36C538.53,-268.67 555.08,-266.02 570.5,-264 662.06,-252 904.25,-273.7 984.5,-228 1026.53,-204.06 1103.37,-75.21 1130.61,-27.92"/>
<polygon fill="#63b8ff" stroke="#63b8ff" points="1133.71,-29.55 1135.64,-19.13 1127.63,-26.07 1133.71,-29.55"/>
</a>
</g>
</g>
<!-- Node14&#45;&gt;Node9 -->
<g id="edge18_Node000014_Node000009" class="edge">
<title>Node14&#45;&gt;Node9</title>
<g id="a_edge18_Node000014_Node000009"><a xlink:title=" ">
<path fill="none" stroke="#63b8ff" d="M452.49,-269.31C447.48,-258.33 441.17,-242.59 438.5,-228 429.84,-180.63 426.75,-159.63 455.5,-121 494.29,-68.88 565.61,-36.37 606.82,-21.02"/>
<polygon fill="#63b8ff" stroke="#63b8ff" points="608.15,-24.26 616.37,-17.57 605.78,-17.68 608.15,-24.26"/>
</a>
</g>
</g>
<!-- Node15 -->
<g id="Node000015" class="node">
<title>Node15</title>
<g id="a_Node000015"><a xlink:title=" ">
<polygon fill="#e0e0e0" stroke="#999999" points="533.5,-217 447.5,-217 447.5,-198 533.5,-198 533.5,-217"/>
<text text-anchor="middle" x="490.5" y="-205" font-family="Helvetica,sans-Serif" font-size="10.00">shared_mutex</text>
</a>
</g>
</g>
<!-- Node14&#45;&gt;Node15 -->
<g id="edge17_Node000014_Node000015" class="edge">
<title>Node14&#45;&gt;Node15</title>
<g id="a_edge17_Node000014_Node000015"><a xlink:title=" ">
<path fill="none" stroke="#63b8ff" d="M465.33,-269.39C470.31,-257.34 477.51,-239.92 482.94,-226.79"/>
<polygon fill="#63b8ff" stroke="#63b8ff" points="486.25,-227.95 486.83,-217.37 479.78,-225.28 486.25,-227.95"/>
</a>
</g>
</g>
<!-- Node16 -->
<g id="Node000016" class="node">
<title>Node16</title>
<g id="a_Node000016"><a xlink:href="i__signaling__client_8h.html" target="_top" xlink:title=" ">
<polygon fill="white" stroke="#666666" points="391,-222.5 284,-222.5 284,-192.5 391,-192.5 391,-222.5"/>
<text text-anchor="start" x="292" y="-210.5" font-family="Helvetica,sans-Serif" font-size="10.00">mosaic/signaling/i</text>
<text text-anchor="middle" x="337.5" y="-199.5" font-family="Helvetica,sans-Serif" font-size="10.00">_signaling_client.h</text>
</a>
</g>
</g>
<!-- Node14&#45;&gt;Node16 -->
<g id="edge19_Node000014_Node000016" class="edge">
<title>Node14&#45;&gt;Node16</title>
<g id="a_edge19_Node000014_Node000016"><a xlink:title=" ">
<path fill="none" stroke="#63b8ff" d="M436.55,-269.39C417.47,-257.66 390.11,-240.84 368.98,-227.85"/>
<polygon fill="#63b8ff" stroke="#63b8ff" points="370.7,-224.8 360.34,-222.54 367.03,-230.76 370.7,-224.8"/>
</a>
</g>
</g>
<!-- Node17 -->
<g id="Node000017" class="node">
<title>Node17</title>
<g id="a_Node000017"><a xlink:title=" ">
<polygon fill="#e0e0e0" stroke="#999999" points="348.5,-85 230.5,-85 230.5,-55 348.5,-55 348.5,-85"/>
<text text-anchor="start" x="238.5" y="-73" font-family="Helvetica,sans-Serif" font-size="10.00">mosaic/json_forward</text>
<text text-anchor="middle" x="289.5" y="-62" font-family="Helvetica,sans-Serif" font-size="10.00">_decl.h</text>
</a>
</g>
</g>
<!-- Node16&#45;&gt;Node17 -->
<g id="edge20_Node000016_Node000017" class="edge">
<title>Node16&#45;&gt;Node17</title>
<g id="a_edge20_Node000016_Node000017"><a xlink:title=" ">
<path fill="none" stroke="#63b8ff" d="M305.01,-192.5C288.14,-183.35 269.1,-169.61 259.5,-151 249.86,-132.31 260.09,-109.79 271.15,-93.41"/>
<polygon fill="#63b8ff" stroke="#63b8ff" points="274.21,-95.16 277.25,-85.01 268.54,-91.04 274.21,-95.16"/>
</a>
</g>
</g>
<!-- Node16&#45;&gt;Node18 -->
<g id="edge21_Node000016_Node000018" class="edge">
<title>Node16&#45;&gt;Node18</title>
<g id="a_edge21_Node000016_Node000018"><a xlink:title=" ">
<path fill="none" stroke="#63b8ff" d="M377.97,-192.44C409.55,-181.46 453.59,-166.16 487.4,-154.41"/>
<polygon fill="#63b8ff" stroke="#63b8ff" points="488.79,-157.63 497.09,-151.04 486.49,-151.02 488.79,-157.63"/>
</a>
</g>
</g>
<!-- Node19 -->
<g id="Node000019" class="node">
<title>Node19</title>
<g id="a_Node000019"><a xlink:href="i__mosaic__authenticator_8h.html" target="_top" xlink:title=" ">
<polygon fill="white" stroke="#666666" points="408.5,-151 268.5,-151 268.5,-121 408.5,-121 408.5,-151"/>
<text text-anchor="start" x="276.5" y="-139" font-family="Helvetica,sans-Serif" font-size="10.00">mosaic/security/i_mosaic</text>
<text text-anchor="middle" x="338.5" y="-128" font-family="Helvetica,sans-Serif" font-size="10.00">_authenticator.h</text>
</a>
</g>
</g>
<!-- Node16&#45;&gt;Node19 -->
<g id="edge22_Node000016_Node000019" class="edge">
<title>Node16&#45;&gt;Node19</title>
<g id="a_edge22_Node000016_Node000019"><a xlink:title=" ">
<path fill="none" stroke="#63b8ff" d="M337.7,-192.44C337.83,-183.49 338,-171.66 338.15,-161.23"/>
<polygon fill="#63b8ff" stroke="#63b8ff" points="341.65,-161.09 338.3,-151.04 334.65,-160.99 341.65,-161.09"/>
</a>
</g>
</g>
<!-- Node19&#45;&gt;Node3 -->
<g id="edge23_Node000019_Node000003" class="edge">
<title>Node19&#45;&gt;Node3</title>
<g id="a_edge23_Node000019_Node000003"><a xlink:title=" ">
<path fill="none" stroke="#63b8ff" d="M408.75,-122.33C500.86,-105.89 667.53,-76.75 810.5,-55 928.88,-36.99 958.83,-35.01 1077.5,-19 1085.18,-17.96 1093.39,-16.86 1101.26,-15.8"/>
<polygon fill="#63b8ff" stroke="#63b8ff" points="1101.89,-19.24 1111.33,-14.44 1100.95,-12.3 1101.89,-19.24"/>
</a>
</g>
</g>
<!-- Node19&#45;&gt;Node8 -->
<g id="edge26_Node000019_Node000008" class="edge">
<title>Node19&#45;&gt;Node8</title>
<g id="a_edge26_Node000019_Node000008"><a xlink:title=" ">
<path fill="none" stroke="#63b8ff" d="M288.9,-120.95C247.87,-109.34 190.35,-93.05 152.29,-82.27"/>
<polygon fill="#63b8ff" stroke="#63b8ff" points="153.15,-78.87 142.58,-79.52 151.24,-85.61 153.15,-78.87"/>
</a>
</g>
</g>
<!-- Node19&#45;&gt;Node17 -->
<g id="edge27_Node000019_Node000017" class="edge">
<title>Node19&#45;&gt;Node17</title>
<g id="a_edge27_Node000019_Node000017"><a xlink:title=" ">
<path fill="none" stroke="#63b8ff" d="M327.63,-120.8C321.41,-112.68 313.48,-102.31 306.46,-93.15"/>
<polygon fill="#63b8ff" stroke="#63b8ff" points="309.2,-90.98 300.34,-85.16 303.64,-95.23 309.2,-90.98"/>
</a>
</g>
</g>
<!-- Node20 -->
<g id="Node000020" class="node">
<title>Node20</title>
<g id="a_Node000020"><a xlink:href="auth__type_8h.html" target="_top" xlink:title=" ">
<polygon fill="white" stroke="#666666" points="440.5,-79.5 366.5,-79.5 366.5,-60.5 440.5,-60.5 440.5,-79.5"/>
<text text-anchor="middle" x="403.5" y="-67.5" font-family="Helvetica,sans-Serif" font-size="10.00">auth_type.h</text>
</a>
</g>
</g>
<!-- Node19&#45;&gt;Node20 -->
<g id="edge24_Node000019_Node000020" class="edge">
<title>Node19&#45;&gt;Node20</title>
<g id="a_edge24_Node000019_Node000020"><a xlink:title=" ">
<path fill="none" stroke="#63b8ff" d="M352.93,-120.8C363.06,-110.82 376.63,-97.46 387.16,-87.09"/>
<polygon fill="#63b8ff" stroke="#63b8ff" points="389.85,-89.35 394.52,-79.84 384.94,-84.37 389.85,-89.35"/>
</a>
</g>
</g>
<!-- Node20&#45;&gt;Node9 -->
<g id="edge25_Node000020_Node000009" class="edge">
<title>Node20&#45;&gt;Node9</title>
<g id="a_edge25_Node000020_Node000009"><a xlink:title=" ">
<path fill="none" stroke="#63b8ff" d="M433.93,-60.48C440.69,-58.64 447.83,-56.72 454.5,-55 507.5,-41.32 569.42,-26.6 606.22,-17.99"/>
<polygon fill="#63b8ff" stroke="#63b8ff" points="607.41,-21.31 616.35,-15.62 605.82,-14.49 607.41,-21.31"/>
</a>
</g>
</g>
<!-- Node21&#45;&gt;Node8 -->
<g id="edge30_Node000021_Node000008" class="edge">
<title>Node21&#45;&gt;Node8</title>
<g id="a_edge30_Node000021_Node000008"><a xlink:title=" ">
<path fill="none" stroke="#63b8ff" d="M153.54,-269.23C145.81,-231.89 125,-131.35 116.35,-89.58"/>
<polygon fill="#63b8ff" stroke="#63b8ff" points="119.75,-88.75 114.3,-79.67 112.9,-90.17 119.75,-88.75"/>
</a>
</g>
</g>
<!-- Node21&#45;&gt;Node11 -->
<g id="edge29_Node000021_Node000011" class="edge">
<title>Node21&#45;&gt;Node11</title>
<g id="a_edge29_Node000021_Node000011"><a xlink:title=" ">
<path fill="none" stroke="#63b8ff" d="M146.32,-269.3C124.12,-237.71 70.98,-158.57 41.5,-85 34.16,-66.69 29.29,-44.61 26.48,-29.26"/>
<polygon fill="#63b8ff" stroke="#63b8ff" points="29.87,-28.28 24.74,-19.01 22.97,-29.46 29.87,-28.28"/>
</a>
</g>
</g>
<!-- Node21&#45;&gt;Node12 -->
<g id="edge31_Node000021_Node000012" class="edge">
<title>Node21&#45;&gt;Node12</title>
<g id="a_edge31_Node000021_Node000012"><a xlink:title=" ">
<path fill="none" stroke="#63b8ff" d="M230.63,-299.54C240.03,-301.44 249.5,-303.31 258.5,-305 335.9,-319.51 424.88,-333.98 484.35,-343.59"/>
<polygon fill="#63b8ff" stroke="#63b8ff" points="483.94,-347.07 494.37,-345.2 485.06,-340.16 483.94,-347.07"/>
</a>
</g>
</g>
<!-- Node21&#45;&gt;Node16 -->
<g id="edge32_Node000021_Node000016" class="edge">
<title>Node21&#45;&gt;Node16</title>
<g id="a_edge32_Node000021_Node000016"><a xlink:title=" ">
<path fill="none" stroke="#63b8ff" d="M190.54,-269.39C219.87,-257.24 262.37,-239.63 294.12,-226.47"/>
<polygon fill="#63b8ff" stroke="#63b8ff" points="295.71,-229.61 303.61,-222.54 293.03,-223.14 295.71,-229.61"/>
</a>
</g>
</g>
<!-- Node22&#45;&gt;Node9 -->
<g id="edge34_Node000022_Node000009" class="edge">
<title>Node22&#45;&gt;Node9</title>
<g id="a_edge34_Node000022_Node000009"><a xlink:title=" ">
<path fill="none" stroke="#63b8ff" d="M647.78,-263.87C645.93,-213.27 641.01,-78.95 639.19,-29.29"/>
<polygon fill="#63b8ff" stroke="#63b8ff" points="642.68,-28.94 638.81,-19.07 635.68,-29.19 642.68,-28.94"/>
</a>
</g>
</g>
<!-- Node22&#45;&gt;Node18 -->
<g id="edge45_Node000022_Node000018" class="edge">
<title>Node22&#45;&gt;Node18</title>
<g id="a_edge45_Node000022_Node000018"><a xlink:title=" ">
<path fill="none" stroke="#63b8ff" d="M633.69,-263.9C618.95,-244.4 595.68,-213.62 575.5,-187 568.58,-177.88 560.95,-167.83 554.35,-159.14"/>
<polygon fill="#63b8ff" stroke="#63b8ff" points="556.99,-156.84 548.16,-151 551.42,-161.08 556.99,-156.84"/>
</a>
</g>
</g>
<!-- Node23 -->
<g id="Node000023" class="node">
<title>Node23</title>
<g id="a_Node000023"><a xlink:href="log_8h.html" target="_top" xlink:title=" ">
<polygon fill="white" stroke="#666666" points="975,-217 862,-217 862,-198 975,-198 975,-217"/>
<text text-anchor="middle" x="918.5" y="-205" font-family="Helvetica,sans-Serif" font-size="10.00">mosaic/logger/log.h</text>
</a>
</g>
</g>
<!-- Node22&#45;&gt;Node23 -->
<g id="edge35_Node000022_Node000023" class="edge">
<title>Node22&#45;&gt;Node23</title>
<g id="a_edge35_Node000022_Node000023"><a xlink:title=" ">
<path fill="none" stroke="#63b8ff" d="M717.33,-264.38C768.1,-250.28 835.46,-231.57 877.9,-219.78"/>
<polygon fill="#63b8ff" stroke="#63b8ff" points="878.9,-223.13 887.6,-217.08 877.03,-216.39 878.9,-223.13"/>
</a>
</g>
</g>
<!-- Node24 -->
<g id="Node000024" class="node">
<title>Node24</title>
<g id="a_Node000024"><a xlink:href="i__logger_8h.html" target="_top" xlink:title=" ">
<polygon fill="white" stroke="#666666" points="950.5,-145.5 886.5,-145.5 886.5,-126.5 950.5,-126.5 950.5,-145.5"/>
<text text-anchor="middle" x="918.5" y="-133.5" font-family="Helvetica,sans-Serif" font-size="10.00">i_logger.h</text>
</a>
</g>
</g>
<!-- Node23&#45;&gt;Node24 -->
<g id="edge36_Node000023_Node000024" class="edge">
<title>Node23&#45;&gt;Node24</title>
<g id="a_edge36_Node000023_Node000024"><a xlink:title=" ">
<path fill="none" stroke="#63b8ff" d="M918.5,-197.98C918.5,-187.56 918.5,-169.61 918.5,-155.88"/>
<polygon fill="#63b8ff" stroke="#63b8ff" points="922,-155.59 918.5,-145.59 915,-155.59 922,-155.59"/>
</a>
</g>
</g>
<!-- Node27 -->
<g id="Node000027" class="node">
<title>Node27</title>
<g id="a_Node000027"><a xlink:href="log__service_8h.html" target="_top" xlink:title=" ">
<polygon fill="white" stroke="#666666" points="1074,-79.5 993,-79.5 993,-60.5 1074,-60.5 1074,-79.5"/>
<text text-anchor="middle" x="1033.5" y="-67.5" font-family="Helvetica,sans-Serif" font-size="10.00">log_service.h</text>
</a>
</g>
</g>
<!-- Node23&#45;&gt;Node27 -->
<g id="edge44_Node000023_Node000027" class="edge">
<title>Node23&#45;&gt;Node27</title>
<g id="a_edge44_Node000023_Node000027"><a xlink:title=" ">
<path fill="none" stroke="#63b8ff" d="M926.05,-197.61C944.97,-175.31 994.71,-116.7 1019.31,-87.72"/>
<polygon fill="#63b8ff" stroke="#63b8ff" points="1022.27,-89.64 1026.08,-79.75 1016.94,-85.11 1022.27,-89.64"/>
</a>
</g>
</g>
<!-- Node24&#45;&gt;Node9 -->
<g id="edge37_Node000024_Node000009" class="edge">
<title>Node24&#45;&gt;Node9</title>
<g id="a_edge37_Node000024_Node000009"><a xlink:title=" ">
<path fill="none" stroke="#63b8ff" d="M899.25,-126.44C850.9,-104.94 724.12,-48.57 667.05,-23.2"/>
<polygon fill="#63b8ff" stroke="#63b8ff" points="668.44,-19.98 657.88,-19.12 665.6,-26.38 668.44,-19.98"/>
</a>
</g>
</g>
<!-- Node25 -->
<g id="Node000025" class="node">
<title>Node25</title>
<g id="a_Node000025"><a xlink:title=" ">
<polygon fill="#e0e0e0" stroke="#999999" points="898,-79.5 819,-79.5 819,-60.5 898,-60.5 898,-79.5"/>
<text text-anchor="middle" x="858.5" y="-67.5" font-family="Helvetica,sans-Serif" font-size="10.00">fmt/format.h</text>
</a>
</g>
</g>
<!-- Node24&#45;&gt;Node25 -->
<g id="edge38_Node000024_Node000025" class="edge">
<title>Node24&#45;&gt;Node25</title>
<g id="a_edge38_Node000024_Node000025"><a xlink:title=" ">
<path fill="none" stroke="#63b8ff" d="M910.41,-126.37C901.07,-116.4 885.49,-99.79 873.84,-87.36"/>
<polygon fill="#63b8ff" stroke="#63b8ff" points="876.24,-84.81 866.85,-79.91 871.13,-89.59 876.24,-84.81"/>
</a>
</g>
</g>
<!-- Node26 -->
<g id="Node000026" class="node">
<title>Node26</title>
<g id="a_Node000026"><a xlink:href="log__level_8h.html" target="_top" xlink:title=" ">
<polygon fill="white" stroke="#666666" points="971.5,-19 901.5,-19 901.5,0 971.5,0 971.5,-19"/>
<text text-anchor="middle" x="936.5" y="-7" font-family="Helvetica,sans-Serif" font-size="10.00">log_level.h</text>
</a>
</g>
</g>
<!-- Node24&#45;&gt;Node26 -->
<g id="edge39_Node000024_Node000026" class="edge">
<title>Node24&#45;&gt;Node26</title>
<g id="a_edge39_Node000024_Node000026"><a xlink:title=" ">
<path fill="none" stroke="#63b8ff" d="M919.74,-126.44C922.61,-106.54 929.81,-56.76 933.78,-29.35"/>
<polygon fill="#63b8ff" stroke="#63b8ff" points="937.29,-29.52 935.25,-19.12 930.36,-28.51 937.29,-29.52"/>
</a>
</g>
</g>
<!-- Node24&#45;&gt;Node27 -->
<g id="edge40_Node000024_Node000027" class="edge">
<title>Node24&#45;&gt;Node27</title>
<g id="a_edge40_Node000024_Node000027"><a xlink:title=" ">
<path fill="none" stroke="#63b8ff" d="M934.01,-126.37C953.21,-115.68 986.16,-97.35 1008.85,-84.72"/>
<polygon fill="#63b8ff" stroke="#63b8ff" points="1010.83,-87.62 1017.87,-79.7 1007.43,-81.5 1010.83,-87.62"/>
</a>
</g>
</g>
<!-- Node27&#45;&gt;Node3 -->
<g id="edge41_Node000027_Node000003" class="edge">
<title>Node27&#45;&gt;Node3</title>
<g id="a_edge41_Node000027_Node000003"><a xlink:title=" ">
<path fill="none" stroke="#63b8ff" d="M1049.29,-60.37C1066.83,-50.78 1095.38,-35.17 1115.87,-23.97"/>
<polygon fill="#63b8ff" stroke="#63b8ff" points="1117.55,-27.04 1124.65,-19.17 1114.19,-20.89 1117.55,-27.04"/>
</a>
</g>
</g>
<!-- Node27&#45;&gt;Node26 -->
<g id="edge43_Node000027_Node000026" class="edge">
<title>Node27&#45;&gt;Node26</title>
<g id="a_edge43_Node000027_Node000026"><a xlink:title=" ">
<path fill="none" stroke="#63b8ff" d="M1019.19,-60.37C1003.5,-50.91 978.1,-35.59 959.59,-24.42"/>
<polygon fill="#63b8ff" stroke="#63b8ff" points="961.24,-21.33 950.87,-19.17 957.63,-27.33 961.24,-21.33"/>
</a>
</g>
</g>
<!-- Node28 -->
<g id="Node000028" class="node">
<title>Node28</title>
<g id="a_Node000028"><a xlink:title=" ">
<polygon fill="#e0e0e0" stroke="#999999" points="1068,-19 999,-19 999,0 1068,0 1068,-19"/>
<text text-anchor="middle" x="1033.5" y="-7" font-family="Helvetica,sans-Serif" font-size="10.00">type_traits</text>
</a>
</g>
</g>
<!-- Node27&#45;&gt;Node28 -->
<g id="edge42_Node000027_Node000028" class="edge">
<title>Node27&#45;&gt;Node28</title>
<g id="a_edge42_Node000027_Node000028"><a xlink:title=" ">
<path fill="none" stroke="#63b8ff" d="M1033.5,-60.37C1033.5,-52.25 1033.5,-39.81 1033.5,-29.39"/>
<polygon fill="#63b8ff" stroke="#63b8ff" points="1037,-29.17 1033.5,-19.17 1030,-29.17 1037,-29.17"/>
</a>
</g>
</g>
<!-- Node29&#45;&gt;Node9 -->
<g id="edge47_Node000029_Node000009" class="edge">
<title>Node29&#45;&gt;Node9</title>
<g id="a_edge47_Node000029_Node000009"><a xlink:title=" ">
<path fill="none" stroke="#63b8ff" d="M721.03,-186.95C714.99,-176.42 707.59,-163.13 701.5,-151 679.79,-107.77 657.29,-55.44 645.97,-28.49"/>
<polygon fill="#63b8ff" stroke="#63b8ff" points="649.16,-27.05 642.08,-19.18 642.7,-29.75 649.16,-27.05"/>
</a>
</g>
</g>
<!-- Node29&#45;&gt;Node18 -->
<g id="edge49_Node000029_Node000018" class="edge">
<title>Node29&#45;&gt;Node18</title>
<g id="a_edge49_Node000029_Node000018"><a xlink:title=" ">
<path fill="none" stroke="#63b8ff" d="M677.66,-186.96C648.94,-176.72 614.07,-164.29 586.3,-154.39"/>
<polygon fill="#63b8ff" stroke="#63b8ff" points="587.39,-151.06 576.79,-151 585.04,-157.66 587.39,-151.06"/>
</a>
</g>
</g>
<!-- Node30 -->
<g id="Node000030" class="node">
<title>Node30</title>
<g id="a_Node000030"><a xlink:title=" ">
<polygon fill="#e0e0e0" stroke="#999999" points="755,-145.5 710,-145.5 710,-126.5 755,-126.5 755,-145.5"/>
<text text-anchor="middle" x="732.5" y="-133.5" font-family="Helvetica,sans-Serif" font-size="10.00">utility</text>
</a>
</g>
</g>
<!-- Node29&#45;&gt;Node30 -->
<g id="edge48_Node000029_Node000030" class="edge">
<title>Node29&#45;&gt;Node30</title>
<g id="a_edge48_Node000029_Node000030"><a xlink:title=" ">
<path fill="none" stroke="#63b8ff" d="M732.5,-186.77C732.5,-177.08 732.5,-165.46 732.5,-155.88"/>
<polygon fill="#63b8ff" stroke="#63b8ff" points="736,-155.82 732.5,-145.82 729,-155.82 736,-155.82"/>
</a>
</g>
</g>
<!-- Node31&#45;&gt;Node3 -->
<g id="edge53_Node000031_Node000003" class="edge">
<title>Node31&#45;&gt;Node3</title>
<g id="a_edge53_Node000031_Node000003"><a xlink:title=" ">
<path fill="none" stroke="#63b8ff" d="M1233.06,-263.95C1291.5,-235.9 1381.3,-180.97 1345.5,-121 1309.61,-60.88 1228.46,-31.53 1179.71,-18.84"/>
<polygon fill="#63b8ff" stroke="#63b8ff" points="1180.38,-15.39 1169.83,-16.37 1178.69,-22.19 1180.38,-15.39"/>
</a>
</g>
</g>
<!-- Node31&#45;&gt;Node9 -->
<g id="edge54_Node000031_Node000009" class="edge">
<title>Node31&#45;&gt;Node9</title>
<g id="a_edge54_Node000031_Node000009"><a xlink:title=" ">
<path fill="none" stroke="#63b8ff" d="M1121.75,-278.03C1037.81,-270.13 898.11,-253.59 853.5,-228 799.85,-197.22 807.66,-165.31 764.5,-121 728.9,-84.46 682.96,-46.14 657.55,-25.62"/>
<polygon fill="#63b8ff" stroke="#63b8ff" points="659.45,-22.66 649.46,-19.13 655.07,-28.12 659.45,-22.66"/>
</a>
</g>
</g>
<!-- Node31&#45;&gt;Node29 -->
<g id="edge55_Node000031_Node000029" class="edge">
<title>Node31&#45;&gt;Node29</title>
<g id="a_edge55_Node000031_Node000029"><a xlink:title=" ">
<path fill="none" stroke="#63b8ff" d="M1121.82,-275.64C1046.7,-266.23 920.21,-249.05 812.5,-228 811.05,-227.72 809.59,-227.43 808.12,-227.13"/>
<polygon fill="#63b8ff" stroke="#63b8ff" points="808.82,-223.7 798.32,-225.05 807.37,-230.55 808.82,-223.7"/>
</a>
</g>
</g>
<!-- Node31&#45;&gt;Node32 -->
<g id="edge52_Node000031_Node000032" class="edge">
<title>Node31&#45;&gt;Node32</title>
<g id="a_edge52_Node000031_Node000032"><a xlink:title=" ">
<path fill="none" stroke="#63b8ff" d="M1253.01,-267.61C1290.34,-257.77 1337.66,-243.99 1378.5,-228 1383.19,-226.16 1388.07,-223.97 1392.73,-221.72"/>
<polygon fill="#63b8ff" stroke="#63b8ff" points="1394.49,-224.75 1401.86,-217.13 1391.35,-218.5 1394.49,-224.75"/>
</a>
</g>
</g>
<!-- Node33 -->
<g id="Node000033" class="node">
<title>Node33</title>
<g id="a_Node000033"><a xlink:href="recordable_8h.html" target="_top" xlink:title=" ">
<polygon fill="white" stroke="#666666" points="1253,-222.5 1122,-222.5 1122,-192.5 1253,-192.5 1253,-222.5"/>
<text text-anchor="start" x="1130" y="-210.5" font-family="Helvetica,sans-Serif" font-size="10.00">mosaic/handlers/media</text>
<text text-anchor="middle" x="1187.5" y="-199.5" font-family="Helvetica,sans-Serif" font-size="10.00">_track/recordable.h</text>
</a>
</g>
</g>
<!-- Node31&#45;&gt;Node33 -->
<g id="edge56_Node000031_Node000033" class="edge">
<title>Node31&#45;&gt;Node33</title>
<g id="a_edge56_Node000031_Node000033"><a xlink:title=" ">
<path fill="none" stroke="#63b8ff" d="M1187.5,-263.79C1187.5,-254.36 1187.5,-242.97 1187.5,-232.99"/>
<polygon fill="#63b8ff" stroke="#63b8ff" points="1191,-232.86 1187.5,-222.86 1184,-232.86 1191,-232.86"/>
</a>
</g>
</g>
<!-- Node34 -->
<g id="Node000034" class="node">
<title>Node34</title>
<g id="a_Node000034"><a xlink:title=" ">
<polygon fill="#e0e0e0" stroke="#999999" points="1336,-145.5 1207,-145.5 1207,-126.5 1336,-126.5 1336,-145.5"/>
<text text-anchor="middle" x="1271.5" y="-133.5" font-family="Helvetica,sans-Serif" font-size="10.00">opencv_forward_decl.h</text>
</a>
</g>
</g>
<!-- Node31&#45;&gt;Node34 -->
<g id="edge60_Node000031_Node000034" class="edge">
<title>Node31&#45;&gt;Node34</title>
<g id="a_edge60_Node000031_Node000034"><a xlink:title=" ">
<path fill="none" stroke="#63b8ff" d="M1226.24,-263.79C1239.98,-254.79 1254.11,-242.79 1262.5,-228 1275.21,-205.61 1275.43,-175.07 1273.88,-155.69"/>
<polygon fill="#63b8ff" stroke="#63b8ff" points="1277.36,-155.3 1272.85,-145.71 1270.4,-156.02 1277.36,-155.3"/>
</a>
</g>
</g>
<!-- Node33&#45;&gt;Node3 -->
<g id="edge57_Node000033_Node000003" class="edge">
<title>Node33&#45;&gt;Node3</title>
<g id="a_edge57_Node000033_Node000003"><a xlink:title=" ">
<path fill="none" stroke="#63b8ff" d="M1184.83,-192.19C1179.7,-165.19 1167.77,-104.95 1154.5,-55 1152.21,-46.39 1149.31,-36.96 1146.74,-29.01"/>
<polygon fill="#63b8ff" stroke="#63b8ff" points="1149.99,-27.69 1143.53,-19.3 1143.34,-29.89 1149.99,-27.69"/>
</a>
</g>
</g>
<!-- Node33&#45;&gt;Node9 -->
<g id="edge58_Node000033_Node000009" class="edge">
<title>Node33&#45;&gt;Node9</title>
<g id="a_edge58_Node000033_Node000009"><a xlink:title=" ">
<path fill="none" stroke="#63b8ff" d="M1167.18,-192.38C1122.47,-162.05 1011.29,-90.55 907.5,-55 825.14,-26.79 722.28,-16.15 670.88,-12.39"/>
<polygon fill="#63b8ff" stroke="#63b8ff" points="670.94,-8.88 660.72,-11.69 670.46,-15.87 670.94,-8.88"/>
</a>
</g>
</g>
<!-- Node33&#45;&gt;Node34 -->
<g id="edge59_Node000033_Node000034" class="edge">
<title>Node33&#45;&gt;Node34</title>
<g id="a_edge59_Node000033_Node000034"><a xlink:title=" ">
<path fill="none" stroke="#63b8ff" d="M1204.5,-192.44C1218.6,-180.76 1238.63,-164.2 1253.11,-152.22"/>
<polygon fill="#63b8ff" stroke="#63b8ff" points="1255.43,-154.84 1260.9,-145.77 1250.97,-149.45 1255.43,-154.84"/>
</a>
</g>
</g>
</g>
</svg>
