<?xml version="1.0" encoding="UTF-8" standalone="no"?>
<!DOCTYPE svg PUBLIC "-//W3C//DTD SVG 1.1//EN"
 "http://www.w3.org/Graphics/SVG/1.1/DTD/svg11.dtd">
<!-- Generated by graphviz version 2.43.0 (0)
 -->
<!-- Title: include/mosaic/auto_configurer/impl/opencv_camera_mt_handler.h Pages: 1 -->
<svg width="1342pt" height="588pt"
 viewBox="0.00 0.00 1342.00 588.00" xmlns="http://www.w3.org/2000/svg" xmlns:xlink="http://www.w3.org/1999/xlink">
<g id="graph0" class="graph" transform="scale(1 1) rotate(0) translate(4 584)">
<title>include/mosaic/auto_configurer/impl/opencv_camera_mt_handler.h</title>
<!-- Node1 -->
<g id="Node000001" class="node">
<title>Node1</title>
<g id="a_Node000001"><a xlink:title=" ">
<polygon fill="#999999" stroke="#666666" points="469,-580 335,-580 335,-539 469,-539 469,-580"/>
<text text-anchor="start" x="343" y="-568" font-family="Helvetica,sans-Serif" font-size="10.00">include/mosaic/auto</text>
<text text-anchor="start" x="343" y="-557" font-family="Helvetica,sans-Serif" font-size="10.00">_configurer/impl/opencv</text>
<text text-anchor="middle" x="402" y="-546" font-family="Helvetica,sans-Serif" font-size="10.00">_camera_mt_handler.h</text>
</a>
</g>
</g>
<!-- Node2 -->
<g id="Node000002" class="node">
<title>Node2</title>
<g id="a_Node000002"><a xlink:title=" ">
<polygon fill="#e0e0e0" stroke="#999999" points="162,-19 104,-19 104,0 162,0 162,-19"/>
<text text-anchor="middle" x="133" y="-7" font-family="Helvetica,sans-Serif" font-size="10.00">memory</text>
</a>
</g>
</g>
<!-- Node1&#45;&gt;Node2 -->
<g id="edge1_Node000001_Node000002" class="edge">
<title>Node1&#45;&gt;Node2</title>
<g id="a_edge1_Node000001_Node000002"><a xlink:title=" ">
<path fill="none" stroke="#63b8ff" d="M334.71,-549.09C220.27,-531.17 0,-487.58 0,-417.5 0,-417.5 0,-417.5 0,-135 0,-79.6 62.26,-41.73 101.59,-23.33"/>
<polygon fill="#63b8ff" stroke="#63b8ff" points="103.36,-26.37 111.04,-19.08 100.48,-19.99 103.36,-26.37"/>
</a>
</g>
</g>
<!-- Node3 -->
<g id="Node000003" class="node">
<title>Node3</title>
<g id="a_Node000003"><a xlink:title=" ">
<polygon fill="#e0e0e0" stroke="#999999" points="537,-492 489,-492 489,-473 537,-473 537,-492"/>
<text text-anchor="middle" x="513" y="-480" font-family="Helvetica,sans-Serif" font-size="10.00">thread</text>
</a>
</g>
</g>
<!-- Node1&#45;&gt;Node3 -->
<g id="edge2_Node000001_Node000003" class="edge">
<title>Node1&#45;&gt;Node3</title>
<g id="a_edge2_Node000001_Node000003"><a xlink:title=" ">
<path fill="none" stroke="#63b8ff" d="M430.87,-538.99C450.02,-526.05 474.7,-509.38 491.99,-497.69"/>
<polygon fill="#63b8ff" stroke="#63b8ff" points="493.96,-500.59 500.29,-492.09 490.04,-494.79 493.96,-500.59"/>
</a>
</g>
</g>
<!-- Node4 -->
<g id="Node000004" class="node">
<title>Node4</title>
<g id="a_Node000004"><a xlink:title=" ">
<polygon fill="#e0e0e0" stroke="#999999" points="673,-492 555,-492 555,-473 673,-473 673,-492"/>
<text text-anchor="middle" x="614" y="-480" font-family="Helvetica,sans-Serif" font-size="10.00">opencv2/videoio.hpp</text>
</a>
</g>
</g>
<!-- Node1&#45;&gt;Node4 -->
<g id="edge3_Node000001_Node000004" class="edge">
<title>Node1&#45;&gt;Node4</title>
<g id="a_edge3_Node000001_Node000004"><a xlink:title=" ">
<path fill="none" stroke="#63b8ff" d="M457.15,-538.99C496.06,-525.22 546.96,-507.22 580.06,-495.51"/>
<polygon fill="#63b8ff" stroke="#63b8ff" points="581.46,-498.72 589.72,-492.09 579.13,-492.12 581.46,-498.72"/>
</a>
</g>
</g>
<!-- Node5 -->
<g id="Node000005" class="node">
<title>Node5</title>
<g id="a_Node000005"><a xlink:href="a__mt__handler__configurer_8h.html" target="_top" xlink:title=" ">
<polygon fill="white" stroke="#666666" points="470.5,-503 333.5,-503 333.5,-462 470.5,-462 470.5,-503"/>
<text text-anchor="start" x="341.5" y="-491" font-family="Helvetica,sans-Serif" font-size="10.00">mosaic/auto_configurer</text>
<text text-anchor="start" x="341.5" y="-480" font-family="Helvetica,sans-Serif" font-size="10.00">/connector/a_mt_handler</text>
<text text-anchor="middle" x="402" y="-469" font-family="Helvetica,sans-Serif" font-size="10.00">_configurer.h</text>
</a>
</g>
</g>
<!-- Node1&#45;&gt;Node5 -->
<g id="edge4_Node000001_Node000005" class="edge">
<title>Node1&#45;&gt;Node5</title>
<g id="a_edge4_Node000001_Node000005"><a xlink:title=" ">
<path fill="none" stroke="#63b8ff" d="M402,-538.79C402,-530.96 402,-521.77 402,-513.16"/>
<polygon fill="#63b8ff" stroke="#63b8ff" points="405.5,-513.07 402,-503.07 398.5,-513.07 405.5,-513.07"/>
</a>
</g>
</g>
<!-- Node30 -->
<g id="Node000030" class="node">
<title>Node30</title>
<g id="a_Node000030"><a xlink:href="a__media__track__handler_8h.html" target="_top" xlink:title=" ">
<polygon fill="white" stroke="#666666" points="370.5,-305 239.5,-305 239.5,-264 370.5,-264 370.5,-305"/>
<text text-anchor="start" x="247.5" y="-293" font-family="Helvetica,sans-Serif" font-size="10.00">mosaic/handlers/media</text>
<text text-anchor="start" x="247.5" y="-282" font-family="Helvetica,sans-Serif" font-size="10.00">_track/a_media_track</text>
<text text-anchor="middle" x="305" y="-271" font-family="Helvetica,sans-Serif" font-size="10.00">_handler.h</text>
</a>
</g>
</g>
<!-- Node1&#45;&gt;Node30 -->
<g id="edge50_Node000001_Node000030" class="edge">
<title>Node1&#45;&gt;Node30</title>
<g id="a_edge50_Node000001_Node000030"><a xlink:title=" ">
<path fill="none" stroke="#63b8ff" d="M361.24,-538.9C347.07,-529.97 332.58,-518 324,-503 289.91,-443.43 294.54,-359.32 300.17,-315.18"/>
<polygon fill="#63b8ff" stroke="#63b8ff" points="303.66,-315.5 301.56,-305.12 296.72,-314.54 303.66,-315.5"/>
</a>
</g>
</g>
<!-- Node6 -->
<g id="Node000006" class="node">
<title>Node6</title>
<g id="a_Node000006"><a xlink:href="i__configurable__connector_8h.html" target="_top" xlink:title=" ">
<polygon fill="white" stroke="#666666" points="969,-426 823,-426 823,-407 969,-407 969,-426"/>
<text text-anchor="middle" x="896" y="-414" font-family="Helvetica,sans-Serif" font-size="10.00">i_configurable_connector.h</text>
</a>
</g>
</g>
<!-- Node5&#45;&gt;Node6 -->
<g id="edge5_Node000005_Node000006" class="edge">
<title>Node5&#45;&gt;Node6</title>
<g id="a_edge5_Node000005_Node000006"><a xlink:title=" ">
<path fill="none" stroke="#63b8ff" d="M470.79,-463.75C473.9,-463.13 476.98,-462.54 480,-462 594.42,-441.68 728.31,-429.38 812.64,-423.01"/>
<polygon fill="#63b8ff" stroke="#63b8ff" points="812.96,-426.49 822.68,-422.26 812.44,-419.51 812.96,-426.49"/>
</a>
</g>
</g>
<!-- Node7 -->
<g id="Node000007" class="node">
<title>Node7</title>
<g id="a_Node000007"><a xlink:href="configs__decl_8h.html" target="_top" xlink:title=" ">
<polygon fill="white" stroke="#666666" points="1268,-79.5 1144,-79.5 1144,-60.5 1268,-60.5 1268,-79.5"/>
<text text-anchor="middle" x="1206" y="-67.5" font-family="Helvetica,sans-Serif" font-size="10.00">mosaic/configs_decl.h</text>
</a>
</g>
</g>
<!-- Node6&#45;&gt;Node7 -->
<g id="edge6_Node000006_Node000007" class="edge">
<title>Node6&#45;&gt;Node7</title>
<g id="a_edge6_Node000006_Node000007"><a xlink:title=" ">
<path fill="none" stroke="#63b8ff" d="M969.31,-408.96C1094,-395.78 1334,-360.66 1334,-285.5 1334,-285.5 1334,-285.5 1334,-206.5 1334,-148.18 1270.56,-104.82 1233,-84.26"/>
<polygon fill="#63b8ff" stroke="#63b8ff" points="1234.54,-81.11 1224.07,-79.53 1231.27,-87.3 1234.54,-81.11"/>
</a>
</g>
</g>
<!-- Node11 -->
<g id="Node000011" class="node">
<title>Node11</title>
<g id="a_Node000011"><a xlink:href="mosaic__connector_8h.html" target="_top" xlink:title=" ">
<polygon fill="white" stroke="#666666" points="953,-371 839,-371 839,-341 953,-341 953,-371"/>
<text text-anchor="start" x="847" y="-359" font-family="Helvetica,sans-Serif" font-size="10.00">mosaic/core/mosaic</text>
<text text-anchor="middle" x="896" y="-348" font-family="Helvetica,sans-Serif" font-size="10.00">_connector.h</text>
</a>
</g>
</g>
<!-- Node6&#45;&gt;Node11 -->
<g id="edge10_Node000006_Node000011" class="edge">
<title>Node6&#45;&gt;Node11</title>
<g id="a_edge10_Node000006_Node000011"><a xlink:title=" ">
<path fill="none" stroke="#63b8ff" d="M896,-406.87C896,-400.11 896,-390.35 896,-381.26"/>
<polygon fill="#63b8ff" stroke="#63b8ff" points="899.5,-381.11 896,-371.11 892.5,-381.11 899.5,-381.11"/>
</a>
</g>
</g>
<!-- Node8 -->
<g id="Node000008" class="node">
<title>Node8</title>
<g id="a_Node000008"><a xlink:title=" ">
<polygon fill="#e0e0e0" stroke="#999999" points="702,-19 658,-19 658,0 702,0 702,-19"/>
<text text-anchor="middle" x="680" y="-7" font-family="Helvetica,sans-Serif" font-size="10.00">string</text>
</a>
</g>
</g>
<!-- Node7&#45;&gt;Node8 -->
<g id="edge7_Node000007_Node000008" class="edge">
<title>Node7&#45;&gt;Node8</title>
<g id="a_edge7_Node000007_Node000008"><a xlink:title=" ">
<path fill="none" stroke="#63b8ff" d="M1163.1,-60.45C1152.32,-58.48 1140.76,-56.52 1130,-55 974.04,-32.96 786.14,-18.14 712.16,-12.75"/>
<polygon fill="#63b8ff" stroke="#63b8ff" points="712.31,-9.25 702.09,-12.03 711.81,-16.24 712.31,-9.25"/>
</a>
</g>
</g>
<!-- Node9 -->
<g id="Node000009" class="node">
<title>Node9</title>
<g id="a_Node000009"><a xlink:title=" ">
<polygon fill="#e0e0e0" stroke="#999999" points="1252.5,-19 1159.5,-19 1159.5,0 1252.5,0 1252.5,-19"/>
<text text-anchor="middle" x="1206" y="-7" font-family="Helvetica,sans-Serif" font-size="10.00">unordered_map</text>
</a>
</g>
</g>
<!-- Node7&#45;&gt;Node9 -->
<g id="edge8_Node000007_Node000009" class="edge">
<title>Node7&#45;&gt;Node9</title>
<g id="a_edge8_Node000007_Node000009"><a xlink:title=" ">
<path fill="none" stroke="#63b8ff" d="M1206,-60.37C1206,-52.25 1206,-39.81 1206,-29.39"/>
<polygon fill="#63b8ff" stroke="#63b8ff" points="1209.5,-29.17 1206,-19.17 1202.5,-29.17 1209.5,-29.17"/>
</a>
</g>
</g>
<!-- Node10 -->
<g id="Node000010" class="node">
<title>Node10</title>
<g id="a_Node000010"><a xlink:title=" ">
<polygon fill="#e0e0e0" stroke="#999999" points="1318.5,-19 1271.5,-19 1271.5,0 1318.5,0 1318.5,-19"/>
<text text-anchor="middle" x="1295" y="-7" font-family="Helvetica,sans-Serif" font-size="10.00">vector</text>
</a>
</g>
</g>
<!-- Node7&#45;&gt;Node10 -->
<g id="edge9_Node000007_Node000010" class="edge">
<title>Node7&#45;&gt;Node10</title>
<g id="a_edge9_Node000007_Node000010"><a xlink:title=" ">
<path fill="none" stroke="#63b8ff" d="M1219.13,-60.37C1233.33,-51.04 1256.2,-36.01 1273.12,-24.88"/>
<polygon fill="#63b8ff" stroke="#63b8ff" points="1275.38,-27.58 1281.81,-19.17 1271.53,-21.74 1275.38,-27.58"/>
</a>
</g>
</g>
<!-- Node11&#45;&gt;Node2 -->
<g id="edge12_Node000011_Node000002" class="edge">
<title>Node11&#45;&gt;Node2</title>
<g id="a_edge12_Node000011_Node000002"><a xlink:title=" ">
<path fill="none" stroke="#63b8ff" d="M838.85,-353.51C699.26,-349.41 344.09,-336.17 230,-305 137.87,-279.83 38,-304.01 38,-208.5 38,-208.5 38,-208.5 38,-135 38,-86.91 83.34,-45.85 111.38,-25.05"/>
<polygon fill="#63b8ff" stroke="#63b8ff" points="113.7,-27.7 119.79,-19.03 109.62,-22 113.7,-27.7"/>
</a>
</g>
</g>
<!-- Node11&#45;&gt;Node8 -->
<g id="edge13_Node000011_Node000008" class="edge">
<title>Node11&#45;&gt;Node8</title>
<g id="a_edge13_Node000011_Node000008"><a xlink:title=" ">
<path fill="none" stroke="#63b8ff" d="M949.14,-340.94C973.64,-332.87 1002.26,-321.1 1025,-305 1061.79,-278.96 1074.48,-269.94 1091,-228 1119.2,-156.42 1148.43,-112.21 1097,-55 1071.37,-26.49 805.62,-14.77 712.23,-11.51"/>
<polygon fill="#63b8ff" stroke="#63b8ff" points="712.34,-8.01 702.23,-11.17 712.1,-15.01 712.34,-8.01"/>
</a>
</g>
</g>
<!-- Node12 -->
<g id="Node000012" class="node">
<title>Node12</title>
<g id="a_Node000012"><a xlink:title=" ">
<polygon fill="#e0e0e0" stroke="#999999" points="1016,-294 978,-294 978,-275 1016,-275 1016,-294"/>
<text text-anchor="middle" x="997" y="-282" font-family="Helvetica,sans-Serif" font-size="10.00">map</text>
</a>
</g>
</g>
<!-- Node11&#45;&gt;Node12 -->
<g id="edge11_Node000011_Node000012" class="edge">
<title>Node11&#45;&gt;Node12</title>
<g id="a_edge11_Node000011_Node000012"><a xlink:title=" ">
<path fill="none" stroke="#63b8ff" d="M916.8,-340.82C931.42,-330.83 951.43,-317.13 969,-305 971.42,-303.33 973.96,-301.57 976.47,-299.82"/>
<polygon fill="#63b8ff" stroke="#63b8ff" points="978.54,-302.65 984.75,-294.06 974.54,-296.9 978.54,-302.65"/>
</a>
</g>
</g>
<!-- Node13 -->
<g id="Node000013" class="node">
<title>Node13</title>
<g id="a_Node000013"><a xlink:href="connector__state__manager_8h.html" target="_top" xlink:title=" ">
<polygon fill="white" stroke="#666666" points="959.5,-299.5 832.5,-299.5 832.5,-269.5 959.5,-269.5 959.5,-299.5"/>
<text text-anchor="start" x="840.5" y="-287.5" font-family="Helvetica,sans-Serif" font-size="10.00">mosaic/core/connector</text>
<text text-anchor="middle" x="896" y="-276.5" font-family="Helvetica,sans-Serif" font-size="10.00">_state_manager.h</text>
</a>
</g>
</g>
<!-- Node11&#45;&gt;Node13 -->
<g id="edge14_Node000011_Node000013" class="edge">
<title>Node11&#45;&gt;Node13</title>
<g id="a_edge14_Node000011_Node000013"><a xlink:title=" ">
<path fill="none" stroke="#63b8ff" d="M896,-340.94C896,-331.99 896,-320.16 896,-309.73"/>
<polygon fill="#63b8ff" stroke="#63b8ff" points="899.5,-309.54 896,-299.54 892.5,-309.54 899.5,-309.54"/>
</a>
</g>
</g>
<!-- Node17 -->
<g id="Node000017" class="node">
<title>Node17</title>
<g id="a_Node000017"><a xlink:title=" ">
<polygon fill="#e0e0e0" stroke="#999999" points="854,-151 708,-151 708,-121 854,-121 854,-151"/>
<text text-anchor="start" x="716" y="-139" font-family="Helvetica,sans-Serif" font-size="10.00">mosaic/rtc/webrtc_forward</text>
<text text-anchor="middle" x="781" y="-128" font-family="Helvetica,sans-Serif" font-size="10.00">_decl.h</text>
</a>
</g>
</g>
<!-- Node11&#45;&gt;Node17 -->
<g id="edge49_Node000011_Node000017" class="edge">
<title>Node11&#45;&gt;Node17</title>
<g id="a_edge49_Node000011_Node000017"><a xlink:title=" ">
<path fill="none" stroke="#63b8ff" d="M866.54,-340.98C851.72,-332.52 834.68,-320.37 824,-305 793.31,-260.82 784.51,-196.48 782,-161.64"/>
<polygon fill="#63b8ff" stroke="#63b8ff" points="785.48,-161.2 781.38,-151.42 778.49,-161.62 785.48,-161.2"/>
</a>
</g>
</g>
<!-- Node20 -->
<g id="Node000020" class="node">
<title>Node20</title>
<g id="a_Node000020"><a xlink:href="peer__connection__manager_8h.html" target="_top" xlink:title=" ">
<polygon fill="white" stroke="#666666" points="1292.5,-299.5 1133.5,-299.5 1133.5,-269.5 1292.5,-269.5 1292.5,-299.5"/>
<text text-anchor="start" x="1141.5" y="-287.5" font-family="Helvetica,sans-Serif" font-size="10.00">mosaic/core/peer_connection</text>
<text text-anchor="middle" x="1213" y="-276.5" font-family="Helvetica,sans-Serif" font-size="10.00">_manager.h</text>
</a>
</g>
</g>
<!-- Node11&#45;&gt;Node20 -->
<g id="edge27_Node000011_Node000020" class="edge">
<title>Node11&#45;&gt;Node20</title>
<g id="a_edge27_Node000011_Node000020"><a xlink:title=" ">
<path fill="none" stroke="#63b8ff" d="M953.13,-341.27C1003.57,-329.87 1077.53,-313.63 1133.69,-301.62"/>
<polygon fill="#63b8ff" stroke="#63b8ff" points="1134.55,-305.01 1143.6,-299.5 1133.09,-298.17 1134.55,-305.01"/>
</a>
</g>
</g>
<!-- Node21 -->
<g id="Node000021" class="node">
<title>Node21</title>
<g id="a_Node000021"><a xlink:href="i__data__channel__handler_8h.html" target="_top" xlink:title=" ">
<polygon fill="white" stroke="#666666" points="669.5,-305 532.5,-305 532.5,-264 669.5,-264 669.5,-305"/>
<text text-anchor="start" x="540.5" y="-293" font-family="Helvetica,sans-Serif" font-size="10.00">mosaic/handlers/data</text>
<text text-anchor="start" x="540.5" y="-282" font-family="Helvetica,sans-Serif" font-size="10.00">_channel/i_data_channel</text>
<text text-anchor="middle" x="601" y="-271" font-family="Helvetica,sans-Serif" font-size="10.00">_handler.h</text>
</a>
</g>
</g>
<!-- Node11&#45;&gt;Node21 -->
<g id="edge32_Node000011_Node000021" class="edge">
<title>Node11&#45;&gt;Node21</title>
<g id="a_edge32_Node000011_Node000021"><a xlink:title=" ">
<path fill="none" stroke="#63b8ff" d="M838.77,-341.52C793.45,-330.84 729.66,-315.81 679.56,-304.01"/>
<polygon fill="#63b8ff" stroke="#63b8ff" points="680.27,-300.58 669.73,-301.69 678.67,-307.39 680.27,-300.58"/>
</a>
</g>
</g>
<!-- Node28 -->
<g id="Node000028" class="node">
<title>Node28</title>
<g id="a_Node000028"><a xlink:href="i__media__track__handler_8h.html" target="_top" xlink:title=" ">
<polygon fill="white" stroke="#666666" points="737.5,-228 606.5,-228 606.5,-187 737.5,-187 737.5,-228"/>
<text text-anchor="start" x="614.5" y="-216" font-family="Helvetica,sans-Serif" font-size="10.00">mosaic/handlers/media</text>
<text text-anchor="start" x="614.5" y="-205" font-family="Helvetica,sans-Serif" font-size="10.00">_track/i_media_track</text>
<text text-anchor="middle" x="672" y="-194" font-family="Helvetica,sans-Serif" font-size="10.00">_handler.h</text>
</a>
</g>
</g>
<!-- Node11&#45;&gt;Node28 -->
<g id="edge45_Node000011_Node000028" class="edge">
<title>Node11&#45;&gt;Node28</title>
<g id="a_edge45_Node000011_Node000028"><a xlink:title=" ">
<path fill="none" stroke="#63b8ff" d="M860.5,-340.85C839.35,-331.79 812.37,-319.12 790,-305 757.37,-284.4 723.63,-255.96 700.63,-235.3"/>
<polygon fill="#63b8ff" stroke="#63b8ff" points="702.72,-232.47 692.96,-228.34 698.01,-237.65 702.72,-232.47"/>
</a>
</g>
</g>
<!-- Node13&#45;&gt;Node2 -->
<g id="edge15_Node000013_Node000002" class="edge">
<title>Node13&#45;&gt;Node2</title>
<g id="a_edge15_Node000013_Node000002"><a xlink:title=" ">
<path fill="none" stroke="#63b8ff" d="M832.33,-277.78C700.71,-265.77 409.3,-238.24 390,-228 334.85,-198.75 349.69,-157.44 299,-121 264.02,-95.85 245.08,-108.54 209,-85 184.22,-68.84 160.71,-43.76 146.58,-27.23"/>
<polygon fill="#63b8ff" stroke="#63b8ff" points="149.18,-24.89 140.08,-19.46 143.81,-29.38 149.18,-24.89"/>
</a>
</g>
</g>
<!-- Node13&#45;&gt;Node8 -->
<g id="edge17_Node000013_Node000008" class="edge">
<title>Node13&#45;&gt;Node8</title>
<g id="a_edge17_Node000013_Node000008"><a xlink:title=" ">
<path fill="none" stroke="#63b8ff" d="M906.82,-269.2C919.83,-250.15 938.57,-215.54 927,-187 919.33,-168.07 878.99,-133.72 863,-121 811.41,-79.96 743.31,-42.67 706.45,-23.69"/>
<polygon fill="#63b8ff" stroke="#63b8ff" points="707.85,-20.47 697.35,-19.05 704.67,-26.71 707.85,-20.47"/>
</a>
</g>
</g>
<!-- Node14 -->
<g id="Node000014" class="node">
<title>Node14</title>
<g id="a_Node000014"><a xlink:title=" ">
<polygon fill="#e0e0e0" stroke="#999999" points="918,-217 832,-217 832,-198 918,-198 918,-217"/>
<text text-anchor="middle" x="875" y="-205" font-family="Helvetica,sans-Serif" font-size="10.00">shared_mutex</text>
</a>
</g>
</g>
<!-- Node13&#45;&gt;Node14 -->
<g id="edge16_Node000013_Node000014" class="edge">
<title>Node13&#45;&gt;Node14</title>
<g id="a_edge16_Node000013_Node000014"><a xlink:title=" ">
<path fill="none" stroke="#63b8ff" d="M892.05,-269.39C888.71,-257.46 883.89,-240.26 880.23,-227.18"/>
<polygon fill="#63b8ff" stroke="#63b8ff" points="883.55,-226.06 877.48,-217.37 876.81,-227.95 883.55,-226.06"/>
</a>
</g>
</g>
<!-- Node15 -->
<g id="Node000015" class="node">
<title>Node15</title>
<g id="a_Node000015"><a xlink:href="i__signaling__client_8h.html" target="_top" xlink:title=" ">
<polygon fill="white" stroke="#666666" points="1081.5,-222.5 974.5,-222.5 974.5,-192.5 1081.5,-192.5 1081.5,-222.5"/>
<text text-anchor="start" x="982.5" y="-210.5" font-family="Helvetica,sans-Serif" font-size="10.00">mosaic/signaling/i</text>
<text text-anchor="middle" x="1028" y="-199.5" font-family="Helvetica,sans-Serif" font-size="10.00">_signaling_client.h</text>
</a>
</g>
</g>
<!-- Node13&#45;&gt;Node15 -->
<g id="edge18_Node000013_Node000015" class="edge">
<title>Node13&#45;&gt;Node15</title>
<g id="a_edge18_Node000013_Node000015"><a xlink:title=" ">
<path fill="none" stroke="#63b8ff" d="M920.83,-269.39C941.66,-257.56 971.61,-240.54 994.55,-227.5"/>
<polygon fill="#63b8ff" stroke="#63b8ff" points="996.32,-230.53 1003.28,-222.54 992.86,-224.44 996.32,-230.53"/>
</a>
</g>
</g>
<!-- Node16 -->
<g id="Node000016" class="node">
<title>Node16</title>
<g id="a_Node000016"><a xlink:title=" ">
<polygon fill="#e0e0e0" stroke="#999999" points="1088,-85 970,-85 970,-55 1088,-55 1088,-85"/>
<text text-anchor="start" x="978" y="-73" font-family="Helvetica,sans-Serif" font-size="10.00">mosaic/json_forward</text>
<text text-anchor="middle" x="1029" y="-62" font-family="Helvetica,sans-Serif" font-size="10.00">_decl.h</text>
</a>
</g>
</g>
<!-- Node15&#45;&gt;Node16 -->
<g id="edge19_Node000015_Node000016" class="edge">
<title>Node15&#45;&gt;Node16</title>
<g id="a_edge19_Node000015_Node000016"><a xlink:title=" ">
<path fill="none" stroke="#63b8ff" d="M1038.62,-192.31C1045.95,-181.58 1055.05,-166.17 1059,-151 1062.36,-138.1 1062.56,-133.85 1059,-121 1056.37,-111.5 1051.4,-102 1046.25,-93.86"/>
<polygon fill="#63b8ff" stroke="#63b8ff" points="1048.98,-91.65 1040.48,-85.34 1043.19,-95.58 1048.98,-91.65"/>
</a>
</g>
</g>
<!-- Node15&#45;&gt;Node17 -->
<g id="edge20_Node000015_Node000017" class="edge">
<title>Node15&#45;&gt;Node17</title>
<g id="a_edge20_Node000015_Node000017"><a xlink:title=" ">
<path fill="none" stroke="#63b8ff" d="M978.02,-192.44C938.34,-181.27 882.76,-165.63 840.74,-153.81"/>
<polygon fill="#63b8ff" stroke="#63b8ff" points="841.48,-150.38 830.91,-151.04 839.59,-157.12 841.48,-150.38"/>
</a>
</g>
</g>
<!-- Node18 -->
<g id="Node000018" class="node">
<title>Node18</title>
<g id="a_Node000018"><a xlink:href="i__mosaic__authenticator_8h.html" target="_top" xlink:title=" ">
<polygon fill="white" stroke="#666666" points="1050,-151 910,-151 910,-121 1050,-121 1050,-151"/>
<text text-anchor="start" x="918" y="-139" font-family="Helvetica,sans-Serif" font-size="10.00">mosaic/security/i_mosaic</text>
<text text-anchor="middle" x="980" y="-128" font-family="Helvetica,sans-Serif" font-size="10.00">_authenticator.h</text>
</a>
</g>
</g>
<!-- Node15&#45;&gt;Node18 -->
<g id="edge21_Node000015_Node000018" class="edge">
<title>Node15&#45;&gt;Node18</title>
<g id="a_edge21_Node000015_Node000018"><a xlink:title=" ">
<path fill="none" stroke="#63b8ff" d="M1018.29,-192.44C1011.78,-183.02 1003.07,-170.41 995.6,-159.59"/>
<polygon fill="#63b8ff" stroke="#63b8ff" points="998.26,-157.28 989.7,-151.04 992.5,-161.26 998.26,-157.28"/>
</a>
</g>
</g>
<!-- Node18&#45;&gt;Node2 -->
<g id="edge22_Node000018_Node000002" class="edge">
<title>Node18&#45;&gt;Node2</title>
<g id="a_edge22_Node000018_Node000002"><a xlink:title=" ">
<path fill="none" stroke="#63b8ff" d="M909.78,-124.38C807.39,-108.93 611.11,-79.43 444,-55 346.25,-40.71 231.14,-24.37 172.16,-16.03"/>
<polygon fill="#63b8ff" stroke="#63b8ff" points="172.56,-12.55 162.16,-14.61 171.58,-19.48 172.56,-12.55"/>
</a>
</g>
</g>
<!-- Node18&#45;&gt;Node7 -->
<g id="edge25_Node000018_Node000007" class="edge">
<title>Node18&#45;&gt;Node7</title>
<g id="a_edge25_Node000018_Node000007"><a xlink:title=" ">
<path fill="none" stroke="#63b8ff" d="M1029.6,-120.95C1070.63,-109.34 1128.15,-93.05 1166.21,-82.27"/>
<polygon fill="#63b8ff" stroke="#63b8ff" points="1167.26,-85.61 1175.92,-79.52 1165.35,-78.87 1167.26,-85.61"/>
</a>
</g>
</g>
<!-- Node18&#45;&gt;Node16 -->
<g id="edge26_Node000018_Node000016" class="edge">
<title>Node18&#45;&gt;Node16</title>
<g id="a_edge26_Node000018_Node000016"><a xlink:title=" ">
<path fill="none" stroke="#63b8ff" d="M990.87,-120.8C997.09,-112.68 1005.02,-102.31 1012.04,-93.15"/>
<polygon fill="#63b8ff" stroke="#63b8ff" points="1014.86,-95.23 1018.16,-85.16 1009.3,-90.98 1014.86,-95.23"/>
</a>
</g>
</g>
<!-- Node19 -->
<g id="Node000019" class="node">
<title>Node19</title>
<g id="a_Node000019"><a xlink:href="auth__type_8h.html" target="_top" xlink:title=" ">
<polygon fill="white" stroke="#666666" points="952,-79.5 878,-79.5 878,-60.5 952,-60.5 952,-79.5"/>
<text text-anchor="middle" x="915" y="-67.5" font-family="Helvetica,sans-Serif" font-size="10.00">auth_type.h</text>
</a>
</g>
</g>
<!-- Node18&#45;&gt;Node19 -->
<g id="edge23_Node000018_Node000019" class="edge">
<title>Node18&#45;&gt;Node19</title>
<g id="a_edge23_Node000018_Node000019"><a xlink:title=" ">
<path fill="none" stroke="#63b8ff" d="M965.57,-120.8C955.44,-110.82 941.87,-97.46 931.34,-87.09"/>
<polygon fill="#63b8ff" stroke="#63b8ff" points="933.56,-84.37 923.98,-79.84 928.65,-89.35 933.56,-84.37"/>
</a>
</g>
</g>
<!-- Node19&#45;&gt;Node8 -->
<g id="edge24_Node000019_Node000008" class="edge">
<title>Node19&#45;&gt;Node8</title>
<g id="a_edge24_Node000019_Node000008"><a xlink:title=" ">
<path fill="none" stroke="#63b8ff" d="M884.57,-60.48C877.81,-58.64 870.67,-56.72 864,-55 811,-41.32 749.08,-26.6 712.28,-17.99"/>
<polygon fill="#63b8ff" stroke="#63b8ff" points="712.68,-14.49 702.15,-15.62 711.09,-21.31 712.68,-14.49"/>
</a>
</g>
</g>
<!-- Node20&#45;&gt;Node7 -->
<g id="edge29_Node000020_Node000007" class="edge">
<title>Node20&#45;&gt;Node7</title>
<g id="a_edge29_Node000020_Node000007"><a xlink:title=" ">
<path fill="none" stroke="#63b8ff" d="M1212.53,-269.23C1211.3,-231.97 1208,-131.77 1206.62,-89.85"/>
<polygon fill="#63b8ff" stroke="#63b8ff" points="1210.11,-89.55 1206.29,-79.67 1203.12,-89.78 1210.11,-89.55"/>
</a>
</g>
</g>
<!-- Node20&#45;&gt;Node10 -->
<g id="edge28_Node000020_Node000010" class="edge">
<title>Node20&#45;&gt;Node10</title>
<g id="a_edge28_Node000020_Node000010"><a xlink:title=" ">
<path fill="none" stroke="#63b8ff" d="M1218.03,-269.17C1229.35,-236.65 1257.37,-154.71 1277,-85 1282.29,-66.22 1287.42,-44.51 1290.85,-29.39"/>
<polygon fill="#63b8ff" stroke="#63b8ff" points="1294.34,-29.79 1293.1,-19.27 1287.51,-28.27 1294.34,-29.79"/>
</a>
</g>
</g>
<!-- Node20&#45;&gt;Node11 -->
<g id="edge30_Node000020_Node000011" class="edge">
<title>Node20&#45;&gt;Node11</title>
<g id="a_edge30_Node000020_Node000011"><a xlink:title=" ">
<path fill="none" stroke="#63b8ff" d="M1154.48,-299.55C1100.29,-311.78 1019.86,-329.41 963.1,-341.49"/>
<polygon fill="#63b8ff" stroke="#63b8ff" points="962.2,-338.1 953.14,-343.6 963.65,-344.95 962.2,-338.1"/>
</a>
</g>
</g>
<!-- Node20&#45;&gt;Node15 -->
<g id="edge31_Node000020_Node000015" class="edge">
<title>Node20&#45;&gt;Node15</title>
<g id="a_edge31_Node000020_Node000015"><a xlink:title=" ">
<path fill="none" stroke="#63b8ff" d="M1178.2,-269.39C1148.1,-257.19 1104.42,-239.48 1071.92,-226.3"/>
<polygon fill="#63b8ff" stroke="#63b8ff" points="1073.22,-223.06 1062.64,-222.54 1070.59,-229.54 1073.22,-223.06"/>
</a>
</g>
</g>
<!-- Node21&#45;&gt;Node8 -->
<g id="edge33_Node000021_Node000008" class="edge">
<title>Node21&#45;&gt;Node8</title>
<g id="a_edge33_Node000021_Node000008"><a xlink:title=" ">
<path fill="none" stroke="#63b8ff" d="M596.56,-263.87C590.39,-232.68 581.71,-170.3 598,-121 610.84,-82.15 643.2,-45.83 663.22,-26.04"/>
<polygon fill="#63b8ff" stroke="#63b8ff" points="665.68,-28.52 670.46,-19.06 660.83,-23.48 665.68,-28.52"/>
</a>
</g>
</g>
<!-- Node21&#45;&gt;Node17 -->
<g id="edge44_Node000021_Node000017" class="edge">
<title>Node21&#45;&gt;Node17</title>
<g id="a_edge44_Node000021_Node000017"><a xlink:title=" ">
<path fill="none" stroke="#63b8ff" d="M669.52,-270.35C696.6,-262.13 726.16,-248.96 747,-228 764.94,-209.96 773.55,-181.57 777.59,-161.3"/>
<polygon fill="#63b8ff" stroke="#63b8ff" points="781.07,-161.72 779.35,-151.27 774.17,-160.51 781.07,-161.72"/>
</a>
</g>
</g>
<!-- Node22 -->
<g id="Node000022" class="node">
<title>Node22</title>
<g id="a_Node000022"><a xlink:href="log_8h.html" target="_top" xlink:title=" ">
<polygon fill="white" stroke="#666666" points="511.5,-217 398.5,-217 398.5,-198 511.5,-198 511.5,-217"/>
<text text-anchor="middle" x="455" y="-205" font-family="Helvetica,sans-Serif" font-size="10.00">mosaic/logger/log.h</text>
</a>
</g>
</g>
<!-- Node21&#45;&gt;Node22 -->
<g id="edge34_Node000021_Node000022" class="edge">
<title>Node21&#45;&gt;Node22</title>
<g id="a_edge34_Node000021_Node000022"><a xlink:title=" ">
<path fill="none" stroke="#63b8ff" d="M563.02,-263.99C537.15,-250.7 503.58,-233.45 480.78,-221.74"/>
<polygon fill="#63b8ff" stroke="#63b8ff" points="482.21,-218.54 471.72,-217.09 479.01,-224.77 482.21,-218.54"/>
</a>
</g>
</g>
<!-- Node23 -->
<g id="Node000023" class="node">
<title>Node23</title>
<g id="a_Node000023"><a xlink:href="i__logger_8h.html" target="_top" xlink:title=" ">
<polygon fill="white" stroke="#666666" points="449,-145.5 385,-145.5 385,-126.5 449,-126.5 449,-145.5"/>
<text text-anchor="middle" x="417" y="-133.5" font-family="Helvetica,sans-Serif" font-size="10.00">i_logger.h</text>
</a>
</g>
</g>
<!-- Node22&#45;&gt;Node23 -->
<g id="edge35_Node000022_Node000023" class="edge">
<title>Node22&#45;&gt;Node23</title>
<g id="a_edge35_Node000022_Node000023"><a xlink:title=" ">
<path fill="none" stroke="#63b8ff" d="M450.34,-197.98C444.47,-187.24 434.24,-168.53 426.65,-154.66"/>
<polygon fill="#63b8ff" stroke="#63b8ff" points="429.57,-152.69 421.7,-145.59 423.42,-156.05 429.57,-152.69"/>
</a>
</g>
</g>
<!-- Node26 -->
<g id="Node000026" class="node">
<title>Node26</title>
<g id="a_Node000026"><a xlink:href="log__service_8h.html" target="_top" xlink:title=" ">
<polygon fill="white" stroke="#666666" points="299.5,-79.5 218.5,-79.5 218.5,-60.5 299.5,-60.5 299.5,-79.5"/>
<text text-anchor="middle" x="259" y="-67.5" font-family="Helvetica,sans-Serif" font-size="10.00">log_service.h</text>
</a>
</g>
</g>
<!-- Node22&#45;&gt;Node26 -->
<g id="edge43_Node000022_Node000026" class="edge">
<title>Node22&#45;&gt;Node26</title>
<g id="a_edge43_Node000022_Node000026"><a xlink:title=" ">
<path fill="none" stroke="#63b8ff" d="M442.7,-197.84C416.16,-179.16 354.2,-135.59 333,-121 315.34,-108.84 295.16,-95.23 280.34,-85.28"/>
<polygon fill="#63b8ff" stroke="#63b8ff" points="282.13,-82.27 271.88,-79.61 278.24,-88.08 282.13,-82.27"/>
</a>
</g>
</g>
<!-- Node23&#45;&gt;Node8 -->
<g id="edge36_Node000023_Node000008" class="edge">
<title>Node23&#45;&gt;Node8</title>
<g id="a_edge36_Node000023_Node000008"><a xlink:title=" ">
<path fill="none" stroke="#63b8ff" d="M422.03,-126.44C432.23,-109.86 457.03,-73.41 488,-55 538.62,-24.91 607.97,-15.16 647.97,-12.01"/>
<polygon fill="#63b8ff" stroke="#63b8ff" points="648.23,-15.5 657.96,-11.31 647.74,-8.52 648.23,-15.5"/>
</a>
</g>
</g>
<!-- Node24 -->
<g id="Node000024" class="node">
<title>Node24</title>
<g id="a_Node000024"><a xlink:title=" ">
<polygon fill="#e0e0e0" stroke="#999999" points="435.5,-79.5 356.5,-79.5 356.5,-60.5 435.5,-60.5 435.5,-79.5"/>
<text text-anchor="middle" x="396" y="-67.5" font-family="Helvetica,sans-Serif" font-size="10.00">fmt/format.h</text>
</a>
</g>
</g>
<!-- Node23&#45;&gt;Node24 -->
<g id="edge37_Node000023_Node000024" class="edge">
<title>Node23&#45;&gt;Node24</title>
<g id="a_edge37_Node000023_Node000024"><a xlink:title=" ">
<path fill="none" stroke="#63b8ff" d="M414.17,-126.37C411.09,-116.97 406.06,-101.67 402.08,-89.53"/>
<polygon fill="#63b8ff" stroke="#63b8ff" points="405.37,-88.32 398.92,-79.91 398.71,-90.5 405.37,-88.32"/>
</a>
</g>
</g>
<!-- Node25 -->
<g id="Node000025" class="node">
<title>Node25</title>
<g id="a_Node000025"><a xlink:href="log__level_8h.html" target="_top" xlink:title=" ">
<polygon fill="white" stroke="#666666" points="363,-19 293,-19 293,0 363,0 363,-19"/>
<text text-anchor="middle" x="328" y="-7" font-family="Helvetica,sans-Serif" font-size="10.00">log_level.h</text>
</a>
</g>
</g>
<!-- Node23&#45;&gt;Node25 -->
<g id="edge38_Node000023_Node000025" class="edge">
<title>Node23&#45;&gt;Node25</title>
<g id="a_edge38_Node000023_Node000025"><a xlink:title=" ">
<path fill="none" stroke="#63b8ff" d="M399.02,-126.45C383.27,-118.05 360.92,-103.76 348,-85 336.51,-68.31 331.62,-45.33 329.53,-29.32"/>
<polygon fill="#63b8ff" stroke="#63b8ff" points="332.98,-28.67 328.46,-19.09 326.02,-29.4 332.98,-28.67"/>
</a>
</g>
</g>
<!-- Node23&#45;&gt;Node26 -->
<g id="edge39_Node000023_Node000026" class="edge">
<title>Node23&#45;&gt;Node26</title>
<g id="a_edge39_Node000023_Node000026"><a xlink:title=" ">
<path fill="none" stroke="#63b8ff" d="M395.69,-126.37C368.4,-115.32 320.93,-96.08 289.73,-83.45"/>
<polygon fill="#63b8ff" stroke="#63b8ff" points="290.81,-80.11 280.22,-79.6 288.18,-86.59 290.81,-80.11"/>
</a>
</g>
</g>
<!-- Node26&#45;&gt;Node2 -->
<g id="edge40_Node000026_Node000002" class="edge">
<title>Node26&#45;&gt;Node2</title>
<g id="a_edge40_Node000026_Node000002"><a xlink:title=" ">
<path fill="none" stroke="#63b8ff" d="M240.68,-60.49C219.59,-50.7 184.74,-34.52 160.42,-23.23"/>
<polygon fill="#63b8ff" stroke="#63b8ff" points="161.89,-20.05 151.34,-19.02 158.94,-26.4 161.89,-20.05"/>
</a>
</g>
</g>
<!-- Node26&#45;&gt;Node25 -->
<g id="edge42_Node000026_Node000025" class="edge">
<title>Node26&#45;&gt;Node25</title>
<g id="a_edge42_Node000026_Node000025"><a xlink:title=" ">
<path fill="none" stroke="#63b8ff" d="M269.18,-60.37C279.88,-51.3 296.94,-36.84 309.93,-25.82"/>
<polygon fill="#63b8ff" stroke="#63b8ff" points="312.41,-28.3 317.78,-19.17 307.89,-22.96 312.41,-28.3"/>
</a>
</g>
</g>
<!-- Node27 -->
<g id="Node000027" class="node">
<title>Node27</title>
<g id="a_Node000027"><a xlink:title=" ">
<polygon fill="#e0e0e0" stroke="#999999" points="274.5,-19 205.5,-19 205.5,0 274.5,0 274.5,-19"/>
<text text-anchor="middle" x="240" y="-7" font-family="Helvetica,sans-Serif" font-size="10.00">type_traits</text>
</a>
</g>
</g>
<!-- Node26&#45;&gt;Node27 -->
<g id="edge41_Node000026_Node000027" class="edge">
<title>Node26&#45;&gt;Node27</title>
<g id="a_edge41_Node000026_Node000027"><a xlink:title=" ">
<path fill="none" stroke="#63b8ff" d="M256.2,-60.37C253.5,-52.07 249.35,-39.28 245.92,-28.72"/>
<polygon fill="#63b8ff" stroke="#63b8ff" points="249.23,-27.6 242.82,-19.17 242.58,-29.76 249.23,-27.6"/>
</a>
</g>
</g>
<!-- Node28&#45;&gt;Node8 -->
<g id="edge46_Node000028_Node000008" class="edge">
<title>Node28&#45;&gt;Node8</title>
<g id="a_edge46_Node000028_Node000008"><a xlink:title=" ">
<path fill="none" stroke="#63b8ff" d="M672.8,-186.99C674.34,-149.25 677.71,-66.67 679.23,-29.41"/>
<polygon fill="#63b8ff" stroke="#63b8ff" points="682.74,-29.15 679.65,-19.02 675.75,-28.87 682.74,-29.15"/>
</a>
</g>
</g>
<!-- Node28&#45;&gt;Node17 -->
<g id="edge48_Node000028_Node000017" class="edge">
<title>Node28&#45;&gt;Node17</title>
<g id="a_edge48_Node000028_Node000017"><a xlink:title=" ">
<path fill="none" stroke="#63b8ff" d="M702.65,-186.96C717.46,-177.51 735.2,-166.2 750.05,-156.74"/>
<polygon fill="#63b8ff" stroke="#63b8ff" points="752.32,-159.44 758.87,-151.11 748.55,-153.54 752.32,-159.44"/>
</a>
</g>
</g>
<!-- Node29 -->
<g id="Node000029" class="node">
<title>Node29</title>
<g id="a_Node000029"><a xlink:title=" ">
<polygon fill="#e0e0e0" stroke="#999999" points="651.5,-145.5 606.5,-145.5 606.5,-126.5 651.5,-126.5 651.5,-145.5"/>
<text text-anchor="middle" x="629" y="-133.5" font-family="Helvetica,sans-Serif" font-size="10.00">utility</text>
</a>
</g>
</g>
<!-- Node28&#45;&gt;Node29 -->
<g id="edge47_Node000028_Node000029" class="edge">
<title>Node28&#45;&gt;Node29</title>
<g id="a_edge47_Node000028_Node000029"><a xlink:title=" ">
<path fill="none" stroke="#63b8ff" d="M659.79,-186.77C653.47,-176.55 645.82,-164.19 639.73,-154.34"/>
<polygon fill="#63b8ff" stroke="#63b8ff" points="642.69,-152.48 634.46,-145.82 636.74,-156.17 642.69,-152.48"/>
</a>
</g>
</g>
<!-- Node30&#45;&gt;Node2 -->
<g id="edge52_Node000030_Node000002" class="edge">
<title>Node30&#45;&gt;Node2</title>
<g id="a_edge52_Node000030_Node000002"><a xlink:title=" ">
<path fill="none" stroke="#63b8ff" d="M239.45,-274.96C184.64,-266.32 112.66,-250.93 95,-228 48,-166.96 98.21,-67.72 121.97,-27.87"/>
<polygon fill="#63b8ff" stroke="#63b8ff" points="125.12,-29.43 127.37,-19.08 119.15,-25.77 125.12,-29.43"/>
</a>
</g>
</g>
<!-- Node30&#45;&gt;Node8 -->
<g id="edge53_Node000030_Node000008" class="edge">
<title>Node30&#45;&gt;Node8</title>
<g id="a_edge53_Node000030_Node000008"><a xlink:title=" ">
<path fill="none" stroke="#63b8ff" d="M370.68,-280.46C417,-275.26 478.18,-261.86 521,-228 589.15,-174.12 553.56,-119.29 612,-55 623.57,-42.28 639.53,-31.58 653.09,-23.87"/>
<polygon fill="#63b8ff" stroke="#63b8ff" points="654.89,-26.87 662,-19.02 651.54,-20.72 654.89,-26.87"/>
</a>
</g>
</g>
<!-- Node30&#45;&gt;Node28 -->
<g id="edge54_Node000030_Node000028" class="edge">
<title>Node30&#45;&gt;Node28</title>
<g id="a_edge54_Node000030_Node000028"><a xlink:title=" ">
<path fill="none" stroke="#63b8ff" d="M370.61,-270.09C433.96,-257.15 529.8,-237.56 596.33,-223.96"/>
<polygon fill="#63b8ff" stroke="#63b8ff" points="597.24,-227.35 606.34,-221.92 595.84,-220.49 597.24,-227.35"/>
</a>
</g>
</g>
<!-- Node31 -->
<g id="Node000031" class="node">
<title>Node31</title>
<g id="a_Node000031"><a xlink:title=" ">
<polygon fill="#e0e0e0" stroke="#999999" points="304,-217 254,-217 254,-198 304,-198 304,-217"/>
<text text-anchor="middle" x="279" y="-205" font-family="Helvetica,sans-Serif" font-size="10.00">chrono</text>
</a>
</g>
</g>
<!-- Node30&#45;&gt;Node31 -->
<g id="edge51_Node000030_Node000031" class="edge">
<title>Node30&#45;&gt;Node31</title>
<g id="a_edge51_Node000030_Node000031"><a xlink:title=" ">
<path fill="none" stroke="#63b8ff" d="M298.17,-263.79C294.2,-252.35 289.24,-238.02 285.35,-226.82"/>
<polygon fill="#63b8ff" stroke="#63b8ff" points="288.61,-225.54 282.03,-217.24 282,-227.83 288.61,-225.54"/>
</a>
</g>
</g>
<!-- Node32 -->
<g id="Node000032" class="node">
<title>Node32</title>
<g id="a_Node000032"><a xlink:href="recordable_8h.html" target="_top" xlink:title=" ">
<polygon fill="white" stroke="#666666" points="235.5,-222.5 104.5,-222.5 104.5,-192.5 235.5,-192.5 235.5,-222.5"/>
<text text-anchor="start" x="112.5" y="-210.5" font-family="Helvetica,sans-Serif" font-size="10.00">mosaic/handlers/media</text>
<text text-anchor="middle" x="170" y="-199.5" font-family="Helvetica,sans-Serif" font-size="10.00">_track/recordable.h</text>
</a>
</g>
</g>
<!-- Node30&#45;&gt;Node32 -->
<g id="edge55_Node000030_Node000032" class="edge">
<title>Node30&#45;&gt;Node32</title>
<g id="a_edge55_Node000030_Node000032"><a xlink:title=" ">
<path fill="none" stroke="#63b8ff" d="M269.88,-263.99C249.69,-252.77 224.44,-238.74 204.38,-227.6"/>
<polygon fill="#63b8ff" stroke="#63b8ff" points="206,-224.5 195.56,-222.7 202.6,-230.62 206,-224.5"/>
</a>
</g>
</g>
<!-- Node33 -->
<g id="Node000033" class="node">
<title>Node33</title>
<g id="a_Node000033"><a xlink:title=" ">
<polygon fill="#e0e0e0" stroke="#999999" points="290.5,-145.5 161.5,-145.5 161.5,-126.5 290.5,-126.5 290.5,-145.5"/>
<text text-anchor="middle" x="226" y="-133.5" font-family="Helvetica,sans-Serif" font-size="10.00">opencv_forward_decl.h</text>
</a>
</g>
</g>
<!-- Node30&#45;&gt;Node33 -->
<g id="edge59_Node000030_Node000033" class="edge">
<title>Node30&#45;&gt;Node33</title>
<g id="a_edge59_Node000030_Node000033"><a xlink:title=" ">
<path fill="none" stroke="#63b8ff" d="M312.83,-263.94C319.73,-243.35 326.72,-210.72 313,-187 302.77,-169.32 283.65,-157.34 265.94,-149.56"/>
<polygon fill="#63b8ff" stroke="#63b8ff" points="266.89,-146.16 256.31,-145.65 264.26,-152.65 266.89,-146.16"/>
</a>
</g>
</g>
<!-- Node32&#45;&gt;Node2 -->
<g id="edge56_Node000032_Node000002" class="edge">
<title>Node32&#45;&gt;Node2</title>
<g id="a_edge56_Node000032_Node000002"><a xlink:title=" ">
<path fill="none" stroke="#63b8ff" d="M164.54,-192.09C160.53,-181 155.24,-165.22 152,-151 142.19,-107.95 136.8,-56.25 134.45,-29.16"/>
<polygon fill="#63b8ff" stroke="#63b8ff" points="137.94,-28.83 133.63,-19.15 130.96,-29.4 137.94,-28.83"/>
</a>
</g>
</g>
<!-- Node32&#45;&gt;Node8 -->
<g id="edge57_Node000032_Node000008" class="edge">
<title>Node32&#45;&gt;Node8</title>
<g id="a_edge57_Node000032_Node000008"><a xlink:title=" ">
<path fill="none" stroke="#63b8ff" d="M221.5,-192.48C229.35,-190.53 237.37,-188.63 245,-187 338.88,-166.9 376.7,-202.08 458,-151 502.27,-123.18 483.38,-85.29 526,-55 562.74,-28.89 614.64,-18 647.8,-13.53"/>
<polygon fill="#63b8ff" stroke="#63b8ff" points="648.37,-16.99 657.87,-12.29 647.52,-10.04 648.37,-16.99"/>
</a>
</g>
</g>
<!-- Node32&#45;&gt;Node33 -->
<g id="edge58_Node000032_Node000033" class="edge">
<title>Node32&#45;&gt;Node33</title>
<g id="a_edge58_Node000032_Node000033"><a xlink:title=" ">
<path fill="none" stroke="#63b8ff" d="M181.33,-192.44C190.39,-181.2 203.09,-165.43 212.64,-153.58"/>
<polygon fill="#63b8ff" stroke="#63b8ff" points="215.39,-155.75 218.94,-145.77 209.94,-151.36 215.39,-155.75"/>
</a>
</g>
</g>
</g>
</svg>
