<?xml version="1.0" encoding="UTF-8" standalone="no"?>
<!DOCTYPE svg PUBLIC "-//W3C//DTD SVG 1.1//EN"
 "http://www.w3.org/Graphics/SVG/1.1/DTD/svg11.dtd">
<!-- Generated by graphviz version 2.43.0 (0)
 -->
<!-- Title: include/mosaic/core/peer_connection_manager.h Pages: 1 -->
<svg width="1646pt" height="434pt"
 viewBox="0.00 0.00 1646.00 434.00" xmlns="http://www.w3.org/2000/svg" xmlns:xlink="http://www.w3.org/1999/xlink">
<g id="graph0" class="graph" transform="scale(1 1) rotate(0) translate(4 430)">
<title>include/mosaic/core/peer_connection_manager.h</title>
<!-- Node1 -->
<g id="Node000001" class="node">
<title>Node1</title>
<g id="a_Node000001"><a xlink:title=" ">
<polygon fill="#999999" stroke="#666666" points="487.5,-426 330.5,-426 330.5,-396 487.5,-396 487.5,-426"/>
<text text-anchor="start" x="338.5" y="-414" font-family="Helvetica,sans-Serif" font-size="10.00">include/mosaic/core</text>
<text text-anchor="middle" x="409" y="-403" font-family="Helvetica,sans-Serif" font-size="10.00">/peer_connection_manager.h</text>
</a>
</g>
</g>
<!-- Node2 -->
<g id="Node000002" class="node">
<title>Node2</title>
<g id="a_Node000002"><a xlink:href="mosaic__connector_8h.html" target="_top" xlink:title=" ">
<polygon fill="white" stroke="#666666" points="467,-360 351,-360 351,-330 467,-330 467,-360"/>
<text text-anchor="start" x="359" y="-348" font-family="Helvetica,sans-Serif" font-size="10.00">include/mosaic/core</text>
<text text-anchor="middle" x="409" y="-337" font-family="Helvetica,sans-Serif" font-size="10.00">/mosaic_connector.h</text>
</a>
</g>
</g>
<!-- Node1&#45;&gt;Node2 -->
<g id="edge1_Node000001_Node000002" class="edge">
<title>Node1&#45;&gt;Node2</title>
<g id="a_edge1_Node000001_Node000002"><a xlink:title=" ">
<path fill="none" stroke="#63b8ff" d="M402.43,-385.83C402.02,-377.17 402.31,-367.7 403.29,-360.16"/>
<polygon fill="#63b8ff" stroke="#63b8ff" points="398.95,-386.13 403.28,-395.8 405.92,-385.54 398.95,-386.13"/>
</a>
</g>
</g>
<!-- Node19 -->
<g id="Node000019" class="node">
<title>Node19</title>
<g id="a_Node000019"><a xlink:href="peer__connection__manager_8cpp.html" target="_top" xlink:title=" ">
<polygon fill="white" stroke="#666666" points="138,-206 0,-206 0,-176 138,-176 138,-206"/>
<text text-anchor="start" x="8" y="-194" font-family="Helvetica,sans-Serif" font-size="10.00">src/core/peer_connection</text>
<text text-anchor="middle" x="69" y="-183" font-family="Helvetica,sans-Serif" font-size="10.00">_manager.cpp</text>
</a>
</g>
</g>
<!-- Node1&#45;&gt;Node19 -->
<g id="edge33_Node000001_Node000019" class="edge">
<title>Node1&#45;&gt;Node19</title>
<g id="a_edge33_Node000001_Node000019"><a xlink:title=" ">
<path fill="none" stroke="#63b8ff" d="M355.82,-392.63C302.71,-373.67 220.37,-339.8 159,-294 124.55,-268.29 93.6,-227.58 78.58,-206.2"/>
<polygon fill="#63b8ff" stroke="#63b8ff" points="354.79,-395.98 365.39,-395.99 357.11,-389.37 354.79,-395.98"/>
</a>
</g>
</g>
<!-- Node2&#45;&gt;Node1 -->
<g id="edge23_Node000002_Node000001" class="edge">
<title>Node2&#45;&gt;Node1</title>
<g id="a_edge23_Node000002_Node000001"><a xlink:title=" ">
<path fill="none" stroke="#63b8ff" d="M415.57,-370.13C415.98,-378.78 415.7,-388.26 414.72,-395.8"/>
<polygon fill="#63b8ff" stroke="#63b8ff" points="419.05,-369.83 414.71,-360.16 412.08,-370.43 419.05,-369.83"/>
</a>
</g>
</g>
<!-- Node3 -->
<g id="Node000003" class="node">
<title>Node3</title>
<g id="a_Node000003"><a xlink:href="i__configurable__connector_8h.html" target="_top" xlink:title=" ">
<polygon fill="white" stroke="#666666" points="1270.5,-294 1121.5,-294 1121.5,-253 1270.5,-253 1270.5,-294"/>
<text text-anchor="start" x="1129.5" y="-282" font-family="Helvetica,sans-Serif" font-size="10.00">include/mosaic/auto</text>
<text text-anchor="start" x="1129.5" y="-271" font-family="Helvetica,sans-Serif" font-size="10.00">_configurer/connector</text>
<text text-anchor="middle" x="1196" y="-260" font-family="Helvetica,sans-Serif" font-size="10.00">/i_configurable_connector.h</text>
</a>
</g>
</g>
<!-- Node2&#45;&gt;Node3 -->
<g id="edge2_Node000002_Node000003" class="edge">
<title>Node2&#45;&gt;Node3</title>
<g id="a_edge2_Node000002_Node000003"><a xlink:title=" ">
<path fill="none" stroke="#63b8ff" d="M477.42,-337.96C624.3,-324.99 968.82,-294.56 1121.22,-281.1"/>
<polygon fill="#63b8ff" stroke="#63b8ff" points="476.84,-334.5 467.19,-338.86 477.46,-341.47 476.84,-334.5"/>
</a>
</g>
</g>
<!-- Node15 -->
<g id="Node000015" class="node">
<title>Node15</title>
<g id="a_Node000015"><a xlink:href="mosaic__connector__factory_8h.html" target="_top" xlink:title=" ">
<polygon fill="white" stroke="#666666" points="795.5,-288.5 640.5,-288.5 640.5,-258.5 795.5,-258.5 795.5,-288.5"/>
<text text-anchor="start" x="648.5" y="-276.5" font-family="Helvetica,sans-Serif" font-size="10.00">include/mosaic/core</text>
<text text-anchor="middle" x="718" y="-265.5" font-family="Helvetica,sans-Serif" font-size="10.00">/mosaic_connector_factory.h</text>
</a>
</g>
</g>
<!-- Node2&#45;&gt;Node15 -->
<g id="edge20_Node000002_Node000015" class="edge">
<title>Node2&#45;&gt;Node15</title>
<g id="a_edge20_Node000002_Node000015"><a xlink:title=" ">
<path fill="none" stroke="#63b8ff" d="M476.99,-328.8C521.17,-318.91 580,-305.72 632,-294 639.77,-292.25 647.93,-290.4 656,-288.58"/>
<polygon fill="#63b8ff" stroke="#63b8ff" points="476.23,-325.38 467.23,-330.98 477.75,-332.22 476.23,-325.38"/>
</a>
</g>
</g>
<!-- Node17 -->
<g id="Node000017" class="node">
<title>Node17</title>
<g id="a_Node000017"><a xlink:href="peer__connection__observer_8h.html" target="_top" xlink:title=" ">
<polygon fill="white" stroke="#666666" points="324,-288.5 168,-288.5 168,-258.5 324,-258.5 324,-288.5"/>
<text text-anchor="start" x="176" y="-276.5" font-family="Helvetica,sans-Serif" font-size="10.00">include/mosaic/core</text>
<text text-anchor="middle" x="246" y="-265.5" font-family="Helvetica,sans-Serif" font-size="10.00">/peer_connection_observer.h</text>
</a>
</g>
</g>
<!-- Node2&#45;&gt;Node17 -->
<g id="edge24_Node000002_Node000017" class="edge">
<title>Node2&#45;&gt;Node17</title>
<g id="a_edge24_Node000002_Node000017"><a xlink:title=" ">
<path fill="none" stroke="#63b8ff" d="M366.69,-325.96C339.32,-314.29 304.22,-299.32 278.94,-288.54"/>
<polygon fill="#63b8ff" stroke="#63b8ff" points="365.44,-329.23 376.01,-329.94 368.19,-322.79 365.44,-329.23"/>
</a>
</g>
</g>
<!-- Node18 -->
<g id="Node000018" class="node">
<title>Node18</title>
<g id="a_Node000018"><a xlink:href="mosaic__connector_8cpp.html" target="_top" xlink:title=" ">
<polygon fill="white" stroke="#666666" points="322,-200.5 156,-200.5 156,-181.5 322,-181.5 322,-200.5"/>
<text text-anchor="middle" x="239" y="-188.5" font-family="Helvetica,sans-Serif" font-size="10.00">src/core/mosaic_connector.cpp</text>
</a>
</g>
</g>
<!-- Node2&#45;&gt;Node18 -->
<g id="edge31_Node000002_Node000018" class="edge">
<title>Node2&#45;&gt;Node18</title>
<g id="a_edge31_Node000002_Node000018"><a xlink:title=" ">
<path fill="none" stroke="#63b8ff" d="M393.33,-321.66C379,-302.18 356.51,-273.84 333,-253 308.25,-231.06 274.92,-211.36 255.32,-200.6"/>
<polygon fill="#63b8ff" stroke="#63b8ff" points="390.62,-323.88 399.32,-329.93 396.29,-319.78 390.62,-323.88"/>
</a>
</g>
</g>
<!-- Node20 -->
<g id="Node000020" class="node">
<title>Node20</title>
<g id="a_Node000020"><a xlink:href="peer__connection__observer_8cpp.html" target="_top" xlink:title=" ">
<polygon fill="white" stroke="#666666" points="478,-206 340,-206 340,-176 478,-176 478,-206"/>
<text text-anchor="start" x="348" y="-194" font-family="Helvetica,sans-Serif" font-size="10.00">src/core/peer_connection</text>
<text text-anchor="middle" x="409" y="-183" font-family="Helvetica,sans-Serif" font-size="10.00">_observer.cpp</text>
</a>
</g>
</g>
<!-- Node2&#45;&gt;Node20 -->
<g id="edge32_Node000002_Node000020" class="edge">
<title>Node2&#45;&gt;Node20</title>
<g id="a_edge32_Node000002_Node000020"><a xlink:title=" ">
<path fill="none" stroke="#63b8ff" d="M409,-319.72C409,-287.74 409,-232.52 409,-206.44"/>
<polygon fill="#63b8ff" stroke="#63b8ff" points="405.5,-319.97 409,-329.97 412.5,-319.97 405.5,-319.97"/>
</a>
</g>
</g>
<!-- Node21 -->
<g id="Node000021" class="node">
<title>Node21</title>
<g id="a_Node000021"><a xlink:href="signaling__client_8h.html" target="_top" xlink:title=" ">
<polygon fill="white" stroke="#666666" points="622.5,-288.5 485.5,-288.5 485.5,-258.5 622.5,-258.5 622.5,-288.5"/>
<text text-anchor="start" x="493.5" y="-276.5" font-family="Helvetica,sans-Serif" font-size="10.00">include/mosaic/signaling</text>
<text text-anchor="middle" x="554" y="-265.5" font-family="Helvetica,sans-Serif" font-size="10.00">/signaling_client.h</text>
</a>
</g>
</g>
<!-- Node2&#45;&gt;Node21 -->
<g id="edge28_Node000002_Node000021" class="edge">
<title>Node2&#45;&gt;Node21</title>
<g id="a_edge28_Node000002_Node000021"><a xlink:title=" ">
<path fill="none" stroke="#63b8ff" d="M447.6,-325.5C471.8,-313.9 502.5,-299.18 524.7,-288.54"/>
<polygon fill="#63b8ff" stroke="#63b8ff" points="445.85,-322.46 438.34,-329.94 448.87,-328.77 445.85,-322.46"/>
</a>
</g>
</g>
<!-- Node4 -->
<g id="Node000004" class="node">
<title>Node4</title>
<g id="a_Node000004"><a xlink:href="auto__configurer_8h.html" target="_top" xlink:title=" ">
<polygon fill="white" stroke="#666666" points="1308,-118 1150,-118 1150,-88 1308,-88 1308,-118"/>
<text text-anchor="start" x="1158" y="-106" font-family="Helvetica,sans-Serif" font-size="10.00">include/mosaic/auto</text>
<text text-anchor="middle" x="1229" y="-95" font-family="Helvetica,sans-Serif" font-size="10.00">_configurer/auto_configurer.h</text>
</a>
</g>
</g>
<!-- Node3&#45;&gt;Node4 -->
<g id="edge3_Node000003_Node000004" class="edge">
<title>Node3&#45;&gt;Node4</title>
<g id="a_edge3_Node000003_Node000004"><a xlink:title=" ">
<path fill="none" stroke="#63b8ff" d="M1201.82,-242.76C1208.99,-206.17 1220.87,-145.53 1226.23,-118.16"/>
<polygon fill="#63b8ff" stroke="#63b8ff" points="1198.34,-242.35 1199.85,-252.84 1205.21,-243.7 1198.34,-242.35"/>
</a>
</g>
</g>
<!-- Node6 -->
<g id="Node000006" class="node">
<title>Node6</title>
<g id="a_Node000006"><a xlink:href="a__dc__handler__configurer_8h.html" target="_top" xlink:title=" ">
<polygon fill="white" stroke="#666666" points="988,-123.5 842,-123.5 842,-82.5 988,-82.5 988,-123.5"/>
<text text-anchor="start" x="850" y="-111.5" font-family="Helvetica,sans-Serif" font-size="10.00">include/mosaic/auto</text>
<text text-anchor="start" x="850" y="-100.5" font-family="Helvetica,sans-Serif" font-size="10.00">_configurer/connector</text>
<text text-anchor="middle" x="915" y="-89.5" font-family="Helvetica,sans-Serif" font-size="10.00">/a_dc_handler_configurer.h</text>
</a>
</g>
</g>
<!-- Node3&#45;&gt;Node6 -->
<g id="edge5_Node000003_Node000006" class="edge">
<title>Node3&#45;&gt;Node6</title>
<g id="a_edge5_Node000003_Node000006"><a xlink:title=" ">
<path fill="none" stroke="#63b8ff" d="M1111.34,-266.57C1068.12,-259.88 1016.83,-245.93 979,-217 947.66,-193.03 929.26,-149.03 920.75,-123.58"/>
<polygon fill="#63b8ff" stroke="#63b8ff" points="1110.88,-270.04 1121.28,-268 1111.88,-263.11 1110.88,-270.04"/>
</a>
</g>
</g>
<!-- Node7 -->
<g id="Node000007" class="node">
<title>Node7</title>
<g id="a_Node000007"><a xlink:href="a__mt__handler__configurer_8h.html" target="_top" xlink:title=" ">
<polygon fill="white" stroke="#666666" points="1581.5,-211.5 1432.5,-211.5 1432.5,-170.5 1581.5,-170.5 1581.5,-211.5"/>
<text text-anchor="start" x="1440.5" y="-199.5" font-family="Helvetica,sans-Serif" font-size="10.00">include/mosaic/auto</text>
<text text-anchor="start" x="1440.5" y="-188.5" font-family="Helvetica,sans-Serif" font-size="10.00">_configurer/connector</text>
<text text-anchor="middle" x="1507" y="-177.5" font-family="Helvetica,sans-Serif" font-size="10.00">/a_mt_handler_configurer.h</text>
</a>
</g>
</g>
<!-- Node3&#45;&gt;Node7 -->
<g id="edge7_Node000003_Node000007" class="edge">
<title>Node3&#45;&gt;Node7</title>
<g id="a_edge7_Node000003_Node000007"><a xlink:title=" ">
<path fill="none" stroke="#63b8ff" d="M1280.58,-253.06C1323.66,-242.86 1376.77,-229.85 1424,-217 1430.24,-215.3 1436.73,-213.47 1443.21,-211.59"/>
<polygon fill="#63b8ff" stroke="#63b8ff" points="1279.64,-249.68 1270.71,-255.38 1281.24,-256.5 1279.64,-249.68"/>
</a>
</g>
</g>
<!-- Node11 -->
<g id="Node000011" class="node">
<title>Node11</title>
<g id="a_Node000011"><a xlink:href="a__parallel__dc__handler__configurer_8h.html" target="_top" xlink:title=" ">
<polygon fill="white" stroke="#666666" points="1132,-129 1006,-129 1006,-77 1132,-77 1132,-129"/>
<text text-anchor="start" x="1014" y="-117" font-family="Helvetica,sans-Serif" font-size="10.00">include/mosaic/auto</text>
<text text-anchor="start" x="1014" y="-106" font-family="Helvetica,sans-Serif" font-size="10.00">_configurer/connector</text>
<text text-anchor="start" x="1014" y="-95" font-family="Helvetica,sans-Serif" font-size="10.00">/a_parallel_dc_handler</text>
<text text-anchor="middle" x="1069" y="-84" font-family="Helvetica,sans-Serif" font-size="10.00">_configurer.h</text>
</a>
</g>
</g>
<!-- Node3&#45;&gt;Node11 -->
<g id="edge12_Node000003_Node000011" class="edge">
<title>Node3&#45;&gt;Node11</title>
<g id="a_edge12_Node000003_Node000011"><a xlink:title=" ">
<path fill="none" stroke="#63b8ff" d="M1190.79,-242.97C1185.56,-219.9 1175.67,-188.01 1158,-165 1147.16,-150.89 1132.11,-138.85 1117.47,-129.29"/>
<polygon fill="#63b8ff" stroke="#63b8ff" points="1187.39,-243.82 1192.88,-252.89 1194.24,-242.38 1187.39,-243.82"/>
</a>
</g>
</g>
<!-- Node12 -->
<g id="Node000012" class="node">
<title>Node12</title>
<g id="a_Node000012"><a xlink:href="configurable__connector__factory_8h.html" target="_top" xlink:title=" ">
<polygon fill="white" stroke="#666666" points="1414.5,-217 1281.5,-217 1281.5,-165 1414.5,-165 1414.5,-217"/>
<text text-anchor="start" x="1289.5" y="-205" font-family="Helvetica,sans-Serif" font-size="10.00">include/mosaic/auto</text>
<text text-anchor="start" x="1289.5" y="-194" font-family="Helvetica,sans-Serif" font-size="10.00">_configurer/connector</text>
<text text-anchor="start" x="1289.5" y="-183" font-family="Helvetica,sans-Serif" font-size="10.00">/configurable_connector</text>
<text text-anchor="middle" x="1348" y="-172" font-family="Helvetica,sans-Serif" font-size="10.00">_factory.h</text>
</a>
</g>
</g>
<!-- Node3&#45;&gt;Node12 -->
<g id="edge14_Node000003_Node000012" class="edge">
<title>Node3&#45;&gt;Node12</title>
<g id="a_edge14_Node000003_Node000012"><a xlink:title=" ">
<path fill="none" stroke="#63b8ff" d="M1242.02,-248.13C1260.54,-238.32 1281.89,-227.01 1300.56,-217.13"/>
<polygon fill="#63b8ff" stroke="#63b8ff" points="1240.38,-245.03 1233.18,-252.81 1243.66,-251.22 1240.38,-245.03"/>
</a>
</g>
</g>
<!-- Node13 -->
<g id="Node000013" class="node">
<title>Node13</title>
<g id="a_Node000013"><a xlink:href="connector__resolver_8h.html" target="_top" xlink:title=" ">
<polygon fill="white" stroke="#666666" points="1448,-123.5 1326,-123.5 1326,-82.5 1448,-82.5 1448,-123.5"/>
<text text-anchor="start" x="1334" y="-111.5" font-family="Helvetica,sans-Serif" font-size="10.00">include/mosaic/auto</text>
<text text-anchor="start" x="1334" y="-100.5" font-family="Helvetica,sans-Serif" font-size="10.00">_configurer/connector</text>
<text text-anchor="middle" x="1387" y="-89.5" font-family="Helvetica,sans-Serif" font-size="10.00">/connector_resolver.h</text>
</a>
</g>
</g>
<!-- Node3&#45;&gt;Node13 -->
<g id="edge18_Node000003_Node000013" class="edge">
<title>Node3&#45;&gt;Node13</title>
<g id="a_edge18_Node000003_Node000013"><a xlink:title=" ">
<path fill="none" stroke="#63b8ff" d="M1211.34,-244.19C1225.11,-220.75 1247.1,-187.73 1273,-165 1292.49,-147.9 1317.6,-133.81 1339.29,-123.5"/>
<polygon fill="#63b8ff" stroke="#63b8ff" points="1208.24,-242.56 1206.3,-252.97 1214.31,-246.04 1208.24,-242.56"/>
</a>
</g>
</g>
<!-- Node14 -->
<g id="Node000014" class="node">
<title>Node14</title>
<g id="a_Node000014"><a xlink:href="i__configurable__connector_8cpp.html" target="_top" xlink:title=" ">
<polygon fill="white" stroke="#666666" points="1148.5,-206 987.5,-206 987.5,-176 1148.5,-176 1148.5,-206"/>
<text text-anchor="start" x="995.5" y="-194" font-family="Helvetica,sans-Serif" font-size="10.00">src/auto_configurer</text>
<text text-anchor="middle" x="1068" y="-183" font-family="Helvetica,sans-Serif" font-size="10.00">/i_configurable_connector.cpp</text>
</a>
</g>
</g>
<!-- Node3&#45;&gt;Node14 -->
<g id="edge19_Node000003_Node000014" class="edge">
<title>Node3&#45;&gt;Node14</title>
<g id="a_edge19_Node000003_Node000014"><a xlink:title=" ">
<path fill="none" stroke="#63b8ff" d="M1156.05,-247.37C1134.48,-233.81 1108.65,-217.56 1090.56,-206.19"/>
<polygon fill="#63b8ff" stroke="#63b8ff" points="1154.36,-250.45 1164.69,-252.81 1158.09,-244.52 1154.36,-250.45"/>
</a>
</g>
</g>
<!-- Node5 -->
<g id="Node000005" class="node">
<title>Node5</title>
<g id="a_Node000005"><a xlink:href="auto__configurer_8cpp.html" target="_top" xlink:title=" ">
<polygon fill="white" stroke="#666666" points="1206.5,-35.5 1091.5,-35.5 1091.5,-5.5 1206.5,-5.5 1206.5,-35.5"/>
<text text-anchor="start" x="1099.5" y="-23.5" font-family="Helvetica,sans-Serif" font-size="10.00">src/auto_configurer</text>
<text text-anchor="middle" x="1149" y="-12.5" font-family="Helvetica,sans-Serif" font-size="10.00">/auto_configurer.cpp</text>
</a>
</g>
</g>
<!-- Node4&#45;&gt;Node5 -->
<g id="edge4_Node000004_Node000005" class="edge">
<title>Node4&#45;&gt;Node5</title>
<g id="a_edge4_Node000004_Node000005"><a xlink:title=" ">
<path fill="none" stroke="#63b8ff" d="M1207.69,-80.55C1193.55,-66.33 1175.39,-48.06 1163.04,-35.63"/>
<polygon fill="#63b8ff" stroke="#63b8ff" points="1205.53,-83.35 1215.07,-87.98 1210.5,-78.42 1205.53,-83.35"/>
</a>
</g>
</g>
<!-- Node6&#45;&gt;Node5 -->
<g id="edge6_Node000006_Node000005" class="edge">
<title>Node6&#45;&gt;Node5</title>
<g id="a_edge6_Node000006_Node000005"><a xlink:title=" ">
<path fill="none" stroke="#63b8ff" d="M981.53,-79.11C1022.27,-65.1 1073.1,-47.61 1108.01,-35.6"/>
<polygon fill="#63b8ff" stroke="#63b8ff" points="980.26,-75.85 971.94,-82.41 982.54,-82.47 980.26,-75.85"/>
</a>
</g>
</g>
<!-- Node7&#45;&gt;Node5 -->
<g id="edge11_Node000007_Node000005" class="edge">
<title>Node7&#45;&gt;Node5</title>
<g id="a_edge11_Node000007_Node000005"><a xlink:title=" ">
<path fill="none" stroke="#63b8ff" d="M1501.86,-160.11C1495.76,-134.07 1482.94,-97.39 1457,-77 1437.59,-61.74 1290.5,-40.17 1206.8,-28.95"/>
<polygon fill="#63b8ff" stroke="#63b8ff" points="1498.5,-161.14 1504.01,-170.19 1505.35,-159.68 1498.5,-161.14"/>
</a>
</g>
</g>
<!-- Node8 -->
<g id="Node000008" class="node">
<title>Node8</title>
<g id="a_Node000008"><a xlink:href="opencv__camera__mt__handler_8h.html" target="_top" xlink:title=" ">
<polygon fill="white" stroke="#666666" points="1638,-123.5 1504,-123.5 1504,-82.5 1638,-82.5 1638,-123.5"/>
<text text-anchor="start" x="1512" y="-111.5" font-family="Helvetica,sans-Serif" font-size="10.00">include/mosaic/auto</text>
<text text-anchor="start" x="1512" y="-100.5" font-family="Helvetica,sans-Serif" font-size="10.00">_configurer/impl/opencv</text>
<text text-anchor="middle" x="1571" y="-89.5" font-family="Helvetica,sans-Serif" font-size="10.00">_camera_mt_handler.h</text>
</a>
</g>
</g>
<!-- Node7&#45;&gt;Node8 -->
<g id="edge8_Node000007_Node000008" class="edge">
<title>Node7&#45;&gt;Node8</title>
<g id="a_edge8_Node000007_Node000008"><a xlink:title=" ">
<path fill="none" stroke="#63b8ff" d="M1527.7,-162.18C1537.03,-149.64 1547.83,-135.13 1556.31,-123.74"/>
<polygon fill="#63b8ff" stroke="#63b8ff" points="1524.68,-160.37 1521.52,-170.49 1530.3,-164.55 1524.68,-160.37"/>
</a>
</g>
</g>
<!-- Node9 -->
<g id="Node000009" class="node">
<title>Node9</title>
<g id="a_Node000009"><a xlink:href="connector__resolver_8cpp.html" target="_top" xlink:title=" ">
<polygon fill="white" stroke="#666666" points="1472,-35.5 1340,-35.5 1340,-5.5 1472,-5.5 1472,-35.5"/>
<text text-anchor="start" x="1348" y="-23.5" font-family="Helvetica,sans-Serif" font-size="10.00">src/auto_configurer</text>
<text text-anchor="middle" x="1406" y="-12.5" font-family="Helvetica,sans-Serif" font-size="10.00">/connector_resolver.cpp</text>
</a>
</g>
</g>
<!-- Node8&#45;&gt;Node9 -->
<g id="edge9_Node000008_Node000009" class="edge">
<title>Node8&#45;&gt;Node9</title>
<g id="a_edge9_Node000008_Node000009"><a xlink:title=" ">
<path fill="none" stroke="#63b8ff" d="M1521.31,-77.76C1493.05,-63.97 1458.66,-47.19 1434.83,-35.56"/>
<polygon fill="#63b8ff" stroke="#63b8ff" points="1520.11,-81.07 1530.64,-82.31 1523.18,-74.78 1520.11,-81.07"/>
</a>
</g>
</g>
<!-- Node10 -->
<g id="Node000010" class="node">
<title>Node10</title>
<g id="a_Node000010"><a xlink:href="opencv__camera__mt__handler_8cpp.html" target="_top" xlink:title=" ">
<polygon fill="white" stroke="#666666" points="1632,-41 1510,-41 1510,0 1632,0 1632,-41"/>
<text text-anchor="start" x="1518" y="-29" font-family="Helvetica,sans-Serif" font-size="10.00">src/auto_configurer</text>
<text text-anchor="start" x="1518" y="-18" font-family="Helvetica,sans-Serif" font-size="10.00">/impl/opencv_camera</text>
<text text-anchor="middle" x="1571" y="-7" font-family="Helvetica,sans-Serif" font-size="10.00">_mt_handler.cpp</text>
</a>
</g>
</g>
<!-- Node8&#45;&gt;Node10 -->
<g id="edge10_Node000008_Node000010" class="edge">
<title>Node8&#45;&gt;Node10</title>
<g id="a_edge10_Node000008_Node000010"><a xlink:title=" ">
<path fill="none" stroke="#63b8ff" d="M1571,-71.87C1571,-61.6 1571,-50.4 1571,-41.17"/>
<polygon fill="#63b8ff" stroke="#63b8ff" points="1567.5,-72.1 1571,-82.1 1574.5,-72.1 1567.5,-72.1"/>
</a>
</g>
</g>
<!-- Node11&#45;&gt;Node5 -->
<g id="edge13_Node000011_Node000005" class="edge">
<title>Node11&#45;&gt;Node5</title>
<g id="a_edge13_Node000011_Node000005"><a xlink:title=" ">
<path fill="none" stroke="#63b8ff" d="M1100.98,-69.82C1112.64,-58.08 1125.26,-45.39 1134.63,-35.96"/>
<polygon fill="#63b8ff" stroke="#63b8ff" points="1098.44,-67.41 1093.87,-76.97 1103.41,-72.34 1098.44,-67.41"/>
</a>
</g>
</g>
<!-- Node12&#45;&gt;Node13 -->
<g id="edge15_Node000012_Node000013" class="edge">
<title>Node12&#45;&gt;Node13</title>
<g id="a_edge15_Node000012_Node000013"><a xlink:title=" ">
<path fill="none" stroke="#63b8ff" d="M1363.67,-155.44C1368.57,-144.64 1373.8,-133.11 1378.06,-123.7"/>
<polygon fill="#63b8ff" stroke="#63b8ff" points="1360.43,-154.11 1359.49,-164.66 1366.81,-157 1360.43,-154.11"/>
</a>
</g>
</g>
<!-- Node13&#45;&gt;Node5 -->
<g id="edge16_Node000013_Node000005" class="edge">
<title>Node13&#45;&gt;Node5</title>
<g id="a_edge16_Node000013_Node000005"><a xlink:title=" ">
<path fill="none" stroke="#63b8ff" d="M1323.33,-79.19C1321.2,-78.45 1319.08,-77.72 1317,-77 1274.88,-62.52 1226.58,-46.64 1192.61,-35.59"/>
<polygon fill="#63b8ff" stroke="#63b8ff" points="1322.18,-82.49 1332.78,-82.49 1324.49,-75.89 1322.18,-82.49"/>
</a>
</g>
</g>
<!-- Node13&#45;&gt;Node9 -->
<g id="edge17_Node000013_Node000009" class="edge">
<title>Node13&#45;&gt;Node9</title>
<g id="a_edge17_Node000013_Node000009"><a xlink:title=" ">
<path fill="none" stroke="#63b8ff" d="M1394.05,-72.13C1396.98,-59.73 1400.23,-45.93 1402.61,-35.87"/>
<polygon fill="#63b8ff" stroke="#63b8ff" points="1390.59,-71.56 1391.7,-82.1 1397.4,-73.17 1390.59,-71.56"/>
</a>
</g>
</g>
<!-- Node15&#45;&gt;Node5 -->
<g id="edge21_Node000015_Node000005" class="edge">
<title>Node15&#45;&gt;Node5</title>
<g id="a_edge21_Node000015_Node000005"><a xlink:title=" ">
<path fill="none" stroke="#63b8ff" d="M755.1,-253.09C769.44,-243.9 784.82,-231.7 795,-217 831.7,-163.99 785.38,-120.46 833,-77 869.98,-43.25 1010.82,-29.53 1091.44,-24.36"/>
<polygon fill="#63b8ff" stroke="#63b8ff" points="753.08,-250.23 746.36,-258.42 756.72,-256.21 753.08,-250.23"/>
</a>
</g>
</g>
<!-- Node16 -->
<g id="Node000016" class="node">
<title>Node16</title>
<g id="a_Node000016"><a xlink:href="mosaic__connector__factory_8cpp.html" target="_top" xlink:title=" ">
<polygon fill="white" stroke="#666666" points="786,-206 640,-206 640,-176 786,-176 786,-206"/>
<text text-anchor="start" x="648" y="-194" font-family="Helvetica,sans-Serif" font-size="10.00">src/core/mosaic_connector</text>
<text text-anchor="middle" x="713" y="-183" font-family="Helvetica,sans-Serif" font-size="10.00">_factory.cpp</text>
</a>
</g>
</g>
<!-- Node15&#45;&gt;Node16 -->
<g id="edge22_Node000015_Node000016" class="edge">
<title>Node15&#45;&gt;Node16</title>
<g id="a_edge22_Node000015_Node000016"><a xlink:title=" ">
<path fill="none" stroke="#63b8ff" d="M716.49,-248.24C715.64,-234.48 714.6,-217.75 713.88,-206.13"/>
<polygon fill="#63b8ff" stroke="#63b8ff" points="713.02,-248.71 717.13,-258.48 720,-248.28 713.02,-248.71"/>
</a>
</g>
</g>
<!-- Node17&#45;&gt;Node18 -->
<g id="edge25_Node000017_Node000018" class="edge">
<title>Node17&#45;&gt;Node18</title>
<g id="a_edge25_Node000017_Node000018"><a xlink:title=" ">
<path fill="none" stroke="#63b8ff" d="M243.89,-248.2C242.5,-232.2 240.76,-212.2 239.77,-200.88"/>
<polygon fill="#63b8ff" stroke="#63b8ff" points="240.43,-248.82 244.78,-258.48 247.4,-248.21 240.43,-248.82"/>
</a>
</g>
</g>
<!-- Node17&#45;&gt;Node19 -->
<g id="edge26_Node000017_Node000019" class="edge">
<title>Node17&#45;&gt;Node19</title>
<g id="a_edge26_Node000017_Node000019"><a xlink:title=" ">
<path fill="none" stroke="#63b8ff" d="M206.05,-254.33C173.96,-239.74 129.54,-219.53 100.07,-206.13"/>
<polygon fill="#63b8ff" stroke="#63b8ff" points="204.62,-257.52 215.17,-258.48 207.52,-251.15 204.62,-257.52"/>
</a>
</g>
</g>
<!-- Node17&#45;&gt;Node20 -->
<g id="edge27_Node000017_Node000020" class="edge">
<title>Node17&#45;&gt;Node20</title>
<g id="a_edge27_Node000017_Node000020"><a xlink:title=" ">
<path fill="none" stroke="#63b8ff" d="M283.55,-253.95C313.04,-239.39 353.48,-219.42 380.39,-206.13"/>
<polygon fill="#63b8ff" stroke="#63b8ff" points="281.81,-250.91 274.39,-258.48 284.91,-257.19 281.81,-250.91"/>
</a>
</g>
</g>
<!-- Node21&#45;&gt;Node16 -->
<g id="edge29_Node000021_Node000016" class="edge">
<title>Node21&#45;&gt;Node16</title>
<g id="a_edge29_Node000021_Node000016"><a xlink:title=" ">
<path fill="none" stroke="#63b8ff" d="M590.63,-253.95C619.39,-239.39 658.84,-219.42 685.09,-206.13"/>
<polygon fill="#63b8ff" stroke="#63b8ff" points="589.04,-250.84 581.7,-258.48 592.2,-257.08 589.04,-250.84"/>
</a>
</g>
</g>
<!-- Node22 -->
<g id="Node000022" class="node">
<title>Node22</title>
<g id="a_Node000022"><a xlink:href="signaling__client_8cpp.html" target="_top" xlink:title=" ">
<polygon fill="white" stroke="#666666" points="621.5,-206 496.5,-206 496.5,-176 621.5,-176 621.5,-206"/>
<text text-anchor="start" x="504.5" y="-194" font-family="Helvetica,sans-Serif" font-size="10.00">src/signaling/signaling</text>
<text text-anchor="middle" x="559" y="-183" font-family="Helvetica,sans-Serif" font-size="10.00">_client.cpp</text>
</a>
</g>
</g>
<!-- Node21&#45;&gt;Node22 -->
<g id="edge30_Node000021_Node000022" class="edge">
<title>Node21&#45;&gt;Node22</title>
<g id="a_edge30_Node000021_Node000022"><a xlink:title=" ">
<path fill="none" stroke="#63b8ff" d="M555.51,-248.24C556.36,-234.48 557.4,-217.75 558.12,-206.13"/>
<polygon fill="#63b8ff" stroke="#63b8ff" points="552,-248.28 554.87,-258.48 558.98,-248.71 552,-248.28"/>
</a>
</g>
</g>
</g>
</svg>
