<?xml version="1.0" encoding="UTF-8" standalone="no"?>
<!DOCTYPE svg PUBLIC "-//W3C//DTD SVG 1.1//EN"
 "http://www.w3.org/Graphics/SVG/1.1/DTD/svg11.dtd">
<!-- Generated by graphviz version 2.43.0 (0)
 -->
<!-- Title: include/mosaic/core/peer_connection_manager.h Pages: 1 -->
<!--zoomable 423 -->

<svg id="main" version="1.1" xmlns="http://www.w3.org/2000/svg" xmlns:xlink="http://www.w3.org/1999/xlink" xml:space="preserve" onload="init(evt)">
<style type="text/css"><![CDATA[
.node, .edge {opacity: 0.7;}
.node.selected, .edge.selected {opacity: 1;}
.edge:hover path { stroke: red; }
.edge:hover polygon { stroke: red; fill: red; }
]]></style>

<defs>
  <circle id="rim" cx="0" cy="0" r="7"/>
  <circle id="rim2" cx="0" cy="0" r="3.5"/>
  <g id="zoomPlus">
    <use xlink:href="#rim" fill="#404040"><set attributeName="fill" to="#808080" begin="zoomplus.mouseover" end="zoomplus.mouseout"/></use>
    <path d="M-4,0h8M0,-4v8" fill="none" stroke="white" stroke-width="1.5" pointer-events="none"/>
  </g>
  <g id="zoomMin">
    <use xlink:href="#rim" fill="#404040"><set attributeName="fill" to="#808080" begin="zoomminus.mouseover" end="zoomminus.mouseout"/></use>
    <path d="M-4,0h8" fill="none" stroke="white" stroke-width="1.5" pointer-events="none"/>
  </g>
  <g id="arrowUp" transform="translate(30 24)">
    <use xlink:href="#rim"/>
    <path pointer-events="none" fill="none" stroke="white" stroke-width="1.5" d="M0,-3.0v7 M-2.5,-0.5L0,-3.0L2.5,-0.5"/>
  </g>
  <g id="arrowRight" transform="rotate(90) translate(36 -43)">
    <use xlink:href="#rim"/>
    <path pointer-events="none" fill="none" stroke="white" stroke-width="1.5" d="M0,-3.0v7 M-2.5,-0.5L0,-3.0L2.5,-0.5"/>
  </g>
  <g id="arrowDown" transform="rotate(180) translate(-30 -48)">
    <use xlink:href="#rim"/>
    <path pointer-events="none" fill="none" stroke="white" stroke-width="1.5" d="M0,-3.0v7 M-2.5,-0.5L0,-3.0L2.5,-0.5"/>
  </g>
  <g id="arrowLeft" transform="rotate(270) translate(-36 17)">
    <use xlink:href="#rim"/>
    <path pointer-events="none" fill="none" stroke="white" stroke-width="1.5" d="M0,-3.0v7 M-2.5,-0.5L0,-3.0L2.5,-0.5"/>
  </g>
  <g id="resetDef">
    <use xlink:href="#rim2" fill="#404040"><set attributeName="fill" to="#808080" begin="reset.mouseover" end="reset.mouseout"/></use>
  </g>
</defs>
<script type="application/ecmascript">
var viewWidth = 1629;
var viewHeight = 423;
var sectionId = 'dynsection-1';
</script>
<script type="application/ecmascript" xlink:href="svg.min.js"/>
<svg id="graph" class="graph">
<g id="viewport">
<title>include/mosaic/core/peer_connection_manager.h</title>
<!-- Node1 -->
<g id="Node000001" class="node">
<title>Node1</title>
<g id="a_Node000001"><a xlink:title=" ">
<polygon fill="#999999" stroke="#666666" points="473.5,-415 316.5,-415 316.5,-385 473.5,-385 473.5,-415"/>
<text text-anchor="start" x="324.5" y="-403" font-family="Helvetica,sans-Serif" font-size="10.00">include/mosaic/core</text>
<text text-anchor="middle" x="395" y="-392" font-family="Helvetica,sans-Serif" font-size="10.00">/peer_connection_manager.h</text>
</a>
</g>
</g>
<!-- Node2 -->
<g id="Node000002" class="node">
<title>Node2</title>
<g id="a_Node000002"><a xlink:href="mosaic__connector_8h.html" target="_top" xlink:title=" ">
<polygon fill="white" stroke="#666666" points="453,-349 337,-349 337,-319 453,-319 453,-349"/>
<text text-anchor="start" x="345" y="-337" font-family="Helvetica,sans-Serif" font-size="10.00">include/mosaic/core</text>
<text text-anchor="middle" x="395" y="-326" font-family="Helvetica,sans-Serif" font-size="10.00">/mosaic_connector.h</text>
</a>
</g>
</g>
<!-- Node1&#45;&gt;Node2 -->
<g id="edge1_Node000001_Node000002" class="edge">
<title>Node1&#45;&gt;Node2</title>
<g id="a_edge1_Node000001_Node000002"><a xlink:title=" ">
<path fill="none" stroke="#63b8ff" d="M388.43,-374.83C388.02,-366.17 388.31,-356.7 389.29,-349.16"/>
<polygon fill="#63b8ff" stroke="#63b8ff" points="384.95,-375.13 389.28,-384.8 391.92,-374.54 384.95,-375.13"/>
</a>
</g>
</g>
<!-- Node17 -->
<g id="Node000017" class="node">
<title>Node17</title>
<g id="a_Node000017"><a xlink:href="peer__connection__manager_8cpp.html" target="_top" xlink:title=" ">
<polygon fill="white" stroke="#666666" points="138,-195 0,-195 0,-165 138,-165 138,-195"/>
<text text-anchor="start" x="8" y="-183" font-family="Helvetica,sans-Serif" font-size="10.00">src/core/peer_connection</text>
<text text-anchor="middle" x="69" y="-172" font-family="Helvetica,sans-Serif" font-size="10.00">_manager.cpp</text>
</a>
</g>
</g>
<!-- Node1&#45;&gt;Node17 -->
<g id="edge30_Node000001_Node000017" class="edge">
<title>Node1&#45;&gt;Node17</title>
<g id="a_edge30_Node000001_Node000017"><a xlink:title=" ">
<path fill="none" stroke="#63b8ff" d="M338.13,-381.71C284.34,-363.36 203.38,-330.44 145,-283 113.81,-257.65 88.56,-216.79 76.56,-195.29"/>
<polygon fill="#63b8ff" stroke="#63b8ff" points="337.25,-385.1 347.85,-384.96 339.48,-378.46 337.25,-385.1"/>
</a>
</g>
</g>
<!-- Node2&#45;&gt;Node1 -->
<g id="edge20_Node000002_Node000001" class="edge">
<title>Node2&#45;&gt;Node1</title>
<g id="a_edge20_Node000002_Node000001"><a xlink:title=" ">
<path fill="none" stroke="#63b8ff" d="M401.57,-359.13C401.98,-367.78 401.7,-377.26 400.72,-384.8"/>
<polygon fill="#63b8ff" stroke="#63b8ff" points="405.05,-358.83 400.71,-349.16 398.08,-359.43 405.05,-358.83"/>
</a>
</g>
</g>
<!-- Node3 -->
<g id="Node000003" class="node">
<title>Node3</title>
<g id="a_Node000003"><a xlink:href="i__configurable__connector_8h.html" target="_top" xlink:title=" ">
<polygon fill="white" stroke="#666666" points="1323.5,-283 1174.5,-283 1174.5,-242 1323.5,-242 1323.5,-283"/>
<text text-anchor="start" x="1182.5" y="-271" font-family="Helvetica,sans-Serif" font-size="10.00">include/mosaic/auto</text>
<text text-anchor="start" x="1182.5" y="-260" font-family="Helvetica,sans-Serif" font-size="10.00">_configurer/connector</text>
<text text-anchor="middle" x="1249" y="-249" font-family="Helvetica,sans-Serif" font-size="10.00">/i_configurable_connector.h</text>
</a>
</g>
</g>
<!-- Node2&#45;&gt;Node3 -->
<g id="edge2_Node000002_Node000003" class="edge">
<title>Node2&#45;&gt;Node3</title>
<g id="a_edge2_Node000002_Node000003"><a xlink:title=" ">
<path fill="none" stroke="#63b8ff" d="M463.08,-327.46C620.78,-314.63 1010.16,-282.94 1174.21,-269.59"/>
<polygon fill="#63b8ff" stroke="#63b8ff" points="462.71,-323.98 453.03,-328.28 463.28,-330.95 462.71,-323.98"/>
</a>
</g>
</g>
<!-- Node13 -->
<g id="Node000013" class="node">
<title>Node13</title>
<g id="a_Node000013"><a xlink:href="mosaic__connector__factory_8h.html" target="_top" xlink:title=" ">
<polygon fill="white" stroke="#666666" points="795.5,-277.5 640.5,-277.5 640.5,-247.5 795.5,-247.5 795.5,-277.5"/>
<text text-anchor="start" x="648.5" y="-265.5" font-family="Helvetica,sans-Serif" font-size="10.00">include/mosaic/core</text>
<text text-anchor="middle" x="718" y="-254.5" font-family="Helvetica,sans-Serif" font-size="10.00">/mosaic_connector_factory.h</text>
</a>
</g>
</g>
<!-- Node2&#45;&gt;Node13 -->
<g id="edge17_Node000002_Node000013" class="edge">
<title>Node2&#45;&gt;Node13</title>
<g id="a_edge17_Node000002_Node000013"><a xlink:title=" ">
<path fill="none" stroke="#63b8ff" d="M462.85,-318.97C510.27,-309.09 575.05,-295.46 632,-283 639.93,-281.27 648.26,-279.41 656.48,-277.57"/>
<polygon fill="#63b8ff" stroke="#63b8ff" points="462.08,-315.55 453,-321.02 463.51,-322.41 462.08,-315.55"/>
</a>
</g>
</g>
<!-- Node15 -->
<g id="Node000015" class="node">
<title>Node15</title>
<g id="a_Node000015"><a xlink:href="peer__connection__observer_8h.html" target="_top" xlink:title=" ">
<polygon fill="white" stroke="#666666" points="310,-277.5 154,-277.5 154,-247.5 310,-247.5 310,-277.5"/>
<text text-anchor="start" x="162" y="-265.5" font-family="Helvetica,sans-Serif" font-size="10.00">include/mosaic/core</text>
<text text-anchor="middle" x="232" y="-254.5" font-family="Helvetica,sans-Serif" font-size="10.00">/peer_connection_observer.h</text>
</a>
</g>
</g>
<!-- Node2&#45;&gt;Node15 -->
<g id="edge21_Node000002_Node000015" class="edge">
<title>Node2&#45;&gt;Node15</title>
<g id="a_edge21_Node000002_Node000015"><a xlink:title=" ">
<path fill="none" stroke="#63b8ff" d="M352.69,-314.96C325.32,-303.29 290.22,-288.32 264.94,-277.54"/>
<polygon fill="#63b8ff" stroke="#63b8ff" points="351.44,-318.23 362.01,-318.94 354.19,-311.79 351.44,-318.23"/>
</a>
</g>
</g>
<!-- Node16 -->
<g id="Node000016" class="node">
<title>Node16</title>
<g id="a_Node000016"><a xlink:href="mosaic__connector_8cpp.html" target="_top" xlink:title=" ">
<polygon fill="white" stroke="#666666" points="478,-189.5 312,-189.5 312,-170.5 478,-170.5 478,-189.5"/>
<text text-anchor="middle" x="395" y="-177.5" font-family="Helvetica,sans-Serif" font-size="10.00">src/core/mosaic_connector.cpp</text>
</a>
</g>
</g>
<!-- Node2&#45;&gt;Node16 -->
<g id="edge28_Node000002_Node000016" class="edge">
<title>Node2&#45;&gt;Node16</title>
<g id="a_edge28_Node000002_Node000016"><a xlink:title=" ">
<path fill="none" stroke="#63b8ff" d="M395,-308.81C395,-274.29 395,-212.57 395,-189.77"/>
<polygon fill="#63b8ff" stroke="#63b8ff" points="391.5,-308.97 395,-318.97 398.5,-308.97 391.5,-308.97"/>
</a>
</g>
</g>
<!-- Node18 -->
<g id="Node000018" class="node">
<title>Node18</title>
<g id="a_Node000018"><a xlink:href="peer__connection__observer_8cpp.html" target="_top" xlink:title=" ">
<polygon fill="white" stroke="#666666" points="294,-195 156,-195 156,-165 294,-165 294,-195"/>
<text text-anchor="start" x="164" y="-183" font-family="Helvetica,sans-Serif" font-size="10.00">src/core/peer_connection</text>
<text text-anchor="middle" x="225" y="-172" font-family="Helvetica,sans-Serif" font-size="10.00">_observer.cpp</text>
</a>
</g>
</g>
<!-- Node2&#45;&gt;Node18 -->
<g id="edge29_Node000002_Node000018" class="edge">
<title>Node2&#45;&gt;Node18</title>
<g id="a_edge29_Node000002_Node000018"><a xlink:title=" ">
<path fill="none" stroke="#63b8ff" d="M379.33,-310.66C365,-291.18 342.51,-262.84 319,-242 298.04,-223.42 270.91,-206.44 251.2,-195.14"/>
<polygon fill="#63b8ff" stroke="#63b8ff" points="376.62,-312.88 385.32,-318.93 382.29,-308.78 376.62,-312.88"/>
</a>
</g>
</g>
<!-- Node19 -->
<g id="Node000019" class="node">
<title>Node19</title>
<g id="a_Node000019"><a xlink:href="signaling__client_8h.html" target="_top" xlink:title=" ">
<polygon fill="white" stroke="#666666" points="622.5,-277.5 485.5,-277.5 485.5,-247.5 622.5,-247.5 622.5,-277.5"/>
<text text-anchor="start" x="493.5" y="-265.5" font-family="Helvetica,sans-Serif" font-size="10.00">include/mosaic/signaling</text>
<text text-anchor="middle" x="554" y="-254.5" font-family="Helvetica,sans-Serif" font-size="10.00">/signaling_client.h</text>
</a>
</g>
</g>
<!-- Node2&#45;&gt;Node19 -->
<g id="edge25_Node000002_Node000019" class="edge">
<title>Node2&#45;&gt;Node19</title>
<g id="a_edge25_Node000002_Node000019"><a xlink:title=" ">
<path fill="none" stroke="#63b8ff" d="M436.63,-314.81C463.27,-303.16 497.32,-288.28 521.87,-277.54"/>
<polygon fill="#63b8ff" stroke="#63b8ff" points="434.94,-311.72 427.18,-318.94 437.74,-318.14 434.94,-311.72"/>
</a>
</g>
</g>
<!-- Node4 -->
<g id="Node000004" class="node">
<title>Node4</title>
<g id="a_Node000004"><a xlink:href="auto__configurer_8h.html" target="_top" xlink:title=" ">
<polygon fill="white" stroke="#666666" points="1000,-107 842,-107 842,-77 1000,-77 1000,-107"/>
<text text-anchor="start" x="850" y="-95" font-family="Helvetica,sans-Serif" font-size="10.00">include/mosaic/auto</text>
<text text-anchor="middle" x="921" y="-84" font-family="Helvetica,sans-Serif" font-size="10.00">_configurer/auto_configurer.h</text>
</a>
</g>
</g>
<!-- Node3&#45;&gt;Node4 -->
<g id="edge3_Node000003_Node000004" class="edge">
<title>Node3&#45;&gt;Node4</title>
<g id="a_edge3_Node000003_Node000004"><a xlink:title=" ">
<path fill="none" stroke="#63b8ff" d="M1201.73,-237.22C1132.21,-201.5 1004.58,-135.93 948.57,-107.16"/>
<polygon fill="#63b8ff" stroke="#63b8ff" points="1200.24,-240.38 1210.73,-241.84 1203.44,-234.16 1200.24,-240.38"/>
</a>
</g>
</g>
<!-- Node6 -->
<g id="Node000006" class="node">
<title>Node6</title>
<g id="a_Node000006"><a xlink:href="a__dc__handler__configurer_8h.html" target="_top" xlink:title=" ">
<polygon fill="white" stroke="#666666" points="1164,-112.5 1018,-112.5 1018,-71.5 1164,-71.5 1164,-112.5"/>
<text text-anchor="start" x="1026" y="-100.5" font-family="Helvetica,sans-Serif" font-size="10.00">include/mosaic/auto</text>
<text text-anchor="start" x="1026" y="-89.5" font-family="Helvetica,sans-Serif" font-size="10.00">_configurer/connector</text>
<text text-anchor="middle" x="1091" y="-78.5" font-family="Helvetica,sans-Serif" font-size="10.00">/a_dc_handler_configurer.h</text>
</a>
</g>
</g>
<!-- Node3&#45;&gt;Node6 -->
<g id="edge5_Node000003_Node000006" class="edge">
<title>Node3&#45;&gt;Node6</title>
<g id="a_edge5_Node000003_Node000006"><a xlink:title=" ">
<path fill="none" stroke="#63b8ff" d="M1223.72,-234.54C1191.77,-200.47 1137.55,-142.64 1109.32,-112.53"/>
<polygon fill="#63b8ff" stroke="#63b8ff" points="1221.17,-236.94 1230.57,-241.84 1226.28,-232.15 1221.17,-236.94"/>
</a>
</g>
</g>
<!-- Node7 -->
<g id="Node000007" class="node">
<title>Node7</title>
<g id="a_Node000007"><a xlink:href="a__mt__handler__configurer_8h.html" target="_top" xlink:title=" ">
<polygon fill="white" stroke="#666666" points="1331.5,-112.5 1182.5,-112.5 1182.5,-71.5 1331.5,-71.5 1331.5,-112.5"/>
<text text-anchor="start" x="1190.5" y="-100.5" font-family="Helvetica,sans-Serif" font-size="10.00">include/mosaic/auto</text>
<text text-anchor="start" x="1190.5" y="-89.5" font-family="Helvetica,sans-Serif" font-size="10.00">_configurer/connector</text>
<text text-anchor="middle" x="1257" y="-78.5" font-family="Helvetica,sans-Serif" font-size="10.00">/a_mt_handler_configurer.h</text>
</a>
</g>
</g>
<!-- Node3&#45;&gt;Node7 -->
<g id="edge7_Node000003_Node000007" class="edge">
<title>Node3&#45;&gt;Node7</title>
<g id="a_edge7_Node000003_Node000007"><a xlink:title=" ">
<path fill="none" stroke="#63b8ff" d="M1227.67,-233.36C1222.49,-224.99 1217.68,-215.5 1215,-206 1208.73,-183.76 1208.14,-176.07 1215,-154 1219.77,-138.65 1229.9,-123.75 1239.01,-112.52"/>
<polygon fill="#63b8ff" stroke="#63b8ff" points="1224.91,-235.53 1233.35,-241.95 1230.75,-231.67 1224.91,-235.53"/>
</a>
</g>
</g>
<!-- Node8 -->
<g id="Node000008" class="node">
<title>Node8</title>
<g id="a_Node000008"><a xlink:href="a__parallel__dc__handler__configurer_8h.html" target="_top" xlink:title=" ">
<polygon fill="white" stroke="#666666" points="1476,-118 1350,-118 1350,-66 1476,-66 1476,-118"/>
<text text-anchor="start" x="1358" y="-106" font-family="Helvetica,sans-Serif" font-size="10.00">include/mosaic/auto</text>
<text text-anchor="start" x="1358" y="-95" font-family="Helvetica,sans-Serif" font-size="10.00">_configurer/connector</text>
<text text-anchor="start" x="1358" y="-84" font-family="Helvetica,sans-Serif" font-size="10.00">/a_parallel_dc_handler</text>
<text text-anchor="middle" x="1413" y="-73" font-family="Helvetica,sans-Serif" font-size="10.00">_configurer.h</text>
</a>
</g>
</g>
<!-- Node3&#45;&gt;Node8 -->
<g id="edge9_Node000003_Node000008" class="edge">
<title>Node3&#45;&gt;Node8</title>
<g id="a_edge9_Node000003_Node000008"><a xlink:title=" ">
<path fill="none" stroke="#63b8ff" d="M1333.36,-245.47C1356.09,-237.24 1378.61,-224.8 1394,-206 1414.16,-181.37 1416.54,-143.39 1415.49,-118.36"/>
<polygon fill="#63b8ff" stroke="#63b8ff" points="1331.99,-242.24 1323.63,-248.75 1334.22,-248.87 1331.99,-242.24"/>
</a>
</g>
</g>
<!-- Node9 -->
<g id="Node000009" class="node">
<title>Node9</title>
<g id="a_Node000009"><a xlink:href="configurable__connector__factory_8h.html" target="_top" xlink:title=" ">
<polygon fill="white" stroke="#666666" points="1619.5,-206 1486.5,-206 1486.5,-154 1619.5,-154 1619.5,-206"/>
<text text-anchor="start" x="1494.5" y="-194" font-family="Helvetica,sans-Serif" font-size="10.00">include/mosaic/auto</text>
<text text-anchor="start" x="1494.5" y="-183" font-family="Helvetica,sans-Serif" font-size="10.00">_configurer/connector</text>
<text text-anchor="start" x="1494.5" y="-172" font-family="Helvetica,sans-Serif" font-size="10.00">/configurable_connector</text>
<text text-anchor="middle" x="1553" y="-161" font-family="Helvetica,sans-Serif" font-size="10.00">_factory.h</text>
</a>
</g>
</g>
<!-- Node3&#45;&gt;Node9 -->
<g id="edge11_Node000003_Node000009" class="edge">
<title>Node3&#45;&gt;Node9</title>
<g id="a_edge11_Node000003_Node000009"><a xlink:title=" ">
<path fill="none" stroke="#63b8ff" d="M1333.57,-240.86C1374.3,-230.72 1423.79,-218.1 1468,-206 1473.93,-204.38 1480.09,-202.65 1486.25,-200.89"/>
<polygon fill="#63b8ff" stroke="#63b8ff" points="1332.55,-237.51 1323.69,-243.32 1334.23,-244.3 1332.55,-237.51"/>
</a>
</g>
</g>
<!-- Node10 -->
<g id="Node000010" class="node">
<title>Node10</title>
<g id="a_Node000010"><a xlink:href="connector__resolver_8h.html" target="_top" xlink:title=" ">
<polygon fill="white" stroke="#666666" points="1616,-112.5 1494,-112.5 1494,-71.5 1616,-71.5 1616,-112.5"/>
<text text-anchor="start" x="1502" y="-100.5" font-family="Helvetica,sans-Serif" font-size="10.00">include/mosaic/auto</text>
<text text-anchor="start" x="1502" y="-89.5" font-family="Helvetica,sans-Serif" font-size="10.00">_configurer/connector</text>
<text text-anchor="middle" x="1555" y="-78.5" font-family="Helvetica,sans-Serif" font-size="10.00">/connector_resolver.h</text>
</a>
</g>
</g>
<!-- Node3&#45;&gt;Node10 -->
<g id="edge15_Node000003_Node000010" class="edge">
<title>Node3&#45;&gt;Node10</title>
<g id="a_edge15_Node000003_Node000010"><a xlink:title=" ">
<path fill="none" stroke="#63b8ff" d="M1333.2,-240.67C1360.87,-232.02 1391.14,-220.55 1417,-206 1448.05,-188.53 1450.48,-176.62 1478,-154 1495.13,-139.92 1514.72,-124.41 1529.85,-112.55"/>
<polygon fill="#63b8ff" stroke="#63b8ff" points="1332.09,-237.35 1323.54,-243.61 1334.12,-244.05 1332.09,-237.35"/>
</a>
</g>
</g>
<!-- Node12 -->
<g id="Node000012" class="node">
<title>Node12</title>
<g id="a_Node000012"><a xlink:href="i__configurable__connector_8cpp.html" target="_top" xlink:title=" ">
<polygon fill="white" stroke="#666666" points="1384.5,-195 1223.5,-195 1223.5,-165 1384.5,-165 1384.5,-195"/>
<text text-anchor="start" x="1231.5" y="-183" font-family="Helvetica,sans-Serif" font-size="10.00">src/auto_configurer</text>
<text text-anchor="middle" x="1304" y="-172" font-family="Helvetica,sans-Serif" font-size="10.00">/i_configurable_connector.cpp</text>
</a>
</g>
</g>
<!-- Node3&#45;&gt;Node12 -->
<g id="edge16_Node000003_Node000012" class="edge">
<title>Node3&#45;&gt;Node12</title>
<g id="a_edge16_Node000003_Node000012"><a xlink:title=" ">
<path fill="none" stroke="#63b8ff" d="M1268.4,-233.11C1277.12,-220.35 1287.04,-205.83 1294.18,-195.37"/>
<polygon fill="#63b8ff" stroke="#63b8ff" points="1265.35,-231.37 1262.6,-241.6 1271.13,-235.32 1265.35,-231.37"/>
</a>
</g>
</g>
<!-- Node5 -->
<g id="Node000005" class="node">
<title>Node5</title>
<g id="a_Node000005"><a xlink:href="auto__configurer_8cpp.html" target="_top" xlink:title=" ">
<polygon fill="white" stroke="#666666" points="1231.5,-30 1116.5,-30 1116.5,0 1231.5,0 1231.5,-30"/>
<text text-anchor="start" x="1124.5" y="-18" font-family="Helvetica,sans-Serif" font-size="10.00">src/auto_configurer</text>
<text text-anchor="middle" x="1174" y="-7" font-family="Helvetica,sans-Serif" font-size="10.00">/auto_configurer.cpp</text>
</a>
</g>
</g>
<!-- Node4&#45;&gt;Node5 -->
<g id="edge4_Node000004_Node000005" class="edge">
<title>Node4&#45;&gt;Node5</title>
<g id="a_edge4_Node000004_Node000005"><a xlink:title=" ">
<path fill="none" stroke="#63b8ff" d="M978.14,-74.06C1022.9,-60.79 1084.43,-42.55 1126.51,-30.08"/>
<polygon fill="#63b8ff" stroke="#63b8ff" points="976.88,-70.78 968.29,-76.98 978.87,-77.49 976.88,-70.78"/>
</a>
</g>
</g>
<!-- Node6&#45;&gt;Node5 -->
<g id="edge6_Node000006_Node000005" class="edge">
<title>Node6&#45;&gt;Node5</title>
<g id="a_edge6_Node000006_Node000005"><a xlink:title=" ">
<path fill="none" stroke="#63b8ff" d="M1120.5,-64.34C1133.28,-52.8 1147.71,-39.75 1158.37,-30.13"/>
<polygon fill="#63b8ff" stroke="#63b8ff" points="1117.88,-61.99 1112.81,-71.29 1122.57,-67.19 1117.88,-61.99"/>
</a>
</g>
</g>
<!-- Node7&#45;&gt;Node5 -->
<g id="edge8_Node000007_Node000005" class="edge">
<title>Node7&#45;&gt;Node5</title>
<g id="a_edge8_Node000007_Node000005"><a xlink:title=" ">
<path fill="none" stroke="#63b8ff" d="M1227.5,-64.34C1214.72,-52.8 1200.29,-39.75 1189.63,-30.13"/>
<polygon fill="#63b8ff" stroke="#63b8ff" points="1225.43,-67.19 1235.19,-71.29 1230.12,-61.99 1225.43,-67.19"/>
</a>
</g>
</g>
<!-- Node8&#45;&gt;Node5 -->
<g id="edge10_Node000008_Node000005" class="edge">
<title>Node8&#45;&gt;Node5</title>
<g id="a_edge10_Node000008_Node000005"><a xlink:title=" ">
<path fill="none" stroke="#63b8ff" d="M1340.26,-65.81C1295.61,-51.48 1254.28,-39.18 1223.13,-30.1"/>
<polygon fill="#63b8ff" stroke="#63b8ff" points="1339.24,-69.16 1349.84,-68.89 1341.39,-62.5 1339.24,-69.16"/>
</a>
</g>
</g>
<!-- Node9&#45;&gt;Node10 -->
<g id="edge12_Node000009_Node000010" class="edge">
<title>Node9&#45;&gt;Node10</title>
<g id="a_edge12_Node000009_Node000010"><a xlink:title=" ">
<path fill="none" stroke="#63b8ff" d="M1553.83,-143.45C1554.07,-132.94 1554.33,-121.82 1554.54,-112.7"/>
<polygon fill="#63b8ff" stroke="#63b8ff" points="1550.32,-143.58 1553.59,-153.66 1557.32,-143.75 1550.32,-143.58"/>
</a>
</g>
</g>
<!-- Node10&#45;&gt;Node5 -->
<g id="edge13_Node000010_Node000005" class="edge">
<title>Node10&#45;&gt;Node5</title>
<g id="a_edge13_Node000010_Node000005"><a xlink:title=" ">
<path fill="none" stroke="#63b8ff" d="M1494.02,-68.49C1490.98,-67.6 1487.97,-66.76 1485,-66 1398,-43.67 1294.61,-29.41 1231.68,-22.06"/>
<polygon fill="#63b8ff" stroke="#63b8ff" points="1493.14,-71.88 1503.73,-71.48 1495.2,-65.19 1493.14,-71.88"/>
</a>
</g>
</g>
<!-- Node11 -->
<g id="Node000011" class="node">
<title>Node11</title>
<g id="a_Node000011"><a xlink:href="connector__resolver_8cpp.html" target="_top" xlink:title=" ">
<polygon fill="white" stroke="#666666" points="1621,-30 1489,-30 1489,0 1621,0 1621,-30"/>
<text text-anchor="start" x="1497" y="-18" font-family="Helvetica,sans-Serif" font-size="10.00">src/auto_configurer</text>
<text text-anchor="middle" x="1555" y="-7" font-family="Helvetica,sans-Serif" font-size="10.00">/connector_resolver.cpp</text>
</a>
</g>
</g>
<!-- Node10&#45;&gt;Node11 -->
<g id="edge14_Node000010_Node000011" class="edge">
<title>Node10&#45;&gt;Node11</title>
<g id="a_edge14_Node000010_Node000011"><a xlink:title=" ">
<path fill="none" stroke="#63b8ff" d="M1555,-61.11C1555,-50.51 1555,-39.07 1555,-30.36"/>
<polygon fill="#63b8ff" stroke="#63b8ff" points="1551.5,-61.29 1555,-71.29 1558.5,-61.29 1551.5,-61.29"/>
</a>
</g>
</g>
<!-- Node13&#45;&gt;Node5 -->
<g id="edge18_Node000013_Node000005" class="edge">
<title>Node13&#45;&gt;Node5</title>
<g id="a_edge18_Node000013_Node000005"><a xlink:title=" ">
<path fill="none" stroke="#63b8ff" d="M755.1,-242.09C769.44,-232.9 784.82,-220.7 795,-206 831.7,-152.99 784.77,-108.79 833,-66 873.9,-29.72 1030.18,-19.76 1116.27,-17.03"/>
<polygon fill="#63b8ff" stroke="#63b8ff" points="753.08,-239.23 746.36,-247.42 756.72,-245.21 753.08,-239.23"/>
</a>
</g>
</g>
<!-- Node14 -->
<g id="Node000014" class="node">
<title>Node14</title>
<g id="a_Node000014"><a xlink:href="mosaic__connector__factory_8cpp.html" target="_top" xlink:title=" ">
<polygon fill="white" stroke="#666666" points="786,-195 640,-195 640,-165 786,-165 786,-195"/>
<text text-anchor="start" x="648" y="-183" font-family="Helvetica,sans-Serif" font-size="10.00">src/core/mosaic_connector</text>
<text text-anchor="middle" x="713" y="-172" font-family="Helvetica,sans-Serif" font-size="10.00">_factory.cpp</text>
</a>
</g>
</g>
<!-- Node13&#45;&gt;Node14 -->
<g id="edge19_Node000013_Node000014" class="edge">
<title>Node13&#45;&gt;Node14</title>
<g id="a_edge19_Node000013_Node000014"><a xlink:title=" ">
<path fill="none" stroke="#63b8ff" d="M716.49,-237.24C715.64,-223.48 714.6,-206.75 713.88,-195.13"/>
<polygon fill="#63b8ff" stroke="#63b8ff" points="713.02,-237.71 717.13,-247.48 720,-237.28 713.02,-237.71"/>
</a>
</g>
</g>
<!-- Node15&#45;&gt;Node16 -->
<g id="edge22_Node000015_Node000016" class="edge">
<title>Node15&#45;&gt;Node16</title>
<g id="a_edge22_Node000015_Node000016"><a xlink:title=" ">
<path fill="none" stroke="#63b8ff" d="M269.54,-242.96C303.44,-226.22 351.82,-202.33 377.47,-189.66"/>
<polygon fill="#63b8ff" stroke="#63b8ff" points="267.81,-239.91 260.39,-247.48 270.91,-246.19 267.81,-239.91"/>
</a>
</g>
</g>
<!-- Node15&#45;&gt;Node17 -->
<g id="edge23_Node000015_Node000017" class="edge">
<title>Node15&#45;&gt;Node17</title>
<g id="a_edge23_Node000015_Node000017"><a xlink:title=" ">
<path fill="none" stroke="#63b8ff" d="M194.45,-242.95C164.96,-228.39 124.52,-208.42 97.61,-195.13"/>
<polygon fill="#63b8ff" stroke="#63b8ff" points="193.09,-246.19 203.61,-247.48 196.19,-239.91 193.09,-246.19"/>
</a>
</g>
</g>
<!-- Node15&#45;&gt;Node18 -->
<g id="edge24_Node000015_Node000018" class="edge">
<title>Node15&#45;&gt;Node18</title>
<g id="a_edge24_Node000015_Node000018"><a xlink:title=" ">
<path fill="none" stroke="#63b8ff" d="M229.89,-237.24C228.69,-223.48 227.24,-206.75 226.23,-195.13"/>
<polygon fill="#63b8ff" stroke="#63b8ff" points="226.43,-237.82 230.78,-247.48 233.4,-237.21 226.43,-237.82"/>
</a>
</g>
</g>
<!-- Node19&#45;&gt;Node14 -->
<g id="edge26_Node000019_Node000014" class="edge">
<title>Node19&#45;&gt;Node14</title>
<g id="a_edge26_Node000019_Node000014"><a xlink:title=" ">
<path fill="none" stroke="#63b8ff" d="M590.63,-242.95C619.39,-228.39 658.84,-208.42 685.09,-195.13"/>
<polygon fill="#63b8ff" stroke="#63b8ff" points="589.04,-239.84 581.7,-247.48 592.2,-246.08 589.04,-239.84"/>
</a>
</g>
</g>
<!-- Node20 -->
<g id="Node000020" class="node">
<title>Node20</title>
<g id="a_Node000020"><a xlink:href="signaling__client_8cpp.html" target="_top" xlink:title=" ">
<polygon fill="white" stroke="#666666" points="621.5,-195 496.5,-195 496.5,-165 621.5,-165 621.5,-195"/>
<text text-anchor="start" x="504.5" y="-183" font-family="Helvetica,sans-Serif" font-size="10.00">src/signaling/signaling</text>
<text text-anchor="middle" x="559" y="-172" font-family="Helvetica,sans-Serif" font-size="10.00">_client.cpp</text>
</a>
</g>
</g>
<!-- Node19&#45;&gt;Node20 -->
<g id="edge27_Node000019_Node000020" class="edge">
<title>Node19&#45;&gt;Node20</title>
<g id="a_edge27_Node000019_Node000020"><a xlink:title=" ">
<path fill="none" stroke="#63b8ff" d="M555.51,-237.24C556.36,-223.48 557.4,-206.75 558.12,-195.13"/>
<polygon fill="#63b8ff" stroke="#63b8ff" points="552,-237.28 554.87,-247.48 558.98,-237.71 552,-237.28"/>
</a>
</g>
</g>
</g>
</svg>

<g id="navigator" transform="translate(0 0)" fill="#404254">
  <rect fill="#f2f5e9" fill-opacity="0.5" stroke="#606060" stroke-width=".5" x="0" y="0" width="60" height="60"/>
  <use id="zoomplus" xlink:href="#zoomPlus" x="17" y="9" onmousedown="handleZoom(evt,'in')"/>
  <use id="zoomminus" xlink:href="#zoomMin" x="42" y="9" onmousedown="handleZoom(evt,'out')"/>
  <use id="reset" xlink:href="#resetDef" x="30" y="36" onmousedown="handleReset()"/>
   <use id="arrowup" xlink:href="#arrowUp" x="0" y="0" onmousedown="handlePan(0,-1)"/>
  <use id="arrowright" xlink:href="#arrowRight" x="0" y="0" onmousedown="handlePan(1,0)"/>
  <use id="arrowdown" xlink:href="#arrowDown" x="0" y="0" onmousedown="handlePan(0,1)"/>
  <use id="arrowleft" xlink:href="#arrowLeft" x="0" y="0" onmousedown="handlePan(-1,0)"/>
</g>
<svg viewBox="0 0 15 15" width="100%" height="30px" preserveAspectRatio="xMaxYMin meet">
 <g id="arrow_out" transform="scale(0.3 0.3)">
  <a xlink:href="peer__connection__manager_8h__dep__incl_org.svg" target="_base">
   <rect id="button" ry="5" rx="5" y="6" x="6" height="38" width="38"
        fill="#f2f5e9" fill-opacity="0.5" stroke="#606060" stroke-width="1.0"/>
   <path id="arrow"
     d="M 11.500037,31.436501 C 11.940474,20.09759 22.043105,11.32322 32.158766,21.979434 L 37.068811,17.246167 C 37.068811,17.246167 37.088388,32 37.088388,32 L 22.160133,31.978069 C 22.160133,31.978069 26.997745,27.140456 26.997745,27.140456 C 18.528582,18.264221 13.291696,25.230495 11.500037,31.436501 z"
     style="fill:#404040;"/>
  </a>
 </g>
</svg>

<style type='text/css'>
<![CDATA[
[data-mouse-over-selected='false'] { opacity: 0.7; }
[data-mouse-over-selected='true']  { opacity: 1.0; }
]]>
</style>
<script type="application/ecmascript"><![CDATA[
document.addEventListener('DOMContentLoaded', (event) => {
  highlightEdges();
  highlightAdjacentNodes();
});
]]></script>
</svg>
