<?xml version="1.0" encoding="UTF-8" standalone="no"?>
<!DOCTYPE svg PUBLIC "-//W3C//DTD SVG 1.1//EN"
 "http://www.w3.org/Graphics/SVG/1.1/DTD/svg11.dtd">
<!-- Generated by graphviz version 2.43.0 (0)
 -->
<!-- Title: src/core/peer_connection_observer.cpp Pages: 1 -->
<svg width="1120pt" height="511pt"
 viewBox="0.00 0.00 1120.00 511.00" xmlns="http://www.w3.org/2000/svg" xmlns:xlink="http://www.w3.org/1999/xlink">
<g id="graph0" class="graph" transform="scale(1 1) rotate(0) translate(4 507)">
<title>src/core/peer_connection_observer.cpp</title>
<!-- Node1 -->
<g id="Node000001" class="node">
<title>Node1</title>
<g id="a_Node000001"><a xlink:title=" ">
<polygon fill="#999999" stroke="#666666" points="609.5,-503 471.5,-503 471.5,-473 609.5,-473 609.5,-503"/>
<text text-anchor="start" x="479.5" y="-491" font-family="Helvetica,sans-Serif" font-size="10.00">src/core/peer_connection</text>
<text text-anchor="middle" x="540.5" y="-480" font-family="Helvetica,sans-Serif" font-size="10.00">_observer.cpp</text>
</a>
</g>
</g>
<!-- Node2 -->
<g id="Node000002" class="node">
<title>Node2</title>
<g id="a_Node000002"><a xlink:href="mosaic__connector_8h.html" target="_top" xlink:title=" ">
<polygon fill="white" stroke="#666666" points="651.5,-371 537.5,-371 537.5,-341 651.5,-341 651.5,-371"/>
<text text-anchor="start" x="545.5" y="-359" font-family="Helvetica,sans-Serif" font-size="10.00">mosaic/core/mosaic</text>
<text text-anchor="middle" x="594.5" y="-348" font-family="Helvetica,sans-Serif" font-size="10.00">_connector.h</text>
</a>
</g>
</g>
<!-- Node1&#45;&gt;Node2 -->
<g id="edge1_Node000001_Node000002" class="edge">
<title>Node1&#45;&gt;Node2</title>
<g id="a_edge1_Node000001_Node000002"><a xlink:title=" ">
<path fill="none" stroke="#63b8ff" d="M542.21,-472.9C544.56,-456.49 549.68,-428.88 559.5,-407 563.82,-397.39 570.06,-387.7 576.08,-379.44"/>
<polygon fill="#63b8ff" stroke="#63b8ff" points="578.92,-381.49 582.19,-371.42 573.35,-377.25 578.92,-381.49"/>
</a>
</g>
</g>
<!-- Node18 -->
<g id="Node000018" class="node">
<title>Node18</title>
<g id="a_Node000018"><a xlink:href="log_8h.html" target="_top" xlink:title=" ">
<polygon fill="white" stroke="#666666" points="230,-217 117,-217 117,-198 230,-198 230,-217"/>
<text text-anchor="middle" x="173.5" y="-205" font-family="Helvetica,sans-Serif" font-size="10.00">mosaic/logger/log.h</text>
</a>
</g>
</g>
<!-- Node1&#45;&gt;Node18 -->
<g id="edge47_Node000001_Node000018" class="edge">
<title>Node1&#45;&gt;Node18</title>
<g id="a_edge47_Node000001_Node000018"><a xlink:title=" ">
<path fill="none" stroke="#63b8ff" d="M509.34,-472.85C452.33,-445.93 329.29,-383.02 244.5,-305 218.47,-281.05 195.69,-246.33 183.33,-225.72"/>
<polygon fill="#63b8ff" stroke="#63b8ff" points="186.35,-223.95 178.27,-217.09 180.31,-227.49 186.35,-223.95"/>
</a>
</g>
</g>
<!-- Node26 -->
<g id="Node000026" class="node">
<title>Node26</title>
<g id="a_Node000026"><a xlink:href="peer__connection__observer_8h.html" target="_top" xlink:title=" ">
<polygon fill="white" stroke="#666666" points="727,-437 568,-437 568,-407 727,-407 727,-437"/>
<text text-anchor="start" x="576" y="-425" font-family="Helvetica,sans-Serif" font-size="10.00">mosaic/core/peer_connection</text>
<text text-anchor="middle" x="647.5" y="-414" font-family="Helvetica,sans-Serif" font-size="10.00">_observer.h</text>
</a>
</g>
</g>
<!-- Node1&#45;&gt;Node26 -->
<g id="edge44_Node000001_Node000026" class="edge">
<title>Node1&#45;&gt;Node26</title>
<g id="a_edge44_Node000001_Node000026"><a xlink:title=" ">
<path fill="none" stroke="#63b8ff" d="M563.98,-472.95C579.03,-463.95 598.77,-452.14 615.28,-442.27"/>
<polygon fill="#63b8ff" stroke="#63b8ff" points="617.29,-445.15 624.07,-437.01 613.69,-439.14 617.29,-445.15"/>
</a>
</g>
</g>
<!-- Node3 -->
<g id="Node000003" class="node">
<title>Node3</title>
<g id="a_Node000003"><a xlink:title=" ">
<polygon fill="#e0e0e0" stroke="#999999" points="765.5,-294 727.5,-294 727.5,-275 765.5,-275 765.5,-294"/>
<text text-anchor="middle" x="746.5" y="-282" font-family="Helvetica,sans-Serif" font-size="10.00">map</text>
</a>
</g>
</g>
<!-- Node2&#45;&gt;Node3 -->
<g id="edge2_Node000002_Node000003" class="edge">
<title>Node2&#45;&gt;Node3</title>
<g id="a_edge2_Node000002_Node000003"><a xlink:title=" ">
<path fill="none" stroke="#63b8ff" d="M636.04,-340.91C660.64,-331.93 692.06,-319.3 718.5,-305 721.33,-303.47 724.21,-301.71 727.01,-299.9"/>
<polygon fill="#63b8ff" stroke="#63b8ff" points="729.19,-302.64 735.43,-294.07 725.21,-296.88 729.19,-302.64"/>
</a>
</g>
</g>
<!-- Node4 -->
<g id="Node000004" class="node">
<title>Node4</title>
<g id="a_Node000004"><a xlink:title=" ">
<polygon fill="#e0e0e0" stroke="#999999" points="325.5,-19 267.5,-19 267.5,0 325.5,0 325.5,-19"/>
<text text-anchor="middle" x="296.5" y="-7" font-family="Helvetica,sans-Serif" font-size="10.00">memory</text>
</a>
</g>
</g>
<!-- Node2&#45;&gt;Node4 -->
<g id="edge3_Node000002_Node000004" class="edge">
<title>Node2&#45;&gt;Node4</title>
<g id="a_edge3_Node000002_Node000004"><a xlink:title=" ">
<path fill="none" stroke="#63b8ff" d="M537.12,-354.85C441.16,-351.25 258.5,-328.61 258.5,-208.5 258.5,-208.5 258.5,-208.5 258.5,-135 258.5,-95.63 276.1,-52.18 287.34,-28.45"/>
<polygon fill="#63b8ff" stroke="#63b8ff" points="290.58,-29.8 291.84,-19.28 284.29,-26.71 290.58,-29.8"/>
</a>
</g>
</g>
<!-- Node5 -->
<g id="Node000005" class="node">
<title>Node5</title>
<g id="a_Node000005"><a xlink:title=" ">
<polygon fill="#e0e0e0" stroke="#999999" points="665.5,-19 621.5,-19 621.5,0 665.5,0 665.5,-19"/>
<text text-anchor="middle" x="643.5" y="-7" font-family="Helvetica,sans-Serif" font-size="10.00">string</text>
</a>
</g>
</g>
<!-- Node2&#45;&gt;Node5 -->
<g id="edge4_Node000002_Node000005" class="edge">
<title>Node2&#45;&gt;Node5</title>
<g id="a_edge4_Node000002_Node000005"><a xlink:title=" ">
<path fill="none" stroke="#63b8ff" d="M651.74,-341.79C695.96,-331.09 753.1,-316.04 774.5,-305 822.81,-280.09 842.6,-275.23 869.5,-228 901.29,-172.18 885.82,-149.07 890.5,-85 891.47,-71.7 899.05,-65.23 890.5,-55 863.48,-22.67 736.33,-13.79 675.75,-11.38"/>
<polygon fill="#63b8ff" stroke="#63b8ff" points="675.71,-7.88 665.59,-11.01 675.46,-14.87 675.71,-7.88"/>
</a>
</g>
</g>
<!-- Node6 -->
<g id="Node000006" class="node">
<title>Node6</title>
<g id="a_Node000006"><a xlink:href="connector__state__manager_8h.html" target="_top" xlink:title=" ">
<polygon fill="white" stroke="#666666" points="709,-299.5 582,-299.5 582,-269.5 709,-269.5 709,-299.5"/>
<text text-anchor="start" x="590" y="-287.5" font-family="Helvetica,sans-Serif" font-size="10.00">mosaic/core/connector</text>
<text text-anchor="middle" x="645.5" y="-276.5" font-family="Helvetica,sans-Serif" font-size="10.00">_state_manager.h</text>
</a>
</g>
</g>
<!-- Node2&#45;&gt;Node6 -->
<g id="edge5_Node000002_Node000006" class="edge">
<title>Node2&#45;&gt;Node6</title>
<g id="a_edge5_Node000002_Node000006"><a xlink:title=" ">
<path fill="none" stroke="#63b8ff" d="M604.82,-340.94C611.8,-331.42 621.17,-318.65 629.16,-307.77"/>
<polygon fill="#63b8ff" stroke="#63b8ff" points="632.1,-309.68 635.19,-299.54 626.46,-305.54 632.1,-309.68"/>
</a>
</g>
</g>
<!-- Node10 -->
<g id="Node000010" class="node">
<title>Node10</title>
<g id="a_Node000010"><a xlink:title=" ">
<polygon fill="#e0e0e0" stroke="#999999" points="609.5,-151 463.5,-151 463.5,-121 609.5,-121 609.5,-151"/>
<text text-anchor="start" x="471.5" y="-139" font-family="Helvetica,sans-Serif" font-size="10.00">mosaic/rtc/webrtc_forward</text>
<text text-anchor="middle" x="536.5" y="-128" font-family="Helvetica,sans-Serif" font-size="10.00">_decl.h</text>
</a>
</g>
</g>
<!-- Node2&#45;&gt;Node10 -->
<g id="edge43_Node000002_Node000010" class="edge">
<title>Node2&#45;&gt;Node10</title>
<g id="a_edge43_Node000002_Node000010"><a xlink:title=" ">
<path fill="none" stroke="#63b8ff" d="M587.35,-340.86C582.61,-331.01 576.53,-317.45 572.5,-305 556.34,-255.02 545.38,-194.31 540.11,-161.28"/>
<polygon fill="#63b8ff" stroke="#63b8ff" points="543.54,-160.54 538.54,-151.19 536.62,-161.61 543.54,-160.54"/>
</a>
</g>
</g>
<!-- Node16 -->
<g id="Node000016" class="node">
<title>Node16</title>
<g id="a_Node000016"><a xlink:href="peer__connection__manager_8h.html" target="_top" xlink:title=" ">
<polygon fill="white" stroke="#666666" points="1086,-299.5 927,-299.5 927,-269.5 1086,-269.5 1086,-299.5"/>
<text text-anchor="start" x="935" y="-287.5" font-family="Helvetica,sans-Serif" font-size="10.00">mosaic/core/peer_connection</text>
<text text-anchor="middle" x="1006.5" y="-276.5" font-family="Helvetica,sans-Serif" font-size="10.00">_manager.h</text>
</a>
</g>
</g>
<!-- Node2&#45;&gt;Node16 -->
<g id="edge21_Node000002_Node000016" class="edge">
<title>Node2&#45;&gt;Node16</title>
<g id="a_edge21_Node000002_Node000016"><a xlink:title=" ">
<path fill="none" stroke="#63b8ff" d="M651.8,-341.12C652.03,-341.08 652.27,-341.04 652.5,-341 763.93,-321.42 793.08,-324.62 904.5,-305 910.63,-303.92 916.97,-302.74 923.36,-301.5"/>
<polygon fill="#63b8ff" stroke="#63b8ff" points="924.28,-304.89 933.42,-299.52 922.93,-298.02 924.28,-304.89"/>
</a>
</g>
</g>
<!-- Node17 -->
<g id="Node000017" class="node">
<title>Node17</title>
<g id="a_Node000017"><a xlink:href="i__data__channel__handler_8h.html" target="_top" xlink:title=" ">
<polygon fill="white" stroke="#666666" points="516,-305 379,-305 379,-264 516,-264 516,-305"/>
<text text-anchor="start" x="387" y="-293" font-family="Helvetica,sans-Serif" font-size="10.00">mosaic/handlers/data</text>
<text text-anchor="start" x="387" y="-282" font-family="Helvetica,sans-Serif" font-size="10.00">_channel/i_data_channel</text>
<text text-anchor="middle" x="447.5" y="-271" font-family="Helvetica,sans-Serif" font-size="10.00">_handler.h</text>
</a>
</g>
</g>
<!-- Node2&#45;&gt;Node17 -->
<g id="edge26_Node000002_Node000017" class="edge">
<title>Node2&#45;&gt;Node17</title>
<g id="a_edge26_Node000002_Node000017"><a xlink:title=" ">
<path fill="none" stroke="#63b8ff" d="M564.75,-340.94C545.67,-331.91 520.39,-319.96 498.2,-309.47"/>
<polygon fill="#63b8ff" stroke="#63b8ff" points="499.44,-306.18 488.9,-305.07 496.44,-312.51 499.44,-306.18"/>
</a>
</g>
</g>
<!-- Node24 -->
<g id="Node000024" class="node">
<title>Node24</title>
<g id="a_Node000024"><a xlink:href="i__media__track__handler_8h.html" target="_top" xlink:title=" ">
<polygon fill="white" stroke="#666666" points="418,-228 287,-228 287,-187 418,-187 418,-228"/>
<text text-anchor="start" x="295" y="-216" font-family="Helvetica,sans-Serif" font-size="10.00">mosaic/handlers/media</text>
<text text-anchor="start" x="295" y="-205" font-family="Helvetica,sans-Serif" font-size="10.00">_track/i_media_track</text>
<text text-anchor="middle" x="352.5" y="-194" font-family="Helvetica,sans-Serif" font-size="10.00">_handler.h</text>
</a>
</g>
</g>
<!-- Node2&#45;&gt;Node24 -->
<g id="edge39_Node000002_Node000024" class="edge">
<title>Node2&#45;&gt;Node24</title>
<g id="a_edge39_Node000002_Node000024"><a xlink:title=" ">
<path fill="none" stroke="#63b8ff" d="M537.27,-349.49C478.41,-342.6 392.22,-328.75 369.5,-305 352.8,-287.54 349.4,-259.76 349.68,-238.48"/>
<polygon fill="#63b8ff" stroke="#63b8ff" points="353.18,-238.46 350.09,-228.33 346.19,-238.18 353.18,-238.46"/>
</a>
</g>
</g>
<!-- Node6&#45;&gt;Node4 -->
<g id="edge6_Node000006_Node000004" class="edge">
<title>Node6&#45;&gt;Node4</title>
<g id="a_edge6_Node000006_Node000004"><a xlink:title=" ">
<path fill="none" stroke="#63b8ff" d="M629.63,-269.21C619.43,-258.9 607.08,-244.02 601.5,-228 595.51,-210.79 597.51,-204.78 601.5,-187 605.37,-169.73 614.63,-168.27 618.5,-151 621.42,-137.99 626.71,-131.51 618.5,-121 577.9,-69 537.11,-105.79 474.5,-85 419.81,-66.84 358.25,-39.44 323.74,-23.43"/>
<polygon fill="#63b8ff" stroke="#63b8ff" points="324.89,-20.1 314.35,-19.04 321.93,-26.44 324.89,-20.1"/>
</a>
</g>
</g>
<!-- Node6&#45;&gt;Node5 -->
<g id="edge8_Node000006_Node000005" class="edge">
<title>Node6&#45;&gt;Node5</title>
<g id="a_edge8_Node000006_Node000005"><a xlink:title=" ">
<path fill="none" stroke="#63b8ff" d="M668.51,-269.35C682.04,-259.6 697.94,-245.29 705.5,-228 712.8,-211.3 709.11,-204.86 705.5,-187 695.75,-138.78 678.18,-131.63 662.5,-85 656.26,-66.45 650.94,-44.71 647.53,-29.52"/>
<polygon fill="#63b8ff" stroke="#63b8ff" points="650.86,-28.36 645.31,-19.34 644.02,-29.86 650.86,-28.36"/>
</a>
</g>
</g>
<!-- Node7 -->
<g id="Node000007" class="node">
<title>Node7</title>
<g id="a_Node000007"><a xlink:title=" ">
<polygon fill="#e0e0e0" stroke="#999999" points="696.5,-217 610.5,-217 610.5,-198 696.5,-198 696.5,-217"/>
<text text-anchor="middle" x="653.5" y="-205" font-family="Helvetica,sans-Serif" font-size="10.00">shared_mutex</text>
</a>
</g>
</g>
<!-- Node6&#45;&gt;Node7 -->
<g id="edge7_Node000006_Node000007" class="edge">
<title>Node6&#45;&gt;Node7</title>
<g id="a_edge7_Node000006_Node000007"><a xlink:title=" ">
<path fill="none" stroke="#63b8ff" d="M647,-269.39C648.26,-257.58 650.08,-240.6 651.47,-227.58"/>
<polygon fill="#63b8ff" stroke="#63b8ff" points="654.97,-227.69 652.55,-217.37 648.01,-226.95 654.97,-227.69"/>
</a>
</g>
</g>
<!-- Node8 -->
<g id="Node000008" class="node">
<title>Node8</title>
<g id="a_Node000008"><a xlink:href="i__signaling__client_8h.html" target="_top" xlink:title=" ">
<polygon fill="white" stroke="#666666" points="860,-222.5 753,-222.5 753,-192.5 860,-192.5 860,-222.5"/>
<text text-anchor="start" x="761" y="-210.5" font-family="Helvetica,sans-Serif" font-size="10.00">mosaic/signaling/i</text>
<text text-anchor="middle" x="806.5" y="-199.5" font-family="Helvetica,sans-Serif" font-size="10.00">_signaling_client.h</text>
</a>
</g>
</g>
<!-- Node6&#45;&gt;Node8 -->
<g id="edge9_Node000006_Node000008" class="edge">
<title>Node6&#45;&gt;Node8</title>
<g id="a_edge9_Node000006_Node000008"><a xlink:title=" ">
<path fill="none" stroke="#63b8ff" d="M675.78,-269.39C701.64,-257.35 739.02,-239.94 767.18,-226.82"/>
<polygon fill="#63b8ff" stroke="#63b8ff" points="768.77,-229.94 776.35,-222.54 765.81,-223.59 768.77,-229.94"/>
</a>
</g>
</g>
<!-- Node9 -->
<g id="Node000009" class="node">
<title>Node9</title>
<g id="a_Node000009"><a xlink:title=" ">
<polygon fill="#e0e0e0" stroke="#999999" points="881.5,-85 763.5,-85 763.5,-55 881.5,-55 881.5,-85"/>
<text text-anchor="start" x="771.5" y="-73" font-family="Helvetica,sans-Serif" font-size="10.00">mosaic/json_forward</text>
<text text-anchor="middle" x="822.5" y="-62" font-family="Helvetica,sans-Serif" font-size="10.00">_decl.h</text>
</a>
</g>
</g>
<!-- Node8&#45;&gt;Node9 -->
<g id="edge10_Node000008_Node000009" class="edge">
<title>Node8&#45;&gt;Node9</title>
<g id="a_edge10_Node000008_Node000009"><a xlink:title=" ">
<path fill="none" stroke="#63b8ff" d="M823.08,-192.35C833.73,-182.11 846.64,-167.25 852.5,-151 859.48,-131.64 850.08,-109.76 840,-93.78"/>
<polygon fill="#63b8ff" stroke="#63b8ff" points="842.63,-91.42 834.11,-85.12 836.84,-95.36 842.63,-91.42"/>
</a>
</g>
</g>
<!-- Node8&#45;&gt;Node10 -->
<g id="edge11_Node000008_Node000010" class="edge">
<title>Node8&#45;&gt;Node10</title>
<g id="a_edge11_Node000008_Node000010"><a xlink:title=" ">
<path fill="none" stroke="#63b8ff" d="M752.83,-192.69C709.13,-181.44 647.31,-165.52 600.93,-153.59"/>
<polygon fill="#63b8ff" stroke="#63b8ff" points="601.55,-150.13 590.99,-151.03 599.8,-156.91 601.55,-150.13"/>
</a>
</g>
</g>
<!-- Node11 -->
<g id="Node000011" class="node">
<title>Node11</title>
<g id="a_Node000011"><a xlink:href="i__mosaic__authenticator_8h.html" target="_top" xlink:title=" ">
<polygon fill="white" stroke="#666666" points="843.5,-151 703.5,-151 703.5,-121 843.5,-121 843.5,-151"/>
<text text-anchor="start" x="711.5" y="-139" font-family="Helvetica,sans-Serif" font-size="10.00">mosaic/security/i_mosaic</text>
<text text-anchor="middle" x="773.5" y="-128" font-family="Helvetica,sans-Serif" font-size="10.00">_authenticator.h</text>
</a>
</g>
</g>
<!-- Node8&#45;&gt;Node11 -->
<g id="edge12_Node000008_Node000011" class="edge">
<title>Node8&#45;&gt;Node11</title>
<g id="a_edge12_Node000008_Node000011"><a xlink:title=" ">
<path fill="none" stroke="#63b8ff" d="M799.82,-192.44C795.44,-183.2 789.6,-170.91 784.54,-160.24"/>
<polygon fill="#63b8ff" stroke="#63b8ff" points="787.62,-158.58 780.17,-151.04 781.3,-161.58 787.62,-158.58"/>
</a>
</g>
</g>
<!-- Node11&#45;&gt;Node4 -->
<g id="edge13_Node000011_Node000004" class="edge">
<title>Node11&#45;&gt;Node4</title>
<g id="a_edge13_Node000011_Node000004"><a xlink:title=" ">
<path fill="none" stroke="#63b8ff" d="M719.71,-120.96C622.66,-95.63 420.48,-42.86 335.48,-20.67"/>
<polygon fill="#63b8ff" stroke="#63b8ff" points="336.27,-17.26 325.71,-18.12 334.5,-24.04 336.27,-17.26"/>
</a>
</g>
</g>
<!-- Node11&#45;&gt;Node9 -->
<g id="edge20_Node000011_Node000009" class="edge">
<title>Node11&#45;&gt;Node9</title>
<g id="a_edge20_Node000011_Node000009"><a xlink:title=" ">
<path fill="none" stroke="#63b8ff" d="M784.37,-120.8C790.59,-112.68 798.52,-102.31 805.54,-93.15"/>
<polygon fill="#63b8ff" stroke="#63b8ff" points="808.36,-95.23 811.66,-85.16 802.8,-90.98 808.36,-95.23"/>
</a>
</g>
</g>
<!-- Node12 -->
<g id="Node000012" class="node">
<title>Node12</title>
<g id="a_Node000012"><a xlink:href="auth__type_8h.html" target="_top" xlink:title=" ">
<polygon fill="white" stroke="#666666" points="745.5,-79.5 671.5,-79.5 671.5,-60.5 745.5,-60.5 745.5,-79.5"/>
<text text-anchor="middle" x="708.5" y="-67.5" font-family="Helvetica,sans-Serif" font-size="10.00">auth_type.h</text>
</a>
</g>
</g>
<!-- Node11&#45;&gt;Node12 -->
<g id="edge14_Node000011_Node000012" class="edge">
<title>Node11&#45;&gt;Node12</title>
<g id="a_edge14_Node000011_Node000012"><a xlink:title=" ">
<path fill="none" stroke="#63b8ff" d="M759.07,-120.8C748.94,-110.82 735.37,-97.46 724.84,-87.09"/>
<polygon fill="#63b8ff" stroke="#63b8ff" points="727.06,-84.37 717.48,-79.84 722.15,-89.35 727.06,-84.37"/>
</a>
</g>
</g>
<!-- Node13 -->
<g id="Node000013" class="node">
<title>Node13</title>
<g id="a_Node000013"><a xlink:href="configs__decl_8h.html" target="_top" xlink:title=" ">
<polygon fill="white" stroke="#666666" points="1061.5,-79.5 937.5,-79.5 937.5,-60.5 1061.5,-60.5 1061.5,-79.5"/>
<text text-anchor="middle" x="999.5" y="-67.5" font-family="Helvetica,sans-Serif" font-size="10.00">mosaic/configs_decl.h</text>
</a>
</g>
</g>
<!-- Node11&#45;&gt;Node13 -->
<g id="edge16_Node000011_Node000013" class="edge">
<title>Node11&#45;&gt;Node13</title>
<g id="a_edge16_Node000011_Node000013"><a xlink:title=" ">
<path fill="none" stroke="#63b8ff" d="M823.1,-120.95C864.13,-109.34 921.65,-93.05 959.71,-82.27"/>
<polygon fill="#63b8ff" stroke="#63b8ff" points="960.76,-85.61 969.42,-79.52 958.85,-78.87 960.76,-85.61"/>
</a>
</g>
</g>
<!-- Node12&#45;&gt;Node5 -->
<g id="edge15_Node000012_Node000005" class="edge">
<title>Node12&#45;&gt;Node5</title>
<g id="a_edge15_Node000012_Node000005"><a xlink:title=" ">
<path fill="none" stroke="#63b8ff" d="M698.91,-60.37C688.92,-51.38 673.07,-37.11 660.87,-26.14"/>
<polygon fill="#63b8ff" stroke="#63b8ff" points="662.9,-23.26 653.13,-19.17 658.22,-28.46 662.9,-23.26"/>
</a>
</g>
</g>
<!-- Node13&#45;&gt;Node5 -->
<g id="edge17_Node000013_Node000005" class="edge">
<title>Node13&#45;&gt;Node5</title>
<g id="a_edge17_Node000013_Node000005"><a xlink:title=" ">
<path fill="none" stroke="#63b8ff" d="M954.12,-60.45C944.05,-58.61 933.42,-56.7 923.5,-55 833.86,-39.62 727.76,-23.26 675.65,-15.35"/>
<polygon fill="#63b8ff" stroke="#63b8ff" points="676.08,-11.87 665.67,-13.83 675.03,-18.79 676.08,-11.87"/>
</a>
</g>
</g>
<!-- Node14 -->
<g id="Node000014" class="node">
<title>Node14</title>
<g id="a_Node000014"><a xlink:title=" ">
<polygon fill="#e0e0e0" stroke="#999999" points="1046,-19 953,-19 953,0 1046,0 1046,-19"/>
<text text-anchor="middle" x="999.5" y="-7" font-family="Helvetica,sans-Serif" font-size="10.00">unordered_map</text>
</a>
</g>
</g>
<!-- Node13&#45;&gt;Node14 -->
<g id="edge18_Node000013_Node000014" class="edge">
<title>Node13&#45;&gt;Node14</title>
<g id="a_edge18_Node000013_Node000014"><a xlink:title=" ">
<path fill="none" stroke="#63b8ff" d="M999.5,-60.37C999.5,-52.25 999.5,-39.81 999.5,-29.39"/>
<polygon fill="#63b8ff" stroke="#63b8ff" points="1003,-29.17 999.5,-19.17 996,-29.17 1003,-29.17"/>
</a>
</g>
</g>
<!-- Node15 -->
<g id="Node000015" class="node">
<title>Node15</title>
<g id="a_Node000015"><a xlink:title=" ">
<polygon fill="#e0e0e0" stroke="#999999" points="1112,-19 1065,-19 1065,0 1112,0 1112,-19"/>
<text text-anchor="middle" x="1088.5" y="-7" font-family="Helvetica,sans-Serif" font-size="10.00">vector</text>
</a>
</g>
</g>
<!-- Node13&#45;&gt;Node15 -->
<g id="edge19_Node000013_Node000015" class="edge">
<title>Node13&#45;&gt;Node15</title>
<g id="a_edge19_Node000013_Node000015"><a xlink:title=" ">
<path fill="none" stroke="#63b8ff" d="M1012.63,-60.37C1026.83,-51.04 1049.7,-36.01 1066.62,-24.88"/>
<polygon fill="#63b8ff" stroke="#63b8ff" points="1068.88,-27.58 1075.31,-19.17 1065.03,-21.74 1068.88,-27.58"/>
</a>
</g>
</g>
<!-- Node16&#45;&gt;Node2 -->
<g id="edge24_Node000016_Node000002" class="edge">
<title>Node16&#45;&gt;Node2</title>
<g id="a_edge24_Node000016_Node000002"><a xlink:title=" ">
<path fill="none" stroke="#63b8ff" d="M950.97,-299.57C941.51,-301.5 931.76,-303.37 922.5,-305 811.08,-324.62 781.93,-321.42 670.5,-341 667.55,-341.52 664.54,-342.07 661.48,-342.64"/>
<polygon fill="#63b8ff" stroke="#63b8ff" points="660.82,-339.21 651.66,-344.54 662.14,-346.08 660.82,-339.21"/>
</a>
</g>
</g>
<!-- Node16&#45;&gt;Node8 -->
<g id="edge25_Node000016_Node000008" class="edge">
<title>Node16&#45;&gt;Node8</title>
<g id="a_edge25_Node000016_Node000008"><a xlink:title=" ">
<path fill="none" stroke="#63b8ff" d="M968.88,-269.39C936.2,-257.14 888.71,-239.33 853.53,-226.13"/>
<polygon fill="#63b8ff" stroke="#63b8ff" points="854.54,-222.78 843.95,-222.54 852.08,-229.33 854.54,-222.78"/>
</a>
</g>
</g>
<!-- Node16&#45;&gt;Node13 -->
<g id="edge23_Node000016_Node000013" class="edge">
<title>Node16&#45;&gt;Node13</title>
<g id="a_edge23_Node000016_Node000013"><a xlink:title=" ">
<path fill="none" stroke="#63b8ff" d="M1006.03,-269.23C1004.8,-231.97 1001.5,-131.77 1000.12,-89.85"/>
<polygon fill="#63b8ff" stroke="#63b8ff" points="1003.61,-89.55 999.79,-79.67 996.62,-89.78 1003.61,-89.55"/>
</a>
</g>
</g>
<!-- Node16&#45;&gt;Node15 -->
<g id="edge22_Node000016_Node000015" class="edge">
<title>Node16&#45;&gt;Node15</title>
<g id="a_edge22_Node000016_Node000015"><a xlink:title=" ">
<path fill="none" stroke="#63b8ff" d="M1011.53,-269.17C1022.85,-236.65 1050.87,-154.71 1070.5,-85 1075.79,-66.22 1080.92,-44.51 1084.35,-29.39"/>
<polygon fill="#63b8ff" stroke="#63b8ff" points="1087.84,-29.79 1086.6,-19.27 1081.01,-28.27 1087.84,-29.79"/>
</a>
</g>
</g>
<!-- Node17&#45;&gt;Node5 -->
<g id="edge27_Node000017_Node000005" class="edge">
<title>Node17&#45;&gt;Node5</title>
<g id="a_edge27_Node000017_Node000005"><a xlink:title=" ">
<path fill="none" stroke="#63b8ff" d="M442.7,-263.79C435.98,-231.38 427.39,-165.98 454.5,-121 489.54,-62.86 567.67,-32.06 611.72,-18.75"/>
<polygon fill="#63b8ff" stroke="#63b8ff" points="612.73,-22.11 621.35,-15.96 610.77,-15.38 612.73,-22.11"/>
</a>
</g>
</g>
<!-- Node17&#45;&gt;Node10 -->
<g id="edge38_Node000017_Node000010" class="edge">
<title>Node17&#45;&gt;Node10</title>
<g id="a_edge38_Node000017_Node000010"><a xlink:title=" ">
<path fill="none" stroke="#63b8ff" d="M459.5,-263.74C475.87,-236.8 505.14,-188.62 522.49,-160.06"/>
<polygon fill="#63b8ff" stroke="#63b8ff" points="525.68,-161.54 527.89,-151.18 519.7,-157.91 525.68,-161.54"/>
</a>
</g>
</g>
<!-- Node17&#45;&gt;Node18 -->
<g id="edge28_Node000017_Node000018" class="edge">
<title>Node17&#45;&gt;Node18</title>
<g id="a_edge28_Node000017_Node000018"><a xlink:title=" ">
<path fill="none" stroke="#63b8ff" d="M378.71,-264.67C327.05,-250.53 258.02,-231.64 214.66,-219.77"/>
<polygon fill="#63b8ff" stroke="#63b8ff" points="215.32,-216.32 204.75,-217.05 213.47,-223.07 215.32,-216.32"/>
</a>
</g>
</g>
<!-- Node19 -->
<g id="Node000019" class="node">
<title>Node19</title>
<g id="a_Node000019"><a xlink:href="i__logger_8h.html" target="_top" xlink:title=" ">
<polygon fill="white" stroke="#666666" points="205.5,-145.5 141.5,-145.5 141.5,-126.5 205.5,-126.5 205.5,-145.5"/>
<text text-anchor="middle" x="173.5" y="-133.5" font-family="Helvetica,sans-Serif" font-size="10.00">i_logger.h</text>
</a>
</g>
</g>
<!-- Node18&#45;&gt;Node19 -->
<g id="edge29_Node000018_Node000019" class="edge">
<title>Node18&#45;&gt;Node19</title>
<g id="a_edge29_Node000018_Node000019"><a xlink:title=" ">
<path fill="none" stroke="#63b8ff" d="M173.5,-197.98C173.5,-187.56 173.5,-169.61 173.5,-155.88"/>
<polygon fill="#63b8ff" stroke="#63b8ff" points="177,-155.59 173.5,-145.59 170,-155.59 177,-155.59"/>
</a>
</g>
</g>
<!-- Node22 -->
<g id="Node000022" class="node">
<title>Node22</title>
<g id="a_Node000022"><a xlink:href="log__service_8h.html" target="_top" xlink:title=" ">
<polygon fill="white" stroke="#666666" points="94,-79.5 13,-79.5 13,-60.5 94,-60.5 94,-79.5"/>
<text text-anchor="middle" x="53.5" y="-67.5" font-family="Helvetica,sans-Serif" font-size="10.00">log_service.h</text>
</a>
</g>
</g>
<!-- Node18&#45;&gt;Node22 -->
<g id="edge37_Node000018_Node000022" class="edge">
<title>Node18&#45;&gt;Node22</title>
<g id="a_edge37_Node000018_Node000022"><a xlink:title=" ">
<path fill="none" stroke="#63b8ff" d="M165.63,-197.61C145.79,-175.21 93.52,-116.19 67.97,-87.34"/>
<polygon fill="#63b8ff" stroke="#63b8ff" points="70.5,-84.91 61.25,-79.75 65.26,-89.55 70.5,-84.91"/>
</a>
</g>
</g>
<!-- Node19&#45;&gt;Node5 -->
<g id="edge30_Node000019_Node000005" class="edge">
<title>Node19&#45;&gt;Node5</title>
<g id="a_edge30_Node000019_Node000005"><a xlink:title=" ">
<path fill="none" stroke="#63b8ff" d="M193.74,-126.45C232.46,-110.38 320.01,-75.46 396.5,-55 472.42,-34.69 563.96,-20.91 611.44,-14.54"/>
<polygon fill="#63b8ff" stroke="#63b8ff" points="611.97,-18 621.42,-13.22 611.05,-11.06 611.97,-18"/>
</a>
</g>
</g>
<!-- Node20 -->
<g id="Node000020" class="node">
<title>Node20</title>
<g id="a_Node000020"><a xlink:title=" ">
<polygon fill="#e0e0e0" stroke="#999999" points="230,-79.5 151,-79.5 151,-60.5 230,-60.5 230,-79.5"/>
<text text-anchor="middle" x="190.5" y="-67.5" font-family="Helvetica,sans-Serif" font-size="10.00">fmt/format.h</text>
</a>
</g>
</g>
<!-- Node19&#45;&gt;Node20 -->
<g id="edge31_Node000019_Node000020" class="edge">
<title>Node19&#45;&gt;Node20</title>
<g id="a_edge31_Node000019_Node000020"><a xlink:title=" ">
<path fill="none" stroke="#63b8ff" d="M175.79,-126.37C178.26,-117.07 182.27,-101.98 185.48,-89.9"/>
<polygon fill="#63b8ff" stroke="#63b8ff" points="188.95,-90.47 188.13,-79.91 182.18,-88.67 188.95,-90.47"/>
</a>
</g>
</g>
<!-- Node21 -->
<g id="Node000021" class="node">
<title>Node21</title>
<g id="a_Node000021"><a xlink:href="log__level_8h.html" target="_top" xlink:title=" ">
<polygon fill="white" stroke="#666666" points="157.5,-19 87.5,-19 87.5,0 157.5,0 157.5,-19"/>
<text text-anchor="middle" x="122.5" y="-7" font-family="Helvetica,sans-Serif" font-size="10.00">log_level.h</text>
</a>
</g>
</g>
<!-- Node19&#45;&gt;Node21 -->
<g id="edge32_Node000019_Node000021" class="edge">
<title>Node19&#45;&gt;Node21</title>
<g id="a_edge32_Node000019_Node000021"><a xlink:title=" ">
<path fill="none" stroke="#63b8ff" d="M166.68,-126.28C159.47,-116.66 148.23,-100.5 141.5,-85 133.62,-66.85 128.5,-44.74 125.58,-29.35"/>
<polygon fill="#63b8ff" stroke="#63b8ff" points="128.95,-28.3 123.77,-19.06 122.05,-29.51 128.95,-28.3"/>
</a>
</g>
</g>
<!-- Node19&#45;&gt;Node22 -->
<g id="edge33_Node000019_Node000022" class="edge">
<title>Node19&#45;&gt;Node22</title>
<g id="a_edge33_Node000019_Node000022"><a xlink:title=" ">
<path fill="none" stroke="#63b8ff" d="M157.32,-126.37C137.19,-115.63 102.59,-97.18 78.91,-84.55"/>
<polygon fill="#63b8ff" stroke="#63b8ff" points="80.28,-81.32 69.81,-79.7 76.99,-87.49 80.28,-81.32"/>
</a>
</g>
</g>
<!-- Node22&#45;&gt;Node4 -->
<g id="edge34_Node000022_Node000004" class="edge">
<title>Node22&#45;&gt;Node4</title>
<g id="a_edge34_Node000022_Node000004"><a xlink:title=" ">
<path fill="none" stroke="#63b8ff" d="M88.83,-60.49C133.72,-49.69 210.92,-31.1 257.49,-19.89"/>
<polygon fill="#63b8ff" stroke="#63b8ff" points="258.32,-23.29 267.22,-17.55 256.68,-16.49 258.32,-23.29"/>
</a>
</g>
</g>
<!-- Node22&#45;&gt;Node21 -->
<g id="edge36_Node000022_Node000021" class="edge">
<title>Node22&#45;&gt;Node21</title>
<g id="a_edge36_Node000022_Node000021"><a xlink:title=" ">
<path fill="none" stroke="#63b8ff" d="M63.68,-60.37C74.38,-51.3 91.44,-36.84 104.43,-25.82"/>
<polygon fill="#63b8ff" stroke="#63b8ff" points="106.91,-28.3 112.28,-19.17 102.39,-22.96 106.91,-28.3"/>
</a>
</g>
</g>
<!-- Node23 -->
<g id="Node000023" class="node">
<title>Node23</title>
<g id="a_Node000023"><a xlink:title=" ">
<polygon fill="#e0e0e0" stroke="#999999" points="69,-19 0,-19 0,0 69,0 69,-19"/>
<text text-anchor="middle" x="34.5" y="-7" font-family="Helvetica,sans-Serif" font-size="10.00">type_traits</text>
</a>
</g>
</g>
<!-- Node22&#45;&gt;Node23 -->
<g id="edge35_Node000022_Node000023" class="edge">
<title>Node22&#45;&gt;Node23</title>
<g id="a_edge35_Node000022_Node000023"><a xlink:title=" ">
<path fill="none" stroke="#63b8ff" d="M50.7,-60.37C48,-52.07 43.85,-39.28 40.42,-28.72"/>
<polygon fill="#63b8ff" stroke="#63b8ff" points="43.73,-27.6 37.32,-19.17 37.08,-29.76 43.73,-27.6"/>
</a>
</g>
</g>
<!-- Node24&#45;&gt;Node5 -->
<g id="edge40_Node000024_Node000005" class="edge">
<title>Node24&#45;&gt;Node5</title>
<g id="a_edge40_Node000024_Node000005"><a xlink:title=" ">
<path fill="none" stroke="#63b8ff" d="M361.97,-186.88C380.93,-147.92 422.77,-63.78 434.5,-55 462.1,-34.36 559.71,-20.24 611.18,-14.05"/>
<polygon fill="#63b8ff" stroke="#63b8ff" points="611.9,-17.49 621.43,-12.85 611.09,-10.54 611.9,-17.49"/>
</a>
</g>
</g>
<!-- Node24&#45;&gt;Node10 -->
<g id="edge42_Node000024_Node000010" class="edge">
<title>Node24&#45;&gt;Node10</title>
<g id="a_edge42_Node000024_Node000010"><a xlink:title=" ">
<path fill="none" stroke="#63b8ff" d="M404.24,-186.96C431.11,-176.81 463.67,-164.51 489.77,-154.65"/>
<polygon fill="#63b8ff" stroke="#63b8ff" points="491.31,-157.81 499.42,-151 488.83,-151.26 491.31,-157.81"/>
</a>
</g>
</g>
<!-- Node25 -->
<g id="Node000025" class="node">
<title>Node25</title>
<g id="a_Node000025"><a xlink:title=" ">
<polygon fill="#e0e0e0" stroke="#999999" points="369,-145.5 324,-145.5 324,-126.5 369,-126.5 369,-145.5"/>
<text text-anchor="middle" x="346.5" y="-133.5" font-family="Helvetica,sans-Serif" font-size="10.00">utility</text>
</a>
</g>
</g>
<!-- Node24&#45;&gt;Node25 -->
<g id="edge41_Node000024_Node000025" class="edge">
<title>Node24&#45;&gt;Node25</title>
<g id="a_edge41_Node000024_Node000025"><a xlink:title=" ">
<path fill="none" stroke="#63b8ff" d="M350.8,-186.77C349.96,-177.08 348.96,-165.46 348.13,-155.88"/>
<polygon fill="#63b8ff" stroke="#63b8ff" points="351.61,-155.48 347.26,-145.82 344.63,-156.08 351.61,-155.48"/>
</a>
</g>
</g>
<!-- Node26&#45;&gt;Node2 -->
<g id="edge46_Node000026_Node000002" class="edge">
<title>Node26&#45;&gt;Node2</title>
<g id="a_edge46_Node000026_Node000002"><a xlink:title=" ">
<path fill="none" stroke="#63b8ff" d="M635.74,-406.8C628.94,-398.59 620.26,-388.1 612.61,-378.87"/>
<polygon fill="#63b8ff" stroke="#63b8ff" points="615.3,-376.63 606.23,-371.16 609.91,-381.1 615.3,-376.63"/>
</a>
</g>
</g>
<!-- Node27 -->
<g id="Node000027" class="node">
<title>Node27</title>
<g id="a_Node000027"><a xlink:title=" ">
<polygon fill="#e0e0e0" stroke="#999999" points="785,-371 670,-371 670,-341 785,-341 785,-371"/>
<text text-anchor="start" x="678" y="-359" font-family="Helvetica,sans-Serif" font-size="10.00">api/peer_connection</text>
<text text-anchor="middle" x="727.5" y="-348" font-family="Helvetica,sans-Serif" font-size="10.00">_interface.h</text>
</a>
</g>
</g>
<!-- Node26&#45;&gt;Node27 -->
<g id="edge45_Node000026_Node000027" class="edge">
<title>Node26&#45;&gt;Node27</title>
<g id="a_edge45_Node000026_Node000027"><a xlink:title=" ">
<path fill="none" stroke="#63b8ff" d="M665.25,-406.8C676.03,-398.18 689.95,-387.04 701.9,-377.48"/>
<polygon fill="#63b8ff" stroke="#63b8ff" points="704.17,-380.14 709.8,-371.16 699.8,-374.68 704.17,-380.14"/>
</a>
</g>
</g>
</g>
</svg>
