<?xml version="1.0" encoding="UTF-8" standalone="no"?>
<!DOCTYPE svg PUBLIC "-//W3C//DTD SVG 1.1//EN"
 "http://www.w3.org/Graphics/SVG/1.1/DTD/svg11.dtd">
<!-- Generated by graphviz version 2.43.0 (0)
 -->
<!-- Title: include/mosaic/core/peer_connection_manager.h Pages: 1 -->
<!--zoomable 445 -->

<svg id="main" version="1.1" xmlns="http://www.w3.org/2000/svg" xmlns:xlink="http://www.w3.org/1999/xlink" xml:space="preserve" onload="init(evt)">
<style type="text/css"><![CDATA[
.node, .edge {opacity: 0.7;}
.node.selected, .edge.selected {opacity: 1;}
.edge:hover path { stroke: red; }
.edge:hover polygon { stroke: red; fill: red; }
]]></style>

<defs>
  <circle id="rim" cx="0" cy="0" r="7"/>
  <circle id="rim2" cx="0" cy="0" r="3.5"/>
  <g id="zoomPlus">
    <use xlink:href="#rim" fill="#404040"><set attributeName="fill" to="#808080" begin="zoomplus.mouseover" end="zoomplus.mouseout"/></use>
    <path d="M-4,0h8M0,-4v8" fill="none" stroke="white" stroke-width="1.5" pointer-events="none"/>
  </g>
  <g id="zoomMin">
    <use xlink:href="#rim" fill="#404040"><set attributeName="fill" to="#808080" begin="zoomminus.mouseover" end="zoomminus.mouseout"/></use>
    <path d="M-4,0h8" fill="none" stroke="white" stroke-width="1.5" pointer-events="none"/>
  </g>
  <g id="arrowUp" transform="translate(30 24)">
    <use xlink:href="#rim"/>
    <path pointer-events="none" fill="none" stroke="white" stroke-width="1.5" d="M0,-3.0v7 M-2.5,-0.5L0,-3.0L2.5,-0.5"/>
  </g>
  <g id="arrowRight" transform="rotate(90) translate(36 -43)">
    <use xlink:href="#rim"/>
    <path pointer-events="none" fill="none" stroke="white" stroke-width="1.5" d="M0,-3.0v7 M-2.5,-0.5L0,-3.0L2.5,-0.5"/>
  </g>
  <g id="arrowDown" transform="rotate(180) translate(-30 -48)">
    <use xlink:href="#rim"/>
    <path pointer-events="none" fill="none" stroke="white" stroke-width="1.5" d="M0,-3.0v7 M-2.5,-0.5L0,-3.0L2.5,-0.5"/>
  </g>
  <g id="arrowLeft" transform="rotate(270) translate(-36 17)">
    <use xlink:href="#rim"/>
    <path pointer-events="none" fill="none" stroke="white" stroke-width="1.5" d="M0,-3.0v7 M-2.5,-0.5L0,-3.0L2.5,-0.5"/>
  </g>
  <g id="resetDef">
    <use xlink:href="#rim2" fill="#404040"><set attributeName="fill" to="#808080" begin="reset.mouseover" end="reset.mouseout"/></use>
  </g>
</defs>
<script type="application/ecmascript">
var viewWidth = 1036;
var viewHeight = 445;
var sectionId = 'dynsection-0';
</script>
<script type="application/ecmascript" xlink:href="svg.min.js"/>
<svg id="graph" class="graph">
<g id="viewport">
<title>include/mosaic/core/peer_connection_manager.h</title>
<!-- Node1 -->
<g id="Node000001" class="node">
<title>Node1</title>
<g id="a_Node000001"><a xlink:title=" ">
<polygon fill="#999999" stroke="#666666" points="243,-437 86,-437 86,-407 243,-407 243,-437"/>
<text text-anchor="start" x="94" y="-425" font-family="Helvetica,sans-Serif" font-size="10.00">include/mosaic/core</text>
<text text-anchor="middle" x="164.5" y="-414" font-family="Helvetica,sans-Serif" font-size="10.00">/peer_connection_manager.h</text>
</a>
</g>
</g>
<!-- Node2 -->
<g id="Node000002" class="node">
<title>Node2</title>
<g id="a_Node000002"><a xlink:title=" ">
<polygon fill="#e0e0e0" stroke="#999999" points="47,-19 0,-19 0,0 47,0 47,-19"/>
<text text-anchor="middle" x="23.5" y="-7" font-family="Helvetica,sans-Serif" font-size="10.00">vector</text>
</a>
</g>
</g>
<!-- Node1&#45;&gt;Node2 -->
<g id="edge1_Node000001_Node000002" class="edge">
<title>Node1&#45;&gt;Node2</title>
<g id="a_edge1_Node000001_Node000002"><a xlink:title=" ">
<path fill="none" stroke="#63b8ff" d="M131.21,-406.97C89.24,-386.79 22.5,-345.3 22.5,-285.5 22.5,-285.5 22.5,-285.5 22.5,-135 22.5,-97.49 22.96,-53.63 23.26,-29.26"/>
<polygon fill="#63b8ff" stroke="#63b8ff" points="26.76,-29.3 23.38,-19.25 19.76,-29.21 26.76,-29.3"/>
</a>
</g>
</g>
<!-- Node3 -->
<g id="Node000003" class="node">
<title>Node3</title>
<g id="a_Node000003"><a xlink:href="configs__decl_8h.html" target="_top" xlink:title=" ">
<polygon fill="white" stroke="#666666" points="174.5,-79.5 50.5,-79.5 50.5,-60.5 174.5,-60.5 174.5,-79.5"/>
<text text-anchor="middle" x="112.5" y="-67.5" font-family="Helvetica,sans-Serif" font-size="10.00">mosaic/configs_decl.h</text>
</a>
</g>
</g>
<!-- Node1&#45;&gt;Node3 -->
<g id="edge2_Node000001_Node000003" class="edge">
<title>Node1&#45;&gt;Node3</title>
<g id="a_edge2_Node000001_Node000003"><a xlink:title=" ">
<path fill="none" stroke="#63b8ff" d="M156.45,-406.88C143.51,-382.79 119.5,-331.85 119.5,-285.5 119.5,-285.5 119.5,-285.5 119.5,-206.5 119.5,-164.64 116.13,-115.6 114.06,-89.52"/>
<polygon fill="#63b8ff" stroke="#63b8ff" points="117.55,-89.23 113.25,-79.55 110.58,-89.8 117.55,-89.23"/>
</a>
</g>
</g>
<!-- Node6 -->
<g id="Node000006" class="node">
<title>Node6</title>
<g id="a_Node000006"><a xlink:href="mosaic__connector_8h.html" target="_top" xlink:title=" ">
<polygon fill="white" stroke="#666666" points="740.5,-371 626.5,-371 626.5,-341 740.5,-341 740.5,-371"/>
<text text-anchor="start" x="634.5" y="-359" font-family="Helvetica,sans-Serif" font-size="10.00">mosaic/core/mosaic</text>
<text text-anchor="middle" x="683.5" y="-348" font-family="Helvetica,sans-Serif" font-size="10.00">_connector.h</text>
</a>
</g>
</g>
<!-- Node1&#45;&gt;Node6 -->
<g id="edge6_Node000001_Node000006" class="edge">
<title>Node1&#45;&gt;Node6</title>
<g id="a_edge6_Node000001_Node000006"><a xlink:title=" ">
<path fill="none" stroke="#63b8ff" d="M243.05,-410.68C344.73,-397.86 520.08,-376.25 616.04,-364.75"/>
<polygon fill="#63b8ff" stroke="#63b8ff" points="616.69,-368.2 626.2,-363.54 615.86,-361.25 616.69,-368.2"/>
</a>
</g>
</g>
<!-- Node11 -->
<g id="Node000011" class="node">
<title>Node11</title>
<g id="a_Node000011"><a xlink:href="i__signaling__client_8h.html" target="_top" xlink:title=" ">
<polygon fill="white" stroke="#666666" points="390,-222.5 283,-222.5 283,-192.5 390,-192.5 390,-222.5"/>
<text text-anchor="start" x="291" y="-210.5" font-family="Helvetica,sans-Serif" font-size="10.00">mosaic/signaling/i</text>
<text text-anchor="middle" x="336.5" y="-199.5" font-family="Helvetica,sans-Serif" font-size="10.00">_signaling_client.h</text>
</a>
</g>
</g>
<!-- Node1&#45;&gt;Node11 -->
<g id="edge42_Node000001_Node000011" class="edge">
<title>Node1&#45;&gt;Node11</title>
<g id="a_edge42_Node000001_Node000011"><a xlink:title=" ">
<path fill="none" stroke="#63b8ff" d="M176.05,-406.73C205.43,-370.44 283.15,-274.42 318.52,-230.72"/>
<polygon fill="#63b8ff" stroke="#63b8ff" points="321.43,-232.69 325,-222.71 315.99,-228.28 321.43,-232.69"/>
</a>
</g>
</g>
<!-- Node3&#45;&gt;Node2 -->
<g id="edge5_Node000003_Node000002" class="edge">
<title>Node3&#45;&gt;Node2</title>
<g id="a_edge5_Node000003_Node000002"><a xlink:title=" ">
<path fill="none" stroke="#63b8ff" d="M99.37,-60.37C85.17,-51.04 62.3,-36.01 45.38,-24.88"/>
<polygon fill="#63b8ff" stroke="#63b8ff" points="46.97,-21.74 36.69,-19.17 43.12,-27.58 46.97,-21.74"/>
</a>
</g>
</g>
<!-- Node4 -->
<g id="Node000004" class="node">
<title>Node4</title>
<g id="a_Node000004"><a xlink:title=" ">
<polygon fill="#e0e0e0" stroke="#999999" points="840.5,-19 796.5,-19 796.5,0 840.5,0 840.5,-19"/>
<text text-anchor="middle" x="818.5" y="-7" font-family="Helvetica,sans-Serif" font-size="10.00">string</text>
</a>
</g>
</g>
<!-- Node3&#45;&gt;Node4 -->
<g id="edge3_Node000003_Node000004" class="edge">
<title>Node3&#45;&gt;Node4</title>
<g id="a_edge3_Node000003_Node000004"><a xlink:title=" ">
<path fill="none" stroke="#63b8ff" d="M174.53,-63.86C319.6,-51.84 676.99,-22.23 786.25,-13.17"/>
<polygon fill="#63b8ff" stroke="#63b8ff" points="786.64,-16.65 796.32,-12.34 786.06,-9.68 786.64,-16.65"/>
</a>
</g>
</g>
<!-- Node5 -->
<g id="Node000005" class="node">
<title>Node5</title>
<g id="a_Node000005"><a xlink:title=" ">
<polygon fill="#e0e0e0" stroke="#999999" points="159,-19 66,-19 66,0 159,0 159,-19"/>
<text text-anchor="middle" x="112.5" y="-7" font-family="Helvetica,sans-Serif" font-size="10.00">unordered_map</text>
</a>
</g>
</g>
<!-- Node3&#45;&gt;Node5 -->
<g id="edge4_Node000003_Node000005" class="edge">
<title>Node3&#45;&gt;Node5</title>
<g id="a_edge4_Node000003_Node000005"><a xlink:title=" ">
<path fill="none" stroke="#63b8ff" d="M112.5,-60.37C112.5,-52.25 112.5,-39.81 112.5,-29.39"/>
<polygon fill="#63b8ff" stroke="#63b8ff" points="116,-29.17 112.5,-19.17 109,-29.17 116,-29.17"/>
</a>
</g>
</g>
<!-- Node6&#45;&gt;Node1 -->
<g id="edge23_Node000006_Node000001" class="edge">
<title>Node6&#45;&gt;Node1</title>
<g id="a_edge23_Node000006_Node000001"><a xlink:title=" ">
<path fill="none" stroke="#63b8ff" d="M626.27,-364.62C536,-376.09 360.07,-397.8 253.31,-410.68"/>
<polygon fill="#63b8ff" stroke="#63b8ff" points="252.71,-407.23 243.2,-411.9 253.54,-414.18 252.71,-407.23"/>
</a>
</g>
</g>
<!-- Node6&#45;&gt;Node4 -->
<g id="edge9_Node000006_Node000004" class="edge">
<title>Node6&#45;&gt;Node4</title>
<g id="a_edge9_Node000006_Node000004"><a xlink:title=" ">
<path fill="none" stroke="#63b8ff" d="M740.69,-355.39C838.51,-352.74 1027.5,-331.67 1027.5,-208.5 1027.5,-208.5 1027.5,-208.5 1027.5,-135 1027.5,-53.89 909.88,-24.41 851.11,-14.74"/>
<polygon fill="#63b8ff" stroke="#63b8ff" points="851.28,-11.23 840.87,-13.16 850.22,-18.14 851.28,-11.23"/>
</a>
</g>
</g>
<!-- Node7 -->
<g id="Node000007" class="node">
<title>Node7</title>
<g id="a_Node000007"><a xlink:title=" ">
<polygon fill="#e0e0e0" stroke="#999999" points="905.5,-294 867.5,-294 867.5,-275 905.5,-275 905.5,-294"/>
<text text-anchor="middle" x="886.5" y="-282" font-family="Helvetica,sans-Serif" font-size="10.00">map</text>
</a>
</g>
</g>
<!-- Node6&#45;&gt;Node7 -->
<g id="edge7_Node000006_Node000007" class="edge">
<title>Node6&#45;&gt;Node7</title>
<g id="a_edge7_Node000006_Node000007"><a xlink:title=" ">
<path fill="none" stroke="#63b8ff" d="M740.78,-343.67C775.82,-335.53 820.97,-322.82 858.5,-305 861.55,-303.55 864.63,-301.78 867.58,-299.9"/>
<polygon fill="#63b8ff" stroke="#63b8ff" points="869.62,-302.75 875.84,-294.17 865.63,-296.99 869.62,-302.75"/>
</a>
</g>
</g>
<!-- Node8 -->
<g id="Node000008" class="node">
<title>Node8</title>
<g id="a_Node000008"><a xlink:title=" ">
<polygon fill="#e0e0e0" stroke="#999999" points="288.5,-19 230.5,-19 230.5,0 288.5,0 288.5,-19"/>
<text text-anchor="middle" x="259.5" y="-7" font-family="Helvetica,sans-Serif" font-size="10.00">memory</text>
</a>
</g>
</g>
<!-- Node6&#45;&gt;Node8 -->
<g id="edge8_Node000006_Node000008" class="edge">
<title>Node6&#45;&gt;Node8</title>
<g id="a_edge8_Node000006_Node000008"><a xlink:title=" ">
<path fill="none" stroke="#63b8ff" d="M626.43,-349.77C499.02,-336.51 202.5,-296.23 202.5,-208.5 202.5,-208.5 202.5,-208.5 202.5,-135 202.5,-93.24 229.34,-50.16 246.19,-27.24"/>
<polygon fill="#63b8ff" stroke="#63b8ff" points="249.01,-29.31 252.28,-19.23 243.44,-25.07 249.01,-29.31"/>
</a>
</g>
</g>
<!-- Node9 -->
<g id="Node000009" class="node">
<title>Node9</title>
<g id="a_Node000009"><a xlink:href="connector__state__manager_8h.html" target="_top" xlink:title=" ">
<polygon fill="white" stroke="#666666" points="515,-299.5 388,-299.5 388,-269.5 515,-269.5 515,-299.5"/>
<text text-anchor="start" x="396" y="-287.5" font-family="Helvetica,sans-Serif" font-size="10.00">mosaic/core/connector</text>
<text text-anchor="middle" x="451.5" y="-276.5" font-family="Helvetica,sans-Serif" font-size="10.00">_state_manager.h</text>
</a>
</g>
</g>
<!-- Node6&#45;&gt;Node9 -->
<g id="edge10_Node000006_Node000009" class="edge">
<title>Node6&#45;&gt;Node9</title>
<g id="a_edge10_Node000006_Node000009"><a xlink:title=" ">
<path fill="none" stroke="#63b8ff" d="M636.55,-340.94C599.44,-329.82 547.52,-314.26 508.11,-302.46"/>
<polygon fill="#63b8ff" stroke="#63b8ff" points="508.96,-299.06 498.38,-299.54 506.95,-305.77 508.96,-299.06"/>
</a>
</g>
</g>
<!-- Node13 -->
<g id="Node000013" class="node">
<title>Node13</title>
<g id="a_Node000013"><a xlink:title=" ">
<polygon fill="#e0e0e0" stroke="#999999" points="828.5,-151 682.5,-151 682.5,-121 828.5,-121 828.5,-151"/>
<text text-anchor="start" x="690.5" y="-139" font-family="Helvetica,sans-Serif" font-size="10.00">mosaic/rtc/webrtc_forward</text>
<text text-anchor="middle" x="755.5" y="-128" font-family="Helvetica,sans-Serif" font-size="10.00">_decl.h</text>
</a>
</g>
</g>
<!-- Node6&#45;&gt;Node13 -->
<g id="edge41_Node000006_Node000013" class="edge">
<title>Node6&#45;&gt;Node13</title>
<g id="a_edge41_Node000006_Node000013"><a xlink:title=" ">
<path fill="none" stroke="#63b8ff" d="M685.81,-340.93C688.96,-322.88 695.16,-290.71 703.5,-264 715.09,-226.86 733.06,-185.42 744.55,-160.28"/>
<polygon fill="#63b8ff" stroke="#63b8ff" points="747.73,-161.72 748.75,-151.18 741.38,-158.79 747.73,-161.72"/>
</a>
</g>
</g>
<!-- Node16 -->
<g id="Node000016" class="node">
<title>Node16</title>
<g id="a_Node000016"><a xlink:href="i__data__channel__handler_8h.html" target="_top" xlink:title=" ">
<polygon fill="white" stroke="#666666" points="849,-305 712,-305 712,-264 849,-264 849,-305"/>
<text text-anchor="start" x="720" y="-293" font-family="Helvetica,sans-Serif" font-size="10.00">mosaic/handlers/data</text>
<text text-anchor="start" x="720" y="-282" font-family="Helvetica,sans-Serif" font-size="10.00">_channel/i_data_channel</text>
<text text-anchor="middle" x="780.5" y="-271" font-family="Helvetica,sans-Serif" font-size="10.00">_handler.h</text>
</a>
</g>
</g>
<!-- Node6&#45;&gt;Node16 -->
<g id="edge24_Node000006_Node000016" class="edge">
<title>Node6&#45;&gt;Node16</title>
<g id="a_edge24_Node000006_Node000016"><a xlink:title=" ">
<path fill="none" stroke="#63b8ff" d="M703.13,-340.94C715.05,-332.4 730.63,-321.23 744.68,-311.17"/>
<polygon fill="#63b8ff" stroke="#63b8ff" points="747.09,-313.74 753.18,-305.07 743.01,-308.05 747.09,-313.74"/>
</a>
</g>
</g>
<!-- Node23 -->
<g id="Node000023" class="node">
<title>Node23</title>
<g id="a_Node000023"><a xlink:href="i__media__track__handler_8h.html" target="_top" xlink:title=" ">
<polygon fill="white" stroke="#666666" points="999,-228 868,-228 868,-187 999,-187 999,-228"/>
<text text-anchor="start" x="876" y="-216" font-family="Helvetica,sans-Serif" font-size="10.00">mosaic/handlers/media</text>
<text text-anchor="start" x="876" y="-205" font-family="Helvetica,sans-Serif" font-size="10.00">_track/i_media_track</text>
<text text-anchor="middle" x="933.5" y="-194" font-family="Helvetica,sans-Serif" font-size="10.00">_handler.h</text>
</a>
</g>
</g>
<!-- Node6&#45;&gt;Node23 -->
<g id="edge37_Node000006_Node000023" class="edge">
<title>Node6&#45;&gt;Node23</title>
<g id="a_edge37_Node000006_Node000023"><a xlink:title=" ">
<path fill="none" stroke="#63b8ff" d="M740.51,-349.79C800.87,-343.07 890.68,-329.27 914.5,-305 931.59,-287.59 935.52,-259.56 935.66,-238.18"/>
<polygon fill="#63b8ff" stroke="#63b8ff" points="939.15,-237.93 935.45,-228 932.16,-238.07 939.15,-237.93"/>
</a>
</g>
</g>
<!-- Node9&#45;&gt;Node4 -->
<g id="edge13_Node000009_Node000004" class="edge">
<title>Node9&#45;&gt;Node4</title>
<g id="a_edge13_Node000009_Node000004"><a xlink:title=" ">
<path fill="none" stroke="#63b8ff" d="M515.42,-278.65C554.6,-272.5 603.25,-258.73 635.5,-228 672.04,-193.19 637.1,-155.96 673.5,-121 712.43,-83.61 750.01,-121.81 789.5,-85 805.17,-70.39 812.49,-46.31 815.83,-29.49"/>
<polygon fill="#63b8ff" stroke="#63b8ff" points="819.35,-29.66 817.56,-19.22 812.45,-28.5 819.35,-29.66"/>
</a>
</g>
</g>
<!-- Node9&#45;&gt;Node8 -->
<g id="edge11_Node000009_Node000008" class="edge">
<title>Node9&#45;&gt;Node8</title>
<g id="a_edge11_Node000009_Node000008"><a xlink:title=" ">
<path fill="none" stroke="#63b8ff" d="M387.96,-279.49C349.71,-273.66 303.05,-259.93 274.5,-228 224.11,-171.66 243.21,-70.87 254.04,-29.26"/>
<polygon fill="#63b8ff" stroke="#63b8ff" points="257.48,-29.96 256.76,-19.39 250.73,-28.1 257.48,-29.96"/>
</a>
</g>
</g>
<!-- Node10 -->
<g id="Node000010" class="node">
<title>Node10</title>
<g id="a_Node000010"><a xlink:title=" ">
<polygon fill="#e0e0e0" stroke="#999999" points="494.5,-217 408.5,-217 408.5,-198 494.5,-198 494.5,-217"/>
<text text-anchor="middle" x="451.5" y="-205" font-family="Helvetica,sans-Serif" font-size="10.00">shared_mutex</text>
</a>
</g>
</g>
<!-- Node9&#45;&gt;Node10 -->
<g id="edge12_Node000009_Node000010" class="edge">
<title>Node9&#45;&gt;Node10</title>
<g id="a_edge12_Node000009_Node000010"><a xlink:title=" ">
<path fill="none" stroke="#63b8ff" d="M451.5,-269.39C451.5,-257.58 451.5,-240.6 451.5,-227.58"/>
<polygon fill="#63b8ff" stroke="#63b8ff" points="455,-227.37 451.5,-217.37 448,-227.37 455,-227.37"/>
</a>
</g>
</g>
<!-- Node9&#45;&gt;Node11 -->
<g id="edge14_Node000009_Node000011" class="edge">
<title>Node9&#45;&gt;Node11</title>
<g id="a_edge14_Node000009_Node000011"><a xlink:title=" ">
<path fill="none" stroke="#63b8ff" d="M429.87,-269.39C411.96,-257.71 386.32,-240.99 366.44,-228.02"/>
<polygon fill="#63b8ff" stroke="#63b8ff" points="368.32,-225.07 358.03,-222.54 364.5,-230.94 368.32,-225.07"/>
</a>
</g>
</g>
<!-- Node12 -->
<g id="Node000012" class="node">
<title>Node12</title>
<g id="a_Node000012"><a xlink:title=" ">
<polygon fill="#e0e0e0" stroke="#999999" points="424.5,-85 306.5,-85 306.5,-55 424.5,-55 424.5,-85"/>
<text text-anchor="start" x="314.5" y="-73" font-family="Helvetica,sans-Serif" font-size="10.00">mosaic/json_forward</text>
<text text-anchor="middle" x="365.5" y="-62" font-family="Helvetica,sans-Serif" font-size="10.00">_decl.h</text>
</a>
</g>
</g>
<!-- Node11&#45;&gt;Node12 -->
<g id="edge15_Node000011_Node000012" class="edge">
<title>Node11&#45;&gt;Node12</title>
<g id="a_edge15_Node000011_Node000012"><a xlink:title=" ">
<path fill="none" stroke="#63b8ff" d="M371.04,-192.36C388.33,-183.31 407.64,-169.7 417.5,-151 423.72,-139.2 422.72,-133.27 417.5,-121 412.68,-109.68 403.9,-99.69 394.92,-91.67"/>
<polygon fill="#63b8ff" stroke="#63b8ff" points="396.99,-88.84 387.06,-85.14 392.52,-94.22 396.99,-88.84"/>
</a>
</g>
</g>
<!-- Node11&#45;&gt;Node13 -->
<g id="edge16_Node000011_Node000013" class="edge">
<title>Node11&#45;&gt;Node13</title>
<g id="a_edge16_Node000011_Node000013"><a xlink:title=" ">
<path fill="none" stroke="#63b8ff" d="M378.61,-192.45C385.54,-190.43 392.68,-188.52 399.5,-187 491.85,-166.36 599.69,-152.63 672.27,-144.87"/>
<polygon fill="#63b8ff" stroke="#63b8ff" points="672.69,-148.34 682.27,-143.81 671.96,-141.38 672.69,-148.34"/>
</a>
</g>
</g>
<!-- Node14 -->
<g id="Node000014" class="node">
<title>Node14</title>
<g id="a_Node000014"><a xlink:href="i__mosaic__authenticator_8h.html" target="_top" xlink:title=" ">
<polygon fill="white" stroke="#666666" points="408.5,-151 268.5,-151 268.5,-121 408.5,-121 408.5,-151"/>
<text text-anchor="start" x="276.5" y="-139" font-family="Helvetica,sans-Serif" font-size="10.00">mosaic/security/i_mosaic</text>
<text text-anchor="middle" x="338.5" y="-128" font-family="Helvetica,sans-Serif" font-size="10.00">_authenticator.h</text>
</a>
</g>
</g>
<!-- Node11&#45;&gt;Node14 -->
<g id="edge17_Node000011_Node000014" class="edge">
<title>Node11&#45;&gt;Node14</title>
<g id="a_edge17_Node000011_Node000014"><a xlink:title=" ">
<path fill="none" stroke="#63b8ff" d="M336.9,-192.44C337.16,-183.49 337.5,-171.66 337.8,-161.23"/>
<polygon fill="#63b8ff" stroke="#63b8ff" points="341.31,-161.14 338.1,-151.04 334.31,-160.94 341.31,-161.14"/>
</a>
</g>
</g>
<!-- Node14&#45;&gt;Node3 -->
<g id="edge21_Node000014_Node000003" class="edge">
<title>Node14&#45;&gt;Node3</title>
<g id="a_edge21_Node000014_Node000003"><a xlink:title=" ">
<path fill="none" stroke="#63b8ff" d="M288.9,-120.95C247.87,-109.34 190.35,-93.05 152.29,-82.27"/>
<polygon fill="#63b8ff" stroke="#63b8ff" points="153.15,-78.87 142.58,-79.52 151.24,-85.61 153.15,-78.87"/>
</a>
</g>
</g>
<!-- Node14&#45;&gt;Node8 -->
<g id="edge18_Node000014_Node000008" class="edge">
<title>Node14&#45;&gt;Node8</title>
<g id="a_edge18_Node000014_Node000008"><a xlink:title=" ">
<path fill="none" stroke="#63b8ff" d="M325.43,-120.76C316.91,-111.09 305.86,-97.78 297.5,-85 285.49,-66.64 274.42,-43.99 267.36,-28.52"/>
<polygon fill="#63b8ff" stroke="#63b8ff" points="270.43,-26.8 263.15,-19.1 264.03,-29.65 270.43,-26.8"/>
</a>
</g>
</g>
<!-- Node14&#45;&gt;Node12 -->
<g id="edge22_Node000014_Node000012" class="edge">
<title>Node14&#45;&gt;Node12</title>
<g id="a_edge22_Node000014_Node000012"><a xlink:title=" ">
<path fill="none" stroke="#63b8ff" d="M344.49,-120.8C347.74,-113.09 351.85,-103.37 355.56,-94.56"/>
<polygon fill="#63b8ff" stroke="#63b8ff" points="358.86,-95.74 359.52,-85.16 352.41,-93.02 358.86,-95.74"/>
</a>
</g>
</g>
<!-- Node15 -->
<g id="Node000015" class="node">
<title>Node15</title>
<g id="a_Node000015"><a xlink:href="auth__type_8h.html" target="_top" xlink:title=" ">
<polygon fill="white" stroke="#666666" points="654.5,-79.5 580.5,-79.5 580.5,-60.5 654.5,-60.5 654.5,-79.5"/>
<text text-anchor="middle" x="617.5" y="-67.5" font-family="Helvetica,sans-Serif" font-size="10.00">auth_type.h</text>
</a>
</g>
</g>
<!-- Node14&#45;&gt;Node15 -->
<g id="edge19_Node000014_Node000015" class="edge">
<title>Node14&#45;&gt;Node15</title>
<g id="a_edge19_Node000014_Node000015"><a xlink:title=" ">
<path fill="none" stroke="#63b8ff" d="M399.73,-120.95C451.14,-109.16 523.51,-92.56 570.46,-81.79"/>
<polygon fill="#63b8ff" stroke="#63b8ff" points="571.41,-85.16 580.37,-79.52 569.84,-78.34 571.41,-85.16"/>
</a>
</g>
</g>
<!-- Node15&#45;&gt;Node4 -->
<g id="edge20_Node000015_Node000004" class="edge">
<title>Node15&#45;&gt;Node4</title>
<g id="a_edge20_Node000015_Node000004"><a xlink:title=" ">
<path fill="none" stroke="#63b8ff" d="M646.32,-60.37C652.33,-58.59 658.62,-56.73 664.5,-55 706.61,-42.65 755.27,-28.63 786.43,-19.68"/>
<polygon fill="#63b8ff" stroke="#63b8ff" points="787.65,-22.98 796.3,-16.85 785.72,-16.25 787.65,-22.98"/>
</a>
</g>
</g>
<!-- Node16&#45;&gt;Node4 -->
<g id="edge25_Node000016_Node000004" class="edge">
<title>Node16&#45;&gt;Node4</title>
<g id="a_edge25_Node000016_Node000004"><a xlink:title=" ">
<path fill="none" stroke="#63b8ff" d="M792.08,-263.69C806.07,-238.5 828.81,-193.19 837.5,-151 841.64,-130.92 833.95,-62.55 832.5,-55 830.82,-46.25 827.99,-36.81 825.32,-28.88"/>
<polygon fill="#63b8ff" stroke="#63b8ff" points="828.54,-27.47 821.9,-19.21 821.94,-29.81 828.54,-27.47"/>
</a>
</g>
</g>
<!-- Node16&#45;&gt;Node13 -->
<g id="edge36_Node000016_Node000013" class="edge">
<title>Node16&#45;&gt;Node13</title>
<g id="a_edge36_Node000016_Node000013"><a xlink:title=" ">
<path fill="none" stroke="#63b8ff" d="M777.13,-263.74C772.59,-237.15 764.52,-189.87 759.63,-161.18"/>
<polygon fill="#63b8ff" stroke="#63b8ff" points="763.05,-160.45 757.92,-151.18 756.15,-161.63 763.05,-160.45"/>
</a>
</g>
</g>
<!-- Node17 -->
<g id="Node000017" class="node">
<title>Node17</title>
<g id="a_Node000017"><a xlink:href="log_8h.html" target="_top" xlink:title=" ">
<polygon fill="white" stroke="#666666" points="626,-217 513,-217 513,-198 626,-198 626,-217"/>
<text text-anchor="middle" x="569.5" y="-205" font-family="Helvetica,sans-Serif" font-size="10.00">mosaic/logger/log.h</text>
</a>
</g>
</g>
<!-- Node16&#45;&gt;Node17 -->
<g id="edge26_Node000016_Node000017" class="edge">
<title>Node16&#45;&gt;Node17</title>
<g id="a_edge26_Node000016_Node000017"><a xlink:title=" ">
<path fill="none" stroke="#63b8ff" d="M725.61,-263.99C686.88,-250.22 636.23,-232.22 603.28,-220.51"/>
<polygon fill="#63b8ff" stroke="#63b8ff" points="604.26,-217.14 593.66,-217.09 601.91,-223.74 604.26,-217.14"/>
</a>
</g>
</g>
<!-- Node18 -->
<g id="Node000018" class="node">
<title>Node18</title>
<g id="a_Node000018"><a xlink:href="i__logger_8h.html" target="_top" xlink:title=" ">
<polygon fill="white" stroke="#666666" points="601.5,-145.5 537.5,-145.5 537.5,-126.5 601.5,-126.5 601.5,-145.5"/>
<text text-anchor="middle" x="569.5" y="-133.5" font-family="Helvetica,sans-Serif" font-size="10.00">i_logger.h</text>
</a>
</g>
</g>
<!-- Node17&#45;&gt;Node18 -->
<g id="edge27_Node000017_Node000018" class="edge">
<title>Node17&#45;&gt;Node18</title>
<g id="a_edge27_Node000017_Node000018"><a xlink:title=" ">
<path fill="none" stroke="#63b8ff" d="M569.5,-197.98C569.5,-187.56 569.5,-169.61 569.5,-155.88"/>
<polygon fill="#63b8ff" stroke="#63b8ff" points="573,-155.59 569.5,-145.59 566,-155.59 573,-155.59"/>
</a>
</g>
</g>
<!-- Node21 -->
<g id="Node000021" class="node">
<title>Node21</title>
<g id="a_Node000021"><a xlink:href="log__service_8h.html" target="_top" xlink:title=" ">
<polygon fill="white" stroke="#666666" points="524,-79.5 443,-79.5 443,-60.5 524,-60.5 524,-79.5"/>
<text text-anchor="middle" x="483.5" y="-67.5" font-family="Helvetica,sans-Serif" font-size="10.00">log_service.h</text>
</a>
</g>
</g>
<!-- Node17&#45;&gt;Node21 -->
<g id="edge35_Node000017_Node000021" class="edge">
<title>Node17&#45;&gt;Node21</title>
<g id="a_edge35_Node000017_Node000021"><a xlink:title=" ">
<path fill="none" stroke="#63b8ff" d="M562.47,-197.71C554.01,-186.96 539.56,-168.1 528.5,-151 515.02,-130.17 501.29,-105.09 492.61,-88.63"/>
<polygon fill="#63b8ff" stroke="#63b8ff" points="495.63,-86.85 487.89,-79.61 489.42,-90.1 495.63,-86.85"/>
</a>
</g>
</g>
<!-- Node18&#45;&gt;Node4 -->
<g id="edge28_Node000018_Node000004" class="edge">
<title>Node18&#45;&gt;Node4</title>
<g id="a_edge28_Node000018_Node000004"><a xlink:title=" ">
<path fill="none" stroke="#63b8ff" d="M601.72,-127.82C652.85,-116.24 748.16,-93.86 761.5,-85 783.16,-70.62 799.97,-45.19 809.56,-28.1"/>
<polygon fill="#63b8ff" stroke="#63b8ff" points="812.72,-29.61 814.35,-19.14 806.55,-26.31 812.72,-29.61"/>
</a>
</g>
</g>
<!-- Node19 -->
<g id="Node000019" class="node">
<title>Node19</title>
<g id="a_Node000019"><a xlink:title=" ">
<polygon fill="#e0e0e0" stroke="#999999" points="752,-79.5 673,-79.5 673,-60.5 752,-60.5 752,-79.5"/>
<text text-anchor="middle" x="712.5" y="-67.5" font-family="Helvetica,sans-Serif" font-size="10.00">fmt/format.h</text>
</a>
</g>
</g>
<!-- Node18&#45;&gt;Node19 -->
<g id="edge29_Node000018_Node000019" class="edge">
<title>Node18&#45;&gt;Node19</title>
<g id="a_edge29_Node000018_Node000019"><a xlink:title=" ">
<path fill="none" stroke="#63b8ff" d="M588.79,-126.37C613.2,-115.44 655.47,-96.52 683.71,-83.88"/>
<polygon fill="#63b8ff" stroke="#63b8ff" points="685.37,-86.98 693.06,-79.7 682.51,-80.59 685.37,-86.98"/>
</a>
</g>
</g>
<!-- Node20 -->
<g id="Node000020" class="node">
<title>Node20</title>
<g id="a_Node000020"><a xlink:href="log__level_8h.html" target="_top" xlink:title=" ">
<polygon fill="white" stroke="#666666" points="587.5,-19 517.5,-19 517.5,0 587.5,0 587.5,-19"/>
<text text-anchor="middle" x="552.5" y="-7" font-family="Helvetica,sans-Serif" font-size="10.00">log_level.h</text>
</a>
</g>
</g>
<!-- Node18&#45;&gt;Node20 -->
<g id="edge30_Node000018_Node000020" class="edge">
<title>Node18&#45;&gt;Node20</title>
<g id="a_edge30_Node000018_Node000020"><a xlink:title=" ">
<path fill="none" stroke="#63b8ff" d="M568.33,-126.44C565.61,-106.54 558.82,-56.76 555.07,-29.35"/>
<polygon fill="#63b8ff" stroke="#63b8ff" points="558.5,-28.55 553.68,-19.12 551.56,-29.5 558.5,-28.55"/>
</a>
</g>
</g>
<!-- Node18&#45;&gt;Node21 -->
<g id="edge31_Node000018_Node000021" class="edge">
<title>Node18&#45;&gt;Node21</title>
<g id="a_edge31_Node000018_Node000021"><a xlink:title=" ">
<path fill="none" stroke="#63b8ff" d="M557.9,-126.37C543.92,-115.97 520.21,-98.32 503.32,-85.75"/>
<polygon fill="#63b8ff" stroke="#63b8ff" points="505.3,-82.86 495.19,-79.7 501.12,-88.48 505.3,-82.86"/>
</a>
</g>
</g>
<!-- Node21&#45;&gt;Node8 -->
<g id="edge32_Node000021_Node000008" class="edge">
<title>Node21&#45;&gt;Node8</title>
<g id="a_edge32_Node000021_Node000008"><a xlink:title=" ">
<path fill="none" stroke="#63b8ff" d="M453.39,-60.45C446.84,-58.62 439.94,-56.73 433.5,-55 387.31,-42.63 334.02,-29.11 298.71,-20.26"/>
<polygon fill="#63b8ff" stroke="#63b8ff" points="299.35,-16.81 288.8,-17.78 297.65,-23.6 299.35,-16.81"/>
</a>
</g>
</g>
<!-- Node21&#45;&gt;Node20 -->
<g id="edge34_Node000021_Node000020" class="edge">
<title>Node21&#45;&gt;Node20</title>
<g id="a_edge34_Node000021_Node000020"><a xlink:title=" ">
<path fill="none" stroke="#63b8ff" d="M493.68,-60.37C504.38,-51.3 521.44,-36.84 534.43,-25.82"/>
<polygon fill="#63b8ff" stroke="#63b8ff" points="536.91,-28.3 542.28,-19.17 532.39,-22.96 536.91,-28.3"/>
</a>
</g>
</g>
<!-- Node22 -->
<g id="Node000022" class="node">
<title>Node22</title>
<g id="a_Node000022"><a xlink:title=" ">
<polygon fill="#e0e0e0" stroke="#999999" points="499,-19 430,-19 430,0 499,0 499,-19"/>
<text text-anchor="middle" x="464.5" y="-7" font-family="Helvetica,sans-Serif" font-size="10.00">type_traits</text>
</a>
</g>
</g>
<!-- Node21&#45;&gt;Node22 -->
<g id="edge33_Node000021_Node000022" class="edge">
<title>Node21&#45;&gt;Node22</title>
<g id="a_edge33_Node000021_Node000022"><a xlink:title=" ">
<path fill="none" stroke="#63b8ff" d="M480.7,-60.37C478,-52.07 473.85,-39.28 470.42,-28.72"/>
<polygon fill="#63b8ff" stroke="#63b8ff" points="473.73,-27.6 467.32,-19.17 467.08,-29.76 473.73,-27.6"/>
</a>
</g>
</g>
<!-- Node23&#45;&gt;Node4 -->
<g id="edge38_Node000023_Node000004" class="edge">
<title>Node23&#45;&gt;Node4</title>
<g id="a_edge38_Node000023_Node000004"><a xlink:title=" ">
<path fill="none" stroke="#63b8ff" d="M926.67,-186.98C913.98,-151.28 886.58,-77.12 870.5,-55 862.09,-43.44 850.1,-32.91 839.76,-25.01"/>
<polygon fill="#63b8ff" stroke="#63b8ff" points="841.7,-22.09 831.56,-19.01 837.57,-27.74 841.7,-22.09"/>
</a>
</g>
</g>
<!-- Node23&#45;&gt;Node13 -->
<g id="edge40_Node000023_Node000013" class="edge">
<title>Node23&#45;&gt;Node13</title>
<g id="a_edge40_Node000023_Node000013"><a xlink:title=" ">
<path fill="none" stroke="#63b8ff" d="M883.44,-186.96C857.46,-176.81 825.95,-164.51 800.71,-154.65"/>
<polygon fill="#63b8ff" stroke="#63b8ff" points="801.95,-151.38 791.37,-151 799.41,-157.9 801.95,-151.38"/>
</a>
</g>
</g>
<!-- Node24 -->
<g id="Node000024" class="node">
<title>Node24</title>
<g id="a_Node000024"><a xlink:title=" ">
<polygon fill="#e0e0e0" stroke="#999999" points="968,-145.5 923,-145.5 923,-126.5 968,-126.5 968,-145.5"/>
<text text-anchor="middle" x="945.5" y="-133.5" font-family="Helvetica,sans-Serif" font-size="10.00">utility</text>
</a>
</g>
</g>
<!-- Node23&#45;&gt;Node24 -->
<g id="edge39_Node000023_Node000024" class="edge">
<title>Node23&#45;&gt;Node24</title>
<g id="a_edge39_Node000023_Node000024"><a xlink:title=" ">
<path fill="none" stroke="#63b8ff" d="M936.91,-186.77C938.58,-177.08 940.59,-165.46 942.24,-155.88"/>
<polygon fill="#63b8ff" stroke="#63b8ff" points="945.72,-156.27 943.98,-145.82 938.83,-155.08 945.72,-156.27"/>
</a>
</g>
</g>
</g>
</svg>

<g id="navigator" transform="translate(0 0)" fill="#404254">
  <rect fill="#f2f5e9" fill-opacity="0.5" stroke="#606060" stroke-width=".5" x="0" y="0" width="60" height="60"/>
  <use id="zoomplus" xlink:href="#zoomPlus" x="17" y="9" onmousedown="handleZoom(evt,'in')"/>
  <use id="zoomminus" xlink:href="#zoomMin" x="42" y="9" onmousedown="handleZoom(evt,'out')"/>
  <use id="reset" xlink:href="#resetDef" x="30" y="36" onmousedown="handleReset()"/>
   <use id="arrowup" xlink:href="#arrowUp" x="0" y="0" onmousedown="handlePan(0,-1)"/>
  <use id="arrowright" xlink:href="#arrowRight" x="0" y="0" onmousedown="handlePan(1,0)"/>
  <use id="arrowdown" xlink:href="#arrowDown" x="0" y="0" onmousedown="handlePan(0,1)"/>
  <use id="arrowleft" xlink:href="#arrowLeft" x="0" y="0" onmousedown="handlePan(-1,0)"/>
</g>
<svg viewBox="0 0 15 15" width="100%" height="30px" preserveAspectRatio="xMaxYMin meet">
 <g id="arrow_out" transform="scale(0.3 0.3)">
  <a xlink:href="peer__connection__manager_8h__incl_org.svg" target="_base">
   <rect id="button" ry="5" rx="5" y="6" x="6" height="38" width="38"
        fill="#f2f5e9" fill-opacity="0.5" stroke="#606060" stroke-width="1.0"/>
   <path id="arrow"
     d="M 11.500037,31.436501 C 11.940474,20.09759 22.043105,11.32322 32.158766,21.979434 L 37.068811,17.246167 C 37.068811,17.246167 37.088388,32 37.088388,32 L 22.160133,31.978069 C 22.160133,31.978069 26.997745,27.140456 26.997745,27.140456 C 18.528582,18.264221 13.291696,25.230495 11.500037,31.436501 z"
     style="fill:#404040;"/>
  </a>
 </g>
</svg>

<style type='text/css'>
<![CDATA[
[data-mouse-over-selected='false'] { opacity: 0.7; }
[data-mouse-over-selected='true']  { opacity: 1.0; }
]]>
</style>
<script type="application/ecmascript"><![CDATA[
document.addEventListener('DOMContentLoaded', (event) => {
  highlightEdges();
  highlightAdjacentNodes();
});
]]></script>
</svg>
