<?xml version="1.0" encoding="UTF-8" standalone="no"?>
<!DOCTYPE svg PUBLIC "-//W3C//DTD SVG 1.1//EN"
 "http://www.w3.org/Graphics/SVG/1.1/DTD/svg11.dtd">
<!-- Generated by graphviz version 2.43.0 (0)
 -->
<!-- Title: src/handlers/media_track/recordable.cpp Pages: 1 -->
<svg width="493pt" height="269pt"
 viewBox="0.00 0.00 493.00 269.00" xmlns="http://www.w3.org/2000/svg" xmlns:xlink="http://www.w3.org/1999/xlink">
<g id="graph0" class="graph" transform="scale(1 1) rotate(0) translate(4 265)">
<title>src/handlers/media_track/recordable.cpp</title>
<!-- Node1 -->
<g id="Node000001" class="node">
<title>Node1</title>
<g id="a_Node000001"><a xlink:title=" ">
<polygon fill="#999999" stroke="#666666" points="256.5,-261 134.5,-261 134.5,-231 256.5,-231 256.5,-261"/>
<text text-anchor="start" x="142.5" y="-249" font-family="Helvetica,sans-Serif" font-size="10.00">src/handlers/media</text>
<text text-anchor="middle" x="195.5" y="-238" font-family="Helvetica,sans-Serif" font-size="10.00">_track/recordable.cpp</text>
</a>
</g>
</g>
<!-- Node2 -->
<g id="Node000002" class="node">
<title>Node2</title>
<g id="a_Node000002"><a xlink:title=" ">
<polygon fill="#e0e0e0" stroke="#999999" points="148.5,-195 80.5,-195 80.5,-176 148.5,-176 148.5,-195"/>
<text text-anchor="middle" x="114.5" y="-183" font-family="Helvetica,sans-Serif" font-size="10.00">filesystem</text>
</a>
</g>
</g>
<!-- Node1&#45;&gt;Node2 -->
<g id="edge1_Node000001_Node000002" class="edge">
<title>Node1&#45;&gt;Node2</title>
<g id="a_edge1_Node000001_Node000002"><a xlink:title=" ">
<path fill="none" stroke="#63b8ff" d="M175.89,-230.84C163.53,-221.91 147.6,-210.41 135.07,-201.35"/>
<polygon fill="#63b8ff" stroke="#63b8ff" points="136.79,-198.28 126.64,-195.27 132.7,-203.96 136.79,-198.28"/>
</a>
</g>
</g>
<!-- Node3 -->
<g id="Node000003" class="node">
<title>Node3</title>
<g id="a_Node000003"><a xlink:href="recordable_8h.html" target="_top" xlink:title=" ">
<polygon fill="white" stroke="#666666" points="280,-140 149,-140 149,-110 280,-110 280,-140"/>
<text text-anchor="start" x="157" y="-128" font-family="Helvetica,sans-Serif" font-size="10.00">mosaic/handlers/media</text>
<text text-anchor="middle" x="214.5" y="-117" font-family="Helvetica,sans-Serif" font-size="10.00">_track/recordable.h</text>
</a>
</g>
</g>
<!-- Node1&#45;&gt;Node3 -->
<g id="edge2_Node000001_Node000003" class="edge">
<title>Node1&#45;&gt;Node3</title>
<g id="a_edge2_Node000001_Node000003"><a xlink:title=" ">
<path fill="none" stroke="#63b8ff" d="M197.75,-230.88C200.93,-211.02 206.75,-174.55 210.62,-150.29"/>
<polygon fill="#63b8ff" stroke="#63b8ff" points="214.13,-150.53 212.25,-140.1 207.22,-149.42 214.13,-150.53"/>
</a>
</g>
</g>
<!-- Node7 -->
<g id="Node000007" class="node">
<title>Node7</title>
<g id="a_Node000007"><a xlink:href="video__recorder_8h.html" target="_top" xlink:title=" ">
<polygon fill="white" stroke="#666666" points="131,-140 0,-140 0,-110 131,-110 131,-140"/>
<text text-anchor="start" x="8" y="-128" font-family="Helvetica,sans-Serif" font-size="10.00">mosaic/handlers/media</text>
<text text-anchor="middle" x="65.5" y="-117" font-family="Helvetica,sans-Serif" font-size="10.00">_track/video_recorder.h</text>
</a>
</g>
</g>
<!-- Node1&#45;&gt;Node7 -->
<g id="edge6_Node000001_Node000007" class="edge">
<title>Node1&#45;&gt;Node7</title>
<g id="a_edge6_Node000001_Node000007"><a xlink:title=" ">
<path fill="none" stroke="#63b8ff" d="M190.47,-230.8C184.53,-215.68 173.4,-191.81 157.5,-176 144.46,-163.03 127.36,-152.51 111.45,-144.52"/>
<polygon fill="#63b8ff" stroke="#63b8ff" points="112.79,-141.28 102.26,-140.11 109.76,-147.59 112.79,-141.28"/>
</a>
</g>
</g>
<!-- Node8 -->
<g id="Node000008" class="node">
<title>Node8</title>
<g id="a_Node000008"><a xlink:href="log_8h.html" target="_top" xlink:title=" ">
<polygon fill="white" stroke="#666666" points="365,-195 252,-195 252,-176 365,-176 365,-195"/>
<text text-anchor="middle" x="308.5" y="-183" font-family="Helvetica,sans-Serif" font-size="10.00">mosaic/logger/log.h</text>
</a>
</g>
</g>
<!-- Node1&#45;&gt;Node8 -->
<g id="edge10_Node000001_Node000008" class="edge">
<title>Node1&#45;&gt;Node8</title>
<g id="a_edge10_Node000001_Node000008"><a xlink:title=" ">
<path fill="none" stroke="#63b8ff" d="M222.57,-230.99C240.75,-221.58 264.57,-209.24 282.52,-199.95"/>
<polygon fill="#63b8ff" stroke="#63b8ff" points="284.54,-202.84 291.81,-195.14 281.32,-196.63 284.54,-202.84"/>
</a>
</g>
</g>
<!-- Node4 -->
<g id="Node000004" class="node">
<title>Node4</title>
<g id="a_Node000004"><a xlink:title=" ">
<polygon fill="#e0e0e0" stroke="#999999" points="245.5,-19 187.5,-19 187.5,0 245.5,0 245.5,-19"/>
<text text-anchor="middle" x="216.5" y="-7" font-family="Helvetica,sans-Serif" font-size="10.00">memory</text>
</a>
</g>
</g>
<!-- Node3&#45;&gt;Node4 -->
<g id="edge3_Node000003_Node000004" class="edge">
<title>Node3&#45;&gt;Node4</title>
<g id="a_edge3_Node000003_Node000004"><a xlink:title=" ">
<path fill="none" stroke="#63b8ff" d="M216.69,-109.6C218.09,-99.63 219.78,-86.04 220.5,-74 221,-65.57 220.88,-63.44 220.5,-55 220.12,-46.47 219.32,-37.04 218.54,-29.07"/>
<polygon fill="#63b8ff" stroke="#63b8ff" points="222.01,-28.6 217.49,-19.02 215.05,-29.32 222.01,-28.6"/>
</a>
</g>
</g>
<!-- Node5 -->
<g id="Node000005" class="node">
<title>Node5</title>
<g id="a_Node000005"><a xlink:title=" ">
<polygon fill="#e0e0e0" stroke="#999999" points="211.5,-74 167.5,-74 167.5,-55 211.5,-55 211.5,-74"/>
<text text-anchor="middle" x="189.5" y="-62" font-family="Helvetica,sans-Serif" font-size="10.00">string</text>
</a>
</g>
</g>
<!-- Node3&#45;&gt;Node5 -->
<g id="edge4_Node000003_Node000005" class="edge">
<title>Node3&#45;&gt;Node5</title>
<g id="a_edge4_Node000003_Node000005"><a xlink:title=" ">
<path fill="none" stroke="#63b8ff" d="M208.45,-109.84C205.08,-101.95 200.85,-92.05 197.24,-83.61"/>
<polygon fill="#63b8ff" stroke="#63b8ff" points="200.39,-82.09 193.25,-74.27 193.96,-84.84 200.39,-82.09"/>
</a>
</g>
</g>
<!-- Node6 -->
<g id="Node000006" class="node">
<title>Node6</title>
<g id="a_Node000006"><a xlink:title=" ">
<polygon fill="#e0e0e0" stroke="#999999" points="149,-74 20,-74 20,-55 149,-55 149,-74"/>
<text text-anchor="middle" x="84.5" y="-62" font-family="Helvetica,sans-Serif" font-size="10.00">opencv_forward_decl.h</text>
</a>
</g>
</g>
<!-- Node3&#45;&gt;Node6 -->
<g id="edge5_Node000003_Node000006" class="edge">
<title>Node3&#45;&gt;Node6</title>
<g id="a_edge5_Node000003_Node000006"><a xlink:title=" ">
<path fill="none" stroke="#63b8ff" d="M183.36,-109.99C161.96,-100.36 133.77,-87.67 112.97,-78.31"/>
<polygon fill="#63b8ff" stroke="#63b8ff" points="114.25,-75.05 103.7,-74.14 111.38,-81.43 114.25,-75.05"/>
</a>
</g>
</g>
<!-- Node7&#45;&gt;Node4 -->
<g id="edge7_Node000007_Node000004" class="edge">
<title>Node7&#45;&gt;Node4</title>
<g id="a_edge7_Node000007_Node000004"><a xlink:title=" ">
<path fill="none" stroke="#63b8ff" d="M41.21,-109.95C20.12,-95.98 -4.8,-73.95 10.5,-55 31.02,-29.57 123.17,-17.97 177.02,-13.27"/>
<polygon fill="#63b8ff" stroke="#63b8ff" points="177.57,-16.74 187.24,-12.42 176.99,-9.76 177.57,-16.74"/>
</a>
</g>
</g>
<!-- Node7&#45;&gt;Node5 -->
<g id="edge8_Node000007_Node000005" class="edge">
<title>Node7&#45;&gt;Node5</title>
<g id="a_edge8_Node000007_Node000005"><a xlink:title=" ">
<path fill="none" stroke="#63b8ff" d="M95.2,-109.99C115.52,-100.4 142.26,-87.79 162.08,-78.44"/>
<polygon fill="#63b8ff" stroke="#63b8ff" points="163.64,-81.57 171.19,-74.14 160.65,-75.24 163.64,-81.57"/>
</a>
</g>
</g>
<!-- Node7&#45;&gt;Node6 -->
<g id="edge9_Node000007_Node000006" class="edge">
<title>Node7&#45;&gt;Node6</title>
<g id="a_edge9_Node000007_Node000006"><a xlink:title=" ">
<path fill="none" stroke="#63b8ff" d="M70.1,-109.84C72.63,-102.04 75.81,-92.27 78.53,-83.89"/>
<polygon fill="#63b8ff" stroke="#63b8ff" points="81.89,-84.86 81.65,-74.27 75.24,-82.7 81.89,-84.86"/>
</a>
</g>
</g>
<!-- Node9 -->
<g id="Node000009" class="node">
<title>Node9</title>
<g id="a_Node000009"><a xlink:href="i__logger_8h.html" target="_top" xlink:title=" ">
<polygon fill="white" stroke="#666666" points="400.5,-134.5 336.5,-134.5 336.5,-115.5 400.5,-115.5 400.5,-134.5"/>
<text text-anchor="middle" x="368.5" y="-122.5" font-family="Helvetica,sans-Serif" font-size="10.00">i_logger.h</text>
</a>
</g>
</g>
<!-- Node8&#45;&gt;Node9 -->
<g id="edge11_Node000008_Node000009" class="edge">
<title>Node8&#45;&gt;Node9</title>
<g id="a_edge11_Node000008_Node000009"><a xlink:title=" ">
<path fill="none" stroke="#63b8ff" d="M317.35,-175.87C326.48,-166.97 340.92,-152.89 352.14,-141.95"/>
<polygon fill="#63b8ff" stroke="#63b8ff" points="354.89,-144.15 359.61,-134.67 350.01,-139.14 354.89,-144.15"/>
</a>
</g>
</g>
<!-- Node12 -->
<g id="Node000012" class="node">
<title>Node12</title>
<g id="a_Node000012"><a xlink:href="log__service_8h.html" target="_top" xlink:title=" ">
<polygon fill="white" stroke="#666666" points="349,-74 268,-74 268,-55 349,-55 349,-74"/>
<text text-anchor="middle" x="308.5" y="-62" font-family="Helvetica,sans-Serif" font-size="10.00">log_service.h</text>
</a>
</g>
</g>
<!-- Node8&#45;&gt;Node12 -->
<g id="edge19_Node000008_Node000012" class="edge">
<title>Node8&#45;&gt;Node12</title>
<g id="a_edge19_Node000008_Node000012"><a xlink:title=" ">
<path fill="none" stroke="#63b8ff" d="M308.5,-175.94C308.5,-156.91 308.5,-110.69 308.5,-84.47"/>
<polygon fill="#63b8ff" stroke="#63b8ff" points="312,-84.3 308.5,-74.3 305,-84.3 312,-84.3"/>
</a>
</g>
</g>
<!-- Node9&#45;&gt;Node5 -->
<g id="edge12_Node000009_Node000005" class="edge">
<title>Node9&#45;&gt;Node5</title>
<g id="a_edge12_Node000009_Node000005"><a xlink:title=" ">
<path fill="none" stroke="#63b8ff" d="M342.47,-115.49C310.35,-105 255.75,-87.15 221.21,-75.86"/>
<polygon fill="#63b8ff" stroke="#63b8ff" points="222.2,-72.51 211.61,-72.73 220.03,-79.16 222.2,-72.51"/>
</a>
</g>
</g>
<!-- Node10 -->
<g id="Node000010" class="node">
<title>Node10</title>
<g id="a_Node000010"><a xlink:title=" ">
<polygon fill="#e0e0e0" stroke="#999999" points="485,-74 406,-74 406,-55 485,-55 485,-74"/>
<text text-anchor="middle" x="445.5" y="-62" font-family="Helvetica,sans-Serif" font-size="10.00">fmt/format.h</text>
</a>
</g>
</g>
<!-- Node9&#45;&gt;Node10 -->
<g id="edge13_Node000009_Node000010" class="edge">
<title>Node9&#45;&gt;Node10</title>
<g id="a_edge13_Node000009_Node000010"><a xlink:title=" ">
<path fill="none" stroke="#63b8ff" d="M379.86,-115.37C391.92,-106.21 411.2,-91.56 425.75,-80.51"/>
<polygon fill="#63b8ff" stroke="#63b8ff" points="428.25,-83 434.09,-74.17 424.01,-77.43 428.25,-83"/>
</a>
</g>
</g>
<!-- Node11 -->
<g id="Node000011" class="node">
<title>Node11</title>
<g id="a_Node000011"><a xlink:href="log__level_8h.html" target="_top" xlink:title=" ">
<polygon fill="white" stroke="#666666" points="421.5,-19 351.5,-19 351.5,0 421.5,0 421.5,-19"/>
<text text-anchor="middle" x="386.5" y="-7" font-family="Helvetica,sans-Serif" font-size="10.00">log_level.h</text>
</a>
</g>
</g>
<!-- Node9&#45;&gt;Node11 -->
<g id="edge14_Node000009_Node000011" class="edge">
<title>Node9&#45;&gt;Node11</title>
<g id="a_edge14_Node000009_Node000011"><a xlink:title=" ">
<path fill="none" stroke="#63b8ff" d="M369.85,-115.47C372.75,-97.23 379.59,-54.07 383.54,-29.14"/>
<polygon fill="#63b8ff" stroke="#63b8ff" points="387.02,-29.55 385.13,-19.13 380.11,-28.46 387.02,-29.55"/>
</a>
</g>
</g>
<!-- Node9&#45;&gt;Node12 -->
<g id="edge15_Node000009_Node000012" class="edge">
<title>Node9&#45;&gt;Node12</title>
<g id="a_edge15_Node000009_Node000012"><a xlink:title=" ">
<path fill="none" stroke="#63b8ff" d="M359.65,-115.37C350.52,-106.47 336.08,-92.39 324.86,-81.45"/>
<polygon fill="#63b8ff" stroke="#63b8ff" points="326.99,-78.64 317.39,-74.17 322.11,-83.65 326.99,-78.64"/>
</a>
</g>
</g>
<!-- Node12&#45;&gt;Node4 -->
<g id="edge16_Node000012_Node000004" class="edge">
<title>Node12&#45;&gt;Node4</title>
<g id="a_edge16_Node000012_Node000004"><a xlink:title=" ">
<path fill="none" stroke="#63b8ff" d="M293.72,-54.98C279.32,-46.69 257.19,-33.94 240.31,-24.22"/>
<polygon fill="#63b8ff" stroke="#63b8ff" points="241.96,-21.13 231.55,-19.17 238.47,-27.19 241.96,-21.13"/>
</a>
</g>
</g>
<!-- Node12&#45;&gt;Node11 -->
<g id="edge18_Node000012_Node000011" class="edge">
<title>Node12&#45;&gt;Node11</title>
<g id="a_edge18_Node000012_Node000011"><a xlink:title=" ">
<path fill="none" stroke="#63b8ff" d="M321.03,-54.98C332.9,-46.92 350.96,-34.65 365.11,-25.03"/>
<polygon fill="#63b8ff" stroke="#63b8ff" points="367.44,-27.69 373.74,-19.17 363.5,-21.9 367.44,-27.69"/>
</a>
</g>
</g>
<!-- Node13 -->
<g id="Node000013" class="node">
<title>Node13</title>
<g id="a_Node000013"><a xlink:title=" ">
<polygon fill="#e0e0e0" stroke="#999999" points="333,-19 264,-19 264,0 333,0 333,-19"/>
<text text-anchor="middle" x="298.5" y="-7" font-family="Helvetica,sans-Serif" font-size="10.00">type_traits</text>
</a>
</g>
</g>
<!-- Node12&#45;&gt;Node13 -->
<g id="edge17_Node000012_Node000013" class="edge">
<title>Node12&#45;&gt;Node13</title>
<g id="a_edge17_Node000012_Node000013"><a xlink:title=" ">
<path fill="none" stroke="#63b8ff" d="M306.85,-54.75C305.54,-47.8 303.66,-37.85 302.02,-29.13"/>
<polygon fill="#63b8ff" stroke="#63b8ff" points="305.41,-28.27 300.12,-19.09 298.54,-29.56 305.41,-28.27"/>
</a>
</g>
</g>
</g>
</svg>
