<?xml version="1.0" encoding="UTF-8" standalone="no"?>
<!DOCTYPE svg PUBLIC "-//W3C//DTD SVG 1.1//EN"
 "http://www.w3.org/Graphics/SVG/1.1/DTD/svg11.dtd">
<!-- Generated by graphviz version 2.43.0 (0)
 -->
<!-- Title: src/signaling/signaling_client.cpp Pages: 1 -->
<!--zoomable 511 -->

<svg id="main" version="1.1" xmlns="http://www.w3.org/2000/svg" xmlns:xlink="http://www.w3.org/1999/xlink" xml:space="preserve" onload="init(evt)">
<style type="text/css"><![CDATA[
.node, .edge {opacity: 0.7;}
.node.selected, .edge.selected {opacity: 1;}
.edge:hover path { stroke: red; }
.edge:hover polygon { stroke: red; fill: red; }
]]></style>

<defs>
  <circle id="rim" cx="0" cy="0" r="7"/>
  <circle id="rim2" cx="0" cy="0" r="3.5"/>
  <g id="zoomPlus">
    <use xlink:href="#rim" fill="#404040"><set attributeName="fill" to="#808080" begin="zoomplus.mouseover" end="zoomplus.mouseout"/></use>
    <path d="M-4,0h8M0,-4v8" fill="none" stroke="white" stroke-width="1.5" pointer-events="none"/>
  </g>
  <g id="zoomMin">
    <use xlink:href="#rim" fill="#404040"><set attributeName="fill" to="#808080" begin="zoomminus.mouseover" end="zoomminus.mouseout"/></use>
    <path d="M-4,0h8" fill="none" stroke="white" stroke-width="1.5" pointer-events="none"/>
  </g>
  <g id="arrowUp" transform="translate(30 24)">
    <use xlink:href="#rim"/>
    <path pointer-events="none" fill="none" stroke="white" stroke-width="1.5" d="M0,-3.0v7 M-2.5,-0.5L0,-3.0L2.5,-0.5"/>
  </g>
  <g id="arrowRight" transform="rotate(90) translate(36 -43)">
    <use xlink:href="#rim"/>
    <path pointer-events="none" fill="none" stroke="white" stroke-width="1.5" d="M0,-3.0v7 M-2.5,-0.5L0,-3.0L2.5,-0.5"/>
  </g>
  <g id="arrowDown" transform="rotate(180) translate(-30 -48)">
    <use xlink:href="#rim"/>
    <path pointer-events="none" fill="none" stroke="white" stroke-width="1.5" d="M0,-3.0v7 M-2.5,-0.5L0,-3.0L2.5,-0.5"/>
  </g>
  <g id="arrowLeft" transform="rotate(270) translate(-36 17)">
    <use xlink:href="#rim"/>
    <path pointer-events="none" fill="none" stroke="white" stroke-width="1.5" d="M0,-3.0v7 M-2.5,-0.5L0,-3.0L2.5,-0.5"/>
  </g>
  <g id="resetDef">
    <use xlink:href="#rim2" fill="#404040"><set attributeName="fill" to="#808080" begin="reset.mouseover" end="reset.mouseout"/></use>
  </g>
</defs>
<script type="application/ecmascript">
var viewWidth = 1509;
var viewHeight = 511;
var sectionId = 'dynsection-0';
</script>
<script type="application/ecmascript" xlink:href="svg.min.js"/>
<svg id="graph" class="graph">
<g id="viewport">
<title>src/signaling/signaling_client.cpp</title>
<!-- Node1 -->
<g id="Node000001" class="node">
<title>Node1</title>
<g id="a_Node000001"><a xlink:title=" ">
<polygon fill="#999999" stroke="#666666" points="277.5,-503 152.5,-503 152.5,-473 277.5,-473 277.5,-503"/>
<text text-anchor="start" x="160.5" y="-491" font-family="Helvetica,sans-Serif" font-size="10.00">src/signaling/signaling</text>
<text text-anchor="middle" x="215" y="-480" font-family="Helvetica,sans-Serif" font-size="10.00">_client.cpp</text>
</a>
</g>
</g>
<!-- Node2 -->
<g id="Node000002" class="node">
<title>Node2</title>
<g id="a_Node000002"><a xlink:title=" ">
<polygon fill="#e0e0e0" stroke="#999999" points="131,-431.5 67,-431.5 67,-412.5 131,-412.5 131,-431.5"/>
<text text-anchor="middle" x="99" y="-419.5" font-family="Helvetica,sans-Serif" font-size="10.00">api/jsep.h</text>
</a>
</g>
</g>
<!-- Node1&#45;&gt;Node2 -->
<g id="edge1_Node000001_Node000002" class="edge">
<title>Node1&#45;&gt;Node2</title>
<g id="a_edge1_Node000001_Node000002"><a xlink:title=" ">
<path fill="none" stroke="#63b8ff" d="M189.54,-472.95C169.83,-462.08 142.69,-447.11 123.28,-436.4"/>
<polygon fill="#63b8ff" stroke="#63b8ff" points="124.88,-433.28 114.44,-431.52 121.5,-439.41 124.88,-433.28"/>
</a>
</g>
</g>
<!-- Node3 -->
<g id="Node000003" class="node">
<title>Node3</title>
<g id="a_Node000003"><a xlink:title=" ">
<polygon fill="#e0e0e0" stroke="#999999" points="218.5,-431.5 149.5,-431.5 149.5,-412.5 218.5,-412.5 218.5,-431.5"/>
<text text-anchor="middle" x="184" y="-419.5" font-family="Helvetica,sans-Serif" font-size="10.00">json/json.h</text>
</a>
</g>
</g>
<!-- Node1&#45;&gt;Node3 -->
<g id="edge2_Node000001_Node000003" class="edge">
<title>Node1&#45;&gt;Node3</title>
<g id="a_edge2_Node000001_Node000003"><a xlink:title=" ">
<path fill="none" stroke="#63b8ff" d="M208.12,-472.8C203.57,-463.41 197.57,-451.02 192.69,-440.95"/>
<polygon fill="#63b8ff" stroke="#63b8ff" points="195.79,-439.32 188.28,-431.84 189.49,-442.37 195.79,-439.32"/>
</a>
</g>
</g>
<!-- Node4 -->
<g id="Node000004" class="node">
<title>Node4</title>
<g id="a_Node000004"><a xlink:href="log_8h.html" target="_top" xlink:title=" ">
<polygon fill="white" stroke="#666666" points="269.5,-217 156.5,-217 156.5,-198 269.5,-198 269.5,-217"/>
<text text-anchor="middle" x="213" y="-205" font-family="Helvetica,sans-Serif" font-size="10.00">mosaic/logger/log.h</text>
</a>
</g>
</g>
<!-- Node1&#45;&gt;Node4 -->
<g id="edge3_Node000001_Node000004" class="edge">
<title>Node1&#45;&gt;Node4</title>
<g id="a_edge3_Node000001_Node000004"><a xlink:title=" ">
<path fill="none" stroke="#63b8ff" d="M219.38,-472.72C222.18,-462.81 225.55,-449.23 227,-437 236.18,-359.41 223,-266.23 216.39,-227.17"/>
<polygon fill="#63b8ff" stroke="#63b8ff" points="219.83,-226.49 214.66,-217.25 212.94,-227.7 219.83,-226.49"/>
</a>
</g>
</g>
<!-- Node12 -->
<g id="Node000012" class="node">
<title>Node12</title>
<g id="a_Node000012"><a xlink:href="signaling__client_8h.html" target="_top" xlink:title=" ">
<polygon fill="white" stroke="#666666" points="1032,-437 886,-437 886,-407 1032,-407 1032,-437"/>
<text text-anchor="start" x="894" y="-425" font-family="Helvetica,sans-Serif" font-size="10.00">mosaic/signaling/signaling</text>
<text text-anchor="middle" x="959" y="-414" font-family="Helvetica,sans-Serif" font-size="10.00">_client.h</text>
</a>
</g>
</g>
<!-- Node1&#45;&gt;Node12 -->
<g id="edge13_Node000001_Node000012" class="edge">
<title>Node1&#45;&gt;Node12</title>
<g id="a_edge13_Node000001_Node000012"><a xlink:title=" ">
<path fill="none" stroke="#63b8ff" d="M277.79,-481.6C411.69,-470.08 725.31,-443.1 875.69,-430.17"/>
<polygon fill="#63b8ff" stroke="#63b8ff" points="876.13,-433.64 885.8,-429.3 875.53,-426.67 876.13,-433.64"/>
</a>
</g>
</g>
<!-- Node5 -->
<g id="Node000005" class="node">
<title>Node5</title>
<g id="a_Node000005"><a xlink:href="i__logger_8h.html" target="_top" xlink:title=" ">
<polygon fill="white" stroke="#666666" points="234,-145.5 170,-145.5 170,-126.5 234,-126.5 234,-145.5"/>
<text text-anchor="middle" x="202" y="-133.5" font-family="Helvetica,sans-Serif" font-size="10.00">i_logger.h</text>
</a>
</g>
</g>
<!-- Node4&#45;&gt;Node5 -->
<g id="edge4_Node000004_Node000005" class="edge">
<title>Node4&#45;&gt;Node5</title>
<g id="a_edge4_Node000004_Node000005"><a xlink:title=" ">
<path fill="none" stroke="#63b8ff" d="M211.65,-197.98C210,-187.56 207.16,-169.61 204.99,-155.88"/>
<polygon fill="#63b8ff" stroke="#63b8ff" points="208.38,-154.92 203.36,-145.59 201.47,-156.02 208.38,-154.92"/>
</a>
</g>
</g>
<!-- Node9 -->
<g id="Node000009" class="node">
<title>Node9</title>
<g id="a_Node000009"><a xlink:href="log__service_8h.html" target="_top" xlink:title=" ">
<polygon fill="white" stroke="#666666" points="144.5,-79.5 63.5,-79.5 63.5,-60.5 144.5,-60.5 144.5,-79.5"/>
<text text-anchor="middle" x="104" y="-67.5" font-family="Helvetica,sans-Serif" font-size="10.00">log_service.h</text>
</a>
</g>
</g>
<!-- Node4&#45;&gt;Node9 -->
<g id="edge12_Node000004_Node000009" class="edge">
<title>Node4&#45;&gt;Node9</title>
<g id="a_edge12_Node000004_Node000009"><a xlink:title=" ">
<path fill="none" stroke="#63b8ff" d="M204.15,-197.8C193.48,-187.14 175.22,-168.37 161,-151 144.02,-130.26 126.41,-104.84 115.34,-88.29"/>
<polygon fill="#63b8ff" stroke="#63b8ff" points="118.07,-86.08 109.63,-79.68 112.24,-89.95 118.07,-86.08"/>
</a>
</g>
</g>
<!-- Node6 -->
<g id="Node000006" class="node">
<title>Node6</title>
<g id="a_Node000006"><a xlink:title=" ">
<polygon fill="#e0e0e0" stroke="#999999" points="659,-19 615,-19 615,0 659,0 659,-19"/>
<text text-anchor="middle" x="637" y="-7" font-family="Helvetica,sans-Serif" font-size="10.00">string</text>
</a>
</g>
</g>
<!-- Node5&#45;&gt;Node6 -->
<g id="edge5_Node000005_Node000006" class="edge">
<title>Node5&#45;&gt;Node6</title>
<g id="a_edge5_Node000005_Node000006"><a xlink:title=" ">
<path fill="none" stroke="#63b8ff" d="M210.51,-126.44C229.4,-107.62 274.69,-63.68 294,-55 349.2,-30.19 530.15,-16.86 604.58,-12.31"/>
<polygon fill="#63b8ff" stroke="#63b8ff" points="604.99,-15.8 614.76,-11.71 604.57,-8.81 604.99,-15.8"/>
</a>
</g>
</g>
<!-- Node7 -->
<g id="Node000007" class="node">
<title>Node7</title>
<g id="a_Node000007"><a xlink:title=" ">
<polygon fill="#e0e0e0" stroke="#999999" points="241.5,-79.5 162.5,-79.5 162.5,-60.5 241.5,-60.5 241.5,-79.5"/>
<text text-anchor="middle" x="202" y="-67.5" font-family="Helvetica,sans-Serif" font-size="10.00">fmt/format.h</text>
</a>
</g>
</g>
<!-- Node5&#45;&gt;Node7 -->
<g id="edge6_Node000005_Node000007" class="edge">
<title>Node5&#45;&gt;Node7</title>
<g id="a_edge6_Node000005_Node000007"><a xlink:title=" ">
<path fill="none" stroke="#63b8ff" d="M202,-126.37C202,-117.16 202,-102.29 202,-90.27"/>
<polygon fill="#63b8ff" stroke="#63b8ff" points="205.5,-89.91 202,-79.91 198.5,-89.91 205.5,-89.91"/>
</a>
</g>
</g>
<!-- Node8 -->
<g id="Node000008" class="node">
<title>Node8</title>
<g id="a_Node000008"><a xlink:href="log__level_8h.html" target="_top" xlink:title=" ">
<polygon fill="white" stroke="#666666" points="70,-19 0,-19 0,0 70,0 70,-19"/>
<text text-anchor="middle" x="35" y="-7" font-family="Helvetica,sans-Serif" font-size="10.00">log_level.h</text>
</a>
</g>
</g>
<!-- Node5&#45;&gt;Node8 -->
<g id="edge7_Node000005_Node000008" class="edge">
<title>Node5&#45;&gt;Node8</title>
<g id="a_edge7_Node000005_Node000008"><a xlink:title=" ">
<path fill="none" stroke="#63b8ff" d="M169.8,-132.87C136.15,-128.9 84.14,-117.53 54,-85 39.99,-69.89 35.97,-45.91 34.98,-29.25"/>
<polygon fill="#63b8ff" stroke="#63b8ff" points="38.48,-28.99 34.7,-19.09 31.48,-29.19 38.48,-28.99"/>
</a>
</g>
</g>
<!-- Node5&#45;&gt;Node9 -->
<g id="edge8_Node000005_Node000009" class="edge">
<title>Node5&#45;&gt;Node9</title>
<g id="a_edge8_Node000005_Node000009"><a xlink:title=" ">
<path fill="none" stroke="#63b8ff" d="M188.78,-126.37C172.64,-115.82 145.09,-97.84 125.79,-85.23"/>
<polygon fill="#63b8ff" stroke="#63b8ff" points="127.61,-82.24 117.32,-79.7 123.78,-88.1 127.61,-82.24"/>
</a>
</g>
</g>
<!-- Node9&#45;&gt;Node8 -->
<g id="edge11_Node000009_Node000008" class="edge">
<title>Node9&#45;&gt;Node8</title>
<g id="a_edge11_Node000009_Node000008"><a xlink:title=" ">
<path fill="none" stroke="#63b8ff" d="M93.82,-60.37C83.12,-51.3 66.06,-36.84 53.07,-25.82"/>
<polygon fill="#63b8ff" stroke="#63b8ff" points="55.11,-22.96 45.22,-19.17 50.59,-28.3 55.11,-22.96"/>
</a>
</g>
</g>
<!-- Node10 -->
<g id="Node000010" class="node">
<title>Node10</title>
<g id="a_Node000010"><a xlink:title=" ">
<polygon fill="#e0e0e0" stroke="#999999" points="1136,-19 1078,-19 1078,0 1136,0 1136,-19"/>
<text text-anchor="middle" x="1107" y="-7" font-family="Helvetica,sans-Serif" font-size="10.00">memory</text>
</a>
</g>
</g>
<!-- Node9&#45;&gt;Node10 -->
<g id="edge9_Node000009_Node000010" class="edge">
<title>Node9&#45;&gt;Node10</title>
<g id="a_edge9_Node000009_Node000010"><a xlink:title=" ">
<path fill="none" stroke="#63b8ff" d="M129.68,-60.45C137.12,-58.3 145.32,-56.25 153,-55 502.96,2.09 595.85,-36.58 950,-19 990.05,-17.01 1035.83,-14.51 1067.58,-12.73"/>
<polygon fill="#63b8ff" stroke="#63b8ff" points="1067.99,-16.21 1077.78,-12.16 1067.6,-9.23 1067.99,-16.21"/>
</a>
</g>
</g>
<!-- Node11 -->
<g id="Node000011" class="node">
<title>Node11</title>
<g id="a_Node000011"><a xlink:title=" ">
<polygon fill="#e0e0e0" stroke="#999999" points="157.5,-19 88.5,-19 88.5,0 157.5,0 157.5,-19"/>
<text text-anchor="middle" x="123" y="-7" font-family="Helvetica,sans-Serif" font-size="10.00">type_traits</text>
</a>
</g>
</g>
<!-- Node9&#45;&gt;Node11 -->
<g id="edge10_Node000009_Node000011" class="edge">
<title>Node9&#45;&gt;Node11</title>
<g id="a_edge10_Node000009_Node000011"><a xlink:title=" ">
<path fill="none" stroke="#63b8ff" d="M106.8,-60.37C109.5,-52.07 113.65,-39.28 117.08,-28.72"/>
<polygon fill="#63b8ff" stroke="#63b8ff" points="120.42,-29.76 120.18,-19.17 113.77,-27.6 120.42,-29.76"/>
</a>
</g>
</g>
<!-- Node12&#45;&gt;Node6 -->
<g id="edge15_Node000012_Node000006" class="edge">
<title>Node12&#45;&gt;Node6</title>
<g id="a_edge15_Node000012_Node000006"><a xlink:title=" ">
<path fill="none" stroke="#63b8ff" d="M885.9,-421.04C715.84,-419.16 308,-402.46 308,-285.5 308,-285.5 308,-285.5 308,-135 308,-93.07 323.05,-78.16 358,-55 398.09,-28.44 540.45,-16.46 604.89,-12.31"/>
<polygon fill="#63b8ff" stroke="#63b8ff" points="605.14,-15.8 614.9,-11.68 604.7,-8.81 605.14,-15.8"/>
</a>
</g>
</g>
<!-- Node12&#45;&gt;Node10 -->
<g id="edge14_Node000012_Node000010" class="edge">
<title>Node12&#45;&gt;Node10</title>
<g id="a_edge14_Node000012_Node000010"><a xlink:title=" ">
<path fill="none" stroke="#63b8ff" d="M1032.24,-416.03C1114,-406.05 1235,-375.98 1235,-285.5 1235,-285.5 1235,-285.5 1235,-135 1235,-95.05 1222.26,-83.24 1194,-55 1179.85,-40.87 1160.29,-30.31 1143.3,-23.04"/>
<polygon fill="#63b8ff" stroke="#63b8ff" points="1144.23,-19.64 1133.65,-19.14 1141.61,-26.13 1144.23,-19.64"/>
</a>
</g>
</g>
<!-- Node13 -->
<g id="Node000013" class="node">
<title>Node13</title>
<g id="a_Node000013"><a xlink:href="mosaic__connector_8h.html" target="_top" xlink:title=" ">
<polygon fill="white" stroke="#666666" points="744,-371 630,-371 630,-341 744,-341 744,-371"/>
<text text-anchor="start" x="638" y="-359" font-family="Helvetica,sans-Serif" font-size="10.00">mosaic/core/mosaic</text>
<text text-anchor="middle" x="687" y="-348" font-family="Helvetica,sans-Serif" font-size="10.00">_connector.h</text>
</a>
</g>
</g>
<!-- Node12&#45;&gt;Node13 -->
<g id="edge16_Node000012_Node000013" class="edge">
<title>Node12&#45;&gt;Node13</title>
<g id="a_edge16_Node000012_Node000013"><a xlink:title=" ">
<path fill="none" stroke="#63b8ff" d="M899.31,-406.95C856.42,-396.86 798.56,-383.25 754.08,-372.78"/>
<polygon fill="#63b8ff" stroke="#63b8ff" points="754.76,-369.35 744.22,-370.46 753.16,-376.16 754.76,-369.35"/>
</a>
</g>
</g>
<!-- Node17 -->
<g id="Node000017" class="node">
<title>Node17</title>
<g id="a_Node000017"><a xlink:href="i__signaling__client_8h.html" target="_top" xlink:title=" ">
<polygon fill="white" stroke="#666666" points="1067.5,-222.5 960.5,-222.5 960.5,-192.5 1067.5,-192.5 1067.5,-222.5"/>
<text text-anchor="start" x="968.5" y="-210.5" font-family="Helvetica,sans-Serif" font-size="10.00">mosaic/signaling/i</text>
<text text-anchor="middle" x="1014" y="-199.5" font-family="Helvetica,sans-Serif" font-size="10.00">_signaling_client.h</text>
</a>
</g>
</g>
<!-- Node12&#45;&gt;Node17 -->
<g id="edge50_Node000012_Node000017" class="edge">
<title>Node12&#45;&gt;Node17</title>
<g id="a_edge50_Node000012_Node000017"><a xlink:title=" ">
<path fill="none" stroke="#63b8ff" d="M962.69,-406.73C971.95,-370.96 996.22,-277.21 1007.75,-232.66"/>
<polygon fill="#63b8ff" stroke="#63b8ff" points="1011.2,-233.27 1010.32,-222.71 1004.43,-231.51 1011.2,-233.27"/>
</a>
</g>
</g>
<!-- Node29 -->
<g id="Node000029" class="node">
<title>Node29</title>
<g id="a_Node000029"><a xlink:href="websocket__client_8h.html" target="_top" xlink:title=" ">
<polygon fill="white" stroke="#666666" points="1417,-85 1263,-85 1263,-55 1417,-55 1417,-85"/>
<text text-anchor="start" x="1271" y="-73" font-family="Helvetica,sans-Serif" font-size="10.00">mosaic/signaling/websocket</text>
<text text-anchor="middle" x="1340" y="-62" font-family="Helvetica,sans-Serif" font-size="10.00">_client.h</text>
</a>
</g>
</g>
<!-- Node12&#45;&gt;Node29 -->
<g id="edge51_Node000012_Node000029" class="edge">
<title>Node12&#45;&gt;Node29</title>
<g id="a_edge51_Node000012_Node000029"><a xlink:title=" ">
<path fill="none" stroke="#63b8ff" d="M1032.19,-414.99C1106.07,-407.77 1214.1,-393.71 1249,-371 1287.28,-346.1 1306,-331.17 1306,-285.5 1306,-285.5 1306,-285.5 1306,-206.5 1306,-166.46 1320.14,-121.71 1330.18,-94.98"/>
<polygon fill="#63b8ff" stroke="#63b8ff" points="1333.57,-95.93 1333.92,-85.34 1327.04,-93.4 1333.57,-95.93"/>
</a>
</g>
</g>
<!-- Node13&#45;&gt;Node6 -->
<g id="edge19_Node000013_Node000006" class="edge">
<title>Node13&#45;&gt;Node6</title>
<g id="a_edge19_Node000013_Node000006"><a xlink:title=" ">
<path fill="none" stroke="#63b8ff" d="M629.79,-353.77C547.6,-350.77 401.93,-340.46 365,-305 333.47,-274.72 346,-252.21 346,-208.5 346,-208.5 346,-208.5 346,-135 346,-23.7 528.15,-10.59 604.23,-9.96"/>
<polygon fill="#63b8ff" stroke="#63b8ff" points="604.65,-13.46 614.65,-9.95 604.64,-6.46 604.65,-13.46"/>
</a>
</g>
</g>
<!-- Node13&#45;&gt;Node10 -->
<g id="edge18_Node000013_Node000010" class="edge">
<title>Node13&#45;&gt;Node10</title>
<g id="a_edge18_Node000013_Node000010"><a xlink:title=" ">
<path fill="none" stroke="#63b8ff" d="M744.27,-354.31C806.3,-351.57 906.83,-341.25 985,-305 1103,-250.28 1138.35,-208.88 1178,-85 1182.06,-72.3 1184.46,-66.67 1178,-55 1170.16,-40.83 1155.71,-30.57 1141.89,-23.5"/>
<polygon fill="#63b8ff" stroke="#63b8ff" points="1143.05,-20.18 1132.51,-19.1 1140.08,-26.52 1143.05,-20.18"/>
</a>
</g>
</g>
<!-- Node14 -->
<g id="Node000014" class="node">
<title>Node14</title>
<g id="a_Node000014"><a xlink:title=" ">
<polygon fill="#e0e0e0" stroke="#999999" points="412,-294 374,-294 374,-275 412,-275 412,-294"/>
<text text-anchor="middle" x="393" y="-282" font-family="Helvetica,sans-Serif" font-size="10.00">map</text>
</a>
</g>
</g>
<!-- Node13&#45;&gt;Node14 -->
<g id="edge17_Node000013_Node000014" class="edge">
<title>Node13&#45;&gt;Node14</title>
<g id="a_edge17_Node000013_Node000014"><a xlink:title=" ">
<path fill="none" stroke="#63b8ff" d="M629.74,-351.23C574.48,-345.99 489.36,-333.67 421,-305 417.68,-303.61 414.35,-301.77 411.21,-299.79"/>
<polygon fill="#63b8ff" stroke="#63b8ff" points="413.21,-296.92 403.02,-294.03 409.19,-302.65 413.21,-296.92"/>
</a>
</g>
</g>
<!-- Node15 -->
<g id="Node000015" class="node">
<title>Node15</title>
<g id="a_Node000015"><a xlink:href="connector__state__manager_8h.html" target="_top" xlink:title=" ">
<polygon fill="white" stroke="#666666" points="799.5,-299.5 672.5,-299.5 672.5,-269.5 799.5,-269.5 799.5,-299.5"/>
<text text-anchor="start" x="680.5" y="-287.5" font-family="Helvetica,sans-Serif" font-size="10.00">mosaic/core/connector</text>
<text text-anchor="middle" x="736" y="-276.5" font-family="Helvetica,sans-Serif" font-size="10.00">_state_manager.h</text>
</a>
</g>
</g>
<!-- Node13&#45;&gt;Node15 -->
<g id="edge20_Node000013_Node000015" class="edge">
<title>Node13&#45;&gt;Node15</title>
<g id="a_edge20_Node000013_Node000015"><a xlink:title=" ">
<path fill="none" stroke="#63b8ff" d="M696.92,-340.94C703.62,-331.42 712.63,-318.65 720.3,-307.77"/>
<polygon fill="#63b8ff" stroke="#63b8ff" points="723.2,-309.73 726.1,-299.54 717.48,-305.7 723.2,-309.73"/>
</a>
</g>
</g>
<!-- Node19 -->
<g id="Node000019" class="node">
<title>Node19</title>
<g id="a_Node000019"><a xlink:title=" ">
<polygon fill="#e0e0e0" stroke="#999999" points="558,-151 412,-151 412,-121 558,-121 558,-151"/>
<text text-anchor="start" x="420" y="-139" font-family="Helvetica,sans-Serif" font-size="10.00">mosaic/rtc/webrtc_forward</text>
<text text-anchor="middle" x="485" y="-128" font-family="Helvetica,sans-Serif" font-size="10.00">_decl.h</text>
</a>
</g>
</g>
<!-- Node13&#45;&gt;Node19 -->
<g id="edge49_Node000013_Node000019" class="edge">
<title>Node13&#45;&gt;Node19</title>
<g id="a_edge49_Node000013_Node000019"><a xlink:title=" ">
<path fill="none" stroke="#63b8ff" d="M669.91,-340.99C657.68,-330.97 640.83,-317.15 626,-305 603.78,-286.78 599.3,-280.82 576,-264 551.7,-246.47 537.9,-251.25 519,-228 503.11,-208.46 494.19,-180.74 489.51,-161.05"/>
<polygon fill="#63b8ff" stroke="#63b8ff" points="492.88,-160.06 487.34,-151.03 486.04,-161.55 492.88,-160.06"/>
</a>
</g>
</g>
<!-- Node25 -->
<g id="Node000025" class="node">
<title>Node25</title>
<g id="a_Node000025"><a xlink:href="peer__connection__manager_8h.html" target="_top" xlink:title=" ">
<polygon fill="white" stroke="#666666" points="976.5,-299.5 817.5,-299.5 817.5,-269.5 976.5,-269.5 976.5,-299.5"/>
<text text-anchor="start" x="825.5" y="-287.5" font-family="Helvetica,sans-Serif" font-size="10.00">mosaic/core/peer_connection</text>
<text text-anchor="middle" x="897" y="-276.5" font-family="Helvetica,sans-Serif" font-size="10.00">_manager.h</text>
</a>
</g>
</g>
<!-- Node13&#45;&gt;Node25 -->
<g id="edge36_Node000013_Node000025" class="edge">
<title>Node13&#45;&gt;Node25</title>
<g id="a_edge36_Node000013_Node000025"><a xlink:title=" ">
<path fill="none" stroke="#63b8ff" d="M723.95,-340.94C755.92,-329.87 802.55,-314.4 839.39,-302.61"/>
<polygon fill="#63b8ff" stroke="#63b8ff" points="840.55,-305.91 849.02,-299.54 838.43,-299.24 840.55,-305.91"/>
</a>
</g>
</g>
<!-- Node26 -->
<g id="Node000026" class="node">
<title>Node26</title>
<g id="a_Node000026"><a xlink:href="i__data__channel__handler_8h.html" target="_top" xlink:title=" ">
<polygon fill="white" stroke="#666666" points="567.5,-305 430.5,-305 430.5,-264 567.5,-264 567.5,-305"/>
<text text-anchor="start" x="438.5" y="-293" font-family="Helvetica,sans-Serif" font-size="10.00">mosaic/handlers/data</text>
<text text-anchor="start" x="438.5" y="-282" font-family="Helvetica,sans-Serif" font-size="10.00">_channel/i_data_channel</text>
<text text-anchor="middle" x="499" y="-271" font-family="Helvetica,sans-Serif" font-size="10.00">_handler.h</text>
</a>
</g>
</g>
<!-- Node13&#45;&gt;Node26 -->
<g id="edge41_Node000013_Node000026" class="edge">
<title>Node13&#45;&gt;Node26</title>
<g id="a_edge41_Node000013_Node000026"><a xlink:title=" ">
<path fill="none" stroke="#63b8ff" d="M648.96,-340.94C623.89,-331.67 590.49,-319.32 561.56,-308.63"/>
<polygon fill="#63b8ff" stroke="#63b8ff" points="562.54,-305.26 551.95,-305.07 560.11,-311.82 562.54,-305.26"/>
</a>
</g>
</g>
<!-- Node27 -->
<g id="Node000027" class="node">
<title>Node27</title>
<g id="a_Node000027"><a xlink:href="i__media__track__handler_8h.html" target="_top" xlink:title=" ">
<polygon fill="white" stroke="#666666" points="659.5,-228 528.5,-228 528.5,-187 659.5,-187 659.5,-228"/>
<text text-anchor="start" x="536.5" y="-216" font-family="Helvetica,sans-Serif" font-size="10.00">mosaic/handlers/media</text>
<text text-anchor="start" x="536.5" y="-205" font-family="Helvetica,sans-Serif" font-size="10.00">_track/i_media_track</text>
<text text-anchor="middle" x="594" y="-194" font-family="Helvetica,sans-Serif" font-size="10.00">_handler.h</text>
</a>
</g>
</g>
<!-- Node13&#45;&gt;Node27 -->
<g id="edge45_Node000013_Node000027" class="edge">
<title>Node13&#45;&gt;Node27</title>
<g id="a_edge45_Node000013_Node000027"><a xlink:title=" ">
<path fill="none" stroke="#63b8ff" d="M678.08,-340.95C662.94,-317.1 631.91,-268.21 612.07,-236.97"/>
<polygon fill="#63b8ff" stroke="#63b8ff" points="614.87,-234.84 606.55,-228.27 608.96,-238.59 614.87,-234.84"/>
</a>
</g>
</g>
<!-- Node15&#45;&gt;Node6 -->
<g id="edge23_Node000015_Node000006" class="edge">
<title>Node15&#45;&gt;Node6</title>
<g id="a_edge23_Node000015_Node000006"><a xlink:title=" ">
<path fill="none" stroke="#63b8ff" d="M727.6,-269.25C721.34,-258.25 712.9,-242.5 707,-228 676.72,-153.64 681.64,-130.74 655,-55 651.92,-46.25 648.12,-36.71 644.81,-28.7"/>
<polygon fill="#63b8ff" stroke="#63b8ff" points="647.94,-27.13 640.83,-19.27 641.49,-29.85 647.94,-27.13"/>
</a>
</g>
</g>
<!-- Node15&#45;&gt;Node10 -->
<g id="edge21_Node000015_Node000010" class="edge">
<title>Node15&#45;&gt;Node10</title>
<g id="a_edge21_Node000015_Node000010"><a xlink:title=" ">
<path fill="none" stroke="#63b8ff" d="M755.58,-269.33C770.8,-258.23 792.39,-242.33 811,-228 908.45,-152.96 924.9,-123.58 1027,-55 1044.15,-43.48 1064.52,-32.18 1080.41,-23.85"/>
<polygon fill="#63b8ff" stroke="#63b8ff" points="1082.38,-26.78 1089.65,-19.08 1079.16,-20.56 1082.38,-26.78"/>
</a>
</g>
</g>
<!-- Node16 -->
<g id="Node000016" class="node">
<title>Node16</title>
<g id="a_Node000016"><a xlink:title=" ">
<polygon fill="#e0e0e0" stroke="#999999" points="802,-217 716,-217 716,-198 802,-198 802,-217"/>
<text text-anchor="middle" x="759" y="-205" font-family="Helvetica,sans-Serif" font-size="10.00">shared_mutex</text>
</a>
</g>
</g>
<!-- Node15&#45;&gt;Node16 -->
<g id="edge22_Node000015_Node000016" class="edge">
<title>Node15&#45;&gt;Node16</title>
<g id="a_edge22_Node000015_Node000016"><a xlink:title=" ">
<path fill="none" stroke="#63b8ff" d="M740.33,-269.39C743.99,-257.46 749.26,-240.26 753.27,-227.18"/>
<polygon fill="#63b8ff" stroke="#63b8ff" points="756.69,-227.96 756.28,-217.37 750,-225.91 756.69,-227.96"/>
</a>
</g>
</g>
<!-- Node15&#45;&gt;Node17 -->
<g id="edge24_Node000015_Node000017" class="edge">
<title>Node15&#45;&gt;Node17</title>
<g id="a_edge24_Node000015_Node000017"><a xlink:title=" ">
<path fill="none" stroke="#63b8ff" d="M787.91,-269.43C794.67,-267.6 801.5,-265.76 808,-264 856.39,-250.93 911.2,-236.17 952.1,-225.15"/>
<polygon fill="#63b8ff" stroke="#63b8ff" points="953.18,-228.49 961.93,-222.51 951.36,-221.73 953.18,-228.49"/>
</a>
</g>
</g>
<!-- Node18 -->
<g id="Node000018" class="node">
<title>Node18</title>
<g id="a_Node000018"><a xlink:title=" ">
<polygon fill="#e0e0e0" stroke="#999999" points="1169,-85 1051,-85 1051,-55 1169,-55 1169,-85"/>
<text text-anchor="start" x="1059" y="-73" font-family="Helvetica,sans-Serif" font-size="10.00">mosaic/json_forward</text>
<text text-anchor="middle" x="1110" y="-62" font-family="Helvetica,sans-Serif" font-size="10.00">_decl.h</text>
</a>
</g>
</g>
<!-- Node17&#45;&gt;Node18 -->
<g id="edge25_Node000017_Node000018" class="edge">
<title>Node17&#45;&gt;Node18</title>
<g id="a_edge25_Node000017_Node000018"><a xlink:title=" ">
<path fill="none" stroke="#63b8ff" d="M1054.58,-192.42C1073.58,-183.61 1094.51,-170.21 1106,-151 1115.95,-134.36 1116.25,-112.11 1114.46,-95.3"/>
<polygon fill="#63b8ff" stroke="#63b8ff" points="1117.89,-94.58 1113.06,-85.15 1110.96,-95.53 1117.89,-94.58"/>
</a>
</g>
</g>
<!-- Node17&#45;&gt;Node19 -->
<g id="edge26_Node000017_Node000019" class="edge">
<title>Node17&#45;&gt;Node19</title>
<g id="a_edge26_Node000017_Node000019"><a xlink:title=" ">
<path fill="none" stroke="#63b8ff" d="M960.22,-200.62C878.05,-191.47 716.06,-172.73 568.44,-151.17"/>
<polygon fill="#63b8ff" stroke="#63b8ff" points="568.69,-147.67 558.29,-149.68 567.68,-154.6 568.69,-147.67"/>
</a>
</g>
</g>
<!-- Node20 -->
<g id="Node000020" class="node">
<title>Node20</title>
<g id="a_Node000020"><a xlink:href="i__mosaic__authenticator_8h.html" target="_top" xlink:title=" ">
<polygon fill="white" stroke="#666666" points="1097,-151 957,-151 957,-121 1097,-121 1097,-151"/>
<text text-anchor="start" x="965" y="-139" font-family="Helvetica,sans-Serif" font-size="10.00">mosaic/security/i_mosaic</text>
<text text-anchor="middle" x="1027" y="-128" font-family="Helvetica,sans-Serif" font-size="10.00">_authenticator.h</text>
</a>
</g>
</g>
<!-- Node17&#45;&gt;Node20 -->
<g id="edge27_Node000017_Node000020" class="edge">
<title>Node17&#45;&gt;Node20</title>
<g id="a_edge27_Node000017_Node000020"><a xlink:title=" ">
<path fill="none" stroke="#63b8ff" d="M1016.63,-192.44C1018.32,-183.39 1020.56,-171.41 1022.53,-160.9"/>
<polygon fill="#63b8ff" stroke="#63b8ff" points="1025.97,-161.52 1024.37,-151.04 1019.09,-160.23 1025.97,-161.52"/>
</a>
</g>
</g>
<!-- Node20&#45;&gt;Node10 -->
<g id="edge28_Node000020_Node000010" class="edge">
<title>Node20&#45;&gt;Node10</title>
<g id="a_edge28_Node000020_Node000010"><a xlink:title=" ">
<path fill="none" stroke="#63b8ff" d="M1026.5,-120.79C1026.57,-103.8 1028.88,-75.12 1042,-55 1050.66,-41.73 1064.79,-31.35 1077.68,-23.97"/>
<polygon fill="#63b8ff" stroke="#63b8ff" points="1079.57,-26.93 1086.74,-19.13 1076.27,-20.75 1079.57,-26.93"/>
</a>
</g>
</g>
<!-- Node20&#45;&gt;Node18 -->
<g id="edge35_Node000020_Node000018" class="edge">
<title>Node20&#45;&gt;Node18</title>
<g id="a_edge35_Node000020_Node000018"><a xlink:title=" ">
<path fill="none" stroke="#63b8ff" d="M1045.42,-120.8C1056.6,-112.18 1071.05,-101.04 1083.44,-91.48"/>
<polygon fill="#63b8ff" stroke="#63b8ff" points="1085.85,-94.04 1091.63,-85.16 1081.57,-88.5 1085.85,-94.04"/>
</a>
</g>
</g>
<!-- Node21 -->
<g id="Node000021" class="node">
<title>Node21</title>
<g id="a_Node000021"><a xlink:href="auth__type_8h.html" target="_top" xlink:title=" ">
<polygon fill="white" stroke="#666666" points="815,-79.5 741,-79.5 741,-60.5 815,-60.5 815,-79.5"/>
<text text-anchor="middle" x="778" y="-67.5" font-family="Helvetica,sans-Serif" font-size="10.00">auth_type.h</text>
</a>
</g>
</g>
<!-- Node20&#45;&gt;Node21 -->
<g id="edge29_Node000020_Node000021" class="edge">
<title>Node20&#45;&gt;Node21</title>
<g id="a_edge29_Node000020_Node000021"><a xlink:title=" ">
<path fill="none" stroke="#63b8ff" d="M966.38,-120.97C925.91,-111.39 871.59,-98.09 824,-85 821.04,-84.18 817.98,-83.31 814.9,-82.42"/>
<polygon fill="#63b8ff" stroke="#63b8ff" points="815.75,-79.02 805.17,-79.54 813.76,-85.73 815.75,-79.02"/>
</a>
</g>
</g>
<!-- Node22 -->
<g id="Node000022" class="node">
<title>Node22</title>
<g id="a_Node000022"><a xlink:href="configs__decl_8h.html" target="_top" xlink:title=" ">
<polygon fill="white" stroke="#666666" points="957,-79.5 833,-79.5 833,-60.5 957,-60.5 957,-79.5"/>
<text text-anchor="middle" x="895" y="-67.5" font-family="Helvetica,sans-Serif" font-size="10.00">mosaic/configs_decl.h</text>
</a>
</g>
</g>
<!-- Node20&#45;&gt;Node22 -->
<g id="edge31_Node000020_Node000022" class="edge">
<title>Node20&#45;&gt;Node22</title>
<g id="a_edge31_Node000020_Node000022"><a xlink:title=" ">
<path fill="none" stroke="#63b8ff" d="M998.03,-120.95C975.29,-109.93 943.88,-94.7 921.73,-83.96"/>
<polygon fill="#63b8ff" stroke="#63b8ff" points="923.09,-80.73 912.57,-79.52 920.04,-87.03 923.09,-80.73"/>
</a>
</g>
</g>
<!-- Node21&#45;&gt;Node6 -->
<g id="edge30_Node000021_Node000006" class="edge">
<title>Node21&#45;&gt;Node6</title>
<g id="a_edge30_Node000021_Node000006"><a xlink:title=" ">
<path fill="none" stroke="#63b8ff" d="M757.5,-60.49C733.69,-50.62 694.21,-34.23 666.96,-22.93"/>
<polygon fill="#63b8ff" stroke="#63b8ff" points="668.11,-19.62 657.53,-19.02 665.42,-26.08 668.11,-19.62"/>
</a>
</g>
</g>
<!-- Node22&#45;&gt;Node6 -->
<g id="edge32_Node000022_Node000006" class="edge">
<title>Node22&#45;&gt;Node6</title>
<g id="a_edge32_Node000022_Node000006"><a xlink:title=" ">
<path fill="none" stroke="#63b8ff" d="M857.48,-60.49C806.71,-48.98 716.96,-28.63 669.13,-17.78"/>
<polygon fill="#63b8ff" stroke="#63b8ff" points="669.83,-14.36 659.31,-15.56 668.28,-21.18 669.83,-14.36"/>
</a>
</g>
</g>
<!-- Node23 -->
<g id="Node000023" class="node">
<title>Node23</title>
<g id="a_Node000023"><a xlink:title=" ">
<polygon fill="#e0e0e0" stroke="#999999" points="941.5,-19 848.5,-19 848.5,0 941.5,0 941.5,-19"/>
<text text-anchor="middle" x="895" y="-7" font-family="Helvetica,sans-Serif" font-size="10.00">unordered_map</text>
</a>
</g>
</g>
<!-- Node22&#45;&gt;Node23 -->
<g id="edge33_Node000022_Node000023" class="edge">
<title>Node22&#45;&gt;Node23</title>
<g id="a_edge33_Node000022_Node000023"><a xlink:title=" ">
<path fill="none" stroke="#63b8ff" d="M895,-60.37C895,-52.25 895,-39.81 895,-29.39"/>
<polygon fill="#63b8ff" stroke="#63b8ff" points="898.5,-29.17 895,-19.17 891.5,-29.17 898.5,-29.17"/>
</a>
</g>
</g>
<!-- Node24 -->
<g id="Node000024" class="node">
<title>Node24</title>
<g id="a_Node000024"><a xlink:title=" ">
<polygon fill="#e0e0e0" stroke="#999999" points="783.5,-19 736.5,-19 736.5,0 783.5,0 783.5,-19"/>
<text text-anchor="middle" x="760" y="-7" font-family="Helvetica,sans-Serif" font-size="10.00">vector</text>
</a>
</g>
</g>
<!-- Node22&#45;&gt;Node24 -->
<g id="edge34_Node000022_Node000024" class="edge">
<title>Node22&#45;&gt;Node24</title>
<g id="a_edge34_Node000022_Node000024"><a xlink:title=" ">
<path fill="none" stroke="#63b8ff" d="M875.37,-60.49C852.67,-50.66 815.1,-34.38 789.03,-23.08"/>
<polygon fill="#63b8ff" stroke="#63b8ff" points="790.22,-19.78 779.65,-19.02 787.44,-26.2 790.22,-19.78"/>
</a>
</g>
</g>
<!-- Node25&#45;&gt;Node13 -->
<g id="edge39_Node000025_Node000013" class="edge">
<title>Node25&#45;&gt;Node13</title>
<g id="a_edge39_Node000025_Node000013"><a xlink:title=" ">
<path fill="none" stroke="#63b8ff" d="M860.11,-299.54C828.16,-310.61 781.53,-326.08 744.67,-337.87"/>
<polygon fill="#63b8ff" stroke="#63b8ff" points="743.51,-334.57 735.05,-340.94 745.64,-341.24 743.51,-334.57"/>
</a>
</g>
</g>
<!-- Node25&#45;&gt;Node17 -->
<g id="edge40_Node000025_Node000017" class="edge">
<title>Node25&#45;&gt;Node17</title>
<g id="a_edge40_Node000025_Node000017"><a xlink:title=" ">
<path fill="none" stroke="#63b8ff" d="M919.01,-269.39C937.23,-257.71 963.31,-240.99 983.54,-228.02"/>
<polygon fill="#63b8ff" stroke="#63b8ff" points="985.56,-230.89 992.09,-222.54 981.78,-224.99 985.56,-230.89"/>
</a>
</g>
</g>
<!-- Node25&#45;&gt;Node22 -->
<g id="edge38_Node000025_Node000022" class="edge">
<title>Node25&#45;&gt;Node22</title>
<g id="a_edge38_Node000025_Node000022"><a xlink:title=" ">
<path fill="none" stroke="#63b8ff" d="M896.87,-269.23C896.52,-231.97 895.57,-131.77 895.18,-89.85"/>
<polygon fill="#63b8ff" stroke="#63b8ff" points="898.68,-89.64 895.08,-79.67 891.68,-89.7 898.68,-89.64"/>
</a>
</g>
</g>
<!-- Node25&#45;&gt;Node24 -->
<g id="edge37_Node000025_Node000024" class="edge">
<title>Node25&#45;&gt;Node24</title>
<g id="a_edge37_Node000025_Node000024"><a xlink:title=" ">
<path fill="none" stroke="#63b8ff" d="M884.24,-269.32C846.91,-227.66 740.03,-107.23 732,-85 727.47,-72.46 728.3,-67.81 732,-55 734.87,-45.06 740.68,-35.2 746.28,-27.29"/>
<polygon fill="#63b8ff" stroke="#63b8ff" points="749.08,-29.39 752.33,-19.3 743.5,-25.16 749.08,-29.39"/>
</a>
</g>
</g>
<!-- Node26&#45;&gt;Node4 -->
<g id="edge43_Node000026_Node000004" class="edge">
<title>Node26&#45;&gt;Node4</title>
<g id="a_edge43_Node000026_Node000004"><a xlink:title=" ">
<path fill="none" stroke="#63b8ff" d="M430.5,-265.54C375.99,-251.24 301.46,-231.7 255.32,-219.6"/>
<polygon fill="#63b8ff" stroke="#63b8ff" points="256.2,-216.21 245.64,-217.06 254.43,-222.98 256.2,-216.21"/>
</a>
</g>
</g>
<!-- Node26&#45;&gt;Node6 -->
<g id="edge42_Node000026_Node000006" class="edge">
<title>Node26&#45;&gt;Node6</title>
<g id="a_edge42_Node000026_Node000006"><a xlink:title=" ">
<path fill="none" stroke="#63b8ff" d="M472.2,-263.75C433.75,-232.92 370.9,-171.65 403,-121 447.88,-50.17 551.7,-23.89 604.66,-14.84"/>
<polygon fill="#63b8ff" stroke="#63b8ff" points="605.53,-18.25 614.85,-13.21 604.42,-11.34 605.53,-18.25"/>
</a>
</g>
</g>
<!-- Node26&#45;&gt;Node19 -->
<g id="edge44_Node000026_Node000019" class="edge">
<title>Node26&#45;&gt;Node19</title>
<g id="a_edge44_Node000026_Node000019"><a xlink:title=" ">
<path fill="none" stroke="#63b8ff" d="M493.3,-263.91C490.52,-253.37 487.46,-240.08 486,-228 483.28,-205.55 483.29,-179.77 483.83,-161.39"/>
<polygon fill="#63b8ff" stroke="#63b8ff" points="487.33,-161.37 484.2,-151.25 480.33,-161.11 487.33,-161.37"/>
</a>
</g>
</g>
<!-- Node27&#45;&gt;Node6 -->
<g id="edge46_Node000027_Node000006" class="edge">
<title>Node27&#45;&gt;Node6</title>
<g id="a_edge46_Node000027_Node000006"><a xlink:title=" ">
<path fill="none" stroke="#63b8ff" d="M610.47,-186.75C617.86,-176.69 625.83,-163.9 630,-151 643.54,-109.11 641.48,-56.56 639.08,-29.12"/>
<polygon fill="#63b8ff" stroke="#63b8ff" points="642.55,-28.61 638.07,-19.01 635.58,-29.3 642.55,-28.61"/>
</a>
</g>
</g>
<!-- Node27&#45;&gt;Node19 -->
<g id="edge48_Node000027_Node000019" class="edge">
<title>Node27&#45;&gt;Node19</title>
<g id="a_edge48_Node000027_Node000019"><a xlink:title=" ">
<path fill="none" stroke="#63b8ff" d="M563.35,-186.96C548.54,-177.51 530.8,-166.2 515.95,-156.74"/>
<polygon fill="#63b8ff" stroke="#63b8ff" points="517.45,-153.54 507.13,-151.11 513.68,-159.44 517.45,-153.54"/>
</a>
</g>
</g>
<!-- Node28 -->
<g id="Node000028" class="node">
<title>Node28</title>
<g id="a_Node000028"><a xlink:title=" ">
<polygon fill="#e0e0e0" stroke="#999999" points="621.5,-145.5 576.5,-145.5 576.5,-126.5 621.5,-126.5 621.5,-145.5"/>
<text text-anchor="middle" x="599" y="-133.5" font-family="Helvetica,sans-Serif" font-size="10.00">utility</text>
</a>
</g>
</g>
<!-- Node27&#45;&gt;Node28 -->
<g id="edge47_Node000027_Node000028" class="edge">
<title>Node27&#45;&gt;Node28</title>
<g id="a_edge47_Node000027_Node000028"><a xlink:title=" ">
<path fill="none" stroke="#63b8ff" d="M595.42,-186.77C596.12,-177.08 596.95,-165.46 597.64,-155.88"/>
<polygon fill="#63b8ff" stroke="#63b8ff" points="601.14,-156.05 598.37,-145.82 594.16,-155.54 601.14,-156.05"/>
</a>
</g>
</g>
<!-- Node29&#45;&gt;Node6 -->
<g id="edge55_Node000029_Node000006" class="edge">
<title>Node29&#45;&gt;Node6</title>
<g id="a_edge55_Node000029_Node000006"><a xlink:title=" ">
<path fill="none" stroke="#63b8ff" d="M1262.96,-62.24C1236.08,-59.91 1205.71,-57.3 1178,-55 977.61,-38.34 927.32,-36.45 727,-19 707.84,-17.33 686.39,-15.31 669.25,-13.66"/>
<polygon fill="#63b8ff" stroke="#63b8ff" points="669.47,-10.17 659.18,-12.69 668.8,-17.13 669.47,-10.17"/>
</a>
</g>
</g>
<!-- Node29&#45;&gt;Node10 -->
<g id="edge54_Node000029_Node000010" class="edge">
<title>Node29&#45;&gt;Node10</title>
<g id="a_edge54_Node000029_Node000010"><a xlink:title=" ">
<path fill="none" stroke="#63b8ff" d="M1284.19,-54.99C1241.61,-44.3 1184.03,-29.84 1146.22,-20.35"/>
<polygon fill="#63b8ff" stroke="#63b8ff" points="1146.66,-16.85 1136.11,-17.81 1144.96,-23.64 1146.66,-16.85"/>
</a>
</g>
</g>
<!-- Node30 -->
<g id="Node000030" class="node">
<title>Node30</title>
<g id="a_Node000030"><a xlink:title=" ">
<polygon fill="#e0e0e0" stroke="#999999" points="1289,-19 1239,-19 1239,0 1289,0 1289,-19"/>
<text text-anchor="middle" x="1264" y="-7" font-family="Helvetica,sans-Serif" font-size="10.00">atomic</text>
</a>
</g>
</g>
<!-- Node29&#45;&gt;Node30 -->
<g id="edge52_Node000029_Node000030" class="edge">
<title>Node29&#45;&gt;Node30</title>
<g id="a_edge52_Node000029_Node000030"><a xlink:title=" ">
<path fill="none" stroke="#63b8ff" d="M1321.6,-54.84C1310.12,-46 1295.35,-34.63 1283.64,-25.62"/>
<polygon fill="#63b8ff" stroke="#63b8ff" points="1285.45,-22.59 1275.39,-19.27 1281.18,-28.14 1285.45,-22.59"/>
</a>
</g>
</g>
<!-- Node31 -->
<g id="Node000031" class="node">
<title>Node31</title>
<g id="a_Node000031"><a xlink:title=" ">
<polygon fill="#e0e0e0" stroke="#999999" points="1372.5,-19 1307.5,-19 1307.5,0 1372.5,0 1372.5,-19"/>
<text text-anchor="middle" x="1340" y="-7" font-family="Helvetica,sans-Serif" font-size="10.00">functional</text>
</a>
</g>
</g>
<!-- Node29&#45;&gt;Node31 -->
<g id="edge53_Node000029_Node000031" class="edge">
<title>Node29&#45;&gt;Node31</title>
<g id="a_edge53_Node000029_Node000031"><a xlink:title=" ">
<path fill="none" stroke="#63b8ff" d="M1340,-54.84C1340,-47.21 1340,-37.7 1340,-29.45"/>
<polygon fill="#63b8ff" stroke="#63b8ff" points="1343.5,-29.27 1340,-19.27 1336.5,-29.27 1343.5,-29.27"/>
</a>
</g>
</g>
<!-- Node32 -->
<g id="Node000032" class="node">
<title>Node32</title>
<g id="a_Node000032"><a xlink:title=" ">
<polygon fill="#e0e0e0" stroke="#999999" points="1501,-19 1391,-19 1391,0 1501,0 1501,-19"/>
<text text-anchor="middle" x="1446" y="-7" font-family="Helvetica,sans-Serif" font-size="10.00">cpprest/ws_client.h</text>
</a>
</g>
</g>
<!-- Node29&#45;&gt;Node32 -->
<g id="edge56_Node000029_Node000032" class="edge">
<title>Node29&#45;&gt;Node32</title>
<g id="a_edge56_Node000029_Node000032"><a xlink:title=" ">
<path fill="none" stroke="#63b8ff" d="M1365.39,-54.99C1382.29,-45.66 1404.38,-33.47 1421.16,-24.21"/>
<polygon fill="#63b8ff" stroke="#63b8ff" points="1423.28,-27.04 1430.35,-19.14 1419.9,-20.91 1423.28,-27.04"/>
</a>
</g>
</g>
</g>
</svg>

<g id="navigator" transform="translate(0 0)" fill="#404254">
  <rect fill="#f2f5e9" fill-opacity="0.5" stroke="#606060" stroke-width=".5" x="0" y="0" width="60" height="60"/>
  <use id="zoomplus" xlink:href="#zoomPlus" x="17" y="9" onmousedown="handleZoom(evt,'in')"/>
  <use id="zoomminus" xlink:href="#zoomMin" x="42" y="9" onmousedown="handleZoom(evt,'out')"/>
  <use id="reset" xlink:href="#resetDef" x="30" y="36" onmousedown="handleReset()"/>
   <use id="arrowup" xlink:href="#arrowUp" x="0" y="0" onmousedown="handlePan(0,-1)"/>
  <use id="arrowright" xlink:href="#arrowRight" x="0" y="0" onmousedown="handlePan(1,0)"/>
  <use id="arrowdown" xlink:href="#arrowDown" x="0" y="0" onmousedown="handlePan(0,1)"/>
  <use id="arrowleft" xlink:href="#arrowLeft" x="0" y="0" onmousedown="handlePan(-1,0)"/>
</g>
<svg viewBox="0 0 15 15" width="100%" height="30px" preserveAspectRatio="xMaxYMin meet">
 <g id="arrow_out" transform="scale(0.3 0.3)">
  <a xlink:href="signaling__client_8cpp__incl_org.svg" target="_base">
   <rect id="button" ry="5" rx="5" y="6" x="6" height="38" width="38"
        fill="#f2f5e9" fill-opacity="0.5" stroke="#606060" stroke-width="1.0"/>
   <path id="arrow"
     d="M 11.500037,31.436501 C 11.940474,20.09759 22.043105,11.32322 32.158766,21.979434 L 37.068811,17.246167 C 37.068811,17.246167 37.088388,32 37.088388,32 L 22.160133,31.978069 C 22.160133,31.978069 26.997745,27.140456 26.997745,27.140456 C 18.528582,18.264221 13.291696,25.230495 11.500037,31.436501 z"
     style="fill:#404040;"/>
  </a>
 </g>
</svg>

<style type='text/css'>
<![CDATA[
[data-mouse-over-selected='false'] { opacity: 0.7; }
[data-mouse-over-selected='true']  { opacity: 1.0; }
]]>
</style>
<script type="application/ecmascript"><![CDATA[
document.addEventListener('DOMContentLoaded', (event) => {
  highlightEdges();
  highlightAdjacentNodes();
});
]]></script>
</svg>
