<?xml version="1.0" encoding="UTF-8" standalone="no"?>
<!DOCTYPE svg PUBLIC "-//W3C//DTD SVG 1.1//EN"
 "http://www.w3.org/Graphics/SVG/1.1/DTD/svg11.dtd">
<!-- Generated by graphviz version 2.43.0 (0)
 -->
<!-- Title: include/mosaic/signaling/signaling_client.h Pages: 1 -->
<!--zoomable 445 -->

<svg id="main" version="1.1" xmlns="http://www.w3.org/2000/svg" xmlns:xlink="http://www.w3.org/1999/xlink" xml:space="preserve" onload="init(evt)">
<style type="text/css"><![CDATA[
.node, .edge {opacity: 0.7;}
.node.selected, .edge.selected {opacity: 1;}
.edge:hover path { stroke: red; }
.edge:hover polygon { stroke: red; fill: red; }
]]></style>

<defs>
  <circle id="rim" cx="0" cy="0" r="7"/>
  <circle id="rim2" cx="0" cy="0" r="3.5"/>
  <g id="zoomPlus">
    <use xlink:href="#rim" fill="#404040"><set attributeName="fill" to="#808080" begin="zoomplus.mouseover" end="zoomplus.mouseout"/></use>
    <path d="M-4,0h8M0,-4v8" fill="none" stroke="white" stroke-width="1.5" pointer-events="none"/>
  </g>
  <g id="zoomMin">
    <use xlink:href="#rim" fill="#404040"><set attributeName="fill" to="#808080" begin="zoomminus.mouseover" end="zoomminus.mouseout"/></use>
    <path d="M-4,0h8" fill="none" stroke="white" stroke-width="1.5" pointer-events="none"/>
  </g>
  <g id="arrowUp" transform="translate(30 24)">
    <use xlink:href="#rim"/>
    <path pointer-events="none" fill="none" stroke="white" stroke-width="1.5" d="M0,-3.0v7 M-2.5,-0.5L0,-3.0L2.5,-0.5"/>
  </g>
  <g id="arrowRight" transform="rotate(90) translate(36 -43)">
    <use xlink:href="#rim"/>
    <path pointer-events="none" fill="none" stroke="white" stroke-width="1.5" d="M0,-3.0v7 M-2.5,-0.5L0,-3.0L2.5,-0.5"/>
  </g>
  <g id="arrowDown" transform="rotate(180) translate(-30 -48)">
    <use xlink:href="#rim"/>
    <path pointer-events="none" fill="none" stroke="white" stroke-width="1.5" d="M0,-3.0v7 M-2.5,-0.5L0,-3.0L2.5,-0.5"/>
  </g>
  <g id="arrowLeft" transform="rotate(270) translate(-36 17)">
    <use xlink:href="#rim"/>
    <path pointer-events="none" fill="none" stroke="white" stroke-width="1.5" d="M0,-3.0v7 M-2.5,-0.5L0,-3.0L2.5,-0.5"/>
  </g>
  <g id="resetDef">
    <use xlink:href="#rim2" fill="#404040"><set attributeName="fill" to="#808080" begin="reset.mouseover" end="reset.mouseout"/></use>
  </g>
</defs>
<script type="application/ecmascript">
var viewWidth = 1416;
var viewHeight = 445;
var sectionId = 'dynsection-0';
</script>
<script type="application/ecmascript" xlink:href="svg.min.js"/>
<svg id="graph" class="graph">
<g id="viewport">
<title>include/mosaic/signaling/signaling_client.h</title>
<!-- Node1 -->
<g id="Node000001" class="node">
<title>Node1</title>
<g id="a_Node000001"><a xlink:title=" ">
<polygon fill="#999999" stroke="#666666" points="1156.5,-437 1019.5,-437 1019.5,-407 1156.5,-407 1156.5,-437"/>
<text text-anchor="start" x="1027.5" y="-425" font-family="Helvetica,sans-Serif" font-size="10.00">include/mosaic/signaling</text>
<text text-anchor="middle" x="1088" y="-414" font-family="Helvetica,sans-Serif" font-size="10.00">/signaling_client.h</text>
</a>
</g>
</g>
<!-- Node2 -->
<g id="Node000002" class="node">
<title>Node2</title>
<g id="a_Node000002"><a xlink:title=" ">
<polygon fill="#e0e0e0" stroke="#999999" points="1060,-19 1002,-19 1002,0 1060,0 1060,-19"/>
<text text-anchor="middle" x="1031" y="-7" font-family="Helvetica,sans-Serif" font-size="10.00">memory</text>
</a>
</g>
</g>
<!-- Node1&#45;&gt;Node2 -->
<g id="edge1_Node000001_Node000002" class="edge">
<title>Node1&#45;&gt;Node2</title>
<g id="a_edge1_Node000001_Node000002"><a xlink:title=" ">
<path fill="none" stroke="#63b8ff" d="M1156.61,-420.77C1250.09,-416.43 1406,-393.07 1406,-285.5 1406,-285.5 1406,-285.5 1406,-135 1406,-98.46 1414.21,-79.4 1387,-55 1341.07,-13.82 1153.11,-9.72 1070.39,-9.98"/>
<polygon fill="#63b8ff" stroke="#63b8ff" points="1070.12,-6.48 1060.14,-10.03 1070.15,-13.48 1070.12,-6.48"/>
</a>
</g>
</g>
<!-- Node3 -->
<g id="Node000003" class="node">
<title>Node3</title>
<g id="a_Node000003"><a xlink:title=" ">
<polygon fill="#e0e0e0" stroke="#999999" points="238,-19 194,-19 194,0 238,0 238,-19"/>
<text text-anchor="middle" x="216" y="-7" font-family="Helvetica,sans-Serif" font-size="10.00">string</text>
</a>
</g>
</g>
<!-- Node1&#45;&gt;Node3 -->
<g id="edge2_Node000001_Node000003" class="edge">
<title>Node1&#45;&gt;Node3</title>
<g id="a_edge2_Node000001_Node000003"><a xlink:title=" ">
<path fill="none" stroke="#63b8ff" d="M1019.12,-419.69C779.95,-414.26 0,-388.64 0,-285.5 0,-285.5 0,-285.5 0,-135 0,-92.35 18.44,-79.99 53,-55 92.21,-26.65 148.55,-16.36 183.68,-12.62"/>
<polygon fill="#63b8ff" stroke="#63b8ff" points="184.23,-16.09 193.86,-11.66 183.57,-9.12 184.23,-16.09"/>
</a>
</g>
</g>
<!-- Node4 -->
<g id="Node000004" class="node">
<title>Node4</title>
<g id="a_Node000004"><a xlink:href="mosaic__connector_8h.html" target="_top" xlink:title=" ">
<polygon fill="white" stroke="#666666" points="568,-371 454,-371 454,-341 568,-341 568,-371"/>
<text text-anchor="start" x="462" y="-359" font-family="Helvetica,sans-Serif" font-size="10.00">mosaic/core/mosaic</text>
<text text-anchor="middle" x="511" y="-348" font-family="Helvetica,sans-Serif" font-size="10.00">_connector.h</text>
</a>
</g>
</g>
<!-- Node1&#45;&gt;Node4 -->
<g id="edge3_Node000001_Node000004" class="edge">
<title>Node1&#45;&gt;Node4</title>
<g id="a_edge3_Node000001_Node000004"><a xlink:title=" ">
<path fill="none" stroke="#63b8ff" d="M1019.26,-413.38C907.69,-401 688.58,-376.7 578.09,-364.44"/>
<polygon fill="#63b8ff" stroke="#63b8ff" points="578.39,-360.95 568.07,-363.33 577.62,-367.91 578.39,-360.95"/>
</a>
</g>
</g>
<!-- Node8 -->
<g id="Node000008" class="node">
<title>Node8</title>
<g id="a_Node000008"><a xlink:href="i__signaling__client_8h.html" target="_top" xlink:title=" ">
<polygon fill="white" stroke="#666666" points="891.5,-222.5 784.5,-222.5 784.5,-192.5 891.5,-192.5 891.5,-222.5"/>
<text text-anchor="start" x="792.5" y="-210.5" font-family="Helvetica,sans-Serif" font-size="10.00">mosaic/signaling/i</text>
<text text-anchor="middle" x="838" y="-199.5" font-family="Helvetica,sans-Serif" font-size="10.00">_signaling_client.h</text>
</a>
</g>
</g>
<!-- Node1&#45;&gt;Node8 -->
<g id="edge46_Node000001_Node000008" class="edge">
<title>Node1&#45;&gt;Node8</title>
<g id="a_edge46_Node000001_Node000008"><a xlink:title=" ">
<path fill="none" stroke="#63b8ff" d="M1071.21,-406.73C1028.07,-370.06 913.19,-272.41 862.55,-229.37"/>
<polygon fill="#63b8ff" stroke="#63b8ff" points="864.6,-226.52 854.72,-222.71 860.07,-231.85 864.6,-226.52"/>
</a>
</g>
</g>
<!-- Node26 -->
<g id="Node000026" class="node">
<title>Node26</title>
<g id="a_Node000026"><a xlink:href="websocket__client_8h.html" target="_top" xlink:title=" ">
<polygon fill="white" stroke="#666666" points="1232,-151 1078,-151 1078,-121 1232,-121 1232,-151"/>
<text text-anchor="start" x="1086" y="-139" font-family="Helvetica,sans-Serif" font-size="10.00">mosaic/signaling/websocket</text>
<text text-anchor="middle" x="1155" y="-128" font-family="Helvetica,sans-Serif" font-size="10.00">_client.h</text>
</a>
</g>
</g>
<!-- Node1&#45;&gt;Node26 -->
<g id="edge47_Node000001_Node000026" class="edge">
<title>Node1&#45;&gt;Node26</title>
<g id="a_edge47_Node000001_Node000026"><a xlink:title=" ">
<path fill="none" stroke="#63b8ff" d="M1091.32,-406.92C1102.04,-361.49 1135.78,-218.49 1149.3,-161.14"/>
<polygon fill="#63b8ff" stroke="#63b8ff" points="1152.77,-161.71 1151.66,-151.17 1145.95,-160.1 1152.77,-161.71"/>
</a>
</g>
</g>
<!-- Node4&#45;&gt;Node2 -->
<g id="edge5_Node000004_Node000002" class="edge">
<title>Node4&#45;&gt;Node2</title>
<g id="a_edge5_Node000004_Node000002"><a xlink:title=" ">
<path fill="none" stroke="#63b8ff" d="M568.17,-351.6C706.89,-341.8 1050,-307.53 1050,-208.5 1050,-208.5 1050,-208.5 1050,-135 1050,-97.06 1041.27,-53.35 1035.65,-29.13"/>
<polygon fill="#63b8ff" stroke="#63b8ff" points="1039,-28.09 1033.25,-19.19 1032.19,-29.73 1039,-28.09"/>
</a>
</g>
</g>
<!-- Node4&#45;&gt;Node3 -->
<g id="edge6_Node000004_Node000003" class="edge">
<title>Node4&#45;&gt;Node3</title>
<g id="a_edge6_Node000004_Node000003"><a xlink:title=" ">
<path fill="none" stroke="#63b8ff" d="M453.94,-353.22C388.14,-349.57 277.64,-338.5 189,-305 114.5,-276.84 38,-288.15 38,-208.5 38,-208.5 38,-208.5 38,-135 38,-64.61 132.61,-30.68 183.88,-17.46"/>
<polygon fill="#63b8ff" stroke="#63b8ff" points="184.94,-20.81 193.82,-15.02 183.27,-14.01 184.94,-20.81"/>
</a>
</g>
</g>
<!-- Node5 -->
<g id="Node000005" class="node">
<title>Node5</title>
<g id="a_Node000005"><a xlink:title=" ">
<polygon fill="#e0e0e0" stroke="#999999" points="349,-294 311,-294 311,-275 349,-275 349,-294"/>
<text text-anchor="middle" x="330" y="-282" font-family="Helvetica,sans-Serif" font-size="10.00">map</text>
</a>
</g>
</g>
<!-- Node4&#45;&gt;Node5 -->
<g id="edge4_Node000004_Node000005" class="edge">
<title>Node4&#45;&gt;Node5</title>
<g id="a_edge4_Node000004_Node000005"><a xlink:title=" ">
<path fill="none" stroke="#63b8ff" d="M454.93,-340.94C425.29,-332.46 388.77,-320.32 358,-305 354.98,-303.49 351.91,-301.69 348.97,-299.8"/>
<polygon fill="#63b8ff" stroke="#63b8ff" points="350.92,-296.89 340.71,-294.06 346.93,-302.64 350.92,-296.89"/>
</a>
</g>
</g>
<!-- Node6 -->
<g id="Node000006" class="node">
<title>Node6</title>
<g id="a_Node000006"><a xlink:href="connector__state__manager_8h.html" target="_top" xlink:title=" ">
<polygon fill="white" stroke="#666666" points="649.5,-299.5 522.5,-299.5 522.5,-269.5 649.5,-269.5 649.5,-299.5"/>
<text text-anchor="start" x="530.5" y="-287.5" font-family="Helvetica,sans-Serif" font-size="10.00">mosaic/core/connector</text>
<text text-anchor="middle" x="586" y="-276.5" font-family="Helvetica,sans-Serif" font-size="10.00">_state_manager.h</text>
</a>
</g>
</g>
<!-- Node4&#45;&gt;Node6 -->
<g id="edge7_Node000004_Node000006" class="edge">
<title>Node4&#45;&gt;Node6</title>
<g id="a_edge7_Node000004_Node000006"><a xlink:title=" ">
<path fill="none" stroke="#63b8ff" d="M526.18,-340.94C536.85,-331.04 551.32,-317.64 563.35,-306.49"/>
<polygon fill="#63b8ff" stroke="#63b8ff" points="565.89,-308.91 570.85,-299.54 561.13,-303.77 565.89,-308.91"/>
</a>
</g>
</g>
<!-- Node10 -->
<g id="Node000010" class="node">
<title>Node10</title>
<g id="a_Node000010"><a xlink:title=" ">
<polygon fill="#e0e0e0" stroke="#999999" points="314,-151 168,-151 168,-121 314,-121 314,-151"/>
<text text-anchor="start" x="176" y="-139" font-family="Helvetica,sans-Serif" font-size="10.00">mosaic/rtc/webrtc_forward</text>
<text text-anchor="middle" x="241" y="-128" font-family="Helvetica,sans-Serif" font-size="10.00">_decl.h</text>
</a>
</g>
</g>
<!-- Node4&#45;&gt;Node10 -->
<g id="edge45_Node000004_Node000010" class="edge">
<title>Node4&#45;&gt;Node10</title>
<g id="a_edge45_Node000004_Node000010"><a xlink:title=" ">
<path fill="none" stroke="#63b8ff" d="M453.76,-347.49C399.87,-339.35 324.2,-324.81 302,-305 259.83,-267.36 246.79,-198.23 242.77,-161.48"/>
<polygon fill="#63b8ff" stroke="#63b8ff" points="246.22,-160.8 241.79,-151.18 239.26,-161.47 246.22,-160.8"/>
</a>
</g>
</g>
<!-- Node16 -->
<g id="Node000016" class="node">
<title>Node16</title>
<g id="a_Node000016"><a xlink:href="peer__connection__manager_8h.html" target="_top" xlink:title=" ">
<polygon fill="white" stroke="#666666" points="826.5,-299.5 667.5,-299.5 667.5,-269.5 826.5,-269.5 826.5,-299.5"/>
<text text-anchor="start" x="675.5" y="-287.5" font-family="Helvetica,sans-Serif" font-size="10.00">mosaic/core/peer_connection</text>
<text text-anchor="middle" x="747" y="-276.5" font-family="Helvetica,sans-Serif" font-size="10.00">_manager.h</text>
</a>
</g>
</g>
<!-- Node4&#45;&gt;Node16 -->
<g id="edge23_Node000004_Node000016" class="edge">
<title>Node4&#45;&gt;Node16</title>
<g id="a_edge23_Node000004_Node000016"><a xlink:title=" ">
<path fill="none" stroke="#63b8ff" d="M553.21,-340.94C589.63,-329.77 642.63,-314.13 684.05,-302.31"/>
<polygon fill="#63b8ff" stroke="#63b8ff" points="685.11,-305.65 693.77,-299.54 683.19,-298.91 685.11,-305.65"/>
</a>
</g>
</g>
<!-- Node17 -->
<g id="Node000017" class="node">
<title>Node17</title>
<g id="a_Node000017"><a xlink:href="i__data__channel__handler_8h.html" target="_top" xlink:title=" ">
<polygon fill="white" stroke="#666666" points="504.5,-305 367.5,-305 367.5,-264 504.5,-264 504.5,-305"/>
<text text-anchor="start" x="375.5" y="-293" font-family="Helvetica,sans-Serif" font-size="10.00">mosaic/handlers/data</text>
<text text-anchor="start" x="375.5" y="-282" font-family="Helvetica,sans-Serif" font-size="10.00">_channel/i_data_channel</text>
<text text-anchor="middle" x="436" y="-271" font-family="Helvetica,sans-Serif" font-size="10.00">_handler.h</text>
</a>
</g>
</g>
<!-- Node4&#45;&gt;Node17 -->
<g id="edge28_Node000004_Node000017" class="edge">
<title>Node4&#45;&gt;Node17</title>
<g id="a_edge28_Node000004_Node000017"><a xlink:title=" ">
<path fill="none" stroke="#63b8ff" d="M495.82,-340.94C486.87,-332.64 475.24,-321.86 464.62,-312.02"/>
<polygon fill="#63b8ff" stroke="#63b8ff" points="466.84,-309.3 457.12,-305.07 462.08,-314.44 466.84,-309.3"/>
</a>
</g>
</g>
<!-- Node24 -->
<g id="Node000024" class="node">
<title>Node24</title>
<g id="a_Node000024"><a xlink:href="i__media__track__handler_8h.html" target="_top" xlink:title=" ">
<polygon fill="white" stroke="#666666" points="221.5,-228 90.5,-228 90.5,-187 221.5,-187 221.5,-228"/>
<text text-anchor="start" x="98.5" y="-216" font-family="Helvetica,sans-Serif" font-size="10.00">mosaic/handlers/media</text>
<text text-anchor="start" x="98.5" y="-205" font-family="Helvetica,sans-Serif" font-size="10.00">_track/i_media_track</text>
<text text-anchor="middle" x="156" y="-194" font-family="Helvetica,sans-Serif" font-size="10.00">_handler.h</text>
</a>
</g>
</g>
<!-- Node4&#45;&gt;Node24 -->
<g id="edge41_Node000004_Node000024" class="edge">
<title>Node4&#45;&gt;Node24</title>
<g id="a_edge41_Node000004_Node000024"><a xlink:title=" ">
<path fill="none" stroke="#63b8ff" d="M453.86,-355.34C396.06,-353.31 305.94,-343.43 239,-305 210.7,-288.76 187.44,-259.15 172.81,-236.99"/>
<polygon fill="#63b8ff" stroke="#63b8ff" points="175.6,-234.86 167.27,-228.32 169.7,-238.63 175.6,-234.86"/>
</a>
</g>
</g>
<!-- Node6&#45;&gt;Node2 -->
<g id="edge8_Node000006_Node000002" class="edge">
<title>Node6&#45;&gt;Node2</title>
<g id="a_edge8_Node000006_Node000002"><a xlink:title=" ">
<path fill="none" stroke="#63b8ff" d="M635,-269.41C642.66,-267.44 650.52,-265.56 658,-264 764.44,-241.75 808.51,-286.76 900,-228 975.06,-179.79 1013.32,-71.87 1026.05,-28.78"/>
<polygon fill="#63b8ff" stroke="#63b8ff" points="1029.43,-29.66 1028.8,-19.08 1022.7,-27.75 1029.43,-29.66"/>
</a>
</g>
</g>
<!-- Node6&#45;&gt;Node3 -->
<g id="edge10_Node000006_Node000003" class="edge">
<title>Node6&#45;&gt;Node3</title>
<g id="a_edge10_Node000006_Node000003"><a xlink:title=" ">
<path fill="none" stroke="#63b8ff" d="M535.18,-269.42C481.97,-254.51 405.35,-232.51 400,-228 359.42,-193.79 386.98,-155.9 347,-121 309.2,-88 275.25,-120.71 240,-85 225.26,-70.07 219.57,-46.06 217.38,-29.34"/>
<polygon fill="#63b8ff" stroke="#63b8ff" points="220.83,-28.74 216.35,-19.14 213.87,-29.44 220.83,-28.74"/>
</a>
</g>
</g>
<!-- Node7 -->
<g id="Node000007" class="node">
<title>Node7</title>
<g id="a_Node000007"><a xlink:title=" ">
<polygon fill="#e0e0e0" stroke="#999999" points="629,-217 543,-217 543,-198 629,-198 629,-217"/>
<text text-anchor="middle" x="586" y="-205" font-family="Helvetica,sans-Serif" font-size="10.00">shared_mutex</text>
</a>
</g>
</g>
<!-- Node6&#45;&gt;Node7 -->
<g id="edge9_Node000006_Node000007" class="edge">
<title>Node6&#45;&gt;Node7</title>
<g id="a_edge9_Node000006_Node000007"><a xlink:title=" ">
<path fill="none" stroke="#63b8ff" d="M586,-269.39C586,-257.58 586,-240.6 586,-227.58"/>
<polygon fill="#63b8ff" stroke="#63b8ff" points="589.5,-227.37 586,-217.37 582.5,-227.37 589.5,-227.37"/>
</a>
</g>
</g>
<!-- Node6&#45;&gt;Node8 -->
<g id="edge11_Node000006_Node000008" class="edge">
<title>Node6&#45;&gt;Node8</title>
<g id="a_edge11_Node000006_Node000008"><a xlink:title=" ">
<path fill="none" stroke="#63b8ff" d="M633.1,-269.48C674.95,-257.03 736.24,-238.79 780.87,-225.5"/>
<polygon fill="#63b8ff" stroke="#63b8ff" points="782.11,-228.78 790.7,-222.58 780.12,-222.08 782.11,-228.78"/>
</a>
</g>
</g>
<!-- Node9 -->
<g id="Node000009" class="node">
<title>Node9</title>
<g id="a_Node000009"><a xlink:title=" ">
<polygon fill="#e0e0e0" stroke="#999999" points="984,-85 866,-85 866,-55 984,-55 984,-85"/>
<text text-anchor="start" x="874" y="-73" font-family="Helvetica,sans-Serif" font-size="10.00">mosaic/json_forward</text>
<text text-anchor="middle" x="925" y="-62" font-family="Helvetica,sans-Serif" font-size="10.00">_decl.h</text>
</a>
</g>
</g>
<!-- Node8&#45;&gt;Node9 -->
<g id="edge12_Node000008_Node000009" class="edge">
<title>Node8&#45;&gt;Node9</title>
<g id="a_edge12_Node000008_Node000009"><a xlink:title=" ">
<path fill="none" stroke="#63b8ff" d="M876.37,-192.33C894.57,-183.45 914.58,-170.01 925,-151 934.31,-134.02 933.48,-111.8 930.79,-95.09"/>
<polygon fill="#63b8ff" stroke="#63b8ff" points="934.18,-94.16 928.84,-85.01 927.3,-95.49 934.18,-94.16"/>
</a>
</g>
</g>
<!-- Node8&#45;&gt;Node10 -->
<g id="edge13_Node000008_Node000010" class="edge">
<title>Node8&#45;&gt;Node10</title>
<g id="a_edge13_Node000008_Node000010"><a xlink:title=" ">
<path fill="none" stroke="#63b8ff" d="M784.49,-200.27C680.24,-188.13 449.24,-161.24 324.6,-146.73"/>
<polygon fill="#63b8ff" stroke="#63b8ff" points="324.69,-143.22 314.35,-145.54 323.88,-150.17 324.69,-143.22"/>
</a>
</g>
</g>
<!-- Node11 -->
<g id="Node000011" class="node">
<title>Node11</title>
<g id="a_Node000011"><a xlink:href="i__mosaic__authenticator_8h.html" target="_top" xlink:title=" ">
<polygon fill="white" stroke="#666666" points="916,-151 776,-151 776,-121 916,-121 916,-151"/>
<text text-anchor="start" x="784" y="-139" font-family="Helvetica,sans-Serif" font-size="10.00">mosaic/security/i_mosaic</text>
<text text-anchor="middle" x="846" y="-128" font-family="Helvetica,sans-Serif" font-size="10.00">_authenticator.h</text>
</a>
</g>
</g>
<!-- Node8&#45;&gt;Node11 -->
<g id="edge14_Node000008_Node000011" class="edge">
<title>Node8&#45;&gt;Node11</title>
<g id="a_edge14_Node000008_Node000011"><a xlink:title=" ">
<path fill="none" stroke="#63b8ff" d="M839.62,-192.44C840.65,-183.49 842.01,-171.66 843.21,-161.23"/>
<polygon fill="#63b8ff" stroke="#63b8ff" points="846.72,-161.38 844.38,-151.04 839.76,-160.58 846.72,-161.38"/>
</a>
</g>
</g>
<!-- Node11&#45;&gt;Node2 -->
<g id="edge15_Node000011_Node000002" class="edge">
<title>Node11&#45;&gt;Node2</title>
<g id="a_edge15_Node000011_Node000002"><a xlink:title=" ">
<path fill="none" stroke="#63b8ff" d="M843.63,-120.93C841.51,-103.27 840.85,-73.1 857,-55 874.72,-35.14 946.17,-21.98 991.82,-15.42"/>
<polygon fill="#63b8ff" stroke="#63b8ff" points="992.56,-18.85 1001.98,-14 991.6,-11.91 992.56,-18.85"/>
</a>
</g>
</g>
<!-- Node11&#45;&gt;Node9 -->
<g id="edge22_Node000011_Node000009" class="edge">
<title>Node11&#45;&gt;Node9</title>
<g id="a_edge22_Node000011_Node000009"><a xlink:title=" ">
<path fill="none" stroke="#63b8ff" d="M863.53,-120.8C874.17,-112.18 887.92,-101.04 899.72,-91.48"/>
<polygon fill="#63b8ff" stroke="#63b8ff" points="901.95,-94.18 907.52,-85.16 897.54,-88.74 901.95,-94.18"/>
</a>
</g>
</g>
<!-- Node12 -->
<g id="Node000012" class="node">
<title>Node12</title>
<g id="a_Node000012"><a xlink:href="auth__type_8h.html" target="_top" xlink:title=" ">
<polygon fill="white" stroke="#666666" points="454,-79.5 380,-79.5 380,-60.5 454,-60.5 454,-79.5"/>
<text text-anchor="middle" x="417" y="-67.5" font-family="Helvetica,sans-Serif" font-size="10.00">auth_type.h</text>
</a>
</g>
</g>
<!-- Node11&#45;&gt;Node12 -->
<g id="edge16_Node000011_Node000012" class="edge">
<title>Node11&#45;&gt;Node12</title>
<g id="a_edge16_Node000011_Node000012"><a xlink:title=" ">
<path fill="none" stroke="#63b8ff" d="M775.86,-128.61C699.61,-121 574.4,-106.54 468,-85 463.85,-84.16 459.54,-83.17 455.26,-82.11"/>
<polygon fill="#63b8ff" stroke="#63b8ff" points="455.99,-78.68 445.43,-79.54 454.22,-85.45 455.99,-78.68"/>
</a>
</g>
</g>
<!-- Node13 -->
<g id="Node000013" class="node">
<title>Node13</title>
<g id="a_Node000013"><a xlink:href="configs__decl_8h.html" target="_top" xlink:title=" ">
<polygon fill="white" stroke="#666666" points="772,-79.5 648,-79.5 648,-60.5 772,-60.5 772,-79.5"/>
<text text-anchor="middle" x="710" y="-67.5" font-family="Helvetica,sans-Serif" font-size="10.00">mosaic/configs_decl.h</text>
</a>
</g>
</g>
<!-- Node11&#45;&gt;Node13 -->
<g id="edge18_Node000011_Node000013" class="edge">
<title>Node11&#45;&gt;Node13</title>
<g id="a_edge18_Node000011_Node000013"><a xlink:title=" ">
<path fill="none" stroke="#63b8ff" d="M816.15,-120.95C792.62,-109.88 760.07,-94.56 737.23,-83.82"/>
<polygon fill="#63b8ff" stroke="#63b8ff" points="738.64,-80.61 728.1,-79.52 735.66,-86.94 738.64,-80.61"/>
</a>
</g>
</g>
<!-- Node12&#45;&gt;Node3 -->
<g id="edge17_Node000012_Node000003" class="edge">
<title>Node12&#45;&gt;Node3</title>
<g id="a_edge17_Node000012_Node000003"><a xlink:title=" ">
<path fill="none" stroke="#63b8ff" d="M388.18,-60.37C382.17,-58.59 375.88,-56.73 370,-55 327.89,-42.65 279.23,-28.63 248.07,-19.68"/>
<polygon fill="#63b8ff" stroke="#63b8ff" points="248.78,-16.25 238.2,-16.85 246.85,-22.98 248.78,-16.25"/>
</a>
</g>
</g>
<!-- Node13&#45;&gt;Node3 -->
<g id="edge19_Node000013_Node000003" class="edge">
<title>Node13&#45;&gt;Node3</title>
<g id="a_edge19_Node000013_Node000003"><a xlink:title=" ">
<path fill="none" stroke="#63b8ff" d="M669.36,-60.46C659.15,-58.49 648.2,-56.53 638,-55 493.16,-33.32 318.8,-18.48 248.1,-12.93"/>
<polygon fill="#63b8ff" stroke="#63b8ff" points="248.29,-9.43 238.05,-12.14 247.75,-16.41 248.29,-9.43"/>
</a>
</g>
</g>
<!-- Node14 -->
<g id="Node000014" class="node">
<title>Node14</title>
<g id="a_Node000014"><a xlink:title=" ">
<polygon fill="#e0e0e0" stroke="#999999" points="756.5,-19 663.5,-19 663.5,0 756.5,0 756.5,-19"/>
<text text-anchor="middle" x="710" y="-7" font-family="Helvetica,sans-Serif" font-size="10.00">unordered_map</text>
</a>
</g>
</g>
<!-- Node13&#45;&gt;Node14 -->
<g id="edge20_Node000013_Node000014" class="edge">
<title>Node13&#45;&gt;Node14</title>
<g id="a_edge20_Node000013_Node000014"><a xlink:title=" ">
<path fill="none" stroke="#63b8ff" d="M710,-60.37C710,-52.25 710,-39.81 710,-29.39"/>
<polygon fill="#63b8ff" stroke="#63b8ff" points="713.5,-29.17 710,-19.17 706.5,-29.17 713.5,-29.17"/>
</a>
</g>
</g>
<!-- Node15 -->
<g id="Node000015" class="node">
<title>Node15</title>
<g id="a_Node000015"><a xlink:title=" ">
<polygon fill="#e0e0e0" stroke="#999999" points="822.5,-19 775.5,-19 775.5,0 822.5,0 822.5,-19"/>
<text text-anchor="middle" x="799" y="-7" font-family="Helvetica,sans-Serif" font-size="10.00">vector</text>
</a>
</g>
</g>
<!-- Node13&#45;&gt;Node15 -->
<g id="edge21_Node000013_Node000015" class="edge">
<title>Node13&#45;&gt;Node15</title>
<g id="a_edge21_Node000013_Node000015"><a xlink:title=" ">
<path fill="none" stroke="#63b8ff" d="M723.13,-60.37C737.33,-51.04 760.2,-36.01 777.12,-24.88"/>
<polygon fill="#63b8ff" stroke="#63b8ff" points="779.38,-27.58 785.81,-19.17 775.53,-21.74 779.38,-27.58"/>
</a>
</g>
</g>
<!-- Node16&#45;&gt;Node4 -->
<g id="edge26_Node000016_Node000004" class="edge">
<title>Node16&#45;&gt;Node4</title>
<g id="a_edge26_Node000016_Node000004"><a xlink:title=" ">
<path fill="none" stroke="#63b8ff" d="M704.86,-299.54C668.46,-310.7 615.46,-326.34 574.03,-338.17"/>
<polygon fill="#63b8ff" stroke="#63b8ff" points="572.97,-334.83 564.31,-340.94 574.88,-341.57 572.97,-334.83"/>
</a>
</g>
</g>
<!-- Node16&#45;&gt;Node8 -->
<g id="edge27_Node000016_Node000008" class="edge">
<title>Node16&#45;&gt;Node8</title>
<g id="a_edge27_Node000016_Node000008"><a xlink:title=" ">
<path fill="none" stroke="#63b8ff" d="M764.12,-269.39C777.84,-258.08 797.31,-242.04 812.82,-229.26"/>
<polygon fill="#63b8ff" stroke="#63b8ff" points="815.47,-231.6 820.96,-222.54 811.02,-226.2 815.47,-231.6"/>
</a>
</g>
</g>
<!-- Node16&#45;&gt;Node13 -->
<g id="edge25_Node000016_Node000013" class="edge">
<title>Node16&#45;&gt;Node13</title>
<g id="a_edge25_Node000016_Node000013"><a xlink:title=" ">
<path fill="none" stroke="#63b8ff" d="M743.38,-269.42C740.58,-258.24 736.74,-242.19 734,-228 724.39,-178.29 716.22,-119.12 712.37,-89.63"/>
<polygon fill="#63b8ff" stroke="#63b8ff" points="715.82,-89.02 711.07,-79.55 708.87,-89.92 715.82,-89.02"/>
</a>
</g>
</g>
<!-- Node16&#45;&gt;Node15 -->
<g id="edge24_Node000016_Node000015" class="edge">
<title>Node16&#45;&gt;Node15</title>
<g id="a_edge24_Node000016_Node000015"><a xlink:title=" ">
<path fill="none" stroke="#63b8ff" d="M747.56,-269.37C748.95,-240.9 753.47,-174.75 767,-121 771.19,-104.35 775.86,-101.38 781,-85 786.84,-66.38 791.89,-44.65 795.15,-29.48"/>
<polygon fill="#63b8ff" stroke="#63b8ff" points="798.65,-29.82 797.27,-19.32 791.8,-28.4 798.65,-29.82"/>
</a>
</g>
</g>
<!-- Node17&#45;&gt;Node3 -->
<g id="edge29_Node000017_Node000003" class="edge">
<title>Node17&#45;&gt;Node3</title>
<g id="a_edge29_Node000017_Node000003"><a xlink:title=" ">
<path fill="none" stroke="#63b8ff" d="M404.34,-263.79C391.09,-254.28 376.39,-241.92 366,-228 335.34,-186.93 360.88,-155.52 323,-121 281.53,-83.21 235.54,-129.98 202,-85 189.75,-68.58 197.58,-44.57 205.59,-28.29"/>
<polygon fill="#63b8ff" stroke="#63b8ff" points="208.78,-29.74 210.43,-19.28 202.62,-26.43 208.78,-29.74"/>
</a>
</g>
</g>
<!-- Node17&#45;&gt;Node10 -->
<g id="edge40_Node000017_Node000010" class="edge">
<title>Node17&#45;&gt;Node10</title>
<g id="a_edge40_Node000017_Node000010"><a xlink:title=" ">
<path fill="none" stroke="#63b8ff" d="M389.89,-263.98C369.96,-254.51 346.92,-242.12 328,-228 300.87,-207.75 274.73,-178.7 258.3,-158.9"/>
<polygon fill="#63b8ff" stroke="#63b8ff" points="260.92,-156.57 251.88,-151.04 255.5,-161 260.92,-156.57"/>
</a>
</g>
</g>
<!-- Node18 -->
<g id="Node000018" class="node">
<title>Node18</title>
<g id="a_Node000018"><a xlink:href="log_8h.html" target="_top" xlink:title=" ">
<polygon fill="white" stroke="#666666" points="522.5,-217 409.5,-217 409.5,-198 522.5,-198 522.5,-217"/>
<text text-anchor="middle" x="466" y="-205" font-family="Helvetica,sans-Serif" font-size="10.00">mosaic/logger/log.h</text>
</a>
</g>
</g>
<!-- Node17&#45;&gt;Node18 -->
<g id="edge30_Node000017_Node000018" class="edge">
<title>Node17&#45;&gt;Node18</title>
<g id="a_edge30_Node000017_Node000018"><a xlink:title=" ">
<path fill="none" stroke="#63b8ff" d="M443.88,-263.79C448.46,-252.35 454.19,-238.02 458.67,-226.82"/>
<polygon fill="#63b8ff" stroke="#63b8ff" points="462.04,-227.82 462.51,-217.24 455.54,-225.22 462.04,-227.82"/>
</a>
</g>
</g>
<!-- Node19 -->
<g id="Node000019" class="node">
<title>Node19</title>
<g id="a_Node000019"><a xlink:href="i__logger_8h.html" target="_top" xlink:title=" ">
<polygon fill="white" stroke="#666666" points="498,-145.5 434,-145.5 434,-126.5 498,-126.5 498,-145.5"/>
<text text-anchor="middle" x="466" y="-133.5" font-family="Helvetica,sans-Serif" font-size="10.00">i_logger.h</text>
</a>
</g>
</g>
<!-- Node18&#45;&gt;Node19 -->
<g id="edge31_Node000018_Node000019" class="edge">
<title>Node18&#45;&gt;Node19</title>
<g id="a_edge31_Node000018_Node000019"><a xlink:title=" ">
<path fill="none" stroke="#63b8ff" d="M466,-197.98C466,-187.56 466,-169.61 466,-155.88"/>
<polygon fill="#63b8ff" stroke="#63b8ff" points="469.5,-155.59 466,-145.59 462.5,-155.59 469.5,-155.59"/>
</a>
</g>
</g>
<!-- Node22 -->
<g id="Node000022" class="node">
<title>Node22</title>
<g id="a_Node000022"><a xlink:href="log__service_8h.html" target="_top" xlink:title=" ">
<polygon fill="white" stroke="#666666" points="629.5,-79.5 548.5,-79.5 548.5,-60.5 629.5,-60.5 629.5,-79.5"/>
<text text-anchor="middle" x="589" y="-67.5" font-family="Helvetica,sans-Serif" font-size="10.00">log_service.h</text>
</a>
</g>
</g>
<!-- Node18&#45;&gt;Node22 -->
<g id="edge39_Node000018_Node000022" class="edge">
<title>Node18&#45;&gt;Node22</title>
<g id="a_edge39_Node000018_Node000022"><a xlink:title=" ">
<path fill="none" stroke="#63b8ff" d="M474.07,-197.61C494.4,-175.21 547.98,-116.19 574.16,-87.34"/>
<polygon fill="#63b8ff" stroke="#63b8ff" points="576.93,-89.5 581.06,-79.75 571.75,-84.8 576.93,-89.5"/>
</a>
</g>
</g>
<!-- Node19&#45;&gt;Node3 -->
<g id="edge32_Node000019_Node000003" class="edge">
<title>Node19&#45;&gt;Node3</title>
<g id="a_edge32_Node000019_Node000003"><a xlink:title=" ">
<path fill="none" stroke="#63b8ff" d="M433.61,-127.82C382.22,-116.26 286.41,-93.9 273,-85 251.33,-70.63 234.52,-45.2 224.93,-28.1"/>
<polygon fill="#63b8ff" stroke="#63b8ff" points="227.95,-26.31 220.14,-19.14 221.77,-29.61 227.95,-26.31"/>
</a>
</g>
</g>
<!-- Node20 -->
<g id="Node000020" class="node">
<title>Node20</title>
<g id="a_Node000020"><a xlink:title=" ">
<polygon fill="#e0e0e0" stroke="#999999" points="361.5,-79.5 282.5,-79.5 282.5,-60.5 361.5,-60.5 361.5,-79.5"/>
<text text-anchor="middle" x="322" y="-67.5" font-family="Helvetica,sans-Serif" font-size="10.00">fmt/format.h</text>
</a>
</g>
</g>
<!-- Node19&#45;&gt;Node20 -->
<g id="edge33_Node000019_Node000020" class="edge">
<title>Node19&#45;&gt;Node20</title>
<g id="a_edge33_Node000019_Node000020"><a xlink:title=" ">
<path fill="none" stroke="#63b8ff" d="M446.58,-126.37C421.99,-115.44 379.43,-96.52 350.99,-83.88"/>
<polygon fill="#63b8ff" stroke="#63b8ff" points="352.13,-80.56 341.57,-79.7 349.29,-86.96 352.13,-80.56"/>
</a>
</g>
</g>
<!-- Node21 -->
<g id="Node000021" class="node">
<title>Node21</title>
<g id="a_Node000021"><a xlink:href="log__level_8h.html" target="_top" xlink:title=" ">
<polygon fill="white" stroke="#666666" points="555,-19 485,-19 485,0 555,0 555,-19"/>
<text text-anchor="middle" x="520" y="-7" font-family="Helvetica,sans-Serif" font-size="10.00">log_level.h</text>
</a>
</g>
</g>
<!-- Node19&#45;&gt;Node21 -->
<g id="edge34_Node000019_Node000021" class="edge">
<title>Node19&#45;&gt;Node21</title>
<g id="a_edge34_Node000019_Node000021"><a xlink:title=" ">
<path fill="none" stroke="#63b8ff" d="M469.71,-126.44C478.42,-106.36 500.32,-55.87 512.14,-28.62"/>
<polygon fill="#63b8ff" stroke="#63b8ff" points="515.49,-29.68 516.26,-19.12 509.07,-26.9 515.49,-29.68"/>
</a>
</g>
</g>
<!-- Node19&#45;&gt;Node22 -->
<g id="edge35_Node000019_Node000022" class="edge">
<title>Node19&#45;&gt;Node22</title>
<g id="a_edge35_Node000019_Node000022"><a xlink:title=" ">
<path fill="none" stroke="#63b8ff" d="M482.59,-126.37C503.31,-115.59 539,-97.02 563.28,-84.38"/>
<polygon fill="#63b8ff" stroke="#63b8ff" points="565.03,-87.42 572.28,-79.7 561.8,-81.21 565.03,-87.42"/>
</a>
</g>
</g>
<!-- Node22&#45;&gt;Node2 -->
<g id="edge36_Node000022_Node000002" class="edge">
<title>Node22&#45;&gt;Node2</title>
<g id="a_edge36_Node000022_Node000002"><a xlink:title=" ">
<path fill="none" stroke="#63b8ff" d="M616.32,-60.5C623.63,-58.46 631.57,-56.45 639,-55 766.56,-30.07 920.39,-17.65 991.47,-12.89"/>
<polygon fill="#63b8ff" stroke="#63b8ff" points="991.99,-16.36 1001.74,-12.22 991.53,-9.38 991.99,-16.36"/>
</a>
</g>
</g>
<!-- Node22&#45;&gt;Node21 -->
<g id="edge38_Node000022_Node000021" class="edge">
<title>Node22&#45;&gt;Node21</title>
<g id="a_edge38_Node000022_Node000021"><a xlink:title=" ">
<path fill="none" stroke="#63b8ff" d="M578.82,-60.37C568.12,-51.3 551.06,-36.84 538.07,-25.82"/>
<polygon fill="#63b8ff" stroke="#63b8ff" points="540.11,-22.96 530.22,-19.17 535.59,-28.3 540.11,-22.96"/>
</a>
</g>
</g>
<!-- Node23 -->
<g id="Node000023" class="node">
<title>Node23</title>
<g id="a_Node000023"><a xlink:title=" ">
<polygon fill="#e0e0e0" stroke="#999999" points="642.5,-19 573.5,-19 573.5,0 642.5,0 642.5,-19"/>
<text text-anchor="middle" x="608" y="-7" font-family="Helvetica,sans-Serif" font-size="10.00">type_traits</text>
</a>
</g>
</g>
<!-- Node22&#45;&gt;Node23 -->
<g id="edge37_Node000022_Node000023" class="edge">
<title>Node22&#45;&gt;Node23</title>
<g id="a_edge37_Node000022_Node000023"><a xlink:title=" ">
<path fill="none" stroke="#63b8ff" d="M591.8,-60.37C594.5,-52.07 598.65,-39.28 602.08,-28.72"/>
<polygon fill="#63b8ff" stroke="#63b8ff" points="605.42,-29.76 605.18,-19.17 598.77,-27.6 605.42,-29.76"/>
</a>
</g>
</g>
<!-- Node24&#45;&gt;Node3 -->
<g id="edge42_Node000024_Node000003" class="edge">
<title>Node24&#45;&gt;Node3</title>
<g id="a_edge42_Node000024_Node000003"><a xlink:title=" ">
<path fill="none" stroke="#63b8ff" d="M152.18,-186.56C147.42,-156.29 142.32,-97.75 164,-55 170.21,-42.75 181.42,-32.48 191.85,-24.91"/>
<polygon fill="#63b8ff" stroke="#63b8ff" points="193.97,-27.7 200.29,-19.2 190.05,-21.91 193.97,-27.7"/>
</a>
</g>
</g>
<!-- Node24&#45;&gt;Node10 -->
<g id="edge44_Node000024_Node000010" class="edge">
<title>Node24&#45;&gt;Node10</title>
<g id="a_edge44_Node000024_Node000010"><a xlink:title=" ">
<path fill="none" stroke="#63b8ff" d="M180.13,-186.77C191.35,-177.6 204.68,-166.7 216,-157.44"/>
<polygon fill="#63b8ff" stroke="#63b8ff" points="218.3,-160.08 223.83,-151.04 213.87,-154.66 218.3,-160.08"/>
</a>
</g>
</g>
<!-- Node25 -->
<g id="Node000025" class="node">
<title>Node25</title>
<g id="a_Node000025"><a xlink:title=" ">
<polygon fill="#e0e0e0" stroke="#999999" points="111.5,-145.5 66.5,-145.5 66.5,-126.5 111.5,-126.5 111.5,-145.5"/>
<text text-anchor="middle" x="89" y="-133.5" font-family="Helvetica,sans-Serif" font-size="10.00">utility</text>
</a>
</g>
</g>
<!-- Node24&#45;&gt;Node25 -->
<g id="edge43_Node000024_Node000025" class="edge">
<title>Node24&#45;&gt;Node25</title>
<g id="a_edge43_Node000024_Node000025"><a xlink:title=" ">
<path fill="none" stroke="#63b8ff" d="M136.98,-186.77C126.72,-176.13 114.22,-163.16 104.55,-153.13"/>
<polygon fill="#63b8ff" stroke="#63b8ff" points="106.96,-150.59 97.5,-145.82 101.92,-155.45 106.96,-150.59"/>
</a>
</g>
</g>
<!-- Node26&#45;&gt;Node2 -->
<g id="edge50_Node000026_Node000002" class="edge">
<title>Node26&#45;&gt;Node2</title>
<g id="a_edge50_Node000026_Node000002"><a xlink:title=" ">
<path fill="none" stroke="#63b8ff" d="M1140.78,-120.72C1117.46,-97.31 1071.26,-50.92 1046.9,-26.46"/>
<polygon fill="#63b8ff" stroke="#63b8ff" points="1049.07,-23.69 1039.54,-19.07 1044.11,-28.62 1049.07,-23.69"/>
</a>
</g>
</g>
<!-- Node26&#45;&gt;Node3 -->
<g id="edge51_Node000026_Node000003" class="edge">
<title>Node26&#45;&gt;Node3</title>
<g id="a_edge51_Node000026_Node000003"><a xlink:title=" ">
<path fill="none" stroke="#63b8ff" d="M1077.79,-130.01C924.09,-119.89 590.21,-96.91 539,-85 503.63,-76.78 497.93,-64.93 463,-55 387.41,-33.5 295.73,-20.21 248.15,-14.23"/>
<polygon fill="#63b8ff" stroke="#63b8ff" points="248.49,-10.74 238.14,-13 247.64,-17.69 248.49,-10.74"/>
</a>
</g>
</g>
<!-- Node26&#45;&gt;Node9 -->
<g id="edge52_Node000026_Node000009" class="edge">
<title>Node26&#45;&gt;Node9</title>
<g id="a_edge52_Node000026_Node000009"><a xlink:title=" ">
<path fill="none" stroke="#63b8ff" d="M1104.53,-120.95C1069.32,-111.16 1022.19,-98.05 985.06,-87.71"/>
<polygon fill="#63b8ff" stroke="#63b8ff" points="985.93,-84.32 975.36,-85.01 984.05,-91.07 985.93,-84.32"/>
</a>
</g>
</g>
<!-- Node27 -->
<g id="Node000027" class="node">
<title>Node27</title>
<g id="a_Node000027"><a xlink:title=" ">
<polygon fill="#e0e0e0" stroke="#999999" points="1166,-79.5 1116,-79.5 1116,-60.5 1166,-60.5 1166,-79.5"/>
<text text-anchor="middle" x="1141" y="-67.5" font-family="Helvetica,sans-Serif" font-size="10.00">atomic</text>
</a>
</g>
</g>
<!-- Node26&#45;&gt;Node27 -->
<g id="edge48_Node000026_Node000027" class="edge">
<title>Node26&#45;&gt;Node27</title>
<g id="a_edge48_Node000026_Node000027"><a xlink:title=" ">
<path fill="none" stroke="#63b8ff" d="M1151.89,-120.8C1149.9,-111.7 1147.3,-99.79 1145.13,-89.9"/>
<polygon fill="#63b8ff" stroke="#63b8ff" points="1148.49,-88.87 1142.93,-79.84 1141.65,-90.36 1148.49,-88.87"/>
</a>
</g>
</g>
<!-- Node28 -->
<g id="Node000028" class="node">
<title>Node28</title>
<g id="a_Node000028"><a xlink:title=" ">
<polygon fill="#e0e0e0" stroke="#999999" points="1249.5,-79.5 1184.5,-79.5 1184.5,-60.5 1249.5,-60.5 1249.5,-79.5"/>
<text text-anchor="middle" x="1217" y="-67.5" font-family="Helvetica,sans-Serif" font-size="10.00">functional</text>
</a>
</g>
</g>
<!-- Node26&#45;&gt;Node28 -->
<g id="edge49_Node000026_Node000028" class="edge">
<title>Node26&#45;&gt;Node28</title>
<g id="a_edge49_Node000026_Node000028"><a xlink:title=" ">
<path fill="none" stroke="#63b8ff" d="M1168.76,-120.8C1178.43,-110.82 1191.37,-97.46 1201.42,-87.09"/>
<polygon fill="#63b8ff" stroke="#63b8ff" points="1203.99,-89.46 1208.43,-79.84 1198.96,-84.59 1203.99,-89.46"/>
</a>
</g>
</g>
<!-- Node29 -->
<g id="Node000029" class="node">
<title>Node29</title>
<g id="a_Node000029"><a xlink:title=" ">
<polygon fill="#e0e0e0" stroke="#999999" points="1378,-79.5 1268,-79.5 1268,-60.5 1378,-60.5 1378,-79.5"/>
<text text-anchor="middle" x="1323" y="-67.5" font-family="Helvetica,sans-Serif" font-size="10.00">cpprest/ws_client.h</text>
</a>
</g>
</g>
<!-- Node26&#45;&gt;Node29 -->
<g id="edge53_Node000026_Node000029" class="edge">
<title>Node26&#45;&gt;Node29</title>
<g id="a_edge53_Node000026_Node000029"><a xlink:title=" ">
<path fill="none" stroke="#63b8ff" d="M1191.87,-120.95C1221.59,-109.63 1262.95,-93.88 1291.23,-83.1"/>
<polygon fill="#63b8ff" stroke="#63b8ff" points="1292.54,-86.35 1300.64,-79.52 1290.05,-79.81 1292.54,-86.35"/>
</a>
</g>
</g>
</g>
</svg>

<g id="navigator" transform="translate(0 0)" fill="#404254">
  <rect fill="#f2f5e9" fill-opacity="0.5" stroke="#606060" stroke-width=".5" x="0" y="0" width="60" height="60"/>
  <use id="zoomplus" xlink:href="#zoomPlus" x="17" y="9" onmousedown="handleZoom(evt,'in')"/>
  <use id="zoomminus" xlink:href="#zoomMin" x="42" y="9" onmousedown="handleZoom(evt,'out')"/>
  <use id="reset" xlink:href="#resetDef" x="30" y="36" onmousedown="handleReset()"/>
   <use id="arrowup" xlink:href="#arrowUp" x="0" y="0" onmousedown="handlePan(0,-1)"/>
  <use id="arrowright" xlink:href="#arrowRight" x="0" y="0" onmousedown="handlePan(1,0)"/>
  <use id="arrowdown" xlink:href="#arrowDown" x="0" y="0" onmousedown="handlePan(0,1)"/>
  <use id="arrowleft" xlink:href="#arrowLeft" x="0" y="0" onmousedown="handlePan(-1,0)"/>
</g>
<svg viewBox="0 0 15 15" width="100%" height="30px" preserveAspectRatio="xMaxYMin meet">
 <g id="arrow_out" transform="scale(0.3 0.3)">
  <a xlink:href="signaling__client_8h__incl_org.svg" target="_base">
   <rect id="button" ry="5" rx="5" y="6" x="6" height="38" width="38"
        fill="#f2f5e9" fill-opacity="0.5" stroke="#606060" stroke-width="1.0"/>
   <path id="arrow"
     d="M 11.500037,31.436501 C 11.940474,20.09759 22.043105,11.32322 32.158766,21.979434 L 37.068811,17.246167 C 37.068811,17.246167 37.088388,32 37.088388,32 L 22.160133,31.978069 C 22.160133,31.978069 26.997745,27.140456 26.997745,27.140456 C 18.528582,18.264221 13.291696,25.230495 11.500037,31.436501 z"
     style="fill:#404040;"/>
  </a>
 </g>
</svg>

<style type='text/css'>
<![CDATA[
[data-mouse-over-selected='false'] { opacity: 0.7; }
[data-mouse-over-selected='true']  { opacity: 1.0; }
]]>
</style>
<script type="application/ecmascript"><![CDATA[
document.addEventListener('DOMContentLoaded', (event) => {
  highlightEdges();
  highlightAdjacentNodes();
});
]]></script>
</svg>
