<?xml version="1.0" encoding="UTF-8" standalone="no"?>
<!DOCTYPE svg PUBLIC "-//W3C//DTD SVG 1.1//EN"
 "http://www.w3.org/Graphics/SVG/1.1/DTD/svg11.dtd">
<!-- Generated by graphviz version 2.43.0 (0)
 -->
<!-- Title: src/signaling/signaling_client.cpp Pages: 1 -->
<svg width="1611pt" height="511pt"
 viewBox="0.00 0.00 1610.50 511.00" xmlns="http://www.w3.org/2000/svg" xmlns:xlink="http://www.w3.org/1999/xlink">
<g id="graph0" class="graph" transform="scale(1 1) rotate(0) translate(4 507)">
<title>src/signaling/signaling_client.cpp</title>
<!-- Node1 -->
<g id="Node000001" class="node">
<title>Node1</title>
<g id="a_Node000001"><a xlink:title=" ">
<polygon fill="#999999" stroke="#666666" points="255,-503 130,-503 130,-473 255,-473 255,-503"/>
<text text-anchor="start" x="138" y="-491" font-family="Helvetica,sans-Serif" font-size="10.00">src/signaling/signaling</text>
<text text-anchor="middle" x="192.5" y="-480" font-family="Helvetica,sans-Serif" font-size="10.00">_client.cpp</text>
</a>
</g>
</g>
<!-- Node2 -->
<g id="Node000002" class="node">
<title>Node2</title>
<g id="a_Node000002"><a xlink:title=" ">
<polygon fill="#e0e0e0" stroke="#999999" points="108.5,-431.5 44.5,-431.5 44.5,-412.5 108.5,-412.5 108.5,-431.5"/>
<text text-anchor="middle" x="76.5" y="-419.5" font-family="Helvetica,sans-Serif" font-size="10.00">api/jsep.h</text>
</a>
</g>
</g>
<!-- Node1&#45;&gt;Node2 -->
<g id="edge1_Node000001_Node000002" class="edge">
<title>Node1&#45;&gt;Node2</title>
<g id="a_edge1_Node000001_Node000002"><a xlink:title=" ">
<path fill="none" stroke="#63b8ff" d="M167.04,-472.95C147.33,-462.08 120.19,-447.11 100.78,-436.4"/>
<polygon fill="#63b8ff" stroke="#63b8ff" points="102.38,-433.28 91.94,-431.52 99,-439.41 102.38,-433.28"/>
</a>
</g>
</g>
<!-- Node3 -->
<g id="Node000003" class="node">
<title>Node3</title>
<g id="a_Node000003"><a xlink:title=" ">
<polygon fill="#e0e0e0" stroke="#999999" points="196,-431.5 127,-431.5 127,-412.5 196,-412.5 196,-431.5"/>
<text text-anchor="middle" x="161.5" y="-419.5" font-family="Helvetica,sans-Serif" font-size="10.00">json/json.h</text>
</a>
</g>
</g>
<!-- Node1&#45;&gt;Node3 -->
<g id="edge2_Node000001_Node000003" class="edge">
<title>Node1&#45;&gt;Node3</title>
<g id="a_edge2_Node000001_Node000003"><a xlink:title=" ">
<path fill="none" stroke="#63b8ff" d="M185.62,-472.8C181.07,-463.41 175.07,-451.02 170.19,-440.95"/>
<polygon fill="#63b8ff" stroke="#63b8ff" points="173.29,-439.32 165.78,-431.84 166.99,-442.37 173.29,-439.32"/>
</a>
</g>
</g>
<!-- Node4 -->
<g id="Node000004" class="node">
<title>Node4</title>
<g id="a_Node000004"><a xlink:href="log_8h.html" target="_top" xlink:title=" ">
<polygon fill="white" stroke="#666666" points="257,-217 144,-217 144,-198 257,-198 257,-217"/>
<text text-anchor="middle" x="200.5" y="-205" font-family="Helvetica,sans-Serif" font-size="10.00">mosaic/logger/log.h</text>
</a>
</g>
</g>
<!-- Node1&#45;&gt;Node4 -->
<g id="edge3_Node000001_Node000004" class="edge">
<title>Node1&#45;&gt;Node4</title>
<g id="a_edge3_Node000001_Node000004"><a xlink:title=" ">
<path fill="none" stroke="#63b8ff" d="M196.88,-472.72C199.68,-462.81 203.05,-449.23 204.5,-437 213.65,-359.71 206.43,-266.69 202.55,-227.44"/>
<polygon fill="#63b8ff" stroke="#63b8ff" points="206.01,-226.85 201.5,-217.26 199.05,-227.57 206.01,-226.85"/>
</a>
</g>
</g>
<!-- Node12 -->
<g id="Node000012" class="node">
<title>Node12</title>
<g id="a_Node000012"><a xlink:href="signaling__client_8h.html" target="_top" xlink:title=" ">
<polygon fill="white" stroke="#666666" points="901.5,-437 755.5,-437 755.5,-407 901.5,-407 901.5,-437"/>
<text text-anchor="start" x="763.5" y="-425" font-family="Helvetica,sans-Serif" font-size="10.00">mosaic/signaling/signaling</text>
<text text-anchor="middle" x="828.5" y="-414" font-family="Helvetica,sans-Serif" font-size="10.00">_client.h</text>
</a>
</g>
</g>
<!-- Node1&#45;&gt;Node12 -->
<g id="edge13_Node000001_Node000012" class="edge">
<title>Node1&#45;&gt;Node12</title>
<g id="a_edge13_Node000001_Node000012"><a xlink:title=" ">
<path fill="none" stroke="#63b8ff" d="M255.22,-480.69C370.48,-469.09 615.97,-444.39 745.11,-431.39"/>
<polygon fill="#63b8ff" stroke="#63b8ff" points="745.74,-434.85 755.34,-430.36 745.04,-427.88 745.74,-434.85"/>
</a>
</g>
</g>
<!-- Node5 -->
<g id="Node000005" class="node">
<title>Node5</title>
<g id="a_Node000005"><a xlink:href="i__logger_8h.html" target="_top" xlink:title=" ">
<polygon fill="white" stroke="#666666" points="222.5,-145.5 158.5,-145.5 158.5,-126.5 222.5,-126.5 222.5,-145.5"/>
<text text-anchor="middle" x="190.5" y="-133.5" font-family="Helvetica,sans-Serif" font-size="10.00">i_logger.h</text>
</a>
</g>
</g>
<!-- Node4&#45;&gt;Node5 -->
<g id="edge4_Node000004_Node000005" class="edge">
<title>Node4&#45;&gt;Node5</title>
<g id="a_edge4_Node000004_Node000005"><a xlink:title=" ">
<path fill="none" stroke="#63b8ff" d="M199.27,-197.98C197.77,-187.56 195.19,-169.61 193.22,-155.88"/>
<polygon fill="#63b8ff" stroke="#63b8ff" points="196.62,-154.99 191.74,-145.59 189.7,-155.99 196.62,-154.99"/>
</a>
</g>
</g>
<!-- Node9 -->
<g id="Node000009" class="node">
<title>Node9</title>
<g id="a_Node000009"><a xlink:href="log__service_8h.html" target="_top" xlink:title=" ">
<polygon fill="white" stroke="#666666" points="94,-79.5 13,-79.5 13,-60.5 94,-60.5 94,-79.5"/>
<text text-anchor="middle" x="53.5" y="-67.5" font-family="Helvetica,sans-Serif" font-size="10.00">log_service.h</text>
</a>
</g>
</g>
<!-- Node4&#45;&gt;Node9 -->
<g id="edge12_Node000004_Node000009" class="edge">
<title>Node4&#45;&gt;Node9</title>
<g id="a_edge12_Node000004_Node000009"><a xlink:title=" ">
<path fill="none" stroke="#63b8ff" d="M190.85,-197.61C166.35,-175.02 101.43,-115.18 70.43,-86.61"/>
<polygon fill="#63b8ff" stroke="#63b8ff" points="72.71,-83.95 62.99,-79.75 67.97,-89.1 72.71,-83.95"/>
</a>
</g>
</g>
<!-- Node6 -->
<g id="Node000006" class="node">
<title>Node6</title>
<g id="a_Node000006"><a xlink:title=" ">
<polygon fill="#e0e0e0" stroke="#999999" points="496.5,-19 452.5,-19 452.5,0 496.5,0 496.5,-19"/>
<text text-anchor="middle" x="474.5" y="-7" font-family="Helvetica,sans-Serif" font-size="10.00">string</text>
</a>
</g>
</g>
<!-- Node5&#45;&gt;Node6 -->
<g id="edge5_Node000005_Node000006" class="edge">
<title>Node5&#45;&gt;Node6</title>
<g id="a_edge5_Node000005_Node000006"><a xlink:title=" ">
<path fill="none" stroke="#63b8ff" d="M197.64,-126.48C211.95,-109.98 245.92,-73.66 282.5,-55 334.57,-28.44 402.65,-17.51 442.18,-13.18"/>
<polygon fill="#63b8ff" stroke="#63b8ff" points="442.71,-16.64 452.3,-12.15 442,-9.68 442.71,-16.64"/>
</a>
</g>
</g>
<!-- Node7 -->
<g id="Node000007" class="node">
<title>Node7</title>
<g id="a_Node000007"><a xlink:title=" ">
<polygon fill="#e0e0e0" stroke="#999999" points="230,-79.5 151,-79.5 151,-60.5 230,-60.5 230,-79.5"/>
<text text-anchor="middle" x="190.5" y="-67.5" font-family="Helvetica,sans-Serif" font-size="10.00">fmt/format.h</text>
</a>
</g>
</g>
<!-- Node5&#45;&gt;Node7 -->
<g id="edge6_Node000005_Node000007" class="edge">
<title>Node5&#45;&gt;Node7</title>
<g id="a_edge6_Node000005_Node000007"><a xlink:title=" ">
<path fill="none" stroke="#63b8ff" d="M190.5,-126.37C190.5,-117.16 190.5,-102.29 190.5,-90.27"/>
<polygon fill="#63b8ff" stroke="#63b8ff" points="194,-89.91 190.5,-79.91 187,-89.91 194,-89.91"/>
</a>
</g>
</g>
<!-- Node8 -->
<g id="Node000008" class="node">
<title>Node8</title>
<g id="a_Node000008"><a xlink:href="log__level_8h.html" target="_top" xlink:title=" ">
<polygon fill="white" stroke="#666666" points="157.5,-19 87.5,-19 87.5,0 157.5,0 157.5,-19"/>
<text text-anchor="middle" x="122.5" y="-7" font-family="Helvetica,sans-Serif" font-size="10.00">log_level.h</text>
</a>
</g>
</g>
<!-- Node5&#45;&gt;Node8 -->
<g id="edge7_Node000005_Node000008" class="edge">
<title>Node5&#45;&gt;Node8</title>
<g id="a_edge7_Node000005_Node000008"><a xlink:title=" ">
<path fill="none" stroke="#63b8ff" d="M179.02,-126.33C167.79,-117.24 151.04,-101.95 141.5,-85 131.7,-67.59 126.87,-45.07 124.54,-29.37"/>
<polygon fill="#63b8ff" stroke="#63b8ff" points="127.99,-28.79 123.25,-19.31 121.05,-29.67 127.99,-28.79"/>
</a>
</g>
</g>
<!-- Node5&#45;&gt;Node9 -->
<g id="edge8_Node000005_Node000009" class="edge">
<title>Node5&#45;&gt;Node9</title>
<g id="a_edge8_Node000005_Node000009"><a xlink:title=" ">
<path fill="none" stroke="#63b8ff" d="M172.02,-126.37C148.74,-115.49 108.49,-96.69 81.44,-84.05"/>
<polygon fill="#63b8ff" stroke="#63b8ff" points="82.66,-80.76 72.12,-79.7 79.7,-87.1 82.66,-80.76"/>
</a>
</g>
</g>
<!-- Node9&#45;&gt;Node8 -->
<g id="edge11_Node000009_Node000008" class="edge">
<title>Node9&#45;&gt;Node8</title>
<g id="a_edge11_Node000009_Node000008"><a xlink:title=" ">
<path fill="none" stroke="#63b8ff" d="M63.68,-60.37C74.38,-51.3 91.44,-36.84 104.43,-25.82"/>
<polygon fill="#63b8ff" stroke="#63b8ff" points="106.91,-28.3 112.28,-19.17 102.39,-22.96 106.91,-28.3"/>
</a>
</g>
</g>
<!-- Node10 -->
<g id="Node000010" class="node">
<title>Node10</title>
<g id="a_Node000010"><a xlink:title=" ">
<polygon fill="#e0e0e0" stroke="#999999" points="890.5,-19 832.5,-19 832.5,0 890.5,0 890.5,-19"/>
<text text-anchor="middle" x="861.5" y="-7" font-family="Helvetica,sans-Serif" font-size="10.00">memory</text>
</a>
</g>
</g>
<!-- Node9&#45;&gt;Node10 -->
<g id="edge9_Node000009_Node000010" class="edge">
<title>Node9&#45;&gt;Node10</title>
<g id="a_edge9_Node000009_Node000010"><a xlink:title=" ">
<path fill="none" stroke="#63b8ff" d="M94.14,-61.7C109,-59.25 125.97,-56.71 141.5,-55 400.22,-26.49 713.4,-14.94 822.1,-11.61"/>
<polygon fill="#63b8ff" stroke="#63b8ff" points="822.38,-15.1 832.27,-11.3 822.16,-8.1 822.38,-15.1"/>
</a>
</g>
</g>
<!-- Node11 -->
<g id="Node000011" class="node">
<title>Node11</title>
<g id="a_Node000011"><a xlink:title=" ">
<polygon fill="#e0e0e0" stroke="#999999" points="69,-19 0,-19 0,0 69,0 69,-19"/>
<text text-anchor="middle" x="34.5" y="-7" font-family="Helvetica,sans-Serif" font-size="10.00">type_traits</text>
</a>
</g>
</g>
<!-- Node9&#45;&gt;Node11 -->
<g id="edge10_Node000009_Node000011" class="edge">
<title>Node9&#45;&gt;Node11</title>
<g id="a_edge10_Node000009_Node000011"><a xlink:title=" ">
<path fill="none" stroke="#63b8ff" d="M50.7,-60.37C48,-52.07 43.85,-39.28 40.42,-28.72"/>
<polygon fill="#63b8ff" stroke="#63b8ff" points="43.73,-27.6 37.32,-19.17 37.08,-29.76 43.73,-27.6"/>
</a>
</g>
</g>
<!-- Node12&#45;&gt;Node6 -->
<g id="edge15_Node000012_Node000006" class="edge">
<title>Node12&#45;&gt;Node6</title>
<g id="a_edge15_Node000012_Node000006"><a xlink:title=" ">
<path fill="none" stroke="#63b8ff" d="M755.36,-417.6C609.54,-408.82 296.5,-379.08 296.5,-285.5 296.5,-285.5 296.5,-285.5 296.5,-135 296.5,-64.61 391.11,-30.68 442.38,-17.46"/>
<polygon fill="#63b8ff" stroke="#63b8ff" points="443.44,-20.81 452.32,-15.02 441.77,-14.01 443.44,-20.81"/>
</a>
</g>
</g>
<!-- Node12&#45;&gt;Node10 -->
<g id="edge14_Node000012_Node000010" class="edge">
<title>Node12&#45;&gt;Node10</title>
<g id="a_edge14_Node000012_Node000010"><a xlink:title=" ">
<path fill="none" stroke="#63b8ff" d="M901.6,-409.5C1009.43,-390.44 1198.5,-348.09 1198.5,-285.5 1198.5,-285.5 1198.5,-285.5 1198.5,-135 1198.5,-98.46 1206.57,-79.56 1179.5,-55 1135.81,-15.36 974.87,-27.51 916.5,-19 911.37,-18.25 905.98,-17.45 900.66,-16.64"/>
<polygon fill="#63b8ff" stroke="#63b8ff" points="901.02,-13.15 890.6,-15.09 899.95,-20.07 901.02,-13.15"/>
</a>
</g>
</g>
<!-- Node13 -->
<g id="Node000013" class="node">
<title>Node13</title>
<g id="a_Node000013"><a xlink:href="mosaic__connector_8h.html" target="_top" xlink:title=" ">
<polygon fill="white" stroke="#666666" points="769.5,-371 655.5,-371 655.5,-341 769.5,-341 769.5,-371"/>
<text text-anchor="start" x="663.5" y="-359" font-family="Helvetica,sans-Serif" font-size="10.00">mosaic/core/mosaic</text>
<text text-anchor="middle" x="712.5" y="-348" font-family="Helvetica,sans-Serif" font-size="10.00">_connector.h</text>
</a>
</g>
</g>
<!-- Node12&#45;&gt;Node13 -->
<g id="edge16_Node000012_Node000013" class="edge">
<title>Node12&#45;&gt;Node13</title>
<g id="a_edge16_Node000012_Node000013"><a xlink:title=" ">
<path fill="none" stroke="#63b8ff" d="M803.04,-406.95C786.57,-397.87 764.93,-385.93 746.93,-376"/>
<polygon fill="#63b8ff" stroke="#63b8ff" points="748.34,-372.78 737.9,-371.01 744.96,-378.91 748.34,-372.78"/>
</a>
</g>
</g>
<!-- Node17 -->
<g id="Node000017" class="node">
<title>Node17</title>
<g id="a_Node000017"><a xlink:href="i__signaling__client_8h.html" target="_top" xlink:title=" ">
<polygon fill="white" stroke="#666666" points="994,-222.5 887,-222.5 887,-192.5 994,-192.5 994,-222.5"/>
<text text-anchor="start" x="895" y="-210.5" font-family="Helvetica,sans-Serif" font-size="10.00">mosaic/signaling/i</text>
<text text-anchor="middle" x="940.5" y="-199.5" font-family="Helvetica,sans-Serif" font-size="10.00">_signaling_client.h</text>
</a>
</g>
</g>
<!-- Node12&#45;&gt;Node17 -->
<g id="edge50_Node000012_Node000017" class="edge">
<title>Node12&#45;&gt;Node17</title>
<g id="a_edge50_Node000012_Node000017"><a xlink:title=" ">
<path fill="none" stroke="#63b8ff" d="M836.02,-406.73C854.99,-370.74 904.92,-276.01 928.21,-231.82"/>
<polygon fill="#63b8ff" stroke="#63b8ff" points="931.44,-233.19 933.01,-222.71 925.25,-229.93 931.44,-233.19"/>
</a>
</g>
</g>
<!-- Node29 -->
<g id="Node000029" class="node">
<title>Node29</title>
<g id="a_Node000029"><a xlink:href="websocket__client_8h.html" target="_top" xlink:title=" ">
<polygon fill="white" stroke="#666666" points="1449.5,-151 1295.5,-151 1295.5,-121 1449.5,-121 1449.5,-151"/>
<text text-anchor="start" x="1303.5" y="-139" font-family="Helvetica,sans-Serif" font-size="10.00">mosaic/signaling/websocket</text>
<text text-anchor="middle" x="1372.5" y="-128" font-family="Helvetica,sans-Serif" font-size="10.00">_client.h</text>
</a>
</g>
</g>
<!-- Node12&#45;&gt;Node29 -->
<g id="edge51_Node000012_Node000029" class="edge">
<title>Node12&#45;&gt;Node29</title>
<g id="a_edge51_Node000012_Node000029"><a xlink:title=" ">
<path fill="none" stroke="#63b8ff" d="M901.56,-418.52C998.09,-414.07 1161.86,-402.07 1212.5,-371 1295.13,-320.31 1345.33,-209.08 1364.09,-160.49"/>
<polygon fill="#63b8ff" stroke="#63b8ff" points="1367.37,-161.71 1367.61,-151.12 1360.82,-159.24 1367.37,-161.71"/>
</a>
</g>
</g>
<!-- Node13&#45;&gt;Node6 -->
<g id="edge19_Node000013_Node000006" class="edge">
<title>Node13&#45;&gt;Node6</title>
<g id="a_edge19_Node000013_Node000006"><a xlink:title=" ">
<path fill="none" stroke="#63b8ff" d="M655.44,-353.77C568.96,-350.77 410.23,-340.46 367.5,-305 332.62,-276.06 334.5,-253.83 334.5,-208.5 334.5,-208.5 334.5,-208.5 334.5,-135 334.5,-77.34 401.64,-39.83 442.93,-22.22"/>
<polygon fill="#63b8ff" stroke="#63b8ff" points="444.4,-25.4 452.32,-18.37 441.74,-18.93 444.4,-25.4"/>
</a>
</g>
</g>
<!-- Node13&#45;&gt;Node10 -->
<g id="edge18_Node000013_Node000010" class="edge">
<title>Node13&#45;&gt;Node10</title>
<g id="a_edge18_Node000013_Node000010"><a xlink:title=" ">
<path fill="none" stroke="#63b8ff" d="M769.63,-345.42C793.78,-338.36 819.88,-326.13 835.5,-305 867.89,-261.17 864.43,-87.39 862.31,-29.43"/>
<polygon fill="#63b8ff" stroke="#63b8ff" points="865.8,-29.03 861.91,-19.18 858.81,-29.31 865.8,-29.03"/>
</a>
</g>
</g>
<!-- Node14 -->
<g id="Node000014" class="node">
<title>Node14</title>
<g id="a_Node000014"><a xlink:title=" ">
<polygon fill="#e0e0e0" stroke="#999999" points="681.5,-294 643.5,-294 643.5,-275 681.5,-275 681.5,-294"/>
<text text-anchor="middle" x="662.5" y="-282" font-family="Helvetica,sans-Serif" font-size="10.00">map</text>
</a>
</g>
</g>
<!-- Node13&#45;&gt;Node14 -->
<g id="edge17_Node000013_Node000014" class="edge">
<title>Node13&#45;&gt;Node14</title>
<g id="a_edge17_Node000013_Node000014"><a xlink:title=" ">
<path fill="none" stroke="#63b8ff" d="M702.38,-340.94C694.38,-329.81 683.17,-314.24 674.68,-302.43"/>
<polygon fill="#63b8ff" stroke="#63b8ff" points="677.49,-300.34 668.81,-294.27 671.81,-304.43 677.49,-300.34"/>
</a>
</g>
</g>
<!-- Node15 -->
<g id="Node000015" class="node">
<title>Node15</title>
<g id="a_Node000015"><a xlink:href="connector__state__manager_8h.html" target="_top" xlink:title=" ">
<polygon fill="white" stroke="#666666" points="827,-299.5 700,-299.5 700,-269.5 827,-269.5 827,-299.5"/>
<text text-anchor="start" x="708" y="-287.5" font-family="Helvetica,sans-Serif" font-size="10.00">mosaic/core/connector</text>
<text text-anchor="middle" x="763.5" y="-276.5" font-family="Helvetica,sans-Serif" font-size="10.00">_state_manager.h</text>
</a>
</g>
</g>
<!-- Node13&#45;&gt;Node15 -->
<g id="edge20_Node000013_Node000015" class="edge">
<title>Node13&#45;&gt;Node15</title>
<g id="a_edge20_Node000013_Node000015"><a xlink:title=" ">
<path fill="none" stroke="#63b8ff" d="M722.82,-340.94C729.8,-331.42 739.17,-318.65 747.16,-307.77"/>
<polygon fill="#63b8ff" stroke="#63b8ff" points="750.1,-309.68 753.19,-299.54 744.46,-305.54 750.1,-309.68"/>
</a>
</g>
</g>
<!-- Node19 -->
<g id="Node000019" class="node">
<title>Node19</title>
<g id="a_Node000019"><a xlink:title=" ">
<polygon fill="#e0e0e0" stroke="#999999" points="648.5,-151 502.5,-151 502.5,-121 648.5,-121 648.5,-151"/>
<text text-anchor="start" x="510.5" y="-139" font-family="Helvetica,sans-Serif" font-size="10.00">mosaic/rtc/webrtc_forward</text>
<text text-anchor="middle" x="575.5" y="-128" font-family="Helvetica,sans-Serif" font-size="10.00">_decl.h</text>
</a>
</g>
</g>
<!-- Node13&#45;&gt;Node19 -->
<g id="edge49_Node000013_Node000019" class="edge">
<title>Node13&#45;&gt;Node19</title>
<g id="a_edge49_Node000013_Node000019"><a xlink:title=" ">
<path fill="none" stroke="#63b8ff" d="M680.77,-340.89C664.96,-332.47 646.67,-320.39 634.5,-305 600.06,-261.46 584.91,-196.35 578.93,-161.34"/>
<polygon fill="#63b8ff" stroke="#63b8ff" points="582.33,-160.43 577.3,-151.1 575.41,-161.53 582.33,-160.43"/>
</a>
</g>
</g>
<!-- Node25 -->
<g id="Node000025" class="node">
<title>Node25</title>
<g id="a_Node000025"><a xlink:href="peer__connection__manager_8h.html" target="_top" xlink:title=" ">
<polygon fill="white" stroke="#666666" points="1081,-299.5 922,-299.5 922,-269.5 1081,-269.5 1081,-299.5"/>
<text text-anchor="start" x="930" y="-287.5" font-family="Helvetica,sans-Serif" font-size="10.00">mosaic/core/peer_connection</text>
<text text-anchor="middle" x="1001.5" y="-276.5" font-family="Helvetica,sans-Serif" font-size="10.00">_manager.h</text>
</a>
</g>
</g>
<!-- Node13&#45;&gt;Node25 -->
<g id="edge36_Node000013_Node000025" class="edge">
<title>Node13&#45;&gt;Node25</title>
<g id="a_edge36_Node000013_Node000025"><a xlink:title=" ">
<path fill="none" stroke="#63b8ff" d="M765.43,-340.94C810.94,-329.63 876.95,-313.74 927.63,-301.86"/>
<polygon fill="#63b8ff" stroke="#63b8ff" points="928.62,-305.23 937.56,-299.54 927.02,-298.41 928.62,-305.23"/>
</a>
</g>
</g>
<!-- Node26 -->
<g id="Node000026" class="node">
<title>Node26</title>
<g id="a_Node000026"><a xlink:href="i__data__channel__handler_8h.html" target="_top" xlink:title=" ">
<polygon fill="white" stroke="#666666" points="514,-305 377,-305 377,-264 514,-264 514,-305"/>
<text text-anchor="start" x="385" y="-293" font-family="Helvetica,sans-Serif" font-size="10.00">mosaic/handlers/data</text>
<text text-anchor="start" x="385" y="-282" font-family="Helvetica,sans-Serif" font-size="10.00">_channel/i_data_channel</text>
<text text-anchor="middle" x="445.5" y="-271" font-family="Helvetica,sans-Serif" font-size="10.00">_handler.h</text>
</a>
</g>
</g>
<!-- Node13&#45;&gt;Node26 -->
<g id="edge41_Node000013_Node000026" class="edge">
<title>Node13&#45;&gt;Node26</title>
<g id="a_edge41_Node000013_Node000026"><a xlink:title=" ">
<path fill="none" stroke="#63b8ff" d="M658.47,-340.94C619.88,-330.89 567.35,-317.22 524.12,-305.97"/>
<polygon fill="#63b8ff" stroke="#63b8ff" points="524.76,-302.51 514.2,-303.38 523,-309.29 524.76,-302.51"/>
</a>
</g>
</g>
<!-- Node27 -->
<g id="Node000027" class="node">
<title>Node27</title>
<g id="a_Node000027"><a xlink:href="i__media__track__handler_8h.html" target="_top" xlink:title=" ">
<polygon fill="white" stroke="#666666" points="541,-228 410,-228 410,-187 541,-187 541,-228"/>
<text text-anchor="start" x="418" y="-216" font-family="Helvetica,sans-Serif" font-size="10.00">mosaic/handlers/media</text>
<text text-anchor="start" x="418" y="-205" font-family="Helvetica,sans-Serif" font-size="10.00">_track/i_media_track</text>
<text text-anchor="middle" x="475.5" y="-194" font-family="Helvetica,sans-Serif" font-size="10.00">_handler.h</text>
</a>
</g>
</g>
<!-- Node13&#45;&gt;Node27 -->
<g id="edge45_Node000013_Node000027" class="edge">
<title>Node13&#45;&gt;Node27</title>
<g id="a_edge45_Node000013_Node000027"><a xlink:title=" ">
<path fill="none" stroke="#63b8ff" d="M672.83,-340.93C649.8,-332.03 620.67,-319.49 596.5,-305 562.54,-284.64 527.59,-255.75 504.04,-234.89"/>
<polygon fill="#63b8ff" stroke="#63b8ff" points="506.29,-232.21 496.51,-228.15 501.62,-237.43 506.29,-232.21"/>
</a>
</g>
</g>
<!-- Node15&#45;&gt;Node6 -->
<g id="edge23_Node000015_Node000006" class="edge">
<title>Node15&#45;&gt;Node6</title>
<g id="a_edge23_Node000015_Node000006"><a xlink:title=" ">
<path fill="none" stroke="#63b8ff" d="M750.99,-269.39C741.56,-258.46 728.58,-242.75 718.5,-228 687.6,-182.81 695.72,-160.19 657.5,-121 612.47,-74.83 544.25,-40.42 505.07,-23.09"/>
<polygon fill="#63b8ff" stroke="#63b8ff" points="506.34,-19.82 495.77,-19.05 503.55,-26.24 506.34,-19.82"/>
</a>
</g>
</g>
<!-- Node15&#45;&gt;Node10 -->
<g id="edge21_Node000015_Node000010" class="edge">
<title>Node15&#45;&gt;Node10</title>
<g id="a_edge21_Node000015_Node000010"><a xlink:title=" ">
<path fill="none" stroke="#63b8ff" d="M753.22,-269.25C746.13,-258.51 737.31,-243.08 733.5,-228 714.64,-153.46 688.94,-117.66 733.5,-55 753.5,-26.87 792.61,-16.37 822.36,-12.53"/>
<polygon fill="#63b8ff" stroke="#63b8ff" points="822.89,-15.99 832.45,-11.43 822.13,-9.03 822.89,-15.99"/>
</a>
</g>
</g>
<!-- Node16 -->
<g id="Node000016" class="node">
<title>Node16</title>
<g id="a_Node000016"><a xlink:title=" ">
<polygon fill="#e0e0e0" stroke="#999999" points="828.5,-217 742.5,-217 742.5,-198 828.5,-198 828.5,-217"/>
<text text-anchor="middle" x="785.5" y="-205" font-family="Helvetica,sans-Serif" font-size="10.00">shared_mutex</text>
</a>
</g>
</g>
<!-- Node15&#45;&gt;Node16 -->
<g id="edge22_Node000015_Node000016" class="edge">
<title>Node15&#45;&gt;Node16</title>
<g id="a_edge22_Node000015_Node000016"><a xlink:title=" ">
<path fill="none" stroke="#63b8ff" d="M767.64,-269.39C771.14,-257.46 776.18,-240.26 780.02,-227.18"/>
<polygon fill="#63b8ff" stroke="#63b8ff" points="783.44,-227.96 782.9,-217.37 776.72,-225.99 783.44,-227.96"/>
</a>
</g>
</g>
<!-- Node15&#45;&gt;Node17 -->
<g id="edge24_Node000015_Node000017" class="edge">
<title>Node15&#45;&gt;Node17</title>
<g id="a_edge24_Node000015_Node000017"><a xlink:title=" ">
<path fill="none" stroke="#63b8ff" d="M796.79,-269.39C825.47,-257.24 867.03,-239.63 898.08,-226.47"/>
<polygon fill="#63b8ff" stroke="#63b8ff" points="899.51,-229.67 907.36,-222.54 896.78,-223.22 899.51,-229.67"/>
</a>
</g>
</g>
<!-- Node18 -->
<g id="Node000018" class="node">
<title>Node18</title>
<g id="a_Node000018"><a xlink:title=" ">
<polygon fill="#e0e0e0" stroke="#999999" points="1170.5,-85 1052.5,-85 1052.5,-55 1170.5,-55 1170.5,-85"/>
<text text-anchor="start" x="1060.5" y="-73" font-family="Helvetica,sans-Serif" font-size="10.00">mosaic/json_forward</text>
<text text-anchor="middle" x="1111.5" y="-62" font-family="Helvetica,sans-Serif" font-size="10.00">_decl.h</text>
</a>
</g>
</g>
<!-- Node17&#45;&gt;Node18 -->
<g id="edge25_Node000017_Node000018" class="edge">
<title>Node17&#45;&gt;Node18</title>
<g id="a_edge25_Node000017_Node000018"><a xlink:title=" ">
<path fill="none" stroke="#63b8ff" d="M962.69,-192.38C979.27,-181.57 1002.3,-166.02 1021.5,-151 1045.49,-132.24 1071.32,-108.92 1089.13,-92.31"/>
<polygon fill="#63b8ff" stroke="#63b8ff" points="1091.82,-94.59 1096.71,-85.19 1087.03,-89.48 1091.82,-94.59"/>
</a>
</g>
</g>
<!-- Node17&#45;&gt;Node19 -->
<g id="edge26_Node000017_Node000019" class="edge">
<title>Node17&#45;&gt;Node19</title>
<g id="a_edge26_Node000017_Node000019"><a xlink:title=" ">
<path fill="none" stroke="#63b8ff" d="M886.64,-196.25C826.63,-184.82 728.87,-166.2 658.94,-152.89"/>
<polygon fill="#63b8ff" stroke="#63b8ff" points="659.31,-149.4 648.83,-150.96 658,-156.27 659.31,-149.4"/>
</a>
</g>
</g>
<!-- Node20 -->
<g id="Node000020" class="node">
<title>Node20</title>
<g id="a_Node000020"><a xlink:href="i__mosaic__authenticator_8h.html" target="_top" xlink:title=" ">
<polygon fill="white" stroke="#666666" points="1012.5,-151 872.5,-151 872.5,-121 1012.5,-121 1012.5,-151"/>
<text text-anchor="start" x="880.5" y="-139" font-family="Helvetica,sans-Serif" font-size="10.00">mosaic/security/i_mosaic</text>
<text text-anchor="middle" x="942.5" y="-128" font-family="Helvetica,sans-Serif" font-size="10.00">_authenticator.h</text>
</a>
</g>
</g>
<!-- Node17&#45;&gt;Node20 -->
<g id="edge27_Node000017_Node000020" class="edge">
<title>Node17&#45;&gt;Node20</title>
<g id="a_edge27_Node000017_Node000020"><a xlink:title=" ">
<path fill="none" stroke="#63b8ff" d="M940.9,-192.44C941.16,-183.49 941.5,-171.66 941.8,-161.23"/>
<polygon fill="#63b8ff" stroke="#63b8ff" points="945.31,-161.14 942.1,-151.04 938.31,-160.94 945.31,-161.14"/>
</a>
</g>
</g>
<!-- Node20&#45;&gt;Node10 -->
<g id="edge28_Node000020_Node000010" class="edge">
<title>Node20&#45;&gt;Node10</title>
<g id="a_edge28_Node000020_Node000010"><a xlink:title=" ">
<path fill="none" stroke="#63b8ff" d="M929.52,-120.7C921.03,-111.01 909.99,-97.69 901.5,-85 889.16,-66.56 877.45,-43.93 869.93,-28.48"/>
<polygon fill="#63b8ff" stroke="#63b8ff" points="872.9,-26.59 865.43,-19.07 866.58,-29.61 872.9,-26.59"/>
</a>
</g>
</g>
<!-- Node20&#45;&gt;Node18 -->
<g id="edge35_Node000020_Node000018" class="edge">
<title>Node20&#45;&gt;Node18</title>
<g id="a_edge35_Node000020_Node000018"><a xlink:title=" ">
<path fill="none" stroke="#63b8ff" d="M979.59,-120.95C1004.68,-111.45 1038.03,-98.82 1064.91,-88.64"/>
<polygon fill="#63b8ff" stroke="#63b8ff" points="1066.39,-91.83 1074.5,-85.01 1063.91,-85.28 1066.39,-91.83"/>
</a>
</g>
</g>
<!-- Node21 -->
<g id="Node000021" class="node">
<title>Node21</title>
<g id="a_Node000021"><a xlink:href="auth__type_8h.html" target="_top" xlink:title=" ">
<polygon fill="white" stroke="#666666" points="816.5,-79.5 742.5,-79.5 742.5,-60.5 816.5,-60.5 816.5,-79.5"/>
<text text-anchor="middle" x="779.5" y="-67.5" font-family="Helvetica,sans-Serif" font-size="10.00">auth_type.h</text>
</a>
</g>
</g>
<!-- Node20&#45;&gt;Node21 -->
<g id="edge29_Node000020_Node000021" class="edge">
<title>Node20&#45;&gt;Node21</title>
<g id="a_edge29_Node000020_Node000021"><a xlink:title=" ">
<path fill="none" stroke="#63b8ff" d="M906.73,-120.95C878.02,-109.68 838.11,-94.01 810.69,-83.25"/>
<polygon fill="#63b8ff" stroke="#63b8ff" points="811.78,-79.91 801.19,-79.52 809.22,-86.43 811.78,-79.91"/>
</a>
</g>
</g>
<!-- Node22 -->
<g id="Node000022" class="node">
<title>Node22</title>
<g id="a_Node000022"><a xlink:href="configs__decl_8h.html" target="_top" xlink:title=" ">
<polygon fill="white" stroke="#666666" points="1034.5,-79.5 910.5,-79.5 910.5,-60.5 1034.5,-60.5 1034.5,-79.5"/>
<text text-anchor="middle" x="972.5" y="-67.5" font-family="Helvetica,sans-Serif" font-size="10.00">mosaic/configs_decl.h</text>
</a>
</g>
</g>
<!-- Node20&#45;&gt;Node22 -->
<g id="edge31_Node000020_Node000022" class="edge">
<title>Node20&#45;&gt;Node22</title>
<g id="a_edge31_Node000020_Node000022"><a xlink:title=" ">
<path fill="none" stroke="#63b8ff" d="M949.16,-120.8C953.56,-111.41 959.37,-99.02 964.09,-88.95"/>
<polygon fill="#63b8ff" stroke="#63b8ff" points="967.28,-90.38 968.35,-79.84 960.94,-87.41 967.28,-90.38"/>
</a>
</g>
</g>
<!-- Node21&#45;&gt;Node6 -->
<g id="edge30_Node000021_Node000006" class="edge">
<title>Node21&#45;&gt;Node6</title>
<g id="a_edge30_Node000021_Node000006"><a xlink:title=" ">
<path fill="none" stroke="#63b8ff" d="M742.41,-61.89C682.03,-50.3 563.52,-27.57 506.56,-16.65"/>
<polygon fill="#63b8ff" stroke="#63b8ff" points="507.15,-13.2 496.67,-14.75 505.83,-20.07 507.15,-13.2"/>
</a>
</g>
</g>
<!-- Node22&#45;&gt;Node6 -->
<g id="edge32_Node000022_Node000006" class="edge">
<title>Node22&#45;&gt;Node6</title>
<g id="a_edge32_Node000022_Node000006"><a xlink:title=" ">
<path fill="none" stroke="#63b8ff" d="M910.43,-61.71C803.63,-49.16 588.71,-23.92 507.02,-14.32"/>
<polygon fill="#63b8ff" stroke="#63b8ff" points="507.18,-10.81 496.84,-13.12 506.36,-17.77 507.18,-10.81"/>
</a>
</g>
</g>
<!-- Node23 -->
<g id="Node000023" class="node">
<title>Node23</title>
<g id="a_Node000023"><a xlink:title=" ">
<polygon fill="#e0e0e0" stroke="#999999" points="1019,-19 926,-19 926,0 1019,0 1019,-19"/>
<text text-anchor="middle" x="972.5" y="-7" font-family="Helvetica,sans-Serif" font-size="10.00">unordered_map</text>
</a>
</g>
</g>
<!-- Node22&#45;&gt;Node23 -->
<g id="edge33_Node000022_Node000023" class="edge">
<title>Node22&#45;&gt;Node23</title>
<g id="a_edge33_Node000022_Node000023"><a xlink:title=" ">
<path fill="none" stroke="#63b8ff" d="M972.5,-60.37C972.5,-52.25 972.5,-39.81 972.5,-29.39"/>
<polygon fill="#63b8ff" stroke="#63b8ff" points="976,-29.17 972.5,-19.17 969,-29.17 976,-29.17"/>
</a>
</g>
</g>
<!-- Node24 -->
<g id="Node000024" class="node">
<title>Node24</title>
<g id="a_Node000024"><a xlink:title=" ">
<polygon fill="#e0e0e0" stroke="#999999" points="1191,-19 1144,-19 1144,0 1191,0 1191,-19"/>
<text text-anchor="middle" x="1167.5" y="-7" font-family="Helvetica,sans-Serif" font-size="10.00">vector</text>
</a>
</g>
</g>
<!-- Node22&#45;&gt;Node24 -->
<g id="edge34_Node000022_Node000024" class="edge">
<title>Node22&#45;&gt;Node24</title>
<g id="a_edge34_Node000022_Node000024"><a xlink:title=" ">
<path fill="none" stroke="#63b8ff" d="M1000.85,-60.49C1036.1,-49.92 1096.17,-31.9 1133.75,-20.63"/>
<polygon fill="#63b8ff" stroke="#63b8ff" points="1135.14,-23.86 1143.71,-17.64 1133.13,-17.16 1135.14,-23.86"/>
</a>
</g>
</g>
<!-- Node25&#45;&gt;Node13 -->
<g id="edge39_Node000025_Node000013" class="edge">
<title>Node25&#45;&gt;Node13</title>
<g id="a_edge39_Node000025_Node000013"><a xlink:title=" ">
<path fill="none" stroke="#63b8ff" d="M948.51,-299.58C901.03,-311.37 831.26,-328.16 779.85,-340.16"/>
<polygon fill="#63b8ff" stroke="#63b8ff" points="778.78,-336.82 769.83,-342.49 780.36,-343.64 778.78,-336.82"/>
</a>
</g>
</g>
<!-- Node25&#45;&gt;Node17 -->
<g id="edge40_Node000025_Node000017" class="edge">
<title>Node25&#45;&gt;Node17</title>
<g id="a_edge40_Node000025_Node000017"><a xlink:title=" ">
<path fill="none" stroke="#63b8ff" d="M990.03,-269.39C981.08,-258.39 968.5,-242.92 958.25,-230.33"/>
<polygon fill="#63b8ff" stroke="#63b8ff" points="960.95,-228.09 951.92,-222.54 955.52,-232.51 960.95,-228.09"/>
</a>
</g>
</g>
<!-- Node25&#45;&gt;Node22 -->
<g id="edge38_Node000025_Node000022" class="edge">
<title>Node25&#45;&gt;Node22</title>
<g id="a_edge38_Node000025_Node000022"><a xlink:title=" ">
<path fill="none" stroke="#63b8ff" d="M1007.75,-269.4C1019.65,-240.43 1042.56,-172.58 1021.5,-121 1015.77,-106.97 1004,-94.75 993.43,-85.9"/>
<polygon fill="#63b8ff" stroke="#63b8ff" points="995.38,-82.98 985.35,-79.56 991.06,-88.48 995.38,-82.98"/>
</a>
</g>
</g>
<!-- Node25&#45;&gt;Node24 -->
<g id="edge37_Node000025_Node000024" class="edge">
<title>Node25&#45;&gt;Node24</title>
<g id="a_edge37_Node000025_Node000024"><a xlink:title=" ">
<path fill="none" stroke="#63b8ff" d="M1026.92,-269.32C1074.14,-241.33 1174.09,-173.87 1212.5,-85 1217.79,-72.76 1217.64,-67.3 1212.5,-55 1207.64,-43.36 1198.08,-33.2 1189.02,-25.55"/>
<polygon fill="#63b8ff" stroke="#63b8ff" points="1191.02,-22.67 1180.99,-19.25 1186.7,-28.17 1191.02,-22.67"/>
</a>
</g>
</g>
<!-- Node26&#45;&gt;Node4 -->
<g id="edge43_Node000026_Node000004" class="edge">
<title>Node26&#45;&gt;Node4</title>
<g id="a_edge43_Node000026_Node000004"><a xlink:title=" ">
<path fill="none" stroke="#63b8ff" d="M381.77,-263.99C336.22,-250.05 276.45,-231.75 238.25,-220.06"/>
<polygon fill="#63b8ff" stroke="#63b8ff" points="239.14,-216.67 228.55,-217.09 237.09,-223.36 239.14,-216.67"/>
</a>
</g>
</g>
<!-- Node26&#45;&gt;Node6 -->
<g id="edge42_Node000026_Node000006" class="edge">
<title>Node26&#45;&gt;Node6</title>
<g id="a_edge42_Node000026_Node000006"><a xlink:title=" ">
<path fill="none" stroke="#63b8ff" d="M424.86,-263.76C415.85,-253.9 406.09,-241.26 400.5,-228 381.97,-184.02 376.39,-166.27 391.5,-121 404.51,-82.02 437.26,-45.74 457.52,-25.99"/>
<polygon fill="#63b8ff" stroke="#63b8ff" points="460,-28.46 464.85,-19.04 455.18,-23.38 460,-28.46"/>
</a>
</g>
</g>
<!-- Node26&#45;&gt;Node19 -->
<g id="edge44_Node000026_Node000019" class="edge">
<title>Node26&#45;&gt;Node19</title>
<g id="a_edge44_Node000026_Node000019"><a xlink:title=" ">
<path fill="none" stroke="#63b8ff" d="M501.32,-263.87C518.89,-255.27 536.96,-243.52 549.5,-228 564.92,-208.91 571.2,-181.12 573.75,-161.28"/>
<polygon fill="#63b8ff" stroke="#63b8ff" points="577.25,-161.5 574.82,-151.19 570.29,-160.76 577.25,-161.5"/>
</a>
</g>
</g>
<!-- Node27&#45;&gt;Node6 -->
<g id="edge46_Node000027_Node000006" class="edge">
<title>Node27&#45;&gt;Node6</title>
<g id="a_edge46_Node000027_Node000006"><a xlink:title=" ">
<path fill="none" stroke="#63b8ff" d="M475.4,-186.99C475.21,-149.25 474.79,-66.67 474.6,-29.41"/>
<polygon fill="#63b8ff" stroke="#63b8ff" points="478.09,-29 474.54,-19.02 471.09,-29.03 478.09,-29"/>
</a>
</g>
</g>
<!-- Node27&#45;&gt;Node19 -->
<g id="edge48_Node000027_Node000019" class="edge">
<title>Node27&#45;&gt;Node19</title>
<g id="a_edge48_Node000027_Node000019"><a xlink:title=" ">
<path fill="none" stroke="#63b8ff" d="M503.62,-186.96C517.08,-177.6 533.17,-166.42 546.72,-157.01"/>
<polygon fill="#63b8ff" stroke="#63b8ff" points="548.98,-159.69 555.19,-151.11 544.98,-153.95 548.98,-159.69"/>
</a>
</g>
</g>
<!-- Node28 -->
<g id="Node000028" class="node">
<title>Node28</title>
<g id="a_Node000028"><a xlink:title=" ">
<polygon fill="#e0e0e0" stroke="#999999" points="446,-145.5 401,-145.5 401,-126.5 446,-126.5 446,-145.5"/>
<text text-anchor="middle" x="423.5" y="-133.5" font-family="Helvetica,sans-Serif" font-size="10.00">utility</text>
</a>
</g>
</g>
<!-- Node27&#45;&gt;Node28 -->
<g id="edge47_Node000027_Node000028" class="edge">
<title>Node27&#45;&gt;Node28</title>
<g id="a_edge47_Node000027_Node000028"><a xlink:title=" ">
<path fill="none" stroke="#63b8ff" d="M460.74,-186.77C453.01,-176.45 443.65,-163.93 436.25,-154.04"/>
<polygon fill="#63b8ff" stroke="#63b8ff" points="438.89,-151.73 430.1,-145.82 433.29,-155.92 438.89,-151.73"/>
</a>
</g>
</g>
<!-- Node29&#45;&gt;Node6 -->
<g id="edge55_Node000029_Node000006" class="edge">
<title>Node29&#45;&gt;Node6</title>
<g id="a_edge55_Node000029_Node000006"><a xlink:title=" ">
<path fill="none" stroke="#63b8ff" d="M1338.01,-120.98C1313.56,-111.01 1279.98,-97.27 1250.5,-85 1218.87,-71.84 1212.84,-62.86 1179.5,-55 1049,-24.25 627.13,-13.56 506.81,-11.1"/>
<polygon fill="#63b8ff" stroke="#63b8ff" points="506.82,-7.6 496.75,-10.9 506.68,-14.6 506.82,-7.6"/>
</a>
</g>
</g>
<!-- Node29&#45;&gt;Node10 -->
<g id="edge54_Node000029_Node000010" class="edge">
<title>Node29&#45;&gt;Node10</title>
<g id="a_edge54_Node000029_Node000010"><a xlink:title=" ">
<path fill="none" stroke="#63b8ff" d="M1356.5,-120.85C1334.39,-102.21 1292.47,-70.03 1250.5,-55 1109.94,-4.66 1064.54,-38.41 916.5,-19 911.36,-18.33 905.96,-17.56 900.64,-16.77"/>
<polygon fill="#63b8ff" stroke="#63b8ff" points="900.99,-13.29 890.58,-15.25 899.94,-20.21 900.99,-13.29"/>
</a>
</g>
</g>
<!-- Node29&#45;&gt;Node18 -->
<g id="edge56_Node000029_Node000018" class="edge">
<title>Node29&#45;&gt;Node18</title>
<g id="a_edge56_Node000029_Node000018"><a xlink:title=" ">
<path fill="none" stroke="#63b8ff" d="M1315.22,-120.95C1274.94,-111.08 1220.88,-97.82 1178.58,-87.45"/>
<polygon fill="#63b8ff" stroke="#63b8ff" points="1179.19,-83.99 1168.64,-85.01 1177.52,-90.79 1179.19,-83.99"/>
</a>
</g>
</g>
<!-- Node30 -->
<g id="Node000030" class="node">
<title>Node30</title>
<g id="a_Node000030"><a xlink:title=" ">
<polygon fill="#e0e0e0" stroke="#999999" points="1390.5,-79.5 1340.5,-79.5 1340.5,-60.5 1390.5,-60.5 1390.5,-79.5"/>
<text text-anchor="middle" x="1365.5" y="-67.5" font-family="Helvetica,sans-Serif" font-size="10.00">atomic</text>
</a>
</g>
</g>
<!-- Node29&#45;&gt;Node30 -->
<g id="edge52_Node000029_Node000030" class="edge">
<title>Node29&#45;&gt;Node30</title>
<g id="a_edge52_Node000029_Node000030"><a xlink:title=" ">
<path fill="none" stroke="#63b8ff" d="M1370.95,-120.8C1369.95,-111.7 1368.65,-99.79 1367.57,-89.9"/>
<polygon fill="#63b8ff" stroke="#63b8ff" points="1371.03,-89.4 1366.47,-79.84 1364.08,-90.17 1371.03,-89.4"/>
</a>
</g>
</g>
<!-- Node31 -->
<g id="Node000031" class="node">
<title>Node31</title>
<g id="a_Node000031"><a xlink:title=" ">
<polygon fill="#e0e0e0" stroke="#999999" points="1474,-79.5 1409,-79.5 1409,-60.5 1474,-60.5 1474,-79.5"/>
<text text-anchor="middle" x="1441.5" y="-67.5" font-family="Helvetica,sans-Serif" font-size="10.00">functional</text>
</a>
</g>
</g>
<!-- Node29&#45;&gt;Node31 -->
<g id="edge53_Node000029_Node000031" class="edge">
<title>Node29&#45;&gt;Node31</title>
<g id="a_edge53_Node000029_Node000031"><a xlink:title=" ">
<path fill="none" stroke="#63b8ff" d="M1387.81,-120.8C1398.68,-110.72 1413.26,-97.19 1424.49,-86.78"/>
<polygon fill="#63b8ff" stroke="#63b8ff" points="1427.01,-89.21 1431.96,-79.84 1422.25,-84.08 1427.01,-89.21"/>
</a>
</g>
</g>
<!-- Node32 -->
<g id="Node000032" class="node">
<title>Node32</title>
<g id="a_Node000032"><a xlink:title=" ">
<polygon fill="#e0e0e0" stroke="#999999" points="1602.5,-79.5 1492.5,-79.5 1492.5,-60.5 1602.5,-60.5 1602.5,-79.5"/>
<text text-anchor="middle" x="1547.5" y="-67.5" font-family="Helvetica,sans-Serif" font-size="10.00">cpprest/ws_client.h</text>
</a>
</g>
</g>
<!-- Node29&#45;&gt;Node32 -->
<g id="edge57_Node000029_Node000032" class="edge">
<title>Node29&#45;&gt;Node32</title>
<g id="a_edge57_Node000029_Node000032"><a xlink:title=" ">
<path fill="none" stroke="#63b8ff" d="M1410.9,-120.95C1442,-109.58 1485.33,-93.74 1514.79,-82.96"/>
<polygon fill="#63b8ff" stroke="#63b8ff" points="1516.02,-86.24 1524.21,-79.52 1513.62,-79.66 1516.02,-86.24"/>
</a>
</g>
</g>
</g>
</svg>
