<?xml version="1.0" encoding="UTF-8" standalone="no"?>
<!DOCTYPE svg PUBLIC "-//W3C//DTD SVG 1.1//EN"
 "http://www.w3.org/Graphics/SVG/1.1/DTD/svg11.dtd">
<!-- Generated by graphviz version 2.43.0 (0)
 -->
<!-- Title: include/mosaic/signaling/signaling_client.h Pages: 1 -->
<svg width="1331pt" height="445pt"
 viewBox="0.00 0.00 1330.50 445.00" xmlns="http://www.w3.org/2000/svg" xmlns:xlink="http://www.w3.org/1999/xlink">
<g id="graph0" class="graph" transform="scale(1 1) rotate(0) translate(4 441)">
<title>include/mosaic/signaling/signaling_client.h</title>
<!-- Node1 -->
<g id="Node000001" class="node">
<title>Node1</title>
<g id="a_Node000001"><a xlink:title=" ">
<polygon fill="#999999" stroke="#666666" points="569,-437 432,-437 432,-407 569,-407 569,-437"/>
<text text-anchor="start" x="440" y="-425" font-family="Helvetica,sans-Serif" font-size="10.00">include/mosaic/signaling</text>
<text text-anchor="middle" x="500.5" y="-414" font-family="Helvetica,sans-Serif" font-size="10.00">/signaling_client.h</text>
</a>
</g>
</g>
<!-- Node2 -->
<g id="Node000002" class="node">
<title>Node2</title>
<g id="a_Node000002"><a xlink:title=" ">
<polygon fill="#e0e0e0" stroke="#999999" points="1032.5,-19 974.5,-19 974.5,0 1032.5,0 1032.5,-19"/>
<text text-anchor="middle" x="1003.5" y="-7" font-family="Helvetica,sans-Serif" font-size="10.00">memory</text>
</a>
</g>
</g>
<!-- Node1&#45;&gt;Node2 -->
<g id="edge1_Node000001_Node000002" class="edge">
<title>Node1&#45;&gt;Node2</title>
<g id="a_edge1_Node000001_Node000002"><a xlink:title=" ">
<path fill="none" stroke="#63b8ff" d="M569.23,-418.62C717.99,-411.6 1056.5,-384.73 1056.5,-285.5 1056.5,-285.5 1056.5,-285.5 1056.5,-135 1056.5,-93.71 1031.51,-50.42 1015.85,-27.35"/>
<polygon fill="#63b8ff" stroke="#63b8ff" points="1018.61,-25.19 1010,-19.02 1012.88,-29.22 1018.61,-25.19"/>
</a>
</g>
</g>
<!-- Node3 -->
<g id="Node000003" class="node">
<title>Node3</title>
<g id="a_Node000003"><a xlink:title=" ">
<polygon fill="#e0e0e0" stroke="#999999" points="528.5,-19 484.5,-19 484.5,0 528.5,0 528.5,-19"/>
<text text-anchor="middle" x="506.5" y="-7" font-family="Helvetica,sans-Serif" font-size="10.00">string</text>
</a>
</g>
</g>
<!-- Node1&#45;&gt;Node3 -->
<g id="edge2_Node000001_Node000003" class="edge">
<title>Node1&#45;&gt;Node3</title>
<g id="a_edge2_Node000001_Node000003"><a xlink:title=" ">
<path fill="none" stroke="#63b8ff" d="M431.63,-412.44C315.79,-396.11 94.5,-355.72 94.5,-285.5 94.5,-285.5 94.5,-285.5 94.5,-206.5 94.5,-184.53 202.37,-65.8 221.5,-55 264.25,-30.86 408.72,-17.59 474,-12.7"/>
<polygon fill="#63b8ff" stroke="#63b8ff" points="474.41,-16.18 484.13,-11.97 473.91,-9.2 474.41,-16.18"/>
</a>
</g>
</g>
<!-- Node4 -->
<g id="Node000004" class="node">
<title>Node4</title>
<g id="a_Node000004"><a xlink:href="mosaic__connector_8h.html" target="_top" xlink:title=" ">
<polygon fill="white" stroke="#666666" points="557.5,-371 443.5,-371 443.5,-341 557.5,-341 557.5,-371"/>
<text text-anchor="start" x="451.5" y="-359" font-family="Helvetica,sans-Serif" font-size="10.00">mosaic/core/mosaic</text>
<text text-anchor="middle" x="500.5" y="-348" font-family="Helvetica,sans-Serif" font-size="10.00">_connector.h</text>
</a>
</g>
</g>
<!-- Node1&#45;&gt;Node4 -->
<g id="edge3_Node000001_Node000004" class="edge">
<title>Node1&#45;&gt;Node4</title>
<g id="a_edge3_Node000001_Node000004"><a xlink:title=" ">
<path fill="none" stroke="#63b8ff" d="M500.5,-406.8C500.5,-399.34 500.5,-389.99 500.5,-381.41"/>
<polygon fill="#63b8ff" stroke="#63b8ff" points="504,-381.16 500.5,-371.16 497,-381.16 504,-381.16"/>
</a>
</g>
</g>
<!-- Node8 -->
<g id="Node000008" class="node">
<title>Node8</title>
<g id="a_Node000008"><a xlink:href="i__signaling__client_8h.html" target="_top" xlink:title=" ">
<polygon fill="white" stroke="#666666" points="356,-222.5 249,-222.5 249,-192.5 356,-192.5 356,-222.5"/>
<text text-anchor="start" x="257" y="-210.5" font-family="Helvetica,sans-Serif" font-size="10.00">mosaic/signaling/i</text>
<text text-anchor="middle" x="302.5" y="-199.5" font-family="Helvetica,sans-Serif" font-size="10.00">_signaling_client.h</text>
</a>
</g>
</g>
<!-- Node1&#45;&gt;Node8 -->
<g id="edge46_Node000001_Node000008" class="edge">
<title>Node1&#45;&gt;Node8</title>
<g id="a_edge46_Node000001_Node000008"><a xlink:title=" ">
<path fill="none" stroke="#63b8ff" d="M431.93,-415.11C362.66,-405.09 259.01,-378.04 209.5,-305 199.28,-289.92 200.5,-279.85 209.5,-264 218.74,-247.72 234.86,-235.71 251.11,-227.11"/>
<polygon fill="#63b8ff" stroke="#63b8ff" points="252.69,-230.23 260.11,-222.68 249.59,-223.96 252.69,-230.23"/>
</a>
</g>
</g>
<!-- Node26 -->
<g id="Node000026" class="node">
<title>Node26</title>
<g id="a_Node000026"><a xlink:href="websocket__client_8h.html" target="_top" xlink:title=" ">
<polygon fill="white" stroke="#666666" points="1238.5,-85 1084.5,-85 1084.5,-55 1238.5,-55 1238.5,-85"/>
<text text-anchor="start" x="1092.5" y="-73" font-family="Helvetica,sans-Serif" font-size="10.00">mosaic/signaling/websocket</text>
<text text-anchor="middle" x="1161.5" y="-62" font-family="Helvetica,sans-Serif" font-size="10.00">_client.h</text>
</a>
</g>
</g>
<!-- Node1&#45;&gt;Node26 -->
<g id="edge47_Node000001_Node000026" class="edge">
<title>Node1&#45;&gt;Node26</title>
<g id="a_edge47_Node000001_Node000026"><a xlink:title=" ">
<path fill="none" stroke="#63b8ff" d="M569.04,-418.3C711.16,-412.23 1028.26,-396.04 1070.5,-371 1109.79,-347.71 1127.5,-331.17 1127.5,-285.5 1127.5,-285.5 1127.5,-285.5 1127.5,-206.5 1127.5,-166.46 1141.64,-121.71 1151.68,-94.98"/>
<polygon fill="#63b8ff" stroke="#63b8ff" points="1155.07,-95.93 1155.42,-85.34 1148.54,-93.4 1155.07,-95.93"/>
</a>
</g>
</g>
<!-- Node4&#45;&gt;Node2 -->
<g id="edge5_Node000004_Node000002" class="edge">
<title>Node4&#45;&gt;Node2</title>
<g id="a_edge5_Node000004_Node000002"><a xlink:title=" ">
<path fill="none" stroke="#63b8ff" d="M557.83,-352.14C654.92,-346.61 847.11,-332.49 908.5,-305 967.86,-278.42 1018.5,-273.54 1018.5,-208.5 1018.5,-208.5 1018.5,-208.5 1018.5,-135 1018.5,-97.22 1011.61,-53.46 1007.17,-29.18"/>
<polygon fill="#63b8ff" stroke="#63b8ff" points="1010.58,-28.38 1005.28,-19.21 1003.7,-29.69 1010.58,-28.38"/>
</a>
</g>
</g>
<!-- Node4&#45;&gt;Node3 -->
<g id="edge6_Node000004_Node000003" class="edge">
<title>Node4&#45;&gt;Node3</title>
<g id="a_edge6_Node000004_Node000003"><a xlink:title=" ">
<path fill="none" stroke="#63b8ff" d="M466,-340.96C450.77,-332.85 434.35,-321.03 425.5,-305 418.31,-291.98 418.94,-134.67 423.5,-121 424.41,-118.27 470.66,-57.45 493.72,-27.23"/>
<polygon fill="#63b8ff" stroke="#63b8ff" points="496.51,-29.34 499.8,-19.26 490.95,-25.09 496.51,-29.34"/>
</a>
</g>
</g>
<!-- Node5 -->
<g id="Node000005" class="node">
<title>Node5</title>
<g id="a_Node000005"><a xlink:title=" ">
<polygon fill="#e0e0e0" stroke="#999999" points="472.5,-294 434.5,-294 434.5,-275 472.5,-275 472.5,-294"/>
<text text-anchor="middle" x="453.5" y="-282" font-family="Helvetica,sans-Serif" font-size="10.00">map</text>
</a>
</g>
</g>
<!-- Node4&#45;&gt;Node5 -->
<g id="edge4_Node000004_Node000005" class="edge">
<title>Node4&#45;&gt;Node5</title>
<g id="a_edge4_Node000004_Node000005"><a xlink:title=" ">
<path fill="none" stroke="#63b8ff" d="M490.99,-340.94C483.54,-329.92 473.14,-314.54 465.18,-302.78"/>
<polygon fill="#63b8ff" stroke="#63b8ff" points="467.93,-300.59 459.43,-294.27 462.13,-304.51 467.93,-300.59"/>
</a>
</g>
</g>
<!-- Node6 -->
<g id="Node000006" class="node">
<title>Node6</title>
<g id="a_Node000006"><a xlink:href="connector__state__manager_8h.html" target="_top" xlink:title=" ">
<polygon fill="white" stroke="#666666" points="656,-299.5 529,-299.5 529,-269.5 656,-269.5 656,-299.5"/>
<text text-anchor="start" x="537" y="-287.5" font-family="Helvetica,sans-Serif" font-size="10.00">mosaic/core/connector</text>
<text text-anchor="middle" x="592.5" y="-276.5" font-family="Helvetica,sans-Serif" font-size="10.00">_state_manager.h</text>
</a>
</g>
</g>
<!-- Node4&#45;&gt;Node6 -->
<g id="edge7_Node000004_Node000006" class="edge">
<title>Node4&#45;&gt;Node6</title>
<g id="a_edge7_Node000004_Node000006"><a xlink:title=" ">
<path fill="none" stroke="#63b8ff" d="M519.12,-340.94C532.46,-330.86 550.64,-317.13 565.56,-305.85"/>
<polygon fill="#63b8ff" stroke="#63b8ff" points="568.04,-308.36 573.91,-299.54 563.82,-302.78 568.04,-308.36"/>
</a>
</g>
</g>
<!-- Node10 -->
<g id="Node000010" class="node">
<title>Node10</title>
<g id="a_Node000010"><a xlink:title=" ">
<polygon fill="#e0e0e0" stroke="#999999" points="680.5,-151 534.5,-151 534.5,-121 680.5,-121 680.5,-151"/>
<text text-anchor="start" x="542.5" y="-139" font-family="Helvetica,sans-Serif" font-size="10.00">mosaic/rtc/webrtc_forward</text>
<text text-anchor="middle" x="607.5" y="-128" font-family="Helvetica,sans-Serif" font-size="10.00">_decl.h</text>
</a>
</g>
</g>
<!-- Node4&#45;&gt;Node10 -->
<g id="edge45_Node000004_Node000010" class="edge">
<title>Node4&#45;&gt;Node10</title>
<g id="a_edge45_Node000004_Node000010"><a xlink:title=" ">
<path fill="none" stroke="#63b8ff" d="M557.65,-347.48C591.35,-340.76 633.36,-328.22 664.5,-305 697.4,-280.46 703.66,-267.3 715.5,-228 720.75,-210.55 725.31,-202.35 715.5,-187 706.42,-172.8 692.17,-162.57 676.95,-155.23"/>
<polygon fill="#63b8ff" stroke="#63b8ff" points="677.96,-151.84 667.39,-151.02 675.13,-158.25 677.96,-151.84"/>
</a>
</g>
</g>
<!-- Node16 -->
<g id="Node000016" class="node">
<title>Node16</title>
<g id="a_Node000016"><a xlink:href="peer__connection__manager_8h.html" target="_top" xlink:title=" ">
<polygon fill="white" stroke="#666666" points="378,-299.5 219,-299.5 219,-269.5 378,-269.5 378,-299.5"/>
<text text-anchor="start" x="227" y="-287.5" font-family="Helvetica,sans-Serif" font-size="10.00">mosaic/core/peer_connection</text>
<text text-anchor="middle" x="298.5" y="-276.5" font-family="Helvetica,sans-Serif" font-size="10.00">_manager.h</text>
</a>
</g>
</g>
<!-- Node4&#45;&gt;Node16 -->
<g id="edge23_Node000004_Node000016" class="edge">
<title>Node4&#45;&gt;Node16</title>
<g id="a_edge23_Node000004_Node000016"><a xlink:title=" ">
<path fill="none" stroke="#63b8ff" d="M454.07,-340.94C420.86,-330.01 376.49,-314.79 343.59,-303.06"/>
<polygon fill="#63b8ff" stroke="#63b8ff" points="344.37,-299.62 333.77,-299.54 342,-306.21 344.37,-299.62"/>
</a>
</g>
</g>
<!-- Node17 -->
<g id="Node000017" class="node">
<title>Node17</title>
<g id="a_Node000017"><a xlink:href="i__data__channel__handler_8h.html" target="_top" xlink:title=" ">
<polygon fill="white" stroke="#666666" points="900,-305 763,-305 763,-264 900,-264 900,-305"/>
<text text-anchor="start" x="771" y="-293" font-family="Helvetica,sans-Serif" font-size="10.00">mosaic/handlers/data</text>
<text text-anchor="start" x="771" y="-282" font-family="Helvetica,sans-Serif" font-size="10.00">_channel/i_data_channel</text>
<text text-anchor="middle" x="831.5" y="-271" font-family="Helvetica,sans-Serif" font-size="10.00">_handler.h</text>
</a>
</g>
</g>
<!-- Node4&#45;&gt;Node17 -->
<g id="edge28_Node000004_Node000017" class="edge">
<title>Node4&#45;&gt;Node17</title>
<g id="a_edge28_Node000004_Node000017"><a xlink:title=" ">
<path fill="none" stroke="#63b8ff" d="M557.74,-344C608.07,-334.19 683.27,-319.23 748.5,-305 749.95,-304.68 751.41,-304.36 752.88,-304.04"/>
<polygon fill="#63b8ff" stroke="#63b8ff" points="753.7,-307.44 762.7,-301.84 752.17,-300.61 753.7,-307.44"/>
</a>
</g>
</g>
<!-- Node24 -->
<g id="Node000024" class="node">
<title>Node24</title>
<g id="a_Node000024"><a xlink:href="i__media__track__handler_8h.html" target="_top" xlink:title=" ">
<polygon fill="white" stroke="#666666" points="564,-228 433,-228 433,-187 564,-187 564,-228"/>
<text text-anchor="start" x="441" y="-216" font-family="Helvetica,sans-Serif" font-size="10.00">mosaic/handlers/media</text>
<text text-anchor="start" x="441" y="-205" font-family="Helvetica,sans-Serif" font-size="10.00">_track/i_media_track</text>
<text text-anchor="middle" x="498.5" y="-194" font-family="Helvetica,sans-Serif" font-size="10.00">_handler.h</text>
</a>
</g>
</g>
<!-- Node4&#45;&gt;Node24 -->
<g id="edge41_Node000004_Node000024" class="edge">
<title>Node4&#45;&gt;Node24</title>
<g id="a_edge41_Node000004_Node000024"><a xlink:title=" ">
<path fill="none" stroke="#63b8ff" d="M500.31,-340.95C499.99,-317.51 499.34,-269.89 498.91,-238.59"/>
<polygon fill="#63b8ff" stroke="#63b8ff" points="502.41,-238.23 498.77,-228.27 495.41,-238.32 502.41,-238.23"/>
</a>
</g>
</g>
<!-- Node6&#45;&gt;Node2 -->
<g id="edge8_Node000006_Node000002" class="edge">
<title>Node6&#45;&gt;Node2</title>
<g id="a_edge8_Node000006_Node000002"><a xlink:title=" ">
<path fill="none" stroke="#63b8ff" d="M656.32,-275.8C758.77,-263.17 949.6,-238.42 960.5,-228 989.04,-200.73 999.45,-77.56 1002.46,-29.65"/>
<polygon fill="#63b8ff" stroke="#63b8ff" points="1005.97,-29.62 1003.06,-19.43 998.98,-29.21 1005.97,-29.62"/>
</a>
</g>
</g>
<!-- Node6&#45;&gt;Node3 -->
<g id="edge10_Node000006_Node000003" class="edge">
<title>Node6&#45;&gt;Node3</title>
<g id="a_edge10_Node000006_Node000003"><a xlink:title=" ">
<path fill="none" stroke="#63b8ff" d="M591.51,-269.42C590.83,-249.05 592.5,-211.16 611.5,-187 635.1,-156.99 668.92,-183.16 689.5,-151 696.69,-139.77 696.51,-132.34 689.5,-121 670.69,-90.57 648.42,-103.01 617.5,-85 584.54,-65.8 548.15,-40.55 526.32,-24.93"/>
<polygon fill="#63b8ff" stroke="#63b8ff" points="528.33,-22.06 518.17,-19.06 524.24,-27.74 528.33,-22.06"/>
</a>
</g>
</g>
<!-- Node7 -->
<g id="Node000007" class="node">
<title>Node7</title>
<g id="a_Node000007"><a xlink:title=" ">
<polygon fill="#e0e0e0" stroke="#999999" points="706.5,-217 620.5,-217 620.5,-198 706.5,-198 706.5,-217"/>
<text text-anchor="middle" x="663.5" y="-205" font-family="Helvetica,sans-Serif" font-size="10.00">shared_mutex</text>
</a>
</g>
</g>
<!-- Node6&#45;&gt;Node7 -->
<g id="edge9_Node000006_Node000007" class="edge">
<title>Node6&#45;&gt;Node7</title>
<g id="a_edge9_Node000006_Node000007"><a xlink:title=" ">
<path fill="none" stroke="#63b8ff" d="M605.85,-269.39C617.83,-256.74 635.4,-238.18 648,-224.88"/>
<polygon fill="#63b8ff" stroke="#63b8ff" points="650.77,-227.04 655.1,-217.37 645.68,-222.23 650.77,-227.04"/>
</a>
</g>
</g>
<!-- Node6&#45;&gt;Node8 -->
<g id="edge11_Node000006_Node000008" class="edge">
<title>Node6&#45;&gt;Node8</title>
<g id="a_edge11_Node000006_Node000008"><a xlink:title=" ">
<path fill="none" stroke="#63b8ff" d="M538.29,-269.48C489.47,-256.85 417.67,-238.29 366.14,-224.96"/>
<polygon fill="#63b8ff" stroke="#63b8ff" points="367,-221.57 356.44,-222.45 365.25,-228.34 367,-221.57"/>
</a>
</g>
</g>
<!-- Node9 -->
<g id="Node000009" class="node">
<title>Node9</title>
<g id="a_Node000009"><a xlink:title=" ">
<polygon fill="#e0e0e0" stroke="#999999" points="348.5,-85 230.5,-85 230.5,-55 348.5,-55 348.5,-85"/>
<text text-anchor="start" x="238.5" y="-73" font-family="Helvetica,sans-Serif" font-size="10.00">mosaic/json_forward</text>
<text text-anchor="middle" x="289.5" y="-62" font-family="Helvetica,sans-Serif" font-size="10.00">_decl.h</text>
</a>
</g>
</g>
<!-- Node8&#45;&gt;Node9 -->
<g id="edge12_Node000008_Node000009" class="edge">
<title>Node8&#45;&gt;Node9</title>
<g id="a_edge12_Node000008_Node000009"><a xlink:title=" ">
<path fill="none" stroke="#63b8ff" d="M271.61,-192.42C255.29,-183.17 236.76,-169.37 227.5,-151 221.5,-139.09 221.75,-133.03 227.5,-121 233.29,-108.89 243.6,-98.78 254.17,-90.89"/>
<polygon fill="#63b8ff" stroke="#63b8ff" points="256.39,-93.61 262.63,-85.04 252.41,-87.85 256.39,-93.61"/>
</a>
</g>
</g>
<!-- Node8&#45;&gt;Node10 -->
<g id="edge13_Node000008_Node000010" class="edge">
<title>Node8&#45;&gt;Node10</title>
<g id="a_edge13_Node000008_Node000010"><a xlink:title=" ">
<path fill="none" stroke="#63b8ff" d="M356.33,-194.23C406.23,-182.86 480.85,-165.86 535.8,-153.34"/>
<polygon fill="#63b8ff" stroke="#63b8ff" points="536.84,-156.69 545.82,-151.06 535.29,-149.87 536.84,-156.69"/>
</a>
</g>
</g>
<!-- Node11 -->
<g id="Node000011" class="node">
<title>Node11</title>
<g id="a_Node000011"><a xlink:href="i__mosaic__authenticator_8h.html" target="_top" xlink:title=" ">
<polygon fill="white" stroke="#666666" points="376.5,-151 236.5,-151 236.5,-121 376.5,-121 376.5,-151"/>
<text text-anchor="start" x="244.5" y="-139" font-family="Helvetica,sans-Serif" font-size="10.00">mosaic/security/i_mosaic</text>
<text text-anchor="middle" x="306.5" y="-128" font-family="Helvetica,sans-Serif" font-size="10.00">_authenticator.h</text>
</a>
</g>
</g>
<!-- Node8&#45;&gt;Node11 -->
<g id="edge14_Node000008_Node000011" class="edge">
<title>Node8&#45;&gt;Node11</title>
<g id="a_edge14_Node000008_Node000011"><a xlink:title=" ">
<path fill="none" stroke="#63b8ff" d="M303.31,-192.44C303.82,-183.49 304.51,-171.66 305.11,-161.23"/>
<polygon fill="#63b8ff" stroke="#63b8ff" points="308.61,-161.23 305.69,-151.04 301.62,-160.83 308.61,-161.23"/>
</a>
</g>
</g>
<!-- Node11&#45;&gt;Node2 -->
<g id="edge15_Node000011_Node000002" class="edge">
<title>Node11&#45;&gt;Node2</title>
<g id="a_edge15_Node000011_Node000002"><a xlink:title=" ">
<path fill="none" stroke="#63b8ff" d="M376.52,-122.49C521.64,-96.57 851.12,-37.72 964.39,-17.49"/>
<polygon fill="#63b8ff" stroke="#63b8ff" points="965.13,-20.91 974.36,-15.71 963.9,-14.02 965.13,-20.91"/>
</a>
</g>
</g>
<!-- Node11&#45;&gt;Node9 -->
<g id="edge22_Node000011_Node000009" class="edge">
<title>Node11&#45;&gt;Node9</title>
<g id="a_edge22_Node000011_Node000009"><a xlink:title=" ">
<path fill="none" stroke="#63b8ff" d="M302.73,-120.8C300.7,-113.17 298.15,-103.57 295.83,-94.84"/>
<polygon fill="#63b8ff" stroke="#63b8ff" points="299.21,-93.93 293.26,-85.16 292.45,-95.73 299.21,-93.93"/>
</a>
</g>
</g>
<!-- Node12 -->
<g id="Node000012" class="node">
<title>Node12</title>
<g id="a_Node000012"><a xlink:href="auth__type_8h.html" target="_top" xlink:title=" ">
<polygon fill="white" stroke="#666666" points="440.5,-79.5 366.5,-79.5 366.5,-60.5 440.5,-60.5 440.5,-79.5"/>
<text text-anchor="middle" x="403.5" y="-67.5" font-family="Helvetica,sans-Serif" font-size="10.00">auth_type.h</text>
</a>
</g>
</g>
<!-- Node11&#45;&gt;Node12 -->
<g id="edge16_Node000011_Node000012" class="edge">
<title>Node11&#45;&gt;Node12</title>
<g id="a_edge16_Node000011_Node000012"><a xlink:title=" ">
<path fill="none" stroke="#63b8ff" d="M328.03,-120.8C343.98,-110.27 365.65,-95.97 381.68,-85.4"/>
<polygon fill="#63b8ff" stroke="#63b8ff" points="383.96,-88.09 390.38,-79.66 380.1,-82.24 383.96,-88.09"/>
</a>
</g>
</g>
<!-- Node13 -->
<g id="Node000013" class="node">
<title>Node13</title>
<g id="a_Node000013"><a xlink:href="configs__decl_8h.html" target="_top" xlink:title=" ">
<polygon fill="white" stroke="#666666" points="174.5,-79.5 50.5,-79.5 50.5,-60.5 174.5,-60.5 174.5,-79.5"/>
<text text-anchor="middle" x="112.5" y="-67.5" font-family="Helvetica,sans-Serif" font-size="10.00">mosaic/configs_decl.h</text>
</a>
</g>
</g>
<!-- Node11&#45;&gt;Node13 -->
<g id="edge18_Node000011_Node000013" class="edge">
<title>Node11&#45;&gt;Node13</title>
<g id="a_edge18_Node000011_Node000013"><a xlink:title=" ">
<path fill="none" stroke="#63b8ff" d="M263.93,-120.95C229.15,-109.48 180.59,-93.46 147.91,-82.68"/>
<polygon fill="#63b8ff" stroke="#63b8ff" points="148.91,-79.33 138.32,-79.52 146.72,-85.97 148.91,-79.33"/>
</a>
</g>
</g>
<!-- Node12&#45;&gt;Node3 -->
<g id="edge17_Node000012_Node000003" class="edge">
<title>Node12&#45;&gt;Node3</title>
<g id="a_edge17_Node000012_Node000003"><a xlink:title=" ">
<path fill="none" stroke="#63b8ff" d="M418.7,-60.37C435.51,-50.82 462.82,-35.31 482.52,-24.12"/>
<polygon fill="#63b8ff" stroke="#63b8ff" points="484.27,-27.15 491.24,-19.17 480.82,-21.06 484.27,-27.15"/>
</a>
</g>
</g>
<!-- Node13&#45;&gt;Node3 -->
<g id="edge19_Node000013_Node000003" class="edge">
<title>Node13&#45;&gt;Node3</title>
<g id="a_edge19_Node000013_Node000003"><a xlink:title=" ">
<path fill="none" stroke="#63b8ff" d="M157.05,-60.46C167.36,-58.58 178.3,-56.65 188.5,-55 292.67,-38.12 416.66,-21.87 474.2,-14.55"/>
<polygon fill="#63b8ff" stroke="#63b8ff" points="475,-17.98 484.48,-13.25 474.11,-11.03 475,-17.98"/>
</a>
</g>
</g>
<!-- Node14 -->
<g id="Node000014" class="node">
<title>Node14</title>
<g id="a_Node000014"><a xlink:title=" ">
<polygon fill="#e0e0e0" stroke="#999999" points="159,-19 66,-19 66,0 159,0 159,-19"/>
<text text-anchor="middle" x="112.5" y="-7" font-family="Helvetica,sans-Serif" font-size="10.00">unordered_map</text>
</a>
</g>
</g>
<!-- Node13&#45;&gt;Node14 -->
<g id="edge20_Node000013_Node000014" class="edge">
<title>Node13&#45;&gt;Node14</title>
<g id="a_edge20_Node000013_Node000014"><a xlink:title=" ">
<path fill="none" stroke="#63b8ff" d="M112.5,-60.37C112.5,-52.25 112.5,-39.81 112.5,-29.39"/>
<polygon fill="#63b8ff" stroke="#63b8ff" points="116,-29.17 112.5,-19.17 109,-29.17 116,-29.17"/>
</a>
</g>
</g>
<!-- Node15 -->
<g id="Node000015" class="node">
<title>Node15</title>
<g id="a_Node000015"><a xlink:title=" ">
<polygon fill="#e0e0e0" stroke="#999999" points="47,-19 0,-19 0,0 47,0 47,-19"/>
<text text-anchor="middle" x="23.5" y="-7" font-family="Helvetica,sans-Serif" font-size="10.00">vector</text>
</a>
</g>
</g>
<!-- Node13&#45;&gt;Node15 -->
<g id="edge21_Node000013_Node000015" class="edge">
<title>Node13&#45;&gt;Node15</title>
<g id="a_edge21_Node000013_Node000015"><a xlink:title=" ">
<path fill="none" stroke="#63b8ff" d="M99.37,-60.37C85.17,-51.04 62.3,-36.01 45.38,-24.88"/>
<polygon fill="#63b8ff" stroke="#63b8ff" points="46.97,-21.74 36.69,-19.17 43.12,-27.58 46.97,-21.74"/>
</a>
</g>
</g>
<!-- Node16&#45;&gt;Node4 -->
<g id="edge26_Node000016_Node000004" class="edge">
<title>Node16&#45;&gt;Node4</title>
<g id="a_edge26_Node000016_Node000004"><a xlink:title=" ">
<path fill="none" stroke="#63b8ff" d="M344.86,-299.54C378.06,-310.47 422.43,-325.68 455.35,-337.42"/>
<polygon fill="#63b8ff" stroke="#63b8ff" points="454.58,-340.86 465.17,-340.94 456.94,-334.27 454.58,-340.86"/>
</a>
</g>
</g>
<!-- Node16&#45;&gt;Node8 -->
<g id="edge27_Node000016_Node000008" class="edge">
<title>Node16&#45;&gt;Node8</title>
<g id="a_edge27_Node000016_Node000008"><a xlink:title=" ">
<path fill="none" stroke="#63b8ff" d="M299.25,-269.39C299.8,-259.13 300.56,-244.97 301.2,-232.88"/>
<polygon fill="#63b8ff" stroke="#63b8ff" points="304.71,-232.72 301.75,-222.54 297.72,-232.34 304.71,-232.72"/>
</a>
</g>
</g>
<!-- Node16&#45;&gt;Node13 -->
<g id="edge25_Node000016_Node000013" class="edge">
<title>Node16&#45;&gt;Node13</title>
<g id="a_edge25_Node000016_Node000013"><a xlink:title=" ">
<path fill="none" stroke="#63b8ff" d="M282.41,-269.45C270.22,-258.55 253.27,-242.84 239.5,-228 194.53,-179.54 146.89,-117.27 124.93,-87.84"/>
<polygon fill="#63b8ff" stroke="#63b8ff" points="127.5,-85.44 118.73,-79.5 121.88,-89.62 127.5,-85.44"/>
</a>
</g>
</g>
<!-- Node16&#45;&gt;Node15 -->
<g id="edge24_Node000016_Node000015" class="edge">
<title>Node16&#45;&gt;Node15</title>
<g id="a_edge24_Node000016_Node000015"><a xlink:title=" ">
<path fill="none" stroke="#63b8ff" d="M267.9,-269.48C212.64,-242.42 96.79,-177.4 41.5,-85 31.27,-67.91 26.85,-45.34 24.94,-29.54"/>
<polygon fill="#63b8ff" stroke="#63b8ff" points="28.41,-29.01 23.95,-19.4 21.44,-29.69 28.41,-29.01"/>
</a>
</g>
</g>
<!-- Node17&#45;&gt;Node3 -->
<g id="edge29_Node000017_Node000003" class="edge">
<title>Node17&#45;&gt;Node3</title>
<g id="a_edge29_Node000017_Node000003"><a xlink:title=" ">
<path fill="none" stroke="#63b8ff" d="M824.64,-263.66C816.93,-243.15 803.03,-210.83 784.5,-187 756.63,-151.15 743.52,-147.3 706.5,-121 680.84,-102.77 671.35,-102.96 645.5,-85 628.11,-72.92 626.59,-66 608.5,-55 586.23,-41.46 559.1,-29.83 538.42,-21.86"/>
<polygon fill="#63b8ff" stroke="#63b8ff" points="539.43,-18.5 528.84,-18.25 536.96,-25.05 539.43,-18.5"/>
</a>
</g>
</g>
<!-- Node17&#45;&gt;Node10 -->
<g id="edge40_Node000017_Node000010" class="edge">
<title>Node17&#45;&gt;Node10</title>
<g id="a_edge40_Node000017_Node000010"><a xlink:title=" ">
<path fill="none" stroke="#63b8ff" d="M819.16,-263.79C804.68,-242.15 778.76,-207.73 748.5,-187 727.41,-172.55 701.69,-161.82 678.02,-154.09"/>
<polygon fill="#63b8ff" stroke="#63b8ff" points="678.96,-150.71 668.37,-151.06 676.86,-157.39 678.96,-150.71"/>
</a>
</g>
</g>
<!-- Node18 -->
<g id="Node000018" class="node">
<title>Node18</title>
<g id="a_Node000018"><a xlink:href="log_8h.html" target="_top" xlink:title=" ">
<polygon fill="white" stroke="#666666" points="952,-217 839,-217 839,-198 952,-198 952,-217"/>
<text text-anchor="middle" x="895.5" y="-205" font-family="Helvetica,sans-Serif" font-size="10.00">mosaic/logger/log.h</text>
</a>
</g>
</g>
<!-- Node17&#45;&gt;Node18 -->
<g id="edge30_Node000017_Node000018" class="edge">
<title>Node17&#45;&gt;Node18</title>
<g id="a_edge30_Node000017_Node000018"><a xlink:title=" ">
<path fill="none" stroke="#63b8ff" d="M848.32,-263.79C858.59,-251.76 871.57,-236.54 881.32,-225.12"/>
<polygon fill="#63b8ff" stroke="#63b8ff" points="884.22,-227.12 888.04,-217.24 878.89,-222.57 884.22,-227.12"/>
</a>
</g>
</g>
<!-- Node19 -->
<g id="Node000019" class="node">
<title>Node19</title>
<g id="a_Node000019"><a xlink:href="i__logger_8h.html" target="_top" xlink:title=" ">
<polygon fill="white" stroke="#666666" points="845.5,-145.5 781.5,-145.5 781.5,-126.5 845.5,-126.5 845.5,-145.5"/>
<text text-anchor="middle" x="813.5" y="-133.5" font-family="Helvetica,sans-Serif" font-size="10.00">i_logger.h</text>
</a>
</g>
</g>
<!-- Node18&#45;&gt;Node19 -->
<g id="edge31_Node000018_Node000019" class="edge">
<title>Node18&#45;&gt;Node19</title>
<g id="a_edge31_Node000018_Node000019"><a xlink:title=" ">
<path fill="none" stroke="#63b8ff" d="M885.45,-197.98C872.04,-186.62 848.09,-166.32 831.53,-152.28"/>
<polygon fill="#63b8ff" stroke="#63b8ff" points="833.53,-149.39 823.64,-145.59 829,-154.73 833.53,-149.39"/>
</a>
</g>
</g>
<!-- Node22 -->
<g id="Node000022" class="node">
<title>Node22</title>
<g id="a_Node000022"><a xlink:href="log__service_8h.html" target="_top" xlink:title=" ">
<polygon fill="white" stroke="#666666" points="952,-79.5 871,-79.5 871,-60.5 952,-60.5 952,-79.5"/>
<text text-anchor="middle" x="911.5" y="-67.5" font-family="Helvetica,sans-Serif" font-size="10.00">log_service.h</text>
</a>
</g>
</g>
<!-- Node18&#45;&gt;Node22 -->
<g id="edge39_Node000018_Node000022" class="edge">
<title>Node18&#45;&gt;Node22</title>
<g id="a_edge39_Node000018_Node000022"><a xlink:title=" ">
<path fill="none" stroke="#63b8ff" d="M896.55,-197.61C899.12,-175.88 905.75,-119.71 909.25,-90.02"/>
<polygon fill="#63b8ff" stroke="#63b8ff" points="912.77,-90.09 910.47,-79.75 905.82,-89.27 912.77,-90.09"/>
</a>
</g>
</g>
<!-- Node19&#45;&gt;Node3 -->
<g id="edge32_Node000019_Node000003" class="edge">
<title>Node19&#45;&gt;Node3</title>
<g id="a_edge32_Node000019_Node000003"><a xlink:title=" ">
<path fill="none" stroke="#63b8ff" d="M797.14,-126.3C767.47,-110.72 702.57,-77.6 645.5,-55 609.62,-40.79 567.24,-27.74 538.79,-19.5"/>
<polygon fill="#63b8ff" stroke="#63b8ff" points="539.55,-16.07 528.97,-16.68 537.62,-22.8 539.55,-16.07"/>
</a>
</g>
</g>
<!-- Node20 -->
<g id="Node000020" class="node">
<title>Node20</title>
<g id="a_Node000020"><a xlink:title=" ">
<polygon fill="#e0e0e0" stroke="#999999" points="853,-79.5 774,-79.5 774,-60.5 853,-60.5 853,-79.5"/>
<text text-anchor="middle" x="813.5" y="-67.5" font-family="Helvetica,sans-Serif" font-size="10.00">fmt/format.h</text>
</a>
</g>
</g>
<!-- Node19&#45;&gt;Node20 -->
<g id="edge33_Node000019_Node000020" class="edge">
<title>Node19&#45;&gt;Node20</title>
<g id="a_edge33_Node000019_Node000020"><a xlink:title=" ">
<path fill="none" stroke="#63b8ff" d="M813.5,-126.37C813.5,-117.16 813.5,-102.29 813.5,-90.27"/>
<polygon fill="#63b8ff" stroke="#63b8ff" points="817,-89.91 813.5,-79.91 810,-89.91 817,-89.91"/>
</a>
</g>
</g>
<!-- Node21 -->
<g id="Node000021" class="node">
<title>Node21</title>
<g id="a_Node000021"><a xlink:href="log__level_8h.html" target="_top" xlink:title=" ">
<polygon fill="white" stroke="#666666" points="819.5,-19 749.5,-19 749.5,0 819.5,0 819.5,-19"/>
<text text-anchor="middle" x="784.5" y="-7" font-family="Helvetica,sans-Serif" font-size="10.00">log_level.h</text>
</a>
</g>
</g>
<!-- Node19&#45;&gt;Node21 -->
<g id="edge34_Node000019_Node000021" class="edge">
<title>Node19&#45;&gt;Node21</title>
<g id="a_edge34_Node000019_Node000021"><a xlink:title=" ">
<path fill="none" stroke="#63b8ff" d="M800.65,-126.44C788.72,-117.66 771.76,-102.78 764.5,-85 756.86,-66.29 765.18,-43.74 773.3,-28.39"/>
<polygon fill="#63b8ff" stroke="#63b8ff" points="776.49,-29.87 778.43,-19.45 770.42,-26.38 776.49,-29.87"/>
</a>
</g>
</g>
<!-- Node19&#45;&gt;Node22 -->
<g id="edge35_Node000019_Node000022" class="edge">
<title>Node19&#45;&gt;Node22</title>
<g id="a_edge35_Node000019_Node000022"><a xlink:title=" ">
<path fill="none" stroke="#63b8ff" d="M826.72,-126.37C842.86,-115.82 870.41,-97.84 889.71,-85.23"/>
<polygon fill="#63b8ff" stroke="#63b8ff" points="891.72,-88.1 898.18,-79.7 887.89,-82.24 891.72,-88.1"/>
</a>
</g>
</g>
<!-- Node22&#45;&gt;Node2 -->
<g id="edge36_Node000022_Node000002" class="edge">
<title>Node22&#45;&gt;Node2</title>
<g id="a_edge36_Node000022_Node000002"><a xlink:title=" ">
<path fill="none" stroke="#63b8ff" d="M925.07,-60.37C939.89,-50.95 963.83,-35.73 981.36,-24.58"/>
<polygon fill="#63b8ff" stroke="#63b8ff" points="983.31,-27.49 989.87,-19.17 979.55,-21.58 983.31,-27.49"/>
</a>
</g>
</g>
<!-- Node22&#45;&gt;Node21 -->
<g id="edge38_Node000022_Node000021" class="edge">
<title>Node22&#45;&gt;Node21</title>
<g id="a_edge38_Node000022_Node000021"><a xlink:title=" ">
<path fill="none" stroke="#63b8ff" d="M893.03,-60.49C871.78,-50.7 836.65,-34.52 812.13,-23.23"/>
<polygon fill="#63b8ff" stroke="#63b8ff" points="813.54,-20.02 802.99,-19.02 810.61,-26.38 813.54,-20.02"/>
</a>
</g>
</g>
<!-- Node23 -->
<g id="Node000023" class="node">
<title>Node23</title>
<g id="a_Node000023"><a xlink:title=" ">
<polygon fill="#e0e0e0" stroke="#999999" points="946,-19 877,-19 877,0 946,0 946,-19"/>
<text text-anchor="middle" x="911.5" y="-7" font-family="Helvetica,sans-Serif" font-size="10.00">type_traits</text>
</a>
</g>
</g>
<!-- Node22&#45;&gt;Node23 -->
<g id="edge37_Node000022_Node000023" class="edge">
<title>Node22&#45;&gt;Node23</title>
<g id="a_edge37_Node000022_Node000023"><a xlink:title=" ">
<path fill="none" stroke="#63b8ff" d="M911.5,-60.37C911.5,-52.25 911.5,-39.81 911.5,-29.39"/>
<polygon fill="#63b8ff" stroke="#63b8ff" points="915,-29.17 911.5,-19.17 908,-29.17 915,-29.17"/>
</a>
</g>
</g>
<!-- Node24&#45;&gt;Node3 -->
<g id="edge42_Node000024_Node000003" class="edge">
<title>Node24&#45;&gt;Node3</title>
<g id="a_edge42_Node000024_Node000003"><a xlink:title=" ">
<path fill="none" stroke="#63b8ff" d="M499.3,-186.99C500.84,-149.25 504.21,-66.67 505.73,-29.41"/>
<polygon fill="#63b8ff" stroke="#63b8ff" points="509.24,-29.15 506.15,-19.02 502.25,-28.87 509.24,-29.15"/>
</a>
</g>
</g>
<!-- Node24&#45;&gt;Node10 -->
<g id="edge44_Node000024_Node000010" class="edge">
<title>Node24&#45;&gt;Node10</title>
<g id="a_edge44_Node000024_Node000010"><a xlink:title=" ">
<path fill="none" stroke="#63b8ff" d="M529.15,-186.96C543.96,-177.51 561.7,-166.2 576.55,-156.74"/>
<polygon fill="#63b8ff" stroke="#63b8ff" points="578.82,-159.44 585.37,-151.11 575.05,-153.54 578.82,-159.44"/>
</a>
</g>
</g>
<!-- Node25 -->
<g id="Node000025" class="node">
<title>Node25</title>
<g id="a_Node000025"><a xlink:title=" ">
<polygon fill="#e0e0e0" stroke="#999999" points="478,-145.5 433,-145.5 433,-126.5 478,-126.5 478,-145.5"/>
<text text-anchor="middle" x="455.5" y="-133.5" font-family="Helvetica,sans-Serif" font-size="10.00">utility</text>
</a>
</g>
</g>
<!-- Node24&#45;&gt;Node25 -->
<g id="edge43_Node000024_Node000025" class="edge">
<title>Node24&#45;&gt;Node25</title>
<g id="a_edge43_Node000024_Node000025"><a xlink:title=" ">
<path fill="none" stroke="#63b8ff" d="M486.29,-186.77C479.97,-176.55 472.32,-164.19 466.23,-154.34"/>
<polygon fill="#63b8ff" stroke="#63b8ff" points="469.19,-152.48 460.96,-145.82 463.24,-156.17 469.19,-152.48"/>
</a>
</g>
</g>
<!-- Node26&#45;&gt;Node2 -->
<g id="edge50_Node000026_Node000002" class="edge">
<title>Node26&#45;&gt;Node2</title>
<g id="a_edge50_Node000026_Node000002"><a xlink:title=" ">
<path fill="none" stroke="#63b8ff" d="M1123.66,-54.99C1097.06,-45.14 1061.83,-32.1 1036.4,-22.68"/>
<polygon fill="#63b8ff" stroke="#63b8ff" points="1037.43,-19.33 1026.83,-19.14 1035,-25.89 1037.43,-19.33"/>
</a>
</g>
</g>
<!-- Node26&#45;&gt;Node3 -->
<g id="edge51_Node000026_Node000003" class="edge">
<title>Node26&#45;&gt;Node3</title>
<g id="a_edge51_Node000026_Node000003"><a xlink:title=" ">
<path fill="none" stroke="#63b8ff" d="M1084.44,-62.12C940.87,-49.3 638.05,-22.25 538.77,-13.38"/>
<polygon fill="#63b8ff" stroke="#63b8ff" points="539.02,-9.89 528.74,-12.49 538.39,-16.86 539.02,-9.89"/>
</a>
</g>
</g>
<!-- Node27 -->
<g id="Node000027" class="node">
<title>Node27</title>
<g id="a_Node000027"><a xlink:title=" ">
<polygon fill="#e0e0e0" stroke="#999999" points="1110.5,-19 1060.5,-19 1060.5,0 1110.5,0 1110.5,-19"/>
<text text-anchor="middle" x="1085.5" y="-7" font-family="Helvetica,sans-Serif" font-size="10.00">atomic</text>
</a>
</g>
</g>
<!-- Node26&#45;&gt;Node27 -->
<g id="edge48_Node000026_Node000027" class="edge">
<title>Node26&#45;&gt;Node27</title>
<g id="a_edge48_Node000026_Node000027"><a xlink:title=" ">
<path fill="none" stroke="#63b8ff" d="M1143.1,-54.84C1131.62,-46 1116.85,-34.63 1105.14,-25.62"/>
<polygon fill="#63b8ff" stroke="#63b8ff" points="1106.95,-22.59 1096.89,-19.27 1102.68,-28.14 1106.95,-22.59"/>
</a>
</g>
</g>
<!-- Node28 -->
<g id="Node000028" class="node">
<title>Node28</title>
<g id="a_Node000028"><a xlink:title=" ">
<polygon fill="#e0e0e0" stroke="#999999" points="1194,-19 1129,-19 1129,0 1194,0 1194,-19"/>
<text text-anchor="middle" x="1161.5" y="-7" font-family="Helvetica,sans-Serif" font-size="10.00">functional</text>
</a>
</g>
</g>
<!-- Node26&#45;&gt;Node28 -->
<g id="edge49_Node000026_Node000028" class="edge">
<title>Node26&#45;&gt;Node28</title>
<g id="a_edge49_Node000026_Node000028"><a xlink:title=" ">
<path fill="none" stroke="#63b8ff" d="M1161.5,-54.84C1161.5,-47.21 1161.5,-37.7 1161.5,-29.45"/>
<polygon fill="#63b8ff" stroke="#63b8ff" points="1165,-29.27 1161.5,-19.27 1158,-29.27 1165,-29.27"/>
</a>
</g>
</g>
<!-- Node29 -->
<g id="Node000029" class="node">
<title>Node29</title>
<g id="a_Node000029"><a xlink:title=" ">
<polygon fill="#e0e0e0" stroke="#999999" points="1322.5,-19 1212.5,-19 1212.5,0 1322.5,0 1322.5,-19"/>
<text text-anchor="middle" x="1267.5" y="-7" font-family="Helvetica,sans-Serif" font-size="10.00">cpprest/ws_client.h</text>
</a>
</g>
</g>
<!-- Node26&#45;&gt;Node29 -->
<g id="edge52_Node000026_Node000029" class="edge">
<title>Node26&#45;&gt;Node29</title>
<g id="a_edge52_Node000026_Node000029"><a xlink:title=" ">
<path fill="none" stroke="#63b8ff" d="M1186.89,-54.99C1203.79,-45.66 1225.88,-33.47 1242.66,-24.21"/>
<polygon fill="#63b8ff" stroke="#63b8ff" points="1244.78,-27.04 1251.85,-19.14 1241.4,-20.91 1244.78,-27.04"/>
</a>
</g>
</g>
</g>
</svg>
