<?xml version="1.0" encoding="UTF-8" standalone="no"?>
<!DOCTYPE svg PUBLIC "-//W3C//DTD SVG 1.1//EN"
 "http://www.w3.org/Graphics/SVG/1.1/DTD/svg11.dtd">
<!-- Generated by graphviz version 2.43.0 (0)
 -->
<!-- Title: mosaic::core::ServerConfig Pages: 1 -->
<!--zoomable 169 -->

<svg id="main" version="1.1" xmlns="http://www.w3.org/2000/svg" xmlns:xlink="http://www.w3.org/1999/xlink" xml:space="preserve" onload="init(evt)">
<style type="text/css"><![CDATA[
.node, .edge {opacity: 0.7;}
.node.selected, .edge.selected {opacity: 1;}
.edge:hover path { stroke: red; }
.edge:hover polygon { stroke: red; fill: red; }
]]></style>

<defs>
  <circle id="rim" cx="0" cy="0" r="7"/>
  <circle id="rim2" cx="0" cy="0" r="3.5"/>
  <g id="zoomPlus">
    <use xlink:href="#rim" fill="#404040"><set attributeName="fill" to="#808080" begin="zoomplus.mouseover" end="zoomplus.mouseout"/></use>
    <path d="M-4,0h8M0,-4v8" fill="none" stroke="white" stroke-width="1.5" pointer-events="none"/>
  </g>
  <g id="zoomMin">
    <use xlink:href="#rim" fill="#404040"><set attributeName="fill" to="#808080" begin="zoomminus.mouseover" end="zoomminus.mouseout"/></use>
    <path d="M-4,0h8" fill="none" stroke="white" stroke-width="1.5" pointer-events="none"/>
  </g>
  <g id="arrowUp" transform="translate(30 24)">
    <use xlink:href="#rim"/>
    <path pointer-events="none" fill="none" stroke="white" stroke-width="1.5" d="M0,-3.0v7 M-2.5,-0.5L0,-3.0L2.5,-0.5"/>
  </g>
  <g id="arrowRight" transform="rotate(90) translate(36 -43)">
    <use xlink:href="#rim"/>
    <path pointer-events="none" fill="none" stroke="white" stroke-width="1.5" d="M0,-3.0v7 M-2.5,-0.5L0,-3.0L2.5,-0.5"/>
  </g>
  <g id="arrowDown" transform="rotate(180) translate(-30 -48)">
    <use xlink:href="#rim"/>
    <path pointer-events="none" fill="none" stroke="white" stroke-width="1.5" d="M0,-3.0v7 M-2.5,-0.5L0,-3.0L2.5,-0.5"/>
  </g>
  <g id="arrowLeft" transform="rotate(270) translate(-36 17)">
    <use xlink:href="#rim"/>
    <path pointer-events="none" fill="none" stroke="white" stroke-width="1.5" d="M0,-3.0v7 M-2.5,-0.5L0,-3.0L2.5,-0.5"/>
  </g>
  <g id="resetDef">
    <use xlink:href="#rim2" fill="#404040"><set attributeName="fill" to="#808080" begin="reset.mouseover" end="reset.mouseout"/></use>
  </g>
</defs>
<script type="application/ecmascript">
var viewWidth = 925;
var viewHeight = 169;
var sectionId = 'dynsection-0';
</script>
<script type="application/ecmascript" xlink:href="svg.min.js"/>
<svg id="graph" class="graph">
<g id="viewport">
<title>mosaic::core::ServerConfig</title>
<!-- Node1 -->
<g id="Node000001" class="node">
<title>Node1</title>
<g id="a_Node000001"><a xlink:title=" ">
<polygon fill="#999999" stroke="#666666" points="917,-70.5 770,-70.5 770,-51.5 917,-51.5 917,-70.5"/>
<text text-anchor="middle" x="843.5" y="-58.5" font-family="Helvetica,sans-Serif" font-size="10.00">mosaic::core::ServerConfig</text>
</a>
</g>
</g>
<!-- Node2 -->
<g id="Node000002" class="node">
<title>Node2</title>
<g id="a_Node000002"><a xlink:title=" ">
<polygon fill="white" stroke="#666666" points="380,-85.5 315,-85.5 315,-66.5 380,-66.5 380,-85.5"/>
<text text-anchor="middle" x="347.5" y="-73.5" font-family="Helvetica,sans-Serif" font-size="10.00">std::string</text>
</a>
</g>
</g>
<!-- Node2&#45;&gt;Node1 -->
<g id="edge1_Node000001_Node000002" class="edge">
<title>Node2&#45;&gt;Node1</title>
<g id="a_edge1_Node000001_Node000002"><a xlink:title=" ">
<path fill="none" stroke="#9a32cd" stroke-dasharray="5,2" d="M390.4,-74.7C423.21,-73.69 470.01,-72.25 511,-71 600.06,-68.29 702.58,-65.2 769.75,-63.18"/>
<polygon fill="#9a32cd" stroke="#9a32cd" points="390.15,-71.21 380.26,-75.02 390.36,-78.21 390.15,-71.21"/>
</a>
</g>
<text text-anchor="middle" x="587" y="-74" font-family="Helvetica,sans-Serif" font-size="10.00" fill="grey"> ws_url</text>
</g>
<!-- Node4 -->
<g id="Node000004" class="node">
<title>Node4</title>
<g id="a_Node000004"><a xlink:href="structmosaic_1_1core_1_1AuthConfig.html" target="_top" xlink:title=" ">
<polygon fill="white" stroke="#666666" points="656,-109.5 518,-109.5 518,-90.5 656,-90.5 656,-109.5"/>
<text text-anchor="middle" x="587" y="-97.5" font-family="Helvetica,sans-Serif" font-size="10.00">mosaic::core::AuthConfig</text>
</a>
</g>
</g>
<!-- Node2&#45;&gt;Node4 -->
<g id="edge4_Node000004_Node000002" class="edge">
<title>Node2&#45;&gt;Node4</title>
<g id="a_edge4_Node000004_Node000002"><a xlink:title=" ">
<path fill="none" stroke="#9a32cd" stroke-dasharray="5,2" d="M390.43,-80.24C425.65,-83.8 476.66,-88.95 517.75,-93.1"/>
<polygon fill="#9a32cd" stroke="#9a32cd" points="390.34,-76.71 380.04,-79.19 389.64,-83.67 390.34,-76.71"/>
</a>
</g>
<text text-anchor="middle" x="463.5" y="-104" font-family="Helvetica,sans-Serif" font-size="10.00" fill="grey"> robot_id</text>
<text text-anchor="middle" x="463.5" y="-93" font-family="Helvetica,sans-Serif" font-size="10.00" fill="grey">type</text>
</g>
<!-- Node3 -->
<g id="Node000003" class="node">
<title>Node3</title>
<g id="a_Node000003"><a xlink:title=" ">
<polygon fill="white" stroke="#666666" points="109,-91 5,-91 5,-61 109,-61 109,-91"/>
<text text-anchor="start" x="13" y="-79" font-family="Helvetica,sans-Serif" font-size="10.00">std::basic_string&lt;</text>
<text text-anchor="middle" x="57" y="-68" font-family="Helvetica,sans-Serif" font-size="10.00"> Char &gt;</text>
</a>
</g>
</g>
<!-- Node3&#45;&gt;Node2 -->
<g id="edge2_Node000002_Node000003" class="edge">
<title>Node3&#45;&gt;Node2</title>
<g id="a_edge2_Node000002_Node000003"><a xlink:title=" ">
<path fill="none" stroke="#63b8ff" d="M119.34,-76C179.25,-76 268.04,-76 314.9,-76"/>
<polygon fill="#63b8ff" stroke="#63b8ff" points="119.25,-72.5 109.25,-76 119.25,-79.5 119.25,-72.5"/>
</a>
</g>
</g>
<!-- Node4&#45;&gt;Node1 -->
<g id="edge3_Node000001_Node000004" class="edge">
<title>Node4&#45;&gt;Node1</title>
<g id="a_edge3_Node000001_Node000004"><a xlink:title=" ">
<path fill="none" stroke="#9a32cd" stroke-dasharray="5,2" d="M660.95,-88.91C689.37,-84.59 722.21,-79.57 752,-75 761.43,-73.55 771.41,-72.01 781.16,-70.51"/>
<polygon fill="#9a32cd" stroke="#9a32cd" points="660.05,-85.51 650.7,-90.48 661.11,-92.43 660.05,-85.51"/>
</a>
</g>
<text text-anchor="middle" x="716.5" y="-88" font-family="Helvetica,sans-Serif" font-size="10.00" fill="grey"> auth_config</text>
</g>
<!-- Node5 -->
<g id="Node000005" class="node">
<title>Node5</title>
<g id="a_Node000005"><a xlink:title=" ">
<polygon fill="white" stroke="#666666" points="404.5,-159.5 290.5,-159.5 290.5,-118.5 404.5,-118.5 404.5,-159.5"/>
<text text-anchor="start" x="298.5" y="-147.5" font-family="Helvetica,sans-Serif" font-size="10.00">std::unordered_map</text>
<text text-anchor="start" x="298.5" y="-136.5" font-family="Helvetica,sans-Serif" font-size="10.00">&lt; std::string, std::</text>
<text text-anchor="middle" x="347.5" y="-125.5" font-family="Helvetica,sans-Serif" font-size="10.00">string &gt;</text>
</a>
</g>
</g>
<!-- Node5&#45;&gt;Node4 -->
<g id="edge5_Node000004_Node000005" class="edge">
<title>Node5&#45;&gt;Node4</title>
<g id="a_edge5_Node000004_Node000005"><a xlink:title=" ">
<path fill="none" stroke="#9a32cd" stroke-dasharray="5,2" d="M414.74,-128.63C439.33,-124.74 467.45,-120.23 493,-116 505.45,-113.94 518.82,-111.67 531.43,-109.51"/>
<polygon fill="#9a32cd" stroke="#9a32cd" points="414.13,-125.19 404.8,-130.21 415.22,-132.1 414.13,-125.19"/>
</a>
</g>
<text text-anchor="middle" x="463.5" y="-128" font-family="Helvetica,sans-Serif" font-size="10.00" fill="grey"> params</text>
</g>
<!-- Node6 -->
<g id="Node000006" class="node">
<title>Node6</title>
<g id="a_Node000006"><a xlink:title=" ">
<polygon fill="white" stroke="#666666" points="114,-154 0,-154 0,-124 114,-124 114,-154"/>
<text text-anchor="start" x="8" y="-142" font-family="Helvetica,sans-Serif" font-size="10.00">std::unordered_map</text>
<text text-anchor="middle" x="57" y="-131" font-family="Helvetica,sans-Serif" font-size="10.00">&lt; K, T &gt;</text>
</a>
</g>
</g>
<!-- Node6&#45;&gt;Node5 -->
<g id="edge6_Node000005_Node000006" class="edge">
<title>Node6&#45;&gt;Node5</title>
<g id="a_edge6_Node000005_Node000006"><a xlink:title=" ">
<path fill="none" stroke="orange" stroke-dasharray="5,2" d="M124.42,-139C174.64,-139 242.81,-139 290.33,-139"/>
<polygon fill="orange" stroke="orange" points="124.31,-135.5 114.31,-139 124.31,-142.5 124.31,-135.5"/>
</a>
</g>
<text text-anchor="start" x="154" y="-153" font-family="Helvetica,sans-Serif" font-size="10.00" fill="grey"> &lt; std::string, std</text>
<text text-anchor="middle" x="196.5" y="-142" font-family="Helvetica,sans-Serif" font-size="10.00" fill="grey">::string &gt;</text>
</g>
<!-- Node7 -->
<g id="Node000007" class="node">
<title>Node7</title>
<g id="a_Node000007"><a xlink:href="structmosaic_1_1core_1_1WebRtcConfig.html" target="_top" xlink:title=" ">
<polygon fill="white" stroke="#666666" points="663,-24.5 511,-24.5 511,-5.5 663,-5.5 663,-24.5"/>
<text text-anchor="middle" x="587" y="-12.5" font-family="Helvetica,sans-Serif" font-size="10.00">mosaic::core::WebRtcConfig</text>
</a>
</g>
</g>
<!-- Node7&#45;&gt;Node1 -->
<g id="edge7_Node000001_Node000007" class="edge">
<title>Node7&#45;&gt;Node1</title>
<g id="a_edge7_Node000001_Node000007"><a xlink:title=" ">
<path fill="none" stroke="#9a32cd" stroke-dasharray="5,2" d="M673.08,-23.56C698.58,-26.76 726.54,-30.88 752,-36 772.3,-40.08 794.73,-46.27 812.18,-51.46"/>
<polygon fill="#9a32cd" stroke="#9a32cd" points="673.42,-20.08 663.07,-22.34 672.57,-27.03 673.42,-20.08"/>
</a>
</g>
<text text-anchor="middle" x="716.5" y="-39" font-family="Helvetica,sans-Serif" font-size="10.00" fill="grey"> webrtc_config</text>
</g>
<!-- Node8 -->
<g id="Node000008" class="node">
<title>Node8</title>
<g id="a_Node000008"><a xlink:title=" ">
<polygon fill="white" stroke="#666666" points="416,-30 279,-30 279,0 416,0 416,-30"/>
<text text-anchor="start" x="287" y="-18" font-family="Helvetica,sans-Serif" font-size="10.00">std::vector&lt; mosaic</text>
<text text-anchor="middle" x="347.5" y="-7" font-family="Helvetica,sans-Serif" font-size="10.00">::core::IceServerConfig &gt;</text>
</a>
</g>
</g>
<!-- Node8&#45;&gt;Node7 -->
<g id="edge8_Node000007_Node000008" class="edge">
<title>Node8&#45;&gt;Node7</title>
<g id="a_edge8_Node000007_Node000008"><a xlink:title=" ">
<path fill="none" stroke="#9a32cd" stroke-dasharray="5,2" d="M426.44,-15C453.51,-15 483.8,-15 510.66,-15"/>
<polygon fill="#9a32cd" stroke="#9a32cd" points="426.24,-11.5 416.24,-15 426.24,-18.5 426.24,-11.5"/>
</a>
</g>
<text text-anchor="middle" x="463.5" y="-18" font-family="Helvetica,sans-Serif" font-size="10.00" fill="grey"> ice_servers</text>
</g>
<!-- Node9 -->
<g id="Node000009" class="node">
<title>Node9</title>
<g id="a_Node000009"><a xlink:title=" ">
<polygon fill="white" stroke="#666666" points="105.5,-24.5 8.5,-24.5 8.5,-5.5 105.5,-5.5 105.5,-24.5"/>
<text text-anchor="middle" x="57" y="-12.5" font-family="Helvetica,sans-Serif" font-size="10.00">std::vector&lt; T &gt;</text>
</a>
</g>
</g>
<!-- Node9&#45;&gt;Node8 -->
<g id="edge9_Node000008_Node000009" class="edge">
<title>Node9&#45;&gt;Node8</title>
<g id="a_edge9_Node000008_Node000009"><a xlink:title=" ">
<path fill="none" stroke="orange" stroke-dasharray="5,2" d="M115.67,-15C162.71,-15 229.26,-15 278.82,-15"/>
<polygon fill="orange" stroke="orange" points="115.64,-11.5 105.64,-15 115.64,-18.5 115.64,-11.5"/>
</a>
</g>
<text text-anchor="start" x="132" y="-29" font-family="Helvetica,sans-Serif" font-size="10.00" fill="grey"> &lt; mosaic::core::IceServer</text>
<text text-anchor="middle" x="196.5" y="-18" font-family="Helvetica,sans-Serif" font-size="10.00" fill="grey">Config &gt;</text>
</g>
</g>
</svg>

<g id="navigator" transform="translate(0 0)" fill="#404254">
  <rect fill="#f2f5e9" fill-opacity="0.5" stroke="#606060" stroke-width=".5" x="0" y="0" width="60" height="60"/>
  <use id="zoomplus" xlink:href="#zoomPlus" x="17" y="9" onmousedown="handleZoom(evt,'in')"/>
  <use id="zoomminus" xlink:href="#zoomMin" x="42" y="9" onmousedown="handleZoom(evt,'out')"/>
  <use id="reset" xlink:href="#resetDef" x="30" y="36" onmousedown="handleReset()"/>
   <use id="arrowup" xlink:href="#arrowUp" x="0" y="0" onmousedown="handlePan(0,-1)"/>
  <use id="arrowright" xlink:href="#arrowRight" x="0" y="0" onmousedown="handlePan(1,0)"/>
  <use id="arrowdown" xlink:href="#arrowDown" x="0" y="0" onmousedown="handlePan(0,1)"/>
  <use id="arrowleft" xlink:href="#arrowLeft" x="0" y="0" onmousedown="handlePan(-1,0)"/>
</g>
<svg viewBox="0 0 15 15" width="100%" height="30px" preserveAspectRatio="xMaxYMin meet">
 <g id="arrow_out" transform="scale(0.3 0.3)">
  <a xlink:href="structmosaic_1_1core_1_1ServerConfig__coll__graph_org.svg" target="_base">
   <rect id="button" ry="5" rx="5" y="6" x="6" height="38" width="38"
        fill="#f2f5e9" fill-opacity="0.5" stroke="#606060" stroke-width="1.0"/>
   <path id="arrow"
     d="M 11.500037,31.436501 C 11.940474,20.09759 22.043105,11.32322 32.158766,21.979434 L 37.068811,17.246167 C 37.068811,17.246167 37.088388,32 37.088388,32 L 22.160133,31.978069 C 22.160133,31.978069 26.997745,27.140456 26.997745,27.140456 C 18.528582,18.264221 13.291696,25.230495 11.500037,31.436501 z"
     style="fill:#404040;"/>
  </a>
 </g>
</svg>

<style type='text/css'>
<![CDATA[
[data-mouse-over-selected='false'] { opacity: 0.7; }
[data-mouse-over-selected='true']  { opacity: 1.0; }
]]>
</style>
<script type="application/ecmascript"><![CDATA[
document.addEventListener('DOMContentLoaded', (event) => {
  highlightEdges();
  highlightAdjacentNodes();
});
]]></script>
</svg>
