<?xml version="1.0" encoding="UTF-8" standalone="no"?>
<!DOCTYPE svg PUBLIC "-//W3C//DTD SVG 1.1//EN"
 "http://www.w3.org/Graphics/SVG/1.1/DTD/svg11.dtd">
<!-- Generated by graphviz version 2.43.0 (0)
 -->
<!-- Title: mosaic::core::WebRtcConfig Pages: 1 -->
<svg width="213pt" height="181pt"
 viewBox="0.00 0.00 213.00 181.00" xmlns="http://www.w3.org/2000/svg" xmlns:xlink="http://www.w3.org/1999/xlink">
<g id="graph0" class="graph" transform="scale(1 1) rotate(0) translate(4 177)">
<title>mosaic::core::WebRtcConfig</title>
<!-- Node1 -->
<g id="Node000001" class="node">
<title>Node1</title>
<g id="a_Node000001"><a xlink:title=" ">
<polygon fill="#999999" stroke="#666666" points="152,-19 0,-19 0,0 152,0 152,-19"/>
<text text-anchor="middle" x="76" y="-7" font-family="Helvetica,sans-Serif" font-size="10.00">mosaic::core::WebRtcConfig</text>
</a>
</g>
</g>
<!-- Node2 -->
<g id="Node000002" class="node">
<title>Node2</title>
<g id="a_Node000002"><a xlink:title=" ">
<polygon fill="white" stroke="#666666" points="144.5,-96 7.5,-96 7.5,-66 144.5,-66 144.5,-96"/>
<text text-anchor="start" x="15.5" y="-84" font-family="Helvetica,sans-Serif" font-size="10.00">std::vector&lt; mosaic</text>
<text text-anchor="middle" x="76" y="-73" font-family="Helvetica,sans-Serif" font-size="10.00">::core::IceServerConfig &gt;</text>
</a>
</g>
</g>
<!-- Node2&#45;&gt;Node1 -->
<g id="edge1_Node000001_Node000002" class="edge">
<title>Node2&#45;&gt;Node1</title>
<g id="a_edge1_Node000001_Node000002"><a xlink:title=" ">
<path fill="none" stroke="#9a32cd" stroke-dasharray="5,2" d="M76,-55.56C76,-42.95 76,-28.35 76,-19.27"/>
<polygon fill="#9a32cd" stroke="#9a32cd" points="72.5,-55.94 76,-65.94 79.5,-55.94 72.5,-55.94"/>
</a>
</g>
<text text-anchor="middle" x="105.5" y="-40" font-family="Helvetica,sans-Serif" font-size="10.00" fill="grey"> ice_servers</text>
</g>
<!-- Node3 -->
<g id="Node000003" class="node">
<title>Node3</title>
<g id="a_Node000003"><a xlink:title=" ">
<polygon fill="white" stroke="#666666" points="124.5,-173 27.5,-173 27.5,-154 124.5,-154 124.5,-173"/>
<text text-anchor="middle" x="76" y="-161" font-family="Helvetica,sans-Serif" font-size="10.00">std::vector&lt; T &gt;</text>
</a>
</g>
</g>
<!-- Node3&#45;&gt;Node2 -->
<g id="edge2_Node000002_Node000003" class="edge">
<title>Node3&#45;&gt;Node2</title>
<g id="a_edge2_Node000002_Node000003"><a xlink:title=" ">
<path fill="none" stroke="orange" stroke-dasharray="5,2" d="M76,-143.6C76,-129.1 76,-109.4 76,-96.22"/>
<polygon fill="orange" stroke="orange" points="72.5,-143.89 76,-153.89 79.5,-143.89 72.5,-143.89"/>
</a>
</g>
<text text-anchor="start" x="76" y="-128" font-family="Helvetica,sans-Serif" font-size="10.00" fill="grey"> &lt; mosaic::core::IceServer</text>
<text text-anchor="middle" x="140.5" y="-117" font-family="Helvetica,sans-Serif" font-size="10.00" fill="grey">Config &gt;</text>
</g>
</g>
</svg>
