<?xml version="1.0" encoding="UTF-8" standalone="no"?>
<!DOCTYPE svg PUBLIC "-//W3C//DTD SVG 1.1//EN"
 "http://www.w3.org/Graphics/SVG/1.1/DTD/svg11.dtd">
<!-- Generated by graphviz version 2.43.0 (0)
 -->
<!-- Title: mosaic::core::MosaicConfig Pages: 1 -->
<svg width="1231pt" height="210pt"
 viewBox="0.00 0.00 1231.00 210.00" xmlns="http://www.w3.org/2000/svg" xmlns:xlink="http://www.w3.org/1999/xlink">
<g id="graph0" class="graph" transform="scale(1 1) rotate(0) translate(4 206)">
<title>mosaic::core::MosaicConfig</title>
<!-- Node1 -->
<g id="Node000001" class="node">
<title>Node1</title>
<g id="a_Node000001"><a xlink:title=" ">
<polygon fill="#999999" stroke="#666666" points="1223,-50.5 1073,-50.5 1073,-31.5 1223,-31.5 1223,-50.5"/>
<text text-anchor="middle" x="1148" y="-38.5" font-family="Helvetica,sans-Serif" font-size="10.00">mosaic::core::MosaicConfig</text>
</a>
</g>
</g>
<!-- Node2 -->
<g id="Node000002" class="node">
<title>Node2</title>
<g id="a_Node000002"><a xlink:href="structmosaic_1_1core_1_1ServerConfig.html" target="_top" xlink:title=" ">
<polygon fill="white" stroke="#666666" points="1003,-98.5 856,-98.5 856,-79.5 1003,-79.5 1003,-98.5"/>
<text text-anchor="middle" x="929.5" y="-86.5" font-family="Helvetica,sans-Serif" font-size="10.00">mosaic::core::ServerConfig</text>
</a>
</g>
</g>
<!-- Node2&#45;&gt;Node1 -->
<g id="edge1_Node000001_Node000002" class="edge">
<title>Node2&#45;&gt;Node1</title>
<g id="a_edge1_Node000001_Node000002"><a xlink:title=" ">
<path fill="none" stroke="#9a32cd" stroke-dasharray="5,2" d="M983.65,-77.22C1020.69,-69 1069.47,-58.19 1104.05,-50.52"/>
<polygon fill="#9a32cd" stroke="#9a32cd" points="982.54,-73.88 973.53,-79.46 984.05,-80.71 982.54,-73.88"/>
</a>
</g>
<text text-anchor="middle" x="1038" y="-70" font-family="Helvetica,sans-Serif" font-size="10.00" fill="grey"> server</text>
</g>
<!-- Node3 -->
<g id="Node000003" class="node">
<title>Node3</title>
<g id="a_Node000003"><a xlink:title=" ">
<polygon fill="white" stroke="#666666" points="384,-126.5 319,-126.5 319,-107.5 384,-107.5 384,-126.5"/>
<text text-anchor="middle" x="351.5" y="-114.5" font-family="Helvetica,sans-Serif" font-size="10.00">std::string</text>
</a>
</g>
</g>
<!-- Node3&#45;&gt;Node2 -->
<g id="edge2_Node000002_Node000003" class="edge">
<title>Node3&#45;&gt;Node2</title>
<g id="a_edge2_Node000002_Node000003"><a xlink:title=" ">
<path fill="none" stroke="#9a32cd" stroke-dasharray="5,2" d="M394.33,-114.97C491.54,-110.24 733.71,-98.47 855.76,-92.54"/>
<polygon fill="#9a32cd" stroke="#9a32cd" points="394.11,-111.47 384.29,-115.45 394.45,-118.46 394.11,-111.47"/>
</a>
</g>
<text text-anchor="middle" x="673" y="-107" font-family="Helvetica,sans-Serif" font-size="10.00" fill="grey"> ws_url</text>
</g>
<!-- Node5 -->
<g id="Node000005" class="node">
<title>Node5</title>
<g id="a_Node000005"><a xlink:href="structmosaic_1_1core_1_1AuthConfig.html" target="_top" xlink:title=" ">
<polygon fill="white" stroke="#666666" points="742,-150.5 604,-150.5 604,-131.5 742,-131.5 742,-150.5"/>
<text text-anchor="middle" x="673" y="-138.5" font-family="Helvetica,sans-Serif" font-size="10.00">mosaic::core::AuthConfig</text>
</a>
</g>
</g>
<!-- Node3&#45;&gt;Node5 -->
<g id="edge5_Node000005_Node000003" class="edge">
<title>Node3&#45;&gt;Node5</title>
<g id="a_edge5_Node000005_Node000003"><a xlink:title=" ">
<path fill="none" stroke="#9a32cd" stroke-dasharray="5,2" d="M394.1,-120.12C447.29,-124.12 540.09,-131.09 603.72,-135.87"/>
<polygon fill="#9a32cd" stroke="#9a32cd" points="394.24,-116.63 384.01,-119.37 393.72,-123.61 394.24,-116.63"/>
</a>
</g>
<text text-anchor="middle" x="508.5" y="-147" font-family="Helvetica,sans-Serif" font-size="10.00" fill="grey"> robot_id</text>
<text text-anchor="middle" x="508.5" y="-136" font-family="Helvetica,sans-Serif" font-size="10.00" fill="grey">type</text>
</g>
<!-- Node4 -->
<g id="Node000004" class="node">
<title>Node4</title>
<g id="a_Node000004"><a xlink:title=" ">
<polygon fill="white" stroke="#666666" points="109,-132 5,-132 5,-102 109,-102 109,-132"/>
<text text-anchor="start" x="13" y="-120" font-family="Helvetica,sans-Serif" font-size="10.00">std::basic_string&lt;</text>
<text text-anchor="middle" x="57" y="-109" font-family="Helvetica,sans-Serif" font-size="10.00"> Char &gt;</text>
</a>
</g>
</g>
<!-- Node4&#45;&gt;Node3 -->
<g id="edge3_Node000003_Node000004" class="edge">
<title>Node4&#45;&gt;Node3</title>
<g id="a_edge3_Node000003_Node000004"><a xlink:title=" ">
<path fill="none" stroke="#63b8ff" d="M119.53,-117C180.38,-117 271.1,-117 318.71,-117"/>
<polygon fill="#63b8ff" stroke="#63b8ff" points="119.28,-113.5 109.28,-117 119.28,-120.5 119.28,-113.5"/>
</a>
</g>
</g>
<!-- Node5&#45;&gt;Node2 -->
<g id="edge4_Node000002_Node000005" class="edge">
<title>Node5&#45;&gt;Node2</title>
<g id="a_edge4_Node000002_Node000005"><a xlink:title=" ">
<path fill="none" stroke="#9a32cd" stroke-dasharray="5,2" d="M752.47,-131.3C779.71,-127.33 810.34,-122.2 838,-116 859.12,-111.26 882.52,-104.23 900.23,-98.53"/>
<polygon fill="#9a32cd" stroke="#9a32cd" points="751.62,-127.88 742.22,-132.76 752.61,-134.81 751.62,-127.88"/>
</a>
</g>
<text text-anchor="middle" x="802.5" y="-131" font-family="Helvetica,sans-Serif" font-size="10.00" fill="grey"> auth_config</text>
</g>
<!-- Node6 -->
<g id="Node000006" class="node">
<title>Node6</title>
<g id="a_Node000006"><a xlink:title=" ">
<polygon fill="white" stroke="#666666" points="408.5,-200.5 294.5,-200.5 294.5,-159.5 408.5,-159.5 408.5,-200.5"/>
<text text-anchor="start" x="302.5" y="-188.5" font-family="Helvetica,sans-Serif" font-size="10.00">std::unordered_map</text>
<text text-anchor="start" x="302.5" y="-177.5" font-family="Helvetica,sans-Serif" font-size="10.00">&lt; std::string, std::</text>
<text text-anchor="middle" x="351.5" y="-166.5" font-family="Helvetica,sans-Serif" font-size="10.00">string &gt;</text>
</a>
</g>
</g>
<!-- Node6&#45;&gt;Node5 -->
<g id="edge6_Node000005_Node000006" class="edge">
<title>Node6&#45;&gt;Node5</title>
<g id="a_edge6_Node000005_Node000006"><a xlink:title=" ">
<path fill="none" stroke="#9a32cd" stroke-dasharray="5,2" d="M418.49,-175.06C463.77,-171.31 525.16,-165.52 579,-158 593.79,-155.93 609.82,-153.19 624.33,-150.51"/>
<polygon fill="#9a32cd" stroke="#9a32cd" points="418.19,-171.57 408.5,-175.88 418.75,-178.55 418.19,-171.57"/>
</a>
</g>
<text text-anchor="middle" x="508.5" y="-176" font-family="Helvetica,sans-Serif" font-size="10.00" fill="grey"> params</text>
</g>
<!-- Node7 -->
<g id="Node000007" class="node">
<title>Node7</title>
<g id="a_Node000007"><a xlink:title=" ">
<polygon fill="white" stroke="#666666" points="114,-195 0,-195 0,-165 114,-165 114,-195"/>
<text text-anchor="start" x="8" y="-183" font-family="Helvetica,sans-Serif" font-size="10.00">std::unordered_map</text>
<text text-anchor="middle" x="57" y="-172" font-family="Helvetica,sans-Serif" font-size="10.00">&lt; K, T &gt;</text>
</a>
</g>
</g>
<!-- Node7&#45;&gt;Node6 -->
<g id="edge7_Node000006_Node000007" class="edge">
<title>Node7&#45;&gt;Node6</title>
<g id="a_edge7_Node000006_Node000007"><a xlink:title=" ">
<path fill="none" stroke="orange" stroke-dasharray="5,2" d="M124.35,-180C175.56,-180 245.63,-180 294.14,-180"/>
<polygon fill="orange" stroke="orange" points="124.05,-176.5 114.05,-180 124.05,-183.5 124.05,-176.5"/>
</a>
</g>
<text text-anchor="start" x="156" y="-194" font-family="Helvetica,sans-Serif" font-size="10.00" fill="grey"> &lt; std::string, std</text>
<text text-anchor="middle" x="198.5" y="-183" font-family="Helvetica,sans-Serif" font-size="10.00" fill="grey">::string &gt;</text>
</g>
<!-- Node8 -->
<g id="Node000008" class="node">
<title>Node8</title>
<g id="a_Node000008"><a xlink:href="structmosaic_1_1core_1_1WebRtcConfig.html" target="_top" xlink:title=" ">
<polygon fill="white" stroke="#666666" points="749,-65.5 597,-65.5 597,-46.5 749,-46.5 749,-65.5"/>
<text text-anchor="middle" x="673" y="-53.5" font-family="Helvetica,sans-Serif" font-size="10.00">mosaic::core::WebRtcConfig</text>
</a>
</g>
</g>
<!-- Node8&#45;&gt;Node2 -->
<g id="edge8_Node000002_Node000008" class="edge">
<title>Node8&#45;&gt;Node2</title>
<g id="a_edge8_Node000002_Node000008"><a xlink:title=" ">
<path fill="none" stroke="#9a32cd" stroke-dasharray="5,2" d="M759.09,-66.82C784.48,-70.07 812.37,-73.66 838,-77 844.13,-77.8 850.49,-78.63 856.87,-79.47"/>
<polygon fill="#9a32cd" stroke="#9a32cd" points="759.48,-63.34 749.12,-65.55 758.6,-70.29 759.48,-63.34"/>
</a>
</g>
<text text-anchor="middle" x="802.5" y="-80" font-family="Helvetica,sans-Serif" font-size="10.00" fill="grey"> webrtc_config</text>
</g>
<!-- Node9 -->
<g id="Node000009" class="node">
<title>Node9</title>
<g id="a_Node000009"><a xlink:title=" ">
<polygon fill="white" stroke="#666666" points="420,-72 283,-72 283,-42 420,-42 420,-72"/>
<text text-anchor="start" x="291" y="-60" font-family="Helvetica,sans-Serif" font-size="10.00">std::vector&lt; mosaic</text>
<text text-anchor="middle" x="351.5" y="-49" font-family="Helvetica,sans-Serif" font-size="10.00">::core::IceServerConfig &gt;</text>
</a>
</g>
</g>
<!-- Node9&#45;&gt;Node8 -->
<g id="edge9_Node000008_Node000009" class="edge">
<title>Node9&#45;&gt;Node8</title>
<g id="a_edge9_Node000008_Node000009"><a xlink:title=" ">
<path fill="none" stroke="#9a32cd" stroke-dasharray="5,2" d="M430.5,-56.76C481.12,-56.6 546.74,-56.39 596.79,-56.24"/>
<polygon fill="#9a32cd" stroke="#9a32cd" points="430.25,-53.26 420.26,-56.79 430.27,-60.26 430.25,-53.26"/>
</a>
</g>
<text text-anchor="middle" x="508.5" y="-60" font-family="Helvetica,sans-Serif" font-size="10.00" fill="grey"> ice_servers</text>
</g>
<!-- Node10 -->
<g id="Node000010" class="node">
<title>Node10</title>
<g id="a_Node000010"><a xlink:title=" ">
<polygon fill="white" stroke="#666666" points="105.5,-45.5 8.5,-45.5 8.5,-26.5 105.5,-26.5 105.5,-45.5"/>
<text text-anchor="middle" x="57" y="-33.5" font-family="Helvetica,sans-Serif" font-size="10.00">std::vector&lt; T &gt;</text>
</a>
</g>
</g>
<!-- Node10&#45;&gt;Node9 -->
<g id="edge10_Node000009_Node000010" class="edge">
<title>Node10&#45;&gt;Node9</title>
<g id="a_edge10_Node000009_Node000010"><a xlink:title=" ">
<path fill="none" stroke="orange" stroke-dasharray="5,2" d="M115.88,-40.16C163.94,-43.61 232.38,-48.52 282.94,-52.15"/>
<polygon fill="orange" stroke="orange" points="115.87,-36.65 105.65,-39.42 115.37,-43.63 115.87,-36.65"/>
</a>
</g>
<text text-anchor="start" x="134" y="-65" font-family="Helvetica,sans-Serif" font-size="10.00" fill="grey"> &lt; mosaic::core::IceServer</text>
<text text-anchor="middle" x="198.5" y="-54" font-family="Helvetica,sans-Serif" font-size="10.00" fill="grey">Config &gt;</text>
</g>
<!-- Node11 -->
<g id="Node000011" class="node">
<title>Node11</title>
<g id="a_Node000011"><a xlink:title=" ">
<polygon fill="white" stroke="#666666" points="579,-30 438,-30 438,0 579,0 579,-30"/>
<text text-anchor="start" x="446" y="-18" font-family="Helvetica,sans-Serif" font-size="10.00">std::vector&lt; mosaic</text>
<text text-anchor="middle" x="508.5" y="-7" font-family="Helvetica,sans-Serif" font-size="10.00">::core::ConnectorConfig &gt;</text>
</a>
</g>
</g>
<!-- Node10&#45;&gt;Node11 -->
<g id="edge12_Node000011_Node000010" class="edge">
<title>Node10&#45;&gt;Node11</title>
<g id="a_edge12_Node000011_Node000010"><a xlink:title=" ">
<path fill="none" stroke="orange" stroke-dasharray="5,2" d="M96.13,-23.66C107.54,-20.52 120.17,-17.59 132,-16 237.96,-1.79 362.27,-5.38 437.92,-9.79"/>
<polygon fill="orange" stroke="orange" points="95.1,-20.31 86.46,-26.44 97.04,-27.04 95.1,-20.31"/>
</a>
</g>
<text text-anchor="start" x="132" y="-30" font-family="Helvetica,sans-Serif" font-size="10.00" fill="grey"> &lt; mosaic::core::Connector</text>
<text text-anchor="middle" x="198.5" y="-19" font-family="Helvetica,sans-Serif" font-size="10.00" fill="grey">Config &gt;</text>
</g>
<!-- Node11&#45;&gt;Node1 -->
<g id="edge11_Node000001_Node000011" class="edge">
<title>Node11&#45;&gt;Node1</title>
<g id="a_edge11_Node000001_Node000011"><a xlink:title=" ">
<path fill="none" stroke="#9a32cd" stroke-dasharray="5,2" d="M589.46,-18.26C713.88,-23.34 952.04,-33.05 1072.83,-37.97"/>
<polygon fill="#9a32cd" stroke="#9a32cd" points="589.38,-14.75 579.24,-17.84 589.09,-21.75 589.38,-14.75"/>
</a>
</g>
<text text-anchor="middle" x="802.5" y="-32" font-family="Helvetica,sans-Serif" font-size="10.00" fill="grey"> connectors</text>
</g>
</g>
</svg>
