<?xml version="1.0" encoding="UTF-8" standalone="no"?>
<!DOCTYPE svg PUBLIC "-//W3C//DTD SVG 1.1//EN"
 "http://www.w3.org/Graphics/SVG/1.1/DTD/svg11.dtd">
<!-- Generated by graphviz version 2.43.0 (0)
 -->
<!-- Title: src/handlers/media_track/video_recorder.cpp Pages: 1 -->
<svg width="578pt" height="159pt"
 viewBox="0.00 0.00 578.00 159.00" xmlns="http://www.w3.org/2000/svg" xmlns:xlink="http://www.w3.org/1999/xlink">
<g id="graph0" class="graph" transform="scale(1 1) rotate(0) translate(4 155)">
<title>src/handlers/media_track/video_recorder.cpp</title>
<!-- Node1 -->
<g id="Node000001" class="node">
<title>Node1</title>
<g id="a_Node000001"><a xlink:title=" ">
<polygon fill="#999999" stroke="#666666" points="290,-151 148,-151 148,-121 290,-121 290,-151"/>
<text text-anchor="start" x="156" y="-139" font-family="Helvetica,sans-Serif" font-size="10.00">src/handlers/media</text>
<text text-anchor="middle" x="219" y="-128" font-family="Helvetica,sans-Serif" font-size="10.00">_track/video_recorder.cpp</text>
</a>
</g>
</g>
<!-- Node2 -->
<g id="Node000002" class="node">
<title>Node2</title>
<g id="a_Node000002"><a xlink:title=" ">
<polygon fill="#e0e0e0" stroke="#999999" points="50,-79.5 0,-79.5 0,-60.5 50,-60.5 50,-79.5"/>
<text text-anchor="middle" x="25" y="-67.5" font-family="Helvetica,sans-Serif" font-size="10.00">chrono</text>
</a>
</g>
</g>
<!-- Node1&#45;&gt;Node2 -->
<g id="edge1_Node000001_Node000002" class="edge">
<title>Node1&#45;&gt;Node2</title>
<g id="a_edge1_Node000001_Node000002"><a xlink:title=" ">
<path fill="none" stroke="#63b8ff" d="M170.32,-121C138.42,-111.53 95.95,-98.35 59,-85 57.57,-84.48 56.12,-83.94 54.66,-83.39"/>
<polygon fill="#63b8ff" stroke="#63b8ff" points="55.61,-80 45.02,-79.59 53.04,-86.51 55.61,-80"/>
</a>
</g>
</g>
<!-- Node3 -->
<g id="Node000003" class="node">
<title>Node3</title>
<g id="a_Node000003"><a xlink:title=" ">
<polygon fill="#e0e0e0" stroke="#999999" points="136,-79.5 68,-79.5 68,-60.5 136,-60.5 136,-79.5"/>
<text text-anchor="middle" x="102" y="-67.5" font-family="Helvetica,sans-Serif" font-size="10.00">filesystem</text>
</a>
</g>
</g>
<!-- Node1&#45;&gt;Node3 -->
<g id="edge2_Node000001_Node000003" class="edge">
<title>Node1&#45;&gt;Node3</title>
<g id="a_edge2_Node000001_Node000003"><a xlink:title=" ">
<path fill="none" stroke="#63b8ff" d="M193.32,-120.95C173.44,-110.08 146.07,-95.11 126.49,-84.4"/>
<polygon fill="#63b8ff" stroke="#63b8ff" points="128.02,-81.25 117.57,-79.52 124.66,-87.39 128.02,-81.25"/>
</a>
</g>
</g>
<!-- Node4 -->
<g id="Node000004" class="node">
<title>Node4</title>
<g id="a_Node000004"><a xlink:title=" ">
<polygon fill="#e0e0e0" stroke="#999999" points="210,-79.5 154,-79.5 154,-60.5 210,-60.5 210,-79.5"/>
<text text-anchor="middle" x="182" y="-67.5" font-family="Helvetica,sans-Serif" font-size="10.00">iomanip</text>
</a>
</g>
</g>
<!-- Node1&#45;&gt;Node4 -->
<g id="edge3_Node000001_Node000004" class="edge">
<title>Node1&#45;&gt;Node4</title>
<g id="a_edge3_Node000001_Node000004"><a xlink:title=" ">
<path fill="none" stroke="#63b8ff" d="M210.79,-120.8C205.3,-111.31 198.05,-98.76 192.19,-88.63"/>
<polygon fill="#63b8ff" stroke="#63b8ff" points="195.15,-86.75 187.11,-79.84 189.09,-90.25 195.15,-86.75"/>
</a>
</g>
</g>
<!-- Node5 -->
<g id="Node000005" class="node">
<title>Node5</title>
<g id="a_Node000005"><a xlink:title=" ">
<polygon fill="#e0e0e0" stroke="#999999" points="284,-79.5 228,-79.5 228,-60.5 284,-60.5 284,-79.5"/>
<text text-anchor="middle" x="256" y="-67.5" font-family="Helvetica,sans-Serif" font-size="10.00">sstream</text>
</a>
</g>
</g>
<!-- Node1&#45;&gt;Node5 -->
<g id="edge4_Node000001_Node000005" class="edge">
<title>Node1&#45;&gt;Node5</title>
<g id="a_edge4_Node000001_Node000005"><a xlink:title=" ">
<path fill="none" stroke="#63b8ff" d="M227.21,-120.8C232.7,-111.31 239.95,-98.76 245.81,-88.63"/>
<polygon fill="#63b8ff" stroke="#63b8ff" points="248.91,-90.25 250.89,-79.84 242.85,-86.75 248.91,-90.25"/>
</a>
</g>
</g>
<!-- Node6 -->
<g id="Node000006" class="node">
<title>Node6</title>
<g id="a_Node000006"><a xlink:href="video__recorder_8h.html" target="_top" xlink:title=" ">
<polygon fill="white" stroke="#666666" points="433.5,-85 302.5,-85 302.5,-55 433.5,-55 433.5,-85"/>
<text text-anchor="start" x="310.5" y="-73" font-family="Helvetica,sans-Serif" font-size="10.00">mosaic/handlers/media</text>
<text text-anchor="middle" x="368" y="-62" font-family="Helvetica,sans-Serif" font-size="10.00">_track/video_recorder.h</text>
</a>
</g>
</g>
<!-- Node1&#45;&gt;Node6 -->
<g id="edge5_Node000001_Node000006" class="edge">
<title>Node1&#45;&gt;Node6</title>
<g id="a_edge5_Node000001_Node000006"><a xlink:title=" ">
<path fill="none" stroke="#63b8ff" d="M251.7,-120.95C273.53,-111.58 302.45,-99.16 325.99,-89.05"/>
<polygon fill="#63b8ff" stroke="#63b8ff" points="327.57,-92.17 335.38,-85.01 324.81,-85.74 327.57,-92.17"/>
</a>
</g>
</g>
<!-- Node10 -->
<g id="Node000010" class="node">
<title>Node10</title>
<g id="a_Node000010"><a xlink:title=" ">
<polygon fill="#e0e0e0" stroke="#999999" points="570,-79.5 452,-79.5 452,-60.5 570,-60.5 570,-79.5"/>
<text text-anchor="middle" x="511" y="-67.5" font-family="Helvetica,sans-Serif" font-size="10.00">opencv2/videoio.hpp</text>
</a>
</g>
</g>
<!-- Node1&#45;&gt;Node10 -->
<g id="edge9_Node000001_Node000010" class="edge">
<title>Node1&#45;&gt;Node10</title>
<g id="a_edge9_Node000001_Node000010"><a xlink:title=" ">
<path fill="none" stroke="#63b8ff" d="M283.08,-120.95C337,-109.14 412.95,-92.49 462.08,-81.72"/>
<polygon fill="#63b8ff" stroke="#63b8ff" points="463.12,-85.08 472.14,-79.52 461.62,-78.24 463.12,-85.08"/>
</a>
</g>
</g>
<!-- Node7 -->
<g id="Node000007" class="node">
<title>Node7</title>
<g id="a_Node000007"><a xlink:title=" ">
<polygon fill="#e0e0e0" stroke="#999999" points="328,-19 270,-19 270,0 328,0 328,-19"/>
<text text-anchor="middle" x="299" y="-7" font-family="Helvetica,sans-Serif" font-size="10.00">memory</text>
</a>
</g>
</g>
<!-- Node6&#45;&gt;Node7 -->
<g id="edge6_Node000006_Node000007" class="edge">
<title>Node6&#45;&gt;Node7</title>
<g id="a_edge6_Node000006_Node000007"><a xlink:title=" ">
<path fill="none" stroke="#63b8ff" d="M351.3,-54.84C340.97,-46.09 327.72,-34.85 317.14,-25.88"/>
<polygon fill="#63b8ff" stroke="#63b8ff" points="319.23,-23.06 309.34,-19.27 314.7,-28.4 319.23,-23.06"/>
</a>
</g>
</g>
<!-- Node8 -->
<g id="Node000008" class="node">
<title>Node8</title>
<g id="a_Node000008"><a xlink:title=" ">
<polygon fill="#e0e0e0" stroke="#999999" points="390,-19 346,-19 346,0 390,0 390,-19"/>
<text text-anchor="middle" x="368" y="-7" font-family="Helvetica,sans-Serif" font-size="10.00">string</text>
</a>
</g>
</g>
<!-- Node6&#45;&gt;Node8 -->
<g id="edge7_Node000006_Node000008" class="edge">
<title>Node6&#45;&gt;Node8</title>
<g id="a_edge7_Node000006_Node000008"><a xlink:title=" ">
<path fill="none" stroke="#63b8ff" d="M368,-54.84C368,-47.21 368,-37.7 368,-29.45"/>
<polygon fill="#63b8ff" stroke="#63b8ff" points="371.5,-29.27 368,-19.27 364.5,-29.27 371.5,-29.27"/>
</a>
</g>
</g>
<!-- Node9 -->
<g id="Node000009" class="node">
<title>Node9</title>
<g id="a_Node000009"><a xlink:title=" ">
<polygon fill="#e0e0e0" stroke="#999999" points="537.5,-19 408.5,-19 408.5,0 537.5,0 537.5,-19"/>
<text text-anchor="middle" x="473" y="-7" font-family="Helvetica,sans-Serif" font-size="10.00">opencv_forward_decl.h</text>
</a>
</g>
</g>
<!-- Node6&#45;&gt;Node9 -->
<g id="edge8_Node000006_Node000009" class="edge">
<title>Node6&#45;&gt;Node9</title>
<g id="a_edge8_Node000006_Node000009"><a xlink:title=" ">
<path fill="none" stroke="#63b8ff" d="M393.15,-54.99C409.89,-45.66 431.77,-33.47 448.39,-24.21"/>
<polygon fill="#63b8ff" stroke="#63b8ff" points="450.46,-27.06 457.49,-19.14 447.05,-20.95 450.46,-27.06"/>
</a>
</g>
</g>
</g>
</svg>
