<?xml version="1.0" encoding="UTF-8" standalone="no"?>
<!DOCTYPE svg PUBLIC "-//W3C//DTD SVG 1.1//EN"
 "http://www.w3.org/Graphics/SVG/1.1/DTD/svg11.dtd">
<!-- Generated by graphviz version 2.43.0 (0)
 -->
<!-- Title: src/signaling/websocket_client.cpp Pages: 1 -->
<svg width="524pt" height="214pt"
 viewBox="0.00 0.00 523.76 214.00" xmlns="http://www.w3.org/2000/svg" xmlns:xlink="http://www.w3.org/1999/xlink">
<g id="graph0" class="graph" transform="scale(1 1) rotate(0) translate(4 210)">
<title>src/signaling/websocket_client.cpp</title>
<!-- Node1 -->
<g id="Node000001" class="node">
<title>Node1</title>
<g id="a_Node000001"><a xlink:title=" ">
<polygon fill="#999999" stroke="#666666" points="306.5,-206 173.5,-206 173.5,-176 306.5,-176 306.5,-206"/>
<text text-anchor="start" x="181.5" y="-194" font-family="Helvetica,sans-Serif" font-size="10.00">src/signaling/websocket</text>
<text text-anchor="middle" x="240" y="-183" font-family="Helvetica,sans-Serif" font-size="10.00">_client.cpp</text>
</a>
</g>
</g>
<!-- Node2 -->
<g id="Node000002" class="node">
<title>Node2</title>
<g id="a_Node000002"><a xlink:href="websocket__client_8hpp.html" target="_top" xlink:title=" ">
<polygon fill="white" stroke="#666666" points="232,-140 78,-140 78,-110 232,-110 232,-140"/>
<text text-anchor="start" x="86" y="-128" font-family="Helvetica,sans-Serif" font-size="10.00">mosaic/signaling/websocket</text>
<text text-anchor="middle" x="155" y="-117" font-family="Helvetica,sans-Serif" font-size="10.00">_client.hpp</text>
</a>
</g>
</g>
<!-- Node1&#45;&gt;Node2 -->
<g id="edge1_Node000001_Node000002" class="edge">
<title>Node1&#45;&gt;Node2</title>
<g id="a_edge1_Node000001_Node000002"><a xlink:title=" ">
<path fill="none" stroke="#63b8ff" d="M221.14,-175.8C209.58,-167.1 194.61,-155.82 181.83,-146.2"/>
<polygon fill="#63b8ff" stroke="#63b8ff" points="183.91,-143.38 173.81,-140.16 179.69,-148.98 183.91,-143.38"/>
</a>
</g>
</g>
<!-- Node8 -->
<g id="Node000008" class="node">
<title>Node8</title>
<g id="a_Node000008"><a xlink:href="websocket__client__impl_8hpp.html" target="_top" xlink:title=" ">
<polygon fill="white" stroke="#666666" points="399.5,-134.5 250.5,-134.5 250.5,-115.5 399.5,-115.5 399.5,-134.5"/>
<text text-anchor="middle" x="325" y="-122.5" font-family="Helvetica,sans-Serif" font-size="10.00">websocket_client_impl.hpp</text>
</a>
</g>
</g>
<!-- Node1&#45;&gt;Node8 -->
<g id="edge7_Node000001_Node000008" class="edge">
<title>Node1&#45;&gt;Node8</title>
<g id="a_edge7_Node000001_Node000008"><a xlink:title=" ">
<path fill="none" stroke="#63b8ff" d="M258.86,-175.8C272.64,-165.43 291.26,-151.4 305.24,-140.88"/>
<polygon fill="#63b8ff" stroke="#63b8ff" points="307.37,-143.66 313.25,-134.84 303.16,-138.06 307.37,-143.66"/>
</a>
</g>
</g>
<!-- Node3 -->
<g id="Node000003" class="node">
<title>Node3</title>
<g id="a_Node000003"><a xlink:title=" ">
<polygon fill="#e0e0e0" stroke="#999999" points="151.5,-74 86.5,-74 86.5,-55 151.5,-55 151.5,-74"/>
<text text-anchor="middle" x="119" y="-62" font-family="Helvetica,sans-Serif" font-size="10.00">functional</text>
</a>
</g>
</g>
<!-- Node2&#45;&gt;Node3 -->
<g id="edge2_Node000002_Node000003" class="edge">
<title>Node2&#45;&gt;Node3</title>
<g id="a_edge2_Node000002_Node000003"><a xlink:title=" ">
<path fill="none" stroke="#63b8ff" d="M146.29,-109.84C141.33,-101.78 135.07,-91.62 129.8,-83.06"/>
<polygon fill="#63b8ff" stroke="#63b8ff" points="132.62,-80.95 124.39,-74.27 126.65,-84.62 132.62,-80.95"/>
</a>
</g>
</g>
<!-- Node4 -->
<g id="Node000004" class="node">
<title>Node4</title>
<g id="a_Node000004"><a xlink:title=" ">
<polygon fill="#e0e0e0" stroke="#999999" points="214,-74 170,-74 170,-55 214,-55 214,-74"/>
<text text-anchor="middle" x="192" y="-62" font-family="Helvetica,sans-Serif" font-size="10.00">string</text>
</a>
</g>
</g>
<!-- Node2&#45;&gt;Node4 -->
<g id="edge3_Node000002_Node000004" class="edge">
<title>Node2&#45;&gt;Node4</title>
<g id="a_edge3_Node000002_Node000004"><a xlink:title=" ">
<path fill="none" stroke="#63b8ff" d="M163.96,-109.84C169.11,-101.69 175.62,-91.4 181.07,-82.78"/>
<polygon fill="#63b8ff" stroke="#63b8ff" points="184.07,-84.59 186.46,-74.27 178.15,-80.85 184.07,-84.59"/>
</a>
</g>
</g>
<!-- Node5 -->
<g id="Node000005" class="node">
<title>Node5</title>
<g id="a_Node000005"><a xlink:title=" ">
<polygon fill="#e0e0e0" stroke="#999999" points="301.5,-74 232.5,-74 232.5,-55 301.5,-55 301.5,-74"/>
<text text-anchor="middle" x="267" y="-62" font-family="Helvetica,sans-Serif" font-size="10.00">json/json.h</text>
</a>
</g>
</g>
<!-- Node2&#45;&gt;Node5 -->
<g id="edge4_Node000002_Node000005" class="edge">
<title>Node2&#45;&gt;Node5</title>
<g id="a_edge4_Node000002_Node000005"><a xlink:title=" ">
<path fill="none" stroke="#63b8ff" d="M181.83,-109.99C199.85,-100.58 223.46,-88.24 241.25,-78.95"/>
<polygon fill="#63b8ff" stroke="#63b8ff" points="243.22,-81.87 250.46,-74.14 239.98,-75.67 243.22,-81.87"/>
</a>
</g>
</g>
<!-- Node6 -->
<g id="Node000006" class="node">
<title>Node6</title>
<g id="a_Node000006"><a xlink:href="utils_8hpp.html" target="_top" xlink:title=" ">
<polygon fill="white" stroke="#666666" points="68,-74 0,-74 0,-55 68,-55 68,-74"/>
<text text-anchor="middle" x="34" y="-62" font-family="Helvetica,sans-Serif" font-size="10.00">../utils.hpp</text>
</a>
</g>
</g>
<!-- Node2&#45;&gt;Node6 -->
<g id="edge5_Node000002_Node000006" class="edge">
<title>Node2&#45;&gt;Node6</title>
<g id="a_edge5_Node000002_Node000006"><a xlink:title=" ">
<path fill="none" stroke="#63b8ff" d="M126.02,-109.99C106.28,-100.45 80.33,-87.9 61.03,-78.57"/>
<polygon fill="#63b8ff" stroke="#63b8ff" points="62.4,-75.34 51.87,-74.14 59.35,-81.64 62.4,-75.34"/>
</a>
</g>
</g>
<!-- Node7 -->
<g id="Node000007" class="node">
<title>Node7</title>
<g id="a_Node000007"><a xlink:title=" ">
<polygon fill="#e0e0e0" stroke="#999999" points="309,-19 251,-19 251,0 309,0 309,-19"/>
<text text-anchor="middle" x="280" y="-7" font-family="Helvetica,sans-Serif" font-size="10.00">memory</text>
</a>
</g>
</g>
<!-- Node6&#45;&gt;Node7 -->
<g id="edge6_Node000006_Node000007" class="edge">
<title>Node6&#45;&gt;Node7</title>
<g id="a_edge6_Node000006_Node000007"><a xlink:title=" ">
<path fill="none" stroke="#63b8ff" d="M68.21,-56.13C113.47,-46.38 193.08,-29.23 240.74,-18.96"/>
<polygon fill="#63b8ff" stroke="#63b8ff" points="241.65,-22.34 250.69,-16.81 240.18,-15.5 241.65,-22.34"/>
</a>
</g>
</g>
<!-- Node8&#45;&gt;Node3 -->
<g id="edge9_Node000008_Node000003" class="edge">
<title>Node8&#45;&gt;Node3</title>
<g id="a_edge9_Node000008_Node000003"><a xlink:title=" ">
<path fill="none" stroke="#63b8ff" d="M295.05,-115.49C259.04,-105.27 198.5,-88.08 158.65,-76.76"/>
<polygon fill="#63b8ff" stroke="#63b8ff" points="159.57,-73.38 148.99,-74.02 157.65,-80.12 159.57,-73.38"/>
</a>
</g>
</g>
<!-- Node8&#45;&gt;Node4 -->
<g id="edge11_Node000008_Node000004" class="edge">
<title>Node8&#45;&gt;Node4</title>
<g id="a_edge11_Node000008_Node000004"><a xlink:title=" ">
<path fill="none" stroke="#63b8ff" d="M305.66,-115.49C283.3,-105.66 246.29,-89.38 220.6,-78.08"/>
<polygon fill="#63b8ff" stroke="#63b8ff" points="221.93,-74.84 211.36,-74.02 219.11,-81.25 221.93,-74.84"/>
</a>
</g>
</g>
<!-- Node8&#45;&gt;Node5 -->
<g id="edge12_Node000008_Node000005" class="edge">
<title>Node8&#45;&gt;Node5</title>
<g id="a_edge12_Node000008_Node000005"><a xlink:title=" ">
<path fill="none" stroke="#63b8ff" d="M316.44,-115.37C307.62,-106.47 293.66,-92.39 282.82,-81.45"/>
<polygon fill="#63b8ff" stroke="#63b8ff" points="285.12,-78.8 275.59,-74.17 280.15,-83.73 285.12,-78.8"/>
</a>
</g>
</g>
<!-- Node8&#45;&gt;Node7 -->
<g id="edge10_Node000008_Node000007" class="edge">
<title>Node8&#45;&gt;Node7</title>
<g id="a_edge10_Node000008_Node000007"><a xlink:title=" ">
<path fill="none" stroke="#63b8ff" d="M399.51,-119.53C463.65,-112.85 540.93,-96.22 507,-55 483.65,-26.63 377.67,-16.08 319.14,-12.37"/>
<polygon fill="#63b8ff" stroke="#63b8ff" points="319.33,-8.87 309.14,-11.77 318.91,-15.86 319.33,-8.87"/>
</a>
</g>
</g>
<!-- Node9 -->
<g id="Node000009" class="node">
<title>Node9</title>
<g id="a_Node000009"><a xlink:title=" ">
<polygon fill="#e0e0e0" stroke="#999999" points="498,-74 448,-74 448,-55 498,-55 498,-74"/>
<text text-anchor="middle" x="473" y="-62" font-family="Helvetica,sans-Serif" font-size="10.00">atomic</text>
</a>
</g>
</g>
<!-- Node8&#45;&gt;Node9 -->
<g id="edge8_Node000008_Node000009" class="edge">
<title>Node8&#45;&gt;Node9</title>
<g id="a_edge8_Node000008_Node000009"><a xlink:title=" ">
<path fill="none" stroke="#63b8ff" d="M346.52,-115.49C371.62,-105.57 413.32,-89.09 441.93,-77.78"/>
<polygon fill="#63b8ff" stroke="#63b8ff" points="443.44,-80.95 451.45,-74.02 440.87,-74.44 443.44,-80.95"/>
</a>
</g>
</g>
<!-- Node10 -->
<g id="Node000010" class="node">
<title>Node10</title>
<g id="a_Node000010"><a xlink:title=" ">
<polygon fill="#e0e0e0" stroke="#999999" points="430,-74 320,-74 320,-55 430,-55 430,-74"/>
<text text-anchor="middle" x="375" y="-62" font-family="Helvetica,sans-Serif" font-size="10.00">cpprest/ws_client.h</text>
</a>
</g>
</g>
<!-- Node8&#45;&gt;Node10 -->
<g id="edge13_Node000008_Node000010" class="edge">
<title>Node8&#45;&gt;Node10</title>
<g id="a_edge13_Node000008_Node000010"><a xlink:title=" ">
<path fill="none" stroke="#63b8ff" d="M332.38,-115.37C339.91,-106.55 351.79,-92.66 361.09,-81.77"/>
<polygon fill="#63b8ff" stroke="#63b8ff" points="363.76,-84.04 367.59,-74.17 358.43,-79.5 363.76,-84.04"/>
</a>
</g>
</g>
</g>
</svg>
