<?xml version="1.0" encoding="UTF-8" standalone="no"?>
<!DOCTYPE svg PUBLIC "-//W3C//DTD SVG 1.1//EN"
 "http://www.w3.org/Graphics/SVG/1.1/DTD/svg11.dtd">
<!-- Generated by graphviz version 2.43.0 (0)
 -->
<!-- Title: src/signaling/websocket_client.cpp Pages: 1 -->
<!--zoomable 280 -->

<svg id="main" version="1.1" xmlns="http://www.w3.org/2000/svg" xmlns:xlink="http://www.w3.org/1999/xlink" xml:space="preserve" onload="init(evt)">
<style type="text/css"><![CDATA[
.node, .edge {opacity: 0.7;}
.node.selected, .edge.selected {opacity: 1;}
.edge:hover path { stroke: red; }
.edge:hover polygon { stroke: red; fill: red; }
]]></style>

<defs>
  <circle id="rim" cx="0" cy="0" r="7"/>
  <circle id="rim2" cx="0" cy="0" r="3.5"/>
  <g id="zoomPlus">
    <use xlink:href="#rim" fill="#404040"><set attributeName="fill" to="#808080" begin="zoomplus.mouseover" end="zoomplus.mouseout"/></use>
    <path d="M-4,0h8M0,-4v8" fill="none" stroke="white" stroke-width="1.5" pointer-events="none"/>
  </g>
  <g id="zoomMin">
    <use xlink:href="#rim" fill="#404040"><set attributeName="fill" to="#808080" begin="zoomminus.mouseover" end="zoomminus.mouseout"/></use>
    <path d="M-4,0h8" fill="none" stroke="white" stroke-width="1.5" pointer-events="none"/>
  </g>
  <g id="arrowUp" transform="translate(30 24)">
    <use xlink:href="#rim"/>
    <path pointer-events="none" fill="none" stroke="white" stroke-width="1.5" d="M0,-3.0v7 M-2.5,-0.5L0,-3.0L2.5,-0.5"/>
  </g>
  <g id="arrowRight" transform="rotate(90) translate(36 -43)">
    <use xlink:href="#rim"/>
    <path pointer-events="none" fill="none" stroke="white" stroke-width="1.5" d="M0,-3.0v7 M-2.5,-0.5L0,-3.0L2.5,-0.5"/>
  </g>
  <g id="arrowDown" transform="rotate(180) translate(-30 -48)">
    <use xlink:href="#rim"/>
    <path pointer-events="none" fill="none" stroke="white" stroke-width="1.5" d="M0,-3.0v7 M-2.5,-0.5L0,-3.0L2.5,-0.5"/>
  </g>
  <g id="arrowLeft" transform="rotate(270) translate(-36 17)">
    <use xlink:href="#rim"/>
    <path pointer-events="none" fill="none" stroke="white" stroke-width="1.5" d="M0,-3.0v7 M-2.5,-0.5L0,-3.0L2.5,-0.5"/>
  </g>
  <g id="resetDef">
    <use xlink:href="#rim2" fill="#404040"><set attributeName="fill" to="#808080" begin="reset.mouseover" end="reset.mouseout"/></use>
  </g>
</defs>
<script type="application/ecmascript">
var viewWidth = 808;
var viewHeight = 280;
var sectionId = 'dynsection-0';
</script>
<script type="application/ecmascript" xlink:href="svg.min.js"/>
<svg id="graph" class="graph">
<g id="viewport">
<title>src/signaling/websocket_client.cpp</title>
<!-- Node1 -->
<g id="Node000001" class="node">
<title>Node1</title>
<g id="a_Node000001"><a xlink:title=" ">
<polygon fill="#999999" stroke="#666666" points="230.5,-272 97.5,-272 97.5,-242 230.5,-242 230.5,-272"/>
<text text-anchor="start" x="105.5" y="-260" font-family="Helvetica,sans-Serif" font-size="10.00">src/signaling/websocket</text>
<text text-anchor="middle" x="164" y="-249" font-family="Helvetica,sans-Serif" font-size="10.00">_client.cpp</text>
</a>
</g>
</g>
<!-- Node2 -->
<g id="Node000002" class="node">
<title>Node2</title>
<g id="a_Node000002"><a xlink:title=" ">
<polygon fill="#e0e0e0" stroke="#999999" points="48,-206 0,-206 0,-187 48,-187 48,-206"/>
<text text-anchor="middle" x="24" y="-194" font-family="Helvetica,sans-Serif" font-size="10.00">thread</text>
</a>
</g>
</g>
<!-- Node1&#45;&gt;Node2 -->
<g id="edge1_Node000001_Node000002" class="edge">
<title>Node1&#45;&gt;Node2</title>
<g id="a_edge1_Node000001_Node000002"><a xlink:title=" ">
<path fill="none" stroke="#63b8ff" d="M130.47,-241.99C107.21,-232.27 76.51,-219.44 54.05,-210.06"/>
<polygon fill="#63b8ff" stroke="#63b8ff" points="55.25,-206.77 44.68,-206.14 52.55,-213.22 55.25,-206.77"/>
</a>
</g>
</g>
<!-- Node3 -->
<g id="Node000003" class="node">
<title>Node3</title>
<g id="a_Node000003"><a xlink:title=" ">
<polygon fill="#e0e0e0" stroke="#999999" points="111.5,-206 66.5,-206 66.5,-187 111.5,-187 111.5,-206"/>
<text text-anchor="middle" x="89" y="-194" font-family="Helvetica,sans-Serif" font-size="10.00">utility</text>
</a>
</g>
</g>
<!-- Node1&#45;&gt;Node3 -->
<g id="edge2_Node000001_Node000003" class="edge">
<title>Node1&#45;&gt;Node3</title>
<g id="a_edge2_Node000001_Node000003"><a xlink:title=" ">
<path fill="none" stroke="#63b8ff" d="M145.84,-241.84C134.51,-233 119.94,-221.63 108.38,-212.62"/>
<polygon fill="#63b8ff" stroke="#63b8ff" points="110.28,-209.66 100.24,-206.27 105.97,-215.18 110.28,-209.66"/>
</a>
</g>
</g>
<!-- Node4 -->
<g id="Node000004" class="node">
<title>Node4</title>
<g id="a_Node000004"><a xlink:title=" ">
<polygon fill="#e0e0e0" stroke="#999999" points="198.5,-206 129.5,-206 129.5,-187 198.5,-187 198.5,-206"/>
<text text-anchor="middle" x="164" y="-194" font-family="Helvetica,sans-Serif" font-size="10.00">json/json.h</text>
</a>
</g>
</g>
<!-- Node1&#45;&gt;Node4 -->
<g id="edge3_Node000001_Node000004" class="edge">
<title>Node1&#45;&gt;Node4</title>
<g id="a_edge3_Node000001_Node000004"><a xlink:title=" ">
<path fill="none" stroke="#63b8ff" d="M164,-241.84C164,-234.21 164,-224.7 164,-216.45"/>
<polygon fill="#63b8ff" stroke="#63b8ff" points="167.5,-216.27 164,-206.27 160.5,-216.27 167.5,-216.27"/>
</a>
</g>
</g>
<!-- Node5 -->
<g id="Node000005" class="node">
<title>Node5</title>
<g id="a_Node000005"><a xlink:href="log_8h.html" target="_top" xlink:title=" ">
<polygon fill="white" stroke="#666666" points="329.5,-206 216.5,-206 216.5,-187 329.5,-187 329.5,-206"/>
<text text-anchor="middle" x="273" y="-194" font-family="Helvetica,sans-Serif" font-size="10.00">mosaic/logger/log.h</text>
</a>
</g>
</g>
<!-- Node1&#45;&gt;Node5 -->
<g id="edge4_Node000001_Node000005" class="edge">
<title>Node1&#45;&gt;Node5</title>
<g id="a_edge4_Node000001_Node000005"><a xlink:title=" ">
<path fill="none" stroke="#63b8ff" d="M190.11,-241.99C207.64,-232.58 230.62,-220.24 247.94,-210.95"/>
<polygon fill="#63b8ff" stroke="#63b8ff" points="249.75,-213.95 256.9,-206.14 246.44,-207.78 249.75,-213.95"/>
</a>
</g>
</g>
<!-- Node13 -->
<g id="Node000013" class="node">
<title>Node13</title>
<g id="a_Node000013"><a xlink:href="websocket__client_8h.html" target="_top" xlink:title=" ">
<polygon fill="white" stroke="#666666" points="584,-151 430,-151 430,-121 584,-121 584,-151"/>
<text text-anchor="start" x="438" y="-139" font-family="Helvetica,sans-Serif" font-size="10.00">mosaic/signaling/websocket</text>
<text text-anchor="middle" x="507" y="-128" font-family="Helvetica,sans-Serif" font-size="10.00">_client.h</text>
</a>
</g>
</g>
<!-- Node1&#45;&gt;Node13 -->
<g id="edge14_Node000001_Node000013" class="edge">
<title>Node1&#45;&gt;Node13</title>
<g id="a_edge14_Node000001_Node000013"><a xlink:title=" ">
<path fill="none" stroke="#63b8ff" d="M218.55,-241.95C253.08,-232.65 298.5,-219.69 338,-206 382.42,-190.6 432.11,-169.88 466.05,-155.17"/>
<polygon fill="#63b8ff" stroke="#63b8ff" points="467.85,-158.21 475.62,-151 465.05,-151.79 467.85,-158.21"/>
</a>
</g>
</g>
<!-- Node6 -->
<g id="Node000006" class="node">
<title>Node6</title>
<g id="a_Node000006"><a xlink:href="i__logger_8h.html" target="_top" xlink:title=" ">
<polygon fill="white" stroke="#666666" points="245,-145.5 181,-145.5 181,-126.5 245,-126.5 245,-145.5"/>
<text text-anchor="middle" x="213" y="-133.5" font-family="Helvetica,sans-Serif" font-size="10.00">i_logger.h</text>
</a>
</g>
</g>
<!-- Node5&#45;&gt;Node6 -->
<g id="edge5_Node000005_Node000006" class="edge">
<title>Node5&#45;&gt;Node6</title>
<g id="a_edge5_Node000005_Node000006"><a xlink:title=" ">
<path fill="none" stroke="#63b8ff" d="M264.15,-186.87C255.02,-177.97 240.58,-163.89 229.36,-152.95"/>
<polygon fill="#63b8ff" stroke="#63b8ff" points="231.49,-150.14 221.89,-145.67 226.61,-155.15 231.49,-150.14"/>
</a>
</g>
</g>
<!-- Node10 -->
<g id="Node000010" class="node">
<title>Node10</title>
<g id="a_Node000010"><a xlink:href="log__service_8h.html" target="_top" xlink:title=" ">
<polygon fill="white" stroke="#666666" points="283.5,-79.5 202.5,-79.5 202.5,-60.5 283.5,-60.5 283.5,-79.5"/>
<text text-anchor="middle" x="243" y="-67.5" font-family="Helvetica,sans-Serif" font-size="10.00">log_service.h</text>
</a>
</g>
</g>
<!-- Node5&#45;&gt;Node10 -->
<g id="edge13_Node000005_Node000010" class="edge">
<title>Node5&#45;&gt;Node10</title>
<g id="a_edge13_Node000005_Node000010"><a xlink:title=" ">
<path fill="none" stroke="#63b8ff" d="M270.94,-186.94C266.12,-166.95 254.04,-116.82 247.45,-89.48"/>
<polygon fill="#63b8ff" stroke="#63b8ff" points="250.82,-88.52 245.08,-79.62 244.02,-90.16 250.82,-88.52"/>
</a>
</g>
</g>
<!-- Node7 -->
<g id="Node000007" class="node">
<title>Node7</title>
<g id="a_Node000007"><a xlink:title=" ">
<polygon fill="#e0e0e0" stroke="#999999" points="346,-79.5 302,-79.5 302,-60.5 346,-60.5 346,-79.5"/>
<text text-anchor="middle" x="324" y="-67.5" font-family="Helvetica,sans-Serif" font-size="10.00">string</text>
</a>
</g>
</g>
<!-- Node6&#45;&gt;Node7 -->
<g id="edge6_Node000006_Node000007" class="edge">
<title>Node6&#45;&gt;Node7</title>
<g id="a_edge6_Node000006_Node000007"><a xlink:title=" ">
<path fill="none" stroke="#63b8ff" d="M227.97,-126.37C246.51,-115.68 278.31,-97.35 300.2,-84.72"/>
<polygon fill="#63b8ff" stroke="#63b8ff" points="302,-87.73 308.91,-79.7 298.5,-81.66 302,-87.73"/>
</a>
</g>
</g>
<!-- Node8 -->
<g id="Node000008" class="node">
<title>Node8</title>
<g id="a_Node000008"><a xlink:title=" ">
<polygon fill="#e0e0e0" stroke="#999999" points="184.5,-79.5 105.5,-79.5 105.5,-60.5 184.5,-60.5 184.5,-79.5"/>
<text text-anchor="middle" x="145" y="-67.5" font-family="Helvetica,sans-Serif" font-size="10.00">fmt/format.h</text>
</a>
</g>
</g>
<!-- Node6&#45;&gt;Node8 -->
<g id="edge7_Node000006_Node000008" class="edge">
<title>Node6&#45;&gt;Node8</title>
<g id="a_edge7_Node000006_Node000008"><a xlink:title=" ">
<path fill="none" stroke="#63b8ff" d="M203.83,-126.37C193.14,-116.31 175.26,-99.48 162.01,-87.01"/>
<polygon fill="#63b8ff" stroke="#63b8ff" points="164.14,-84.21 154.46,-79.91 159.35,-89.31 164.14,-84.21"/>
</a>
</g>
</g>
<!-- Node9 -->
<g id="Node000009" class="node">
<title>Node9</title>
<g id="a_Node000009"><a xlink:href="log__level_8h.html" target="_top" xlink:title=" ">
<polygon fill="white" stroke="#666666" points="151,-19 81,-19 81,0 151,0 151,-19"/>
<text text-anchor="middle" x="116" y="-7" font-family="Helvetica,sans-Serif" font-size="10.00">log_level.h</text>
</a>
</g>
</g>
<!-- Node6&#45;&gt;Node9 -->
<g id="edge8_Node000006_Node000009" class="edge">
<title>Node6&#45;&gt;Node9</title>
<g id="a_edge8_Node000006_Node000009"><a xlink:title=" ">
<path fill="none" stroke="#63b8ff" d="M180.73,-130.98C153.02,-125.64 114.68,-113.3 96,-85 84.51,-67.6 94.4,-43.81 103.9,-27.84"/>
<polygon fill="#63b8ff" stroke="#63b8ff" points="107.1,-29.33 109.58,-19.03 101.22,-25.54 107.1,-29.33"/>
</a>
</g>
</g>
<!-- Node6&#45;&gt;Node10 -->
<g id="edge9_Node000006_Node000010" class="edge">
<title>Node6&#45;&gt;Node10</title>
<g id="a_edge9_Node000006_Node000010"><a xlink:title=" ">
<path fill="none" stroke="#63b8ff" d="M217.05,-126.37C221.49,-116.88 228.77,-101.36 234.49,-89.16"/>
<polygon fill="#63b8ff" stroke="#63b8ff" points="237.75,-90.45 238.83,-79.91 231.41,-87.47 237.75,-90.45"/>
</a>
</g>
</g>
<!-- Node10&#45;&gt;Node9 -->
<g id="edge12_Node000010_Node000009" class="edge">
<title>Node10&#45;&gt;Node9</title>
<g id="a_edge12_Node000010_Node000009"><a xlink:title=" ">
<path fill="none" stroke="#63b8ff" d="M224.53,-60.49C203.28,-50.7 168.15,-34.52 143.63,-23.23"/>
<polygon fill="#63b8ff" stroke="#63b8ff" points="145.04,-20.02 134.49,-19.02 142.11,-26.38 145.04,-20.02"/>
</a>
</g>
</g>
<!-- Node11 -->
<g id="Node000011" class="node">
<title>Node11</title>
<g id="a_Node000011"><a xlink:title=" ">
<polygon fill="#e0e0e0" stroke="#999999" points="552,-19 494,-19 494,0 552,0 552,-19"/>
<text text-anchor="middle" x="523" y="-7" font-family="Helvetica,sans-Serif" font-size="10.00">memory</text>
</a>
</g>
</g>
<!-- Node10&#45;&gt;Node11 -->
<g id="edge10_Node000010_Node000011" class="edge">
<title>Node10&#45;&gt;Node11</title>
<g id="a_edge10_Node000010_Node000011"><a xlink:title=" ">
<path fill="none" stroke="#63b8ff" d="M271.98,-60.45C278.84,-58.55 286.16,-56.62 293,-55 359.46,-39.29 437.69,-25.05 483.66,-17.1"/>
<polygon fill="#63b8ff" stroke="#63b8ff" points="484.53,-20.5 493.79,-15.36 483.34,-13.6 484.53,-20.5"/>
</a>
</g>
</g>
<!-- Node12 -->
<g id="Node000012" class="node">
<title>Node12</title>
<g id="a_Node000012"><a xlink:title=" ">
<polygon fill="#e0e0e0" stroke="#999999" points="277.5,-19 208.5,-19 208.5,0 277.5,0 277.5,-19"/>
<text text-anchor="middle" x="243" y="-7" font-family="Helvetica,sans-Serif" font-size="10.00">type_traits</text>
</a>
</g>
</g>
<!-- Node10&#45;&gt;Node12 -->
<g id="edge11_Node000010_Node000012" class="edge">
<title>Node10&#45;&gt;Node12</title>
<g id="a_edge11_Node000010_Node000012"><a xlink:title=" ">
<path fill="none" stroke="#63b8ff" d="M243,-60.37C243,-52.25 243,-39.81 243,-29.39"/>
<polygon fill="#63b8ff" stroke="#63b8ff" points="246.5,-29.17 243,-19.17 239.5,-29.17 246.5,-29.17"/>
</a>
</g>
</g>
<!-- Node13&#45;&gt;Node7 -->
<g id="edge18_Node000013_Node000007" class="edge">
<title>Node13&#45;&gt;Node7</title>
<g id="a_edge18_Node000013_Node000007"><a xlink:title=" ">
<path fill="none" stroke="#63b8ff" d="M461.02,-120.99C430.9,-111.52 390.81,-98.35 356,-85 354.79,-84.54 353.56,-84.05 352.32,-83.55"/>
<polygon fill="#63b8ff" stroke="#63b8ff" points="353.41,-80.22 342.83,-79.58 350.7,-86.67 353.41,-80.22"/>
</a>
</g>
</g>
<!-- Node13&#45;&gt;Node11 -->
<g id="edge17_Node000013_Node000011" class="edge">
<title>Node13&#45;&gt;Node11</title>
<g id="a_edge17_Node000013_Node000011"><a xlink:title=" ">
<path fill="none" stroke="#63b8ff" d="M584.06,-125.12C632.34,-117.17 688.13,-104.13 703,-85 742.02,-34.78 626.61,-18.14 562.58,-12.85"/>
<polygon fill="#63b8ff" stroke="#63b8ff" points="562.64,-9.34 552.4,-12.06 562.1,-16.32 562.64,-9.34"/>
</a>
</g>
</g>
<!-- Node14 -->
<g id="Node000014" class="node">
<title>Node14</title>
<g id="a_Node000014"><a xlink:title=" ">
<polygon fill="#e0e0e0" stroke="#999999" points="800,-79.5 750,-79.5 750,-60.5 800,-60.5 800,-79.5"/>
<text text-anchor="middle" x="775" y="-67.5" font-family="Helvetica,sans-Serif" font-size="10.00">atomic</text>
</a>
</g>
</g>
<!-- Node13&#45;&gt;Node14 -->
<g id="edge15_Node000013_Node000014" class="edge">
<title>Node13&#45;&gt;Node14</title>
<g id="a_edge15_Node000013_Node000014"><a xlink:title=" ">
<path fill="none" stroke="#63b8ff" d="M582.91,-121C627.79,-112.08 685.55,-99.5 736,-85 738.28,-84.35 740.61,-83.63 742.95,-82.88"/>
<polygon fill="#63b8ff" stroke="#63b8ff" points="744.13,-86.17 752.48,-79.65 741.88,-79.54 744.13,-86.17"/>
</a>
</g>
</g>
<!-- Node15 -->
<g id="Node000015" class="node">
<title>Node15</title>
<g id="a_Node000015"><a xlink:title=" ">
<polygon fill="#e0e0e0" stroke="#999999" points="429.5,-79.5 364.5,-79.5 364.5,-60.5 429.5,-60.5 429.5,-79.5"/>
<text text-anchor="middle" x="397" y="-67.5" font-family="Helvetica,sans-Serif" font-size="10.00">functional</text>
</a>
</g>
</g>
<!-- Node13&#45;&gt;Node15 -->
<g id="edge16_Node000013_Node000015" class="edge">
<title>Node13&#45;&gt;Node15</title>
<g id="a_edge16_Node000013_Node000015"><a xlink:title=" ">
<path fill="none" stroke="#63b8ff" d="M482.86,-120.95C464.33,-110.18 438.9,-95.38 420.53,-84.69"/>
<polygon fill="#63b8ff" stroke="#63b8ff" points="422.04,-81.52 411.64,-79.52 418.52,-87.57 422.04,-81.52"/>
</a>
</g>
</g>
<!-- Node16 -->
<g id="Node000016" class="node">
<title>Node16</title>
<g id="a_Node000016"><a xlink:title=" ">
<polygon fill="#e0e0e0" stroke="#999999" points="566,-85 448,-85 448,-55 566,-55 566,-85"/>
<text text-anchor="start" x="456" y="-73" font-family="Helvetica,sans-Serif" font-size="10.00">mosaic/json_forward</text>
<text text-anchor="middle" x="507" y="-62" font-family="Helvetica,sans-Serif" font-size="10.00">_decl.h</text>
</a>
</g>
</g>
<!-- Node13&#45;&gt;Node16 -->
<g id="edge19_Node000013_Node000016" class="edge">
<title>Node13&#45;&gt;Node16</title>
<g id="a_edge19_Node000013_Node000016"><a xlink:title=" ">
<path fill="none" stroke="#63b8ff" d="M507,-120.8C507,-113.34 507,-103.99 507,-95.41"/>
<polygon fill="#63b8ff" stroke="#63b8ff" points="510.5,-95.16 507,-85.16 503.5,-95.16 510.5,-95.16"/>
</a>
</g>
</g>
<!-- Node17 -->
<g id="Node000017" class="node">
<title>Node17</title>
<g id="a_Node000017"><a xlink:title=" ">
<polygon fill="#e0e0e0" stroke="#999999" points="694,-79.5 584,-79.5 584,-60.5 694,-60.5 694,-79.5"/>
<text text-anchor="middle" x="639" y="-67.5" font-family="Helvetica,sans-Serif" font-size="10.00">cpprest/ws_client.h</text>
</a>
</g>
</g>
<!-- Node13&#45;&gt;Node17 -->
<g id="edge20_Node000013_Node000017" class="edge">
<title>Node13&#45;&gt;Node17</title>
<g id="a_edge20_Node000013_Node000017"><a xlink:title=" ">
<path fill="none" stroke="#63b8ff" d="M535.97,-120.95C558.71,-109.93 590.12,-94.7 612.27,-83.96"/>
<polygon fill="#63b8ff" stroke="#63b8ff" points="613.96,-87.03 621.43,-79.52 610.91,-80.73 613.96,-87.03"/>
</a>
</g>
</g>
</g>
</svg>

<g id="navigator" transform="translate(0 0)" fill="#404254">
  <rect fill="#f2f5e9" fill-opacity="0.5" stroke="#606060" stroke-width=".5" x="0" y="0" width="60" height="60"/>
  <use id="zoomplus" xlink:href="#zoomPlus" x="17" y="9" onmousedown="handleZoom(evt,'in')"/>
  <use id="zoomminus" xlink:href="#zoomMin" x="42" y="9" onmousedown="handleZoom(evt,'out')"/>
  <use id="reset" xlink:href="#resetDef" x="30" y="36" onmousedown="handleReset()"/>
   <use id="arrowup" xlink:href="#arrowUp" x="0" y="0" onmousedown="handlePan(0,-1)"/>
  <use id="arrowright" xlink:href="#arrowRight" x="0" y="0" onmousedown="handlePan(1,0)"/>
  <use id="arrowdown" xlink:href="#arrowDown" x="0" y="0" onmousedown="handlePan(0,1)"/>
  <use id="arrowleft" xlink:href="#arrowLeft" x="0" y="0" onmousedown="handlePan(-1,0)"/>
</g>
<svg viewBox="0 0 15 15" width="100%" height="30px" preserveAspectRatio="xMaxYMin meet">
 <g id="arrow_out" transform="scale(0.3 0.3)">
  <a xlink:href="websocket__client_8cpp__incl_org.svg" target="_base">
   <rect id="button" ry="5" rx="5" y="6" x="6" height="38" width="38"
        fill="#f2f5e9" fill-opacity="0.5" stroke="#606060" stroke-width="1.0"/>
   <path id="arrow"
     d="M 11.500037,31.436501 C 11.940474,20.09759 22.043105,11.32322 32.158766,21.979434 L 37.068811,17.246167 C 37.068811,17.246167 37.088388,32 37.088388,32 L 22.160133,31.978069 C 22.160133,31.978069 26.997745,27.140456 26.997745,27.140456 C 18.528582,18.264221 13.291696,25.230495 11.500037,31.436501 z"
     style="fill:#404040;"/>
  </a>
 </g>
</svg>

<style type='text/css'>
<![CDATA[
[data-mouse-over-selected='false'] { opacity: 0.7; }
[data-mouse-over-selected='true']  { opacity: 1.0; }
]]>
</style>
<script type="application/ecmascript"><![CDATA[
document.addEventListener('DOMContentLoaded', (event) => {
  highlightEdges();
  highlightAdjacentNodes();
});
]]></script>
</svg>
