<?xml version="1.0" encoding="UTF-8" standalone="no"?>
<!DOCTYPE svg PUBLIC "-//W3C//DTD SVG 1.1//EN"
 "http://www.w3.org/Graphics/SVG/1.1/DTD/svg11.dtd">
<!-- Generated by graphviz version 2.43.0 (0)
 -->
<!-- Title: include/mosaic/auto_configurer/config_reader/yaml_config_reader.h Pages: 1 -->
<svg width="303pt" height="214pt"
 viewBox="0.00 0.00 302.50 214.00" xmlns="http://www.w3.org/2000/svg" xmlns:xlink="http://www.w3.org/1999/xlink">

<svg id="main" version="1.1" xmlns="http://www.w3.org/2000/svg" xmlns:xlink="http://www.w3.org/1999/xlink" xml:space="preserve" onload="init(evt)">
<style type="text/css"><![CDATA[
.node, .edge {opacity: 0.7;}
.node.selected, .edge.selected {opacity: 1;}
.edge:hover path { stroke: red; }
.edge:hover polygon { stroke: red; fill: red; }
]]></style>
<script type="application/ecmascript" xlink:href="svg.min.js"/>
<svg id="graph" class="graph">
<g id="graph0" class="graph" transform="scale(1 1) rotate(0) translate(4 210)">
<title>include/mosaic/auto_configurer/config_reader/yaml_config_reader.h</title>
<!-- Node1 -->
<g id="Node000001" class="node">
<title>Node1</title>
<g id="a_Node000001"><a xlink:title=" ">
<polygon fill="#999999" stroke="#666666" points="147,-206 7,-206 7,-165 147,-165 147,-206"/>
<text text-anchor="start" x="15" y="-194" font-family="Helvetica,sans-Serif" font-size="10.00">include/mosaic/auto</text>
<text text-anchor="start" x="15" y="-183" font-family="Helvetica,sans-Serif" font-size="10.00">_configurer/config_reader</text>
<text text-anchor="middle" x="77" y="-172" font-family="Helvetica,sans-Serif" font-size="10.00">/yaml_config_reader.h</text>
</a>
</g>
</g>
<!-- Node2 -->
<g id="Node000002" class="node">
<title>Node2</title>
<g id="a_Node000002"><a xlink:title=" ">
<polygon fill="#e0e0e0" stroke="#999999" points="58,-129 0,-129 0,-110 58,-110 58,-129"/>
<text text-anchor="middle" x="29" y="-117" font-family="Helvetica,sans-Serif" font-size="10.00">memory</text>
</a>
</g>
</g>
<!-- Node1&#45;&gt;Node2 -->
<g id="edge1_Node000001_Node000002" class="edge">
<title>Node1&#45;&gt;Node2</title>
<g id="a_edge1_Node000001_Node000002"><a xlink:title=" ">
<path fill="none" stroke="#63b8ff" d="M62.34,-164.95C55.71,-156.11 47.95,-145.77 41.59,-137.29"/>
<polygon fill="#63b8ff" stroke="#63b8ff" points="44.37,-135.16 35.57,-129.26 38.77,-139.36 44.37,-135.16"/>
</a>
</g>
</g>
<!-- Node3 -->
<g id="Node000003" class="node">
<title>Node3</title>
<g id="a_Node000003"><a xlink:href="i__config__reader_8h.html" target="_top" xlink:title=" ">
<polygon fill="white" stroke="#666666" points="175.5,-129 76.5,-129 76.5,-110 175.5,-110 175.5,-129"/>
<text text-anchor="middle" x="126" y="-117" font-family="Helvetica,sans-Serif" font-size="10.00">i_config_reader.h</text>
</a>
</g>
</g>
<!-- Node1&#45;&gt;Node3 -->
<g id="edge2_Node000001_Node000003" class="edge">
<title>Node1&#45;&gt;Node3</title>
<g id="a_edge2_Node000001_Node000003"><a xlink:title=" ">
<path fill="none" stroke="#63b8ff" d="M91.97,-164.95C98.74,-156.11 106.65,-145.77 113.15,-137.29"/>
<polygon fill="#63b8ff" stroke="#63b8ff" points="115.99,-139.33 119.29,-129.26 110.43,-135.07 115.99,-139.33"/>
</a>
</g>
</g>
<!-- Node4 -->
<g id="Node000004" class="node">
<title>Node4</title>
<g id="a_Node000004"><a xlink:title=" ">
<polygon fill="#e0e0e0" stroke="#999999" points="103,-74 35,-74 35,-55 103,-55 103,-74"/>
<text text-anchor="middle" x="69" y="-62" font-family="Helvetica,sans-Serif" font-size="10.00">filesystem</text>
</a>
</g>
</g>
<!-- Node3&#45;&gt;Node4 -->
<g id="edge3_Node000003_Node000004" class="edge">
<title>Node3&#45;&gt;Node4</title>
<g id="a_edge3_Node000003_Node000004"><a xlink:title=" ">
<path fill="none" stroke="#63b8ff" d="M116.84,-109.98C108.5,-102.23 95.97,-90.58 85.82,-81.14"/>
<polygon fill="#63b8ff" stroke="#63b8ff" points="88.03,-78.42 78.32,-74.17 83.26,-83.54 88.03,-78.42"/>
</a>
</g>
</g>
<!-- Node5 -->
<g id="Node000005" class="node">
<title>Node5</title>
<g id="a_Node000005"><a xlink:href="configs__decl_8h.html" target="_top" xlink:title=" ">
<polygon fill="white" stroke="#666666" points="245,-74 121,-74 121,-55 245,-55 245,-74"/>
<text text-anchor="middle" x="183" y="-62" font-family="Helvetica,sans-Serif" font-size="10.00">mosaic/configs_decl.h</text>
</a>
</g>
</g>
<!-- Node3&#45;&gt;Node5 -->
<g id="edge4_Node000003_Node000005" class="edge">
<title>Node3&#45;&gt;Node5</title>
<g id="a_edge4_Node000003_Node000005"><a xlink:title=" ">
<path fill="none" stroke="#63b8ff" d="M135.16,-109.98C143.5,-102.23 156.03,-90.58 166.18,-81.14"/>
<polygon fill="#63b8ff" stroke="#63b8ff" points="168.74,-83.54 173.68,-74.17 163.97,-78.42 168.74,-83.54"/>
</a>
</g>
</g>
<!-- Node6 -->
<g id="Node000006" class="node">
<title>Node6</title>
<g id="a_Node000006"><a xlink:title=" ">
<polygon fill="#e0e0e0" stroke="#999999" points="118,-19 74,-19 74,0 118,0 118,-19"/>
<text text-anchor="middle" x="96" y="-7" font-family="Helvetica,sans-Serif" font-size="10.00">string</text>
</a>
</g>
</g>
<!-- Node5&#45;&gt;Node6 -->
<g id="edge5_Node000005_Node000006" class="edge">
<title>Node5&#45;&gt;Node6</title>
<g id="a_edge5_Node000005_Node000006"><a xlink:title=" ">
<path fill="none" stroke="#63b8ff" d="M169.02,-54.98C155.53,-46.77 134.87,-34.18 118.96,-24.49"/>
<polygon fill="#63b8ff" stroke="#63b8ff" points="120.59,-21.38 110.23,-19.17 116.95,-27.36 120.59,-21.38"/>
</a>
</g>
</g>
<!-- Node7 -->
<g id="Node000007" class="node">
<title>Node7</title>
<g id="a_Node000007"><a xlink:title=" ">
<polygon fill="#e0e0e0" stroke="#999999" points="229.5,-19 136.5,-19 136.5,0 229.5,0 229.5,-19"/>
<text text-anchor="middle" x="183" y="-7" font-family="Helvetica,sans-Serif" font-size="10.00">unordered_map</text>
</a>
</g>
</g>
<!-- Node5&#45;&gt;Node7 -->
<g id="edge6_Node000005_Node000007" class="edge">
<title>Node5&#45;&gt;Node7</title>
<g id="a_edge6_Node000005_Node000007"><a xlink:title=" ">
<path fill="none" stroke="#63b8ff" d="M183,-54.75C183,-47.8 183,-37.85 183,-29.13"/>
<polygon fill="#63b8ff" stroke="#63b8ff" points="186.5,-29.09 183,-19.09 179.5,-29.09 186.5,-29.09"/>
</a>
</g>
</g>
<!-- Node8 -->
<g id="Node000008" class="node">
<title>Node8</title>
<g id="a_Node000008"><a xlink:title=" ">
<polygon fill="#e0e0e0" stroke="#999999" points="294.5,-19 247.5,-19 247.5,0 294.5,0 294.5,-19"/>
<text text-anchor="middle" x="271" y="-7" font-family="Helvetica,sans-Serif" font-size="10.00">vector</text>
</a>
</g>
</g>
<!-- Node5&#45;&gt;Node8 -->
<g id="edge7_Node000005_Node000008" class="edge">
<title>Node5&#45;&gt;Node8</title>
<g id="a_edge7_Node000005_Node000008"><a xlink:title=" ">
<path fill="none" stroke="#63b8ff" d="M197.14,-54.98C210.79,-46.77 231.69,-34.18 247.78,-24.49"/>
<polygon fill="#63b8ff" stroke="#63b8ff" points="249.84,-27.33 256.6,-19.17 246.23,-21.33 249.84,-27.33"/>
</a>
</g>
</g>
</g>
</svg>
</svg>

<style type='text/css'>
<![CDATA[
[data-mouse-over-selected='false'] { opacity: 0.7; }
[data-mouse-over-selected='true']  { opacity: 1.0; }
]]>
</style>
<script type="application/ecmascript"><![CDATA[
document.addEventListener('DOMContentLoaded', (event) => {
  highlightEdges();
  highlightAdjacentNodes();
});
]]></script>
</svg>
